<?xml version="1.0" encoding="UTF-8"?><svg id="Ebene_10" xmlns="http://www.w3.org/2000/svg" viewBox="0 0 930 649.9"><defs><style>.cls-1{fill:#a9ccd3;}</style></defs><rect class="cls-1" width="930" height="649.9"/><path d="M923.2,635.9c-259.8-.1-658.6,1.5-915.4,.6-1.5-154.5,.3-470-.5-625.7,0,0,0-.5,0-.5h.5c228.6-.2,687.7-.6,916.3-.5,.9,.5-1.6,625.4-.9,626.1h0Zm-.1-.1c0,.4-2.1-629.3,0-624-228.2,.2-687.2-.2-915.3-.5,1.2-3.6,0,312.8,.3,312,0,0,.3,312.5,.3,312.5-4.4-1.2,229.2-.7,228-.9,145.5,0,536.2,.5,686.6,.8h0Z"/></svg>