<?xml version="1.0" encoding="UTF-8"?><svg id="Ebene_10" xmlns="http://www.w3.org/2000/svg" viewBox="0 0 930 325"><defs><style>.cls-1{fill:#bde7ef;}</style></defs><rect class="cls-1" x="0" y=".6" width="929.2" height="325"/><g><rect class="cls-1" x="11.3" y="8.6" width="445.6" height="306"/><path d="M456.9,314.7c-111.1,0-334.6,.3-445.6,.2,0,0-.2,0-.2,0,0,0,0-.2,0-.2,0,0,.1-153,.1-153,.2-.2-.5-153.5,.1-153.2,.2-.1,445.8,0,446-.1,.2,.2-.5,306.1-.3,306.4h0Zm0,0c0,.2-.8-307.6,0-305.6,0,0-445.6-.1-445.6-.1,.5-1.3,0,153.1,.1,152.8,0,0,.1,153,.1,153,0,0-.2-.2-.2-.2,111-.1,334.6,0,445.6,.2h0Z"/></g><g><rect class="cls-1" x="470.8" y="8.6" width="445.6" height="306"/><path d="M916.4,314.7c-111.1,0-334.6,.3-445.6,.2,0,0-.2,0-.2,0,0,0,0-.2,0-.2V161.6c.3-.2-.4-153.5,.2-153.2,.2-.1,445.8,0,446-.1,.2,.2-.5,306.1-.3,306.4h0Zm0,0c0,.2-.8-307.6,0-305.6,0,0-445.6-.1-445.6-.1,.5-1.3,0,153.1,.1,152.8,0,0,.1,153,.1,153l-.2-.2c111-.1,334.6,0,445.6,.2h0Z"/></g></svg>