<?xml version="1.0" encoding="UTF-8"?><svg id="Ebene_10" xmlns="http://www.w3.org/2000/svg" viewBox="0 0 930 325"><defs><style>.cls-1{fill:#bde7ef;}</style></defs><rect class="cls-1" x="-.7" y="2.9" width="933" height="320.2"/><g><rect class="cls-1" x="13.2" y="9.4" width="906.6" height="307.8"/><path d="M919.8,317.2c-226,.2-680.7,.4-906.6,.2-.4,0-.5-308.4,0-308.3,225.9-.1,680.7-.3,906.6,0,0,0,.4,0,.4,0,0,0,0,.4,0,.4,0,0-.3,307.8-.3,307.8h0Zm0,0c0,.3-.8-309.4,0-307.4,0,0-453.3,.1-453.3,.1l-453.3-.2c.5-1.7,.1,307.9,.2,307.5-1.1-.6,453.1-.2,452.9-.4,0,0,453.4,.4,453.4,.4h0Z"/></g></svg>