<?xml version="1.0" encoding="UTF-8"?><svg id="Ebene_10" xmlns="http://www.w3.org/2000/svg" viewBox="0 0 930 325"><defs><style>.cls-1{fill:#bde7ef;}</style></defs><rect class="cls-1" x="-1.1" y="2.7" width="933" height="320.2"/><g><rect class="cls-1" x="10.2" y="10.6" width="292.4" height="307.8"/><path d="M302.6,318.4c-72.9,0-219.5,.2-292.4,.2,0,0-.2,0-.2,0,0,0,0-.2,0-.2,0,0,.1-153.9,.1-153.9,.2-.2-.4-154.2,.1-154.1,.2,0,292.4,0,292.7-.1,.1,.2-.3,307.8-.3,308.1h0Zm0,0s-.3-307.8-.3-307.8c1.8,.6-292.6,0-292.1,.2,.5-1.1,0,153.9,.1,153.7,0-.2,.4,155-.1,153.7,72.9,0,219.5,.2,292.4,.2h0Z"/></g><g><rect class="cls-1" x="318.6" y="10.6" width="292.4" height="307.8"/><path d="M611,318.4c-72.9,0-219.5,.2-292.4,.2,0,0-.2,0-.2,0,0,0,0-.2,0-.2,0,0,.1-153.9,.1-153.9,.2-.2-.4-154.2,.1-154.1,.2,0,292.4,0,292.7-.1,.1,.2-.3,307.8-.3,308.1h0Zm0,0s-.3-307.8-.3-307.8c1.8,.6-292.6,0-292.1,.2,.5-1.1,0,153.9,.1,153.7,0-.2,.4,155-.1,153.7,72.9,0,219.5,.2,292.4,.2h0Z"/></g><g><rect class="cls-1" x="627" y="10.6" width="292.4" height="307.8"/><path d="M919.4,318.4c-72.9,0-219.5,.2-292.4,.2,0,0-.2,0-.2,0,0,0,0-.2,0-.2,0,0,.1-153.9,.1-153.9,.2-.2-.4-154.2,.1-154.1,.2,0,292.4,0,292.7-.1,.1,.2-.3,307.8-.3,308.1h0Zm0,0l-.3-307.8c1.8,.6-292.6,0-292.1,.2,.5-1.1,0,153.9,.1,153.7,0-.2,.4,155-.1,153.7,72.9,0,219.5,.2,292.4,.2h0Z"/></g></svg>