<?xml version="1.0" encoding="UTF-8"?><svg id="Ebene_3" xmlns="http://www.w3.org/2000/svg" viewBox="0 0 930 325"><defs><style>.cls-1{fill:#6ab1b5;}</style></defs><rect class="cls-1" x="-3.59" y="-10.75" width="946.64" height="342.53"/><path d="M301.63,313.54c-91.76,.92-196.99,1.95-288.55,1.58,0,0-1.74,0-1.74,0,0,0,.01-1.72,.01-1.72,.9-98.87,1.53-202.69,.6-301.31,64.69-.5,152.74-.88,217.43-1.01,0,0,72.1-.07,72.1-.07h2.2s0,2.19,0,2.19c-.17,94.11-1.06,206.25-2.04,300.34h0Zm-.29-.29c-1.09-84.99-1.77-216.05-2.05-300.05,0,0,2.19,2.19,2.19,2.19-35.99,.06-108.24-.19-144.2-.28-35.92-.04-108.28-.55-144.2-.8,0,0,1.12-1.12,1.12-1.12-.98,98.17-.23,201.79,.61,300.2,0,0-1.73-1.73-1.73-1.73,0,0,35.88-.09,35.88-.09,78.22,.06,173.99,.8,252.38,1.67h0Z"/><path d="M609.83,313.54c-91.76,.92-196.99,1.95-288.55,1.58,0,0-1.74,0-1.74,0,0,0,.01-1.72,.01-1.72,.9-98.87,1.53-202.69,.6-301.31,64.69-.5,152.74-.88,217.43-1.01,0,0,72.1-.07,72.1-.07h2.2s0,2.19,0,2.19c-.17,94.11-1.06,206.25-2.04,300.34h0Zm-.29-.29c-1.09-84.99-1.77-216.05-2.05-300.05,0,0,2.19,2.19,2.19,2.19-35.99,.06-108.24-.19-144.2-.28-35.92-.04-108.28-.55-144.2-.8,0,0,1.12-1.12,1.12-1.12-.98,98.17-.23,201.79,.61,300.2,0,0-1.73-1.73-1.73-1.73l35.88-.09c78.22,.06,173.99,.8,252.38,1.67h0Z"/><path d="M919.67,313.54c-91.76,.92-196.99,1.95-288.55,1.58,0,0-1.74,0-1.74,0,0,0,.01-1.72,.01-1.72,.9-98.87,1.53-202.69,.6-301.31,64.69-.5,152.74-.88,217.43-1.01,0,0,72.1-.07,72.1-.07h2.2s0,2.19,0,2.19c-.17,94.11-1.06,206.25-2.04,300.34h0Zm-.29-.29c-1.09-84.99-1.77-216.05-2.05-300.05,0,0,2.19,2.19,2.19,2.19-35.99,.06-108.24-.19-144.2-.28-35.92-.04-108.28-.55-144.2-.8,0,0,1.12-1.12,1.12-1.12-.98,98.17-.23,201.79,.61,300.2,0,0-1.73-1.73-1.73-1.73l35.88-.09c78.22,.06,173.99,.8,252.38,1.67h0Z"/></svg>