<?xml version="1.0" encoding="UTF-8"?><svg id="Ebene_10" xmlns="http://www.w3.org/2000/svg" viewBox="0 0 930 650"><defs><style>.cls-1{fill:#bde7ef;}</style></defs><rect class="cls-1" x="-1.1" y=".7" width="933" height="649.6"/><g><rect class="cls-1" x="10.2" y="16.7" width="292.4" height="624.4"/><path d="M302.6,641.1c-.3-.3-293.1,.9-292.7,0,0-104,.1-367.9,.2-468.3,0-.2-.1-156.1,0-156.3,.1,0,292.4,0,292.6-.2,1.1,154.8,0,469.3,0,624.8h0Zm0,0c.1-154.9-1.1-471,0-624,0,0-293.3,.1-292.2-.4-.3,174.3,.2,448.1,0,624.4,0,0-.3-.3-.3-.3,0,0,292.3,.3,292.3,.3h0Z"/></g><g><rect class="cls-1" x="318.6" y="16.7" width="292.4" height="624.4"/><path d="M611,641.1c-.3-.3-293.1,.9-292.7,0,0-104,.1-367.9,.2-468.3,0-.2-.1-156.1,0-156.3,.1,0,292.4,0,292.6-.2,1.1,154.8,0,469.3,0,624.8h0Zm0,0c.1-154.9-1.1-471,0-624,0,0-293.3,.1-292.2-.4-.3,174.3,.2,448.1,0,624.4,0,0-.3-.3-.3-.3,0,0,292.3,.3,292.3,.3h0Z"/></g><g><rect class="cls-1" x="627" y="16.7" width="292.4" height="624.4"/><path d="M919.4,641.1c-.3-.3-293.1,.9-292.7,0,0-104,.1-367.9,.2-468.3,0-.2-.1-156.1,0-156.3,.1,0,292.4,0,292.6-.2,1.1,154.8,0,469.3,0,624.8h0Zm0,0c.1-154.9-1.1-471,0-624,0,0-293.3,.1-292.2-.4-.3,174.3,.2,448.1,0,624.4,0,0-.3-.3-.3-.3,0,0,292.3,.3,292.3,.3h0Z"/></g></svg>