<?xml version="1.0" encoding="UTF-8"?><svg id="Ebene_10" xmlns="http://www.w3.org/2000/svg" viewBox="0 0 930 650"><defs><style>.cls-1{fill:#bde7ef;}</style></defs><rect class="cls-1" x="4.1" y="6.5" width="933" height="642.5"/><g><polygon class="cls-1" points="920.4 204.9 13.8 425.8 13.8 25.8 920.4 25.8 920.4 204.9"/><path d="M920.5,204.9C694.6,260,239,372,13.6,425.8c.4-.4-.9-400.8,.2-400.4,225.9,0,680.7-.2,906.6,0,0,0,.4,0,.4,0s0,.4,0,.4-.4,179.1-.4,179.1h0Zm0,0s-.4-179-.4-179c2.4,1.2-453.3,.1-452.9,.5,0,0-453.3-.2-453.3-.2,.2-2.6,.8,401.3,0,399.4,225.9-55.4,680.6-166,906.6-220.8h0Z"/></g><g><polygon class="cls-1" points="13.8 448.3 920.4 227.3 920.4 627.3 13.8 627.3 13.8 448.3"/><path d="M13.8,448.2c225.9-55.1,681.4-167.1,906.9-220.9-.4,.4,.9,400.8-.2,400.4-225.9,0-680.7,.2-906.6,0,0,0-.4,0-.4,0,0,0,0-.4,0-.4,0,0,.4-179.1,.4-179.1h0Zm0,0s.4,179,.4,179c-2.4-1.2,453.3-.1,452.9-.5,0,0,453.3,.2,453.3,.2-.2,2.6-.8-401.3,0-399.4C694.6,283,239.8,393.6,13.9,448.3h0Z"/></g></svg>