<?xml version="1.0" encoding="UTF-8"?><svg id="Ebene_10" xmlns="http://www.w3.org/2000/svg" viewBox="0 0 930 650"><defs><style>.cls-1{fill:#bde7ef;}</style></defs><rect class="cls-1" x="0" y="1.2" width="933" height="649.2"/><g><rect class="cls-1" x="13.9" y="14.5" width="906.6" height="624"/><path d="M920.5,638.5c-257.3-.2-652.3,1.1-906.6,.4,0,0-.5,0-.5,0-.3-.2,.5-312.2,.2-312.4,.4-.4-.9-312.8,.2-312.4,.4-.2,907-.1,907.3-.3,.5,.5-1,624.2-.7,624.8h0Zm-.1-.1c.1,.4-1.6-627.2,0-623.2,0,0-906.6-.3-906.6-.3,.9-2.5,0,312.2,.2,311.6,0-.4,.8,314.1-.2,311.5,0,0,226.5-.1,226.5-.1,144.2,0,531,.4,680,.5h0Z"/></g></svg>