<?xml version="1.0" encoding="UTF-8"?><svg id="Ebene_3" xmlns="http://www.w3.org/2000/svg" viewBox="0 0 930 650"><defs><style>.cls-1{fill:#a8b180;}.cls-2{fill:#a0a56f;}.cls-3{fill:#b9e4ce;}.cls-4{fill:#3f4b21;}.cls-5{fill:#869595;}.cls-6{fill:#fff;}.cls-7{fill:#85b571;}.cls-8{fill:#abbc80;}.cls-9{fill:#c3e0df;}.cls-10{fill:#b4c892;}.cls-11{fill:#b0dcd5;}.cls-12{fill:#b5ae91;}.cls-13{fill:#3d4b4b;}.cls-14{fill:#95b976;}.cls-15{fill:#b2c587;}.cls-16{fill:#9fac7c;}.cls-17{fill:#9ac386;}.cls-18{fill:#b4c089;}.cls-19{fill:#d0d5aa;}.cls-20{fill:#bcb699;}.cls-21{fill:#8f9c50;}.cls-22{fill:#a1b872;}.cls-23{fill:#b1b880;}.cls-24{fill:#afdac0;}.cls-25{fill:#010100;}.cls-26{fill:#d0e3cc;}.cls-27{fill:#d8dcc7;}.cls-28{fill:#aab17b;}.cls-29{fill:#b2af80;}.cls-30{fill:#acb871;}.cls-31{fill:#98a952;}.cls-32{fill:#a5b870;}.cls-33{fill:#abbb78;}.cls-34{fill:#a9ca90;}.cls-35{fill:#e4e7d4;}.cls-36{fill:#a3ae8e;}.cls-37{fill:#aab27b;}.cls-38{fill:#b5d9c9;}.cls-39{fill:#9ecb94;}.cls-40{fill:#92c081;}.cls-41{fill:#a5bc8a;}.cls-42{fill:#adb380;}.cls-43{fill:#92a545;}.cls-44{fill:#b3b583;}.cls-45{fill:#9da950;}.cls-46{fill:#d3d6ad;}.cls-47{fill:#b1c98f;}.cls-48{fill:#030303;}.cls-49{fill:#b9bb77;}.cls-50{fill:#7b8900;}.cls-51{fill:#b1ba80;}.cls-52{fill:#b7e4d5;}.cls-53{fill:#a8ba76;}.cls-54{fill:#88bb80;}.cls-55{fill:#9eab5d;}.cls-56{fill:#b0c88c;}.cls-57{fill:#94b0a9;}.cls-58{fill:#d4d9b3;}.cls-59{fill:#d3d8c1;}.cls-60{fill:#d7dbb9;}.cls-61{fill:#a4ba80;}.cls-62{fill:#020201;}.cls-63{fill:#a7c8c1;}.cls-64{fill:#90a470;}.cls-65{fill:#8cc48b;}.cls-66{fill:#abb180;}.cls-67{fill:#b6bb83;}.cls-68{fill:#c7efe9;}.cls-69{fill:#c4d8ce;}.cls-70{fill:#d6d7af;}.cls-71{fill:#b3d0cc;}.cls-72{fill:#91c282;}.cls-73{fill:#c6e7d5;}.cls-74{fill:#dad9b5;}.cls-75{fill:#9dc28f;}.cls-76{fill:#0e0c0c;}.cls-77{fill:#9cc993;}.cls-78{fill:#a5a175;}.cls-79{fill:#8fa880;}.cls-80{fill:#b0bb82;}.cls-81{fill:#a8b38a;}.cls-82{fill:#808068;}.cls-83{fill:#84a27f;}.cls-84{fill:#67684f;}.cls-85{fill:#b4bb8a;}.cls-86{fill:#b0b280;}.cls-87{fill:#64632e;}.cls-88{fill:#a4b182;}.cls-89{fill:#8c9c80;}.cls-90{fill:#9da84f;}.cls-91{fill:#afb480;}.cls-92{fill:#c9cabf;}.cls-93{fill:#a3b468;}.cls-94{fill:#9ba850;}.cls-95{fill:#b4b985;}.cls-96{fill:#d1d8a2;}.cls-97{fill:#99c88e;}.cls-98{fill:#d6ddc7;}.cls-99{fill:#c8cdb7;}.cls-100{fill:#43392b;}.cls-101{fill:#cae0dc;}.cls-102{fill:#a8a979;}.cls-103{fill:#d5f2ef;}.cls-104{fill:#bac585;}.cls-105{fill:#b0bd7c;}.cls-106{fill:#98a753;}.cls-107{fill:#80b06c;}.cls-108{fill:#bbbe7f;}.cls-109{fill:#bcd4c8;}.cls-110{fill:#9eaa4f;}.cls-111{fill:#9f9b99;}.cls-112{fill:#e1e4ce;}.cls-113{fill:#010101;}.cls-114{fill:#b6bb84;}.cls-115{fill:#8bbd8b;}.cls-116{fill:#414429;}.cls-117{fill:#a7ac5b;}.cls-118{fill:#8b8c6f;}</style></defs><g id="Ebene_2-2"><rect class="cls-96" x=".11" y=".1" width="928.5" height="650.7"/><g><path class="cls-96" d="M.91,248.6v-31.4c1.9-1.2,4.1-1.1,6.3-1.2,32.3-1.5,64.6-.9,96.9-1,6.5,0,12.9,.6,19.1,2.8,8.2,3,16.8,3.6,25.5,4.1,12.4,.7,24.7,.8,37.1,1.1,11.4,.3,22.9,.8,34.3,1.5,10.3,.6,20.5,1.8,30.8,2.7,6.7,.6,13.4,1.1,20.1,1.7,1.2,.1,2.4,0,3.4-.5,2-1,4.2-1.1,6.3-.9,5.9,.6,11.7,.9,17.6,1.3,9.9,.7,19.9,1.4,29.8,1.1,7.9-.3,15.8-1.2,23.2-4,6.8-2.6,8.8-6.6,6.3-13.5-2.2-6.3-5-12.5-7.4-18.8-1-2.8-2.3-5.5-3.3-8.3-1.2-3.1-3.3-5-6.6-5.9-7.7-2.1-15.7-2.9-23.5-4.2-4.9-.8-9.9-1.1-14.9-1.1-12.2,.2-24.4-1-36.5-1.8-6.4-.5-12.8-.8-19.1-1.1-6.6-.4-13.2-1.9-19.7-2.7-15.2-1.9-30.3-3.6-45.6-4.9-13.2-1.1-26.5-2-39.7-2.8-5-.3-10.1-.5-15.2-.7-15.8-.4-31.5-.7-47.2-2.3-14.2-1.5-28.4-2.6-42.6-3.8-11-.9-22-1.6-33-2.4-.8-.1-1.7-.1-2.3-.7V2.5c149.3,.1,298.7,.1,448.1,.1,1.6,1.2,2.2,3.1,3.3,4.6,4.2,6,8.8,11.9,12.3,18.4,6.3,11.6,11.9,23.5,16.4,35.9,4,11.1,8.3,22,11.8,33.3,1.5,4.8,3,9.6,2.7,14.8,.5,3.1,.2,6.2,.2,9.4-.1,4.8-.1,9.6,.6,14.3,.2,1.2,.4,2.5,0,3.7-.7,1.4-1.5,1.6-2.1,0-.5-1.1-1.4-1.6-2.2-2.2-4.2-3.1-9.1-4.8-13.7-7-2-.9-2.9-2.2-3.1-4.5-.7-6.9-3-13.4-5.1-19.9-.8-2.5-3-4.1-5-5.7-5.6-4.5-11.8-8.2-17.6-12.5-2.2-1.6-5.1-.9-7.2,1.5-.2,.2-.4,.3-.6,.4-.5,.3-1.1,.4-1.7,.7-5.5,1.8-8.9,6-12.3,10.3-2.4,3-4.4,6.2-5.7,9.8-.2,.6-.3,1.6-1.4,1.4-4.2-10.4-11.3-19.2-16-29.4-1-2.1-1.8-4.3-2.9-6.3-.8-1.7-1.9-1.9-3.4-.8-1.2,.9-2.4,1.8-3.7,2.5-1.6,.8-2.4,.3-2.3-1.5,.1-1.2,.4-2.3,.1-3.4-.1-1.2,.4-2.2,.8-3.3,2-5,4-9.9,6.3-14.8,.3-.7,1.1-1.7,.2-2.2s-1.6,.3-2.3,1c-.9,1-1,2.7-2.7,3-.8-.9-.5-2-.6-3.1,0-1.3-.6-1.4-1.5-.8-1.8,1.2-3.6,2.4-5.4,3.6-.7,.5-1.4,1.3-2.4,.8-.7-.8-.2-1.6,.2-2.3,2.4-4.3,4.8-8.5,8-12.3,.7-.8,2-2.2,1.2-2.9-1.2-1-2.2,.6-2.9,1.5-4.4,5.1-8,10.8-10.3,17.2-.5,1.6-.8,3.2-1.7,4.7-.6,.2-.9,0-1.3-.4-2.8-7.2-6.9-13.6-11.5-19.7-5.2-6.8-9.1-14.5-13.4-21.8-2.1-3.5-4.3-6.9-6.6-10.3-.6-.9-1.2-1.8-2-2.6-.7-.8-1.8-1.3-2.7-.7-1.2,.7-.1,1.6,.3,2.3,4.3,7,8.7,13.9,12.6,21.2,4.8,8.9,11.5,16.5,16.6,25.1,1.5,2.4,2.9,4.8,3.8,7.5,.9,3.1,3.2,5.4,4.5,8.3,.7,1.5,2.6,1.9,4.4,1.2,1,.1,1.5,.9,1.8,1.7,.3,.9,.8,.8,1.4,.7,.5,1,.1,2-.2,2.9-.7,2.9-.3,5.4,1.1,8.1,3.7,7.3,7,14.8,11.1,21.9,4.1,7.2,8.2,14.4,12.5,21.5-.3-1.6-1.2-3.1-1.8-4.6-1.9-4.1-4.1-8.2-5.8-12.3-2.7-6.4-5.9-12.5-8.8-18.9-.2-.5-.3-1.1,0-1.7,1.5-.5,1.8,.9,2.2,1.7,4.1,7,8.5,13.9,13.3,20.4,1.6,2.1,3.2,4.2,4.9,6.3,1,1.2,1,2.3-.2,3.2-1.7,1.3-1.7,2.6-.3,4.1,.7,.7,1.2,1.6,1.5,2.6,.3,1.2,.4,2.5,.1,3.7-.7,2.9-.1,5.6,.8,8.3,1.6,4.7,3.4,9.3,6,13.6,4.2,6.9,7.9,14,12.4,20.7,1.2,1.7,2.5,3.3,4.2,4.6,1-1.3,.6-2.4-.2-3.5-4.1-5.4-7.3-11.3-10.8-17-.6-1-1.5-2-1-3.4,3.1-3.2,3.4-7,2.5-11.1-.7-3.7-1.1-7.5-.8-11.3,3-.6,3.6-3.2,4.4-5.6,.6-1.8,1-3.7,1.6-5.5,.8-2.2,1.5-2.5,3.1-.9,3.6,3.8,7.1,7.8,9.5,12.5,0,1.6-.7,3-1.3,4.5-2.5,6.5-4.1,13.3-4.3,20.3-.2,6.7,.5,13.4,4.2,19.3,.2,.5,.4,1.1,.5,1.7,.1,1.5,.7,2.5,2.4,2.6,.9,.1,1.6,.4,1.9,1.4-1,3.4-3.7,5.4-6.2,7.5-4.3,3.8-8.7,7.4-12.3,12-2,2.6-3.4,5.5-5.1,8.2-1.6,2.7-1.8,6.1-2,9.4-.1,1.1,.5,2.4-1,3.1-.3-.1-.3-.7-.4-.7-.4-.1-.1,.3-.2,.5-.8,1.7-.7,3.5,0,5.2,.2,.5,.3,1.1,.5,1.6,0,2.2,.3,4.2,2.2,5.7-.4,1.1-.5,2.3-.9,3.4-.1,4.2-3.5,7.2-3.9,11.3-.4,4.2-.7,8.4-.6,12.6,.1,3.1,.6,3.5,3.6,3.8,5.4,.5,10.8,.8,16.3,.6,6.7-.3,13.4,.5,20.1,.3,1.5,0,3,0,4.4-.4,1,1.2,.7,4.7-.5,4.9-2.1,.4-3.9,1.4-6.2,1.1-6.2-.7-12.4,.4-18.5,1-2.6,.3-5.3,.5-7.9,.8-.9,.2-1.5-.4-2.1-1-.6-.7-1.2-1.3-1.9-1.9-.8-.7-1.7-2-2.8-.7-1.1,1.3,.4,1.8,1.2,2.4,.5,.5,1.1,1,1.3,1.7,1.2,3.5,2.8,4.5,6.4,4.2,2.8,0,5.5,.1,8.2,1-.2,1.4,.7,2.1,2.3,1.9,1.1-.2,1.7-1.2,2.6-1.7,2.6-.8,5.1,.1,7.7,.3,4,.2,8.1-.1,11.9,.8,3.8,1,6.6,.3,9.6-1.9,1.7-1.3,3.7-2.3,5.6-3.2,1.9-1,2.7-2.4,2.7-4.6,0-3.1-.8-6.1-.8-9.1,.1-.8,1-1.4,.5-2.4,0-.3-.4,.1-.1,.1q.2,0,.2,.1c-.1,.4,.2,1.1-.7,1-1.7-4.4-1.8-8.8-.4-13.3,.7-1.1,1.9-2,1.5-3.6,1.6-3.6,7-6.2,11.4-5.6,1.5,.2,2.9,.6,4.4,.8,.4,0,.7,.1,1.1,.3,.2,.1,.4,.3,.6,.5,.2,.3,.2,.7,.1,1.1,.5,3.1,2.1,5.4,4.9,6.8,3.5,4.6,7.2,9.1,10.9,13.6,1.9,2.2,3.9,4.3,6.1,6.2,.6,.5,1.6,1.1,1.2,2-.4,1-1.6,.8-2.4,.7-5-.7-10-1.5-15-2.1-6.6-.8-13.1-1.7-19.8-2.1,3.1,1.3,6.7,.9,9.8,2.3,.2,.2,.3,.4,.4,.6-1.5,2.6-3.8,4.7-5.3,7.4-11.4,19.5-24.3,38-35.6,57.6-1.4,2.4-2.9,4.8-4.5,7.2-.5,.8-1,1.9-2.3,1.3-1.8-.9-2.5-2.6-3.1-4.4-.7-2.1-2-3.4-4.2-3.7-1.2-.2-2.2-.6-2.9-1.8-1-1.9-2.7-2.3-4.6-2.3-5,0-9.9-.8-14.9-.5h-1c-1.1-.1-2.3-.2-2.5-1.6-.1-1.3,1.1-1.5,2-1.8,2.7-.8,5.5-1.5,7.9-2.9,3-1.7,3.6-3,2.3-6.3-3.5-8.8-7-17.6-10.4-26.4-1.2-3.1-3.3-4.8-6.4-5.6-5.6-1.3-11.3-1.8-17-2.2-10.2-.6-20.4-1.1-30.6-2-1.3-.1-2.7-.1-4-.1-2.8,.1-4.5-1.1-5.5-3.7-2.1-5.4-4.3-10.8-6.3-16.2-1-2.8-2.8-4.4-5.7-4.9-4.3-.8-8.6-1.2-12.9-1.5-2.1-.2-3.7-.8-4.5-2.9-.7-1.8-2.1-2.6-3.9-3.2-8.8-3-17.8-4.6-27.1-5-9.3-.5-18.6-.4-27.9-.3-7.3,.1-14.6,.7-21.9,1.2-6,.4-11.9,.8-17.9,1.2-6.5,.4-12.9,.9-19.4,1.3-11.7,.8-23.3,1.5-35,.3-3.7-.4-7.5-.4-11.2-.5-5.7-.2-11.5-.4-17.2-.7-10.5-.5-20.9-.8-31.4-.7-12.7,0-25.4-.1-38.1,.4-8.1,.3-16.3,0-24.4,.4-11.3,.6-22.6,.4-33.8,1.1-4.6,.3-9.1,0-13.7,.8-.5,.2-1.4,.1-2.2-.6Z"/><path class="cls-6" d="M928.31,144.5v255c-1.5,1.2-3.2,1.2-5,1.3-9.3,.2-18.6,.2-27.8,.7-10.2,.5-20.4-.3-30.6-.2-11,.1-22,.8-33.1,.6-3.3,0-5.8,2.2-8.8,3.2-3.3,.6-6.6,.7-9.9,.7-11.5,0-23,1-34.5,.6-11-.1-21.9-.4-32.9,0-20.2,.8-40.4,.1-60.5,.6-6.9,.2-13.9,.2-20.8,1.7-1.5,.3-3,.1-4.5,.1-7.1,.1-14.2,.9-21.3,1.3-5.7-.6-11.3,1.3-17,.8-3.3-.3-3.6-.7-3.5-3.9,.4-8.8,1.3-17.5,1.7-26.3,.3-5.5,1.2-10.9,1.6-16.3,.4-5,.7-9.9,.8-14.9,.1-10.7,0-21.4,.1-32.1,.1-8.6-.4-17.1-1.4-25.6-.1-.8-.1-1.7-.1-2.5-.4-3.4,1.3-5,4.4-6.1,12.9-4.5,25.9-8.4,39.5-10.1,5.3-.7,10.6-.8,15.9-1.1,5.5-.3,10.9,0,16.4-.6,1.1-.1,2.3-.1,3.5,.2-1.1-1-2.4-1.3-3.8-1.3-6.1-.1-12.3,.5-18.4,.8-6.4,.4-12.7,.7-19.1,1.1-6.6,.4-13.2,1.1-19.8,1.8-1.2,.1-2.3,.3-3.5,0-4.9-1.3-9.7-2.7-14.6-4.3-1-.3-1.7-1-2.1-2-1-8.5-2.9-16.9-4.2-25.3,.1-.3-.1,0,.1-.2,1.4-1.9,1.1-3.4-1-4.6-.5-.9-.7-1.8-.2-2.7,3.6-5,8-9.3,11.9-14.1,1.3-1.6,2.9-3,4-4.7,2.7-4.1,6.8-5.6,11.3-6.5,10.1-2.1,20.4-3,30.6-4.4,2.8-.4,5.4-.8,7.7-2.9,2.5-2.3,6-2.8,9.2-3.6,10.4-2.4,20.8-4.2,31.8-5.6-.1,0-.5-.4-.4-.1,0,.1-.1,.1-.2,.1-6.7-.3-13.4-1.4-20-2.2-14.1-1.8-27.6-5.7-41.1-9.9-4.8-1.5-9.7-2.8-14.6-4.3-2.5-.8-5-1.9-7.2-3.4-3.3-2.2-3.5-4.4-.9-7.4,2.5-2.9,5.1-5.7,7.4-8.7,1.7-2.1,3.8-3.4,6.5-3.9,8.6-1.6,17.2-2.7,25.8-4,16.7-2.6,33.2-5.8,49.8-8.5,9.6-1.6,19.2-2.4,29-2.5,15.1-.1,30.2,.4,45.3,.7,9,.2,18.1,0,27.1,.4,9.7,.5,19.4,.5,29.1,1.2,2.9,.7,5.9,0,8.9,.5,3,.8,6,0,9,.5,6.9,.2,13.8,1.3,20.7,.6,.9-.2,1.9-.3,2.9-.3,.8,0,1.7,.1,1.3,1.4-.3,0-.6,.2-.9,0,.1,.4,.5,.1,.6,.1,2.4-.6,4.9-.3,7.3-.1,4.8,.2,9.5,.7,14.3,.7,2.7,.1,5.5-.8,8.2,.5Z"/><path class="cls-6" d="M.91,248.6c8.5-.5,17.1-.8,25.6-1.2,4.1-.2,8.1-.2,12.2-.4,10.7-.5,21.4-.2,32.1-.6,11.3-.5,22.6-.2,33.9-.4,2.1,0,4.1-.5,6.2-.4,8.6,.5,17.3,.2,25.9,.6,4.6,.2,9.3,.2,13.9,.4,7.4,.4,14.9,.7,22.4,1.1,3.5,.2,7,.3,10.4,.4,2,.1,3.9,.6,5.9,.4,4-.5,8.1-.3,12.1-.8,2.8-.4,5.6-.3,8.4-.5,3.6-.2,7.1-.6,10.7-.7,6.1-.3,12.2-.9,18.3-1.3,2.8-.2,5.6-.3,8.4-.4,4-.2,7.9-.4,11.9-.7,10.3-.7,20.6-.6,30.9-.4,11.3,.3,22.4,1.7,33.2,5.6,1.8,.7,3,1.7,3.6,3.4,.8,2.3,.9,2.2,3.4,2.4,5,.4,10.1,.7,15,1.9,2,.5,3.3,1.7,4.1,3.6,2.4,6.2,4.9,12.3,7.3,18.5,.6,1.6,1.5,2.3,3.1,2.3,2.7,.1,5.5,.3,8.2,.4,4.1,.2,8.1,.5,12.2,.7,6.4,.5,12.9,.6,19.3,1.3,4.7,.4,9.4,.9,14,2,3.1,.7,5.1,2.4,6.2,5.4,3.5,9.3,7.3,18.5,10.9,27.8,1.1,2.7,.5,4.4-2,5.8-2.3,1.3-4.8,2.3-7.4,3-1,.2-1.9,.4-2.9,.7-.3,.1-.9,.2-.7,.8,.1,.4,.3,.8,.8,.9,.6,.1,1.2,.1,1.7,.1,5.5-.2,10.9,.6,16.4,.6,2,0,3.8,.6,4.5,2.8,.3,1,.9,1.2,1.9,1.2,.7,0,1.5,.3,2.2,.5,1.2,.3,2,1.1,2.4,2.3,.1,.3,.2,.6,.3,.9,.8,2,1.4,4.1,3.4,5.3,.2,1.6-.8,2.9-1.5,4.1-4.8,8.3-9,17-13.7,25.4-4.1,7.5-8.2,15-12.1,22.6-2.1,4.1-3.4,8.4-5.2,12.6-.7,1.7,.6,2.9,.4,4.3-.5,1.7-1.9,2-3.3,2.2-5.4,.9-11,1.1-16.4,.5-9.6-1.1-19.1-.5-28.6,.4-4,.4-8.1,.6-12.2,.8-9.1,.6-18.2,.2-27.3,.9-2.9,.2-5.8-.4-8.7-.3-7.2,.1-14.4,.3-21.6,.7-2.9,.2-5.8,.2-8.7,.2-8.2,0-16.5-.2-24.7,.1-13.8,.5-27.6,.2-41.3,.5-11.3,.3-22.6,.3-33.8,1.6-14.8,1.8-29.7,1.2-44.5,1.8-16.7,.6-33.4,.8-50,1.1-12.7,.2-25.4,1-38,2.2-3,.3-6,.3-8.9,.5-10.4,.7-20.9,.7-31.4,.6-5.1,0-10.1,.8-15.2,.5-1.2-.1-2.5,.1-3.6-.8,0-59.2,0-118.5,0-177.8Z"/><path class="cls-110" d="M.91,628.7v-162.9c1-.9,2.2-.7,3.3-.7H23.31c4,0,7.9-.5,11.8-.8,1.8-.4,3.7,0,5.5-.6,.6-.1,1.2-.2,1.7-.2,8.7,.3,17.4-.6,26.1-.5,14.6,.2,29.2-.4,43.8-.7,9.2-.1,18.4,.1,27.6-.4,9.2-.6,18.5,0,27.6-.5,8.7-.5,17.5,.1,26.1-.5,8.9-.5,17.8,0,26.6-.5,8.6-.5,17.1,0,25.6-.5,9.2-.6,18.5,0,27.6-.5,8.6-.5,17.1-.1,25.7-.4,17.2-.6,34.4-.8,51.5-1.1,5.1-.1,10.3-.6,15.4-.3,1.8,.6,3.5,1.8,5.4,.2,1.8-.3,3.6-.4,5.3,.1,.5,.2,.9,.6,1,1.2-.1,1.4-1.3,1.8-2.3,2.4-17.8,10.2-35.4,20.6-53,31-3.1,1.9-6.2,3.9-9.5,5.4-2,.1-3.6,1.3-5.2,2.2-7.9,3.9-15.3,8.4-22.5,13.4-1.3,1-2.9,1.5-3.8,3-.5,.7-1.1,1-1.9,1.1-.5-.1-.8-.1-.7,.6-3.8,2.9-8,5.1-12,7.5-10.8,6.3-21.3,12.9-32,19.2-23,13.7-45.9,27.5-68.8,41.3-17.8,10.7-35.6,21.3-53.4,32.1-.9,.6-1.8,1.2-2.5,2-.5,.8-2.4,.4-1.7,2.1-1,1.3-2.5,1.6-3.9,2.1-1.4-.3-2.3,.4-2.9,1.6-2.1,1.6-4.5,2.3-7.1,2.3h-7.4c-1,0-2,.1-2.8-.7,.2-1.4,1.3-.7,1.9-.8,3-.1,6,0,9,0h-9.5c-1,0-1.9,.1-2.3,1.1-.7,.3-1.4,.4-2.2,.4h-.7c-18.8-.4-37.5,.7-56.3,.5-1.5,0-3,.1-4.5-.2-4.2-1.7-8.5-.5-11.2-.7,2,0,5.6-.4,9.1,.2-.3,1-1.2,1.1-2,1.1-4.4,.1-8.9,.1-13.3,0-.1,.1-.7-.2-1.3-.6Z"/><path class="cls-96" d="M855.91,141.1c-8.1,.1-16.1-.4-24.1-.7-8.6-.3-17.1,0-25.6-.4-8-.4-15.9-.1-23.9-.5-12.4-.6-24.7-.4-37.1-.3-3.6,0-7.3,.6-10.9,1.1-5,.7-10,1.4-15,2.3-4.9,.8-9.7,1.9-14.6,2.7-5.6,.9-11.3,1.9-16.9,2.8-6.7,1.1-13.4,2-20.1,3.3-4.1,.8-8.4,1.1-12.5,1.7-2.3,.3-4.6,.8-6.8,1.3-1.4,.3-2.6,1.1-3.5,2.2-3.1,3.6-6.2,7.1-9.2,10.7-1.4,1.6-1.3,2.5,.1,4.1,2,2.2,4.7,3.2,7.3,4.1,7,2.2,14.1,4.3,21.2,6.4,6.4,1.9,12.7,3.9,19.2,5.2,6.4,1.3,12.8,2.7,19.3,3.3,4.9,.5,9.7,1.2,14.5,1.9,1.5,.2,3.2-.3,4.8,.7-1.4,1-3,1.1-4.5,1.3-9.9,1.1-19.6,3.1-29.3,5.2-2.3,.5-4.6,1.4-6.9,2.2-.8,.3-1.7,.7-2.1,1.3-1.4,2.4-3.8,2.5-6,2.7-4.9,.4-9.7,1.2-14.5,1.8-7.9,.9-15.8,2-23.4,4.3-.9,.3-1.4,.8-2,1.4-2.7,3-5.4,6.1-8,9.2-2.8,3.3-5.6,6.6-8.4,9.8-.9,1-1.5,2.4-2.8,3.1-1.1,0-1-.9-1.2-1.6-.5-1.7-1.2-3.4-1.6-5.2-.4-1.5-1.1-2.7-2.3-3.6-.7-1.2,.1-2.4-.1-3.6,0-.5,.3-.9,.7-1.2,.4-.4,1.1-.7,.9-1.3-.5-1.4-.1-3-1.4-4.1-1.1-2.7-1.3-5,1.3-7.4,2.9-2.6,4.5-6.2,5.7-9.8,4.1-12.5,5.7-25.2,3.8-38.3-.7-5.3-3-10-5.8-14.4-1.6-2.6-3.4-4.6-6.9-3.7-.2-.2-.3-.5-.3-.8,.8-3.7,2.4-7.2,3.4-10.9,3.9-14.7,4.5-29.6,3.4-44.7-.1-1.2,0-2.5-.1-3.7-.2-2.1-.2-4.3-2.2-5.9-.7-.6-1-1.5-1-2.5,.4-1.6,.7-3.1,1.2-4.7,.2-.6,0-1.8,1.4-1.4,1.2,1.8-.2,3.7,.3,5.6,.9-.2,.8-1,1-1.6,3-9.3,3.9-19,4.8-28.6,.8-8.9,1.1-17.9,1.5-26.8,.2-3.2-.7-6.3-.5-9.4,.1-1.1-.1-2.2,.7-3.1h307.6V86.8c-.9,.8-2,.7-3.1,.7-11.4,0-22.8,.3-34.1-.1-11-.4-22.1-.7-33-1.8-15.4-1.5-30.6,.1-45.8,3.2-23.6,4.9-46.9,11.2-69.9,18.1-3.4,1-6.4,2.5-8.6,5.5-1.1,1.5-2.5,2.9-3.7,4.4-1.8,2.3-1.4,3.9,1.3,5,2.8,1.2,5.8,1.9,8.8,2.8,10.8,3.1,21.4,6.7,32.6,8.4,9.2,1.4,18.5,2.1,27.7,2.8,14.4,1.1,28.8,1.4,43.2,2.5,3.9,.3,7.8,.7,11.7,1,1.3,.1,2.7,.2,3.8,1.1-1.2,1.7-2.4,.7-3.5,.7Z"/><path class="cls-110" d="M928.31,447.4v174.3c-2.3-.1-3.9-1.7-5.7-2.8-26.1-15.7-52.3-31.2-78.5-46.9-24.9-14.9-49.9-29.8-74.9-44.7-17.9-10.7-35.8-21.4-53.7-32-8.6-5.1-17.2-10.4-25.9-15.4-.6-.3-1.2-.6-1.6-1.1,0-1.1-.9-.8-1.5-.9-5.1-2.4-9.7-5.7-14.6-8.4-5-2.8-10-5.8-15-8.7-1-.6-2.1-1-2.5-2.2,.2-3,1.5-5.2,4.4-6.3,2.7-.5,5.4-.8,8.2-.7,14.3,.3,28.5-.5,42.8-.6,8.6-.1,17.3,.1,25.9-.4,8.6-.5,17.1,0,25.6-.5,8.4-.5,16.8,0,25.1-.5,8.5-.5,16.9,0,25.4-.5,8.1-.5,16.3,0,24.4-.5,8.6-.6,17.3,0,25.9-.5,8.4-.5,16.8,0,25.1-.5,8.6-.5,17.1-.1,25.6-.5,4.1-.2,8.1-.5,12.2-.4,1.1-.1,2.3-.2,3.3,.7Z"/><path class="cls-6" d="M.91,151c4.9-.1,9.8,.5,14.6,.9,2.6,.2,5.1,.3,7.7,.5,5.4,.3,10.7,.9,16.1,1.2,6.4,.4,12.8,1.2,19.3,1.8,4.5,.4,9.1,.7,13.6,1.1,4.7,.4,9.4,1,14.1,1.4,2.2,.2,4.5,.3,6.7,.6,7,.7,14.1,.3,21.1,.7,5.5,.3,11,.2,16.4,.5,6.6,.4,13.2,.7,19.9,1,7.3,.4,14.5,.9,21.8,1.5,5.8,.5,11.5,.9,17.3,1.5,5.5,.5,11,1.2,16.5,1.8,4.9,.5,9.9,1,14.8,1.6,6.2,.8,12.5,1.7,18.7,2.6,2.5,.4,4.9,.7,7.4,.8,6.9,.4,13.7,.6,20.6,1.4,2.5,.3,5,.3,7.4,.5,4.2,.2,8.4,.5,12.7,.8,6.9,.4,13.8,.1,20.7,.5,4.1,.2,8.2,.8,12.3,1.5,4.9,.9,9.8,1.3,14.7,2.4,2.4,.6,4.8,1.1,7.2,1.9,2.1,.7,3.6,2,4.5,4,1.7,4,3.3,8,4.9,12,2.1,5.2,4.1,10.5,6.2,15.7,.7,1.9,1.3,3.7,1.4,5.8,.3,4.3-1.9,7.1-5.5,8.9-3.7,1.9-7.8,2.8-11.9,3.5-8.3,1.6-16.7,1.8-25,1.4-7.1-.4-14.2-.3-21.3-1.3-2.4-.3-4.8-.3-7.2-.4-3.6-.2-7.3-.7-10.9-.6-.7,0-1.4-.2-1.9,.3-1.7,1.7-3.9,1.4-5.9,1.1-2.7-.5-5.4-.4-8.2-.7-4.8-.6-9.7-.7-14.6-1.2-4.6-.4-9.2-.9-13.8-1.4-2.5-.2-4.9-.4-7.4-.6-7.9-.5-15.7-.8-23.6-1.1-3.7-.2-7.5-.1-11.2-.4-7.6-.6-15.3-.1-22.9-.6-4.6-.3-9.3-.1-13.9-.4-5.3-.4-10.6-.8-15.8-1.2-7.2-.6-13.9-3-20.7-4.9-1.4-.4-2.9-.7-4.4-.8-26.3-.8-52.7-.4-79-.3-5.5,0-11,.1-16.4,.5-3.8,.3-7.6,.3-11.4,.4-1.8,.1-3.6,.6-5.4,.5-.3-22.5-.3-44.6-.3-66.7Z"/><path d="M928.31,447.4c-24.8,.5-49.7,1-74.5,1.5-20.2,.4-40.4,.7-60.5,1.1-16.4,.3-32.7,.6-49.1,1-18.1,.4-36.2,.6-54.3,1.1-10.6,.3-21.3,.1-31.9,.7-1.6,1.3-3.6,.7-5.4,.8-1.2,.1-2.4,.1-3.7,0-11.8,0-23.5,.5-35.3,.6-5.9,0-11.7,.3-17.6,.4-2.6,0-3,.4-3,3.1,0,3.1,1.1,5.6,3.7,7.5,1.9,1.4,3.9,2.6,5.9,3.8,2.5,1.5,4.9,3.1,7.1,5,.9,.9,2,1.6,2.9,2.5,3.3,3,5.8,6.5,8.2,10.2,1.7,2.8,2.9,5.7,4.2,8.7,1.9,4.5,2.2,9.3,1.9,14.1-.1,1.3-.5,2.6-1.2,3.7-.1,.2-.3,.4-.4,.6-.1,.2-.3,.4-.4,.6-1.5,1.5-.7,2.5,.7,3.4,3.2,6.9,4.1,14.2,3,21.7-.8,4.9-4.3,7.8-8,10.7-12.4,9.6-26.4,15.8-41.3,20.4-6.4,1.9-12.8,3.5-19.3,4.8-.6,.2-1.3,.2-2,.3-1.8,.4-3.6,.6-5.3,1-10.1,1.7-20.2,2.6-30.4,3.1-12.2,.7-24.2-.3-36.3-1.6-.7-.2-1.4-.2-2.1-.3-1.1-.4-2.3-.3-3.4-.5-.5-.1-1-.2-1.5-.3-.5,0-1,0-1.5-.1-12.9-2.4-25.6-5.8-37.6-11.3-5.6-2.6-11-5.5-15.7-9.5-2-1.5-4-3.1-5.8-5-2.1-2.1-4.2-4.1-6-6.5-1-1.3-1.7-2.6-1.7-4.2,.7-6.1-.1-12.3,1.2-18.4,.3-1.3,.7-2.5,1.5-3.6,.7-.8,1.3-1.6-.2-2.3-4-5.7-4-12.1-2.7-18.5,.3-1.7,.8-3.4,1.3-5,2.5-7.5,6.8-14,12-19.9,1.5-1.7,3.3-3,5.2-4.3,3.4-2.3,5.8-5.4,7.9-8.9,.9-1.5,.4-2.2-1.3-2-10.4,1.2-20.9,0-31.3,.9-6.1,.5-12.3,.1-18.4,.1-2,0-4-.1-6,.3-.9,.2-1.7,0-2.4-.5-2-.2-3.9-.1-5.9,0-1.3,.8-2.7,.5-4.1,0-6.6-.2-13.1,.2-19.7,.3-13.9,.2-27.9,.5-41.8,.7-17.4,.3-34.7,.7-52.1,1-17.7,.3-35.4,.7-53.1,1-16.9,.3-33.7,.6-50.6,.9-19.8,.4-39.7,.7-59.5,1.1-16.4,.3-32.9,.6-49.3,.9-.3,0-.7,.1-1,.1-5.1,.4-10.2,.4-15.3,.6-1.1,0-2.2,0-3.2,.3-6.2,.1-12.5,0-18.7,0-.7,0-1.5,0-2.1-.5v-1.5c.6-.5,1.3-.8,2.1-.7,3.8,.2,7.6-.6,11.4-.5,9.1,.2,18.2-.4,27.3-.6,6.1-.2,12.3-.1,18.4-.4,13.5-.7,27-.8,40.5-1.2,6.8-.2,13.6-.1,20.4-.4,4.6-.2,9.3-.3,13.9-.4,17.3-.3,34.6-1,51.9-1.1,4.6,0,9.3-.6,13.9-.4,4.4,0,8.8,.4,13.2-.3,1.6-.2,3.2-.2,4.7-.1,9.6,.3,19.2-.6,28.8-.5,1.4-.1,2.8,0,4.2,0,3,0,6.1,.2,9.1-.5h10.3c4-.1,8.1,.4,12.1-.3,3.5-.3,6.9-.1,10.4-.2,4.2-.2,8.4,.4,12.5-.3,4.5-.3,9-.1,13.5-.2h2.3c17.5-.7,35-.8,52.5-1.2,6.6-.1,13.3-.1,19.9-.4,14.1-.5,28.2-.6,42.3-1,1.1,0,2.5,.3,2.5-1.6-.2-1-.7-1.8-.9-2.8-.3-1.7-1.2-2.4-3-2-11-.1-21.9,.5-32.9,.6-15.4,.3-30.7,.6-46.1,1-15.4,.4-30.9,.6-46.3,1-15.4,.4-30.7,.6-46.1,1-7.9,.2-15.8,.1-23.7,.4-15.9,.6-31.9,.7-47.8,1.1-7.6,.2-15.3,.1-22.9,.4-16.3,.6-32.5,.6-48.8,1.1-8.3,.2-16.6-.1-24.9,.4-9,.6-17.9,0-26.9,.5-8.6,.5-17.1-.1-25.6,.5-10,.6-19.9,.2-29.9,.4-3.2,.1-6.3,.7-9.4,.5-1.2-.1-2.3,.1-3.3-.8v-2c1-.8,2.2-.8,3.3-.8,13-.1,26-.9,39.1-1.1,10.9-.2,21.9-.6,32.8-1,12.5-.4,25.1-.7,37.6-1,12.4-.4,24.9-.6,37.3-1,13-.4,26-.7,39.1-1,13-.3,26-.6,39.1-1,13.7-.4,27.4-.7,41.1-1,13.6-.3,27.2-.6,40.8-1,13.9-.4,27.9-.6,41.8-1,14.2-.4,28.4-.6,42.6-1,12-.3,24.1-.7,36.1-.9,1.5,0,2.3-.2,1.5-1.9-1.2-2.6,.7-4.2,2.4-5.7,2.8-2.6,2.9-2.6-.4-4.8-.3-.2-.7-.5-1-.7-2.7-2-5.5-4.1-8.2-6.1-3.9-1.3-7.9-.6-11.8-.5-1.1,0-2.1,.3-3.2,.3-10.6-.3-21.2,.4-31.9,.6-13.7,.2-27.4,.8-41.1,1-3.6,.1-7.1,.5-10.7,.4-5,0-10-.4-15,.3-3.4,.3-6.9,.1-10.3,.2-3,.1-6.1-.3-9.1,.3-2.3,.3-4.6,.1-6.9,.2h-4.1c-3,.1-6.1-.4-9.1,.4-3.8,.3-7.6,0-11.4,.2-13.4,.4-26.8,1-40.3,1.1-4.1,0-8.3,.5-12.4,.4-4.5,0-9.1-.4-13.6,.3-1.7,.3-3.5,.2-5.2,.2-6.2-.3-12.4,.5-18.6,.5-2.5,0-5.1-.1-7.6,.1-14.2,.6-28.3,.8-42.5,1.1-13.6,.3-27.2,.6-40.8,1-16.7,.4-33.3,1.1-50,.9-.6,0-1.2,.1-1.7,.3-5.3,.4-10.5,.1-15.8,.2-1.2,0-2.5-.1-3.7,.4-2.7,.1-5.4,.8-8-.6v-2c.6-.5,1.3-.7,2.1-.7,2.5,0,5-.4,7.4-.5,10.4-.2,20.7-.5,31.1-.9,13.4-.5,26.8-.9,40.3-1.6,5.6-.3,11.1-.3,16.7-.4,8-.2,16.1-.6,24.1-.7,12.1-.2,24.2-.7,36.3-1,10-.3,20.1-.6,30.1-.9,12.2-.3,24.4-.7,36.6-1.1,11.5-.3,23.1-.5,34.6-1,13.8-.6,27.7-.8,41.5-1.3,9.4-.3,18.9-.5,28.4-.7,13.4-.3,26.8-.8,40.3-1.3,9.8-.3,19.6-.8,29.4-.7,5.5,.1,10.9,0,16.4-.4,2.6-.2,2.8-.4,2.6-3.2-1.1-.7-1.3-1.6-.8-2.9,2.4-7.2,5.7-14.1,9.2-20.8,6.7-12.5,13.4-25,20.1-37.6,1.2-2.3,2.6-4.6,3.8-6.9,3.4-5.3,6.6-10.7,9.9-16,6-9.9,12.1-19.7,18.5-29.4,4.7-7.2,9-14.7,13.5-22,1.4-2.2,2.9-4.2,5-5.8,1.3-.2,2.5-.3,3.2,1.1-.3,1.8-1.6,3.1-2.6,4.5-4.1,6.2-8,12.5-11.9,18.9-9.7,14.3-18.9,28.9-28,43.5-11.7,18.8-21.6,38.5-32.8,57.5-1.9,3.2-3.4,6.6-5,10-1.3,2.8-1.2,3,1.8,4.1,6.3,2.3,12.8,4.1,19.1,6.5,.9,.4,1.8,.7,2.7,1.2,.3,.2,.7,.4,1,.6,.2,.1,.4,.3,.7,.5,.4,.5,.9,.7,1.5,.7,6.3,.2,12.6-.3,18.8-.8,4-.4,8-.5,11.9-.6,8.8-.1,17.6-.6,26.4-.6,1.4,0,2.8,0,4.2,.3,2.4,.4,2.5,.3,2-2-1-4.5-1.8-8.9-2.5-13.5-2-13-2.5-26.1-1.9-39.2,.6-13.7,1.9-27.4,5.9-40.5,4.3-13.7,9.4-27.1,16.8-39.5,1.4-1.9,2.2-4.1,3.8-5.9,.9-2.2-1.2-1-1.7-1.5-9.5-1.4-19-2.9-28.5-4.4-1.7-.6-3.5-.9-5.2-1.5-3.4-.6-6.9-1.2-10.3-1.9-.6-.1-1.8,.2-1.6-1,.1-.9,1.1-.8,1.9-.8,3.9,.4,7.9,.8,11.8,1.3,8,1,15.9,2.1,23.9,3.2,.5,.1,1,.2,1.4,0,.1-.3-.1-.5-.3-.6-5.9-4.9-10.3-11-15.1-16.8-1.1-1.4-2.1-3-3.1-4.5-2.1-1.8-3.1-4.3-4.4-6.6,0-.4,.1-.9-.2-1.3h0c-.4-.3-.7-.3-1.1,0-1.6,.2-3.1-.6-4.6-.8-4.3-.6-7.7,1.1-10.8,3.8-.4,.3-.6,.8-.6,1.3,.2,1.2-.6,2.1-.9,3.1-.8,1.8-.9,3.6-.9,5.5,0,2.7,.3,5.4,.9,8,.4,.2,.3,.6,.1,.9,.2,2.8,1,5.5,1,8.4-.1,4.5,0,4.5-3.9,6.7-3.2,1.9-6.4,3.8-9.7,5.6-.7,.4-1.6,1.2-2-.5-.2-.7-1-.5-1.5-.5-3.2-.2-6.5-.5-9.7-.5-3.9-.1-7.7-.9-11.7-.7-1.6,.8-3.1,1.1-4.6-.2-2.9-.4-5.8-.9-8.8-1h-.3c-.3,0-.6-.1-1-.2-2.1-.9-3.5-2.6-4.9-4.3-1-.9-1.9-1.8-2.9-2.7-.8-.7-.9-1.4-.1-2.1,.7-.6,1.1-1.8,2.4-.8,1.7,1.3,3.1,3,4.5,4.6,4.2,1.5,8.6,1.4,13,1.7,7.3,.4,14.7,1,21.9,2.1,2.9,.4,5.4,.2,7.6-1.7,.4-.4,1-.6,1.5-.9,4.7-2.2,5-2.7,3.9-8-.6-4-.8-8.1-1.1-12.1-.3-4.4-.1-8.9,3.7-12.1,.9-.6,1.9-1.2,2.3-2.3,1-2.7,3.4-3.6,5.8-4.5,3.1-1.1,6.2-.8,9.3,.3,1.3,.4,1.7,.2,1.8-1.3,.7-11.8,2-23.6,3.7-35.4,1.3-9.3,2.5-18.7,3.3-28.2,.1-1.7,.7-3.4,.5-5.1-.1-.2-.3-.3-.5-.2-6.1,6.2-13.9,9.9-20.7,15-5,3.8-9.8,7.7-13.6,12.7-2.5,3.4-3.9,7.3-3.5,11.6,.2,1.9-.5,3.8-1.3,5.5-.4,.8-1.1,1.6-2.1,1.4-1-.2-1.2-1.1-1.2-2,0-2.3-.6-4.6-.9-6.9-.7-5.3,1.9-9.5,4.8-13.5,6.3-8.8,15.1-14.9,24-20.7,3.6-2.3,7.2-4.5,10.5-7.2,1.7-1.4,3.6-2.4,5.6-3.1,2.3-.9,3.5-.2,3.6,2.3,.1,3.8,.2,7.6,0,11.4-.5,8.6-1.4,17.2-2.4,25.7-1,8.5-2.5,16.9-3.3,25.4-.3,3.6-1,7.1-1.3,10.6,0,.6,0,1.2-.3,1.7-1.8,2.6-.4,4.4,1.3,6.3,6.5,7.6,13.1,15.2,20.8,21.8,2,1.7,4.2,3,6.4,4.2s4.1,1.1,6-.4c1.5-1.1,3.1-2,5.1-1.4,1.5,.4,1.9,1.2,1.2,2.6-.9,1.6-2.1,3-3.5,4.1-3.4,2.6-5.5,6.1-7.7,9.7-6.9,11.2-11.3,23.5-15.7,35.7-3.2,8.8-4.7,18-5.9,27.2-1.5,12.1-2.5,24.3-2.1,36.5,.4,11.1,1.1,22.2,2.7,33.2,.3,1.8,.8,2.6,2.8,3,4.1,.8,7.9,2.5,11.9,3.6,6.6,1.7,13.2,2.4,20,2.4,9.5,.1,18.9,.3,28.3-1.3,12.2-2.1,23.7-6.4,35-11.4,2-.8,3-2,2.3-4.3-.5-1.7-.1-3.6-.2-5.4,1-13.1,1.6-26.3,3.2-39.4,.4-3.7,.8-7.4,.8-11.2,.1-11.8-.1-23.5,.4-35.3,.5-10.3-.4-20.5-1.5-30.8-.8-7.8-1.2-15.7-1.8-23.5-.5-6.4-1.7-12.7-2.8-18.9-.2-1.5-.6-2.9-.7-4.4-.6-4.2-1.2-8.4-3-12.3-1.4,.3-.5,1.6-1,2.3-1.2,8.6-3,17.1-4.3,25.7-.5,1.9-.8,3.8-1,5.7-1.7,9.9-3.5,19.7-5.2,29.6-.2,1.1-.5,2.1-.6,3.2-.3,1.8-.8,3.5-1,5.3-.1,.9-.3,1.8-1.2,2.3-1.3-.4-1-1.6-1.1-2.6,.2-6.1,1.4-12.2,2.3-18.2,2.5-17.5,4.7-35.2,8.3-52.5,2.4-11.8-.5-22.3-4-33-.5-1.5-1.1-3-1.5-4.5-.2-1.5-.9-2.9-1.3-4.4-.4-1.4-1.2-2.3-2.6-2.5-.3,0-.5,.1-.7,.3-.2,.4-.2,.9-.3,1.4,0,.3-.1,.6-.2,.9-.2,.6-.2,1.1-.2,1.7,0,.5-.1,1-.2,1.5-5.3,28.6-10.5,57.2-16,85.7-.2,1.1-.6,2.1-.6,3.2-.5,2.6-1,5.2-1.6,7.8-.2,.9-.4,2.3-1.6,2.1-1.4-.2-1.1-1.7-1-2.7,1.4-9.8,2.9-19.7,4.5-29.5,4-24.3,8.4-48.5,12.4-72.8,.2-1.2,.3-2.5,.8-3.6,1.3-3.4,.5-6.3-1.4-9.1-.2-.5-.4-1-.6-1.4-.1-.2-.2-.4-.3-.7-1.3-3-3.1-5.7-5-8.6-.4,1.6-.6,3.1-.9,4.5-1.3,6.1-2.4,12.2-3.7,18.2-4.8,22.6-9.6,45.2-14.5,67.8-.5,2.1-1,4.2-1.6,6.2-.2,.8-.5,1.8-1.5,1.6-1.1-.2-1.1-1.3-1-2.3,.1-1.1,.3-2.1,.5-3.2,.9-6.5,2.4-12.9,3.5-19.4,3.4-17.1,6.9-34.3,10.3-51.4,1.1-5.7,2.3-11.4,3.6-17q1.6-6.2-4.5-7.9c-6.2-1.8-12.3-3.9-17.8-7.3-1.6-1-3.2-2.1-4.8-3.1-4.5-3.1-3.8-3-5.7,1.7-.8,2.1-1.7,4.1-2.7,6.1-.8,1.4-1.7,2.4-3.4,2.5-.7-.1-1.1-.6-1.3-1.2-.6-2.7,.9-5,1.5-7.4,.4-1.5,1-3,1.7-4.4,1.8-3.8,1.4-3.2-1-5.7-2.1-2.2-4.5-4.2-6.4-6.6-.7-.9-1.4-1-2.3-.2-3.6,3.4-7.9,6.1-11.4,9.6-2.4,2.4-4.1,2.4-6.7,.3-.6-.5-1.2-.9-1.6-1.5-4.1-5.4-7.4-11.1-10.4-17.2-.3-.7-.4-1.5-.4-1.8,.5,4,.1,8.6,.5,13.1,.4,3.8-.2,7.8-2.2,11.3-.2,.2-.4,.4-.6,.6-.1,.1-.2,.1-.4,.2-1.7,.6-2.4-.3-2.4-1.8,.1-2.4,.1-4.9,1-7.3,.2-2-.2-3.9-.4-5.9-.3-5.2-.6-10.3-.1-15.5,.2-2.3-.3-4.6-.3-6.9,1.1-1.6,2.4-1,3.7-.2,1.4,1,2.4,2.4,3,3.9,3.4,8.2,8.8,15.1,13.4,22.6,.6,1.3,1.3,1.5,2.1,.1,3.2-2.8,6.6-5.2,9.8-7.8,1.4-.8,.8-1.8,.1-2.7-5.1-6.6-8.7-14.1-12.1-21.7-4.4-9.8-8.1-19.8-9.9-30.4-.7-4.3-.8-8.6-1.2-12.8-1.6-16.1-7.8-30-19.1-41.7-4.4-4.5-8.9-8.9-13.3-13.4-.7-.7-1.8-1.3-1.5-2.6h8c3,1.8,5.2,4.6,7.6,7.1,6.2,6.3,11.6,13.1,15.4,21.2,1.5,3.2,3.1,6.4,3.9,9.9,.1,.7,.4,1.3,.5,2,0,.2,0,.4,.1,.6v-.4c0-.5-.2-1-.3-1.6-.2-1.3-.4-2.7-.8-4-.2-10.8-.5-21.7,.4-32.5,.1-.9,.3-1.8,1.2-2.3h4c1.1,1.5,.8,3.2,.5,4.8-.3,2-.4,4-.3,6,.1,11.3-1.1,22.6-.4,33.8,.5,9.1,0,18.2,1.7,27.3,2,11.1,6.6,21.2,11.1,31.4,4.2,9.4,10.1,17.7,16.8,25.5,.2,.3,.5,.6,.7,.9,.7,.8,1.5,1.6,2.2,2.3,8.6,7.6,17.6,14.7,28.7,18.5,1.1,.5,2.3,.8,3.4,1.2,6.8,2.3,12.7,.3,18-4,.9-.7,1.6-1.7,2.6-2.3,.9-.6,2-1.2,3-.4,1.1,.8,.6,2,0,3-2,3.6-4.9,6.2-8.8,7.6-1.1,.4-2.3,.4-3.6,1.1,2.9,3.3,4.6,7.3,6.8,11,1.8,3,2.9,5.9,2.5,9.4,0,.5,.2,.9,.6,1.1,3.7,1.4,5.2,4.6,6.6,7.9,2.4,5.5,4.2,11.1,5.9,16.8,.4,.1-.4,1.6,.8,.7,.6-.9,1-1.9,1.4-2.9,.4-.9,.7-1.8,1-2.7,1.3-4.3,2.4-8.7,3.2-13.2,1.5-7.3,1.8-14.8,1.4-22.2-.3-6.1-2.5-11.6-5.6-16.8-1.1-1.9-2.7-3.5-3.6-5.7-.1-.3,0-.6,0-.8,.1-.3,.2-.5,.4-.7,3.1-1.7,3.2-1.8,5.6,1.1,4.2,5.1,6.9,11,7.8,17.5,1.8,13.4,.1,26.5-4.4,39.2-1.4,4-3.6,7.5-6.8,10.2-.5,.4-.8,.8-.6,1.4,.4,1.4,.3,3,.9,4.3,.5,1,.5,2.1,.7,3.1,0,.3,.1,.5,0,.8,0,.6-.3,1.1-.6,1.5-.1,.3-.2,.7-.3,1,0,1.2-.9,2.3-.2,3.5,.5,.2,.9,.4,1.4,.6,.7,.3,.8,.7,.9,1.4,.7,2.9,1.8,5.6,2.7,8.5-.1,.9,.3,1.7,.6,2.5,.9,1.2,1.2,2.5,.9,4,.4,3.5,1.3,7,2,10.4,1,5.1,1.6,10.3,2.2,15.5,1.7,3.9,1,8.1,1.7,12.1,.5,3.1-.3,6.2,.2,9.3,.3,4.9,1,9.7,1.2,14.6,.3,6,.4,11.9,.3,17.9-.1,8.9,0,17.7-.1,26.6-.1,8.8-.6,17.5-1.7,26.3-.6,4.9-.8,9.9-1.1,14.9-.5,6.9-1,13.7-1.5,20.6,.6,.5,1.3,.2,1.9,.2,3,0,6-.1,9-.2,1.2,0,2.3,.1,3.3-.8,.6-.5,1.2-.5,1.8-.1,1.2,.7,2.5,.7,3.9,.6,6.1-.1,12.2-.7,18.4-.9,10.7-.5,21.4-.7,32.1-1.2h1c9.8,.3,19.6-.5,29.4-.5,12.9,0,25.7-.5,38.6-.8,6.1-.1,12.1,0,18.2-.2,.9,0,1.8,.2,2.7-.2,14.8-.1,29.5-.6,44.2-1.1,4.5-1.2,9.2-1.1,13.8-1.1,10.5,0,20.9-.5,31.3-.7,12.3-.2,24.5-.6,36.8-1,7-.2,13.9-.2,20.9-.4,.8,0,1.7-.2,2.4,.3v5c-1.6,1.2-3.6,1.3-5.5,1.2-10.1-.3-20.3,.5-30.4,.6-13,.2-26,.6-39.1,1-11.9,.3-23.9,.7-35.8,1-13.2,.3-26.4,.7-39.6,1-12.1,.3-24.2,.7-36.3,1-12.9,.3-25.9,.7-38.8,1-12.4,.3-24.7,.7-37.1,1-5.7,.1-11.4,.5-17.2,.4-8.3,.7-16.5,.5-24.8,.6-5.1,.1-8.4,2-11.5,5.7-3.9,4.8-8.9,8.4-14.2,11.6-.8,.5-1.6,1.3-2.4,1.1,4.3,4.2,9.9,2.8,15.3,2.6,1.8,0,3.6-.3,5.5-.3,12,.3,24-.9,36-.5,1.8,.1,3.6-.6,5.4-.5,9.4,.1,18.8-.5,28.1-.6,17.6-.2,35.2-.9,52.8-1.1,6.6-.1,13.3-.1,19.9-.4,15.3-.6,30.7-.7,46.1-1.1,6.2-.2,12.4-.1,18.7-.4,15.3-.6,30.5-.7,45.8-1.1,13.7-.3,27.4-.9,41.1-.9,4.8,0,9.6-.7,14.4-.5,1.2,.1,2.5-.1,3.6,.8v4.5c-.7,.6-1.5,.8-2.3,.8-4.5-.2-8.9,.7-13.4,.6-12-.3-23.9,.5-35.9,.6-7.3,.1-14.6,.1-21.9,.4-15.2,.6-30.4,.7-45.5,1.1-7.5,.2-14.9,.1-22.4,.4-15.1,.6-30.2,.7-45.3,1.1-7.3,.2-14.6,.1-21.9,.4-15.3,.6-30.5,.8-45.8,1.1-4.6,.1-9.3,.5-13.9,.3-10.3,0-20.6,.4-30.9,.6-7.5,.2-15.1,.4-22.6,.3-4.7-.1-7.5,2.9-10.8,5.3-.8,.6-.2,1.2,.4,1.5,.7,.3,1.5,.2,2.2,.3,.8,.1,1.5,0,2.3,0,13.6,.2,27.2-.4,40.8-.6,8.9-.1,17.7-.1,26.6-.3,.9,0,1.8-.1,2.7-.4,.7-.2,1.5-.2,2.2-.2,11.8,.3,23.6-.6,35.4-.6,10.5,0,21.1-.3,31.6-.6,7.6-.2,15.1,.1,22.7-.4,8.9-.6,17.8,0,26.6-.5,7.7-.5,15.4-.1,23.2-.4,16.8-.6,33.7-.6,50.5-1.1,8.1-.2,16.3-.2,24.4-.3,1.2,0,2.5,.1,3.7-.3,3.5-.3,7-.2,10.5-.1,7.9,.2,15.7-.8,23.6-.6,1.2,0,2.3-.1,3.3,.7-.2,1.7-.2,3-.2,4.4Z"/><path class="cls-110" d="M928.31,626.7v23.4c-.9,.5-2,.2-2.9,.2H244.81c-4.1-.1-8.1-.2-12.2-.5-.7-.1-1.4,0-1.9,.5H62.21c-.9,0-1.8,.1-2.7-.1-1.4-.9-.4-1.5,.4-2,1.2-.7,2.5-1.3,3.8-1.9,10.5-5.3,20.9-10.6,31.2-16,2-1.1,4.2-.8,6.3-.5,2.9,.4,5.7,.1,8.6,.2,2.6-.1,5.2,.3,7.7-.4,1.4-.3,2.8-.2,4.2-.2h41.3c2.5,0,5-.3,7.5-.3,1.2,.3,2.5,.4,3.7,.4h37.6c3.5-.1,6.9,.4,10.4-.4,1-.2,2-.2,3-.2,32.7,.3,65.4-.8,98.1-.5,14.3,.1,28.6,0,42.8,0,9,0,18.1-.8,27.1-.5,1.2,0,2.5-.1,3.7,.3,.3,.1,.5,.3,.6,.6-.7,1.2-1.7,.4-2.7,.6,.9,.1,1.8,.1,2.8-.1,3.2-.8,6.5,0,9.6,.3,5.1,.6,9.9-.4,14.8-.9,1.4-.1,2.8-.2,4.2-.7,1.4-.3,2.8-.2,4.2-.2,10.3,0,20.6,.2,30.9,0,32.5-.9,65.1,.1,97.6-.6,29.6-.6,59.1,.1,88.6-.5,9.3-.2,18.6-.4,27.9-.4,1.3,0,2.7-.1,4,.3,1.6,1.1,3.5,1,5.3,1.1,4.7,.3,9.4,.4,14.1-.1,4-.4,8.1-.1,12.1-.2,.6,0,1.1-.1,1.7-.3,.8-.2,1.7-.2,2.5-.2,1.2,.1,2.3-.1,3.4-.4,5.2-.4,10.4-.1,15.7-.2,9.4-.1,18.9-.8,28.3-.5,1.3,0,2.7,0,4,.2,1.6,.6,3.4,.3,5,.6,1.1,.4,2.3,.2,3.5,.3,10.1,.5,20.2-.2,30.3,0,2.7,.1,5.4-.8,8.2-.5,1.4,0,2.8,0,4.1-.4,.9-.2,1.8-.2,2.7-.2,22.9-.7,45.7-.5,68.6-.5h34.8c1.6,.1,3.3-.1,4.6,1.4Z"/><path class="cls-6" d="M858.91,140.6c-4.9-.5-9.9-1-14.8-1.4-2.1-.2-4.3-.4-6.4-.4-4.6-.1-9.3-.6-13.9-.7-6.7-.1-13.4-.6-20.1-1-5.5-.4-11-.9-16.6-1.4-11.6-1-23-2.8-34.1-6.3-6.8-2.1-13.6-4.1-20.5-6.1-1-.3-2.1-.7-3-1.2-2-1.2-2.3-3.1-.8-4.8,2-2.4,4-4.9,6.2-7.2,1.7-1.9,4.1-2.8,6.5-3.5,13.5-4.1,27-7.9,40.6-11.4,11.9-3.1,24-5.7,36.1-8.1,5.9-1.2,11.9-1.9,18-2.3,3.9-.3,7.8-.5,11.7-.3,4.2,.3,8.4,.2,12.6,.8,2.6,.3,5.3,.4,7.9,.5,5,.1,9.9,.5,14.9,.7,14.7,.7,29.4,.3,44.1,.5h1v57.3c-2.1,.5-4.3,.2-6.5,.2-3.7-.2-7.4-.4-11.2-.4-4,0-7.9-.6-11.8-.8-.2-.5-.5-.9-1.1-.7-1,.3-1.9,.1-2.9,.2-2.7,.5-5.4,.5-8.1,.1-3.4-.4-6.9-.2-10.3-.6-3-.1-6-.5-9.1-.5-2.7-.5-5.6-.4-8.4-1.2Z"/><path class="cls-110" d="M28.41,429.9c3.3-.5,6.6-.3,9.9-.4,19.5-.4,39-.8,58.5-1.2,13.1-.3,26.2-.6,39.3-1,8.1-.2,16.3-.5,24.4-.7h3c2.5,.3,5.1,.1,7.6,.1,6.9-.1,13.8,0,20.6,0,3.1,0,6.1,.2,9.1-.7,.9,0,1.7,.1,2.6-.2,1.6-.2,3.3,.2,4.9-.2,7.1-.2,14.2-.4,21.3-.6,9.6-.3,19.2-.6,28.8-.9h2.7c6.5,.4,12.9-.3,19.3-.2,.5,0,.9-.1,1.3-.2h4.1c8.4,0,16.8-.5,25.2-.5,.8,0,1.6-.3,2.4-.4,4.5-.3,9,.2,13.4-.3,4.7-.2,9.4-.4,14.2-.5,16.8-.4,33.7-.8,50.5-1.2,10.5-.3,21.1-.5,31.6-.9,1.4,0,2.6,.1,3.4,1.4,.6,1.4,1.7,2.6,2.5,3.9,1.1,1.7,3,.9,4.5,1.3,2,1.3,4.1,2.5,6.2,3.9-1.9,1.4-3.8,2.6-5.4,4.3-1.8,1.9-1.8,2.2-.5,4.5,.3,.6,.8,1.1,.8,1.7,0,.5-.4,.5-.6,.5-15.8,.4-31.6,.7-47.3,1.1-9.5,.2-18.9,.4-28.4,.6-13.9,.3-27.9,.6-41.8,1-13.4,.3-26.7,.6-40.1,1-13.9,.3-27.7,.7-41.6,1-13.3,.3-26.6,.6-39.9,1-6.1,.2-12.1,.3-18.2,.4-13.4,.3-26.7,.6-40.1,1.1-5.7,.2-11.5,.2-17.2,.4-12.4,.4-24.9,.7-37.3,1-5.6,.2-11.3,.3-16.9,.5-11.5,.4-22.9,.7-34.4,1-9.6,.2-19.2,.7-28.9,1-.4,0-.8-.1-1.2-.1v-19.4c2.2-1.4,4.7-1.1,7.2-1.4,4.4-.5,8.8-1.1,13.2-1.1,2.3,0,4.6-.4,6.9-.3,.1,0,.2,0,.2-.1,.2-.1,.2-.2,.2-.2Z"/><path class="cls-110" d="M647.91,414.1c5.8-.2,11.6-.4,17.4-.5,16.6-.4,33.2-.8,49.8-1.2,19.4-.5,38.8-1,58.3-1.5,12.4-.3,24.9-.7,37.3-1l57-1.5c18.2-.5,36.3-1,54.5-1.5,2-.1,4-.2,6-.4v12.5c-1,1-2.4,.3-3.6,.8,.6,1.9,1.6,3.3,3.6,3.7v6.5c-11.5,.2-22.9,.5-34.4,.7-3.5,.1-7,.2-10.5,.3-9.9,.2-19.8,.4-29.6,.6-14.5,.3-29.1,.6-43.6,1-14.4,.4-28.9,.7-43.3,1-14.7,.3-29.4,.7-44.1,1-14.3,.3-28.6,.7-42.8,1-6.6,.1-13.3,.4-19.9,.4-.8,0-1.7,0-2.5-.1,1.1-5.3-2.4-8.7-5.4-12-2.4-2.6-3.7-6.1-6.7-8.2-.7-.5-.8-1.3,.5-1.4,.7-.1,1.4,.1,2-.2Z"/><path class="cls-96" d="M529.91,2.6h68.3c.7,1.1,.3,2.3,.1,3.4-1.8,9.5-3,19.1-3.7,28.8-.5,7.8-.3,15.5,.7,23.3,.1,.7,.3,1.5,.1,2.2-2.3,1-4.7,0-7,.3-1.2-.2-2.4-.4-3.5,.4-3.5,1.9-5.1,5.4-7.1,8.5-3.9,6.1-6.9,12.7-9.6,19.4-1.1,2.8-1,2.8,1.7,3.9,.9,.4,2,.4,2.1,1.8-.1,.8-.6,1.4-1,2-.7,1-.6,2,0,3,3.5,5.8,6.3,12,9.8,17.9,3.8,6.6,3.9,13.7,3.3,21-.1,1.6-.4,3.1-.7,4.7-.4,1.6-1.2,1.8-2.5,.9-2-1.5-3.9-3-5.7-4.8-2.9-2.8-5.5-5.8-7.9-8.9-4.2-5.5-9.3-10.4-13-16.3-7.4-11.9-13.7-24.3-17.7-37.7-1.7-5.6-2-11.4-2.9-17.2-1.3-8.8-2.4-17.6-3.2-26.4-.9-9.3-1.5-18.7-1.3-28,.1-.9,.2-1.6,.7-2.2Z"/><path d="M679.51,627.3h-16.7c-32.5,.2-64.9,.4-97.4,.5-31,.2-61.9,.3-92.9,.5-15.2,.1-30.4,.2-45.6,.3-.4,0-.8,.1-1.2,.1-9.1,.9-18.2,.9-27.3,.4-.4,0-.8-.1-1.2-.3-6.5-.3-13,.1-19.4,.1-15.2,0-30.4,.2-45.6,.3-17.5,.1-35.1,.1-52.6,.2-18.9,.1-37.7,.2-56.6,.3-.4,0-.8,.1-1.2,.1-3.3,.4-6.7,.1-10.1,.2h-38.4c-.9,0-1.8-.1-2.7,.1-1.6-.4-3.3-.1-5-.1-15.5,0-31,.1-46.6,.1-.7,0-1.3,.1-2,.1-2.5,.4-5,.1-7.5,.2-3-.1-6,.2-8.9-.1-2.6-.3-5,.2-7.4,1.4-11.2,5.9-22.5,11.6-33.7,17.3-.3,.1-.5,.4-.8,.6-.3,.6-.8,.7-1.4,.7h-3.3c-.5,0-1-.1-.9-.8,.7-1,1.9-1.4,2.9-1.9,11-5.5,22-11,33-16.5-.6-.6-1.3-.2-2-.2H4.91c-1.4,0-2.8,.3-4.1-.7v-1.5c5.2-.1,10.4-.1,15.6-.2,.5,0,1,.1,1.4-.3,.6-.5,1.3-.4,1.9-.1,7,0,14.1-.1,21.1-.1,14.1-.1,28.1-.3,42.2-.4,.3,0,.7-.1,1-.1,.2-.1,.4-.1,.6,0,3.9,.3,7.9,.1,11.8,.1,2.1,0,3.8-1.3,5.6-2.3,.7-.7,1.4-1.2,2.5-1.1,1.4-.4,2.7-1.2,4-1.9,.3-.8,.9-1.4,1.4-2.1,.1-1,.8-1.5,1.6-2,10.2-6.1,20.4-12.2,30.5-18.3,14.9-8.9,29.7-17.9,44.6-26.8,17.9-10.8,35.8-21.5,53.8-32.3,12.5-7.5,25.1-14.9,37.6-22.4,.3-.2,.6-.5,1-.7,.1-.4,.4-.4,.8-.5,.7,0,1.3-.5,1.7-1,1-1.4,2.8-1.7,4-2.8,7.5-4.7,15-9.1,22.7-13.5,1.6-.7,2.9-2,4.7-2.3,12.8-7.5,25.5-15.1,38.3-22.6,8.6-5,17.2-10,25.8-15,.3-.2,.5-.4,.8-.6,.4-.4,.9-.5,1.3-.1,.5,.6,.1,1.1-.3,1.4-1.2,1.1-2.7,1.8-4.1,2.6-3.2,2-6.5,3.9-9.6,6.1-16.6,10.1-33.2,20.2-49.8,30.3-35.3,21.5-70.7,42.9-106.1,64.3-29.6,17.9-59.1,35.7-88.7,53.7-5,3.1-10.2,5.8-15.5,8.7,.5,.1,.9,0,1.4,0,29.7,.3,59.5-.5,89.2-.6,24.9-.1,49.8,.1,74.8-.5,22.5-.5,45,.2,67.5-.5,24.9-.7,49.8,.2,74.8-.5,24-.7,48,.2,72-.5,27.2-.7,54.5,.1,81.7-.5,26.5-.6,53,.2,79.5-.5,27.6-.7,55.2,.2,82.7-.5,25.2-.7,50.3,.1,75.5-.5,28.2-.7,56.3-.1,84.5-.5,8.6-.1,17.1-.4,25.7-.4,.9,0,1.8,0,2.9,.1-3.4-2.1-6.8-4.1-10.1-6.1-32.9-19.9-65.9-39.6-98.9-59.5-33.9-20.4-67.7-40.8-101.5-61.3-17.3-10.5-34.7-21-51.8-31.8-1.1-.8-2.2-1.6-3.3-2.3-1-.8-2.2-1.5-3.2-2.2-.6-.6-1.3-1.3-.7-2.3,3.1-.8,5,1.3,7,3.1,8.6,5,17.2,10,25.8,15,2.2,1.3,4.4,2.6,6.6,3.9,.6-.2,.8,.2,1,.6,4.1,2.4,8.1,4.9,12.2,7.3,60.6,36.1,121.2,72.3,181.8,108.4,14.6,8.7,29.2,17.4,43.8,26.2,.9,.5,1.7,1.1,2.5,1.6v5c-1.5-.6-3-.7-4.6-.7-29,.1-57.9,.3-86.9,.4-6.1,0-12.3,.1-18.4,.1-.4,0-.8,.1-1.2,.1-1.2,.6-2.4,.1-3.7,.3-2.7-.2-5.3,.3-8,.3h-30.1c-2.9,0-5.8-.3-8.7-.4h-15.9c-10.5,.1-21.1,.1-31.6,.2-.4,0-.8,.1-1.2,.1-1.1,.5-2.2,.1-3.3,.2-9.3,.3-18.7,.6-28,.5-2.6,.2-5,.2-7.3-.4Z"/><path class="cls-110" d="M529.91,2.6c0,3.1,.1,6.1,0,9.2-.2,4.6,.3,9.3,.6,13.9,.3,5.5,1.1,11,1.7,16.5,.6,5.8,1.4,11.7,2.2,17.4,.9,6,1.2,12.2,3.3,18,2.6,7.5,5.3,15,9.1,22,4.3,7.8,8.3,15.7,14.3,22.3,3.7,4.1,7,8.4,10.6,12.5,3.2,3.6,6.7,6.8,10.8,9.9,.6-2.8,1.1-5.5,1.2-8.1,.2-3.7,.1-7.5-.6-11.1-.5-2.7-1.7-5.2-3-7.6-2.3-4.2-4.6-8.5-6.8-12.7-1-2-2-4-3.4-5.7-.6-.7-.5-1.3-.1-2,.6-1,1.3-1.9,2-2.9,1.6-.7,2.8,.4,3.8,1.1,6,4.7,11.5,9.8,16.1,15.8,3.3,4.3,4.9,9.6,6.7,14.6,.1,1.1-.6,2.4,1,3,1.3,3.9,2.4,8,1.7,12.1-.4,2.4,.3,4,2.3,5.1,3.1,5.5,4.7,11.6,6.4,17.7,1.7,6.4,3.7,12.7,4.8,19.3,.2,1.5-.2,3,.5,4.4-.8,4.6-1.6,9.1-3.4,13.4-1,.6-1.2,1.5-1,2.5-.3,1.1-.8,2.1-1.5,3-.6,0-1.1,0-1.5-.5-.9-1.6-1.4-3.4-1.9-5.1-1.1-4.3-2.9-8.3-4.5-12.4-.1-.3-.3-.6-.4-.9-1.1-3.1-3.3-5.3-6.3-6.5-.3-.3-.2-.7-.4-1,0-1.1,.1-2.2,.1-3.2,0-.9-.1-1.8-.6-2.6-2.5-4.1-4.2-8.6-7.1-12.6-.8-1-1.8-1.9-2.3-3.2,8-1.1,13.2-5.1,13.7-10.6-1.4-.3-2.5,.3-3.5,1.3-1.3,1.3-2.6,2.6-4.1,3.6-2.8,1.9-5.9,2.3-9.1,3-2.6,.6-4.9,.1-7.2-.9-1-.9-2.1-1.3-3.5-1.2-8.3-2.8-15.6-7.5-22.4-12.9-.4-.3-.9-.5-.9-1.1,0-1-.8-1.2-1.4-1.5-1.7-.7-3.1-1.8-4.2-3.3-.3-.7-.8-1.2-1.3-1.7-.2-.2-.4-.4-.6-.6-.2,0,0-.5-.4-.3h-.3c-8.9-9.5-15.5-20.5-20.3-32.5-2.2-5.4-4.6-10.6-6.2-16.3-2.1-7.5-3.3-15-3.4-22.8-.1-10.7-.9-21.4-.3-32.1,.5-8.6,.2-17.3,.9-25.9,6.8,.2,13.5,.2,20.1,.2Z"/><path class="cls-110" d="M.91,454.3c6.1-.2,12.3-.4,18.4-.5,24-.4,48-.8,72-1.2,15.4-.3,30.7-.6,46.1-.9,25.2-.5,50.3-1,75.5-1.6,14.8-.3,29.6-.6,44.3-1,23.8-.5,47.7-1,71.5-1.5,14.6-.3,29.2-.6,43.8-1,15.4-.3,30.9-.6,46.3-1,5.7-.1,11.5-.4,17.2-.3,2,1.1,1.9,3.6,3.6,4.9,.5,.5,.4,1.2,.4,1.9s-.4,1-1.1,1h-1.2c-10.8,.2-21.6,.3-32.4,.6-8.5,.3-16.9,.3-25.4,.5-16,.3-32,.6-48,1-3.5,.1-6.9,.5-10.4,.2,1-1.3,2.2-.3,3.6-.6-1.7,0-3.1-.1-4.6,.2-7.9-.3-15.8,.7-23.8,.5-2,.1-4-.2-5.9,.2-3.2,.1-6.5-.1-9.7,.3-3.4-.2-6.7,.4-10.1,.2h-10c-3.1,.5-6.3-.1-9.4,.6-1.3,.2-2.6,.2-4,.1-3.4-.4-6.8-.3-10.1-.1-9.2,.5-18.3-.1-27.5,.4-1.8,.1-3.6,.4-5.4,.3-1.3,0-2.5,.2-3.8,.4-8.2,.2-16.4,.4-24.6,.6-9.5,.2-19.1,.3-28.6,.6-4.2,.1-8.4,.2-12.7,.3-8.3-1-16.6-2.1-25-1.6-9.7,.5-19.4,.9-29.1,1.8-7.1,.7-14.2,.9-21.4,1.1-10.9,.4-21.7,.6-32.6,1-6.8,.2-13.6-.1-20.4,.5-2,.2-4,.3-5.7-1.2,.2-2,.2-4.3,.2-6.7Z"/><path class="cls-110" d="M470.11,2.6c.3,1,1.2,1.5,1.9,2.2,5.8,5.8,12,11.3,17.2,17.6,7.7,9.4,12.5,20.2,14.7,32.2,.5,2.7,.7,5.4,.9,8.1,.5,10.9,3,21.3,7,31.4,3.2,7.8,6.4,15.5,10.6,22.7,1.6,2.9,3.6,5.6,5.4,8.3,.1,1.1,.3,2.1-.4,3.1-3.3,2.6-6.6,5.3-9.8,7.9-.9,.3-1.8,0-2.7-.1-1.7-1.8-2.5-4-4-6-3.3-4.5-6.5-9.2-8.5-14.5-.7-1.9-1.9-3.5-3.1-5.1s-2.4-1.9-4.3-1.2c.2-6.2-2-11.8-4-17.5-1.8-5.1-3.1-10.3-5.2-15.3-3.8-9.1-6.3-18.7-10.6-27.6-3.7-7.7-6.7-15.7-11.2-23-3.1-5.1-6.4-10-9.9-14.9-1.9-2.7-3.9-5.3-5.2-8.4,7.2,.1,14.2,.1,21.2,.1Z"/><path class="cls-110" d="M890.91,443.9c-1,.4-2.1,.3-3.2,.3-14.8,.3-29.5,.5-44.3,.8-16.4,.3-32.9,.6-49.3,1-16.5,.3-33,.7-49.5,1-16.3,.3-32.5,.6-48.8,1-8.5,.2-16.9,.4-25.4,.5-3.3,.3-6.6,.1-9.9,.2-.9,0-1.5-.3-1.6-1.2-.3-2.3-.8-4.7,.6-6.9,9.8-.2,19.6-.5,29.4-.7,23.5-.5,47-1,70.5-1.6,14.9-.3,29.7-.7,44.6-1,14.9-.3,29.7-.7,44.6-1,15.1-.3,30.2-.7,45.3-1,11.5-.3,22.9-.6,34.4-.8v7c-.8,1-1.9,1.2-3.1,1.2-10.2,.1-20.3,.8-30.5,.8-3.8-.1-7.7,.5-10.8,.2,1.5-.1,3.7,.2,5.9-.1,.4-.2,.8,0,1.1,.3Z"/><path class="cls-96" d="M.91,630.2c10.6,0,21.2,.1,31.9,.1,19.2,0,38.3-.1,57.5-.1h1c.2,.7-.3,.7-.6,.9-12.3,6.2-24.6,12.3-36.9,18.4-.1,.1-.3,.1-.5,.1-.2,.5-.6,.7-1.2,.7H3.61c-.9,0-1.8,.2-2.7-.2,0-6.7,0-13.3,0-19.9Z"/><path class="cls-6" d="M595.21,60.3c-.7-1-.8-2.2-.9-3.3-.7-7.4-1-14.9-.5-22.3,.7-10.2,2.2-20.3,3.9-30.4,.1-.6,.3-1.1,.4-1.7h17.9c.8,1,.8,2.2,.8,3.3,.3,13.3-.4,26.7-1.4,40-.4,5.9-.7,11.9-1.5,17.8-.1,1,.1,2.2-1.3,2.7-.9,1-.7,2.4-1,3.6-.2,.9-.2,1.8-1.1,2.4-.8-.2-1.1-1-1.5-1.6-2.9-4.6-7-7.7-12.1-9.3-.6-.3-1.3-.4-1.7-1.2Z"/><path class="cls-96" d="M418.81,412c.5,1.2,.8,2.4,2,3.4-1.6,.4-2.9,.4-4.2,.5-16.2,.4-32.4,.8-48.6,1.3-11.3,.3-22.6,.6-33.9,1-15.2,.4-30.4,.9-45.6,1.4-13.4,.4-26.9,.7-40.3,1.1-11.4,.3-22.7,.6-34.1,1-11.9,.4-23.7,.7-35.6,1.1-10.4,.3-20.7,.6-31.1,.9-14.4,.4-28.9,.9-43.3,1.4-6.7,.2-13.4,.3-20.2,.6-11.5,.4-23.1,.9-34.6,1.3-7.9,.3-15.8,.4-23.6,.7-8.3,.3-16.6,.6-24.9,1v-2c13.4-.6,26.9-.2,40.3-.6,6.9-.2,13.7-.5,20.6-1.2,3.4-.3,6.8-.4,10.2-.7,7.2-.7,14.4-.7,21.6-1,8.6-.4,17.3,0,25.9-.4,7.8-.4,15.6-.1,23.4-.5,6.8-.4,13.6,0,20.4-.5,6.9-.5,13.8-.2,20.6-.4,2.2-.1,4.5-.2,6.6-1.2,.5-.2,1.1-.2,1.7-.3,3.1-.1,6.1-.3,9.2-.4,5.1-.2,10.3-.5,15.4-.7,12.8-.5,25.6-.1,38.3-.6,14.6-.5,29.2,0,43.8-.5,5.3-.2,10.6-.2,15.9-.5,2.6-.2,5.2-.6,7.7-.3,4.2,.5,8.5,.7,12.6,.3,5.9-.4,11.8-.1,17.7-.5,5.6-.4,11.3-.5,16.9-1,5.4-.5,10.7-1.1,16.1-1.4,4.6-.2,9.1,.5,13.6,.8,5.9,.4,11.7,.5,17.6-.8,1.3-.5,1.8-1.1,1.9-2.3Z"/><path class="cls-96" d="M504.61,40.9c-3.7-10.7-9.2-20.3-17.2-28.4-2.7-2.8-5.4-5.6-8.1-8.4-.4-.5-1.1-.8-1.2-1.5h27.9c-.8,3.2-.8,6.4-.8,9.6-.1,8.5-.1,17.1-.1,25.6,0,1.1,.7,2.2-.5,3.1Z"/><path class="cls-60" d="M244.21,650.1c1.2,0,2.5-.1,3.7-.1H928.21c-.1,.2,.3,.5-.2,.5H244.21c-.1-.1-.1-.2,0-.4Z"/><path class="cls-25" d="M612.81,66.4c.8-3,1-6,1.2-9.1,1.2-16.1,2.4-32.3,2.3-48.5,0-2.1-.1-4.1-.1-6.2h4.5c.3,8.2,.4,16.4,0,24.6-.5,10.7-1.3,21.3-3,31.9-.7,4.7-2.1,9.2-3.4,13.7-.1,.5-.4,.9-.6,1.4-1.6-.8-1.4-2.2-1.2-3.5,0-1.4,.4-2.8,.3-4.3Z"/><path class="cls-96" d="M928.31,401.5c-1.4,.5-2.8,.3-4.2,.3-17.1,.4-34.2,.8-51.3,1.3-11.9,.3-23.7,.6-35.6,1-4.7,.1-9.4,.5-14.2,.3,1.8-1.5,4.3-1.7,6.1-3.2,.4-.3,1.1-.1,1.7-.2,2.4,0,4.8,.1,7.2-.1,13.6-.6,27.2-.4,40.8-.4,3.1,0,6.1,.6,9.2,.4,8.2-.6,16.4-.1,24.6-.6,5.2-.3,10.4,.1,15.6-.8,.1,.7,.1,1.4,.1,2Z"/><path class="cls-96" d="M.91,461.3c7.5,1,15.1,.7,22.6,.3,6.5-.3,13.1,0,19.6-.4,7.3-.4,14.5-.7,21.8-1,4.9-.2,9.7-.5,14.6-1,5.5-.6,11.1-.6,16.5-1.3h.5c8.4-.1,16.7-.8,25.1-.6,2.6,.1,5,.8,7.6,1.2,1.9,.3,4,.3,5.8,1.2-7.8,.2-15.6,.4-23.4,.6-12.7,.3-25.4,.6-38.1,.9-8.5,.2-16.9,.4-25.4,.6-10.5,.3-21.1,.6-31.6,1-5.2,.2-10.4,.3-15.7,.5,.1-.7,.1-1.3,.1-2Z"/><path class="cls-60" d="M117.61,650.1c.8,0,1.7-.1,2.5-.1h108.2c1,0,2,0,3-.1,.1,.1,.2,.2,.2,.4,0,.1-.1,.2-.1,.2H117.71c-.2-.1-.2-.2-.2-.3,0,0,0-.1,.1-.1Z"/><path class="cls-96" d="M894.41,442.9c6.6-.1,13.2-.5,19.8-.7,3.8-.1,7.6-.3,11.4-.4,.9,0,1.8-.4,2.7-.5v2c-11.9,.2-23.7,.4-35.6,.6h-1.7c-.3-.1-.6-.1-.9-.2,.2-1.3,1.1-.4,1.7-.6,.8-.2,1.7,.3,2.6-.2Z"/><path class="cls-96" d="M.91,464.8c5.9-.1,11.8-.1,17.7-.2,1,0,2-.2,2.9,.1,4.6-.3,9.2-.4,13.7,.1-.3,.3-.7,.5-1.1,.5-3.8-.2-7.6,.6-11.4,.5-7.3-.1-14.6,0-21.9,0,.1-.3,.1-.7,.1-1Z"/><path class="cls-96" d="M21.81,430.9c-4.7,.4-9.4,.8-14,1.5-2.3,.3-4.6,.4-6.9,.6v-2.5c2.6-.2,5.2-.3,7.7,0,4.2-.4,8.4-.1,12.6-.2,.5-.1,.7,.2,.6,.6Z"/><path class="cls-60" d="M57.81,650.1c.4-.2,.7-.3,1.1-.5,.9,.7,2.1,.5,3.1,.5h42.9c.7,0,1.5,0,2.2,.1,.2,.1,.2,.2,.1,.3s-.1,.1-.2,.1H57.61c-.2-.1-.2-.2-.2-.3,.3-.1,.3-.2,.4-.2Z"/><path class="cls-96" d="M928.31,423.5c-1.2,.8-2.2,.5-2.8-.8-.6-1.2-1.5-2.1-1.9-3.7h4.8c-.1,1.5-.1,3-.1,4.5Z"/><path class="cls-35" d="M231.31,650.6v-.6c-.2-.6,.1-.9,.7-.8,2.6,.5,5.2,.4,7.9,.6,1.5,.1,2.9,.2,4.4,.4v.4c-4.4,0-8.7,0-13,0Z"/><path class="cls-74" d="M921.81,144h6.5v.5h-8.4c.3-1.3,1.1-.6,1.9-.5Z"/><path class="cls-111" d="M57.81,650.1v.5h-5c0-.2,0-.3-.1-.4,.1-.3,.3-.5,.6-.5,1.4,.9,3,.1,4.5,.4Z"/><path class="cls-6" d="M588.81,170.5c2.2,3.1,3.8,6.2,1.9,10-2.9,16.9-5.9,33.8-8.8,50.7-2.3,13.6-4.5,27.3-6.7,40.9-.8,4.7-1.5,9.5-2.2,14.2-.1,.8-.3,1.8,.5,2.9,1.3-3.5,1.4-7,2.4-10.2,1.1-1.9,1.7-3.9,2.2-6,5.9-24,11.7-48,17.3-72,.7-2.8,1.5-5.6,2.2-8.4,.2-1,.2-2,1.5-2.2,1.4,4.5,2.7,9,4.3,13.5,1.3,3.9,2,7.8,2.7,11.8,.6,3.5-.5,6.8-1,10.2-2.4,15.3-4.8,30.7-7.2,46-1.2,8.1-2.4,16.2-3.5,24.3-.2,1.1-.1,2.1-.2,3.2,.1,.9-1,2,.5,2.6,.5-2.5,1.1-5,1.6-7.4,1.5-1.7,2.3-3.6,2.8-5.7,1.7-7.1,3.6-14.3,5.2-21.4,.3-1.4,.6-2.6-1.2-3.1-1.4-.4-1.2-1.6-1-2.6,.2-1.9,.4-3.7,1-5.5,.7-1.5,1.7-2.8,2.9-3.9,2.2-2.2,3.4-5,4-8.1,.3-1.5,.6-3.1,1.2-4.5,.5-1.2,1-1.2,1.4,.1,1.1,6.9,2.6,13.7,3.3,20.6,.5,4.7,.9,9.4,1.1,14.1,.4,7.5,1.3,14.9,1.9,22.3,.6,7.3,.9,14.6,.6,21.9-.4,9.9-.2,19.7-.3,29.6-.1,8.3-.7,16.6-1.7,24.8-.6,5.3-.9,10.6-1.3,15.9-.4,5.2-.8,10.4-1.1,15.6-1.3,2.1-.8,4.5-1.2,6.7-.2,1.1-.1,2.2-1.2,2.8-1.7,1.3-3.8,2-5.8,2.7-8.4,3.3-16.9,6.5-25.8,8.2-10.1,2-20.3,2.2-30.5,2-8-.1-15.9-.9-23.6-3.1-2.9-.8-5.7-1.8-8.5-2.8-1.3-.5-2.5-.9-3.7,0-.7-.8-.9-1.7-1-2.6-1.2-9.6-2.3-19.2-2.6-28.9-.3-8.6-.4-17.3,.3-25.9,1.2-15.1,2.8-30.2,7.9-44.7,4.3-12,8.8-24,15.5-34.9,2.3-3.7,4.4-7.4,8-10,1.7-1.2,2.9-2.9,3.7-4.8-2.3-1.2-4.2-.6-6,.9-.4,.3-.9,.5-1.2,.8-1.3,1-2.5,.9-3.9,.2-3.3-1.6-6.4-3.5-9.2-5.9-8.5-7.5-15.8-16.1-22.9-25.1,1.5-.8,1.8-2.1,1.9-3.6,1.2-9.9,2.2-19.8,3.7-29.6,1.1-6.9,1.5-13.8,2.3-20.8,.9-7.9,1.3-15.9,1-23.8,0-.4,.1-.9-.1-1.2-.3-.8-1.3-1.3-1.7-.7-1.3,1.7-3.6,1.1-5.1,2.6-1.4,1.4-3.1,2.5-4.7,3.7-4.6,3.3-9.5,6.1-14.1,9.4-6.5,4.6-12.3,9.8-17.1,16.2-1.9,2.5-3.4,5.3-4.1,8.4-.5,2.1-.6,4.1,.2,6.1,.5,1.3,.6,2.6,.4,3.9-.1,1.1-.3,2.2,.7,3,.9-.2,1.4-.9,1.6-1.7,.6-1.7,1.1-3.5,1-5.3-.3-5,1.3-9.3,4.5-13.1,3.9-4.6,8.4-8.5,13.3-12,4.8-3.3,9.6-6.5,14.4-9.8,2.2-1.5,4.2-3.3,6-5.2,.5-.4,.9-1,1.6-1.3,.4,1.1-.1,2.1-.2,3-.7,4.5-.7,9.1-1.5,13.6-.9,5.4-1.2,10.9-1.9,16.3-.5,3.9-1.1,7.7-1.7,11.6-.7,4.8-1,9.6-1.5,14.3-.5,4.9-1.2,9.7-.9,14.9-4-1.7-7.9-2.5-12-1.3-1.7,.6-2.5-.5-3.2-1.6-2.4-4-5.5-7.5-8.5-11-1.3-1.4-2.7-2.5-4.8-1.6-1.9-.3-1.9,.5-1,1.8,3.5,5,6.4,10.4,9.8,15.5,.6,.9,1.8,1.9,.4,3.2-3,2.4-3.4,5.9-3.6,9.4s.3,7.1,.6,10.6c.1,1.5,.2,3,.4,4.4,1.2,4-1,6.3-4.1,8.1-1.5,1-3,2-4.5,3.1-.4,.3-.8,.4-1.4,.3-6.3-1.3-12.7-1.6-19-2.3-3.7-.4-7.4-.3-11.2-.7-2.4-.2-4.7-.9-7.2-.5-1.1,.2-.8-1-1.3-1.5,1.1-1,2.6-.8,3.8-.8,4.4-.3,8.7-1.1,13.1-1.3,2.3-.1,4.6-.4,6.9-.4,1.6,0,3.1-.1,4.7,.3,.8,.2,1.7,.4,2.1-.7,.2-.6,.7-.5,1.2-.4,.6,.2,1.3,.4,1.9,0,.2-.3,.1-.7-.1-.9-.5-.9-.7-1.6,.6-2,.5-.2,.3-.8-.2-1.2-4-2.4-8.5-2-12.8-2.3-8.6-.6-17.2,.5-25.9,.4-4.2,0-4.7-.3-4.3-4.6,.3-4,.3-8.1,.9-12.1,.2-1.3,.5-2.2,2.2-1.9,1.5,.3,2.3-.6,3-1.8,1.6-2.9,1.7-6,1-9.2-.3-1.4-1.1-2.2-2.6-2.2s-1.9-.8-1.6-2.1c1.4-6.4,2-13,3.6-19.3,.8-3.1,2.2-3.4,4.4-1.1,1.1,1.1,2,2.5,3.1,3.6,2.2,2.1,4.7,3,7.7,2.4,2.5-.5,4.9-1,7.1-2.3,2.7-1.6,5.5-2.8,8.7-2.5,.4,0,.8,0,1.2-.5-.4-1-1.3-1-2.2-1.1-3-.4-5.5,.8-8.1,2.1-1.9,.9-3.8,2.1-6,2.4-3.3,.5-6.1-.5-8.3-2.9-1.2-1.3-2.3-2.6-3.8-3.5-1.6-1-1.6-2.1-.7-3.5,1.8-2.5,4.1-4.6,6.4-6.6,4.1-3.7,8.4-7,12.3-10.9,5.7-5.7,8.8-12.6,9.5-20.5,.5-4.8,2.6-8.9,5.4-12.6,.7-.9,1.6-1.5,2.6-1.8,5.1-.1,10.1,.5,15,1.6,1.7,.4,3.3,.4,4.9-.2,3.5-.1,6.9,.4,10.4,1.1,3.3,.7,6.7,1.1,10.2,1.6-.6-2.4-3.4-1.6-4.1-3.4,1.3-1.6,3-.7,4.6-.9,4.1-.3,7.6,1.8,11.9,3.1-1.1-2.3-2.8-2.9-4.4-3.7-1.1-.5-2.5-.6-3.2-1.7-.3-1.1,.5-1.5,1.3-1.8,3.9-1.7,8-3.2,11.9-4.9,1-.4,2-.4,2.6,.7,2.2,4.4,5.4,8,8.4,11.9,.2,.4,.4,1,1,1,1-.1,1.7,.5,2.4,1.1,5.8,4.1,12.5,6.1,19.1,8.3,.6,.2,1.2,.4,1.7,.1,2.3-1.4,4.8-.8,7.3-.7,2.5,.2,4.8-.4,6.9-1.6,.8-.4,2.1-1.4,2,.8-1.4,7.1-2.8,14.3-4.2,21.4-3.1,15.6-6.3,31.3-9.5,46.9,0,.2-.1,.3-.2,.4-2,6.3-3.9,12.7-3.5,19.4,0,1.1-.2,2.1-.3,3.2-.1,.8-.3,1.7,.6,2.3,1.2-2.6,1.3-5.4,2.2-8,2.4-7.7,5-15.4,6.9-23.3,3.4-14.2,6.6-28.6,11.2-42.5,1.7-5.1,3.8-10.1,5.7-15.1,.3-.6,.7-1.3,1.6-.7h0c.5,0,.4,.5,.8,.8Z"/><path class="cls-110" d="M495.91,137.6c.3,2.5-.3,4.9-.4,7.3q0,1.8,2,1.2c1,.7,1.6,1.5,.6,2.7-1.4,.3-2.8-.1-4.1-.3-5.9-1-11.9-1.4-17.9-1.2-1.2,0-2.5-.1-3.3,1.2-.9,.9-2.1,.6-3.2,.7-1,.1-1.9,.1-2.4,1.2-2.2,1.9-4.7,3.1-6.4,5.7-2.5,3.9-4.1,8-4.6,12.7-.3,2.5-.6,5.1-2.1,7.3-1.2,.2-1.8,1-1.9,2.2-.2,1.4-.8,2.7-.7,4.1-.1,.6-.4,1.1-1.2,1.1-.4-1-1.4-1-2.3-1.1-2-.2-2.1-.4-2.4-2.3-.1-.7-.3-1.4-.4-2.1,.5-.3,1.1,.4,1.6-.1,.1-.6-.1-1.2-.4-1.7-2.7-5.6-2.7-11.6-2.6-17.7,.2-9.7,3.5-18.5,7.2-27.2,1.7-4.1,4-7.8,7.4-10.8,.9-.8,1.9-1.7,2.6-2.7,4.3-5.8,4.1-9.6,1-14.1-3.2-4.6-6.8-8.6-11.8-11.6-3.5-2-6.5-4.8-10.7-5.4,.4-.6,.7-1.3,1.2-1.9,.2-.3,.6-.9,.8-.9,2,.4,3.9-1.5,5.9,.2,2.3,2,4.9,3.7,7.4,5.4,2,1.4,4,2.7,6,4,3,2,5.7,4.3,8.1,6.9,1,1.1,1.7,2.3,2.1,3.8,1.4,4.6,2.8,9.2,3.9,13.8,.5,2,1,4,.9,6.1-.1,1.2,.5,1.8,1.5,2.3,3.1,1.5,6.2,3.2,9.5,4.2,1.1,.3,1.5,1.2,2.3,1.7,1.1,.7,2.3,1.4,3.5,2s2.1,1.3,2.2,2.7c.3,.9,.7,.7,1.1,.6Z"/><path class="cls-110" d="M446.61,133.1c-1.5-1.2-2.3-3-3.4-4.5-2-2.5-3.9-5.1-6.2-7.4-.4-.4-.7-1-1.6-.9-.7,2.3-1.4,4.8-2.2,7.2-.4,1.3-1,2.4-1.3,3.7-.3,1.5-1.2,1.8-2.5,1.4-.2-.1-.5,0-.7,0-1.3-1.9-.5-4-.7-6-.2-2.3-.4-2.5-2.4-1.2-1,.6-1.9,1.3-2.9,2-.7,.5-1.5,1.3-2.5,.8-.9-.5-.7-1.6-.5-2.5,.5-1.6,.1-3.4,.4-5,.4-1.2,.4-2.4,.3-3.6,0-.4,.1-.7,.3-1,.4-.5,.7-1.1,.9-1.8,3.4-5.9,6.3-12.1,10.5-17.6,.6-1,1.7-1.7,1.9-3,3.3-3.4,6.6-3.9,10.3-1.3,2.8,2,5.6,3.8,8.6,5.5,4,2.2,6.7,5.9,8.9,9.8,1.7,3,.7,5.8-2.7,8.3-1.9,1.4-3.7,2.8-5.2,4.6-2.5,3-3.9,6.5-5.5,9.9-.3,1-.2,2.4-1.8,2.6Z"/><path d="M450.21,183.4c.5-.2,.7-.6,.8-1.1,.8-2.2,.8-4.7,2.7-6.4,1.1-2.5,1.9-5.1,2-7.9,.3-5.7,3.2-10.2,6.3-14.6,.6-.9,1.6-1.4,2.6-1.9,.9-.4,1.8-.8,2.6-1.5,1.5-1.2,3.2-1,4.9-1,1.8,.4,3.6,.2,5.4,.3,1.4-.1,2.8,.4,4.2,.5,4,.8,8,1.1,12,1.5,1.1,0,2.1,.4,3.1,.6,.3,0,.5,.1,.7,.2,1.3,.3,2.7,.6,4.1,.8,1,.1,2.1,.3,2.9,1.1,.7,.2,1.5,.3,2.2,.6,1.9,.8,2.4,.2,3.2,3.5-7.4-.9-14.5-2.8-21.8-3.2-5.4,.2-10.5-1.8-15.9-1.8-1.4,0-2.8-.7-4,.4-1.4,.5-2.2,1.5-3.1,2.8-2.6,3.9-4,8.2-4.6,12.9-.7,6.2-3.1,12-7.4,16.8-4,4.5-8.6,8.3-13.1,12.2-2.3,2-4.6,3.8-6.5,6.1-.8,1-1.6,1.9-2.2,3.2,2.2,.9,3.9,2.5,5.4,4.4,2.5,3.1,5.7,3.8,10.1,2.2,1.8-.6,3.4-1.7,5.1-2.5,2.1-1.1,4.3-1.7,6.7-1.5,1.7,.1,3.1,.6,3.9,2.5-1,.6-2.1,.8-3.2,.7-2.6-.3-4.9,.6-7.1,1.8-2.2,1.2-4.4,2.1-6.9,2.7-5.3,1.2-9.1-.6-11.9-5-.8-1.3-1.8-2.3-3.5-2.7-2.1,7.6-2.7,15.4-4.5,22.9,.2,.1,.4,.3,.4,.3,2.9-.9,3.4,.1,4,2.5,1,3.3,.6,6.6-1,9.7-1.2,2.4-2.4,2.9-5.2,1.9-.3,5.5-.6,10.9-1,16.3-.1,1,.2,1.4,1.2,1.3,4.1-.2,8.1,.2,12.2-.2,6.7-.6,13.4-.4,20.1,0,2.1,.1,4.1,.5,6.2,.6,1.4,.1,2.4,.6,2.7,2.1-.1,.5,0,1-.7,1.1-.9,0-1.8,.1-2.7,.1-7.3-.1-14.6-.6-21.9-.4-6,.2-11.9-.7-17.9-.8-1,0-1.5-.5-1.7-1.4-.1-.6-.2-1.1-.2-1.7-.4-5.7-.1-11.3,.9-16.9,.2-1.3,.4-2.6,1.8-3.4,1.3-.8,1.2-2.1,1-3.4-.2-1.1,.1-1.7,1.1-2.1,.1-.1,.3-.3,.4-.4,.2-.2,.5-.4,.7-.5,.7-.8-.3-1.4-.3-2.1q-2.3-.9-2.3-3.5c0-.8-.1-1.6-.1-2.5-.4-2.2-.9-4.4,.6-6.4,.4-.6,.4-1.3,.4-1.9-.2-3.2,.7-6.2,1.4-9.3,.3-1.5,.9-2.8,2.2-3.8,.4-.3,.7-.6,.9-1.1,1.2-3.6,3.7-6.2,6.2-8.9,3.8-4,8.3-7.2,12.1-11.1,1.2-1.1,2.4-2.3,3.3-3.7Z"/><path d="M446.61,133.1c1.3-2.7,2.5-5.4,3.8-8.1,1.8-3.8,4.6-6.8,8-9.3,1-.7,2-1.5,2.7-2.5,1.3-1.7,1.4-3.5,.3-5.3-2.6-4.2-5.7-8-10.1-10.3-2.2-1.2-4.3-2.5-6.3-4-4.3-3.3-6.8-3.1-10.9,.6-.5,1-1.4,1.6-1.9,2.4-4.8,5.1-8.6,10.7-10.4,17.6-.4,.6-.2,1.4-.8,2-.2,.1-.3,.3-.2,.5,.3,.9-.2,1.8-.2,2.7-.2,1-.6,2-.5,3.1-.4,2.7-.7,5.4-1,8.1-1.2,5,.4,9.6,2.3,14.1,1.2,2.8,2.6,5.5,4.1,8.2,.5,.9,1.1,1.6,1.1,2.7,3.8,6.6,7.5,13.3,12,19.4q1.8,2.4,.2,5.3c-1.2-.4-2-1.4-2.7-2.4-2.5-2.9-4.5-6.2-6.4-9.4-2.7-4.5-5.3-9-7.9-13.5-3.2-5.6-5.9-11.5-7.3-17.9-.3-1.5-.3-3-.1-4.4,.2-1.5,.4-2.9,.3-4.4-.5-1.3-.3-2.6-.1-3.9,.7-4.4,1.8-8.7,2.9-13,.2-.8,.5-1.6,1.2-2.1,2.7-7.3,7.2-13.3,12.9-18.6,1.9-1.7,4-2.9,6.5-3.5,.4-.3,1,0,1.5-.4h0c2.9-.5,5.3,.7,7.6,2.4,1.8,1.4,3.7,2.5,5.6,3.7,5.3,3.3,8.9,8.1,11.6,13.7,1.1,2.3,1,4.7-.1,7-1.1,2.4-2.3,4.5-4.4,6.3-3.1,2.7-5.6,5.8-7.3,9.6-2.9,6.6-5.8,13.2-7.2,20.4-1.3,6.6-1.5,13.3-.4,20,.3,2.1,.9,4,1.9,5.9,.6,1,1,2.1,.5,3.3-1.1,.1-1.6-.8-2.3-1.2-2.6-3.8-3.7-8.2-4.2-12.8-1.1-10.4,1.1-20.2,4.9-29.7,.4-.7,.9-1.4,.8-2.3Z"/><path class="cls-6" d="M418.81,109.2c-1.6,6.2-3.2,12.5-4.1,18.9-.9-1.2-1.9-2.5-2.8-3.7-.5-.7-.7-1.4,.2-2.1,.9-.6,2-1.3,2.2-2.3,.2-1.1-1.1-1.7-1.7-2.5-6.5-8.2-12.2-16.8-17.4-25.9-.4-.7-.7-1.5-1.5-1.9-1.7-1.2-5.6-9.4-5.3-11.4,.3-2.1,.5-4.2,1.4-6.2,.2-.4,.4-.9,.6-1.3,.1-.2,.3-.4,.5-.5,.7,.9,.4,1.9,.2,2.8-.1,.6-.4,1.3,0,2,1,0,1.6-.6,2.3-1.1,1.2-.9,2.4-1.7,3.7-2.5,1.3-.8,1.8-.7,2.6,.6,.7,1.1,1.3,2.3,1.8,3.5,2.7,6.5,6.1,12.6,10,18.5,2.6,4,4.9,8.2,6.7,12.7,.2,.8,.5,1.6,.6,2.4Z"/><path d="M377.31,60.3c.9-4.9,2.9-9.3,5.4-13.5,1.9-3.2,4-6.2,6.5-9.1,1.2-1.4,2.5-2.1,4.5-1.7-.3,1.6-1,3-2.1,4.3-3.3,4-6,8.3-8.3,12.9-.2,.4-.3,.8-.4,1.1,.1,2.4-1.3,4.4-2.1,6.5-1,2.8-.8,5.3,.9,7.7,.4,.6,1.3,1.2,.5,2.2q-1.5,1.2-3,.1c-.1-.1-.3-.3-.4-.3-2.3,.4-2.1-1.4-2.5-2.7-.1-.4-.2-.8-.5-1.1-1.8-2.1-2.9-4.6-3.8-7.2-.6-1.8-1.6-3.4-2.6-5.1-3.2-5-6.5-9.8-10-14.5-2.4-3.2-4.5-6.6-6.4-10.1-4-7.2-8.3-14.4-12.7-21.4-.3-.5-.7-1-.9-1.5-.4-.9-1.5-1.6-.8-2.6,.6-.9,3.6-.3,4.4,.7,4.1,5.6,7.9,11.5,11.2,17.6,3.7,6.8,7.7,13.4,12.4,19.5,2.8,3.5,4.9,7.5,7.2,11.3,1.2,1.9,1.9,4,2.4,6.2,.1,.2,.1,.3,.2,.5s.3,.5,.5,.7c.2-.1,.2-.3,.4-.5Z"/><path d="M390.91,70.3c0,.2-.1,.4-.1,.5-.2,.3-.2,.6-.3,.9-.3,1.2-.7,2.4-1,3.6-.7,2.8-.6,5.5,1.1,8,1.3,2,2.1,4.3,3.2,6.4,.5,2,1.5,3.8,2.4,5.7,1.6,3.2,3.2,6.4,4.8,9.5,.5,1,1.3,2,.8,3.2-.2,.4,.2,.7,.5,1.1,1.5,2,2.6,4.2,3.6,6.5,1.5,3.4,3.1,6.8,4.7,10.1,.4,.9,1.1,1.9,.1,3-.5-.1-.8-.6-1-1-.4-.7-.9-1.4-1.3-2.1-5-9.4-10.8-18.4-15.7-27.9-2.7-5.2-4.9-10.7-7.7-15.8-.9-1.7-.6-3.6-.3-5.4,.2-1.3,.5-2.6,.8-3.9-.5-1.3,.1-2.4,.5-3.6,1.7-4.5,3.6-9,5.6-13.4,.3-.7,.7-1.5,1.5-1.9,.7-.6,1.1-1.5,1.4-2.3,.9-2.4,2.7-2.7,5-2.6-.3,1.8-1,3.2-1.7,4.7-2.3,5-4.5,10.1-6.4,15.3-.4,.6-.6,1-.5,1.4Z"/><path class="cls-6" d="M426.71,155.5c-2.3-3.2-4.1-6.7-5.5-10.4-.4-.8-.3-1.7,.4-2.3,1.5-1.2,.8-2.3,0-3.4-1.9-2.6-3.9-5.2-2.9-8.8,.1-2.8,.4-5.7,1.1-8.4,1.3,1,.6,2.3,.5,3.5v2.2c1.6-.5,2.6-1.6,3.8-2.3,.9-.6,1.8-1.2,2.7-1.8,1.3-.8,1.8-.7,1.8,.9,.1,2.6,.1,5.2,.1,7.9,.5,4.2,.5,8.5,1.4,12.7,.7,3.3,.4,6.7-2.1,9.4-.3,.4-.9,.5-1.3,.8Z"/><path class="cls-6" d="M392.91,54c-2,4.6-4.2,9-5.8,13.7-.6,1.7-1.2,3.4-1.8,5.2-.4,.1-.6,1.3-1.3,.3-.5-.8-1-1.7-1.7-2.3-.8-1.4-1.6-2.9-2.5-4.3-.5-.8-.6-1.5-.4-2.4,.8-3.4,1.7-6.7,3.5-9.8,2.7-1.3,4.9-3.3,7.5-4.8,.7-.4,1.3-1.1,2.3-1,.5,1.8-.1,3.6,.2,5.4Z"/><path class="cls-6" d="M502.51,242.2c1.4,2.3,2.7,4.6,4.1,6.9-.2,.2-.4,.4-.6,.2-2.1-1.5-3.2-3.8-4.4-6-.3-.5,0-.9,.4-1.3,.2-.1,.4,0,.5,.2Z"/><path class="cls-6" d="M442.11,281.4c1.5,.1,3.1,.1,4.6,.2-1.6,2.5-3.9,2.6-5.7,.1,.4-.1,.8-.2,1.1-.3Z"/><path class="cls-6" d="M427.21,275.9c1,.7,2.6,1.2,2.9,2.1,.5,1.5,1.7,1.6,2.7,2.1,.1,.2,.2,.2,.4,.2l.1,.1c-3.1,.8-6-1.3-6.1-4.5Z"/><path class="cls-6" d="M423.81,223.3c-.2,2.1-.4,4.2-.6,6.4-.8-1.2-1.1-2.6-1.3-3.9-.3-1.4,.8-2.5,1.6-3.9,.1,.6,.2,1,.3,1.4Z"/><path class="cls-96" d="M425.21,238.6c-.2,0-.3,.1-.5,.1,.2-1-.7-2.4,.9-3,.7,.3,1.1,.9,1.4,1.6,.6,1.4-.6,.8-1.1,1-.3,0-.5,.2-.7,.3Z"/><path class="cls-115" d="M500.91,272c0-.4,.2-1-.5-1.1-.8-.1-1.6-.2-2.3-.4,0-.2-.1-.3-.1-.5,1.8,.1,3.5,.3,5.2,.9-.6,.8-1.2,1.4-2.3,1.1Z"/><path class="cls-96" d="M484.01,248.6c0-1.1,0-2.2,.9-3.1,.7,.5,.7,1,.3,1.6-.4,.6-.6,1.2-1.2,1.5Z"/><path class="cls-96" d="M484.11,263.1c0-.3-.1-.6-.1-.9,.1-.5,.2-1.1,.3-2.1,.3,1.3,.4,2.2-.2,3Z"/><path class="cls-100" d="M377.31,60.3c.1,.3,0,.8-.3,.7-.6-.1-.7-.7-.6-1.2,.3,.1,.6,.3,.9,.5Z"/><path class="cls-110" d="M439.71,86.8c-.4,.5-.9,.4-1.5,.4,.4-.5,.9-.5,1.5-.4Z"/><path class="cls-57" d="M502.51,242.2c-.2,0-.3-.1-.5-.1v-.9c.3,.2,.6,.5,.5,1Z"/><path class="cls-57" d="M500.91,241.2c.4-.3,.7-.9,1.1,0h-1.1Z"/><path class="cls-96" d="M621.61,289c-.8-2-.5-4.1-.7-6.1-.5-5.1-.8-10.2-1.2-15.3,.5,.5,.8,1.2,1.6,1.4,4.9,1.4,9.9,2.8,14.8,4.3,.8,.2,1.6,.2,2.5,.1,4.6-.7,9.2-.9,13.8-1.4,6.2-.7,12.4-.7,18.5-1.4,.5-.1,1-.1,1.5,0,4.7,.1,9.4-.5,14.1-.7,3.6-.2,7.1-.3,10.7-.4,1.4-.1,2.8-.2,3.5,1.5,.1,.4,.7,.5,1.1,.8-.1,.1-.2,.2-.2,.2-4.9,.2-9.8,.5-14.6,.5-5.1,0-10.1,.4-15.1,.7-9.9,.5-19.6,2.5-29.2,5.3-6.1,1.7-12.2,3.7-18.2,5.9-3.5,1.3-3,1.6-2.8,4,0,.1-.1,.4-.1,.6Z"/><path class="cls-96" d="M778.81,405.6c-1.3,.5-2.6,.3-3.9,.3-16.6,.4-33.2,.8-49.8,1.3-11.4,.3-22.7,.6-34.1,.9-16.2,.5-32.3,.9-48.5,1.4-1.3,0-2.6,.2-4,0,.4-.4,.9-.4,1.4-.4,3.8-.2,7.6-.2,11.4-.6,4-.4,7.9-.3,11.9-.4h.7c4.9-1.4,10-1.1,15-1.6,4.6-.4,9.3-.3,13.9-.3,15.5-.1,31.1,.2,46.6-.2,12.2-.3,24.4-.2,36.6-.5,1-.1,1.9-.3,2.8,.1Z"/><path class="cls-6" d="M921.81,144c-.7,.1-1.4-.2-2,.5-5.2-.4-10.3-.4-15.5-.9-2.8-.3-5.6-.1-8.4-.2,.9-.6,1.9-.3,2.9-.4,7.1,.1,14.2,.8,21.3,.5,.7,0,1.3,0,1.7,.5Z"/><path class="cls-6" d="M876.41,141.6c6.1,.6,12.3,1.1,18.5,1-.3,.3-.7,.5-1.1,.5-3.4-.2-6.7,.2-10.1-.4-2.3-.4-4.8-.1-7.2-.1-.9,0-1.8,.3-2.6-.5,.7-.7,1.7,.1,2.5-.5Z"/><path class="cls-70" d="M858.91,140.6c2.8-.2,5.6,.8,8.5,.5-.6,1.3-1.6,.6-2.5,.5-2.3,0-4.6,0-6.9-.1-.7,0-1.5,.2-2.1-.4,1-.2,2.1,.3,3-.5Z"/><path class="cls-112" d="M864.91,141.6c.8-.2,1.8,.3,2.5-.5,3,0,6,.7,9,.5-.7,.8-1.7,.3-2.5,.5h-6.9c-.7-.1-1.5,.1-2.1-.5Z"/><path class="cls-96" d="M615.61,241.7c-.6-1.3-.7-2.6-.9-4,.9,.4,1.9,.9,2.9,1.4-.5,1-1.2,1.8-2,2.6Z"/><path class="cls-96" d="M654.61,461.7c7.9,4.9,15.8,9.8,23.7,14.6,30.4,18.4,60.8,36.8,91.2,55.2,47.9,28.9,95.8,57.7,143.7,86.6,1.8,1.1,3.7,2.2,5.8,3.5-1.1,.4-2,.3-2.8,.3-32.3,.2-64.6,.4-96.9,.6-27.1,.2-54.2,.3-81.2,.5-28.5,.2-57,.4-85.5,.6-23.8,.1-47.5,.2-71.3,.4-27.3,.3-54.7,.2-82,.5-26.2,.3-52.3,.3-78.5,.5-24.5,.2-49,.3-73.5,.5-23.3,.2-46.7,.4-70,.5-19.9,.1-39.9,.3-59.8,.4-21.2,.2-42.4,.4-63.5,.6-16.3,.1-32.6,.3-48.8,.4-.7,0-1.4,.2-2.4-.3,2.6-1.4,4.9-2.6,7.3-3.9,5.8-3,11.3-6.6,16.9-10,75-45.4,150-90.6,224.8-136.3,4.5-2.7,9-5.3,13.5-8,2-1,4.2-1.7,6.2-2.8,1.4-.7,2.4-1.5,2.8-3,1.7-1.1,3.4-2.2,5.2-3.4-.6-.6-1.1-.2-1.6-.3-.2-.4-.4-.7-.6-1.1,3.6-.4,7.3-.3,10.9-.4,15.8-.3,31.5-.6,47.3-.9h2.9c-.3,1.9-1.2,3.4-2.3,4.8-2.3,2.9-4.5,5.9-7.9,7.7-1.7,.9-3.2,2.4-4.5,3.9-4.9,5.8-9,12.1-11.6,19.2-.3,.7-.8,1.2-1,2-1.5,6.4-4.6,12.3-6.6,18.5-1.2,3.7-.8,7.6-.4,11.3,.5,5.1,2.2,10,3.2,15,.2,1,.6,1.5,1.7,1.2,.7-.2,1.5-.3,2.1,.3,.1,1.2,.7,2.2,1.4,3.1,1.9,2.4,4,4.6,6.1,6.8,1.1,2.4,2.7,4.2,5.5,4.7,14.5,10.7,31.1,16.2,48.5,19.8,1.6,.3,3.2,.7,4.8,1,.5,.4,1,.2,1.5,.1,.4,0,.7-.1,1,.3,.7,.7,1.6,.2,2.4,.4,1,.4,2,.7,3.1,.3,8.5,1,17,1.6,25.5,1.7,13.8,.1,27.5-.8,41-3.2h.7c2,.3,3.8-.4,5.8-.7,.4-.2,1,0,1.3-.5,6.8-1.6,13.7-3.2,20.4-5.3,14.2-4.5,27.7-10.5,39.6-19.7,1.4-1.1,2.7-2.2,4-3.3,2.2-1.8,3.4-4.2,4-7,2.2-1.7,3-4.3,4-6.8,.5-1.4,.8-3,2-4.1,1.7-.4,.2-1.6,.5-2.4,1.6-4.5,2.6-9.3,4.2-13.8,2.5-7,3.4-14.1,3.6-21.5,.1-4.5-1.5-7.8-4.7-10.7-2.5-2.2-2.5-2.8-.5-5.5,1.4-1.8,3.3-3,5-4.5,.6-.5,1.6-1,1.6-1.8-.1-2.3,1.5-2.7,3.1-3.3,1.9-.8,3.8-1.7,5.6-2.7,.8-.4,1.5-1,2.5-.6Z"/><path class="cls-96" d="M308.51,500.1c-7.5,4.7-15.1,9.2-22.8,13.5-.5,.2-.7-.1-.6-.5,7.3-5.1,14.8-9.8,22.9-13.5,.6-.1,.7,.1,.5,.5Z"/><path class="cls-65" d="M35.41,464.8c-4.6,0-9.2,0-13.7-.1,1.2-.5,2.4-.2,3.7-.3,5-.1,10-.4,15-.1-1.7,.9-3.4,.3-5,.5Z"/><path class="cls-1" d="M19.91,628.2c-.6,0-1.3,0-1.9,.1H7.01v-.5h12.3c.2,0,.4,.2,.6,.4Z"/><path class="cls-53" d="M84.81,627.5h-.6c-.1-.4-.2-.8,.5-.8h11.4v.5c-1.8,0-3.6-.1-5.4,0-2,.1-4-.4-5.9,.3Z"/><path class="cls-102" d="M308.51,500.1l-.5-.5c1.2-1.1,2.7-1.5,4.1-2.3,.3-.2,.6-.1,.9,.2-1.4,1-2.8,2-4.5,2.6Z"/><path class="cls-95" d="M110.11,620.2c.2,1.1-.2,1.9-1.4,2.1q-1.5-.6-.6-1.3c.6-.6,1.2-.9,2-.8Z"/><path class="cls-86" d="M285.11,513.1c.2,.2,.4,.4,.6,.5-1.2,1.1-2.7,1.8-4.1,2.5-.5-.4-.2-.7,.2-.9,1.1-.7,2.2-1.4,3.3-2.1Z"/><path class="cls-56" d="M367.41,458.4c1.3-.1,2.7-.2,4.1,0q-1.9,1.6-4.1,0Z"/><path class="cls-23" d="M104.71,624.1c-.8,.5-1.5,1.1-2.5,1.1-.1-.3-.3-.8-.1-.9,.8-.2,1.6-1.1,2.6-.2Z"/><path class="cls-51" d="M279.91,517.1c-.2,.3-.4,.5-.8,.5-.2-.9,.5-.3,.8-.5Z"/><path d="M595.21,60.3c2.4,.7,4.9,1.4,7.1,2.8,3.6,2.4,6.6,5.2,8.3,9.2,.6,1.3,.4,3,2.5,3.1,.7,.1,.5,.9,.6,1.5,.5,4.6,.7,9.2,.9,13.9,.4,9.3,.2,18.6-1.5,27.7-1.3,7.5-2.9,14.9-6.1,21.9-.2,.4-.2,.7,.1,1.1,0,.2-.1,.4-.1,.7-1.5,1.2-1.6,3.6-3.9,3.9-1.7-.2-3-1.3-2.9-2.8,.1-1.3,.4-2.6,.4-3.9,.1-3.7-.7-7.3-1.8-10.9-.7-.7-.9-1.6-.8-2.5-1.6-4.1-3.3-8.1-5.2-12.1-.9-1.9-2.1-3.5-3.6-5.1-3.8-4.2-7.8-8.1-12.1-11.8-1.6-1.3-3.2-2.6-5.3-3-1.7-.9-3.8-1.3-5.2-2.6,.8-2.8,2-5.4,3.1-8,2.7-6.2,5.9-12.2,9.7-17.9,1-1.5,2-2.8,3.2-4.1,.6-.6,1.1-1.3,2-1.3,1-.2,2-.4,3-.5,2.7-.1,5.1,.2,7.6,.7Z"/><path class="cls-6" d="M609.71,220.3c0-.5,0-1,.1-1.5,.1-.1,.1-.2,.1-.3s-.1-.1-.1-.1c-.1-1.2-.1-2.3-.2-3.5,.9,.9,1.8,3.9,1.5,4.8-.2,.6-.9,.5-1.4,.6Z"/><path class="cls-96" d="M609.11,224.7c-.4,0-.8-.1-.7-.5,.1-1,.1-2.2,.9-3,.8,1.3-.5,2.3-.2,3.5Z"/><path class="cls-84" d="M607.21,141.6c-.7-.3-.7-.7-.1-1.1,0,.2,.1,.3,.1,.5v.6Z"/><path class="cls-50" d="M654.51,458.8c-1.4-.8-2.8-1.5-4.3-2.3-.8-.4-1.6-.9-2.5-.6-.4-1.2,.3-2,.8-2.9,3.1-.1,6.3-.1,9.4-.2v.2c-.1,1.4-2.3,1-2.3,2.5,0,1.3-.4,2.3-1.1,3.3Z"/><path class="cls-96" d="M832.11,530c2.2,.7,4.4,1.3,6.6,2,.7,.2,1.3,.4,.9,1.3-.3,.9-.8,1.1-1.7,.7-2.3-1.2-4.6-2.3-6.8-3.5-.1-.9,.4-.7,1-.5Z"/><path class="cls-105" d="M832.11,530c-.4,0-.8,.1-1,.5-1.2-.6-2.5-1-3.5-2h0c1.6,.2,3.1,.7,4.5,1.5Z"/><path class="cls-37" d="M688.01,478.3c-.3-.2-.7-.4-1-.6,.3-.4,.6-.4,1-.1,.2,.1,.3,.4,0,.7Z"/><path class="cls-105" d="M827.61,528.6c-.1,0-.2-.1-.2-.1,0-.2,.1-.2,.2,.1-.1,0,0,0,0,0Z"/><path class="cls-6" d="M416.21,492.3c3.3-8,7.7-15.1,14.1-21.1,.7-.7,1.3-1.7,2.7-1,.5,.2,1-.5,1.4-.8,3.1-2.3,5.3-5.4,7.2-8.7,1.1-.3,1.7,.5,2.4,.9,3.1,2,6.3,3.6,9.8,4.9,7.1,2.7,14.3,5,21.3,7.7,3.2,1.2,6.6,1.5,9.9,2.2,8.8,1.9,17.6,3.5,26.6,3.9,9.8,.5,19.7,.6,29.5-1.1,7.8-1.3,15.8-2.2,23.2-5.5,2.7-1.2,5.6-1.4,8.6-1.3,3.5,.1,6.8-.7,10-1.5,2.2-.6,4.2-1.6,5.9-3,.8-.7,1.6-1.5,2.9-1.3,1.9,1.8,4.1,3.3,6.5,4.5,.4,.2,1.1,.7,1.3,.5,1.6-1,2.4,.4,3.3,1.1,7.7,6.2,13.5,13.7,17,22.9,2.2,5.7,2.8,11.6-.2,17.4-.1,.1-.2,.3-.2,.4,0,2.4-1.8,3.4-3.5,4.6-6.9,5.2-14.4,9.2-22.5,11.9-8.6,2.9-17,6-26,7.6-15.6,2.8-31.2,4.3-47.1,3.9-10.8-.3-21.6-.9-32.3-2.3-19.8-2.5-38.6-8-56.2-17.4-2.9-1.6-5.5-3.9-8.4-5.7-2.1-1.3-4.1-2.8-6.2-4.1-.9-.5-1.3-1.2-1.6-2.1-1.4-4.4-1.9-8.9-.5-13.4,1.1-1,1.1-2.5,1.1-4.1Z"/><path class="cls-6" d="M445.51,419c-.1,0-.3,0-.4-.1-.2-.1-.4-.3-.6-.3-7.9-3.3-16.1-5.6-24.1-8.4-1.2-.4-1.4-.7-.9-1.9,1.7-4,3.4-7.9,5.6-11.7,8.8-15.6,17.3-31.4,26.3-46.8,9.1-15.5,18.6-30.8,28.7-45.7,2.1-3.1,4.2-6.2,6.3-9.2,.3-.1,.6-.4,.9-.3,4.2,.9,8-.8,11.8-2.1,9.4-3.3,18.7-6.6,28.2-9.7,.9-.3,2.2-1.6,3.1,.2-2.2,4.2-4.7,8.4-6.7,12.8-6.6,15.2-12.5,30.7-14.4,47.4-.6,5.4-1,10.7-1.5,16.1-.4,5.3-.5,10.6-.5,15.9,.2,14.1,1.6,28,4.8,41.8,.2,.7,.5,1.4,.1,2.3-9.1-1.6-18.2-.2-27.2-.2-6.1,0-12.3,.3-18.4,.5-5.4,.1-10.8-.4-16.3-.3-1.5,0-3.2,.5-4.8-.3Z"/><path class="cls-6" d="M443.51,562c-7.8-3-14.8-7.3-21.2-12.6-2.4-2-4.5-4.4-6.6-6.7-1.1-1.2-1.2-2.4-.9-3.8,.8-3.9,1.1-7.8,1.4-11.8,1.2-.2,1.7,.8,2.4,1.5,3.8,4.5,8.6,7.6,13.9,10.2,11.7,5.9,24.4,8.6,36.8,12.4,4.8,1.5,10,1.7,15,2.1,9.7,.7,19.4,1,29,1.9,4.8,.5,9.6-.2,14.4-.6,10.5-.9,21-2.2,31.3-4.3,14.3-3,28.6-6.1,42.1-12,7.1-3.1,14.3-6.4,20.4-11.3,.6-.5,1.2-1,2-.4,.9,4.9,2.1,9.7,1.1,14.8-.3,1.4-.8,2.2-1.9,3-11.7,8.9-24.8,15.2-38.7,20-14.6,5-29.7,8.1-45.1,9.6-12.3,1.2-24.5,1.6-36.8,.9-8.6-.5-17.2-1.4-25.7-3-1.3-1.3-2.9-1.7-4.7-1.9-8.9-1.1-17.5-3.6-25.8-7-.7-.5-1.5-.8-2.4-1Z"/><path class="cls-96" d="M591.71,466.7c-2.8,2.1-5.5,4.3-9,5.1-2.8,.6-5.6,1.5-8.5,1.4-4.5-.2-8.9,.5-13,2.5-3,1.4-6.1,1.9-9.3,2.5-3.6,.6-7.1,1.3-10.7,1.8-3.5,.5-7.1,1-10.6,1.1-6,.2-12,.4-17.9,0-6.8-.5-13.7-1.2-20.4-2.6-4.7-1-9.4-1.9-14.1-2.8-2-.3-3.8-1.2-5.6-1.9-7.4-2.6-14.9-5.1-22.2-8-3.2-1.3-6-3.1-8.7-5.2,.3-1.5,1.1-2.8,1.7-4.1,1.2-2.7,1.3-5.2-.3-7.8-.9-1.4-1.8-2.8-2.3-4.3,.6-.4,1.1-.1,1.5,.1,10,4,20.6,5.7,31,8.1,7.6,1.7,15.4,2.6,23.2,3.1,13.3,.8,26.5,1.4,39.8,.7,7.8-.4,15.5-1.6,23.3-2,4.9-.3,9.8-.5,14.6-1.7,5.1-1.3,10.2-2.2,15.2-3.7,.4,.1,.7,.2,1-.2,.3-.4,.7-.5,1.2-.5,.4-.2,.7-.2,1,.1-1.5,2-2.8,4.1-3.7,6.4-.2,.2-.4,.3-.5,.6-.2,.3-.8,.4-.6,.8,.1,.2,.6-.1,.9,.1,.1,1.3-.3,2.6-.2,3.9,.2,2.7,1.8,4.5,3.2,6.5Z"/><path class="cls-110" d="M648.51,453c.1,1.1,.1,2.1-.8,2.9-.2,.9,.6,1.3,1,1.8,.6,1.2,1.6,1.8,2.9,2,1.1,.5,2.1,1.1,3,1.9-3.2,1.8-6.4,3.4-9.9,4.7-.4,.2-1.1,.3-.6,1,.8,1,.2,1.5-.4,2.1-1.2,1-2.4,2-3.7,2.9-1.7,1.2-2.9,2.7-3.9,4.4-.5,.9-.5,1.4,.5,2,1.7,1.2,3.2,2.6,4.3,4.4,1.2,1.8,1.7,3.7,1.8,5.8,.1,8.5-1,16.8-4,24.8-1,2.7-1.8,5.5-2.4,8.3-.4,1.6-1.4,2.8-1.6,4.4,.1,.1,.2,.3,.1,.5-.1,.3-.2,.5-.2,.8-.1,.3-.2,.5-.5,.7-1.4,2.2-2.1,4.8-2.9,7.2-.6,1.9-1.6,3.1-3.5,3.7,.8-6.5,.2-12.8-2.1-19-.3-.9-.1-2.1-1.1-2.8-.4-1.3,0-2.7,.1-4,2.1-3.6,1.6-7.4,1.2-11.3-.3-2.4-.9-4.8-1.7-7.1-.3-3.3-2-6-4.1-8.5-2.4-3.5-4.9-7-8-9.9-.4-1.2-1-2.1-2.5-2.1-3.2-2.4-6.4-4.7-9.9-6.6-1.8-1-3.5-2.2-5-3.7-3-2.7-2.7-6.2-2.3-9.7,.1-.6,.5-.8,1.1-.8h1.7c14.7-.3,29.4-.6,44.1-.9,3.2,0,6.3,.1,9.3,.1Z"/><path class="cls-96" d="M623.61,526.5c-.5,.1-1,.3-1.3,.7-1.8,1.9-4,3.2-6.3,4.4-5.3,2.6-10.3,5.6-15.8,8-4.7,2-9.5,3.4-14.4,4.8-6.8,1.9-13.6,3.6-20.4,5.3-6.2,1.5-12.5,2.6-18.8,3.3-4.4,.5-8.8,1.3-13.3,1.8-1.9,.2-3.8,.5-5.7,.5-4,.1-7.9,.9-11.9,.6-4.2-.3-8.4-.5-12.6-.8-3.5-.2-6.9-.6-10.4-.7-6.6-.1-13.2-.9-19.8-1.8-5-.7-9.6-2.4-14.4-3.8-4.5-1.2-8.9-2.6-13.3-4-1.8-.6-3.7-1.1-5.4-2-5.4-2.6-11.2-4.6-16.1-8.4-2.3-1.7-4.2-3.7-6-6-.5-.6-.8-1.2-1.5-1.6,0-1.5-.1-3-.1-4.5-.1-1.7,1.5-2.5,2.1-4.3,2.9,2.6,6.6,3.7,9.1,6.6,.5,.6,1.2,.9,1.9,1.2,11,5.8,22.4,10.4,34.5,13.1,.1,0,.3,.2,.4,.3,.5,.6,1.3,.2,1.9,.6,8.8,3.1,17.9,4.2,27.2,4.5,1.1,0,2.1,.4,3.2,.3,1.4,.3,2.8,.2,4.2,.3,2,.4,4,.3,5.9,.1,1.3-.1,2.7-.1,4,.2,.2,.4,.7,.4,1.1,.4,5.6,0,11.2,.1,16.9-.1,5-.3,9.9-.2,14.9-.6,16.5-1.5,32.7-4.2,48.2-10.3,7.7-3,15.4-6.1,22-11.2,1.2-1,2.5-2,3.7-2.9h.3c.2-.2,.5-.3,.7-.4,.8-.5,1.3-1.6,2.5-1.6,1.5,.4,2.2,1.2,2.1,2.9-.1,1.8,.7,3.4,.7,5.1Z"/><path class="cls-96" d="M436.71,419.6c2.5,.9,4.8,2.2,7.5,2.6,1,.2,1.9,.6,2.9-.1,.3-.2,.8-.1,1.2-.1,13.5,1.4,27,.8,40.5,.9,.4,0,.8,.1,1.2,.1,3.2,.6,6.4,.6,9.6-.1,3.6-.3,7.2-.1,10.8,.1,1.7,1,3.8-.1,5.6,.9,2.5,1.1,5,2.2,7.5,3.3,.6,.8,1.5,.9,2.5,.8,10.4,3.2,21.1,3.5,31.8,3.2,9.1-.2,18.1-1,26.9-3.3,5.9-1.5,11.5-3.6,17.1-6,1.2,.5,2-1,3.2-.5,.4,.9-.3,1.3-.7,1.9-2.3,1.9-4.9,3.4-7.4,5-.8-.2-1.3,.5-2.1,.6,0,0-.6-.2-.2,.3,.1,.1,.3,.2,.3,.3-2.1,1.6-4.6,2.7-6.8,4-.5,.3-1.3,.4-.7,1.4,.4,.6-.4,.7-.8,.8-4.4,1.6-9.1,2-13.7,2.5-4.5,.4-9.1,.7-13.6,1.2-6.8,.7-13.6,.4-20.4,.1-9-.3-18.1-.5-27.1-.6-9.2-.1-18.2-1.2-27.3-2.2-6.7-.8-13.3-1.5-20-2.4-3.1-.4-6.3-.7-9.3-1.7-.6-.2-1.1-.4-1.7-.2-1.8,.9-3.1,0-4.5-1-4.1-2.9-8.6-5.4-12.6-8.5-.8-.7-1.6-1.4-2.5-2.1,.5-1,1.9-.6,2.8-1.2Z"/><path class="cls-96" d="M587.81,447.8c-7.4,1.2-14.7,2.5-22.1,3.3-3.6,.4-7.3,.3-10.9,.7-11.5,1.3-23,1.7-34.5,1.6-8-.1-16.1-.3-24.1-1.1-12.2-1.1-24.4-2.9-36.3-6.1-2.8-.7-5.6-1.5-8.6-1.3-.8,0-1.4-.3-2.1-.6-2.3-1.2-4.6-2.3-6.9-3.5,0-.5,.4-.7,.8-.8,1.2-.3,1.2-.9,.5-1.7-.6-.9-1.1-1.8-1.7-2.7-.5-.8-.7-1.7-.3-2.6,.3-1,.9-1.2,1.9-.7,1.8,.9,3.6,1.7,5.3,2.7,3.3,1.8,6.8,2.6,10.5,3.1,12.8,1.6,25.5,3,38.3,4.3,6.4,.7,12.9,.6,19.4,.7,8.8,.1,17.6,.2,26.4,.4,8.3,.2,16.4-.6,24.5-1.8,4.3-.6,8.5-1.2,12.7-2.2,1.8-.4,3.5-.9,5.1-1.8,2-1.1,4.4-1.4,6.5-2.5,.6-.3,.9,.2,.9,.8,.8,5-2.5,8.3-5.3,11.8Z"/><path class="cls-50" d="M647.91,414.1c-.7,.6-1.6,.1-2.4,.5-.2,.7,.5,.7,.8,1,.6,.6,1.4,1,1.8,1.7,2.5,4.4,6.5,7.7,9.1,12.1,1.3,2.1,1.9,4.2,.4,6.5-7.3,.8-14.6,.3-21.9,.6-7.5,.4-14.9,.2-22.4,.5-4,.2-8,.2-11.9,.4-1.4,.1-2.6-.2-3.6-1.3-.9-1-2-1.6-3.6-1.8,6.1-3.7,11.6-7.5,16.3-12.4,1.7-1.8,3.4-3.6,5-5.5,.9-1.1,2-1.5,3.4-1.6,7.5-.4,14.9-.4,22.4-.5,2.2,.1,4.4-.6,6.6-.2Z"/><path class="cls-96" d="M530.41,283c-.4-.5-.9-.3-1.3-.1-8.8,3-17.5,6-26.3,8.9-3.2,1.1-6.4,2.2-9.6,3.3-2.3,.8-4.6,.2-6.8-.3,.6-1.6,1.6-2.9,2.5-4.3,3.9-6.3,7.6-12.6,12-18.6,.6-.6,1.3-1.1,2.2-1.1,3.9,.3,7.8,1.2,11.7,1.7,5.4,.7,10.7,1.6,16.1,2.5,.5,.1,.9,.3,1.4,.4,.7,.5,1.4,1,1.5,2-1.1,1.9-2.2,3.8-3.4,5.6Z"/><path class="cls-96" d="M498.51,148.5c-.3-.8-.6-1.5-.9-2.3l.1-.1c0-.2,.1-.3,.3-.4,1.6-4.4,2.2-9,1.6-13.7-.5-4,.2-7.9-.4-12,.4,.2,.6,.2,.7,.3,.9,3.4,2.6,6.4,4.5,9.3,1.4,2.2,2.7,4.6,4,6.9,1.5,2.7,3.8,4.6,6.1,6.4,.5,.4,1.1,.4,1.6,.1,1.1-.7,2.5-1,3.2-2.5,.3-.7,1.4-1.1,2.1-1.7,3.4-2.8,6.8-5.6,10.2-8.4,.8,.2,1.1,.9,1.5,1.5,2.6,2.9,5.4,5.7,8.3,8.2,.8,.7,.9,1.3,.5,2.3-1.2,2.6-2.2,5.2-3.3,7.8-.8,2-1.3,4.1-1.3,6.3-3.4-2.6-5.7-6.1-7.9-9.7-.3-.5-.5-1-.8-1.5-.4-1-1-1.3-2.1-.8-4,1.7-8.1,3.3-12.1,5-.5,.2-1.1,.3-1.1,1.1-1.4,.7-2.5,.1-3.6-.6-.3-.3-.5-.7-.8-1-.5-.4-1.1-.3-1.7-.4,.4,.2,.9,.2,1.1,.7,.2,.4-.2,.6-.5,.7-3.1,.4-6.3,.2-9.3-1.5Z"/><path class="cls-50" d="M659.61,440.5v6.2c0,1.3,.5,1.7,1.8,1.7h9.2c-3.5,.7-7.1,.3-10.6,.4-4.7,.1-9.5-.2-14.2,.2-6.8,.5-13.6,.2-20.4,.4-7.7,.2-15.4,.3-23.1,.5h-2c-.7-.4-1.4-.4-2.1,0-1.2,.1-2.5,.2-3.6,0-.5-.6,.3-1.3-.1-1.7-.5-.5-.5-.7,.1-1,2-1.3,4-2.7,5.6-4.6,.5-.6,1.2-.8,2-.8,1.5-.1,3-.2,4.5-.3,13.3-.3,26.5-.4,39.8-.8,4.3-.1,8.7-.4,13.1-.2Z"/><path class="cls-96" d="M577.81,165.5c-.2-.8-.6-1.1-1.4-.5-2.4,1.7-5.2,2.1-8.1,2-.6,0-1.2,0-1.7-.2-1.6-.6-2.9-.3-4.2,.7-.6,.5-1.2,.5-1.9,.3-6.7-2.3-13.6-4.3-19.6-8.4-.9-.6-1.7-1.3-2.6-1.9,1.7-.7,2.7-2,3.4-3.7,1.3-3.2,2.6-6.4,4.1-9.9,1.6,1.1,3.1,1.9,4.4,3.1,1.7,2.4,2.8,3.2,4.5,3,6.2,3.3,12.7,5.9,19.5,7.6,1.2,.3,2.4,.6,3.6,.8,.8,.1,1.1,.4,1,1.3-.2,1.9-.4,3.9-1,5.8Z"/><path class="cls-96" d="M598.21,192.3c.2,1.5-.7,2.7-1,4.1-2.9,12.2-5.8,24.4-8.8,36.6-3.4,14-6.7,27.9-10.1,41.9-.4,1.6-.9,3.2-2.4,4.1,1.5-8.2,3.1-16.4,4.6-24.6,3.1-16.7,6.2-33.4,9.3-50,.9-4.9,1.5-9.8,2.8-14.6,.7-.4,.3-.9,.2-1.4-.1-.6,0-1.1,.4-1.5,.1,.2,.4,.2,.4,.1-.1-.4,0-.8-.3-1.1-.1-.6,0-1.1,.4-1.5,.4,.4,.6-.2,1-.1,1.8,1.9,2.5,4.3,3.1,6.7,0,.5-.1,1,.4,1.3Z"/><path class="cls-96" d="M587.21,170.4c-1,3.7-2.5,7.2-3.9,10.7-2.7,6.8-4.6,14-6.5,21.1-2.6,10.2-5,20.4-7.6,30.5-1.5,5.9-3.5,11.7-5.7,17.4-.2,.4-.3,.8-.7,1,1.5-7.2,3.1-14.4,4.6-21.6,4.2-19.8,8.5-39.7,12.7-59.5,.4-1.8,.6-3.7,1.2-5.5,1.2-.6,1.6,.5,2.1,1.1,1.5,1.4,2.3,3.3,3.8,4.8Z"/><path class="cls-110" d="M411.21,541c-1-.1-1.9,.3-2.9,.7-.8,.4-1.5,.3-1.5-.8-.3-4.4-2-8.5-2.8-12.8-.8-4.9-1.2-9.8-.3-14.8,.1-.8,.4-1.4,.8-2.1,0-.1,.1-.1,.1-.2,.6-3.2,2.3-5.9,3.7-8.7,.9-1.8,.6-4,1.4-6,.6-1.4,1-2.8,2.4-3.7-.6,2.8-1.4,5.5-1.7,8.3-.6,5.4-.1,10.6,3.3,15.2,.7,.5,.2,1.3,.4,2-1.7,2.8-2.5,5.9-2.3,9.2,.4,4.6-.5,9.1-.6,13.7Z"/><path class="cls-96" d="M603.21,146.2c1.2-1,2.1-2.3,2.8-3.6,.3-.5,.6-.7,1.1-.3,1.5,2.5,3.3,4.7,4.7,7.2,3.7,6.6,5.1,13.7,5.1,21.2,0,5.6-.7,11.2-1.8,16.7-.6-.4-.8-.9-.9-1.6-.6-6.7-2.6-13-4.4-19.5-.9-3.3-1.8-6.5-2.7-9.7-.8-2.8-2-5.4-3.2-8-.3-.9-.8-1.6-.7-2.4Z"/><path class="cls-96" d="M612.61,239.6c-.3,.1-.6-1.2-.9,0-.5,1.8-1,3.6-1.3,5.5-.4,2.6-1.4,4.8-3.2,6.7-1.4,1.4-2.7,2.8-4,4.3,.2-3.8,1.2-7.5,1.7-11.2,.7-4.8,1.6-9.6,2.4-14.4,.1-.3,.2-.6,.3-.9,.7-.6,.1-1.9,1.1-2.4,.7,0,1.3,0,1.5,.9,.8,3.8,2,7.6,2.4,11.5Z"/><path class="cls-96" d="M602.11,261.5c0,1.3,.5,2,1.9,2.3,1.7,.4,1.7,.5,1.3,2.4-1.9,8.4-4,16.8-6.2,25.1-.4,1.5-1,2.8-2.7,3.2,.5-4.4,1.5-8.6,2.2-13,1.1-6.5,2.2-12.9,3.3-19.4-.1-.2,.1-.4,.2-.6Z"/><path class="cls-96" d="M473.11,223.3c.5-.2,.6-1.2,1.3-.9,1.2,.4,2.5,.7,3.5,1.8,3.3,3.8,6.6,7.6,9.3,12,.6,.9,1.2,1.8,2.5,1.7-1,.5-1.9,.9-2.8,1.4-1.1,.6-2.1,1.3-2.3,2.8-.9,.4-1.1-.5-1.4-.9-2.9-5.7-5.9-11.3-9.8-16.4-.3-.5-.6-1-.3-1.5Z"/><path class="cls-48" d="M473.11,223.3c4.2,5.4,7.6,11.4,10.6,17.5,.2,.4,.2,1,.8,1.2-.3,1.1-1,1.8-2.2,2.1,.4-.7,.2-1.1-.2-1.8-3.6-5.6-7.1-11.2-10.7-16.8-.5-.8-1-1.7-1.3-2.8,1.2-.1,2.1-.1,3,.6Z"/><path class="cls-45" d="M587.81,447.8c1.4-2.4,2.9-4.7,4.3-7.1,.5-.8,1.4-1.6,.5-2.8-.6-.7,.5-1.3,.7-1.9,1,1.9,2.9,3,4.4,4.5-.5,1.1-1.9,1.4-2.6,2.4-.3,.4-.8,.6-.9,1.2-.6,.9-2.1,1-2.1,2.4-.1,.2-.5,.3-.4,.6-1.2,.5-2.6,.3-3.9,.7Z"/><path class="cls-90" d="M441.51,432.9c.2,2,1.6,3.4,2.5,5.1,1.1,2.1,1.2,2.1-1.2,2.5-.2,0-.4,.2-.7,.3-2.2-.8-4.2-2.1-7-2.1,2.2-2.4,4.4-4,6.4-5.8Z"/><path class="cls-96" d="M203.91,457.4c13.9-1.1,27.8-.3,41.7-.5,.7,0,1.5-.2,2.1,.4-8.8,.2-17.7,.4-26.5,.6-2.4,.1-4.8,0-7.2,0-3.1,.4-6.2,.1-9.3,.2-.5,0-.9-.2-.8-.7Z"/><path class="cls-6" d="M496.51,545c-4.9,.2-9.7-.2-14.6-.6-5.6-.5-11.2-1.7-16.3-4.3,.1-.1,.1-.2,.2-.3,.2,0,.4,0,.6,.1,.4,.1,.8,.1,1.2,.2,.3,.1,.6,.1,.8,.2,5.5,1,11,2.3,16.6,2.9,2.1,.2,4.3,.5,6.4,.8,1.2,.5,2.5-.1,3.8,.4,.4,0,.8,.1,1.2,.1,.2,.1,.3,.2,.2,.3q0,.2-.1,.2Z"/><path class="cls-96" d="M443.51,562c1-.2,1.9,0,2.9,.5,7.7,3.5,15.9,5.6,24.3,6.5,.7,.1,1.3,.4,1.9,.4,2-.2,3.3,.6,3.9,2.5-10.8-1.9-21.2-4.8-31.3-8.9-.6-.3-1.3-.4-1.7-1Z"/><path class="cls-96" d="M201.31,426.4c-7.2,1.9-14.4,1-21.7,.6-2.9-.1-5.8-.1-8.7-.1-.2-.1-.2-.2-.2-.3q.1-.1,.2-.1c7.9-.4,15.8-.6,23.7-.6,2.1-.3,4.2-.1,6.4-.1,.4,.1,.5,.3,.3,.6Z"/><path class="cls-96" d="M445.51,419c4.9-.8,9.8-.7,14.8-.2,2.1,.2,4.3,0,6.4,.6-1.4,.6-2.9,.3-4.4,.4-4.7,.3-9.5,.3-14.2,.7-1.5,.2-2.1-.3-2.6-1.5Z"/><path class="cls-94" d="M587.21,170.4c-.5,.3-.8,.2-1.1-.3-1-1.5-2.2-3-3.2-4.6-.4-.6-.7-1.1-1.5-1.1,.3-1.6,.7-3.2,1-4.9,1.1,.8,1.6,2,2.2,3,1.3,2.3,3.1,4.3,3.7,6.9-.7,.1-1.1,.3-1.1,1Z"/><path class="cls-96" d="M560.41,253.7c-1.7-7,.6-13.3,3.5-19.4-.4,4.4-1.6,8.6-2.3,12.9-.3,2.1-.5,4.3-1.2,6.5Z"/><path class="cls-29" d="M296.61,455.4c8.1,.3,16.3-.8,24.4-.5,.2,.1,.2,.3,.2,.5-.3,.3-.8,.2-1.1,.4-4.6,.2-9.2,.2-13.8,.2-3,.4-5.9,.1-8.9,.2-.5-.1-.8-.3-.8-.8Z"/><path class="cls-96" d="M612.71,414c.9-2.5,.7-5.2,.9-7.8,.1-1,.2-1.8,1.5-1.7,.1,2.2-.3,4.5,.6,6.6,.3,.6,.1,1.1-.5,1.5-.8,.5-1.5,1.3-2.5,1.4Z"/><path class="cls-106" d="M598.21,192.3c-.4,.1-.8,.4-.9-.3-.2-2.9-1.6-5.3-3-7.7-.4-.3-.4-.6,0-.9,2.7,.2,3.5,2.1,4,4.3,.2,.9,.5,1.7,.7,2.6-.5,.6-.8,1.3-.8,2Z"/><path class="cls-96" d="M433.71,426.5c-3.3,1-4.2,.7-5.8-2.2-.5-.9-1.7-1.6-1.2-3,2.3,1.8,4.7,3.5,7,5.2Z"/><path class="cls-39" d="M313.41,423.1c-.3,.3-.7,.4-1.1,.4-8.9,.2-17.8,.8-26.7,.5-.2-.1-.2-.2-.2-.3q.1-.1,.2-.1c2.3-.1,4.6-.1,6.8-.2,3-.5,6.1,.2,9.1-.3,3.5-.1,6.9-.1,10.4-.2,.6-.2,1.1-.4,1.5,.2Z"/><path class="cls-6" d="M436.71,419.6c-.6,1.5-2.1,.7-3,1.4-1.6-1-3.1-2.3-4.5-3.5-.1-.4,0-.7,.6-.5,2.3,.8,4.6,1.7,6.9,2.6Z"/><path class="cls-47" d="M21.81,430.9c-.7-.7-1.5-.4-2.3-.4-3.6,0-7.2,0-10.8-.1,1.4-.4,2.8-.3,4.2-.3,5.2-.1,10.4-.1,15.5-.2,.3,.1,.6,.2,.9,.3-2.5,.1-5,.4-7.5,.7Z"/><path class="cls-17" d="M281.11,424.4h-17.5c-.8,0-1.7,.2-2.4-.3,3.8-.1,7.6-.1,11.4-.2,2.6-.3,5.2-.1,7.8-.1,.4-.1,.8,0,.7,.6Z"/><path class="cls-114" d="M620.11,486.7c.8-.6,1,.2,1.3,.6,1,1.6,1.9,3.3,2.8,4.9,.5,1,.9,2,0,3-1.4-2.8-2.7-5.7-4.1-8.5Z"/><path class="cls-24" d="M528.41,545.7c-.4,.1-.8,.3-1.2,.3h-15c-.6,0-1.3,.1-1.7-.6,6,.1,11.9,.2,17.9,.3Z"/><path class="cls-28" d="M296.61,455.4c.6,.7,1.5,.4,2.3,.5,2.4,.1,4.9,.1,7.3,.1-1.7,.6-3.4,.3-5.1,.3-2.5,.1-5.1,0-7.6,0-.8-.5-1.8,.2-2.5-.5,1.9-.9,3.8-.3,5.6-.4Z"/><path class="cls-6" d="M424.21,555.6c-1,.8-2,.1-2.7-.3-1.5-1-3-2.2-2.8-4.4,1.9,1.6,3.7,3.1,5.5,4.7Z"/><path class="cls-21" d="M604.11,423.4c.2-.6,.4-1.2,.7-1.9,0-.6,.5-.7,.9-1.1,1.2-.9,2.6-1.5,4-2.1,.5-.1,.6,.1,.5,.5-2.1,1.6-3.9,3.4-6.1,4.6Z"/><path class="cls-2" d="M271.11,456.4c3.4,.2,6.7-.9,10-.5,.6,.5,1.5-.1,2,.5-1.3,.5-2.6,.3-3.9,.4h-8.2c-.2-.1-.2-.2-.2-.3,.2-.1,.3-.1,.3-.1Z"/><path class="cls-6" d="M554.91,150c.2,.4,.4,.8,.8,1.6-1.7-.6-3.1-1.3-4.2-2.2-.7-.6-1.6-1.2-1.1-2.4,1.5,.9,3.1,1.8,4.5,3Z"/><path class="cls-93" d="M251.71,457.2c-.2-.6,0-.9,.7-.9h8.4c.2,.1,.2,.2,.1,.3-.1,.1-.1,.2-.2,.2-3,.6-6,.5-9,.4Z"/><path class="cls-18" d="M439.71,450.4c-.2,.3-.2,1-.7,.2-1-1.7-1.9-3.4-2.9-5.2,1.3-.4,2.2-.1,2.5,1.4,.3,1.2,.8,2.4,1.1,3.6Z"/><path class="cls-96" d="M475.61,276.6c.4-1.1,1.2-1.8,2.1-2.3,1.7-1,2.2-2.3,1.9-4.1-.1-.5,0-1.1,.1-1.7,.7,1.6,.4,3.2,.5,4.8,0,.7-.3,1.1-.9,1.4-1.2,.7-2.3,1.6-3.7,1.9Z"/><path class="cls-107" d="M313.41,423.1c-.5-.1-1-.1-1.5-.2,2.3-.6,4.6-.3,6.9-.4,2.7-.1,5.4,0,8.2,0-.7,.7-1.6,.4-2.4,.4-3.7,.1-7.4,.1-11.2,.2Z"/><path class="cls-78" d="M203.91,457.4c.7,.7,1.6,.4,2.4,.4,2.6,.1,5.1,.1,7.7,.1-.9,.5-1.9,.3-2.9,.3h-10.2c.9-.6,2-.6,3-.8Z"/><path class="cls-54" d="M201.31,426c-2.2,0-4.4-.1-6.6-.1,4.5-.5,9.1-.5,13.6-.4-1.6,.8-3.3,.2-5,.5-.6,.3-1.3,.3-2,0Z"/><path class="cls-103" d="M499.61,422.9c-3.2,1.3-6.4,1.4-9.6,.1,3.2,0,6.4,0,9.6-.1Z"/><path class="cls-96" d="M283.21,456.4c-.7-.3-1.5,.1-2-.5,3.3,0,6.6,0,9.9-.1,.8,.2,1.8-.3,2.5,.5-3.5,0-6.9,.1-10.4,.1Z"/><path class="cls-85" d="M624.71,513.6c.8,1.4,.5,2.7-.1,4-.6-.4-1.2-.8-2-1.2,.6-.8,1.2-1.6,1.8-2.4,0-.1,.1-.2,.3-.4h0Z"/><path class="cls-8" d="M260.71,456.9v-.5h10.4v.4c-3.4,.2-6.9,.1-10.4,.1Z"/><path class="cls-71" d="M516.01,424h-4.1c-.7,0-1.3-.1-1.5-.9,1.9,0,3.9-.5,5.6,.9Z"/><path class="cls-64" d="M281.11,424.4c-.7-.7-1.6-.4-2.4-.4-2.1-.1-4.1-.1-6.2-.1,3-.5,6.1-.4,9.1-.3,.2,.1,.2,.2,.2,.3-.1,.1-.1,.2-.2,.2-.2,0-.3,.2-.5,.3Z"/><path class="cls-83" d="M301.61,423c-.8,.7-1.7,.4-2.6,.4-2.2,0-4.4,.2-6.6-.1,3.1-.4,6.1-.3,9.2-.3Z"/><path class="cls-109" d="M558.91,575.4c-2,.6-3.9,1.5-6.1,.6,1.7-.3,3.4-.6,5-.9,.4,.1,.8-.1,1.1,.3Z"/><path class="cls-6" d="M588.71,456.4c-.2,.2-.3,.4-.5,.5-.6,.7-1.2,.5-1.6-.1-.4-.6,.1-1.1,.6-1.3,.5-.3,1-.4,1.6-.6,0,.5-.1,1-.1,1.5Z"/><path class="cls-40" d="M171.01,426.5v.4c-2.5-.1-5,.4-7.5-.4,2.5-.1,5-.2,7.5,0Z"/><path class="cls-67" d="M609.71,474.7c1.9-.6,2.3-.3,2.5,2.1-.9-.7-1.7-1.4-2.5-2.1Z"/><path class="cls-55" d="M416.21,492.3c0,.1,.1,.2,.1,.2-.6,1,1.5,1.3,.6,2.3-.5,.6-1.1,1.2-1.6,1.8-.2-1.4,.3-2.9,.9-4.3Z"/><path class="cls-96" d="M594.81,429.5c-.5,0-1.1-.1-2.2-.2,1.6-.7,2.6-1.8,4.1-1-.6,.5-1.2,1-1.9,1.2Z"/><path class="cls-101" d="M605.61,420.5c-.3,.4-.6,.7-.9,1.1-1,.3-1.9,1.8-3.1,.5,.9-.4,1.8-.8,2.7-1.2l.2-.1c.4-.1,.8-.2,1.1-.3Z"/><path class="cls-96" d="M594.61,442.9c.7-1.3,1.6-2.2,3-2.5,.6,.1,.6,.5,.2,.8-.8,.6-1.6,1.2-2.4,1.8-.3,.1-.5,.1-.8-.1Z"/><path class="cls-44" d="M514.91,136c.9-.9,1.8-.2,2.7,.1-.3,.6-.7,1.1-1.4,1.3-.5-.3-1-.8-1.3-1.4Z"/><path class="cls-96" d="M533.91,277.5c-.9-.3-1-1.3-1.5-2,.9-.1,1.8,0,2.5,.6-.1,.7-.6,1-1,1.4Z"/><path class="cls-96" d="M527.51,128.2c0-1-.4-2.1,.4-3.1q.1,.1,.2,.2,1.2,1.7-.6,2.9Z"/><path class="cls-68" d="M506.51,545.1c-2,.8-4,.2-6,.3-.1-.2-.1-.4,0-.6,.3-.1,.6-.1,.9,0,1.7,.2,3.4,.2,5.1,.3Z"/><path class="cls-91" d="M610.71,203.3c-.9-1.9-.8-2.2,1-2.5,0,1-.4,1.8-1,2.5Z"/><path class="cls-9" d="M500.51,545.1v.3c-1.3,.1-2.7,.3-4-.4,0-.2,0-.3-.1-.5,.9-.1,1.8-.1,2.7,.1,.5,.3,1.2-.2,1.4,.5Z"/><path class="cls-42" d="M570.81,153.4c1.8-.6,2.1-.5,3.5,1.2-1.3-.1-2.4-.7-3.5-1.2Z"/><path class="cls-13" d="M594.71,301.9c.1,.5,.2,1.1-.4,1.2-.7,.1-.7-.5-.6-1,.2-.9-.2-2,.5-2.8,.3,.9-.4,1.9,.5,2.6Z"/><path class="cls-69" d="M620.71,518.6c-1,.7-1.8,1.9-3.1,2.1h-.1l-.2-.1c1-.9,1.7-2.1,3.1-2.4,0,.2,.1,.3,.3,.4h0Z"/><path class="cls-118" d="M504.61,40.9c.7-.9,0-2,.5-3,.4,1.3,.3,2.7,.5,4,.1,.5,.4,1.1-.6,1-.1-.7-.3-1.4-.4-2Z"/><path class="cls-32" d="M321.01,455.4v-.5h4c.2,0,.3,.1,.6,.2-1.3,.7-2.8-.2-4,.7h-.6c-.2-.1-.2-.2-.2-.2,.1-.2,.2-.2,.2-.2Z"/><path class="cls-99" d="M608.71,227.2c-.2,.9-.6,1.8-.6,2.8,0,.3-.2,.3-.4,.1-.1-.1-.1-.3-.1-.4,0-.6,.1-1.3,.2-1.9,0-.6,.3-1,.9-.6Z"/><path class="cls-80" d="M414.21,518.1c-.7-.5-.3-1.3-.4-2,.5-.2,1-.3,1.4,.1,.4,.5-.2,.9-.4,1.3-.3,.2-.5,.4-.6,.6Z"/><path class="cls-66" d="M607.71,205.8c.5,0,1.1-.1,1.5,.5-.1,.5-.4,.9-.8,1.4-.6-.5-.8-1.1-.7-1.9Z"/><path class="cls-96" d="M525.91,428.1c-1.8,.6-2,.6-2.5-.8,1,0,1.7,.5,2.5,.8Z"/><path class="cls-77" d="M281.61,424v-.5c1.3-.1,2.7-.2,4,0v.4c-1.3,.1-2.6,.1-4,.1Z"/><path class="cls-116" d="M505.01,42.9c.5-.2,.4-.6,.6-1,.6,.8,.4,1.7,.3,2.7-.7-.4-.9-1-.9-1.7Z"/><path class="cls-73" d="M482.71,577.4c-.9-.1-1.9,.4-2.6-.6,1.2,.1,2.5,0,3.6,.5-.3,.4-.7,.3-1,.1Z"/><path class="cls-12" d="M540.51,132.6c.7,.5,1.3,1.1,1.3,2.1-.8-.5-1.6-1.2-2-2,.3-.3,.5-.3,.7-.1Z"/><path class="cls-9" d="M495.31,544.4c-1.3,.1-2.6,.4-3.8-.4,1.3,0,2.5,0,3.8,.4Z"/><path class="cls-4" d="M610.11,418.9c-.2-.2-.3-.4-.5-.5,.6-.6,1.2-.9,2-.9h0c-.2,.7-.8,1.2-1.5,1.4Z"/><path class="cls-26" d="M482.71,577.4c.3,0,.7-.1,1-.1,.6,.1,1.2,.1,1.8,.2-.9,.5-1.9,.7-2.8-.1Z"/><path class="cls-96" d="M500.51,545.1c-.4-.2-1,.1-1.3-.4,.8-.1,1.5-.2,2.3,.2-.4,.1-.7,.1-1,.2Z"/><path class="cls-20" d="M594.61,442.9c.3,0,.5,.1,.8,.1-.3,.5-.7,.8-1.2,1-.5-.7,0-.9,.4-1.1Z"/><path class="cls-27" d="M593.31,185.9c.3,.3,.5,.6,.4,1,0,.2,0,.5-.2,.5-.1,0-.2-.4-.3-.6,0-.3,0-.6,.1-.9Z"/><path class="cls-59" d="M592.81,188.4c.5,.4,.5,.9,.3,1.4-.1,.3-.3,.1-.5,0,.1-.5,.2-1,.2-1.4Z"/><path class="cls-63" d="M592.51,448.4c-.3,0-.7-.1-1-.1,.2-.2,.5-.4,.7-.6,.3-.3,.6-.3,.7,0,.1,.4-.1,.7-.4,.7Z"/><path class="cls-15" d="M598.21,449.8c.7-.6,1.4-1,2.1,0h-2.1Z"/><path class="cls-11" d="M558.91,575.4c-.4,0-.7-.1-1-.3,.7-.1,1.3-.2,2-.3-.2,.4-.6,.6-1,.6Z"/><path class="cls-5" d="M429.81,416.9c-.2,.2-.4,.3-.6,.5-.4-.2-1.1-.5-.8-.9,.4-.4,1,0,1.4,.4Z"/><path class="cls-98" d="M594.31,183.5v.9c-.1,.2-.1,.6-.2,.6-.4,.1-.2-.4-.4-.6,0-.5-.3-1.1,.6-.9Z"/><path class="cls-52" d="M479.11,576.5c-.5,.5-1.1,.5-1.5-.1,.5-.1,1-.1,1.5,.1Z"/><path class="cls-38" d="M465.61,540.1c-.6-.1-1.2,0-1.5-.7,.6,0,1.1,0,1.6,.3,0,.1,0,.2-.1,.4h0Z"/><path class="cls-94" d="M588.81,170.5c-.5-.2-.7-.5-.6-1,.6,.1,.6,.5,.6,1Z"/><path class="cls-96" d="M591.71,446.9c-.7-.7,.2-.4,.4-.6,.3,.5,0,.5-.4,.6Z"/><path class="cls-96" d="M468.51,540.4c-.4,.2-.6,.1-.8-.2,.4-.2,.6-.1,.8,.2Z"/><path class="cls-96" d="M540.51,132.6h-.7c-.2-.2-.4-.3-.5-.5l.2,.1,.2-.1h.3c.2,0,.4,.2,.5,.5Z"/><path class="cls-96" d="M465.61,540c0-.1,0-.2,.1-.3,.3-.1,.6-.1,.8,.2-.3,.1-.6,.1-.9,.1Z"/><path class="cls-110" d="M321.01,455.4v.4h-.9c.2-.4,.5-.4,.9-.4Z"/><path class="cls-3" d="M590.21,448.8c-.3,.5-.6,.6-1,.2,.3-.1,.7-.1,1-.2Z"/><path class="cls-92" d="M594.31,179.8c.5,.2,.5,.6,.4,1-.6-.1-.6-.5-.4-1Z"/><path class="cls-96" d="M620.61,518.6c-.2,0-.3-.1-.3-.3,.3-.1,.3,0,.3,.3Z"/><path class="cls-110" d="M624.61,513.7l-.3,.3c0-.2,.1-.3,.3-.3Z"/><path class="cls-110" d="M498.01,145.6c0,.2-.1,.4-.3,.4,0-.2,.1-.3,.3-.4Z"/><path class="cls-4" d="M611.71,417.5c0-.1,.1-.2,.1-.2,.1,0,.1,.1-.1,.2h0Z"/><polygon class="cls-21" points="604.61 420.8 604.51 420.9 604.31 420.9 604.41 420.7 604.61 420.8"/><path class="cls-96" d="M433.21,280.3c-.3,.2-.4,0-.4-.2,.2,0,.4,0,.4,.2Z"/><path class="cls-96" d="M609.71,218.3c.1,.1,.1,.2,.2,.3,0,0-.1,.1-.2,.1-.1-.1-.1-.3,0-.4Z"/><path class="cls-96" d="M444.61,418.6c.3-.1,.5,.1,.6,.3-.3,.1-.5-.1-.6-.3Z"/><path class="cls-96" d="M679.51,627.3c11.8,0,23.6-.1,35.4-.1,.2,.1,.2,.2,.2,.3q-.1,.1-.2,.1c-.8,0-1.6,0-2.4,.1-.3,.3-.7,.2-1,.4-8.1-.2-16.2,.8-24.3,.6-2.2,0-4.2-.7-6.4-.6-.7,0-1-.4-1.3-.8Z"/><path class="cls-96" d="M397.21,628.8c9.5-.1,19-.2,28.5-.1-1.1,.8-2.4,.5-3.6,.6-4,.5-8,1.7-12,1.2-3-.4-6.1-.1-9.1-.8-1.2-.3-2.5-.1-3.7-.1-.2-.1-.2-.2-.2-.3s.1-.2,.1-.2c.1-.1,.1-.2,0-.3Z"/><path class="cls-10" d="M805.61,626.7c2.7-.2,5.3-.2,8,0,.2,.1,.2,.2,.1,.3q-.1,.1-.2,.1c-8.4,.7-16.8,.3-25.1,.7-5.1,.3-10.2-.5-15.4-.2-.6,0-1.4,.1-1.8-.5,.9-.5,1.8-.2,2.7-.2h29c.9,0,1.9,.2,2.7-.2Z"/><path class="cls-7" d="M170.61,630c.6-.1,1.1-.2,1.7-.2,12.8-.1,25.5-.1,38.3-.2,.4,0,.8,.1,1.2,.1,.2,.1,.2,.2,.2,.3q-.1,.1-.2,.1h-40.2c-.3,0-.7,0-1-.1Z"/><path class="cls-34" d="M805.61,626.7c-.7,.8-1.7,.5-2.6,.5h-31.8c-1.5-.1-3.1,.3-4.5-.4,8.9-.1,17.8-.1,26.8-.2,4,0,8.1,.1,12.1,.1Z"/><path class="cls-72" d="M211.81,630.1v-.4c3.3-.2,6.6-.2,10,0-.7,.6-1.6,.4-2.3,.4-2.6,.1-5.1,0-7.7,0Z"/><path class="cls-97" d="M100.71,630.3c3-.2,6-.2,8.9,0,.2,.1,.2,.2,.2,.3q-.1,.1-.2,.1c-2.2,0-4.4,.1-6.6,0-.8,0-1.6,.2-2.3-.4Z"/><path class="cls-14" d="M109.61,630.6v-.4c2.5-.2,5-.2,7.5,0-1,.8-2.2,.4-3.3,.4-1.4,.1-2.8,0-4.2,0Z"/><path class="cls-30" d="M813.61,627.1c0-.2,0-.3,.1-.5,1.2-.2,2.3-.2,3.5,0-1.1,1-2.4,.4-3.6,.5Z"/><path class="cls-108" d="M397.21,629.2c0,.2,.1,.3,.1,.5h-2.9v-.5h2.8Z"/><path class="cls-22" d="M714.81,627.6v-.4c1-.2,2-.2,3,0-.8,.8-1.9,.4-3,.4Z"/><path class="cls-22" d="M711.31,628.1c.3-.4,.6-.4,1-.4-.2,.4-.5,.5-1,.4Z"/><path class="cls-49" d="M201.31,426h2c-.6,.7-1.3,.4-2,.4v-.4Z"/><path class="cls-117" d="M587.71,59.9c-1,.5-1.9,1-3,.5,.9-.8,1.9-1.2,3-.5Z"/><path class="cls-31" d="M374.31,463q.4,2.3-1.7,3.2c-1.1,.4-2.5,.5-3,1.8-.2,.4-.6,.4-.9,.3-1.2-.2-2.3,.4-3.4,.4,2.8-2.2,6-3.8,9-5.7Z"/><path class="cls-50" d="M651.61,459.7c-.3,.1-.7,.1-.9,.2-1.1,.5-1.7,.3-1.7-1,0-.4-.2-.8-.3-1.2,1,.5,2.1,1.2,2.9,2Z"/><path class="cls-36" d="M598.01,126.1c.4,.8,.8,1.6,.8,2.5-1.1-.4-1.2-.8-.8-2.5Z"/><path class="cls-96" d="M539.91,132.1h-.3c-.2-.2-.1-.3,.1-.3,0-.1,.1,.2,.2,.3Z"/><path class="cls-104" d="M513.21,101.5c-.3,0-.5-.2-.5-.4,0-.3,.3-.3,.5-.3,.1,0,.4,.1,.4,.2,.1,.2-.1,.4-.4,.5Z"/><path class="cls-33" d="M894.41,442.9c-.6,.6-1.3,.4-2,.5-.8,.1-1.6-.3-2.3,.4h-7.6c3.9,0,7.9-1.1,11.9-.9Z"/><path class="cls-113" d="M533.91,183.9c-.7,1-1.4,2.1-2.2,3-2.8,3.1-6.4,3.1-9.4,.1-4.9-4.9-5.7-13.3-1.7-19.2,.9-1.4,2.6-2.2,3.6-3.3,1-1.2,2.1-1.4,3.3-1.6,3.1-.6,5.3,.7,6.9,3.3,2,3.2,2.3,6.7,1.8,10.3-.1,.8-.3,1.6-.4,2.4,.1,1.9-.6,3.6-1.9,5Z"/><path class="cls-113" d="M510.01,149.5c1.1,.5,2.3,.7,3.5,.9,1.9,.7,3.7,1.4,5.5,2.3,1.5,.8,2.5,1.8,2.7,3.7-1.7,.3-3.2-.5-4.6-1.2-2.3-1.1-4.8-1.9-7.4-1.8-1.9-.4-3.9-.2-5.9,0-1.8-.6-3.7-.5-5.6-.9-.4-.1-.8-.2-1.2-.2-.9-.2-1.8-.5-2.7-.6-3.4-.3-6.8-.9-10.2-1.2-1.8-.6-3.7-.5-5.6-.7-.7-.2-1.5-.3-2.3-.2-.6,0-1.2,0-1.8-.1-.4-.1-.7-.2-1-.3s-.6-.3-.8-.6c-.1-1.6,.1-2,1.5-1.9,3.8,.3,7.6,0,11.4,.2,4.4,.3,8.7,1.1,13,1.7,3.3,.5,6.6,1.3,9.9,1,.6-.6,1.1-.5,1.6-.1Z"/><path class="cls-62" d="M452.21,237.7c.4,.3,.7,.6,.7,1.2,0,2.5-.7,4.9-1.9,7-1.2,2.1-2.8,2.3-4.7,.7-3.7-2.9-4.3-7.5-1.5-11.2,.6-.8,1.3-1.3,2.3-1.2,.6,.6,.3,1.4,.1,2-.2,.7-.4,1.4-.6,2.1,.9-.4,1.5-1.4,2.5-1.2,.6,0,1.2-.1,1.8-.1,.7-.2,1,.2,1.3,.7Z"/><path class="cls-96" d="M468.11,153.5c.4-1.1,1.3-1.1,2.3-1,3.8,.1,7.6,.5,11.4,1.2,2.1,.4,4.2,.8,6.3,1.2-1.5,.9-3.1,.8-4.8,.4-3.1-.7-6.3-1.5-9.5-1.4-.8,0-1.6-.3-2.4-.4-1.2-.1-2.2-.3-3.3,0Z"/><path class="cls-76" d="M452.21,237.7c-.4-.2-.9-.4-1.3-.6-.1-1.9-1.5-3-2.6-4.2,2-1.9,3.6-1.5,4.3,1,.5,1.3,.2,2.6-.4,3.8Z"/><path class="cls-96" d="M449.21,237.2c-1.1,.7-2.1,1.5-3,2.7-.5-2.2,.9-3.8,.9-5.6,.7,.9,1.4,1.9,2.1,2.9Z"/><path class="cls-96" d="M533.91,183.9c.6-1.7,1.3-3.4,1.9-5q1.8,3.3-1.7,5-.1-.1-.2,0Z"/><path class="cls-96" d="M536.11,224.4c.7,1.4,1,2.5,.8,3.6-.1,.6-.4,1.2-1.1,1-.6-.1-.6-.7-.4-1.2,.1-1,.3-2,.7-3.4Z"/><path class="cls-19" d="M519.51,218.8c-.2,1.6-.9,2.6-1.3,3.8q-1.6-1.6,1.3-3.8Z"/><path class="cls-96" d="M503.51,152.9c2,.3,4.1,0,6.1,.5-1.7,.5-3.5-.3-5.1,.5-1,.1-2-.4-2.9-.5,.4-1.2,1.2-.5,1.9-.5Z"/><path class="cls-96" d="M530.81,209.3c0-.8,.4-1,.7-1.3s.6-.6,1.1-.4c.3,.2,.3,.5,.3,.9,0,.5-.3,.8-.7,.8h-1.4Z"/><path class="cls-46" d="M504.41,159.8c-.4-.2-.4-.5-.3-.8,.1-.2,.2-.3,.4-.2,.3,.2,.5,.4,.4,.8-.1,.1-.4,.2-.5,.2Z"/><path class="cls-96" d="M472.61,148.5c.4,.1,.7,.1,1.1,.2,.1,.1,.3,.2,.4,.2,.6,.1,1.3,.2,1.9,.2-1.2,1.4-2.6,.5-4,.5-1.6,.2-3.3,.3-4.9,.5-.3-1.3,.7-1.4,1.5-1.5,1.3-.1,2.7-.1,4-.1Z"/><path class="cls-96" d="M453.71,176c-.8,2.2-1.4,4.4-2.7,6.4-.4-.4-.3-.9-.2-1.4,.3-1.3,.7-2.5,.9-3.8,.1-1.3,.8-1.6,2-1.2Z"/><path class="cls-96" d="M421.71,114.1c.4-3.3,1.7-6.4,3.4-9.2,1.9-3.2,4.2-6.1,7-8.7,.5-.2,.7,0,.6,.5-1.6,3.2-3.9,5.9-5.9,8.8-.5,.8-1.3,1.5-.8,2.7,.2,.7-.5,1.3-.9,1.9-1.1,1.4-2.2,2.8-2.9,4.5-.5,.1-.8,0-.5-.5Z"/><path class="cls-96" d="M420.31,125.7c-.4-1.2,.4-2.5-.5-3.5-.2-1.1,.4-2,.5-3,.8,0,.7,.5,.5,1-.2,1.8,.2,3.7-.5,5.5Z"/><path class="cls-81" d="M420.81,120.1c-.1-.4-.2-.8-.5-1-.1-.9,.4-1.7,.6-2.5,.5,1.2,.5,2.4-.1,3.5Z"/><path class="cls-61" d="M432.71,96.7c-.2-.2-.4-.4-.6-.5,.5-.9,1.2-1.5,2.1-2,.3,1.3-1,1.6-1.5,2.5Z"/><path class="cls-16" d="M421.71,114.1c.2,.2,.3,.4,.5,.5-.2,.6-.4,1.3-1.1,1.5,.1-.7,0-1.4,.6-2Z"/><path class="cls-88" d="M484.31,150c3.5,.1,6.9,.7,10.3,1.5-.1,.3-.4,.3-.5,.5-4.2-.3-8.4-.5-12.5-1.5,.7-1.4,1.8-.5,2.7-.5Z"/><path class="cls-89" d="M503.51,152.9c-.6,.3-1.4-.3-1.9,.5-1.4-.1-2.8-.3-4.1-.9,.1-.3,.4-.3,.6-.5,1.7,.4,3.6,.2,5.4,.9Z"/><path class="cls-79" d="M484.31,150c-.9,.2-1.9-.3-2.7,.5-1.3-.2-2.6-.3-3.9-.5-.1-.4,0-.7,.5-.5,2,.1,4.1-.2,6.1,.5Z"/><path class="cls-82" d="M478.11,149.5c-.2,.2-.3,.3-.5,.5-1.9,0-3.8,.2-5.6-.3,1.3-.5,2.7,.3,4-.5,.8-.2,1.5-.2,2.1,.3Z"/><path class="cls-41" d="M494.01,151.9c.2-.2,.4-.3,.5-.5,.8,0,1.7,.1,2.4,.5,.2,.1,.2,.2,.2,.3s-.1,.2-.1,.2c-1,.2-2-.3-3-.5Z"/><path class="cls-75" d="M497.01,152.5v-.5c.3,0,.7,.1,1,.1-.2,.2-.4,.3-.6,.5h-.2l-.2-.1Z"/><path class="cls-96" d="M425.21,238.6c.1-.2,.4-.3,.6-.3-.1,.2-.3,.3-.6,.3Z"/><path class="cls-96" d="M418.71,130.6c-.5,2.9,.9,5.1,2.5,7.2,.5,.7,1,1.5,1.5,2.3,1,1.5,1,1.6-.3,2.7-.8,.6-1.3,1.3-1.2,2.3-1.8-4-3.5-8-3-12.6,.1-.7,.1-1.4,.5-1.9Z"/><path class="cls-96" d="M390.41,71.8c-.1-.4,0-.7,.3-.9,.2,.3,.1,.7-.3,.9Z"/><path class="cls-6" d="M634.51,527c0-.1,.1-.3,.1-.4,.8,.6,.4,1.5,.4,2.2,0,.4-.1,.4-.9-.3,0-.3,.1-.6,.1-.9,.1-.2,.2-.4,.3-.6Z"/><path class="cls-6" d="M603.21,135.6c-.8-6.4-2.8-12.4-5.1-18.3-1.4-5.6,.3-11.2,.6-16.7,.2-4,.8-8.1,.7-12.1-.1-3.8,.8-7.6,.4-11.4-2.1-3.2-3.5-6.8-4.2-10.6-.2-.8-.9-2,.8-2.2,4.1,2.3,7.7,5.2,10.1,9.3,1.1,1.8,2.1,3.7,3.3,5.6,.4,.6,.4,1.3,.4,1.9,0,8.6,.1,17.3-.2,25.9-.3,7.9-1.5,15.7-3,23.4-.2,1-.6,1.9-.9,2.8-.3,.8-.7,1.6-1.1,2.3-.4,.6-1.1,1.2-1.8,.1Z"/><path class="cls-110" d="M596.41,64.2c-.4,.2-.7,.4-.6,.9,1,3.9,1.9,7.8,4.3,11.2,.5,1.6-.8,1.5-1.7,1.6-2.4,.2-4.8,.1-7.2,0-1.7-.1-2.6,.6-3.1,2.2-1.3,3.9-2.2,7.8-3.8,11.5-.7,1.5-1.3,3.1-3.2,3.6-1.9-1.2-3.4-2.8-5.5-3.7-2-.8-4-1.4-6-2,0-.3,0-.5,.1-.6,5-8.7,9.8-17.6,15.9-25.7,.5-.7,.9-1.7,2.1-1.4,.7,.9,1.4,.7,2.1,0,2.3,.6,4.5,1.5,6.6,2.4Z"/><path class="cls-96" d="M581.21,95.2c3-3,3.7-7.1,5-10.9,.7-2,1.4-4.1,2-6.1,.3-.9,.7-1,1.6-1,2.9,.1,5.8,.1,8.7,.1,.7,0,1.6,.1,1.7-1,1.2,1.6,.5,3.4,.3,5-.1,1.3-.3,2.6-.3,3.9,.1,6.5-.6,13-1.1,19.5-.3,4.2-1,8.3-1,12.5-.5-.4-.5-1-.7-1.5-1.6-4.4-4.1-8.2-7.4-11.6-2.8-2.8-5.4-5.7-8.4-8.4,0-.2-.2-.3-.4-.5h0Z"/><path class="cls-96" d="M603.21,135.6c.6,.4,1,.3,1.4-.3,.5-.8,.8-1.6,1.5-2.2-.4,2.6-1.5,5-2.5,7.4-.5,.2-.7,0-.5-.5,.1-1.5,.1-2.9,.1-4.4Z"/><path class="cls-96" d="M589.81,62c-.1,.2-.1,.5-.2,.7-.3,.5-.7,1.1-1.3,1-.9-.2-.4-1.1-.6-1.7,.7-.2,1.4-.2,2.1,0Z"/><path class="cls-87" d="M603.11,140c.2,.2,.3,.3,.5,.5,0,.6-.4,.8-.6,1.4-.5-.8-.3-1.4,.1-1.9Z"/><path class="cls-110" d="M581.21,95.3c.3,0,.4,.2,.5,.5-.3-.1-.5-.2-.5-.5Z"/><path class="cls-96" d="M457.91,512.9c-.8,.2-1.2-.5-1.6-.9-.3-.3-.8-.8-.2-1.2,.4-.3,1-.3,1.4,.1,.4,.5,.8,1.2,.4,2Z"/><path class="cls-58" d="M475.71,516.1c-.2-1.4-.4-2.4,.5-3.3,.6,1.1,.3,2-.5,3.3Z"/><path class="cls-96" d="M634.51,527c0,.3-.1,.5-.3,.6,0-.3,.1-.5,.3-.6Z"/><path class="cls-6" d="M617.41,520.7h.1c0,.1,.1,.3-.1,0Z"/><path class="cls-96" d="M510.01,149.5c-.5,0-1-.1-1.5-.1-.7-.8-1.8-.1-2.6-.7,1-1.1,2.3-.8,3.5-.6,.7,.1,.5,.9,.6,1.4Z"/><path class="cls-43" d="M642.51,448.5c-.9,.5-1.9,.3-2.8,.2,.9-.5,1.9-.3,2.8-.2Z"/><path class="cls-96" d="M532.01,169.4c1.6,5.1,1,9.9-2.3,14.2-1.9,2.5-3.6,2.4-5.7,.1-2.2-2.4-2.9-5.3-3-8.5,0-.9-.3-2,.4-2.9,1.6,.9,1.1,2.3,.4,3.8,0,0,.6,.1,.4-.1-.1-.1,0-.1,0-.2,.2-.4,.4-.7,.9-.5,.7,.9,.3,2.1,.7,3.1,.4,1.1,.8,2.3,2.2,2.5,1.2,.2,2-.6,2.7-1.5,2.1-2.9,2.3-5.9,0-8.9,.4-2.6,1.3-2.9,3.3-1.1Z"/><path class="cls-6" d="M522.91,175.4c-.6,.3-.3,1.1-.7,1.6-.4-.5-.9-1.1-.6-1.6,.6-1.1,0-2-.1-3,0-1.6,.7-3.1,1.7-4.3,.8-1,1.4-2.5,3.2-2.2,2.4,.4,5,.3,5.8,3.4-.2,.2-.1,.8-.5,.6-.5-.3-.5-1.4-1.3-1.3-.9,.2-1.2,1-1.4,1.9-1.1,.7-2.2,1.4-2.6,2.8-.6,1.6-2.1,2-3.5,2.1Z"/><path class="cls-110" d="M474.11,148.9c-.2,.1-.3,.1-.4-.2,.2-.1,.3-.1,.4,.2Z"/><path class="cls-113" d="M522.91,175.4c0-.1,.1-.2,.1-.2,1.8-.8,3-2,3.5-4.1,.2-1.1,1.5-.5,2.4-.6,2.9,3,2.7,7.2-.3,10-.9,.8-2.1,1.7-3.3,1.1-1.4-.6-2.1-2-2.3-3.5-.2-.8-.1-1.8-.1-2.7Z"/></g></g><polygon points="816.54 37.5 846.03 10.39 818.56 39.54 816.54 37.5 816.54 37.5"/><polygon points="257.57 333.8 224.96 310.54 259.14 331.41 257.57 333.8 257.57 333.8"/></svg>