<?xml version="1.0" encoding="UTF-8"?><svg xmlns="http://www.w3.org/2000/svg" viewBox="0 0 930 325"><defs><style>.cls-1{fill:#d2d8b2;}.cls-2{fill:#8b992c;}.cls-3{fill:#b1c28f;}.cls-4{fill:#889148;}.cls-5{fill:#a6b880;}.cls-6{fill:#93ad7b;}.cls-7{fill:#809524;}.cls-8{fill:#3b3f2f;}.cls-9{fill:#fff;}.cls-10{fill:#a0a776;}.cls-11{fill:#d4d7b0;}.cls-12{fill:#808927;}.cls-13{fill:#75803b;}.cls-14{fill:#99b280;}.cls-15{fill:#6e7805;}.cls-16{fill:#608065;}.cls-17{fill:#808c39;}.cls-18{fill:#97a957;}.cls-19{fill:#718041;}.cls-20{fill:#8ca14a;}.cls-21{fill:#475100;}.cls-22{fill:#a0b46d;}.cls-23{fill:#a3b063;}.cls-24{fill:#bdf0ef;}.cls-25{fill:#030300;}.cls-26{fill:#323900;}.cls-27{fill:#808042;}.cls-28{fill:#6c694f;}.cls-29{fill:#060602;}.cls-30{fill:#808a17;}.cls-31{fill:#657155;}.cls-32{fill:#839a6c;}.cls-33{fill:#717457;}.cls-34{fill:#3a3f2f;}.cls-35{fill:#808018;}.cls-36{fill:#607214;}.cls-37{fill:#b4b983;}.cls-38{fill:#95a256;}.cls-39{fill:#96b880;}.cls-40{fill:#b3c282;}.cls-41{fill:#a4ad5d;}.cls-42{fill:#040400;}.cls-43{fill:#82ac80;}.cls-44{fill:#020100;}.cls-45{fill:#b0b582;}.cls-46{fill:#010100;}.cls-47{fill:#4b7054;}.cls-48{fill:#7e863d;}.cls-49{fill:#849731;}.cls-50{fill:#2d4b4b;}.cls-51{fill:#92a648;}.cls-52{fill:#292c21;}.cls-53{fill:#808724;}.cls-54{fill:#818834;}.cls-55{fill:#acbe81;}.cls-56{fill:#80743c;}.cls-57{fill:#a0a880;}.cls-58{fill:#455300;}.cls-59{fill:#91ad79;}.cls-60{fill:#dce0c4;}.cls-61{fill:#8c9a57;}.cls-62{fill:#7a7c5d;}.cls-63{fill:#202900;}.cls-64{fill:#7f803e;}.cls-65{fill:#738f36;}.cls-66{fill:#838c35;}.cls-67{fill:#d0d5ab;}.cls-68{fill:#d0ddbf;}.cls-69{fill:#292e23;}.cls-70{fill:#a1b573;}.cls-71{fill:#809639;}.cls-72{fill:#91a769;}.cls-73{fill:#808028;}.cls-74{fill:#a1ac75;}.cls-75{fill:#a4d8bb;}.cls-76{fill:#94946d;}.cls-77{fill:#6f7659;}.cls-78{fill:#331f00;}.cls-79{fill:#859b45;}.cls-80{fill:#8b9666;}.cls-81{fill:#807a33;}.cls-82{fill:#80ae6b;}.cls-83{fill:#999125;}.cls-84{fill:#808041;}.cls-85{fill:#b0c087;}.cls-86{fill:#939f64;}.cls-87{fill:#8dab79;}.cls-88{fill:#807445;}.cls-89{fill:#9fb780;}.cls-90{fill:#808735;}.cls-91{fill:#62804e;}.cls-92{fill:#989872;}.cls-93{fill:#dbe0c8;}.cls-94{fill:#989e75;}.cls-95{fill:#728035;}.cls-96{fill:#879741;}.cls-97{fill:#d6dbb8;}.cls-98{fill:#94a951;}.cls-99{fill:#d6dbb9;}.cls-100{fill:#d1d1ba;}.cls-101{fill:#7b8900;}.cls-102{fill:#bdbfaf;}.cls-103{fill:#80802b;}.cls-104{fill:#808160;}.cls-105{fill:#91a07f;}.cls-106{fill:#727b5d;}.cls-107{fill:#373a2c;}.cls-108{fill:#96a8a8;}.cls-109{fill:#050500;}.cls-110{fill:#667406;}.cls-111{fill:#020200;}.cls-112{fill:#010000;}.cls-113{fill:#808f1d;}.cls-114{fill:#587f00;}.cls-115{fill:#030301;}.cls-116{fill:#626b00;}.cls-117{fill:#96ac62;}.cls-118{fill:#91a565;}.cls-119{fill:#d6dab5;}.cls-120{fill:#8d9663;}.cls-121{fill:#8a9537;}.cls-122{fill:#b7c080;}.cls-123{fill:#020201;}.cls-124{fill:#393f2f;}.cls-125{fill:#d4d8b2;}.cls-126{fill:#c6d6c8;}.cls-127{fill:#94b880;}.cls-128{fill:#808038;}.cls-129{fill:#65803c;}.cls-130{fill:#757c36;}.cls-131{fill:#a5b284;}.cls-132{fill:#b7be83;}.cls-133{fill:#768010;}.cls-134{fill:#81851b;}.cls-135{fill:#80816a;}.cls-136{fill:#808039;}.cls-137{fill:#677d5e;}.cls-138{fill:#618000;}.cls-139{fill:#8e9e42;}.cls-140{fill:#556249;}.cls-141{fill:#a7b871;}.cls-142{fill:#80a380;}.cls-143{fill:#96a872;}.cls-144{fill:#8fa64f;}.cls-145{fill:#4f6100;}.cls-146{fill:#5f664d;}.cls-147{fill:#9b9d46;}.cls-148{fill:#b5bf80;}.cls-149{fill:#404735;}.cls-150{fill:#807633;}.cls-151{fill:#808b38;}.cls-152{fill:#808a46;}.cls-153{fill:#808b16;}.cls-154{fill:#7d7633;}.cls-155{fill:#b1e8dd;}.cls-156{fill:#9ec18a;}.cls-157{fill:#7e983e;}.cls-158{fill:#697d3f;}.cls-159{fill:#040401;}.cls-160{fill:#d1d6ae;}.cls-161{fill:#4b5540;}.cls-162{fill:#a5af5c;}.cls-163{fill:#808938;}.cls-164{fill:#282c21;}.cls-165{fill:#c9cac9;}.cls-166{fill:#8eb581;}.cls-167{fill:#809138;}.cls-168{fill:#9dbb83;}.cls-169{fill:#273700;}.cls-170{fill:#abbd83;}.cls-171{fill:#d4d7ae;}.cls-172{fill:#999963;}.cls-173{fill:#181b14;}.cls-174{fill:#637400;}.cls-175{fill:#a4c18e;}.cls-176{fill:#808e34;}.cls-177{fill:#7c7d5e;}.cls-178{fill:#6c7558;}.cls-179{fill:#8db780;}.cls-180{fill:#97a372;}.cls-181{fill:#afa680;}.cls-182{fill:#070701;}.cls-183{fill:#d1d8a2;}.cls-184{fill:#afb780;}.cls-185{fill:#aab580;}.cls-186{fill:#a1a680;}.cls-187{fill:#aab269;}.cls-188{fill:#6f7a5c;}.cls-189{fill:#808027;}.cls-190{fill:#2a3024;}.cls-191{fill:#222e00;}.cls-192{fill:#80795b;}.cls-193{fill:#828064;}.cls-194{fill:#868d72;}.cls-195{fill:#8c9755;}.cls-196{fill:#5a644c;}.cls-197{fill:#477100;}.cls-198{fill:#b2ac80;}.cls-199{fill:#7e8012;}.cls-200{fill:#96926a;}.cls-201{fill:#6e955c;}.cls-202{fill:#9eaa4f;}.cls-203{fill:#497f5b;}.cls-204{fill:#a0ab74;}.cls-205{fill:#ccdac7;}.cls-206{fill:#9ba956;}.cls-207{fill:#adb480;}.cls-208{fill:#b0b986;}.cls-209{fill:#010101;}.cls-210{fill:#808232;}.cls-211{fill:#6c803d;}.cls-212{fill:#a0bc84;}.cls-213{fill:#77a067;}.cls-214{fill:#7c6440;}.cls-215{fill:#87993a;}.cls-216{fill:#caccc2;}</style></defs><g id="Ebene_3"><g id="Ebene_2-2"><rect class="cls-183" x=".18" y=".18" width="930.7" height="323.5"/><g><path class="cls-101" d="M187.98,272.78c.3,.6,1.3,.4,1.6,1.4-2.2,1.2-4.5,2.4-6.8,3.5-4.7,2.3-9.4,4.7-13.9,7.4-1.9,1.1-3.9,1.9-5.9,2.8-1.6,.7-2.8,1.8-4,3.2-3.7,4.6-6.1,10-9,15.1-.2,.3-.2,.6-.4,1.1,2,.4,3.7-.3,5.4-.6,5.7-1.2,11.3-2.9,17.2-3.5,5.6-.6,11.1-1.6,16.7-1.2,2,.1,4,.1,6,0,1.7,0,3.4-.1,5,.4,5.3,1.7,10.9,1.6,16.3,2.8,4,.9,8.1,.8,12.2,1.2,.9,.1,1.8,.3,2.7,.3,1.5,.1,2.7,.5,3.4,2.1,.6,1.2,2.8,1.3,3.6,.2,1.9-2.4,3.6-5,4.5-8,2.8-9.1,5.5-18.2,8-27.4,.5-1.7,.6-3.8-.5-5.6-.5-.9-.7-1.7-.4-2.8,.4-1.4-.2-2.8-.7-4.1-3.6-11.2-6.9-22.5-10.3-33.8-.5-1.6-.4-3-.1-4.7,2.3-10.2,4.9-20.3,6.9-30.5,.4-2.3,.9-4.6,.7-7-.1-1,.1-2.1-1.4-2.3-.5-.1,0-1.4-1.1-1-.4,.3-.8,.7-1.3,.8-1.7,.2-3.3,.5-3.5,2.7,0,.1-.1,.1-.2,.2-3.5,1.1-4.5,5-7.4,6.8-1.1,.7-1.9,1.9-2.6,3-2.5,4.1-5.9,7.6-9.1,11.2-1.1,.4-1.7-.5-2.4-1-3.2-2.4-6.4-4.8-9.6-7.2-1.9-1.4-3.1-3.2-3.7-5.5-1-3.9-1.9-7.8-2.6-11.7-.1-.3-.6,.1-.3,0q.1,0,.2,.1c.9,3.8,1.4,7.7,1.9,11.5,.5,3.4,1.9,6.1,4.9,8,2.9,1.9,5.6,4.2,8.5,6.2,.6,.4,1.3,.8,1.5,1.6-2.4,1.2-5,1.7-7.5,2.7-.5,.2-1.1,.3-1.4-.1-1.1-1.2-2-.4-2.9,.2-3.3,2.1-6.7,4.1-9.9,6.4-4,2.9-8.3,4.9-12.9,6.6-6.1,2.2-12.3,4.4-18.5,6.4-1.9,.6-3.8,1.2-5.9,1.2-1.2,0-2.5,.2-3.4-1.1-.6-.8-1.4-.1-2.1,.1-6.3,2.1-12.7,4.2-19,6.3-2.1,.7-4.3,1.4-6.5,2-1.7,.4-2.1,.1-2-1.7,.1-2.6,.4-5.2,.6-7.7,.1-.8,.5-1.4,1.2-1.8,2.9-1.8,5.7-3.7,9-4.7,4.5-1.4,8.8-3.2,13.2-4.9,.6-.2,1.2-.4,1.2-1.1,0-1,.6-1.6,1.2-2.3,.7-.8,.3-2-.8-2.4-.9-.3-1.8-.5-2.6-.8-1.6-.7-2-1.3-1.8-3.1,.1-.7,.3-1.3,.3-2-.1-1.7,.3-3.1,1.8-4,1.1-.2,1.7,.5,2.4,1,1.6,1.1,3.3,2.1,4.6,3.5,2.8,2.9,6.3,3.7,10.1,3.1,3.5-.5,7-.5,10.5-.4,2.1,0,3.5-.6,4.5-2.5,2.4-4.2,4.9-8.4,7-12.9-2.8,3.8-5.2,7.6-7.9,11.2-1.3,1.8-2.8,2.8-5.1,2.1-1.4-.4-2.8-.1-4.3-.2-.9,0-1.9,.2-2.5-.7,.2-3.3,3-5.2,4.6-8-2.5-1.1-5-1.6-7.4-2.4-7.4-2.3-14.2-5.8-20.9-9.6-1.5-.9-2.9-1.9-4.1-3.3-.7-.8-.7-1.5,.2-2.3,1.4-1.1,2.6-2.2,4.5-1.3,.6,.3,1.2-.3,1.8-.1,6.6,2.8,13.2,5.6,19.8,8.6,3.5,1.6,7,3.1,10.7,4.2,5,1.5,9.3-.3,13.5-2.6-2.5,0-4.9,.4-7.4,.8-4.3,.7-7.8-1.2-11.4-3-.4-.2-.6-.6-.6-1,1.7-.3,3.3,.5,4.9,.6,.9,0,1.6,0,2.2-.7,1.4-1.6,2.9-3,4-4.8,0-.4,.2-.7,.5-.9,2.7-1.6,4.2-4.4,6.5-6.4,2.1-.1,4.1-.4,6.2-.9,.2,.2,.4,.4,.5,.6,.7,3.8-.1,7.6-.5,11.4-.3,.4-.5,.8-.1,1.2,.5,1.7,.1,3.7,1.3,5.6,1.3-1.6,.5-3.5,1-5,.2-.7,.1-1.5-.1-2.2-.1-4.3-.8-8.5-.7-12.8,0-.6,.3-1.1,.9-1.3,.8-.3,.3-.7,.1-1.1-.1-1,.3-1.7,1.1-2.1,1.4-.3,2.6,.5,3.8,1,.9,.4,1.8,.9,2.9,.6-.5-1.6-1.9-2.2-3.2-3-1-.6-2.4-.8-2.9-2.1,.5-.4,.6-.9,.8-1.5,.6-.4,1.3-.9,1.1-1.8-.3-1.9-.6-3.9-1.4-6-1,1.2-.5,2.2-.5,3.3,.1,1.5,1.1,3,0,4.6-1.1,.6-2.3,.3-3.4,.6-4.1-.5-7.8-2.4-11.8-3.3-.4-.1-.8-.4-.7-.9,.4-.1,.9,.1,1.2-.5-1.5-1.3-3-2.5-5.2-2.3-.5,0-1-.1-1.5-.1-1.9-.1-4,.2-5.7-.5-1.6-.6-3-2-4.4-3.1-2-1.7-4.2-2-6.7-1.7,.2-1.2,1.3-1.1,2.1-1.4,5-1.5,10.1-2.5,15.1-3.6,2.8-.6,5.3,.1,7.7,1.3,2.6,1.3,5.2,2.7,7.9,3.8,.6,.3,1.6,.8,2,0s-.5-1.3-1.2-1.7c-3.2-1.8-6.5-3.5-9.9-5-.8-.3-1.8-.5-2.2-1.5,.5-.8,1.3-.9,2.1-1.2,2-.7,4.1-1.4,6.2-2.1,.5-.2,1.2-.2,1.5-1.1-2.7-1.7-5.4-3.5-8.1-5.2-.8-.5-1.8-.4-2.7-.3-4,0-8-.5-12-.8-3.6-.3-7.2,.4-10.6,1.7-5,1.9-10,3.7-14.9,5.9-3.5,1.6-6.9,3.5-10.1,5.6-3.7,2.3-7.7,3.6-11.8,4.6-7,1.8-13.8,3.9-20.8,5.8-7.4,2.1-14.9,3.6-22.5,5.1-.6,.1-1.2,.2-1.7,.2-6.1-.1-12,1.1-17.7,3.1-1.7,.6-3.2,.6-4.9,0-5-1.7-10.2-1.6-15.4-2-1.2-.1-2.4,.3-3,1.4-.7,1.5-2,2.2-3.3,3-7.4,4.5-14.7,9.4-21.6,14.6-1,.7-1.8,1.8-3.1,2.1-1.2-1.3-.8-3-.8-4.5V92.08c0-2,0-4-.2-6,0-.8,0-1.6-.1-2.3,.2-6.5,.4-12.8,.4-19,0-.7,.1-1.3,.4-1.9,.7-1.1,1.9-.9,2.9-1.1,12.4-2.1,24.8-3.8,37.3-5.5,9.2-1.2,18.3-3,27.5-4.2,8-1,16-1.8,24-2.3,4.9-.3,9.7-1.8,14.6-2.2,17.1-1.5,34-4.8,50.9-7.5,4.2-.7,8-2.4,12-3.5,9.5-2.4,19-4.7,28.4-7.4,8.7-2.6,17.2-5.6,25.8-8.2,9-2.7,18-5.2,27.1-7.5,1.6-.4,3.2-.6,4.8-.8-1.4,.2-2.8,.4-4.2,.4h-40.2c-.9,0-1.9,.1-2.7-.4-.5-.3-.7-.7-.1-1.1,1.4-.6,2.8-.5,4.2-.5,13.9,0,27.8-.4,41.7,.1,21,.7,42,.1,63,.4,.8,0,1.7,0,2.5,.2,1,.2,1.9,.7,2.8,1,4.1,2.5,7.8,5.5,11.9,7.9,18.6,11.2,36.1,23.9,53.7,36.6,7,5.1,12.9,11.4,18.1,18.3,1.6,2.2,3.7,4.1,4.7,6.7,.2,.4,.3,.9,.5,1.3,.2,.6,.4,1.1,.5,1.7,0,.4-.1,.7-.5,.9-.3,0-.7-.1-.9-.3-6.1-5.2-13.9-7-21-10.3-7.1-3.3-14.7-4.7-22.3-6.3-.8-.2-1.7-.1-2.3-.8,.2-1.4-1-.1-1.3-.6-4.1-1.2-8.4-1.7-12.5-2.6-3.9-.8-7.7-1.7-11.7-2.2-1.9-.5-3.9-.8-5.9-1.1-.7-.2-1.5-.4-2.3-.3-.4,0-.8,0-1.2-.1-1.3-.3-2.6-.4-3.9-.6-2-.3-4-.5-5.9-.8-.5,0-1.1-.1-1.6-.2-1.9-.5-3.8-.4-5.7,.1-3.9,.5-7.8-.5-11.7-.9-7-.7-14.1-1.5-21.1-2.4-.8-.1-1.7-.1-2.4-.6-.1-.5-.3-.8-1-.7-1,.2-2.1,.2-3.2,.3-6.3-1-12.7-.7-18.9-1.8-.9-.3-1.9-.4-2.8-.4-1.1,0-2.2,0-3.3-.2-1.4-.4-2.8-.5-4.2,0-1,.1-2.1,.4-3-.5-1.7-.8-3.4-.2-5.1,.1-5.8-.1-11.5-.3-17.3-1.1-5.9-.8-11.8-1.5-17.8-1.2-3.2,.1-6.3-.7-9.5-.5-12.9,.8-25.8,.3-38.7,.6-5.4,.1-10.8,1.1-16.2,1.5-14.5,1.2-28.9,3.4-43.4,4.9-8.4,.9-16.9,1.9-25,4-17.3,4.5-35.2,4.4-52.5,8.1-2.3,.5-4.6,1-6.4,2.7-1.1,1-.9,1.6,.4,2.1,2.5,1,5,1.5,7.6,1.1,17.7-2.5,35.4-3.9,53.1-6.2,5.4-.7,10.8-1,16.3-1.1,6.7-.2,13.4-.4,20.1-.7,12.1-.5,24.1,.1,36.1-.5,10.8-.6,21.5,.6,32.3,1,4,.1,8,.6,12,.7,14.9,.4,29.8,.6,44.5,3.1,5.7,1,11.5,.9,17.3,1.3,8.4,.5,16.8,1.6,25.2,2.3,4.9,.4,9.8,1.1,14.7,1.6,5.6,.6,10.6,3,15.9,4.6,1.7,.5,2.2,1.9,2.4,3.5,.8,5.5,1.4,11.1,1.9,16.7,.9,12.3,1.3,24.5,1,36.8-.1,4.6-.1,9.2-1.2,13.7-.3,.7-.9,1.1-1.6,1.2-2.1-.1-3.8-1.4-5.4-2.5-2.1-1.4-4.2-2.8-6.4-4-2.2-1.2-4.2-2.2-4.8-5-.3-1.5-1.5-1.6-2.7-.7-.9,.7-1.7,1.4-2.5,2.1-.5,.4-1,1.1-1.7,.6-.6-.4-.5-1.2-.4-1.8,.3-2.1,.8-4.2,1.4-6.3-1.5,2.7-2.5,5.5-3.3,8.4-1.2,4.7-3.2,9.1-4.6,13.8-.5,1.7-1.2,3.5-2.7,4.8-.5,.4-.9,.9-.5,1.5,.5,.7,1.2,.3,1.8,0,1.6-.7,2.6-2,3.2-3.7,1.2-3.2,1.6-3.2,4.7-1.8,7.1,3.1,12,8.3,15.4,15.1,.9,1.8,.6,3.1-.3,4.7-5.6,9.3-11.9,18.2-18.7,26.7-2.5,3.2-4.9,6.3-7.5,9.4-.8,1-1.5,2.2-3.1,2.3-.2-.2-.3-.4-.4-.6-.1-.4-.1-.8,0-1.2,.3-2,.4-4,0-6-.1-.4-.3-.8-.3-1.2-.1-5-3.3-7.6-7.3-9.7-.9-.5-1.7-1.1-2.5,.1-1,.6-1.7,.3-2.3-.6-.2-.4-.2-.8-.1-1.2,2-6.8,3.5-13.7,6.2-20.2,.5-.6,1.1-1.1,.9-2,.7-3.2,2.4-5.8,3.7-8.8-3.5,5.2-6,10.8-8.1,16.7-1.1,3-2,6-3.2,8.9-.2,.3-.4,.5-.6,.8-.4,.6-.7,1.4-.8,2.1,0,.4-.1,.9-.1,1.3,0,.6-.2,1.2-.5,1.7-.8,1.2-1.2,2.5-1.4,3.9-.1,.9-.4,1.7-.5,2.5-.6,1.8-.8,3.7,.3,5.4,.3,1.1,.3,2.3,.3,3.5-.6,9.5,2.3,18.2,6,26.8,1.1,2.5,2.2,5,3.6,7.4,.2,.4,.3,.9,.5,1.3,0,.1,.1,.2,.1,.3,.1,.2,.1,.4,.2,.6,.1,.4,.2,.8,.4,1.1,.2,.4,.4,.7,.6,1.1,.3,.4,.6,.7,.8,1.1,1.9,5.1,.6,10.2-.6,15-3.4,13.7-6.2,27.5-9.1,41.3-.3,1.4-.6,2.7,.9,3.5,.2,1.1-.5,1.6-1.3,2-1.1,.4-2.3,.3-3.5,.3-5.6,0-11.2,.1-16.8,0-10-.3-19.9,.7-29.9,.6-2.6,0-4.8-.1-5.8-3.1-.6-1.7-2.4-2-4.1-1.8-7.3,.6-14.5,.8-21.8,1.6-4.4,.5-8.8,.6-13.2,1.2-.7,.1-1.6-.1-1.8,.9-.1,.3-.3,.5-.5,.7-1,.5-2.1,.4-3.2,.4-6.2,.2-12.4-.3-18.6,.3-1.5,.2-2.3-.4-2.7-1.9-.5-1.8-.8-3.6-.5-5.4,1.1-7.4,3-14.6,4.8-21.8,.4-1.7,1.4-3,2.8-4.1,7.9-6.1,16.5-10.2,26.7-10.1,3.8,0,7.5,.5,11.3,.5,.4,.1,1,.3,1.4,.8Z"/><path class="cls-183" d="M512.88,311.98c-7.3,0-14.7-.1-22-.1h-19.8c-.9,0-1.9,.3-2.6-.5-.7-.9-.5-1.9-.5-2.9,.2-10.6,.5-21.2,.7-31.8,.4-16.6,.6-33.2,1.1-49.8,.3-10.5,.1-21,.4-31.6,0-1.4-.2-2.9,.6-4.1,1.8-.3,1.3,1.2,1.3,1.9,.1,2.7,.1,5.3,0,8.2,1-1.2,2-2.5,3.7-1.6,1.4,.7,2.9,1.3,3.8,2.7,1.4,2.3,1.5,2.2,3.1,.1,1.5-1.9,3.1-3.8,4.4-5.8,2.1-3.2,5.2-4,8.8-4.4,9.5-1,19-.2,28.6,0,9.9,.2,19.7-.3,29.5-1.8,3-.4,4.9,.4,6.1,3.2,1.6,3.8,4.2,6.3,7.8,8.1,2.8,1.4,5.7,2.8,8.4,4.5,1.5,.9,2.7,.7,3.7-.8,4.3-6,4-4.5,10-3.6,5.8,.8,11.5,.7,17.1-1.5,1.8-.7,3.2-1.6,4.4-3.1,1.6-2.1,3.3-4.2,4.9-6.4,2-2.7,4.4-3.5,7.7-2.7,7.3,1.9,14.4,4.5,21.6,6.7,2.4,.7,4.8,1.5,7.2,2.2,5.1,1.5,10.3,.7,15.5,.4,3.4-.2,4.9,.4,6.5,3.4,.7,1.3,1.3,2.5,1.8,3.9,.9,2.4,2.2,4.4,4.5,5.8,1.7,1,2.8,2.6,3.6,4.4,.5,1,1,2.1,2.1,2.4,3,.8,5.9,1.9,9.1,1.6,1.3-.1,1.7,1,2.1,1.8,2.5,5.3,6.6,8.9,11.6,11.7,2.8,1.5,5.8,3,7.6,5.9,.3,.8,.6,1.5,1,2.3,1.7,2.9,2.5,6.1,4.5,8.9,.7,1.1,.8,2.1-.6,2.7-6.2,2.7-11.8,6.7-17.7,10-8.4,4.6-16.8,9-25.1,13.7-4.1,2.3-8,4.9-10.4,9.2-1.5,1.3-1.8,3.3-2.8,4.9-13,5.3-25.1,12.3-37.8,18.1-1.2,.6-2.6,1-3.4,2-1.5,1.8-3.4,2.3-5.6,2.3-1.2,0-2.3,.2-3.5,.2-32.7,0-65.3,.1-98,0h-.8c-.2,0-.5,0-.7-.1-.2,0-.4,0-.7-.1h-1.8c-.2,0-.4,0-.6-.1-.1-.2-.3-.3-.4-.4Z"/><path d="M716.78,238.38c-2-2.4-4.7-4-7.4-5.4-5.9-3-10.2-7.3-12.7-13.5-.1-.2-.3-.4-.4-.6-1.6-1.5-1.8-3.6-2.1-5.5-1.3-7.1-3.3-14-5-21-.1-.6-.3-1.3-.6-1.8-.6-.1-.9,.3-1.2,.4-2,1.1-2.8,.7-2.9-1.5-.1-2.9-.3-5.8-.9-8.7-.5-2.4-.1-5,.9-7.3,1.2-2.8,1.8-5.6,1.5-8.7-.8-8.5,1.6-16.3,6-23.4,3.5-5.6,4.5-11.2,2.3-17.2-3.2-9-1.2-17.3,2.4-25.5,.8-1.9,.8-3.3-.1-5.2-5.7-11.5-9.5-23.5-10.9-36.3-.3-2.7-1-5.2-1.4-7.9-1-6.7,.3-13.3,.2-20,.4-3.4,1-6.8,2.1-10.1,.2-.6,.4-1.1,.6-1.6,1.7-3.8,1.8-3.6-2.5-3.6-29.2,0-58.4,.4-87.6-.1-39.8-.7-79.6-.1-119.4-.4-1.6-.2-2.9-.2-2.7,2,0,.4-.1,.9-.2,1.3-.5,5.9-.1,11.8-.2,17.7-.1,14.1-.5,28.2-.7,42.2-.1,6.2-.2,12.5-.3,18.7,0,14.3-.5,28.5-.6,42.8,0,5.2-.4,10.5-.3,15.7,.1,11.3-.9,22.5-.6,33.8,0,1.1,.1,2.2-.9,3-.5,2.9-.3,5.8-.4,8.7-.1,9.4-.2,18.7-.5,28.1-.2,6.6-.1,13.2-.3,19.8-.3,7.5-.2,15-.5,22.5-.2,6.7-.3,13.4-.5,20-.2,7.1-.5,14.2-.8,21.3-.4,.1-.9,.1-.9-.5-.1-.7-.1-1.5-.1-2.2,0-7.9-.1-15.9,0-23.8,.2-8.7-.1-17.4,.2-26.1,.4-13.1,.2-26.2,.5-39.3,.2-11.3,.2-22.5,.5-33.8,.3-10.4,.2-20.7,.5-31.1,.3-10.1,.2-20.2,.5-30.3,.3-9.8,.2-19.5,.5-29.3,.3-9.9,.2-19.7,.5-29.6,.3-9.6,.2-19.2,.5-28.8,.3-8.3,.3-16.5,.4-24.8,0-1.6,.8-1.5,1.9-1.5,13.3,0,26.6,.1,39.9,.1s27.3-.1,40.9,.1c28.1,.4,56.3,.2,84.4,.3,27.7,.1,55.4,.1,83.1,.2,9,0,18.1,.2,27.1,.2,1.2,0,2.2,0,3.1-1,.9-.9,2.2-1.1,3.5-.8,.7,.1,1.3,.2,1.9,.5,3.1,1.3,6.3,1.3,9.6,1.3,15.7,0,31.5,0,47.2,.2,1.5,0,2.6-1.7,4.3-.5,1.3,.9,2.9,.4,4.4,.4,1.6,0,3.2,.1,4.8,.1h31.1c.3,0,.7-.1,1-.1,.8-.7,1.8-.7,2.8-.7,3.6,0,7.1,.3,10.6,.7,5.9,0,11.7,.1,17.6,.1h28.1c.6,0,1.2-.1,1.7,.1,.5,.2,1.1,.5,1.5,.9,.7,.8-.4,.8-.5,1.3s-.1,1-.1,1.5c.6,18.7,.5,37.4,.7,56.1,.3,23.6,.3,47.3,.3,70.9,.1,49.7,.1,99.4,.1,149.2,0,1-.4,2.2,.5,3.1,.1,.1,.2,.3,.1,.4-1.3,4.7-.4,9.4-.5,14.2,0,1.7-.5,2.7-1.9,3.4-.7-.6-.7-1.5-.9-2.3-.1-5.8-1.1-11.6-.8-17.4-.3-.5-.8-.9-1.3-1.1-5.3-2.3-9.8-6.3-15.3-8.2-2.1-.7-4.2-1.5-6.4-2.2-1-.4-2-.7-3-1-.4-.2-.9-.3-1.3-.4-.2-.1-.4-.1-.7-.2-.9-.3-1.8-.6-2.7-.9-5.8-2.2-11.7-4.1-17.2-6.7-.7,.3-1.8-1.9-2.3,.3,.6,3.8,1.2,7.6,1.7,11.4,.2,1.3,.1,2.5-.8,3.5-.5,.5-.8,1.1-.9,1.8-1.2,6.6-4.3,12.6-7.3,18.5q-1.1,2.2,1.5,2.2h8.8c13.4-.2,26.9-.1,40.3-.1,1.5,0,3.3-.5,4.2,1.3,.1,.5,.8,.6,.8,1.3-1.4,1-3.1,1.3-4.8,1.3-3.8,.7-7.6,1-11.4,.1h-42.9c-.3,0-.7,.1-.9,.2-.8,.1-1.5,1.1-2.5,0-.5-.5-1.4-.2-2.2-.2-20.9,.1-41.9,.3-62.8,.3-14.9,0-29.8,.1-44.7,.1-19.9,.1-39.8,.2-59.8,.3-61.3,.2-122.6,.5-183.8,.7-10.5,0-21.1,.1-31.6,.1h-1.5c-1.1,.1-1.5-.3-1.5-1.4,0-1,.2-1.5,1.4-1.5,2.1,.1,4.2,0,6.3,0,12,0,23.9-.1,35.9-.1,.7,0,1.5,.1,2.2-.2l.1,.1,.1-.1c.3,.1,.5,.1,.8,0h.2c.3,.1,.5,.1,.8,0h.2c.3,.1,.5,.1,.8,0h.2c.3,.1,.5,.1,.8,0h18.8c26.4-.1,52.7-.1,79.1-.2,2.3,0,4.7-.1,7-.1,.7,0,1.4,.1,1.5-.9,.1-1,.9-1.4,1.6-1.7,12.1-5.7,23.8-12.1,36-17.6,1.7-.8,3.4-1.3,5.1-2,1.6-1.1,1.5-3,2.4-4.4,1.2-2.9,3.4-4.9,5.9-6.7,2.4-1.7,4.9-3.1,7.5-4.5,8.2-4.5,16.5-8.9,24.6-13.5,4.2-2.3,8.2-4.8,12.3-7.2,.8-.5,1.6-1,2.4-1.3,1.6-.6,1.6-.5,1.1-2.1-1.3-3.1-2-6.5-4.1-9.1,.2-.6-.5-1.2-.7-2Z"/><path d="M373.48,68.08c3.2,.7,6.5,1.5,9.7,2.1,6.9,1.3,13.4,4.1,19.8,6.8,1.1,.5,2.1,1,3.2,1.3,5.2,1.6,9.8,4.3,13.9,7.7,.3,0,.5,.1,.7,.3l.1,.1s.1-.1,0-.2c0-.1-.1-.2-.1-.2-.2-.4-.2-.9-.5-1.3-.2-.3-.3-.7-.4-1.1-.2-.5-.6-.8-.7-1.3-6.8-9.9-14.5-19-24.4-26-12.3-8.7-24.5-17.5-37-25.8-4.9-3.2-9.9-6.3-14.9-9.3-4-2.5-7.9-5-11.5-8-.7-.4-1.4-.7-2.2-.9-14.5,0-29-.1-43.4-.1-22-.1-44-.3-66-.4-1,0-2,.1-3,.1-1,.8-2.2,.7-3.4,.7-39.4,0-78.7,.4-118.1-.1-25.7-.4-51.4,0-77.1-.4-2.2,0-4.6,.3-6.4-1.4,.1-1.5,1.2-1.3,2.2-1.3,5.7,0,11.4-.1,17.1-.1,19.6,0,39.2-.1,58.8,0,45.2,.1,90.4,.1,135.6,.2,17.3,.1,34.6,.2,52,.2,1.4,0,2.9,0,4.3-.2,1.7-.3,3.3,.3,5,.3h39.9c.1-.5-.9-1.5,.6-1.4,1.3,.1,2.5,0,3.8,0,.5,0,1,0,1.4,.4,1.1,1.2,2.5,1.1,3.9,1.1,17.8,0,35.5-.1,53.3,.1,18,.2,36,.1,54,.3,5.3,.1,10.5,0,15.8,0,1.9,0,2.4,.5,1.8,2.2-.5,1.6-.4,3.1-.5,4.7-.1,4-.1,8-.1,12-.1,14.5-.2,28.9-.3,43.4,0,.8,.1,1.7,.1,2.5,.3,2.7,.1,5.4,.1,8-.1,3.2,.4,6.3,.3,9.5,0,5.1,.1,10.2-.3,15.3v4.2c-.2,1.2,.3,2.4-.3,3.6-.2,1.5-.2,2.9,0,4.4h0c-.5,4-.2,8-.2,12s0,8.2-.1,12.2c-.2,8.8-.1,17.7-.1,26.5,.7,6.8,.5,13.5,.2,20.3-.1,1.1,.3,2.2-.2,3.3-.3,1.1-.1,2.2-.1,3.2,0,11.7,.2,23.3-.1,35-.3,12.3-.1,24.5-.3,36.7,0,.4,.1,.8,.1,1.2,.7,4.2,.7,8.3,.7,12.5,0,.9,0,1.8-.9,2.5-.4,1.1-.3,2.2-.2,3.2,.3,7.1-.2,14.2-.2,21.3,0,1.3,.6,2.4,.5,3.6-.1,1-.4,1.5-1.5,1.5-2.2,0-4.3,.1-6.5,.1-.8,.5-1.7,.5-2.5,0-1.8-.2-3.7-.2-5.5,0-5.1,.7-10.3-.1-15.4,.2h-50c-.9,0-1.8-.2-2.7,.2-.6-.3-1.3-.2-2-.2-36.3,.1-72.7,.2-109,.4-3.8,0-7.5,.5-11.3,.7-.7,0-1.5,.1-2.3,0-4.8-.8-9.6-.8-14.5-.1-2.6,.4-5.3,0-8-.1-3-.1-6-.2-9-.3-1.3,0-2.6-.3-3.8,.8-.4,.4-1.3,.1-1.9,.1-.7-.1-1.5-.3-2.2-.3-6.1,.2-12.2-.6-18.3-.1-4.8,.4-9.7,.4-14.5,.8-5.3,.4-10.6,0-16-.4-4.9-.4-9.8-.6-14.8-.6-7-.1-14.1,0-21.1-.1-6.4,0-12.7,0-19.1,.1-28.3,.2-56.6,.2-84.8,.2-3.9,0-7.9-.2-11.8-.3-.3,0-.6-.1-1.4-.2,1.8-.6,3.2-.7,4.6-.7,17.7-.4,35.5-.6,53.2-.7,9.1,0,18.2-.2,27.3-.3,1.2,0,2.2-.4,3.2-1.2,5.5-4.4,11.3-8.3,17.4-11.8,8.7-5,17-10.7,24.8-17,5.2-4.2,11-7.6,16.9-10.7,4.6-2.4,9.5-3.6,14.7-3.7,3.7-.1,7.3,.1,11,.4,4.2,.4,8.5,.4,12.8,.6,1.2,0,2.3,.1,2.9,1.7-3.6-.8-6.9,0-10.3,0-3.8-.1-7.7-.3-11.5-.4-7.1-.1-14,1.1-20.1,5-2.5,1.6-5.1,3.1-7.6,4.8-1.2,.9-2,1.9-2.4,3.4-1.9,7.3-3.7,14.7-4.9,22.2-.2,1.6-.6,3.3,.7,4.8,.3,.4,.1,1,0,1.7,8-.6,15.9-.1,23.8-.5,2-.4,4.1-.1,6.1-.2h8.4c7.2-.4,14.5-.2,21.7-.6-7.2,.3-14.4,.2-21.7,.6h-8.4c-2-.1-4.1,.2-6.1-.1-.9-1-.9-1.4,.1-1.5,1.9-.3,3.8-.4,5.7-.6,7-.6,13.9-1.3,20.9-1.9,1.1-.1,2.2,0,3.3-.1,2.6-.1,5.2-.4,7.7-.5,2.7-.1,3.9,.7,4.7,3.3,.4,1.4,1.2,1.6,2.4,1.6,7.2,0,14.4-.2,21.5-.3,9.7-.2,19.4-.1,29.1-.1,.7,0,1.5-.1,2.2-.1,1.1-.7,2.4-.7,3.6-.7,27,.4,53.9-.6,80.9-.5h57.5c7.3,0,14.5-.8,21.8-.5,1.2,.1,2.5,.1,3.8,.1h3.3c6.5,.1,13-.1,19.5,0h.9c1.9,.2,2.4-.9,2.4-2.6-.1-2.6,0-5.1,0-7.7,0-22.7,0-45.4-.1-68.1,0-24.7,.1-49.4,.1-74.1,0-1.3,0-2.5-.1-3.8-.1-12.9,.1-25.7-.1-38.6-.3-32.7,.8-65.3,.5-98-.1-5.1,0-5.2-5.1-5.1-26.8,0-53.5-.8-80.3-.5-9,.1-17.9,.1-26.9,0-2.1-.2-4.2-.1-6.3-.2,3.6,2.6,7.3,4.9,11.1,7.2,16.9,10.2,32.4,22.3,48.4,33.8,10.4,7.5,17.9,17.5,24.4,28.3,2.7,4.5,3.5,9.5,3,14.7-.1,1.2-.6,2.2-1.3,3.2-3.3,4.8-7.8,7.6-13.5,8.8-5.6,1.2-11.3,1.3-16.9,2-6.5,.8-13.2,.8-19.7,1.6-6.2,.2-12.4,.3-18.5,.3-8.5,.1-17.2,.9-25.6-1.2-.6-.1-1.2-.1-1.8-.1-1.3,.1-2.6,0-3.9,0-2.1-.3-3,.5-2.6,2.7,.7,7.7,1,15.5,.9,23.2,0,7.2-.5,14.5-2,21.6-.5,2.5-1.2,5-2.3,7.4-2,3.9-4.3,7.7-6.2,11.6-.1,.2-.2,.4-.3,.6-.2,.4-.4,.8-.6,1.2-7.7,13.1-16.8,25.2-26.5,36.9-2.9,3-5.5,6.3-8.6,9.1-1.4,1.3-2.6,2.8-4.2,3.8q-2.9,1.5-3.7-1c-.1-1.4,.4-2.6,1.4-3.5,2-1.9,3.9-4,5.7-6.1,.4-.4,.8-.7,1.2-1.2,.4-.4,.7-1.1,1.4-1.2,2.5-2.2,4.4-4.8,6.4-7.3,6.4-7.9,12.5-16.1,18.1-24.6,1.6-2.5,3.1-5.1,4.7-7.7,.6-1,.7-1.8,0-2.7-.6-.8-1.1-1.7-1.5-2.6-3-7.1-9.3-10.5-15.7-13.6-.7-.3-1.1-.2-1.4,.5-.3,.8-.5,1.6-.8,2.4-.7,2.1-2.2,3.3-4.2,4-.6,.2-1.4,.7-1.8,0-.5-.8-.8-1.9,.1-2.5,2.3-1.7,2.8-4.2,3.6-6.7,2.1-6.3,4.3-12.6,6.5-18.9,.3-.9,.9-1.8,1.3-2.7,.1-.2,.3-.3,.6-.3,.3,.1,.4,.3,.4,.6,.1,.7-.3,1.3-.4,1.9-.6,2.3-1.3,4.6-1.5,7.6,1.6-1.6,2.9-2.9,4.4-3.9,1.8-1.2,2-1.2,3,.7,.2,.4,.6,.9,.6,1.4-.1,2.1,1.5,2.6,2.9,3.4,2.5,1.4,5.2,2.7,7.4,4.6,1.4,1.2,3.2,1.8,4.8,2.7,.7,.4,1.1,0,1.4-.6,1.6-11.4,1.4-22.9,1-34.3-.2-5.6-.2-11.2-.8-16.8-.7-5.9-1.2-11.8-2-17.7-.1-1-.5-1.4-1.5-1.7-2.2-.6-4.3-1.3-6.4-2.1-3.7-1.4-7.5-2.3-11.4-2.7-6.9-.7-13.8-1.3-20.7-2.1-6.8-.8-13.6-1.3-20.5-1.8-3.2-.2-6.3-.2-9.5-.5-4.8-.4-9.6-1.1-14.4-1.8-4.7-.7-9.5-1-14.2-1.2-6-.3-12-.4-18.1-.6-8.4-.3-16.9-1.1-25.3-1.4-6.6-.3-13.2-.9-19.8-.4-4.5,.4-9,.2-13.6,.1-10.9-.2-21.8,.6-32.6,.7-6.6,.1-13.2,.5-19.8,.9-6.9,.5-13.8,1.2-20.7,2.1-5.5,.8-10.9,1.4-16.4,1.8-6.1,.5-12.1,1.3-18.2,2.1-2.2,.3-4.3,.5-6.5,.8-3.7,.5-6.8-1.1-10.1-2.3,1.2-1.9,4.4-4.4,6.2-4.7,7.7-1.2,15.3-2.6,23-3.5,8-.9,16-1.6,23.9-3,1.7-.3,3.4-.7,5-1.6,1.2-.6,2.7-.7,4.1-.8,6.2-.5,12.2-2.1,18.3-2.8,4.6-.5,9.1-1.3,13.7-1.7,6.1-.6,12.1-1.4,18.2-2.2,4.4-.6,8.8-.9,13.2-1.4,4.2-.4,8.5-1,12.7-1.3,3.4-.3,6.8-.7,10.3-.7,8.8,0,17.6-.1,26.4-.1,2,0,4-.2,6-.2,7,.1,14.1,.2,21.1,.4,2.5,.1,5,.5,7.5,.8,2.6,.3,5.1,.7,7.7,.9,4.3,.3,8.5,.4,12.8,.6,1.5-.1,3-.5,4.4,.2,1,.6,2.1,.4,3.1,.3,1.1-.2,2.3-.1,3.4-.1,1.3,.9,2.8,.3,4.1,.4,.8,.1,1.7-.2,2.5,.2,4,.7,8.2,.3,12.2,.9,2.5,.4,5,.6,7.5,.8,1.1,.2,2.3-.3,3.4,.3,1.6,.8,3.4,.6,5.2,.8,8.3,1,16.6,1.8,24.9,2.7,1.9,.2,3.8,.5,5.7,.4,1.3-.5,2.6,.3,3.9,0,.8-.1,1.6,.3,2.4,.3,.8,.3,1.6,.2,2.3,.3,.9,.3,1.8,.1,2.8,.2,1.8,.6,3.7,.3,5.4,1h1.2c.4,0,.8,0,1.2,.1,2.3,.6,4.7,.8,7,1.4,3.8,.5,7.5,1.6,11.3,2,4.3,1.1,8.8,1.6,13.1,2.9,0,.7,.5,.6,.7,1Z"/><path class="cls-202" d="M11.88,10.68c1.5,.5,3.1,.4,4.7,.4,23.4,.1,46.8,.2,70.3,.4,42.8,.3,85.6,.3,128.5,.4,.5,0,1,0,1.5,.1,.8,.6,1.8,.3,2.7,.3,14.4,0,28.8,.1,43.2,.1,.9,0,1.8,0,2.7,.3-3.4,.9-6.7,1.7-10.1,2.6-9.8,2.5-19.5,5.2-29.1,8.4-14.8,4.8-29.6,9.2-44.8,12.8-3.3,.8-6.7,1.5-9.8,3-1.9,.9-4,1.1-6.1,1.4-5.4,.7-10.6,2.1-16,2.8-4,.5-7.9,1.2-11.9,1.8-3.5,.5-7.1,1-10.6,1.7-2.4,.5-4.8,.5-7.2,.7-5.5,.4-10.9,1.5-16.3,2.3-3.1,.5-6.1,.8-9.2,.8-4.6,0-9.1,.8-13.7,1.4-4.5,.6-9.1,1.1-13.6,1.7-4.2,.5-8.4,1.5-12.6,2.2-3,.5-5.9,.9-8.9,1.3-4.5,.6-9.1,1-13.6,1.8-4.8,.8-9.7,1.5-14.6,2.2-2.3,.4-4.6,.7-6.9,1.2-.4,.1-.8,0-1.2-.1-1.2-1.1-.9-2.6-.9-4,0-14.4,0-28.5,.1-42.7,0-2.2-1-4.5,.2-6.6,1.1,.9,.2,2.2,.9,3.3,1.1-.3,1.7-1.1,2.3-2Z"/><path class="cls-101" d="M896.28,280.68c4.2,1,8.3,2.4,12,4.6,3.4,1.9,6.6,4.1,10,6,0,.4-.4,.9,0,1.1,.6,.3,1.1-.3,1.6-.5,.1,.1,.3,.3,.3,.4-.4,6,.4,11.9,0,17.9-.7-1.6-.1-3.2-.4-4.8-1.1-1.5-.5-3.2-.7-4.9-.1-.1-.3-.1-.4,.1-3.3,4.4-7.8,4.4-12.5,3.4-10.4-2.4-19.9,.6-29.2,4.6-1.8,.8-3.6,1.3-5.5,1.8h-11.5c-.4-.8,.3-1.2,.6-1.8,2.5-4.7,4.9-9.5,6.6-14.6,.5-1.5,1-3,1.2-4.6,.2-1.2,.2-2.4,1.6-3.1,.9-.4,.5-1.3,.3-2-.6-3.9-1.2-7.7-1.8-11.6-.1-.3,0-.7,0-1,.9-1,2-.1,2.9-.3,5.7,2.6,11.8,4.5,17.6,6.9,.5,1,1.6,.9,2.5,1.3,1.6,.6,3.2,.8,4.8,1.1Z"/><path class="cls-111" d="M8.68,9.38c.6,6.5,.4,13,.5,19.5,.1,11.2,.1,22.4,.1,33.6v21.6c.2,.3,.2,.7,0,1,.3,1.5,.3,3,.3,4.5v91c0,1,.1,2,.1,3-.3,1.1-.2,2.2-.2,3.2,0,31.5,0,63,.1,94.5,0,10.4,0,20.7,.2,31.1,0,1.8-.5,3-2,4-1.4-2.1-1-4.4-.9-6.6,.1-1,.2-2,.2-3,0-44.7,.1-89.4-.1-134.2,0-6.7-.6-13.5-.8-20.2-.4-8.6-.5-17.2-.3-25.8,.2-7,.8-14,1.2-21,.1-.8,.1-1.7,.1-2.5,0-14.2,0-28.4-.1-42.6,0-9.6-.2-19.2,.1-28.8,.2-6.6,0-13.2,.4-19.8,0-.7,.1-1.5,.2-2.2,.2-.4,.6-.4,.9-.3Z"/><path d="M190.48,174.98c-1.8,2.5-3.6,5.1-6.4,6.5-.3,.2-.8,.1-1.1,.4-1.3,0-2.7,.1-4,.1-2.3,0-3.9-1.1-5.1-3-1.3-2.2-1.9-4.6-2-7.1,0-1.2-.1-2.3-.2-3.5-.7-.8-1-1.8-.8-2.8,.4-1.8-.5-1.7-1.8-1.4-2.9,.6-5.9,1.3-8.8,2-6.2,1.6-12.6,2.6-18.8,4.2-1.3,.3-2.7,.2-4,.4-6.6,1.3-12.9,3.8-19.3,5.6-1.5,.4-3.1,1.4-4.8,.6-.4-1.2,.5-1.6,1.4-1.9,1.4-.5,2.7-1.1,4.1-1.6,12-5.1,24.6-8.2,37.3-11,5-1.1,10.1-2.2,15.1-3.2,4.5-.9,8.9-1.2,13.3,.3,4.2,1.3,8.3,2.5,12.5,3.8,.2-.1,.4-.1,.6,0,.4,.1,.8,.1,1.3,.2,.7,.2,1.3,.3,1.6,1.1,1.5,.8,2.9,1.5,4.4,2.3,1.4,.7,2.2,1.7,2.3,3.4-1.2,.4-2.4,0-3.5-.5-1.2-.5-2.3-1.2-3.7-1.4-1.6-.1-3.1-.9-4.6-1.4-.8-.5-1.6,0-2.5,.1-.5-.4-.9-.8-1.6-.7-1-.1-1.9-.4-2.9-.6-1.2-.1-2.7-.7-3.2,1s-.9,3.5,.9,4.8c1,.7,2.2,1.1,3.3,1.7,.8,.1,1.9,.4,1,1.6Z"/><path class="cls-202" d="M871.58,310.28c3.3-1.9,7-3.1,10.5-4.5,3.8-1.5,7.7-2.6,11.8-3.3,2-.3,4-.4,6-.1,3.6,.6,7.3,.8,10.9,1.3,1.7,.3,3.4,.1,4.8-1.3,1.1-1.1,2.5-2.2,4.1-3.6v6.5c-1.3,1.7-1.9,3.8-3,5.6-.9-.7-2-.7-3.1-.7-13,.1-26,.1-39.1,.2-.9,0-1.9,0-2.9-.1Z"/><path class="cls-46" d="M184.08,143.18c4.5,1.4,8.5,3.8,12.7,5.9,.4,.2,1,.4,1.1,.9,.3,.8,1,1.6,.6,2.3-.5,.8-1.4,.1-2.1,0-1.2-.1-2.2-.7-3.3-1.2-2.5-1.2-4.9-2.5-7.4-3.7-1.7-.8-3.4-1.1-5.3-.7-6,1.3-12.1,2.4-18,4.5-4.9,1.1-9.5,3.1-14.1,4.9-6.5,2.6-12.8,5.5-19.5,7.6-.3,.1-.6,.4-1.1-.1,1.7-2.2,4.4-2.6,6.6-3.9,.4-.8,1.2-.9,1.9-1.3,.2-.1,.4-.2,.6-.3,.8-.3,1.6-.9,2.6-.9,5.6-3,11.4-5.5,17.3-7.8,7.6-2.9,15.5-4.7,23.4-6.2,1.3-.1,2.7-.1,4,0Z"/><path class="cls-101" d="M87.68,177.38c-.1-.5-.5-.8-1-1-2-.9-2.4-2.5-2-4.4,.6-.6,1.2-.4,1.9-.2,8,2.3,16.2,4.2,24.3,6.1,.3,.1,.6,.3,.9,.5,1.6,1,3.2,2,5,3.2-1.7,1.2-3.5,1.5-5.1,2-1.3,.5-1.9,1-1.8,2.5,.2,1.8,0,1.9-1.9,1.9-2.4,.1-4.6-.7-6.9-1.2-4.1-.9-8.3-2-12.4-3-2.3-.6-4.4-1.7-6.7-3.2,2.3-.4,4.4-.4,6.2-1,1.2-.7,2.3,0,3.4,.2,5.5,1.3,11,2.1,16.8,2.7-.7-1.4-1.7-1.3-2.6-1.5-5.2-.9-10.4-1.6-15.6-2.4-.9-.1-2,0-2.5-1.2Z"/><path class="cls-46" d="M168.98,206.88c2.8,.2,5.7-.1,8.5,.5,1,.2,1.5-.4,2-1.1,1.9-2.7,3.9-5.4,5.9-8.1,.9-1.3,1.8-2.6,2.8-3.9,.3-.5,.6-1,1.4-.8,.4,.5,0,1-.2,1.4-2.4,4.6-4.8,9.2-7.5,13.6-1,1.6-2.1,2.3-4.1,2.2-4.8-.4-9.5,.2-14.3,.4-2.1,.1-3.8-.4-5.5-1.8-2.7-2.3-5.7-4.4-8.5-6.5-1.5-1.1-2.9-2.3-4.4-3.3-1.2-.8-1.8-1.9-2-3.4,1.5-.3,2.6,.2,3.8,1,3.4,2.4,7,4.6,10.3,7.1,3,2.3,6.2,3.5,10,3,.7-.3,1.3-.3,1.8-.3Z"/><path class="cls-112" d="M172.28,186.88c4.9,3.1,10,4.3,15.7,2.8,1.3-.3,2.6-.5,3.9-.7,.5-.1,1.1,0,1.3,.5,.3,.6-.2,1-.6,1.2-4.7,2.2-9.3,4.4-14.8,2.6-6.4-2.1-12.3-5.2-18.5-7.7-4-1.6-7.9-3.5-11.9-5.2-.2-.3-.7-.1-.9-.5-.3-.9-1-1.7-1.1-2.9,1.6-.5,3.1,.1,4.5,.6,3.3,1.3,6.6,2.8,9.9,4.1,4.3,1.7,8.3,3.8,12.5,5.2Z"/><path class="cls-101" d="M137.68,170.68c7-1.9,14.1-3.2,21.2-4.9,4.4-1,8.7-2.1,13.4-2.9-.6,1.9-.5,3.7-.4,5.5-4.2,.3-8.2,1.5-12.3,2.3-3.6,.7-7.2,1.4-10.9,1.8-2.4,.2-4.6,0-6.9-.9-1.3-.5-2.7-.9-4.1-.9Z"/><path class="cls-44" d="M111.78,178.38c-1.5,.3-3-.1-4.4-.5-7.5-2-15.2-3.6-22.6-5.9-2.1-.9-4.2-1.7-6.2-2.6-.5-.2-1.3-.4-1-1.2,.3-.7,.9-.9,1.7-.7,1,.3,1.9,.6,2.9,.9,7.1,2.1,14.4,3.2,21.5,5,2.4,.6,4.8,1.4,7.2,2.2,1.5,.3,.5,1.6,1,2.3-.2,.1-.2,.3-.1,.5Z"/><path class="cls-46" d="M218.18,208.58c-4.7-2.6-8.8-6.1-13-9.4-1-.8-1.7-2-1.9-3.2-.8-5.3-2-10.6-2.3-16,1.1,0,1,.8,1.2,1.4,.8,3.7,1.7,7.5,2.5,11.2,.5,2.1,1.4,3.7,3.3,5,4,2.8,7.9,5.9,11.8,8.8-.2,1-.7,1.8-1.6,2.2Z"/><path class="cls-111" d="M87.68,177.38c2.8,.5,5.5,1,8.3,1.4,3.7,.6,7.4,1.1,11.1,1.7,.6,.1,1.2,.2,1.7,.5,.7,.4,1.1,1.2,.8,1.9-.2,.7-1,.5-1.5,.4-6.7-.9-13.3-1.7-19.8-3.7-.9-.3-1.7-.5-2.6-.8-.2-.1-.5-.2-.4-.5,0-.2,.2-.4,.4-.6,.5-.5,1.3-.2,2-.3Z"/><path class="cls-144" d="M857.48,313.88c.6-.5,1.3-.4,1.9-.4,17.5,0,35.1-.1,52.6-.1,.2,0,.5,.1,.7,.1-.4,.5-.9,.4-1.4,.4-3.2,.8-6.4,1.2-9.7,0-2.3-.4-4.2,.8-6.2,1.6-1.1,.4-2.1,.8-2.4-.9-.2-.9-1-.7-1.6-.7h-33.9Z"/><path class="cls-9" d="M459.38,285.68c0-5-.1-10,.1-15,1.3,2.2,1.1,4.8,1.3,7.3,.3,3.1,.8,6.2,.2,9.4-.2,1.2-.6,2.4-1.2,4-.5-2.3,.1-4-.4-5.7Z"/><path class="cls-75" d="M375.18,315.78c4.2-.4,8.3-.2,12.5-.2,11.4-.1,22.7-.1,34.1-.2,.5,0,1,.1,1.5,.1,.2,.1,.2,.2,.2,.3q-.1,.1-.2,.1h-47.1c-.3,0-.7-.1-1-.1Z"/><path class="cls-9" d="M873.48,11.28c-4.5,.1-9,.2-13.5,0-.2-1.1-.2-1.7,1.5-1.6,3.6,.3,7.3,.7,10.9,1.2,.4,0,.8,0,1.1,.4Z"/><path class="cls-98" d="M901.68,313.88h9.7c-1.7,1.1-3.6,1.6-5.4,2.3-.8,.3-1.4,.1-2-.4-.8-.6-1.6-1.3-2.3-1.9Z"/><path class="cls-165" d="M460.48,92.58v-9.5c.1-.2,.3-.2,.4,0,.7,6.3,.5,12.6,.5,19,0,.9,.3,1.8-.4,2.6-.7-2.8-.1-5.6-.3-8.4,0-1.2,.3-2.5-.2-3.7Z"/><path class="cls-216" d="M460.08,191.48c-.1-6.9-.2-13.7,0-20.6,.8,1.4,.2,3.1,.9,4.5-.4,4-.4,8,0,12-.4,1.3-.5,2.7-.5,4.1-.2,.2-.3,.2-.4,0Z"/><path class="cls-24" d="M427.78,315.48c5.2-.1,10.4-.2,15.6,0-1.8,.6-3.6,.9-5.6,.6-3.3-.4-6.7-.2-10-.2-.2-.1-.2-.2-.2-.3,.1-.1,.2-.1,.2-.1Z"/><path class="cls-9" d="M447.88,9.68h-8.4c.9-.8,1.9-1.2,3.8-1.2,1.4,0,2.9,.1,4.6,1.2Z"/><path class="cls-35" d="M111.58,177.78c-.7-.6-.4-1.6-1-2.3,2-.1,3.8-.9,5.7-1.5,.8-.3,1.6-.8,2.6-.6-.9,.9-2.2,1.1-3.3,1.6-.9,.4-1.9,.8-2.1,1.9-.7,0-1.8-.4-1.9,.9Z"/><path class="cls-134" d="M139.38,157.28c-.7,.7-1.6,1.1-2.5,1.4-.4-.2-.8,0-1.2,.1-.6,.3-1.3,.2-1.8,.5-.5,0-1.1,.2-1.2-.4-.1-.5,.5-.5,.8-.7,1.3-.4,2.6-.9,3.9-1.3,.7-.2,1.4-.3,2,.4Z"/><path class="cls-9" d="M460.48,92.58c.8,.6,.5,1.5,.5,2.3,0,3.2,.1,6.5,.1,9.7,0,1.2-.1,2.3-.1,3.5-.2,.2-.3,.2-.5,0-.2-5.1-.2-10.3,0-15.5Z"/><path class="cls-60" d="M460.98,187.38c-.1-.1-.3-.2-.3-.4-.3-3.7-.3-7.5,0-11.2,0-.1,.2-.3,.3-.4v12Z"/><path class="cls-162" d="M318.78,5.88q-2.2,.5-4.8-1.1c2.1-1.3,3.3,.7,4.8,1.1Z"/><path class="cls-9" d="M460.98,122.78c0,3,.2,6-.3,9v-8.9c0-.4,.1-.4,.3-.1Z"/><path class="cls-97" d="M464.98,276.38c.5,2.1,.8,4.4,.2,7-.9-1.5,0-2.6-.1-3.6-.2-1.1-.1-2.2-.1-3.4Z"/><path class="cls-102" d="M460.98,83.08h-.4c-.2-2.7-.2-5.3,0-8,.8,1.2,.3,2.6,.4,3.8,.1,1.4,0,2.8,0,4.2Z"/><path class="cls-99" d="M465.18,268.18c.5,1.2,.4,2.4,.3,3.9-1.3-1.5-1.2-2.7-.3-3.9Z"/><path class="cls-9" d="M448.88,315.48c.8-.2,1.7-.2,2.5,0q-1.4,1.7-2.5,0Z"/><path class="cls-155" d="M427.78,315.48v.4h-4.5v-.4c1.5-.1,3-.2,4.5,0Z"/><path class="cls-9" d="M460.48,108.18h.5v4c-.2,.2-.3,.3-.5,0-.2-1.4-.3-2.7,0-4Z"/><path class="cls-125" d="M460.48,112.18h.5c-.2,1.2,.5,2.5-.5,3.6-.3-1.3-.3-2.4,0-3.6Z"/><path class="cls-204" d="M133.78,159.28c.6-.6,1.4-.6,2.1-.9,.2,0,.4,.2,.4,.4-.6,.6-1.3,.7-2,.9-.1-.1-.3-.2-.5-.4Z"/><path class="cls-93" d="M460.08,191.48h.4c-.1,1,.4,2.1-.5,3-.2-1-.2-2,.1-3Z"/><path class="cls-1" d="M460.98,122.78c-.1,0-.2,0-.3,.1-.1-.9-.2-1.8-.2-2.7h0c.8,.7,.4,1.6,.5,2.6Z"/><path class="cls-22" d="M243.88,181.88c1.6-1.1,.7,.7,1.1,1-.7,0-.6-.8-1.1-1Z"/><path class="cls-122" d="M18.78,6.18c-.1-.2-.2-.3-.2-.4,.1-.3,.4-.5,.7-.4,.2,.1,.2,.3,.1,.4-.2,.2-.4,.3-.6,.4Z"/><path class="cls-48" d="M146.58,179.88c.4,0,.7,.2,.9,.5-.5,0-1.1,.1-1.5-.4,.2,0,.4-.1,.6-.1Z"/><path class="cls-213" d="M182.98,181.88c.3-.3,.6-.5,1.1-.4-.2,.2-.4,.3-.6,.5h-.2l-.3-.1Z"/><path class="cls-183" d="M457.88,301.78v10.4c-1.1,.3-2,.2-2.9,.1-.2-.1-.3-.3-.3-.5s0-.4,.1-.5c.1-.2,.2-.3,.3-.4l.2-.2,.4-.4,.2-.2,.3-.3s.2-.2,.1-.2c.1-.1,.1-.2,.2-.4,0,0-.1-.2-.2-.1-.6,0-.9,.4-1.4,.7-3.5,1.5-7.3,1.9-11,2-3.2,.1-6.3,.5-9.5,.3h-3c-1.2,.1-2.5-.3-3.7,.2-4.9,.1-9.9,.2-14.8,.2-28.3,.1-56.6,.2-84.9,.4-19.9,.1-39.8,.3-59.8,.4-1.6,0-3.2-.1-4.8-.1,.2-.5,.5-1,.7-1.4,1.5-5.1,2.2-10.5,4-15.6,3.1-1.1,6.5-.9,10.1-1.9-2.2-.7-4.2-1.1-6.1-1.5-1-.2-2.2-.3-3-1.1-.4-3.3,.8-6.4,1.6-9.5,1.4-5.9,2.9-11.8,4-17.7,.1-.8,0-1.7,1.2-1.9,.7,1.8,2,2.4,4,2.4,11.1,.1,22.2,.7,33.3,1.3,7.3,.4,14.6,.1,21.9,.1,6.4,0,7.4,.6,9.9,6.4,.1,.2,.1,.3,.2,.5q1.5,3.4,4.2,.9c.9-.8,1.8-1.2,3-1.1,6.8,.7,13.7,.6,20.5,1.2,4.1,.4,8.2-.5,12.3-.6,2.4,0,3.9,.6,5.1,2.8,1.3,2.4,1.8,2.4,3.4,.2,2.9-3.8,5.9-7.5,8.7-11.4,1.6-2.2,3.6-3.3,6.2-3.8,7.6-1.4,15.3-1.2,23-1.1,2.2,0,3.6,1.3,4.3,3.2,.7,2.1,2,2.8,4.2,2.8,3.6-.1,6,1.3,7.5,5,2.5,6,5.4,11.9,8.2,17.8,.8,1.7,2.1,3.5-.6,4.9-.8,.4-.3,1.2,0,1.8,.8,1.6,1.5,3.2,2,4.9,.2,.3-.3,.7,.2,.9h.2c.1,0,.3,.1,.3,.1Z"/><path d="M74.88,145.18c-.4-.8,.8-1.3,0-2-.4-.3-.1-.8,.2-1.1,.9-1,1.7-2,2.9-2.8,8.4-5.5,17.1-10.2,26.1-14.4,18-8.2,36.4-15.6,55.4-21.5,2.5-.8,5-1.5,7.4-2.4,1.2-.4,1.9-.3,2.3,1,.1,.4,.3,.8,.5,1.2,.4,.9,.9,1.2,1.9,1.1,4.9-.3,9.9-.2,14.7-1.5,.8-.2,1.4,0,1.6,.7,.8,2.4,2.8,2.4,4.7,2.2,2.2-.2,4.3-.6,6.4-1,1.9-.3,2.1-.3,2.9,1.4,1.1,2.2,1.2,2.2,3.7,1.8,3.3-.5,6.6-.9,9.9-1.3,2.5-.3,2.5-.2,3.6,2,.2,.4,.4,.7,.5,1.1,.3,.9,1,1.2,1.9,1.2,1.3,0,2.7,.1,4,0,1.2,0,2.1,.4,2.5,1.6,.4,1.3,1.3,1.5,2.6,1.3,3.2-.4,6.5-.9,9.7-.8,1.3,0,3.5,2.9,3.3,4.1-.1,.3-.4,.6-.6,.7-.6,.3-1.2,.6-1.9,.9,2.1,1.8,4.4,2.8,7.2,1.9,2.2-.6,4.4-1,6.5-1.9,1.1-.4,1.8-.2,2.1,.9,.3,1.3,1.7,1.6,2.1,2.7,.9-.3,1.1-1.1,1.5-1.7,.3-.3,.6-.7,1-.5s.4,.7,.3,1.1c-.1,.5-.3,1-.5,1.4-.2,.6-.2,1,.3,1.5,1.7,2,1.6,4.2,.7,6.5-1.4,3.7-3.6,6.9-6.4,9.8-.6,.7-1.4,1.2-2.3,1.5-1.4,.4-2.6,.9-3.5,2.2-.8,1.1-4.3,.9-4.9-.3-1.5-2.6-3.7-4.5-6.1-6.2-6.6-4.9-13.2-9.8-20.1-14.2-1.4-.9-2.8-1.4-4.4-1.6-8.3-1.4-16.7-2.2-25.2-2.9-1.7-.1-3.3-.1-5-.1-9-.1-17.9-.7-26.8-1.4-4.8-.4-9.5,0-14.1,1.5-11.7,3.9-23.2,8.1-34.4,13.1-9.5,4.2-19,8.3-28.7,12q-2.4,1.4-5.5,1.2Z"/><path d="M268.58,296.28c-.6,4.7-1.9,9.2-3,13.7-.2,.8-.7,1.3-1.2,1.9q-1.8,.4-1.8-1c-.1-1.7,.6-3.3,.9-4.9,1.2-5.6,2.2-11.3,3.3-16.9,1.4-6.8,3.2-13.6,4.9-20.4,.8-3.3,1.3-6.7,1.7-10.1,.3-2.3,0-4.6-.7-6.9-.6-.2-.3-.9-.6-1.3-.3-.3-.2-.7-.5-1-.1-.1-.2-.3-.2-.5,0-.3-.1-.5-.2-.8h0c-.3-.3-.2-.8-.6-1.1-4.1-7.3-7.2-15-9.2-23.1-1.1-4.3-1-8.7-1-13.2v-2.2c-.5-1.6-.5-3.1-.1-4.7,.3-1.1,.6-2.2,.6-3.3,.6-1.3,.6-2.9,1.4-4.1,.3-.4,.3-.8,.3-1.3,.3-.5,.2-1.1,.3-1.6,.3-.5,.5-1,.5-1.5,.3-.3,.5-.7,.6-1.1,1.9-5.1,3.4-10.3,5.6-15.3,1.6-3.7,3.4-7.2,5.6-10.6,.2-.4,.5-.7,.7-1s.5-.8,1-.4c.4,.3,.2,.8,0,1.1-.8,1.6-1.7,3.3-2.4,4.9-.7,1.5-1.2,3.1-1.9,4.6,.3,.8-.3,1.1-.6,1.6-2.2,5.7-3.6,11.7-5.4,17.5-.4,1.3-1.1,2.6-1,4.1-.3,2.5,.6,4,3.1,4.8s3.2,3.2,3.8,5.5c.6,2.1,.7,4.4,1,6.6,1.2-1.4,.8-3,.9-4.5,.2-4.4-.8-8.3-5.1-10.6-.7-.4-1.4-.9-1.7-1.8-.4-.3-.8-.8-.1-1.1,.6-.3,1.3-.1,1.9,.3,2.2,1.4,4.3,2.9,6.4,4.3,.7,.5,1.1,1.2,1.2,2.1,.3,1.8,.7,3.6,1,5.4,.4,2.2,.3,4.3,0,6.5,0,.3-.1,.6-.1,.9-.2,.7-.7,1.1-1,1.7-.1,.2-.2,.4-.4,.6-.2,.2-.5,.5-.8,.7-1.7,1.3-3.4,2.7-4.9,4.3-.7,.7-1.4,1.4-2.6,1.3-2.9-1.2-3.2-2.1-1.5-4.5,.4-.5,.8-1.1,1.2-1.5,.6-.7,1.4-1.2,2.2-1.7-1.3-.3-1.7-1.2-1.9-2.4-.1-1.5-.1-3-.4-4.4-.1-.7-.1-1.5-.1-2.2,0,.7-.2,1.3-.3,2-.5,2.4-1,4.8-3.2,6.3-.1,.2-.6,0-.4,.4,.1,.2,.2,.4,.3,.7,.7,7.8,3.7,14.9,6.7,22,1,2.9,2.9,5.5,4.1,8.3,1.9,4.3,2.6,8.8,1.6,13.4-.1,.6-.2,1.3-.8,1.8-.7,3.1-1.1,6.2-1.9,9.2-1.6,6.6-3.1,13.2-4.6,19.9,.6,1.7,.5,3.3-.6,4.6Z"/><path d="M228.98,164.58c.7-1.6,2.1-2.1,3.6-2.3,2-.2,4-.3,6-.6,3.2-.5,6.3-1.5,9.2-3.1,3.4-1.9,6.7-3.8,10-5.7,1.4-.8,2.3-1.8,2.9-3.3,2.2-5.3,3.4-10.8,4.8-16.3,.9-3.6,1.7-7.1,2.6-10.7,.5-2,1.7-3.4,3.4-4.7,1.1,1.6,1.7,3.1,1.3,5.1-1.7,8.3-3.5,16.5-6.1,24.5-1.4,4.3-4,7.4-8.1,9.4-3,1.4-5.9,3.1-8.9,4.6-4,2-8.3,3-12.8,2.9-2.6-.1-5.2-.5-7.9,.2Z"/><path class="cls-112" d="M178.08,219.88c1,.3,2.2,.3,2.3,1.5-.1,.6-.4,.6-.6,.6-8.1-.4-15.7,2-23.3,4.3-7.1,2.2-14.1,4.7-21.1,7.2-1.8,.6-3.6,.8-5.4-.1,.7-1.5,1.9-2.5,3.4-3.1,9-3.3,18-6.8,27.3-9,3.3-.8,6.7-1.3,10.1-1.7,.8-.1,1.4-.1,1.8-1,.3-.6,.9-.9,1.6-1.1,3.4-.7,6.9-1.5,10.4-1.6,.4,0,.8,0,1.2,.1s.6,.3,.6,.7-.2,.6-.6,.7c-1.1,.2-2.1,.4-3.2,.6-1.6,.3-3.1,.5-4.6,1-.3,.3-.6,.6,.1,.9Z"/><path class="cls-9" d="M190.48,174.98c0-.4,.3-.9-.3-1-1.6-.3-2.8-1.4-4.2-1.9-1.1-.5-1.4-1.2-1.6-2.2-.2-1.4,.5-2.7,.3-4.1-.1-.6,.7-.8,1.3-.8,2.1-.1,4.1,.4,6.1,1,.6,.1,.7,.7,1.1,1,.6-1.2,1.5-1,2.4-.4,.2,1.1-.7,1.6-1.3,2.2,2.6,.7,3.1,2.2,1.8,5.2-1.5,1.7-3.6,1.1-5.6,1Z"/><path class="cls-183" d="M267.58,197.58c2.5,1.1,4.3,3.1,6.3,4.8,.3,.2,.5,.7,.5,1.1,.2,3.2,1,6.3,.6,9.5-.2,1.5-.8,2.4-2.3,3.1-.5-2.4,0-4.7-.7-6.9-.2-.6-.3-1.1-.4-1.7-.5-2.6-2-4.2-4.5-5.2-3-1.2-2.9-1.3-1.8-4.5,0-.1,.1-.1,.1-.2,.8,.1,1.5,1,2.2,0Z"/><path class="cls-25" d="M198.28,171.88c.5,3.6,.6,7.2,.8,10.8,0,1.1,.1,2.1,.1,3.2,.3,.5,.3,1,0,1.5,0,1,0,2-.1,3,0,.5,0,1-.1,1.5-.2,.8-.4,1.8-1.3,1.9-.8,0-.9-1-1.1-1.7-.5-1.7-.3-3.4-.5-5.2-.1-.1-.2-.2-.1-.4,0-.1,.1-.2,.1-.2,0-4.2,.7-8.3,.3-12.5-.1-1.2-.1-2.4-.1-3.7,0-.6-.4-1.5,.3-1.8,1-.3,1.4,.6,1.7,1.3,.4,.9,.5,1.6,0,2.3Z"/><path class="cls-109" d="M200.68,162.58c-.3-1.6-.7-3.2-.9-4.9-.2-1.4-.3-2.8,1.1-3.7,.8,.3,.9,1.1,1.1,1.7,.4,1.9,.8,3.7,1.1,5.6,.3,1.9,.2,2-1.9,2-.3,0-.5-.2-.5-.7Z"/><path class="cls-183" d="M198.08,169.88c-.3-.4-.5-.8-.8-1.2-.1-.1-.3-.1-.5-.2-.1,1.8-.2,3.6-.2,5.4h-.3v-2.3q0-2.1-2.2-2.2c-.2,0-.5,0-1-.1,.8-1.2,2.1-1.7,2.7-2.8,1.6,.4,3.2,.8,4.5,1.9-.6,.5-1.1,1-.8,2-.8,.5-1-.2-1.4-.5Z"/><path class="cls-54" d="M372.58,67.88c-4.4-.9-8.9-1.7-13.2-2.8,.1-.3,.4-.4,.6-.5,3.1,1,6.5,1,9.6,2,1,.3,2.1,.2,3,1,.2,.1,.2,.2,.2,.3h-.2Z"/><path class="cls-66" d="M359.98,64.58c-.2,.2-.4,.4-.6,.5-3.9-.3-7.6-1.3-11.4-2.1-.2-.1-.2-.2-.2-.3,.1-.1,.1-.2,.2-.2,3.4,.2,6.6,.9,9.9,1.7,.6,.2,1.3,.3,2.1,.4Z"/><path class="cls-183" d="M260.58,203.58c-.1,1.6-.1,3.3-.2,4.9-1.7-1.8-.9-3.7-.3-5.6,.4,0,.7,.1,.5,.7Z"/><path class="cls-103" d="M347.88,62.48v.5c-2.4-.4-4.8-.7-7.1-1.4,.3-.3,.7-.3,1.1-.1,2-.1,4.1,.3,6,1Z"/><path class="cls-183" d="M200.68,162.58c.2,.2,.4,.5,.6,.7,.1,.5,.2,1-.6,1.2-.7-.3-1.4-.5-2.2-.8-.2-.2-.6-.1-.8-.4-.2,0-.3-.1-.5-.1,1.2-.5,2.4-.2,3.5-.6Z"/><path class="cls-53" d="M325.88,59.88c-1.4,.2-2.7-.2-4-.4,1.8-.9,3.7-.7,5.5,0-.4,.5-1.1,0-1.5,.4Z"/><path class="cls-110" d="M278.08,214.98v-6.5c.8,2.2,.8,4.4,0,6.5Z"/><path class="cls-139" d="M333.18,60.58c-1-.1-2-.1-3-.2-.5-.3-1,0-1.5-.3-.1-.2-.1-.4,.1-.5,2,.3,4.1,.2,6,.9-.5,.4-1,.2-1.6,.1Z"/><path class="cls-150" d="M333.18,60.58c.5,0,1.1-.1,1.6-.1,1.4-.1,2.7,.1,4,.5,.2,.1,.2,.2,.2,.3q-.1,.1-.2,.1c-1.8-.4-3.8-.1-5.6-.8Z"/><path class="cls-197" d="M172.08,313.78c-2,.1-4,.1-6.1,0v-.3c2-.2,4.1-.1,6.1,0,.2,.1,.2,.2,.1,.3h-.1Z"/><path class="cls-4" d="M262.18,196.48c-.3,1.4-.5,2.8-1.1,4-.2,.2-.4,.2-.6,0,.5-1.4,.4-3,1.7-4Z"/><path class="cls-113" d="M249.88,52.48c-1.5-.1-2.9-.1-4.4-.2,1.5-.7,3-.4,4.5-.2,0,0,.1,.1,0,.2,0,.1-.1,.2-.1,.2Z"/><path class="cls-100" d="M198.08,169.88c.4,.1,.8,.3,1.2,.4,.6,.2,.6,.5,.2,.9-.3,.4-.8,.6-1.3,.8,.1-.7,0-1.4-.1-2.1Z"/><path class="cls-206" d="M197.48,146.58c.6-.5,1.3-.7,1.9-.8,.2-.1,.5,.1,.5,.4s-.2,.5-.4,.5c-.6,.1-1.2,.2-2-.1Z"/><path class="cls-210" d="M286.08,55.48c-1.1,0-2.3,.1-3.4-.3,1.1-.4,2.3-.3,3.4-.1,0,0,.1,.1,.1,.2s-.1,.2-.1,.2Z"/><path class="cls-10" d="M260.48,200.48h.6c-.2,1,0,2.1-.6,3.1-.2-.2-.4-.4-.6-.6,.3-.8,.5-1.7,.6-2.5Z"/><path class="cls-79" d="M256.38,52.98c-1.1,.1-2.3,.1-3.4-.2,1.3-.6,2.6-.7,3.9,.1-.1,.2-.3,.3-.5,.1Z"/><path class="cls-88" d="M256.38,52.98c.1-.1,.3-.1,.5-.1,1.2,0,2.4,.1,3.6,.1,.2,.1,.2,.2,.2,.3s-.1,.2-.1,.2c-1.5-.1-2.9,.2-4.2-.5Z"/><path class="cls-114" d="M178.08,219.88c-.6,.1-1.2,.2-1.7-.5,.5-.6,1.1-.4,1.7-.4v.9Z"/><path class="cls-94" d="M317.08,152.28c.1,.7-.1,1.3-.5,1.8-.6-.2-.7-.8-.9-1.3,.5-.1,.9-.5,1.4-.5Z"/><path class="cls-57" d="M420.68,84.58c.2,.5,.5,.9,.7,1.4,.1,.6-.1,.7-.6,.6-.2-.2-.3-.4-.5-.5,0-.3,0-.6-.1-1-.1-.5,.1-.6,.5-.5Z"/><path class="cls-110" d="M276.68,217.48c.3-.7,.8-1.2,1.3-1.6,0,.3,.1,.5,.1,.8-.3,.5-.6,.9-.9,1.4h-.3c-.1-.2-.2-.4-.2-.6Z"/><path class="cls-51" d="M328.78,59.48v.4c-.1,.2-.3,.3-.5,.2-.8-.1-1.6-.1-2.5-.2,.4-.5,1-.4,1.5-.5,.5,.1,1,.1,1.5,.1Z"/><path class="cls-157" d="M329.28,12.38c1-.3,1.7,.2,2.2,.9-.9,0-1.6-.3-2.2-.9Z"/><path class="cls-73" d="M263.48,191.98c0,.5,0,1.1-.5,1.5-.2,.2-.4,.2-.5,0,.4-.6,.3-1.5,1-2,.1,.1,.2,.2,.2,.3-.1,.1-.1,.2-.2,.2Z"/><path class="cls-12" d="M260.48,53.38v-.4c.9,.1,1.8-.4,2.5,.5-.8-.1-1.7-.1-2.5-.1Z"/><path class="cls-32" d="M420.68,84.58c-.2,.2-.3,.3-.5,.5-.4-.4-.5-1-.5-1.6,.2-.2,.3-.2,.5,.1,.2,.3,.3,.7,.5,1Z"/><path class="cls-7" d="M341.88,61.48c-.4,0-.7,0-1.1,.1-.3,0-.6,0-.9-.1-.2-.1-.2-.2-.2-.3,.1-.1,.1-.2,.2-.2,.7,0,1.4-.2,2,.5Z"/><path class="cls-38" d="M271.88,175.88c0-.6,.3-1.1,.6-1.6,.9,.9,.2,1.3-.6,1.6Z"/><path class="cls-215" d="M372.58,67.88v-.4q1.1,0,1,.6c-.4-.1-.7-.1-1-.2Z"/><path class="cls-90" d="M262.48,193.48h.5c0,.6-.1,1.2-.5,1.7v-1.7Z"/><path class="cls-158" d="M420.18,83.58c-.2,0-.3,0-.5-.1-.4-.3-.4-.7-.4-1.1,.5,.3,.7,.7,.9,1.2Z"/><path class="cls-152" d="M271.58,248.98c.4,.2,.5,.6,.5,1,.1,.2,.1,.4-.1,.6-.4-.2-.5-.6-.5-1-.2-.2-.2-.4,.1-.6Z"/><path class="cls-13" d="M271.98,250.68c0-.2,0-.4,.1-.6,.5,.4,.5,1,.6,1.6-.5-.2-.6-.6-.7-1Z"/><path class="cls-23" d="M199.18,187.48c-.1-.5-.1-1,0-1.5,.7,.5,.7,1,0,1.5Z"/><path class="cls-81" d="M339.88,60.98v.5h-1v-.4c.3-.1,.7-.1,1-.1Z"/><path class="cls-211" d="M270.48,247.08c.3,.3,.6,.6,.6,1.1-.5-.2-.6-.7-.6-1.1Z"/><path class="cls-130" d="M263.48,191.98c0-.2,0-.4-.1-.5,.2-.2,.3-.4,.5-.6,.1,.5,0,.8-.4,1.1Z"/><path class="cls-64" d="M9.28,85.08v-1c.5,.3,.5,.6,0,1Z"/><path class="cls-121" d="M271.58,248.98c0,.2,0,.4-.1,.6-.4-.2-.5-.6-.5-1,.2-.2,.3-.1,.5,0,.1,.2,.1,.3,.1,.4Z"/><path class="cls-211" d="M271.48,248.68h-.5v-.5c.4,0,.5,.2,.5,.5Z"/><path class="cls-49" d="M196.18,186.38v.5c-.4-.1-.4-.3,0-.5Z"/><path class="cls-9" d="M474.48,16.28v-.9c.6-1,1.3-2,2.6-2.4,3.9-.4,7.9,0,11.8,0,33.6-.2,67.2-.2,100.9,.1,32,.3,64.1,.3,96.1,.3h4.5c-1.4,2.3-2.2,4.5-3.2,6.5-1.6,1.3-2.3,2.7-1.8,4.9,.3,1.5,.2,3.1-.1,4.7-.4,4.3-.1,8.7-.5,13-.3,4.1,.7,8.1,1.3,12.2,.9,6.3,1.8,12.5,3.5,18.7,2,7.4,4.9,14.5,8.5,21.3,.5,1,.7,1.7,.1,2.7-3,5.6-4.5,11.7-4.8,18-.1,2.1,.3,4.1,1,6.1,.7,2.1,1.1,4.2,1.6,6.3,1,4.7-.2,8.9-2.6,12.9-4.9,8.2-7.8,16.9-6.4,26.7,.2,1.1-.1,2.1-.5,3.1-1.2,3.1-2.7,6.1-2.3,9.6,.1,1,.1,2,.6,2.9,.6,1.1,.4,2.3,.4,3.4-.1,1.7-.2,3.3,0,5.1,1.8-.4,2.9-1.2,3.2-3.3,1.1,1.8,1.3,3.6,1.8,5.2,1.4,5.1,2.7,10.3,3.8,15.5,.7,3.3,1.4,6.7,2.3,10-.2,.9-.7,1.2-1.6,1-2.5-.6-5-1.2-7.6-1.7-1.4-.3-2.3-1-2.7-2.3-.8-2.5-2.5-4.3-4.8-5.6-1.2-.7-2-1.7-2.6-2.9-1-2.3-2.1-4.6-3.2-6.8-.9-1.9-2.6-2.9-4.7-2.5-2.5,.5-5,.1-7.5,.4-4.7,.7-9.1-.7-13.4-2.1-6.9-2.1-13.7-4.3-20.6-6.5-1.6-.5-3.2-.8-4.8-1.3-2.3-.7-4.1,.1-5.5,1.9-1.8,2.4-3.7,4.7-5.5,7.2-1,1.4-2.2,2.3-3.7,2.9-5.8,2.5-11.8,2.8-17.9,1.9-1.7-.2-3.3-.4-4.9-.8-1.1-.3-1.7,.1-2.4,.9-1,1.4-2.1,2.8-3.2,4.2-.8,1.1-1.6,1.3-2.8,.6-4.3-2.5-8.8-4.5-13-7.1-1.5-.9-2.6-2-3.3-3.7-.4-1.1-1-2.1-1.5-3.2-1-1.9-2.7-2.9-4.7-2.5-5.1,.8-10.3,1.2-15.4,1.5-6.8,.5-13.6,.5-20.3,.2-5.6-.2-11.2-.3-16.8-.2-3.2,0-6.3,.3-9.5,.8-1.8,.3-3,1.2-4.1,2.6-2.3,3.1-4.6,6.1-7,9.2-.2,.3-.5,.4-.7,.6-.5-.2-.7-.6-.8-1-.5-2.7-2.7-3.7-4.8-4.8-.8-.4-1.3,0-1.7,.6-.6,.7-1.1,1.4-1.9,2.3-.3-2.1,0-3.9-.1-5.7,0-2.1,.2-4.2-.2-6.2,.2-7.3,0-14.7,.4-22,.2-5.4,.2-10.8,.3-16.3,.2-13.8,.3-27.5,.6-41.3,.1-5.2,.1-10.5,.4-15.7,.6-2.6,.3-5.3,.4-8,.1-5.3,.8-10.5,.6-15.7-.3-10.4,1.1-20.8,1.2-31.2,0-7.3-1.4-14.6-.9-22,.3-.7,.1-1.5,.4-2.3Z"/><path class="cls-9" d="M718.28,240.08c2.5,2.7,3.9,5.8,4,9.5-.6-.2-.9-.7-1.1-1.3-1.1-2.6-2.3-5.1-3.5-7.7-.1-.4,.1-.6,.6-.5Z"/><path class="cls-101" d="M668.38,284.88c.2,1-.5,1.9-.5,2.9,0,1.3-.8,1.6-1.9,1.6,.1-1.9,1-3.3,2.4-4.5Z"/><path class="cls-126" d="M718.28,240.08c-.2,.2-.4,.3-.6,.5-.6-.6-.9-1.4-.9-2.2,.7,.4,1.2,1,1.5,1.7Z"/><path class="cls-183" d="M513.88,311.88c-.3,.3-.5,.3-.8,0h.8Z"/><path class="cls-183" d="M514.88,311.88c-.3,.3-.5,.3-.8,0h.8Z"/><path class="cls-183" d="M515.88,311.88c-.3,.3-.5,.3-.8,0h.8Z"/><path class="cls-183" d="M516.88,311.88c-.3,.3-.5,.3-.8,0h.8Z"/><path class="cls-183" d="M830.28,152.78c-.2,2.4-1,4.7-1,7.2,0,1.5,.2,3,1.6,3.9,3.1,1.2,6.6,.9,9.7,2.2,1.5,.7,2.7-.3,3.2-1.9,.8-2.5,1.6-5.1,3.1-7.3,.1-.2,.3-.4,.5-.6,.1-.1,.2-.2,.3-.2,1.9-1.2,3.6-3,5.8-3.7,2.5-1.5,4.7-3.7,7.5-4.5,.7,2-.5,3.5-1.2,5.2-1.6,1.7-3.6,3-4.9,5-1.2,1.7-1.9,3.5-1.8,5.6,.1,1.1,0,2.2,0,3.3,.2,2.9-1.3,4.9-3.7,6.3-1.5,.9-3.1,1.6-4.8,2.2-.8,.3-1.9,.4-2,1.6,.6,4.8,.8,4.8,5.5,4,7.4-1.2,12.2-5.5,15.6-12,1.4-2.8,3.8-5,5.3-7.8,.3-.5,.9-.8,1.5-.5,1.3,2.1,0,4-.7,5.9-.2,.6-.5,1.1-.7,1.6-.2,.4-.6,.9,0,1.3,.5,.3,1,0,1.4-.3,1-.7,1.3-2.2,2.7-2.5,.7,.3,.8,.9,.9,1.6-.4,3.5-2,6.5-3.4,9.7-1.4,3.1-2.7,6.3-3.8,9.5-4.2,2.3-8.8,3.6-13.5,4.5-5.2,1-10.3,.6-15.4-.5-2.8-.6-3.3-1.3-2.8-4.1,.4-2.1,1.3-3.9,2.3-5.8,.3-.5,.7-.9,.7-1.6,0-.4-.1-.9-.5-1s-.6,.1-.9,.3c-2.8,3-4.7,6.4-5.6,10.5-.1,.4-.1,.9,.1,1.2,.9,1.6-.1,2.3-1.2,3.3-5,4.7-10,9.3-15.3,13.7-1.6,1.3-3.1,2.8-5.1,3.5-1.5-.1-2.4,1-3.5,1.7-1.6,1-2.9,2.5-4.6,3.5-2.6,1.4-3,3.8-3.3,6.3-.1,1.6,.5,2,1.9,1.5,2-.7,4.1-1.5,6.1-2.3,.8-.3,1.9-.8,2.5,.2,1,1.6,1.9,.9,3.1,.1,3.7-2.7,7.7-5,11.1-8.2,1.1-1.1,2.3-1.4,3.8-.4,1.6,1,3.6,1.3,5.4,2,2.8,1,3.4,1.8,3,4.9-.6,5.4-1.4,10.8-2.1,16.1-.7,6.2-1.5,12.3-1.1,18.7,.3,3.9,.2,7.8,1.4,11.5,.2,.5,0,1-.2,1.5-5.6,5.6-11.6,10.7-18.3,15.1-1.3,.9-2.3,2.2-4,2.5h0c-.9-1.5-2.2-2.1-4-2-2.2,.2-4.5,.4-6.7,.5-11.6,.3-23.2,0-34.9-.4-6.3-.2-12.5-.4-18.8-1.1-8.5-.9-16.9-2.2-25.2-4.1,.1-1.2,1.2-1.3,1.9-1.7,3.9-2.1,7.4-4.6,8.8-9.2,.2-.6,.5-1.1,.8-1.5,4.1-5,5.5-11,5.9-17.3,.2-2.3,1.1-3.3,3.3-3.6,4.6-.5,9-1.7,13.6-2.3,2.9-.3,5.8-.2,8.3,1.1,2.9,1.5,5.4,1.3,8.1-.1,.9-.5,2.5-.3,2.6-1.5,.1-1-1.3-1.4-2.1-1.9-4.9-3.2-9.7-6.6-15-9.1-.7-.3-1.4-.7-1.7-1.4-1-2.6-3.3-3.5-5.7-4-5-1-10-.7-15-.4-9.4,.6-18.6,.2-27.4-3.3-2.2-.9-4.7-1.2-6.6-2.9-1.3-4.6-1.7-9.2,.6-13.6,.8-1.5,1.2-3.3,1.5-5,4.8-2.9,9.6-5.4,15.7-4.5,3.3,.5,6.8,.1,10.1-.7,.7-.2,1.6-.3,1.7-1.2,.1-.9-.9-1.1-1.5-1.5-7.2-5.2-15-4-22.8-1.9-1.5,.4-3,1.7-4.7,.8-.9-5-.3-6,4.2-8.2,3.4-1.6,7-1.5,10.5-1.8,4.4-.3,8.8,.2,13.1,1.5,4.5,1.3,9.1,1.8,13.8,1.5,2.6-.2,5.1-.9,7.5-1.6,1.2,.2,1.1,1.3,1.3,2.1,.7,2.4,1.3,4.8,2.1,7.1,.4,1.3,1.1,1.5,2.2,.7,.9-.7,1.8-1.8,3.2-1.4,.2,.3,0,1,.6,.8,1-.4,2-.9,2.4-2,1.6-4.8,2.3-9.6-.3-14.3-1.5-2.6-3.3-5-5.4-7.2-2.3-2.4-4.8-4.7-7-7.2s-3-5.3-3.3-8.4c-.2-3.7-.5-7.3,.5-10.9,.1-.4,.1-.8,.1-1.2,0-.1-.2-.2-.5-.7-1.5,2.2-2.1,4.6-2.7,7.1-.6,.3-.7-.2-1-.5-1.1-2.4-2.5-4.7-4.3-6.7-1.2-1.3-1.5-1.5-3.4-1.7-.3,1.1,.2,1.8,.8,2.7,1.8,2.5,3,5.3,3.5,8.4,.1,.6,.4,1.5-.3,1.8s-1.4-.2-2.1-.6c-4-2.8-8.3-5.3-13-6.7-1.8-.6-3.7-.9-5.6-1.3-1.6-.3-3.1-.1-4.6,.5-3.8,1.6-7.9,2.1-11.9,2.4-.4,0-.8,0-1.1-.4-.1-1.8,1.2-3.1,2.1-4.4,1.8-2.4,3.3-5,4.9-7.5,1.4-2.1,2.4-4.4,2.9-6.8,.9-4.1,3.2-7.2,6.8-9.4,.3-.4,1.4-.1,1.1-1.1,2.9-2.7,5.4-5.7,6.8-9.4,.6-1.8,1.1-3.5,.4-5.4-.9-2.4-.9-4.9-.7-7.4-.3-.1-.7,0-.9-.3-1.4-2-3.1-3.7-5.1-5,.3-.9,.7-1.7,1-2.6,.3-.8,0-1.6-.7-2-.6-.4-1,.4-1.4,.8-.1,.1-.2,.3-.3,.4q-1.4,1.6-3.1,.2c-.5,.1-.8,.5-1.2,.9-.8,.8-1.6,1.3-3,1.3-1.6,0-3.2,.8-5.3,1.4,3.5-4.8,6.7-9.2,10.6-13,4-2.5,8.6-3.3,12.9-4.6,6.3-2,12.8-3.1,19.4-3.9,1.4-.2,2.7,.1,3.9,.6,8.8,3.3,17.5,6.8,26.1,10.5,2.8,1.2,5,3.3,7.4,5.2,14.5,11.7,28.8,23.7,42.8,36,2.1,1.9,4.1,3.9,6.4,5.6,.8,.6,1.6,1.2,1.8,2.3-.6,1.4-1.6,2.5-2.4,3.8-2.6,4.1-3.9,8.6-4.1,13.5-.1,1.4,.6,2.8-.1,4.2,.4,.8-.6,1.5,.3,2.6Z"/><path class="cls-101" d="M833.48,268.58c-.6-1.9-1.1-3.9-1.7-5.8-.5-1.5-.6-3-.2-4.4,.3-1.2,.3-2.3,.1-3.5-.8-4.6-.1-9.2,.4-13.7,.8-7,1.8-14,2.7-21.1,.1-.5,.1-1,.1-1.5,.1-.9-.3-1.4-1.2-1.6-1.9-.6-3.8-1.3-5.7-1.9-.3-.1-.7-.2-1-.3-2.4-1-2.5-1.1-4.2,.6-3.4,3.4-7.7,5.5-11.5,8.5-1.7,1.4-1.9,1.2-2.7-.9-.1-.2-.2-.4-.4-.8-2.4,.9-4.9,1.8-7.3,2.7-.6,.2-1.3,.5-1.9,.6-1.2,.3-1.5,.1-1.4-1.2,.1-1.7,.3-3.3,.4-5,.1-.7,.5-1.3,1-1.6,2.9-1.9,5.5-4.4,8.5-6.2,.7-.4,1.4-1,2.2,0-1.2,.9-2.4,1.7-3.6,2.6-.3,.2-.5,.5-.4,.8,.2,.5,.7,.4,1.1,.3,3.3-.8,6.4-2,9.2-3.8,6.6-4.2,12.9-8.9,18.4-14.5,1.2-1.2,2.3-1.6,4-1.2,2.4,.5,4.9,.8,7.4,.9,.3,.2,.7,.1,1.1,.2,.2,0,.4,.3,.7,.2,.2-.1,.5-.2,.7-.3,5.5-.2,11-1,16.2-3.1,1.6-.6,3.1-1.3,4.5-2.1,1.2-.7,2.2-1.9,3.8-.8,.5,.4,1-.4,1.5-.7,3.9-2.7,6.3-6.5,7.7-11.1,2.8-9.8,2.3-19.3-1.5-28.7-1.8-4.3-4.5-8.2-7.1-12.1-8.7-13.6-19.3-25.6-30.5-37.2-8.5-8.7-17.2-17-26.8-24.5-9.5-7.4-19.4-14.3-30.3-19.6-9.5-4.6-19.4-8-29.7-10.5-3.7-.9-7.5-.4-11.2,.3-2,.4-3.9,.9-5.8,1.6-2.2,.8-3.9,2-5.5,3.7-2.1,2.3-4.5,4.2-6.4,6.7-4.4,5.6-9,11.2-13.5,16.8-2.2,2.7-4.4,5.4-6.6,8.2-.2,.2-.4,.3-.5,.6-1.7,2.5-3.8,4.8-5.3,7.4-1.2,0-2.1-1-3.4-.6-1.5-4.3-3-8.5-4.4-12.8-.3-.8-.6-1.5-.5-2.4-.4-.7,.1-1.6-.5-2.2h0c-.3-1.2-.6-2.4-1-3.6-1-3.4-1.4-6.9-1.9-10.3-1-6.9-1.5-13.9-1.5-20.9,0-5.8,.7-11.6,2.4-17.3,.7-2.6,2-4.9,3.4-7.2,.3-.6,.7-.9,1.3-.9h.8c19.5,.1,39,.1,58.4,.2,.7,.2,1.3,0,2,.2,1.1,.1,2.2,.6,3.2,.9,.2,0,.4,0,.7,.1,.5,.4,1,.4,1.6,.5,.4,.4,1.1,.3,1.5,.6h0c.3,.4,.8,.3,1.1,.5,5.3,2.1,10.3,4.8,14.8,8.3,1.4,1.1,2.8,2.1,4.3,3,8.1,4.6,15.1,10.6,22.2,16.4,15,12.2,28.8,25.8,42.3,39.6,5.7,5.8,10.7,12.2,15.9,18.4,7.6,9.2,14.9,18.5,21.2,28.6,4.7,7.4,9.1,14.8,12.8,22.7,3.1,6.5,6.8,12.7,9.5,19.4,1,2.6,2.2,5.1,2.9,7.7,1.4,5.8,3.8,11.4,4.9,17.3,1,5,1.9,10,1.9,15.1,0,6.2-2.4,11.1-7.3,14.9-2.3,1.7-4.6,3.3-7.1,4.7-5.4,2.9-11.1,4.1-17.4,3.3-8.3-1-16-3.5-23.3-7.2-1.1-.6-2.2-1.1-3.2-2-.2-.2-.4-.4-.7-.5-.8-.1-1.6-.1-2.7-.2,.5-2.8,1.6-5.2,2.7-7.5,2.9-6.6,5.2-13.4,8.8-19.7,1-1.7,.6-3.1-.7-4.7-1.2,.7-1.9,2-2.7,3.1-3.6,5.1-6.2,10.7-8.6,16.3-2.2,5.1-4.2,10.4-5.9,15.7-.3,1-.7,1.4-1.7,.9-2.4-1.7-3.8-5.7-2.8-8.2,1.9-4.9,4.4-9.6,5.8-14.7,.4-1.3,.8-2.5,.9-3.9-.3-.3-.5,0-.6,.1-3.8,7.4-8,14.7-10.9,22.5-1.3,3.4-.9,3.8,2.9,3.9,.9,0,1.9-.1,2.7,.1,.7,.2,1.6,.4,1,1.5,0,.2-.1,.5,0,.7,.4,3.1,.5,3.1,3.5,3.4,.4,.6,.3,1.3,.1,1.9-.6,3.2-1.2,6.4-1.8,9.5-.2,.9-.5,1.8-.9,2.6-3.8,7.2-8,13.8-13.8,19.2Z"/><path class="cls-101" d="M837.38,128.78c-5.7-4.9-11.4-9.9-17-14.8-12.5-10.9-25.2-21.5-38.2-31.7-.9-.7-1.9-1.3-3-1.8-8.8-3.9-17.8-7.3-26.7-10.8-2.5-1-5-.1-7.4,.2-9.1,1.2-17.8,3.8-26.4,6.9-.6,.2-1.2,.5-1.9,.5,.5-1.6,1.8-2.6,2.8-3.8,3.4-3.9,6.4-8.2,9.7-12.1,1.5-1.8,3.1-3.5,4.7-5.2,.8-.9,1.7-1.7,2.2-2.7,.8-1.6,2.1-2.3,3.7-2.7,6.8-1.8,13.6-2.3,20.5,.1,7.9,2.7,15.9,5.2,23.5,8.8,5.8,2.7,11.3,6.1,16.7,9.8,11.8,8,22.8,17,32.9,27.1,.3,.3,.6,.6,.9,.9,.6,.5,.7,1.1,.1,1.7-.4,.4-.7,.9-1.1,1.3-.6,.7-.7,1.4-.3,2.3,2.5,5.5,3.6,11.3,4.4,17.1,.2,1.5,.7,2.7,2.1,3.4,1.2,.6,1.2,1.5,.6,2.5-.9,.9-1.7,2.1-2.8,3Z"/><path class="cls-183" d="M920.18,86.08v34.6c-.8-.1-.8-.6-1-1-2.8-7.4-6.9-14.1-11.4-20.5-16.1-23.4-34.6-44.8-55.8-63.8-6.5-5.8-13-11.7-20.1-17-2-1.5-4.1-2.8-6.7-4.5h2.4c8.5,0,17.1,.1,25.6,0,1.6,0,2.9,.4,4.2,1.3,13.9,9.2,25.6,20.7,36,33.5,4.8,5.9,9.3,12.1,13.6,18.3,3.7,5.4,6.9,11.1,8.9,17.3,.5,1.6,1.6,2.6,2.7,3.8,.9-.5,.7-1.4,1.2-1.9,.2-.3,.3-.3,.4-.1Z"/><path class="cls-183" d="M854.78,227.88c2.7,4.6,7,6.2,11.2,8,7.5,3.3,15.5,4.7,23.7,4.9,5.5,.2,10.6-1.2,15.4-3.8,3.1-1.7,6-3.7,8.7-6,2.5-2.1,4.5-4.7,5.8-7.7,.9,.5,.6,1.2,.6,1.7,0,19.5,0,39.1-.1,58.6v1c-.1,1.4-.3,1.5-1.4,.9-1.1-.6-2.3-1.1-3.3-1.9-4.5-3.5-9.8-5.2-15.2-6.9-9-2.8-18-5.7-27-8.6-1.4-.5-2.8-1.2-4.2-1.7-1.1-.4-1.5-1.1-1.7-2.2-.3-2-.6-4-.7-6-.1-3.7-.9-7.3-1.7-10.9-.7-3.1-2.2-5.7-4.6-7.9-2-1.8-3.9-3.9-6.3-5.4-.8-.5-.9-1-.8-1.9,.2-1.2,.9-2.5,1.6-4.2Z"/><path class="cls-202" d="M788.08,308.68c.8-.8,1.7-1.4,2.8-1.9,.3-.1,.6-.3,.8-.6,.8-.7,1.6-1.5,2.7-1.9,.4-.1,.6-.3,.8-.6,.3-.5,.7-.8,1.2-.9,.3-.1,.6-.3,.8-.5h0c.1-.1,.3-.1,.4-.2,.2-.1,.4-.3,.6-.4,.2-.1,.4-.2,.5-.5h0c.4-.1,.7-.3,1-.5,.2-.2,.5-.2,.6-.6h0c.5-.1,.8-.4,1.2-.7,4-2.6,7.9-5.4,11.9-8.1,2.8-.5,4.6-2.5,6.5-4.3,2.2-2,4.4-4,6.6-6h-.1c.2-.1,.4-.3,.6-.6l-.1,.1c.2-.1,.4-.3,.6-.6v.1c.3-.1,.4-.4,.6-.6,4-3.6,7.9-7.4,11.4-11.5,4.3-5,7.8-10.5,11.2-16.2,.5-.9,.8-1.8,1.2-2.7,1.2,.3,1.1,1.4,1.3,2.2,1.6,6,2.2,12.1,2.8,18.3,.5,5.2,.8,10.5,2.2,15.6,.3,1.2,.2,2.5,.1,3.7-.7,5.8-1.9,11.5-3.7,17.1-.5,1.5,.5,3-.4,4.4-3.5,.1-7,.3-10.5,.1-1.1-.7-2.3-.1-3.5-.3-3.3,.2-6.7-.5-10-.3,3.4-.1,6.8,.5,10.3,.3,1,.1,2-.3,2.9,.3-2.8,.6-5.6,.3-8.5,.3-15.3,.1-30.6,0-45.9,0-.2-.1-.3-.3-.4-.5-.6-.4-.5-.9-.5-1.5Z"/><path class="cls-9" d="M804.68,291.28c-5.3,3.9-10.6,7.8-15.9,11.7-2.6,1.4-4.7,3.3-7.3,4.8-2.4,1.4-4.8,2.7-7.5,3.1-5.5,0-11,.1-16.5,.1h-25.1c-4.1,.4-8.2,.2-12.3,.1-3.9,0-7.8,.1-11.8,0-2.6-.1-2.8-.2-1.6-2.5,2.8-5.3,5.8-10.6,8.5-15.9,1.2-2.5,2.4-4.9,3-7.7,.3-1.5,1.1-2.3,2.7-1.6,6.2,3,13,2.7,19.6,3.7,9.8,1.4,19.7,2.4,29.6,2.2,1.5,0,3-.6,4.5-.1h13.7c4.5,0,9,0,13.4-.4,1.2,.7,3.3,.1,3,2.5Z"/><path class="cls-9" d="M920.28,33.38v31.7c0,3.5-.1,7-.1,10.5-.6,.9-.1,2.7-2,2.6-3.3-7.5-8-14-12.9-20.5-6.2-8.1-12.5-16.1-20-23.1-7-6.5-14.2-13-22.5-17.9-.7-.4-1.5-.8-2.2-1.3-.6-.4-1.4-.5-2.1-1.5h5c12.1,.1,24.1,0,36.2,.2,6.4,.1,12.7,.1,19.1,.3,2.8,1.2,1.7,3.6,1.6,5.6-.3,4.4-.7,8.9-.1,13.4Z"/><path class="cls-183" d="M919.38,194.38c-3.1-9.4-6.4-18.7-10.8-27.7-9.9-20.5-21.2-40.2-34.3-58.9-7.5-10.7-16.2-20.5-25.4-29.7-11.4-11.4-22.9-22.7-35.3-33.2-7.4-6.2-14.7-12.5-22.8-17.6-5.3-3.3-10.3-7.2-15.8-10.1-2-1.1-4.1-2.1-6.1-3.1,.2-.6,.6-.5,.9-.5h14.3q.4,0,.8,1.1c.2,.6,.7,.9,1.2,1.2,2.2,1.6,4.3,3.3,6.5,4.7,11.4,7.2,21.8,15.9,32.1,24.5,12.5,10.4,24.3,21.5,35.1,33.7,15.8,17.9,29.2,37.7,41.3,58.2,1.1,1.9,2.1,3.8,3.7,5.4,.8,.8,1.1,1.9,1.5,2.9,3.7,8.8,7.9,17.3,11.9,26,.4,.9,1.1,1.5,1.6,2.2,.6,2.2,.2,4.4,.3,6.7,.1,4.1,.1,8.2,0,12.2-.1,.6,.6,1.7-.7,2Z"/><path class="cls-101" d="M701.68,220.08c4.2,1.1,8.1,3,12.3,4.1,2.5,.7,5,1.1,7.6,1.4,7.4,.7,14.9-.1,22.3-.1,2.3,0,4.7,.1,7,.4,2.5,.3,4.2,2.2,6.3,3.5,.1,0,.1,.2,.1,.2-1.1,2,.9,1.8,1.7,2.2,6.1,3.1,11.8,6.9,17.3,11,.2,.1,.3,.4,.4,.5-.1,.5-.5,.7-.9,.8-2.4,.8-4.7,1.6-7.1,2.5-.9,.3-1.5,.3-2.3-.3-3.2-2.2-6.8-2.5-10.5-2.1-4.8,.5-9.5,1.9-14.3,2.3-1.2,.1-1.7,.7-1.8,1.9,0,2.5-.5,5-.9,7.4-.5,2.6-1.3,5-2.7,7.2-1.5,2.6-3.1,5.1-4.4,7.8-1.6,3.4-4.9,5.4-8.2,7-.7,.3-1.5,.4-2,1-2-.4-4-.9-6.3-1.4,.9-1.8,1.7-3.4,2.6-5,1.4-2.7,2.7-5.4,4.1-8,.5-.9,.5-1.9,2.1-2,.9-.1,1.4-1.8,1.6-2.9,1.2-5.7,.8-11.3-1.5-16.7-.2-.5-.4-.9-.6-1.4,.1-.5-.2-.8-.5-1.1-1.5-1.8-2.9-3.6-4.4-5.5,.1-.2,.1-.3-.2-.2-.5-.2-.8-.6-1-1.1,.4-.6,1.1-.3,1.6-.2,5.7,.9,11.3,0,16.9-.8,2-.3,4-.2,6-.4,.6,0,1.6,.1,1.6-.8s-.4-1.8-1.5-2.1c-.6-.1-1.2-.1-1.7-.1-4.6-.3-9.1,.7-13.7,1.3-3.3,.4-6.6,.7-10,.4-5.1-.4-9.2-2.7-12.7-6.3-1.1-.9-1.8-2.6-2.3-4.4Z"/><path class="cls-202" d="M694.08,310.88c-.2,.4-.4,.4-.8,.4-6.1,0-12.2,0-18.3-.1-.5-.8-1.1-1.1-2-.7-.8,.4-1.7,.4-2.5,.7h-.5c-1.3-1-2.7-.2-4,0-4.7,.1-9.4,.2-14.2,0-1.1-.7-2.3-.5-3.4-.4-4.1,.5-8.2-.5-12.3-.1-1.3,.1-2.6,0-2.9-1.7,6.4-3.2,12.7-6.5,19.1-9.7,3.2-.7,6.6-1.1,8.6-4.2,1.2-.8,2.6-1.2,4.1-1.6,1.4-.3,1.4,.8,1.6,1.7,.4,1.9,1.5,2.2,2.9,1.2,1.2-.8,3.4-1,1.9-3.8-.8-1.5,.6-3.8,.6-5.8,3.4-4,7.6-7,12.1-9.4,2.7-1.5,5.3-3,8-4.6,2.7-.3,4.6-2.1,6.5-3.8,4.9-3.1,9.7-6.1,14.6-9.2,.4,.8-.1,1.3-.5,1.8-6.4,9-13,17.7-19.5,26.7-2.5,3.4-4.4,7.1-6.8,10.5-.7,1-.8,2.2-.5,3.4,.4,1.7,1.1,3.3,1.5,5,.4,1.5,1.2,2.1,2.7,1.8,1.4,.8,2.8,1,4,1.9Z"/><path class="cls-101" d="M701.78,146.18c2.1-.6,4.3-.6,6.4-.9,2.3-.4,4.6-.8,6.7-1.9,1.5-.8,3-.8,4.6-.5,7.2,1.2,13.7,4.1,19.4,8.7,1,.8,1.3,.6,1.6-1.1,.5,2.3,0,3.3-2.2,3.7-1.4,.3-2.8,.4-4.1,.6-.7,.1-1.4,.1-1.4,1,0,.8,.3,1.5,1.1,1.8,.6,.2,1.3,.2,2,.2,.3,.2,.8,.3,.5,.9-.9,.1-1.4,.4-1.1,1.5,.3,.9,.7,1.7,1.3,2.4,3.7,5,8.2,9,14.2,11.1,1.6,.5,3.2,.9,4.9,1.1,1.3,.2,2.2,.7,2.8,2.1-2.9,1.1-5.7,2.4-8.8,2.2-4.8-.3-9.3-1.9-14-2.8-.5-.1-.9-.4-1.2-.8-1.8-2-4.2-2.6-6.6-3.5-1.3-.5-1.4-.3-1.8,1.4-1,.9-2.1,.5-3.2,.5-1.5-.6-2.7-1.5-3.9-2.5,.1-.2,.1-.3-.1-.1-.7-.7-1.4-1.4-2.1-2.1-2.2,1.5-2.3,1.8-1.7,4.1-1.7,.1-3.4,.3-5.1,.2-1,0-2.3-.1-2.9-1-.7-1-1.4-.4-2.2-.1-1.3-.1-2,.6-2.5,1.6-1,1-2,1.4-3.5,.9s-3,.1-4.1,1.3c-.7,.8-1.4,1.7-2,2.5-.8,1.1-1.3,2.4-3.3,1.8-1.2-.4-1.7,1.3-2.5,2.1-1-.5-1.1-1.2-.7-2.1,1-2.6,1.9-5.2,2.8-7.7,.6-1.5,1.5-2.8,3-3.6,2.6-1.4,4.9-3.2,7.3-4.8,2.2-1.4,4.1-3.1,5.7-5.2,.6-.8,.6-1.5,.3-2.3-.1-.2-.1-.4,0-.6,.6-.4,1.1-.1,1.4,.4,.4,.7,.9,1,1.5,.3,.6-.7,.9-1.4,.1-2.1-.8-.8-1.9-.9-3-1-.2,0-.4-.1-.6-.1-.2-.1-.3-.4-.6-.4l-.2,.1-.2-.1c-1.1-2.4-2.2-4.6-2-7.2Z"/><path class="cls-101" d="M853.48,152.28c-1.7,1.6-3.5,3-5.6,4-.7-.7,0-1.6-.5-2.7-1.9,2-3.2,4.3-4.4,6.6-1,1.9-1.9,2.9-4.3,2-1.8-.7-3.8-.3-5.6,.5-.7,.1-1.2-.3-1.6-.8,.6-4.4,2.2-8.5,3.8-12.6,.3-.9,.6-1.6,.7-2.6,.1-3.6,.7-7.1,2.2-10.4,1-.4,1.3-1.5,1.9-2.3,.4-.6,.4-1.3,.7-1.9,.5-1.4,1.5-2.5,2.5-3.7,2.7-3.2,2.6-5.7-.4-8.7-.6-.6-.9-1-1-1.9-.4-5.2-1.7-10.3-3.6-15.2-.2-.6,.1-.8,.6-.7,9.4,9.5,18.5,19.3,26.2,30.3,2.4,3.4,4.9,6.8,6.8,10.3-.3,.6-.6,.5-.9,.4-5.3-1.3-9.7,.5-13.8,3.7-1.6,1.2-2.9,2.7-4.3,4.2-.7,1-.3,1.4,.6,1.5Z"/><path class="cls-101" d="M867.08,187.48c-.3-1.4,.1-2.6,.6-3.9,1.9-4.5,4.2-8.9,5.6-13.6,.2-.6,.3-1.1,.4-1.7,.6-1.1-.3-2-.4-3,.1-1.7,.3-3.3-.4-4.9-.1-.5,0-1-.5-1.4-.7-.6-1.3-.6-1.6,.4-.2,.5,.3,1.2-.5,1.5-1.4,.7-1.8,2.1-2.5,3.4-.7,1.2-1.2,2.4-2.4,3.1-.5,.3-.9,.8-1.1,1.4-1.2,4-4.3,6.4-7.1,9.1-2.5,2.4-5.6,2.7-8.6,3.6-.9,.3-2,.3-3,.5-2.5,.3-2.6,.3-3.3-2.2-.3-.9-.8-1.9-.6-2.9,.7-.5,1.6-.6,2.4-.5,3.6,.1,6.5-1.5,9.1-3.7,1.6-1.4,2.5-3.1,2.4-5.3v-1.8c.1-6.9,4.9-11.7,11.9-11.9,1.6,0,3.1,.2,4.8-.2-.3-1.3-1.2-1.5-2.1-1.6-3.1-.5-6.1-.8-9.1,.6-.6,.3-1.1,.8-1.8,.2,.4-1.7,1.3-3.2,1.6-4.9,3-1.6,6.2-2,9.6-1.7,3.1,.2,4.5,1.6,5.8,4.1,1.6,3.3,2.4,6.7,3.2,10.2,1.5,7.2-.2,13.9-3.1,20.4-.8,1.8-1.9,3.4-4.1,4-1.8,.6-3.3,2.2-5.2,2.7Z"/><path class="cls-101" d="M690.08,309.28c-2.2,1.1-2.3,1.1-2.9-1.1-.6-2-1.2-4-1.8-6-.4-1.3-.2-2.4,.5-3.5,3.9-6.6,8.2-13,13-19,5-6.3,9.2-13.1,14.3-19.3,.1-.1,.1-.3,.2-.5,2.8-2.1,5.5-4.2,8.3-6.3,.5-.1,.9,.1,1.2,.5,.1,1.2,.2,2.4-.1,3.7-.3,.6-.3,1.3-.6,1.9-1.5,2.4-3.1,4.7-4.4,7.2-.1,.4-.8,.7-.4,1.3-1.6,3.1-3.7,5.9-5.6,8.8-5.6,8.4-10.3,17.3-14.9,26.2-.7,.2-1,.9-1.3,1.4-1.4,2.3-3.3,3.7-5.5,4.7Z"/><path class="cls-101" d="M853.88,310.28c-.6-1.7-.6-3.3-.1-5.1,1.6-5.7,2.8-11.5,3.5-17.3,.1-.9,.1-1.8-.2-2.7-.8-2.4-1.1-4.8-1.3-7.3-.2-3.2-.7-6.4-1.1-9.7-.3-2.6-.3-5.1-.7-7.7-.7-3.8-1.5-7.6-2.5-11.4,.8-3.3,.8-6.7,1.1-10.1,1.1-.8,1.9,.1,2.8,.5,4.7,4.4,6.1,10.3,6.6,16.3,.8,9.1,2.1,18.2,3.5,27.3,.1,.4,0,.9,.2,1.2,1.5,2.1,.6,4.2-.2,6.2-1.5,3.9-3.4,7.6-5.4,11.3-1.2,2.1-2.3,4.3-3.1,6.5q-.8,2.1-3.1,2Z"/><path class="cls-101" d="M720.18,89.68c.4,.4,.9,.4,1.4,.5,1.2,.1,2,.8,2.5,1.9s1.2,2.1,2.2,2.9c-.2,.1-.3,.1-.5,.2-3.2,1.8-3.1,1.9-2.8,5.6,0,.3,.1,.7,.2,1,.9,2.7,.2,5.2-1.3,7.5-.1,.1-.3,.2-.3,.4-.1,.1-.2,.2-.3,.4v.2c-.5,.9-1.2,1.7-2,2.5-1.9,.7-3.7-.4-5.6-.3-3.1,.1-6.1,0-9.2,0-2.2-.1-3.3,1.7-4.7,2.8-1,.8-2.1,2.3-3.5,.4,.3-5.6,1.7-11,4.2-16,.2-.4,.3-.9,.8-.9,1.9,0,2.6-1.6,3.8-2.6,.5-.4,1-.9,1.7-1,.3-.1,.7-.2,.9-.3,2.5-1.5,5.2-2.3,8.1-2.6,.5-.3,1.1-.1,1.6-.3,1.6,.1,2.2-1,2.8-2.3Z"/><path class="cls-183" d="M696.18,115.58c.8,.8,1.5,.5,2.2-.1,1-.9,2-1.8,3-2.6,.7-.6,1.2-1.4,2.3-1.2,1.1,.6,2.3,.1,3.4,.3,.6,.6-.1,.9-.3,1.3-2.6,1.1-4,3.1-4.9,5.6-.3,.9-.7,1.9-1.1,2.8-.3,.7-.4,1.5,.6,1.8,1.2,.3,.9,1,.4,1.6-1.1,1.4-.3,1.8,1,2.1,.8,.1,1.7,0,2.1,1,1.1,.4,2.4-.1,3.5,.7,0,1-.6,1.7-1.1,2.6-2.1,4.2-4.6,8.1-7.1,12-1.1,1.7-1.3,3.8-1,5.8,.4,2.6,1.3,5,2.1,7.5,.2,.7,.5,1.3-.5,1.8-4.2,2.1-7.8,5.2-11.2,8.3-.2,.2-.5,.5-1,.3-.2-2.2,.1-4.4,.5-6.6,1.1-6.1,3.1-11.9,6.5-17.2,1.9-2.9,2.9-6.2,3.8-9.5,.4-1.7-.5-3.2-.9-4.8-1-4.4-2.3-8.8-2.3-13.5Z"/><path class="cls-183" d="M774.58,289.18c-5.4,.8-10.8,.7-16.2,.2-5.2-.5-10.4-1.2-15.7-1.7-4.6-.5-9.1-1-13.7-1.1-2,0-3.9-1-5.7-1.7-1.2-.5-2.3-.9-3.4-1.4-.8,.2-1,.9-1,1.4,.1,2.3-1.1,4.2-2,6.1-3.1,6.3-6.4,12.5-9.8,18.6-.2,.3-.4,.5-.2,1.2,3.6-.3,7.3,.5,11-.5,1.1-.3,1.9,.6,3.1,.5,3-.2,6-.1,9-.1,.8,0,1.7-.1,2.5,.2-2,.5-4,.3-6,.3h-27.1c-.4,0-.8,.1-1.2-.2-.2-.8,.4-1.4,.7-2,4.7-8.4,8.6-17.2,13.5-25.5,1.5-2.6,1.9-2.8,4.8-1.9,15.7,5,31.9,6.8,48.2,7.2,3,.1,6.1,0,9.2,.4Z"/><path class="cls-101" d="M702.38,192.48c1.5,0,2.7-.8,4-1.2,5.6-2,11.4-2.4,17.3-1.4,3.4,.6,5.8,2.9,8.6,4.5,.8,.4,.5,1.6-.6,2.1-1,.4-2,.9-3.1,1-1.4,0-2.9,0-4.2,.3-2.9,.7-5.6-.1-8.3-.1-2.1,0-4.1,.5-6,1.5-2,1-4,2.1-6.2,2.6-.4-1.6,.2-2.5,1.7-3.1,6-2.3,12.2-3.2,18.6-2.3,.1,0,.2,.1,.2,.1,.8,.1,1.9,.5,2.2-.4,.4-1-.5-1.8-1.5-2.3-3.2-1.6-6.6-1.4-10-.9-3.2,.5-6.2,1.7-9.4,2.3-2.6,.5-2.6,.6-3.3-2.1v-.6Z"/><path class="cls-46" d="M846.38,231.58c0-.9-.7-1-1.4-1-1.5,0-3,0-4.5-.1-2-.1-2.4-.7-1.9-2.6,.5-1.9,1-3.9,1.9-5.7,3.1-6.1,6.1-12.2,9.2-18.3,.5-1,1-1.9,2-2.4,.7,.3,.5,.8,.4,1.3-1,5-2.8,9.7-4.9,14.4-.4,.8-.8,1.7-1.2,2.5-1.3,2.7-2.4,5.3,.1,7.9,.6,.7,.5,1.8,1.1,2.4,.2,.8-.1,1.3-.8,1.6Z"/><path class="cls-183" d="M700.28,202.98c-.6,2.2-1.6,4.2-2.7,6.8-1.8-7-3.9-13.3-6.6-19.4,2.2-2.1,4.8-3.2,7.8-3.7,.4,.1,.7,.3,.5,.8-1.1,3-.4,5.8,.6,8.6,.1,2.3-.4,4.6,.4,6.9Z"/><path class="cls-183" d="M474.48,16.28c.4,1.4,.1,2.8,0,4.2-.3,4.8,.7,9.5,1.3,14.2,.5,4.4,.4,8.8,.1,13.2,0,.7-.2,1.5-.2,2.2-.2,5-.5,10-.9,14.9-.2,2.4-.1,4.8-.1,7.3,.1,5.8-.3,11.5-.9,17.2-.1,1.2,0,2.5-.1,3.8,0,.8,.2,1.7-.5,2.4,0-5.8-.2-11.5,.2-17.3,.1-1.5,0-3,.1-4.5,.1-8,0-16.1,.3-24.1,.3-10,.4-20,.4-30.1-.1-1.2-.1-2.3,.3-3.4Z"/><path class="cls-101" d="M760.38,192.28c-1.2,.3-1.9,1.2-2.8,2-2.1,1.8-2.3,1.8-3.2-1-.9-2.7-1.6-5.5-2.4-8.3-.1-.4-.3-.8-.4-1.2,2.5-1.4,5.5-1.8,8-3.3,.5-.3,.9,0,1.1,.6,.4,1.4,.9,2.8,.7,4.3-.5,2.3-.8,4.6-1,6.9Z"/><path class="cls-123" d="M832.78,162.38c2-1.6,4.3-1,6.5-.7,.6,.1,1.1,.4,1.7,.6,1.5-2.4,2.9-4.8,4.4-7.1,.5-.8,1-1.5,1.7-2.2,.6-.7,1.2-.4,1.4,.4,.3,1.1-.6,1.9-.5,2.9h0c-.1,.2-.2,.3-.4,.5-1.5,2.6-2.5,5.4-3.5,8.2q-.7,1.9-2.8,1.8c-1.2-.1-2.3-.1-3.3-.9-1.2-.9-2.7-.4-4.1-.6-1.2-.1-2.3-.2-3-1.4,.2-.2,.4-.4,.6-.6,.1-.1,.3-.2,.4-.4,.2-.3,.6-.3,.9-.5Z"/><path class="cls-101" d="M744.38,156.78c.3,4.6,3,7.8,6.1,10.8,.5,.5,1.1,1.1,1.6,1.6,.1,.1,.1,.3,.1,.5-3.1-.5-6-1.4-8.2-3.7-1.9-1.9-4-3.8-6-5.7-.3-.3-.6-.6-.6-1.1-.1-.5-.8-.9-.3-1.5,2.2,.1,4-.9,5.8-1.9,.5,.2,1.1,.5,1.5,1Z"/><path class="cls-101" d="M698.68,186.88c-2.6,1.2-5.1,2.3-7.7,3.5-.5-.3-.5-.9-.7-1.3,.1-.3,0-.6-.1-.9-.2-.2-.3-.5-.4-.8,.6-.8,1.2-1.6,1.6-2.5,1.5-2.8,4.2-3.8,7.1-5.1-.1,2.4,.9,4.2,1.1,6.2-.2,.4-.5,.7-.9,.9Z"/><path class="cls-101" d="M671.98,286.88c1.1,1.5,.3,3.1,0,4.6-.2,1-.5,1.7,.8,2.1,.9,.3,.8,1,.1,1.5-1.2,.8-2.3,1.6-3.6,2.3-2,1.1-2.9,.6-3.3-1.7-.1-.8,.1-1.7-1-2,1.7-.7,3.5-.8,5.1-1.9,.5-.3,1.2-.7,.7-1.3-1.4-1.5-.3-2.2,.7-3.1,.2-.1,.4-.3,.5-.5Z"/><path class="cls-183" d="M773.98,310.78c4.9-2.1,9.3-4.9,13.8-7.7,.3-.2,.6-.1,1-.2-.8,1.2-2.1,1.8-3.2,2.7-1.4,1.1-2.5,2.4-3.6,3.8-.2,.5,.1,1.1-.4,1.5-2.5,0-5.1,.1-7.6-.1Z"/><path class="cls-183" d="M633.28,309.18c1.8,1.9,4.2,1.2,6.4,1.1,1.3-.1,2.6-1.1,3.9,.5,.5,.6,2.1,.3,3.1-.1,1.4-.4,2.8-.3,4.2-.3,.6,0,.9,.3,1,.9h-22.6c-.1-.1-.1-.2-.2-.3,1.4-.6,2.8-1.2,4.2-1.8Z"/><path class="cls-183" d="M826.28,281.18c-3,3.7-6.5,6.9-10.2,9.9-.8,.7-1.8,.8-2.8,.8-.6,.1-.7-.1-.6-.7,3.5-2.6,6.9-5.2,10.4-7.7,1.1-.8,1.9-1.9,3.2-2.3Z"/><path class="cls-182" d="M704.38,153.28c1.5-.3,2.8,.1,4,.8,1.4,.9,1.5,1.7,.4,3-.5,.6-1.1,1.2-1.9,1.5-1.1-.5-.3-2.2-1.7-2.5-.4,.1-.3,.4-.6,.6-.8-.6-1-1.5-1-2.5,.5-.1,.1-.9,.8-.9Z"/><path class="cls-101" d="M704.98,127.98c-1.2-.2-2.4-.4-3.6-.7-1.4-.3-1.5-.7-.6-1.9,.3-.5,.8-.8,1.1-1.3,.3-.4-.4-.4-.4-.8,.5-.3,1.1-.1,1.6-.1,.4,0,.6,.1,.8,.5-.6,1.7-.5,1.8,.9,1.9,1.3,.1,2.6,.1,3.9,.1,.4,.3,.4,.6,.2,1-.7,0-1.3,.1-2,.1-1-.1-1.6,.4-1.9,1.2Z"/><path class="cls-9" d="M711.78,115.38c.6-.1,.7-.1,.8-.1,.9,.4,2.4-.3,2.6,1.2,.2,.9-2.1,2.4-3.3,2.2-.7-.1-1.3-.2-1.9-.3-.9-.2-1-1.1-1-1.8-.1-.8,.7-1,1.4-1.1,.6-.1,1.2-.1,1.4-.1Z"/><path class="cls-183" d="M690.08,309.28c1.5-1.9,3.8-2.9,5.1-4.9,.5-.1,.8,.1,.6,.7-.6,2-1.1,3.9-1.7,5.9-1.6,.1-3-.5-4-1.7Z"/><path class="cls-183" d="M920.28,33.38c-.6-.7-.4-1.6-.4-2.4-.1-1.7,.1-3.5-.4-5.2-.2-.7,0-1.3,.3-1.9,.2-.5,.4-.9,0-1.4-.7-.8-.4-1.5,0-2.3,.9-2.2,1.1-4.3-1-6,1.8-.1,1.9-.1,1.9,1.5,0,2.7-.1,5.3-.1,8-.1,3.2-.2,6.5-.3,9.7Z"/><path class="cls-183" d="M707.28,112.18c-1.2-.3-2.5,.4-3.6-.6,2.9,0,5.8,0,8.7-.1,2.4-.1,4.6,.4,6.8,1.1-.6,1.2-1.3,1.7-2.7,.9-.7-.4-1.6-.3-2.4-.5-2.1-.5-4.6,.1-6.8-.8Z"/><path class="cls-183" d="M660.98,295.18c.3,1.2-.6,2-1.4,2.5-2,1.2-4.2,1.8-6.5,2-.2,0-.4-.2-.6-.3,2.7-1.5,5.5-3,8.5-4.2Z"/><path class="cls-85" d="M812.68,291.18c.2,.2,.4,.4,.6,.7-3.8,3.1-7.9,5.6-12.1,8-.2-.1-.2-.2-.2-.3,.1-.1,.1-.2,.2-.2,3.7-2.9,7.5-5.7,11.5-8.2Z"/><path class="cls-28" d="M919.38,194.38c.4-.3,.5-.6,.5-1.1-.1-6.6,.2-13.2-.1-19.8,.6,.3,.6,.9,.6,1.5v21.8c-.7-1-1.2-1.6-1-2.4Z"/><path class="cls-183" d="M685.18,29.48c-.2-2.1,.1-4.2-.7-6.1-.6-1.4-.2-2.2,1.1-2.8,.5-.3,.9-.7,1.6-.7-.7,3.1-1.6,6.3-2,9.6Z"/><path class="cls-183" d="M804.68,291.28c-.4-1.6-2.1-1.4-3-2.4,2.3-.4,4.6-.8,6.8-1.2,.3-.2,.6-.1,.8,.1-1.4,1.3-2.9,2.4-4.6,3.5Z"/><path class="cls-132" d="M717.18,267.18c1.1-3,3-5.4,4.6-8.1,.9,0,.8,.6,.6,1.2-1.3,2.4-2.8,4.7-4.5,6.9-.3,.3-.5,.3-.7,0Z"/><path class="cls-208" d="M703.88,123.68c-.3-.2-.5-.3-.8-.5,1.1-1.3,2.1-2.7,2.3-4.6,.7,1.4,.7,3,1.6,4.4-1.1,.3-2.1,.5-3.1,.7Z"/><path class="cls-183" d="M918.18,78.08c1.3-.4,1.2-1.8,2-2.6v8c-.1,.3-.2,.3-.4,0-.5-1.8-1-3.6-1.6-5.4Z"/><path class="cls-183" d="M698.08,90.98c.2-.7,.7-1.1,1.4-.7,.7,.3,1.5,.6,1.9,1.4-.5,1-1,2-1.9,3-.7-1.3-1-2.5-1.4-3.7Z"/><path class="cls-199" d="M700.28,202.98c-.8-.1-1.1-.5-1.1-1.3,0-1.9,.2-3.8,.7-5.6,.4,2.3,1.5,4.5,.4,6.9Z"/><path class="cls-55" d="M698.68,269.18c-.7,1.4-1.9,2.3-3,3.3-1,.9-2.3,.5-3.5,.5,2.1-1.4,4.2-2.8,6.5-3.8Z"/><path class="cls-183" d="M670.58,311.28c.9-.8,2-1.2,3.1-1.5,1.9-.6,1.8-.6,1.4,1.5-1.5,.2-3,.2-4.5,0Z"/><path class="cls-9" d="M707.28,112.18c2.3,0,4.7,0,6.9,.9-2.5,0-4.9,.1-7.4,.1,0-.4,.3-.7,.5-1Z"/><path class="cls-184" d="M722.78,173.98c1-.9,2.1-.5,3.2-.5,.1,.1,.2,.2,.3,.3,.4,.6,.5,1.1,0,1.7-1.4-.1-2.5-.6-3.5-1.5Z"/><path class="cls-105" d="M855.38,239.58c-1,.1-1.9-.4-2.8-.5-.1-.8-.1-1.6,.5-2.3,.7,.3,1.1,.9,1.5,1.5l.1,.1c.3,.4,.5,.8,.7,1.2Z"/><path class="cls-96" d="M919.88,291.88q-.6,1.7-2.8,.8c0-.8,.7-1,1.2-1.4,.6,0,1.1,.2,1.6,.6Z"/><path class="cls-186" d="M781.58,310.78c.1-.5-.1-1.1,.4-1.5,1.2,1.1,2.7,.8,4.1,.6,.4,.2,1.1,0,1,.8-1.8,.3-3.7,.3-5.5,.1Z"/><path class="cls-185" d="M840.48,134.28c-.3,1.2-.8,2.1-2.3,2,.4-1.1,.9-2.2,1.7-3.1,.9,0,.8,.6,.6,1.1Z"/><path class="cls-183" d="M477.08,12.88c-.7,1-1.6,1.8-2.6,2.4-.4-2.7-.1-2.9,2.6-2.4Z"/><path class="cls-183" d="M666.08,311.28c.5-.6,1.4-.5,2-1,1.2-.8,1.6,.1,2,1-1.4,.2-2.7,.2-4,0Z"/><path class="cls-89" d="M896.28,280.68c-1.8,.4-3.5-.2-5.1-1-.1-.5,.1-.8,.6-.6,.1,0,.2,0,.3,.1,.4,.3,.8,.3,1.3,.5,1,.1,2,.4,2.9,1Z"/><path class="cls-15" d="M726.28,175.38v-1.7c1,.5,1.7,1.5,2.6,2.2l-.1,.2c-.2,.1-.3,.1-.4,.2-.8,0-1.5-.3-2.1-.9Z"/><path class="cls-207" d="M702.18,173.98c-.3-1.4,.7-1.9,1.6-2.3,.4-.2,.7,.3,.9,.7-.7,.7-1.6,1.2-2.5,1.6Z"/><path class="cls-3" d="M787.08,310.78c-.3-.3-.7-.6-1-.8,.7-.4,1.3-.8,2-1.2,.6,.4,.6,1,.5,1.7-.3,.3-.7,.2-1,.4-.1-.1-.3-.1-.5-.1Z"/><path class="cls-20" d="M871.48,271.38c-.9,.6-1.9,.3-2.9,.3q0-1.7,1.1-1.2c.7,.3,1.2,.6,1.8,.9Z"/><path class="cls-117" d="M891.78,279.08c-.2,.2-.4,.4-.6,.6-.6,.1-1.1-.1-1.7-.3-.7-.3-.6-.7-.4-1.2,1,.1,1.9,.5,2.7,.9Z"/><path class="cls-180" d="M744.38,156.78c-.7,0-1.3-.2-1.6-.8,.4-.4,.9-.9,1.4-1.4,.4,.8,.3,1.5,.2,2.2Z"/><path class="cls-30" d="M830.28,152.78c-1.3-1.2-1.3-1.3,.5-2.6-.2,.9-.4,1.7-.5,2.6Z"/><path class="cls-40" d="M759.98,14.78c-1.2-.1-2.4-.3-3.5-1,.7-.4,1.3-.3,2-.1,.5,.1,1,.3,1.4,.6,.2,.1,.2,.2,.2,.3,0,.1,0,.2-.1,.2Z"/><path class="cls-203" d="M758.58,13.78c-.7,0-1.4,.1-2,.1-.7-.1-1.4,.1-2-.3,1.3-.3,2.7-.6,4,.2Z"/><path class="cls-136" d="M691.58,69.98c.8,1.1,1.1,2.3,1,3.6-.8-1.1-1-2.3-1-3.6Z"/><path class="cls-164" d="M861.48,74.48c-.9-.5-1.5-1.1-1.8-2.1,1,.4,1.7,1,1.8,2.1h0Z"/><path class="cls-149" d="M888.58,81.58c-.8-.4-1.3-1.1-1.6-2l.2-.2c.8,.6,1.5,1.2,1.8,2.2-.1,.1-.3,.1-.4,0Z"/><path class="cls-141" d="M842.98,310.38c-1,0-2.1-.1-3.1-.1-.2-.1-.2-.2-.2-.3,.1-.1,.1-.2,.2-.2,1.2,.2,2.5-.5,3.5,.5l-.2,.1h-.2Z"/><path class="cls-178" d="M893.48,88.18c-.7-.5-1.3-1.1-1.4-2l.1-.2c.8,.4,1.3,1.1,1.5,1.9,0,.2-.1,.2-.2,.3Z"/><path class="cls-74" d="M695.78,304.98c-.2-.2-.4-.4-.6-.7,.4-.5,.5-1.5,1.6-1.1-.3,.7-.5,1.3-1,1.8Z"/><path class="cls-45" d="M832.78,162.38c-.2,.5-.3,1.1-1.1,.8q-.1-.1-.2-.2c-.2-.4-.2-.7-.1-1.1,.6,.1,1,.3,1.4,.5Z"/><path class="cls-69" d="M885.58,77.58c-.8-.5-1.4-1-1.4-2h0c.7,.4,1.3,.9,1.4,2h0Z"/><path class="cls-124" d="M885.68,77.48c.8,.5,1.4,1.1,1.6,2l-.2,.2c-.8-.6-1.4-1.2-1.4-2.2-.1,.1,0,0,0,0Z"/><path class="cls-174" d="M838.88,102.08c-.2,.2-.4,.4-.6,.7-.3-.5-.7-1.1-1-1.6-.1-.5,.1-.6,.6-.5,.3,.4,.7,.9,1,1.4Z"/><path class="cls-120" d="M722.38,260.28c-.1-.4-.1-.9-.6-1.2,.2-.5,.5-1,.9-1.4,.1,.9,.4,1.8-.3,2.6Z"/><path class="cls-146" d="M920.08,131.58c-.6-.4-.9-.8-.7-1.6,.8,.3,1.1,.7,.7,1.6Z"/><path class="cls-173" d="M883.58,74.98c-.6-.3-1.2-.7-1.4-1.9,.9,.6,1.4,1,1.4,1.9h0Z"/><path class="cls-63" d="M837.88,100.68c-.2,.2-.4,.3-.6,.5-.2-.2-.3-.3-.4-.5-.1-.3-.4-.6,0-.8,.1-.1,.4,.1,.6,.3,.2,0,.3,.3,.4,.5Z"/><path class="cls-118" d="M840.48,134.28c-.1-.4-.1-.9-.6-1.1,.1-.5,.5-.8,.9-1.1,.1,.8,.2,1.6-.3,2.2Z"/><path class="cls-192" d="M743.88,147.78c.3,.2,.6,.3,1,.5,.1,.4,.1,.8-.2,1.1-.6-.4-.8-.9-.8-1.6Z"/><path class="cls-201" d="M847.38,196.98c-.5-.1-1,0-1.4-.5,.8-.1,1.6-.2,2.5,0-.2,.1-.3,.3-.5,.4-.2,.2-.4,.3-.6,.1Z"/><path class="cls-170" d="M736.98,157.88c.1,.5,.2,1,.3,1.5-.3-.2-.6-.4-1-.6-.2-.3-.3-.6-.5-.9h1.2Z"/><path class="cls-175" d="M722.78,254.08c-.5,0-.9-.2-1.2-.5,.3-.4,.6-.9,1-.8,.5,.2,.3,.9,.2,1.3Z"/><path class="cls-205" d="M719.78,117.08c.2,.2,1,.1,.4,.6-.4,.4-1,.5-1.5,.4,.2-.5,.6-.8,1.1-1Z"/><path class="cls-161" d="M890.08,83.58c-.6-.3-1-.8-1-1.5h0c.7,.3,1.1,.9,1.4,1.5-.1,.1-.3,.1-.4,0Z"/><path class="cls-33" d="M919.88,83.48h.4v2.6h-.4c-.1-.9-.1-1.7,0-2.6Z"/><path class="cls-196" d="M890.68,83.98c.7,.3,1.1,.9,1.4,1.6-.2,.1-.3,.1-.5,0-.6-.3-.9-.7-1-1.4l.1-.2Z"/><path class="cls-43" d="M761.98,15.28c-.6,0-1.1,.1-1.5-.5v-.3c.5,.2,1,.3,1.5,.5q.2,.1,.2,.2c-.1,.1-.2,.1-.2,.1Z"/><path class="cls-91" d="M761.98,15.28v-.3c.6,.2,1.2,.2,1.6,.8-.6,0-1.2,.1-1.6-.5Z"/><path class="cls-95" d="M849.98,237.58c0-.6,0-1.3-.1-1.9,1,.6,.5,1.3,.1,1.9Z"/><path class="cls-189" d="M692.58,73.48c.8,.6,.5,1.5,.5,2.2-.6-.6-.5-1.4-.5-2.2Z"/><path class="cls-104" d="M689.08,185.38c-.3,0-.4-.1-.4-.4,0-.1,.2-.3,.3-.4,.3-.1,.4,.1,.5,.3,.1,.3-.1,.5-.4,.5Z"/><path class="cls-80" d="M698.68,186.88c.2-.4,.5-.6,.9-.9,.2,.6,.3,1.1-.3,1.5-.2-.2-.4-.4-.6-.6Z"/><path class="cls-65" d="M717.28,91.68c-.4,.5-1,.4-1.6,.3,.4-.6,1-.4,1.6-.3Z"/><path class="cls-21" d="M728.88,175.88c.4,.2,.8,.4,.7,.8-.2,.4-.5,.1-.7-.2-.1-.1-.2-.3-.2-.5l.2-.1Z"/><path class="cls-163" d="M723.18,240.58c.5,.2,1.2,.3,.5,1.1-.4-.2-.4-.6-.5-1.1Z"/><path class="cls-172" d="M690.18,187.88c.5,.3,.5,.7,0,1.1-.2-.4-.4-.7-.6-1.1,.3-.1,.4-.1,.6,0Z"/><path class="cls-147" d="M717.18,267.18h.7c-.2,.3-.4,.6-.6,.9-.5-.2-.6-.5-.1-.9Z"/><path class="cls-177" d="M809.68,287.08c.2-.4,.6-.4,1-.4l.1,.1c-.2,.6-.6,.8-1.1,.9-.2-.2-.2-.4,0-.6Z"/><path class="cls-6" d="M799.68,300.88c-.3,.4-.7,.5-1.1,.4,.2-.5,.6-.7,1.1-.9,.1,.1,.2,.2,.1,.3,0,.1-.1,.2-.1,.2Z"/><path class="cls-14" d="M801.18,299.28v.5c-.3,.4-.7,.5-1.1,.4,.2-.5,.6-.7,1.1-.9Z"/><path class="cls-129" d="M764.58,16.28c-.5,0-.9,0-1.1-.5,.5,0,.9,.1,1.1,.5Z"/><path class="cls-193" d="M704.38,153.28c-.2,.3-.1,.9-.7,1-.1-.3-.1-.7-.2-1,.1,0,.2-.1,.2-.1h.5l.2,.1Z"/><path class="cls-6" d="M798.58,301.18c0,.3-.2,.5-.5,.7-.1,.1-.2,.1-.3,.2q-.1-.1-.2-.2c.3-.4,.6-.6,1-.7Z"/><path class="cls-8" d="M920.18,151.88c-.1,0-.2,.1-.2,0s-.1-.1-.1-.2c.1-.2,.2-.3,.3-.1v.3Z"/><path class="cls-142" d="M809.68,287.08v.6l-.2,.1h-.2c-.3,0-.5-.1-.8-.1,.3-.4,.8-.4,1.2-.6Z"/><path class="cls-50" d="M716.88,114.78c0,.1,.1,.1,.1,.2-.1,.1-.2,.1-.4,.2l-.1-.1c.2-.2,.3-.3,.4-.3Z"/><path class="cls-86" d="M721.28,109.68c.1-.3,.3-.5,.6-.6-.1,.4-.3,.8-.6,1v-.4Z"/><path class="cls-166" d="M893.38,279.68c-.5,0-1,0-1.3-.5,.5,0,1,.1,1.3,.5Z"/><path class="cls-187" d="M708.78,126.68c-.1-.3-.1-.6-.2-1,.3-.1,.6,0,.6,.4,.1,.3-.1,.5-.4,.6Z"/><path class="cls-186" d="M787.58,310.78c.2-.4,.6-.4,1-.4v.4h-1Z"/><path class="cls-19" d="M704.68,156.78c.1-.3-.3-1.1,.6-.6-.1,.2-.1,.5-.2,.7-.1,0-.2,0-.4-.1Z"/><path class="cls-106" d="M890.08,83.58h.5c.1,.1,.1,.3,.1,.4l-.1,.1c-.3,0-.4-.2-.5-.5Z"/><path class="cls-135" d="M891.58,85.58h.5c.1,.1,.2,.3,.2,.4l-.1,.2c-.4-.1-.5-.3-.6-.6Z"/><path class="cls-77" d="M893.78,87.98c.1,.1,.3,.3,.3,.3-.2,.3-.4,.1-.5-.1,0-.1,.1-.1,.2-.2Z"/><path class="cls-183" d="M690.18,187.88h-.5c0-.2,0-.4,.1-.6,.1,.2,.3,.4,.4,.6Z"/><path class="cls-87" d="M797.68,302.28h-.6c.1-.3,.3-.4,.6-.5l.2,.1c-.1,.2-.1,.3-.2,.4Z"/><path class="cls-87" d="M797.18,302.28c-.1,.3-.4,.5-.8,.5,.2-.3,.4-.5,.8-.5Z"/><path class="cls-127" d="M795.18,303.68c-.1,.4-.4,.5-.8,.6,.2-.3,.4-.5,.8-.6Z"/><path class="cls-101" d="M728.68,175.98c.1,.2,.1,.3,.2,.5-.2,0-.3,0-.5-.1,0-.2,.1-.4,.3-.4Z"/><path class="cls-101" d="M831.58,162.98l.2,.1v.2h-.3c0-.2,0-.3,.1-.3Z"/><path class="cls-128" d="M858.28,226.08c.3,0,.6,.2,.7,.5-.3,0-.5-.2-.7-.5Z"/><path class="cls-107" d="M710.18,123.18c-.1,.1-.1,.2-.2,.2v-.1c.1,0,.2-.1,.2-.1,.1,0,0,0,0,0Z"/><path class="cls-156" d="M760.48,14.48v.3h-.5v-.4c.2,0,.3,0,.5,.1Z"/><path class="cls-39" d="M827.78,279.58c-.1,.3-.2,.5-.6,.6,.1-.3,.3-.5,.6-.6Z"/><path class="cls-14" d="M799.68,300.88v-.5c.1-.2,.2-.2,.4-.2,0,.3-.1,.5-.4,.7Z"/><path class="cls-168" d="M827.28,280.18c-.1,.3-.3,.5-.6,.6,.1-.4,.3-.6,.6-.6Z"/><path class="cls-212" d="M826.78,280.68c-.1,.3-.3,.5-.6,.6,0-.4,.3-.6,.6-.6Z"/><path class="cls-52" d="M710.28,123.18c.1-.1,.1-.2,.2-.2v.1c-.1,.1-.2,.1-.2,.1-.1,0,0,0,0,0Z"/><path class="cls-164" d="M861.48,74.48q.1,.1,.2,.2h-.1s-.1-.1-.1-.2h0Z"/><path class="cls-16" d="M811.18,286.18c0,.3-.1,.5-.4,.6l-.1-.1c.1-.3,.3-.4,.5-.5,.1,.1,0,0,0,0Z"/><path class="cls-190" d="M883.58,74.98c.2,.2,.3,.3,.5,.5h0c-.1-.1-.3-.3-.5-.5h0Z"/><path class="cls-31" d="M888.58,81.58h.5c.1,.1,.1,.3,.1,.5h0c-.4,0-.5-.2-.6-.5Z"/><path class="cls-154" d="M706.78,84.18c0-.3,.2-.5,.5-.6-.1,.3-.2,.5-.5,.6Z"/><path class="cls-179" d="M791.68,306.28c-.1,.3-.4,.5-.8,.6,.2-.4,.4-.5,.8-.6Z"/><path class="cls-9" d="M275.98,262.68c0-2,.6-4,.5-6-.1-4-.9-7.8-3-11.2-1.2-2-2.4-4-3-6.3-.5-1.3-1.1-2.6,.3-3.8,.6-.5,.3-1.4,.1-2.1-.5-1.6-.1-3,1.2-4,1.3-1.2,2.7-2.4,4-3.6,2.4-.8,4.2-2.4,5.3-4.8,.8-1.6,2.3-2.8,3.1-4.4,1.6-2.1,3.3-4.2,4.9-6.3,7.4-9.3,14.5-18.9,20.5-29.2,.3-.6,.8-1.1,1.1-1.6,.4-.2,.3-.7,.6-1h0c2.9-3.4,5.3-7.1,6-11.6,2.7-6.4,3.5-13.2,4-20,.8-10.3,.2-20.7-.3-31v-2.2c.7-1.3,1.9-2,3-2.8,1.3-.1,2.6-.2,3.9,0,5.9,2.6,12,2.5,18.2,2,1.7-.1,3.3-.1,5-.1,7.8,0,15.7-.4,23.5-.9,3.8-.7,7.7-.5,11.5-.9,7.3-.7,14.7-1.4,22-2.1,4.5-.5,8.6-2.1,12.1-5,1.9-1.5,3.1-3.5,4.3-5.5,.3-.5,.4-1.1,.5-1.7,.3-5.7-.9-10.9-4-15.7-6.9-11.1-15.1-20.9-26-28.5-12.5-8.7-24.5-18-37.2-26.4-2.8-1.8-5.6-3.6-8.4-5.5-1.9-1.6-4.1-2.7-6-4.3-1.8-1.5-1.7-2.8,.4-3.8,11.7,0,23.4-.1,35.2,0,21.3,.1,42.5,.2,63.8,.2,4.3,0,8.5,.1,12.8,.2,2,0,2.1,.1,2.2,2.1,.1,1.7,.1,3.3,.1,5,0,15.1,.3,30.3-.1,45.4-.5,23.2,0,46.5-.3,69.7-.1,5.9,0,11.9,0,17.8,0,.8-.1,1.7-.1,2.5-.4,.9-.2,1.8-.2,2.7,0,18.1,.1,36.1-.1,54.2-.1,7.1-1.4,14.1-.9,21.2,1.6,19.8,.7,39.6,.9,59.4,0,3,.4,6-.2,9h0c-.2,.3-.3,.2-.4,0-.8-2.8-2.3-5.3-3.4-7.9,.2-.2,.3-.5,.4-.5q2.9-.4,1.7-3.2c-3.2-6.8-6.4-13.6-9.5-20.5-.6-1.3-1.4-2-3-2.2-1.6-.2-3.2-.4-4.7-.3-1.2,0-1.9-.5-2.3-1.6-1.6-4.6-2-4.5-7.1-4.5-3.3,0-6.5-.1-9.8,0-3.9,.1-7.8,.6-11.7,1.4-1.8,.4-3,1.3-4.1,2.6-3.3,4.3-6.6,8.6-9.8,13-.2,.3-.4,.6-.6,.8-.9,1-1.7,.9-2.4-.2-.5-.9-.9-1.8-1.3-2.7-.6-1.3-1.5-1.7-3-1.6-3.7,.3-7.5,.8-11.2,.6-5-.3-10-.1-15-.8-2.6-.4-5.3,.1-8-.5-1-.2-1.7,.4-2.3,1.2-.9,1-1.4,2.2-2.6,3.2-1.3-1.6-2-3.4-2.7-5.2-2.2-5.4-2.8-5.8-8.8-5.8-6.9,0-13.9,.2-20.8-.1-4.7-.2-9.4,0-14-.8-.3-.1-.7,0-1,0-7.1,.2-14.2-.8-21.3-.6h-.8c-1.3,.1-1.9-.4-1.7-1.8,.1-.3,0-.7,0-1.1Z"/><path class="cls-101" d="M414.78,102.68c-.3,.4-.8,.5-1.3,.5-.5,.4-1.3,0-1.7,.5h0c-.3,.2-.6,.2-.9,.2-.4,0-.8-.1-1.1,.3-1.9,.9-3.9,.6-5.9,.8-7.6,.5-15.1,1.6-22.7,1.8-6.4,.2-12.8,1-19.2,.9-.7,0-1.3-.1-2-.1-.7-.4-1.4-.1-2.1-.2h-2.2c-.7,.1-1.5-.2-2.2,.2-5,0-10,.1-15.1,0-1.8,0-3.7-.3-5.5-.6-3.5-.5-7-.7-10.5,0-1.1,.2-1.5-.2-1.6-1.3-.3-3-.6-6-1-9-.1-1,.1-1.5,1.3-1.7,5.9-.8,11.7-1.6,17.6-2.1,7.2-.6,14.5-1.7,21.7-1.8,8.9-.1,17.3-2.8,25.9-4.4,3.4-.6,6.7-1.4,10-2.3,1.9-.5,4-.9,4.7-3.2,5.9,1.8,11.4,4.2,16.2,8.2,1.2,1,2.1,2.2,2.9,3.4,1.3,1.9,1.5,3.8-.3,5.6-.5,.4-1,.8-1.3,1.3-.2,.3-.4,.5-.6,.7s-.5,.3-.7,.5h0c-.2,.1-.4,.3-.6,.5-.2,.1-.3,.2-.5,.3-.2-.1-.4,0-.5,.2s-.2,.3-.5,.3c0,.2-.2,.3-.3,.5Z"/><path class="cls-101" d="M137.78,307.28c-.1,1.2-.3,2.3-.4,3.5-.1,1.1-.1,2.1,.6,3.4h-35.4c-.2-.7,.6-.8,1-1.1,6.3-4.4,12.9-8.4,19.6-12.2,6-3.4,11.5-7.5,16.7-11.9,1.3-1.1,2.7-2.2,4.1-3.3,.5,1-.1,1.6-.3,2.3-2.4,6-4.3,12.1-5.5,18.4,0,.2-.2,.3-.2,.4-.4,.1-.4,.3-.2,.5Z"/><path class="cls-183" d="M457.48,301.78c0-16.9,.1-33.7-.1-50.6-.1-5.2-1-10.4-1.3-15.7-.3-4.7-.4-9.5,.2-14.2,.6-4.4,1.2-8.7,1.2-13.2-.1-16.6,0-33.3,0-49.9,0-1-.4-2,.4-2.9v144.7c0,.6-.1,1.2-.1,1.7-.1,.1-.2,.1-.3,.1Z"/><path class="cls-183" d="M272.08,229.18c-.9,1.5-1,3-.4,4.7,.4,1.1,.7,2.1-.9,2.4-.5,.1-.7,.7-.5,1.2s.4,1.1,.2,1.7c-3.2-6.8-6.1-13.8-6.7-21.4,0-.4-.1-.8,.1-1.2,2,.1,3.1-2,5.1-2,.1,1.1,.9,1.7,1.8,2.3-1.5,1.2-2.9,2.3-3.9,3.9q-1.1,1.8,.6,2.8c.4,.2,.7,.4,1.1,.6,.6,.7,.5,1.5,.2,2.3-.3,.7-.5,1.4,.1,2.1q.5,1.8,2,1c.5-.1,.8-.2,1.2-.4Z"/><path class="cls-183" d="M375.08,111.58c-.3,.4-.7,.5-1.1,.5-3.3-.1-6.5,.4-9.7,.6-5.5,.3-11,.3-16.5,.6-2.7,.1-5.3,.2-8,.4-3.2,.2-6.3-.5-9.3-1.4-.9-.3-1.7-.7-2.1-1.6,2.9-.2,5.6,.6,8.4,.9,5.4,.7,10.8,.2,16.3,.2,7,.1,14,.1,21-.4,.3,.1,.6,.2,1,.2Z"/><path class="cls-9" d="M434.38,311.88c6.1-.3,12.1-.7,18-2,1.1-.2,2.1-.6,3-1.1,.6-.1,1.4-.8,1.4,.5h0c-.1,.2-.3,.4-.5,.5h0c-.1,.2-.3,.4-.5,.5h0l-.5,.5h0l-.5,.5h0c-.4,.2-.2,.7-.6,.9-6.7,.2-13.4,.2-20,0-.2-.1-.2-.2-.2-.3,.3,.1,.3,0,.4,0Z"/><path class="cls-101" d="M180.58,313.38c7.1-.7,14.3-.6,21.5-1h2c.4,0,.6,.3,.6,.7s-.2,.6-.6,.7c-.3,.1-.7,.1-1,.1h-22.5c-.2-.1-.2-.2-.1-.3q0-.2,.1-.2Z"/><path class="cls-183" d="M344.28,12.38c-1.7,1.4-1.7,2,0,3.4,1.3,1,2.6,2,3.9,3,.7,.5,1.5,.8,1.7,1.7-4.3-2.1-8.1-5-12.6-7.9,2.7-.4,4.9-.3,7-.2Z"/><path class="cls-101" d="M268.98,228.58c-.8-.1-1-.5-.8-1.2,.3-1,.5-2.1,.5-3.2,1-.3,1.5-1.1,2.1-1.7,1.5-1.7,3.2-3.2,5.3-4.1,.3,.2,.3,.4,.1,.6-1.7,2.4-3.6,4.6-5.8,6.5-1,1-1.4,1.9-1.4,3.1Z"/><path class="cls-183" d="M317.68,166.78c-.2,1.6-.3,3.1-.6,4.7-.2,1.1-.6,2.1-1.5,2.8-1.5,1.2-2.1,3.2-3.9,4.1,.7-2.2,2-4.1,3-6.2l3-5.4Z"/><path class="cls-183" d="M284.48,216.38c.1,.6-.3,1.1-.6,1.6-1.1,1.7-2.2,3.3-3.2,5.1-1.1,1.8-2.6,2.8-4.7,2.5,2.9-3.1,5.6-6.3,8.5-9.2Z"/><path class="cls-101" d="M324.38,110.68c-.3,1.7-2,1.9-3,2.8-.3-3.5,0-2.9,3-2.8Z"/><path class="cls-138" d="M180.58,313.38v.5h-8.5v-.4c2.8-.1,5.7-.1,8.5-.1Z"/><path class="cls-200" d="M418.28,99.98c.1-1,.8-1.3,1.6-1.3-.1,.2-.2,.4-.3,.6l-.2,.2c-.3,.5-.6,.9-1.2,1.2l-.2-.2c.1-.2,.2-.4,.3-.5Z"/><path class="cls-68" d="M427.88,312.38c1.1-.9,2.3-.3,3.5-.5,.1,.1,.2,.2,.1,.3q-.1,.1-.2,.1c-1.1,.3-2.3,.2-3.4,.1Z"/><path class="cls-9" d="M431.38,312.28v-.4h3v.4c-1,.2-2,.2-3,0Z"/><path class="cls-62" d="M420.78,86.58c.3-.1,.5-.3,.6-.6,.5,.5,.7,1.2,.7,2-.7-.3-1-.8-1.3-1.4Z"/><path class="cls-191" d="M315.78,63.78c.5-.4,1-.4,1.6-.1-.5,.5-1.1,.2-1.6,.1Z"/><path class="cls-41" d="M137.78,307.28c-.4,0-.8,.1-1.1-.2-.1-.1,.1-.5,.2-.6,.4-.3,.7,0,1,.3,0,.2,0,.4-.1,.5Z"/><path class="cls-72" d="M355.48,107.18h2.4c.2,.1,.3,.2,.2,.3q-.1,.1-.2,.1h-2.5c-.2-.1-.2-.2-.2-.3q.2-.1,.3-.1Z"/><path class="cls-176" d="M355.48,107.18v.4c-.7,.2-1.3,.1-2,0,.5-.7,1.3-.4,2-.4Z"/><path class="cls-101" d="M328.28,60.08c.2-.1,.3-.1,.5-.2,.5,.1,1.1,0,1.4,.5-.6,.1-1.3,.2-1.9-.3Z"/><path class="cls-167" d="M357.98,107.58v-.4c.7,0,1.5-.3,2,.4-.7,.1-1.4,.2-2,0Z"/><path class="cls-188" d="M310.68,170.78c0,.2-.1,.5-.4,.4-.1,0-.3-.2-.4-.3-.1-.3,.1-.4,.3-.5,.3,0,.5,.1,.5,.4Z"/><path class="cls-26" d="M318.58,83.08c-.1,.1-.2,.3-.3,.3-.3,0-.4-.2-.3-.5,0-.1,.3-.2,.4-.1,.1,0,.1,.2,.2,.3Z"/><path class="cls-84" d="M411.78,103.68c.4-.7,1.1-.5,1.7-.5-.5,.5-1.1,.5-1.7,.5Z"/><path class="cls-58" d="M305.58,163.28c-.1,.1-.2,.2-.3,.2-.2-.1-.4-.2-.2-.5,0-.1,.3-.1,.4-.1,0,.1,.1,.3,.1,.4Z"/><path class="cls-27" d="M276.08,218.98c0-.2-.1-.4-.1-.6,.1-.2,.2-.4,.4-.4,.2-.2,.4-.2,.5,0l.2,.1c-.1,.4-.5,.8-1,.9Z"/><path class="cls-169" d="M290.78,155.08c-.1,0-.1,.1-.2,.1-.2-.1-.2-.2-.1-.3h.2c.1,.1,.1,.2,.1,.2Z"/><path class="cls-183" d="M311.68,178.38c.1,.5-.1,.8-.6,1,.1-.5,.1-.9,.6-1Z"/><path class="cls-71" d="M409.78,104.18c.2-.5,.6-.5,1-.5,.2,.1,.2,.2,.1,.3q-.1,.1-.2,.1c-.3,0-.6,.1-.9,.1Z"/><path class="cls-183" d="M454.38,312.28c.1-.4,.2-.7,.6-.9v.9h-.6Z"/><path class="cls-195" d="M417.28,101.18c.1-.3,.3-.5,.6-.6,.1,0,.2-.1,.3-.1l.1,.1c-.3,.4-.6,.6-1,.6Z"/><path class="cls-214" d="M410.68,104.08v-.4h1c-.1,.5-.5,.4-1,.4Z"/><path class="cls-101" d="M419.38,99.48c0-.1,0-.2,.2-.2,0,.1-.1,.1-.2,.2Z"/><path class="cls-17" d="M414.78,102.68c.1-.3,.3-.4,.5-.1-.2,0-.4,0-.5,.1Z"/><path class="cls-151" d="M415.78,102.18c.1-.3,.2-.4,.5-.2-.2,.1-.4,.1-.5,.2Z"/><path class="cls-56" d="M416.78,101.68c.1-.3,.3-.4,.6-.5-.1,.3-.4,.4-.6,.5Z"/><path class="cls-183" d="M39.38,30.38c.3,0,.7,0,.8,.4,.1,.4-1.6,1.9-2.1,1.8-.3-.1-.5-.4-.6-.7-.1-.8,.7-1.5,1.9-1.5Z"/><path class="cls-2" d="M123.78,37.38h1.9c-.9,.5-1.8,1.6-2.9,.5,.2-.4,.7-.1,1-.5Z"/><path class="cls-101" d="M123.78,37.38c-.2,.4-.6,.5-1,.5h0c-.1-.2-.1-.3,0-.5h1Z"/><path class="cls-2" d="M122.78,37.38v.5c-.4-.2-.3-.3,0-.5Z"/><path class="cls-34" d="M179.58,179.38h2c-.8,.6-1.7,.6-2.5,.1,.1-.3,.2-.3,.5-.1Z"/><path class="cls-108" d="M193.18,166.78c-.6-.1-.9-.5-1.1-1,.4-.7,.8-.7,1,.1,.1,.3,.1,.6,.1,.9Z"/><path class="cls-140" d="M179.58,179.38c-.2,0-.4,0-.5,.1-.6,0-1.1-.1-1.5-.6,.2-.2,.4-.2,.7,0,.4,0,1-.2,1.3,.5Z"/><path class="cls-137" d="M178.18,178.88h-.7c-.2-.1-.4-.3-.1-.5,.4-.1,.7,.2,.8,.5Z"/><path class="cls-101" d="M197.68,163.38c.4-.1,.7,0,.8,.4-.3,0-.6-.1-.8-.4Z"/><path class="cls-5" d="M136.38,158.78c-.1-.1-.3-.2-.4-.4,.4-.1,.7-.1,1,.3-.3,.1-.5,.1-.6,.1Z"/><path class="cls-9" d="M268.58,296.28c.1-1.5,.4-3.1,.9-4.5,3.3,.3,6.5,1.4,9.8,2.1,.3,.1,.7,.2,.6,.6,0,.4-.3,.6-.6,.7-1.1,.2-2.1,.3-3.2,.4-2.6,.3-5,.9-7.5,.7Z"/><path class="cls-183" d="M456.88,309.38c-.3-.6-.9-.4-1.4-.5,.3-.5,.8-.6,1.3-.5,.6,.2,.7,.5,.1,1Z"/><path class="cls-183" d="M456.98,301.78c.1,0,.3,.1,.4,0-.1,.2-.1,.6-.2,.6-.3,0-.1-.4-.2-.6Z"/><path class="cls-183" d="M456.38,309.88l.5-.5-.5,.5Z"/><path class="cls-183" d="M455.98,310.38l.5-.5c-.2,.1-.4,.3-.5,.5Z"/><path class="cls-183" d="M455.48,310.88l.5-.5c-.2,.1-.4,.3-.5,.5Z"/><path class="cls-183" d="M454.98,311.38l.5-.5c-.2,.2-.3,.3-.5,.5Z"/><path class="cls-9" d="M269.08,214.58c-.6,.5-1.3,1.1-1.9,1.6-1,.8-2,1.1-3.2,.4h0c-.1-.2-.1-.3,0-.5,1.6-1.9,2.8-4,3.1-6.5,.5-.4,.9-.4,1.4,0,.6,1.6,.8,3.2,.6,5Z"/><path class="cls-131" d="M268.48,209.48h-1.4c-.2-.9,.4-1.5,.6-2.4,.6,.8,.9,1.6,.8,2.4Z"/><path class="cls-183" d="M263.98,216.08v.5c-.4-.2-.3-.4,0-.5Z"/><path class="cls-59" d="M276.98,217.98h-.5c.1-.2,.1-.3,.2-.5,.2,.1,.3,.2,.3,.5Z"/><path class="cls-160" d="M688.38,132.18c1.1,1.9-.5,3.1-1,4.7-.3-1.7,.4-3.2,1-4.7Z"/><path class="cls-183" d="M687.78,102.48c0,.7,0,1.3-.6,1.9-.6-1,.1-1.4,.6-1.9Z"/><path class="cls-11" d="M488.38,26.58c-.2,.2-.3,.4-.5,.6-.2,.1-.5,.1-.6-.1-.2-.3,0-.6,.4-.6,.2-.1,.4,0,.7,.1Z"/><path class="cls-101" d="M733.28,105.68c.5-2.5,1.8-4.8,2.1-7.4,.2-1.3,1-2.5,1.8-3.5,.5-.7,1.1-1.2,1.2-2.1,.9-1,2.2-.8,3.3-.7,1.9,.2,3.7,0,5.5-.2,13.1-1.7,24.6,1.5,34.2,10.9,1.1,1.1,2.4,2.1,3.3,3.4,1.3,1.7,3,2.6,5.1,2.6,.5,.8,1.1,1.7,1.5,2.5,.7,1.3,1.1,2.6-.5,3.6,.7,1.2,1.7,1.7,2.6,2.4-.1,.2,0,.4-.1,.5-3.8,3.5-3.4,3.9-8.2,.8-2.8-1.8-5.2-4.2-7.3-6.7-1.4-1.7-3-2.5-5.1-2.8-3.3-.4-6.6-.9-9.9-1.2-2.1-.1-4.3,.2-6.5,.3-.7,0-1.1,.4-1.1,1.1,0,.9-.1,1.8-.1,2.7-1.2,1.2-2.3,2.6-4.2,2.6-1-1.8-.7-4.1-2.2-6-.1,2.1-.5,4,.9,5.7,.1,.2,.2,.4,.2,.7,0,.2,0,.5-.1,.7-.4,.8-1.1,1.4-1.1,2.4-1.2,1.3-2.4,2.6-3.9,3.6-.6-.4-1.6-.4-1.7-1.3-.4-1.8-1.5-1.6-2.8-1.1-.8,.3-1.6,.5-2.4,.7-1,.2-1.9,.7-2.3,1.7,0,.1-.1,.2-.1,.2-2.6,2.5-4.5,5.2-5.2,8.8-.2,1.3-1.6,1.9-2.5,2.7q-3.5,3-4.9-1.5c-.5-1.6-.4-2.9,.6-4.2,.8,.8,.6,1.8,.5,3,.9-1.8,1.1-3.7,1.8-5.4,.7-1.9,1.6-3.8,3.2-5,3.2-2.2,4.2-5.4,4.3-8.8,0-1.8,1.2-3.7,.1-5.7Z"/><path class="cls-101" d="M782.58,176.28c1,.4,1.3,1.3,1.5,2.2,1,3.7,1.8,7.5,1.6,11.3,0,.4,0,.9-.1,1.2-1.7,4.9-2.7,10-4.6,14.7-.9,2.3-2.3,4.2-4.1,5.9-1.1,1-2.2,2-3.2,3.2-2.3,2.8-5.5,3.9-8.8,5-1.1,.3-1.4,0-1.3-1,.1-2.6,.2-5,2.4-7,1.4-1.3,2.4-3.2,3.5-4.8,4.4-6.5,7.9-13.5,10.9-20.7,.8-1.9,1-4,1.2-6.1,.2-1.3,.1-2.8,1-3.9Z"/><path class="cls-46" d="M750.88,114.68c1.4-.8,2.4-2.3,4.1-2.6,5.2,0,10.1,1.3,14.9,3,3.2,1.2,5.9,3,8.6,5,.3,.3,.7,.5,1,.7,1.9,1.4,3.6,3.3,5.6,4.1,2,.8,4.4,.5,6.7,.8,1.8,.2,3.6,.8,5.3,1.4,.8,.3,1.5,.7,1.7,1.7,.3,1.1-.5,.8-1,.8-3.3,.4-6.2-1.2-9.3-1.8-.4,0-.6-.4-1.1-.3,.1,.1,.2,.3,.3,.4,.4,.8,1.1,1.7,.2,2.5-.8,.7-1.7,.4-2.6,.1-1-.4-1.7-1.1-2.4-1.7-6-4.8-11.9-9.8-19.7-11.4-.8-.2-1.6-.5-2.5-.4-.6,.1-1.2,.1-1.4,.8-.1,.7,.4,1,.9,1.3,.6,.4,1.4,.5,1.8,1.2,.1,.4,0,.7-.1,1-.1,.2-.3,.3-.5,.4-.5,.2-.5,.8-.9,1.4,2.2,.3,4.4,.6,6.5,.9,1.6,.2,2.5,1.1,2.3,2.8-.5,.2-1,.5-1.6,.6-5.8-.5-11.5-1.6-17.1-3.1-.3-.1-.6-.3-.8-.6,0-1.1,.8-1.3,1.7-1.3,.6,0,1.3,.1,2.2,.1-.6-1.7-1-3.4-.4-5.1,.2-.2,.2-.4,.2-.7l.1-.2-.2-.2h-.2c-.2,0-.3,0-.4,.2-.2,0-.4,.2-.4,.4-.9,.6-1.4,1.6-2,2.5-1.8,2.8-2.5,3.1-5.8,2.4,.6-1.9,2.3-2.8,3.7-3.9,.1-.6,.4-.9,.8-1.3,.6-.5,.7-1.3,1.4-1.7,.2-.2,.3-.2,.4-.2Z"/><path d="M789.78,108.68c-2.2,.9-3,.8-4.3-.7-2.6-3-5.4-5.7-8.4-8.2-6.5-5.2-14-7.1-22.1-7.6-.7,0-1.5,.2-2.1-.5-.4-.5-1-.2-1.4-.1-4.3,1.3-8.7,1.4-13.1,1.1q-2.3-.4-1.7-2.7c.7-2.4,1.1-4.9,2.9-7,1.8,1.6,.5,3.8,1.1,5.8,.9-1.2,1.7-2.3,2.5-3.3,.4-.5,.8-1,1.4-.7,.5,.2,.7,.9,.7,1.5,0,.7-.1,1.3-.2,2,.9,.5,1.8,0,2.7-.2,4.1-.6,8.1-.8,12.1,.6,1.1,.4,2.5,.1,3.7,.4,3.6,.7,7.1,1.7,9.9,4.4,.6,.6,1.4,.8,2.2,1.2,6.2,3.1,11.2,7.5,14.1,14Z"/><path class="cls-209" d="M782.58,176.28c-.1,5.8-1.6,11.3-4.4,16.4-2,3.7-3.8,7.6-5.9,11.3-.7,1.2-1.1,2.6-2.8,2.9-.7-1.6-.3-3.1,.4-4.5,1.9-3.9,3.7-7.9,5.8-11.6,3.5-6.2,3.9-12.8,3.2-19.6-.6-5.6-.4-11.1,.3-16.6,0,0,.1,0,.4-.1,.8,.3,.7,1.1,.9,1.8,.5,3,1,5.9,1.1,8.9,.1,3.7,.6,7.4,1,11.1Z"/><path class="cls-112" d="M859.48,152.68c3.9-2.5,8.1-2.1,12.4-1.3,1.5,.3,1.4,1.7,2.2,2.9-2.2,0-4,.1-5.8,0-3-.1-5.5,.9-8,2.5-2.6,1.8-3.8,4.1-3.8,7.2,0,1.1-.1,2.2,0,3.3,.2,2.5-1,4.3-2.8,5.9-3.4,3-7.3,4.3-11.8,3.6-.4-1.6,.7-1.8,1.8-2,2.1-.5,4.1-1.3,5.9-2.5,1.9-1.3,3-2.9,2.7-5.2-.1-.4,0-.8,0-1.2-.7-5.5,2.1-9.2,6.1-12.3,.4-.4,.7-.7,1.1-.9Z"/><path class="cls-101" d="M788.18,127.18c3.3,.5,6.5,1.6,9.7,2.4-.8,.6-.2,1.1,0,1.6,.4,.9,1.2,1.8,.6,2.9-1.4,.2-1.9-1.1-2.8-1.8-.8-.5-1.4-1.4-2.8-1.5,1.5,2.7,4.2,4.1,5.8,6.4,1.1,1.5,1.8,3.3,2.5,5,.2,.4,.3,.8-.1,1.1-1.3,.1-1.9-.9-2.6-1.7-2.4-2.5-5.1-4.7-7.8-6.9,.4,1.3,1.4,2.2,2.2,3.2,.6,.7,1.7,1.2,1.3,2.5-2.5-1.4-4.6-3.4-6.4-5.5-2.6-3.1-5.8-5.3-9-7.5-3.3-2.2-6.6-4.5-10.2-6.2-.8-.4-1.6-.9-2.6-.9-2.4-.4-4.1-1.8-5.3-3.8,.7-.2,1.3-.1,2,0,5,1.1,9.6,3.2,13.7,6.3,2.7,2,5.3,4,7.8,6.2,1.1,1,2.3,1.7,3.8,1.1,.1-.9-.5-1.6-.8-2.3-.1-1,.4-.8,1-.6Z"/><path class="cls-42" d="M733.28,105.68c.4-.1,.7-.5,1.1-.4,.6,.2,.5,.7,.3,1-1.3,2.4-.9,5-1.3,7.5-.5,2.6-1.4,4.7-3.6,6.3-2.7,1.9-3.7,5-4.5,8.1-.3,1.1-.3,2.5-1.7,3.3-.7-1.4,0-2.7-.3-3.9,.7-2.4,1.5-4.8,2.9-6.9,1.8-2.3,3.9-4.5,4.6-7.6,.2-.7,.4-1.4,.4-2.2,.2-1.9,.9-3.7,2.1-5.2Z"/><path class="cls-115" d="M873.28,159.88c.8,1.8,1,3.6,.4,5.4,.2,.7-.1,1.1-.6,1.5-.3,.5-.6,1-.9,1.5-.9,1.9-2.3,2.7-4.7,1.8,1.2-3,3.6-5.7,2.8-9.3,0-.9-.5-1.7,.1-2.6,.6-1.1,1.2-1.1,2-.2,.2,.2,.4,.5,.5,.8,.5,.3,.4,.7,.4,1.1Z"/><path class="cls-101" d="M749.98,123.58c3,.2,5.8,1.4,8.8,1.7,3.1,.4,6.2,1.1,9.3,1.6,.3,.1,.8-.1,1,.3v.4c.1,.2,.2,.4,.3,.5,.1,.2,.1,.3,.2,.5,.1,.2,.2,.4,.3,.5,.1,.2,.1,.3,.2,.5,.1,.1,.2,.3,.3,.5,0,.2,.1,.4,.1,.5-.5,.4-1,.3-1.5,0-.8,0-1.6,.1-2.3-.4,.5-.7,1.8-1.6-.3-1.9-5.2-.7-10.5-1.1-15.8-1.7-.2,0-.4,.2-.6,.4-.9,.1-1.6-.2-2.5-.7,.6-1.1,1.1-2.2,2.5-2.7Z"/><path class="cls-159" d="M794.18,140.38c-.9-1.7-2.6-2.8-3.7-4.4-.2-.3-.5-.7-.8-1-.4-.5-.4-.9,0-1.3,.5-.5,.9-.2,1.3,.1,1.8,1.6,3.6,3.2,5.4,4.9,1.6,1.5,3,3.2,4.7,4.5,.3,1,1.4,1.6,1.3,2.9-1.2,.4-2.2,.1-3-.9-1.6-1.6-3.3-3.3-5.2-4.8Z"/><path class="cls-159" d="M749.98,127.18c-.3-.7-.1-1.1,.7-1.1,2.6,.2,5.1,.3,7.7,.7,2.6,.4,5.3,.5,7.9,.8,1.9,.2,1.9,.1,2.7,2.2-.6,.8-1.6,.1-2.3,.5-5.7-.6-11.2-1.8-16.7-3.1Z"/><path class="cls-29" d="M798.68,137.28c-2.5-1.4-4.3-3.6-6.3-5.6-.4-.4-.5-.8-.1-1.3s.8-.8,1.5-.3c1.7,1.2,3.2,2.6,4.7,4,.4,.6,.9,1.2,1.2,1.8,.8,1.3-.1,1.3-1,1.4Z"/><path class="cls-9" d="M760.58,116.38c1.8,1.3,3.6,2.6,5.3,3.8-1.2,1.5-2.8,1.8-4.6,1.4,.1-.2,.2-.4,.3-.6s.1-.3,.2-.5c-.2-.5-.7-.6-1.2-.8-.3-.1-.7-.1-1-.2-1.1-.4-1.5-1.4-1.3-2.4,.4-.9,1.4-1,2.3-.7Z"/><path class="cls-101" d="M730.78,113.08c.2,2.4-.6,4.4-2.5,5.8-.7,.5-1.4,1.2-2,1.8,1-2.8,2.4-5.4,4.5-7.6Z"/><path class="cls-61" d="M873.08,166.78c-.1-.6,.4-1,.6-1.5,.7,1,.6,2.1,0,3.1-.2-.5,0-1.2-.6-1.6Z"/><path class="cls-133" d="M768.88,130.78h1.5c-.4,.8-.9,.3-1.5,0Z"/><path class="cls-133" d="M769.08,127.28c-.3-.1-.7-.2-1-.3,.4,0,.8-.1,1.3-.1,0,.2-.1,.3-.3,.4Z"/><path class="cls-194" d="M754.08,116.18c0,.4-.2,.8-.6,1,0-.3,0-.7-.1-1v-.1c.2-.1,.5-.1,.7,.1Z"/><path class="cls-194" d="M752.58,116.68c0-.3,.2-.4,.4-.4,0,.3-.2,.4-.4,.4Z"/><path class="cls-133" d="M769.88,129.18c-.1-.2-.2-.4-.3-.5,.2,.1,.3,.2,.3,.5Z"/><path class="cls-133" d="M769.38,128.18c-.1-.2-.2-.4-.3-.5,.2,.1,.3,.2,.3,.5Z"/><path class="cls-101" d="M847.48,156.68c0-.3,.1-.5,.4-.5,0,.3-.1,.5-.4,.5Z"/><path class="cls-133" d="M770.38,130.18c-.1-.2-.2-.3-.3-.5,.2,.1,.3,.2,.3,.5Z"/><path class="cls-83" d="M847.38,196.98h.6c-.2,.4-.4,.3-.6,0Z"/><path class="cls-183" d="M799.18,310.38c1.1-1.4,2.2-2.6,3.8-3.2q.6,2.8,3.3,1.9c2.2-.7,4.2-1.9,6.5-2.4,.5,.4,.4,.8,.4,1.2q0,2.5-2.5,2.5h-11.5Z"/><path class="cls-181" d="M839.88,309.88v.4h-11.8c1.7-1,3-1.7,4.9-1.1,2.2,.8,4.6,.7,6.9,.7Z"/><path class="cls-198" d="M818.28,309.98c1-.4,2.1-.8,3.1-1.2,.5-.2,1.2-.6,1.3,.4,.2,.8-.3,1.2-1.1,1.2h-3.2c0-.1-.1-.3-.1-.4Z"/><path class="cls-148" d="M797.68,302.28c0-.1,0-.3,.1-.4,.1,0,.2-.1,.3-.1-.1,.2-.2,.4-.4,.5Z"/><path class="cls-143" d="M718.68,234.98c.1-.1,.2-.1,.4-.2-.1,.1-.1,.2-.2,.3,0,.1-.2-.1-.2-.1Z"/><path class="cls-46" d="M712.68,153.78c0-3,2-4.8,5-4.5,3.8,.4,7.5,1.4,11.1,3,1.8,.9,2.4,1.7,1.9,2.7-.5,1.4-2.5,2.5-3.9,2.1-.5-.1-.9-.3-1.4-.6-1.3-.7-2.8-1.1-4.2-1.5-1.7-.5-3.3-.8-4.8,.6-.7,.6-1.7,1.6-2.9,.9-1.1-.5-.6-1.9-.8-2.7Z"/><path class="cls-25" d="M708.98,172.88c-.7-1.6,.2-2.9,.3-4.1,.2-2.1,.3-4.3,1.3-6.3,.3-.7,.4-1.7,1.7-1.3,1.2,.4,1.7,1,1.3,2.2-.5,1.9-.9,3.9-1.5,5.8-.4,1.6-1.4,2.8-3.1,3.7Z"/><path class="cls-153" d="M718.08,148.18c-.1-.1-.4-.3-.4-.5,0-.3,.2-.3,.4-.2s.3,.3,.4,.5c-.1,.1-.3,.1-.4,.2Z"/><path class="cls-183" d="M704.18,153.18l-.2,.1-.2-.1c.1-.1,.2-.2,.3-.3,0,.1,0,.2,.1,.3Z"/><path class="cls-37" d="M718.68,171.28c.1-.1,.3-.3,.3-.3,.3,.3,0,.3-.1,.5,0-.1-.2-.2-.2-.2Z"/><path class="cls-92" d="M873.28,159.88c-.1-.3-.2-.7-.3-1,.7,.1,.6,.5,.3,1Z"/><path class="cls-18" d="M721.28,109.68v.2c-.2,.1-.3,0-.2-.2h.2Z"/><path class="cls-67" d="M284.88,241.38c-.9-1-1.5-1.9-2-3,2.9,.5,3,.6,2,3Z"/><path class="cls-171" d="M445.88,41.18c.1,.1,.3,.2,.3,.3-.1,.2-.2,.5-.4,.6-.3,.2-.5-.1-.4-.3,.2-.2,.4-.4,.5-.6Z"/><path class="cls-119" d="M337.38,127.58c-.1,0-.2,0-.2-.1-.1-.2,0-.2,.2-.2,.1,0,.1,.1,.2,.2-.1,0-.1,.1-.2,.1Z"/><path class="cls-78" d="M410.08,89.38c0,.3-.1,.5-.4,.5-.2,0-.4-.2-.6-.3-.1-.2-.1-.3,.2-.4,.3-.1,.6-.1,.8,.2Z"/><path class="cls-116" d="M381.18,97.38c-.1,.1-.3,.2-.4,.2s-.3-.1-.4-.2c.1-.1,.3-.2,.4-.2,.2,0,.3,.1,.4,.2Z"/><path class="cls-70" d="M418.18,100.48c-.1,.1-.2,.1-.3,.1,0-.3,.2-.5,.4-.6-.1,.1-.1,.3-.1,.5Z"/><path class="cls-42" d="M749.38,114.68c-.7-.3-1.2-.7-1.3-1.4-.3-1.7-.4-3.5-.1-5.2,0-.3,.3-.7,.5-.8,.5-.2,.8,.2,.9,.6,.7,2.2,1.9,4.3,1.5,6.7h0c-.3,.2-.6,.3-.9,.4-.2,0-.4-.1-.6-.3Z"/><path class="cls-76" d="M749.58,116.68c-.3,.5-.6,.9-1.2,1.1-1.2-1.4,.6-1.5,1-2.2,.3,.3,.3,.7,.2,1.1Z"/><path class="cls-36" d="M749.58,116.68c0-.4-.1-.7-.1-1.1v-.4c.1-.2,.3-.3,.5-.4,.4,0,.7,0,1.1-.1-.6,.6-1.1,1.3-1.5,2Z"/><path class="cls-82" d="M749.88,114.68c0,.3-.2,.4-.5,.4v-.4h.5Z"/><path class="cls-145" d="M788.18,127.18c-.4,.1-.9,.1-1.1,.6-.4-.2-.8-.4-.6-.8,0-.1,.6-.2,.9-.1,.3-.1,.5,.1,.8,.3Z"/><path class="cls-47" d="M754.08,116.18c-.2,0-.4-.1-.7-.1,.2-.3,.5-.5,.8-.2,.2,0,.1,.2-.1,.3Z"/><path class="cls-183" d="M761.88,120.58c.1,.3,.1,.4-.2,.5-.1-.2,0-.4,.2-.5Z"/></g></g></g><g id="Ebene_10"><polygon points="334.01 259.13 309.98 291.17 331.66 257.49 334.01 259.13 334.01 259.13"/><polygon points="636.88 166.31 668.61 190.75 635.21 168.65 636.88 166.31 636.88 166.31"/></g></svg>