<?xml version="1.0" encoding="UTF-8"?>
<svg xmlns="http://www.w3.org/2000/svg" version="1.1" viewBox="0 0 930 325">
  <!-- Generator: Adobe Illustrator 30.1.0, SVG Export Plug-In . SVG Version: 2.1.1 Build 136)  -->
  <defs>
    <style>
      .st0 {
        fill: #1d1e11;
      }

      .st1 {
        fill: #939d46;
      }

      .st2 {
        fill: #939f31;
      }

      .st3 {
        fill: #b6bd86;
      }

      .st4 {
        fill: #a0ab48;
      }

      .st5 {
        fill: #9da940;
      }

      .st6 {
        fill: #a8b350;
      }

      .st7 {
        fill: #86931e;
      }

      .st8 {
        fill: #050502;
      }

      .st9 {
        fill: #889238;
      }

      .st10 {
        fill: #7d8738;
      }

      .st11 {
        fill: #1b1b15;
      }

      .st12 {
        fill: #cdd49d;
      }

      .st13 {
        fill: #a9b54f;
      }

      .st14 {
        fill: #ccd39e;
      }

      .st15 {
        fill: #8c972f;
      }

      .st16 {
        fill: #f8f8f2;
      }

      .st17 {
        fill: #010101;
      }

      .st18 {
        fill: #020200;
      }

      .st19 {
        fill: #b0b96a;
      }

      .st20 {
        fill: #dadfb4;
      }

      .st21 {
        fill: #f6f7ed;
      }

      .st22 {
        fill: #a0aa58;
      }

      .st23 {
        fill: #030302;
      }

      .st24 {
        fill: #acb46a;
      }

      .st25 {
        fill: #b9c279;
      }

      .st26 {
        fill: #cfd6a1;
      }

      .st27 {
        fill: #b0b685;
      }

      .st28 {
        fill: #4c5400;
      }

      .st29 {
        fill: #080804;
      }

      .st30 {
        fill: #94a12c;
      }

      .st31 {
        fill: #838b40;
      }

      .st32 {
        fill: #383a2b;
      }

      .st33 {
        fill: #dfe1cf;
      }

      .st34 {
        fill: #bec398;
      }

      .st35 {
        fill: #393b2c;
      }

      .st36 {
        fill: #9aa541;
      }

      .st37 {
        fill: #f0f2e0;
      }

      .st38 {
        fill: #9ba833;
      }

      .st39 {
        fill: #dcdec7;
      }

      .st40 {
        fill: #f0f1e9;
      }

      .st41 {
        fill: #a7a99b;
      }

      .st42 {
        fill: #9da847;
      }

      .st43 {
        fill: #bdc587;
      }

      .st44 {
        fill: #3e4030;
      }

      .st45 {
        fill: #c1c892;
      }

      .st46 {
        fill: #2b2d1a;
      }

      .st47 {
        fill: #fafbf4;
      }

      .st48 {
        fill: #212500;
      }

      .st49 {
        fill: #b8bd99;
      }

      .st50 {
        fill: #7b8900;
      }

      .st51 {
        fill: #a7b351;
      }

      .st52 {
        fill: #acaf8b;
      }

      .st53 {
        fill: #e0e3cd;
      }

      .st54 {
        fill: #727a32;
      }

      .st55 {
        fill: #6d7054;
      }

      .st56 {
        fill: #95996a;
      }

      .st57 {
        fill: #1e2013;
      }

      .st58 {
        fill: #101200;
      }

      .st59 {
        fill: #c0c3a0;
      }

      .st60 {
        fill: #242711;
      }

      .st61 {
        fill: #0d0d0a;
      }

      .st62 {
        fill: #141510;
      }

      .st63 {
        fill: #d9dcc5;
      }

      .st64 {
        fill: #7f8648;
      }

      .st65 {
        fill: #8f9a37;
      }

      .st66 {
        fill: #9fab3c;
      }

      .st67 {
        fill: #9ca45e;
      }

      .st68 {
        fill: #ebeddd;
      }

      .st69 {
        fill: #262912;
      }

      .st70 {
        fill: #d0d7a1;
      }

      .st71 {
        fill: #030301;
      }

      .st72 {
        fill: #ebece2;
      }

      .st73 {
        fill: #98a531;
      }

      .st74 {
        fill: #3a3b2e;
      }

      .st75 {
        fill: #889330;
      }

      .st76 {
        fill: #d7ddae;
      }

      .st77 {
        fill: #87932d;
      }

      .st78 {
        fill: #94a03b;
      }

      .st79 {
        fill: #050600;
      }

      .st80 {
        fill: #919d35;
      }

      .st81 {
        fill: #060700;
      }

      .st82 {
        fill: #8f9a25;
      }

      .st83 {
        fill: #98a348;
      }

      .st84 {
        fill: #8f9a35;
      }

      .st85 {
        fill: #080904;
      }

      .st86 {
        fill: #0f1107;
      }

      .st87 {
        fill: #0d0e06;
      }

      .st88 {
        fill: #2e3114;
      }

      .st89 {
        fill: #030300;
      }

      .st90 {
        fill: #798601;
      }

      .st91 {
        fill: #7d8a0c;
      }

      .st92 {
        fill: #737c33;
      }

      .st93 {
        fill: #c6cd9a;
      }

      .st94 {
        fill: #798040;
      }

      .st95 {
        fill: #0c0c07;
      }

      .st96 {
        fill: #dde2ba;
      }

      .st97 {
        fill: #98a337;
      }

      .st98 {
        fill: #010200;
      }

      .st99 {
        fill: #b7ba9f;
      }

      .st100 {
        fill: #6e7631;
      }

      .st101 {
        fill: #191b0c;
      }

      .st102 {
        fill: #9aa632;
      }

      .st103 {
        fill: #d1d8a1;
      }

      .st104 {
        fill: #9ca83f;
      }

      .st105 {
        fill: #8a9533;
      }

      .st106 {
        fill: #ebebe7;
      }

      .st107 {
        fill: #8c9735;
      }

      .st108 {
        fill: #c2c6a3;
      }

      .st109 {
        fill: #a8b44f;
      }

      .st110 {
        fill: #879134;
      }

      .st111 {
        fill: #a8b44e;
      }

      .st112 {
        fill: #f1f3e4;
      }

      .st113 {
        fill: #aeb288;
      }

      .st114 {
        fill: #232700;
      }

      .st115 {
        fill: #fff;
      }

      .st116 {
        fill: #929e37;
      }

      .st117 {
        fill: #040400;
      }

      .st118 {
        fill: #e9e9e7;
      }

      .st119 {
        fill: #eef1dd;
      }

      .st120 {
        fill: #e4e8c8;
      }

      .st121 {
        fill: #a2a491;
      }

      .st122 {
        fill: #ecede3;
      }

      .st123 {
        fill: #84920e;
      }

      .st124 {
        fill: #818d1f;
      }

      .st125 {
        fill: #ccd39d;
      }

      .st126 {
        fill: #8e9649;
      }

      .st127 {
        fill: #84910c;
      }

      .st128 {
        fill: #222604;
      }

      .st129 {
        fill: #8c9737;
      }

      .st130 {
        fill: #f2f3eb;
      }

      .st131 {
        fill: #252811;
      }

      .st132 {
        fill: #464936;
      }

      .st133 {
        fill: #323518;
      }

      .st134 {
        fill: #869222;
      }

      .st135 {
        fill: #8c9734;
      }

      .st136 {
        fill: #0f1007;
      }

      .st137 {
        fill: #7c8821;
      }

      .st138 {
        fill: #909c31;
      }

      .st139 {
        fill: #a9b450;
      }

      .st140 {
        fill: #20230f;
      }

      .st141 {
        fill: #d1d8a2;
      }

      .st142 {
        fill: #2a2c21;
      }

      .st143 {
        fill: #9ba838;
      }

      .st144 {
        fill: #dce2ba;
      }

      .st145 {
        fill: #e5e6df;
      }

      .st146 {
        fill: #9da27a;
      }

      .st147 {
        fill: #a6b151;
      }

      .st148 {
        fill: #17180b;
      }

      .st149 {
        fill: #8e9842;
      }

      .st150 {
        fill: #778031;
      }

      .st151 {
        fill: #929e32;
      }

      .st152 {
        fill: #040502;
      }

      .st153 {
        fill: #141605;
      }

      .st154 {
        fill: #070803;
      }

      .st155 {
        fill: #f1f4e4;
      }

      .st156 {
        fill: #e0e3cc;
      }

      .st157 {
        fill: #acb56e;
      }

      .st158 {
        fill: #a2ae4d;
      }

      .st159 {
        fill: #787f37;
      }

      .st160 {
        fill: #8c982e;
      }

      .st161 {
        fill: #8d954b;
      }

      .st162 {
        fill: #e6e7df;
      }

      .st163 {
        fill: #99a631;
      }

      .st164 {
        fill: #bfc599;
      }

      .st165 {
        fill: #020201;
      }

      .st166 {
        fill: #6e6e6d;
      }

      .st167 {
        fill: #8e983c;
      }

      .st168 {
        fill: #98a537;
      }

      .st169 {
        fill: #ababab;
      }

      .st170 {
        fill: #7b8901;
      }

      .st171 {
        fill: #a7b068;
      }

      .st172 {
        fill: #cad19c;
      }

      .st173 {
        fill: #c5cd95;
      }

      .st174 {
        fill: #010100;
      }

      .st175 {
        fill: #a5b148;
      }

      .st176 {
        fill: #d7d9c6;
      }

      .st177 {
        fill: #131509;
      }

      .st178 {
        fill: #9fab47;
      }

      .st179 {
        fill: #99a448;
      }

      .st180 {
        fill: #d0d8a1;
      }

      .st181 {
        fill: #dcded3;
      }

      .st182 {
        fill: #dee2bf;
      }

      .st183 {
        fill: #9fa289;
      }

      .st184 {
        fill: #070703;
      }

      .st185 {
        fill: #747f16;
      }

      .st186 {
        fill: #f8f9f0;
      }

      .st187 {
        fill: #95a03e;
      }

      .st188 {
        fill: #252525;
      }

      .st189 {
        fill: #a3ae56;
      }

      .st190 {
        fill: #282b13;
      }

      .st191 {
        fill: #7c8908;
      }

      .st192 {
        fill: #eff2e0;
      }

      .st193 {
        fill: #090907;
      }

      .st194 {
        fill: #9faa4a;
      }

      .st195 {
        fill: #b1b49a;
      }

      .st196 {
        fill: #eaedd5;
      }

      .st197 {
        fill: #babc9f;
      }

      .st198 {
        fill: #a5b14c;
      }

      .st199 {
        fill: #a6ab78;
      }

      .st200 {
        fill: #a9b365;
      }

      .st201 {
        fill: #e4e8c9;
      }

      .st202 {
        fill: #9ba644;
      }

      .st203 {
        fill: #5e652c;
      }

      .st204 {
        fill: #7f893c;
      }

      .st205 {
        fill: #333332;
      }

      .st206 {
        fill: #a8a8a8;
      }

      .st207 {
        fill: #b4bf6a;
      }

      .st208 {
        fill: #95a13e;
      }

      .st209 {
        fill: #818943;
      }

      .st210 {
        fill: #e0e2d3;
      }

      .st211 {
        fill: #5e6800;
      }

      .st212 {
        fill: #d8deb1;
      }

      .st213 {
        fill: #050602;
      }

      .st214 {
        fill: #86930f;
      }

      .st215 {
        fill: #131409;
      }

      .st216 {
        fill: #b1b880;
      }

      .st217 {
        fill: #9aa544;
      }

      .st218 {
        fill: #c4cb95;
      }

      .st219 {
        fill: #c4cc90;
      }

      .st220 {
        fill: #ededeb;
      }

      .st221 {
        fill: #fdfefc;
      }

      .st222 {
        fill: #93a02e;
      }

      .st223 {
        fill: #87903f;
      }

      .st224 {
        fill: #040501;
      }

      .st225 {
        fill: #d7ddaf;
      }

      .st226 {
        fill: #171810;
      }

      .st227 {
        fill: #869031;
      }

      .st228 {
        fill: #bdc19f;
      }

      .st229 {
        fill: #d0d3bb;
      }

      .st230 {
        fill: #a1ad3e;
      }
    </style>
  </defs>
  <g id="Ebene_3">
    <rect class="st45" x="1" y="0" width="929" height="325"/>
  </g>
  <g id="Ebene_10">
    <g>
      <path class="st141" d="M930,.5v324.5H.5c-.3-57.9-.4-115.9-.3-174-.2-1.4.2-2.1,1.3-2.2l-.6-.8c.2-1.9.3-3.9-.3-5.7C.2,95.1,0,47.8.2.4,310.2,0,620.1.1,930,.5Z"/>
      <path class="st192" d="M0,142.3V0h930v.5H.4s.1,141.8.1,141.8c-.1.4-.3.4-.6,0Z"/>
      <path class="st37" d="M1.5,148.8c-.9.7-1,1-1,2.6v173.6s-.5,0-.5,0v-176.2c0-1.4,1.2-1.4,1.5,0Z"/>
      <path class="st221" d="M1.5,148.8H0s0-6.5,0-6.5c.2,0,.4,0,.6,0,.5,0,1.2.1,1.3.5s.5,5.3-.3,6Z"/>
      <path class="st115" d="M924,34c1.1-.2,1,3.1,0,3.4-.2,5.5-.4,11.1-.4,16.7l-.5.5c-28.3,1-56.6,1.7-84.8,1.9l-.3-.5c0,.2-.1.4-.2.5-.3.3-7.2,0-8.3-.5,0,.5,0,.5-.4.5-3,0-6.1-.2-9.1-.5,0,.6-7.4.2-7,.3,4.4,0,8.7.3,13,.7,0-.2.1-.4.2-.5.3-.2,4.5.1,5.3.5,0-.3.1-.5.2-.5,1.7-.2,5.1-.2,6.3.5v-.5c27.4.4,54.9,1.4,82.5,2.5.5,0,1,.2,1.5.3s1,.4,1.5.7l1,.4c-.1,15.6-.3,31.3-.5,46.9l-1,.6-.5,1c-28.4,0-56.7-.9-84.9-2.6.2,1.3-.9,2-2.1,2.2-14.6,2.1-29.4,2.6-44.1,2.5-22.1-.3-44.1-.6-66.2-.9l-.5-.6.2-9-.7-1.5c1.2-10,5.7-21.5,10.3-30.4,3.7-.6,5.2-2.2,4.3-4.8,8.3-7.4,12.5-16.5,10.8-27.7l.8-1.4,135.9-.3h37.6Z"/>
      <path d="M891.5,9c7.1.2,14.2.3,21.3.4l.7.5c-7.1-.3-12.7.3-20.1.4l-91.8.5-66.2.3c10.3,6.2,13.6,12.2,15.2,23.2.9,6.2.6,12.9-2.1,18.9-2,4.3-5.4,7.4-8.6,10.6.2,1.1.6,2.2,0,3.1-1,1.3-3.1,1.5-4.5,2.1-4.7,8.2-8.6,22.1-10.2,31.2l-.2,8.2c1.1,1.6,1.5,5.3.2,6.8v1.5c0,0,1,1.7,1,1.7l1.4,9.9c8.4-.7,15.4,8,17.4,15.6,2,3.5,4.3,6.7,7,9.7.5.9.2,1.3-.8,1.5,0,.7-1.1.3-1,.3.3,0,1.1.3,1,.7.8,0,1.6.2,2.4.3s1.5.3,2.2.7c15.2,6.8,30.7,15.4,44.8,24.2s1.2.9,1.8,1.5,1.1,1.1,1.6,1.8c13.4,8.1,29.8,22,39.3,34.6s4.8,31.1,4.5,39.2c-.4,14.3-1.4,28.1-4,42.2s-1.5,8.1-3.4,11.4c-.7,1.3-1.2,1.3-1.8,0-.4-.1-.9-.4-.9-.7,0-1.2.9-4.1,1.3-5.4,0-1.9.7-3,1.8-3.3-.3-1.7,0-3,.6-4-.2-3.3.1-6.7.5-10,1.8-18.3,3.3-34.7,2.3-53.2-.2-4.1-.6-8.3-1.5-12.2-20.1-24.2-46.7-40.1-74.8-55.2l-2-1.7-.5-.5c0,.4-.2.4-.5,0l-.6-.5c0,.4-.1.5-.4,0l-1.4.2-5.7-2.9-.5-1.3c-2.2-.4-4.3-1.3-6-2.7h-2.5c-10.7-3.5-21.8-7.2-33.1-6-2.4-2.4,1.9-3.3,4.1-3.6,8.7,0,17.3,1.3,25.9,4.1-1.9-1.7-2.8-3.4-2.9-5.3-.6-.1-1.1-1-.9-1.6l-1.1-.9c-1.9-5.9-6.2-12.5-12.9-12.5.2,2.1-1.9,1.4-2.6-.2-8.9.1-17.8.2-26.7.2l-2.7-.5c-.3.7-.7.8-1.1.1l-1.8,1.2c-7.9,1.2-15.4,4.3-22.1,8.7-11.3,7.4-22.4,15.2-33.2,23.4l-1.5-.3c-.5.2-.7,0-.5-.5-.2-.3-.3-.5-.2-.6.7-1.5,12.3-10.6,13.8-11.6s3-2,4.5-2.9c.3-.7.8-.8,1.5-.5-.6-1.3.3-1.9,1.4-1,.2-.4.4-.9.7-1.3s.5-.8.9-1c12.4-8.9,24.3-16.7,40.1-17.3l22.4-.8.9,1c.4-.7,1.1-1.1,2.2-1.1-.6-2.7-1-5.5-1.1-8.2,1.1-.7,1-2.5.7-3.7-.9-.1-.9-.5,0-.9-2.5-2-5-5.3-4.4-8.5-.5-.2-.5-.6-.2-1-1.9.2-2.3-3.3-.7-3.8,2.8-.9,3,1.7,3,3.4s.5.8.7.4c-.4-.3-.4-.7,0-1-1-1.2-1-3.6.5-4.4-.2-.1-.4-.2-.4-.3,1.5-9.4,4.1-20.4,9.2-28.6l1-.6c.1-.8.1-1.4,0-2-.8,1.4-5.7,0-5.8-1.6h-3.9s-24-6.6-24-6.6c.9,2.5,1.3,5.1,1.3,7.7.2,1.8-.3,3-1.5,3.5.5.6.2,1.4-.6,1.6-.2,3.8-1.8,7.2-4.8,10.3-3.5,3.6-7.2,7-11.1,10.2-4,4.5-8.3,8.1-14.7,7.4-.3,4-2.2,18.2-6,19.8s-1.9-1.5-1.9-2.7c2.7-7.3,4.7-14.9,3.9-22.8,1-3.3,3.9-2,4.4,1,2.4,2.8,11.3-4.5,12.6-6.8,7-5.5,15.7-13.3,15.3-23-.3-7.3-5.5-8.7-12-9.9-9.1-1.6-10.9,1.6-14,9.5-2,1.1-3.3-.5-1.6-1.6-1.1-.9-.5-2.2.9-2.4-.3-.7.1-1.5.7-2l-.3-1.3c1.1-1.3,2-2.6,2.6-3.8l-21-3.9c.7,1.7.8,3,0,4,.7,1,.9,2.3,1,3.5.6.2,1,.7,1.3,1.2,1.2,1.9,1.7,9,1.7,11.5,1.6,0,4.3.2,5,1.7.6-.8,2.1-.6,3.1-.4.3-1.5,2.9-1.2,2.4.5.7.7.7,1,.2,1.6-1.5,2.4-7.5,2.1-10,1-3.3,1.4-3.7-.1-4.5-3-.6-7.1-1.8-14.4-3.7-21.4l-1-1.1c-11.4-1.5-22.9-2.9-34.5-4.1l-.5-1.1-1,.9c-3.3-.8-6.7-1.2-10-1.2l-1-.7c-.5-.2-1.1-.1-1.5.1.5,2.1.2,3.2-.9,3.4l.9,2.1c1.3-.3,3.1,3.4,3.5,4.6s.5,1.9-1,1.9c-.6,0-1.1-.4-1.5-1.5-1.6.5-3.3-3.2-3.9-4.7s-1-3.4-.2-5.3c-8.7-.9-17.3-1.8-26-2.9-2.5-.8-6.8-3.1-2.9-5.1-.7-1.7,3.1-3.6,3.9-2,2.5-1.2,2.3,1.4-.5,1.5v1.2c-1.2.3-.8.6,1.1,1,1.8,0,3.1.4,3.8,1.4.9-1.4,3.8-1,4.6.5.2-.4.8-.2,1.1,0l.5-1c17.6,1.5,26.4,2.3,26.4,2.3l.5,1c2.5-.3,5.1-.2,7.5.6,0-.4.3-1,.6-.9,9.3.8,19.5,2.2,28.8,3.5,30.1,4.4,61.1,11.8,90.8,20.3,1.1-.4,2-.4,2.7,0,.1-.8,0-1.5-.5-2-2.7.1-5.4-.4-8.1-1.6l-5.8-1.4c-1.9-.6-3.2-1.7-1.4-3.1s13.4,2,14.4,2.8l.8,1.2c17.4-10.8,14.1-43.1-5.2-49.7l-.6-1c-.9.1-1.5.4-1.8,1l-117,.5-.6-1c-5.6,1.3-12.6,1.3-18.4,1.1l-1-.7c-.6.5-.9.5-.7-.3l-2.5,1-291.7.7c3.7,9-1.2,18.6-6,26.3-11,17.6-27.5,33.7-43,47-1.5-.3-2.5-1.9-.9-2.7-.3-2,3.4-5,5.3-5,0-.3.2-.5.7-.5,0-.3.1-.4.5-.5l.4-1.4c4.9-5.1,9.8-10.2,14.8-15.3l2.4-1.2.4-.5c-.8-.6-.5-.9.4-.5l.5-.5.5-.5.5-.6c-.8-1.3,2.3-4.3,3.6-4.4l.4-.5c.5-.8,1.2-1.7,2.1-2,.3-1.4,1.3-2.7,2.8-3.9,1.1-2,2.4-4.2,4.2-5.6-1.1-.9-.2-2,1-2,.6-1.4,1.4-2.6,2.4-3.6,1-3.3,2.5-7.1,4.4-10-.3-.4-.3-.8,0-1,0-1,0-1.8.5-2.5-.1-.4,0-.9.4-1.5-.9-.6-1.4-1.7-1.5-3.4l-.8-1.4c-.9-.7-1.3-1.4-1.1-2.2-.5-.1-1.1-.4-1.1-1-.5.3-1,.3-1.5,0l-.5,1h-23.4c-18.5,4.7-36,12.4-53,21-33.2,16.8-64.8,37.6-94.6,60.4-24.9,19-52.2,43.3-69.1,69.4-5.6,8.6-11.9,24.5,3.4,26.1l.8,1c1.7.2,3.3.2,5,0,.1-1.5,3.6-1.6,4-.2l1-.3c.1-.5.3-.5.5,0l2.5-.4,1.1-1.1,7.4-1.7,1.5.7c.3-.5.6-.6,1-.5.4-.4,1.1-.7,1.5-.5.3-.3.8-.4,1.5-.4l2.6-1.8c10.9-3.8,21.6-7.9,32.2-12.3h1.6c1.4-.4,1.7-.3,1,.6,0,.2.2.4.2.7,0,.7-11.5,5.1-13.1,5.7-.3.4-.7.8-1.1,1.1s-.8.7-1.2.8c-12.8,5.2-41.2,16.5-55.5,11.6-3.9-1.4-6.3-4.1-7.4-8.1-3.7-13.7,13-34,21.6-43.9l1.6-.4c.5-.9,1.2-1.6,2-2,5.4-6.7,12-12.8,18.5-18.5l.2-1.5c6.1-3.8,10.8-8.6,14.1-14.5h1.2c0,0,0-1.8,0-1.8,22.4-29.6,54.9-53.2,91.2-61.3l8.8-4.4h1.8c.2-1,.9-1.7,2.4-2.2l-4.8-6.6c-.8-2.2.6-3.7,2.2-2.2.3-.2.8-.5,1-.3.7.6,6.1,6.3,6.2,6.7l-.3.4c13.4-8,28.2-13.8,42.8-19-80,0-160,.2-239.8.6l-.4.4.2,127.4-.7.5c-.2,40.6-.2,81.2.1,121.6l1,.4-.2,48.6h29.6c.8.5,1.7.6,2.7.3l1.8.7.3-1c15.4,0,30.7,0,46.1,0l.6,1c1.8-.5,4.3-.4,6,0,2.4-.4,5.5-.4,8,0l.5-1c81.6.2,163.2.3,244.8.5l.6,1c.7-1.4,3.9-1.6,4.4,0l7-.9c-.1-.8-.2-1.5.5-2l-1.3-1.1c-1.2-6.1-2.8-12.1-4.9-17.8-4.8-10-10-19.9-15.7-29.6l-.2-1.9c-.9-.2-2.3-1.2-1.5-2h-1.1c-2.5-3.6-5.1-7.3-7.7-10.8-.4.2-.9-.2-1.4-1-1.3.1-2.5-.4-3.6-1.7-10.8-5.8-22-10.9-33.5-15.2-3.3-1.4-5.9-2.1-9.4-.7-2.5,0-4.4-1.8-2.6-3.4l.7-1c3.7.7,10.9-3.7,6.9-7.6s-5.7-2.6-6.4-2.3-1.2,7.4-1.2,8.8c-.9.2-1.1.9-1.1,1.7.4.2.4.3,0,.5l.4.3c5,16.7,9.9,33.5,14.9,50.4,2.4,10.4,3.7,21,4.5,31.6-.5,2.6-2.7,2.8-3.9.5-2.3-22.3-7.8-43.1-15.1-64.7-1.5-5.1-2.7-10.2-3.9-15.3s-.5-12.7,2.7-16.8,2.3-1.8,3.2-1.4c-.3-.3-.2-.9.2-1.1-.9-.3-1.5-1.1-1.9-2.5-1.5-2.6-4.6-7.9-6.8-9.8s-9.6-5.5-10.3-5.6c-22,6.2-45.7,8.8-67.9,11.2-16.7,2.5-36.8,5.6-51.8,14.3-14.6,8.4-28.3,18.6-40.4,30.2-19.3,18.5-31.9,40-44.4,62-2.3,2.5-4.5.5-3.6-1.3,5.9-13.1,15.7-28.3,24.4-39.8,18.1-23.9,45.4-47.4,72.6-60.2s12.3-5.6,18.2-5.1c.2,0,.4.2.6.5-.1-.8,1.3-.8,1.5,0,.3-.3.3-.7,0-1,0,.8-1.4.7-1.5,0-1.3.6-2.9.8-4.7.7-16.3-2.2-32.7-3.7-48.3,2.8-.4-.1-1.8-1.1-1.6-1.6s3.1-3.4,3.6-1.7c1.8-2.5,6.4-3.5,9.5-4.1,15.9-3.3,32.9-1.3,48.7,2.2,11.1-1.4,22.4-2.7,33.9-3.8l-4.5-2v-1.2c-1.6,0-3-.7-4.1-1.6-3.4-.3-6.8-1.3-10.2-2.9-4.1-1-7.9-2.4-11.3-4.5-1,.3-2.2,0-3-.6-.5.3-2.4.3-2.5-.5-4.2,0-8.4-.5-12.5-1.5l-.5-.5c0,.3-.2.5-.2.5-1.6,0-3.2-.2-4.8-.5l-.6,1c-11.2-.5-22.8-.4-33.6,3.3l-3.9,13.5c-.1.6-.7.6-1.3.6,0,2-.7,3-2.4,4.1.6.9-.9,1.1-1.7.7s-.4-2,0-2.4c-.2,0-.3-.2-.3-.2.6-2.4,1.7-5.2,3.2-7.2-.3-.2-.8-.5-.8-.8.5-1.7,2.7-7.6,3.6-9s1.2-1.7,2.3-1.3c.7-.9,3.7-3.7,4.5-3.1s.3.4.4.6c.5-3.2.6-6.4.1-9.7.2-1,.8-1.2,1.6-.5s.2,7.5,0,8.8l1.2-.9,11.9-.8c24-1.5,49.2,3,70.9,14.6.7-.9,1.6-1.8,2.6-2.8l1.1.4c0-.4.2-.4.4,0l.6-.4c-.3-.9.6-.8,1.4-.6l.6-1.3c6-1.6,12-2.9,18.1-3.8,5.1-1.2,10.5-2.9,13.5-7.4l1.3-.3c-.1-1.1-.5-1.8-1.1-2.1l-1.6-9c-.5-1.6-.2-2.7.8-3.4l-.6-1,3.9-6.7-1.5-1.5c-3.9-2.2-5.5-4.6-6.1-9-.3-1.9-.6-6.3,1.1-7.2-.7-.7-.9-1.7-.6-3.1,1-3.1,1.5-6.2,1.7-9.2-1-5.6-3.9-10.6-8.6-14.8v-1.6c-1.1-1.1-.9-1.3.5-.5,1.7-1.4,5.3,2.6,6.5,4.2,3.3,4.2,5.8,8,6,13.6,1.6-.3,3.3-.2,4.2,1.2-.7-1.5-.7-2.6-.1-3.4-2.2-.5-3.8-4.2-4.6-6.4s0-.3.1-.5c-1-.9-2.1-3.1-2-4.6-.9-.5-1.4-1.5-1.5-2.5-.2,0-.5,0-.6-.2-1.2-1.2-3.3-3.1-4.3-4.4s-.1-.5,0-.8l-1.1-1.1c-.9.3-1.1-.2-.4-.9-.9-1.9,1.7,0,2.5,1l1.4-.4c1.2.4,3.2,2.4,4.1,3.4,1.5,1.6,4.1,4.7,3.1,6.7l1.4.7c1.4,3,3.2,5.7,5.3,8.3,1,1.4,1,2.5.1,3.3,1.1.2,1.4,1.1.8,2.7l-2.9,4.2c6.2,7.3,4.8,15.2-5.7,14.7,0,.7.2,1.2.5,1.6,3.9,1.6,5.7,4,5.2,7.1-1.1,2.8-2.5,5.4-4.1,7.9,1.2,4.8,1.9,9.7,2,14.7l-1.1.8c.3.4.8.9.6,1.3-1.5,3.3-7.3,5.4-10.6,6.2l-.7,1.1c-7.1,1.5-14.1,3.2-21.1,4.9-8.7,4.1-6.6,4.9,6.3,2.2l22.5-4.1c.8-1.1,1.4-2.4,1.7-3.8l1.2-.3c-.3-2.6,2.1-6.3,4.4-7.5l.2-1.3c3.8-1.9,8.1-2.9,12.7-3,2.8-1.8,5.7-2.8,8.9-3,5.5-2.4,11.4-1.4,16.6,1.3l15.7,9.3c2,1.2,3.7,3.1,4.3,5.4l1.7,10.8c2.8,1,5.1,3.4,5.8,6.3,3,.5,4.4,2,5.8,4.7s1.2,3.5-.1,4c.1,1,.5,1.6,1.2,1.8.7,10.4.9,20.7.4,31.1.2,0,.3,0,.5,0,7.2,7.5,13.4,16.5,18.3,25.9v2.1c4.6,6.9,7.9,14.2,10.1,22,.4,0,1,0,1.1.3,2.1,5.2,3.4,11.5,4,17.1,11.6,0,23.1.2,34.7.2l.6.9c.2-1,.6-.8,1,0l1.3-.9h6.9c0-.1,1.3.9,1.3.9l2-1h22.2c-.1-1.2.1-2.2.8-3-.9-1-1.6-2.4-2.1-4-1.2-.4-2.6-1.7-3.6-2.8-2.2-.7-5.8-2.7-5.5-5.1l-.4-.4c-.1.4-.3.4-.5,0-1.2-.6-.9-1.1.9-1.6l-1.1-.5c0-2.6,0-5.1-.2-7.7-1.6-1.9-.3-3.9,1.4-1.8.5-2.1-1.1-5.2-3.7-3.9-.5,1.5-1.3,2.6-2.3,3.2,0,.5-.2.7-.5.6-.4.3-.6.2-.6-.4-2.5-1.6.9-6.3,3.2-7,8.1-2.3,7.9,6.7,6.6,12.2,5.1-7.4,14.1-2.3,10.4,6.4,0,2.4-.3,4.8-1,7,1.8,2.6,2.2,5.8,2.6,8.8h37.4c0,.2,0,.5,0,.4,11.1-21.9,24-42.8,37.1-63.5l13.1-22.3c5.6-9.6,12.6-18,20.4-25.9s4.7-4.8,8.7-5.1l1.1-1.4c23-9,46-18,68.9-26.9l.9.7,1.2-1c7.4-3.2,15-6.1,22.8-8.7l.9.7c.8-.2,1.2,0,.9.6v1.1s-9.8,4-29.2,11.9c-.3-.7-.7-.9-1.2-.6-.1.5-.3.4-.5,0l-.6.5v.7c-10,4.2-20.2,8.2-30.5,12l-.9-.7c-.6.5-1.3,1-2,1-.1.4-.7.4-1,0-.4.8-1.7,1.4-2.5,1-.5.5-1.2.9-2,1,0,.3-.3.3-.5,0,0,.4.1,1-.1,1.1-4.4,2.5-11,4.9-15.8,5.7-3.5,1.8-7.1,3.3-11.1,4.4-.4,1.5-1.5,2.7-3.2,3.7l-8.6,9.9-1.6.5c-.9,1.7-1.9,3.4-3.5,4.5l-.6,2.5-6,8.9c-9.5,17.1-19.7,34-30.5,50.7-4.4,8.1-9.4,15.8-14.8,23.2.3.6,0,.9-.6,1l.4,1.5c-.9,2.2-3,5.8-4.9,7,.1.1,0,.3-.4.5,2.2.4,6.3,1,7.6-.7h69.9c3.2-16.1,4.8-24.2,4.8-24.2,3.1-3.9,3.4.4,3.3,3.3-.8,7.1-2,14.1-3.6,21l83.4.2.6,1c.9-.4,2.2-.5,3,0,3.7-.4,8.2-.4,12,0,12.7-.7,26.6-.6,39.5,0,2.6-.4,5.8-.4,8.5,0,3.4-1.2,6.6-1.2,10,0,1.5-.4,3.6-.4,5,0,1.9-.4,4.5-.4,6.5,0,0-.1.2-.2.2-.2,5.3-.2,11.7-.4,16.9,0s.2.2.3.4c8.6.2,17.5.2,26.2,0s.2-.3.3-.7h50.3s.6,1,.6,1c1.2-.4,2.8-.3,4,0,.9-1.5,3.4-1.6,4.4-.1.6-1.7,3.3-1.1,4.6-.2,5.6,0,11.1,0,16.6.4l57.9.2c.7.4.3,1-.4,1.1l-55.2.3h-171.8s-126.9-.1-126.9-.1h-155.4c-58.6-.2-117.4-.2-176.2,0-30.6,1-61.9.4-92.2-.5l-128.6-.3-.6,1.2c0,.1-.7,0-.7-.4l-.5-25.5-.5-62.9c-.5-5.2-.4-10.7,0-16l-.3-72.2-.2-75.6-.2-51.4c0-1.2.7-2.6,2.3-2.6l256.7-.7,21-.4,5.7.3,403.5-.9h18.3c0,0,177.7-.2,177.7-.2Z"/>
      <path class="st115" d="M922.9,130.2l1,.4c-.1,17-.3,34.1-.4,51.2l-1,.6c-1.2.3-2.5.3-4.1.3l-72.9,1.4-41.5.6c-17.2-10.4-34.6-20.3-52.9-28.4-.9-.4-1-.8,0-1,.8-1.9-4.9-5.1-7.3-11.2s-1.7-5.6-3.8-7.8c-5.3-5.5-6.1-6.5-13.2-7.2-1.1-4.1-1.6-8.2-1.8-12.2v-2.3c23-.8,46,0,68.9,1.3s25.9,2.4,38.7,5l7.3,6.9c27.5.3,55.1.8,82.5,1.2.3.3.5.7.6,1.3Z"/>
      <path class="st17" d="M925.5,97.4c.4,3.2.4,6.8,0,10l-.2,25.6-.5,67.7-.2,30.4-.2,29.7-.2,29.3-.3,27.3c0,.8-1.6.8-2.3.3l1-135.4.4-52.1-1-.6c0-7.1,0-14.2.1-21.3l1-.6.5-47.8c-1.1-2.3-1.2-5.3.2-7.4,0-5.1,0-10.2.3-15.2v-3.4s1.1-26.9,1.1-26.9l.5,43.3v13.5s0,33.4,0,33.4Z"/>
      <path class="st13" d="M406.3,316.9l-83.3.2h-8.2s-84.6.2-84.6.2c-12.5,0-24.2,1.9-36.7,1.4l-35.4-1.3c-2.5,0-4.6-.3-7-.3l-12.5-.2c-.4,0-.8-.1-.6-.4h24.6s65.5,0,65.5,0h177.2c.7,0,1.1,0,1.1.4Z"/>
      <path class="st158" d="M840.4,312c0,.7.1,2.9,1,2.9l16.1.2c.4,0,.8.1.6.4l-21.1-.2c-1.8-.6.1-4.4,1.7-3.3.6,0,1.2,0,1.8,0Z"/>
      <path class="st35" d="M914.5,10c-.2-.3-.3-.3-.5,0-.2,0-.3,0-.5,0-6.9-1.3-14.1,0-21.4-.6s-.8,0-.6-.4h27.6c-1.3,1.3-3,1-4.6,1Z"/>
      <path class="st76" d="M7,228.6c-.4,0-.5-.4-.5-1v-14c0-.5.1-1,.5-1v16Z"/>
      <path class="st20" d="M925.5,107.3v-10c.4,0,.5.4.5,1v8c0,.5-.1,1-.5,1Z"/>
      <path class="st186" d="M926.5,66.4c-.1.4-.3.4-.5,0,.3-2.2-.6-4.4.5-6.7.5,2.5-.2,4.5,0,6.7Z"/>
      <path class="st196" d="M925.8,157.3c-.4-1.8-.4-3.6,0-5.6.4,1.8.4,3.6,0,5.6Z"/>
      <path class="st96" d="M926,66.4h.5c.2,1.3,0,2.7-.2,4-.7-1.6-.1-2.8-.3-4Z"/>
      <path class="st21" d="M926.2,53.4c-.4-1-.5-2,0-3.5.4.9.4,1.8,0,3.5Z"/>
      <path class="st196" d="M925.7,150.8c-.4-.7-.4-1.4,0-2.5.5.5.4,1.2,0,2.5Z"/>
      <path d="M914.5,10c-.2,0-.3,0-.5,0,0-.6.5-.6.5,0Z"/>
      <path class="st141" d="M923.1,107.8v22.4c-.6-.4-1.2-.4-2.1-.4l-81.7-1.1-7.1-7c-14.2-2.8-28.2-4.3-42.7-5.1-21.5-1.2-42.6-1.5-64.1-1.5-.4.7-.2,1.2-.3,1.8-.3-5.5-.9-11.1,0-16.5v8.7c.1,0,64.5.8,64.5.8,15.6.2,30.6-.3,45.9-2.4.5,0,1.2-.4,1.4-.8s-.8-.6-.8-1.5l20.5,1.1,30,1.2,36.5.4Z"/>
      <path class="st141" d="M923.6,60c-7.5,0-14.7-.3-22.6-.6l-62.9-2.4c-1.3-.2-1.3-.6,0-1l7.1-.2,78.3-2.2v-15.1c0-.5.2-1.2.5-1.1,0,7.9.2,15.2-.4,22.6Z"/>
      <path class="st119" d="M820.1,55.9c2,.2,4,.4,6,.4v.6c-2.2-.2-4.6.1-7-.1l-6.1-.6c2.4-.5,4.7-.3,7-.3Z"/>
      <path class="st201" d="M829.6,55.9c1.2,0,1.9.4,2,1h-5.5c-.6-1.2-6.2.2-6-1h9.5Z"/>
      <polygon class="st20" points="838 55.9 838 56.9 831.6 56.9 829.6 55.9 838 55.9"/>
      <path class="st50" d="M727.1,132.8c.2-.1.5-.3.7-.3,1.4-.1,10.1,7.8,9.7,10.4,1.8,1.1,2.8,2.4,3,3.8.6.5,1.1.9,1.5,1.2,1.7,2.3,3.6,4.4,5.6,6.9-7.8-1.6-26.6-8.1-33.3-3,4.7-.2,8.9-.7,13.4.3,7.9,1.7,15.6,3.6,22.8,6.6,1.1,1.1,4,2.4,6,2.7,2.5,1.2,5.3,2.2,7.5,4,19.4,14.3,39,29.7,55.5,48.6l11.8,10.3c5.3,4.9,6.4,13,6.8,19.8,2.2,10.9,4.1,22.4,3.5,33.5l-.7.9c-.3,8-.4,16-.1,24l-2.3,9.4c-.9.9-1.5,2.1-1.7,3.3-1.4,0-2.9.1-4.4.1l-1-.4c-.8-.4-1.7-.4-2.5,0,.2.1,0,.3-.5.4h-40.9c0,0-10.5,0-10.5,0l-25,.2c-.5,0-1.1,0-1-.4v-.4c.1,0,26.5,0,26.5,0-14.7,0-29.4,0-44-.3-2,.4-4.5.4-6.5,0-1.6.2-3.3.4-5,.5-3.3,0-6.7,0-10,0-2.8-.2-5.7-.4-8.5-.5-13.1.3-26.4.2-39.5,0-3.7.4-8.2.4-12,0-1,.1-2,.3-3,.5l-85.3-.2c.8-3,5.9-26.3,3.3-25.9s-.6.4-.7.9c-1.2,8.4-3,16.5-4.8,25h-70.8c-1.1,0-7.9.7-7.6-.4,5-.5,5.2-.6.4-.5,1.1-3,3.1-5.6,4.5-8.4.6-.2.8-.5.6-1,7.9-14,16.2-27.6,25-41.4s11.7-18.8,17-28.8c3-5.5,6.3-10.4,9.9-15.2,1.6-1.2,2.6-2.8,3.5-4.5,4-5.1,8-10.6,13.5-14,3.9-1.5,7.8-2.8,11.6-3.9,1-.8,2.3-1.3,4-1.5l8.7-.7,33.9-11.8,7.5-7.3c1.4-.8,2.1-1.3,1.9-1.8l30.4-12.4c0-.5-.4-.7-.9-.6l-24.9,9c-1.2-1.2.1-2.9,1.5-1.7,1.1-1,2.4-2,3.7-2.8s.4,0,.6.2c3.6-1.8,6.2-4.9,9.7-7.2l23.6-16.1c7.8-5.3,16.2-8.7,25.2-9.7.4.1.8.1,1.1-.1,9.8-.5,19.7-.7,29.8-.7s.8,1.3,1.1,1.4.7.1,1.1-.2Z"/>
      <path class="st50" d="M282.4,209.7c-.4.2-.5.7-.2,1.1-.4,1.1-2.2,1.4-2.8,2.5-3.1,5.2-3.2,11.3-1.8,17.2,2.4,10.5,5.4,20.4,8.7,30.7,7,21.8,6.7,25.8,9.9,47.5,0,.5,1.2,1.2,1.4.9s.6-.8.5-1.3c-.9-10.3-2.1-20.4-4.4-30.6s-14.7-46.8-14.5-51.5c.8-.8,1.1-.8,1.1,0-.2.2-.6.9-.3,1.2,1.9,2.3,4.4.5,6.6.3,3.4-.4,29.1,11.4,34.1,13.8s6.4,3.4,8.8,5.7c.6.5.9,1,.9,1.5,1.1.1,2.1,1.7,2.7,2.7,7,11.8,12.6,25.1,16.6,38.1.3,4.8,1.7,9.4,4.2,13.8,1.5,4.6,1.8,8.6-2.5,11.3l-245.9-.5c-2.7-.2-5.3-.4-8-.5-2,.1-4,.3-6,.5h-47.1c-1.3-.3-1.9-.8-1.9-1.5-.9-1.3-2.8-4.4-1.6-5.6-2.3-6.7-2.1-13.4-.8-20.4,3.7-20.2,16.1-35,32-47.2-1.8-2.2-.1-4.9,1.4-6.7l1-1.6c7.7-6.6,16.8-11.7,25.7-16.6.5-.3,1.1-.4,1.7-.6s1.3-.2,1.9-.2l1.6-.5c.2-.4.5-.6,1-.5.1-.3.3-.3.5,0l1-1,.5-.6.8-1.5,6.1-3.1-.4-.9c-2.2.5-1.3-2.9,0-3.1v2c2.2-.2,2.7-3.4,4-4.5,1.4,0,1.7,1.5.9,2.6-1,.4-1.9,1.2-3.1,1.8.8,1.1,1.8.4,2.6,0,20.9-8.1,39.2-2.3,51.5-2,1.1.1,1,.8,0,1.1-16.5.3-47.1,22-60.5,33.5-24.8,21.3-39.4,42.8-54.2,71.4-.2.4.2,1.5.6,1.4s.9-.2,1.1-.6l14-23.9c16.8-28.7,41.7-51.6,70.4-68.4,12.1-7.1,25-10.1,38.6-12.5l14.5-2.5,20.1-2.2c8.7-1,16.9-2.3,25.5-4,6.6-1.4,13-2,19.4-4.1,1.5-.5,2.8-1.5,4.6-.4l9.2,5.2c1.3.7,9.1,11.9,8.3,13.2Z"/>
      <path class="st115" d="M607.7,115.8c1.6-.3,1.3.6.3,1.7-5.3,2.4-5.9,4.5-1.9,6.4,1.7,1.3,2.5,2.9,2.4,4.7,0,9.2,5.9,16,14.7,18.8,7.4-1.5,14.8-2.8,22.3-3.7,2.6-.5,7.9.9,7.1,4,.7.5,1,1.1,1,1.6-6.9,4.2-13.1,9.5-18.8,15l-1,.4c.3.4.1.7-.6,1,.5.7-.6,1.5-1.4,1.5l-.4.5c.4,0,.4.2,0,.3-.7,0-1.2,1.2-1.5,1.7l-25.9,10-34.9,13.7c-3.6,1.4-6.8,2.8-10.2,3.8l-4.3,1.2-98.7,5-107,9.2c-5.2,1.9-10.7,2.9-16.2,3l-.7-2.5c-.9-5.5-1.7-6.5-6.3-8.1-1.1-2.9-2.7-5.3-6-6.1l-1.7-10.7c-.4-2.6-2.2-4.5-4.3-5.7l-7.5-4.3c-3.3-1.9-13.5-10.2-22.9-6.2s-5,.2-7.2,2c-3.8,3.2-9.8.2-15.7,4.7-.9,1.3-3.8,1.6-4.3,0,1.4-7.4-3.1-13.7-1.6-16.5,1.3-2.3,2.9-4.2,3.7-6.7,2.1-6.3-7.4-4.6-5.1-9.7,3.3-.6,7.6-.2,8.9-4.4.7-2.3-.4-3.7-1.3-5.6s-.7-3-3.1-3.2l3.5-4.7c.5-.7.5-2.3.4-3-.3-1.4,0-2,1-1.9,52-1.6,105.1-2.4,159.3-2.4,60.6-2.1,121-4,181.4-5.5l4.8.9Z"/>
      <path class="st115" d="M565.2,36.5c0,.5-1,1.6-.3,2.3,1.4,1.4,3.7,2.1,5.8,2.3l24.7,2.5-.6,2c-.8,2.8,1.7,6.3,3.4,8.9,2.2,3-.2,7.3-2.1,10-5.9,6.1-9.2,11.8-9.1,20.6-2.6,8.4-1.4,11.5,7.2,13.8,2.9,1.2,3.8,7.2,4.1,10.2l-.9.9c0,.4,0,1-.3,1-38,1.2-76.2,2-114.2,2.6-75.6,1.2-151.9,2.4-227.4,0l-.9-1c-1.8-4-4.6-7.8-8.6-9.6-1.3-1.5-2.1-1.8-2.5-1,.2.3.3.6.4.9l1.1,1.1c2,1.5,3.8,3.3,5,5.4.6,1.2.4,1.4-.3.6-3.3-.9-7.4-4.7-8.1-8-1.1-.5-1.4-1.8-.9-3.9-2.3-2.4-.4-6.3,1.6-8.5h1.2c1-.4,2-.7,3-1s2-.5,3-.5c17.1-1.2,34.4-1.3,51.5-.9l67.1,2.2c7.7-.3,15.3-.5,23-.5l1.3.6c9.1-.9,18.1-1.2,27.1-1.5,1.7-.4,4.2-.4,6,0,1-.8-1-.8-2-.5-1.4.4-3.5.4-5,0,0,.2-.1.4-.2.4-8.6.6-17.3.9-25.9,1.1-.4.2-1.2.2-1.5,0-.9-.6,1.9-10,2.6-10.9s.4-.5.8-.8c.9-.6,19.6-1.9,22.2-2.1s5.6-.3,8.2-.3.6.1.6.5c0-.3.2-.5.3-.5,2.8-.2,6.5-.1,9.3,0,1.1-.4,2.5-.4,3.5,0,.3-.2.3-.3,0-.5-1.1.4-2.4.4-3.5,0,0,.1,0,.2-.2.2-2.4.2-6.9.6-9.2.2s-.6-.1-.7-.5l-.2.5c-32.5.8-66.3-1.9-99.4-4.9s-5.8-.4-8.7-.3c-1.3.1-1.6-.6-1.9-1.6-.7-2.1,2.9-3.9,4.8-3.8h-24.3c-1.8-.9-2-1.4-1.9-3.3l6.3-19.6,1.3-1c88.2-2.3,176.1-3.9,263.9-4.8l.6,1Z"/>
      <path class="st141" d="M558.7,197.3c-1.6.5-3.3,1.4-4.8,2.7-10.5,9.4-18.8,20.4-25.8,32.7-6.7,11.9-13.5,23-20.8,34.5-9.9,15.5-19,31.2-27.4,47.6h-39.1c.1-3.8-.7-6.8-2.4-9.8.8-2.2.7-4.4.9-6.8s1.7-5.4.3-7.5-6.3-2.1-7.9-.3-.8,5.3-2.5,8c-.9-4.6-.1-8.9.5-13.3s-2.1-5.7-5.1-5.2-4.6,3.5-4.4,6.3c-.7,2.6-4.8-.9-3.3-2.6.5-1.4.2-3.2-.2-4.6,2.8-3.7.5-11.1-5.1-7.9l-.6-.4-.9-.7c-.1-3.7-2.3-7.4-6.1-8.2-5.6-1.2-5.3,1.7-4.4,6.2-1.4,1.9-2.4,4.1-2.8,6.4-1.1,6.2-1.6,12.4-1.4,18.7,2,6.5,4.4,12.9,7.1,19.1l-.2.9c.7-.2,1.2,1.1.5,1.5h-36.2s-1-7.8-1-7.8l-3.3-10.6c-2.1-7.7-5.4-15.1-10-22-4.2-7-7.8-14.2-13.3-20.6-2.1-2.4-3.5-5.3-6.4-7.1.3-5.8,0-29.1-.8-33.3.4.3.5,1.3,1,1.6,5.5-.5,10.4-1.2,15.7-3.1l107.1-9.2,103.1-5.2Z"/>
      <path class="st141" d="M200.2,25.8c-.9-1.1-1.5-.7-2.1.5s-1.1-.2-1.3-.8l-2,.6c-14.7-2.6-29.9,2.2-43.2,8.5-26.7,12.7-52.2,35.5-65.4,61.9l-.8.7c0,1.3.2,1.6.5.9,1.3-4.4,3.9-9.3,6.7-13.1s1.2-1,2-1.2l1.1,1.4c.2,5.8.9,11.7,3.2,17.1l-.3,1.7-2.1,3.6c-3,5.2-8.9,8.5-13.4,12.4-5.3,4.6-10.5,9.5-15.3,14.7s-.5.3-.7-.1c-.3-1.3-5.8-.3-6.3.1l-2.4,6.3-1.3.9-46.1,1.2-.4.4v119.6s-1,.6-1,.6c-.2,0-.3.2-.5-.1v-120.2c0,0-.2-130.6-.2-130.6l65.2-.2,106.4-.3h75.6c-17.5,5.9-32.3,11.9-48.8,20.8l-7-7.6Z"/>
      <path class="st141" d="M591,11.7c.6.4-.2,1.1-.8.8-.2.8-1.2,1.6-2,1.5-3.9,2.7-7.8,5.3-11.8,8-2,1.4-12.7,9.2-6.4,9.8l.3.7c2.2.2.8,3.1-1,2-1.5.2-2.6,1.2-3.9,2l-49.5.5-55.5.9-74.5,1.5-85.4,1.9-6.4,19.8c-.2.7,0,1.3.3,1.6s.8.5,1.3.5h28.7s43.5-.6,43.5-.6l58.8-1,10.2.6-50.5,2-52.5.5c-3.2,0-16.7-.3-17.8,1.6s-.8,1.4-.5,2.4c4.2,0,8,0,12.3.6,23.3,2.7,46.3,4,69.8,4.5l27,.6c.9.2,1.2.4.4,1l-30.9,2.7-3,9.3c-.2.7.4,1.4.9,1.5.4.1.4.3,0,.5-8.9.2-17.6,1.2-26.9.8l-61.4-2c-20.4-.7-40.5-.4-60.5,1.2-1.3-1,.4-5.5,2.1-4.9.3-1.3.7-1.4,1.5-.5.2.6.2,1.4.8,1.9,12.1-10.8,60.9-56.1,47-73.4l88.6-.2,100.9-.3,73.9-.2h32.8Z"/>
      <path class="st50" d="M289.3,12.4l1,.5c.4-.2,1,0,1.6.5,2.5,1.4,3.4,4.2,3.4,7-.2.6-.5,1.1-.9,1.5.4.5.3,1.9-.5,2-.7,4.1-2.8,8.4-5,12-.3,1-.7,2-1.4,3,0,.7-.6,1.4-1,2-1.6,1.4-3,3.1-4.3,5.1-.8,1.4-2,3.1-3.2,3.9-.2.8-.7,1.7-1.6,2.5l-.4.5c-.6,1.8-2.3,3-3.6,4.4l-.5.6-.5.5-.5.5-.4.5-.4.5c-5.3,6.4-11.7,12-17.6,17.9-.2-.3-.4-.2-.5,0,.1.3-.2.4-.5.5l-.2.5c-1.5,1.9-3.6,3.2-5.3,5s-1,.4-1.5.5l-.9-.9c.4-3.4-1.2-6.2-3.7-8.4-5-3.5-9.3-7.5-12.9-12.2-8-2.9-18.1,1.1-25.8,4.3-28.2,11.7-61.7,34.7-81.3,58.4s-11.4,15.9-5.5,23.2c3.6,5.7,7,11.5,10.2,17.4l-.3,1.4c-.3,1.2-1.2,1.7-2.4,1.3-.3.4-.9.8-1.6,1.1.4.5.2.7-.5.5-1.1,1-3,2-4.5,2-12,5-23.9,10.6-36.4,14-.7.2-1.2.2-1.5,0-.2.5-1,.9-1.5.5l-1,1c-3.3.7-6.6,1.8-10,2.1l-2.5.4c-.1,0-.3,0-.5,0l-1,.3-4,.2h-2c-.4-.5-1.1-.5-1.5,0-.2.3-.7.3-1.5,0-3.2,0-6.7-1-9-3.5-5-5.3-1-14.9,2-20.5,9-17.1,32.4-40.6,47.2-53.2l9.6-8.1c24-20.3,49.7-38.5,76.9-54.4l7.6-4.4c23.7-13.8,51.6-28,78.2-34.7h24Z"/>
      <path class="st13" d="M240.8,76.8c.6,1.4-.6,1.7-3.5.8-3.6,3.3-3.1,7.7-1.9,11.9l3.7-2.1,1.1.5c.4,0,.4.2,0,.4l-.4.5.7,1.2c-2.4,3.9-3.5,7.8-3.5,11.7l.8,1c.2-.9.5-1.7.7-2.4,1.4-.7,1.7.3,1.9,1.5h1c2.4,2.8,5.4,5.4,8.1,8,.7.4,1.6,1.5,1.4,2.4.8,1.2,2,3.1,2,4.6l2.7,5.5c1-.2,1.8,0,2.3.8.7,1.7,2.3,3.9-.3,5.6-.1-1.1-.4-2.2-1.1-2.4-1.2-.4-2.1-.3-3.5.3,0-5.8-2.2-10.6-6.2-14.7s-3.2-3.5-5.3-4.4c-.9-.2-1.7-.6-2.5-1.4q.2-.5,0,0c.4,0,.4.2,0,.5.6.7.7,1.7.4,2.9l.5,1.9c5.5,7.5,8.7,15.1,7.9,24.5l.6.8c-.3,4.4-.9,9.1,2.1,13s6,3.8,5.4,4.8l-4.3,7.5h-1c1.1,0,.5.5-2,1.5,0,2.5-.7,4.7-1.8,6.6,1.1,1.9,2.5,3.4,4.3,4.5l.3,1.2c.7-.9,1.3-.4,1.5.6.2-.4.4-.4.6,0-5.5,10.3-22.9,8.8-33.5,12.9-1.3-.1-1.6,0-2.4,1-1.2,1-2.3,2.6-3.8,3.4-14.1-7.3-37.4-14.5-52.7-14.5h-16.8c-5.1,0-10.1,1.2-14.5.8v-8.2c-.9-.2-.9-.4,0-1.2.2-.4.5-.6.9-.5,2.7,3.1,4.4,1.1,5.2-6,1.2-1.1,2.1-2.5,2.5-4.1,9.1-5.2,15.7-10.9,19.7-20.8s1.4-7.8-.6-12.6c-.7-3.2-1.2-6.4-1.4-9.7l.9-1.2c.2-2.5,1.1-3.7,2.6-3.6l1.3,1c1.2,4.8,4.1,8.9,7.7,12.1,5.6,4.2,12.9,7.6,19.3,10.4,5,2.2,9,3,14.5,2.4.2-.4.4-9.6-2-9.1.8,1.6,2.1,6.4.4,7.5-4.3,2.8-14.7-2.8-18.7-5-13.5-3.9-28.3-17.2-17-31.2s23.1-5.5,23.3,5.3h.6c0,.1.6-.2.6-.2,1.4,1.1,2.5,2.8,3.3,5.1.8,1.3,2.1,2.1,4,2.3l1.1-.2c1.3,1.7,2.7,1.4,4.2-.9,3.6-.5,4.9-1.9,5.4-5.5.9-6.3-3.3-13.3-7.7-17.5-.2-1.5.1-3,1.1-4.5-.2-1.1,0-1.9.3-2.4.2-3.3,0-6.5-.7-9.6-1.1-1.5-1.4-2.6-.8-3.3,4.8-2.4,21.7-8.9,26.2-6.6,4.4,4.3,9,8.5,13.7,12.6l1,1.9Z"/>
      <path class="st13" d="M597.8,44c1.1.5,1.6,1.4,1.4,2.8.6.2,1.1.8,1.4,1.8,1.4,1.5,3.1,2.6,5,3.5,2.1,2.4,4.5,4.5,7.1,6.3h1.4c.1-.5.6-.8,1.4-.9,0-3.9-1-6.3-4.2-8.7-1.3-1.4-3.9-4.3-.7-4l34.1,3.9c1.5.2,2.6,1.2,2.9,2.6,1.2,5.4,2.5,10.5,3.1,16s0,5.9,1.7,8c1.5-1,2.8-1.1,4.4-.2s7,.6,7.6-2.3c.8-2,.7-4.4-.3-7,0-3,1.9-3.9,2.9-1.5.2.4,0,1.2.8,1.3,1.1-3.7,4-10.4,9.1-10.6s10.6,1.1,14.4,3.1c5.2,2.8,5,10.5,3.1,15-4.8,11.7-11.3,13-17.3,19.9-2.3,2.7-5.5,4.6-9.2,4.5s-1.5-3.3-3.8-3.2-.9.8-.8,1.6c.6,7-.8,13.6-3.2,20.2s-1.4,2.8,0,4.1c3.7-6.3,5-13.1,4.9-20.4,4.6.7,9-.4,12.1-3.8,7.6-8.3,15.3-10.8,19.8-23,.6-.5.8-.2.6.9.9.8,1.1,2.2.6,4.3-1.9,5.9-1.3,8.4,1.8,7.4,1,2,1.7,4.2,1.9,6.6l.6.2c.2-.3.5-.7.2-1.1-.4-.2-.4-.3,0-.5.6-.7,1.1-.4,1.4,1.1.8.2,1.4,1,1.7,2.4h1.8c1.6,3.1,3.5,6.1,5.9,8.7.2-.9.4-1.7.6-2.6,0-.4.2-1,.6-1,2.1.7,4.1.9,6,.5.4-1.1.7-1.2,1,0-.3,1.4.3,3.1-.5,4.4-.4.4-.4.6,0,1-.4,2.5-1.9-4.1-3.1-3.2-1.5,0-.3,2.4,0,3.2l-.4,1.5.6.5c.7,6.9,1.8,13.7,3.4,20.4l-.6,1.1-21.1.7c-10.7.3-20.8,3.4-29.9,9.1-4.9,3.1-9.4,6.4-13.9,9.6-1.4-.2-2.8-1.1-4-2.9-1.3-.7-2.1-1.5-2.3-2.5-.8-.6-1-.6-2,0-.7,1.3-3.6,1.5-4.5.4-.3-.2-.6-.1-1,.1l-.3,1c-5.3.6-10.6,1.4-16,2.5l-2.2-.5c-1,0-.9-.6-.2-1.1h-.7c-1.6-3.5-7.4-8.8-11.7-8.4-.4,0-.9,0-1.1-.2-.7-1-1.7-6.6-.4-7.3-.3-.8,0-1.1.6-.5.8-.4.8-.9,0-1.4-1.4-.7-2.8-1.8-3.8-3s0-.7.2-1.1c-.8-.8-.3-1.9,1.6-3.2.6-.7.7-1.3.4-1.8-1.3-2.7,2.4-2.1,4,0,2.4,2.4,6.5,6.1,2.3,1.6-2.4-2.5-5.3-5.2-8.5-6.4l-.6-1.2c-.7-.5-1.6-.8-2.7-1-1,1.1-4.9-1-3.8-2.5,0-.4-.2-.9-.6-1.6-.3-.1-.5-.3-.7-.5-.6-.6-1.8-6.3-1.2-7.4.2-.4.5-.3,1,.4,1.2-.2.9-1-.7-2.4-1-.9-3.3-2.7-2.5-.7.6.8.3,1-.9.6-.4,1.4-3.7,0-4.6-.5-2.1-1.3-4.9-3.5-2.4-5.5.2-1,.8-1,1,0,.5-1.4,1.9-2,4.3-1.8,0-9.8,2.3-19.3,7.2-27.6.3-.8.2-1.7,0-2.6-.7-.6-.4-3.1.5-3.5.1-.5.6-.8,0-1.6-1-1.6-1.7-3.4-2.5-4.9l-.9-2.1c.5-1.1-.2-2.5.9-3.4.1-.4.4-.3.6,0Z"/>
      <path class="st115" d="M67,134.8c.6.4.2,1-.5,1l-2.1,2.1c.4,0,.4.2,0,.4l-2,2.5c-8.2,10.4-21.3,24.5-22.6,38.4-.4,4,.4,8,3.3,10.8,5.8,5.7,21.9,2.6,29.4.8,11.1-2.7,21.4-7,31.8-11.1,6.8-2.4,13.7-5.4,19.8-9.2,0-1.2.8-1.1,1.5-.2,1.3,3.3,1.7,6.8,1.1,10.7l-3.9,3.2c0,.6-1.1,1.1-1.4,1.8l-3.7,9.3c-2,3.3-3.5,6.8-4.5,10.5l-1.9,1.8c-.8.9-1.7,1.8-2.8,2.4-13.8,7.3-26.1,14.1-38.8,23.2-10.4,7.5-21,16-28.9,25.7l-1.1-.2-2,1.4c-18.4,3.2-27.5,4.8-27.5,4.8l-.8-.9v-121.6s47.8-1.2,47.8-1.2l2.4-7c2.8-.9,5.6-1.1,8.6-1.3-.5.9-1.1,1.2-1.4,1.9Z"/>
      <path class="st50" d="M730.6,11.1v.8c6.2,5.8,13.2,15.8,14.3,24.4.7,6-1,12.5-3.6,17.7-2.8,2.1-4.1,4.4-3.9,7l-.8.8c-2-.5-14.2-4.4-14.8-3.1s-.3.9,0,1c5.2,1,10.1,2.5,14.9,4.2.8.2.6,1.3.5,2-.8.6-2,1.3-3.3.9-9.9-3.5-20-5-30-7.9s-19-4.6-28.7-6.8c-6.2-1.4-12.1-2.6-18.4-3.5l-13.2-1.9-29.2-3.6c-2.4-.8-5-.9-7.5-.6l-27.5-2.4c-.4-.3-.8-.3-1.1,0-1.5,0-3-.4-4.6-.5-.9-.4-1.7-1.1-2.4-2.1-1.3-.2-2.1-.7-2.5-1.5.4-.2,1-.7,1.4-1.2,0-.4-.6-.4-.9-.3.3,0,.6-.7.9-.8.5-.2,0-.9,0-1.2-4-2.2-.8-6.4,2.5-6.4l1.4-.6,6.2,1.8c5.2-3.6,11-6.8,17.4-9.8,4.4-3.1,8.1-5.2,13.5-5.9l30.6-.2,88.9-.3Z"/>
      <path class="st141" d="M597.2,109.8c1-.2,2,.3,2.9,1.4l7.1,3.4.5,1.3-101.9,2.7-55.6,2.1c-51,1.9-101.7.6-152.8,2.1l-35.1,1.1c-.8,0-1.2.3-1.1.9-.4-2.2-1.7-4.3-3.3-6.1s-2.6-4.2-3.5-6.3l55.9,1.4,94.4-.5,77.9-1,49.1-1,65.5-1.5Z"/>
      <path class="st13" d="M178.9,27.5c7,1.5,15.4,4.1,21.4,8.3v1.1c-7,4.2-8.9,5.3-17.3,7-6,1.2-11.1,3.5-16.6,6s-11,5-16.5,8c-11.1,6.1-20.9,13.9-30.2,22.6-5.8,5.5-11.1,10.7-15.9,17.1s-3.9,4.3-5.2,6.5c-3.2-6.7-3.7-13.2-4-20.2,0-.6-.2-1.3.1-1.8,3.8-7,14-16.6,20-22,13-11.7,27.8-21.2,43.9-28,3.8-1.6,15.8-6,19.1-5.2s.8.3,1.3.5Z"/>
      <path class="st141" d="M39.8,258.7l-.2,1.9c-4.2,5.6-5.7,11.8-6,18.7-.4,11.2.9,23.2,7.4,32.5.7,0,1.2.2,1.4.8.7.3,1.5.8,1.9,1.5H9.1s.3-50,.3-50l30.3-5.3Z"/>
      <path class="st50" d="M158.4,181.7l4.9.5.6.5c3.6,0,7.6.6,11,1.5,1.4,0,2.8.1,4,.5,1,.1,2,.1,3,.1,7.3,2,14.5,4.3,21.5,7.4,1.1,1,2.5,1.6,4,1.6,2.2,1.2,4.8,1.5,6.9,3.8-6.6,1.1-12.6,1.2-18.9,2l-17.4,2.1c-14.4-3.2-28.7-4.8-43.6-3s-9.8,2.2-14.5,4c-.6-.7-.8-1.7-.9-2.6.8-1.6.9-3.5,1.5-5.3l3-9.4c3.6-2.3,18.9-4,22.4-3.9l12.5.3Z"/>
      <path class="st13" d="M764.5,165.3l.6.5c.1,0,.3,0,.5,0l.5.5c14.3,7.2,28.1,15.4,41.7,24.2,14.2,9.1,22.8,18.4,34.1,30.3,1.1,1.1,1.9,1.6,2.2,3.4,3.3,22,1,52.6-2.6,74.4l-.6.4s0-6.8.1-20.4c0-9.9-1.2-22.9-3.5-32.9-1-4.5-.3-9.4-2.4-13.8-1.1-2.2-2.7-5.5-4.7-7.1-5.6-4.8-11-9-15.9-14.7-8.1-9.3-17-17.5-26.7-25.1l-16.2-12.9c-2.7-2.2-6.2-3.8-7.6-6.7h.4Z"/>
      <path class="st13" d="M308.4,203.7c.9,3.3.2,6-2.3,8.8s-8.1,11.6-12.8,6.6-3.7-5.6-10-6c0-1.7,1.6-2.1,2.1-3.4l-8.3-13.3c-.8-1.2-.3-1.7-2.1-2.1-3.3-.7-8.6-5.1-10.6-5.7l-.6-.4c-.1,0-.3,0-.4,0-2.2.5-4.2,1.3-6,2.3-.1,0-.3,0-.4,0-.6.1-.6-.4-.1-1.4,1.5-3.2,3.4-6.2,5.6-8.9l1.6-.6,8.2,1.8c2.3.3,3.6,1.2,4.2,2.7l3.3.5c.1-.2.2-.4.4-.5.4-.3,7.6,4.4,7,6,.2,0,.4-.1.5,0,.6.6,4.5,9,4.8,10.1l-.7,1c-.2,1.4-.2,2.9.1,4.2l.5-.2c-.4-.9-.4-1.6.5-1,2.7,0,2.1,3.6,1.6,5.6.5-1.3,1.4-2.3,2.9-1.8-1.2-2.1-1.6-4.6-1.3-7.3,0-3-.3-4.2-1.2-3.7l-1.1-.8-1.2-.2c-.9.9-1.4.5-2.2-.3s-2.4-4.5-2.9-5.6,0-.3.1-.5c-2.7-2.5-5.7-4.7-9-6.6l-.4-1.3c-1.7-1.2-.7-2.6,1.5-2.8,6.7-.7,23.1,6.7,25.1,13.9.6,5,1,10,1,15.1,1.1.3,1.6-1,1.4-3.8l1-.5Z"/>
      <path class="st50" d="M725.7,66.8c.5,2.1-.2,5.2-1.5,7.1,0,8.7-1,17.2-2.9,25.4l-.6.5c-.9,2.9-4.2.2-6.5.5-1.5.2-2.6-.9-3.5-3.1l-1.9-4.6c-2.3-.5-3.5-.9-3.9-3.5.5,1.5.2,2.4-.7,2.8-.4-.5-.8-.9-1.4-1.1l-1.2-.5-.9-5.8c-1.5-.1-2.4-.7-2.7-1.7l.6-10.1-.4-.9c-.6.8-.6.5-.5-.4,1.1-4.2.3-8.3-1.6-12.6,10.4,2.5,20,5.4,29.6,8.1Z"/>
      <path class="st13" d="M327.7,242.9c-3.6-2.3-7.5-4.2-11.7-5.9l-19.2-7.8c-3-1.2-5.9-2.2-9-2.8,2.8-1.7,4.6-3.4,4.8-6.4,1.7,2.3,3.2,3.3,5.7,2.9s4-3.3,6.3-4,4.8,1.4,6.9.2c5.5-3.2,5.9-8.6,9-13,2.5-2.9,3.9,3.6,3.9,5.9,1.4.6,2.2,2.5,2.4,3.9,1.1,7.7,1.5,15.9,1.8,23.7s-.1,1.1-.3,1.6-.4,1.1-.6,1.6Z"/>
      <path d="M245.4,84.4c-1,1.4-1.4,3.4-2.1,4.9s-2.7,3.8-3.2,6.2c1.9,3.2,1.1,2.2,1.3,6.3,0,.5-.7,2-1.3,1.4-1-.9-.5-2.5-1.6-2.8-.6-.7.4-2.9,1.3-2-.3-.1-.3-.3,0-.5-1.3,1-2,2.6-2.1,4.9-.4,0-1.2,0-1.4-.4-1.9-4,1.6-7.7,3.5-13.5l.4-.5c0-.1,0-.3,0-.4l-.4-1.3c2.8-3.5,3.1-6.4,1-8.5v-1.3c-5.6-3.9-10.3-8.8-15.1-13.9-7.8-.4-18.5,3.7-25.8,6.9,3.4,1.5,1.7,9.1,1.4,12h-.6c0-2.4-.2-4.7-.4-7h-1.1c0-.8-3.1-2.5-3.3-2.5-24.6,12.1-48.2,28-67.3,47.4-4.4,4.5-9.5,10.4-12.2,16.1s-1.5,5.8.9,9.4c5.1,7.5,9.4,15.3,13,23.4.1.3-.5.8-.9,1.1,1.3.4,1.3.7,0,1.2,0,.4.5.8.4,1.4-.3,2.8.3,5.5-.5,7.9l-.2-8.5c-.5,0-.9.6-.9,1.1v8.4c0,.4-.3.7-.6.4l-.9-1.1c.3-3.7,0-7.4-1-10.9-1.4.1-1.6-1.1-.5-1.9-1.5-2.1-2.4-4.5-3.8-6.8-2.9-5-6.3-9.7-8.9-14.9-1.1-2.3-.9-4.9-.2-7,1.7-4.7,3.8-8.8,6.9-12.8,5.3-6.8,11-12.6,17.6-18.4,17.1-15,35.9-27.4,56.2-37.6,7.2-3.6,19.8-8.5,27.7-9.4s5.5,1.3,8.2,1.1c-1.8,1.3,10.3,10.7,11.2,11.4,3.5,2.5,5.9,6.7,5.1,10.9Z"/>
      <path class="st13" d="M405.8,263.6c1.2-1,3,.9,2.1,2.1l.8,3.9c-.2-.6-.1-.9.3-1l1.1.3c-.3,4.5.4,8.6,2.1,12.5l-1.2,1.1c7.9,2.5,11.1,9.6,14,16.6,1.7,3.3,4.5,5.6,8.4,7,2,1.1,3,2.5,3,4.3.6.4,1,.4,1,.1.2-1.3.5-1.2,1,0,.2,1.3.7,2.8.2,4.1h-25.1c-1.1-1.3-.4-2.4,2-3.4-1.7-5.3-3.6-10.5-5.5-15.6-3.6-4.4-4.9-10.6-4.4-16.1-1.3-6.8-1.9-10.2-1.9-10.2l.5-1.7c-.5,0,0-3.9,0-4.1.3-.4,1.3,0,1.8.2Z"/>
      <path class="st141" d="M413.3,314.5c-3.2,0-6.4.3-9.5,0-1-.3-1.1-1.6-.9-2.6-2.6-4.7-4.8-10-6.7-15.1s-1-4.5-1.1-6.8,1-12.7,1.5-13.1.4-.3.7-.3c0-.7.3-.7.6,0l1.1,1.7c-.6-2.7-.1-5.5.8-8-.8-.7-.3-1,.8-1.2,0-.2.1-.4.2-.5.6-.3,2.8-1.3,3.2-1,1.3,3.5,2.1,7.5,2.4,11.5s-.5,3,0,4.9c.7,3,.7,6.2,2.7,8.9,5,6.5,3.4,10.5,7.5,18.7-1.4,1.1-3,1.5-3.2,2.9Z"/>
      <path class="st141" d="M288.3,172.7c1.1.6,2.3.7,3.5.6.6.4,1.6.1,2,.8.4.4.8.4,1.1.2.3,0,.6.3.9.4,1.2.6,3.1,1,3.7.7.2.1.5.2.7.3.3.1.3.3,0,.4-.1.4,0,.8.2,1.1.4-.5.9,0,1.1.5l8.5,5.1c.5,1,1.6,1.9,3.3,2.6,1.1,1.3,2.5,2,2.9,4.3l1.9,13.9c.3.9.2,1.6-.2,2.1l-.9,3.1c-.6,1-1.2,1.3-1.8.3-1.2-6.7-2.4-13.5-3.5-20.3-3.2-3.4-6.9-5.8-11.1-7.1-3.5-1.9-7.2-3.7-10.9-4.9-1.2-.2-1.5,0-.9.6l17.1,9.6c2.9,2.4,2.3,14.7,2.9,16.8-.2,1.6,0,3.3-.7,5s-2.8.2-2.8-.5c.4-4.5-.7-8.6-.7-12.8s-3.8-7.9-8.1-10.1l-6.6-3.3c-3.2-1.6-7.1-1.5-10.8-2.2l-.4,2c-.2.4-.2,1.1,0,2.1-.2.6-.9.8-1.9.4-5.3-2.7-8.9-2.3-14-3.9,3.5-4.2,9.5-.9,14.1-4.4s4.8-1.7,7.5-2.1,2.8-1.5,4.4-1.1Z"/>
      <path class="st13" d="M339.7,259c-.4,1,.6,1.8,1.5,2,3.4,4.2,5.9,9.1,8.3,14.3,9.7,20.2,8.5,13,13.8,36.2l-.5,1.2c-2.3.7-4.7,1.3-7.1,1.7h-4.4c.4-1.9,2.5-3.4,2.6-5.5,0-4.1-2-7.9-3.8-11.4s-1.1-4.5-1.4-6.8c-.6-5-3.1-9.4-4.8-14-3-8.2-6.7-15.7-11.1-23.3s-1.5-3.4-2.6-4.7c-.7-.7-.4-1,.5-.5,2.8,1.5,7.1,8,8.8,10.8Z"/>
      <path class="st50" d="M668.7,59.9c-.6.6-.8,1.3-.7,2-.3.8-.4,1.7-.9,2.4-.6,0-1.2-.3-2-.3-.3,3.2,2.9,8.6-.6,8.8-.6-.7-1.6-.2-2.4-.5-1.2-.3-2.2-.2-3.1.4-1.9-.1-3.7-.6-5.7-1.2-.2-4.7-1.2-8.9-2.3-13.2,0-1.2-.3-2.5-1-3.5-.1-1.7-1.6-3.1-1.5-5.2l24.8,4.6c-2,2-3.3,3.8-4.6,5.6Z"/>
      <path class="st17" d="M599.7,55.9c-.3,1.1-.3,2.3-.5,3.5.4,2.4-.4,4.6-2.4,6.8-2.5,2.7-4.6,5.5-6.4,8.7-1.1,4.7-1.9,9.5-2.6,14.4-.6,0-.9.4-1.2,1.1.8,0,.7.8,0,1-.6,2.2.9,4.3,3.2,4.9l3.8,1.1c1.3-.2,2.7,1,3.1,2.1.8,2.6,1.6,5.2,1.9,7.9.4.5.6,1,.6,1.6,1,1.2,2.7,1.5,3.8,2.5,1,.2,1.9.5,2.7,1,2.5.7,4.6,1.9,6.6,3.8s7.9,6.6,5.2,8.4c-2.6-2.6-4.9-5.1-7.8-7.1-.4-.1-1,.9-1.1,1v1.2c-2.4,1.1-3,2.4-2,3.8.9,1.5,7.6,5.1,6.8,7.2s-1.8-1-3.3-1.6c-.4-.1-.6,0-.6.5.4,2.5.2,5.3,1.5,7.5l1.5.4c2.3,3.2,5.6,5.6,9,7.6l.5,1.4c.5-.5,1.4-.8,1.5,0,4.3-1.1,8.6-1.7,13.2-2.3l5.2-.7c.4-.3.7-.3,1-.1,1.5-.4,3-.5,4.5-.4.6-.6,1.7-.8,2,0,2.8.9,4.5,3.3,6.4,5.4l-1.4,1c-.8.8-1.5.3-2-1.5-1.6-2.2-4-3.4-7-3l-8.6,1.3c-4.2.6-8.4.9-12.4,2.2s-3.7-.4-5.5-1.3c-2.9-1.4-4.9-3.2-7.1-5.5-7.3-7.9-.4-13-8.3-18.2s-1.1-.9-1.3-1.3c-1.3-2.7,7.1-5.3,5.2-6-3.9-1.5-7.8-2.8-10.5-6l-1.4-8.2c-.5-2.9-9.5-2.9-10.9-8s.7-5.9,1.2-8.8.5-7.9,2.1-11.4c2.6-5.7,12.6-12.4,9.9-19,.6.4,1.1,1,1.5,1.5Z"/>
      <path class="st13" d="M736.5,61.8c-1.7-6.8,5.4-5.8,5.8-13.7,3.4-8,1.9-16.4-2.9-23.4-2.6-3.8-4.4-7.9-7.9-10.9l-2.2-1.9c.6-.3,1.1-.4,1.4-.8,2.2,0,3.6.7,5.4,2,6.8,4.6,10.8,11.4,12,19.6,2,13.1-.1,20.9-10.1,29.6s-1.2-.3-1.5-.4Z"/>
      <path class="st17" d="M411,270.7c1.6,0,1,.6,0,1.4,1.3,1.6,1.6,3.8.7,6.5.9.2,1.6,1,1.9,2.3l1,.9c.1-1,.5-1.8,1.2-2.3-.3-.7,1.1-1.2,1.2-.9.3.8,0,4.1-.2,5,.7,1.2,2,3.1,3.3,2.6.2.1.4.3.6.4.4.4.4,1,0,1.5l1.4.3,3.3,7c.8.1,1.3.5,1.6,1.1-.5.5-.9.9-.9,1.6,1.3,2.9,3.5,4.2,6.1,5.8,1.6.7,2.7,1.8,3.3,3.1.3-.3.5-.1.6.5.8.3,1.3,1.5.5,2,.3.8.3,1.2-.5.9-1.5-3.4-5.4-4.1-8.4-6-6.5-4.2-4.6-16.4-17.4-21-.4-.1-1.2-1.1-.9-1.4s1-.5,1.8-.8c-3.7-5.7-1.3-8.6-2.5-12.7-.8-.5-1-2-1-2.9-.7-.8-1.2-1.5-2.1-2.1l-1.1.5c-.8-.8-1.6-1.3-2.4-1.4,0,1-.4,1.2-1.3,1,.7,2.1.5,3.5-.4,4.4,1,.3,1,.7,0,.9-1,2.8-1.5,6-.8,9.1,1,4.7,1,9.3,1.4,14s1,2.7,0,4c-1.6-1.7-1.8-4.2-1.9-6.6-.2-4.5-.5-8.8-1.4-13-.5,0-.4-.7,0-1-.4-.1-.3-.3,0-.5,0-1.5.2-2.8,1-4,0-.6,0-.6-.5,0,0,1.5-.3,2.6-1,3.5.2.4.4.7,0,1,.4.1.4.8,0,1-.2,5.5-2.8,13.9.1,21,2,4.9,3.7,9.7,5.5,14.4.3,1.2.1,1.5-.6,1l-6.6-15.2c-2-4.7-1.6-9.8-.9-14.8.7-4.5.9-9.1,2.8-13.2.6-1.3,1.5-1.8.9-3.8s-.5-3.7.8-4.5c2.7-1.6,6.3-.7,8.4.9s3.4,5.1,3.4,8.2Z"/>
      <path class="st13" d="M569.2,196.8c-1,.2-1.2,0-.5-.6l16-6.9c.3.2.6.1,1,0,.3-.4,1-.6,1.5-.5.7-.4,1.6-.7,2.5-1,.2-.4.7-.3,1,0,.5-.6,1.2-1.1,2-1.5l31.4-11.9.6-.5c.1,0,.3,0,.5,0,3.7-1.6-8.8,9.9-8.9,10-11.5,3.5-22.6,7.4-33.8,11.7-2,.8-11.1.5-13.2,1.3Z"/>
      <path class="st13" d="M611.2,11.6c-.3.5-1.2,1.2-2,1.3-4.3.4-7,3.2-10.4,5.1-6.1,3.5-12.6,5.8-18.1,10.4l-8-2.3c-.1-.7.1-1.2.7-1.7,4.5-3.9,10-7.6,15.4-9.9.1-.9,1.1-1.6,2-1.6,0-.6.5-1.2,1-1,1-.5,2.2-.4,3.4-.4h16Z"/>
      <path class="st115" d="M255.9,186.1c-.7,1.3-.9,4.1-2.5,5.1-4.2,1.3-8.8,1.4-13.2,2.3-6.5,1.4-12.7,2.4-19.2,3.3s-2.7.3-3.7-1.2c2.6-2.9,6.2-4.6,10.1-5.4s5.7-1.7,8.6-1.8c3.6-.1,6.7-1.8,9.9-2.2,3.1-1.1,7.5-2.3,10,0Z"/>
      <path class="st13" d="M317.7,205.7c.8.7-.1,2.2-.8,3-1.9,3.8-5.9,10.1-11.1,8.2,6.8-8.4,5-10,4.3-19.4s-1.9-11.6-9.7-15.8c0-1.9,12.4,6,12.1,7,.7,7.6,2.6,11.9,3.5,19.5-.3.8,0,1.2.8.6-.3-1.4-.1-2.7,1-3.1Z"/>
      <path class="st70" d="M322.8,204c1.6,2.7,1.8,5.6,4,7.9.9-1.5.1-2.8-.4-4.5,2.1-1.1,2.7,3.5,2.9,4.7-.5,2.2-.5,2.5.1,1l1.2,31.5c-1.4-.3-2.1-1.1-3-1.7-.5-8.5-.7-17-1.8-25.7s-.7-3.7-2.4-4.6c-.6-2.2-.7-6.9-3.1-6.4l-.5-4.5c1,.4,2,1.2,3,2.4Z"/>
      <path class="st50" d="M598.7,43.8c3.8-1,8,.6,12,1-3.2-1,4.3,6.6,5,6.6,0,2.4,1.2,4.5.8,6.8s-1.9.4-2.3.2c-1.9-.1-3.7-1.2-5.3-3.2-2-2.4-3.7-4.2-6.7-5.1-1.4-.8-2.4-2.7-2.6-4.2s.5,1.1-.3.9c-.8-.7-1.8-1.5-1.4-2.8-.1-.5.5-.5.9-.2Z"/>
      <path class="st103" d="M240.8,108.2c2.7,3.1,5.7,6,7.8,10s2.5,7.2,1.4,10.3-1.5,5.4-1.8,8.3c-2.3,1.7-.8-6.4-2.7-12.7-2.7-8.9-9.3-11.5-6.7-17.3.7-.4,1.7.6,2,1.4Z"/>
      <path class="st141" d="M200.2,25.8c-.3-.2-1.3-.6-1.7-.3s-.1,1.5.2,2l5.3,7.4c-1.1,1.1-2.6,1.4-3.7,2.1-4.1-1.4-3.4-2.6-9.7-4.8l-11.1-3.9c-.5-.2-.8-.3-.8-.7l1.2-1.2c4.8-1.2,11.1-.4,16,.3l.8-1.2c1,0,2.2-.7,3.3-.3.2,0,0,.5,0,.6Z"/>
      <path class="st109" d="M731.5,68.4c.2.5.2,1.2,0,2-2.9,5.5-5.4,11.1-6.9,17.4l-3,12.1h-1c3-9.1,1.2-16.7,2.6-26.4,2.1-3.1.8-6,2.4-6.8l5.8,1.6Z"/>
      <path class="st111" d="M280.3,226.2c-.3,0-.7,0-1.1,0v-.5q.5-.5,0,0c.2-3.7.3-7.8,1.5-11.6,1.7,0,2.6.8,4.3.9,2.8.2,6,3.3,4.9,6.3s-3.7,3.7-5.7,4.6-2.8,0-3.9.3Z"/>
      <path class="st70" d="M722.7,114.9c0,.9-.3,1.5-.6.7.1,2.2.3,5.2,0,1,0-.5,0-.7.6-.8.7.4.3,1.5.3,2.5-.1,3.6.7,7,1.3,10.4-1.2.5-2.3.1-3.4.1-.8-1.5-1.2-3.1-1.4-4.9l-1.4-9.6c-.4-2.6-.8-5-.5-7.5.1-.6.4-.8.7-.5,1.1,1.9,3,8.1,4.5,6.1.2.8,0,1.6,0,2.4Z"/>
      <path class="st180" d="M251.5,162.3c-.1,5.1,1.9,8.7,1.9,14.5h-.6c-.4-.5-.9-.7-1.5-.7-2.6-.9-4.3-3.1-5.5-5.7,1.4-2.3,1.3-4.6,1.8-7,.5-1.1,2.6-1.3,3.6-1.9.2.3.2.5.2.8Z"/>
      <path class="st111" d="M741.2,146.2c.5.8.2,1.1-.6.5-1-1.3-3.5-2-4.1-3.6s-.4-2.1-1.5-3.2c-4.1-4.1-3.7-3.4-7.9-7,.9-1.9,4.5-.5,6.7,1.3,4,3.1,6.3,7.3,7.4,12.1Z"/>
      <path class="st109" d="M427.3,286.6c-.4,0-1.2-.5-1.4.3,2.6,2,.3,5.5,1.3,9.6-.6,0-1.3.5-2.1.3-1.5-3.1-2.4-6.2-4.2-8.7,0-.7.3-1.2.5-1.6,1.4-3.4,7-5,5.9.1Z"/>
      <path class="st170" d="M258.7,138.9c.1.6.1.8-.5.6-1,1.9-2.7,3.1-5.3,3.8-.2,0-.5,0-.6,0-1.8.3-1.7-2.2-1.4-3.4-.5-.2-.4-1.1-.2-1.6-.1-1.4,0-2.8.3-4.5,3.5,0,6.2,2.1,7.7,5.1Z"/>
      <path class="st26" d="M260.2,178.6c-1.3,2.6-3,5-4.4,7.5-3.2-.2-6.7-.4-10,0l5.7-3.2c1.6-.9,3.9-2.4,4.3-4.3h4.3Z"/>
      <path class="st139" d="M437.8,297.5l-.4,1c0,1.6,0,3.1-.7,4.8-1.7-1.2-3.5-2-4.8-3.4-.2-.1-.4-.3-.4-.4-.2-2.4,2.8-9.1,6.2-7.5.8,1.2,0,2.7,0,5.5Z"/>
      <path class="st51" d="M125.4,167.8c.4.5.3,1.3.5,1.9v.6c-1.3.2-1.9,1.5-2.9,2-4,2.2-14.5,7-18.6,7.4l13-6.4c.8-1.3,2.5-2,4-2.1-.2-.8,1.3-1.1,2-1,.4-.4.3-.7,0-1.1-.2.3-.3.3-.5,0,.5-.8,1.4-1.3,2.4-1.3Z"/>
      <path class="st191" d="M654.6,149.3c-3.7,2.6-7.7,5-11.3,8.2l-8.3,7.5c-.1.4-.3.4-.4,0-.6.7-1.6.8-.9-.1,1.9-2.8,4.8-4.6,7.4-7s7.3-6.1,11.7-8.5,0-1.3-.2-1.6c.5.6,1.6.8,2,1.5Z"/>
      <path class="st5" d="M703.6,314.5c.4.1.4.3,0,.5h-39.5c-.4-.1-.4-.3,0-.5,4,0,8,.2,12.2-.2s9.1-.5,13.6,0,9.2.2,13.7.2Z"/>
      <path class="st42" d="M751.1,315.1h-17.5c-.4-.3-.4-.4,0-.6,2,0,4.3.3,6.5,0,3.6-.7,6.9-.1,10.5,0l27,.5-26.5.3Z"/>
      <path class="st147" d="M127.8,181.6c-1.9.1-3.1,1.8-4.9,2.5.1-1.6,2.1-2.6,3.1-3.6.4-3.5-.3-7-.3-10.3s.1-.4.1-.6c.8,2.4,2.6-.8,1.9,12Z"/>
      <path class="st147" d="M362.3,296.1c-.6-1.8-1.4-4-2.3-5.9l-7.7-16.1c2.6,4.4,6.1,8.3,7.9,13.6s2.3,5.6,2.1,8.5Z"/>
      <path class="st14" d="M437.7,292.1c-.9,1-2.9,1-3.5,2.3l-2.3,5.6c-.2-.2-.8-.1-.9-.4-.4-1.5,1.3-7,2.2-8.1s3.8-.4,4.5.6Z"/>
      <path class="st22" d="M83,120.3l-18.5,18.5c-.3-.1-.3-.3,0-.5v-.4s2.1-2.1,2.1-2.1c.2-.3.3-.6.5-1,1-.2,1.2-1.4,2-2.1l11.8-11.1c.8-.7,1.7-.9,2.2-1.4Z"/>
      <path class="st125" d="M427.3,286.6c-.5-.6-.7-1.5-1.2-2.6-1.8.6-3.1,1.7-4.7,2.5-.2-.2-.2-.3,0-.5.4-1.2.6-3,1.7-4s3.3-.2,4.3.9,1.6,3.5,0,3.8Z"/>
      <path class="st198" d="M573.6,39.5c-2.4-.1-5-.2-7.2-1.6.4-1.2,1.4-1.5,2.3-1.9,2.5-.2,4.5,1,4.9,3.5Z"/>
      <path class="st50" d="M115,202.6c-1.2.8-.5,1.9,0,3.1.9,1.4-2.8,3.2-3.5,1.8.5-2.2,2.6-3.8,3.1-6.2s1.1-4.8,3.3-6.1c-.5,1.4-.8,2.7-1.5,4.3l-1.3,3Z"/>
      <path class="st125" d="M257.8,123.3c-.9,0-1.8.2-2.8.7l-2.2-7.1c-.2-.5,0-.7.5-.5,1.1,2.5,3.4,4.3,4.5,6.9Z"/>
      <path class="st58" d="M655.6,161.3c-.3-.3-.6-.4-.9-.6,5-1.8,9.8-4.5,15.3-5.7-4.8,2.9-9.7,4.3-14.4,6.3Z"/>
      <path class="st12" d="M363.3,311.5c.2.9.7,1.8.9,2.9-3,.2-5.7,0-8.4,0,2.2-1.5,5-1.9,7.5-3Z"/>
      <path class="st134" d="M841.5,298.5c-.2,1.3-.3,2.7-.6,4-.2,0-.4-.2-.4-.6v-22.9c0-.4.2-.8.5-.6v19.5c0,.3.4.6.5.5Z"/>
      <path class="st178" d="M294.2,25.5c-1,3.5-2.7,6.7-4.4,10-.4.6-.7.7-1,.5l5-12c.2.4.3.9.4,1.5Z"/>
      <path class="st202" d="M176.4,183.7c.7,1-.6.9-1.5.5-3.7.3-7.3-1-11-1.5-.4-.1-.4-.3,0-.5,4.2,0,8.4.7,12.5,1.5Z"/>
      <path class="st179" d="M426.7,298.1l.4.4c1.3,2.1,3.6,3.5,5.5,5.1.3.4.2.4-.3.2-3.1-.5-6.2-2.5-6.1-5.8.2,0,.3,0,.5,0Z"/>
      <path class="st208" d="M568.7,196.2c.1.2.3.4.5.6l-8.6,3.4c-1.1.4-2,.7-3,.5,3.4-2.1,7.4-2.9,11.1-4.4Z"/>
      <path class="st147" d="M258.3,141.3c-.7,1-1.7,1.4-2.9,1.5l-.6.5h-1.8c1.5-1.6,3.4-2.9,5.3-3.8.7.4.5,1.2,0,1.9Z"/>
      <path class="st91" d="M263.4,188.3c-1.5,1.7-3.9,1.9-6,2.3l1.1-2.3c1.8.1,3.4.1,4.9,0Z"/>
      <path class="st194" d="M256.6,129.5c-.3,1.2-3.8,2.1-4.1.8-.5-2.1,3.2-2,4.1-.8Z"/>
      <path class="st157" d="M664.1,314.5v.5h-12c-.4-.1-.4-.3,0-.5h12Z"/>
      <path class="st175" d="M483.2,314.5c0-.3,0-.7.4-.5,2.2,0,4.5-1.3,7,.1-2.7.9-5.1.2-7.4.4Z"/>
      <path class="st4" d="M252.3,143.3c-.6.3-1.1.8-1.6,1.3-.7-1.7-.5-3.2-.3-4.7.2-.4.3-.4.5,0,.6,1.1.6,2.5,1.4,3.4Z"/>
      <path class="st84" d="M750.6,158.7c2,.8,4,1.7,6,2.7-.4.7-1.3.2-2-.1l-5-2.2c.2-.4.6-.2,1-.3Z"/>
      <path class="st220" d="M322.3,203.1l.4.5c0,.2,0,.4,0,.4-1.5-.2-2.5-.9-3-2.4-.1-.8.3-1.1.8-.8,1,.6,1.6,1.4,1.8,2.3Z"/>
      <path class="st128" d="M635.5,165.4c-1.5.7-2.5,2.5-4.3,2.6v-.3s.5-.5.5-.5c.2-.7.8-1.2,1.4-1.5l1.6-.9h.4c.1.3.3.5.5.6Z"/>
      <path class="st65" d="M286.4,40.9c-1.3,2-2.9,3.7-4.2,5.6v-.5c.2-.3,2.8-5.8,4.2-5.1Z"/>
      <path class="st162" d="M313.1,185.4c-1.4,0-2.9-.8-3.7-2.3,0-.2.3-.2.4-.3,1.3.8,2.3,1.3,3.3,2.6Z"/>
      <path class="st7" d="M614.2,43l-7.5-.6c2.3-.8,5.4-.7,7.5.6Z"/>
      <path class="st72" d="M722.7,114.9c0,.3,0,.6,0,.9-.2,1,0,2-.4,3.5-.6-1.2-.8-2.5-.9-4,.1-.3.9-.3,1.2-.4Z"/>
      <path class="st135" d="M540.7,219.2l3.5-4.5c-.5,1.8-1.7,4-3.5,4.5Z"/>
      <path class="st153" d="M120.9,170.7c.4-.2.6,0,.5.5-1.3.7-2.7,1.4-4,2.1,0-.5-.6-.6-1-.5,1.5-.6,2.9-1.8,4.5-2Z"/>
      <path class="st143" d="M712.1,315.1h-8.5v-.5h8c.4,0,.6.3.5.5Z"/>
      <path class="st116" d="M282.2,46.5l-2.8,3.9c-.8.8-1.1.5-.5-.5.8-1.5,2.2-2.5,3.2-3.9v.5Z"/>
      <path class="st73" d="M105.4,314.1h-8c-.4-.2-.4-.4,0-.5h7.5c.4,0,.6.3.5.5Z"/>
      <path class="st219" d="M339.7,259c.4.6,1.1,1.5,1.5,2-.1.5-.3.4-.5.3l-1.1-.6c-.4-.3-.7-.5-1-.6-.4-.3-.3-.6,0-.8.5-.2.7-.7,1-.3Z"/>
      <path class="st3" d="M253.4,116.4c-.2.1-.4.3-.5.5-.5-1.6-1.7-2.9-2-4.6-.1-.4,0-.6.4-.5l2,4.6Z"/>
      <path class="st223" d="M436.2,306.5c0,.3-.3.5-.5.5-1.1-1-2.3-2-3.3-3.1l.3-.2c1.2,1,2.7,1.5,3.6,2.8Z"/>
      <path class="st110" d="M163.4,181.7l.5.5v.5c-1.8-.3-3.9-.2-5.5-1h5Z"/>
      <path class="st216" d="M438.3,310.5h-1c-.7,0-.6-.4-.5-1-.2-.6-.3-1.3-.5-2-.3-.4-.5-.7,0-1-.6-.9,1.7,1.4,2.1,4Z"/>
      <path class="st122" d="M299.5,175.4c.3.2,0,.6-.2.6-.5-.1-5.4-.8-3.5-1.4,1.3-.1,2.6.1,3.7.7Z"/>
      <path class="st163" d="M733.6,314.5v.5h-6.5c-.4-.1-.4-.3,0-.5h6.5Z"/>
      <path class="st160" d="M207.4,193.8c-1.4.8-3.3-.3-4-1.6,1.3.6,2.8.9,4,1.6Z"/>
      <path class="st210" d="M219.8,189.6c-.5.2-.9.5-1.4.6l-.6.4h-.4c.2-.4-.1-1.6.7-1.5s1.3.2,1.7.6Z"/>
      <path class="st181" d="M251.3,111.8c0,.2-.2.4-.4.5,0-.7-1.3-1.6-1.4-2.4.5.4.3-.4.3-.6.4.7,1.1,1.7,1.5,2.5Z"/>
      <path class="st123" d="M97.4,313.5v.5h-6c0-.4.4-.5,1-.5h5Z"/>
      <path class="st57" d="M241.3,107.7c-.4-.2-.8.1-.5.5-.5-.6-1.6-.7-2-1.4,0-.2,0-.3,0-.5,1.2-.5,1.7,1,2.5,1.4Z"/>
      <path class="st80" d="M178.9,184.2c.4.1.4.3,0,.5-1.3-.3-2.9.6-4-.5.5,0,1.3.1,1.5-.5l2.5.5Z"/>
      <path class="st150" d="M54.5,191.2c.3-.4,1.1-.4,1.5,0,.7,0,1.3,0,2,0-1.6,0-3.4.9-5,0h1.5Z"/>
      <path class="st40" d="M258.3,141.3c-.5-.5-.1-1.3,0-1.9.2-.1.3-.4.5-.6.2.4.4.8.5,1.2.2.9-.6.8-.9,1.3Z"/>
      <path class="st75" d="M287.4,39c0-1.2.5-2.2,1.4-3l1-.5c-.6,1.3-1.3,2.7-2.4,3.6Z"/>
      <path class="st214" d="M727.1,314.5v.5h-5c0-.2.1-.5.5-.5h4.5Z"/>
      <path class="st132" d="M289.4,176.7c-.4,0-.7.3-.9.6-.7-.4-1.5-.8-1.6-1.7,1.2-.1,1.8.9,2.5,1.1Z"/>
      <path class="st137" d="M651.1,58.5c-.3-1.2-.9-2.2-1-3.5,1.3.7,1.1,2.3,1,3.5Z"/>
      <path class="st102" d="M662.1,72.4c-1,.1-2,.5-3.1.4-.2-1,.7-.9,1.3-1s1.2.4,1.7.5Z"/>
      <path class="st63" d="M291.8,173.3c-1,.9-2.7.3-3.5-.6,1.2.3,2.4,0,3.5.6Z"/>
      <path class="st104" d="M737,65.9c-.7-.4-.4-1.3-.5-2,.6.2,1.1-.1,1.1.8s-.1.9-.6,1.3Z"/>
      <path class="st136" d="M105.9,100.8c-.4.2-.6,0-.5-.5.8-.5,1.2-1.6,2.5-1.5-.6,1-1.3,1.5-2,2Z"/>
      <path class="st227" d="M279.4,50.4c-.5.8-1.1,1.6-2.1,2-.1-1.2,1.2-1.7,1.6-2.5,0,.3.2.4.5.5Z"/>
      <path class="st124" d="M181.9,184.8c-.8,1-2,.1-3-.1v-.5c1,.2,2,.3,3,.6Z"/>
      <path class="st141" d="M64.5,138.8c-.6.6-1,1.7-2,2,0-1.2,1-1.9,2-2.5v.5Z"/>
      <path class="st10" d="M831.6,315c.4,0,.9,0,1,.4h-4c0-.2.3-.4.5-.4.8-.4,1.7-.4,2.5,0Z"/>
      <path class="st142" d="M403.8,314.5c-.3,0-.7,0-1,0,0-.6-.3-1-.5-1.5.4-.2.6-.6.6-1l.9,2.6Z"/>
      <path class="st228" d="M589.7,187.7c-.6.8-1.6,1-2.5,1-.4-.1-.4-.3,0-.5.9-.2,1.7-.5,2.5-1,.4.1.4.3,0,.5Z"/>
      <path class="st100" d="M698.2,71.8c.9.5.8,2.3-.4,2.1-.2-.3-.4-.6-.6-.9.2-.5.4-1.1.6-1.6l.5.4Z"/>
      <path class="st1" d="M316.9,208.7c.5-1,1-1.9.8-3s.2-1.4.2-2.1c.9,1.6.6,4-1,5.1Z"/>
      <path class="st24" d="M294.3,24.5c-.2,0-.4-.1-.5-.5l.5-2c.1-.4.3-.4.5,0-.2.8.3,1.9-.5,2.5Z"/>
      <path class="st138" d="M742.1,147.9c-.1.8-.6,0-.8-.1-.4-.4-.5-.7-.7-1.1.2-.1.4-.3.6-.5.5.4.6,1.2.9,1.6Z"/>
      <path class="st211" d="M172.4,202.7c1,0,1,.8,0,1h-1.5s0-1,0-1h1.5Z"/>
      <path class="st114" d="M172.4,203.7v-1c.4,0,1.5-.3,1.5.5s-1.1.5-1.5.5Z"/>
      <path class="st83" d="M652.1,314.5v.5h-3c.6-.9,2-.5,3-.5Z"/>
      <path class="st105" d="M330.9,248.2l-.5.5c-.4-.5-1-.8-.9-1.5.6,0,1,.8,1.4,1Z"/>
      <path class="st195" d="M592.7,186.2c-.3.9-1.2,1.2-2,1.5-.4-.1-.4-.3,0-.5.4-.7,1.3-.8,2-1Z"/>
      <path class="st215" d="M123.6,87c-.6.4-.8.7-.9.8s-.7.1-.7-.2.7-.6.8-.9c.5-.6,1.4-.4.8.3Z"/>
      <path class="st99" d="M731.5,70.4c-.6-.4-.4-1.5,0-2,.6.2.8.4.5,1.2s-.4.5-.5.9Z"/>
      <path class="st0" d="M591.7,12c-.2.4-.7.7-1,1-.4.2-.6,0-.5-.5.3-.2.7-.4.8-.8.3,0,.6.1.7.3Z"/>
      <path class="st188" d="M245.9,102.8c-.9-.4-2.8-2.3-2.5-1-.3-.5-.9-.7-.9-1.7,1.4.6,2.8,1.4,3.4,2.6Z"/>
      <path class="st151" d="M668,61.9c-.6,0-.4-.8-.4-1.2s.8-.5,1-.8c-.1.7-.4,1.4-.7,2Z"/>
      <path class="st49" d="M597.1,49.5c-.3-.6-1.3-1.3-.9-2.1.9.2,1,1.3.9,2.1Z"/>
      <path class="st199" d="M66,190.3c-.8,0-1.6.8-2.5.4.3-1,1.7-.5,2.5-.4Z"/>
      <path class="st183" d="M587.2,188.7c-.4.4-1,.5-1.5.5h-.5c.5-.5,1.3-.8,2-1v.5Z"/>
      <path class="st206" d="M751.1,155.3v1c-.5-.2-1.3,0-1.5-.9.7-.1,1.1,0,1.5,0Z"/>
      <path class="st118" d="M256.9,190.6c-.3.2-1.1.2-1-.1.2-.7.7-1,.8-1.3v1.4Z"/>
      <path class="st140" d="M127.9,83.4c-.2.5-.6.9-1.5,1,.2-.5.6-.9,1.5-1Z"/>
      <path class="st131" d="M129.9,81.9c-.3.6-.7,1-1.5,1,.2-.7.8-1,1.5-1Z"/>
      <path class="st182" d="M329.4,213.2l-.4,1c-.4-.5-.5-1.7.2-2,.1.5.1.8.1,1Z"/>
      <path class="st101" d="M125.9,84.9c-.3.5-.5,1.3-1.5.9.2-.7.7-.9,1.5-.9Z"/>
      <path class="st15" d="M695.2,132.3c.2.2,0,.5,0,.7s-.5.4-.7.3-.6-.6-.4-.9c.4,0,.8,0,1.1-.1Z"/>
      <path class="st148" d="M105.9,100.8c-.5.3-.7.6-1.2.5s-.1-.5.2-.7.3-.1.5-.3c.2.1.4.3.5.5Z"/>
      <path class="st209" d="M294.8,22h-.5c.1-.6.5-1.1.9-1.5,0,.6-.1,1-.4,1.5Z"/>
      <path class="st161" d="M291.9,13.4c-.6,0-1.2,0-1.6-.5-.1-.4,0-.5.5-.5.6,0,.7.8,1.1,1Z"/>
      <path class="st113" d="M78.5,187.2c-.4,0-.9.7-1.5.5-.3-.1-.3-.3,0-.5.5,0,1-.2,1.5-.5.4.1.4.3,0,.5Z"/>
      <path class="st27" d="M421.4,286.5c-.1.5.1,1.5-.5,1.6,0-.5,0-1,0-1.5l.5-.6c0,.2.1.4,0,.5Z"/>
      <path class="st177" d="M119.9,89.4c.3-.8,1.2-1.3,1.3-.9s-.9,1-1.3.9Z"/>
      <circle class="st60" cx="100" cy="104.4" r=".5"/>
      <path class="st19" d="M290.8,12.5c-.1.2-.3.4-.5.5-.4,0-.8-.2-1-.5h1.5Z"/>
      <path class="st54" d="M250.9,139.9h-.5c0-.5-.2-1.3.4-1.6,0,.4,0,1.2.2,1.6Z"/>
      <path class="st197" d="M80,186.8c-.5.1-1,.4-1.5.4v-.5h1.5Z"/>
      <path class="st62" d="M301.3,176.7c.4.1.4.3,0,.5v.5c0,0-1-.5-1-.5-.3-.1-.2-.3,0-.5,0-.7.6-.5,1,0Z"/>
      <path class="st205" d="M301.3,177.2v-.5c-.4-.1-.4-.3,0-.5.3.1.5.3.8.5s.3.4,0,.5-.6,0-.7,0Z"/>
      <path class="st166" d="M301.3,176.2v.5h-1c-.5.2-.6-.2-.2-.6v-.4s1.2.5,1.2.5Z"/>
      <path class="st156" d="M718.3,106.4c-.2.2-.4.3-.7.5,0-.5-.1-1.2.4-1.5,0,.3,0,.8.2,1Z"/>
      <path class="st77" d="M488.2,305.5c.2-.4.4-.7.6-1,.5-.2.6.6.4.8-.3.4-.8.2-1.1.2Z"/>
      <path class="st218" d="M294.3,24.5c0,.3,0,.7,0,1-.6-.2-.4-1-.4-1.5.3,0,.6.2.5.5Z"/>
      <path class="st56" d="M77,187.7c-.3.1-.7.5-1,.5.2-.5.5-.9,1-1v.5Z"/>
      <path class="st140" d="M129.9,81.9c.3-.6.9-1.6,1.6-1.3-.2,1.1-1,.9-1.6,1.3Z"/>
      <path class="st92" d="M598.7,43.8l-.9.2h-.6c-.2-.5.4-.6.7-.6s.8,0,.8.4Z"/>
      <path class="st30" d="M282.2,210.7c-.3.2-.3-.2-.3-.3,0-.4.2-.9.6-.7-.2.3-.1.7-.2,1.1Z"/>
      <path class="st53" d="M294.9,174.3c.2.3-.1.4-.3.4-.5,0-.6-.4-.7-.6.4,0,.7,0,1.1.2Z"/>
      <path class="st82" d="M579.2,40h-1.1c-.2-.4.3-.6.6-.4s.3.3.4.4Z"/>
      <path class="st25" d="M437.4,298.5c0-.3-.1-1.1.4-1,0,.4,0,.9-.4,1Z"/>
      <path class="st97" d="M253.4,77.8l-.5.5h-.5c.2-.1.3-.4.5-.5,0-.3.3-.3.5,0Z"/>
      <path class="st222" d="M252.9,78.4c-.2.2-.5.3-.7.5-.6,0-.2-.5.2-.5h.5Z"/>
      <path class="st229" d="M590.7,187.2v.5c-.3.1-.7,0-1,0v-.5h1Z"/>
      <path class="st112" d="M721.1,105.3c-.8,0-.7-1.1,0-1-.1.2,0,.7,0,1Z"/>
      <path class="st94" d="M63,190.8c0,.6-.7.3-1,.3.1-.4.6-.3,1-.3Z"/>
      <path class="st164" d="M585.7,189.2c-.1,0-.2.3-.4.4s-.7,0-.6-.3c.1,0,.3,0,.5,0s.3,0,.5,0Z"/>
      <path class="st190" d="M125.9,84.9c0-.1.3-.2.5-.5,0,.1-.3.2-.5.5Z"/>
      <path class="st13" d="M217.8,190.5c-.2-.4.4-.3.6-.4-.2,0-.4.3-.6.4Z"/>
      <path class="st91" d="M264.4,188.7c-.2,0-.7,0-.6-.4.2,0,.7,0,.6.4Z"/>
      <path class="st133" d="M127.9,83.4l.5-.5-.5.5Z"/>
      <path class="st188" d="M244.9,103.9c-.4-.3-.8-.6-1.1-1.1.5.1.9.6,1.1,1.1Z"/>
      <path class="st69" d="M119.9,89.4c-.3.1-.4,0-.4,0s.2,0,.4,0Z"/>
      <path class="st50" d="M163.9,182.2c-.2,0-.5-.3-.5-.5.3,0,.5.2.5.5Z"/>
      <path class="st70" d="M322.7,203.6c-.5.2-.4-.2-.4-.5.1.3.3.4.4.5Z"/>
      <path class="st17" d="M427.1,298.5c-.3,0-.6,0-.4-.4.3,0,.3.2.4.4Z"/>
      <path class="st50" d="M624.1,174.2c.1-.3.4-.4.6-.5-.2.1-.4.4-.6.5Z"/>
      <path class="st50" d="M766.1,166.3c-.2-.1-.8-.2-.5-.5.2,0,.7.2.5.5Z"/>
      <path class="st50" d="M765.1,165.8c-.3,0-.8,0-.6-.5.3,0,.5.2.6.5Z"/>
      <path class="st170" d="M254.8,143.3c0-.3.4-.5.6-.5.2.3-.4.5-.6.5Z"/>
      <path class="st187" d="M271,59.9c-.3-.4.2-.4.4-.5l-.4.5Z"/>
      <path class="st31" d="M271.8,58.9l.5-.5-.5.5Z"/>
      <path class="st64" d="M272.4,58.4l.5-.5-.5.5Z"/>
      <path class="st159" d="M272.9,57.9l.5-.6-.5.6Z"/>
      <path class="st2" d="M276.9,53c0-.2.2-.5.4-.5,0,.2-.3.4-.4.5Z"/>
      <path class="st174" d="M575.4,300.1c0,.8-.4,1.6-1.1,1.7s-1.5.3-1.5-.7l-1-30.5c-.4-12.6-3.8-24.4-7.6-36.4-.1-.3.7-.7.8-.5-.3-1.9,9.8,20.5,10.1,43.3l.3,23.1Z"/>
      <path class="st89" d="M832.2,294.2c-.9,2.8-5.4,14.9-6.9,16.1s-1.5-.1-1.3-.4c3.2-7.8,6-15.6,8.9-23.5l3.2-8.7c.1-.4-.2-.9,0-1.1.3-.3.6-.3.8-.3s.9.9.7,1.4l-5.4,16.5Z"/>
      <path class="st127" d="M789.1,314.7c-2.6.5-5.2.4-8.1,0,2.6-.4,5.2-.4,8.1,0Z"/>
      <path class="st230" d="M831.6,315h-2.5c.4-.8,2.1-.8,2.5,0Z"/>
      <path class="st13" d="M40.9,306.9c-.4-.1-.7-.3-1-.5-4.1-2.6-5.2-19.9-5.3-25-.2-8.6,1.4-16.7,7.4-23.3s18.8-18.8,28.5-24.7.9-.4,1.4-.5,1.1-.2,1.6-.2c1.3,1.7-2.3,1.2-.5,7-10.9,9.1-16.4,14.3-24.2,26.2-4.5,6.9-6.8,14.4-7.9,22.6-.8,5.9-1.3,11.5.6,17.3s-.2,1.1-.5,1.2Z"/>
      <path class="st174" d="M108.4,211.1l-.5.6c-.3.4-.6.5-1,.5-.1.3-.3.3-.5,0-.3.5-.8.8-1.5,1-.2.3-.5.4-1.1.5-10.6,5.5-20.9,11.8-30.4,19-10.8,6.8-20.6,15.4-29.6,24.8-2.4,2.5-4.1,5.7-5.7,8.7-3,5.7-2.6,11.9-2.5,18.1s1.4,15.7,5.3,22.7c0,0,3,5.8,1.6,5.6-.4-.1-1.4.9-1.9.4-8.2-13.3-7.1-17.2-7.9-31.2s1.9-16.5,7.1-23,1-1.6,1.8-2.5c11.1-11.9,23.7-21.6,37.3-30.6s21.1-13.1,32.5-18.2c1.2-.5,2.5-.8,3.5-1.8.8.2,1.8-.5,2.8.5-3.2,2.1-6.2,3.5-9.2,4.9Z"/>
      <path class="st174" d="M146.6,245.9c-.7.4-1-.5-1-.7s0-.5.4-.8c13.4-9,27.2-17,41.9-24,11.9-5.7,23.9-9.6,36.9-12.2l26.8-5.4c-2.4,2.2-5.4,2.2-8.2,2.9l-26.1,6.1c-22.7,5.3-50.9,21.4-70.7,34.2Z"/>
      <path class="st18" d="M222.5,257.5c-.9-.1-1-1.2-.6-1.9,7.1-11.1,25.2-38,35.4-44.8l5.1-3.4c0,2.4-2.1,2.8-3.3,4-14.9,13.4-25.2,29.3-36.5,46.2Z"/>
      <path class="st81" d="M259.2,235.3c0-3.2,10.4-29,14.4-28.4-1.6,3.1-4,5.2-5,8.5l-9.4,19.9Z"/>
      <path class="st117" d="M264.5,205.5c-1.5-1.9,2.1-3.6,2.5-5.2-3.3,0-5.8,1.8-9.1,1.4,3.1-2.4,6.6-2.3,9.9-3.6s2.6.8,2.2,1.7c-1.1,2.5-3.3,4.4-5.5,5.7Z"/>
      <path class="st52" d="M106.4,212.7c-.3.3-.6.4-1,.5h-.5c.4-.5.9-.8,1.5-1,.3.1.3.3,0,.5Z"/>
      <path class="st126" d="M104.9,213.2h.5c-.4.5-1,.5-1.6.5.3-.2.6-.5,1.1-.5Z"/>
      <path class="st59" d="M107.9,211.7c-.2.5-.5.8-1,1-.3-.1-.3-.3,0-.5.3-.3.6-.4,1-.5Z"/>
      <path class="st39" d="M106.9,212.7c-.1,0-.3,0-.5,0v-.5c.2,0,.3,0,.5,0v.5Z"/>
      <path class="st121" d="M107.9,211.7c.2-.1.3-.5.5-.6l-.5.6Z"/>
      <path class="st185" d="M634.6,164.9c-.1.7-.9.9-1.6.9.1-.3.4-.7.6-1-.2.4.2.5.4.3s.3-.1.5-.2Z"/>
      <path class="st50" d="M631.3,167.7c0-.2.4-.3.4-.5,0,.2-.2.4-.4.5Z"/>
      <path class="st144" d="M418.3,87.4l1,.5c1.3.5-8.5.7-9.7.8l-10,.4c-2.6.1-5,.2-7.4.3v-.5c2.9-.9,6-.2,9.1-.6s15.1-.9,17-.9Z"/>
      <path class="st201" d="M425.3,87.9c-.7-.2-1.4-.4-2-.5.4-1,12.9-.4,14.5-.3-2.5.9-5,0-7.5.4s-3.4.4-5,.4Z"/>
      <path class="st225" d="M434.8,74.4c.4.1.4.3,0,.5-1.5-.1-2.9.1-4.5.4s-3.5,0-5.1,0c-.2-.3-.3-.7-.4-1h10Z"/>
      <path class="st212" d="M423.3,87.4c.7,0,1.7-.3,2,.5h-6c-.4,0-.9,0-1-.5h5Z"/>
      <path class="st155" d="M438.3,74.9c-.4-.1-.4-.3,0-.5,1.3,0,2.7-.3,4,.3-1.5.4-2.8.2-4,.2Z"/>
      <path class="st120" d="M438.3,74.4v.5c-1.2,0-2.3,0-3.5,0v-.5c1.2,0,2.3,0,3.5,0Z"/>
      <path class="st61" d="M416.8,283.6c0-.4,0-6.1-1-4.1-2.1.4-1-1.4.1-2.5-.1-1.3.1-2.1.9-2.5l-1.1-.5c0-1-.4-1.6-1.1-2-1.4.3-2.6.3-3.5,0v-1.4c1.6-.5,3.6-1.8,5.3-.6,3.4,2.3,2.8,6.4,1.1,9.6s.7,3.2-.5,4Z"/>
      <path class="st174" d="M196.9,25.5c.3.3.6.8.4,1.1s-.8,1.3-1.4,1.2c-5.8-1.5-11.4-1.1-17-.3-8.4,1.2-16.3,3.9-24.3,7.5-20,9.2-37.6,22.6-52.3,39-3,3.3-5.2,6.7-7.6,10s-6,9.3-8.7,14.2c-.4.4-.6.1-.5-.9,2.8-8,7.7-15.2,13.4-22.1,18.8-22.8,48.3-44.4,77.8-50,6.9-1.3,13.6-1.2,20.2.3Z"/>
      <path class="st193" d="M85.9,98.3c.4.7.4,1.7,1,2.6l4.1,7c.3.5.4,1,0,1.3-1.8,1.7-3.2-3.1-5.2-6.3s-1.1-3.7-.4-5.6l.5.9Z"/>
      <path class="st85" d="M588.1,14c.5-.1.7,0,.5.6-5.5,3.6-11.4,6.9-16,11.6s-3.6,2.2-3.5,4.1,1.1.8,1.3,1.2,0,.6-.3,1c-.8,0-3,0-3.2-1.1-.5-2.6,1.8-4.6,3.7-5.8s2.7-2.4,4.1-3.4c4.3-3.1,8.7-5.8,13.3-8.1Z"/>
      <path class="st46" d="M590.7,13c-.6.6-1.3,1.1-2,1.6-.1-.2-.3-.4-.5-.6.6-.6,1.3-1.1,2-1.5.1.2.3.4.5.5Z"/>
      <path class="st88" d="M123.4,169.7c.3.1.3.3,0,.5l-2,1c-.1-.2-.3-.4-.5-.5l.5-.5c.6-.5,1.4-1.1,2-.5Z"/>
      <path class="st107" d="M123,169.1c.2,0,.3-.1.5,0,.3.2.3.4,0,.6l-2,.5c.3-.7.9-1.1,1.6-1.1Z"/>
      <path class="st38" d="M56,191.2h-1.5c0-.5.4-.5.7-.5s.8,0,.7.5Z"/>
      <path class="st66" d="M253.4,77.8c-.2,0-.4,0-.5,0,0-.6.6-.7.5,0Z"/>
      <path class="st50" d="M200.4,74.9c.3,1.3.6,2.9,0,4-.4,1.6-.4,3.3,0,5l.5,1.1c-.9,1.4-1.3,2.8-1.3,4.2,3.8,3.8,7.9,10.8,7.5,16.4,0,1.4-.5,4.3-2.3,3.4-.6,0-1.2.4-1.8.9.3,1.4-1.7,2.5-2.6,1.2-.4.7-1.2,1-1.9.8-1.1.2-1.7.5-1.5,1.1-5,2.5-5.4-5-8-7-.7-.7-1.2-1.8-1.4-3.2-1.1-1.4-1.5-2.7-1.1-3.9-.3-.9-1-1.6-2-1.9l-1,.7c-6.6-3.8-18.5-1.7-20.9,6.1l-1.1.2c-.3.5-.5.6-.6,0-1.7.3-2.3.9-3.4,2.5-5.1,7.5-2,18.6.4,26.6,1,3-2.6,11.6-4.4,13.1s-1,.7-1.7.8c-1.4.8-2.4,2-3.2,3.4.6,1.4-1.9,4.1-3.2,2.9l-2.3,2v1.3c-1.7.8-3.4,1.8-4.9,2.9-.5,1.7-1.3,3.3-2.6,4.8l-.9,4.3h-1.1c-.4,1.1-1,2.1-2,1.2-.3,1.1-1.5.7-1.8-.1,0-4.8-13.3-23-15.3-28.5-.9-7.5,13.1-21.8,18.6-27,18.7-17.4,40-31.5,62.9-42.7,5.1,1.8,4.1,2.7,4.5,3.4Z"/>
      <path class="st174" d="M184.5,96.8c1.2-.5,1.8.8,2,1.9,1.5,2.1,2.5,4.6,2.5,7.1-.2.2-.2.8-.4.9s-.6,0-.6-.2-.3-.7-.3-.9c-1.1-7.7-10.9-9.6-16.3-7.4s-4.5,1.2-5.8,3.3-3.4,5.7-3.5,8.9c-.1,5.8,3.7,10.7,8.1,14.2,4.4,3.5,9.6,4.6,14.4,7.2,4.9,2.7,9.7,5.4,15.6,4.2,1.6-4.4-2.8-7,.3-7.9s1,.3,1.5.9c2.2,2.5.9,5.1,1.1,7.8.7,9,9.4,15.8,7.4,15.6-3.9-.2-8.3-9.3-8.9-13.5-6.8,1.5-12.5-1-18.1-4.1-4.8-2.6-10-3.9-14.2-7.4-5-4-8.6-9-9.8-15.2-2.2-1.2-.3-4.9,1-6.4,0-.7.3-1.7,1-2,.7-1.9,1.5-4.2,3.4-5.5,3.4-2.3,7.4-3.5,11.5-3.8s5.6,1.4,8.1,2.3Z"/>
      <path class="st174" d="M160.8,103.8c.2.6-.3,1.8-.9,2.1-1.2,3.2-2.2,6.6-3,10,.5,4.2.5,8.7,2.2,12.9s1.6,7.5-.2,11.1l-3.8,7.4c-1.5,2.9-4.1,4.6-6.4,6.8s-4.1,3.8-6.9,5.1c-5,2.2-1.4,2.6-5.2,5.8-.9,2.7-.6,7.8-3.4,8s-2-1.8-3.5-2c0-.4,0-.8,0-1.2.5-.1,1.3,0,1.8.1.7,0,1.4-.4,2-1.1.8-1.7.4-3.8,1.4-5.6s1.8-1.6,2-3.1c.3-3,4.7-2.8,6.2-4.8l2.3-2c1.3-.5,2.1-2.3,3.2-2.9.7-1.4,1.8-2.7,3.2-3.4,2-2.9,3.6-6.3,4.9-9.8s-.4-5.7-1.2-8.3c-1.1-3.4-1.1-6.8-1.6-10.5-.8-5.7.9-11.5,5.2-15.2s1.5.7,1.8.8Z"/>
      <path class="st174" d="M201.4,81.9c.2.6.6,1.8.6,2.5,0,1.2-1.4,2.7-1.1,4,5.6,4.9,11.1,16.2,5.9,22.8-.8,1-2.4,1-3.6,1.4s-1.4,2.1-2.7,2.2-2.6-1.1-3.4-2-2-1.7-2.5-3c1.1-1.1,1.5.5,4,1.9.6-.1,1.3-.4,1.9-.8.9-.1,1.7-1,2.6-1.2.6-.5,1.1-.8,1.8-.9,2-2,1.4-5.3.6-8-3.9-13.3-9.9-8.2-5-17-.4-1.6-.4-3.4,0-5v-4c1.4,2.4-.4,5.5,1,7Z"/>
      <path class="st165" d="M187.2,116.6c-.3-2.4.2-3.6-1.1-5.5-2.6-4.1-7.4-7.5-12.4-5.9s-5.5,10-7.5,6.1,2-7.1,6.3-8.7c9.1-3.3,16.7,6.1,17,11.1s-.6,4.6,2.2,6.4,3.1,1.3,4,2.8c-3.6.8-8.2-2.4-8.6-6.3Z"/>
      <path class="st50" d="M240.8,76.8c1.8,1.2,3.2,2.9,2.3,5.4s-1.9,3.9-2.8,5.7l-5.5,3.1c-1.4-5.7-2.7-9.8,2-14.3s3.8,1.2,4,0Z"/>
      <path class="st29" d="M182.5,115c-2.4,3.7,5.1,6.1,2.5,7.6-2.3-.7-4.4-3.1-4.7-5.8s1.6-4.2,3.4-3.3c.9.5-1,1.1-1.2,1.4Z"/>
      <path class="st90" d="M160.5,105.9c-.6,2.1-1.2,4.2-1,6.4l-2.6,3.6c-.5-3.6.4-7.3,3-10,.2-.3.4-.3.6,0Z"/>
      <path class="st145" d="M252.8,176.7c-.6,0-1-.5-1.5-.6.3-.5.6-1.1,1.3-1.2.3.8.2,1.3.2,1.8Z"/>
      <path class="st67" d="M239.9,97.8c-.3.2-.3.3,0,.5-.8.6-1.4,1-1.3,2s0,2.3-.7,2.4c-.1-2.1.3-4.1,1.3-5.9.5.5.8.6.8,1Z"/>
      <path class="st50" d="M239.9,88.9c0-.2,0-.5.4-.5,0,.2,0,.7-.4.5Z"/>
      <path class="st103" d="M238.8,106.3c0-.4,0-.4.1-.4s0,.2-.1.4Z"/>
      <path class="st141" d="M587.7,91.4c-.3-.4-.7-.8-1-1,0-1.1.3-2.1.6-3.4,1-4.4.6-9.3,2.6-13.3s8.5-9,9.3-14.2c3,2.1-2.5,7.6-3.8,13.2l-1.9,8.4c-.7,3.1-.2,6.3-.7,9.5-1.9,0-3.6.2-5.2.8Z"/>
      <path class="st165" d="M714.1,100.3c1.2,1.1.8,3.6-.6,3.9-3-2.1-4.9-6-6.2-9.4-.7.2-1.1,1.1-1.5.9-1.2-1-1.5-2.6-1.6-3.9,0-1.5-.5-2.6-.2-3.9s1.4-.4,1.6.1.5.7.5,1.2c.4,3.4,3,.5,3.9,3.5s2.1,5.5,4.1,7.4Z"/>
      <path class="st8" d="M609,67.6c-1.1.5-1.8,0-2.8,0-.4,1.6,2,7.5.7,7.5s-2.4-6.4-1.8-8.4c2.1-7.2,1.2-2.3-2.9-11.9,2.3.6,2.6,2.7,3.8,4.2,2.5,3.2,4.6,6.3,8.1,8.4s.5.8.3,1.1c-1.1,1.3-4-1.5-5.3-2.7-.8.3-.2.9,0,1.8Z"/>
      <path class="st70" d="M623.5,145.2c0,.5-.4.9-1.4,1-4.3-2.3-8.5-5.2-11-9.4,1.2-4.2,10.3,4.3,11.9,6.1s.2,1.7.5,2.2Z"/>
      <path class="st71" d="M702.8,90.8c0,.1,0,.4,0,.5.3.3.1.8-.2,1.1-.2.2-.4.9-.7.8-1.1-.2-1.7-5.8-2.2-7-6.2,2.3-2-6-2-12.3s.8-1.3.4-2.1c2.2-1,.6,10,.9,11.3.8.2,2.4,0,2.6.7.6,2.4.4,4.8,1.2,6.9Z"/>
      <path class="st213" d="M597.7,99.9c-1.3-1-2.4-2-3.2-3.1-1-.5-2-.8-3.2-1.7,7.2-1.7,7,6.5,10.9,3.2s-1.6-7.8-1.9-10c1.5-1.3,5.7,4,5.1,7.5s-1.5,3.8-3.4,4.7-3.1,0-4.3-.7Z"/>
      <path class="st152" d="M688.8,58.4c-.7,4.1-6.6-1.9-13,3.3s-2.9,4.6-3.4,8c-2.3-5.6,2.2-11.4,7.6-12.3s5.8.6,8.7,1Z"/>
      <path class="st224" d="M614.1,58.5c-.9,3-5.8-2.1-6.8-3.3-4.7-5.7-6.6-2.5-8.1-8.4,0-.5-.3-1.3.6-1.4,2.6,6.6,4.1,2.5,7.8,7.1,1.9,2.4,4.3,4.1,6.5,6Z"/>
      <path class="st184" d="M601,85.9c6.6-3.5,14.8,14.3,13.3,15.3s-.8-.2-1-.6c-3.5-6.4-4.8-11.9-12.3-14.7Z"/>
      <path class="st154" d="M685.3,74.2c-1.8,6.6-6.1,7.2-4.1,4.2s2.8-3.8,2.3-5.9c-.8-3.5-4.7-3.6-8.1-3.5,2.2-2.5,6-1.2,8.3.3s2.1,3.1,1.6,4.8Z"/>
      <path class="st85" d="M670.2,83.6c6.8-8.6-.4-12,1.9-12.6s1.1-.1,1.4.3c3.1,3.7,1.9,10.4-3.3,12.3Z"/>
      <path class="st172" d="M606.7,123.3c-.6-.3-1.7-.3-2.3-1.2,1-1.5,2.7-2.8,4.3-3.7h1.4c-1,3.9-2.3,2.7-3.4,4.9Z"/>
      <path class="st86" d="M613.6,69.2c.9-.4,5.1,4.9,5.1,5.4-.6,2.9-5.2-4.1-5.1-5.4Z"/>
      <path class="st149" d="M597.7,99.9c-.3-.2-.7-.3-1-.4-1.1-.5-1.9-1.8-3.1-2.1.4,0,.7-.2.9-.6,1.3.7,2.5,1.7,3.2,3.1Z"/>
      <path class="st176" d="M649.7,142.8h-2c.2-.6.6-1.1,1.3-1.1s.8.5.7,1.1Z"/>
      <path class="st171" d="M605.8,112.3c-1.1-.3-1.7-.2-2.7-1,.8,0,1.6.3,2.7.4.5.1.5.6,0,.5Z"/>
      <path class="st130" d="M587.7,91.4c-.3.1-.7,0-1,0,0-.3,0-.7,0-1,.4-.2.5-.6.8-1,.4.9,0,1.4.2,2Z"/>
      <path class="st16" d="M623.5,145.2c.2.3,0,.8.2,1.1-.4.1-1.1,0-1.5,0,.2-.6.8-1,1.4-1Z"/>
      <path class="st204" d="M610.2,128.8l-.6.5c0-.3-.4-.5-.4-.7,0-.4,0-1,.6-.6s.3.7.5.8Z"/>
      <path class="st34" d="M599.3,108.9c-.5-.5-.6-.8-.6-1.6.4.2.6.5.9.9s.4.7-.2.7Z"/>
      <path class="st41" d="M643.2,143.1h-1c.2,0,.3-.3.7-.3s.4,0,.3.3Z"/>
      <path class="st50" d="M702.6,92.4l.2-1.1c.4-.2.4.5.3.8s-.4.2-.5.3Z"/>
      <path class="st141" d="M64.4,137.9c.4-.9,1.2-1.6,2.1-2.1-.5.9-1.2,1.6-2.1,2.1Z"/>
      <path class="st98" d="M588.2,34.9c17.9,0,35.5,1.9,53.5,4.4,17.8,2.5,34.8,5.7,51.7,11.2s.8.8.6,1-.9.4-1.4.3c-16.6-5-33.1-8.2-50.4-10.7-18.6-2.7-36.7-4.7-55.5-5.4-1.4,0-2.4-.6-3.6-.4-.1-.2-.2-.5-.2-.6,0-.2,4.6-.2,5.2.1Z"/>
      <path class="st79" d="M588.2,34.9h-4c-.5,0-1,.1-1,.5-2.3.4-5.6-.7-7.5-.5-.7-.7-.4-.9.5-.5h11.5c.3,0,.6.3.5.5Z"/>
      <path class="st48" d="M576.2,34.4c-.2,0-.5.3-.5.5-1.2.1-2.4-.3-3.4-.8,1.7-.2,3.2-.6,3.9.3Z"/>
      <path class="st23" d="M292.7,196c.3-.6.8-.2,1.2.2,1-.1,1.8-.6,2.7-.5.5,3,.7,5.9.6,9s2.7,3.8.8,4.4-1.2-.3-1.7-.3c-1.3,1-2.8,7.8-4,6.9-2-1.5,3.9-8.1.6-11.5-.9,0-.9-.8-.5-1.5-.8,0-.7-.8-.6-1.5l-4.6-11.1c-.8-1.4-.5-1.7.5-.5,2.5,1.9,1.7,4.9,5,6.4Z"/>
      <path class="st95" d="M278.4,181.7l8,5.5c.8.5.7,1.9,1.3,2.4-.4-.3-.9,0-.5.5-.4-1-2.2-2-3.1-2.5l-4.3-2.9c-.8,0-1.8,0-1.4-.9-.8-1-1.8-1.4-2.3-2.5,1-.4,1.6.4,2.4.5Z"/>
      <path class="st108" d="M292.3,202.7v2.5c-1,5.9-1.5-4.8-.6-4,.1.3.5.9.6,1.5Z"/>
      <path class="st68" d="M278.4,183.8c.2.3.8.5,1.4.9-1,.7-2.3,0-3.3-.5.6-.3,1.3-.4,1.9-.4Z"/>
      <path class="st47" d="M292.9,204.2c-.5,0-.5.6-.5,1-.8-.4-.8-2.1,0-2.5,0,.3.3.9.5,1.5Z"/>
      <path class="st43" d="M293.8,196.2c-.2,0-.6,0-1.2-.2-.3-.2.2-.8.4-.8s.7.6.7,1Z"/>
      <path class="st33" d="M239.9,98.3c-.6,0-.6-.5,0-.5,0,.2,0,.3,0,.5Z"/>
      <path class="st226" d="M405.8,263.6c-1.7-.6-.9,2.6-1.8,4-.9.9-2.2,1.5-3.5,1.4,0-.3,0-.7,0-.9.6-1,1.2-2,1.9-3.1.2-.7.1-1.5-.1-2.3,1.4-.3,2.5.2,3.5.9Z"/>
      <path class="st173" d="M408.9,268.6c-.2.4.2.9-.4,1.5l-1.1-3.6c-.1-.4,0-.8.4-.8.9.9.7,1.8,1,2.9Z"/>
      <path class="st133" d="M437.3,310.5c.1.3.5.5.5,1-1,.3-1.3-.5-1.5-1.1.2-.2.4-.6.5-.9.1.3.6.6.5,1Z"/>
      <path class="st146" d="M397.8,276.6h-.6v-1c.2-.4.3-.4.5,0,0,.3,0,.7,0,1Z"/>
      <path class="st74" d="M300.2,176.1l.2.6c0,.2,0,.3,0,.5-.3-.1-.8-.3-1-.8s.6-.4.8-.3Z"/>
      <path class="st6" d="M416.8,274.5c1.1,4.8-2.3,3.5-1,5,0,1.1.3,2.6-.2,3.6-3-.3-3.3-2.5-3.9-4.5-.6-3,3.2-6.6,5.1-4Z"/>
      <path class="st14" d="M416.8,274.5c-2.4-.3-4.3,1.8-5.1,4-.6-2.1-.7-4.3-.7-6.5,1.2-.6,2.5-1.4,3.9-1s1.6,2.1,1.9,3.4Z"/>
      <path class="st93" d="M402.3,262.7l1.2.4c.5.2.1,4.5-2.9,4.9,0-1.6-.5-3.1-.8-5.1.9-.5,1.8-.1,2.6-.3Z"/>
      <path class="st11" d="M398.8,271.1c-.6,1.3-.1,2.8-1,4-.4.1-.5,0-.5-.5.4-1.1.2-2.5,1-3.5.1-.4.3-.4.5,0Z"/>
      <path class="st44" d="M398.8,271.1h-.5c.1-.2,0-.5,0-.7s.3-.3.7-.3c.7,0,.2,0-.2,1Z"/>
      <path class="st200" d="M436.3,307.5l-.6-.5c-.1-.4.2-.7.5-.5.2.3,0,.7,0,1Z"/>
      <path class="st55" d="M397.8,275.1c0,.1,0,.4,0,.5h-.5c0-.3-.1-.7,0-1,.2.1.4.3.5.5Z"/>
      <circle class="st32" cx="399.5" cy="269.3" r=".2"/>
      <path class="st87" d="M283.5,218.3c1.7-1.5-.7,3.6,1.5,6.5-1.5-.2-2.1-1.4-2.4-2.3-.4-1.4-.2-3.3.9-4.2Z"/>
      <path class="st207" d="M279.3,225.7c.3-1.9.7-1.3.6-.5,0,.4-.4.6-.6.5Z"/>
      <path class="st203" d="M123.4,170.2v-1.1c.2.2.5.2.5.3.1.4,0,.8-.5.7Z"/>
      <path class="st36" d="M151.8,146.8c-1,1.4-1.7,2.5-3.2,3.4-.2-1.7,1.6-3.5,3.2-3.4Z"/>
      <path class="st78" d="M186.5,98.7c-.5-.7-1.7-1-2-1.9l1.6-.8c.3,1,.7,1.9.4,2.7Z"/>
      <path class="st217" d="M133.4,168.7c-.2.5.3,1.6-.4,2.1s-1.2-.7-1.5-1c.6-.4,1.2-1.2,2-1.1Z"/>
      <path class="st129" d="M145.3,153.2c-.4,1-1.3,1.7-2.3,2,.1-1.3,1.3-1.7,2.3-2Z"/>
      <path class="st167" d="M200.4,111c0,.4-.2.9-.6,1.4s-.8-.3-1.3-.6c.2-.9,1.2-.6,1.9-.8Z"/>
      <path class="st168" d="M200.4,83.9c-.9-1.3-.9-3.7,0-5v5Z"/>
      <path class="st9" d="M204.8,108.9c-.5.5-1,.7-1.8.9.2-.4.5-.7,1-1s.7-.6.8,0Z"/>
      <path class="st28" d="M160.5,105.9h-.6c.5-.5.5-1.5.9-2h.6c-.2.6-.8,1.4-1,2Z"/>
      <path class="st189" d="M293.3,200.7c0-1.1,0-2,.5-2.5,2-.5,1,4.9.8,5.1l-1.3-2.5Z"/>
      <path class="st106" d="M293.8,198.2c0,.8.4,2-.5,2.5-.4-.8-.3-1.5-.5-2-.4-.6-.2-.9.5-.5.3,0,.4,0,.5,0Z"/>
      <path class="st169" d="M293.3,198.2c-.2,0-.4,0-.5.5-.3,0-.5-.1-.5-.3s0-.6.3-.7c.4-.1.8,0,.7.5Z"/>
    </g>
  </g>
</svg>