<?xml version="1.0" encoding="UTF-8"?><svg xmlns="http://www.w3.org/2000/svg" viewBox="0 0 930 325"><defs><style>.cls-1{fill:#9fa67c;}.cls-2{fill:#2d3200;}.cls-3{fill:#030302;}.cls-4{fill:#fff;}.cls-5{fill:#808821;}.cls-6{fill:#3b3d2d;}.cls-7{fill:#808033;}.cls-8{fill:#969c6c;}.cls-9{fill:#a7ad80;}.cls-10{fill:#c7cab5;}.cls-11{fill:#2d3201;}.cls-12{fill:#010100;}.cls-13{fill:#5d6700;}.cls-14{fill:#697400;}.cls-15{fill:#848b56;}.cls-16{fill:#535d00;}.cls-17{fill:#6f7a12;}.cls-18{fill:#515a00;}.cls-19{fill:#dbdfc1;}.cls-20{fill:#e4e6d4;}.cls-21{fill:#808c21;}.cls-22{fill:#a6b06b;}.cls-23{fill:#1c1f00;}.cls-24{fill:#b0b781;}.cls-25{fill:#848970;}.cls-26{fill:#aab36c;}.cls-27{fill:#b5be80;}.cls-28{fill:#89905d;}.cls-29{fill:#919d3c;}.cls-30{fill:#a9b16d;}.cls-31{fill:#808067;}.cls-32{fill:#010200;}.cls-33{fill:#8d964f;}.cls-34{fill:#7b8900;}.cls-35{fill:#cdcfb9;}.cls-36{fill:#a3ac66;}.cls-37{fill:#a0a773;}.cls-38{fill:#6f7448;}.cls-39{fill:#a7ae80;}.cls-40{fill:#727e0e;}.cls-41{fill:#9ca372;}.cls-42{fill:#a9b080;}.cls-43{fill:#020201;}.cls-44{fill:#667200;}.cls-45{fill:#6f7a0f;}.cls-46{fill:#1b1d0e;}.cls-47{fill:#9ca652;}.cls-48{fill:#626d00;}.cls-49{fill:#80804a;}.cls-50{fill:#80851a;}.cls-51{fill:#969d6c;}.cls-52{fill:#919871;}.cls-53{fill:#040401;}.cls-54{fill:#b3bb80;}.cls-55{fill:#b4bb80;}.cls-56{fill:#959d60;}.cls-57{fill:#808037;}.cls-58{fill:#b0b780;}.cls-59{fill:#8d9365;}.cls-60{fill:#808044;}.cls-61{fill:#b8c080;}.cls-62{fill:#1b1c15;}.cls-63{fill:#141600;}.cls-64{fill:#a9b17e;}.cls-65{fill:#889053;}.cls-66{fill:#d1d8a2;}.cls-67{fill:#b5bc82;}.cls-68{fill:#b6bd81;}.cls-69{fill:#9ca562;}.cls-70{fill:#78802b;}.cls-71{fill:#010101;}.cls-72{fill:#040502;}.cls-73{fill:#8e9562;}.cls-74{fill:#858d53;}.cls-75{fill:#81856d;}.cls-76{fill:#495100;}</style></defs><g id="Ebene_2"><g id="Ebene_2-2"><rect class="cls-66" x=".18" y=".02" width="930.91" height="324.34"/><g><path class="cls-4" d="M455.28,8.62c1.3,0,1.6,.8,1.5,1.9-.2,3.4-.4,6.7-.5,10.1,0,.9-.3,1.8,.5,2.5,.9,.9,.7,2,.7,3.1,0,10.9,.3,21.8-.1,32.7-.6,16.9,0,33.8-.4,50.7-.1,5-.5,10-.5,15,0,.9,0,1.9-.8,2.5-.5,.5-.4,1.2-.4,1.9,0,9.3-.3,18.6-.7,28-.5,12.2-.1,24.3-.3,36.5v1.2c-.9,.3-1.1-.4-1.4-.8-1.1-1.5-2.3-3.1-3.3-4.7-.7-1-1.5-1.4-2.7-1.5-5.2-.4-10.4-.8-15.5-1.9-2.4-.5-4.9-.3-7.4-.6-4.4-.6-8.9-1-13.3-1.4-2.5-.2-5-.4-7.4-.5-6.7-.2-13.5-.6-20.2-.8-5.5-.2-11-.3-16.4-.3-6.6-.1-13.1,.5-19.7,.6-3.6,.1-7.3,.2-11,.4-6.3,.4-12.6,.9-18.9,1-2.5,0-4.4,1.2-5.5,3.6-1.5,3.5-3.8,6.7-4.7,10.4-.2,.7-.7,.9-1.3,.9-2.6,0-5.2-.1-7.7,.4-.9,.2-1.8-.3-2.6-.7-6-2.4-12.1-3.1-18.5-2.4-3.7,.4-7.4,.6-11.1,1.1-1.2,.2-2.1-.2-2.7-1.2-.8-1.2-1.9-1.5-3.3-1.1-2.5,.7-4.9,1.5-7.4,2.1-1.2,.3-1.9,.9-2.4,2-1.3,2.6-2.6,5.2-3.9,7.8-.5,1-.4-.2-.6-.2-.8-.9-.6-2-.6-3.1,0-4.5-.1-9,0-13.5,.3-9-.4-18-.6-27-.2-8-2.8-15.6-7.2-22.3-4.4-6.7-8.1-13.8-11-21.3-2.3-5.9-3.6-12-3.1-18.3,.4-6.4,.7-12.8,1.8-19.1,.9-5.1,2.5-9.8,5.5-14.1,.6-.8,1.1-1.6,1.6-2.5,2.7-4.7,3.3-9.5,1.3-14.6-1.9-4.7-4.7-9.1-6.2-13.9-1.9-6.2-3.9-12.4-4.1-19,0-1.4-.2-2.8-.4-4.2-.3-2.3,1-3.5,2.9-4.2,.9-.4,1.8-.7,2.8-1,1.4-.3,2.8-.2,4.2-.2,11.7,0,23.5,.2,35.2,0,40.5-1,81.1,.1,121.6-.6,20.6-.4,41.3-.1,61.9-.4,1.4,.3,3,0,4.3,1Z"/><path class="cls-4" d="M472.88,21.72c.7-1.3,.6-2.9,.9-4.3,.2-.9,.4-1.8,.8-2.6,.7-1.8,1.9-2.7,4-2.7,7.9,.1,15.7,.1,23.6,.1,.9,0,1.8,.1,2.7-.2,.9-.8,2-.6,3.1-.6h52.7c.9,.1,2-.1,2.5,.8,.5,.9-.4,1.7-.9,2.4-4.8,6.5-8.9,13.5-12.5,20.7-9.9,19.7-15.9,40.6-19.2,62.3-1.5,9.6-2.4,19.3-2.5,29.1,0,1,0,2-.2,3-.3,1-.3,2.1-.3,3.2,0,4.3-.1,8.6,0,13,.2,11.1,.9,22.1,3.1,33.1,1.4,7.1,2.8,14.1,5,21,2.7,8.6,5.4,17.1,8.2,25.7,1.4,4.3,3,8.5,4.7,12.6,.9,2.2,3.2,3.5,4.1,5.9,1.5,3.9,3.7,7.5,5.7,11.1,6,11.2,13.2,21.6,21.6,31.2,.8,.9,1.6,1.9,2.3,3,4.2,5.8,9.3,10.9,15,15.2,.5,.4,1.1,.8,1.5,1.3,.4,.4,.8,.9,.6,1.5s-.9,.7-1.5,.8c-.7,.1-1.5,.1-2.2,.1h-105.6c-1,0-2,0-3-.1-1.9-.6-4-.3-5.9-.4-1.4-.1-2.9,.2-4.2-.1-6.7-1.5-8.7-2.7-8.2-9.1v-1.7c0-7.7-.3-15.3,.1-23,.6-10.9-.1-21.8,.4-32.7,.6-12,0-24,.5-36,.3-6.7,.1-13.3,.6-20,.2-.8,.4-1.6,.4-2.5-.3-5.6,.3-11.1,.6-16.7,.6-12.4,.8-24.8,1.5-37.1,.4-7.8,.3-15.5-.2-23.2-.8-12.8-.1-25.6-.4-38.4,.8-6.8,.6-13.7,1.4-20.6,.4-4-.4-7.9-1.2-11.8-.4-3.7-.2-7.4-.2-11.1-.2-.8-.1-1.6,.6-2.2Z"/><path class="cls-34" d="M10.18,10.12c1.1-.1,2.2-.3,3.3-.4,.7-.1,1.3,0,2-.1,40.6-.4,81.2-.1,121.8-.4,19.7-.2,39.4-.3,59.2-.4,1.5,0,3-.1,4.5,.2,.9,.2,1.7,.5,2.7,.4h3.5c2.9,.5,5.8,.6,8.7,.5,2.3-.2,4.3,.4,5.6,2.6,.5,1.3,.5,2.6,.4,3.9-1.1,11,2.5,20.9,7.1,30.6,.5,1.1,1.2,2.2,1.5,3.4,.1,.9-.3,1.9,.1,2.8,.1,1,.8,1.6,1.5,2.1,.6,4.1-.8,7.9-3.2,11-5.9,7.5-6.7,16.3-7.4,25.2-.5,6.1-.8,12.3-.2,18.4,0,.2-.1,.5-.2,.7-1.1,.8-1.9-.1-2.6-.6-1.9-1.6-3.9-3.1-5.9-4.6-.5-.3-1-.7-1.2-1.3-1-3.3-3.7-3.9-6.6-4.1-3.1-.3-6.2-1.2-9.4-.9-.7,.1-1.3-.1-1.8-.7-.7-1.9,.3-3.6,.7-5.4,.1-.4,.3-.7,.5-1,.9-.9,.9-1.8,.2-2.9-1.3-2-2.4-4-4.1-5.7-1.7-1.7-1.1-2.9,.3-4.4,4.3-4.5,9.4-7.9,14.9-10.7,2.7-1.3,5.3-2.9,7.9-4.3,.6-.3,1.4-.5,1-1.4-.3-.8-1.1-1-1.9-.9-.3,0-.6,.2-.9,.3-9.4,4.4-18.5,9.3-25.2,17.5-5.9,7.2-12.2,14.1-17.9,21.5-2.1,2.8-4.6,5.3-6.8,8-.5,.7-1,1.2,0,1.7,.1,.2,.2,.5,.2,.7-.3,1.3-1.2,1.6-2.4,1.4-1.8-1.3-3.9-1.6-6.1-1.6-3.5,0-7.1-.9-11-.3,1,.8,2.1,.7,2.9,1.2,.4,.3,.6,.7,.2,1-1.5,1.1-1,2,.1,2.9,.3,.5,1.1,.6,1.1,1.3-.8,1.1-1.9,.7-3,.9-1.9,.3-4,.1-5.5,1.9-3.1,.3-4.6-1.1-4-4.1,.6-3.3,1.4-6.5,.2-9.8-.3-.7,.1-1.5,.4-2.2,1-2.8,2-5.6,3.2-8.4,.3-.6,.5-1.2,.7-1.8,1.3-1.7,2.9-2.9,4.6-4.1,10.6-7.2,21.2-14.4,31.1-22.6,3.1-2.6,7.1-3.6,10.7-5.3,7.9-3.5,16.1-5.8,24.4-7.9,2.7-.7,5.3-.1,7.9,0,1.3,0,2.5-.1,3.6-.6,2.5-1.1,3-2,2.6-4.7-.4-2.8-.8-5.6-3.1-7.7-.9-.9-1.8-2-2.7,.2-.6,1.6-3.3,2.7-5,2.3-5.3-1.3-10.7-1.1-16.1-1.3-2.1-.1-3.7,.9-5.4,2.2-2.9,2.3-6.1,4.2-9.3,6.2-7.8,4.8-14.9,10.3-21.6,16.5-3.5,3.3-7.6,5.9-11.4,8.9-4.3,3.5-8.5,7.2-12.7,10.9-1.9,1.6-3.9,2.8-6.2,3.7-2.1,.8-4.1,1.8-6,3-.6,.4-1.1,1-.8,1.7,.5,.8,1.2,.2,1.8,0,1.4-.6,2.4-1.7,3.9-2.3,.6-.2,1.3-.7,1.9-.2,.7,.5,.7,1.5,.3,2.1-1,1.5-1.7,3.3-3.4,4.4-1.1-.7-2.3-.2-3.4,.1-11.1,2.8-22.3,5.2-33.7,7.2-7.2,1.2-14.5,1.5-21.8,2.3-2.5,.3-4.2,1.2-5.6,3.5-6.8,11.2-14.4,22-20.9,33.5-3,5.3-5.8,10.7-8.4,16.2-1.3,2.8-3.1,5-5.6,6.8-4.9,3.6-9.6,7.4-14.5,11.1-2,1.5-2.6,1.5-4.1-.3-.2-.6-.2-1.2-.2-1.7,.2-17.5-.8-35-.5-52.5,0-.8,0-1.5,.2-2.2,.6-1.8,.4-3.6,.4-5.4v-5.4c-.1-2.7,.8-5.3,.5-8.1,.1-5.6,.4-11.2,.9-16.8,.2-2.2,.3-4.3-1.6-5.9-.4-1-.4-2-.4-3,.3-21.5-.8-42.9-.5-64.4,.1-1.1-.3-2.8,1-4.1Z"/><path d="M581.08,289.22c-4.6-5.6-9.4-11-13.4-17.1-6.2-9.3-11.7-18.9-16.5-29-.4-.9-.6-1.9-1.8-2.2-.8-.2-.9-1.1-1.2-1.8-4.5-10.9-8-22.2-11.4-33.5-.5-1.6-1-3.2-1.4-4.8-3.1-10.7-5.1-21.6-6.7-32.6-.9-5.8-1.3-11.7-1.5-17.6-.2-7-.3-14,.1-20.9,.1-10.7,1-21.3,2.6-31.8,4.1-27.2,12.4-52.9,27-76.4,2-3.2,3.9-6.3,6.4-9-.1-.5-.4-.4-.6-.4h-57.7c-.8-.4-1.6-.2-2.5-.2-8.1-.1-16.3-.1-24.4-.2-.7,0-1.4,.2-2.6-.4,2.3-1,4.2-.4,6.1-.6,2-.1,4,0,5.9-.4,.3-.4,.6-.4,.9,0,7.1,0,14.3,0,21.4-.1,15.3-.1,30.7-.2,46-.3,.3,0,.7-.1,1-.1,.8-.4,1.7-.4,2.5,0h23c18.7,0,37.3,0,55.9-.2,28.6-.3,57.1-.2,85.7-.3,26.9-.1,53.8-.1,80.7-.1,1.2,0,2.3,.1,3.5-.2,3.4-.9,6.8-.5,10.2-.4,5.4,.2,10.8,.3,16.2,.3,8.1,0,16.2,.2,24.2-.1,1.5-.1,3,0,4.4-.7,.6-.3,1.1-.1,1.7,0,4.7,.5,9.4,1,14.2,.9,11.3-.1,22.7-.1,34-.2,2.3,0,3.4,1,3.5,3.3,.1,1.5,.1,3,.1,4.5,.2,11.3,.4,22.7,.5,34,0,4.2,.3,8.3,.5,12.5,.4,3,1.3,6.1,0,9.1,0,7.1-.1,14.2,.1,21.2,.4,15.4,.3,30.8,.5,46.2,.3,22.2,.3,44.5,.6,66.7,.1,10.5,.1,21,.3,31.5,0,1.2,.5,2.6,.3,3.6-.2,1.3,0,2.4,.5,3.5,.2,.4,0,1-.1,1.5-.5,2.5-.7,5.1-.6,7.7,.1,14,.2,28,.4,42,0,.7,0,1.5,.2,2.2,.6,2.5-.2,5.1,.1,7.7,.2,1.2-.9,2.1-1.9,2.7-.1,0-.3-.3-.5-.5-2-1.2-2-3.1-2-5v-56.9c-.2-2-.6-2.3-2.2-1.2-1.4,1-3,1.3-4.7,1.4-3.8,.1-7.6,.1-11.4-1.1-4.3-1.3-8.8-1.9-13.3-1.5-9.4-.9-18.7-.9-28.1-1-14.4-.2-28.3,2.3-42.1,6-5.2,1.4-10.4,3-15.7,4.2-1.4,.3-2.6,.1-3.6-1.1-4.2-5.3-8.3-10.6-10.9-17-.5-1.4-.7-2.5,.1-3.8,.6-1.1,1.2-2.1,1-3.5-.1-1.2,.9-1.9,1.9-2.4,6-2.8,10.8-7.2,16.1-11,1.1-.8,2.2-2.9,3.9-1,2.3,2.5,2.2,4.6,0,6.4-.4,.4-1,.7-1.4,1.3,5.2-2.5,9.7-5.6,14.3-8.7,3.8-2.7,4.7-2.4,6.1,2.1,.1,.4,0,.8,.3,1.5,4.7-3.2,9.8-6,12.1-11.7,.6-1.5,1.4-3,2.4-4.4,.8-1.1,1.3-2.2,1-3.7-.4-1.5,.6-1.9,1.9-1.7,3.3,.5,4.6,1.9,3.5,5.1-1.4,4.2,.2,7,3.4,9.5,1.2,.9,2.2,2.1,3.3,3,1.5,1.2,2.8,2.4,5.1,1.7,1.9-.6,3.2,1.4,5.2,2.1-.2-1.3-1-2-1.6-2.7-1-1-1.9-2.1-2.7-3.3s-.7-2.4,.4-3.4c1.2-1,2,.1,2.7,.9,1.3,1.6,2.9,3,4.1,4.7,3.2,4.3,7.5,7,12.6,8.6,1.9,.6,3.6,1.7,5.4,2.6,.2,0,.2,.3,.5,.2-.1,0-.2-.1-.4-.2-3.4-2.3-6-5.5-8.9-8.4-1.1-1.1-.9-2.2,.2-3.3,1.1-1.1,2.1-.5,3,.4,3.6,3.4,7.4,6.7,11,10.1,2,1.9,4.2,3.2,6.7,4.1,2.3,.8,4.8,1.5,6.7,3.2,.3,.3,.7,.5,1,.8,.3,.2-.2,.1,.1,.2,0-.1-.2-.1-.2-.2-.3-.3-.7-.5-.8-1,1-2.9,2-3.2,4.2-1.3,2.7,2.2,5.2,4.6,7.7,7.3,.3-5.6-.2-11,.3-16.4,.4-1.8,.3-3.6-.2-5.4-.2-6.8-.1-13.6-.1-20.4,0-1.2,0-2.5-.4-3.7-.1-.6-.2-1.2-.2-1.7,0-19.2-.1-38.3,0-57.5-.1-4.2-.1-8.4,0-12.6,.1-14.1-.9-28.1-.5-42.2v-19q0-3-3-3.3c-5.2-.5-10.3-1.9-15.5-2.5-8.5-.8-16.8-.2-25,1.6-4.4,1-6.4,.2-8.7-3.7-1-1.7-1.9-3.3-2.4-5.2-.8-3.5,1.2-5.9,4.5-4.7,6,2.1,12.1,1.7,18.3,1.8,8.5,.1,17-.4,25.4,.5,1.2,.1,2.5,.2,3.7,.5,2.5,.6,2.7,.5,2.7-2.2,0-6.2,.1-12.5,0-18.7-.1-2.3,1.1-4.6,.3-6.9-.2-.2-.4-.4-.7-.5-2.9,0-5.8,.5-8.7,.5-30.6-.1-61.3,0-91.9,0-20.8,0-41.6,.1-62.5,0-3.2-.2-6.5,0-9.7-.1-3-.4-5.3,.7-7.6,2.7-7.4,6.6-15,12.9-21.4,20.6-9.5,11.6-16.1,24.7-21.1,38.6-5.9,16.2-11.3,32.6-15.4,49.4-2,8.5-3.6,17.1-5.2,25.7-.1,.7-.2,1.3-.4,2-.3,.8-.2,2.1-1.5,2-1.4-.2-1.5-1.4-1.4-2.5,.5-4.6,.9-9.3,1.6-13.9,2.2-15,5.9-29.7,10.5-44.2,3.4-10.6,6.7-21.3,11.2-31.5,5.8-13.3,13.2-25.6,23.4-36.1,4-4.1,8.4-7.9,12.9-11.4,.4-.3,1-.5,1.3-1.3h-160.3c-.5,0-1,0-1.1,.7,.1,1.1,.4,2.2-.3,3.1-.4,.6-.7,1.1-1.1,1.7-.4,.5-.7,1.1-1.1,1.7-1.2,1.7-2.3,3.4-3.3,5.2-.4,.5-.7,1.1-1,1.7-.1,.2-.2,.4-.3,.6-.2,.3-.3,.6-.5,1-7.2,13.2-13,27-17.1,41.5-3.4,11.8-5.8,23.8-7.3,36-1.3,10.8-2.1,21.7-2,32.6,.5,34.1,6.9,67,20.9,98.3,8.2,18.3,18.5,35.2,31.4,50.5,4.9,5.8,10.4,11,15.7,16.4,.9,.9,2,1.6,2,3-.1,.3-.2,.5-.4,.6-1.5,.4-2.5-.7-3.5-1.5-6.6-5.4-12.1-11.3-17.6-17.3Z"/><path d="M229.78,51.22c-2.1-4.2-3.8-8.6-5.6-13-2.1-5-3.3-10.2-3.3-15.7V12.62c-.6-.7-.5-1.9-1.6-2.2-4.1-.4-8.1,.1-12.2-.4h-3.5c-.7,0-1.5,.1-2.2-.2h-6c-16,0-32,0-47.9,.2-43.8,.4-87.7,.2-131.5,.3-.9,0-1.9,.3-2.6-.5,1-.7,2.1-.4,3.1-.4,4.8-.1,9.6-.1,14.5-.2,13.9-.2,27.8-.6,41.6-1.2,2.3-.1,4.6,.3,7,.3,16.3,.2,32.6-.1,48.8-.2,28-.2,55.8-.5,83.7-.5,7,0,13.9-.3,20.9-.4,1.7-.4,3.3-.4,5,0,5.2,0,10.5,.1,15.7,0,11.2,0,22.5,0,33.7-.2,28.9-.5,57.9-.1,86.8-.5,22.5-.3,45.1-.4,67.6-.4,4.5,0,9-.3,13.5,.1h0c.1,.2,.2,.5,.3,.6,1,.8,.6,1.3-.4,1.8-14.2,.1-28.3,.2-42.5,.3-8.1,0-16.2,.1-24.2,.1-36.6,.1-73.3,.3-109.9,.4-15.7,.1-31.5,.1-47.2,.2-1.3,0-2.7,.1-4,.1-.6,.3-1.3,.2-1.9,.4-2.9,.7-3.1,.9-2.6,4.1,.4,1.8,.5,3.6,.6,5.5,.2,3.5,.6,7,2,10.2,.1,.2,.2,.5,.2,.7,.6,5.8,3.4,10.7,5.9,15.8,1.1,2.3,2.1,4.7,2.8,7.2,1.2,3.8,.2,7.4-1.2,10.9-.6,1.4-1.4,2.7-2.2,3.9-3.3,4.5-5.2,9.7-5.9,15.2-.9,7.3-1.7,14.6-1.5,21.9,.1,4.3,.9,8.4,2.4,12.4,3.1,8.5,7.4,16.4,12.2,24,4.2,6.6,6.4,13.9,6.7,21.7,.4,13.4,.8,26.8,.7,40.2,0,1.1-.1,2.2-.1,3.2-.6,4.8-2.3,9.3-2.9,14.1-.3,2-1.2,4-2,5.9-.9,2-1.8,4.1-2.6,6.2-.8,2.1-2.3,3.8-4.7,4.4-3.2,.8-6.4,.8-9.7,.6-4.8-.4-9.6-.4-14.4-.8-2.2-.2-4.5,0-6.6,.7-1.5,1.2-3.5,1.3-5,2.6-1.9,3.2-2.9,6.9-4,10.4-.7,2.4-1.2,4.8-1.8,7.3-.5,1.9-1.1,3.8-1.9,5.7-1.6,3.7-4.4,5.3-8.3,5.6-4.8,.4-9.6,.8-14.4,1.2,1.6,5.9,3.5,11.7,5.6,17.5,.6,1.8,.3,3.2-.4,5-1.8,4.4-5.3,7.6-7.8,11.6-1.3,2.1-3.6,2.9-6,3.3-2.6,.5-5.3,.6-7.9,.9-1.2,.1-2.4,.4-3.8,1.4,102.3-1,204.1-2.4,306-3-.5,1.5-1.6,1.2-2.4,1.2-6.4,.2-12.8,.4-19.2,.5-18,.4-35.9,.7-53.9,1-14.9,.2-29.8,.4-44.7,.6-11.7,.2-23.3,.2-35,.5-13.1,.3-26.1,.3-39.2,.5-10.8,.2-21.6,.3-32.5,.4-26.5,.3-52.9,.7-79.4,1h-2.7c-1.5-.1-3,0-4.3,1-.4,.3-1.1,.7-1.3,.2-.5-1.5-1.7-1.1-2.7-1.1-15.2,.5-30.5,.3-45.7,.6-12.5,.3-25,.1-37.5,.5-13.4,.4-26.8,.1-40.2,.7-2.1,.1-2.8-.4-3.5-2.1-.1-.3,0-.6,.3-.9,.8-.7,1.8-.7,2.8-.7,15.2-.6,30.4-.6,45.5-.5,10.6-.1,21.2-.9,31.8-.5,.9,.1,1.9,0,2.8,.1,3.8-.1,7.5,0,11.3,0,10.5-.1,20.9-.7,31.4-.5,.9,0,1.9-.2,2.6-.8,3-2.7,6.7-3,10.5-3.1,.6,0,1.2,0,1.7-.1,.3-.1,.6-.1,.8-.2,2.3,0,4.5-.5,6.8-.8,2.7-.3,4.7-1.5,6.2-3.9,1.6-2.5,3.7-4.7,5.2-7.3,1.4-2.4,1.1-3-1.5-2.8-5.7,.5-8.6-3.3-11.6-7.2-.6-.8-1.1-1.7-1.6-2.5-2.5-3.3-4.9-6.5-7.3-9.8-1.1-1.6-2.1-1.5-3.7-.7-8.2,3.9-14.8,9.8-21.9,15.3-1.2,1-2.5,2-3.8,2.8-.6,.3-1.2,.7-1.8,0-.5-.6-.4-1.3-.1-1.9,.6-1.2,1.7-2.1,2.7-2.9,7.5-7.1,15.9-13.1,23.2-20.4,3.7-3.8,5.1-4,9.6-1.3,5.6,3.4,11.5,4.1,17.8,3.1,4.9-.7,9.9-1.4,14.9-1.2,1.7,.1,2-1,2.2-2.1,1.3-6.8,4.3-12.9,6.7-19.3,1.3-3.4,3-6.7,6.9-8,.8-.1,1.5-.4,2.3-.5,.4-.1,.8-.1,1.2-.3,2.6-.4,5.2-.7,7.9-.5,6.1,.3,12.3,.5,18.4-.3,2.7-.4,4.5-1.4,5.2-4.1,.2-1,.7-1.9,1.2-2.7,3.6-8.2,6.3-16.6,5.9-25.8-.3-6.7,.2-13.3-.1-20-.3-6.2,0-12.3-.6-18.4-.9-8.7-4.8-16.2-9.6-23.3-4.5-6.6-7.1-14.1-9.9-21.5-.7-1.8-1.5-3.8-.7-5.8-.5-4.5-.5-9-.3-13.5,.4-6.7,.7-13.4,2.3-20,.9-3.7,2.4-7.1,4.7-10.1,2.4-3.1,3.9-6.6,4.3-10.5,.1-.7,.2-1.3-.2-1.9-.8-.6-.6-1.6-1.1-2.3,0-1.1-.4-1.7-.2-2.3Z"/><path class="cls-34" d="M883.78,243.22c1.6-.1,3.1,.4,4.7-.4,.4-.2,1,.1,1.4,.2,3.6,.8,7.1,1.7,10.7,2.4,3.5,.7,7.1,.4,10.6-.1,.5-.1,1.2,0,1.4-.8,.3-1.1,1.4-1.4,2.3-1.3,1.3,.2,1.2,1.4,1.2,2.4,0,10.6,.1,21.3,.1,31.9,0,8.5,.1,17,0,25.4,0,1.9,.2,3.6,1.2,5.2-1.3,.1-2.7-.5-3.7,.9-5.1-.3-10.1-.1-15.2-.1-1.2,0-2.3,.1-3.5-.2-7-3.2-13.8-6.9-20.4-10.8-.8-.5-1.7-.8-2.3-1.4-5.9-5.6-13.6-6.6-21.1-7.9-5.1-.8-10.1-1.9-15.3-2.4-3.8-.4-7.6-.2-11.5-.3-3-.1-3.6-.3-4.2-3.2-.7-3.2-2.7-5.9-3.5-9-.9-3.4-.4-4.5,2.9-5.7,1.8-.6,3.6-2.1,5.6-.8,.3,.9-.7,1.7-.3,2.7,4.7-3.7,10.4-2.8,15.7-3.4,11.6-1.2,23.3-1.8,35-1.6,.6,0,1.3,.1,2.1-.5-1.4-.9-3-.2-4.3-.8-1-.6-.7-1.5-.3-2.2,3.1-5.8,6.2-11.8,9.7-17.4,.3-.4,.7-.6,1-.8Z"/><path class="cls-34" d="M57.38,311.62c-9.5,.1-19.1,.1-28.6,.2-6.6,.1-13.1,.2-19.7,.3,.2-3.8,.4-7.7,.9-11.5,1.4,1.7,.5,3.8,.8,5.3,.4-12.1-.3-24.7-.4-37.3,0-1.2-.1-2.5,.2-3.7,.9-1.8,1.9-.5,2.5,.1,3.4,2.8,6.9,5.5,10.2,8.4,7.6,6.7,14.5,14.2,20.3,22.5,1,1.4,2.2,2.7,3.6,3.8,3.2,2.5,5.5,5.8,8.4,8.5,1,.9,2.1,1.8,1.8,3.4Z"/><path class="cls-12" d="M894.58,308.12c5.5,.1,10.9,.1,16.4,.2,1,0,2-.2,2.7,.8-1.1,1-2.5,.7-3.8,.7-15.2,.2-30.4,.3-45.6,.4-18.6,.1-37.3,0-55.9,.2-38.7,.4-77.4,.2-116.1,.3-6.1,0-12.1,.3-18.2,.4-4.9,.1-9.8-.6-14.7-.3-9.4,.3-18.7,1.3-28.1,0-3.8-.2-7.7,.1-11.5,0-5.6-.1-11.1-.1-16.7-.1-44,0-88.1,0-132.1,.1h-2.2c-1.8-.1-2.5-1.4-1.5-2.9,.5-.7,.3-1.4,.3-2.1-.2-12.3-.1-24.7,0-37,.1-12.5,.1-25,.2-37.5,0-.9-.2-1.8,.2-2.7,1,.9,.8,2.1,.8,3.3,.1,21.5,0,42.9-.1,64.4,0,2.8-.8,5.5-.4,8.3,0,.3,.4-.2,.1,0-.1,.1-.2,0-.2-.2,.3-1.7-.6-3.6,.5-5.3,1.1,1.9,0,4.2,1,6.2,.2,.5,.2,1.1,.6,1.6,2.3,1.2,4.7,.7,7.1,.8,40.1,.6,80.1,.2,120.2,.3,1.5,0,2.8-.7,4.3-.8h.5c2.1-.5,4.3-.1,6.4-.1,.3,0,.6,.1,.9,.2,2.5-.4,5-.4,7.5-.4,28.6,0,57.3-.5,85.9,.1,51.1,1,102.2,.1,153.2,.5,1.2,0,2.3,0,3.5-.1,10.5-.1,21.1,0,31.6,0,1,0,2.1,.3,3.2,.7Z"/><path d="M468.78,299.22c-.7,.7-.4,1.6-.4,2.4,0,1.7,0,3.4-.2,5.1-.5-.9-.3-1.8-.3-2.7v-75.4c-.3-1.7,0-3.5,0-5.2,.1-17.7,.1-35.3,.3-53,.2-15.2,.1-30.5,.4-45.7,.3-17.2,.2-34.3,.6-51.5,.3-14.4,.2-28.8,.5-43.2,.1-5.9,.3-11.8,.2-17.7,0-1.5,.3-2.8,1.5-3.9,1.2,1,1.8,2.3,1.7,3.9-.1,3.2,0,6.3-.1,9.5-.2,4.5-.2,9-.1,13.5,.6,2.2,.3,4.4,.3,6.6,.1,8.4-.2,16.9-.5,25.3,0,4.5,.1,9,0,13.5-.4,7.7-.2,15.4-.1,23.1,.1,2.7,0,5.3,.1,8,.4,9.4-.7,18.8-.5,28.2,.2,6.9,0,13.8-.4,20.7-.4,8.2-.4,16.4-.9,24.6-.2,10.6-.4,21.2-.5,31.7-.4,26.7-.7,53.5-1.1,80.2-.5,.5,.1,1.4-.5,2Z"/><path class="cls-71" d="M455.78,127.22c.2-12.2,.4-24.4,.5-36.7,.1-15.3,.3-30.6,.5-45.9,.1-7.1,.1-14.3,.1-21.4,.6-3.5,.2-7.1,.5-11,1,1.2,.8,2.3,.8,3.4,0,10.6,.1,21.3,.1,31.9,0,.9,.1,1.8,.1,2.7,.4,1.4,.1,2.8,.2,4.2,.3,10,.3,20,0,30-.1,1.3,.2,2.5-.2,3.8,0,6.3-.1,12.6-.1,19,0,18.7,0,37.5-.1,56.2-.1,36.9-.3,73.8-.5,110.7-.1,10.6-.2,21.1-.2,31.7,0,1.7-.5,2.9-2,3.8-1-1.3-1.1-2.9-1.1-4.5,.1-9.6,.2-19.2,.3-28.7,.1-16,.2-32,.3-48,.3-32.7,.6-65.5,.9-98.2,.1-1.1,.2-2.1-.1-3Z"/><path class="cls-12" d="M11.28,264.22c-.1,6.3,0,12.6,.1,18.9,.2,8.1,.1,16.3,.1,24.4,0,.3,0,.7-.2,1-.1,.2-.3,.5-.5,.5-.4,.1-.6-.2-.6-.6v-2c-.1-1.9,.2-3.8-.1-5.7-.2-26.6-.2-53.3-.6-79.9-.2-12.9,0-25.8-.3-38.7-.2-6,.1-11.9,0-17.9s0-12-.1-18c-.5-26.1-.2-52.1-.5-78.2-.4-18.8-.4-37.7-.6-56.5v-1c0-.8,.2-1.6,1-1.8,.8-.1,.8,.9,1.2,1.4,0,11.1-.2,22.1,.1,33.2,.3,12.1,.1,24.1,.2,36.2,0,.9,.1,1.8,.1,2.7,.8,1.1,.8,2.3,.7,3.6,0,5.1,0,10.1-.3,15.2,.1,3.8-.2,7.6-.3,11.4v5.6c-.1,1.7,.1,3.4-.1,5,0,10.5-.1,21,.2,31.5,.2,8.1,.1,16.1,.1,24.2,0,.6,0,1.2,.1,1.7,.8,1,.8,2.1,.8,3.3v77.5c.1,1.1,.1,2.1-.5,3Z"/><path class="cls-34" d="M631.18,310.82c5.2,0,10.5-.1,15.7-.1,4.1,0,8.3-.2,12.4,.1-.8,.5-1.6,.3-2.4,.4-3.4,.1-6.8,.5-10.2,.9-4.1,.5-8.1,.2-12.2-.5-1-.3-2.2-.1-3.3-.8Z"/><path class="cls-66" d="M458.38,84.72c-.1-10.2-.1-20.3,0-30.5,.1-.2,.3-.2,.4,0-.1,6.4,.8,12.7,.5,19.1-.2,3.8-.6,7.6-.5,11.4-.1,.2-.2,.2-.4,0Z"/><path class="cls-4" d="M455.28,6.22c-.6-.9-1.5-.5-2.3-.6h-8.1c3.1-2.2,6-3.2,9.2-1.5,.8,.4,2.2,.7,1.2,2.1h0Z"/><path class="cls-4" d="M197.48,240.72c.9-2.3,3.1-2.1,5-2.6,.8,.3,2.2-.2,2.3,.9,0,1.2-1.4,.7-2.2,.9-1.7,.4-3.5,.5-5.1,.8Z"/><path class="cls-34" d="M917.68,72.12c-.1-3-.2-6.1,0-9.1,1.1,2,1.1,4.2,1.5,6.4,.1,1.3-.9,1.9-1.5,2.7Z"/><path class="cls-4" d="M488.38,10.22h-9.6c2.1-1.5,6.3-1.4,9.6,0Z"/><path class="cls-4" d="M237.98,7.22c-1.7,.2-3.3,.2-5,0,1.6-.9,3.3-.8,5,0Z"/><path class="cls-10" d="M458.88,54.22h-.4c-.2-1.3-.2-2.7,0-4,.8,1.2,.2,2.6,.4,4Z"/><path class="cls-35" d="M458.38,84.72h.5c-.2,1.2,.4,2.4-.5,3.5-.2-1.2-.1-2.4,0-3.5Z"/><path class="cls-4" d="M559.38,9.72c-.8,.2-1.7,.1-2.5,0,.8-.7,1.6-.9,2.5,0Z"/><path class="cls-66" d="M222.98,14.22q-1.1-4.6,3.5-4.6c.3,0,.7,.1,1,.1-.6,.6-1.4,.8-2.2,1-1.7,.6-2.5,1.7-2.3,3.5Z"/><path class="cls-66" d="M472.28,80.42c-.2-4.4-.1-8.8,.1-13.2,.2-.2,.3-.2,.5,0,0,10.7-.1,21.3,.1,32,.1,4.8,.5,9.6,.8,14.4,.3,4.5,.3,9.1-.2,13.7-.3,3.2,.1,6.5-.3,9.7-.6,5.4,0,10.8-.8,16.2-.1,.7-.1,1.5-.1,2.2,.2,5.7-.5,11.3-.7,16.9-.1,3.6-.2,7.1-.4,10.7,0,.7,.2,1.5-.4,2.1,0-6.5-.1-13,.1-19.4,.3-9.7,.2-19.4,.4-29.2,.1-8.3,.3-16.6,.5-24.9,.5-.9,.2-1.8,.2-2.7v-25.9c0-.8-.1-1.7,.2-2.6Z"/><path class="cls-34" d="M601.78,307.22c-1.1,1-2.4,.8-3.7,.9h-126.1c-1,0-2,.3-2.9-.3,.7-.9,1.8-1,2.7-.8,5,.8,10.1,.3,15.1,.7,1.2,0,2.5,.1,3.7,.1,31.4,0,62.9,.1,94.3-.1,3.4,0,6.8,.1,10.2,.1,1.2,0,2.4-.1,3.9-.2-.5-1.1-1.3-1.5-2-2-6-4.3-11-9.6-15.4-15.5-.2-.3-.3-.6-.4-.9,.8,0,1.1,.7,1.5,1.2,5.1,5.2,10.2,10.5,16,15,.9,.6,1.8,1.6,3.1,1.8Z"/><path class="cls-36" d="M527.18,129.82c0,3.1,.2,6.1,.1,9.2-.3,10.8,.8,21.4,2.2,32.1,1.3,9.5,3.1,18.9,5.6,28.1,.2,.6,.4,1.1,.2,1.7-1.2-1.9-1.5-4.2-2.1-6.3-1.9-6.4-2.6-13-4-19.5-1.3-6.2-1.5-12.5-2.1-18.8-.8-8.2-.3-16.5-.3-24.7,.1-.7,0-1.3,.4-1.8Z"/><path class="cls-66" d="M472.88,67.22h-.5v-8.7c.1-7.4,.2-14.7,.3-22.1,0-.4,.1-.8,.2-1.2,1.5,4.2,1.8,8.5,1.3,12.9-.1,.5-.2,1-.2,1.5,.1,4.4-.7,8.8-.6,13.2-.1,1.4-.4,2.9-.5,4.4Z"/><path class="cls-66" d="M486.88,307.62c-4.9,.3-9.7,0-14.6,.1-1.1,0-2.1,.1-3.2,.1-.1-2.9-.1-5.7-.2-8.6,.2-.7,.3-1.4,.5-2.1,.3,1.2,0,2.5,0,3.7,0,3.1,.8,4.2,3.8,5.2,2.5,.9,5,1.2,7.6,1.2,1.9,0,4-.4,6.1,.4Z"/><path class="cls-4" d="M492.08,125.62c-.8-5.5,.6-10.4,.5-15.4,.5,5,.2,10-.5,15.4Z"/><path class="cls-19" d="M500.08,30.22c-.1,.3-.3,.4-.5,.4-.4,0-.6-.2-.5-.6,0-.1,.4-.2,.6-.3,.2,0,.4,.2,.4,.5Z"/><path class="cls-20" d="M489.28,32.42c-.2,0-.3-.2-.3-.4s.1-.5,.2-.6c.4-.1,.6,.1,.6,.5,0,.2-.1,.5-.5,.5Z"/><path class="cls-66" d="M11.28,264.22c0-2.7-.1-5.3-.1-8-.1-24.3-.1-48.6-.2-72.9,0-.9,0-1.8,.1-2.7,1,.5,1.8,.3,2.7-.4,5.6-4.4,11.3-8.8,17-13.1,1.3-1,2-2.4,2.7-3.8,4.1-8,8.1-16.1,12.8-23.7,5.3-8.5,10.7-16.9,16.1-25.3,.5-.8,1.1-1.5,1.5-2.3,.9-2.4,2.8-2.9,5.1-3.2,6.9-.6,13.7-1.3,20.6-2.1,3.2-.4,6.4-1,9.6-1.6,9.1-2,18.2-3.8,27.2-6.1,.5-.1,1-.2,1.5-.3,.8-.2,.6,.6,.8,.9,.6,1.4,1.6,1.1,2.7,.5,1.6-.9,2.9-2.2,4.4-3.3,.9-.6,1.6-1.4,2.8-1.4,.4,.1,.7,.3,.5,.8-1.1,3-2.2,5.9-3.3,8.9-.3,.9-.4,1.6-.1,2.6,.6,1.5,.9,3.1,.4,4.8-.4,1.4-.5,2.8-.8,4.1-.5,2.6-.3,3,2.1,3.9,.3,.1,.6,.2,1,.2,3.4-.5,6.8-.2,10.2-.2,1.8,0,3.6-.2,5.3-.9,1.8-.7,3.7-.5,5.6-.7,.3-.1,.5-.1,.8-.1,.4,0,.8,.1,1.1,.2,1.4,.4,2.3,1.3,2.2,2.6-.1,1.4-1.6,1.6-2.7,1.7-4.4,.7-8.7,1.1-13.1,1.9-2.6,.5-4.8,2.9-3.8,5.3,2.2,5.7,3.2,12,7.8,16.6,2,1.9,2.8,4.3,3.5,6.8,.3,1,.2,2-.4,2.9-9.6,14.9-18.8,30.1-31.2,42.9-3.5,3.6-6.4,7.7-9.8,11.4-2,2.2-2.5,5.2-3.3,8-.4,1.2,.5,1.5,1.4,1.4,4.8-.4,9.6-.3,13.5-4.4,8.5-9.1,18.2-17.2,26-27,5.3-6.7,10.4-13.6,15.4-20.6,2.6-3.6,3.5-7.9,4.4-12.1,.3-1.4,.6-2.8,1.4-3.9,1.6-1.2,2.6-2.9,3.2-4.8,1.9-5.7,4.1-11.3,6.6-16.8,.4-.6,1.5-.9,.6-1.9-.2-.3-.3-.6-.4-.9,0-.2,.1-.4,.3-.6,3.9-1.7,3.3-5.5,4.4-9-1.1,.8-1.2,2-2.2,2.1-4.5-1.3-9.1-2.5-13.7-3.8-.7-.2-1.4-.5-1.8-1.3-.1-1.3,.7-1.9,1.7-2.4,1.5,.4,3,.5,4.6,.1,3,.3,5.7,1.7,8.7,2,1.1,.1,2.8,.5,3-.7,.2-1.1-1.5-1.2-2.5-1.5-1.4-.4-3-.4-4.3-1.2-.3-1.2,.5-1.6,1.3-1.9,3.7,0,4.3-.4,5.6-3.9,.5-1.2,.6-2.6,1.2-3.8,.4-.6,1-1,1.6-1.4,1.3-.3,1.4-2,2.7-2.2,.3,.1,.6,.3,.9,.3,3.4-.5,6.8,.4,10.1,.8,1.2,.2,2.3,.5,3.5,.4,1.2-.2,1.8,.5,2.2,1.5,.8,2.1,2.3,3.5,4.1,4.8,2.1,1.4,4,3.2,6.1,4.8,2.4,10.5,6.5,20.2,12.5,29.2,3.3,4.9,5.8,10.1,7.3,15.8,.6,2.2,1.1,4.4,1.1,6.6,.2,13.1,.9,26.1,.8,39.2,0,4.2-.6,8.3-1.7,12.3-1.2,4.1-2.2,8.2-4.4,11.9-2.7-1.5-4.8-3.8-7.2-5.7-6.6-5.4-14.5-7.3-22.7-8.1-4.3-.4-8.6-.3-13,.3-2.5,.4-5,0-7.4-.8-2.6-.9-5.1-2.2-7.6-3.1-1.7-.6-2.1-1.7-1.5-3.3,2-5,3.7-10.2,7.1-14.5,1.2-1.4,2.2-2.9,3.2-4.5,.6-.9,1.2-1.9,.8-3-.2-1.4,1-1.9,2.2-2.9-4.5,1.9-7.1,5.4-10.4,8-1.5,1.2-2.5,2.9-4.2,3.8-1.5-.1-2.6,.5-3.5,1.8-2.8,3.9-5.4,8-8.7,11.6-1.8,1.9-2.3,4.6-3.2,7-3,5-7.5,8.6-12.3,11.8-5.1,2.4-9.5,6-13.8,9.5-2.8,1.8-5.2,4.1-8.2,5.5-1.7,.5-2.7,1.8-4,2.9-9,8.3-16.6,17.8-23.8,27.7-.1,.2-.4,.3-.4,.5,.1-.2,.3-.4,.5-.5,3.5-2.4,7.1-4.7,10.7-7,.8-.6,1.6-1.2,2.4-1.7,7.5-5.5,14.9-11.1,22.4-16.7,6.7-5,13.5-9.6,20.6-14,1-.6,2-.8,3.1-.4,4.5,1.9,9.4,2.4,14.1,2.7,5.9,.3,11.7,1.6,17.6,1.2,3.1-.2,6.3-.8,9.4-.4,.5,.2,1.1,.3,1.1,1-3.6,1.2-5.3,4.3-6.5,7.5-2.4,6.4-5.5,12.7-6.8,19.5-.1,.4-.2,.8-.3,1.2-.6,1.8-.7,1.7-2.5,1.3-2.1-.5-4.3,.1-6.4,.3-3.6,.3-7.1,.9-10.6,1.3-5.9,.5-11.3-.5-16.4-3.8-3.3-2.2-4.5-2.2-7.5,.7-3.2,3.1-6,6.5-9.7,9-4.5,3-8,7.2-12.2,10.6-.8,.6-1.4,1.4-2.4,1.8-3.3,1.6-4.3,4.7-5,7.9-1.2,5.2-1.8,10.5-2.7,15.7q-.6,3.1-3.8,3.1c-1,0-2-.2-3,.1h-11.7c-.9-1-1.7-.4-2.6,0-10.7,.2-21.4,.3-32.1,.5-.8-1.7-2.1-2.9-3.4-4.2-3-3.3-6.3-6.4-9.5-9.4-.3-.3-.6-.6-.8-.9-2-3.4-5-6-7.2-9.2-3.4-4.8-7.8-8.6-12.1-12.5-3.7-4-8.3-7.5-12.6-11.2Z"/><path d="M138.38,95.62c-1.8,1.3-3.5,2.6-5.3,4-1.3,1-2.8,1.6-4.3,2.1-.6-.8-.1-1.5-.1-2.2,.4-1.3,.8-2.5,2-3.3,1-.6,1.1-1.6,.7-2.8-1.4,.4-2.7,1-3.8,2-1,.9-2.2,1.2-3.3,1.6-.9,.3-1.2-.1-1.2-1,.1-1.3,.5-2.3,1.7-2.8,1.5-.7,3-1.5,4.5-2.1,3.1-1.1,5.8-2.7,8.3-4.9,6.8-6.3,14.2-11.8,21.4-17.5,2.9-2.3,5.7-4.9,8.5-7.3,4.4-3.9,9.3-7,14.2-10.2,2-1.3,4-2.7,6-4,.9-.6,1.6-1.5,2.8-1.4,.4,0,.7-.1,.8-.4,1.4-2.9,4-3.4,6.7-3,3,.4,5.9-.3,8.9,.2,2.4,.4,4.9,.6,7.4,1.2,.9,.2,1.5,.1,1.7-.8,.2-.7,.4-1.3,1.3-.8,.6,.3,.7-.2,.7-.6,0-.7,0-1.5,.7-2.2,2.8,1,4.5,3.1,5.3,5.9,.6,1.9,.7,3.9,.8,5.9,.1,1.2-.4,2-1.3,2.5-1.7,1-3.4,2-5.6,1.6-4.9-1.1-9.5,.5-14.2,1.7-8.5,2.1-16.5,5.6-24.6,9-2.4,1-4.4,2.7-6.4,4.4-9.1,7.3-18.7,13.9-28.3,20.5-1.8,1.2-3.4,2.6-5,4-.2,.1-.4,.7-1,.7Z"/><path d="M171.68,113.22c-.6,.7-1.2,1.4-1.8,2.1-1,2.7-4.2,4.7-7,4.3-.6-.1-1.1-.2-1.7-.2-.3,0-.5-.1-.7-.2h-.3c-1.5-.5-.8-1.6-.7-2.6,.7-2.7,2.9-1.5,4.6-1.9,.6-.2,1.2-.5,1.7-1,7.3-8,14.3-16.3,23.1-22.9,.8-.6,1.5-1.3,.9-2.5q-1.7-3.6-4.4-.7c-6.3,6.9-12.6,14-19.2,20.7-1.2,1.2-2.3,2.4-4,2.8-.6,0-1,.6-1.6,.4-.4-.5,0-.8,.2-1.1,5.6-6.1,10.6-12.8,16-19.1,4.5-5.2,8.7-10.7,13.6-15.6,3.9-3.9,8.4-6.8,13.1-9.4,2.5-1.4,5.2-2.7,7.8-4q2.9-1.4,5.3,1.1c-.5,1-1.5,1.3-2.4,1.7-4,2.2-8.1,4.3-12.1,6.5-4.6,2.5-8.5,6.1-12.2,10,2.3,2.5,4.1,5.2,5.8,8,1,1.7,1,1.6-.6,2.8-.1,.2-.3,.4-.4,.6-.3,1.8-1,3.6-1.1,5.5-.5,1.2-1.1,2.3-2.4,2.6-1.8-.5-.5-1.8-.8-2.7-.1-.8,0-1.5,.3-2.2,.1-.6,.6-1.3,.1-1.8-.3-.3-.7,.2-1,.4-1.3,1-2.1,2.3-2.7,3.8,1.2,.4,2-1.9,3.3-.3-.1,1.3-.1,2.5-.7,3.7-.3,2-1.1,3.9-1.7,5.9-.4,1.4-1.7,1.7-2.8,2.2-.9,.5-1.9,.7-2.7-.2-1.8-1.4-1-3.3-.9-5,.1-1,.3-2,.9-2.8,0-.2,.4-.5,.2-.6-.2-.2,.1-.1-.1,.2-1.8,2.8-4.2,5.2-6.7,7.6,1.6,1.3,3.9,.6,5.2,2.1,1.5,.3,3.1,.6,4.6,.9s2.8,.9,3.9,2.2c-1.4,1.1-2.9,1.7-4.8,1.3-3-.5-5.9-1.5-8.9-2.2-1.4,.1-2.7-1-4.2-.4Z"/><path d="M13.58,129.82c-.9-.2-2.1,.3-2.3-.8-.2-1.3,1.2-.9,1.8-1,2.7-.6,5.2-1.7,7.5-3.3,1.7-1.2,2.5-2.7,2.5-4.8,0-10.2,1.1-20.4,3.4-30.4,1.2-5.3,4-9.9,6.5-14.5,1.9-3.4,3.6-6.7,5.2-10.2,1.5-3.4,2.7-6.8,3-10.5,.3-3,2-4.8,4.4-6.1,3-1.7,5.8-3.6,8.4-5.9,8.5-7.5,16.9-15.1,24-24,.4-.5,.6-1.4,1.3-1.3,1,.1,1.9,.5,2.8,.9,.4,.2,.4,.7,.2,1.1-.5,1.1-1.1,2-1.9,2.9-4.8,6-10.5,11.1-16.4,16.1-3.7,3.2-7.4,6.3-11.4,8.9-2.1,1.4-4.3,2.5-6.7,3.3-.5,.2-1.4,.2-1.2,1.2,.8,6-1.1,11.5-3.6,16.8-1.9,3.9-3.9,7.8-6.1,11.4-4.2,6.8-6,14.4-7.1,22.2-.6,4.7-1.1,9.4-1.8,14.1-.2,1.3-.3,2.7-.2,4,0,2.1-.8,3.9-2.4,5.3-2.8,2.6-6.1,4.3-9.9,4.6Z"/><path class="cls-66" d="M189.98,88.02c.9,1,1,1.8-.3,2.6-.7,.4-1.3,1.1-1.9,1.6-7.7,6-14.1,13.4-20.6,20.5-.4,.5-.9,1-1.4,1.4-.3,.5-1.7-.5-1.4,1-.8,.7-1.7,.3-2.6,.2-1-.1-1.8,.1-2,1.3-1.1,1.2-2.6,.9-4,1-3.5,.4-6.9,.6-10.3-.5-.1-.1-.2-.3-.3-.4-2-2.1-1.9-2.5,.8-3.5,.4-.5,1-.6,1.5-.6,4.1,.4,8.3,.3,12.4,.4,.9-.1,2,.1,2.1-1.3,1.7-1.9,3.7-3.5,5.5-5.3,6.3-6.2,12.9-12.1,19.5-18,.9-.7,1.8-1.7,3-.4Z"/><path class="cls-34" d="M189.98,88.02c-1-.5-1.7,0-2.4,.6-2.5,2.3-5.1,4.6-7.6,6.9-5,4.6-10,9.3-15.1,13.9-.9,.8-2,1.5-2.9,2.3,0-.2,0-.4-.1-.7,9.4-8.3,17.2-18.2,26.2-27.4,.7,1.6,1.3,3,1.9,4.4Z"/><path class="cls-43" d="M154.58,119.92c-1.5,.9-3.2,1.3-5,1.3h-9.2c-.7,0-1.5,.3-2-.6,.1-1.2,.7-1.8,2-2,2.2-.5,4.6-.2,6.8-.9,1.8-.7,3.7-.4,5.5-.1,1.2,.2,2.2,.8,1.9,2.3Z"/><path class="cls-53" d="M159.98,113.02c-1.3,.8-2.7,1-4.3,.9-3.2-.3-6.4-.4-9.7-.6-1.1-.2-2.3-.4-3.4-.6-.6-.1-1.1-.2-1-1,.1-.7,.5-1,1.2-1,2.1,0,4.3-.1,6.4,.1,2.3,.2,4.6,.3,6.9,.4,1.5,.1,3,.4,3.9,1.8Z"/><path class="cls-66" d="M10.58,101.22c-.1-6.3-.3-12.6,0-18.9,2,.7,2.1,.7,2,2.7-.3,6.6-.7,13.1-1.1,19.7-1.4-.9-.1-2.5-.9-3.5Z"/><path class="cls-34" d="M154.58,119.92c-.5-1.6-1.7-2.1-3.2-2.1-1.4-.1-2.8,0-4.2,0-.6-.1-1.3,0-1.7-.6,4.8,.4,9.6-.2,14.4-.6,.1,.9-.6,1.8,.3,2.6-.9,.6-1.9,.4-2.9,.4-.9,.1-1.8,0-2.7,.3Z"/><path class="cls-58" d="M206.98,9.72c4.5-.1,9-.2,13.5,0,0,1-.7,.9-1.4,.8-1-.1-2.1-.3-3.1,.1-3,.2-6,0-9-.4-.2-.1-.2-.2-.2-.3,.1-.1,.1-.2,.2-.2Z"/><path class="cls-1" d="M10.58,101.22c.6,.5,.4,1.2,.4,1.8s-.1,1.2,.4,1.6c.4,2.7-.5,5.4-.4,8-.1,.2-.3,.2-.4,0-.1-3.8-.2-7.6,0-11.4Z"/><path class="cls-66" d="M215.98,10.62c.6-.7,1.4-.4,2.1-.4,.8-.1,1.7,.3,2.4-.5,1.2,.8,.4,1.9,.5,2.9-1.5-1.3-3-2.3-5-2Z"/><path class="cls-28" d="M10.68,112.72h.4v5.5c-.1,.3-.2,.3-.4,0-.1-1.9-.2-3.7,0-5.5Z"/><path class="cls-70" d="M10.68,118.12h.4c-.1,1.7,.4,3.4-.3,5-.3-1.6-.3-3.3-.1-5Z"/><path class="cls-42" d="M230.38,52.72c.2,.9,.5,1.7,.7,2.6-1.6,.4-1-.9-1.2-1.6-.1-.5-.4-1,.5-1Z"/><path class="cls-51" d="M206.98,9.72v.4c-1.1,0-2.3,0-3.4-.1-.2-.1-.3-.1-.2-.2q.1-.1,.2-.1c1.1-.1,2.2-.2,3.4,0Z"/><path class="cls-65" d="M230.38,52.72c-.3,.2-.4,.6-.5,1-.5-.8-.6-1.7,0-2.5,.1,.5,.3,1,.5,1.5Z"/><path class="cls-7" d="M203.48,9.72v.4c-.7,0-1.4,.3-2-.4,.7-.1,1.3-.1,2,0Z"/><path class="cls-56" d="M138.38,95.62c.2-.5,.6-.7,1.1-.9,0,.6,.1,1.1-.5,1.5-.2-.2-.4-.4-.6-.6Z"/><path class="cls-57" d="M194.48,93.22c0-.3,.1-.5,.4-.6-.1,.2-.2,.4-.4,.6Z"/><path class="cls-34" d="M608.78,307.72c-2.2-.1-4.4,.6-6.6-.5,.2-1.2-.9-1.7-1.6-2.4-3.6-3.5-7.2-7-10.6-10.6-9.6-10.2-17.9-21.5-25.1-33.6-12.7-21.3-21.5-44.1-27-68.2-1.9-8.6-3.4-17.3-4.3-26.1-.8-7-1.1-13.9-1.6-20.9-.5-8.3-.2-16.5,.3-24.7,1.6-25.3,6.8-49.9,16.6-73.4,2.8-6.8,6.1-13.3,9.7-19.7,.2-.2,.4-.3,.5-.6h0c.5-.5,.7-1.1,1-1.7,1.3-1.7,2.3-3.7,3.6-5.4,.3-.6,.8-1.1,1.1-1.7,.4-.5,.5-1.2,.8-1.7,.8-1.2,.3-2.3,.1-3.5,.2-.5,.6-.8,1-1h162.8c.1,.9-.6,1.1-1,1.4-4.8,3.7-9.5,7.7-13.8,11.9-5.4,5.3-10,11.4-14,17.8-6.5,10.3-11.4,21.3-15.3,32.7-4.5,13.2-8.8,26.5-12,40.1-2.2,9.3-4,18.7-4.9,28.2-.2,2.2-.6,4.4-.8,6.7-.1,.9-.4,2,.9,2.7,1-2.8,1.4-5.6,1.9-8.3,2.4-13.7,5.5-27.2,9.6-40.5,4.2-13.5,8.5-27,14-40,6.1-14.3,14.4-27.2,25.7-38,4.3-4.1,8.9-8.1,13.4-11.9,.2-.2,.5-.3,.6-.5,1.6-2.8,4.1-2.5,6.7-2.2,3.3,.4,6.7,.4,10,0,2.3,0,4.7-.1,7-.1h147.9c2.2,0,4.3,.1,6.5-.2,1-.1,2-.3,2.9,.2-.2,.7-.7,.3-1.1,.4-.3,0-.6,.1-.9-.1,.3,.2,.6,.1,.9,.2,1.3,.1,1,.9,.7,1.6,.6-.4-.2-1.4,.7-1.8,.5,.7,.3,1.5,.2,2.2-.6,8.4-.1,16.8-.3,25.2v2.8c-1.5,.1-2.5-.7-3.8-.9-4.4-.7-8.7-1-13.1-1-8.3,0-16.6,0-25,.1-2.2,0-4.3-.3-6.3-1.1-1.5-.6-3-.8-4.6-1.1-.4-.1-1-.3-1.1,.1-.2,1.3-1.5,2.3-.9,3.9,1,2.9,2.3,5.5,4.3,7.8,1.2,1.4,2.9,1.6,4.6,1.2,8-2.2,16.2-2.8,24.5-2.3,4.7,.3,9.4,1.3,14,2.1,2.4,.4,4.8,1.5,7.4-.3v23.6c-1.5,2.4-3.7,4-6.1,5.5-4.1,.1-8.1-.5-12.1-.3-2.4,.1-4.8,.4-7.2,.6-.8,.1-1.6,.3-2.1,1.1-1.6,1.2-3.6,.8-5.3,.7-2.5-.2-3.7,.7-4.9,3-3,6-4.6,12.3-5.8,18.7-.4,2.3,0,4.1,1.5,5.7,3,3.2,6.2,6.3,8.6,10.1,4.8,7.6,9.9,15,13.8,23.1,.7,1.4,1.3,2.7,2.4,3.8,4.3,4.3,6.1,9.6,6.4,15.5,.3,6,.1,12-1.5,17.8-1.2,4.4-3.5,8.1-7.2,10.7-1.1,.4-1.9-.3-2.8-.8-3.1-1.8-6.5-3-10.1-4.4,.7,1.3,1.6,1.7,2.4,2.1,4.3,2.5,8.3,5.5,12.4,8.4,5.5,4,9.5,9.2,12.9,15.1,.9,1.6,1.6,3.4,3.8,3.5,.7,.4,1.1,1,1.2,1.7-.1-.7-.3-1.4-.4-2.1-.1-.8,0-1.6,.1-2.4-.1-6.3-.1-12.7,0-19,0-1.2-.3-2.5,.9-3.5,.5,.9,.2,1.8,.2,2.7,.1,7.2,.1,14.5,.2,21.7,.3,1.7,.4,3.3,0,5v18.1c-3-3.5-5.9-6.2-8.9-8.8-.5-.5-1-1.4-1.8-1.1-.8,.4-1.6,1.2-1.3,2.3,.2,.5,0,.7-.5,.5-2.8-1.5-5.7-2.8-8.7-3.7-1.6-.4-2.8-1.3-4-2.4-4.2-3.8-8.4-7.5-12.5-11.5-.5-.5-1-1.6-2-.6-1.1,1-1.2,1.8-.2,2.9,2.8,3,5.9,5.9,8.9,8.7,.1,.5,0,.8-.6,.6-3.5-2.1-7.6-2.9-11.2-4.9-2.6-1.5-4.7-3.4-6.6-5.6-2-2.3-4.1-4.6-6.1-6.9-1.8,1.7-1.9,1.8-.6,3.4,1.3,1.7,2.8,3.3,4.1,5,.3,.4,1.1,.7,.5,1.4-.5,.6-1.2,.5-1.8,.1-.7-.5-1.4-.9-2.1-1.4-1.3-.9-2.5-1.3-3.9-.3-.6,.4-1,.3-1.5-.1-2.6-2.3-5.2-4.5-7.7-6.8-.7-.7-1.2-1.6-1.8-2.4-.8-1.1-.9-2.2-.5-3.5,.5-1.3,.6-2.8,1-4.1,.2-1-.2-1.6-1.1-1.9-.5-.2-.9-.4-1.4-.5-.7-.1-1.5-.9-2.1-.3-.8,.6,.1,1.3,.3,2,.3,.8-.1,1.3-.5,1.8-1.8,2.4-3.1,5.1-4.3,7.9-.9,2-2.7,3.4-4.3,4.8-2.4,2.1-5.1,3.8-7.8,5.4-.2,.1-.4,.1-1,.2,1.9-2.8-.5-4.3-1.2-6.6-6.5,4.2-12.2,9-19.4,11.4,.6-1.2,1.6-2,2.6-2.8q1.9-1.5,.8-3.7c-.4-.9-.9-1.8-1.4-2.8-2.3,1.8-4.6,3.5-6.8,5.2-2.6,1.9-5.2,3.8-7.9,5.7-1.2,.9-2.6,1.5-4,2.1-1.6,.7-1.6,.8-1.3,2.9,.1,.5-.2,.8-.5,1.1-1.6,2.1-1.7,4.1-.5,6.6,2.2,4.4,5,8.5,7.9,12.4,.7,1,1.7,1.8,2.4,2.9,.6,.9,1.4,1.1,2.3,1.2-1.5,3.3-3.4,4.2-6.6,2.8-5.6-2.5-11.1-5.2-16.5-8.3-3.6-2.1-6-4.9-6.9-9-.4-2-1-3.9-2.8-5.4-1.2-1-1.5-2.9-1.4-4.6,1.5-1.6,3.5-2.3,5.6-3,.2,0,.5,.1,.7,.2,1.8,1.7,4.1,1.3,6.2,.9,7.5-1.4,13.4-5.6,18.4-11.2,.3-.4,.6-.8,.8-1.3,.3-.8,.2-1.6-.5-2.1-.7-.6-1.2,.2-1.7,.6-4.2,3.8-8.6,7.3-13.9,9.6-.9,.4-1.7,1-2.8,.9-.2,0-.4-.1-.6-.3-.4-1,.3-1.7,.8-2.4,.4-.7,1.4-1.3,.5-2.1-.9-.9-1.8-.3-2.6,.4-2.5,2.4-5.3,4.5-8.3,6.3-.9,.6-1.8,1.3-3,.9-.9-.7-1.1-1.6-1.2-2.6,1.2-2.6,3.4-4.4,4.8-6.9,3-5.3,5.5-10.8,8.3-16.2,.8-1.6,1.6-3.1,2.7-4.5,.1-.2,.3-.4,.5-.5,.1-.1,.2-.2,.2-.3,.2-.2,.3-.3,.5-.5,1.5-1.4,2.9-2.9,4.4-4.3,.2-.1,.4-.3,.6-.4,.9-.5,1.5-1.4,2.2-2.1,1.2-.7,2.4-1,3.8-.8,.4,.1,.9,.2,1.3,.3,1,.3,2,.1,2.9-.3,4.6-.5,9.2,.6,13.8,.6-.8-1.1-2.4-1-3.7-1.3-1.5-.4-3.2-.3-3.2-2.7,0-.9-1.2-1-1.9-1.5-8.4-5.4-7.4-18-.4-23.1,3.7,.3,4,.8,2.8,4.3-.2,.7-.6,1.4-.4,2.1,.1,.2,.3,.3,.4,.2,3.8-3.8,8.4-3.3,13.1-2.6,3.5,.6,7,1.4,10.5,2,2.3,.4,4.5,1.2,6.2,2.9,.6,.7,1.4,1.2,2.4,1.2,5-.1,9.9-.2,13.3-4.7,.5-.7,1.3-1.3,2-1.9,5-4.2,6.1-8.7,3.7-14.7-2-5-3.6-10-5.1-15.1-2-6.7-2.7-13.5-1.7-20.5,.5-3.5,.7-7,.9-10.4,.1-1.5,.2-3,1-4.3,1.5-.2,1.4,1.1,1.7,1.9,2.2,5.2,3.1,10.7,2.5,16.3-.1,.7-.3,1.5,.2,2.2,0,.3,.5,0,.2,.1-.1,0-.1-.1-.1-.2-.1-2,.7-3.9,.9-5.9,.3-4.2-.2-8.3-1.5-12.3-2.4-7.7-3-15.5-.2-23.3,1.8-4.8,4.9-8.9,7.8-13,.6-.9,1.5-1.7,1.9-3.3-1.9,.8-2.7,2.2-3.7,3.5-1.3,1.6-1.9,3.9-3.9,5-1.5-1.4-1.6-3.4-2.2-5.2-3.3-9.1-1.7-7.1-10.1-7.3-.7,0-1.4,.1-2,0-4.2-.8-7.3,1-10.1,3.8-4.5,4.4-9.2,8.7-13.9,12.9-4.1,3.7-8.3,7.4-12.9,10.5-2.5,1.7-5.2,3.2-8.5,2.8-.2-.2-.4-.4-.5-.6-1.2-2.1-3.3-2.3-5.4-2.3-5.9-.1-11.8,.5-17.6,1.3-5,.7-9.9,1.7-15.1,2.5,.7,1.4,2,.7,2.7,1.4,.2,.3,.2,.6,0,.9-6.3,7.5-13.1,14.3-20.8,20.4-1.2,.9-2.3,2-4,1.1-.7-.4-1.3,.2-1.8,.5-1.3,.9-2.2,2.2-3.1,3.5-7.4,10.8-12.6,22.6-17.1,34.9-4.3,11.5-8,23.1-11.3,34.9-2.4,8.7-2.1,17.5-1.9,26.3,.5,14.5,4.1,28.5,6.4,42.7,1.3,8.1,3.4,16.1,5.2,24.2,1.3,5.7,1.8,11.7,3.9,17.3,.6,1.5,.2,3-1.9,3.2-2.4-2.9-3.7-6.5-5.2-9.9-9.1-21.2-14.6-43.4-17.4-66.2-1.4-11.8-1.9-23.6-1.4-35.4,.7-13.6,3.8-26.9,8.4-39.7,.9-2.4,1.9-4.8,2.6-7.3,.1-.5,.4-1.1-.1-1.4-.6-.4-1.1,.1-1.5,.6-1,1.1-1.5,2.6-2.1,3.9-5.1,11.6-7.8,23.9-9.5,36.4-1.1,8.3-1.1,16.5-.8,24.9,.5,12.3,2.3,24.4,4.6,36.4,3,15.5,8.4,30.3,14.7,44.8,2.4,5.4,5.9,10.3,8.1,15.8,.4,1,1.1,1.9,.5,3.1-.6,1.1-1.9,1.6-2.6,2.9,1.1,.5,2.1,.3,3.1,.3h141.3c1.2,0,2.3-.1,3.5,.1,.8,.1,1.7-.1,1.9,1.1-.9,0-1.8,.1-2.7,.1-48.9,0-97.8,.1-146.7-.2-31.6-.2-63.3,0-94.9-.2-1.7,0-3.3-.1-5,.2-.3,.3-.8,.3-1.2-.1h0Z"/><path class="cls-66" d="M711.28,297.72c1.4-.9,1.7-2,1-3.6-1.8-4.3-2.5-8.9-3.1-13.6-.4-3.1-1.7-6.1-2.2-9.2-1-6.4-3.1-12.6-4-19-1.4-9.8-3.5-19.5-5.1-29.3-.3-1.7-.4-3.5-.6-5.2-.8-7.9-.7-15.8-.5-23.7,.1-2.8,.7-5.6,1.5-8.3,1.9-6.9,3.7-13.8,5.9-20.6,1.9-5.9,4.3-11.5,6.4-17.3,2-5.3,4-10.6,6.3-15.8,3.1-6.9,7.3-13.1,11.3-19.4,1-1.6,2.8-2.4,4-3.7q1.7,1.9,3.6,.3c3.9-3.3,7.7-6.6,11.5-10,3-2.6,5.2-5.8,7.6-8.9,.7-.9,1.4-1.8,2.6-2.1,.5-.8,1.4-.8,2.2-.9,6.5-.8,12.9-2,19.4-2,2.1,.1,4.3-.2,5.8,1.9,.7,.9,1.8,.2,2.8,0,2-.5,3.7-1.9,5.9-1.6,3.9-1,7.6-2.2,10.6-5.2,1.9-1.9,4.1-3.6,6.2-5.4,.9-.8,1.8-1.8,3.1-2,.4-.1,.7-.4,1-.7,4.6-5.4,10.3-9.7,15.4-14.6,2.4-2.3,4.8-3.2,8-2.8,2.6,.3,5.3,.2,8,.1,2-.1,3.1,.5,3.9,2.5,1.3,3.4,2.4,6.9,3.4,10.4,.4,1-.2,1.8-.7,2.5-5.1,7.2-6.2,15.2-4.6,23.7,.2,.9,.5,2-.2,2.9-.7,6.6-1.5,13.2-1.9,19.8-.3,4.7,.4,9.4,1.7,14,1.7,5.9,3.5,11.8,5.9,17.5,1,2.4,1,5.2,.6,7.9-.2,1.1-.8,2-1.5,2.9-2.1,2.8-5,4.9-7.3,7.5-1,1.2-2.5,1.9-4.1,2.2-2.5,.4-4.9,.8-7.4,.9-.9,.1-1.9,0-2.5-.8-1.9-2.4-4.6-3.2-7.4-3.7-2.5-.5-5.1-.9-7.6-1.5-2.8-.6-5.6-.6-8.4-.9-1.7-.2-3.2,.7-4.6,1.7-1.1,.8-1.9,2.1-3.4,2.7-.5-1.1-.3-2.1,0-3,.4-1.1,.8-2.2,1.3-3.2,.4-.8,.1-1.2-.8-1.4-.7-.1-1.5-.3-2.2-.5,.1-2.3,2.4-2.9,3.5-4.7-2.6,1.1-3.7,3.8-6.1,4.9-3.9,2-6.1,6.8-5.1,11.5,.2,.8,.4,1.6,.6,2.4,.5,3,1.6,5.7,3,8.4,.2,1,.6,2-.4,2.9-.9,.5-1.9,.5-2.9,.4-6.3-.7-10.4,2.9-14,7.2-3.1,3.7-5.2,8.1-7.3,12.4-2.3,4.8-4.4,9.7-7.8,13.8-1.5,1.9-3.1,3.7-5,5.1-.7,.5-1.4,1.1-1.9,2-.3,.5-.4,1.2,0,1.6,.6,.6,1-.1,1.5-.4,.8-.5,1.5-1.4,2.3-1.9,.9-.6,1.6-1.7,3-1.6,.3,.9,.6,1.7,.9,2.6-.1,1-1.3,1.1-1.6,2,.6,.6,1.6-.3,2.2,.6,.4,1.1,.7,2.2,1.1,3.3,.2,.6,.3,1.3,.9,1.4,1.5,.1,1.5,1.3,1.8,2.3,.4,1.4,.9,2.9,1.2,4.3,.5,2.6,2.1,4.5,4.3,5.9,1.7,1.1,3.4,2.2,5.1,3.1,4.7,2.5,9.5,4.8,14.3,7.1,1,.5,1.7,.4,2.4-.4,.9-.9,1.8-1.7,2.8-2.5,.4-.2,.7-.5,1.1-.6,8.9-2,17.6-5,26.5-6.9,9.7-2,19.5-3.3,29.4-3.3,5.7,0,11.3,0,17,.2,4.2,.1,8.4,.6,12.7,.9-1.6,3.6-3.9,6.7-5.6,10.2-1.6,3.2-3.4,6.4-5.1,9.7-.7,1.1-1.9,.9-2.9,.9-14.9-.3-29.6,1.1-44.3,3.4-.3,0-.5,0-.7-.1-2.6,.1-4.8,1.1-7.1,2.2-1.1,.5-1.6,1.3-1.1,2.6,.8,2,1.1,4.2,2.4,6.2,1,1.4,1.1,3.4,1.7,5.2q.6,1.9,2.6,1.9h1.7c7.6-.5,15,.8,22.5,2.1,5.6,1,11.2,2.2,16.8,3.3,.9,.2,1.5,.6,2.2,1.1,4.1,3.4,8.6,6.2,13.5,8.5,3,1.4,5.3,4,8.6,4.9,1.7,.5,3.4,.9,4.7,2.1,.3,.3,.6,.6,.9,.9h-35.1c-1-.5-2.1-.2-3.2-.2-48.6-.1-97.2-.1-145.7-.2-1,0-2,.2-3.2-.2,1.5-1.8,3.2-3,4.8-4.3,1,.3,.8-.5,.8-1,1.2-1.8-.5-2.4-1.5-3.2,0-.7-.3-1,0-1.5Z"/><path class="cls-66" d="M909.58,79.72c1.6-2,3.7-3.4,5.6-5,0,.2,.1,.3,.1,.5,.1,14,.2,28,.3,42-1.6,.7-2.7,0-3.6-1.3-2.6-2.7-6.1-2.6-9.4-3.1-4.2-.6-8.4,.1-12.6,0-3.3,.2-3.4,.6-2.8,3.8,.8,4.1,2.7,6.5,6.9,7.7,4.4,1.2,8.4,3.6,12.9,4.6,2.8,.6,5.6,1.3,8.5,.6,.1,19,.1,38,.2,57v2.7c-.3,6.9,0,13.9-.1,20.8,0,.9,.2,1.8-.4,2.6-1.5-.9-1.5-2.7-2.3-4-4-6.7-9.3-12.1-16-16.2-.8-.5-2-.7-1.9-2,3.7-3.3,6.3-7.2,7.3-12.2,.4-2,.8-4.1,1-6.1,.6-5,.3-10-.4-14.9-.6-4-2.9-7-5.3-10-.7-.9-1.7-1.7-2.1-2.8-2.3-6.2-6.6-11.3-9.7-17.1-2.5-4.6-5.5-8.9-9-12.8-1.7-1.9-3.4-3.8-5.2-5.7-1.1-1.1-1.3-2.4-1-3.9,.7-3.4,1.4-6.8,2.1-10.3,.2-.8,.4-1.6,.8-2.4,1.4-3.2,2.9-6.4,4.3-9.6,.4-.9,.8-1.5,2.2-1.4,2.4,.3,4.8,.1,7.2,.1,.2-.2,.5-.3,.8-.3,5.3,.3,10.6-.5,15.8,.9,.7,.2,1.3-.2,1.9-.5,1.6-.6,3.3-.1,4.9-.9-.3,.1-.9-.2-1-.8Z"/><path class="cls-34" d="M915.48,129.52c-1.7,1.3-3.6,1.1-5.6,.7-4.6-1-9-2.3-13.3-4.2-2-.9-4.1-1.9-6.3-2.4-1.3-.3-2.1-1.1-2.5-2.5-.4-1.8-1.1-3.5-1.6-5.3-.7-2.6-.2-3.4,2.6-3.8h.7c.8,1.2,1.9,1.7,3.3,1.8,4.8,.3,9.5,.9,14.2,1.7,1.8,.3,3.4-.3,5.1,.1,.7,1.2,2,1.3,3.2,1.5,.2,4.2,.2,8.3,.2,12.4Z"/><path class="cls-37" d="M564.28,20.22c-1.2,1.9-2.4,3.9-3.9,5.7-.2-.2-.3-.4-.1-.7,1-1.9,2.1-3.8,3.5-5.5,.3-.1,.3,.2,.5,.5Z"/><path class="cls-21" d="M750.78,12.22c-.3,.4-.8,.5-1.3,.5h-7.4c-.5,0-1-.1-1.3-.5,3.3-.2,6.6-.2,10,0Z"/><path class="cls-12" d="M916.08,218.72v-5c.8,1.7,.8,3.3,0,5Z"/><path class="cls-13" d="M794.38,233.32c.4,0,.7,.1,.7,.5,0,.3-.3,.6-.7,.6-.3-.1-.6-.3-.5-.7,0-.3,.2-.4,.5-.4Z"/><path class="cls-64" d="M564.28,20.22c-.2-.2-.3-.4-.5-.6,.2-.6,.5-1.1,1-1.5,.3,0,.3,.3,.5,.5-.4,.5-.7,1.1-1,1.6Z"/><path class="cls-48" d="M884.58,223.82c.2-.2,.4-.4,.6-.6,.6,.3,1.1,.6,1.3,1.4-.8,.1-1.4-.4-1.9-.8Z"/><path class="cls-75" d="M839.58,226.02c.3-.1,.5,0,.5,.3,.1,.4-.3,.6-.6,.6-.3,.1-.7,0-.6-.4,0-.3,.4-.4,.7-.5Z"/><path class="cls-15" d="M560.28,25.12c0,.2,0,.5,.1,.7-.1,.7-.4,1.1-1.1,1.3-.1-.8,.4-1.4,1-2Z"/><path class="cls-67" d="M565.28,18.62c-.2-.2-.3-.4-.5-.5,.2-.6,.4-1.1,1-1.4,.2,.7,0,1.4-.5,1.9Z"/><path class="cls-14" d="M914.78,46.42c-.4-.1-.5-.3-.6-.7,0-.3,.2-.5,.4-.5,.5,0,.4,.4,.5,.7s0,.5-.3,.5Z"/><path class="cls-2" d="M903.58,229.72c.2-.2,.3-.4,.5-.5,.4,.2,.6,.5,.5,1l-.1,.1c-.3-.1-.6-.2-.9-.6Z"/><path class="cls-68" d="M566.88,12.12c-.2,.5-.6,.8-1,1-.4-1,.2-1.1,1-1Z"/><path class="cls-11" d="M815.58,228.62c0,.1,0,.2-.1,.2-.1,.1-.2,0-.2-.2,0-.1,.1-.1,.1-.1,.1,0,.1,.1,.2,.1Z"/><path class="cls-46" d="M845.88,217.52h.2s.1,.1,0,.2c-.1,.2-.2,.2-.2,0-.1,0-.1-.1,0-.2Z"/><path class="cls-6" d="M808.38,237.52c-.1,0-.1,.1-.2,.1-.2,0-.3-.1-.1-.3,0,0,.2-.1,.2,0,.1,0,.1,.1,.1,.2Z"/><path class="cls-49" d="M559.28,27.12c-.1,.3-.2,.5-.5,.6,0-.3,.1-.6,.5-.6Z"/><path class="cls-2" d="M904.68,230.22c.1,.1,.1,.2,.2,.2-.1-.1-.2-.1-.2-.2-.1,0,0,0,0,0Z"/><path class="cls-34" d="M198.48,234.62c-2.6,.1-5.1,.3-7.7,.4-3.5,.2-6.9,.4-10.4-.3-3.8-.8-7.8-.3-11.7-1-2.9-.5-5.7-.9-8.6-1.5-.7-.1-1.5-.3-2.1-.6-1.6-1-2.7-.6-4.3,.4-6,3.8-11.8,7.7-17.5,11.9-4.8,3.5-9.5,7-14.2,10.6-2.9,2.2-5.8,4.4-8.8,6.6-.7,.5-1.3,1.3-2.3,1.4-.3-.9,.2-1.6,.7-2.3,5.9-7.2,11.7-14.5,19.4-20.1,2.8-2.1,5.9-3.8,9-5.3,2.2-1.1,4.2-2.4,5.9-4.1,4.7-4.9,9.8-9.3,14.3-14.3,2.4-2.6,2.4-2.5,3.8,.7,.9,2.2,1.6,4.6,3.3,6.4,2.4,2.5,5.2,3.5,8.6,2.9,4.5-.7,8.8-1.8,13.1-3.3,9-3.2,17.7-1.4,26.4,1.4,1.6,.5,3.3,1.4,5.2,.4-.4-1-1.3-1.4-2.2-1.8-6.4-2.8-13-4.6-20.1-4.1-2.8,.2-5.6,1-8.3,1.8-4.1,1.3-8,2.9-12.2,3.8-3.8,.8-7.9,1.1-10.3-2.4-2.4-3.4-2.7-7.5-.7-11.4,3.4-6.5,6.3-13.2,11.2-18.9,2.2-2.5,4.5-4.9,7-7.1,.8-.7,1.6-1.7,3-1.5,1.2,.6,.8,1.5,.3,2.3-1.2,2.3-2.7,4.4-4.3,6.4-1.8,2.2-3.1,4.7-4.2,7.3-.9,2.2-1.8,4.5-2.7,6.7-.4,1.1-.4,1.8,.9,2.3,2.3,.8,4.5,1.8,6.7,2.7,3.2,1.4,6.5,1.4,10,1.1,7.6-.7,15.1-.4,22.6,2,6,1.9,10.9,5.1,15.5,9.1,1.1,1,2.2,2,3.1,3.2-.7,1.9-1.4,3.7-2.1,5.6-.3,.9-1,1.2-1.9,1.4-3.2,.6-6.3,1.2-9.6,1-3.1-.2-6.2,0-9.2,0-1.4,0-2.8-.1-4.2-.3-2.1-.3-4.3,.4-6.4,.6-.4-.1-.9-.1-1.3-.1-.9,.2-1.9-.3-2.7,0Z"/><path class="cls-34" d="M103.68,311.12c1.3-.5,2.6-.2,3.9-.2s1.7-.5,1.9-1.7c.9-5.8,1.9-11.6,2.9-17.4,.4-2.7,2.3-4.6,3.7-6.7,.4-.6,1.2-.8,2-.7-.5,.8-1.3,1.3-1.9,1.9s-1,1.3-.5,2.4c1.1,0,1.9-.8,2.7-1.4,4.6-3.5,9.2-7.1,13.8-10.7,3.7-3,8.1-4.8,12.2-7.3,.6-.4,1.1-.3,1.5,.3,.9,1.1,1.8,2.1,2.7,3.3,2,2.7,3.9,5.4,5.9,8.1-.8,3.7-.3,7.3,1.3,10.8,1.3,2.8,2,5.8,2.8,8.8,.5,2,.5,3.9-1.8,4.8-1.3,0-2.6,.5-3.9,.6-.3,0-.7,0-1,.1s-.6,.1-.9,.1c-.2,.2-.9-.5-.7,.4-2.1,.6-4.3,.4-6.4,.6-2,.2-3.7,.8-5.1,2.2-1.2,1.3-2.6,1.5-4.2,1.5-4.4-.1-8.8,0-13.2,.1-5.3,.1-10.6,.3-15.9,.4-.8-.2-1.3-.3-1.8-.3Z"/><path class="cls-66" d="M156.38,304.62c1.8-1.4,2.1-1.8,1.4-4.1-1.3-4.7-2.7-9.4-4.7-13.9-.4-.9-.8-1.6,.2-2.4,.6-.5,.7-1,.2-1.7-.5-.8,.1-1.4,.8-1.8,1.6,2.6,3.7,4.9,5.6,7.3,1,1.2,2.1,1.9,3.8,2,2.1,.1,4.2,.4,6.5-.1,.1,1.7-.5,3.2-1.2,4.5-2,3.4-4.7,6.2-6.9,9.4-1,1.5-2.9,1.4-4.5,1.6-.6,.1-1.2,.2-1.2-.8Z"/><path class="cls-41" d="M156.38,304.62c.2,.5,.7,.5,1.1,.6-2.3,.7-4.7,1-7.1,.9-.2-.1-.2-.2-.2-.3q.1-.1,.2-.1c.3,0,.6-.1,.9-.1s.4-.2,.6-.4c1.6-.1,3.1-.4,4.5-.6Z"/><path class="cls-50" d="M89.48,311.12c.3-.3,.5-.6,.8-.9,1.1-.9,1.3-.8,1.7,.9h-2.5Z"/><path class="cls-33" d="M198.48,234.62c.9-.7,2-.4,3-.4,.2,.1,.2,.2,.2,.2q-.1,.1-.2,.1c-.7,.2-1.2,.6-2,.5-.2-.3-.7-.2-1-.4Z"/><path class="cls-69" d="M150.48,305.72v.4c-.2,.1-.4,.1-.5,.2-.4-.6,.1-.6,.5-.6Z"/><path class="cls-60" d="M201.48,234.62v-.4c.4-.1,.7,0,1,.3-.4,0-.7,.1-1,.1Z"/><path class="cls-12" d="M825.08,267.22c.7-.6,1.6-.9,2.5-1,8.4-1.2,16.8-2,25.3-2.6,6.7-.5,13.5-.3,20.2-.5,1.2,.1,2.5,.2,3.7,.2,1.1,0,1.8,.5,2.5,1.3-.8,1-1.9,1.1-3,1.1h-3.2c-12.1-.1-24.1,.7-36.1,1.9-2.8,.3-5.6,.6-8.4,1-.9,.1-1.6,.4-2.1,1.2-.6,1-1.6,1.4-2.7,1.6-.5-1.8,.7-2.9,1.3-4.2Z"/><path class="cls-66" d="M472.28,80.42v29.4c0,.7,.1,1.3-.5,1.8-.3-3,0-6,0-8.9,0-6.6,.1-13.3,.2-19.9,.1-.8-.1-1.6,.3-2.4Z"/><path class="cls-34" d="M160.98,119.22c3.7,.4,6.5-1.2,8.8-3.9,2.4,1.4,5.2,1.6,7.8,2.4,2.6,.8,5.4,1.1,7.7,2.6,0,3.1-.6,3.8-3.4,3.9-.7,0-1.4,.1-1.5,1-.1,.7,.5,.9,1,1.2,.6,.3,1.8,.1,1.6,1.4,.1,.1,.1,.2,.1,.3-4.1,5.7-6.3,12.2-9,18.5-1.1,2.7-2.9,4.1-5.6,4.5-1.1,.2-2.3,.2-3.4,.7-.5,.2-.9,.5-.8,1.1,.1,.6,.7,.6,1.2,.6,1.6,.1,3.1-.1,4.7-.5,.9-.2,1.9-.8,2.9-.2-.4,1.4-.8,2.7-1.1,4-1,4.7-2.2,9.4-5.3,13.3-6,7.6-11.4,15.6-17.6,23-.9,1.1-1.9,2.1-2.9,3.1-7.3,7.5-14.6,14.8-22.3,21.9-1.9,1.7-3.9,2.7-6.5,2.6-2.1-.1-4.3,.3-6.5,.4-1.4,0-1.7-.3-1.3-1.6,.9-2.5,1.8-5,2.8-7.5,.2-.5,.5-.9,.8-1.2,6.5-7.6,13-15.1,19.6-22.7,4.6-5.2,8.3-11,11.9-16.9,3-4.8,6.3-9.4,9.3-14.2,.7-1.2,1-2.1,.6-3.4-.7-2.2-1.5-4.1-3.2-5.8-2.3-2.2-3.9-5-4.8-8.1-.7-2.5-1.8-4.9-2.9-7.2-1.2-2.5,0-4.7,.9-6.9,.3-.7,1.2-.6,1.8-.7,4-.8,8-1.4,12.1-1.8,1.7-.2,3.3-.5,5-1.1-.8-1.1-1-2.3-2.5-2.5,0,0,0-.2,0-.3Z"/><path d="M187.98,183.22c-6.5,4.9-11.8,10.8-15.5,18-1.6,3.1-3.3,6.2-5,9.2-2,3.5-1.2,6.9-.4,10.4,.3,1.3,1.6,2.1,2.8,2.7,2.3,1,4.7,1,7.1,.5,4-.9,7.8-2.3,11.7-3.6,4.5-1.5,9.1-2.5,14-2.2,5.8,.4,11.3,2.1,16.5,4.5,1.1,.5,1.9,1.3,2.5,2.4-1.7,1-3.2,1.2-5,.5-5-1.7-10-3.1-15.3-3.6-3.6-.3-6.9,.2-10.3,1.1-4.1,1.1-8.1,2.6-12.3,3.4-2.4,.5-4.9,1-7.4,.3-2.6-.8-4.7-2.3-5.9-4.7-1.1-2.3-2.6-4.4-2.8-7.1-.9-.1-1.1,.6-1.4,1-2.2,2.4-4.4,4.8-6.8,6.9-2.4,2.1-4.6,4.6-6.9,6.9-2.2,2.3-4.7,4.3-7.6,5.6-7.8,3.6-14.2,8.9-19.8,15.3-2.9,3.4-5.8,6.9-8.7,10.3-.3,.4-.5,.9-.7,1.3-.6,.4-1.2,.9-1.8,1.3-1,.2-2,1.4-2.9,.5-1-.9-.2-2.1,.3-3,5.1-8.1,11-15.5,18.5-21.6,.2-.2,.4-.2,.7-.3,2.7-1.8,5.1-3.9,7.9-5.5,5.1-2.7,9.8-5.9,14.1-9.7,1-.8,2.1-1.6,3.1-2.4,3.4-2.5,6.2-5.5,8.8-8.9,4.3-6.3,9.2-12.3,13.5-18.7,.6-.8,1.4-1.4,2.3-1.8,3-3.6,6.8-6.5,10.1-9.8,1-1,2.5-1.7,3.9-2.4,.8-.4,1.5,0,2.5,.8-1.7,.4-3,1.1-3.8,2.4Z"/><path class="cls-32" d="M172.98,152.82c-2.6,.9-5.2,1.6-8,1.5-.7,0-1.6,.3-1.9-.7-.3-1,.6-2.2,1.7-2.5,.9-.2,1.8-.4,2.7-.4,3-.3,5.1-1.4,6.2-4.6,1.6-4.5,3.5-8.9,5.8-13.2,.6-1.2,1.3-2.3,1.9-3.5,.4-.7,.8-1.3,1.7-1.3,.2,.2,.3,.4,.5,.5,.5,.9,.1,1.6-.5,2.2-.7,1.2-1.2,2.5-1.4,3.9-.3,1.8-1.7,3.2-2.2,4.9-1,3.2-2.3,6.4-3.4,9.6-.6,1.7-1.4,3-3.1,3.6Z"/><path class="cls-34" d="M125.58,239.32c-6.8,5.8-12.3,12.9-17.4,20.2-.5,.7-.9,1.4-1.3,2.1-.3,.7-.5,1.4-.7,2.2,1.1,.4,2-.4,2.9-.2-3.5,2.6-7.2,4.8-10.9,7.2-.5,.1-.8-.2-.7-.7,7.6-10.9,16-21.1,26.1-29.9,.5-.5,1-1.4,2-.9Z"/><path class="cls-34" d="M175.28,192.32c-3.3,4.5-6.6,9.1-9.9,13.5-1.8,2.4-3.5,5-5.9,7,.9-3.3,2-6.4,4.6-8.9,2.2-2.1,3.6-4.9,5.5-7.4,.8-1.1,1.7-2.3,2.5-3.4q1.2-1.5,3.2-.8Z"/><path class="cls-34" d="M180.98,111.52c-2.1-.4-4.2-.7-6.6-1.6,3.1-2.8,5.6-5.7,8.1-8.7,.5-.1,.7,0,.6,.5-.4,1.8-1.1,3.6-1.1,5.5,0,1,0,2,.5,2.9-.7,.3-1.1,.9-1.5,1.4Z"/><path class="cls-72" d="M182.98,127.82c-.4-.7-1.1-.6-1.7-.8-1.8-.6-1.9-.8-1.6-2.1,.4-1.5,.6-1.6,2.3-1.3,.2,0,.5,0,.7,.1,1,.4,1.3-.1,1.6-.9s.7-1.7,1-2.5c.4-.8,.7-1.7,1.1-2.5,.2-.4,.4-.7,.9-.5,.4,.2,.6,.5,.6,1,0,.3-.1,.7-.1,1-.5,2.1-1.1,4.2-1.6,6.3-.1,.7-.5,1-1.1,1.2-.6,.3-1.3,.6-2.1,1Z"/><path class="cls-34" d="M147.58,224.12c-3.7,4.7-8.5,7.7-14.1,9.7,4.4-3.7,8.8-7.4,14.1-9.7Z"/><path class="cls-34" d="M171.68,113.22c.4-1,1.1-1.3,2.1-.7,.7,.4,1.4,.7,2.2,1.1-.9,.2-1.8,.4-2.6,.6-1,.3-1.4-.3-1.7-1Z"/><path class="cls-25" d="M189.58,102.22c-.2-1.4,.3-2.6,.4-4,.2-.2,.4-.2,.6-.1,0,.6,0,1.3-.1,1.9,0,.5,0,1,.6,1.2-.6,.4-1,.7-1.5,1Z"/><path class="cls-45" d="M183.08,130.82c.2-.7,.3-1.5,.5-2.2,1.4,1.4,1.3,1.6-.5,2.2Z"/><path class="cls-29" d="M97.38,270.12c.2,.2,.5,.5,.7,.7-.4,.6-1,1-1.9,1.2,0-1,.7-1.4,1.2-1.9Z"/><path class="cls-34" d="M160.98,119.22v.3c-.3,0-.5-.1-.6-.4,.2,.1,.4,.1,.6,.1Z"/><path class="cls-63" d="M222.48,46.22c0,.3,0,.7-.5,.7-.4,0-.5-.4-.5-.7s0-.7,.5-.7c.4,0,.4,.4,.5,.7Z"/><path class="cls-4" d="M190.48,98.22c-.2,0-.4,0-.6,.1-1.4,.2-2.2,1.8-4.1,1.6,.8-2.1,1.3-4.2,3.6-5.2,1.7-.7,1.9,.2,1.6,1.6-.1,.6-.3,1.2-.5,1.9Z"/><path class="cls-5" d="M164.48,115.22c-.3-.6-1.6-.8-1.1-1.6,.5-.9,1.2,.1,1.8,.4,.2,.1,.5,.2,.7,.2-.4,.5-.8,.9-1.4,1Z"/><path class="cls-9" d="M191.08,96.22c0-1.1-.4-1.7-1.6-1.6,.4-.7,1-1.2,1.9-1.5,.3,1.2,.3,2.2-.3,3.1Z"/><path class="cls-18" d="M182.98,101.72c-.2-.2-.4-.4-.6-.5,.2-.4,.5-.9,.8-.7,.6,.3,.2,.8-.2,1.2Z"/><path d="M721.98,84.22c-.4-2.2-.3-3.9,.8-5.7,3.2-5.1,6.7-9.9,10.2-14.8,4.9-6.9,10.7-12.9,16.1-19.4,5.7-6.9,12.6-12.2,21.4-14.8,5.3-1.6,10.4-4,15.5-6.2,4.2-1.8,8.5-3.5,12.9-4.8,2.3-.7,4.1-1.8,5-4,.6-1.4,1.4-1.6,2.9-1.4,4.6,.7,4.4,.6,5.5,5.2,.5,2.3,1,4.5,.9,6.8-.1,2.8-2.6,5.7-5.3,5.3-4-.6-7.6,.4-11.3,1.4-9.5,2.5-18.7,6-27.3,10.7-5.4,2.9-10.2,6.7-14.6,10.8-9.8,9.2-19.6,18.6-28.9,28.3-1.2,1-2.2,2-3.8,2.6Z"/><path class="cls-66" d="M670.78,195.02c.7,.1,1.3,.1,2,.2,1.6,.3,1.8,.8,1.4,2.4-1.1,4.6-1,9,1.7,13.2,1.9,3.1,3.4,6.5,3.1,10.3-.1,1,.6,1.3,1.4,1.4,1.1,.2,1.3,.8,1.4,1.7,.5,5,1.2,9.9,3.2,14.6,.5,1.2-.2,2.1-.2,3.2-.3,6.4-3,11.7-7.9,15.8-1.5,1.3-2.7,3-4.8,3.5-.2,.1-.5,.1-.7,0-2.1-.9-4.8-6-4.6-8.4,.6,0,1.7,.6,1.2-.6-1-2.3-.2-4.2,.5-6.3,1.1-3.3,2.1-6.7,3.2-10,.5-1.5,.8-3,.5-4.6-.3-1.1,.3-1.9,.8-2.8,1.1-2.2,1.4-4.6,1.6-7,.2-2.4-1.1-4.1-2.9-5.5-1.6-1.3-3.4-2.4-4.8-4-2.4-2.7-2.7-5-1.1-8.2,1.1-2.2,2.2-4.5,3.4-6.7,.4-.9,.6-1.9,1.6-2.2Z"/><path d="M666.78,252.82c1.1,3.2,2.4,6.4,5.3,8.4,1.1,1,2.1,.4,3.2-.2,3.2-1.8,5.6-4.5,7.5-7.5,.5-.8,1.1-1.5,1.5-2.3,.8-1.7,2.2-2.6,4.2-2.8,.2,3.9-1.8,6.9-3.8,9.8-2.4,3.6-5.9,6-10,7.6-1.9,.7-3.4,.4-4.8-.9-1.4-1.2-2.7-2.5-3.7-4-2.9-4.6-5.2-9.5-5.8-15-.2-1.8-1.1-2.7-2.6-3.5-7.4-4.1-12.1-10.2-13.5-18.7-1-5.7-.2-11.4,.3-17.1,.3-2.9,1-5.7,1.9-8.5,.3-1,.4-1.8-.5-2.4-.5-.4-.8-.9-1-1.4-1.5-5.1-3.7-10-4.5-15.3-.7-4.7-1.6-9.5-.9-14.4,.7-4.4,2.9-7.3,7.2-8.1,6.5-1.2,13-2,19.5-.2,.9,.2,1.8,.6,2.4,1.2,.5,.5,.3,1.1-.4,1.2-.8,.1-1.7,.1-2.5,0-4.6-.8-9.1,0-13.6,.8-1.5,.3-2.9,.6-4.4,.8-1.8,.3-3,1.3-3.8,2.9-.8,1.5-1.2,3.2-1.1,4.8,.6,5.7,.8,11.5,3.1,16.9,.8,1.8,1.2,3.8,1.7,5.7,.1,.4,.2,.8,.8,1,.4-.9,.8-1.8,1.1-2.7,.2-.5,.3-1,.7-1.3,.5-.3,1-.8,1.6-.3s0,.8-.2,1.2c-.3,.4-.4,.9-.5,1.4-1.2,4.3-2.6,8.5-3.2,12.8-1,7.4-1.6,14.8,.3,22.1,1.7,6.2,5,11.3,11.2,13.8,3,1.2,4.3,3.5,4.7,6.5,.4,2.7,1,5.4,2.6,7.7Z"/><path d="M711.28,297.72c.1,.4,.3,.7,.4,1.1,.8,1,1.5,2.1,1.4,3.5,.2,.3,.3,.6,.5,.8,.2,.2,.6,.4,.3,.7-.3,.5-.7,.3-1,0-.3-.2-.5-.4-.7-.6-2.2-5.1-4.8-9.9-7.4-14.7-2.5-4.6-4.5-9.5-6.3-14.4-3.4-9.2-6.8-18.4-8.9-28-2-9-3.6-18.1-4.8-27.2-.6-4.9-.9-9.8-1.1-14.7-.1-3.7-.4-7.3-.3-11,.1-10.6,1.7-21,4.1-31.3,1.8-7.7,4.3-15.2,7.7-22.4,.8-1.8,1.9-2.9,4-3,.4,1.8-.2,3.4-.9,5-2.6,6.7-4.8,13.5-6.6,20.4-3.7,14.3-4.6,28.7-3.8,43.3,.9,17.2,3.3,34.3,7.9,50.9,2.9,10.5,6,21,10.5,30.9,1.6,3.6,3.3,7.1,5,10.7Z"/><path d="M795.68,158.82c1.7-1.5,3-3.3,4.8-4.5,.8-.6,1.6-1.3,2.7-.2-2,1.4-3.7,3-5,5.1-2.6,2.9-4.5,6.1-4.9,10.1-.4,5,2.1,10.6,6.7,12.6,.7,.3,1.3,.7,1.9,1,.1,.9-.8,.9-.9,1.5,0,.3,.2,.4,.4,.5,1.5,.3,2.9,.6,4.4,.9,.6,.1,1.3,.3,1.9,.6,.5,.2,.4,.7,.4,1.1s-.3,.5-.7,.5c-.7,.1-1.3,0-2,0-4.1-.2-8.1-1-12.2-.8-.8,.6-1.7,.2-2.5,.3-.4,0-.9,.1-1.2-.2-1.4-.1-2.7,.2-3.9,.9-.8,.6-1.5,1.4-2.4,1.8-1.4,1.3-2.9,2.5-4.1,4.1-.2,.2-.4,.5-.6,.7-.1,.2-.2,.4-.4,.5h0c-.2,.2-.3,.4-.5,.6-2.1,3.4-3.9,7-5.6,10.6-1.5,3.2-3.1,6.4-4.9,9.5-1.6,2.7-3.5,5-5.5,7.3-2.4,1.7-4.4,4-7.1,5.5-1-2.2-.6-3.7,1.2-5.1,2.2-1.8,4.2-3.7,5.8-6.1,1.5-2.3,3.2-4.4,4.2-7,.7-1.9,2.1-3.5,3-5.4,1.7-3.9,3.8-7.6,6-11.2,2.4-3.9,5.9-6.5,9.7-8.8,1.2-.7,2.5-.9,3.8-.9h5.5c.7-.3,1.4-.5,2.1-.2,.2,.1,.4,.1,.6,.2,.1,0,.2,.1,.2,.1,0-.1-.1-.1-.2-.1-1.4-.3-2.2-1.2-2.7-2.4-1.8-2.6-2.9-5.4-3.1-8.5-1-4.6-.3-8.8,2.9-12.5,.7-1,1.3-1.7,2.2-2.1Z"/><path d="M670.78,195.02c-1.7,3.3-3.3,6.7-5.1,10-.8,1.6-.4,3.1,.2,4.5,.8,2,2.4,3.3,4.2,4.5,5.9,4,5.5,5.8,4.4,11.8-.4,2-1.4,3.7-2.4,5.4-1.5,1.6-1.6,1.6-3,.1-.6-.6-.7-1-.2-1.7,1.3-2,2.2-4.1,2.7-6.4-.2-.7-.3-1.5-.4-2.2-.2-.6-.6-1.1-1-1.6-.3-.4-.6-.8-.9-1.2-1.3-1.1-2.7-2.2-4-3.3-4-3.5-5.1-8.5-2.1-13.6,.2-.3,.4-.7,.5-1.1,.1-2.3,1.1-4.1,2.7-5.6,1-1.8,2-3.6,3.1-5.3,.7-1,.5-1.6-.1-2.4-2.4-3.4-5.1-6.6-7.9-9.6-3.7-4.1-7.7-7.8-12-11.3-.6-.5-2-1.1-1.4-2s1.8-.3,2.6,.3c5.2,3.5,9.9,7.6,14.2,12.1,2.5,2.6,4.8,5.5,7.2,8.3,2,2.4,1.7,4.7,.5,7.1-.5,1.1-1.1,2.2-1.8,3.2Z"/><path d="M811.48,179.92c-.7-1.2-.2-2.1,.4-2.9,.8-1.1,1.7-2.3,2.6-3.3,2.6-2.9,5.9-3.1,9.4-2.2,3.1,.8,5.1,2.9,7,5.4,2.6,3.6,6.2,5.6,10.7,5.3,3.6-.2,6.6-1.6,8.1-5.3,.2-.6,.6-1.2,.9-1.8,1.4-2.5,3.4-3.6,6.4-3.2,3,.4,6.1,.5,9,1.6,.9,.4,1.9,.7,2.7,1.3,1.9,1.5,1.9,3.2,0,4.7-.3,.3-.7,.5-.9,.6-.5,.1-.6-.2-.7-.4-.4-2.3-2-3.2-4-3.5-2.2-.4-4.4-.7-6.7-.8-1.7-.1-2.7,.5-3.3,2-1,2.4-2.5,4.3-4.7,5.7-3.5,2.4-7.3,3.2-11.4,2-4.1-1.2-7.8-2.8-10.2-6.6-.5-.8-1.3-1.5-2-2.2-2.7-2.5-6.8-2.6-9.5-.1-1.3,1.2-2.5,2.5-3.8,3.7Z"/><path class="cls-12" d="M763.18,228.32c-.8,.2-1.6,.3-2.4,.4-.4,.1-.8-.1-.9-.6-.1-.4,0-.8,.4-1,.8-.4,1.5-.9,2.3-1.4,2.7-.6,4.7-2.6,6.9-4.1,1.5-1.1,3-2.3,4.3-3.7,.9-.9,2.9-.9,3.7,0,.5,.6,.1,1.3-.2,1.8-.7,1-1.6,1.8-2.2,3,.2,.4,.4,.1,.6,.1,4.8-1.8,9-4.5,12.9-7.8,1.8-1.5,3.5-3,5.1-4.5,.3,.1,.4,.2,.4,.2,1.8,3.4,2,2.8-.4,5.5-4.8,5.3-10.5,9.1-17.6,10.7-1.9,.4-3.8,.3-5.7,.2-.8,0-1.5-.4-1.2-1.4-.2-.4-.4-.2-.7-.1-1.7,.9-3.5,1.8-5.3,2.7Z"/><path class="cls-12" d="M847.68,97.12c-.3-2.7-.9-5.4-1.1-8.1-.4-6,.9-11.5,4.1-16.6,.9-1.4,1.7-2.9,2.5-4.3,1.9-2.6,3.4-5.5,5.7-7.8,.7-.7,1.4-1.2,2.3-1.3,.7-.1,1,.3,.8,.9-.2,.7-.6,1.4-1.1,2-3,3.9-5.6,8-8.1,12.3-1.8,3.2-2.4,6.7-2.7,10.3-.4,5,.4,9.9,1.9,14.7,1.1,3.7,1.8,7.4,1.7,11.3-.1,2.7-.9,5.2-1.4,7.8-.1,.4-.2,.6-.6,.6s-.6-.3-.7-.6c-.2-.6-.3-1.1-.2-1.7,1.4-7-.4-13.3-3.1-19.5Z"/><path class="cls-12" d="M895.18,190.62c1.6,1.1,3.3,2.3,4.9,3.4,5.2,3.4,9.3,8,12.6,13.3,1.1,1.8,2.1,3.5,2.6,5.6,0,.4,0,.8-.1,1.2,0,.2-.1,.4-.2,.5-.2,.1-.3,.2-.5,.2h-.3q-2,.6-3-1c-2.2-3.6-4.3-7.1-6.9-10.4-3.2-4-7.2-6.9-11.3-9.8-3.1-2.2-6.1-4.3-9.4-6.1-.4-.2-.9-.5-1.3-.8-.7-.4-1-1-.6-1.7,.4-.7,1-.3,1.5-.1,4.1,1.8,8.2,3.4,12,5.7Z"/><path class="cls-12" d="M876.28,153.02c1.7,.2,3,1,4,2.1,1.9,2.2,3.9,4.3,5.4,6.9,2.3,3.9,3.4,8.1,2.5,12.7-.8,4.2-3.3,6.8-7,8.4-1.4,.6-3,.9-4.5,1.3-.3,.1-.7,.2-.9-.1-.2-.4,0-.8,.4-1,.6-.3,1.1-.7,1.7-1,.5-.3,1.1-.4,1.6-.7,5.4-2.1,6.3-7.1,5.3-11.5-.7-3-2.3-5.5-4.1-7.9-1.1-1.5-2.2-3-3.3-4.4-1.1-1.4-1.6-2.9-1.1-4.8Z"/><path class="cls-12" d="M779.88,86.02c-6.2,.2-12.4,1.1-18.6,1.9-1.2,.2-2.5,.2-3.7,.3-.7-.3-1.3,.1-2,.1-.8,0-1.8,.2-1.9-1-.1-1.1,.6-1.6,1.7-1.6,1.2,0,2.5-.2,3.7-.4,5.2-.8,10.3-1.8,15.5-2.4,4.8-.5,9.6-.9,14.4-.6,2,.1,4.1,.2,4.6,2.8-2.9,1.9-6,1.4-9.1,1.1-1.5-.1-3-.3-4.6-.2Z"/><path class="cls-53" d="M887.68,81.82c-.2,0-.3,0-.5-.1-.2-1.7,1-1.9,2.2-2,3.6-.3,7.2-.5,10.8-.5,3.1,0,6.2,.5,9.4,.5,.7,.3,1.3,.7,1.8,1.4-1.5,1.7-3.5,.7-5.2,1.1-1.3,.6-2.6,.1-3.9,0-4.9-.6-9.8,0-14.6-.4Z"/><path class="cls-34" d="M779.88,86.02c1.3-.6,2.6-.3,3.9-.3,3.3-.1,6.6,.3,9.9-.6v.6c-2.3,1.1-4.7,1.9-7.1,2.8-1,.3-2.1,.6-2.4-.8-.4-1.7-1.5-1.7-2.8-1.6-.5,0-1,0-1.5-.1Z"/><path class="cls-55" d="M666.38,194.72c-.9,1.9-1.8,3.7-2.7,5.6-1-2,0-3.6,1-5.2,.3-.5,1-.8,1.7-.4Z"/><path class="cls-39" d="M778.58,194.32c1.1-2,2.8-3.4,4.6-4.7q.1,.1,.2,.2c0,.2,0,.3-.2,.5-1.4,1.6-2.7,3.2-4.5,4.4l-.2-.1,.1-.3Z"/><path class="cls-61" d="M915.28,12.32c0,.6-.1,1.1-.1,1.7q-.1,1.4-1.6,.9c-.3-.8,2.3-1.4,.1-2.3-.2-.1-.2-.2-.2-.2q.1-.1,.2-.1c.5-.1,.9-.2,1.4-.3,0,.1,.1,.2,.2,.3Z"/><path class="cls-66" d="M914.48,214.42c.2-.1,.5-.3,.7-.4,.9,1,.4,2.1,.1,3.3-.4-.9-.8-1.7-1.2-2.6h0c.2-.1,.3-.2,.4-.3Z"/><path class="cls-54" d="M670.38,219.12c.6,.3,.9,.8,.9,1.5,.1,.5,.4,1-.5,1.1-.4-.8-.8-1.7-1.2-2.5,.3-.2,.5-.3,.8-.1Z"/><path class="cls-74" d="M783.18,189.72c.7-.7,1.5-1.4,2.5-1.5-.4,.9-1.1,1.6-2,2-.1-.1-.3-.2-.5-.2v-.3Z"/><path class="cls-31" d="M670.88,221.72c.4-.3,.3-.7,.5-1.1,.6,.8,.5,1.7,.2,2.7-.5-.5-.9-.9-.7-1.6Z"/><path class="cls-66" d="M790.68,187.22c.9-.2,1.8-.2,2.7,0-.7,1.4-1.7,.5-2.6,.5-.2-.1-.2-.2-.2-.3q0-.2,.1-.2Z"/><path class="cls-76" d="M768.58,225.62c.1-.1,.2-.3,.3-.4,.3-.2,.6-.7,1-.2,.1,.2-.2,.6-.6,.7-.2,0-.4-.1-.7-.1Z"/><path class="cls-59" d="M670.38,219.12c-.3,0-.5,.1-.8,.1-.4-.2-.3-.6-.4-.9,.5,.1,1,.3,1.2,.8Z"/><path class="cls-47" d="M608.78,307.72c.1-.1,.2-.3,.3-.3,.3-.2,.6-.3,.8,.1-.2,.1-.4,.1-.7,.2-.1,0-.2,0-.4,0h0Z"/><path class="cls-16" d="M775.78,222.82c-.2,.3-.5,.5-.8,.3-.1-.1,0-.3,.2-.4,.2,0,.4,0,.6,.1Z"/><path class="cls-30" d="M913.68,12.22v.3c-.2,0-.6,.2-.7-.3,.2,.1,.4,.1,.7,0Z"/><path class="cls-22" d="M790.68,187.22v.4c-.4,.1-.8,0-1.1-.4h1.1Z"/><path class="cls-27" d="M783.18,189.92c.2-.1,.4,0,.5,.2-.1,.1-.3,.1-.5,.2v-.4Z"/><path class="cls-8" d="M778.18,195.22c.1-.2,.1-.4,.2-.6,.1,0,.2,0,.3,.1h0c0,.3-.2,.4-.5,.5Z"/><path class="cls-38" d="M777.68,195.72c0-.3,.2-.5,.5-.6-.2,.2-.3,.4-.5,.6Z"/><path class="cls-34" d="M723.68,243.72c2.1,2.8,3.1,6.2,4.6,9.4,4.1,8.1,7.5,16.5,12.7,24,4,5.9,8.4,11.4,13.8,16.1,.7,.6,.9,1.1,.1,1.7-3.5,3-7,6.1-10.6,9.2-.7,.6-1.5,.6-2.3,.3-3.3-1-6.2-2.8-8.8-5-2.9-2.4-5.1-5.4-7-8.7-5.3-9.3-8.1-19.4-10.9-29.7-1.4-5.3-1.9-10.6-2.1-16-.3-7.7-.5-15.3-.5-23,0-1.6-.2-3.1,0-4.7,.3-2.1,.2-2.1,2.5-1.9,.3,0,.6-.1,1-.1,.9,.6,.8,1.6,.8,2.5-.1,9.2,1.9,18,4.5,26.8,2.8,9.2,6.1,18.2,10.1,26.9,.3,.6,.4,1.5,1.4,1.6,.6-1.2-.1-2.1-.5-3.1-3.1-7.6-6-15.2-8.4-23-.5-1.1-1.2-2.2-.4-3.3Z"/><path class="cls-34" d="M799.58,115.22c2,0,3.9,.5,5.8,1.1,.2,.7-.3,1-.7,1.3-3.1,2.7-6.2,5.4-9.3,8.1-.9,.8-2.5,.9-2.9,2.4-1.1-.4-2.2-.3-3.3,.2-2,.9-4,2-6,2.9-.8,.4-1.7,1.2-2.7,.5-.7-.6-1.6-.5-2.4-.3-2.6,.5-5.3,.3-8,.4-3.7,.1-7.4,.3-11.2,.1-4.3-.2-8.4-1-12.4-2.6-3-1.2-5.9-1.3-9-.6-2.6,.6-2.7,.5-3.4-2.1-.5-1.6-.9-3.2-1.4-4.8-.4-1.2,0-2,.9-2.6,2.6-1.6,5.3-2.8,8.4-3,2.1-.1,4.2-.2,6.2,.2,2.2,.4,4.3-.3,6.5-.3,2.7,0,5.5,0,8.2-.4,2.1,.4,4.1,.1,6.2,.1h25.9c1.4,.1,3,0,4.6-.6Z"/><path d="M769.18,106.82c1.8,1.2,1.9,1.7,.6,3.4-2.2,2.7-8.5,3.9-11.5,2.2-1.6-.9-2.3-2.3-2.6-4-.8-1,0-2-.1-3.1-2.5,1.3-4.1,3.9-6.8,4.8-1.6,1.2-3.1,2.5-4.7,3.7-1.1,.8-2.2,1.5-3.6,1.5-.3-.8,.1-1.3,.6-1.8,3.7-4,7.5-7.8,11.8-11.1,2.1-1.6,4.4-2.8,6.9-3.5,7.3-2.1,14.5-4.1,21.8-6.3,2.6-.8,3-.4,4.5,1.8,.5,.8,1.1,1.4,1.9,1.9,3.9,2.8,7.3,6.1,10,10,.4,.6,.8,1.3,1.2,1.9,.2,.3,.1,.6-.2,.9-1,.8-3.1,.7-4-.3-.6-.8-1.2-1.6-1.8-2.4-1.8-2.7-4.1-5.1-6.5-7.2-.7-.1-1.2-.5-1.7-1-.4-.4-.8-.8-1.2-1.1-1.2-1-2.4-.1-3.6,.1-4,1.4-8.3,1.8-11.8,4.3-.7,.2-1.8-.4-2.1,.7-.2,1,.3,1.9,1,2.7,.6,.5,1.8,.7,1.9,1.9Z"/><path class="cls-12" d="M723.68,243.72c1,4.7,2.8,9.2,4.4,13.7,1.7,4.6,3.6,9.1,5.3,13.7,.2,.4,.3,.8,.5,1.2,.4,1.1-.4,1.9-1.1,2.2-.8,.4-1-.6-1.3-1.1-3.9-8.4-7.2-17-10-25.8-2.6-7.9-4.4-16-5.2-24.3-.3-2.6-.2-5.3-.2-8,.2-7.6,.8-15.2,3.2-22.6,2-6.3,4.8-12.2,9.3-17.1,.6-.1,.8,.1,.7,.7-5.1,7.4-8.1,15.6-9.3,24.5-2,14.6-1,28.9,3.7,42.9Z"/><path class="cls-43" d="M799.58,115.22c.1,.5,0,.9-.6,1.2-1,.4-1.9,.4-2.9,.4-10.4-.2-20.9-.1-31.3,0h-1.7c-.7-.1-.4-.6-.3-.9,1.5-.9,3.2-.7,4.9-.8,7.3-.7,14.5-1.5,21.8-1.7,2.4,0,4.8,.3,7.2,.4,1.2-.1,2,.7,2.9,1.4Z"/><path class="cls-34" d="M768.28,100.72c.4-.2,1.2,0,1.1-.3-.4-1.5,.8-1.4,1.5-1.6,3.1-.9,6.2-1.7,9.3-2.5,1.1,.1,2.3,0,3.4,.5,.5,.3,1,.5,1.5,.8,.6,.3,1.1,.7,1.4,1.3-.5,.3-1.1,.5-1.4,.9-2.7,3-6.4,3-10,3.2-1.3,.1-2.6,0-3.9,0-1.1-.4-2.6-.7-2.9-2.3Z"/><path class="cls-3" d="M823.68,116.62c.6-5.1,.2-10.3,.9-15.4,.4-3.1,1.3-6.2,2.7-9,.4-.9,1-1.3,2-.7,.6,.3,.8,.7,.5,1.4-2.8,5.9-3,12.4-3.6,18.7-.3,3.1-.7,6.1-1.1,9.1-.1,.5-.1,1.1-.7,1.1s-.7-.7-.7-1.2c0-1.4,0-2.7,0-4Z"/><path class="cls-3" d="M780.28,131.72c3.3-1.5,6.6-3,9.9-4.5,1.2-.6,1.9-.3,2.2,1-8.2,5.4-22.2,12.4-25,12.5,0-1.5,.7-2.4,2-3,3.7-2.1,7.3-4.1,10.9-6Z"/><path class="cls-4" d="M768.28,100.72c1,.8,2.3,1.2,2.9,2.4,0,1.6,.1,3.3-2.1,3.6-.3-.2-.6-.6-1-.7-2.4-.6-2.2-2.8-2.8-4.4-.2-.6,.2-1,.7-1,.9,0,1.6,.1,2.3,.1Z"/><path class="cls-34" d="M748.68,110.02c2.3-2.4,5-4.2,7.8-6.6-.1,2-1,3.3-.9,4.8-1.9,.7-3.8,1-5.6,2-.5,.4-.9,.1-1.3-.2Z"/><path class="cls-34" d="M795.68,158.82c-.7,.9-1.3,1.9-2,2.8-2.2,2.8-3.3,5.9-3.1,9.4v2.2c-2.1-4.7-.9-8.8,2.1-12.6,.7-1,1.6-1.9,3-1.8Z"/><path class="cls-62" d="M729.28,176.32c-.2-.2-.5-.5-.7-.7,1.2-1.8,2.6-3.4,5.2-4.1-.5,1.4-1.7,1.6-2.4,2.4-.6,.8-1.4,1.6-2.1,2.4Z"/><path class="cls-34" d="M713.18,302.22c-.8-1-1.1-2.3-1.4-3.5,.4,.2,.8,.3,1.1,.5,1.8,1.1,1.8,1.4,.3,3Z"/><path class="cls-17" d="M793.78,181.72c1,.7,1.6,1.9,2.9,2,.2,.5,0,.6-.5,.6-.8-.1-1.7-.1-2.5-.2,.5-.8-.1-1.6,.1-2.4Z"/><path d="M897.68,100.22c-.2,5-3.2,6.3-7.6,6.7-1.8,.2-3.6-.5-5.3-1.3-1-.5-1.8-1.2-2.2-2.3-.2-.6-.4-1.3-1-1.7-.7-.5-1.4-.8-2.1,.1-.4,.6-1,1.1-1.5,1.7-.4,.4-.8,.8-1.7,.5,.3-2.4,2.2-3.9,3.3-5.9,1.3-3.1,3.5-5.3,6.3-7,.5-1,1.5-1.3,2.5-1.4,6.2-.8,12.3-1.6,18.5-1.4,1.5,0,3,.2,4.5,.3,1.1,.1,1.8,.7,2.5,1.6-.5,.7-1.2,.8-1.9,1-1.4,.2-2.8,.7-4.2,.6-4.1-.3-8.1,.4-12.2,.5-1.6,.1-2.9,1.1-4.3,1.7-.7,2.3-.3,3.1,1.9,3.4,2,.5,3.9,.7,4.5,2.9Z"/><path class="cls-34" d="M890.78,93.62c.7-1.1,2.7,0,3-1.8,1.2-.1,2.5-.1,3.7-.2,3.4-.3,6.8-.5,10.2-.3,1,.3,2.1,.1,3,.8,1,.2,1.9,.4,2.8,.6,.2,.9-.4,1.2-.8,1.5-2.1,1.8-4.1,3.6-6.2,5.3-2.4,1.9-5,2.3-7.8,1.1,.3-3.8-1.1-5.6-5.1-6.3-1-.1-2.1,.2-2.8-.7Z"/><path class="cls-43" d="M912.28,115.82c-2.4,1.7-5,.6-7.5,.2-3.9-.6-7.9-1.1-11.9-1.4-.7-.1-1.5-.3-2.2-.4-1.5-.2-1.5-1-1.1-2.1,6.4-.2,12.9-.6,19.2,1,1.6,.5,3.1,.9,3.5,2.7Z"/><path class="cls-4" d="M890.78,93.62c2.6-.3,4.9,.4,7,2,2.4,1.7,2.6,2.6,.8,5.1-.3-.1-.6-.3-1-.4-1.6-1.4-3.3-2.6-5.6-2-.3,.1-.7,.1-.9-.1-.6-.7-.6-1.7-.9-2.5-.2-.8-.3-1.6,.6-2.1Z"/><path class="cls-40" d="M887.68,81.82c6.2-.2,12.4-.4,18.5,.4-.7,.9-1.6,1.1-2.6,.9-4.3-1.1-8.6-.9-13-1-1-.1-2,.2-2.9-.3Z"/><path class="cls-34" d="M886.08,91.22c-2.3,2.1-4.2,4.7-6.3,7-.8-1.6-.2-2.8,1.1-3.9,1.5-1.4,3.2-2.5,5.2-3.1Z"/><path class="cls-52" d="M910.68,92.12c-1.1,.1-2.1-.4-3-.8,1.5-.1,3-.2,4.5,0-.4,.6-1.2,.2-1.5,.8Z"/><path class="cls-69" d="M151.98,305.32c-.2,.1-.4,.2-.6,.4,.2-.2,.4-.3,.6-.4Z"/><path class="cls-26" d="M163.18,135.62c-.1,.1-.2,.2-.3,.2-.3,0-.3-.2-.2-.4,0-.1,.3-.2,.4-.1,.1,0,.2,.1,.1,.3Z"/><path class="cls-23" d="M796.18,184.32c.2-.2,.3-.4,.5-.6,.6,0,1.1,.2,1.6,.6q-1.1,.3-2.1,0Z"/><path class="cls-34" d="M778.68,194.72c-.1,0-.2-.1-.3-.1v-.2l.2-.1c.1,.1,.1,.3,.1,.4Z"/><path class="cls-44" d="M773.18,222.72c-.2,1.4-.9,1.5-1.9,1.4,.4-.8,1-1,1.9-1.4Z"/><path class="cls-34" d="M914.48,214.42c0,.2-.1,.3-.3,.3,0-.2,.1-.3,.3-.3Z"/><path class="cls-24" d="M783.68,97.32c-1.2-.1-2.4-.3-3.4-.9,.8-.2,1.5-.4,2.3-.6,.9-.3,1.4,.2,1.7,.9,.1,.4-.1,.6-.6,.6Z"/><path class="cls-73" d="M783.68,97.32c.2-.2,.4-.5,.6-.7,.5,.2,.8,.6,.9,1-.5,.1-1.1,.1-1.5-.3Z"/></g></g></g><g id="Ebene_3"><polygon points="303.1 155.04 282.02 189.1 300.61 153.62 303.1 155.04 303.1 155.04"/><polygon class="cls-4" points="593.35 121.72 620.6 151.07 591.32 123.74 593.35 121.72 593.35 121.72"/></g></svg>