<?xml version="1.0" encoding="UTF-8"?><svg id="Ebene_3" xmlns="http://www.w3.org/2000/svg" viewBox="0 0 931.86 652.6"><defs><style>.cls-1{fill:#b2e8f1;}.cls-2{fill:#1d1d1b;}</style></defs><rect class="cls-1" width="931.86" height="652.6"/><path class="cls-2" d="M475.56,508.48c-.66-92.69-.81-212.9-.79-305.82,.13-54.48,.38-129.02,.52-183.49,0,0,0-.37,0-.37,0,0,.37,0,.37,0,0,0,55.25,.06,55.25,.06,100.29-.46,285.76-.24,387.76-.68,.13,95.8,.09,226.44-.36,322.23-.28,26.47,.08,81.02-.73,107.08,0,0-.33-53.54-.33-53.54-.47-115.88-.82-258.7-.56-374.77,0,0,.99,.99,.99,.99-102.32,.2-286.27-.83-386.76-.67,0,0-55.25,.06-55.25,.06,0,0,.37-.37,.37-.37,.15,54.51,.4,129,.52,183.49-.1,92.83,.18,213.6-1,305.82h0Z"/><path class="cls-2" d="M16.78,638.48c-.66-117.31-.81-269.47-.79-387.07,.05-49.56,.41-181.44,.52-232.62,27.79,.15,83.11-.02,110.88-.03,70.24-.1,258.91-.44,331.51-.59,0,0,.99,0,.99,0,0,0,0,.99,0,.99,.13,120.12,.09,284.38-.36,404.48-.28,33.36,.08,101.87-.73,134.83,0,0-.33-67.41-.33-67.41-.47-145.91-.82-325.75-.56-471.9,0,0,.99,.99,.99,.99-73.54-.14-260.49-.51-331.51-.59-27.48,.02-83.01-.16-110.5-.03,0,0,.37-.37,.37-.37,.13,51.65,.46,182.39,.52,232.24-.1,117.53,.18,270.21-1,387.07h0Z"/></svg>