<?xml version="1.0" encoding="UTF-8"?>
<svg id="Ebene_10" xmlns="http://www.w3.org/2000/svg" version="1.1" viewBox="0 0 930 325">
  <!-- Generator: Adobe Illustrator 30.1.0, SVG Export Plug-In . SVG Version: 2.1.1 Build 136)  -->
  <defs>
    <style>
      .st0 {
        fill: #55858d;
      }

      .st1 {
        fill: #71c0cd;
      }

      .st2 {
        fill: #264045;
      }

      .st3 {
        fill: #2c4d52;
      }

      .st4 {
        fill: #88bec6;
      }

      .st5 {
        fill: #182a2c;
      }

      .st6 {
        fill: #94d9e5;
      }

      .st7 {
        fill: #0f1b1c;
      }

      .st8 {
        fill: #a6e2ec;
      }

      .st9 {
        fill: #1d3135;
      }

      .st10 {
        fill: #77c8d5;
      }

      .st11 {
        fill: #1c3034;
      }

      .st12 {
        fill: #477f88;
      }

      .st13 {
        fill: #0e191b;
      }

      .st14 {
        fill: #0b1c1e;
      }

      .st15 {
        fill: #17282b;
      }

      .st16 {
        fill: #080d0e;
      }

      .st17 {
        fill: #428c97;
      }

      .st18 {
        fill: #010101;
      }

      .st19 {
        fill: #0b1314;
      }

      .st20 {
        fill: #0a1112;
      }

      .st21 {
        fill: #93cdd6;
      }

      .st22 {
        fill: #5badbb;
      }

      .st23 {
        fill: #6da2ab;
      }

      .st24 {
        fill: #245c65;
      }

      .st25 {
        fill: #2d3b3d;
      }

      .st26 {
        fill: #071213;
      }

      .st27 {
        fill: #1f3539;
      }

      .st28 {
        fill: #99c9d1;
      }

      .st29 {
        fill: #abe0e8;
      }

      .st30 {
        fill: #9bd0d9;
      }

      .st31 {
        fill: #8ed6e3;
      }

      .st32 {
        fill: #020203;
      }

      .st33 {
        fill: #040708;
      }

      .st34 {
        fill: #192a2d;
      }

      .st35 {
        fill: #0b1416;
      }

      .st36 {
        fill: #96dae5;
      }

      .st37 {
        fill: #5ea1ad;
      }

      .st38 {
        fill: #8bd5e1;
      }

      .st39 {
        fill: #90ccd6;
      }

      .st40 {
        fill: #3d6970;
      }

      .st41 {
        fill: #040707;
      }

      .st42 {
        fill: #ade3ec;
      }

      .st43 {
        fill: #233b3f;
      }

      .st44 {
        fill: #97d9e4;
      }

      .st45 {
        fill: #070b0c;
      }

      .st46 {
        fill: #95c9d2;
      }

      .st47 {
        fill: #88c6d0;
      }

      .st48 {
        fill: #7acddb;
      }

      .st49 {
        fill: #6ebdc9;
      }

      .st50 {
        fill: #22373a;
      }

      .st51 {
        fill: #18292b;
      }

      .st52 {
        fill: #a5e0ea;
      }

      .st53 {
        fill: #96d6e0;
      }

      .st54 {
        fill: #3a6168;
      }

      .st55 {
        fill: #4d858e;
      }

      .st56 {
        fill: #2e3c3e;
      }

      .st57 {
        fill: #6facb7;
      }

      .st58 {
        fill: #47828c;
      }

      .st59 {
        fill: #6fc0cd;
      }

      .st60 {
        fill: #6f9197;
      }

      .st61 {
        fill: #76cad7;
      }

      .st62 {
        fill: #2d4d53;
      }

      .st63 {
        fill: #66acb8;
      }

      .st64 {
        fill: #2d4d52;
      }

      .st65 {
        fill: #132023;
      }

      .st66 {
        fill: #9bdde7;
      }

      .st67 {
        fill: #132022;
      }

      .st68 {
        fill: #aadfe7;
      }

      .st69 {
        fill: #78a8b0;
      }

      .st70 {
        fill: #6dafb9;
      }

      .st71 {
        fill: #2b4b50;
      }

      .st72 {
        fill: #18292c;
      }

      .st73 {
        fill: #5a919a;
      }

      .st74 {
        fill: #1e3337;
      }

      .st75 {
        fill: #9ad5df;
      }

      .st76 {
        fill: #3a636a;
      }

      .st77 {
        fill: #060b0b;
      }

      .st78 {
        fill: #121f21;
      }

      .st79 {
        fill: #394a4d;
      }

      .st80 {
        fill: #182427;
      }

      .st81 {
        fill: #76cbd9;
      }

      .st82 {
        fill: #609ca6;
      }

      .st83 {
        fill: #040607;
      }

      .st84 {
        fill: #1e3236;
      }

      .st85 {
        fill: #060b0c;
      }

      .st86 {
        fill: #44585b;
      }

      .st87 {
        fill: #091011;
      }

      .st88 {
        fill: #97c8d1;
      }

      .st89 {
        fill: #243e42;
      }

      .st90 {
        fill: #607d81;
      }

      .st91 {
        fill: #f8fafa;
      }

      .st92 {
        fill: #34585f;
      }

      .st93 {
        fill: #92c9d3;
      }

      .st94 {
        fill: #599aa5;
      }

      .st95 {
        fill: #60a6b1;
      }

      .st96 {
        fill: #172629;
      }

      .st97 {
        fill: #305257;
      }

      .st98 {
        fill: #101b1d;
      }

      .st99 {
        fill: #94d3de;
      }

      .st100 {
        fill: #233c41;
      }

      .st101 {
        fill: #95cdd6;
      }

      .st102 {
        fill: #f9fdfd;
      }

      .st103 {
        fill: #76c8d6;
      }

      .st104 {
        fill: #97d2dc;
      }

      .st105 {
        fill: #171e1f;
      }

      .st106 {
        fill: #6dbcc9;
      }

      .st107 {
        fill: #050809;
      }

      .st108 {
        fill: #99d9e4;
      }

      .st109 {
        fill: #070c0d;
      }

      .st110 {
        fill: #000101;
      }

      .st111 {
        fill: #76a6ae;
      }

      .st112 {
        fill: #232d2e;
      }

      .st113 {
        fill: #70979d;
      }

      .st114 {
        fill: #86aeb5;
      }

      .st115 {
        fill: #33828e;
      }

      .st116 {
        fill: #14282a;
      }

      .st117 {
        fill: #9fdfe9;
      }

      .st118 {
        fill: #afe5ee;
      }

      .st119 {
        fill: #030606;
      }

      .st120 {
        fill: #020304;
      }

      .st121 {
        fill: #132123;
      }

      .st122 {
        fill: #060708;
      }

      .st123 {
        fill: #192b2d;
      }

      .st124 {
        fill: #0f2629;
      }

      .st125 {
        fill: #5599a3;
      }

      .st126 {
        fill: #a3dce5;
      }

      .st127 {
        fill: #3b8692;
      }

      .st128 {
        fill: #152527;
      }

      .st129 {
        fill: #2f5055;
      }

      .st130 {
        fill: #122022;
      }

      .st131 {
        fill: #030506;
      }

      .st132 {
        fill: #1b2b2e;
      }

      .st133 {
        fill: #71bfcc;
      }

      .st134 {
        fill: #36818c;
      }

      .st135 {
        fill: #4b818a;
      }

      .st136 {
        fill: #42737b;
      }

      .st137 {
        fill: #a2e0eb;
      }

      .st138 {
        fill: #6bb8c5;
      }

      .st139 {
        fill: #060a0b;
      }

      .st140 {
        fill: #34818d;
      }

      .st141 {
        fill: #1a2c2f;
      }

      .st142 {
        fill: #69a8b2;
      }

      .st143 {
        fill: #5a8990;
      }

      .st144 {
        fill: #334446;
      }

      .st145 {
        fill: #142225;
      }

      .st146 {
        fill: #487c84;
      }

      .st147 {
        fill: #101c1e;
      }

      .st148 {
        fill: #0f191b;
      }

      .st149 {
        fill: #33818d;
      }

      .st150 {
        fill: #a6dce5;
      }

      .st151 {
        fill: #457780;
      }

      .st152 {
        fill: #a0d7e1;
      }

      .st153 {
        fill: #1b2f32;
      }

      .st154 {
        fill: #7acdda;
      }

      .st155 {
        fill: #6da7b1;
      }

      .st156 {
        fill: #9fd6df;
      }

      .st157 {
        fill: #607d82;
      }

      .st158 {
        fill: #9bdce8;
      }

      .st159 {
        fill: #3b4d4f;
      }

      .st160 {
        fill: #94cbd4;
      }

      .st161 {
        fill: #77cbd8;
      }

      .st162 {
        fill: #020303;
      }

      .st163 {
        fill: #0f1a1c;
      }

      .st164 {
        fill: #8fd7e3;
      }

      .st165 {
        fill: #6ca7b0;
      }

      .st166 {
        fill: #f3f9fa;
      }

      .st167 {
        fill: #327d88;
      }

      .st168 {
        fill: #2c4144;
      }

      .st169 {
        fill: #0d1618;
      }

      .st170 {
        fill: #274246;
      }

      .st171 {
        fill: #fafdfe;
      }

      .st172 {
        fill: #467880;
      }

      .st173 {
        fill: #9ddde9;
      }

      .st174 {
        fill: #0f1314;
      }

      .st175 {
        fill: #92bfc7;
      }

      .st176 {
        fill: #0a1113;
      }

      .st177 {
        fill: #a7e3ec;
      }

      .st178 {
        fill: #547f85;
      }

      .st179 {
        fill: #111e20;
      }

      .st180 {
        fill: #152326;
      }

      .st181 {
        fill: #4f8891;
      }

      .st182 {
        fill: #90c8d1;
      }

      .st183 {
        fill: #1e3438;
      }

      .st184 {
        fill: #4f8791;
      }

      .st185 {
        fill: #99d3dc;
      }

      .st186 {
        fill: #061012;
      }

      .st187 {
        fill: #62959e;
      }

      .st188 {
        fill: #162629;
      }

      .st189 {
        fill: #1c3033;
      }

      .st190 {
        fill: #2d4e54;
      }

      .st191 {
        fill: #1c2a2d;
      }

      .st192 {
        fill: #95d1db;
      }

      .st193 {
        fill: #75c7d4;
      }

      .st194 {
        fill: #020505;
      }

      .st195 {
        fill: #7accda;
      }

      .st196 {
        fill: #e5f7fa;
      }

      .st197 {
        fill: #1a2223;
      }

      .st198 {
        fill: #273638;
      }

      .st199 {
        fill: #7ac8d5;
      }

      .st200 {
        fill: #fefefe;
      }

      .st201 {
        fill: #99dce7;
      }

      .st202 {
        fill: #080e0f;
      }

      .st203 {
        fill: #6ab5c1;
      }

      .st204 {
        fill: #5c9199;
      }

      .st205 {
        fill: #7ecfdc;
      }

      .st206 {
        fill: #b2e8f1;
      }

      .st207 {
        fill: #375e65;
      }

      .st208 {
        fill: #556f73;
      }

      .st209 {
        fill: #56959f;
      }

      .st210 {
        fill: #5898a2;
      }

      .st211 {
        fill: #75c8d6;
      }

      .st212 {
        fill: #33808b;
      }

      .st213 {
        fill: #abe2eb;
      }

      .st214 {
        fill: #0b1011;
      }

      .st215 {
        fill: #679ba3;
      }

      .st216 {
        fill: #0d1719;
      }

      .st217 {
        fill: #162528;
      }

      .st218 {
        fill: #69bac7;
      }

      .st219 {
        fill: #abe1ea;
      }

      .st220 {
        fill: #070d0e;
      }

      .st221 {
        fill: #74c4d1;
      }

      .st222 {
        fill: #6a9fa7;
      }

      .st223 {
        fill: #223a3e;
      }

      .st224 {
        fill: #9cd8e2;
      }

      .st225 {
        fill: #17272a;
      }

      .st226 {
        fill: #a0dbe4;
      }

      .st227 {
        fill: #35808c;
      }

      .st228 {
        fill: #9fd7e0;
      }

      .st229 {
        fill: #92cad4;
      }

      .st230 {
        fill: #111d1f;
      }

      .st231 {
        fill: #2e4f55;
      }

      .st232 {
        fill: #080a0b;
      }

      .st233 {
        fill: #92d6e1;
      }

      .st234 {
        fill: #9bd4de;
      }

      .st235 {
        fill: #91c6cf;
      }

      .st236 {
        fill: #a6d9e2;
      }

      .st237 {
        fill: #28454a;
      }

      .st238 {
        fill: #0a0f10;
      }

      .st239 {
        fill: #9bd8e2;
      }

      .st240 {
        fill: #80d0dd;
      }

      .st241 {
        fill: #89b3ba;
      }

      .st242 {
        fill: #68b4c0;
      }

      .st243 {
        fill: #020405;
      }

      .st244 {
        fill: #87afb6;
      }

      .st245 {
        fill: #142224;
      }

      .st246 {
        fill: #345a60;
      }

      .st247 {
        fill: #497e86;
      }

      .st248 {
        fill: #020404;
      }

      .st249 {
        fill: #68afbb;
      }

      .st250 {
        fill: #080f11;
      }

      .st251 {
        fill: #142325;
      }

      .st252 {
        fill: #0c1618;
      }

      .st253 {
        fill: #8ec6cf;
      }

      .st254 {
        fill: #070b0b;
      }

      .st255 {
        fill: #20363a;
      }

      .st256 {
        fill: #31545a;
      }

      .st257 {
        fill: #010202;
      }

      .st258 {
        fill: #3b4c4f;
      }

      .st259 {
        fill: #fdfefe;
      }

      .st260 {
        fill: #0b1214;
      }

      .st261 {
        fill: #9cd1da;
      }

      .st262 {
        fill: #4b828b;
      }

      .st263 {
        fill: #253538;
      }

      .st264 {
        fill: #38494b;
      }

      .st265 {
        fill: #e8eff1;
      }

      .st266 {
        fill: #324649;
      }

      .st267 {
        fill: #030505;
      }

      .st268 {
        fill: #010303;
      }

      .st269 {
        fill: #21393d;
      }

      .st270 {
        fill: #315359;
      }

      .st271 {
        fill: #243d42;
      }

      .st272 {
        fill: #091213;
      }

      .st273 {
        fill: #090f10;
      }

      .st274 {
        fill: #040506;
      }

      .st275 {
        fill: #0c1516;
      }

      .st276 {
        fill: #2a3739;
      }
    </style>
  </defs>
  <rect class="st103" x=".11" y=".46" width="930.16" height="325.05"/>
  <g>
    <path class="st206" d="M930,.5v324.5h-254.86c-1.51-.76-3.88-.85-5,0h-71.46c-1.54-.18-3.04-.35-4.5-.5-7.06-.15-14.22.02-21.49.5h-33.48c-4.48-.46-8.8-.53-12.97-.2l-.52.2h-15.99c-6.3-.46-12.64-.77-19.03-.92-.24.62-.61.96-1.36.92H.5C.18,216.93.08,108.73.21.38c309.96-.28,619.89-.24,929.79.12Z"/>
    <polygon class="st196" points=".5 325 0 325 0 0 930 0 930 .5 .41 .53 .5 325"/>
    <path class="st154" d="M509.73,325h-20.39c.24-.34.1-1.94.85-1.88l19.01,1.47c.37.03.6.12.54.42Z"/>
    <path class="st81" d="M594.18,324.5c.44.14.43.31,0,.5h-21.49c4.14-2.25,18.76-.21,21.49-.5Z"/>
    <path class="st48" d="M539.21,325h-13.49c-1.01-1.88,5.36-.79,6.54-.58,1.92.33,7.35-.38,6.95.58Z"/>
    <path class="st240" d="M675.14,325h-5c-1.14-1.57,5.4-1.38,5,0Z"/>
    <path class="st31" d="M598.68,325h-4.5v-.5c-.19.02,5.35-.26,4.5.5Z"/>
    <path class="st81" d="M14.49,29.95l.43-.19c54.84,16.46,109.61,33.02,164.31,49.69l.3,1.13.78.17c-.13,1.86,1.92,3.09,3.45,1.5l1.14.63.42-.54c3.53,1.69,7.11,3.25,10.74,4.69,5.11-.47,6.64.98,4.58,4.36l.3,2.36c-11,12.66-10.43,28.51-6.32,43.79l-.85,1.09c-.26.23-.53.42-.83.48-1.12.23-6.17-2.05-7.52-2.77-2.02-.08-4.86-.99-6.53-2.05-7-1.6-13.95-3.99-20.49-6.99-.15.32-.32.32-.5,0-.34.42-1.4.1-1.5-.5-.56.27-1.22.04-1.5-.5-.63.14-1.61.02-2-.5-.52.21-1.19-.04-1.5-.5-.6.3-1.56-.52-2-1-.14.41-.75.38-1,0l-1.5-.5c-.43-.1-.27.2,0,.5.5-.5,1.29-.06,1.5.5.09-.41.72-.34,1,0,.65-.14,1.5.49,2,1,.47-.32,1.13.04,1.5.5.48-.32,1.61-.05,2,.5.37-.28.96.01,1,.5.58-.28,1.43.09,2,.5.14-.34.31-.33.5,0,6.74,2.17,13.4,4.5,19.99,6.99,2.04.06,4.87.99,6.58,2.05,2.3.45,5.43,1.28,7.68,2.21.18.07.26.37.32.73,1.28-.31,1.56.33,1.51,1.51-3.26,10.96-3.67,21.69-1.63,32.69-.63,4.83-2.7,9.36-6.23,13.58-2.66,6.78-6.86,11.89-12.61,15.33l-1.12-.24c-.72.46-1.94,1.03-2.29.16-25.11-10.11-50.02-20.49-74.74-31.12-4.91-1.67-9.7-3.66-14.35-5.98-.79.24-1.98-.44-2.58-.97-1.94-.44-4.37-1.37-6-2.5-.46.35-.64.08-.5-.5-.14.21-.31.2-.5,0l-.5-.5c-1.55.18-4.06-.7-5-2-.64.28-1.89.24-2-.5-.17.09-.34.15-.46.1-1.85-.66-4.94-1.82-6.03-3.1-.61.19-1.81.12-2-.5-1.46-.19-3.46-.88-4.5-2-.29.33-.89-.04-1-.5-.16.31-.33.31-.5,0-.84.05-2.65-.61-3-1.5-.6.21-1.83.14-2-.5-1.66-.28-2.99-.95-4-2-.39.25-.75.43-1,0-.31.2-.88-.11-1-.5-1.14-.31-2.63-.76-3.5-1.5-.42-.05-.59.11-.5.5,1.32-.25,3.05.53,4,1.5.27-.33.89.04,1,.5.16-.32.33-.31.5,0,1.23.2,3.48.83,4,2,.61-.21,1.83-.15,2,.5.92-.03,2.66.62,3,1.5.46-.33.8-.33,1,0,.43-.11.89.09,1,.5,1.66.38,2.99,1.04,4,2,.64-.21,1.75-.18,2,.5.17-.08.34-.14.46-.09,1.83.67,4.85,1.91,6.03,3.09.61-.19,1.59,0,2,.5,1.18.22,2.57.73,3.5,1.5l.5.5c.14-.44.31-.43.5,0l.5.5c-.03-.85.58-.64,1,0,.47-.26.67-.03.5.5,2.14.22,4.41,1.03,6,2.5.84-.39,2.24.2,2.61.99,4.86,1.04,9.98,3.59,14.34,5.89,23.02,9.1,46.02,18.52,68.98,28.26l.06.75-1.01.8c-7.58-3.03-23.26,2.57-21.81,11.88l-.25,1.24c1.07-1.08,1.94-.23,2.61,2.53,1.45.82,2.95,1.35,4.52,1.58,4.22,3.52,11.85,1.98,16.47,0-1-.13-1.33-.48-.96-1.04-.25-1.28.03-1.31.84-.31.19-.32.4-.2.62.36l1.52.25c5.57,6.73,7.72,7.84,14.96,3.84,3.77-.35,2.44-4.55.18-6.29,1.28-3.9,4.77-6,8.87-5.06l25,10.43c4.48,3.62,9.81,5.83,15.99,6.63,1.01.6,1.61,1.07.88,2.11-9.84,10.2-17.66,19.19-8.94,32.88,3.6,5.65,7.67,7.87,14.29,8.12,16.83.04,33.41,1.34,49.74,3.9,15.38,1.6,30.92,2.46,46.28,3.3.88-2.19,1.91-4.28,3.09-6.26,6.5-.18,10.34,7.35,12.68,12.7.59,1.36.91,2.4.06,3.75-4.04,3.73-7.07,9.38-4.84,14.89,1.89,4.66,15.89,2.14,18.84-1.07,1.38-1.49,4.99-13.45,5.59-16.1.6-.47.75-1.32.45-2.54,1.79-5.46,1.8-10.57.04-15.31-.28-2.36.76-4.59,3.12-6.69,1.41-7.29,3.15-21.09-7.58-20.39-6.89,2.28-16.67,2.04-23.25-1.03l-13.15-1.03c-2.4-.63-2.82-.85-1.1-2.96,3.35-3.28,6.48-6.76,9.38-10.44.37.07.49-.46.38-1.59,1.78-3.53,3.27-7.17,4.47-10.92.59-4.14,1.5-8.16,2.73-12.05,2.28-2.62,4.1-5.59,5.44-8.9-.14-2.91-.06-5.83.25-8.76l-.91-5.26c.42-5.48.78-10.96,1.07-16.42l.52-.3c36.19,11.2,72.1,22.38,107.73,33.54l.4.95c.03,39.8.05,79.57.06,119.32l-.54.6c-.24-.54-.56-1.04-.65-1.98-.85.44-1.23,1.24-1.72,1.92-.56.69-1.43.85-2.61.48-1.97.37-3.28.07-3.95-.91-2.55-.55-5.21-.54-8,.01l-.34,1-267.9.94-77.41-40.33-.13-.52h-.85s-27.51-14.09-27.51-14.09l-.12-.51c-.17.17-.32.29-.39.25-4.11-1.98-8.52-4.25-12.15-6.68-4.89-2.23-9.72-4.72-14.49-7.49-.31.34-.97.02-1-.5-.97,0-2.19-.56-2.5-1.5h-.5c-.46.29-.94.02-1-.5l-1-.5c-.5-.22-.67-.22-.5,0l1,.5c.64.19.97.52,1,1h.5c.84-.05,2.13.68,2.5,1.5.51-.3,1.22,0,1.5.5,4.88,1.75,9.76,4.57,13.99,7.49,4.09,1.55,8.43,3.84,12.39,6.05.1.05.11.26.1.51l.29-.23c9.23,4.64,18.44,9.33,27.63,14.09l.12.51,1.03.09,74.26,38.55c.5.66.11,1.24-.43,1.84l-103.29.45-.61-.91-1.28-.54c-6.26.01-12.1.01-17.54,0l.33.64.31.76c-7.88.36-15.86.46-23.95.3l-.34-.67c-.44-.15-.43-.32,0-.51h.5c.29-.2.25-.31,0-.54-1.7-.34-13.51-.96-14.03.55-.35-.3-.36-.8.04-1.01-.52-45.5-.53-91.05-.04-136.67l1-.62c.5-3.86.38-8.09,0-11.98l-1-.35c.05-45.64.1-91.05.17-136.22l1-.6c.6-1.01,2.19-.47,2.86.38Z"/>
    <path d="M459.18,316.01c.34-3.58-.16-7-.17-10.84l-.34-109.42-29.3-9.11-77.78-24.42c.25,5.21-.02,10.37-.61,15.57-.18,1.55.44,2.59.69,3.98.56,3.13-.25,6.2-.39,9.67l59.59,19.94c.48.16.65.89.54,1.11s-.63.47-1.23.27l-59.08-19.83c-1.2,3.43-2.56,6.41-5.12,8.88-.82,1.67-1.18,3.43-1.35,5.33-.57,6.42-3.11,12.08-6.07,18.06l76.56,28.45c.6.22.73.9.59,1.16-.18.33-.79.35-1.45.18l-76.25-28.47c-2.99,4.48-6.48,7.87-10.28,11.6,4.94.27,9.4.25,14.04,1.11,1.85-.25,3.16,1.43,4.74,1.73,3.38.64,6.81.43,10.32.61,9.64.51,6.32-2.49,12.29-.91,2.54.67,4.56,2.15,5.18,4.94,1.17,5.29,1.48,10.83.02,16.13-.29,1.05-1.66,2.33-2.28,2.97-2.24,2.32-.36,4.14.17,6.2,1.16,4.46-.72,9.13-1.2,13.78l42.54,17.61c.45.19.74.88.55,1.07-.26.26-.87.5-1.43.26l-41.98-17.38-3.96,12.77c-.52,1.67-1.41,3.98-3.05,4.95-6.68,3.97-18.9,4.17-19.54-.97l-.5-4.06c-.47-3.76,2.12-7.28,4.62-9.83,1.16-1.18,1.88-2.21.87-3.93-1.94-3.29-3.61-6.88-6.01-10.01-1.19-1.45-3.82-1.65-5.4-2.46-1.11,2.4-1.57,4.49-2.85,6.62l-9.57-.83c-2.19-.19-4.28.33-6.54.13l-30.9-2.66-23.03-2.88c-7.56-.95-14.84-.99-22.49-.94-9.99.06-14.34-1.01-19.84-9.56-3.71-5.76-4.51-12.86-1.52-18.94,2.82-5.71,7.1-9.72,11.58-14.56-4.05-.71-14.77-3.33-16.39-6.6l-25.52-10.65c-3.19-1.33-6.31,1.69-7.75,3.91,1.63.97,2.25,1.89,2.31,3.26.05,1.17.05,3.51-1.46,3.76-1.75.28-2.43,1.07-3.84,1.88-2.29,1.32-6.39,1.32-8.51-.39-2.35-1.9-4.17-4.01-5.92-6.09-.2-1.4-.45-2.82-.74-4.24l.7-.68.43-1.15c-1.07-1.66-.03-3.39,1.42-4.53-.45.04-.43-.25.05-.89-.76.64-1,.32-.36-.47-.87-1.03-.44-1.32.82-1.07-.41-1.35.28-1.5,1.08-.4.99-.34,1.5-.86,1.53-1.55l2.49-.53c1.45-2.11,5.52-.92,11.76-13.58,1.97-3.99,4.99-7.23,6.66-11.4,2.39-5.94-4.19-12.48,1.72-34.29.35-1.3.84-2.69-.07-3.6-.59-.94-.2-1.19.8-1.14-.17-1.39-.51-2.76-.87-4.36-3.53-15.44-3.35-28.29,7.17-40.75-.82-1.79-.5-3.26.98-4.87-2.07-1.05-4.37-.2-6.39-1.16l-9.76-4.62c-2.33.33-1.94-.99-.56-1.93l1.63-.44,9.21,4.59c2.47-.31,4.81-.21,7.02.3,1.5-2.55,3.49-4.85,5.97-6.9,1.05-2.17,1.81-4.46,2.29-6.86,2.25-2.84,4.04.5,3.35,3.42-.88,1.73-1.6,3.5-2.18,5.32,9.62,3.87,19.74.06,28.52-4.97,6.38-3.66,11.01-9.9,9.18-17.42l.67-1.01c-.6.26-1.03-1-.75-1.61l-1.13.02c-.47-1.31-1.19-2.32-2.16-3.02-.41.46-1.07.35-1.6.05-2.55,2.02-7.54,2.38-10.48.95-.6.51-1.36.34-2,0-2.36,1.14-4.64,1.39-6.86.75-2.46-2.12-3.43-2.24-2.89-.35,1.35,4.22.55,6.53-2.41,6.92-2.66-1.49-4.55-1.27-5.66.65l-1.15-.44-3.43,1.98c.59.87.36,1.97-.7,3.29-3.61-.67-7.17-1.74-10.68-3.22-2.49-.38-4.53-1.22-6.1-2.54-1.13.12-2.17-.08-3.12-.59-.7,1.13-1.22.83-1.48-.4-.24.77-1.75.79-2.04.04-1.16,1.63-4.67,1.24-4.48-1.04-1.63.4-3.41-.46-1.96-2,.02-1.28,1.04-1.42,3.06-.43,3.88.27,7.74,1.07,11.54,2.01,2.19.54,11.84,3.02,12.97,4.07.32.29.36.8.4,1.25l1.05-.41c-2.07-1.65,2.73-5.2,4.35-6.31,1.74-1.19,3.12-2.1,5.36-1.71l.09-2.07c1.69-3.24,1.32-6.74-1.1-10.49l-2.7-8.82.55-1.53-.6-1.03c-.99,1.47-2,.62-3.05-2.55l-2.43-2.51v-1.26c-.61.23-1.36-.04-1.53-.71l-1.18.58c-4.46-2.3-9.26-3.83-14.4-4.58-6.82-.06-13.05,2.4-18.69,7.39-.8,1.13-1.71,1.83-2.75,2.08-.34.83-.85,1.38-1.52,1.64.4,1.17-1.44,4.05-2.41,5.04-.92.94-2.96,2.61-4.05,1.5.1,2.17-2.07,1.07-.9-.63l3.16-3.3c3.29-3.44,6.75-10.02,16.36-15.04,5.04-2.63,10.27-1.65,15.62-.48,4.56,1,8.97,1.71,13.27,4.37.4-3.77-.14-6.76.59-9.91.72-.43.2-.73-1.56-.88-20.81-.11-41.48-.07-61.99.14l-120.83.24-12.1-.09c.08-.42.55-1.1.94-1.07,3.99.31,7.25-.17,11.32-.2l251.09-1.94,178.77-.94c1.08,0,1.42.99,1.75,1.56.19.32-.15.71-.58,1.03-20.34.32-40.71.46-61.1.41-7.54.76-15.07.89-22.6.38l-99.54.12c-6.99.88-14.03.99-21.11.32l-15.83.07-.44.71c-2.71-.02-5.41,0-8.1.09l2.49,37.83,6.86-.56,1.04.95.64-.95c.52,1.12,1.26,1.06,2.3.56,15.91-3.51,23.95-3.55,39.64,1.86,9.25,3.18,17.79,7.01,25.63,12.88,3.13,3.17,5.63,6.6,8,10.39,6.47,11.94,14.99,20.35,21.3,32.2l120.37,35.87c.52.15.57.78.64.98s-.28.54-.31.76c-.55,1.76-4.99.56-5.03-1.1-1.63.24-2.89-.09-3.79-.99l-.58-.44c-.14.22-.27.39-.35.37-6.22-1.71-12.82-3.68-18.64-5.95-.64.19-1.28.3-1.92.33l-.58-1.14c-.42.27-.8.29-1.07-.14-1.31.04-2.65.08-3.92-.29-6.7-1.93-13.46-3.95-20.1-6.05-.61-.19-1.17-.51-1.74-.86s-1.12-.75-1.65-1.18c-5.46-1.1-10.81-2.64-16.05-4.63-.76,1.36-2.25.3-2.44-.91-.23.44-.71.17-1.02-.13l-.62.85-38.06-11.63c2.18,5.03,4.13,10.15,5.85,15.35.89.14,1.56.28,1.38,1.46.86.16.89.47,0,.66l-.39.92c2.72,9.86,5.43,19.81,6.37,30.03l104.98,32.93.36-.04v-24.76c.75-.52,1.09-1.65.99-3.39l-.05-.47c-.11-1.03-.44-1.82-.98-2.39-.18-.72-.14-13.18.11-13.82.08-.2.39-.31.78-.39-.13-47.21-.02-94.38.33-141.5.64-.13,1.28-1.04,2.02,0l-.21,253.46-.15,13.13-.28,44.88c-.88-.11-.78-.95-1.01-1.46Z"/>
    <path d="M472.28,21.47l1,.47c.5,59.87.99,119.76,1.49,179.65l-.99.63c.57.49.54.81-.16.95-.25,5.21-.2,10.38.15,15.5l1,.34c.24,30.91.42,61.87.56,92.89-.57,1.19-.45,1.36.34.52,21.79-.55,43.25-.69,64.37-.4l3.07-9.53c2.29-13.54,2.92-27.3,1.89-41.26l-64.03-23.93-.22-1.15c-.91-.98.02-.79,1.06-.43l.66-.82,62.41,22.36c.09-6.1.94-12.17,2.53-18.2l-22.08-8.79-.18-1.14c-.61-.63-.23-.79,1.12-.49l2.33-.17c6.53,2.16,12.99,4.54,19.36,7.14.42-1.61,1.15-2.44,2.17-2.47.84-.98,1-1.81.48-2.5.91-.42,1.6-1.26,2.07-2.54,1-3.45,2.68-6.75,5.03-9.9,4.35-9.02,9.2-16.66,18.13-21.57,5.21-4.18,9.37-9.32,12.48-15.42l1.29.02c.54-.42.82-.15.63.54.6.24.42.88-.55,1.92.35,1.17.03,2.44-.98,3.83,1.06-1.56,5.3-5.79,6.36-2.82.91,2.56-6.83,9.83-10.08,9.11-1,1.49-2.07,2.31-3.19,2.46-.1.6-.54,1.2-1.1.94l-.06,1.36c-4.49,2.73-8.47,5.85-11.95,9.39-4.39,8.19-9.12,16.24-14.21,24.15-1.57,4.36-2.99,8.74-4.27,13.16l.02,38.63c.14,9.52-1.4,18.8-5.01,27.66l80.13-.08c6.96-8.64,13.33-18.04,19.1-28.19l5.39-7.5c1.2-5.28,2.33-10.67,3.42-16.16l1.39-1.48c-.15-.73-.12-1.59.49-2.04.37-1.36.5-2.77.39-4.23l.64-.27c-1.35-.7-1.26-2.2-.12-3.07-.63-.2-1.07-.9-1.06-1.53-.43-.14-.37-.25.11-.34l-2.03-2.05-1.15.02c-2.39-2.4-5.63-3.16-8.86-2.17-8.36,9.15-16.58,18.46-24.64,27.92-1.09,2.86-.01,5.43,2.48,7.11,5.83,3.91,9.58.82,14.08-3.54,6.14-5.96,11.58-12.85,16.62-19.56.34-2.85,1.16-3.93,2.48-3.24,2.29.13,1.89,3.4.55,4.44.34.62.26,1.54-.55,1.58.16.77-.09,1.59-.73,2.46l-7.33,8.36c3.89-.63,6.38,2.37,4.34,5.85-1.75,2.99-4.04,1.22-3.83-1.61l-4.46-.46-4.2,5.31c-6.45,9.27-19.41,10.17-23.48-1.56-4.47,1.99-9.5,1.1-13.16-2.12-1.2-1.05-3.68-3.51-2.15-4.79-.45-1.81-.24-2.83.63-3.04l1.03.41c3.04,6.74,10.28,7.82,15.28,1.92,7.34-10.31,15.21-20.65,24.96-28.89l1.91-.87c1.17-1.66,3.97-11.57,3.28-12.71-.63-1.06-9.18-6.7-10.92-6.64-4.65.15-12.07,12.55-13.99,16.42-3.91,5.27-7.68,10.71-11.3,16.32-1.56,3.29-3.86,6.23-6.9,8.82l-1.38.2c-2.25,2.16-1.59.32-.45-1.48l-.69-.96c4.71-6.41,9.13-13.15,13.26-20.2l2.12-2.83c-4.81-3.4.27-4.44,3.72-4.59,2.13-8,4.15-16.04,6.04-24.14.19-4.43.46-8.87.83-13.34l1.08-.84c.04-3.84-.41-7.6-1.34-11.29l.41-.65c-.5-.33-.84-.84-1.02-1.51l-1-2c-.32.11-.45-.15-.5-.5-.65-.2-1.24-.83-1.5-1.5-.75-.13-1.25-.46-1.5-1-.27-.72.38-.88,1.04-.53.87-1.58,2.81-.15,3.93.73,2.64,2.09,4.8,6.81,4.92,10.15.31,8.95-1.07,21.65-2.87,30.55-.09.46-.32.9-.57,1.34s-.57.86-.91,1.27l.68,1.25c-.54,1.59-1.29,2.95-2.26,4.08.32.44.08,1.02-.47,1.08.03.44.2.61.5.5-.28-.48-.11-1.14.5-1.1.14-2.62,2.24-5.44,4.98-5.95-.14-2.94,5.48-2.74,7.71-1.96,11.95,5.05,14.88,10.83,9.7,22.46,5.27.45,11.07,6.39,11.64,11.55.35,3.17-2.47,14.8-3.49,18.41l-1.13.49c.36,2.52.08,5.01-.84,7.47l.23.61,92.17,35.03c4.81-.07,9.59.47,14.36,1.24,1.19.15,1.89-.16,2.1-.92-1.81.15-3.59-.2-5.34-1.05l-36.93-14.53-1.68-1.35c-.24.32-.63.8-.92.71-4.88-1.66-11.13-4.2-15.79-6.4l-.3-1.2c-1.85-.17-4.24-.85-5.5-2.16l-.57.17c-11.01-4.02-21.92-8.29-32.75-12.79l-.07-.75c-.28-.63.03-.82.95-.57l.68-.81,106.71,40.54,89.03-.03,17.19-20.87,1.15.17,3.3-5.63c11.83-14.12,23.69-30.02,27.17-48.55.67-.9,1.3-1.22,2.08-.37,4.37,4.76-9.22,31.4-13.41,36.11-8.7,11.54-17.66,22.87-26.87,34.01l-1.16-.15c-.06.67-.23,1.32-.95,1.18-.18,1.4-1.04,2.75-2.58,4.06l49.09.07c1.28,0,1.91.92,1.89,2.73.44.16.43.35,0,.56-.92.32-1.66.42-3.14.42h-268.15c-3.9.13-7.83.44-11.78.93-31.75.22-63.34-.1-94.77-.94l-65.11-.32c-.59,1.26.47,2.61-.91,3.49l-.6-19.78-1.04-69.89-2.36-220.88c-.01-1.17.61-1.41,1.07-1.63.98-.94,1.42,0,1.33,2.85.97.35,1,.6.02.75-.54.26-.13,10.51.23,11.87Z"/>
    <path class="st81" d="M48.33,22.94c.11-.35.36-.2.65.02.83.15,1.5.48,2,1,.13-.41.74-.36,1,0,.68-.37,2.04.33,2.5,1,.19-.38.76-.36,1,0,.82,0,1.87.46,2.5,1,.71-.26,1.86.02,2.5.5,1.59.28,3.61.72,5,1.5.48-.28.95-.09,1,.5.53-.29,1.38-.11,1.5.5h.5c.89-.08,2.53.2,3,1,.17-.32.33-.32.5,0,.6-.28.99-.16,1,.5.16-.23.32-.23.5,0,1.89-.09,3.39.41,4.5,1.5,2.19.22,5.29.71,7,2,1.42.01,3.91.2,4.5,1.45l1.01-.07,72,21.37c.5-.19,1.28.03,1.66.41.27.27,2.49,6.85,2.32,7.19-.11.21-.31.37-.53.51.3.46.31.82.04,1.1.46.02.44.18.02.46-.66,1.71.29,2.9,2.86,3.55,1.63-.69,4.89,1.18,6.05,2.7.58,1.54,1.25,2.93,2.02,4.18.54.38.63.5-.04.64l-.74.82c-52.08-15.58-105.92-31.71-157.88-47.7-.11-.03-.16-.29-.18-.61-.44-.14-.43-.31,0-.51l-.16-.7c-2.29-.43-4.22-1.2-5.8-2.3-.56-4.21-.64-8.72.04-12.91.9-.52,1.81-.28,2.93-.06l8.31,1.63,23.77,8.17c.3.1.74.19.94.14.15-.04.13-.26.24-.45Z"/>
    <path class="st81" d="M458.57,164.11c-.81.51-1.56.05-.77-.75.2-.74,0-.77-.58-.11-.13.34-.25.6-.28.59-25.11-7.74-50.88-16-75.9-24.06-.11-.04-.17-.23-.22-.47-5.87-1.2-11.92-3.35-17.52-5.51-1.43.1-2.97-.57-4-1.5-1.07.17-2.93-.14-3.5-1h-.5c-1.66-.2-4.31-.87-5.5-2-.99.09-2.91-.17-3.5-1.06-.47-.37-2.02-.29-2.29-1.12-1.92-5.92-4.17-11.42-6.86-17.31l40.61,12.4c.38.39.72.43,1.02.13.94-.16,1.66.74,2.44.91,4.9,1.89,10.25,3.43,16.05,4.63,9.16,2.72,18.43,5.2,27.41,8.37.15.45.69.38,1.07.14.86.2,1.77.28,2.5.81.13.33-.03.43-.47.29l19.14,5.67.43.61c1.38.21,2.8.36,4.27.44,1.67.42,3.28,1.14,5.03,1.1.23.83.74,2.01,1.58,2.42V7.07c0-.8.16-.99.56-1.07l-.11,141.17-.14,16.94Z"/>
    <path class="st115" d="M206.89,23.91c.44.64.73.84,1.54.71,5.99,4.58,2.7,5.87,5.46,6.32l.6,1.03c1.66,4.86,2.63,10.23,5.22,14.81.36,9.28-1.67,2.75-.93,9.37-3.72-1.07-5.3.66-7.21,2.47-1.4,1.33-3.48,2.01-3.63,4.29l-1.05.41c-5.8-2.53-18.26-5.95-24.78-6.32-1.2-.07-2.71-1.22-3.18-.58.57,2-.76,2.23-4,.69-2.9-2.7-5.88-5.31-8.93-7.85l-.07-.77-.57-.59c-.09.43-.24.42-.45,0l-1.06-.97c-.07.43-.22.42-.44,0-.77-.23-1.6-.56-2.48-.99h-.46c-.25-.16-.41-.5-.49-1.02-.45-.05-.42-.22,0-.5l.87-2.04c-.68-1.16.42-3.66,1.05-4.83,5.88-3.17,3.06-3.34,6.46-6.54.54-.18,1.05-.72,1.52-1.64.5-.96,1.12-2.13,2.15-2.87,6.45-4.65,14.24-9.89,22.27-6.83,1.47.56,2.9.45,4.33.72,3.08.57,5.56,2.44,8.27,3.52Z"/>
    <path d="M698.08,10.04h29.73c1.94-.92,3.19-.75,3.74.48l155.88,1.54,30.93.1c.45-.93.33-2.19.97-2.43.41-.16,1.29-.67,1.74-.35.55,1.91.27,3.68.26,5.79l-.62,106.26-.03,6.02-.71,121.59-.33,28.55-.03,31.54c1.4.83.94,1.73,0,2.81.09.88-.17,1.95-.24,3.04-.67.77-.95.44-.89-.45l-.5-.16c.08-57.44.12-114.94.12-172.51-.7-1.19-1.22-2.52.38-3.06-.57-.52-.62-1.39-.15-2.61l-1-.35.25-120.3-63.97-.56-.6-1.01c-1.5.45-3.58.43-5,.02-1.05.43-2.9.4-4,0-1.54.42-3.85.38-5.5-.04-.06.39-.19.96-.47.99-2.63.26-11.26.06-13.83-.36l-.69-1.02c-3.4.31-7.17.36-10.49-.06-2,.44-4.82.39-7-.03-.05.39-.2.99-.47.99-10.41.19-21.98.09-32.4-.39-2.11.34-3.48,0-4.11-1.05l-.96-.48-12.73.28c-.33.89-.65.86-.95-.07l-19.84-.12c-1.36.8-2.57,1.34-3.66.12-5.31.09-10.6.01-15.87-.23l-.47,1c-8.62-.05-17.25-.1-25.88-.15l-.6-1c-3.96-.67-7.3-.06-11.07.78-.67.15-1.5.04-1.46-.77-4.5.06-9-.07-13.51-.4l-.49.99-182.4-2.04c-2.01-.33-4-.47-5.96-.43l.03,10.26-1,.72c-1.58-.82-.85-2.55-.7-4.1.04-.35.87-13.79-.88-11.38.28-.13.45-1.07.78-.96.35.13.72.57.74.96l.08,3,11.48-.1h24.45s51.02.2,51.02.2l114.3.93h24.53Z"/>
    <path d="M96.48,276.63l77.72,39.89,66.5-.24,109.1-.31,92.46-.43c2.27-.27,4.59-.44,6.97-.53l1.03.51c2.2,0,4.5-.42,6.55.42.06.77,1.11,1.22.61,2.51l-263.5.42-182.23-.02c3.26-2.57,7.34-.52,10.81-1.33.41-.37,1.11-.45,1.5-.01h23.43c.35-.01.64-.13.56-.39,0-.35,0-.63.04-.63,1.77-.24,17.26-.14,18.12.23.13.06.24.18.34.32l45.99-.2,58.24-.34-75.19-39.48c-.27-.58.06-.72.97-.4Z"/>
    <path class="st18" d="M11.47,10.04l.32,1.89c-.17,5.6-.1,11.11.2,16.52,1.24.67.93.81-.36,1.11l-.05,33.9-.12,103.27c.44,3.89.43,8.08,0,11.98l-.68,127.67c-.02,3.55-.16,6.47-.29,9.62-.14.44-.31.43-.5,0,.34-1.47-.36-2.85-.38-4.56l-.46-54.91.04-172.13.2-71.85c0-1.64.83-2.41,2.07-2.52Z"/>
    <path class="st206" d="M456.78,10.45c.07,1.39-72.02-.4-65.65,1.35-.66-.18-2.34-.41-2.97-.13-4.82,2.11-15.73-.09-15.03-.09l-99.59.07c-3.18,0-5.7,1.98-9.29,1.53l-6.99-.87c-6.67-.83-13.3-.15-19.79-.21-.54.33-.75,1.04-.61,2.13l1.67,33.1c.34,1.4.32,2.54-.07,3.43-2.92.08-5.79.84-8.84.61l-2.63-39.88,29.84-.11,16.09-.32,100.78-.17,20.63-.29,62.45-.15Z"/>
    <path class="st206" d="M209.97,12.58c-.4-.21-.76-.63-1.61-.63l-61.95-.1c-.09-.27.17-.35.63-.35l78.94-.04,1.55,39.88c-3.15-.85-4.97-3.28-6.31-5.9-1.15-3.16-2.74-6.14-3.31-9.49-.43-2.5-2.21-4.3-2.86-6.47-.74-2.48-2.46-3.9-3.55-6.03-1.45-2.83.39-9.86-1.53-10.86Z"/>
    <path class="st61" d="M646.21,315c-2.44,1.4-6.65-.58-11.61,1.86l-40.92-.17c-11.86-.05-23.16.15-34.97-.69-2.11-.15-4-.27-6.07-.32l-12.4-.27c-.37,0-.78-.13-.58-.42h106.55Z"/>
    <path class="st131" d="M916.97,136.72c.72-.12.78.44.53,1.07.44.12.77.45,1,1v175.73c-.32.05-.69-.04-1,.06v-.56c-1.49-45.29-1.11-90.67-.66-136,.1-10.09.61-20.17,1.16-30.25-.1-2.78-.75-5.11-1.95-6.98l-1.41-.77-3.4-6.05.18-1.61c-1.96-1.55-.37-3.3,2.11-1.92,1.08.6,4.47,5.04,3.43,6.28Z"/>
    <path class="st81" d="M161.41,48.92c.84.07,1.17.9,1,2.5.97,1.19,2.23,5.2-.09,5.23l-71.64-21.26-.23-.45c-1.77-.12-3.27-.62-4.5-1.5-2.42-.15-5.38-.85-7.5-2-.68.27-1.74-.19-1.5-1,8.94,1.98,17.61,4.6,26.71,7.32l58.84,17.55c-1.14-2.53-1.25-4.37-1.1-6.4Z"/>
    <path class="st122" d="M237.47,12.09c-.23,1.98,0,3.99.13,6.2l1.98,31.97c.71.22,1.28.08,1.83.11-.66,1.16-1.92.36-2.94.39-.57-1.07-.75-2.3-.81-3.74l-1.34-33.52c-.02-.5.03-.85.11-1.24.11-.49.66-.17,1.04-.17Z"/>
    <path class="st195" d="M731.56,10.52l-32.89-.06c-.4,0-.8-.11-.59-.42l27.9-.1c1.98,0,3.31-1.23,4.6-2.68.83,1.12.66,2.27.97,3.26Z"/>
    <path class="st214" d="M161.88,37.56c1.09,1.1-.57,4.1-1.05,4.83l-.87,2.04c.02.16,0,.34,0,.5.28.52.32,1.03-.05,1.5-3.05-.06.86-6.74.41-8.07-.28-.85.35-1.1.66-1.42-.07.29-.4.73.1.81.26.04.57-.04.8-.19Z"/>
    <path class="st63" d="M12.13,13.52c-.26,4.29-.17,8.61-.04,12.91,1.58,1.13,3.52,1.9,5.83,2.31l.13.69v.51c-.73.67-2.39.23-3.06-.5-.97.03-2.74-.16-3-1-.3-.5-.51-1.15-.51-1.97V10.04c.75-.07.67,3.22.65,3.48Z"/>
    <path class="st147" d="M76.96,30.45c.48.21.97.92,1.5,1,.2.42,0,.57-.5.5-1.4-.69-3.2-.53-4.5-1.5-.06-.33.13-.48.5-.5.99.16,2.02.28,3,.5Z"/>
    <path class="st132" d="M65.96,27.46c.23.44.04.59-.5.5-1.73-.26-3.55-.49-5-1.5-.44-.14-.43-.31,0-.5,1.86.37,3.64,1.1,5.5,1.5Z"/>
    <path class="st205" d="M919.63,311.92c-.09-.95,0-1.87,0-2.81.39.35,1.56.41,1.83.9.08,1.15-1.29,1.34-1.82,1.9Z"/>
    <path class="st263" d="M162.49,47.44c1,1.13,1.15,1.96.46,2.48-.03.7-.21,1.2-.54,1.5-.04-.78-.83-1.72-1-2.5-.15-.67.12-1.44.42-2.01.72-.52,1.01-.28.66.53Z"/>
    <path class="st251" d="M163.4,46.94c.9.79,1.25,1.45,1.05,2-.87.58-1.53.08-1.96-1.5-.21-.18-.43-.36-.66-.53-.36-.27-.67-.59-.92-.96.37-.84,2.42.25,2.48.99Z"/>
    <path class="st78" d="M71.46,28.96c.44.14.43.31,0,.5.44.14.43.31,0,.5-1.02-.28-2.15-.32-3-1-.04-.32.15-.47.5-.5.82.2,1.64.5,2.5.5Z"/>
    <path class="st168" d="M57.97,25.46c.44.14.43.31,0,.5-.86-.28-1.84-.28-2.5-1-.44-.14-.43-.31,0-.5.89,0,1.65.83,2.5,1Z"/>
    <path class="st266" d="M54.47,24.46c.44.14.43.31,0,.5l-2.5-1c-.44-.14-.43-.31,0-.5.9,0,1.82.37,2.5,1Z"/>
    <path class="st191" d="M60.47,25.96v.5c-.73-.18-1.74-.25-2.5-.5v-.5l2.5.5Z"/>
    <path class="st109" d="M68.46,28.46c.04.32-.15.47-.5.5-.55,0-1-.32-1.5-.5-.23-.44-.04-.59.5-.5.51.13,1.13,0,1.5.5Z"/>
    <path class="st264" d="M50.97,23.46c.44.14.43.31,0,.5-.7,0-1.42-.51-2-1,.71-.07,1.48-.03,2,.5Z"/>
    <path class="st50" d="M66.96,27.96c-.18.15-.35.32-.5.5-.33-.12-.72-.33-1-.5.18-.15.35-.32.5-.5.37.08.68.4,1,.5Z"/>
    <path class="st147" d="M73.46,29.95l-.5.5c-.37-.09-.72-.25-1-.5-.1-.35.09-.51.5-.5.16-.2.32-.19.5,0,.11.19.4.29.5.5Z"/>
    <path class="st29" d="M23.99,317.01v.51c-.48,0-1.04-.1-1.5.01.18-.65.95-.52,1.5-.52Z"/>
    <path class="st81" d="M72.96,29.45h-.5c-.39.25-.74.42-1,0v-.5c.57,0,1.18-.07,1.5.5Z"/>
    <path class="st143" d="M160.45,45.96c-.17.17-.35.33-.54.47l.05-1.5c.37.21.46.63.49,1.03Z"/>
    <path class="st258" d="M48.97,22.96l-.65-.02c-.56-.6.41-.58.65.02Z"/>
    <path class="st144" d="M10.45,317.02c-.54.01-.55-.61-.46-1.01h.5l-.04,1.01Z"/>
    <rect class="st276" x="50.97" y="23.46" width="1" height=".5"/>
    <path class="st80" d="M55.47,24.46v.5c-.3-.08-.71.11-1,0v-.5h1Z"/>
    <path class="st41" d="M68.96,28.46c-.15.18-.32.35-.5.5h-.5c.15-.18.32-.35.5-.5.16.02.34-.04.5,0Z"/>
    <path class="st85" d="M73.96,29.95c-.15.18-.32.35-.5.5-.11-.08-.36.03-.5,0,.08-.22.25-.45.5-.5.15-.03.35-.02.5,0Z"/>
    <path class="st29" d="M24.49,317.01v-.54c.56.08.61.53,0,.54Z"/>
    <path class="st110" d="M74,207.65l132.39,59.96,99.82,45.77c.67.31.83,1.07.73,1.4s-1.05.59-1.77.26l-104.8-48-127.36-58.91c-.55-.62-.22-.79.98-.48Z"/>
    <path class="st18" d="M18.05,29.95l158.81,47.49c.41-.34,1.03.11,1.04.61.95-.21,1.22-.55.81-1.02l1.2.4c.79-.57,1.05-.27.49.53.42.49.48,1.2.33,1.86.32,1.42-.09,1.67-1.21.76l-76.53-23.24L14.49,29.95c-.23-.44-.04-.59.5-.5.91.37,2.12.22,3.06.5Z"/>
    <path class="st206" d="M167.82,205.13c-.28.32-.42.84-.82,1.07-.28.93-1.52,1.8-2.12.85-.97-.69-1.47-.68-1.49.03.02.59-.44,1.02-1.38,1.28l-.56,1.24c.49.3.48.93-.04,1.87,0,1.02.61,1.54,1.86,1.55l.2.7c2.15-1.2,1.96,2.78,1.42,4.09-.27.1-.55.27-.84.31-.4.47-1.11.84-2.13,1.12l-.94,1.3c-4.22,1.17-8.02.96-11.39-.62-.67-1.71-1.35-1.82-3.27-1.57,2.18-.37,2.92-.1,2.21.81-1.88-.07-4.72.41-5.81-1.62-.49-.91.12-2.65-1.33-2.49-1.01-8.71,12.44-15.05,19.84-13.45,2.23.48,5.93,1.31,6.61,3.53Z"/>
    <path class="st85" d="M172.91,202.65c-.91,1.32-2.63,1.56-4.01,2.08-.76-1.27-2.05-2.07-3.86-2.41l-.58-1.18-69.04-29.01c-.66-.7-.43-.65.48-.43l74.63,30.32c1,.41,1.57.8,2.39.64Z"/>
    <path class="st259" d="M164.46,201.14c2.04.44,3.93,1.46,5.97,2.35-.62.63-1.2.72-1.52,1.24l-1.08.4c-9.76-4.83-13.62-3.23-22.34,2.52-4.59,3.03-1.47,6.48-4.1,7.4-2.01-1.79-1-5.42.86-7.6,3.12-3.68,7.66-5.93,12.39-7.1,3.45-.85,6.65.11,9.84.79Z"/>
    <path class="st273" d="M134.93,149.77l53.94,19.84c1.1.4.56,1.1.63,1.07-.2.07-.66.1-1.06-.05l-54.51-20.36c-.41-.63-.07-.8,1-.5Z"/>
    <path class="st68" d="M318.93,315.42c2.57-.94,5.18-.17,7.92-.37,2.31-.71,4.55-.45,7-.53l21.18-.7c.34.52.42,1.17.66,1.7l-36.75-.1Z"/>
    <path class="st273" d="M96.48,276.63c-.35.06-.71.15-.97.4l-28.04-14.37c-.6-.75-.33-.99.54-.63l28.47,14.6Z"/>
    <path class="st29" d="M66.46,317.05l-18.49.08-21.04-.28c3.41-.74,6.52-.11,9.88-.51,4.98-.59,10.01-.43,15.1-.5,4.42-.07,8.63.43,13.06.11.82-.06,1.41.57,1.49,1.1Z"/>
    <path class="st171" d="M161.9,219.24c.9-.72,2.14-.77,3.09-.08,2.26,2.75-18,4.87-16.47,0-.14-1.28-1.7.09-2.6-.77.74-.26,2.9-1.08,3.56-.3.87,1.03.94,1.88,2.54,2.04,3.39.32,6.78.09,9.88-.89Z"/>
    <path class="st87" d="M74,207.65c-.35.11-.7.24-.98.48l-22.04-9.9c-.6-.74-.34-.82.54-.62,7.99,2.94,15.15,6.72,22.48,10.04Z"/>
    <path class="st130" d="M178.9,134.29c.2.42,0,.57-.5.5-6.73-2.09-13.69-3.91-19.99-6.99-.33-.15-.32-.31,0-.5,6.86,2.23,13.64,4.84,20.49,6.99Z"/>
    <path class="st250" d="M184.34,80.95c-.29.29-.45.71-.3,1.02.21.44.56.67.86.91-1.72.81-4.4.96-5.82-.58-.11-.46.99-1.31.45-1.72.42-.2.89-.41,1.21-.76.58-.21,1.13-.03,1.66.55.51.24.88.51.5,1-.23.39-.74.37-1,0-.54.49.24.86.58.8,1.11-.22.8-1.39-.08-1.79-.51-.52-1.06-.7-1.66-.55-.39-.18-.69-.5-1.04-.95-.33-.42.47-.52.71-.92,1-1.89,5.77,1.56,3.93,2.99Z"/>
    <path class="st230" d="M95.89,171.69c-.22.06-.58.14-.48.43l-14.34-5.89c-.7-.66-.44-.93.46-.52,5.02,1.34,9.61,4.05,14.35,5.98Z"/>
    <path class="st130" d="M134.93,149.77c-.4-.01-.84.09-1,.5l-15.99-5.99c-.23-.44-.04-.59.5-.5,5.61,1.63,11.01,3.97,16.49,5.99Z"/>
    <path class="st13" d="M68.01,262.03c-.2.2-.38.41-.54.63l-12.49-6.56c-.23-.44-.04-.59.5-.5l12.54,6.43Z"/>
    <path class="st217" d="M55.47,255.6c-.18.15-.35.32-.5.5-4.68-2.46-9.13-5.87-13.99-7.49-.43-.14-.43-.31,0-.5l14.49,7.49Z"/>
    <path class="st163" d="M193.78,138.63c.05.42-.53.91-.8,1.14-2.78-.63-5.34-2.11-8-2.94-.12-.41.03-.57.45-.49,2.71.85,5.6,1.75,8.35,2.29Z"/>
    <path class="st225" d="M118.44,143.78c-.18.15-.35.32-.5.5l-9.49-3.49c-.23-.44-.04-.59.5-.5,3,1.33,6.32,2.57,9.49,3.49Z"/>
    <path class="st65" d="M51.51,197.61c-.19.2-.37.4-.54.62l-6.38-3.05c-.74-.51-.57-.67.5-.47,2.55.53,4.33,2.13,6.42,2.9Z"/>
    <path class="st216" d="M185.44,136.34c-.09.21-.25.38-.45.49l-6.58-2.05c.15-.18.32-.35.5-.5l6.53,2.05Z"/>
    <path class="st224" d="M11.46,178.72v-11.98c.41-.06.55.44.55.97v10.03c0,.54-.14,1.04-.55.97Z"/>
    <path class="st153" d="M64.47,158.75c.2.42,0,.57-.5.5-2.05-1.27-4.62-1.46-6.5-3-.2-.42,0-.57.5-.5,2.02,1.4,4.61,1.48,6.5,3Z"/>
    <path class="st121" d="M78.96,164.75c.2.42,0,.57-.5.5-2.01-.76-4.01-1.63-6-2.5-.2-.42-.01-.57.5-.5,2.01.52,4.35,1.31,6,2.5Z"/>
    <path class="st72" d="M71.46,161.25l.5.5c.14.06.35-.04.5,0,.33.51.08.71-.5.5h-1l-.5-.5h-.5l-.5-.5c-1.24-.27-2.63-.56-3.5-1.5-.2-.42,0-.57.5-.5,1.6.8,3.28,1.5,5,2Z"/>
    <path class="st126" d="M450.26,315.54h-8c.09-1.15,2.55.08,6.54-1.01.77-.21,1.38.51,1.46,1.01Z"/>
    <path class="st203" d="M165.35,212.75c.26.12.29.28.1.5-.1,1.64-.1,3.29.04,4.92-.24.06-.64-.05-.62-.36.09-1.58.49-3.76-1.42-4.09-.48-1.24,1.14-1.97,1.89-.97Z"/>
    <path class="st9" d="M108.94,140.28c-.18.15-.35.32-.5.5-1.55-.57-3.07-1.2-4.5-2-.2-.42,0-.57.5-.5l4.5,2Z"/>
    <path class="st9" d="M100.95,137.29c.16.19,0,.36-.5.5-1.49-.69-3.16-1.03-4.5-2-.44-.14-.43-.31,0-.5,1.67.61,3.51,1.01,5,2Z"/>
    <path class="st27" d="M55.97,155.26c.2.42,0,.57-.5.5-1.25-.87-2.94-.84-4-2-.41-.14-.4-.31,0-.5,1.43.72,3.08,1.18,4.5,2Z"/>
    <path class="st15" d="M45.1,194.72l-.5.47c-1.39-.73-3.05-1.07-4.21-2.38,2-.2,3.3,1.61,4.72,1.91Z"/>
    <path class="st237" d="M44.98,150.77c.2.42,0,.57-.5.5-1.29-.76-2.76-1.16-4-2-.1-.35.09-.51.5-.5,1.26.86,2.92.86,4,2Z"/>
    <path class="st177" d="M79.3,135.17c-.51-.31-.67-1.91-.15-2.58.22-.27,1.13.2,1.21.53.09.38-.19,1.02-1.06,2.05Z"/>
    <path class="st119" d="M14.99,29.45c-.18.15-.35.32-.5.5-.93-.29-1.89-.54-2.86-.38,0-.38.27-.76.36-1.11,1.11.07,2.03.6,3,1Z"/>
    <path class="st271" d="M38.98,148.27c.4.14.39.31,0,.5-1.26-.63-2.6-1.18-4-1.5-.23-.44-.04-.59.5-.5,1.23.33,2.46.75,3.5,1.5Z"/>
    <path class="st137" d="M12.49,61.4c-.14.44-.31.43-.5,0,.17-1.67-.37-3.36.28-5.03.44,1.85.17,3.45.22,5.03Z"/>
    <path class="st256" d="M39.98,247.62c.2.42,0,.57-.5.5-.9-.3-1.87-.7-2.5-1.5-.04-.32.15-.47.5-.5.9.41,1.82.77,2.5,1.5Z"/>
    <path class="st67" d="M81.53,165.72l-.46.52-2.61-.99c.15-.18.32-.35.5-.5.94-.27,1.85.78,2.58.97Z"/>
    <path class="st223" d="M49.97,152.76c.1.35-.09.5-.5.5-1-.52-2.07-.86-3-1.5-.2-.42,0-.57.5-.5.97.56,2.1.8,3,1.5Z"/>
    <path class="st51" d="M104.44,138.29c-.15.18-.32.35-.5.5-.71-.4-2.1.11-2.5-1-.44-.14-.43-.31,0-.5.97.36,2.09.59,3,1Z"/>
    <path class="st44" d="M164.03,218.12c.35.28.68.7.96,1.04-.97.18-2.14-.22-3.09.08.38-.82,1.3-1,2.13-1.12Z"/>
    <path class="st38" d="M11.99,61.4h.5c.03,1.16.17,2.38-.23,3.51-.62-1.36-.11-2.47-.27-3.51Z"/>
    <path class="st145" d="M66.46,159.25c-.15.18-.32.35-.5.5-.63-.07-1.42-.14-2-.5.15-.18.32-.35.5-.5.49.37,1.44.22,2,.5Z"/>
    <path class="st7" d="M151.42,125.31c.44.14.43.31,0,.5-.72-.19-1.41-.56-2-1-.44-.14-.43-.31,0-.5.77,0,1.33.84,2,1Z"/>
    <path class="st202" d="M157.92,127.3c.33.15.32.31,0,.5-.71.02-1.39-.13-2-.5-.23-.44-.04-.59.5-.5l1.5.5Z"/>
    <path class="st78" d="M57.97,155.76c-.15.18-.32.35-.5.5-.49-.4-1.48-.14-2-.5.15-.18.32-.35.5-.5.56.32,1.47.13,2,.5Z"/>
    <path class="st225" d="M46.97,151.27c-.15.18-.32.35-.5.5-.53-.37-1.44-.17-2-.5.15-.18.32-.35.5-.5.51.34,1.45.18,2,.5Z"/>
    <path class="st2" d="M92.45,134.29c.44.14.43.31,0,.5-.73-.18-1.4-.56-2-1-.11-.36.08-.51.5-.5.65-.04,1.01.86,1.5,1Z"/>
    <path class="st179" d="M94.95,134.79c.2.42.01.58-.5.5l-2-.5v-.5c.8.22,1.71.17,2.5.5Z"/>
    <path class="st176" d="M154.92,126.3c.33.15.32.31,0,.5l-2-.5c-.44-.14-.43-.31,0-.5.64.25,1.36.09,2,.5Z"/>
    <path class="st97" d="M34.98,245.12h-.5c-.56-.14-1.27-.07-1.53-.95,1.08-.29,1.45.57,2.03.95Z"/>
    <path class="st66" d="M27.2,253.1c-.35-.71-.35-1.51-.02-2.52.52.54.46,1.21.02,2.52Z"/>
    <path class="st207" d="M35.48,146.77c-.18.15-.35.32-.5.5-.29-.06-.56-.28-.78-.5-.44-.46.13-.52.54-.54.35-.01.5.39.74.54Z"/>
    <path class="st245" d="M40.98,248.12v.5l-1.5-.5c.15-.18.32-.35.5-.5.21.23.72.36,1,.5Z"/>
    <path class="st183" d="M148.42,124.31c.44.14.43.31,0,.5-.5-.17-.95-.55-1.5-.5-.31-.15-.3-.31,0-.5.56-.07,1.14.04,1.5.5Z"/>
    <path class="st273" d="M156.42,126.8c-.18.15-.35.32-.5.5-.31-.19-.65-.41-1-.5v-.5c.45.29.97.32,1.5.5Z"/>
    <path class="st237" d="M36.98,246.12c.04.32-.15.47-.5.5-.5-.14-.72-.64-1-1h.5c.29.21.77.16,1,.5Z"/>
    <path class="st35" d="M152.92,125.81v.5c-.52-.13-.98-.36-1.5-.5v-.5c.53.13,1.01.31,1.5.5Z"/>
    <path class="st230" d="M51.47,153.26v.5c-.21-.23-.85-.1-1-.5-.44-.14-.43-.31,0-.5l1,.5Z"/>
    <path class="st188" d="M39.98,148.77c.44.14.43.31,0,.5l-1-.5v-.5c.28.2.79.14,1,.5Z"/>
    <path class="st62" d="M35.98,245.62h-.5c-.3-.05-.74-.38-1-.5h.5c.32.15.7.28,1,.5Z"/>
    <path class="st100" d="M90.95,133.29c-.15.18-.32.35-.5.5-.27-.16-.9.28-1.03-.4.7-.21,1.12-.08,1.53-.1Z"/>
    <path class="st147" d="M95.95,135.29v.5h-1c-.36-.48-.1-.66.5-.5.14-.02.37-.05.5,0Z"/>
    <path class="st252" d="M149.42,124.31v.5c-.31-.07-.7.1-1,0v-.5h1Z"/>
    <path class="st180" d="M37.48,246.12c-.15.18-.32.35-.5.5-.16-.03-.35.04-.5,0,.15-.18.32-.35.5-.5.15.04.36-.06.5,0Z"/>
    <path class="st148" d="M101.45,137.29v.5c-.29-.09-.72.13-1,0,.02-.26.24-.48.5-.5.15,0,.37-.05.5,0Z"/>
    <path class="st128" d="M40.98,148.77c-.15.18-.32.35-.5.5-.15-.03-.36.07-.5,0v-.5h1Z"/>
    <path class="st98" d="M50.47,152.76v.5c-.3-.07-.73.12-1,0,.15-.18.32-.35.5-.5.16.03.36-.07.5,0Z"/>
    <path class="st270" d="M146.92,123.81v.5c-.24.05-.37-.04-.5-.25-.09-.15-.11-.43.21-.71.12-.11.36.17.29.46Z"/>
    <path class="st189" d="M69.96,161.75c-.21-.12-.39-.29-.5-.5.22.05.37.34.5.5Z"/>
    <path class="st189" d="M71.96,161.75c-.22-.09-.37-.31-.5-.5.22.06.36.34.5.5Z"/>
    <path class="st189" d="M70.96,162.25c-.24-.07-.44-.25-.5-.5.21.12.39.29.5.5Z"/>
    <path class="st189" d="M72.96,162.25c-.18.15-.35.32-.5.5-.21-.09-.34-.34-.5-.5.24-.07.44-.25.5-.5l.5.5Z"/>
    <path class="st237" d="M95.45,135.29c-.25.04-.43.27-.5.5l-.5-.5c.18-.15.35-.32.5-.5.22.09.37.32.5.5Z"/>
    <path class="st85" d="M158.41,127.8c-.13-.06-.36,0-.5,0v-.5c.1.08.37-.04.5,0v.5Z"/>
    <path class="st206" d="M203.42,90.83c-.51.28-1.15.48-1.43-.08.8-2.05,2.61-3.68,3.87-5.38l1.3-1.34c2.11-.3,4.21-.37,6.29-.21,2.56.22,5.07,1.53,7.9,1.28,8.17-.74,15.96-3.77,22.79-8.34s9.91-11.91,8.39-19.55c-.41-2.05-1.98-3.44-2.85-5.58,9.91-2.42,19.95-1.06,29.53,2.42s18.74,7.01,26.62,13.38c4.08,3.3,6.26,8.44,9.21,12.67l14.17,20.29c12.85,18.4,22.08,55.16,19.63,77.53-.68,6.26-4.34,12.27-7.67,17.58-10.5,16.73-38.8,10.78-53.4,2.74-6.97-3.84-4.28-7.47-8.42-10.12-1.16-.74-2.62-2.81-1.98-4.26.76-1.71,1.69-2.72,1.18-4.46-1.19-4.07-5.07-3.81-4.58-6.14.45-2.16,1.22-5.91-.98-6.59l-4.65-1.44c-1.74-.54-5.95-10.21-17.47-13.84-2.47-.78-10.47-3.19-11.55-5.83,3.95.93,7.33-1.09,8.49-4.88,3.44-11.24-6.42-22.12-13.48-30.31-6.88-7.98-15.09-13.94-24.92-17.89-2.04-.82-3.94-2.33-5.98-1.64Z"/>
    <path class="st115" d="M345.32,194.23c.38.06.31-.32.08-.58.26-.48.63-.87.95-1.31.24.13.39-.08.47-.63l.38-1c.41-1.77,1.41-3.32,2.09-4.99.15-.44.32-.43.53,0l-.59,4.45c-1.24,9.39-6.09,8.93-6.7,15.1-.83,8.46-5.63,20.84-11.66,26.88-2.08,2.08-3.7,4.84-6.69,5.98-1.1.42-3.89-.09-3.87,1.61.02,1.85,2.41,1.05,3.52,1,6.15-.29,11.86.35,18.24.37-4.24,6.45-13.83,28.45-10.73,36.09-6.48-1.42-12.46-1.88-18.79-1.97-24.04-.35-44.08-5.76-68.68-6-9.71-.09-9.09,2.61-17.64-6-6.54-6.58-6.21-16.84.03-23.81,12.93-14.43,36.7-36.27,54.93-43.06,1.79,2.82,4.22,4.54,7.2,5.96,12.54,6.02,29.86,9.56,43.23,4.57,6.25-2.33,10.45-7.22,13.69-12.65Z"/>
    <path class="st81" d="M230.93,130.81c-.4-.07-.37-.36,0-.56,1.39-.23,12.2,3.91,12.11,2.38-.02-.26-.03-1.09-.43-1.27-7.22-3.18-15.14-4.57-23.17-4.4-1.56.03-2.94.66-3.98,1.37-.38.42-.39.6-.02.54,3.79-.67,7.58-.4,11.43.63-1.21,1.25-1.26,2.39-1.52,3.79l-2.77,14.8-3.33,25.58-2.57,13.94c-1.14,6.18-5.23,11.09-10.26,14.62-8.79,6.16-14.31,8.37-25.61,8.48.74,1.35,2.13.82,2.97,1.72-6.48,6.78-7.82,3.86-13.79,6.27,1.66.51,3.74.74,3.47,2.42-.28.68-.5,1.33-.68,1.97-1.69-.98-2.82-2.42-4.39-3.92-1.4-1.34-2.51-2.84-1.42-5.05.65-1.3.74-2.87,1.29-4.29l1.53-3.91c1.36-1.62,4.02-2.49,5.63-3.69.51-.31.84.01.97.96,6.4-7.34,12.27-15.69,16.7-24.71,2.41-4.9-3.84-14.95,1.21-34.29.95-3.62.98-6.89.29-10.59-3.06-16.33-2.71-28.67,9.09-40.99,2.41.29,3.72,1.5,5.52,2.31,8.88,3.95,16.32,9.61,22.61,16.97,4.41,5.16,8.55,10.09,11.86,16.02,3.62,6.5,1.74,14.04-1.01,14.32-2.04.2-9.2-9.7-11.71-11.43Z"/>
    <path class="st81" d="M346.31,128.91c.77-.17,2.48.1,3,.89.74-.02,4.56,1.02,4.9,1.42.11.13.12.34.1.58.53.04.87.2,1,.5.78-.87,2.68-.26,3.5.5,1.15-.18,2.86.55,3.5,1.5,5.7.97,11.87,3.05,17.41,5.06.11.04.17.23.2.47l1.02-.08,76.61,24.26.13.74c.22.25.38.2.5-.13-.15-.65.13-.64.43-.03v29.67s-28.78-9.08-28.78-9.08l-78.42-24.55c-1.02-10.7-3.76-20.9-6.69-31.3-.15-.53,1.5-.56,1.59-.41Z"/>
    <path class="st81" d="M164.45,48.94c.35-.15.68-.24.91-.13,3.02,1.4,7.29,6.16,9.22,8.95-.4,3.7,4.48,9.57,7.39,11.66,1.67,1.2,4.99.71,3.05-1.8l.38-.67c-2.96.63-1.49-3.06.5-1.59,1.71.93.63-1.04-.13-1.95-.65.28-.54-.39-.27-.96-.53-.83.18-1.46,2.12-1.91,2.21,1.29,3.17,1.43,2.87.41-.38-.68.12-.86,1.51-.55,5.61.87,10.63,3.23,16.51,5.14-.31-1.3.7-1.94.97-2.67l3.43-1.98c.77-.27,1.27-1.44,2.02-1.92,1.78-1.16,3.84,1.03,5.54.71,3.15-1.14-1.06-6.03,1.48-9.29,6.98,6.77,5.51.8,9.92,2.97.64.28,1.39.56,2,0,3.5-.2,7.01-.38,10.48-.95.46.24,1.36.48,1.6-.05.51-.43,1.33-.55,1.75.22l1.54,2.79c-.18.97.19,1.46.75,1.61,2.24,4.8-.38,13.12-6.31,17.31-6.39,4.51-13.86,7.54-21.65,8.76-1.21.19-11.84-.68-11.41-2.67.39-3.63,4.56-6.53,1.02-9.27-.97,3.18-1.41,6.53-3.27,8.81-1.48,1.81-4.24,2.74-4.96,5.43-.1.39-.82,1.14-1.19,1.18-.3.03-.8-.43-1.32-.56-2-.49-4.36.67-6.23.01-3.55-1.68-6.78-3.76-10.34-5.03-.64-1.62-2.31-2.51-3.93-2.99l-.49-.53c-2.2.26-4.39-2.28-4.99-4.69-.8-.77-1.29-1.56-1.48-2.38-.26-2.64-1.38-4.43-3.36-5.35-1.67-.09-2.71-.61-3.11-1.54-2.77-3.76-3.86-8.86-4.02-13.54-.2-.82-.55-1.61-.46-2.48.63.54,1.26,1.05,1.96,1.5Z"/>
    <path class="st115" d="M274.17,183.55c-1.29,3.22,6.99,9.52,6.32,11.73-8.84,2.95-16.42,7.82-23.94,13.02-2.51,1.23-5.8-.97-8.18-1.39.06-2.81,0-4.77-.12-7.24l-.6-11.5-3.74-27.92-.72-8.92c2.35-.67,3.34.98,4.97,1.58,17.66,6.46,12.08,14.19,23.23,16.31-.65,2.53-1.78,5.32.08,6.93l4.23,3.65-1.51,3.75Z"/>
    <path class="st81" d="M228.92,208.74c-5.33-.48-8.83,4.01-11.47,5.95-1.8,1.33-2.87,2.15-2.46,5.57l-22.2-9.12c2.41-1.27,4.79-1.72,7.31-2.36,11.1-5.86,19.13-12.87,19.46-26.49l25.46,9.47c.87,5.32,1.66,10.76,1.07,16.25-.17,1.55-2.61,1.11-3.66,1.09-4.65-.11-8.98.04-13.5-.37Z"/>
    <path class="st81" d="M244.74,190.27l-24.8-9.13,1.66-7.62,3-22.95,15.27,4.97,4.27,28.44c.3,2,.69,3.62.61,6.29Z"/>
    <path class="st81" d="M236.76,142.1c-2.49,2.61,2.73,6.19,3.15,7.14.69,1.6.09,3.49-.23,4.95l-14.78-4.94,3.04-17.62c5.12,3.58,6.63,6.82,10.89,10.65.15.26-.93.76-1.22.76s-.45-.88-.84-.94Z"/>
    <path class="st83" d="M380.82,139.3l76.39,23.94c.13-.74.5-.7.58.11.09.35.42.68.77.75l.05.47c-.19-.24-.36-.33-.43.03-.03.46-.2.5-.5.13l-77.76-24.93c-.33-.5-.03-.67.91-.51Z"/>
    <path class="st149" d="M335.71,266.62c-.84,1.19-1.16.84-.94-1.07,1.24-4.79,2.29-9.54,4.82-14.54,2.3,6.64,6.24,6.11.74,15.29-1.55.23-3.42-.72-4.62.32Z"/>
    <path class="st194" d="M163.84,46.93l1.06.97c.14.04.32-.06.45,0l.57.59c5.85,3.26,7.71,8.22,12.46,8.82.25.03.41-.69.55-.88.09,1.06,1.25,1.33,1.96,2-.16,1.75-1.58,2.21-4.27,1.4,1.64,2.88,3.83,5.52,6.58,7.9l-.23,1.2,1.47-.51c-1.68-.97-.44-2.98.98-1.44.39.84,1.82,2,1.11,3.13-1.05,1.02-4.1,1.19-5.29.02-9.16-9.08-6.05-8.94-8.01-12.98-.48-.99-1.57-1.43-2.26-2.24-1.99-2.34-4.09-4.36-6.51-5.93-.52-.67-.99-1.3-1.05-2,.14.02.3-.04.44,0Z"/>
    <path class="st149" d="M180.88,58.41c1.17,1.12,2.94,1.07,4.48,1.04,1.33.11,1.29.58.04,1.02-.02.62-.32,1.24-.9,1.86l1.01.12c-.04.34.2.66.27.96.84.09.98,1.6.13,1.95-.41.03-1.22.14-1.22.76,0,.3.57.51.72.82-.37-.06-.7.1-.79.35-.14.41-.2.75-.2,1.09l-1.47.51-6.12-6.37c-1.07-1.12-1.2-3.15-1.98-4.61,2.41.94,4.21,1.95,6.03.49Z"/>
    <path class="st33" d="M188.88,59.81c1.02.19,1.56.57,1.61,1.14,4.27,2.51,7.83,6.78,6.4,12.1.63,1.49,3.61,1.63,3.19,4.17-1.74-.98-8.29-4.31-8.41-5.86-.15-1.89,2.34,1.17,3.25.35,2.59-2.3-1.87-8.28-7.12-10.11-1.12-.39-1.78.43-2.29.84-.71.58-.52,1.25-.63,2.58-1.27-.41-1.39-1.64-1.37-2.82.02-.82.98-1.42,1.89-1.75l.09-.52c.79.08,1.42-.1,1.91-.53.51,0,1.08.16,1.48.4Z"/>
    <path class="st167" d="M335.71,266.62c-.54.97.27.55,3.14,1.48.58.85,1.11,2.99-.5,3.08-.41-.19-.51-1.04-.89-1.11-1.77-.34-2.37,4.36-3.62,5.94-1.47-3.72.06-7.14.93-10.46.15.48.44.94.94,1.07Z"/>
    <path class="st228" d="M428.27,137.2l18.99,5.58.16.53c.43.14.4.29-.04.45l-20.1-6.17c.4-.7.79-.26,1-.39Z"/>
    <path class="st238" d="M167.36,206.67c0,1.46-2.33,4.04-3.95,3.56-.41.93-.26,1.42.46,1.48.09-1.85,2.72-1.5,2.02.38l-.54.66c-.68.18-1.42.41-1.89.97-1.03-.18-2.04.17-2.58-1.22-.33-.86-.04-1.89.57-2.9.3-1.25,1.44-2.1,3.44-2.55.74-.19,1.45-.48,2.12-.85.14.11.2.39.36.47Z"/>
    <path class="st138" d="M172.76,223.09c-.12-.67-.17-1.85.68-1.97-.08.52-.14,1.29.06,1.88,1.01.3,1.39-2.41,3.04-1.62.4.19.45.72.85,1.32.6-.66.64-1.86,1.57-1.99.87-.12,1.48,2.33.79,2.68-2.46,1.22-5.04.82-6.99-.3Z"/>
    <path class="st221" d="M213.45,83.83l-3.15.94c-1.53.46-3.15-.13-4.44.61.95-1.29,1.04-3.91,3.89-3.13,1.05.29,2.48,1.48,3.7,1.58Z"/>
    <path class="st59" d="M183.82,218.93c.08.93-.02,1.77-.12,2.25-.11.5-1.11,1.21-1.75.84-1.65-.97-1.77-3.78-.03-4.77.99-.57,1.81.59,1.9,1.68Z"/>
    <path class="st192" d="M397.29,127.88c-1.16,1.2-12.87-3.29-15.59-4.03-.62.13-1.24-.33-.46-.6,5.42,1.15,10.71,3.05,16.05,4.63Z"/>
    <path class="st1" d="M165.88,212.09c-.35-.83-1.31-.49-2.02-.38-1.13-.16-1.3-.71-.46-1.48.96-1.59,2.9-2.07,3.95-3.56.49.25.68.68.45,1.15-.15.32-.56.57-.8.94-.72,1.11-.2,2.47-1.12,3.33Z"/>
    <path class="st59" d="M340.81,271.55c.37.23.35.41-.07.55-.86-.03-1.63-.55-2.39-.92.31-.99-.27-2.27.5-3.08,1.41.46,1.42,2.18,1.96,3.45Z"/>
    <path class="st152" d="M451.64,144.21c-1.41.6-3.19.77-4.27-.44l.04-.45c.06-.27.21-.29.43-.09,1.34-.04,2.52.67,3.79.99Z"/>
    <path class="st134" d="M212.91,60.9c-.54,1.46-1.77,2.38-3.43,1.98.55-1.49,1.78-2.14,3.43-1.98Z"/>
    <path class="st109" d="M349.81,129.3c.23.44.04.59-.5.5-.78-.52-2.37.1-3-.89v-.66c1.26.02,2.34.66,3.5,1.06Z"/>
    <path class="st242" d="M176.9,219.66c.34.82-.35.96-1,.5-.44.09-1.12-.03-1.43-.77.56-.48,1.94-.45,2.43.27Z"/>
    <path class="st106" d="M178.16,219.14c-.6-.45,1.28-1.56,1.74-1.21.28,1.1-.25,1.52-1.74,1.21Z"/>
    <path class="st58" d="M187.4,59.41c.2.67-.23.96-.74,1.03-.44.07-.89-.11-1.26.02l-.04-1.02,2.04-.04Z"/>
    <path class="st136" d="M192,60.4c-.56,0-1.15.08-1.51.55-.57-.33-1.34-.43-1.61-1.14,1.05-.29,2.21.45,3.12.59Z"/>
    <path class="st185" d="M249.99,56.98c-.21.8-.74.14-.93-.11-.33-.45-.35-1.41.18-1.5l.75,1.61Z"/>
    <path class="st23" d="M168.35,31.02c.37-.66.84-1.29,1.52-1.64-.18.35.03.92-.4,1.3-.28.25-.8,1.21-1.12.34Z"/>
    <path class="st73" d="M208.43,24.62c.06.52-.58.33-.86.37-.61.08-.87-.52-.69-1.08.55.22,1.06.34,1.54.71Z"/>
    <path class="st76" d="M203.42,90.83c-.29.56-1.05.4-1.71.92-.29.23-.42-.44-.33-.64.08-.18.42-.24.61-.36.44-.09,1,.22,1.43.08Z"/>
    <path class="st275" d="M234.3,228.04c-.34.29-.57-.35-.42-.62.09-.17.35-.34.75-.76.46.28.38.77-.33,1.38Z"/>
    <path class="st184" d="M176.38,203.19c-.29-.35-.61-.68-.97-.96.09-.26.25-.87.75-.54.28.18.29,1.21.23,1.5Z"/>
    <path class="st55" d="M175.91,220.16c.39-.08.92.04,1-.5.15.22.88.13.5.76-.23.38-.81.23-1.22.23-.17,0-.34-.2-.28-.49Z"/>
    <path class="st117" d="M233.87,53.37c.11.55-.46.49-.78.59-.6.19-.85-.42-1.22-.6.67.05,1.33.05,2,0Z"/>
    <path class="st52" d="M245.95,52.37c.87.48-.14.63-.43.58-.42-.07-1.4-.02-1.17-.53.52-.09,1.07,0,1.6-.05Z"/>
    <path class="st14" d="M252.46,210.78c.24-.31.79-.1.87.13.05.16-.39.4-.49.55-.3.47-.77-.18-.38-.68Z"/>
    <path class="st172" d="M230.92,130.24v.56c-.31.19-.43-.23-.8-.49-.48-.33,0-.64.5-.51.15.04.22.37.3.44Z"/>
    <path class="st198" d="M349.81,184.71c-.14.44-.31.43-.5,0,.04-.18-.01-.49-.01-.72,0-.15.28-.32.7-.3.86.05-.19.57-.19,1.02Z"/>
    <path class="st99" d="M425.77,136.39c.06.4-.28.4-.73.43-.4.02-.9-.04-.34-.57.35.06.72.06,1.07.14Z"/>
    <path class="st37" d="M207.94,62.9c-.01.2-.21.41-.37.45-.19.04-.53.02-.68-.04.22-.36.66-.4,1.05-.41Z"/>
    <path class="st142" d="M345.32,194.23l.08-.58c.27-.15.32.05.42.3.07.19.07.49-.22.71-.12.09-.18-.25-.28-.43Z"/>
    <path class="st222" d="M346.35,192.34l.47-.63c.02.15,0,.35,0,.72,0,.2-.5.51-.47-.08Z"/>
    <path class="st187" d="M346.81,191.7c-.06-.39.31-.67.38-1,.11.39-.02.8-.38,1Z"/>
    <path class="st135" d="M165.45,213.24c.01-.16-.1-.33-.1-.5.17-.16.08-.91.54-.66-.23.22.09,1.03-.43,1.15Z"/>
    <path class="st178" d="M349.81,185.71h-.53c.12-.28-.04-.7.03-1h.5v1Z"/>
    <path class="st170" d="M215.43,128.87c.19.36-.19.51-.33.4-.28-.22-.33-.52-.21-.71.15-.24.32-.38.56-.22l-.02.54Z"/>
    <path class="st146" d="M340.73,272.1c.06-.16.15-.37.07-.55.25-.19.39-.01.51.27.07.16.16.39-.2.71-.13.12-.56-.07-.38-.44Z"/>
    <path class="st155" d="M214.49,31.97c-.46-.12-.66-.58-.6-1.03.45.07.49.71.6,1.03Z"/>
    <path class="st108" d="M378.8,122.34c.07.25-.11.46-.28.48-.44.05-.64-.34-.74-.61.33-.03.69.19,1.02.13Z"/>
    <path class="st81" d="M447.84,143.22c-.14,0-.29.08-.43.09l-.16-.53c.24.07.45.23.58.44Z"/>
    <path class="st206" d="M662.09,11.96c3.77.25,7.56.41,11.37.48l.1.57.72.32c-.22,1.39-.3,2.77-.25,4.14.29.12.53.25.56.41.46,2.4.73,5.14.96,7.59,1,10.43,1.47,21.26,1.23,31.52l-.69.37c-.15.43-.32.42-.49-.01-.52,1.15-1.07,1.57-1.65,1.27-1.16,2.52-1.05,5.57.24,8.28l.79.33c2.31,12.05,10.21,20.19,18.63,28.38l8.89,8.1c3.93,2.78,4.56,7.41,4.99,11.8,2.03,3.31,4.08,6.53,6.14,9.64,1.05,16.32,10.75,29.23,21.26,41.26-2.59,6.64.3,15.28,5.13,20.58l-.17,1.46c-3.7,1.58-7.56,2.83-11.59,3.77-3.47.98-3.85,1.99-1.15,3.03,2.77.96,5.21,2.3,7.32,4.02.14,1.61,1.27,2.55,3.41,2.82,2.03.02,3.66.48,4.88,1.39.61,3.55,5.59,3.43,8.3,2.15l1.04.59c.68-.67,1.19-.82,1.52-.47.03-1.08.57-.95,1.08-.08.86.39,1.59.96,2.15,1.72,7.29,9.85,14.53,18.88,23.03,27.68,10.48,10.85,25.43,19.38,41.01,16.4l46.13-10.33c3.48-.74,6.98-1.23,10.47-1.48-.4-.27-.37-.47.09-.61.74-.65,1.27-.51,2.06-.29,1.19.34,8.52,4.4,8.95,5.06,2.57,3.93,1.92,16.56.89,21.3-.81,3.71-2.15,8.9-5.34,10.93-.3.92-.42,1.98.67,2.34-1.31,4.36-3.42,8.32-5.87,12.15l-17.73,21.7h-89.85s-107.18-40.7-107.18-40.7c-1.2.02-2.42-.32-3.65-1.01,1.3.3,2.2.82,2.7,1.58l33.4,13.37c.15.52-.03.71-.55.56-2.54.42-5.16-.06-7.87-1.45l-32.75-13.06c-.66-.82-.79-1.99-.39-3.5l3.42-15.57c.89-4.05-.54-7.01-3.38-9.87-2.3-2.32-4.71-4.37-8.59-3.98l2.14-6.12c.91-2.6,1.65-7.14-.37-9.5-2.41-2.83-5.92-4.47-9.09-6.38-2.47-1.49-6.39-1.31-8.56.47-1.96,1.4-3.28,1.45-3.93.14,1.79-9.59,2.74-20.31,3.41-30.51.36-5.48-2.69-12.75-7.91-13.53l-1.54.03c.52.78.27.76-.58.46-.57.99-3.03.41-4.17.13-.14-.03-.27-.15-.39-.29.09,1.86-5.55,4.76-3.86,1.67-.41-.22-.96-.17-1.64.14-4.84-4.33-15.53-5.43-18.22,1.62l-.69.23c.19,1.12.04,1.97-.43,2.54.63.81.28,1.15-1.07,1.04.34.13.34.29.02.48-.86.96-1.7,2.16-2.36,3.47-3.32,6.63-8.43,11.45-14.63,15.38-4.83,3.06-8.04,7.38-10.62,12.41-2.86,5.55-5.98,10.61-9.31,15.61l-1.67,2.83c-.44-.54-1-.94-1.69-1.21l-74.52-26.77-1.04-.74-1.5-180.75-.04-11.86c2.44-.68,4.66.29,6.98.31l17.49.13,12.66.12,152.71,1.8Z"/>
    <path class="st81" d="M688.13,12.35l26.94.16c5.5.15,11.02.29,16.58.45-.57.97-.33,1.75.73,2.33-.3,1.4-.19,2.64.33,3.71.32.27.58.54.66.87.48,1.99.96,19.76.41,20.74-.17.31-.41.57-.66.83-.44,1.64-.5,3.36.02,4.99l1.03.48c-.22,7.97,2.11,14.5,7.06,21.15,3.18,4.44,6.12,8.89,8.82,13.33,1.68.86,3.02,2.34,4.01,4.45l2.1,4.04,1.11.33c3.22,15.3,4.83,22.95,4.83,22.95.27,2.47,1.13,4.52,2.58,6.15,2.9,1.39,5.78,2.92,8.62,4.61,2.68.15,4.6,1.1,5.73,2.85.17-1.81.43-2.19,2.43-1.89,2.86,1.75,5.91,3.02,9.13,3.83,1.39-4.21,2.58-8.93,1.49-13.36-2-1.05-2.32-6.32-1-8.01.13-2.3.13-4.62,0-6.96l-.73-.99c.35-2.29.51-4.6.48-6.94l1.08-.65c.6-.15,1.13-.08,1.22.5-2.62-10.51-3.46-23.49,6.57-30.42,4.58-3.16,8.67-1.93,13.41.42,18.09,8.97,34.83,27.49,41.47,46.61,3.95,11.36,8.17,24.14,5.01,35.96-1.73,6.47-6.3,13.78-10.57,18.86-2.73,3.25-5.59,4.84-9.95,4.58,4.27.68,7.09-.48,9.93-3.51,9.34-9.95,14.9-21.33,12.44-35.36-5-28.49-19.49-52.32-45.37-66.59l-1.51-1.88c-.62-.73-.35-.83.54-.65.13-.37.38-.91.65-.87,1.29.17,9.83,2.14,10.2,2.71.13.2.16.45.17.72,9.08,6.95,18.23,13.78,27.44,20.51.23-.32.67-.74.86-.61,10.61,7.27,24.98,17.41,33.76,26.42.32.33.53.76.74,1.22s.36.96.49,1.46c.86,2.3,2.55,4.07,5.05,5.3.36-.19.92-.45,1.13-.24,4.6,4.61,9.72,10.31,13.9,15.3-.02.49.32.54,1.02.15.21-.94.62-.96.91-.04,1.65,2.71,3.48,5.45,4.62,8.43l.8.71c.48,2.05.87,4.14,1.15,6.27-.33,55.44-.5,111.01-.5,166.24-.04-.88-.73-1.74-1.94-1.74l-51.11-.07c1.54-2.04,3-3.83,4.64-5.05.51,0,.82-.4.95-1.18l22.49-27.95c6.85-8.52,20.81-30.76,18.15-41.99-1.74,3.25-1.3,6.53-2.56,9.73-4.49,11.46-10.62,21.94-18.37,31.48l-10.82,13.32,4.72-11.67c.46-1.13-.12-1.79.48-2.82.46.55.66.51.95,0,5.33-9.39,5.59-17.43,5.34-27.91-.84-1.88-1-3.73-.49-5.55-11.95-7.69-25.81-12.18-40.02-12.81,7.65.99,15.22,2.86,22.34,5.87.36.15.65.45.96.78s.57.71.81,1.1c-.56.27-1.25.45-2.08.56.29.16.28.3-.04.43l-1.26,1.06c-17.11,3.4-34.19,7.11-51.23,11.15-13.96,2.09-23.45-3.4-34.26-11.97-6.84-5.42-18.73-18.48-23.99-25.42-3.98-4.65-7.05-9.67-9.21-15.08-1.41-.81-2.11-4.18-1.09-5.49-.24,0-.43-.02-.42-.04.16-1.34,1.11-4.86,1.69-6.05.46-.95,1.11-.71,1.46.07.75-.64,1.59-.3,2.54,1.01-10.03-9.77-19.47-20-28.3-30.69-1.91-2.54-8.1-10.81-8.54-13.39-.08-.49.2-.97.47-1.4,0-1.71-1.18-3.75-2.17-5.06l-1.37-.7c-1.42-4.48-2.41-9.03-2.97-13.65-.73.18-1.35.21-1.61-.5-.34-.23-3.2-5.02-2.37-5.55-.54-1.22-.58-2.06-.13-2.52-.24-1.87,1.93-1.56,3.16-.67-6.78-7.78-14.21-15.1-22.28-21.95-1.39-1.05-2.03-2.3-1.92-3.73-.44-1.21-1.36-2.05-2.51-2.57-1.31.32-2.54-.46-3.7-2.34-1.34-1.28-1.6-2.3-.77-3.08-1-2.05-2.01-4.07-3.04-6.07-1.45-.19-2.52-3.45-1.43-4.42-.41-1.13-.41-1.2.47-1.71.73-.43,9.27.65,10.4,1.21,3.29,1.63,7.55,4.72,10.17,7.31l.44,1.65q0,1.18,0,0l1.15-.63c3.28,2.03,6.51,4.17,9.67,6.4.78-1.67.86-3.22.25-4.65l-4.87-4.75c-1.72-3.16-3.46-6.28-5.23-9.35-.05-1.92-1.11-3.65-3.17-5.21-1.33-2.21-2.72-4.37-4.16-6.48-4.44.2-7.22-1.37-8.33-4.72-1.53.72-3.05,1.43-4.58,2.16l-.68-.37c-.02-2.52-.2-5-.53-7.43l-.96-.27c-.31-8.27-1.01-16.52-2.1-24.76l.45-.4c0-2.46,1.2-4.71,3.76-5.04,3.05-.4,6.27-.38,9.33-.08Z"/>
    <path class="st81" d="M595.74,183.17c4.03,4.78,4.43,10.6,3.81,16.58.94,2.97-2.69,6.84-4.83,9.01-.59.33-7.04,6.23-6.66,5.99,4.6-2.97,8.99-6.47,11.76-11.28l1.34-.2c.63-.42.8-.09.52.99l.35,2.04c-1.66,4.77-3.11,9.63-3.78,14.65l-1.19,1.68c-.19,1.41-.62,2.53-1.31,3.38.37.65.01,1.26-1.07,1.84,3.8-2.2,6.97-.02,9.2,3.22-1.33-1.57-1.99-3.32-1.98-5.25,4.16-10.88,5.86-22.46,6.43-34.01l.97-1.38c.05-.67.38-.68.46-.04.53-.28,1.16-.16,1.89.37,1.28-1.03,3.87.31,3.58,1.95-.43.74-.24.67.39.01l.9-.73c3.46.97,6.46-1.79,8.43-4.31l1.13.15c-.08-.98.34-.98.66-.02l.6.05c-.2,1.55-.11,2.99.25,4.35-.2,2.81-.91,5.8-.64,8.76.21,2.24.12,3.85-.39,6.04-1.2,5.15-2.05,10.25-3.83,15.28-1.07,3.01-1.66,6.01-2.29,9.14l-5.58.79c.13.79.42,1.49.83,1.74.54.34,1.19.07,2.17.53-2.93,2.87-4.61,6.46-6.97,9.82-2.04,2.9-3.59,5.82-5.25,8.84-1.22,2.23-3.66,3.62-4.42,5.95-.52.75-.8,1.46-.81,2.12l-.68-.11c-.22.72-.48,1.54-1.07,2l.52.37c-.17,1.73-.21,3.46-.11,5.17,1.98,5.83,10.87,9.47,16.04,4.99.24,3.44,1.81,5.78,4.42,7.53,9.91,6.66,16.79-3.55,22.2-10.57,1.88.38,3.97-.03,5.45.95.63.59.02,2.49,1.2,3.01,1.42-.63,2.34-3.9.95-4.98-1.54-1.2-3.77.07-5.69-.7,1.45-.85,10.29-11.41,10.45-11.68.6-.22.79.1.57.96-1.17,4.86-2.46,9.67-2.91,14.94-.14,1.63-.83,3.03-1.71,4.3-2.94,3.48-5.21,7.08-7.55,11.02-4.99,8.41-10.17,16.36-16.5,24.06l-82.25.22c5.47-13.89,5.55-20.21,5.54-34.63l-.03-32.87c0-1.05.92-1.9,1.17-2.96.93-4,1.59-8.39,4.02-11.89,3.8-5.5,7.11-10.91,10.03-16.98,5.53-11.48,8.44-9.35,16.26-16.14.54.19.91-.12,1.1-.94,3.13-5.29,3.61-2.83,5.25-3.73,3.22-1.77,5.99-4.48,7.43-7.66-2.5-1.53-5.71,5.67-8.64,6.14,1.38-2.37,2.26-5.12,3.86-7.33.69-2.13,1.84-2.77,3.45-1.92,1.11-1.33,3.3-.26,2.57,1.4Z"/>
    <path class="st81" d="M550.15,233.14l-1.56,3.85c-7.4-3.48-15.07-5.46-22.3-8.35-10.14-3.19-20.2-7.24-29.98-11.39-4.67-1.28-9.2-2.97-13.57-5.08-.55.05-.71.22-.5.5,4.38.75,9.22,2.91,13.01,5,9.8,2.91,20.14,6.9,29.76,10.93.11.05.14.26.16.53l23.5,9.31c-2.12,6.58-2.76,13.09-2.4,20.38l-64.45-23.09c-1.85-.25-4.13-.91-5.57-2.08-.22.17-.22.33,0,.5,1.3.33,3.15.84,4.4,1.47.1.05.12.27.11.54l65.18,24.35c.08,17.48,2.39,35.52-5.32,52.19l-49.83.41c-5.65.05-10.88-.06-16.32.34-.45-4.5-.11-8.42-.14-12.99l-.55-81.79c-.38-5.21-.54-10.8.1-16,25.33,8.98,50.6,18.03,75.81,27.17,1.79.27,1.94,1.37.46,3.31Z"/>
    <path class="st81" d="M739.1,311.5c.57.73.34.83-.51.8l-46.51-.22-49.44-17.92,4.91-8.2c1.58-2.63,3.09-5.13,4.99-7.55l86.56,33.09Z"/>
    <path class="st81" d="M599.72,265.59c-.86-.06-.76-2.23,0-2.51.15-1.21.81-2.04,1.97-2.51,1.4-2.07,3.35-3.78,5.31-5.58,1.19-1.09,1.27-2.72,2.13-3.98,2.53-3.72,5.13-7.19,7.38-11.12,1.28-2.24,3.41-3.96,4.52-6.27,1.05-2.19,2.05-4.07,3.55-6,2.92-3.76,7.99-12.01,12.91-9.29,3.36,1.86,6.43,4.22,9.5,6.63.41,4.07-1,7.6-2.17,11.36-.49,1.55-.91,3.06-2.83,3.17-7.38,5.74-18.12,18.79-23.39,26.62-1.76,2.62-4.15,5.55-7.32,6.46-4.02,1.16-11.54-2.29-11.56-6.99Z"/>
    <path class="st81" d="M653.09,244.62l2.03,2.05-.11.34c-.84.15-1.79-.32-2.87-1.42l-.84.75c-4.48-2.05-4.61-2.04-.39.03,1.36,1.2,2.78,1.92,4.27,2.16.3-.47.6-.47.89,0,.35,1.01.12,2.05.12,3.07-.22.53-.91.38-2.08-.44-1.66.49-.59,4.47-3.42,6-5.24,7.1-12.61,16.19-19.51,21.39-3.36,2.53-7.23,2.05-10.52-.03-3.09-1.95-4.53-5.08-3.07-8.63l19.65-22.67,5.33-5.59c3.88-1.41,8.19-.22,10.52,2.98Z"/>
    <path class="st81" d="M696.07,286.05c1.93.56,3.95,1.1,6.05,1.6l17.01,6.9.89.91c13.42,5.55,26.93,10.84,40.53,15.87l2.53.15c.52.2,1.42-.13,1.44,1.3l-18.13-.67-93.58-35.54c1.04-2.97,1.63-5.74,2.24-8.53.11.52-.16,1.67.2,2.35l28.91,11.6c4.07,1.63,7.91,2.98,11.89,4.06Z"/>
    <polygon class="st81" points="685.39 312.31 629.89 312.47 641.6 295.88 685.39 312.31"/>
    <path class="st162" d="M552.7,228.1c-.7,1.72-1.22,3.72-2.55,5.03.23-.56.81-1.72.49-2.22l-2.71-.64-74.08-27.21-.07,15.6c-.22.07-.51-.16-.51-.52l-.08-11.96c0-1.5-.1-2.85.59-3.97,5.42,1.48,10.58,3.35,16.17,5.35l58.39,20.87c1.2.43,2.13.57,2.71,1.76.79-.81,1.2-1.41,1.65-2.09Z"/>
    <path class="st118" d="M763.09,311.47c-1.69,1.3-4.12.46-6.2-.38l-36.29-14.58c-1.02-.41-1.5-1.06-1.47-1.96l43.96,16.92Z"/>
    <path class="st220" d="M496.31,217.25c10.05,3.31,19.85,7.35,29.98,11.39-.41.07-.83.18-1.12.49l-29.92-11.46c-.87-.64-.51-.78,1.06-.42Z"/>
    <path class="st247" d="M692.08,312.07l46.46-.07c.41,0,.63-.3.56-.51.43.17,1.23.42,1.52,1.11l-48.54-.54Z"/>
    <path class="st261" d="M626.68,180.24c2,3.7,1.22,7.89.93,11.94-.95,1.1-.84-4.69-.86-4.39-.35-.69-.5-1.53-.45-2.51-.72.16-1.72-2.84-1.68-3.47s.18-.85.96-1.04c-.71-.53-.77-.86.15-.89.17-.41.48-.29.95.36Z"/>
    <path class="st49" d="M630.64,217.1c-1.99,1.62-3.38,3.99-4.98,5.95-.59.54-.7.29-.53-.47-.16-1.83,1.27-3.65,1.58-5.33l3.93-.14Z"/>
    <path class="st105" d="M664.17,271.56c-.34.14-.67.32-.95.57-2.08-.83-4.42-1.23-6.37-2.87,3.05-.19,5.12,1.47,7.32,2.3Z"/>
    <path class="st101" d="M591.3,180.29c1.26.09,1.88.58,1.86,1.48-1.15.23-2.69.86-3.45,1.92.3-.52.36-1.37.55-1.92l-.65-1.01c.25-.44.71-.69,1.07-1.04.14-.44.31-.43.5,0,.85-.16.96.18.12.56Z"/>
    <path class="st180" d="M481.82,235.72c-.33.08-1.1-.09-1.06.43-1.49-.56-3.21-.9-4.51-2.01-.44-.14-.43-.31,0-.5,1.78.53,3.72.92,5.57,2.08Z"/>
    <path class="st229" d="M702.12,287.65c.67,1.46-7.09-1.88-6.05-1.6.22-.15.4-.34.55-.56,1.75.7,3.76,1.46,5.5,2.16Z"/>
    <path class="st54" d="M656.18,251.61c0,1.5-.21,3.25-1.03,4.49-.42.2-.57,0-.5-.5.67-1.47,1.11-3.6-.55-4.44.7-.21,1.48.11,2.08.44Z"/>
    <path class="st20" d="M599.72,263.08v2.51c-.82.8-.53,1.99-.64,3.04-.62-1.81-.41-3.62-.41-5.54.14-.44.31-.43.5,0,.16-.27.34-.26.54-.02Z"/>
    <path class="st96" d="M601.69,260.57c-.6.88-1.11,1.84-1.97,2.51l-.54.02c-.02-.58.17-1.24.57-2,.28-.73,1.29-1.36,1.5-2.01l-.71,2c.72,0,.82-.48,1.16-.51Z"/>
    <path class="st46" d="M580.72,197.21c.33-.29.69-.76,1.1-.94.56.15-.02.87-.32,1.26-.19.25-.41.25-.58.26-.36.03-.26-.33-.2-.59Z"/>
    <path class="st159" d="M621.17,173.73c.66.11,1,.66,1.5,1-.15.24-.32.23-.5,0-.39,1.74-2.55.43-2.08-1.04l.58-.46c.6-.41.87-.15.5.5Z"/>
    <path class="st86" d="M624.16,176.23v.5c-1.34,1.11-2.96-.62-2-2h.5c.61.41,1.2.77,1.5,1.5Z"/>
    <path class="st239" d="M869.1,307.15c.04-.53.67-.83.95-1.18.08.35.16.75.16,1.18s-1.1.62-1.11,0Z"/>
    <path class="st262" d="M655.15,256.1c.22.69-.35,1.45-.49,2.04-.11-.36-.29-.7-.57-.96.31-.5.33-1.07.55-1.58.18.15.35.32.5.5Z"/>
    <path class="st82" d="M655,247.01c.73.03.88,1,1.06,1.53-.3-.04-.6-.05-.89,0-1.31.59-3.9-1.63-3.04-2.94,1.13.4,1.77,1.37,2.87,1.42Z"/>
    <path class="st79" d="M625.66,178.72c-1.1,1.23-2.61-.61-1-1.5v-.5c.65.46.96,1.21,1,2Z"/>
    <path class="st64" d="M625.16,224.15c-.16.25-.24.57-.5.78-.49.41-.51-.14-.54-.55-.03-.43.32-.44.54-.74.42-.2.57,0,.5.5Z"/>
    <path class="st25" d="M622.21,173.2c-.41.01-.86.13-1.04.53-.21-.03-.34-.39-.5-.5.25-.2.36-.51.74-.51.33,0,.59.31.8.47Z"/>
    <path class="st181" d="M625.66,223.05c-.24.3-.29.78-.5,1.1-.18-.15-.35-.32-.5-.5.19-.25.22-.84.47-1.08l.53.47Z"/>
    <path class="st112" d="M590.26,181.77c-.18-.22-.41-.37-.63-.54-.15-.11-.09-.34-.02-.48.33-.04.76-.18,1.07.19.38.45-.33.58-.42.82Z"/>
    <path class="st157" d="M624.66,176.73v.5c-.74.65-1.02.34-.5-.5v-.5c.08.16.35.4.5.5Z"/>
    <path class="st60" d="M626.68,180.24c-.33-.07-.65-.2-.95-.36-1.02-.1-.98-.65-.06-1.15.56.27.75,1.02,1.02,1.51Z"/>
    <path class="st82" d="M655.11,246.67c-.87-.46-1.46-1.27-2.03-2.05.88.44,1.69,1.11,2.03,2.05Z"/>
    <path class="st267" d="M90.45,34.95l72.41,21.08c.18-1.8-.38-3.15-.45-4.6-.04-.55-.12-1.31.54-1.5,1.14,4.57,2.55,9.06,4.02,13.54,1.74.19,1.71,3.35.06,3.5,1.15.91.95,1.15-.5.97-1.27.85-1.24-.52-.55-1.57.01-.15-.02-.31-.02-.46.27-.27.25-.63-.04-1.1l-2.38-7-74.09-22.42c-.98-.87-.03-.96,1-.45Z"/>
    <path class="st272" d="M173.45,70.35c1.77.48,2.09,2.72,2.77,4.13.79,1.65,2.69,1.85,3.7,2.95-.45-.22-.55.15-.58.63-.03.54-.71.4-1.02.31-.16-.05-.28-.13-.42-.32l-1-1.26c-4.15-1.99,1.71-3.22-8.07-6.88-1.49-.29-2.26-.95-2.3-1.99.26-.25.47-.6.5-.97l1.23-.43,4.74,2.64.45,1.19Z"/>
    <path class="st8" d="M18.05,29.44l-5.03-1.48c-1.01-.3-.91-.85-.93-1.52,2.38.58,4.76,1.18,7.24,2.17-.33.57-.87.61-1.29.84Z"/>
    <path class="st163" d="M85.95,33.45c.34.59,0,.75-1,.5-2.29-.74-4.8-.91-7-2,.15-.18.32-.35.5-.5,2.56.35,5.04,1.2,7.5,2Z"/>
    <path class="st227" d="M166.53,67.93c1.02.32,1.58,1.35,2.3,1.99-1.18.02-2.4-.13-3.68-.82-.51-1.06.04-2.16.83-2.74-.05.54-.09,1.36.55,1.57Z"/>
    <path class="st179" d="M90.45,34.95c-.35-.1-.92.06-1,.45l-4.5-1.45c.4.01.84-.09,1-.5,1.51.49,3.3.44,4.5,1.5Z"/>
    <path class="st151" d="M177.9,78.05c-.43.02-.7-.51-1.04-.61l.04-.64,1.51.72c-.05.29-.33.42-.5.53Z"/>
    <path class="st212" d="M165.96,65.91l-.04-1.1c.07.21.53.37.46.78-.04.26-.08.56-.41.31Z"/>
    <path class="st85" d="M72.46,29.45c-.15.18-.32.35-.5.5-.16-.03-.34.04-.5,0v-.5h1Z"/>
    <path class="st169" d="M363.3,133.79c5.98,1.31,11.71,3.69,17.52,5.51-.32.13-.63.3-.91.51l-17.61-5.53c-.45-.63-.12-.79,1-.5Z"/>
    <path class="st180" d="M355.31,131.3c.03.31-.15.47-.5.5h-.5c-1.64-.81-3.46-.98-5-2,.18-.15.35-.32.5-.5,1.84.62,3.88.89,5.5,2Z"/>
    <path class="st121" d="M363.3,133.79c-.4-.01-.84.09-1,.5-1.23-.39-2.35-.96-3.5-1.5-.2-.42,0-.57.5-.5,1.48.08,2.69,1.21,4,1.5Z"/>
    <path class="st179" d="M359.31,132.3c-.15.18-.32.35-.5.5-.98-.46-2.44-.33-3.5-.5-.36-.15-.35-.31,0-.5-.04-.32.15-.47.5-.5,1.2,0,2.36.93,3.5,1Z"/>
    <path class="st36" d="M457.93,158.66c-.31-.8-.32-1.52.02-2.42.41.67.62,1.42-.02,2.42Z"/>
    <path class="st117" d="M457.8,163.36l-.58-.11c.04-.33.1-.55.13-.72.05-.27.3-.44.64-.29.17.08.29.41.27.62-.01.17-.49.32-.47.49Z"/>
    <path class="st120" d="M355.81,131.3c-.16.17-.32.34-.5.5-.15.29-.32.28-.5,0,.15-.18.32-.35.5-.5h.5Z"/>
    <path class="st26" d="M210.4,34.93c-1.14-.74.45-3.11,1.2-3.79,1.13.4,1.2,4.76-1.2,3.79Z"/>
    <path class="st143" d="M159.97,44.43c-.13-.86.46-1.41.87-2.04.18.81.03,1.8-.87,2.04Z"/>
    <path class="st251" d="M164.9,47.9c-.48-.16-.97-.44-1.06-.97.5.12.92.47,1.06.97Z"/>
    <path class="st251" d="M165.92,48.48c-.24-.13-.41-.37-.57-.59.26.1.58.28.57.59Z"/>
    <path class="st115" d="M769.09,13.01l36.98.44c2.35.19,4.68.37,7,.53,3.44-.18,6.94-.33,10.49-.44l14.99.39c1.84.2,3.68.38,5.5.54,1.05-.43,2.9-.4,4,0,1.62-.16,3.28-.33,5-.52l60.4.68c1.82.02,3.29-.48,5.2.11l-.23,82.06-.05,39.37c-.01.45-.15.44-.4.04-.12.7-.44,1.08-.99.51-1.4-1.89-4.02-6.88-5.41-5.75-.32.26-.43.88-.13,1.39-.3.03-.61.05-.91.04-.41.06-.84,0-1.1-.34-10.13-13.38-21.16-26.11-34.99-35.91-16.2-12.14-32.71-24.37-49.54-36.7l-4.85-4.33c1.46,1.28,4.92,4.93,1.13,4.84-3.11-.07-10.67-3.41-13.93-4.86-15.85-7.01-32.59-18.16-44.15-31.1-1.73-1.93-8.39-9.46-7.99-10.9.17-.64,11.42-.59,13.18-.56.28,0,.55.21.82.48Z"/>
    <path class="st115" d="M734.61,12.62c7.02.05,13.99.16,20.92.34-.45.64-.13,1.46.29,2.04,12.04,16.66,27.85,30.38,46.54,39.12l1.75,1.83c-.11,1-1.25,1.33-2.08,1.14.03.94-.2,1.26-.99.72-.31.45-.65.67-1.02.66.43.79-1.47,1.7-1.93.88-1.9-.98-4.79,2.35-6.05,3.96s-2.24,3.43-2.7,5.45c-1.02,1.56-.58,1.59,1.31.09.48-.04.62.64.43,2.02l.65,1.56c-1.24,5.89-.48,11.94.84,17.75l-.65,1.61c-.41,2.81.19,5.81-.83,8.58.12,2.35.12,4.67,0,6.96.43,2.65.31,5.4,1,8.01.6,1.64-.32,9.76-1.14,10.6-.58.59-.94.86-1.83.71.98.5,1.47,1.18,1.47,2.05-1.42-.21-3.14.41-4.61-.22-1.65-.7-5.14-4.44-6.94-1.72-1.8-2.04-4.3-3.36-7.49-3.94l-2.37-1.93c-1.8.31-2.65-.09-2.54-1.18.34-.39-.01-.85-1.06-1.39l-1.26-1.38c-2.39-3.16-3.74-8.79-2.68-12.62.23-.38.17-.63-.08-.99l-1.1-.35-2.91-13.41c-2.17-6.8-5.42-13.14-9.77-19.04-.55-.73-.74-1.43-.57-2.12-.4-.08-.61.11-.65.54l.53.15c4.15,6.03,7.4,12.43,9.74,19.2l-.63,1.59c-2.29-2.6-4.47-5.44-6.11-8.49-2.04-3.49-4.25-6.96-6.65-10.4-5.22-7.23-7.66-12.21-8.84-20.51-.45-10.68-.91-21.56-1.4-32.65.11.56.18.94-.45,1.15-.5.15-.8-.79-.73-1.3.48-3.48-4.18-2.09-.88-4.67l-14.51-.04c-.61,0-1.49.07-1.52-.48,6.49.04,13.05-.31,19.53.11Z"/>
    <path d="M769.09,13.01c-4.42-.05-8.72-.09-13.76.14,6.9,9.07,14.56,17.15,23.47,24.05,5.78,4.48,11.88,7.72,18.14,11.42,8.06,4.76,16.34,8.41,25.62,10.65l-11.93-12.88c-3.32-3.59-7.33-6.54-9.25-11.47l12.44,12.74c7,7.17,14.08,13.53,22.42,19.11,5.34,3.57,10.23,7.24,15.37,11.07l20.02,14.94c19.57,14.61,22.06,18.4,37.22,36.65.8.97,1.52,1.85,1.66,2.95-.02.29-.01.99-.34,1.08-.28.08-1.06-.18-1.36-.51l-14.36-15.78c-2.56-1.25-4.25-3.02-5.05-5.3-5.41-5.68-11.42-10.69-17.99-15.47l-17.87-13.02c-9.31-6.73-18.46-13.57-27.44-20.51l-11.02-2.56c-1.03.35-2.83-.52-3.54-1.42-.14.31-.31.3-.5,0-.52.37-.74.13-.5-.5l-2-1c.02.9-.79.76-1-.05-1.06.3-3.59-.23-3.47-1.41-9.75-3.97-18.64-10.08-27.19-16.81s-15.19-14.84-21.52-23.42c-.65-.88-.75-1.62-.54-2.72-6.89.03-13.59.06-20.25-.38l32.37-.22c.62,0,1.12-.62,1.62-.2.21.18.41.48.49.81Z"/>
    <path class="st175" d="M688.13,12.35c-2.95-.02-6.22-.09-9.22.41-1.71.9-2.9,3.31-3.87,4.71-.8.25-.77-.86-.41-1.5l-.53-.14c.26-1.33.08-2.27-.55-2.82-.54-1.34-11.54.27-11.47-1.05l14.56.17c2.77.03,10.25-.6,11.48.21Z"/>
    <path class="st0" d="M823.56,13.54c.05.2-.2.42-.53.42l-9.96.02c-.44-.14-.43-.31,0-.5l10.49.06Z"/>
    <path class="st215" d="M813.06,13.48v.5l-6.48-.02c-.36,0-.59-.29-.52-.51l7,.03Z"/>
    <path class="st17" d="M844.05,13.98c.44.14.43.31,0,.5l-4.98-.03c-.37,0-.59-.28-.51-.51l5.5.04Z"/>
    <path class="st165" d="M853.04,13.96c.05.41-.44.53-.97.53h-4.03c-.44-.15-.43-.32,0-.51l5-.02Z"/>
    <rect class="st125" x="844.05" y="13.98" width="4" height=".5"/>
    <path class="st90" d="M918.51,138.79c-.22.03-.44-.04-.67-.1-.4-.1-.13-.74-.33-.9-.12-.73.03-1.25.45-1.57l.4-.04.15,2.61Z"/>
    <path class="st213" d="M918.01,147.77c-1.41-2-1.1-4.79-1.95-6.98,2.69.27,1.97,3.3,1.95,6.98Z"/>
    <path class="st42" d="M917.96,136.21c.03.55.22,1.38-.45,1.57-.34-.26-.31-.77-.53-1.07.24-.31.61-.48.99-.51Z"/>
    <path class="st171" d="M164.88,207.05c-.81.6-1.31.61-1.49.03-1.79-1.83-13.51,1.72-13.63.82-.3-2.33,14.97-4.51,15.12-.85Z"/>
    <path class="st199" d="M163.39,207.08c.49-.05,1-.2,1.49-.03-.86,1.15-2.16,1.93-3.44,2.55-.19-.45-.57-.8-.85-1.19.95-.91,1.83-1.24,2.8-1.33Z"/>
    <path class="st3" d="M181.9,81.37c.35.34.65.35,1,0-.03-.4-.4-.62-.5-1,.68.01.98.22,1.04.76.13,1.21-.35,1.4-1.58,1.26-.44-.05-.56-.39-.46-.74.05-.18.22-.28.51-.28Z"/>
    <path class="st190" d="M182.4,80.38c-.59-.08-1.13-.3-1.66-.55.25-.27.41-.49.83-.41.45.08.59.73.83.96Z"/>
    <path class="st12" d="M182.9,81.37c.02.27-.07.44-.26.5-.43.15-.82-.11-.73-.5h1Z"/>
    <path class="st18" d="M334.42,191.9c-12.3,10.15-26.75,6.45-39.59-.59-1.43-.78-17.68-9.4-14.11-11.47,6.9,4.23,13.83,8.24,21.17,11.76,5.87,2.81,12.09,4.19,18.55,3.81,8.68-.5,12.24-6.53,13.98-3.51Z"/>
    <path class="st162" d="M308.11,171.7l-18.76-11.48c-6.78-4.15-13.53-7.65-20.58-11.27-2.99-1.53-6.04-2.91-8.41-5.54,3.29.48,5.44,2.59,8.2,3.8,14.88,6.55,26.93,13.91,40.31,22.89.2.13-.02.98.16,1.08.21.12-.22.83-.91.53Z"/>
    <path class="st232" d="M303.65,199.89c-.32,1.53-22.63-5.78-19.23-8.42,6.18,4.69,12.92,4.79,19.23,8.42Z"/>
    <path class="st197" d="M283.74,172.79c-2.82.1-5.91-1.29-7.9-3.82,2.74.83,5.29,1.95,7.9,3.82Z"/>
    <path class="st110" d="M295.89,248.62c-11.55-.87-11.76,4.98-22.98,8.53-6.86,2.17-14.73,3.66-21.7.3,12.01.65,22.24-1.74,31.66-8.29,8.48-5.89,10.15-.86,21.07-5.03,4.96-1.9,10.27-2.99,15.51-2.16.25.67-.67,1.33-1.39,1.37-9.06.48-16.14,5.74-22.18,5.29Z"/>
    <path class="st257" d="M240.47,258.16c1.09.46,1.22.78.39.96.44,1.29-.1,2.11-1.49,1.47-.08.67-.91,1.31-1.56,1.01-2.68.8-5.2,2.57-8.25,2.24-1.56-.17-2.02-1.7-2.02-3.01.02-4.53,15.37-8.66,19.15-7.85-2.68,1.27-16.89,4.59-16.87,8.25,2.77.08,9.05-3.85,10.65-3.07Z"/>
    <path class="st268" d="M238.37,262.18c.05-.41.38-.94.99-1.59.57-.26.8-1.28,1.49-1.47q.09.41,0,0l-.39-.96c1.31.63,1.82-.18,2.85-1.16,3.25-3.13,8.01-4.81,12.61-5.15-.63,4.38-6.77,1.66-13.99,9.81-1.71,1.93-4.26,3.59-6.96,3.2.53-1.81,2.43-1.69,3.4-2.67Z"/>
    <path class="st24" d="M238.37,262.18c-.15-.23-.35-.42-.57-.58.46-.14,1.07-.79,1.56-1.01.17-.09.6.13.45.33-.51.67-1.05.87-1.44,1.26Z"/>
    <path class="st107" d="M198.14,202.26c8.76-4.3,6.09-8.4,8.57-9.93,2.79-1.72.21,11.43-8.57,9.93Z"/>
    <path class="st260" d="M178.76,209.71c.62,1.06-1.21,1.49-1.74,1.12-.91-.62-1.98-1.22-1.42-2.79.81.76,2.57.64,3.17,1.66Z"/>
    <path class="st233" d="M457.68,164.75l.5-.13c-.07.9.41,1.85-.19,3.13-.52-.96-.15-2.01-.31-3Z"/>
    <path class="st81" d="M355.31,131.8v.5c-.45-.07-.64-.32-1-.5h1Z"/>
    <path class="st212" d="M173.45,70.35c-2.4-.65-4.27-2.15-6.42-3.39.08-1.19.32-2.36-.06-3.5,2.9.24,5.62.71,6.63,3.78.39,1.18,1.09,2.34-.15,3.11Z"/>
    <path class="st20" d="M185.91,65.36c-.36-.5,0-1.4-.13-1.95,1.73-2.21-.15,1.18,2.89,2.16,1.23.4,2.9,1.85,2.38,3.14-.41,1.01-1.31-.44-1.73-.68-1.43-.83-2.52-1.54-3.41-2.68Z"/>
    <path class="st218" d="M184.42,68.39c0,.5-1.17.82-1.47.51.04-.68.99-.46,1.47-.51Z"/>
    <path class="st30" d="M163.87,211.71c-.36.06-.84.58-1.46.39s-.35-.9-.07-1.26c.2-.26.9-.35,1.07-.62.26.45.37.97.46,1.48Z"/>
    <path d="M674.64,59.91l1.04.94.49,4.26c.69,1.63.84,3.09.47,4.36.26,1.54.91,2.96,1.43,4.42,1.02,2,2.03,4.02,3.04,6.07.72,2.3,2.82,3.83,4.47,5.42,1.14.49,2.11,1.38,2.51,2.57,3.14,4.05,7.12,7.27,11.1,10.84,1.68,1.51,17.25,15.42,14.64,16.99-1.17.7-1.96-2.96-4.7-1.48-.45.38-.41,1.22.13,2.52l3.16,5.61c.94-1.72-.5-3.19,1.06-4.6l1.68,10.91c.49,3.2,1.28,5.83,2.42,8.49.99,1.19,2.12,3.37,2.17,5.06,3.01,7.02,10.79,17.15,16.26,23.02l10.14,10.89c4.37,4.7,9.03,8.8,13.18,13.64.31.36.3,1.39.01,1.55-.21.12-.74.04-1.08-.28l-4.67-4.36-1.4.03-15.89-15.91.29-1.12c-.6.3-1.09.77-1.46,1.39l1.09.86c.95,4.88,2.81,9.54,5.57,13.98,4.85-.19,1.14,7.42-2.17,5.18-.13.63-.56.92-1.04.46.42,1.46-5.14,3.09-6.14,3.03-.45-.03-.91-.1-1.23-.47v.55c1.43-1.08,3.11.43,4.12,1.6,1.07,1.24,2.31,2.87.86,3.85.1-.29.25-.28.42,0,.63-.19,1.4.22,2,.54l.92-.96c.54-.2,6.47-.91,6.77-.75,1.03.53,1.68,4.64-.19,4.6.02.32.19.52.49.6.37-1.67,5.25-1.95,6.07-.54,1.8-1.03.82,2.11-.6,2.55-2.9,1.63-6.75,1.81-9.56-.45l-.85-2.3c-3.02.03-6.04-.57-8.23-2.41,1.94-2.94-6.76-3.39-9.67-7.16,1.6-3.09,11.47-4.05,15.75-6.16-5.01-4.36-8.46-15.8-5.47-21.17-6.22-5.91-18.13-22.65-19.51-30.63l-1.81-10.43-2.4-4.05c-.95-1.6-1.77-3.51-3.01-4.82-1.4-1.48-.84-3-1.2-4.65-.26-1.21-1.07-3.15-1.23-4.47-3.93-4.33-8.58-7.61-12.58-11.84l-8.02-8.48c-6.99-7.39-7.23-11.08-10.08-20.31-1.1-1.75-1.37-3.33-.81-4.75-.7-1.17-.7-2.32.74-2.74.69-.66.94-.38.5.5Z"/>
    <path class="st115" d="M698.12,77.93c-3.23-2.61-6.5-5.58-10.28-7.72-2.5-1.42-11.12-1.52-11.15-1.43-.08.21-.04.57-.05.69-1.56-2.91-1.89-6.28-2-9.56-.39-.9.3-1.96.97-2.56h.49c.56.08,1.22-.24,1.99-.94.3-.43.3-.76,0-1-1.51-3.84-1.66-8.58-.44-12.52.96-.79.14,5.93.67,6.98,1.97-.73,3.46-2.02,5.83-2.61,1.58,7.86,7.81,2.5,8.86,6.25.39,1.4,2.06,2.23,2.49,3.4.84,2.29,2.5,3.73,4.23,5.34.37,1.1-.01,3.11,1.16,4.29,2.05,2.06,2.72,4.96,4.25,7.19,1.43,2.1,4.53,3.21,5.35,5.79.56,1.76-.58,3.92-.9,5.64-3.87-1.53-7.57-5.92-11.48-7.23Z"/>
    <path class="st110" d="M871.92,238.52c1.54-.04,2.92-.24,4.14-.57l.47,1.19c.46-.2.95,0,.95.54.02.23-.03.96-.49,1-6.4.48-12.23,2.01-18.49,3.44l-33.41,7.6c-11.96,2.72-23.62,1.32-33.51-6.07-2.79-2.08-5.91-3.63-8.54-6-3.92-3.53-7.02-7.46-10.64-11.32-6.68-7.11-12.79-14.43-17.72-22.63-.27.03-.5.03-.59-.09-.76-.91.36-1.03,0-.18-.07.16-.26.26-.49.35-.4.42-1.09.23-1.52.47.67-.72,1.58-1.79.6-2.55-.44-.14-.43-.31,0-.5-.16-.38-.22-.88-.18-1.5-1.94.39-2.5-2.94-.54-3.42,4.72,7.73,9.93,14.96,16.26,21.77l11.55,12.43c3.86,4.15,7.97,7.14,12.66,10.3,17.9,12.09,26.24,6.92,44.99,2.81l21.73-4.76c4.38-.96,8.52-2.2,12.77-2.3Z"/>
    <path class="st18" d="M884.14,276.07c5.57-9.48,6.81-20.9,3.69-31.67-3.58-1.93-6.66-4.16-10.25-5.34l-1.04.07c-1.41-.5-3.11-.65-4.61-.61-.15-.18-.09-.27.04-.43,1.94-.14,2.63-.32,2.08-.56-10.71-4.94-22.56-7.16-34.49-7.59,1.24-1.32,2.86-1.14,4.56-1.19,16.85-.49,33.45,4.39,47.42,13.71-.98,1.3-1.34,2.52-.65,3.74,1.1,1.93.25,3.94.34,5.97.4,9.15-.53,18.68-6.68,25.98-.77-.61-.43-1.43-.38-2.07Z"/>
    <path class="st32" d="M611.67,175.2c-.21,1.19-.48,2.39-.83,3.62l-1.16.35.62,3.84c1.02,2.42,2.48,4.68,4.36,6.79.89-.65,2.01-.63,3.36.07,1.39-.44,2.54-1.17,3.44-2.2l1.18.05c-.04-1.53,1.95-3.76,3.45-3.06.24.11.58,2.9,0,3.16-2.25,3.16-6.31,6.71-10.46,4.89-.05.42-.19.4-.39-.01-1.12-.77-2.39-1.3-3.58-1.95-.72-.31-1.35-.43-1.89-.37-.1.36-.27.31-.46.04-1.31-.33-1.45-.83-.45-1.73-1-.84-1.62-2.04-1.86-3.6-.85-1.18-.99-2.01-.41-2.48-.7-1.02-8.02-2.86-8.96-2.63-.17.04-.29.32-.39.67-.06,1.74-2.8,1.25-2.09-.46-.22-.2-.42-.41-.56-.65-.13-.22-.22-.43-.16-.58,1.76-4.24,9.19-1.96,12.49-.88.11-.03.72-1.79.52-2.15-1.08-1.95-13.76-2.92-14.19,1.95l-1.12.31c.19.44.05.62-.42.54-.73.78-.91.26-.57-1.54.23-3.53,3.48-5.54,7.06-6.08,4.42-.67,9.29.54,12.2,3.37.26.25,1.49-.75,1.44-.03-.01.2-.06.52-.15.75Z"/>
    <path class="st161" d="M625.58,180.76c-.27,1.63,1.38,2.84,1.17,7.03l-.66.02-.13-2.52c-1.14.53-2.62,1.33-3.31,2.42-.42-.1-.79-.32-.9-.74-.87-3.29-1.43-4.74-4.16-7.14-3.4-2.99-3.63-2.57-.55.61,1.18,1.1,1.38,2.02.61,2.76.34,1.2.16,1.68-.52,1.43l-1.07.08c-1.65-2.32-3.78-4.16-6.37-5.53.55-1.3.21-3.37,1.99-3.97.06.3.03.67.32.91,1.07-1.22,2.19-2.18,3.54-2.58,4.54.43,8.05,3.3,10.05,7.23Z"/>
    <path class="st274" d="M675.04,17.47l1.3,8.29,1.31,17.13c.32,4.16.44,8.37.44,12.52.44.2.21.63,0,1-.3.64.06,1.78-.62,2.53-.47.48-1.42-.92-1.37-1.58.16-1.9-.37-3.89-.3-5.97.26-8.53-.71-25.7-1.76-33.92-.26-.85-.37-2.11.6-1.5-.02.55.34,1.06.41,1.5Z"/>
    <path class="st254" d="M620.09,173.69c.63.23,1.25,1.13,2.08,1.04.54.65,1.08,1.67,2,2,.2.07.3.4.5.5,0,.76.38,1.2,1,1.5.02.38.07.77.06,1.15,0,.29-.1.6-.15.89-3.12-1.23-3.24-4.84-9.12-6.32-.52-.13-.85-.58-.93-.91,1.41-.42,3.17-.34,4.56.16Z"/>
    <path class="st127" d="M674.14,59.41c-.36,2.48-.68,5.06.07,7.49-.9-.99-1.24-2.56-2.34-3.49.56-.62,1.38-1.03,1.05-1.52-.17-.26-1.09-.69-1.08-1.08.04-1.1,1.5-1.55,2.13-2.19.91,0,.96.34.18.79Z"/>
    <path class="st174" d="M674.64,15.98c-.5.26-.67.96-.6,1.5-.92-1.31-.11-2.99-.47-4.46.62-.24,1.15-.82,2.17-.37-1.51.73-1.05,2.1-1.09,3.33Z"/>
    <path class="st116" d="M675.61,57.35c-.17.9-.22,1.95-.97,2.56l-.5-.5c-.18-.18-.11-.54-.18-.79.49-.5.87-1.29,1.65-1.27Z"/>
    <path class="st56" d="M591.68,178.72c.42.16.42.33,0,.5.49.56.22.73-.5.5h-.5c-.46-.9.38-1.79.43-2.54.02.56-.02,1.28.57,1.54Z"/>
    <path class="st114" d="M754.68,205.68c-.29.12-.86-.11-1.08.08.04-.44-.1-.89.08-1.6.91.23.71,1.03,1,1.52Z"/>
    <path class="st244" d="M877.57,239.06c0,.18-.11.45-.09.61l-.95-.54c.17-.16.38-.35.65-.35.17,0,.27.23.39.28Z"/>
    <path d="M805.6,57.94c.29-.86.65-.8.93.06,1.36-.37,3.39.44,4.04,1.42.32-.31.72-.37,1,0,1.29.24,2.29.77,3,1.57,8.66,4.21,15.72,9.84,22.33,16.56,15.74,16,20.25,28.81,25.19,50.13,2.85,12.28-.74,24.31-8.96,33.56-2.42,2.72-4.01,6.09-7.62,7.46-5.54,2.1-11.55,0-15.26-4.65-3.16-3.94-6.4-8.08-7.98-13.25l8.77,11.98c3.29,4.49,9.59,6.09,14.58,2.95,2.61-1.64,3.84-4.84,5.77-7.14,7.06-8.41,10.27-20.29,7.41-31.11-1.54-5.82-2.91-11.47-4.79-17.17-4.07-12.33-11.3-22.39-20.25-31.59-7.13-7.33-15.2-13.48-24.82-17.07-2.68-1-5.28-.96-7.72.47-10.48,6.14-9.72,19.37-7.16,29.69.31,1.26.7,2.42.22,3.4-1.71-.46-1.87-2.1-2.35-3.41-1.68-6.94-2.67-14.2-.83-20.93.69-6.38,8.02-13.71,14.52-12.93Z"/>
    <path class="st115" d="M753.58,186.75c-.22-2.54-2.51,8.17-2.34,6.51-.16,1.53,1.08,3.48.71,5-.29,1.21-.3,2.19.54,3.42l.18,1.5v.5l-6.07.54c-.39-.1-.65-.2-.49-.6.21-1.2.22-2.44-.18-3.89-2.51.65-4.88,1.2-7.32,1-.81-.18-1.31-.53-1.5-1.04l-.92.5c-.48-2.6-2.7-4.68-4.99-5.45-.31-.22-.36-.42,0-.55l7.37-2.57c.42,0,.79-.11,1.04-.46,2.09-.45,4.16-2.07,3.33-4.37-.44-.2-1.67.68-1.9.17-2.7-6.88-5.24-7.88-5.92-15.82-.09-1.2.35-1.42,1.46-1.39l13.77,13.72c1.19,1.19,2.17,2.29,3.23,3.28Z"/>
    <path class="st18" d="M810.56,96.82c.5.62.22.86-.49.47-5.25-5.95-9.17-13.94-9.01-22.21.05-2.57,4.84-2.33,6.53-1.28,17.78,11.09,19.38,13.13,30.33,30.18,1.41,2.19,8.5,14.71,6.86,15.71-.3.18-1.42-.25-1.61-.66-4.18-8.73-14.49-26.53-21.73-32.53-2.25-1.86-16.27-13.46-18.37-10.8.17,7.99,3.52,14.6,7.5,21.13Z"/>
    <path class="st18" d="M761.53,103.33c.26.31.33.64.08.99.62,4.24,1.7,8.44,2.68,12.62.23.12.23.28.03.47l.3.43c.78.21,2.02,1.03,1.99,1.87.6.6,1,.32,2.06.15,1.43-.22,2.13,1.59,3.28,2.06,2.34.96,8.62,2.14,7.07,4.85-1.5-.18-2.96-1.56-4.57-1.63-2.46-.1-3.52-1.81-5.46-2.73-2.39-1.14-5.77-2.05-6.81-5.16-1.79-5.36-2.15-11.02-3.46-16.54l-2.57-10.84c-2.75-11.57-8.29-15.95-9.64-20.94-.45-.89-.15-1.14.65-.54,4.27,7.5,9.26,11.28,11.63,22.26l2.73,12.67Z"/>
    <path class="st257" d="M750.05,81.39c-.83-.45-1.68-1.12-2.36-2.07-4.27-5.91-8.22-11.78-11.69-18.2-1.39-2.57-2.27-5.18-2.46-8.18l-.4-6.51c-.53-1.62-.47-3.36-.02-4.99-.02-3.56-.29-7.17-.06-10.99s.11-7.77-.35-11.46c-.15-1.2-.4-2.84.66-4.14.99,7.27,1.13,14.46,1.5,21.87l.69,13.7c.19,3.76.95,6.93,2.78,10.16,3.55,6.25,7.24,12.2,11.4,18.09.64.9.56,1.9.31,2.71Z"/>
    <path class="st257" d="M834.8,140.12l-.69-9.34c-.51-6.93-3.28-13.12-7.34-18.6s-9.32-12.41-16.51-13.44c6-3.33,15.62,8.11,18.61,11.81,4.78,5.92,7.69,12.9,7.91,20.55l.31,11.07c-1.43.2-2.2-.83-2.29-2.06Z"/>
    <path class="st248" d="M753.7,164.75l.4-.4c3.71,3.45,7.06,6.8,9.99,10.86,6.24,8.62,11.45,17.65,16.33,27.05.28.53-.13,1.56-.51,1.36-.21-.11-.83-.21-1.07-.62-5.3-9.1-10.41-18.02-16.19-26.85-2.75-4.2-6.04-7.6-8.96-11.4Z"/>
    <path class="st267" d="M907.03,219.62c.26.87.41,1.46-.54,1.04l-18.2-33.58c-.62-1.5-.33-1.77.58-.43,6.05,10.68,14.83,20.77,18.16,32.97Z"/>
    <path class="st248" d="M790.57,128.7c-2.62-.77-7.7-7.07-9.73-9.92,3.06.06,6.57,6.49,9.07,7.08,1.64-4.09.68-8.46,2.15-10.52,2.59-2.06,1.28,13.76-1.49,13.36Z"/>
    <path class="st131" d="M814.72,131.54c6.1-8.44-.76-18.92-8.09-24.9-.4-.32.39-.94.64-.99,2.44-.51,10.72,8.47,11.16,17.58.15,3.1-.08,7.15-3.7,8.31Z"/>
    <path class="st140" d="M853.56,83.4c-7.46-5.44-20.43-12.75-27.44-20.51,3.98,1.31,7.04,5.15,10.79,7.58,5.19,3.35,9.7,7.2,14.58,10.9.87.66,1.75,1.11,2.07,2.03Z"/>
    <path class="st150" d="M894.47,117.2c-2.77-1.18-5.8-2.01-5.05-5.3l5.05,5.3Z"/>
    <path class="st78" d="M888.87,186.65c-.34-.24-1.04-.11-.58.43-1.23-2.27-2.76-4.34-3.72-6.77-.2-.72-.22-.85.45-.47l3.85,6.81Z"/>
    <path class="st53" d="M791.07,107.33c-.39-2.42-.86-4.61,0-6.96.72-1.78.76,8.6,0,6.96Z"/>
    <path class="st93" d="M719.74,142.28l-2.17-5.06c-.09-.16.3-.56.39-.37l2.01,4.12c.24.48.23,1.27-.23,1.31Z"/>
    <path class="st253" d="M681.1,79.96c-1.74-1.5-2.27-3.95-3.04-6.07.92-.48,2.85,5.46,3.04,6.07Z"/>
    <path class="st74" d="M883.03,176.23c-.14.44-.31.43-.5,0-.39-1.49-2.23-2.84-2.5-4.49.14-.44.31-.43.5,0,1.24,1.24,1.67,2.99,2.5,4.49Z"/>
    <path class="st5" d="M885.02,179.84l-.45.47c-.56-1.41-1.63-2.51-2.04-4.08h.5l1.99,3.62Z"/>
    <path class="st94" d="M815.1,60.33c-.2.2-.38.42-.54.65-.93-.45-2.12-.49-3-1.57-.44-.14-.43-.31,0-.5l3.54,1.42Z"/>
    <path class="st71" d="M880.53,170.74c-.09.39-.25.56-.5.5l-2-3.99c.14-.44.31-.43.5,0,.98.94,1.34,2.32,2,3.49Z"/>
    <path class="st201" d="M698.12,77.93c.59.92,1.05,1.45.76,2.26-.69-.63-1.16-1.23-1.54-1.94.44,0,.58-.25.78-.32Z"/>
    <path class="st158" d="M733.14,46.43c-.94-1.26-.9-3.7-.02-4.99.01,1.66-.08,3.33.02,4.99Z"/>
    <path class="st141" d="M754.1,164.34l-.4.4c-.65-.85-1.68-1.48-2.1-2.5-.42-.68-.18-.92.5-.5.79.85,1.31,1.95,2,2.59Z"/>
    <path class="st75" d="M688.08,87.95c-.65-.84-1.74-1.82-2.51-2.57,1.34.08,2.53,1.21,2.51,2.57Z"/>
    <path class="st234" d="M709.12,114.3c-.13.85.76,1.76.13,2.52-.33-.58-.94-1.13-1.13-2.05-.12-.58.78-.47,1-.47Z"/>
    <path class="st104" d="M874.03,237.53c.47.22,1.16-.24,1.55.47-1.41.31-2.51.05-3.62.09.49-.62,1.35-.51,2.08-.56Z"/>
    <path class="st6" d="M742.1,128.12c-.63.13-1.6-.78-1.48-1.82.64.24,1.07.53,1.48,1.82Z"/>
    <path class="st6" d="M685.68,22.79c.14-.62,1.33-.39,1.39-.11.05.24-.58.47-.49,1.04.06.44-1.08-.09-.9-.93Z"/>
    <path class="st92" d="M906.49,220.66c.44-.15.55-.62.54-1.04.15.56.94,1.03.34,2.08-.47-.25-.68-.66-.88-1.04Z"/>
    <path class="st129" d="M878.03,165.24c-.14.44-.31.43-.5,0-.39-.45-1-.87-1-1.5.14-.44.31-.43.5,0,.41.45.72.94,1,1.5Z"/>
    <path class="st164" d="M812.26,237.31c-.03-.36.72-.14,1.01-.18.17-.02.34.31.09.47-.16.1-.37.48-.54.49s-.52-.31-.56-.79Z"/>
    <path class="st173" d="M732.25,23.2c-.26.09-.15-.71-.13-.97.03-.29.4-.36.49,0,.05.22.23.76-.35.97Z"/>
    <path class="st89" d="M752.1,161.75c-.33-.07-.57.17-.5.5-.29.06-.46-.1-.51-.28-.07-.28.02-.63.26-.72.37-.14.83.07.75.51Z"/>
    <path class="st129" d="M876.53,161.75c-.14.44-.31.43-.5,0-.19-.31-.49-.6-.5-1,.15-.33.31-.33.5,0,.12.35.4.65.5,1Z"/>
    <path class="st231" d="M878.53,166.24c-.14.44-.31.43-.5,0-.38-.18-.28-.75-.5-1h.5l.5,1Z"/>
    <path class="st246" d="M810.06,97.3c.44-.02.61-.28.49-.47.45-.22.65.43.5.77-.09.21-.39.31-.73.25-.18-.03-.42-.27-.27-.55Z"/>
    <path class="st255" d="M876.53,162.75c-.36-.21-.31-.7-.5-1h.5c.09.31,0,.68,0,1Z"/>
    <path class="st225" d="M880.53,171.73h-.5c-.03-.15-.01-.34,0-.5.02-.26.24-.47.5-.5.14.26-.08.71,0,1Z"/>
    <path class="st43" d="M877.03,163.75h-.5v-1c.36.2.28.75.5,1Z"/>
    <path class="st84" d="M878.53,167.24h-.5v-1h.5c.14.28-.06.68,0,1Z"/>
    <path class="st40" d="M876.03,160.75h-.5c-.17-.02-.6-.09-.48-.26.23-.32.5-.37.73-.24.18.1.32.24.26.5Z"/>
    <path class="st110" d="M595.13,180.18c.53.65,1.36.45,2.09.46.3-1.09,2.24-.57,3.13-.16,2.78,1.29,5.08,5.98,5.27,8.96l1.07.56c-.18-1.54,1-2.68,2.15-1.31.3.46.42,1.14.45,1.73.22,4.38-.65,8.64-1.05,13.24-.64,7.33-2.46,14.23-5.03,21.05-1.94,5.15,4.28,5.29,1.03,7.21-1.21.71-2.59-2.61-3.43-2.89-1.03-.35-2.12-.85-2.76-1.43-1.1.23-2.57,1.64-3.92,1.14-.66-.24-.67-1.66-.14-1.9l1.76-.82c.68-.89,1.11-2.02,1.31-3.38.56-6.34,2.51-12.37,4.62-18.36.19-1.92,1.32-4.52,2.4-5.96-.3-.22-.26-.41.09-.6l.5-.5c-.44-.14-.43-.31,0-.5l.52-1.03c.09-1.45-.1-2.12-.55-2.01l-.49,1.61c.45.1.44.25,0,.44l-.48.99c.44.14.43.31,0,.5l-.49,1.08c.44,1.36-.81,4.28-2.03,4.99-5.21,7.88-5.31,6.9-13.12,12.72-2.17,5.19-2.76,10.53-2.9,16.17-.04,1.61-.5,3.34-1.73,4.1-1.72-1.63-1.07-3.69-1.2-5.58-.54-8.11,2.42-15.32,8.87-20.11,3.84-2.85,6.8-6.57,8.47-10.82l-.21-.57c1.26-3.87,1.37-7.52.33-10.96l-3.92-5.05c-.58-.84-1.64-1.07-2.57-1.4-.78-.28-1.68-.61-1.86-1.48.04-.45.49-.62,1.33-.51.16-1.32,2.6-1.12,2.49.4Z"/>
    <path class="st257" d="M581.51,282.19c-3.92-1.47,2.99-8.62,4.66-18.15,1.29-7.35.13-14.63-1.6-21.78,1.03.01,1.83.87,2.14,1.84,5.01,16.11,3.87,23.4-5.2,38.09Z"/>
    <path class="st91" d="M599.55,199.75c-.76-.32-.81-1.58-.75-2.52.54-8.97-3.13-11.61-3.44-13.67-.02-.16.18-.32.38-.38,4.15,1.36,6.28,6.21,5.62,10.67-.33,2.2-1.09,4.07-1.82,5.91Z"/>
    <path class="st102" d="M611.41,206.93c2.37.02,2.29,5.86.57,7.45-1.85-.28-2.76-7.47-.57-7.45Z"/>
    <path class="st273" d="M614.31,203.05c.7-.83,8.65-.24,8.56,1.38-.13,2.27-7.58-.1-8.56-1.38Z"/>
    <path class="st166" d="M615.24,192.69c.12.03.28-.04.39.01.57-.34.66,6.44-.69,5.93-.91-.54-1.79-6.88.3-5.94Z"/>
    <path class="st210" d="M604.08,198.29c-.28,2.16-1.71,4-2.4,5.96-.07-.38-.21-.75-.52-.99.98-1.48,1.35-3.38,2.03-4.99.17-.42.32-.38.45.08.04-.45.2-.46.45-.06Z"/>
    <path class="st235" d="M595.75,226c.41-1.14.6-2.41,1.31-3.38l-.25,2.87c-.04.47-.8.39-1.06.51Z"/>
    <path class="st88" d="M611.65,190.74c-.5.5-1.55.2-1.89-.37,0-.26-.03-1.03.33-1.07.97.14,1.12,1.12,1.56,1.44Z"/>
    <path class="st81" d="M599.18,263.09h-.5c0-.8.82-1.37,1.07-2,0,.71-.17,1.41-.57,2Z"/>
    <path class="st78" d="M496.31,217.25c-.33.08-1.1-.1-1.06.42l-13.01-5c-.23-.44-.04-.59.5-.5,4.64.9,8.81,3.51,13.57,5.08Z"/>
    <path class="st123" d="M482.74,212.17c-.18.15-.35.32-.5.5-.89-.34-1.92-.5-2.58-1.32,1.45-.75,2.19.65,3.08.83Z"/>
    <path class="st19" d="M476.24,233.64v.5c-.21-.03-.47.07-.73,0-.33-.09-.33-.4,0-.5.27-.08.53.03.73,0Z"/>
    <path class="st139" d="M604.57,261.15c-.97.94-1.34.58-.53-.45.88-1.44,1.61-2.94,2.86-3.78,1.34-.9,3.01-.2,4.49-.05,3.19.33,5.94,3.37,4.52,6.48-3.83-3.63-1.17-3.65-8.11-5.09-1.28,1.02-2.08,2.09-3.24,2.88Z"/>
    <path class="st16" d="M621.79,236.41c1.15-1.51,13.09,3.85,10.39,5.55-.36.22-.91-.07-1.43-.37l-8.96-5.18Z"/>
    <path class="st202" d="M610.12,269.1c-2.37-2.85-5.49-3.46-9.33-3.19,3.13-3.01,7.35-1.2,9.99,1.04.5.42.27,1.04.41,1.29s-.89,1.08-1.08.85Z"/>
    <path class="st19" d="M636.06,220.43c1.88-.19,7.54,3.53,7.01,5.91-.26,1.18-6.36-4.59-7.01-5.91Z"/>
    <path class="st34" d="M628.28,243.32c-1.55.27-2.52-1.07-3.53-2.02,1.52-.37,3,.36,3.53,2.02Z"/>
    <path class="st269" d="M604.57,261.15c-.47.32-.47,1.9-1.27,1.11-.38-.37.39-1.36.74-1.56-.36.52.18.55.53.45Z"/>
    <path class="st45" d="M622.21,269.47c-.88.8-1.05.06-.47-.89,1.02-.89,1.28-2.81,2.71-3.59,1.97-1.07,5.38-.35,6.79,1.46,1.55,1.99.86,4.88-.42,6.75-1.6-1.3-.61-2.98-1.14-4.65-.47-1.49-3.23-2.66-4.53-1.94s-1.7,2.33-2.94,2.86Z"/>
    <path class="st77" d="M652.13,245.59c.89,1.11,2.27,1.71,3.04,2.94-.21.45-1.15,1.42-1.8.84-2.97-2.63-6.37-3.87-10.44-5.37,3.38-1.81,6.37.59,9.2,1.59Z"/>
    <path class="st109" d="M622.71,272c1.22-.08,6.51,2.83,5.55,4.5-.18.32-.85.91-1.37.32-1.84-2.07-4.75-2.72-6.19-4.69-.02-1.12.35-1.4.69-.33l1.32.2Z"/>
    <path class="st11" d="M622.21,269.47c-.38.48-.7,1.3-1.07,2,.71.16,1.2.17,1.57.53l-2.01.13c-.51-1.09.28-2.88,1.05-3.54-.03.37.13.73.47.89Z"/>
    <path class="st211" d="M595.13,180.18c-1.26-.37-2.56-.16-3.83.11l-.12-.56c.13-.2.3-.37.5-.5.53-.17.55-.55.42-1.04,1.5-6.71,12.4-5.56,16.71-2.59l-1.39,3.98c-2.6-1.44-11.88-4.2-12.3.6Z"/>
    <path class="st39" d="M917.54,15.19c-.34.26-.98.45-1.33.76s-1.22-.54-1.12-.81c.56-.33,1.1-.26,2.45.05Z"/>
    <circle class="st70" cx="907.26" cy="107.58" r=".25"/>
    <path class="st243" d="M798.08,59.35l-.07.85c-2.89,2.2-5.12,5.12-6.67,8.38l-.71.27c-2.3,4.84-1.91,10.06-2.43,15.81-1.42-5.75-1.17-11.44.34-16.85,1.27-4.56,5.02-8.06,8.97-10.51.85.52.5,1.48.56,2.05Z"/>
    <path class="st182" d="M805.6,57.94c-6.15.02-12.91,7.02-14.52,12.93-.63-.41-.27-1.37-.43-2.02,1.75-3.67,3.96-6.99,7.44-9.5.53-.39,1.44-.35,1.93-.88.24.1.58-.12,1.02-.66.09-.5.75-.45.99-.72.76-.28,4.33-.79,3.57.85Z"/>
    <path class="st236" d="M804.1,55.95l3.47,1.41c.66.64.31.85-1.04.63-.14-.05-.45-.06-.93-.06.8-.93-4.51.19-3.57-.85.56-.61,1.19-1.16,2.08-1.14Z"/>
    <path class="st160" d="M766.61,119.7c-.63-.62-1.69-.89-1.99-1.87l-.3-.43c-.02-.15,0-.32-.03-.47,1.26.59,2.3,1.47,3.13,2.67-.42.21-.64.06-.81.1Z"/>
    <path class="st186" d="M747.17,68.4c-.23.16-.44.35-.65.54-.25-.94-1.78-1.87-.62-3.08.34,1.16.86,1.82,1.27,2.54Z"/>
    <path class="st236" d="M801.03,57.81c-.05.29-.25.52-.42.86-.15.29-.67.36-.6-.2.28-.3.57-.63,1.02-.66Z"/>
    <path class="st57" d="M761.61,104.31l-.08-.99c.16.14.53.31.45.6-.05.17-.27.29-.36.39Z"/>
    <path class="st113" d="M808.57,57.41l2,1,.5.5c.17.2,0,.37-.5.5l-4.04-1.42c.39-.13.76-.32,1.04-.63l1,.05Z"/>
    <path d="M810.56,58.41c-.77-.08-1.59-.3-2-1,.78.04,1.55.33,2,1Z"/>
    <path class="st95" d="M811.56,58.91v.5c-.29-.08-.74.14-1,0,.02-.26.24-.48.5-.5.15,0,.36-.06.5,0Z"/>
    <path class="st124" d="M240.85,259.11c.12.33.11.42.08.39s-.09-.2-.08-.39Z"/>
    <path class="st28" d="M736.58,169.75c.11.85-.79,1.13-1.46,1.39-.09-1.07-.51-2.17-.18-3.19,1.03.32,1.16,1.32,1.64,1.8Z"/>
    <path class="st69" d="M738.6,200.73c-.71-.06-1.5.09-2-.54-.07-.34.12-.49.5-.5.6.17,1.17.5,1.5,1.04Z"/>
    <path class="st47" d="M739.6,191.16c-.02.25.06.54,0,.78s-.37.36-.73.26c-.19-.05-.36-.32-.31-.59.35-.12.65-.37,1.04-.46Z"/>
    <path class="st111" d="M731.2,194.18c.53,0,.49.53,0,.55-.2-.04-.45.31-.82-.01-.23-.2-.38-.29-.01-.54.32-.22.63,0,.84,0Z"/>
    <path class="st156" d="M737.1,199.69c-.15.18-.32.35-.5.5h-.42c-.18-.28.03-.42.22-.45.29-.04.52-.1.7-.04Z"/>
    <path class="st204" d="M746.6,204.22c-.59.12-1.4-.26-.49-.6.17.19.34.39.49.6Z"/>
    <path class="st22" d="M678.09,56.41v-1c.4-.13.66.25.46.57-.08.13-.37.24-.46.43Z"/>
    <path class="st4" d="M752.67,203.19c-.3-.13-.56-.37-.58-.74-.01-.26-.02-.79.39-.76.16.24.37.45.52.84.08.21.16.7-.34.66Z"/>
    <path class="st200" d="M622.65,187.71c-1.82,2.86-4.98,3.65-7.98,2.08-1.19-1.34-1.93-2.95-2.23-4.82-1.88-1.78-2.79-3.71-2.75-5.8,2.24-.92,6.68,3.57,7.44,5.45.57.12.75-.36.52-1.43-1.42-2.98-4.79-5.21-4.46-6.16.86-2.5,10.66,5.48,9.46,10.67Z"/>
    <path class="st193" d="M606.57,182.6l-.77.35c1.52,2.09,2.53,4.78.9,7.05-.29.37-1.13,1.36-1.61.78-.69-4.16-3.09-10.08-7.87-10.14l-.78-.52c-2.41-1.61,8.84-1,10.13,2.48Z"/>
    <path class="st10" d="M614.66,189.79c-3.8-1.99-6.74-6.48-4.98-10.62.66,2.44,3.22,3.81,4.11,6.37.5,1.43-.02,3.11.87,4.25Z"/>
    <path class="st265" d="M606.57,182.6c.72,1.95,2.5,4.02,2.27,6.08-.7.2-1.71.76-2.15,1.31-.48-.45-.3-1.2-.26-1.96.45-2.48-.48-4.66-2.98-5.83,1.23-1.06,2.33-.23,3.12.39Z"/>
    <path class="st21" d="M591.68,179.22c.03-.15-.07-.36,0-.5.1-.2.3-.36.42-.54.24-.03.51.1.56.29.06.25.14.95-.22,1.23-.2.16-.63-.22-.77-.48Z"/>
    <path class="st226" d="M617.12,184.62c.39-.37.52-.9.52-1.43.39.82,2.04,5.98.03,6.02.11-1.78-.06-3.18-.55-4.6Z"/>
    <path class="st115" d="M764.63,117.83c-.05-.15-.27-.25-.3-.43.36-.18.3.22.3.43Z"/>
    <path class="st257" d="M753.7,164.75c.1-.16.24-.3.4-.4-.12.15-.25.28-.4.4Z"/>
    <path class="st219" d="M606.18,200.69c.3,6.07-1.9,13.85-4.08,19.54-.89,1.49-2.23,2.61-2.49.36,1.05-6.63,3.04-13.12,5.57-19.35.49-1.12.82-1.3.99-.55Z"/>
    <path class="st133" d="M599.62,220.58c.67.76,1.64-.29,2.49-.36-.72,1.87-.81,3.92-1.7,5.93-1.58-1.92-1.05-3.9-.79-5.58Z"/>
    <path class="st249" d="M605.19,195.67l-.52,1.03v.5l-.5.5c-.07.18-.07.41-.09.6l-.45.06c-.39-.09-.17-.78.05-1.15v-.5l.48-.99c0-.14.03-.3,0-.44l.49-1.61c.24-.4-.17-1.26.34-1.4.39-.1,1.19.02,1.18.49-.02,1.17-.78,1.99-.97,2.92Z"/>
    <path class="st241" d="M606.18,200.69c-.42-.43-.72.24-.99.55.6-1.47,1.56-4.12,1.96-5.53.25-.77.43-.76.57.04-.3,1.54-.34,3.76-1.54,4.95Z"/>
    <path class="st208" d="M607.73,195.74l-.57-.04c.12-.42.17-1.59.85-1.33.64.25-.12,1.13-.27,1.37Z"/>
    <path class="st209" d="M604.15,195.27c-.13-.64.2-1.12.49-1.61-.04.51.19,1.49-.49,1.61Z"/>
    <path class="st209" d="M603.63,198.35l-.45-.08c.15-.36-.02-.93.49-1.08l-.05,1.15Z"/>
    <path class="st209" d="M604.67,196.7c0-.33,0-1.1.52-1.03-.08.39-.08.85-.52,1.03Z"/>
    <path class="st209" d="M603.68,196.7c0-.38-.02-.96.48-.99.02.39-.03.88-.48.99Z"/>
    <path class="st209" d="M604.18,197.69c.08-.22.31-.38.5-.5,0,.24-.28.41-.5.5Z"/>
  </g>
</svg>