<?xml version="1.0" encoding="UTF-8"?>
<svg id="Ebene_10" xmlns="http://www.w3.org/2000/svg" version="1.1" viewBox="0 0 930 325">
  <!-- Generator: Adobe Illustrator 30.1.0, SVG Export Plug-In . SVG Version: 2.1.1 Build 136)  -->
  <defs>
    <style>
      .st0 {
        fill: #498892;
      }

      .st1 {
        fill: #5fb2bf;
      }

      .st2 {
        fill: #a6e2ec;
      }

      .st3 {
        fill: #659ba4;
      }

      .st4 {
        fill: #9dd6e0;
      }

      .st5 {
        fill: #588f98;
      }

      .st6 {
        fill: #010101;
      }

      .st7 {
        fill: #5d97a0;
      }

      .st8 {
        fill: #a1d8e1;
      }

      .st9 {
        fill: #030304;
      }

      .st10 {
        fill: #365d64;
      }

      .st11 {
        fill: #7db5bd;
      }

      .st12 {
        fill: #4f8892;
      }

      .st13 {
        fill: #58a5b1;
      }

      .st14 {
        fill: #2f3d3f;
      }

      .st15 {
        fill: #040708;
      }

      .st16 {
        fill: #a0d9e3;
      }

      .st17 {
        fill: #90ccd6;
      }

      .st18 {
        fill: #7cb3bc;
      }

      .st19 {
        fill: #050d0e;
      }

      .st20 {
        fill: #121718;
      }

      .st21 {
        fill: #040707;
      }

      .st22 {
        fill: #a3e1eb;
      }

      .st23 {
        fill: #3b666d;
      }

      .st24 {
        fill: #94d5e0;
      }

      .st25 {
        fill: #5a8f98;
      }

      .st26 {
        fill: #a6dbe4;
      }

      .st27 {
        fill: #74c7d5;
      }

      .st28 {
        fill: #569099;
      }

      .st29 {
        fill: #497f88;
      }

      .st30 {
        fill: #1c2f32;
      }

      .st31 {
        fill: #5ba1ac;
      }

      .st32 {
        fill: #91cdd7;
      }

      .st33 {
        fill: #99d5df;
      }

      .st34 {
        fill: #ade4ed;
      }

      .st35 {
        fill: #a8e3ed;
      }

      .st36 {
        fill: #7db7c0;
      }

      .st37 {
        fill: #8dd6e2;
      }

      .st38 {
        fill: #76cbd9;
      }

      .st39 {
        fill: #060b0c;
      }

      .st40 {
        fill: #78c5d1;
      }

      .st41 {
        fill: #1e4247;
      }

      .st42 {
        fill: #498992;
      }

      .st43 {
        fill: #74aab2;
      }

      .st44 {
        fill: #598f98;
      }

      .st45 {
        fill: #a4d9e2;
      }

      .st46 {
        fill: #91d8e3;
      }

      .st47 {
        fill: #76c8d6;
      }

      .st48 {
        fill: #5b9da7;
      }

      .st49 {
        fill: #a0d6df;
      }

      .st50 {
        fill: #070c0d;
      }

      .st51 {
        fill: #000101;
      }

      .st52 {
        fill: #9adce7;
      }

      .st53 {
        fill: #a2dbe5;
      }

      .st54 {
        fill: #33828e;
      }

      .st55 {
        fill: #9fdfe9;
      }

      .st56 {
        fill: #a4dee7;
      }

      .st57 {
        fill: #ade5ee;
      }

      .st58 {
        fill: #abe4ee;
      }

      .st59 {
        fill: #020304;
      }

      .st60 {
        fill: #72c1ce;
      }

      .st61 {
        fill: #9edee8;
      }

      .st62 {
        fill: #ace5ee;
      }

      .st63 {
        fill: #030506;
      }

      .st64 {
        fill: #56a9b5;
      }

      .st65 {
        fill: #6cb6c2;
      }

      .st66 {
        fill: #b0e7f0;
      }

      .st67 {
        fill: #b3e6ee;
      }

      .st68 {
        fill: #0b1213;
      }

      .st69 {
        fill: #396268;
      }

      .st70 {
        fill: #518b95;
      }

      .st71 {
        fill: #4e97a2;
      }

      .st72 {
        fill: #63b3c0;
      }

      .st73 {
        fill: #020202;
      }

      .st74 {
        fill: #43747b;
      }

      .st75 {
        fill: #a4dae3;
      }

      .st76 {
        fill: #0f191b;
      }

      .st77 {
        fill: #33818d;
      }

      .st78 {
        fill: #477981;
      }

      .st79 {
        fill: #6a9ea6;
      }

      .st80 {
        fill: #4e9dab;
      }

      .st81 {
        fill: #fff;
      }

      .st82 {
        fill: #355a61;
      }

      .st83 {
        fill: #61a3ae;
      }

      .st84 {
        fill: #70c2cf;
      }

      .st85 {
        fill: #91ccd6;
      }

      .st86 {
        fill: #94ccd6;
      }

      .st87 {
        fill: #5898a3;
      }

      .st88 {
        fill: #9ed4dd;
      }

      .st89 {
        fill: #64b0bd;
      }

      .st90 {
        fill: #5d939b;
      }

      .st91 {
        fill: #6babb6;
      }

      .st92 {
        fill: #9ed7e0;
      }

      .st93 {
        fill: #76c7d5;
      }

      .st94 {
        fill: #e7f8fa;
      }

      .st95 {
        fill: #4d848d;
      }

      .st96 {
        fill: #468c97;
      }

      .st97 {
        fill: #69b8c4;
      }

      .st98 {
        fill: #182a2d;
      }

      .st99 {
        fill: #e5f7fa;
      }

      .st100 {
        fill: #67b1bd;
      }

      .st101 {
        fill: #91c7d0;
      }

      .st102 {
        fill: #628a90;
      }

      .st103 {
        fill: #b0e0e8;
      }

      .st104 {
        fill: #050607;
      }

      .st105 {
        fill: #030404;
      }

      .st106 {
        fill: #b2e8f1;
      }

      .st107 {
        fill: #38838f;
      }

      .st108 {
        fill: #101f22;
      }

      .st109 {
        fill: #438e9a;
      }

      .st110 {
        fill: #a4d8e1;
      }

      .st111 {
        fill: #5ba4b0;
      }

      .st112 {
        fill: #327f8a;
      }

      .st113 {
        fill: #aee5ee;
      }

      .st114 {
        fill: #5b9ca7;
      }

      .st115 {
        fill: #b2e5ee;
      }

      .st116 {
        fill: #b1e7f0;
      }

      .st117 {
        fill: #070d0e;
      }

      .st118 {
        fill: #243538;
      }

      .st119 {
        fill: #5b9fab;
      }

      .st120 {
        fill: #67969d;
      }

      .st121 {
        fill: #a4dee8;
      }

      .st122 {
        fill: #a5e2ec;
      }

      .st123 {
        fill: #438089;
      }

      .st124 {
        fill: #71aab4;
      }

      .st125 {
        fill: #5ba6b3;
      }

      .st126 {
        fill: #95cad3;
      }

      .st127 {
        fill: #aedde5;
      }

      .st128 {
        fill: #9acdd6;
      }

      .st129 {
        fill: #020404;
      }

      .st130 {
        fill: #0b181a;
      }

      .st131 {
        fill: #40646a;
      }

      .st132 {
        fill: #6fbac6;
      }

      .st133 {
        fill: #55929c;
      }

      .st134 {
        fill: #85b0b6;
      }

      .st135 {
        fill: #59a9b5;
      }

      .st136 {
        fill: #60b3c0;
      }

      .st137 {
        fill: #abd8e0;
      }

      .st138 {
        fill: #192b2e;
      }

      .st139 {
        fill: #a8dee7;
      }

      .st140 {
        fill: #010202;
      }

      .st141 {
        fill: #4d97a3;
      }

      .st142 {
        fill: #a3e0eb;
      }

      .st143 {
        fill: #8bbbc3;
      }

      .st144 {
        fill: #0a1012;
      }

      .st145 {
        fill: #689fa9;
      }

      .st146 {
        fill: #478c97;
      }

      .st147 {
        fill: #030505;
      }

      .st148 {
        fill: #010303;
      }

      .st149 {
        fill: #2d717c;
      }

      .st150 {
        fill: #a4dbe4;
      }

      .st151 {
        fill: #628085;
      }

      .st152 {
        fill: #bbeaf2;
      }

      .st153 {
        fill: #507d84;
      }
    </style>
  </defs>
  <rect class="st47" x=".11" y=".46" width="930.16" height="325.05"/>
  <g>
    <path class="st106" d="M930,.5v324.5H.5C.18,216.93.08,108.73.21.38c309.96-.28,619.89-.24,929.79.12Z"/>
    <polygon class="st99" points=".5 325 0 325 0 0 930 0 930 .5 .41 .53 .5 325"/>
    <path class="st38" d="M475.74,9.36l.09-.57c77.71,0,155.68.18,233.92.56,1.06.93,1.5,1.49.19,2.49-14.04,9.31-25.71,21.74-32.45,37.08-2.6,4.23-4.99,8.62-7.15,13.17-.78,1.76-1.84,2.71-3.17,2.82-7.09,6.25-14.28,16.66-13.84,26.42,2.05-1.32,3.32-1.34,3.8-.07l.9.89c-.68,2.55-1.08,5.12-1.2,7.71,2.41-13.45,10.02-25.19,24.32-26.56l1.58-1.26c.69-1.32,1.52-1.93,2.47-1.83,1.01-1.51,1.8-3.08,2.38-4.72-2.32-2.22-5.19-3.97-8.6-5.24-.9,3.08-2.47,3.96-4.72,2.65-1.19.12-2.03-.2-2.53-.96-.47-.11-.49-.28-.07-.51l.52-.53-.36-1.61c8.12-15.8,15.76-28.99,29.57-40.47,3.79-3.15,10.08-8.21,14.7-9.47l66.34.17.61,1c14.7.3,29.45.41,44.27.33.52,1.53-.47,2.19-1.65,1.11.05,1.28-.74.1-.69.14,3.55,2.89,8.68,12.96,10.41,17.37,1.6,4.07,2.7,8.18,2.11,12.48-.02.74-.18,1.53-.46,2.38.73,2.82.26,4.91-1.4,6.25-.16,3,.03,5.95.58,8.84l-.65,1.08c1.88.51.11,3.28-1.47,2.49-6.31,6.75-8.57,17.18-7.08,26.44l3.89,23.62c-.03,4.79.05,9.53.23,14.21.13-1.06.6-1.72,1.42-2,.44-.56.77-.03,1,1.61,1.26.19,1.75,1.75,1.57,2.87l1.25-.11c.89-1.96,2.32-1.99,4.28-.11,2.22-1.48,3.3-1.05,4.68,1.15,1.76-1.93,3.44-3.96,5.05-6.07,1.1-.87,1.71-.52,1.21.77,1.1.41,1.26,1.37.46,2.89l3.89-8.58c3.91-7.12,9.59-13.07,18.36-12.74,1.96.07,5.43.3,5.81,2.41.12.5-.79.14-.74.15,2.28.43,3.48,1.59,4.51,3.56.77,1.48,2.15,5.24.71,6.3l-1.15.03c-2.07-3.52-5.2-4.45-9.18-3.98-10.76,1.27-14.44,13.55-13.22,22.84,1.02-.04.94-1.23.63-1.95-.4-.19-.8-.46-.84-.86-.65-6.96,5.05-17.25,12.39-18.64,3.16-.6,6.78.03,8.74,2.78,2.75,3.87,2.85,15.88,1.39,20.61-.67,2.17-1.68,5.18-3.26,6.63-2.25,2.4-4.87,4.57-7.87,6.52-1.76,2.11-3.7,4.03-5.82,5.77-7.11,4.08-14.08,8.46-20.89,13.14-.44.27-6.38.81-6.3-.66-.85-.43-.97-1.35-.37-2.78-3.68,7.87-7.45,15.49-11.32,22.88,3.4-4.46,5.99-9.57,8.33-14.69.29-.44.61-.85,1-1.17.26-.22,6.02,1.74,5.72,2.81,0,.29.33.32,1,.08l.74-.94c5.6-.94,10.84-3.24,15.7-6.9l1.13.48.71.03c.08,4.45.32,8.89.72,13.33l1.03.35c.23,5.84.95,11.66,2.16,17.44l-.27,8.19c-4.04,6.33-7.97,12.73-11.78,19.19-.06,2.92.5,5.91,1.67,8.97,1.75,18.43,14.32,37.02,31.82,43.71,11.37,3.13,22.48,6.77,33.35,10.95l.48,1.13c1.72,5.45,1.68,11.8.51,17.38-.34.43-.34.92.01,1.5,1.06-.22,1.03,2.04.29,2.48-.4.28-.64.47-.89.56-.65.03-1.24-.36-1.79-1.16l-23.53.11-.6-1,.99-.89c-3.32.55-6.6.59-9.85.12.64.02,1.3.11.87.79,0,.39-.1,1-.34,1-38.44.49-77.94.65-116,.48l-.6-.99.52-.56,15.97.06c.32-.17.32-.34,0-.5-5.32.23-11.17.46-16.66.49-.9,0,.13-.36.12-.31-.05.32-.33.53-.61.71l-.35,1c-37.44.07-74.88.14-112.33.22l-.62-1c-.78-.59-.74-1.08.07-1.55,16.69-9.4,32.81-20.05,48.33-31.27l1.18.39c1.03,1.85,1.09,4.09.19,6.73-1.68,5.48-3.23,10.88-4.65,16.2,3.84-7.66,6.51-16.35,7.13-25.08l1.12-1.98c1.59-.66,2.11-1.55.09-1.95l-.92-1.32c1.88-10.76.01-20.89-3.15-31.46-.2-.9,0-1.83.24-2.71-.16-1.25-.04-2.1.36-2.55.48-1.26,1.46-1.24,2.65-1.17,8.36,1.35,16.64,1.75,24.85,1.2-8.45-.98-17.04-1.5-25.79-1.55-1.62-.13-2.4-.76-2.35-1.88-1.62-.91-3.5-1.36-5.34-1.67-.19.38-.58.84-.88.71-20.15-8.83-30.36-24.94-36.69-46.31-3.5-11.81-7.31-25.59-8.47-37.79-.57-5.98.42-12.02,2.1-17.72,3.98-10.07,5.96-18.68,1.91-28.88.06,1.13-.24,1.9-.89,2.32-9.81,3.82-19.93,8.15-30.34,13-42.63,17.31-86.72,34.76-130.57,48.72-7.46,3.7-15.16,6.57-23.1,8.61l-1.36-.33c-.46-55.31-.58-110.78-.35-166.42,1.4-.25,2.85-.35,4.24-.06Z"/>
    <path class="st38" d="M224.9,245.08c-2.34.13.85,9.17.51,11.47-.28.52-.83.81-1.17.32,1.39,9,1.86,18.05,1.39,27.16l-1.13,1.54c-.37-.19-.51-.71-.42-1.54-.3,2.68-.36,5.37-.19,8.06.22.32.43.64.57.99.73,1.81-2.99,14.4-4.26,17.54l-1.27.42c-.44.64-.83,1.44-1.19,2.41l-1.29.63c-.22,1.46-1.78,1.41-2.13,0-.86-.4-1.48-.45-2.32,0-.28,1.52-3.46,1.62-3.6-.02-.64-.41-.87-.41-1.5,0-.56,1.29-.94,1.29-1.5,0-1.63-.5-3.36-.48-5,0l-.04.67c-6.15.41-12.43.54-18.84.38l-.59-1c-2-.9-4.04-.91-6.06-.01-.7.46-1.45.92-2.3,1.01-3.87.4-9.33.55-12.69-1.08-4.94.36-10.07.56-14.97-.1-2.35-.22-4.34-.83-5.97-1.83-1.22.05-2.22-.96-3-3.02-2.15.22-5.2-2.19-7.02-3.65-1.48-.74-2.13-1.72-1.96-2.95-1.32-.81-2.48-1.75-3.47-2.83-1.58-1.19-2.93-1.9-4.05-2.13-.49,0-.97-.03-1.43-.13s-.9-.19-1.25-.43c-3.64-2.47-14.22-9.92-15.8-13.14-.21-.43-.36-.89-.49-1.35l-.08-.53c-3.13-2.54-5.77-5.45-7.9-8.74-.55-.69-1.07-1.1-1.59-1.22-.37-.03-.73-.08-1.07-.19-1.81-.59-6.81-7.81-6.26-10.21.09-1.01-.62-2.02-1.2-2.07-.5.03-1.04,0-1.46-.32-1.37-1.03-5.22-10.47-2.36-11.66,2.22-6.37,3.98-12.86,5.3-19.48l1.1-1.37c.52-1.44.92-3.22-.02-4.54-1.56-3.42-1.73-8.38-1.5-12.24.06-.98.51-1.89.99-2.74.47-1.5.41-3.68-.5-4.99-.75-.1-1.17-.49-.96-1.2,1.82-2.88,2.87-5.98,3.15-9.28-.12-3.48-.33-6.93-.65-10.35,2.2-.33,4.31-.93,6.31-1.81,1.48-1.6,2.62-1.72,3.43-.35,2.41,16.14,13.61,34.27,28.46,41.83,12.29,6.26,25.45,10.07,38.4,13.7,3.85.96,7.39,2.36,10.63,4.22,5.15,5.83,8.06,6.68,16.25,7.46,10.98,1.05,21.69.1,32.6-1.76,1.14-.13,2.28.15,3.38.43Z"/>
    <path d="M250.78,171.25c.12.45.12,1.03-.26,1.21-5.89,2.79-13.36-1.58-18.44-4.83-4.04-3.45-8.3-6.53-12.8-9.24-.77-.59-.67-1.09.16-1.66-.29-.08-.28-.23-.01-.43l.48-.55.12-1.13c5.36-2.27,5.74-5.24,3.89-10.57-4.07-10.15-7.71-20.51-10.92-31.06-1.79-4.18-2.27-20.61.96-23.08.27-.21.58-.36.91-.5.66-.92,1.74-1.3,1.01.01.77,1.3.58,2.77-.56,4.42l.43.81c-.28,4.44-.44,8.84-.48,13.21l1.15.6.92,4.5c3.96,11.11,8.16,22.15,12.6,33.1.93,3.43,1.76,8.04-1.01,10.74,1.1,3.19,3.29,5.6,6.57,7.24l-.12,1.17c2.11.67,3.93,1.67,5.44,2.99l.98-.64c1.53.93,3.14,1.6,4.85,2.02l.48-5.37c.01-2.66.75-4.64,2.21-5.93-.33-.79-.17-2.16.59-2.55l-.43-1.6c3.03-7.9,5.03-15.96,5.99-24.19-.49-5.45-2.1-10.73-4.84-15.83-.86-2.35-1.59-4.73-2.23-7.15-.08-.29,0-.62.09-.98s.25-.72.42-1.06c-1.21-.27-1.51-.57-.33-.96-1.16-1.66-1.09-2.66.19-3.01-.75-.41-.47-1.02.12-1.57l-.79-1.66,1.78-11.58c.89-2.3-.64-2.23-4.59.2-6.87,2.19-13.8,3.97-20.78,5.35l-7.81,3.84c-2.13-.06-1.54-2.42-.58-3.74.79-1.08,2.86-2.61,4.16-1.9-.11-1.53,3.25-3.06,4.67-3.51,8.21-.91,16.46-3.85,24.13-7.12,1.06-.3,1.63,0,1.82,1.12.38-.35.7-.34.96.04l.5-.5c-.46-.11-.43-.28.02-.5-1.03-.76-1.68-3.6-.52-4.5-.83-1.06-1.34-2.09-1.52-3.09-1.01-.63-1.77-1.44-2.4-2.43-2.85-4.52-5.24-10.92-7.08-16-3.22-11.89-7.88-23.28-15.8-32.87l-.77-2.47c-1.78-1.4-3.22-3.19-4.31-5.37-.7.31-1.5-.04-2.4-1.05-3.08-.11-6.12-.04-9.11.22.66,1.8,1.81,6.8-.61,7.46-.32.09-.69-.45-.92-.85l-1.23-.81c-.5-2.26-1.37-4.26-2.62-6.01l-27.79.19,7.84,3.39,3.83-.97c3.05.62,6.17.83,9.35.63,2.16.34,3.54,1.22,4.14,2.62.47-.68,1.49-.25,1.89.45,1.03-1.06,2.42-.23,2.56,1.11,2.01,0,1.57,2.81-.22,3.49l-9.56-2.43c-1.77.81-3.62.76-5.56-.15-.15,1.76-.39,2.59-2.36,2.4-7.28-3.5-14.69-6.73-22.2-9.68-1.96-.15-3.31-.73-4.05-1.74-20.97-.26-42.02-.28-63.13-.06l-.76.79-33.45.02-.25-.82-50.26-.09-.57.3,1,.35c-.29,22.55-.46,45.07-.49,67.54l19.73-2.48.72.92c.31-.03.47.15.5.5l.09.66c-6.85,1.72-13.89,3.19-21.11,4.41-.65,51.82-1.1,103.59-1.35,155.33l65.72-11.52c1.66-.51,2.95-.48,3.85.07-.44-8.23-1.06-16.4-1.83-24.5-1.85-.09-3.84-1.82-4.37-3.69l-4.13-18.08.48-2.31c-5.54-3.25-8.32-4.88-8.32-4.88l-45.08,7.37c-3.32-.96-1.88-3.22.79-4.19l40.06-6.11c-9.34-8.15-12.87-21.54-15.22-33.38-1.02-5.16-1.73-10.21,1.15-14.8.96-1.53,2.97-4.36,4.79-3.37l.27-1.28c5.77-1.86,11.82-2.35,18.16-1.48l-1.74-1.87c-5.84,2.87-4.43-9.48.23-7.53,6.15,7.5,12.49,14.84,19.01,22.01l-.5,1.05c.61.95.84,1.43-.33.95-.47-.06-.93-.14-1.37-.29s-.82-.3-1.15-.56c-3.34-2.62-7.41-6.29-9.2-9.97-1.8-.42-3.65-.48-5.54-.2l-.33-.39c-.67.19-1.06.54-1.15,1.05l-9.6.47c-3.73.58-8.64,2.89-9.08,7.12-1.11,10.65,4.75,26.64,10.67,35.54l.17,1.76c1.11-.55,2.44,1.43,3.07,2.41l1.97.39c6.05,5,13.41,8.03,21.01,9.75,12.05,3.39,7.53-6.79,4.7-12.98,2.12-5.51,5.38,2.81,6.45,5.63l1.96,1.56c2.33,20.35,14.37,42.37,34.66,49.57,11.39,4.69,22.83,8.84,34.31,12.44l.25,1.11c.92-.04,1.57.25,1.94.86.4.3.55.3.44.02-1.05-.34-1.5-.82-1.35-1.42l-1.39-.39c-1.07-.82-4.92-5.96-3.19-7.01-.11-.52.08-.68.57-.49l1.81.78c3.67,4.57,7.97,8.84,12.35,12.6,1.02.88,2.36,1.87,3.71,2.09,15.55,2.49,30.53,2.1,45.66-1.66l1.63.48c1.02-1.13,1.94-1.45,2.78-.95-.27-1.4,1.89-3.97,3.34-3.79l-.39-.65,2.14-4.45c-.23-.06-.45-.13-.63-.25-.35-.25.64-7.39.92-8.38,1.2-.41.97-1.91.66-2.99-.15.24-.3.23-.46,0-1.55-.32-1.43-1.83-.05-2.28.31-2.83.82-5.65,1.45-8.5.08-.36.14-.58.62-.6l-.58-1.36c-.09-.33,2.21-5.87,3.49-5.63.03-1.45.3-3.68,1.51-4.39l-.52-1.67c.56-1.93,2.54-12.55,1.96-13.36-.14-.2-1.11-.42-1.43-.28-2.52,2.2-5.67,2.63-9.45,1.31l-1.37.26c4.97,7.05,2.06,10.06-6.08,9.78-12.59-1.89-27.02-2.56-39,2.14-5.14.91-6.36-1.08-5.92-5.88.16-1.75.7-5.18,2.32-5.83.09-.44-.11-.56-.48-.46-.16,2.78-2.53,2.37-4.71,1.8-2.08.57-4.08,1.68-6,3.33-2.03,1.01-4.36,1.85-6.65,1.86-1.44.01-4.42-.22-3.6-2.07-2.29-3.18,1.23-2.91,3.69-2.53,3.69-1.2,7.24-3,10.64-5.39,1.27-.5,2.46.3,3.15.96-.06-.61.46-.91.91-.52,0-.5.16-.94.47-1.33.44-.54,11.69-3.91,13.31-4.22,5.78-1.1,15.29-.73,21.35-.46,2.74-.69,5.5.27,8.07,1.18.81-1.58,1.81-2.09,2.99-1.56,3.06,2.54,6.41,3.94,10.06,4.18l.29,1.1c.87-.42,1.69-.55,2.44-.39-.38-.8,0-1.43,1.12-1.89,3.66-.49,6.76-1.81,9.29-3.94l1.16-.24c.92-.67,1.64-.11,2.1.68,1.15,1.98-3.2,3.12-5.26,5.45.25,4.75-.1,9.5-.78,14.59l179.43-36.91,20.72-4.39c.31-.07,1.1.65,1.03.95-.06.22-.38.71-.94.83l-200.44,40.67-2.19,7.36c-1.41,4.75-3.94,9.1-3.61,14.56l64.9-12.87c.86-.13,1.2.07,1,.61l-65.76,14.42c-.82,7.86-1.17,19.49-8.28,23.97-2.51,1.58-5.7,2.02-8.4,2.51-8.02,1.44-16.13,2.45-24.54,2.81-6.74.28-13.31-.53-19.82-1.81-5.26-1.04-6.22-6.75-13.3-8.8l-22.47-6.52c-6.12-1.77-11.47-4.71-17.4-6.99-8.33-3.2-15.11-8.47-20.28-15.72s-9.95-14.25-11.68-22.72l-1.32-6.45c-2.26,2.1-4.91,3.29-8.06,2.92,1.24,5.19,1.78,10.95-.22,15.91-.74,1.83-2.15,2.4-1.91,4.5.91,1.27.97,3.5.5,4.99-.03,4.99.27,9.98.51,14.98.95,1.31.57,3.08.02,4.54-.23,4.68-1.54,9.08-3.23,13.64-1.23,3.31-1.83,6.69-3.71,9.68,1.18,3.59,2.27,6.79,4.36,9.51.73-.03,1.33,1.31,1.2,2.07,2.05,3.7,4.46,7.3,7.33,10.4.53-.21,1.12.66,1.12,1.22l8.45,9.27c5.9,5.45,12.19,10.77,18.97,15.04.83-.38,2.03.84,2.47,1.53l5.06,3.43c2.64,2.61,6.08,4.29,8.98,6.59,2.78,2.61.33,3.81-2.81,2.79-20.34-11.57-38.07-25.38-50.8-45.17-1.64-2.55-8.54-16.04-6.83-19.1.44-.78.87-1.17,1.7-1.54l2.66-10.46c.58-.62,1.1-1.29,1.54-2.02-.77-.92-.98-2.25-.62-3.97-23.09,4.2-46.2,8.5-69.34,12.93l-.15,20.97,39.9-8.35c4.53-8.06,15.89-20.49,25.04-22.54,1.62-.36,4.19-.81,4.23,1.36.43.39.37.97-.17,1.74-7.84,2.01-15,8.78-19.85,15.26-11.52,20.25-30.37,37.82-49.51,50.62.18,1.8-.26,2.91-1.31,3.32.32,2.21.28,4.4-.13,6.58,1.61.08,1.44,2.15-.3,1.93-.98-.56-.65-1.74-.65-2.95l-.16-40.86c0-1.91.1-3.13.12-5.16l.74-110.27.98-142.98c-.59-.46-1-.72-1.02-1.01.02.23,1.58-2.94,3.1-2.57.15.52.17,1.85.68,1.84l17.09-.19,90.34-.66,65.95-.35h16.64s255.08-.73,255.08-.73l2.74-2.17c1.07,2.26.51,4.11.49,6.72l-1.52,237.45-.72,67.86c-1.8-4.33-.53-8.45-1.13-13.02l.17-117.2.77-177.06-237.06.38c5.34,5.87,9.68,11.67,13.7,18.29,3.84,6.38,6.16,13.32,8.39,20.68l209.02-27.92c.7-.09,1.62.71,1.6,1.12s-.74,1.01-1.54,1.12l-208.51,27.18c1.66,5.72,4.09,11,6.7,16.21,1.17,2.35,1.9,4.76,2.78,7.12,1.18,3.17-.01,5.53-.38,8.58l-1.7,13.94c-1.53,12.55-1.68,9.92,3.22,18.78,3.59,6.49,4.77,13.3,3.07,20.93l181.36-30.74c1.67-.28,3.42-.66,4.02.9-.48.99-2.08,1.3-3.46,1.53l-182.4,30.13c-1.52,4.01-1.75,8.03-2.87,11.92-1.71,5.95-3.65,11.53-4.14,17.75-.09,1.15-.63,2.3.09,3.19Z"/>
    <path class="st54" d="M135.95,309.09c-.13-.1,1.17-.04,3,3.02,1.41-.15,1.76.98.57,1.81-.76.21-1.63.37-2.59.48-.29,1.28-1.79,1.13-2.5.13l.09-.61c1.49-.47,1.26-.31-.69.48.07.4-.02.71-.35.88l-107.33-.05c-.39,0-.56-.14-.62-.67-2.38-.43-5.19-.48-7.53.02.04,1.01-1.32.99-1.5,0-.43-.29-.77-.29-1,0-.34,1.08-3.71,1.01-4.5.27-.08-.79-1.19-1.03-1.8-1.38.54-.41.27-1.31.3-1.93.24-1.18.4-2.35.5-3.49.43-.98.41-2.06.04-3.06-.13.33-.27.32-.41-.03l.36-3.93c9.09-6.56,18.27-12.69,26.12-20.8,5.93-6.12,11.03-12.51,16.58-18.91,5.63-6.49,4.51-12.51,20.91-23.95,4.22-2.95,6.82-1.21,6.86-3.36-.19-1.36.1-1.48.94-.4l-3.49,13.74c-4.37-1.37,1.51,11.85,2.31,13.44,5.94,11.87,14.48,21.78,24.67,30.26,8.45,7.02,16.94,13.13,26.38,18.67,1.65.97,3.1,2.15,5.22,1.28l-.54-1.89Z"/>
    <path d="M922.99,272.52c.17,11.19.52,22.43,1.04,33.71.21,1.95-.12,3.69-.99,5.2l-.23,4.95c-.45.03-.71-.23-.98-.39l-.29-2.48c-.25-.48-.48-1.07-.01-1.5-.04-5.81-.19-11.6-.51-17.38l-1.04-1.16c.1-4.09.22-8.14.36-12.15-.54.12-1.06.02-1.59-.13-11.31-3.24-31.69-9.83-40.9-16.05-1.06-.72-2.06-1.46-2.73-2.6-6.76-11.48-10.58-21.5-11.13-34.98-.11-2.72-.27-13.09,1.36-14.35.33-.26.87.1,1.18.5,1.41-.05.84,3.61.53,4.99l1.02,1.53c.41,13.13,2.7,27.58,10.54,38.46,3.26,4.53,6.5,6.38,11.8,8.06l29.22,9.66.34-.28-1.14-263.68c-2.99-.57-7.2-.99-10.32-.35-13.86,6.66-27.97,13.18-42.32,19.56-2.44-.18-2.6.29-.47,1.4,15.38,19.67,30,46.72,30.23,72.2.02,2.01.04,7.74-1.09,8.92-.23.24-.52.44-.81.63-.74,1.04-1.4.7-1.97-1.01l-.87-1.87c-.04-9.23-.37-18.56-3.49-27.35l.31-2.11c-.37-.26-.32-.81,0-1.1-.52-.42-.85-1.09-1-2-.41-.06-.36-.63-.12-1-1.34.27-1.96-.97-.88-1.9-.63-.6-1.31-2.5-1-3.59-.71.56-.98.22-.43-.5-.61-.21-.88-1.31-.68-2-1.34.18-1.59-.3-.75-1.44-.73-.88-1.28-2.06-1.63-3.55-.35-.05-.36-.22-.09-.5-1.29.22-1.39-.31-.79-1.44-.42-.12-.43-.31-.06-.56-1.4-1.25-2.46-3.64-2.69-5.49l-2.2-1.86c-5.1-9.1-11.08-17.29-17.92-24.56l-15.57-14.6c-1.37-1.18-1.61-2.17-.71-2.97-.23-1.17.31-.99,1.62.54.33-.23.83-.56,1.09-.38,1.74,1.16,4.63,3.76,6.19,5.26,1.66.94,2.37,1.98,2.15,3.13l1.24-.02c2.91,2.49,5.92,4.91,9.02,7.23l33.88-17.13-20.51-.13-.59-1-4.08.96-28.82-.27-.59-1c-1.12,1.16-1.93,1.28-2.43.37l-1.9.84c-2.55.13-7.92.14-10.26-.22-.36-.06-.68-.37-.99-.75-14.52.09-29.01-.02-43.46-.33l-67.29-.17c-9.76,4.68-22.1,15.89-28.39,24.34-3.86,5.19-6.66,10.73-9.72,16.39-1.85,3.4-4.05,6.39-5.45,9.83l-.52.53c-.05.15.09.34.07.51l.44,1c-.76,1.38-5.32,7.52-6.61,7.55-3.44.08.24-4.9,1.61-5.57,2.79-3.23,4.25-7.33,6.3-11.27,1.32-2.53,3.26-4.61,4.03-7.46,2.61-4.28,4.72-8.59,7.72-12.66,6.81-9.25,15.34-16.59,25.15-23.17l-148.63-.58-85.99-.41c-1.43-.22-2.85-.22-4.24.01-.02,51.63-.03,103.5-.05,155.58l-.39.35c-.54,1.85-1.14,2.18-1.79.97l.46-157.35c.01-1.08,1.25-.65,1.74-.65l21.7-.27c60.37-.29,120.58-.55,180.64-.78,16.79.1,33.41.36,49.86.77l116.86.22,76.9.15c1.61,0,2.77.19,4.08-1.24,1.28,1.95.66,3.36.67,5.43l.27,74.84.54,185.11Z"/>
    <path d="M471.07,165.3c.7,6.79.82,13.99.03,20.78-.55.73-.74.92-1.12.19-.15-.29.83-.42.73.54,1.33.07,1.81.28,1.1,1.53l.57.83-.13,124.26c.04,1.2-.38,1.7-1.51,1.07l.04,1c33.24-.48,66.65-.8,100.25-.96l.62.99c16.15-.45,32.32-.6,48.49-.43,2.16-.65,4.38-.59,6.68.18,2.09.2,3.7-.42,4.83-1.86.66-1.92,2.17-3.42,4.51-4.49,11.29-6.36,22.61-12.51,33.97-18.45l.99.6c9.67-5.2,19.28-10.49,28.84-15.87l1.23-.26c1.32-.81,2.57-1.73,3.75-2.76l.62.42c.02-.71.34-1.33.94-1.87l.65-2.18c-.44-.11-.86-.34-.84-.7.45-8.49-.62-15.98-2.55-24.64l.43-1.62c-1.38.25-1.4-.51-.15-1.05-.88-1.57-1.82-2.36-3.31-3.39l-1.81.21c-23.14-9.53-35.41-32.96-39.8-56.56-3.39-9.26-5.7-18.73-6.91-28.42l.44-1.62c-1.44-6.6-.95-12.77,1.48-18.51l-.38-1.66c1.67-3.51,2.76-7.11,3.26-10.8l-4.12,1.83-.76-.88c-.75.53-.97.25-.4-.48l.18-1.13,5.74-3.02c.25-3.1-.15-6.17-1.21-9.22l.76-1.07c-.36-1.45-.64-3.45,1.51-3.93l2.33,8.99c3,11.59-7.69,21.4-5.89,39.93.89,9.13,3.37,17.48,5.33,26.45,3.18,14.54,8.41,28.12,17.62,39.89,2.97,3.79,6.41,6.91,10.12,9.88,1.57,1.25,9.74,5.59,11.89,6.46,1.77.32,3.85.72,5.34,1.67.79.23,1.92,1,3.15.93,4.07-.22,7.92.36,11.98.59,3.76.21,14.03-.6,14.88,2.31-2.25,2.25-19.96.24-23.35-.31-2.12-.34-4.13-.39-6.02-.13-.49-.2-.61.65-.36,2.55,1.73,6.11,3.36,12.34,4.39,18.86.89,5.63-.32,11.21-.57,16.63,1.46.06,1.32,1.7-.09,1.95-.37,7.91-2.03,15.51-5.39,23.02-.83,1.84-1.14,4.43-3.07,5.47-.87-.24-1.04-1.93-.74-2.84l3.47-10.58c1.21-3.71,1.76-7.31,1.94-10.94l-.94-.85.74-5.85c-5.36,3.26-10.78,6.47-16.24,9.63-17.75,9.44-35.2,18.94-52.36,28.49,5.99.2,12.06.31,18.18.35l1.04.66,113.29-.22c.13-.69.47-.6.67.11l20.61-.14,96.33-.35c.13-.25.26-.45.41-.47.93-.09,6.82-.36,7.1-.15.2.15.34.36.48.59l24.02-.11c1.28,0,1.69,1.32,1.91,2.15-1.41.45-2.36.44-4.12.45l-281.63.68-165.04.16-.46-3.82-.37-37.5c-.88-89.38-.65-178.63.42-267.58l.05,157.26c.59-.17.69-.95,1.28-.88Z"/>
    <path d="M225.4,256.55c6.77,1.79,12.43,5.48,17.89,10.1l10.25,8.68c8.55,7.24,23.52,11.06,34.52,12.99l39.5,6.94,56.75,10.18c6.82,1.22,12.29,6.16,18.59,8.47l48.83.26c.8,0,2.08-.32,2.47.4.26.49,1.11,1,.46,1.99l-233.93-.25c-.4.93-.87,1.77-1.33,1.4-.32-.26-.47-.77-.9-1.42l-123.53-.19-83.58-.24c-.44,0-.68-.39-.71-.54s.26-.33.32-.48l4.5-.27c.28-.39.6-.22,1,0,.48.13,1.01,0,1.5,0,2.36-.51,5.13-.44,7.53-.02l108.3-.16c.18-.65.55-.57.6.13.83-.25,1.66-.14,2.5-.13,7.34-.05,14.69-.16,22.04-.32-.11-1.15.23-.96.92-.04,4.98.31,9.99.06,14.98.07,1.87-.94,4.19-.93,6.06.01l19.46-.05c1.63-.48,3.37-.51,5,0,.5.02,1,0,1.5,0,.49-.64,1.02-.66,1.5,0,1.2.22,2.39.02,3.6.02.9-.86,1.53-1.11,2.32,0h2.13c1.19-.64,2.02-1.65,2.48-3.05,1.07-2.19,1.33-4.72,2.23-7.18,1.45-3.96,2.37-7.83,2.73-11.77-.48-2.48-.28-4.65.6-6.51,1.58-17.06-1.77-22.61-1.67-38.82l2.17,9.66c.16.06.32.12.41.14Z"/>
    <path class="st54" d="M212.81,154.82c1.98.41,4.01.65,6.07.72l.55,1.18c.06.94,1.08,1.29,1.85,1.69,7.26,3.74,9.68,9.96,23.5,13.91,2.01.57,4.41-.36,5.98-1.08.32.4.73.84.61,1.42-.58,2.77-6.97,4.54-8.99,4.69-.95.07-1.81,1.08-2.58,1.37-.77-.13-1.59,0-2.44.39-1.77-.51-3.91-.15-5.65-1.22l-5.69-3.5c-.7.66-.94,1.63-1.68,2.17-2.67-.92-5.57-2.1-8.31-1.36.43-.12-19.23-.34-22.54.71l-6.7,2.12c-2.19.69-4.07,1.22-5.97,2.18-.68-.18-.99,0-.91.52-.77.82-1.74-.33-2.81-.04-3.04,1.8-5.87,3.72-9.08,5.1s-6.23-1.59-5.6,1.91c-.59.59-1.27.38-2.03-.64-3.73-.48-1.09-5.3,1.55-4.36.42.57.62.58.61.02,2.37-.4,4.52-1.17,6.45-2.33,1.97-5.73,4.62-11.02,7.96-15.84,3.75-2.74,8.34-4.07,13.78-3.98,2.99-.32,5.47-1.74,7.46-4.27,2.97.12,5.55-.54,7.74-1.99,1.63-.81,3.44-1.46,4.3.63,1.04-.71,1.88-.76,2.53-.14Z"/>
    <path class="st60" d="M723.67,8l-73.06-.06-157.43.07c-.21-.28.24-.29.56-.63,6.56.48,12.69-.19,19.31-.19l80.86.04c13.7,0,26.94.3,40.47-.01l17.33-.4c13.39-.31,26.5-.55,39.87,0,3.9.16,7.47.07,11.28.44,6.57.63,13.06-.02,19.74.29.49.02,1.22.03,1.06.46Z"/>
    <path class="st9" d="M322.33,201.28c-.56-.12-.89-.34-1-.67l105.95-21.25,16.81-3.44c.46-.09,1.33.75,1.12,1.03-.15.2-.43.69-1.04.81l-121.84,23.53Z"/>
    <path class="st93" d="M923.04,311.43l-.04-38.92c.3-.21.41.22.41.59l.32,21.96c.03,1.73,3.46,15.01-.69,16.36Z"/>
    <path class="st20" d="M320.29,200.74c.65.1,1.16.28,1.54.54l-14.49,2.91c-.2-.37-.6-.54-1-.61,4.63-.92,9.24-2.27,13.96-2.84Z"/>
    <path class="st73" d="M321.33,200.61c.43.04.82.27,1,.67-.16.03-.34.01-.5,0-.5-.05-1.44.11-1.54-.54.34-.04.7-.06,1.04-.12Z"/>
    <path class="st54" d="M839.65,10.98c1.03.08,1.75,1.51,1.84,2.45l.54,1.14c.95,2.03,18.11,16.56,20.72,20.15,5.41,7.46,10.81,14.77,15.15,22.69.46,1.91,1.17,3.74,2.13,5.49l.62.56c.37.41.64.91.79,1.44-.25.35-.22.69.09,1,.44,1.18.99,2.2,1.63,3.05.24.49.61.89.75,1.44-.19.75.06,1.6.68,2,.26.07.37.26.43.5-.27,1.24.51,3.33,1,3.59.17.62.8,1.19.88,1.9-.25.47-.21,1.08.12,1.5.37.4.6.98.5,1.5l.5,1.1c4.02,10.79,4.24,20.05,4.05,31.33v.56s-1.46-.41-1.46-.41c-3.87-5.5-11.03-8.44-17.68-7.76-11.41,1.17-15.73,7.88-19.93,18.24l-1.44.91c.94-2.8-5.56,6.99-6.32,6.86l-2.15-2.75c-.9.07-1.83,1.26-2.79.99-.74-.21-1.34-.69-1.93-1.63-.84.4-1.13,1.36-1.96,1.86s-1.05-.65-1.33-.95l-.74-3.61-.82.74c-.42-.49-.39-1.27-1-1.61l-.75-1.84.47-6.76c-.93-9.64-2.42-19.15-4.47-28.53-1.35-8.84-.07-18.52,6.29-25.13.61-.81,1.56-1.41,1.47-2.49l.55-.96c.2-3.64.7-7.26,1.47-10.84-.85-2.77-.7-5.03.44-6.79l-.47-1.02c1.67-3.05.24-7.1-1.01-10.13-2.65-6.4-6.87-12.52-10.97-18.04l.09-.76c.3-.17.89-.33,1.41-.87l-43.42-.12c-.41-.02-.81-.16-.6-.45l43.46.08c4.63,0,8.89-.05,13.15.39Z"/>
    <path class="st106" d="M657.22,105.84c.89,3.58,2.07,6.83,1.41,11.07-2.52.53-4.68,2.67-6.87,3.38-.32.38-.67.72-1.08.91-35.91,16.48-71.29,30.03-108.34,43.9-22.13,7.37-44.55,14.39-67.25,21.08l-2.8-.43c-.23.1-.45.17-.65.14-.5-.09-.02-9.21.21-10.03,7.08-1.83,13.78-4.56,20.57-7.76,5.17-2.43,10.52-3.4,15.88-5.29l32.83-11.58c6.96-2.46,13.26-5.54,20.32-7.7,10.81-3.29,18.61-7.87,29.52-11.45,4.59-1.5,8.89-3.21,13.39-5.06l20.88-8.58c5.87-2.41,11.22-5.08,17.07-7.56l13.79-5.85c.41-.17.89.74,1.12.81Z"/>
    <path class="st54" d="M699.03,138.78l.59.5c.31-.11.66.05,1.04.5,1.02-.14,2.04.34,3.07,1.43l2.3.88c10.72-.5,14.73,1.39,19.8,11.83,2.13,5.76,4.61,11.36,7.45,16.79l-.11,1.98c.17.23-.04.37-.62.44l-.96.64c-6.48-3.83-13.37-6.56-20.66-8.17-2.09-1.31-4.09-1.52-6.02-.65-3.3-.49-6.53-1.35-9.67-2.58-3.01.92-6.19,1.87-9.36,1.69-1.13,1.49-2.79,2.55-4.97,3.18-.81.95-1.64,1.29-2.48,1.04-.53.61-1.25.68-2.15.21-2.59,2.71-4.41,5.77-5.46,9.2-3.64,4.09-4.11,3.95-4.84-2.26-1.1-9.29,1.22-19.51,5.2-27.84l1.88-2.36-.44-.41c.58-.5.76-1.22,1.96-.96.58-.74,1.24-.56,1.98.54.35-.61.74-.82,1.52-.62.35-.1.67-.24.99-.42,2.09,1.65,4.74-.66,5.26-3.15l.88-.84c2.91.88,5.9.26,8.98-1.35-.42-.36-.85-.28-1.06-.68.61-1.98,6.58-.72,5.9,1.46Z"/>
    <path class="st106" d="M865.48,210.7c.77-.25.79.85.56,1.47.33,0,.49.17.5.5.79.17.88.97,0,1.04-.71.06-.87.61-.98,1.49-2.17,16.43,1.39,33.04,10.41,46.78,1.34,2.04,2.9,2.55,4.8,3.55,3.74,1.98,7.25,4,11.33,5.46l20.24,7.22c2.79,1,5.68,1.8,8.63,2.48.72,4.75-.2,9.43.06,13.94-2.48-.42-4.67-2.03-7.31-2.86l-17.88-5.6c-4.81-1.51-9.76-2.54-14.29-4.85-9.15-4.67-18.93-17.15-23.09-25.92-2.72-5.72-2.88-12.16-4.53-18.22-.61-2.23-1.85-5.24-1.25-7.38.49-1.97,12.16-19.55,11.88-19.31.2-.18.61.04.93.19Z"/>
    <path d="M723.61,172.83c.36-.34,1.22-.03,1.5.41.62.28.62.11,0-.5-.51.28-1.34.04-1.5-.57-1.02-.77-2.22-1.37-3.68-1.7-4.12-.93-8.01-2.1-12-3.54-1.26-.45-2.5.08-3.75-.02-3.03-.24-5.97-2.52-9.07-2.33-2.72.16-6.08.67-8.63,1.51-3.07,1.02-5.18,4.07-8.41,4.14-2.03.49-1.48-2.48.39-1.96,2.19-3.28,4.72-1.9,7.07-5.08,3.32-.04,6.4-.87,9.71-1.81,3.11.74,6.19,2.24,9.36,2.56,1.17.12,2.14-1.22,3.72-.44,4.24,2.1,9.25,2.06,13.45,4.18l10.8,5.44c.53-.06.73-.2.62-.44-2.34-4.57-4.79-9.01-6.5-14.08-1.33-3.93-3.28-7.43-5.71-10.71-6.98-9.39-14.01-.37-20.3-8.12l-1.04-1.03c0,.41-.28.33-.59.03-1.66-1.34-3.83-1.5-5.9-1.46-1.57.03-3.55-.5-4.36-2.07-2.95-5.71,10.28-3.6,14.54.22,1.77,1.59,3,3.27,5.34,3.58,2.17.28,4.13-.9,5.93-2.19,3.04-2.18,4-5.28,2.12-8.61l-3.94-6.97c-.24-.43-.18-1.15.13-1.19,2.07-.3,4.65,5.4,6.07,7.51,4.47,6.61,17.18,11.05,24.7,29.61.11.28-.98.56-1.07.31-.07-.17-.54-.28-.71-.63-3.7-7.45-8.53-14.05-14.92-19.43-2.56-2.16-4.85-4.16-7.06-6.58,0,2.78-.64,4.87-2.42,6.75l-3.18,3.35c3.76.32,6.66,1.96,8.93,4.81,6.29,7.91,6.31,14.81,13.02,25.33.62.97,1.14,1.69.87,2.84-.19.82-.77,1.64-2.14,2.14,1.01,1.19,1.87,2.76,1.53,4.49-.16.82-1.78,1.61-2.27,1.17l-1.64-4.01c-.7-1.71-3.58-1.06-5.38-1.19-6.51-.48-14.25-2.18-20.7.6s-13.24,4-20.43,3.2c-2.27-.25-4.61.26-6.86.46-4.03.36-1.76,5.09-2.8,6.19-.29.3-1.38.91-1.55.52-1.69-3.83-.87-8.07,2.69-10.4,3.31-2.17,6.55-5.17,10.45-6.39,8.67-2.71,17.73-1.88,26.47.18,3.13.74,6.19,1.82,9.13,1.9Z"/>
    <path class="st106" d="M705.71,282.7l-12.78,9.11-21.46,14.03-13.6,7.95c-.72.42-1.48.65-1.74,1.34-7.22.01-14.39.64-22.37.11,3.12-2.69,6.91-4.42,10.59-6.43l21.98-11.99c13.63-7.44,27.3-13.98,40.11-23,.35,3.41-.59,6.09-.73,8.88Z"/>
    <path d="M892.07,114.36c.98.42,1.5.87,1,1.99l1.34,1.44c3.1,11.54,1.59,24.02-4.78,34.19l-.88,5.49c-4.21,15.26-8.7,30.37-13.46,45.34-.72,3.44-2.13,6.21-4.23,8.31l-1.91,3.62c-.46,0-.83-.21-1.12-.59-.88.05-1.05-.34-.39-.94.03-2.1.62-4.17,1.78-6.21.5-2.41,1.49-4.35,2.97-5.81-.19-.76-.08-2.27.69-2.5-.16-.74-.26-1.41-.31-2.01l1.13-.49c-.2-.23-.15-.4.14-.5-.43-2.69-.01-5.44,1.24-8.26,3.37-10.36,6.77-20.69,10.22-30.98l.98-1.16c-.03-.31-.18-.47-.49-.49-.58,2.11-2.28,3.82-5.09,5.13l-14.22,8.75-1.15-.48c-.19.73-.89.93-1.56,1.04.44,1.3-1.96,2.37-2.87,2.11-4.57,2.74-12.29,8.07-17.58,7.36-.48.22-.82.2-1-.08-1.78-.65-3.75-.48-5.38-2.24-2.46,5.74-5.54,11.4-9.26,16.62-.57.1-2.03-1.26-1.6-2,4.24-7.37,8.16-14.63,11.51-22.46.41-.95,2.2-1.68,2.49-.94-.33,1.48-.95,2.84-1.13,3.98.74.45.88.87.3,1.43,5.26,2.94,10.02.76,14.78-2.4,8.12-5.33,16.37-10.48,24.74-15.43,10.36-7.17,13.15-16.88,11.87-29.21-.78-7.49-1.99-12.12-9.12-15.39l-.18-.73-1.09-.49c-.08.46-.21.44-.37-.02-5.79-2.72-12.55-1.47-17.54,3.04-8.01,7.25-7.38,16.33-12.84,20.02-.52.35-1.11.1-1.32-.16-1.34-1.68,3.18-1.78,3.18-6.88,2.34-6.03,5.14-11.8,10.09-16.27,1.57-1.42,3.07-1.62,4.85-2.3,5.26-2.01,10.2-2.3,15.52-.37,4.31,1.57,7.71,4.11,10.03,7.96Z"/>
    <path class="st54" d="M774.63,83.24l-2.23-.55c-8.86-7.23-19.15-12.13-30.54-13.01-4.11-1.78-7.46-2.98-12.06-2.64-2.38-.63-4.61-.84-6.69-.65-2.93,6.97-10.27-2.87-8.87-6.83,1.19-1.14.21-2.87.96-4.47,2.01.68,3.74,1.89,5.57,3.12l.41-4.2c6.66.07,12.69,2.12,19.06,3.55,4.31.96,8.62.85,12.71,3.1,5.17,2.84,12.07,4.32,15.29,8.98l3.51,5.07c1.67,2.41,4.23,4.36,5.08,7.19-.96.5-1.86.62-2.2,1.33Z"/>
    <path class="st54" d="M886.5,155.3c-3.26,13.32-9.27,27.27-12.44,40.4-.26.14-.39.3-.14.5-.16.89-.44,1.7-.82,2.5-.72.05-.88,1.71-.69,2.5-1.17,4.19-2.68,8.27-4.75,12.02-.87.19-.79-.59-.12-1.04-.53-.17-.87-.67-1-1.5l-.46-.22.47-6.82-.8-.72c-1.15-10.32-1.95-20.56-2.39-30.72l.2,11.8-.99.73c-.91-.75-.83-11.95-1.43-13.36.84-.5,2.04-1.68,2.87-2.11.73-.16,1.28-.3,1.56-1.04,3.07-1.83,19.21-11.31,20.45-13.4.52-.19.69-.03.49.49Z"/>
    <path class="st106" d="M880.1,109.33c.1.04.27.03.37.02l1.09.49c4.14,1.23,8,4.3,9.04,8.9,2.68,11.8,2.54,22.65-5.19,32.37-3.68,4.63-17.75,11.89-23.43,15.49-4.93,3.13-9.24,6.91-15.02,8.59-2.78.81-6.08-.43-8.53-1.54-.48-.76.66-1.56.74-2.08l5.93-.23c5.75-4.08,11.52-7.86,17.72-11.21,2.91-1.57,5.12-3.34,7.17-5.94,2.15-2.72,5.45-4.16,7.95-6.53.63-.59,1.69-1.34,2.13-.87.46-.19.94-.42,1.26-.82,5.3-6.89,4.43-17.73,2.64-25.64l.61-1c-.47-2.69-1.67-9.06-5.64-9.71.35-.58.79-.35,1.16-.31Z"/>
    <path class="st54" d="M685.2,70.21l-.85-.66c-.51,1.18-1.25,2.15-2.23,2.88-11.23.77-20.44,7.15-23.69,18.37l-1.3.45c-1.69-.5-2.78,1.47-4.94,1.11.34-2.23-.34-4.86.48-7.02,2.89-7.61,2.94-6.8,6.56-13.34,1.87-3.37,4.58-5.75,7.94-7.1,1.26-1.46-2.28,4-2.17,4.45.45,1.89,6.1-7.01,6.73-7.43,1.39-.29,3.61-.2,4.83.99l2.07-4.26c3.18,2.09,6.84,3.33,9.63,5.76,1.17,1.91-1.27,4.86-3.06,5.79Z"/>
    <path class="st6" d="M678.09,143.76c-.28.59-.88,1.93-1.76,1.6-.67-.25-1.2-1.22-1.74-1.52-5.75-10.69-3.18-25.33,4.61-34.62-.42-.92.91-1.5,1.78-1.81-.2-.6.94-2.34.91-2.23-.24.79-.57,1.76-1.43,1.76-.13,1.1-1.31,1.66-2.36,1.82-1.14.08-2.51.3-3.5-.65-.65-.62-.77-1.83-1.07-3.12-3.35,2.39-2.86,9.97-9.33,10.49-1.32-2.22,2.91-2.37,4.22-6.34,2.08-6.3,7.43-10.93,14.17-11.4,1.57-.11,2.81.2,4.26,1.17,1.98-3.31,3.33-6.89,4.05-10.72,1.03-5.43-2.38-7.6-4.14-11.23-.75-.63-.46-.91.44-.44,9.35,7.14,5.6,14.71,1.45,23.64-2.1,4.53-5.04,7.78-8.25,11.56-6.98,8.23-9.39,23.66-2.32,32.02Z"/>
    <path class="st51" d="M774.63,83.24c1.38,1.17,2.84,3.09,4.07,4.8-4.09,1.24-17.95-14.45-30.57-15.75l-7.25-.75c-2.31-.24-4.38-1.89-6.8-2.03-3.21-.18-6.2-.24-9.32-.94l-.43,2.79c-2.6.87-5.35.16-7.39-1.86-2.2-2.18-5.93-9.18-2.72-9.95,1.13,2.9,2.1,5.99,4.9,7.89.51.35,1.07.87,1.49.59.34-.23.74-.68.93-1.09,1.84-3.91,4.33-.38,12.33-.79,3.35-.17,6.1,2.38,9.15,2.72,4.69.52,8.73,1.23,13.13,3,6.93,2.79,12.88,6.63,18.46,11.35Z"/>
    <path class="st6" d="M749.52,88.91c.92.01,1.08-.17.47-.54-2.23-1.3-4.42-2.84-7.07-3.76-1.54-.53-12.6-4.24-12.56-4.04-.51-2.54,5.75-.27,6.25-.16,13.2,2.98,17.9,9.81,32.51,14.87,3.83,1.32,11.25,1.77,11.9,2.93.18.31-.4,1.02-1.02,1.03-12.44.17-18.82-5.78-24.95-7.53-1.47-.42-3.39.51-5.1-.14-1.38-.52-7.11-1.13-7.11,1.03,0,1.53,2.4,1.21,2.71,2.08s-1.45,3.92-3.65,3.71c-3.32-.32-3.4-4.49-3.01-7.26-5.17.76-7.9,7.98-12.86,7.37,2.4-2,4.18-3.29,5.76-5.5,4.19-5.86,11.64-4.53,17.72-4.09Z"/>
    <path class="st6" d="M884.58,119.35c1.34,2.28,1.01,5.23,1.46,7.99,1.17,7.27-.33,14.33-4.67,20.36-.25.33-1.03-.63-1.29-.9-.23-.99.25-1.87.72-2.92,3.75-8.27,2.72-11.17,1.48-20.75-.44-3.38-2.95-5.37-6.22-5.54-9.7-.5-14.04,10.57-14.39,18.69.32.85.38,2.33-.63,1.95-.89-.58-1.04-1.68-1.1-2.95-.32-6.43,1.52-12.83,6.29-17.31,3.39-3.17,8.48-4.36,12.99-3.29,2.43.58,4.23,2.73,5.37,4.66Z"/>
    <path class="st51" d="M834.08,62.97c.96.66-.18,1.11-.67,1.8-5.04,7.16-6.01,15.97-4.4,24.58l3.47,18.54c1.11,5.91.92,11.64.05,17.35-.18,1.2-.12,2.45-.95,3.68-3.57-1.14-.34-8.5-2.05-18.57l-3.4-20.03c-1.54-9.09-.04-18.06,5.28-25.56.7-.98,1.63-1.69,2.66-1.79Z"/>
    <path class="st6" d="M678.45,168.27c-.34.51-1.04,1.56-.39,1.96-1.43.03-4.56,5.12-4.93,6.93-.41,1.98-1.89,2.96-3.17,4.27-.91.94-1.2,5.27-2.55,5.13-.25-.03-.75-.49-.88-.86-3.51-10.28-3.09-21.19.68-31.33,1.37-3.67,2.6-7.17,5.43-9.58.36-.04.66-.5,1.27.02-2.75,3.45-3.67,7.3-4.88,11.31-2.42,8.03-3.1,16.12-1.16,24.17.52-1.46.81-2.62,2.21-3.18.36-2.27,1.23-4.02,2.76-5.62,1.11-1.16,1.56-3.02,2.95-3.86.81-.49,1.97.36,2.66.63Z"/>
    <path class="st6" d="M685.2,70.21c-1.27,2.44-3.33,4.62-6.09,4.62-3.51,0-5.86,1.77-8.63,3.28-2.62,1.43-4.22,2.75-5.88,5.37-3.1,4.9-5.83,9.89-6.44,15.91-.13,1.31-2.2,2.41-2.32,1.5-.45-3.5,1-6.51,1.28-9.63,2.45-5.39,4.71-11.9,9.76-14.62l3.2-1.72c12.04-6.47,10.28.17,13.63-6.32.38-.74.81-2.16,1.8-1.51.11.77-.12,2.4-.32,3.12Z"/>
    <path class="st143" d="M475.74,9.36l-4.02.23.13,166.25-.1,8.91c0,.54.12.96.54.99.64,1.39-.57,1.79-1.2.35.52-6.91-.04-13.88-.03-20.78l.22-156.16c1.62-.22,3.26-.5,4.46.21Z"/>
    <path class="st140" d="M866.54,203.63c-.16,2.35-.32,4.7-.47,7.06h-.59c-.86-2.46-.17-5.24-.68-8.01s-1.27-5.38-1.49-8.29l-.74-9.68-.18-12.49c-.01-.97.75-1.1,1.4-1.02.49.06.69.29.72,1.06l.44,12.45c.15,4.35,2.39,17.39,1.6,18.91Z"/>
    <path class="st148" d="M825.66,11.95c4.6,4.83,17.82,23.83,12.36,29.94-.15.43-.33.44-.53.04-1.04-.29-.95-1.38-.88-2.49.49-7.44-7.74-21.54-12.29-27.45.26-.58,1.01-.08,1.34-.05Z"/>
    <path class="st116" d="M851.17,134.85c1.56.11,2.37,3.21,2.68,4.7.84,4,.17,8.53-3.08,11.32-1.02.88-2.63,2.19-3.67.89-5.91-2.37,4.93-8.64,2.5-17.39.73-.28,1.15.22,1.57.47Z"/>
    <path class="st129" d="M867.72,149.47c-2.92,3.94-4.98-.87-13.06,2.74,2.03-4.31,6.52-2.79,9.87-3.82,2.9-.89,3.66-5.84,3.66-8.44v-4.68c0-.62.12-1.05.41-1.18.44-.19,1.35-.47,1.66-.2.47.41,2.02,9.45-2.53,15.59Z"/>
    <path class="st140" d="M685.21,139.35c1,3.47-4.63,6.56-5.49,5.63-.31-.34-.75-1.16-.64-1.65,1.38-6.34-3.34-5.96-2.92-8.71,3.75-1.42,8.23.68,9.06,4.72Z"/>
    <path class="st105" d="M847.1,151.77c4.15-1.15,6.42-5.52,6.11-10.01-.18-2.61-1.37-4.66-2.04-6.91.41-.49,2.06-1.14,2.58-.35,3.13,4.81,2.96,10.91-.37,15.51-1.59,2.19-4.14,3.59-6.82,3.27-.45-.05-.53-.97-.17-.99.24,0,.44-.46.71-.53Z"/>
    <path class="st129" d="M757.39,102.6c-8.18-.6-16.04-.89-24.18-.93-.9,0-2.02-.13-2.15-1.29,5.21-.38,24.8-1.84,27.39,1.17.16.18-.67,1.08-1.07,1.05Z"/>
    <path class="st147" d="M835.55,60.48c-1.36-3.14-.8-6.68-.78-10.29,3.61-2.43-.8-6.03,2.72-8.25.13-.08.38.01.53-.04-.12,1.76,0,3.65.44,5.57s-.53,3.44-.7,5.24l-.65,6.81c-.04.39-.28.87-.55,1.06-.24.17-.67.07-1.01-.1Z"/>
    <path class="st15" d="M666.62,103.97l-.73.69c-4,3.78,4.15-17.48,14.54-13.87-9.89,1.68-13.23,12.63-13.8,13.18Z"/>
    <path class="st21" d="M705.18,186.47c-3.3,1.48-16.57,5.11-19.32.89,3.59.04,6.62.45,9.98-.38l6.91-1.7c.96-.24,1.94-.13,2.43,1.19Z"/>
    <path class="st110" d="M895.01,314.5c-2.43.48-5.5.01-7.99.02-.06-.39-.53-.28-.99-.93,5.01.08,10.09-1.15,15.35-.72l10.63.86c-6.04.78-11.57-.31-17,.76Z"/>
    <path class="st50" d="M693.22,71.69c-3.31,2.75,1.92-15.25,2.08-15.81.88,5.48-.93,10.39-2.08,15.81Z"/>
    <path class="st68" d="M706.02,70.4c.05.93-.2,2.09-1.24,1.92-.62-5.6-1.18-11.15.4-16.83l.84,14.91Z"/>
    <path class="st39" d="M785.37,106.18c-4.04-.68-7.6-2.35-11.1-4.07-.37-.4-.45-.62-.35-.87s.67-.54,1.14-.37l10.3,3.71.71.61c.13.11-.21.95-.71.99Z"/>
    <path class="st130" d="M835.09,129.72c-1.12-.41-1.45-1.75-1.57-2.87-.15-1.44-.26-2.82.85-4.03.51,3.36,2.62,5.54.71,6.9Z"/>
    <path class="st62" d="M786.58,314.02c.44.14.43.31,0,.5-5.5.35-11.15-.69-16.49.5-.2.05-.46-.11-.67-.11-.07-.17-.36-.5-.23-.89h17.39Z"/>
    <path class="st34" d="M709.5,278.57l.09-1.95c.43-.65.78-1.15,1.32-.58.47.48,1.37.76,1.33,1.3-.06.84-2.08,2.15-2.46,2.11-.23-.02-.19-.7-.29-.88Z"/>
    <path class="st49" d="M705.48,235.19c-2.02.19-3.57-.96-5.34-1.67.49-.39,5.71.15,5.34,1.67Z"/>
    <path class="st100" d="M680.98,107.41c-.5.44-1.36,1.31-1.78,1.81.26-.42-.07-.42-.28-.43-.37-.02-.61-.04-.82-.03.67-.72,1.74-1.05,2.36-1.82.49-.23.67-.07.52.47Z"/>
    <path class="st142" d="M494.89,153.21c-.73.15-.94-1.76-.43-2.07.75-.46.68.46.88.71.38.46.53,1.16-.45,1.36Z"/>
    <path class="st37" d="M786.58,314.52v-.5c1.41,0,2.86-.2,4.54.23-1.52.57-3.03.17-4.54.27Z"/>
    <path class="st101" d="M706.12,238.58c-.1.83.33,1.93-.36,2.55l-.76-2.67c.43-.53.73.05,1.11.13Z"/>
    <path class="st30" d="M861.02,138.24c.68-.24.6-1.32.63-1.95.54.1.34.87.39,1.62.25.97-.89,1.34-1.02.33Z"/>
    <path class="st140" d="M687.2,76.54l-.44.44c-.43-.22-.82-.66-1.08-1.09-.54-.56-.28-.84.46-.46.5.12.72.87,1.07,1.11Z"/>
    <path class="st95" d="M725.11,172.73v.5c-.45.02-1.13-.16-1.5-.41v-.66c.39.3,1.11.2,1.5.57Z"/>
    <path class="st12" d="M749.52,88.91l.47-.54c.56.47,1,.39,1.64.67-.66,1.01-1.5-.09-2.11-.13Z"/>
    <path class="st121" d="M842.55,178.63c.31.11.69,0,1,.08-.53.21-1.4,1.07-2,.25l1-.33Z"/>
    <path class="st144" d="M686.14,75.43c-.22.07-.39.24-.46.46-.2-.33-.83-.05-.58-.75.11-.31-.08-.92.53-.56.27.16.27.8.5.86Z"/>
    <path class="st122" d="M921.54,313.52c-.06-.24-.58-.44-.56-.78.02-.36.08-.82.55-.72v1.5Z"/>
    <path class="st54" d="M671.66,61.43c.08-.23.2-.69.52-.53-.09.22-.17.81-.52.53Z"/>
    <path class="st140" d="M159.89,314.03c-1.08.39-2.48.63-3.99.61l-18.97-.25c.6-.5,1.78-.57,2.59-.48l.96-.92,4.45.95c4.65.02,9.25.31,14.26-.11l-23-29.98c-8.93-11.65-17.06-23.42-24.17-36.17-.25-.44.28-1.76.67-1.8.32-.03.93.43,1.2.86,7.96,12.96,16.48,25.11,25.37,37.54l19.17,26.8c.71,1,1.22,1.97,1.47,2.95Z"/>
    <path class="st140" d="M193.97,306.17c-1.18-2.12-.59-4.3,0-6.58l12.36-47.6c-.19-1.22,1.06-1.19,1.15.04-3.23,16.77-7.1,32.81-11.49,49.04-.5,1.84-.29,3.61-2.04,5.1Z"/>
    <path class="st8" d="M100.38,281.96c.29.08.27.33.08.53-3.06-2.83-6.24-5.71-8.45-9.27.12-.31.27-.3.47,0,1.97,3.12,5.58,5.6,7.9,8.74Z"/>
    <path class="st57" d="M144.92,313.94c-1.8,0-3.6.19-5.4-.02-.27-.55-.26-1.28-.57-1.81-.43-1.38,5.93,1.59,5.97,1.83Z"/>
    <path class="st53" d="M224.49,285.56l-.6,6.51c-1.2-2.61-.39-5.78.16-8.5.65.87.28,1.48.45,1.99Z"/>
    <path class="st2" d="M180.93,314.11h-6.06c1.51-1.85,4.55-1.84,6.06,0Z"/>
    <path class="st85" d="M123.49,299.67c1.6.36,2.58,1.94,3.47,2.83-1.93-.62-3.64-2-5.06-3.43.44-.26.97-.06,1.58.61Z"/>
    <path class="st45" d="M218.92,311.02c-.34.69.22,1.81-.27,2.55s-1.38.49-2.21.49l1.92-3.15c.17-.54.55-.37.56.11Z"/>
    <path class="st126" d="M84.41,207.18c0-1.44-.32-3.46-.5-4.99,1.65-.33,1.2,5.81.5,4.99Z"/>
    <path class="st92" d="M123.49,299.67c-.52-.12-.98-.68-1.58-.61-1.2.14-1.69-1.04-2.47-1.53.36-1.96,3.62,1.63,4.05,2.13Z"/>
    <path class="st66" d="M84.94,226.7c.07-1.5.05-3.03-.02-4.54,2.15.19.4,4.93.02,4.54Z"/>
    <path class="st35" d="M214.31,314.07h-2.32c.33-.55.57-1.14,1.41-1.65.51.63.64,1.17.91,1.65Z"/>
    <path class="st46" d="M205.39,314.06c-1.66-.08-3.33,0-5,0,1.25-.94,3.74-.94,5,0Z"/>
    <path class="st86" d="M83.56,261.6c-.33-.59-.82-1.57-1.2-2.07.36-.91.89.12,1.06.43.29.53.86,1.35.15,1.64Z"/>
    <path class="st33" d="M92.48,273.22h-.47c-.23-.37-.81-.89-1.12-1.22.14-.83.74-.12.88.1l.71,1.13Z"/>
    <path class="st52" d="M208.39,314.05c-.48-.09-1.01,0-1.5,0,.08-.25.38-.97.75-.97s.67.72.75.97Z"/>
    <path class="st58" d="M100.46,282.49c-.15-.17-.29-.34-.08-.53.64-.11.78.86.08.53Z"/>
    <path class="st38" d="M219.98,12.64c1.05,2.18,2.49,3.97,4.31,5.37,7.63,8.79,13.02,19.27,16.19,30.75,2.31,8.36,5.95,15.63,9.85,23.03.52.82.21,1.07-.56.46l-1.07.18c-2.65-2.07-7.02-2.04-10.07-.76-6.17,2.59-12.2,5.34-17.86,8.95l-3.12,7.03-1.2.21c-.27.61-.8,1.12-1.59,1.53-2.9,7.25-3.04,15.52-.91,23.33,2.55,9.33,6.02,17.96,9.4,27,1.09,2.93,2.46,5.91,2.6,9.03.16,3.75-3.11,5.81-6.05,6.99l-.48.55c-.03.14.03.29.01.43-2.35-.88-6.39.4-6.63-1.91-.25-.87.21-1.55,1.37-2.02-1.85-.63-4.18-.96-6.08-.35-5.42,3.52-16.57,5.76-19.26-2.09-1.33-3.87.72-9.78,4.54-11.06-.03-.33-.2-.5-.53-.52-6.59,6.87-7.25,15,3.53,17.45,1.2,1.11.33,1.92-.79,2.72-4.37,1.48-8.95,2.29-13.72,2.46-6.43,1.84-10.22,10.46-11.76,16.54-.29,1.16-.84,2.11-1.63,2.86-2.17.79-4.35,1.42-6.52,1.89-.64.99-2.99,1.5-2.35,3.41,1.5-.45,2.05.88,2.83,1.59,2.75,2.52,9.47.16,12.13-2.25,1.9-1.73,3.91-2.46,6.35-1.32.78.22,1.84-1.12,2.48-1.35.67-.53.94-.26.48.46-.52,2.81-1.75,5.75-1.41,8.93.24,2.25,3.68,2.42,5.4,1.56,4.03-2,7.69-2.39,12.02-2.67,7.6-.49,14.95-1.39,22.45.19,3.56.75,7.16.94,10.51-.54,3.57-1.58-1.22-5.61-1.47-8.34,1.62-.87,3.03-.68,4.67-.26,6.71,1.72,5.35-2.71,8.69-1.5,1.59.57,1.12,1.62.99,2.99-.47,4.59-.93,9.01-2.36,13.16-1.24.78-1.42,2.89-1.51,4.39-.81,2.37-2.17,4.62-2.91,7h-.44c-.76,3.08-1.3,6.11-1.62,9.1.17.69-.2,1.55.05,2.28.16.37.31.37.46,0,1.28-.11-.78,10.6-.95,11.62-1.33,1.88-1.91,3.58-1.75,5.1-.95,1.53-1.87,2.74-3.34,3.79-1.17-.05-1.8.13-2.78.95-5.21,2.02-10.93,2.24-16.76,3.05-10.24,1.42-20.3,1.13-30.4-.82-2.75-.53-4.25-2.16-6.18-3.93-4.34-4-8.52-7.88-11.81-12.59-.4-.11-.58.06-.57.49.73,2.87,3.11,4.86,4.58,7.4,1.18,1.13.15,1.09-1.03.55l-20.99-7.03c-7.46-2.5-14.38-5.73-21.43-9.12-11.77-5.67-21.59-22.73-25.56-34.77-1.29-3.92-1.29-7.88-2.14-11.84-.16-.76-1.65-.83-1.92-1.48-1.08-2.55-2.06-4.98-3.69-7.16-3.52.17,4.4,7.14,1.85,13.56-1.07,2.71-4.65,2.33-6.87,1.88-9.26-1.88-17.75-5.35-24.54-11.5-1.05-1.35-1.87-2.3-2.47-2.85l-.61.44c-3.77-4.31-6.07-9.51-7.83-15.24-2.07-6.75-4.29-13.54-4.14-20.74.12-5.74,5.58-9.24,10.84-9.48l10.13-.47.44.38c1.92-.31,3.73-.24,5.43.2,3.9,3.63,7.65,7.42,11.72,10.82,2.4.42,6.01.45,8.61-.94.6-1.72,1.87-2.95,3.81-3.67l2.92-2.87,1.05.47c.46-.89.59-1.57.61-2.54.06-2.41-.1-5.21-.35-7.61,0-.02-.18.1-.41.26l-1.04-.35-1.81-18.79c-.94-8.28-4.23-15.64-8.6-22.62-5.51-9.17-8.26-18.63-8.26-28.4-1-3.93-.8-7.63.62-11.09l-.72-.59c-.83-.29-.2-1.2.41-1.64-1.4-.95,1.94-4.03,2.98-3.24.53.17.88-.06,1.04-.7-.9-.56-.01-1.44.86-1.38.23-.63.76-1.17,1.59-1.61l-.48-.63,2.51-1.81-.17-1.11c3.47-2.01,6.35-4.61,8.64-7.8.9-.43,2.08-.61,3.52-.54l3.52-.54c18.08-.33,37.26-.48,55.51-.07,6.46,0,20.79,8.47,27.29,10.73.3-1.12.27-2.05.67-2.42s1.76-.31,2.17.03c1.69,1.39,3.15-.43,4.28-.13l9.21,2.45c.66.18.77-2.01.34-2.56-.15-1.48,1.38-2.05,2.03-.6,2.79.24.7-6.21.09-7.7,3.52-.24,6.88-.07,10.35-.13,1.52-.03,1.85,1.35,2.6,2.05Z"/>
    <path class="st106" d="M62.56,13.3l-.65,1.84c-8.36,7.67-14.61,18.87-18.35,29.54-4.9,14.01-3.15,35.71-.66,50.23,1.37,8.01,3.47,15.78,5.99,23.37,1.01-.2,1.21,0,.61.61-4.17,2.54-6.31,7.26-5.79,12.2.78,7.46,2.62,14.34,5.02,21.38,2.46,7.21,5.7,13.67,12.48,18.6l-42,6.39c-1.23.19-2.52.73-2.05,2.38l46.02-7.52c3.4,2.26,6.32,3.97,9.9,5.66-1.85,1.28-1.28,2.41-.86,3.96,1.4,5.14,2.4,10.3,3.46,15.48.52,2.56,1.94,3.54,4.32,4.25,1.22,2.89.9,6.73,1.11,9.98.34,5.28.9,10.15.7,15.68-2.45-.01-4.69.48-7.35.95l-64.01,11.21,1.43-157.36,22.1-4.26c.59-.62,2.08-.65,3-.5.43-.3.43-.47,0-.5-.85.61-2.47.77-3.5.5l-21.6,2.71.65-69.05c16.97-.33,34.01-.4,51.12-.21,1.24.95.2,2.24-1.1,2.47Z"/>
    <path class="st54" d="M160.96,10.91l-55.51.07-3.86.58c-1.41-.07-2.64.09-3.69.5.08,1.27-2.61,4.68-3.89,3.73-.78-.16-1.07.3-1.15.74l.1,1.08-5.44,3.33c1-.72,3.21-1.45,2.42.03-.49.93-1.79,1.36-2.04,2.44-.56.55-1.27,1.2-2.04,1.17-1.19,1.47-2.69,2.9-4.5,4.32-.61.5-.74,1-.39,1.48-.29.8-.46,1.66-.5,2.58.37,1.05.21,2.32-.47,3.81.17,1.91-.17,3.3-1.02,4.17-.06.69-.08,1.01.4,1.57l.99.98c-.74,6.33.88,11.28,3.05,17.07,2.65,7.05,5.62,14.8,10.53,20.56l-.04,1.22c-.27.37-.24.57.09.59,1.36.54,2.16,1.87,2.4,4.01,1.81,11.53,2.54,23.14,2.19,34.83-.97,2.49-2.55,3.88-4.75,4.17-.08.91-.52,1.37-1.33,1.38l-1.12,1.4c-.24.92-1.22,1.4-2.96,1.45-1.59,1.01-3.01,1.92-3.49-.37-2.92-4.59-15.36-16.08-19.42-22.73-1.74.17-3.34,6.6-.96,6.82.56.05,1.21-.66,1.82-.82,1.23,1.1,2.72,2.62,3.9,4.19-6.6-.27-15.89-1.31-20.77,1.65-.2-.19-.48-.35-.61-.61-.03-.93.05-1.06.25-.39-8.67-21.79-9.17-46.18-6.55-69.4.16-1.45,2.73-9.24,3.59-9.76.37-.23.79-.3,1.22-.27.63-.45.85-.95.66-1.52-.1-.41-.17-.82-.18-1.24-.07-4.85,11.37-17.6,15.21-21.36,0-.48-.17-.83-.53-1.05-.03-.7.54-1.15.91-2.28l-50.93.02c-.19-.22.11-.6.54-.6l50.64.21,33.51-.02,63.12-.19c.41.14.82.18.62.47Z"/>
    <path class="st38" d="M235.33,100.78c1.45-.37,1.97-.17,1.56.61,2.56.85-.22,3.93-2.19,2.99-.18.86-.77,1.03-1.77.52.07,1.11-.42,1.51-1.45.98-2.45-.89-.17,2.27.88,3.12.28,2.38-2.71,2.39-2.51,2.37,1.42-.12,11.09-1.02,11.59-1.33-.79-1.14-.81-2.03-.08-2.66-1.64-.33-1.57-.88-.39-1.94-1.49-.41-1-2.12.31-2.55-.44-1-.38-1.8.62-1.04,1.05-1.14,4.82.9,3.91,2.41l1.54.44c.78-.26,1.3-.19,1.57.2,1.17,4.79,2.63,9.43,4.86,14.1,2.6,5.43,3.49,11.3,1.91,17.2-.99,3.71-1.63,7.4-2.9,10.98-1.06,2.98-1.73,5.85-2.88,8.54-.52.18-.97,1.48-.59,2.55-.95,3.98-1.81,8.08-1.47,12.37-2.88.1-4.85-1.47-7.05-2.45-1.53-1.32-3.34-2.32-5.44-2.99-3.31-2.67-6.25-3.11-7.35-8.62,3.71-3.85.77-11.39-1.08-15.85l-5.27-12.66-5.14-14.39c-.73-2.04-.82-4-1.27-5.84-.09-1.45.3-1.97,1.16-1.55-.14-.25-.24-.46-.17-.56,3.59-5.3,11.25-5.99,17.41-5.84l1.67.89Z"/>
    <path class="st106" d="M81.4,233.6c-.33.09-.65.23-.94.4-5.28-3.93-21.52,11.25-23.81,14.72l-4.84,7.34-41.62,8.72.17-23.04,31.77-5.94,39.62-7.63c.1,1.96.08,3.8-.33,5.42Z"/>
    <path class="st106" d="M47.88,260.1c.49-.2.69-.04.6.49-5.14,6.24-10.11,12.16-15.59,17.97-4.27,4.52-9.11,8.16-13.98,11.91l-8.95,6.9.18-29.3,37.74-7.97Z"/>
    <path class="st38" d="M248.9,99.35c-.41.71-.57,1.01-.12,1.57-.04,1.31-.17,2.69.14,3.97-1.23.19-2.25.23-3.11-.64l.42-1.02c-1.38-1.57-5.52-3.81-7.67-3.87-6.37-.16-18.73.4-22.25,6.33-.08.13,0,.35.1.59-.49.42-.83,1.01-1.16,1.55-1.45-5.94-1.13-12.55.61-18.43-.1-.65-.03-.92.67-.84,1.01-1.13,5.02-.59,3.74,1.29-1.31.68-6.02,4.17-4.11,4.71.83.23,5.28-3.32,9.21-4.19l12.7-2.8c4.78-1.05,9.03-2.93,13.09-5.54-.19,6.32-1.63,11.71-2.28,17.32Z"/>
    <path class="st54" d="M249.78,72.25c.87.55,1.56,1.43,2.09,2.63.27,1.44,1.07,2.88.52,4.5-.44.56-.93.88-1.48.96-.84-.39-1.74-.22-2.69.25-5.8,2.86-11.88,4.4-18.12,5.95-8.34,2.07-.89-1.27-9.81,3.32-.54-1.25-2.54-.4-3.74-1.29-.79.05-.68-.2-.09-.7l3.65-7.94c6.09-3.7,12.39-7.23,19.21-9.55,3.83-1.3,9.39-.28,10.46,1.87Z"/>
    <path class="st51" d="M100.83,113.82c.95,2.86,1.15,6.98.15,9.89-1.51.99-2.51,2.94-4.29,3.78-.96.45-1.9.77-2.19,1.82-.63,2.32-2.63,1.97-4.06,2.33-2.86.71-4.11.53-5.85-.92.49.02.3-.63.33-.95.27.43.8.66,1.04,1.08,1.13-1.96,3.59-1.99,5.41-2.16l1.12-1.4c.05-.8.42-2.18.84-2.28l2.57-.65c.26-1.01,1.82-2.67,1.99-3.63.38-8.11-.85-16.21-1.4-24.37-.32-4.78-.54-9.42-2.5-13.46-.44.1-.39-.22-.09-.59-4.09-2.58-9.93-17.19-11.71-22.23-3.16-8.96-2.92-7.2-2.81-17.59-.53-.36-.68-1-.4-1.57-.32-2.75-.16-5.69,1.49-7.99-.45-.6-.22-.99.56-.96.67-.32,1.29-.91,2.38-.39-2.19,3-2.15,6.74-1.47,10.36.61,3.26-.28,6.7.62,9.97,2.48,9,6.11,17.53,11,25.42.84,1.35,1.13,2.42,1.73,3.8,2.3,5.19,3.44,10.26,3.97,15.92l1.57,16.76Z"/>
    <path class="st77" d="M206.94,18.42c-.65-.05-1.43.47-2.03.6-.93-.02-1.75-.78-2.56-1.11-.78-.8-2.69-1.49-1.89-.45-2.03-.68-4.05-2.07-6.5-1.79-8.72,1.03-3.28-1.89-10.84.48-4.78-1.26-8.63-4.32-14.04-5.44l34.75-.1c1.59,2.51,2.49,5.16,3.11,7.82Z"/>
    <path class="st54" d="M81.43,180.69l1.52.53c.54.04.9.23,1.07.55-.87,5.03.87,7.47-.48,14.69-.25,1.33-2.74,2.7-3.93,2.4-1.82-.45-1.86-2.63-2.03-4.14-.43-3.81-.96-7.34-1.63-11.01-.24-1.33-.98-2.48-.17-3.79-.69-.23-1.28-.18-1.34-.69l1.04-.38c-.68-.56,6.28,1.95,5.94,1.85Z"/>
    <path class="st26" d="M238.95,208.16c-.87,2.79-1.03,10.65-2.07,9.1-.49-1.99-.68-3.7.32-5.75.68-1.4.33-3.23,1.48-4.33l.27.98Z"/>
    <path class="st56" d="M72.87,119.9c-2.27.6-4.58.12-6.91.2.59-.45,1-.3,1.04-.79,4.39-.21,3.69-1.45,5.87.58Z"/>
    <path class="st75" d="M234.69,236.26c-.48-.09-1.24-.57-.94-1.28.63-1.53,1.56-2.88,2.7-3.81-.32,1.89-.74,3.46-1.75,5.1Z"/>
    <path class="st4" d="M224.3,18.01c-.95,1.2-3.8-4.05-4.69-5.11,0-.13.28-.18.37-.27,1.7,1.58,2.84,3.68,4.31,5.37Z"/>
    <path class="st150" d="M61.08,167.67c-.97-.88-2.13-1.34-3.07-2.41-.79-4.71,4.5,3.65,3.07,2.41Z"/>
    <path class="st107" d="M240.81,168.18c-1.93-.85-3.77-1.65-5.44-2.99,2.43,1.01,4.38.04,5.44,2.99Z"/>
    <path class="st88" d="M243.37,196.78l-1.51,4.39c-.79-1.64.31-3.83,1.08-5.32.4.45.5.68.42.93Z"/>
    <path class="st149" d="M224.8,155.84c-.12.94.6,1.67.52,2.84-1.15-.23-2.12-.46-2.88-1.23l2.36-1.62Z"/>
    <path class="st150" d="M231.35,240.04c-.99.7-1.78.56-2.78.95.45-.66.89-1.34,1.61-2.05.59.12.86.69,1.17,1.1Z"/>
    <path class="st102" d="M9.99,308.03c-.02,1.16.47,2.69-.5,3.49.09-2.19-.07-4.39.13-6.58.14-.08.29-.09.41.03.37.97.41,2.1-.04,3.06Z"/>
    <path class="st111" d="M251.87,74.88c-.72-.82-1.59-1.64-2.09-2.63l.56-.46c.57,1.09,1.26,1.71,1.52,3.09Z"/>
    <path class="st104" d="M36.98,76.88c.44.14.43.31,0,.5-.94.48-2.03.31-3,.5-.15-.18-.32-.35-.5-.5.98-.12,2.28-.49,3.5-.5Z"/>
    <path class="st72" d="M202.35,17.91c-.58-.23-1.29-.25-1.89-.45-.07-.38-.79-.64-.34-.95.82.33,1.37.11,1.68.3s.43.68.55,1.1Z"/>
    <path class="st17" d="M249.92,155.7c-.26.61-.42,1.86-.59,2.55-.61-.06-.54-.99-.38-1.53.13-.44.3-1.89.97-1.02Z"/>
    <path class="st114" d="M168.78,236.01c-.12.26-.27.24-.44-.02-.81.13-1.31-.65-1.94-.86.2.06.47.1.75.03.18-.05.28-.36.28-.57.29.51,1.27.69,1.35,1.42Z"/>
    <path class="st146" d="M239.81,178.73c-.83.31-1.48.67-2.44.39.27-.33.64-.57.96-.69.54-.2,1.48-.53,1.48.29Z"/>
    <path class="st61" d="M236.93,219.54c.16-.18.32-.23.46,0-.15.87.27,1.8-.29,2.64-.65-.99.09-1.9-.17-2.64Z"/>
    <path class="st89" d="M252.39,79.38c-.05.15-.02.34-.02.5l-.5.5c-.1.31-.19.51-.49.31-.19-.12-.32-.28-.47-.35.12-.7.83-.97,1.48-.96Z"/>
    <path class="st32" d="M248.78,100.91c-.49.24-1.12-.2-.9-.79.13-.36.67-.63,1.02-.77-.06.51-.1,1.05-.12,1.57Z"/>
    <path class="st90" d="M83.46,181.22h-.5c-.57.04-1.23.01-1.52-.53.64.2,1.73-.36,2.02.53Z"/>
    <path class="st135" d="M180.83,180.22c-.28.14-.69.3-.91.52-.2.06-.6-.17-.5-.28.33-.34.56-.68.77-.75.26-.09.9.07.64.51Z"/>
    <path class="st29" d="M226.38,154.76c-.15.85-1.04.71-1.58,1.08.07-.53.67-.86,1.08-1.08h.5Z"/>
    <path class="st98" d="M163.42,226.7c-.21.14-.4.3-.57.49-.08-.31-.51-.44-.48-.78.05-.47.08-.95.55-.54.28.25.33.59.5.83Z"/>
    <path class="st98" d="M216.55,88.56c-.07.37-.4.64-.67.84.08-.45-.24-.67-.51-.34-.15.18-.38.22-.5.33.29-.71.89-1.25,1.59-1.53-.02.22.13.48.09.7Z"/>
    <path class="st151" d="M48.47,260.59c-.17-.19-.38-.35-.6-.49.43-.43.7-.55,1.31-.51.41.02.23.44-.17.75-.13.1-.38.07-.54.25Z"/>
    <path class="st18" d="M84.03,181.77c-.39-.1-.77-.27-1.07-.55.16,0,.34,0,.5,0,.23,0,.64-.18.98.24.09.11-.15.34-.41.31Z"/>
    <path class="st23" d="M183.88,183.26c.06-.34-.11-.64-.48-.46-.13-.45.31-.74.74-.58.24.09.34.4.26.73-.05.19-.2.52-.52.31Z"/>
    <path class="st69" d="M226.88,153.76c-.15.33-.31.32-.5,0-.08-.28.16-.36.25-.5.28-.42.7-.64.76-.21.09.61-.3.74-.51.71Z"/>
    <path class="st70" d="M226.88,154.26c-.1.19-.44.31-.5.5h-.5c.19-.11.29-.4.5-.5.15-.33.31-.32.5,0Z"/>
    <path class="st78" d="M168.33,236l.44.02c1.01.58-.03.98-.44-.02Z"/>
    <path class="st134" d="M75.5,178.84c-.02.47-.72.28-1.04.38-.03-.27.1-.48.27-.5.26-.03.63,0,.76.12Z"/>
    <rect class="st133" x="226.38" y="153.76" width=".5" height=".5"/>
    <path class="st54" d="M251.86,80.38c.15-.18.32-.35.5-.5,0,.29-.45.33-.5.5Z"/>
    <path class="st54" d="M219.43,156.29c.05-.25.25-.46.48-.55-.03.27-.15.61-.48.55Z"/>
    <path class="st109" d="M25.52,314.54l-7.53.02c-1.73-.84,9.23-.74,7.53-.02Z"/>
    <path class="st71" d="M9.99,308.03l.04-3.06c.76.72.82,2.4-.04,3.06Z"/>
    <path class="st31" d="M134.43,314.52c-.18.05-.42-.14-.6-.13-.22-.42.16-.83.44-.84.39,0,1.12-.27,1.67.22-.5.36-1.13.26-1.51.75Z"/>
    <path class="st109" d="M16.49,314.56c-.33.04-.67-.02-1,0-.13-.39.26-.62.55-.46.15.08.25.41.45.46Z"/>
    <path class="st81" d="M867.06,218.7l.6-1.09c.98-2.23,2.12-4.4,3.42-6.49,1.59-3.77,2.99-7.51,4.25-11.68l9.29-30.57c1.74-5.73,3.38-11.09,4.08-17.2,7.09-12.24,7.52-21.7,4.37-35.32-.53-1.37-.54-1.82.98-1.54,4.08-18.64-6.5-46.03-16.04-62.36-4.32-7.39-9.44-13.68-14.55-20.82,5.18-1.88,10.05-4.18,15.15-6.57l29.63-13.91c3.66-.77,7.86.14,11.6-.09l.73,180.06.2,41.73.23,45.06-28.77-9.49c-3.83-1.26-7.46-2.66-10.71-4.77-11.13-11.21-14.38-30.15-14.44-44.95Z"/>
    <path class="st106" d="M852.54,21.97c-.13-.37-.27-.96-.03-1.09,4.88-2.74,13.82-7.24,18.97-8.98l4.1-.97,25.11.16c-6.84,3.84-13.76,6.85-20.72,10.42l-17.53,8.99c-3.35-3.91-7.51-5.09-9.91-8.52Z"/>
    <path class="st38" d="M875.58,10.92c-2.48,1.56-5.37,2.5-8.21,3.88l-14.82,7.18-9.43-8.01c-2.91-1.93-3.25-3.04-1.03-3.36l33.5.31Z"/>
    <path class="st19" d="M842.08,10.61l-.99.83c1.06.67,1.45,1.85,2.02,2.53-.52-.27-1.03-.97-1.62-.54-.97-.46-1.58-1.42-1.84-2.45.7-.36,1.61-.37,2.43-.37Z"/>
    <path class="st132" d="M867.66,213.21c.13.31.38.58.39.94.89.84.48,2.67-.39,3.46.02.34-.16,1.14-.6,1.09,0-1.66.38-3.53-.53-4.99-.12-.27.08-.74,0-1.04-.1-.35.09-.51.5-.5.14-.43.31-.42.5,0,.11.32-.01.73.12,1.04Z"/>
    <path class="st43" d="M880.59,62.9c-.16.44-.35.43-.56,0-.37-.05-3.59-5.82-2.13-5.49.97,1.77,1.54,3.8,2.69,5.49Z"/>
    <path class="st79" d="M883.16,68.95c-.02,1.87-1.76-1.84-1.63-3.05-.28-.12-.26-.29,0-.5,1.11.81,1.06,2.37,1.63,3.55Z"/>
    <path class="st25" d="M886.02,76.48c-.14.76-.66.11-.68-.44-.29-1.09-1.43-2.51-.32-3.15l1,3.59Z"/>
    <path class="st44" d="M894.05,114.82c-.08.69-1.01.8-.98,1.54-.66-.39-.65-1.41-1-1.99v-.56c.53.58,1.17,1.1,1.98,1.01Z"/>
    <path class="st3" d="M884.59,72.39c-.57.65-.76-.22-.87-.55-.15-.45-.41-1.38.18-1.45.17.68.61,1.29.68,2Z"/>
    <path class="st153" d="M888.02,81.37c-.14.44-.31.43-.5,0-.26-.43-.65-.91-.5-1.5-.25-.14-.24-.31,0-.5.57.51.72,1.3,1,2Z"/>
    <path class="st7" d="M887.02,79.38c.02.16.04.34,0,.5-.43.09-.49-.4-.5-.74,0-.25-.04-.78.38-.76l.12,1Z"/>
    <path class="st28" d="M888.02,82.48c-.56.2-.45-.54-.5-1.1h.5c.13.32-.08.76,0,1.1Z"/>
    <path class="st11" d="M881.53,65.4c.02.16.02.34,0,.5-.39.15-.6-.37-.51-.71.04-.16.16-.33.42-.29.05.16.07.33.09.5Z"/>
    <path class="st36" d="M880.65,63.46c-.37.85-.77.08-.62-.56h.56c.09.14,0,.4.06.56Z"/>
    <path class="st81" d="M654.16,132.29c-2.45,5.73-2.94,11.9-1.48,18.51,1.21,8.59,3.21,16.99,6.11,25.4,1.82,5.27,2.66,10.44,4.13,15.78,3.75,13.64,12.44,28.43,23.72,37.2,4.38,3.4,9.38,5.61,14.12,8,1.38.89,2.67,1.8,3.31,3.39l.15,1.05c0,.91-.2,1.77-.57,2.57,1.62,6.03,2.63,12.25,3.1,18.47.17,2.2-.31,6.67-1.56,8.32-.32,1.81-2.4,3.1-3.97,3.99l-1.71.51c-9.33,5.27-18.79,10.47-28.37,15.62l-24.93,13.31c-5.24,2.8-10.17,5.4-14.54,9.02-1.68,2.4-5.96,2.29-8.34,1.07l-3.45.62c-16.2-.28-32.27-.14-48.21.42l-87.23.68-12.2.32c-.56.02-1.02.08-1.25-.34-.1-.2-.16-.45-.2-.69l-.04-1c.39.01.51-.36.51-1.09v-123.63c-.01-.83.25-1.16.55-1.44,1.82-.62,3.81-1.08,5.96-1.36,22.18-6.71,44.34-13.75,66.48-21.13,18.89-7.14,37.51-14.54,55.86-22.21,17.36-7.88,34.7-15.51,52.04-22.89,2.17-.24,3.68-1.8,6.32-2.57-.54,4.98-2.41,9.63-4.31,14.09Z"/>
    <path d="M651.76,120.29c.17.13.31.29.4.48-.79.66-1.99,1.35-3.16,1.89l-22.48,10.39-26.01,11.53-34.1,13.9c-7.84,3.19-15.16,6.19-23.25,8.81l-48.29,15.61c-2.51.81-22.37,7.62-23.05,5.46-.23-.75-.47-.71-1.06-.45-.35.15.64,81.12-.51,89.95l-.54-92.39c.77.06,1.04.45,1.4.62.53.26.82-.27,1.2-.35,7.79-1.52,15.13-4.01,22.91-6.52l46.82-15.08c7.98-2.57,15.2-5.47,22.99-8.54l36.9-14.53,22.9-9.62c9.11-3.83,17.75-8.18,26.94-11.16Z"/>
    <path class="st152" d="M631.66,313.44c-.43.37-.69,2.01-1.53,2.01l-12.03-.04-46.45.14c.9-1.11,6.6-.17,10.32-.73,4.13-.63,8.27-.33,12.45-.03,6.04.43,12.08.33,18.19.08,2.42-.1,4.47-.64,6.92-.06,1.44.34,2.97-1.54,4.4-1.5.63,3.56,6.56,1.09,7.72.14Z"/>
    <path class="st115" d="M707.17,268.59c-.54,2.92-1.2,3.72-1.99,2.4l.46-4.27c.19-1.77.38-2.66.28-4.3-.39-6.43-.92-12.69-3.51-18.68,1-.83,1.56-1.33,1.8-2.11.95,6.57,2.33,13.16,3.26,20,.33,2.43-.48,4.76-.3,6.96Z"/>
    <path class="st67" d="M701.21,274.97c-9.29,6.51-20.1,10.8-30.07,16.13,7.85-5.75,16.96-9.66,25.7-14.33,1.71-.91,2.28-2.59,4.37-1.8Z"/>
    <path class="st103" d="M652.68,150.8c-.35-2.48-1.96-9.93-1.42-12.95.4-2.18,2.16-3.83,2.9-5.56-1.67,6.06-1.8,12.25-1.48,18.51Z"/>
    <path d="M470.75,314.52l.04,1c-1.14-7.22-.41-14.77-.36-22.48.76,7.14.07,14.32.32,21.48Z"/>
    <path class="st127" d="M705.58,272.64c-1.13.53-2.97,2.44-4.37,2.34,1.33-1.14,2.47-2.94,3.97-3.99,1.03.18,1.17,1.05.4,1.66Z"/>
    <path class="st137" d="M704.06,240.58c-1.5-.66-2.5-2.01-3.31-3.39.74.38,1.69.37,2.35.77.91.54.82,1.73.95,2.63Z"/>
    <path class="st65" d="M705.58,272.64c-.35-.38-.46-1.12-.4-1.66,1.29-.9.05,1.55,1.99-2.4.08,1-.31,2.15-.39,3.33-.04.57-.9.58-1.21.72Z"/>
    <path class="st54" d="M362.8,305.02c.61.51,1.21.92,2,.5l19.7,3.38c3.79.65,6.88,3.18,10.16,4.64.37.14.25.32-.38.53l-172.61.12,4.34-15.1c3.79-13.2,2.23-26.85-.64-39.99l.55-.36c3.6,1.9,7.38,3.26,10.32,6l12.15,11.29c11.01,10.23,24.92,13.92,39.52,16.42l39.73,6.79,35.16,5.78Z"/>
    <path class="st0" d="M364.81,305.52c.03.67-.68.61-1.18.46-.4-.12-.7-.51-.82-.95l2,.5Z"/>
    <path class="st128" d="M394.29,314.07c0-.24.12-.49.38-.53.41.18,1.33-.27,1.04.37-.46.23-1.05.16-1.42.16Z"/>
    <path class="st91" d="M225.37,259.1c.18-.56.3-.5.55-.36.18.35-.35.3-.55.36Z"/>
    <path class="st6" d="M193.39,139.3c-2.19,1.4-3.41,4.21-3.87,7.14-.53,3.37,1.02,6.36,4.27,7.58,4.48,1.69,8.75.2,12.81-2.02,2.7-1.48,6.52-.83,9.11.26-.53,1.56-1.93,1.85-2.89,2.56-.82.6-1.83.9-2.96,1.47l-.96-1.83c-1.8.23-3.21,1.13-4.71,2.11-1.64,1.07-4.68-.21-5.94.93-1.59,1.43-2.34,2.89-4.63,3.53-4.21,1.16-8.76.82-12.95,2.25-2.93,1-5.24,4.66-6.38,7.34l-4.3,10.16c-.73,1.73-9.93,4.01-8.01,1.95,2.46-3.79,6.07.12,7.28-5.29,1.48-6.62,3.84-9.55,7.59-14.23,1.67-2.08,3.98-2.79,6.59-2.97,1.84-.13,13.26-1.12,12.69-3.08-2.81-1.15-7.21-2.2-8.5-5.43-1.89-4.74,1.15-10.56,5.24-12.93.5-.16.68,0,.53.52Z"/>
    <circle class="st136" cx="869.6" cy="93.93" r=".49"/>
    <circle class="st1" cx="877.28" cy="94.11" r=".25"/>
    <path class="st123" d="M700.67,139.78c-.36,0-.79-.43-1.04-.5-.44-.15-.43-.33,0-.54.54.13.74.65,1.04,1.03Z"/>
    <path class="st141" d="M699.62,138.75v.54l-.72-.18c-.08-.02.02-.19.13-.33.19.03.41-.08.59-.03Z"/>
    <path class="st119" d="M732.56,173.12c-.15-.36.42-.34.62-.44.62-.11.42.53.15.56-.38.03-.6-.04-.77-.12Z"/>
    <path class="st118" d="M866.53,210.68c.54.8.54,1.3,0,1.5h-.5c-.35-.42-.39-.98-.56-1.47,1.38-2.18-.14-4.74,1.07-7.07v7.04Z"/>
    <path class="st131" d="M867.03,212.17c-.15.18-.32.35-.5.5-.16-.17-.35-.32-.5-.5h.5c.14-.44.31-.43.5,0Z"/>
    <path class="st10" d="M725.11,173.23v-.5c.35.33.77.45,1.55.66-.49.79-1.16.23-1.55-.16Z"/>
    <path class="st40" d="M867.66,217.62c-.06-1.18-.53-2.54.39-3.46,1.84-.36,1.71-2.15,3.03-3.03.37-.89-1.58,6.83-3.42,6.49Z"/>
    <path class="st124" d="M873.1,198.69c-.37.76-.46,1.69-.69,2.5-1.04.62.58-5.99.69-2.5Z"/>
    <path class="st42" d="M865.56,168.21c.07.39,0,.85-.35.97-.44.15-.85.1-1.21.07.43-.22,1.08-.75,1.56-1.04Z"/>
    <path class="st41" d="M886.5,155.3c-.1-.21-.27-.39-.49-.49l.5-.85c.29-.49.52.16.54.57.01.33-.4.5-.56.77Z"/>
    <path class="st38" d="M881.56,109.84c-.34-.12-1.19.08-1.09-.49.44-.06.74.38,1.09.49Z"/>
    <path class="st120" d="M873.92,196.2c-.59-.07-.34-.58.14-.5-.04.17-.11.33-.14.5Z"/>
    <path class="st13" d="M867.53,212.17h-1v-1.5c.51.36.8.92,1,1.5Z"/>
    <path class="st27" d="M680.98,107.41c-.41.36-.73-.07-.52-.47.43-.53.44-1.61.43-2.18-.02-.96-1.6-1.16-2.27-1.51-.85-1.53,1.25-3.24,2.92-3.43s3.03-.71,4.65.15c-1.11,2.95-2.97,5.47-5.2,7.44Z"/>
    <path class="st54" d="M191.73,71.99c.64,1.08.37,2.35-.8,3.79-1.24,2.5-3,4.4-5.25,5.69-1.9-1.06-4.03-.94-6.38.35l-.89-.82c-.36-.22-.71-.27-1.04-.17l-1.01.55c-5.87-.2-13.68,1.17-19.43,2.8-5.22,1.47-8.25,3.29-11.8,7.54s-6.57,8.85-9.4,13.59l-1.82,1.05c.51-1.25-5.19.21-4.78-1.46,1.98-8.14,11.77-19.2,18.31-23.91,7.18-5.18,2.88-5.24,12.5-7.03,4.94-.92,9.43-1.62,14.07-3.46,3.48-1.38,7.1-2.3,10.78-2.78.92.71,1.14,1.99,2.13,2.1.61.07,1.48-1.39,2.24-.76,1.05.86,1.52,2.34,2.57,2.93Z"/>
    <path class="st51" d="M133.9,106.36c3.56-5.77,7.01-11.65,11.72-16.7,3.84-4.11,7.86-6.12,13.35-6.87,3.81-.52,15.9-4.16,18.39-1.97.38-.22.82-.2,1.04.17,5.19-1.18,4.25-2.34,7.22-.41,2.77-2.04,4.7-5.51,6.11-8.6,5-1.96-3.75,14.02-7.73,12.36-.56-.23-.48-1.89-1.36-1.57-3.01,1.09-5.55,2.3-7.75.38-5.72.22-11.06,2.11-16.53,3.04-4,.68-6.82,1.45-9.66,4.54-4.82,5.24-8.85,11.03-12.48,17.31-.68,1.18-1.97,2.99-3.35,2.29-.11-1.09.49-3.11,1.03-3.98Z"/>
    <path class="st6" d="M166,112.33c-.11-.66-.53-.72-1.12-.5-3.72.91-7.13,2.71-10.55,4.81l-8.37,5.15c-.42.26-1.23-.15-1.47-.35-1.19-1.02,6.1-5.44,6.44-5.68,6.67-4.81,14.18-7.48,22.53-7.96,2.65-.15,5.78-.92,8.2.49,1.78,1.04,2.75,3.94,3.4,5.77-2.24-.22-2.46-2.35-4.11-3.18-.38,7.27-2.68,4.96-2.42,9.16l-21.31,2.28c3.46-2.41,7.34-1.98,11.2-3.24-2.4-1.14-2.61-3.94-2.41-6.77Z"/>
    <path class="st140" d="M54.97,125.89c-1.38.24-1.85.04-1.41-.61,7.06-3.14,16.75.62,22.66,4.66,2.97,2.03,3.94,4.96,3.43,8.46-.93,6.46-3.84,6.3,3.39,13.73,2.39,2.46,3.6,5.5,2.05,8.66-3.2-2.05.49-2.36-4.24-7.45-1.95-2.1-4.11-4.25-4.81-7.16-.98-4.09,4.61-10.32-1.66-14.32-5.76-3.67-12.77-6.86-19.41-5.96Z"/>
    <path class="st147" d="M225.98,205.14c-8.39-.18-16.35-.17-24.57.68-.49.05-.89-.2-1.05-.38-.2-.24-.02-1.07.61-1.19,8.36-1.58,16.8-2.17,25.13-1.07.37.05.68.88.93.97.45.16-.32.78-1.05.99Z"/>
    <path class="st147" d="M62.35,161.49c.28.67.02,1.38-.2,1.63-1.57,1.75-6.67-12.86-7.18-14.71-.7-2.55-2.18-11.39-.99-13.24.08-.13.4-.07.63-.09.6-.05.04.51.05.95.36,4.26.76,8.63,2.42,12.66l5.27,12.8Z"/>
    <path class="st21" d="M70.96,149.42c1.12,6.03,6.52,3.53,5.14,6.16-.21.4-.93.77-1.59.58-4.5-1.3-7.04-6.39-4.72-10.56,1.1-1.98,3.18-2.88,5.02-3.81,1.69,2.07-4.79,2.55-3.85,7.63Z"/>
    <path class="st63" d="M98.41,12.06c1.59,2.05-6.95,7.8-8.48,8.9,1.81-1.3-5.49,3.11-5.97,2.16-.8-1.6,5.6-4.13,8.88-6.59,0-.56.6-.98,1.15-.74,1.57-.98,2.25-2.87,3.89-3.73.15-.44.32-.43.52,0Z"/>
    <path class="st117" d="M85.85,24.58c.62-.76.91-.46.45.45l-.86,1.38c-.09.62-.45.97-1.04.7-1.15.91-2.47,1.82-2.98,3.24-.08.42-.23.41-.46.03-4.04.18,4.39-5.92,4.89-5.8Z"/>
    <path class="st139" d="M100.98,123.71c-.02-3.3.15-6.6-.15-9.89.19-.58-.12-1.3.35-2.06.97,2.84.63,5.87.98,8.91.18,1.64-.06,2.3-1.17,3.03Z"/>
    <path class="st113" d="M105.44,10.98c.26.43-7.02,2.13-7.04,1.08h-.52c-.13-.2-.41-.56-.24-.99,2.6-.16,5.28-.08,7.79-.09Z"/>
    <path class="st22" d="M218.29,233.2c-.61-1.53.61-2.57,1.41-3.42-.48,1.81.04,2.83-1.41,3.42Z"/>
    <path class="st138" d="M53.56,125.28c.34.42.89.54,1.41.61-1.49.2-2.62,1.16-3.91,1.19.45-1.53,1.7-1.43,2.51-1.8Z"/>
    <path class="st55" d="M159.81,61.96c-.02.31-.84.3-1.09.15-.49-.31-.29-1.04.03-1.92.48.34,1.1.82,1.06,1.77Z"/>
    <path class="st16" d="M81.02,31.99c-.19.32-.35.66-.56.96-.72-.08-.63-1.03-.4-1.62.12-.32.59-.59.91-.96l.46-.03c-.19.52-.11,1.15-.41,1.64Z"/>
    <path class="st108" d="M87.89,23.41c-.2.85-.61,1.43-1.59,1.61l-.45-.45c.37-.79,1.19-1.16,2.04-1.17Z"/>
    <path class="st87" d="M180.39,97.63c-.53.4-1.14.3-2.03.09.28-.58.85-.54,2.03-.09Z"/>
    <path class="st74" d="M166,112.33c-.27-.34-.7-.49-1.12-.5.32-.48.88-.53,1.24-.52.18,0,.35.4.31.69-.02.17-.19.19-.42.33Z"/>
    <path class="st76" d="M193.39,139.3c-.15-.2-.33-.37-.53-.52.31-.18.22-.7.79-.54.36.1,1.09.19.55.54l-.8.51Z"/>
    <path class="st24" d="M84.41,27.11c.31-.24.84-.38,1.04-.7.02.29.13.81-.21,1.04-.21.14-.92.11-.82-.33Z"/>
    <path class="st6" d="M48.06,36.94c.39.56-.2,1.13-.66,1.52-1.18,2.71-3.17,5.3-3.6,8.44-2.24,16.59-2.24,32.77.36,49.2,1.2,7.56,2.67,14.59,5.42,21.77.15.39-.62.57-.69.4-6.77-13.44-9.64-36.46-9.28-51.86.15-6.44.22-12.71,2.14-18.71,3.98-12.44,10.65-26.35,20.81-34.4.44-.18.85-.46,1.11-.22s.57,1.47.2,1.83c-6.6,6.47-12.2,13.72-15.8,22.03Z"/>
    <path class="st14" d="M36.98,77.38v-.5h.73c.33,0,.33.37,0,.5-.26.1-.55-.1-.73,0Z"/>
    <path class="st96" d="M79.37,42.5c-.43-.06-.91-.3-.92-.78,0-.34.31-.58.52-.79.3.47.41,1.02.4,1.57Z"/>
    <path class="st125" d="M94,15.79c-.38.24-.79.47-1.15.74-.79-.09-.08-.65.11-.85.35-.36,1.06-.4,1.04.11Z"/>
    <path class="st145" d="M47.4,38.46l.66-1.52c.64.06.48.74.18,1.04-.26.26-.55.39-.84.48Z"/>
    <path class="st5" d="M91.37,128.7c0-.68.47-1.22,1.12-1.4-.05.77-.31,1.32-1.12,1.4Z"/>
    <path class="st83" d="M93.98,82.91c-.1.17-.22.4-.36.33-.23-.11-.24-.43-.18-.63.09-.3.18-.48.45-.3l.09.59Z"/>
    <path class="st59" d="M245.81,104.25c-1.08-1.08-2.66-1.58-3.91-2.41-.64.59-.95-.16-1.03-.95-1.78-.34-3.63-.38-5.54-.11-4.54.29-9.21.52-13.86,1.71-2.18.55-3.58,2.51-5.05,3.8-.07.22-1.23-.22-.94-.52,1.48-1.41,2.72-4.32,4.93-4.92,6.35-1.73,13.24-2.83,19.86-2.21,3.08.68,5.65,3.51,8.44,4.96-.96,1.4-2.02.52-2.9.66Z"/>
    <path class="st129" d="M231.48,105.87l1.11-.05c2.05,2.21,4.8,2.49,8.24.85l.54.69,1.58,3.55c-1.38-.12-22.25,3.21-19.35.84,1.68-1.37,5.46-.73,8.31-2.1-2.82-1.64-3.4-5.21-1.31-7.49.99,1.41.41,2.67.89,3.7Z"/>
    <path class="st129" d="M240.45,101.32c.65-.07.93.45.84,1.56.11.86-.32,1.72-.31,2.55.12,1.68-2.82,2.22-4.49,2.26-1.81.05-4.44-2.97-1.79-3.31.24-.62.89-.8,1.64-1.1.86-.34.53-1.36.55-1.89.12-1.32,2.94-1.12,3.56-.07Z"/>
    <path class="st112" d="M234.7,104.38c-.41.67-.08,1.45.74,1.89,1.9,1.03,4.02.4,5.53-.84.08.59.14,1.39.39,1.94-.79-.11-1.55.1-2.4.59-2.68,1.52-6.24.59-7.48-2.08.74,0,.31-1.21.47-2.01,1.08-.34,1.86.42,2.75.52Z"/>
    <path class="st82" d="M240.87,100.89c.5.64.22.9-.42.43-1.02-.6-2.67-.76-3.56.07-.24-.61-.98-.64-1.56-.61,1.65-.67,3.99-.88,5.54.11Z"/>
    <path class="st48" d="M241.9,101.84c-.45.07-.67.63-.62,1.04-.57-.32-.4-1.13-.84-1.56-.07-.3.19-.4.42-.43.41.26.72.63,1.03.95Z"/>
    <path class="st94" d="M493.67,306.26c.43-.45.87-.32,1.06,0,.21.36.04.8-.71.79-.34,0-1.12.01-.35-.79Z"/>
    <path class="st80" d="M178.4,81c-.44.1-.58.24-1.04-.17-.2-.45.49-.58.79-.45.24.11.34.36.25.62Z"/>
    <path class="st77" d="M178.92,111.37c.04,2.42-1.03,5.43-3.61,6.14-2.31.63-4.86.92-6.36-.66q.45-.03,0,0c-.17-.17-.5-.22-.54-.53-.4-3.01-.7-6.17,3.02-3.58-.27.52-.34,1.08-.16,1.47.29.63.88,1.09,1.69,1.16,2.45.22,4.07-1.91,3.96-4.07.52-1.06,1.55-1.02,2.01.06Z"/>
    <path class="st84" d="M171.43,112.74c-.73.61-1.73.06-2.76.07-.51,1.31.52,2.52-.26,3.51-.02-.16.05-.34,0-.5l-.48-.59c.08-1.18-.88-3.04.18-4.08.43-.43,5.21-1.96,5.19.72-.27.53-1.43.5-1.87.87Z"/>
    <path class="st97" d="M178.92,111.37c-.67-.06-1.34-.08-2.01-.06-.01-.28-.51-.51-.51-.77,0-.44.25-.83.98-.73.62.09,1.2-.12,1.5.37.19.31.03.8.04,1.19Z"/>
    <path class="st77" d="M168.41,115.82c-.19-.11-.49-.34-.48-.59.44-.26.41.38.48.59Z"/>
    <path class="st64" d="M168.95,116.85c.32-.12.42-.07.39-.02s-.19.11-.39.02Z"/>
  </g>
</svg>