<?xml version="1.0" encoding="UTF-8"?>
<svg id="Ebene_10" xmlns="http://www.w3.org/2000/svg" version="1.1" viewBox="0 0 930 325">
  <!-- Generator: Adobe Illustrator 30.1.0, SVG Export Plug-In . SVG Version: 2.1.1 Build 136)  -->
  <defs>
    <style>
      .st0 {
        fill: #a9dce4;
      }

      .st1 {
        fill: #4c6367;
      }

      .st2 {
        fill: #617f84;
      }

      .st3 {
        fill: #66848a;
      }

      .st4 {
        fill: #405457;
      }

      .st5 {
        fill: #abdfe7;
      }

      .st6 {
        fill: #5a757a;
      }

      .st7 {
        fill: #68878d;
      }

      .st8 {
        fill: #1d2628;
      }

      .st9 {
        fill: #0c1011;
      }

      .st10 {
        fill: #84acb3;
      }

      .st11 {
        fill: #8eb9c0;
      }

      .st12 {
        fill: #222c2e;
      }

      .st13 {
        fill: #1a2224;
      }

      .st14 {
        fill: #aee3ec;
      }

      .st15 {
        fill: #010101;
      }

      .st16 {
        fill: #5a7579;
      }

      .st17 {
        fill: #a8dce4;
      }

      .st18 {
        fill: #6d8d93;
      }

      .st19 {
        fill: #7ea5ab;
      }

      .st20 {
        fill: #8ab3ba;
      }

      .st21 {
        fill: #6a898f;
      }

      .st22 {
        fill: #050606;
      }

      .st23 {
        fill: #030304;
      }

      .st24 {
        fill: #2d3b3d;
      }

      .st25 {
        fill: #2f3d3f;
      }

      .st26 {
        fill: #182021;
      }

      .st27 {
        fill: #111617;
      }

      .st28 {
        fill: #232323;
      }

      .st29 {
        fill: #709298;
      }

      .st30 {
        fill: #ace1e9;
      }

      .st31 {
        fill: #475d60;
      }

      .st32 {
        fill: #66868b;
      }

      .st33 {
        fill: #121718;
      }

      .st34 {
        fill: #090c0c;
      }

      .st35 {
        fill: #1b2324;
      }

      .st36 {
        fill: #6f9195;
      }

      .st37 {
        fill: #86adb4;
      }

      .st38 {
        fill: #283436;
      }

      .st39 {
        fill: #5a767a;
      }

      .st40 {
        fill: #8db8c0;
      }

      .st41 {
        fill: #789ca2;
      }

      .st42 {
        fill: #a0d1d9;
      }

      .st43 {
        fill: #b1e6ef;
      }

      .st44 {
        fill: #66858a;
      }

      .st45 {
        fill: #93c0c8;
      }

      .st46 {
        fill: #a2d4dc;
      }

      .st47 {
        fill: #a2d3dc;
      }

      .st48 {
        fill: #96c4cc;
      }

      .st49 {
        fill: #222c2d;
      }

      .st50 {
        fill: #9eced5;
      }

      .st51 {
        fill: #232d2f;
      }

      .st52 {
        fill: #acd3d9;
      }

      .st53 {
        fill: #1c2526;
      }

      .st54 {
        fill: #040606;
      }

      .st55 {
        fill: #313f42;
      }

      .st56 {
        fill: #88b2b9;
      }

      .st57 {
        fill: #92bec5;
      }

      .st58 {
        fill: #0b0f0f;
      }

      .st59 {
        fill: #2c3a3c;
      }

      .st60 {
        fill: #485e61;
      }

      .st61 {
        fill: #394a4d;
      }

      .st62 {
        fill: #90bbc3;
      }

      .st63 {
        fill: #141a1b;
      }

      .st64 {
        fill: #4d6468;
      }

      .st65 {
        fill: #abdee7;
      }

      .st66 {
        fill: #334345;
      }

      .st67 {
        fill: #1f292a;
      }

      .st68 {
        fill: #5e7a7f;
      }

      .st69 {
        fill: #4d6467;
      }

      .st70 {
        fill: #2b393b;
      }

      .st71 {
        fill: #b1e5ee;
      }

      .st72 {
        fill: #212b2c;
      }

      .st73 {
        fill: #14191b;
      }

      .st74 {
        fill: #243031;
      }

      .st75 {
        fill: #0a0d0e;
      }

      .st76 {
        fill: #aaa;
      }

      .st77 {
        fill: #99c7cf;
      }

      .st78 {
        fill: #9ac9d1;
      }

      .st79 {
        fill: #121819;
      }

      .st80 {
        fill: #334245;
      }

      .st81 {
        fill: #010102;
      }

      .st82 {
        fill: #587377;
      }

      .st83 {
        fill: #7ca1a7;
      }

      .st84 {
        fill: #9ccad2;
      }

      .st85 {
        fill: #415458;
      }

      .st86 {
        fill: #799da3;
      }

      .st87 {
        fill: #3d4f52;
      }

      .st88 {
        fill: #171e1f;
      }

      .st89 {
        fill: #73969c;
      }

      .st90 {
        fill: #89b2b9;
      }

      .st91 {
        fill: #50676b;
      }

      .st92 {
        fill: #2d3a3c;
      }

      .st93 {
        fill: #6e8f95;
      }

      .st94 {
        fill: #72959b;
      }

      .st95 {
        fill: #000101;
      }

      .st96 {
        fill: #1a2123;
      }

      .st97 {
        fill: #44585c;
      }

      .st98 {
        fill: #779ba1;
      }

      .st99 {
        fill: #86aeb5;
      }

      .st100 {
        fill: #1e2728;
      }

      .st101 {
        fill: #a6d8e1;
      }

      .st102 {
        fill: #546d71;
      }

      .st103 {
        fill: #171e20;
      }

      .st104 {
        fill: #6e6f6f;
      }

      .st105 {
        fill: #354547;
      }

      .st106 {
        fill: #afe5ee;
      }

      .st107 {
        fill: #324143;
      }

      .st108 {
        fill: #9ca4a5;
      }

      .st109 {
        fill: #bebebe;
      }

      .st110 {
        fill: #769ba1;
      }

      .st111 {
        fill: #a7d9e1;
      }

      .st112 {
        fill: #7ba1a7;
      }

      .st113 {
        fill: #1e2628;
      }

      .st114 {
        fill: #526c70;
      }

      .st115 {
        fill: #66858b;
      }

      .st116 {
        fill: #232d30;
      }

      .st117 {
        fill: #050707;
      }

      .st118 {
        fill: #101516;
      }

      .st119 {
        fill: #2e3c3f;
      }

      .st120 {
        fill: #0d1112;
      }

      .st121 {
        fill: #5c777c;
      }

      .st122 {
        fill: #7d9aa0;
      }

      .st123 {
        fill: #141a1a;
      }

      .st124 {
        fill: #717171;
      }

      .st125 {
        fill: #a5d7df;
      }

      .st126 {
        fill: #86afb5;
      }

      .st127 {
        fill: #4a6164;
      }

      .st128 {
        fill: #83aab1;
      }

      .st129 {
        fill: #020202;
      }

      .st130 {
        fill: #93bfc6;
      }

      .st131 {
        fill: #212b2d;
      }

      .st132 {
        fill: #a6d9e1;
      }

      .st133 {
        fill: #0c1010;
      }

      .st134 {
        fill: #3e5053;
      }

      .st135 {
        fill: #060808;
      }

      .st136 {
        fill: #7ea4ab;
      }

      .st137 {
        fill: #668489;
      }

      .st138 {
        fill: #fff;
      }

      .st139 {
        fill: #abdfe8;
      }

      .st140 {
        fill: #344547;
      }

      .st141 {
        fill: #020303;
      }

      .st142 {
        fill: #646464;
      }

      .st143 {
        fill: #69888e;
      }

      .st144 {
        fill: #0c0f10;
      }

      .st145 {
        fill: #bceaf2;
      }

      .st146 {
        fill: #84acb2;
      }

      .st147 {
        fill: #8fbbc2;
      }

      .st148 {
        fill: #9ccbd4;
      }

      .st149 {
        fill: #324042;
      }

      .st150 {
        fill: #0e1213;
      }

      .st151 {
        fill: #151c1d;
      }

      .st152 {
        fill: #0f1314;
      }

      .st153 {
        fill: #7ea3aa;
      }

      .st154 {
        fill: #5b777b;
      }

      .st155 {
        fill: #8eb8c0;
      }

      .st156 {
        fill: #253031;
      }

      .st157 {
        fill: #13191a;
      }

      .st158 {
        fill: #87b0b7;
      }

      .st159 {
        fill: #668589;
      }

      .st160 {
        fill: #b0e5ee;
      }

      .st161 {
        fill: #b3e7f0;
      }

      .st162 {
        fill: #040505;
      }

      .st163 {
        fill: #878787;
      }

      .st164 {
        fill: #3a4b4e;
      }

      .st165 {
        fill: #e0f5f9;
      }

      .st166 {
        fill: #e5f7fa;
      }

      .st167 {
        fill: #1a2223;
      }

      .st168 {
        fill: #161c1d;
      }

      .st169 {
        fill: #425659;
      }

      .st170 {
        fill: #6c8d92;
      }

      .st171 {
        fill: #0d1111;
      }

      .st172 {
        fill: #76999f;
      }

      .st173 {
        fill: #45595d;
      }

      .st174 {
        fill: #101415;
      }

      .st175 {
        fill: #93c0c7;
      }

      .st176 {
        fill: #2f3c3f;
      }

      .st177 {
        fill: #0b0e0e;
      }

      .st178 {
        fill: #070909;
      }

      .st179 {
        fill: #536c70;
      }

      .st180 {
        fill: #0a0d0d;
      }

      .st181 {
        fill: #7a9fa5;
      }

      .st182 {
        fill: #b0e6ef;
      }

      .st183 {
        fill: #80a7ad;
      }

      .st184 {
        fill: #b2e7f0;
      }

      .st185 {
        fill: #d5d5d5;
      }

      .st186 {
        fill: #789da3;
      }

      .st187 {
        fill: #799ea4;
      }

      .st188 {
        fill: #030404;
      }

      .st189 {
        fill: #b2e8f1;
      }

      .st190 {
        fill: #314042;
      }

      .st191 {
        fill: #293537;
      }

      .st192 {
        fill: #87b1b7;
      }

      .st193 {
        fill: #242f31;
      }

      .st194 {
        fill: #1c2426;
      }

      .st195 {
        fill: #5d797e;
      }

      .st196 {
        fill: #38484c;
      }

      .st197 {
        fill: #273335;
      }

      .st198 {
        fill: #9ecdd5;
      }

      .st199 {
        fill: #7ba0a6;
      }

      .st200 {
        fill: #3b4d50;
      }

      .st201 {
        fill: #85adb3;
      }

      .st202 {
        fill: #2f3d40;
      }

      .st203 {
        fill: #b1e7f0;
      }

      .st204 {
        fill: #73959b;
      }

      .st205 {
        fill: #1b2325;
      }

      .st206 {
        fill: #84abb2;
      }

      .st207 {
        fill: #585858;
      }

      .st208 {
        fill: #638186;
      }

      .st209 {
        fill: #8bb4bc;
      }

      .st210 {
        fill: #67868b;
      }

      .st211 {
        fill: #0a0e0e;
      }

      .st212 {
        fill: #283437;
      }

      .st213 {
        fill: #0a0a0a;
      }

      .st214 {
        fill: #81a8af;
      }

      .st215 {
        fill: #151b1c;
      }

      .st216 {
        fill: #607c81;
      }

      .st217 {
        fill: #75989e;
      }

      .st218 {
        fill: #080a0b;
      }

      .st219 {
        fill: #303f41;
      }

      .st220 {
        fill: #232e2f;
      }

      .st221 {
        fill: #a1d2da;
      }

      .st222 {
        fill: #3e5154;
      }

      .st223 {
        fill: #7fa6ad;
      }

      .st224 {
        fill: #101515;
      }

      .st225 {
        fill: #4a6064;
      }

      .st226 {
        fill: #0f1415;
      }

      .st227 {
        fill: #89b2ba;
      }

      .st228 {
        fill: #5b767a;
      }

      .st229 {
        fill: #263233;
      }

      .st230 {
        fill: #8fbac1;
      }

      .st231 {
        fill: #181f21;
      }

      .st232 {
        fill: #536c71;
      }

      .st233 {
        fill: #0e1314;
      }

      .st234 {
        fill: #88b1b8;
      }

      .st235 {
        fill: #9dcdd5;
      }

      .st236 {
        fill: #6b8b91;
      }

      .st237 {
        fill: #a3d5dd;
      }

      .st238 {
        fill: #36474a;
      }

      .st239 {
        fill: #a5d7e0;
      }

      .st240 {
        fill: #030405;
      }

      .st241 {
        fill: #37474a;
      }

      .st242 {
        fill: #010202;
      }

      .st243 {
        fill: #3b4c4f;
      }

      .st244 {
        fill: #1d2527;
      }

      .st245 {
        fill: #192022;
      }

      .st246 {
        fill: #a2d3db;
      }

      .st247 {
        fill: #b3e5ee;
      }

      .st248 {
        fill: #38494b;
      }

      .st249 {
        fill: #719399;
      }

      .st250 {
        fill: #0e1212;
      }

      .st251 {
        fill: #030505;
      }

      .st252 {
        fill: #6a8a8f;
      }

      .st253 {
        fill: #141b1c;
      }

      .st254 {
        fill: #434343;
      }

      .st255 {
        fill: #7fa5ab;
      }

      .st256 {
        fill: #43575a;
      }

      .st257 {
        fill: #afe4ed;
      }

      .st258 {
        fill: #597378;
      }

      .st259 {
        fill: #161d1e;
      }

      .st260 {
        fill: #5d7a7f;
      }

      .st261 {
        fill: #324043;
      }

      .st262 {
        fill: #76cad8;
      }

      .st263 {
        fill: #212a2c;
      }

      .st264 {
        fill: #060707;
      }

      .st265 {
        fill: #fcfdfd;
      }
    </style>
  </defs>
  <rect class="st262" x=".11" y=".46" width="930.16" height="325.05"/>
  <g>
    <path class="st189" d="M926.68,0c.32,107.74.41,215.62.29,323.64-309.02.28-618.01.24-926.98-.12V0h926.68Z"/>
    <polygon class="st166" points="926.68 0 927.18 0 927.18 324.02 0 324.02 0 323.52 926.77 323.49 926.68 0"/>
    <path d="M883.34,6.01c5.66-.94,11.34-1.17,17.05-.68l.33.65c.34,0,.71.04,1.05,0h.5s11.48-.11,11.48-.11c1.57-.02,2.94.31,3.84,1.43-.37.65-1.71.86-1.7,1.65l.47,28.49,1.95,273.99c.03,4.13-2.69,1.76-1.01,3.25.54.47-.85,2.21-5.17,2.22l-105.53.27-145.36.38c-2.47,0-1.14,1.61-2.35,2.39-1.36.87.13-2.37-2.82-2.36l-149.78.24-29.5.16-29.01.65-370.93-.13-39.45-.09-29.46-.4c-.52.1-.4-.36-.14-.85l8.84-.38,123.89-.65,135.49-.21,175.72-.24,10.94-.42,64.6-.28,64.61-.32,65.53-.23.26-7.85c.21-6.48,8.94-34.9,10.42-42.75.27-.71.29-1.28-.52-1.02-37.9,17.7-77.78,30.7-119.19,38.65-35.65,6.84-71.83,10.3-107.93,9.78l-11.5-.17c-.44-.14-.43-.31,0-.5-.11-.79.21-1.27.99-1.23,81.17,1.04,164.27-14.85,238.34-50.14l6.86-21.54c-3.03-4.82-5.92-9.99-8.68-15.5-20.5,8.88-41.87,15.88-63.46,21.65-.87,3.06-1.68,6.13-2.42,9.2l-3.17,3.77c-4.27,10.36-17.25,20.12-28.62,14.36-2.5,2.6-5.59,2.23-8.37.39-9.38-.55-18.32-3.32-26.92-6.53-4.77-1.2-9.65-1.15-14.63.14-8.14.09-16.33-.32-24.57-1.23-10.02-.45-19.97-.06-29.84,1.18l-1.27-.72c-10.19.36-20.37.37-30.53.03-125.26,8.09-269.24-43.45-324.3-163.71-2.23-2.64-3.63-5.46-4.19-8.47-.38-.14-.52.02-.43.43l1.77,3.73c24.06,108.99,113.43,177.16,219,201.35,23.19,5.31,45.13,7.61,68.66,10.06,1.53.16,2.99.73,4.4,1.3-.94,1.06-3.51.84-4.98.5-33.33-1.03-66.68-6.85-98.77-16.78-98.6-30.49-174.57-102.34-193.43-205.96-2.22-5.63-9.94-18.69-7.87-24.54.97-2.73,3.71-7.56,6.03-9.04l.48.02.64.96c-6.34,9.16-4.46,13.41.42,23.62,3.57,7.45,8.04,14.44,12.89,21.13,12.39,17.05,27.51,31.88,42.82,46.22,2.57-.36,4.86,1.15,6.89,4.54,5.94,8.69,12.04,17.25,18.3,25.68,1.39,2.54-2.35,3.14-2.62.8-.35.13-.69-.22-1.01-1.03q-1.05-.76,0,0c.35.45.77,1.08.48,1.56.5-.01,1.02.27,1.55.85,12.84-2.78,14.5-22.56,15.01-33.74.22-4.78-2.29-16.42-5.36-19.74-2.7-2.93-11.96-7.39-15.91-9.19-2.37-.57-4.27-1.58-5.69-3.01-.73-.12-.91.07-.54.57,1.54-.38,3.17,3.97,1.94,4.91.29.91.16,1.24-.4.97l-1.93-1.34c-4.28-7.71-10.26-14.12-16.44-20.19-7.62-9.33-15.82-17.97-24.61-25.93-.18-.44.13-.89.55-1.18-.49-.7-.22-.93.58-.63l1.07-.61c5.69,3.86,10.87,8.44,15.52,13.74,12.18-3.38,25.76-2.13,36.76,4.28,1.84.35,2.96,1.06,3.36,2.13.69.25,1.02.2,1-.17l-1.33-.53c-2.81-4.14-4.45-8.51-4.9-13.1-10.17-2.01-19.4-6.29-27.69-12.84-15.49-6.16-33.74-8.2-50.41-6.96-1.06-.39-1.16-1.14-.27-1.81,9.5-3.33,24.61-1.7,34.6.69l14.23,3.41c-1.43-3.5-.7-6.78,2.05-8.97l3.33-2.66c.66-.99.68-1.3.06-.91-.15.51-.45.45-.59-.09l-.9-.61c2.19-3.64-8.61-2.01-8.98-1.6-.07.08.35,2.03.45,2.07l5.24-.32.75.95c.95-.23,2.47-.53,1.99.63-1.42.74-2.87,1.12-4.73,1.26l-51.07,3.77-4.48.4h-2.99c-.65.23-1.12.23-1-.5.16-1.32.62-1.26,1,0l2.49-.5c.13-.93,1.05-1.34,2.77-1.21,1.1-.26,1.47-1.15,1.1-2.68l1.02-.59-.38-.66-4.37-.29-.15-.54c1.76-.03,3.37-.36,4.02-2.01,1.07-2.87,4.1-2.36,5.69-.22,2.13.2,4.26.08,6.41-.35.05-1.12,1.18-2.48,1.72-1.68-.31-9.86-.99-19.6-2.05-29.22l-.62-.02-2.56,11.6-1.13.49c-.61.25-.81-.25-.62-1.49l-.69-.57c-1.21,6.46-2.59,13.02-4.49,19.39l-1.68,2.05c-.06.2-.86-.05-.92-.24,3.3-11.1,4.02-20.4,6.96-32.12H10.56c-.73-.01-1.18-.35-1.01-.67.12-.23.5-.8,1.02-.81l39.37-.7,295.78-1.45,107.84-.06,60.15.46,100.55.32,55.35-.23,58.31-.21,89.09-.26,29.47-.26,3.99-.04h32.86Z"/>
    <path class="st95" d="M9.65,300.45c.01,3.84.21,7.22.01,11-.05.95-1.3,2.29-2.03,2.48-.73-.52-1.05-1.81-1.05-2.97l-.1-79.54-.15-219.31c0-.87.53-1.46.85-1.45.37.01,1.02.29,1.03.94l.42,30.03.24,51.98.25,64.97.24,66.41.27,75.46Z"/>
    <path class="st182" d="M96.07,45.79c-.15.97.39,2.58-.5,3.51-1.08,1.12-3.07.81-4.4.97l-2.49.5h-1c-.4.65-1.22.31-1.06-.47-2.62.22-1.88-3.46-.54-4.94.21-.11.4-.55.65-.57,2.97,0,5.99.13,9.05.37l.29.63Z"/>
    <path class="st265" d="M900.72,5.99l-17.38.02c.13-.85,1.21-.37,1.98-.51l8.97-1.6c2.41-.43,4.79-.1,6.75,1.15-.05.41-.22.68-.32.93Z"/>
    <path class="st174" d="M410.03,309.58c.44.14.43.31,0,.5h-16.91c-.35-.01-.59-.3-.53-.5,1.86.06,3.33-.08,4.98-.5-.01-.41.08-.97.39-1.02,1.69-.29,9.38.23,11.39.51l.68,1.01Z"/>
    <path class="st46" d="M153.92,45.72l.03-.34c-.97.04-.95-.34.03-.57.92-1.12.47-2.6.33-4.25,1.83.38,2.52,2.4,2.53,3.93-.91.91-2.22.68-2.91,1.23Z"/>
    <path class="st59" d="M428.96,310.58v.5c-3.18-.05-6.33.04-9.47-.5-.44-.14-.43-.31,0-.5l.76-.95,5.95-.1c1.74-.13,2.66.38,2.75,1.55Z"/>
    <path class="st96" d="M86.08,45.36c-.34,1.76-1.15,3.81.54,4.94.46.86-.03,1.02-1.48.47-1.83-1.25-.94-4.47.93-5.41Z"/>
    <path class="st259" d="M91.17,44.3c3.97,1.44,5.22-.67,4.89,1.49-.32-.24-.78-.48-1.39-.49l-7.44-.05c-.37,0-.68-.18-.51-.46,1.42.03,3.05-1,4.44-.49Z"/>
    <path class="st119" d="M418.5,310.08c-.73.15-1.56.32-2.49.5-2.03.35-3.96-.5-5.98-.5v-.5c.05-.38.16-.96.43-.99,1.14-.15,7.66-.14,8.29.28.36.24.15.84-.24,1.22Z"/>
    <path class="st169" d="M153.39,44.71c.19-.02.39.1.59.09l-.03.57c-.63.17-1.4.14-1.99.45-.31-.78-1.3-.56-1.99-.63-.09-1.88,2.73-2.05,3.42-.49Z"/>
    <path class="st194" d="M87.69,50.77c.29.25.58.5,1,.5-.96.86-2.55.17-3.53-.5.54.01,1.12-.03,1.48-.47.34.15.77.23,1.06.47Z"/>
    <path class="st194" d="M96.16,50.86c-1.25.88-2.99.4-4.48.4,1.15-1.1,3-.29,4.48-.4Z"/>
    <path class="st133" d="M418.5,310.08c.42.16.42.33,0,.5-.81.09-1.68-.14-2.49,0,.47-.85,1.66-.45,2.49-.5Z"/>
    <path class="st68" d="M668.1,263.84c.02-.41-.02-.96-.52-1.02.07-.27.13-.49.3-.52.54-.12.89.23.75.76-.08.29-.22.61-.54.79Z"/>
    <path class="st18" d="M96.08,52.06c.52-.59.94-.33,1.07-.04s.02.6-.25.74c-.29.16-.76.1-.82-.7Z"/>
    <path class="st38" d="M99.71,53.25c.07.99-.35,1-.68.04-.16.03-.32-.03-.48-.02.21-.13.4-.75.8-.52.16.09.32.34.36.51Z"/>
    <path class="st70" d="M419.5,310.08v.5c-.31-.05-.69-.03-1,0,.02-.16-.04-.34,0-.5.14-.97.54-.92,1,0Z"/>
    <path class="st265" d="M902.27,6h-.5c.16-.18.35-.25.5,0Z"/>
    <path class="st138" d="M911.24,8.95l1.1.31c.8,2.59,1.25,5.24,1.35,7.93-2.56,1.24-2.81,4.8,0,5.9.2,4.44.39,8.88.55,13.31l.11,71.61c-.19,24.59-.28,36.89-.28,36.89.54,3.22.75,6.73,0,9.87-10.92.57-21.5,2.74-31.75,6.53-10,2.01-19.62,5.27-29.41,8.89-11.21,4.13-22.41,5.8-34.25,7.33-17.59,2.27-34.88,4.02-52.4,4.12-1.34,1.84-4.51,1.73-6.48.6-5.55-.32-11.08-.7-16.91-.19-4.01.35-7.78-.07-11.47-.33-.15-.14-.41-.29-.6-.32-7.11-1.14-15.19-2.77-22.2-4.55-4.19-1.06-8.86-3.06-12.62-5.13-.6-.73-1.78-1.04-2.36-2.17-1.51-2.95-2.34-6.02-3.58-8.82.05-1.24-.46-2.39-1.54-3.45-3.71-8.33-6.15-17.2-10.42-25.34-.53-.8-.51-1.31.51-1.06-1.03-10.24,4.27-11.61-1.18-21.17-2.23-3.91-3.64-9.45-1.62-13.52,1.7-3.41,3.25-6.13,3.36-10.06.14-5.1-1.72-9.44-2.36-14.51-.76-5.93,0-12.72,1.74-18.35l6.21-40.18c1.82-.52,2.82-1.54,4.08-2.88,6.22-.42,12.46-.67,18.73-.75l57.62.05c2.02,0,3.61.08,5.6.05l17.92-.24,16.28-.12,20.34-.06,85.95-.18Z"/>
    <path class="st189" d="M759.78,182.23c2.03.12,4.37-.59,6.48-.6-.04.09-.1.22-.14.41-.44.33-.38.74.1.47,5.55.86,10.81.33,16.29.42,11.94.19,23.31-1.29,35.18-2.47,14.71-1.46,28.49-4.19,42.24-9.54,8.99-3.5,18.03-5.67,27.42-7.64l16.87-3.54c3.42-.72,6.82-1.19,10.43-1.26l.85,154.68-36.79.2c1.11-1.67,1.88-2.94,2.24-4.72,2.78-12.44,4.49-24.92,5.1-37.67.03-.59-.14-.67-.51-.7-.28-.03-.75.09-.8.54-1.39,12.51-3.27,24.78-6.64,36.9-.56,2-1.11,3.63-.74,5.77l-217.44.82c-.36-10.8,4.53-26.26,7.35-37.19.35-1.36.03-2.66.56-4.11,1.47-4.05,2.53-8.12,3.74-12.28,2.51-8.66,5.23-16.83,8.58-25.28l9.27-23.44c3.21-1.74,5.62.89,8.47,1.53,5.86,1.32,12.77-.21,18.13-2.77,8.39-4.01,12.44-12.66,19.91-12.64,6.52.02,12.86-.75,19.05-2.83,3.56-1.19,6.58-3.99,7.1-7.67.34-2.37-.42-4.45-2.3-5.4Z"/>
    <path class="st189" d="M264.64,46.84l.09.38-3.78,1.56.06.43c.4.28.6.27.59-.02.06-1.21,2.71-1.91,4.01-1.97.93-.46,2.47-.37,3.4-.86,1.46.14,1.17.98.39,2.05-1.88.7-3.5,1.63-4.87,2.79l-12.37-4.06c-1.6-.53-2.71-1.89-4.09-2.98-.25-4.45-1.45-8.4-2.67-12.54-.77-2.61-1.86-4.43-4.29-5.87-5.6-3.32-11.8-5.05-18.34-5.98-10.48-1.49-19.44-1.89-28.88,2.13-.4.22-.69.26-1.08-.02-.25.8-1.36.28-1.49-.5h-.5l-.5-.5-.5-.5c-1.09.64-3.53-.4-4-1.57-.19.24-.38.24-.57,0-.44.05-.43-.07-.02-.33l-.94-.52c-1.41.39-4.34-.76-5-2.1-3.53-2.06-7.15-3.67-10.99-6.25l280.56-.95,21.45.8,16.02.32,72.59.16c-4.16,12.85-6.81,24.63-2.3,37.74,5.86,17.02,14.47,29.13,20.92,45.83-23.07,5.34-45.81,8.99-69.13,11.07-1.11-5.03-.82-9.93-2.23-14.77-2.06-7.1-7.84-15.14-15.13-18.33-8.97-3.93-22.9-2.41-30.62,2.32-7.66,4.7-13.56,11.15-20.08,17.16-4.62,4.26-8.36,8.72-12.14,14.16-40.78-3.11-81.49-11.75-119.53-27.3l5.56-14.84c2.13-5.68,3.79-11.51,2.88-17.74-.41-2.81-1.97-6.19-4.23-7.97-4.8-3.78-27.51,2.22-33.84,4.05-5.12,1.48-10.07,2.85-14.42,5.48Z"/>
    <path class="st189" d="M428.96,310.58c-2.89-1.13-6.38-.2-9.47-.5-.33-.03-.67-.02-1,0,.05-.22-.13-.49-.49-.49h-7.98c-2.59-.01-11.82-.67-12.46-.51-79.08-5.01-158.21-28.31-217.88-82.93-38.77-35.49-65.64-82.26-75.95-133.5-.42-.68-.27-.84.43-.43,1.12,3.22,3.96,5.47,5.45,8.77,8.25,18.32,18.6,35.24,31.43,50.83,30.44,37,70.74,64.35,114.83,82.78,52.29,21.85,107.88,31.12,164.38,29.5,4.83-.14,9.34-.81,14.2-.7,9.73.21,19.14.46,28.82-.02.76-.04,1.37,1.02,2.12.9,11.62-1.92,23.05-1.98,34.82-.95,5.6.49,10.85,1.03,16.43.96,3.9-.05,7.62-1.39,11.44-1.24,4.48.18,8.63,1.95,12.78,3.48,6.36,2.35,12.78,3.31,19.47,3.98,2.46.25,2.8,3.56,8.41-.28,5.23,2.7,10.45,1.73,15.5-.41,2.62-1.11,3.94-3.11,5.95-4.68,2.95-2.31,4.55-4.46,5.96-8.14.78-2.02,3.68-3.29,4.01-5.87.35-2.8,1.06-5.43,2.31-8.08,21.91-5.99,43.01-13.14,64.07-21.73,4.38,5.46,5.44,10.57,9.73,16.08l-7.14,22.42c-70.6,33.94-148.95,49.73-226.77,50.54-3.71.04-6.82.51-10.41.08-1.07-.13-2.15-.25-2.99.12Z"/>
    <path class="st189" d="M450.39,139.84l-.51,1.05c-1.21,2.15-.63,4.58.57,6.86s-3.4,12.46,3.92,20.94c-4.4,12.1-13.4,24.49-20.54,35-.42,1.4-1.69,2.49-2.82,3.43-.84.76-2,.59-3.02.84-.6.46-1.68.2-1.59-.58-7.15-3.87-14.68-6.02-22.59-6.44-1.92-2.14-4.1-3.77-7.02-4.06-3.53.41-7.04.4-10.51-.04-16.18-4.98-32.77-1.96-48.57,2l-.41-.28c-.03.7-1.35.85-1.99.54-.4.67-1.21,1.21-1.99,1-.34.49-.34.66,0,.5.13-.32.3-.31.5,0,.06-.62,1.39-1.38,1.99-1,.47-.5,1.46-.85,1.99-.39,0-.22.02-.39.08-.4,6.16-1.43,12.26-2.74,18.57-3.94,10.67-1.23,21.42.59,31.67,2.92,3.43-.16,6.86-.16,10.29,0,6.96,2.49,2.67,5.06-2.23,5.8-1.2,1.03-2.65,1.87-4.36,2.53l.32.28c1.05-1.26,3.35-2.4,4.99-2.27,1.83-1.83,5.08-2.91,7.88-2.85,6.03.13,14.7,2.94,20.08,5.72l.3,1.06c.44.13.44.3.01.5-15.82,6.5-28.65,26.81-25.4,44.4.18.97,2.49,7.32,4.63,5.59,1.34-1.09-1.76-3.24-2.36-6.36-2.35-12.33,3.37-23.95,11.54-32.89,2.86-3.13,5.83-5.53,9.68-7.41,7.7-3.77,12.36-2.19,19.56,1.01-7.43,1.3-15.79,9.43-19.62,15.03-.24.34.08,1.27.32,1.39.96.48,7.42-9.19,15.76-12.78,6.8-2.93,14.79-1.18,20.97,3.05-2.84,1-5.75.83-8.51,1.41-7.73,1.62-13.52,6.04-17.33,12.72-3.97,6.95-6.13,14.69-4.86,22.75.36,2.29,1.25,4.2,3.06,5.49l-3.86.23-4.93-.22c-2.13.85-3.81.78-5.03-.21-1.35-.02-2.18-.35-2.49-.98-.64-.48-.97-.49-.98-.03.76.98-1.78,1.05-2.51.57-.04.24-.1.44-.22.5-.58.26-4.05,0-4.76-.5-.53.34-1.92.43-2.49,0-.16.42-1.15.36-1.49,0-1.24-.18-1.24-.02,0,.5.13-.41.73-.36,1,0-.05.27-.11.49-.25.56-1.22.57-5.21.21-6.72.07-41.53-1.15-86.88-9.75-126.2-24.32.53-8.28,3.48-15.3,8-21.76,5.81-8.3,12.12-15.92,20.22-22.02,3.13-2.36,6.75-3.17,10.16-5,8.56-4.58,17.53-7.85,27.04-8.67l.4-.56c2.4,0,4.75-.28,7.07-.83-.03-.25-.03-.46.07-.56.81-.75,13.44-2.85,12.85.37-.12.64-2.64,2.32-3.46,2-.08.41.11.61.54.62l.29-.63c3.42-2.38,6.91-4.8,10.46-7.27,1.44-.56,3.59-1.32,3.15.9l.1.47c-.58,2.4-1.46,5.75-3.07,7.43-.05.88.13,1.18.53.9.41-2.4,1.34-5.58,3-7.33,1.88-5.31,2.62-7.12,7.7-9.25l-3.34,13.17c.3.61.19,1.77-.43,2.03.28.62-.1,1.43-.5,1.99.31.41-.1,1.17-.5,1.49-.2,1.49-.03,1.82.5,1-.42-.83-.22-1.89.5-2.49-.34-.52-.13-1.32.5-1.49-.21-.62-.16-1.81.51-2.02,2.1-4.85,2.63-10.35,5.34-15.18l1.59-2.83c1.8-3.21,4.44-5.81,7.1-8.38,7.07-6.84,13.38-13.92,19.83-21.36l16.88-19.5c7.24-8.37,7.41-11.71,17.37-20.99,6.15-5.73,11.81-11.8,19.03-16.29,9.87-6.14,30.1-7.5,38.16,4.85,7.21,11.04,4.71,13.05,6.52,24.26l1.17,7.26c.66,4.11,1.54,8.13,1.01,12.41-16.28-7.26-21.15-6.42-36.77-.9-3.23,1.14-5.65,2.64-8.27,4.73-4.46,3.57-9.33,6.7-12.73,11.11Z"/>
    <path class="st189" d="M629.72,34.36c1.46-.77,2.58.06,2.52,1.53,4.62,7.84,8.89,15.65,12.48,24.29l14.16,34.08c4.69,11.3,7.99,22.79,13.69,33.56l7.93,14.98c3.34,6.31,5.94,19.77,11.62,28.78,2.07,3.28,6.13,4.69,9.59,5.87l7.8,2.65c.94.32,1.92-.27,2.64-.54,5.72,1.75,11.43,3.47,17.51,4.34,11.67,1.66,18.98-1.11,29.95.6,3.44,10.36-17.22,10.8-23.41,10.91-3.4.06-6.28,1.11-8.84,3.22l-7.61,6.26c-6.64,5.46-18,7.33-25.71,5.04-.22-.51-.51-.83-1.07-.87-2.97-.06-9.6-2.17-11.93,1.47.02.45.76.39.97.5,1.24.1,1.88.45,1.95,1.05-.77.29-1.08,1.1-.91,1.88.89-.2,1.26.15,1.06,1.06.43,1.85-.99,3.75-1.76,5.47-1.56-1.6-1.63-3.55-3.49-4.41-.21,2.49,1.92,4.41,2.4,6.69-.48,3.8-2.62,7.34-3.74,11.32-3.71-3.61-5.74-9.2-9.58-13.29,3.49-1.17,7.08-.53,9.53-3.69-8.52,1.29-17.03,5.4-21.61-4.3-2.62-5.54-3.56-11.58-6.51-17.07-7.37-13.72-16.2-26.36-26.07-38.38l-11.26-13.72c-11.24-13.68-22.99-30.53-30-46.72-2.8-6.47-5.27-12.6-8.41-18.89-5.12-10.27-10.6-19.95-14.4-30.84-4.5-12.91-1.72-24.39,2.43-37.33l101.89-.27c-2.61,2.88-5.84,4.69-9.12,6.66l-17.64,10.62c-6.14,3.7-11.74,7.49-18.5,10.01-1.64.61-13.71,4.99-11.52,7.24,9.61-3.44,14.38-5.47,22.96-9.76Z"/>
    <path class="st189" d="M571.44,192.9c-2.78,1.26-4.73,3.43-7.16,4.91-3.88,2.36-7.39,4.82-10.97,7.59-4.38,3.38-8.82,6.08-13.61,8.82-4.62,2.64-9.65,4.26-15.08,4.64-8.9.62-6.95,3.95-16.39,4.09-3.43-2.01-6.66-4.78-8.89-8.04-.9-1.32-1.53-2.16-3.28-1.87-2.58-12.47,1.49-30.43,5.37-42.6,1.14-3.57,1.62-7.82,3.6-10.84,7.63-5.94,10-6.61,7.75-17.41-.55-2.66-.11-4.48.72-6.94,1.14-3.4.17-7.3-3.08-8.97.83-8.08-1.19-12.1-1.43-19.5,23.59-2.19,46.3-5.89,69.51-11.31,6.58,16.8,19.87,35.99,31.31,49.83l12.68,15.34c9.61,11.63,19.53,23.43,25.26,37.29l6.7,16.21c1.37,3.31,3.89,5.39,7.84,6.58-19.74,7.93-39.5,14.65-60.24,20.19,1.17-3.43,1.37-6.07,2.09-8.84s.22-5.27.45-8.11c.22-2.71.72-5.6,1.15-8.25.68-4.15,2.2-7.79,2.02-12.17-.22-5.31,1.59-11.79-5.69-13.33-3.51-.74-7.05-.31-10.68-.55-1.53-.1-2.82.58-4.08.59-5.35.04-10.68.3-15.88,2.65Z"/>
    <path class="st189" d="M342.73,177.27c1.35.32,2.03.17,2.04-.45l.57.38c.73-.64.96-.32.36.5.6.98-.93,1.3-1.81.97-.19.82-1,1.24-2.44,1.26l-7.14.15c-9.21.17-17.91,3.74-26.44,7.54-5.18,2.3-10.22,4.06-14.18,8.33-7.03,6.06-12.51,13.27-17.65,21.03-4,6.05-6.11,12.89-6.86,20.06l-20.57-8.19c-1.02-.49-1.07-1.44.06-1.87.94-8.77,6.49-17.83,12.54-24.13.17-.18.51-.21.88-.2l2.72-2.81c.72-1.61,1.75-2.67,3.08-3.19-.19-.5.11-.7.64-.54-.32-.47-.06-.67.5-.5l-.5-.5c.4.41.08.62-.5.5.19.49,0,.73-.54.62-.81,1.41-1.79,2.34-2.93,2.79-7.2,8.13-15.05,17.19-16.04,28.59-.38.98-1.14.65-1.94.29-15.6-7.67-30.98-15.56-45.46-25.61-5.39-3.74-9.42-8.4-14-12.95-2.57-2.55-5.3-4.43-7.45-7.93,4.68-.58,7.91-3.07,10.55-6.86,4.82-6.92,6.91-15.19,7.45-23.74.35-5.54,1.24-11.04-.64-16.24l-3.83-10.59c-.11-.46.1-.48.64-.05.58.53,10.51,10.45,11.08,8.28.06-.24.06-.91-.29-1.17-3.48-2.64-6.45-5.48-9.28-8.54-.57-.87.11-.77,1-.55,2.25.73,4.76,1.45,7.03,2.72,12.52,7,28.97,9.29,42.33,3.84,3.01-1.23,6.38-3.25,7.21-6.76.59-2.49-2.06-4.87-3.98-6.03-2.82-1.71-5.63-1.81-8.95-2.88,2.35-1.36,4.34-3.73,6.83-4.67,12.03-1.03,30.54,13.7,39.46,21.46,4.39,3.82,7.68,8.89,10.35,14.07,1.42,2.76,2.34,5.59,4.98,7.44,1.06.74,1.93,1.92,1.93,3.04-5.68-.12-10.9-1.31-16.56.16l16.44,1.83c3.19.35,5.25,1.95,7.32,4.28,1.87,2.11,8.27,2.05,12.69,8.82-8.56-.15-16.54.29-24.64,3.17,2.11.94,4.25-.08,6.55-.35,7.86-.93,19.06-1.87,26.09,1.49-8.77.5-17.02,2.8-24.57,6.03-.3.13-.48.69-.39.87.16.3.84.4,1.37.22,6.12-2.06,12.06-3.94,18.45-4.97,3.16-.51,6.11-.41,9.19.18l7.22,1.38Z"/>
    <path class="st189" d="M369.18,173.7c-1.24-.43-2.4-.42-3.46.03l-6.95,4.88c-3.9-1.58-8.11-1.68-12.64-.3l-.43-.63-.36-.5c-.25-.07-.6-.43-1.07-1.06-2.58-1.44-5.96-1.03-8.75-2.35-2.96-1.39-5.48-3.58-9.21-3.67-5.18-9.35-12.22-9.47-14.19-11.23-2.12-1.89-3.83-4.06-7.27-4.19,1.08-6.37-1.5-1.91-6.09-11.67-2.49-5.3-6.26-9.81-10.4-13.97-1.33-1.34-3.86-2.1-4.28-4.2-1.06-5.28,6.08-14.68,9.04-19.26,2.76-3.86,5.28-7.66,7.51-11.89l7.31-13.83c38.22,15.68,76.86,23.98,118.36,27.53-2.87,4.82-6.38,8.48-9.85,12.44l-13.05,14.87c-5.17,5.89-10.13,11.65-15.71,17.14-3.99,3.92-7.35,7.94-10.1,12.74l-5.31,3.25c-2,1.22-2.66,3.77-3.1,5.87Z"/>
    <path class="st189" d="M184.3,88.49c.05.41-.28.46-1,.17-3.82-.56-10.76-5.12-15.62-6.15-5.03-1.06-20.13-1.81-24.65.98-4.18-3.99-11.6-12.44-16.44-14.37-.48-.02-.67.19-.58.63.4,1.2,1.41,1.99,2.5,2.92,7.97,6.74,14.76,14.38,21.37,22.43,2.3,2.8,4.9,4.99,7.33,7.61,4.53,4.86,8.05,10.08,11.23,15.68.95.82,1.6,1.97,1.96,3.43l.35-.42c-1.09-.65-1.86-2.67-1.9-3.99l-1.94-4.91c-.43-.68-.18-.93.54-.57,7.03,1.76,13.38,5.75,19.74,9.61,1.84,1.12,3.37,2.17,4.12,4.38,4.16,12.34,4.78,10.3,3.63,25.38-.61,7.97-2.7,15.72-7.24,22.15-1.7,2.42-3.51,4.12-6.42,4.64-.83.15-1.45.61-2.29.18-.62-.31-.78-.88-1.14-1.52-.16-.51.02-.69.53-.53.62.33,1.3,1.03,2.45.49-8.95-9.69-12.5-19.92-21.98-29.78-.95-.99-2.06-1.14-3.4-.87-21.9-19.81-51.8-50.31-60.7-78.95-1.55-5,2.61-10.26,4.28-13.82.21-.03.48.03.68-.04.04.22.05.97.44.9,13.42-2.36,44.64,2.96,50.98,7.15l9.41,6.23c5.35,3.54,11.67,5.14,18.17,6.72.58,5.54,3.24,9.73,5.59,14.24Z"/>
    <path class="st189" d="M181.96,38.91c.62.34,1.18.96,1.68,1.87l.24.59c-.26,2.04-1.18,3.85-1.58,5.86.15.64.3,1.34-.45,1.54-.13,1.07.12,1.6.58,2.54,1.07.69,2.44,1.83,2.93,2.96.7.25.89.09.52-.52-1.37-.14-2.56-1.76-3.39-2.93-.66.04-.92-.85-.13-1.05-.27-.72-.29-1.56.54-1.6l6.84-17.38c1.94-4.94,6.18-8.02,11.32-9.06,10.65-2.15,28.33-.44,37.96,4.85,1.51.83,3.28,1.85,3.76,3.62.44,1.62,1.25,3.16,1.49,4.8l2.54,17.04c.34,2.26.7,4.45,1.92,6.36,2.66-.43-.49-8.18-.1-11.18,7.1,2.28,31.13,10.39,31.15,18.91.03,10.35-24.82,13.34-32.42,13.77-23.77,1.36-47.51-1.1-70.35-7.82-7.86-2.31-15.02-5.25-21.69-9.81-.5-.34.72-1.01,1.06-1.19-1.79-3.49-6.77-.73-7-7.55-.06-1.87,1.14-3.45,2.78-4.64,9.17-6.65,27.3-6.71,28.27-7.81.5-.56.57-1.3.36-2.32.36-.3.81.01,1.17.13Z"/>
    <path class="st189" d="M523.15,240.42c-.62-.41-.14-1.07.52-.51,1.02.23,2.09.17,3.38.2,1.9,3.8,7.04,12.28,11.77,11.67-.86-6.06-4.6-6.84-4.45-6.71-2.22-1.89-3.79-4.68-4.71-7.23v-.45s.97-.58.97-.58c-2.47-2.73-2.67-4.96-.6-6.68l-.38-.63c-.19.46-.48.37-.57-.14-.49-1-.93-.49-1.32,1.53,1.4.08,1.23.81-.1,1.04-.18,1.1-.55,1.4-1.1.9-.21-.8-1.24-1.44-1.29-2.48-.07-1.33-.68-3.57.22-4.17l2.88-1.91c.72-.48-.55-1.98-.76-2.77-.44-.18-.44-.37,0-.56,3.33-.69,6.84-1.25,9.99-3.03l9.44-5.32c.35-.66,1.07-.2.48.46-1.04,3.13-3.4,10.05-7.35,10.4-.39-.11-.42-.44-.11-.99-.48-.96-.61-.92-1.62-.62-3.15,0-5.11,3.38-5.43,6.57.65,1.63,1.66-.91,1.61-1.43-.24.36-.44.35-.6-.07-1.32-1.38,2.14-5.76,3.88-4.34.44-.04.45.09.08.38l-.42,1.01c.84.46.95,2.08.5,2.99.12.61.61.45,1.49-.49.26-.83.58-1.22.95-1.18,5.93-1.07,7.57-9.27,9.35-12.41,2.13-3.75,5.72-6.66,9.14-8.8.44.13.44.3.02.51.35.41.02.87-.49,1-.02.6.17.57.55,0-.27-.38,0-.58.44-.54l-.51-.97c.26-.16.37-.9.84-1.13,10.39-4.99,9.18-10.88,28.59-10.62,1.76,2.65,1.9,5.62,1.71,8.86-.52,8.76-1.76,17.17-2.94,25.86-.62,4.52-1.03,8.64-2.67,12.93l-2.76,7.22c-2.41,6.31-5.89,15.62-12.46,18.43-10.37,4.44-22.81-.18-32.57-3.45-6.07-2.03-12.62-2.31-18.93-1.73-3.12.29-5.93,1.71-9.22.11l4.1-1.81c2.02-8.89,3.23-12.52,3.43-22.2,1.27.58,2.85,1.05,3.48,2.31,2.52,5.07,5.42,9.88,9.69,13.56.48.42,1.64.52,1.77.11.48-1.53-7.26-9.09-7.91-12.13Z"/>
    <path class="st189" d="M488.77,260.18c-5.31.03-10.15.58-15.46,1-12.7.99-25.1.89-38.06.99,2.18-3.03-2.28-.88-3-8.29-.66-6.78,1.37-13.07,4.58-18.97,3.08-5.65,7.51-9.9,13.92-11.62,14.81-3.98,9.2-1.12,15.84-.06l19.25,3.07c8.92,1.42,17.89-.07,26.7-1.54.89,1.9.74,4.04.77,6.2.14,9.5-1,18.46-3.71,27.48-7,.54-13.77,1.7-20.83,1.74Z"/>
    <path class="st189" d="M272.61,115.93c.02.6-.24.46-.67.05-2.72-1.14-4.95-3.21-7.73-4.7-4.99-2.69-10.04-4.48-15.47-5.05-.21-.22-.36-.41-.31-.52,1.69-3.86,12.43-14.1,16.52-14.48.15-.01.33.22.51.52-.04.32.05.69.41.94.16.11.45-.17.64-.12.41-.34.59-.84.53-1.51,1.62-4.32,12.52-17.94,16.21-22.19l11.98-13.82c.91-1.05,2.19-1.74,2.53-3.42-1.1-.52-2.32.2-3.25,1.23l-11.32,12.61c-1.69,1.88-2.02-3.84-7.36-7.64-3.6-2.57-7.28-5.29-11.33-6.62-.62-3.59,5.17-1.82,4.48-4.85,4.92-2.54,38.28-10.44,42.18-7.67,1.79,1.27,3.41,4.04,3.79,6.24,1.11,6.43-.72,12.41-2.97,18.31l-5.08,13.33-5.2,10.17c-3.08,6.03-6.25,11.75-10.23,17.23-2.55,3.5-4.49,7.14-6.51,10.94-1.6,3-2.41,5.85-2.23,9.34-2-1.85-4.83-2.96-6.37-5.12-2.87-4.04-2.53-8.88-4.82-13.43-.62,3.75.81,6.96,1.03,10.21Z"/>
    <path class="st189" d="M464.48,214.91c-.15-13.39.76-23.7-3.16-36.76-.68-2.26-1.54-4.54-2.9-6.37-1.38-1.86-1.22-3.84-1.72-5.87-.76-3.08-.81-5.46,1.68-7.74,3.99-3.66,8.63-6.42,13.75-8.6,9.26-3.95,25.84-9.16,34.12-1.23-.23,2.96-1.62,5.3-2.57,8-3.22,9.13-5.95,18.15-8.18,27.62-2.14,9.09-3.41,18.02-2.48,27.3.18,1.76,1.1,3.29.59,5.16-9.69,1.02-19.12.57-29.14-1.51Z"/>
    <path class="st189" d="M182.31,75.2l1.02.51c.14.9.45,1.23.94.98-.44-.68-.06-.86,1.14-.54,16.71,3.79,33.73,5.9,51.14,5.61.28,2.61,2.22,5.45,1.47,6.36-1.07,1.29-5,.35-9.34.87-.9.11-1.59-.35-1.96-.88-.41-.97-.63-1.61-.42-2.66.01-.07,0,1.39-.62,1.15-.07.92-.22,1.88.39,2.66.68.58.13,1.22-1.64,1.9-3.3.73-6.51,1.73-9.61,2.98-.12,5.36,6.98,4.21,10.63,3.53l.66.37c-.16-.89.02-1.07.54-.53,2.21.49,4.24-1.08,6.54-1.32,3.31-.34,6.67-.22,9.47-1.6.41,2.54-2.15,4.02-2.52,5.67-.85,3.83-.3,8.23-3.36,11.4-.71.74-2.06,1.21-2.53,2.31-.68,1.61-2.28,1-3.29,1.43-1.31.55-2.1.19-3.1-.54-1.92,1.3-7.59-2.9-9.29-4.37,1.19-2.7,2.14-5.78.29-8.16-.18,2.84.05,5.39-2.1,7.11-.76-.13-1.45-.76-2.09-.65-.67,1.84,1.28,1.55,1.86,2.23,2.52,2.97,5.52,5.76,9.6,6.16.58.06,1.48-1.21,2.06-.35.38.56.83,1.57,1.57,1.54.42-.02.98-.49,1.56-.67.66,1.99.28,4.24,2.04,6.03.95-2.14-.86-3.55-.59-5.66,1.09-.7,2.09-2.25,3.4-2.63,5.56-1.63,15.66,2.24,14.6,6.25-1.59,6.04-14.97,7.69-20.62,7.72-9.53.06-18.32-2.38-26.73-6.54-1.93-.96-2.88-1.2-4.07-3.16-4.88-8.03-8.57-16.57-9.62-25.8.4-1.17,2.8-2.06,3.48-.46l.48-.18c-1.05-1.65-1.52-3.55-1.41-5.71-.17-.09-.23-.6-.33-.79-1.31-2.62-1.01,2.73-1.87,3.55-2.34,2.23-10.04-12.75-10.49-15.28.99-.75,1.86.35,2.67.12Z"/>
    <path class="st189" d="M632.81,35.34c-.77,0-2.3-1.59-1.04-2l8.69-5.81c6.5-4.34,13.56-7.62,19.42-12.77l5.86-5.16,15.66.06-5.05,39.05c-.52,4.01-1.38,7.61-2.12,11.61l-22.57,9.85-5.39-11.43c-3.92-8.32-8.26-16.06-13.46-23.39Z"/>
    <path class="st189" d="M510.22,153.2l-.56.25c-.16-1.55-.33-3.1-.51-4.66-.81-2.19-2.76-3.65-5.13-4.72-18.59-8.41-54.15,12.11-49.58,19.64.34.81.12,1.07-.59.54-1.55-4.03-2.28-8.28-1.29-12.71,1.41-6.34-4.68-7.05,1.31-12.61,3.23-3,6.51-5.43,9.98-8.02,2.68-1.99,5.16-3.5,8.4-4.61,5.82-2,11.61-4.29,18.02-3.98,7.04.34,13.84,2.9,19.59,6.8,2.03,1.38,1.93,4.47,1.09,6.38s-1.08,3.44-.81,5.4l.96,6.96c.28,2.03.19,3.82-.88,5.35Z"/>
    <path class="st189" d="M599.45,239.05c-.87,3.63-.87,11.66-3.03,13.87-1.2,1.23-2.99,2.79-3.24,4.52-.4,2.77-2.48,3.52-4.07,5.11-2.19,2.19-3.9,3.93-7.02,4.95-3.58,1.17-7.26,2.28-11.06.46,6.32-3.59,11.13-12.82,13.1-19.78,3.61-6.83,5.08-13.99,5.86-21.67.85-8.47,2.37-16.5,2.68-24.96.12-3.32-.25-6.29-1.79-9.28,3.74-.56,7.19-.36,10.67.61,4.99,1.38,3.01,7.8,3.27,11.15.31,3.99-1.16,7.31-1.75,11.09l-1.33,8.48c-.45,2.91.14,5.38-.61,8.48l-1.68,6.97Z"/>
    <path class="st189" d="M191.82,91.22c.9-.6,2.05,1.56,1.42,2.26-1.17-.08-2.35.22-3.48.46-.09-.12-.32-.17-.38-.31-1.78.55-2.33,2.52-1.64,5.91.85,7.14,3.48,12.12,3.61,19.56-1.61-1.36-3.73-.28-5.11-.94l-11.79-5.71c-2.82-1.37-5.68-1.98-8.97-2.14-3.37-5.65-7.78-10.2-12.31-14.96-3.38-3.54-6.05-7.3-9.34-11.15,8.32-1,16.35-.94,24.17.91,7.74,1.83,10.25,5.96,18.49,5.93.82,0,1.83,1.98,3.05,1.62.84-.25,1.84-.34,2.27-1.43Z"/>
    <path class="st189" d="M675.52,126.75c-.07.45-.24.47-.49.08-2.79-5.33-4.45-11.17-6.98-16.74l-2.39-5.26-13.22-32.93,21.25-9.33c-1.14,12.55,2,11.61,2.36,23.5.12,3.89-2.01,6.25-3.37,9.48-2.27,5.39-.09,11.75,2.57,16.72,3.47,6.49.47,7.06.28,14.49Z"/>
    <path class="st189" d="M180.32,185.64l.96,1.07.07.42c-.07.37-.22.36-.42.03-.15.01-.32.05-.47.02l-1.1-1.07c-15.01-12.01-28.58-25.74-40.49-41.12-7.99-10.32-15.1-20.93-20.74-32.36.1-.44.26-.43.47,0,10.58,11.69,21.22,23.23,33.14,33.88,4.32,3.86,8.94,7.05,12.33,11.65l8.69,11.78c.87,6.13,3.93,11.1,7.56,15.72Z"/>
    <path class="st189" d="M274.98,75.66l-6.2,9.14c-1.28,1.89-2.29,3.81-2.9,5.81-.46.53-1.18.86-2.16.96-5.69,2.15-12.05,9.29-15.39,14.3l-1.76.56c-2.56.41-3.72,2.82-6.57,4.04,2.07-3.23,1.79-6.31,2.11-9.61.22-2.19,2.26-4.47,2.36-6.99.91-1.15,3.31-1.84,3.71-3.41.3-1.2-1.2-1.84-2.24-2.34,1.18-2.27,1.74-4.35,1.86-6.82,9.56-.95,18.29-2.06,26.68-6.12.52-.2.68-.04.48.48Z"/>
    <path class="st189" d="M102.05,21.4c.22,2.12-.31,4.78-1.41,6.47.32.33.39.75,0,1,.11.69.01,1.93-.5,2.49.21.62-.03,1.52-.5,1.99.25.73-.09,1.83-.5,2.49-.21.78-.05.78.5,0-.42-.65,0-1.84.5-2.49-.36-.52.03-1.54.5-1.99-.3-.64-.27-1.86.5-1.99-.25-.36-.36-.65,0-1,.02-1.67.5-4.25,1.52-5.47l2.81-12.75c.29-.49,2.11-.53,2.31-.02.92,2.43.57,5.12.82,7.83.7,7.51,1.38,15.16,1.21,22.45-.27.31-1.39.31-1.46.72-.06.34.34.99.16,1.47-2.35.16-5.23.92-7.71.48-.9-.16-1.63-1.83-2.53-1.76-.83.07-2.59.06-3.07.97,1.7-5.48,3.39-10.93,4.58-16.78,1.07-5.27,1.55-10.44,3.71-15.91.72,4.2-1.24,7.89-1.43,11.8Z"/>
    <path class="st189" d="M123.54,11.46c.98.99,1.66,2.27,2.04,3.85,2.15,4.25,3.98,8.58,5.48,12.99.25.02.47.06.53.18,1.09,1.98,2.04,4.31,2.8,6.36.33.09.34.26.05.5.67.18.88.94.56,1.5.41.12.58-.05.5-.5-.48-.08-.6-.54-.5-1-.39-.07-.45-.25-.15-.52-1.46-2.18-2.96-4.91-3.34-7.47-.25.03-.45.03-.48-.05-.49-.97-4.13-8.34-3.96-8.79.08-.22.27-.39.49-.56l-.58-1.03c-.45-.11-.45-.28-.02-.5l-.45-.55c-.44-.11-.42-.26.01-.45l-.45-.5c-.44-.18-.4-.34.08-.47-.45-.74-.47-1.08.42-.9l2.72,5.55,9.53,21.01c-4.28.34-7.9.98-11.7.82-.77-.15-1.68-1.09-2.58-1.13-.45-.66-.68-2.05.01-2.49-.16-.6-.33-1.26-.5-1.99-.78.11-.69-.66,0-1l-.54-1.99-4.6-22.28c1.4-.39,2.46-.34,3.6-.16.99.15.85,1.04,1.02,1.55Z"/>
    <path class="st189" d="M131.12,10.43l.52-.04c4.02,6.08,8.13,12.18,12.32,18.31.85.29,2.03,1.68,2.03,2.6.84.24,1.9,1.58,1.98,2.55.55-.22,1.24.92,1.49,1.49.43.17.74.59.5,1,.31.06.52.14.5.5.46.18.93.49,1,1,.33.17.29.32-.08.46-.01.49-.66.84-1.94,1.04-2.9.24-5.77.62-9.16.69l-8.36-18.63-5.62-11.39c1.96-.4,3.53-.33,4.82.43Z"/>
    <path class="st189" d="M162.91,24.38c.26-.1.49-.15.62-.06,1.04.78,3.29,2.56,3.35,3.51,1.08.2,2.06,1.02,2.93,2.44.42.09.62.29.57.59.78-.09,1.45.41,1.99,1.49.24-.21.41-.05.5.5.15-.33.31-.32.5,0,.23-.26.4-.1.5.5.52.06.8.53,1,1,.45.02.62.19.5.5.7-.13,1.27.34,1.49,1,.52.36.68.36.5,0-.82-.35-1.32-.85-1.49-1.49h-.5c-.32-.15-.31-.31,0-.5-.4-.14-.39-.31,0-.5.68-.75,1.65.13,1.99,1,.46-.26.64.02.5.5,2.05.5,3.37,2.29.5,2.39l-10.38.6c-.69-1.23-2.38-1.7-3.03-2.56-1.76-1.25-3.26-2.75-4.49-4.48-6.14-7.14-12.75-13.83-19.57-20.68,1.58-.25,4.12-1.02,5.36.03,5.68,4.83,10.78,10.07,16.66,14.25Z"/>
    <path class="st81" d="M428,207.95c-.47.11-.82.98-1.52.61l-1.09-.52c-3.89-.51-10.82-6.03-21.78-5.78-2.36.05-4.47,1.27-6.48,1.85-.93.2-1.25.02-.95-.54l5.46-2.81c-6.46-5.25-7.84.44-19.22-3.24-3.39-1.1-7.12-.97-10.69-1.51-6.46-.98-12.81-.79-19.2.41l-14.74,2.77c-1.01.1-1.17-.12-.5-.64l14.62-3.71c6.84-1.74,13.69-2.16,20.74-1.28,3.46.43,7.06.26,10.34,1.34,3.55,1.17,6.79,1.78,10.57,1.1,4.07-.74,8.14.74,10.64,4.09,11.6.4,13.04,2.49,22.78,6.57.43.18.19,1.69,1,1.3Z"/>
    <path class="st184" d="M121.07,38.32c.69.83,1.29,2.53.41,3.38-2.45-.24-5.02.78-7.6.25-.69-.14-.89-1.73-1.69-1.65l-.67-.22c.3-1.75.5-3.49.62-5.25-.08-8.04.02-16.05-.4-24.45-.03-.7,2-.84,2.22-.26,1.81,4.74,2.71,9.58,3.88,14.56l3.23,13.64Z"/>
    <path class="st203" d="M504.2,222.81c-9.65,1.88-27.91.86-36.82-1.82-2.2-.66-7.39-3.63-5.36-5.21,9.36,3.36,26.66,6.32,35.72.32l2.69,3.19c1.09,1.29,2.93,1.77,3.78,3.52Z"/>
    <path class="st184" d="M170.86,22.43c3.97,1.97,8,4.65,11.46,7.42.87-.19,1.83.69,2.02,1.5.61-.33,1-.19,1,.5l.5.5c.31-.68.86-.16,1.01.5-.29.93-.2,2.64-1.24,3.34-1.49,1-3.65.63-5.15.2-.75-.37-1.9-1.25-2.09-2.05-.39.34-.79-.11-1-.5-1-.38-1.53-.89-1.57-1.53-.68-.12-1.4-.53-1.96-.95-1.33-1.02-8.94-7-9.21-7.53-.13-.25-.16-.55-.17-.86-4.63-4.27-9.1-8.65-14.55-12.68,2.4-1.52,3.95-.45,5.6,1.12,4.67,4.44,9.98,7.98,15.36,11.02Z"/>
    <path class="st203" d="M148.6,22.98c3.09,2.74,6.04,5.7,8.84,8.88.32.06.53.15.5.5.32.07.54.14.5.5.32.07.54.12.5.5.52.22.85.55,1,1l3.02,2.77c.53.42.63.8.32,1.14l-7.36.6c-1.05.09-1.44-.97-1.88-1.53-.8-.27-1.77-1.17-1.57-1.99-.87-.28-1.53-1.21-1.59-2.04-.75-.14-1.55-1.23-1.41-1.97-3.91-4.68-7.66-9.7-11.33-14.64-.49-.67-.94-1.31-.99-2.18-.91-1.03-1.1-2.91-2.54-3.56-1.06-1.82,3.49-1.78,3.78-.17,3.44,3.98,6.85,8.04,10.22,12.21Z"/>
    <path class="st203" d="M179.31,19.48c.37-.27.71.05,1.04.93.14-.45.3-.44.5,0l.5.5c.19-.22.35-.39.43-.35,1.49.63,3.56,1.77,4.55,2.84.59-.34,1.15.45,1.49,1,.46-.21.99-.04,1.59.51.23.47.81.79.8,1.31-.01.7-.66.95-1.13,1.44-.78.83-.83,1.94-1.35,2.73-.15.35-.28.32-.4-.07-.3,0-.47-.15-.51-.45-.86-.12-1.35-.45-1.49-1l-1-1c-.78.73-1.85-.05-1.99-1l-1-1c-.45.75-1.56.28-1.6-.55-.88-.04-2.11-.59-2.03-1.52-4.42-1.93-8.82-4.52-12.32-7.84-2.5-1.46-4.47-4.05-7.35-5.95,1.48-.5,3.05-.7,4.38.04l16.89,9.42Z"/>
    <path class="st203" d="M226.67,97.51c-.17.42-.38.45-.54.53-2.61-.08-5.32-.14-8.15-.18-2.13-.61-3.8-3.14-1.53-4.44l7.83-2.2c1.26-.98,2.4-1.34,3.41-1.11,12.45,2.51,9.34-2.45,14.62-.72,1.19.39,3.01-.68,4.22.98-2.2,1.84-5.32,2.63-8.1,3.98-1.72.83-3-.44-4.42-.34-2.48.18-4.85,2.55-7.47,2.49-.13.52.04.84.12,1.02Z"/>
    <path class="st184" d="M882.32,161.29c2.87-2.29,6.46-3.33,10.14-4.37,10.75-3.04,11.62-1.07,21.79-3.17-.42-2.41.63-5.42-.37-7.5-.89-1.85.23-2.43.24-3.92l.22-34.33c.23-.09.4.2.4.57l-.16,35.76c-.02,3.91.48,7.5-.12,11.5-6.09.3-11.98,1.4-18.04,2.62l-14.11,2.83Z"/>
    <path class="st71" d="M707.53,9.44c-2.45,1.34-13.55-.21-17.3.84-1.57.82-2.64,3.73-5.09,3.21-2.75,15.56-1.98,24.59-6.63,39.77.74-8.54.87-12.17,2.41-21.05l3.92-22.69,22.69-.07Z"/>
    <path class="st22" d="M262.09,202.64c-5.87,7.97-11.41,14.37-12.56,24.91-.04.34-1.23.46-1.21.65s.15.42.29.64c-.79-.32-1.31-.61-2.02-.96.19.02.71.32,1.12.1-.18-10.45,9.46-23.04,16.86-28.98.24-.23.49-.41.72-.4.85.03-2.75,3.68-3.2,4.03Z"/>
    <path class="st117" d="M227.7,90.11c-1.23-.03-1.96,1.31-3.17,1.74-2.89,1.04-5.79,1.38-8.58,2.86.67.58.99,1.5,1.37,2.13l6.36.16c1.19.03,2.33-.1,2.45,1.03-3.37,1.71-7.55,1.66-10.86-.1-1.26-.67-1.24-3.03-1.53-4.28,3.34-2.34,12.33-2.55,12.35-4.4.75.2,1.18.76,1.61.85Z"/>
    <path class="st139" d="M123.02,34.84c.86,0,.72,1.71.54,2.49.46.46.79,1.29.98,2.49-.52.56-1.38.56-1.98.95-1-.17-1.26-2-1-2.94-1.15-8.84-3.21-17.63-5.71-26.42-.13-.47-.52-.74-.31-1.15.13-.26.4-.42.79-.42.34,0,.86.29,1.02.95l5.68,24.05Z"/>
    <path class="st160" d="M128.06,47.04c-.46-1.49-.12-2.68-.28-4.31,3.1-.33,5.95-.72,9.14-.64,1.5.03,2.17,3.48,1.03,3.81-3.18.92-6.14.44-9.88,1.14Z"/>
    <path class="st160" d="M153.39,44.71c-1.16.12-2.43-.21-3.42.49l-6.93.42c-.17-1.54-.34-2.76-.87-4.06,3.46-.07,6.77-.97,10.2-.54,1.47.18,1.27,2.72,1.03,3.69Z"/>
    <path class="st160" d="M100.19,49.37c.3-1.9.66-3.25,1.24-4.8l8.41-.52c.51,1.24.82,3.39,0,4.36l-9.65.97Z"/>
    <path class="st161" d="M914.24,36.39c-1.33-2.07.25-8.29-1.01-12.49-.22-.75-1.86-.68-2.12-1.21-.5-1.03-.18-4.33-.02-4.77.24-.67,1.68-.78,2.04-1.27l-1.88-7.69c.92,0,1.77-.46,3.13.11l-.13,27.33Z"/>
    <path class="st106" d="M123.28,47.29l-9.63.84c.11-1.44.25-2.73.54-4.37l8.84-.75c.72,1.26.58,2.68.25,4.28Z"/>
    <path class="st30" d="M160.34,31.39c1.76,1.16,3.42,2.68,4.63,4.45l1.82,1.75c-.94.67-1.66.53-2.38.65-1.55-.89-2.91-2.49-3.99-3.89l-.5-.5c-.36.14-.51-.13-.5-.5-.3-.07-.52-.14-.5-.5-.31-.07-.52-.14-.5-.5-.31-.06-.52-.14-.5-.5-.33,0-.5-.17-.5-.5-3.01-2.6-6.27-5.51-8.36-8.84-.71-.15-4.38-4.08-4.34-4.4.03-.23.16-.45.32-.66l.44-.46,14.85,14.4Z"/>
    <path class="st247" d="M731.4,181.71c-8.95-.64-19.79-3.04-28.46-6.4-2.58-1-5.26-1.53-6.96-3.6l9.7,3.77c4.82,1.87,9.75,1.86,14.75,2.74,3.57.62,6.69,2.81,10.46,2.9.29.22.7.33.52.58Z"/>
    <path class="st160" d="M244.84,88.12c-1.21-.12-3.46.25-4.42-.8-1.25-1.38-1.38-3.56-2.4-5.34,2.72-.36,5.17-.52,7.95-.41-.07,2.35-.5,4.2-1.13,6.55Z"/>
    <path class="st264" d="M265.88,90.61c-.11.37.12.95-.42,1.14-4.67,1.63-14.31,10.17-16.72,14.47-.59-.06-1.57.11-2.17.21,1.14-.29,1.75-1.23,1.95-2.5,3.05-4.19,6.73-7.48,10.6-10.81,2.03-1.75,4.17-2.84,6.76-2.51Z"/>
    <path class="st0" d="M178.32,16.39c2.1.56,5.06,1.41,6.48,2.96.19-.3.37-.27.53.07,1.55.44,3.56,1.09,4.98,1.99.32,0,.49.18.5.5.64-.18,1.83.29,1.9,1.04-3.01,3.63-1.82,1.84-3.3,1.96l-1.59-1.01c-.53.03-1.04-.46-1-1-1.4-.11-3.72-1.35-4.48-2.49l-.5-.5c-.14.43-.31.43-.5,0l-.5-.5c-.14.43-.31.43-.5,0-.51.35-.7.03-.5-.57-.99-.63-2.08-1.12-2.93-1.94-.18-.49-.02-.67.48-.55l.91.03Z"/>
    <path class="st111" d="M148.98,31.8c.76.19,1.32,1.13,1.51,1.89.53.19,1.02.74,1.46,1.64.32.12.31.29,0,.5.69.14,1.21.84,1.43,1.54l.46,1.38c-1.57.63-2.99.46-4.41.58.46-.62,1.29-.65,1.94-1.04.21-.31.4-.29.58.04q.06.42,0,0c-.36-.14-.35-.31,0-.5-.56-.22-.89-.55-1-1-.31-.06-.52-.14-.5-.5-.41-.17-.62-.58-.5-1-.74-.41-1.71-1.2-1.49-1.99-.9-.24-2.02-1.59-2.02-2.51-.84-.3-1.88-1.62-2.06-2.56-1-.8-7.7-9.55-7.59-10.18.04-.23.19-.44.37-.64-.05-.2.08-.35.38-.44l.67-.22c4,4.84,7.59,9.85,10.77,15.01Z"/>
    <path class="st120" d="M193.24,93.48c-.41-.77-.5-1.85-1.42-2.26.54-1.13.56-2.39.49-3.63.74.4.1,2.52.6,3.3,2.14,3.36,3.51,7.13,5.82,10.21,1.95,2.61,9.04,5.16,8.84,6.12-.38,1.8-9.13-3.93-9.97-5.52l-4.35-8.22Z"/>
    <path class="st144" d="M133.02,9.95l-.5.5c.33.15.32.31,0,.5.94.51,1.55,1.54,1.99,2.49.33.15.32.31,0,.5.32.06.54.12.5.5.62.12,1.07.28,1,1,.32.12.31.29,0,.5.52-.25.91.43,1,1,.35.07.4.25.16.53l7.22,10.82c.46.75.33.89-.42.42-4.51-5.19-8.26-11.02-12.34-16.8-.35-.5-.32-1.11-.51-1.47.3-.33.58-.67.83-.84.45-.29,1.12-.26,1.07.36Z"/>
    <path class="st5" d="M524.62,221.38c1.12-.15,1.46.07,1,.65-8.53,3.71-3.26-1.87-9.07,8.14-.95-1.9-.78-3.66-1.2-5.6,1.91-.3,2.8-1.71,4.17-2.6,1.54-.99,3.65-.07,5.1-.59Z"/>
    <path class="st133" d="M137.13,14.51c4.58,5.19,8.45,11.06,12.32,16.82.2.51.04.67-.47.48l-11.44-14.79c-.59-.33-1.23-.94-1.03-1.58-.6-.17-.96-.65-.42-1.08.22.17.44.3.73.41.23.09.39.1.3-.25Z"/>
    <path class="st171" d="M139.09,9.87c-.17.25-.03.61.41,1.08l.5.5c.2.27.28.26.46,0,.55.09.8.53,1.04,1-.27.46-.46.33-.8.02-.07-.07,1.43,1.01,1.3,1.48.9.37,1.99,1.52,1.99,2.49.44-.33.62-.07.5.5.46-.29.66-.02.57.53l4.02,5.06c.87,1.23.72,1.39-.48.47-3.46-3.58-7.36-6.9-10.29-11.28-.6-.9-.69-2.02-2.01-1.81-.77.12-2.1-.26-1.71,1.05-.5-.23-.62-.15-.61-.75.02-1.39,4.66-.64,5.11-.32Z"/>
    <path class="st30" d="M165.97,41.67l-7.65,2.25-1.43-3.36c1.13.04,10.28-2.13,9.08,1.11Z"/>
    <path class="st162" d="M419,261.74c3.34-.03,6.75-.43,9.96.42-1.56.09-3.18.04-4.98.11-.85.03-1.6,1.11-2.51,1.06-7.48-.41-14.84.65-21.9-.54,4.36-.49,9.1-.73,13.45,0,1.95-.2,1.95-.37,0-.5-.44-.14-.43-.31,0-.5,1.87-.61,3.96-.64,5.98-.06Z"/>
    <path class="st9" d="M126.15,14.46c-.03.15-.09.32-.08.47l.45.5v.45s.44.55.44.55c.05.16-.04.35.02.5l.58,1.03,3.96,9.39c.29.8.14,1.12-.46.96-2.74-5.5-5.56-11.02-7.52-16.84.22-.27.45-.73.62-1,1.11.77,1.77,2.1,1.99,3.99Z"/>
    <path class="st65" d="M192.71,113.48c-.33-.77-.21-1.5.62-1,.88,2.88,2.68,5.3,4.39,8.33-1.45.1-2.9-.08-4.68-.21l-.32-7.12Z"/>
    <path class="st152" d="M177.72,23.8c.24.39.08.54-.42.48-.49.97-1.97-.09-1.93-.89-.53.27-.98.09-1-.5-.59.31-1.17-.41-1.49-1-.14.32-.31.31-.5,0-.58-.08-1.15-.49-1.49-1-.44-.03-.77-.37-1-1-.14.32-.31.31-.5,0-.5-.05-.79-.55-1-1-.14.33-.31.32-.5,0-.29.11-.62-.06-1-.5-.3-.07-.5-.16-.5-.5-.75-.26-1.71-.79-1.48-1.57l.47-.39c4.19,2.45,8.3,5.08,12.32,7.84Z"/>
    <path class="st226" d="M175.79,32.31l-.42.54c-.28.78-1.31-.29-1.49-1-.15.33-.31.32-.5,0-.29-.08-.5-.17-.5-.5-.62-.24-1.12-.74-1.49-1.49-.14.32-.31.31-.5,0l-.5-.5c-.8-.43-1.47-1.1-1.99-1.99h-.5c-.29-.07-.5-.16-.5-.5l-.43-.58c-.82.52-1.27-.04-1.05-.92l-1.01-.49-.5-.5-.5-.5c-.37-.16-.37-.33,0-.5.26,0,.74,0,.54-.42,3.56,3.29,7.92,5.84,11.34,9.34Z"/>
    <path class="st253" d="M172.38,22.4c.15-.33.31-.33.5,0,.49-.07,1.07.48,1,1,.44-.29,1.01-.04,1,.5.71.05,2.25.75,1.99,1.49.8-.14,2.22.65,2.49,1.49l.5.5c.27-.66,1-.17,1,.5l.5.5c.38-.7.94-.22,1,.5l.5.5c.74.89.41,1.21-.52.49-3.95-2.23-7.95-4.55-11.46-7.42l.44-.55c.25-.65.85-.06,1.08.52Z"/>
    <path class="st246" d="M99.58,46.53c-.19,1.8-.59,3.41-2.62,3.09l.51-4.47c.05-.41,1.11-.32,1.42-.35.62-.06.8.73.69,1.74Z"/>
    <path class="st42" d="M180.34,39.19c-2.52,1.28-5.57.64-8.52,1.45-.55.15-.91-.45-.92-.72-.03-.96,7.54-1.39,9.44-.73Z"/>
    <path class="st45" d="M126.04,42.99c.98,1.03,1.03,3.22.76,3.84-.21.48-1.72.52-2.31.24-.24-1.1-.16-2.76.17-3.99.11-.39,1.15-.34,1.37-.1Z"/>
    <path class="st148" d="M179.36,25.88l.5.5c.54-.58.96-.33,1,.5l.5.5c.14-.43.31-.43.5,0,.6-.11.76.06.5.5l.5.5c.56-.74,1.65.19,1.99,1l.5.5c.14-.43.31-.43.5,0l.5.5c.15-.33.31-.32.5,0,.13-.25.3-.26.51-.05l.4.07c-.08.13.02.38-.02.53l-.3.45c0,.15.03.36-.02.5h-.56c-.25.64-1.05.17-1-.5l-.5-.5c-.14.43-.31.43-.5,0-.5.36-.71.11-.5-.5l-.5-.5c-.24.7-.97.14-1-.5l-.5-.5c-.35-.11-.66-.35-1-.5l-.5-.5-1-.5-.5-.5c-.91-.35-1.67-.97-2.49-1.49-.76-.85-.47-1.14.5-.5.41-.78,1.9.23,1.99,1Z"/>
    <path class="st257" d="M408.04,261.8c.14-.11.29-.19.43-.19,1.35,0,3.66.04,4.55.69.44.14.43.31,0,.5h-13.45c-.51-.08-1.15.15-1.49-.36,2.29.06,4.86.11,6.98-.63.14-.35.3-.34.5,0,.64-.33,1.89-.51,2.49,0Z"/>
    <path class="st78" d="M141.56,45.75c-.18.35-1.8.3-1.9-.08-.3-1.21-.36-2.62-.55-3.9,2.15-.2,3.28,2.37,2.45,3.97Z"/>
    <path class="st43" d="M112.34,43.82c1.2-.31.88,5.44-.93,4.72-.58-1.51-.02-3.1-.18-4.44.38-.21.8-.2,1.11-.28Z"/>
    <path class="st88" d="M369.24,176.21c-.86,2.41-1.92,5.03-3,7.33-.83.22-.79-.14-.53-.9.81-1.5,1.61-5.51,3.07-7.43.07.35-.05,1.02.46,1Z"/>
    <path class="st168" d="M183.86,75.56c.74.46.88.83.41,1.13-.13,1.73,1.25,3.21.61,5.49-2.16-.97-1.2-6.89-2.58-6.99.68-.19,1.02.31,1.56.37Z"/>
    <path class="st183" d="M111.6,30.36l-.5,1.49c-.26,2.96-1-15.5-1-12.44.14-.43.31-.43.5,0,.3-2.21,1,13.3,1,10.95Z"/>
    <path class="st79" d="M343.88,178.66c.86-.24,1.14-.28.88.62-1.06,1.32-5.01.85-7.47,1.39-.81-.74-1.97-.49-2.99-.6.79-.01,1.77-.7,2.99-.48,2.41.43,4.72.07,6.59-.93Z"/>
    <path class="st35" d="M184.29,17.99l.94.52c-.05.08.04.23.02.33.07.2-.08.37-.45.51-2.16-.97-4.54-1.57-6.48-2.96.37-.06.73-.2.98-.5,1.53.89,3.36,1.45,5,2.1Z"/>
    <path class="st53" d="M164.41,24.39l.5.5.5.5c.19.29.31.25.51,0,.5.12.84.47,1.05.92l.43.58v.5l-.52.46c-1.41-1.01-3.12-1.84-3.97-3.45l.37-.45c.19-.36.4-.39.63-.05l.5.5Z"/>
    <path class="st151" d="M102.66,22.9c-.41,1.85-.6,3.84-1.52,5.47-.19.21-.35.04-.5-.5,0-2.19,1.3-4.37,1.41-6.47.01.56.02,1.25.62,1.49Z"/>
    <path class="st100" d="M264.64,46.84c.28.22.62.32.96.39l-4.01,1.97c.07.48-.23.37-.59.02-3.78.03,3.82-2.5,3.63-2.38Z"/>
    <path class="st96" d="M189.38,93.64c-.33.4-.55.91-.55,1.43-.1.44-.25.42-.44,0-.98.09-.37,3.59-.64,4.48-.23-1.89-.99-4.09-.08-6.16.27-.62,1.5-.23,1.72.25Z"/>
    <path class="st48" d="M168.14,41.27c-1,.15-1.16-.39-1.44-.94-.45-.88,2.03-.96,2.48-.62.2.15.34.33.36.85.02.35-.48.57-1.4.71Z"/>
    <path class="st172" d="M126.57,13.56c-.22.25-.36.57-.42.9-1.3-.98-.86-2.89-1.99-3.99.05-.09.26-.27.54-.4.97,1.02,1.31,2.36,1.87,3.5Z"/>
    <path class="st174" d="M164.96,35.26v.57c-1.49-1.44-3.12-2.99-4.62-4.45l.13-.6c1.37,1.59,3.22,2.77,4.49,4.48Z"/>
    <path class="st113" d="M170.75,121.41l-.35.42c-1.28-.71-1.32-2.32-1.96-3.43.25-.27.34-.62.4-.97.52,1.32,1.58,2.54,1.9,3.99Z"/>
    <path class="st235" d="M111.6,34.84c.4.45.42,4.74.24,4.98-.32.42-.88.35-1.24,0-.28-1.87.5-3.61.5-5.47.14-.43.31-.43.5,0,0,.16,0,.33,0,.5Z"/>
    <path class="st259" d="M434.32,204.14c1,1.65-.91,3.14-2.75,2.95-.18-.02-.37.04-.55.02.37-1.53,2.02-2.27,2.82-3.43-.34.43.1.74.49.46Z"/>
    <path class="st248" d="M164.41,38.24c-.38.06-.77-.01-1.15.02-.79-1.57-2.47-2.39-3.34-3.91h.5c1.51,1.07,2.81,2.47,3.99,3.89Z"/>
    <path class="st25" d="M112.19,40.31c-.51.06-1.48.21-1.59-.49.21,0,.54.09.72-.02.24-.15.3-.51.3-.94l-.03-4.02h.54l.05,5.47Z"/>
    <path class="st42" d="M183.88,41.37c-.05-.2-.2-.39-.24-.59-.66-.61-1.52-1.75-.74-2.37.51-.07,1.11-.1,1.85-.07.62,1.38-.77,2.17-.88,3.04Z"/>
    <path class="st237" d="M540.17,223.45l.32,1.84c.06.36-.62,1.24-.95,1.18-.16-.45-.31-.97-.45-1.55-.24-.13-.26-.31-.09-.54-1.03-.7-.16-2.47,1.06-1.92-.01.33.06.68.11.99Z"/>
    <path class="st212" d="M180.45,36.4c-.13,1.24-1.23.78-2.09.83.33-.35.8-.28,1.54-.56-.62-.8-1.41-1.18-2.04-1.83l.5-.5c.87.49,1.6,1.18,2.09,2.05Z"/>
    <path class="st121" d="M510.22,153.2c-.25.36-.28.97-1.02,1.1l-.05-5.51c1.33,3.59-.25,2.97,1.06,4.41Z"/>
    <path class="st218" d="M122.56,40.77c-.39.26-.38,1-1.08.93.03-1.1-.15-2.28-.41-3.38.18-.15.35-.31.5-.5.12.89.63,2.14,1,2.94Z"/>
    <path class="st206" d="M110.6,19.41h-.5v-5.47c.14-.43.31-.43.5,0v5.47Z"/>
    <path class="st41" d="M529.66,237.4v.45c-.48-.57-1.26-1.14-1.47-1.93l-.42-.47.03-.45c.04-.45.2-.46.46-.06,1.26-.74,2.97,1.81,1.4,2.47Z"/>
    <path class="st244" d="M632.81,35.34c-.22.15-.41.34-.57.56-.56-.95-1.35-1.84-2.52-1.53l2.05-1.02c-.02.84.6,1.38,1.04,2Z"/>
    <path class="st41" d="M504.2,261.3v-.5c1.39.01,2.48-.33,3.02.88-1.22.3-2.2.08-3.02-.38Z"/>
    <path class="st117" d="M124.06,35.34c.34.6.45,1.49,0,1.99-.14.43-.31.43-.5,0-.4-.6-.37-1.77-.54-2.49l.54-.5c.14-.43.31-.43.5,0-.14.24,0,.72,0,1Z"/>
    <path class="st62" d="M144.48,15.93c.19.42,0,.57-.5.5-.76-.75-1.33-1.67-1.99-2.49v-.5c1.02.61,1.87,1.48,2.49,2.49Z"/>
    <path class="st220" d="M183.64,40.78c-.93-.15-1.46-1.01-1.68-1.87.33-.08.61-.46.94-.51.23.8.57,1.56.74,2.37Z"/>
    <path class="st130" d="M528.26,234.93l-.46.06c-.63-.57-1.01-1.35-1.23-2.16.3-.37.67-.67,1.1-.9,1.16.24,1.4,2.11.59,3Z"/>
    <path class="st52" d="M690.03,160.71l-1.54-3.45c.71.55,1.36,1.22,2.01,2.08.01.63-.21,1.03-.47,1.37Z"/>
    <path class="st201" d="M135.02,13.44c-.15.33-.31.32-.5,0-.96-.54-1.37-1.61-1.99-2.49.15-.33.31-.32.5,0,1.01.46,1.34,1.64,1.99,2.49Z"/>
    <path class="st200" d="M694.05,209.92c-.33-.33-.68-.62-1.07-.87-.16-.41.38-.5.58-.64.39-.29.91-.35,1.33.02-.58.57-.75,1-.83,1.49Z"/>
    <path class="st59" d="M226.73,88.11l-1.04-1.51c.05-.62.02-1.22.96-1.51l.08,3.02Z"/>
    <path class="st77" d="M177.41,16.36c-.18.16-.35.34-.48.55-.69-.31-1.42-.56-2.05-.98-.23-.44-.04-.59.5-.5.66.32,1.58.2,2.03.93Z"/>
    <path class="st87" d="M164.92,16.35c.46.57,1.12.93,1.48,1.57v.5c-.87-.62-1.98-1.01-2.49-1.99l1.01-.07Z"/>
    <path class="st4" d="M168.9,11.95c-1.13-.18-2.21-.66-2.99-1.49.15-.21.31-.2.5,0,1,.14,2.08.5,2.49,1.49Z"/>
    <path class="st158" d="M111.6,34.34h-.5v-2.49c0-.53-.12-1.29.5-1.49v3.98Z"/>
    <path class="st187" d="M98.11,43.35c.16.63-1.94.85-1.98-.06-.03-.62,1.72-.97,1.98.06Z"/>
    <path class="st128" d="M527.61,220.95c.03.18-.04.39,0,.56-.66.18-1.37.25-2,.52-.17-.4-.58-.6-1-.65,1.02-.37,1.94-.22,2.99-.44Z"/>
    <path class="st35" d="M185.34,30.86l.5.5,1,.5c.34.07.31.25,0,.5-.01.16.06.35.02.5l-1.01-.5-.5-.5c-.34-.15-.65-.38-1-.5-.75-.8-.42-1.13.5-.5h.5Z"/>
    <path class="st178" d="M374.17,180.64c-.27.63-.01,1.41-.51,2.02-.44.23-.59.04-.5-.5.05-.71.27-1.41.43-2.03.18.19.37.36.57.51Z"/>
    <path class="st26" d="M162.42,14.93c-.15.24-.32.23-.5,0-.86-.2-1.69-.55-1.99-1.49,1.03.12,1.78.8,2.49,1.49Z"/>
    <path class="st221" d="M517.15,232.43c.38.75.35,1.37-.5,1-.5-.32-.61-.92-.49-1.2.1-.25.53-.7.84-.74.31.37.13.74.15.95Z"/>
    <path class="st239" d="M684.12,215.01c-.55-.13-.94-.51-1.06-1.06.62,0,1.11-.53,1.96-.43.28.92-.55,1.04-.9,1.49Z"/>
    <path class="st31" d="M192.81,21.9l.5.5c-.2.16-.43.35-.59.54-.66-.31-1.37-.53-1.9-1.04-.1-.35.09-.5.5-.5.46.25.97.49,1.49.5Z"/>
    <path class="st86" d="M683.97,212.08l-1.95-1.05,3.05.07c-.22.64-.7.79-1.1.99Z"/>
    <path class="st206" d="M182.85,188.14l-.5.5c-.66-.29-1.12-.85-1.43-1.49l.42-.03c.65-.05,1.2.45,1.5,1.02Z"/>
    <path class="st38" d="M154.02,37.33l-.63.05c-.65-.32-1.1-.9-1.43-1.54l.5-.5,1.57,1.99Z"/>
    <path class="st74" d="M182.89,48.18c-.21.52-.51,1.01-.54,1.6-.87.47-.74-.16-.5-1-.01-.6.35-1.04.45-1.54.13.35.33.67.59.94Z"/>
    <path class="st179" d="M523.63,233.75c-.63.13-1.59-.78-1.47-1.81.63.24,1.07.53,1.47,1.81Z"/>
    <path class="st214" d="M141.49,12.44l.5,1v.5c-.49-.6-1.76-.67-1.47-2l.97.5Z"/>
    <path class="st36" d="M110.6,13.94h-.5c0-.65-.68-1.25-.5-1.99.14-.43.31-.43.5,0,.33.64.5,1.26.5,1.99Z"/>
    <path class="st94" d="M193.33,112.48c-.37.12-.63.59-.62,1-.67-.39-.34-1.34-.4-1.99-.32-.17-.32-.33,0-.5.43.41.84.91,1.02,1.49Z"/>
    <path class="st153" d="M184.84,190.13v.5c-.65-.35-1.2-.8-1.49-1.49v-.5c.65.32,1.19.83,1.49,1.49Z"/>
    <path class="st33" d="M159.43,12.94c-1.09-.13-2-.94-2.38-1.9,1.24.54,2.04,1.01,2.38,1.9Z"/>
    <path class="st20" d="M175.37,15.43c-.18.15-.35.31-.5.5l-1.49-1c-.23-.44-.04-.59.5-.5.62.12.99.75,1.49,1Z"/>
    <path class="st122" d="M676.58,128.41c-.15.33-.31.32-.5,0-.54-.4-.75-1.02-1.05-1.58l.49-.08c.46.47.83,1.04,1.06,1.66Z"/>
    <path class="st158" d="M172.38,21.9c.32.15.32.31,0,.5l-1.08-.52-.42-.48c-.26-.15-.26-.32,0-.5.65.04,1.26.37,1.49,1Z"/>
    <path class="st163" d="M678.58,130.86l-.51,1.06c-.26-.49-1.1-.72-.99-1.52.14-.39.31-.38.5,0,.28.26.63.4,1,.46Z"/>
    <path class="st208" d="M172.88,13.94c.19.42,0,.57-.5.5-.45-.2-.86-.49-1-1-.33-.16-.33-.33,0-.5.62.13,1.04.62,1.49,1Z"/>
    <path class="st147" d="M507.19,153.3c-.14.42-.31.41-.5,0,.13-.83-.32-1.72.28-2.52.35.96.29,1.81.22,2.52Z"/>
    <path class="st50" d="M193.87,123.92l-.64.05c-.43-.34-.98-.86-.91-1.54.77.21,1.03,1.01,1.55,1.49Z"/>
    <path class="st143" d="M196.37,121.94c-.38.08-.73.26-1,.55-.29-.31-.93-.32-1.1-.9,1.03-.6,1.53.17,2.1.35Z"/>
    <path class="st29" d="M177.37,175.2c-.38,0-.76-.11-1-.27-.37-.25-.77-.52-.33-1.27.38.49,1.27.93,1.32,1.54Z"/>
    <path class="st234" d="M516.65,233.43c.4-.16.51-.6.5-1,.65.55.62,1.18.39,2.01-.52-.24-.73-.62-.88-1.02Z"/>
    <path class="st228" d="M563,269.98c.89-.16,1.46-.71,2.18-.44-.47,1.13-1.35.92-2.18.44Z"/>
    <path class="st194" d="M91.17,50.27c-.47.85-1.66.5-2.49.5.47-.89,1.67-.4,2.49-.5Z"/>
    <path class="st190" d="M163.42,23.39c.32.25.27.43-.13.54-.68-.29-.95-.99-1.37-1.54.15-.28.32-.27.5,0,.2.35,1,.43,1,1Z"/>
    <path class="st181" d="M266.51,92.58c-.29-.66.36-1.04.53-1.51.1.31.44.57.5.82.13.64-.5.85-1.03.69Z"/>
    <path class="st191" d="M163.42,15.93v.5c-.76-.1-1.07-1.08-1.49-1.49h.5c.34.33.86.46,1,1Z"/>
    <path class="st157" d="M186.83,192.12v-.5c.55.36,1.12.68,1.54,1.4-1.03.41-1.23-.42-1.54-.9Z"/>
    <path class="st115" d="M274.98,75.66c-.1-.21-.27-.37-.48-.48.46-.22.76-.85,1.42-1.04.57,1.13-.65,1.09-.94,1.52Z"/>
    <path class="st207" d="M677.58,130.4h-.5c.06-.45-1.17-.88-1-1.49.15-.33.31-.32.5,0,.46.4.79.92,1,1.49Z"/>
    <path class="st6" d="M185.41,76.15c-.45,0-.91.13-1.14.54.02-.32-.57-.73-.41-1.13.57.07,1.07.48,1.55.59Z"/>
    <path class="st93" d="M170.89,20.9v.5c-.46-.19-.84-.52-1-1-.32-.15-.32-.31,0-.5.46.17.79.56,1,1Z"/>
    <path class="st178" d="M345.33,177.2c-.92.84-1.73.24-2.6.07l2.07-.15c-.21-.44-.47-.65-.53-.98.47.26,1.19.22,1.07,1.06Z"/>
    <path class="st89" d="M178.38,176.23c-.21.14-.39.32-.53.53-.31-.55-.42-.9-.48-1.56.59.01.64.83,1.01,1.03Z"/>
    <path class="st208" d="M453.85,164.25c.21-.17.41-.35.59-.54l.47.78c.2.34-.11.97-.54.54-.24-.24-.41-.5-.52-.77Z"/>
    <path class="st191" d="M126.59,69.12c-.2.2-.4.41-.58.63-.07-.22-.64-.38-.77-.58-.31-.45.18-.51.57-.53.32-.02.51.37.78.48Z"/>
    <path class="st61" d="M104.18,92.22l-.43.43c-.05-.26-.73-.5-.64-.8.05-.16-.12-.67.28-.72.22-.03.65.65.8,1.09Z"/>
    <path class="st61" d="M506.69,154.79c-.01.43-.54.96-.78.94-.3-.02-.27-.84-.17-1.08.05-.15.17-.2.45-.36.42-.19.57,0,.5.5Z"/>
    <path class="st11" d="M507.19,153.3c-.05.49-.48.95-.5,1.49-.18-.15-.35-.31-.5-.5.13-.57.29-.81.5-1h.5Z"/>
    <path class="st32" d="M188.82,97.06c-.14.43-.31.43-.5,0-.02-.67,0-1.33.05-1.99h.44v1.99Z"/>
    <path class="st216" d="M169.39,19.91c.34.14.33.31,0,.5-.48-.15-.85-.51-1-1-.33-.15-.32-.31,0-.5.47.16.86.51,1,1Z"/>
    <path class="st221" d="M112.09,42.08c-.52.39-1.13.3-2.02.09.28-.58.85-.53,2.02-.09Z"/>
    <path class="st139" d="M124.06,34.34h-.5l-.04-1.99c.12.6,1.02,1.16.54,1.99Z"/>
    <path class="st230" d="M110.11,11.95h-.5c.16-.65-.33-1.41.26-2.02.6.75-.02,1.52.23,2.02Z"/>
    <path class="st98" d="M173.88,14.43c-.18.15-.35.31-.5.5-.3-.2-.66-.35-1-.5.15-.18.32-.35.5-.5.27.09.72.45,1,.5Z"/>
    <path class="st205" d="M162.42,22.4h-.5c-.25-.33-.95-.46-1-1,.76-.04,1.17.42,1.49,1Z"/>
    <path class="st91" d="M523.67,239.92c-.36-.08-.62.14-.52.51-.45.19-.67-.43-.52-.77.11-.25.38-.34.73-.25.19.05.5.21.3.52Z"/>
    <path class="st59" d="M178.58,180.37c-.02-.47.66-.2.78.04.08.17.09.51-.21.72-.16.11-.55-.3-.56-.76Z"/>
    <path class="st37" d="M118.6,112.61h-.47c-.18-.36-.53-.67-.55-1.12.15-.23.32-.22.5,0,.25.31.26.83.52,1.12Z"/>
    <path class="st249" d="M167.44,111.93c-.34,0-.61.21-.54.57-.45.25-.62-.43-.51-.77.08-.24.41-.32.72-.26.18.04.52.13.32.45Z"/>
    <path class="st64" d="M192.31,110.99c0,.17-.01.33,0,.5-.32.05-.49-.13-.5-.31-.03-.37-.09-1.25.31-1.13.4.31.15.73.19.94Z"/>
    <path class="st101" d="M522.35,227.16c-.01-.48.66-.19.78.04.09.17.05.54-.21.72-.16.11-.56-.29-.57-.76Z"/>
    <path class="st136" d="M271.94,115.98l.67-.05c.22.14.37.16.44.33.07.17-.12.88-.32.64-.39-.43-.89-.53-.78-.92Z"/>
    <path class="st43" d="M144.98,16.42c.19.42,0,.57-.5.5l-.5-.5c.15-.18.32-.35.5-.5.12.19.35.33.5.5Z"/>
    <path class="st243" d="M117.58,110.99h-.5c-.27.09-.57-.05-.51-.7.04-.41.46-.24.76.2.09.14.33.22.25.51Z"/>
    <path class="st97" d="M169.89,12.44c.38.14.37.31,0,.5-.45-.22-.81-.53-1-1,.42.07.67.26,1,.5Z"/>
    <path class="st16" d="M170.89,12.94c.32.15.32.31,0,.5l-1-.5v-.5c.29.21.77.15,1,.5Z"/>
    <path class="st7" d="M184.3,88.49c.95.14.4.8-.22.64-.23-.06-.55-.38-.77-.48l1-.17Z"/>
    <path class="st154" d="M165.91,9.95v.5c-.28-.02-1.03-.67-.97-.78.12-.2.55-.33.72-.22.23.14.25.33.24.5Z"/>
    <path class="st60" d="M139.5,10.95c-.28-.15-.53-.3-.77-.48-.4-.31-.05-.58.36-.6.36.26.37.66.41,1.08Z"/>
    <path class="st43" d="M145.49,16.99l-.44.46-.57-.53c.15-.18.32-.35.5-.5.17.18.33.4.51.57Z"/>
    <path class="st110" d="M547.52,213.05c.11-.33-.14-.63-.48-.46-.12-.45.32-.72.74-.57.24.09.34.41.26.73-.05.19-.21.49-.52.3Z"/>
    <path class="st195" d="M167.9,18.91c.33.15.32.31,0,.5-.49-.14-.79-.55-1-1,.37.06.73.23,1,.5Z"/>
    <path class="st159" d="M426.48,208.56c-.26-.14-.8.04-1.08-.02v-.5c.4.05.92.03,1.08.52Z"/>
    <path class="st21" d="M118.08,111.49h-.5l-.5-.5c.16.03.35-.04.5,0,.24.07.36.32.5.5Z"/>
    <path class="st126" d="M188.33,97.06h.5c0,.21.07.46,0,.73-.09.33-.4.33-.49,0-.07-.27,0-.52,0-.73Z"/>
    <path class="st79" d="M449.89,140.89c.2-.35.24-.71.51-1.05,0,.41-.13.84-.51,1.05Z"/>
    <path class="st0" d="M193.89,21.92c-.2.09-.4.33-.58.47-.18-.15-.35-.31-.5-.5l1.08.02Z"/>
    <circle class="st85" cx="281.24" cy="67.69" r=".32"/>
    <path class="st232" d="M186.83,191.62v.5c-.12-.19-.34-.34-.5-.5v-.5c.21.11.31.38.5.5Z"/>
    <path class="st217" d="M185.83,191.12c-.45.08-.68-.33-1-.5h.5l.5.5Z"/>
    <path class="st83" d="M133.02,9.95c-.01.16,0,.33,0,.5-.15.33-.31.32-.5,0-.58.02-.58-.45-.22-.49s.56,0,.72,0Z"/>
    <path class="st178" d="M369.18,173.7c-.08.38-.26.74-.5,1.03-.09-.32-.12-.66-.29-.98-5.18,1.38-7,4.9-13.6,7.96-.87.47-1.13.18-.54-.62,1-.58,1.91-1.31,2.71-2.04-1.07-.88-2.33-1.19-3.73-.99l-8.45,1.21c-.32-.17-.63-.37-.88-.62l1.81-.97c5.08-.42,7.65-2.73,13.06.04,3.53-1.56,7.02-7.85,10.42-4.03Z"/>
    <path class="st69" d="M504.2,260.8v.5c-.83-.8-.27-.5,0-.5Z"/>
    <path class="st132" d="M135.52,13.94c.28.15.28.32,0,.5-.15.22-.32.21-.5,0l-.5-.5c.15-.33.31-.32.5,0h.5Z"/>
    <path class="st47" d="M183.34,188.64v.5c-.09-.2-.4-.3-.5-.5-.31-.15-.31-.31,0-.5.08.16.34.41.5.5Z"/>
    <path class="st206" d="M181.27,186.7c-.58-.09-.66-.69-.96-1.07.53.11.87.55.96,1.07Z"/>
    <path class="st206" d="M180.45,187.17c-.53-.14-.97-.53-1.1-1.07.4.32,1.02.46,1.1,1.07Z"/>
    <path class="st125" d="M182.85,188.64h-.5c-.07-.33.17-.56.5-.5v.5Z"/>
    <path class="st214" d="M185.34,190.63h-.5v-.5c.09.19.35.35.5.5Z"/>
    <path class="st55" d="M159.93,13.44l-.5-.5c.08.2.43.29.5.5Z"/>
    <path class="st236" d="M186.33,191.62l-.5-.5c.16-.03.33.02.5,0v.5Z"/>
    <path class="st56" d="M171.39,13.44c-.15-.03-.36.07-.5,0v-.5c.16.02.34-.03.5,0,.03.16-.04.34,0,.5Z"/>
    <path class="st204" d="M140,11.45c.15.01.31-.03.46,0,.08.59-.47.59-.46,0Z"/>
    <path class="st12" d="M180.35,19.41c.5.34.57.73,0,1-.51-.05-.7-.72-1.04-.93.2-.2.38-.41.54-.64.22.14.41.32.5.57Z"/>
    <path class="st260" d="M163.91,23.89c-.18-.07-.44.08-.63.05l.13-.54h.5c.04.15-.06.36,0,.5Z"/>
    <path class="st82" d="M140,11.45c-.19-.08-.47-.27-.5-.5.2.11.32.36.5.5Z"/>
    <rect class="st17" x="134.52" y="13.44" width=".5" height=".5"/>
    <path class="st108" d="M676.58,128.91h-.5c.04-.15-.02-.34,0-.5h.5c.05.15-.03.34,0,.5Z"/>
    <path class="st10" d="M168.4,19.41c-.16-.03-.35.04-.5,0v-.5c.16.03.35-.05.5,0v.5Z"/>
    <rect class="st198" x="132.53" y="10.45" width=".5" height=".5"/>
    <path class="st189" d="M431.56,207.09c1.33-.56,1.86-2.01,2.75-2.95,6.76-7.07,18-23.12,21.94-32.74,3.85,5.67,5.76,19.09,5.71,26.2-.03,4.89.8,10.02-.56,14.73-.62,1.27-3.86,1.54-2.64,4.37-4.26-3.38-9.38-2.76-13.79-4.38-4.61-1.7-8.58-4.59-13.42-5.23Z"/>
    <path class="st137" d="M166.9,18.42c-.16-.03-.33.02-.5,0v-.5c.11.19.4.29.5.5Z"/>
    <circle class="st149" cx="460.6" cy="217.75" r=".25"/>
    <path class="st186" d="M166.4,10.45c-.16-.02-.33.01-.5,0v-.5c.14.16.38.3.5.5Z"/>
    <path class="st99" d="M191.81,121.94c-.13-.13-.32-.48-.5-.5.03.17.38.37.5.5Z"/>
    <path class="st153" d="M191.32,121.44c-.3-.04-.58-.11-.5-.5.39-.08.45.21.5.5Z"/>
    <path class="st57" d="M186.83,32.35c.02-.16,0-.33,0-.5h.56c-.1.24-.35.39-.56.5Z"/>
    <path class="st2" d="M190.82,120.95c-.1-.34-.09-.43-.05-.39s.08.21.05.39Z"/>
    <path class="st144" d="M136.09,14.35c.19.77-.15.78-.58.08v-.5c.31,0,.44.19.58.42Z"/>
    <path class="st57" d="M187.41,31.36c0-.23-.09-.59.3-.45-.05.19-.13.36-.3.45Z"/>
    <path class="st219" d="M160.92,21.4c-.33.02-.56-.15-.5-.5.38-.08.47.18.5.5Z"/>
    <path class="st27" d="M528.19,235.91c-.05-.18-.35-.29-.42-.47.15.15.29.3.42.47Z"/>
    <circle class="st225" cx="521.38" cy="236.17" r=".25"/>
    <path class="st127" d="M163.91,16.42c-.16.01-.34.02-.5,0v-.5c.05.2.4.31.5.5Z"/>
    <path class="st167" d="M160.43,20.9c-.1-.34-.09-.43-.05-.39s.08.21.05.39Z"/>
    <path class="st209" d="M169.89,20.41h-.5c-.03-.16.04-.34,0-.5.15.03.35-.05.5,0v.5Z"/>
    <path class="st175" d="M192.31,122.44l-.5-.5c.13.13.33.43.5.5Z"/>
    <path class="st15" d="M698.56,159.27l-2.09-2.05.03-.41c-.14-.51.04-.68.54-.53,3.28,4.6,13.06,8.65,19.08,9.85,12.79,2.55,25.54,4.11,38.66,4.03l25.32-.14c10.77-.06,21.01-1.1,31.64-3.11l41.85-7.9c.86-.16,1.7,1.47,1.72,2.25l-39.92,8.24c-13.71,2.83-27.16,3.72-41.14,3.74l-15.01.02c-14.6.02-28.89-1.46-43.07-4.79-6.77-1.59-13.02-4.49-17.61-9.22Z"/>
    <path class="st15" d="M692.05,112.51c-.33-.63-.11-.87.54-.53,8.68,5.52,17.5,10.5,27.24,14.56,8.56,3.56,16.65,6.81,25.64,9.25,26.66,7.26,48.49,8.96,76.09,8.4,1.35-.03,2.55.66,2.42,2.18-36.89,2.45-74.22-2.74-107.69-18.79-8.13-3.9-15.74-7.96-22.93-13.37-.69-.52-1.08-1.07-1.32-1.72Z"/>
    <path class="st145" d="M801.32,119c-.09.48-1.03.23-1.53.12-.09-.94.24-1.87.75-2.92.4.72,1,1.62.78,2.81Z"/>
    <path class="st104" d="M832.02,120.45q.06.42,0,0c.86-.67,1.04-.32,1.02.24-.01.52-.01.76-.76.79-.37.01-.85-.1-.78-.72.02-.19.07-.36.51-.32Z"/>
    <path class="st165" d="M818.79,54.7c-.36-.22-.5-1.94.22-1.92,1.03.02.7,1.55-.22,1.92Z"/>
    <path class="st124" d="M697.04,156.29c-.2.15-.38.33-.54.53-.37-.18-.45-.48-.51-.76-.08-.42.06-.96.52-.55.24.22.35.54.53.78Z"/>
    <path class="st76" d="M692.13,121.23c.21-.5.53.16.68.22.26.11.38.91-.02.92-.23,0-.93-.51-.66-1.14Z"/>
    <path class="st254" d="M692.59,111.98c-.21.14-.4.32-.54.53-.13-.34-.54-.6-.52-1.02.16-.2.32-.19.5,0,.19.15.36.36.57.49Z"/>
    <path class="st109" d="M691.53,110.99h-.5c-.26.07-.57-.13-.47-.27.16-.23.52-.38.72-.23.17.12.32.24.25.5Z"/>
    <path class="st142" d="M692.02,111.49h-.5c-.18-.15-.35-.31-.5-.5h.5c.21.12.32.35.5.5Z"/>
    <path class="st28" d="M698.56,159.27c-.92-.41-1.61-1.18-2.09-2.05.99.36,1.41,1.36,2.09,2.05Z"/>
    <circle class="st185" cx="685.8" cy="106.76" r=".25"/>
    <path class="st51" d="M189.82,20.41l.5.5c.18.15.34.32.5.5-.09.28-.26.25-.5,0-1.74-.22-3.61-.88-4.98-1.99-.04-.36.12-.56.49-.58,1.21.8,2.58,1.29,4,1.57Z"/>
    <path class="st0" d="M185.23,18.51c-.32-.05-1.03-.04-.94-.52.16.07.45-.06.74,0,.26.06.39.18.2.51Z"/>
    <path class="st189" d="M261.01,49.22l.59-.02c.15.09.42.24.35.38-.1.2-.39.31-.57.18-.16-.11-.29-.25-.37-.55Z"/>
    <path class="st259" d="M191.32,21.4c-.15.18-.32.35-.5.5-.17-.16-.35-.31-.5-.5.16.02.33,0,.5,0h.5Z"/>
    <path class="st188" d="M185.82,18.83c-.13.22-.29.41-.49.58-.16-.05-.38,0-.53-.07-.18-.34.2-.44.45-.51.18-.05.39.01.57,0Z"/>
    <path class="st0" d="M190.32,20.9c-.18-.15-.35-.31-.5-.5.2.05.34.36.5.5Z"/>
    <path class="st129" d="M456.17,128.38c-2.29,2.07-1.58,5.38-3.2,7.63-1.09-4.3,1.04-8.23,4-11.01,5.52-5.18,9.92-10.97,13.94-17.39l12.63-20.19c.32-.52.65-.9.97-1.05.37-.18,1.87.33,1.64.71l-12.5,20.83c-4.7,7.83-10.63,14.28-17.48,20.47Z"/>
    <path class="st141" d="M386.11,254.3c.67.11.75.94.51,1.52.79.02.86.92.5,1.49,1.5.16,1.79,1.01.53,1.92-.36.21-.58.69-1.02.87-.35.14-.78-.29-1.07-.81l-12.8-23.49c-.58-1.06-1.23-2.12-2.32-2.46-.48,3.04-.22,5.8-.26,8.54.4.94.63,2.9-.5,2.99v-1.49l-.5-2.49c.05-2.97-1.19-6.62.65-9.37,1.35-.84,3.46,1.27,4.19,2.5l12.09,20.27Z"/>
    <path class="st23" d="M456.38,123.42c.3-3.71,2.08-6.94,3.71-10.3,4.9-10.14,8.55-20.41,11.24-31.4.15-.59.46-1.08.73-1.27s1.49.08,1.38.66c-2.12,10.82-5.58,20.92-10.84,30.5l-6.22,11.81Z"/>
    <path class="st188" d="M391.65,190.63c-.69.53-.9.26-.61-.54l5.29-15.68c2.9-8.44,6.06-16.51,10.54-24.22.34-.59.81-.96,1.35-.71.24.11,1.01.39.78.84-4.77,9.31-8.73,18.63-12.39,28.41-1.57,4.21-3.12,8.09-4.96,11.9Z"/>
    <path class="st141" d="M387.65,259.24c-.03-.68-.34-1.28-.53-1.92.15-.67.15-1.33,0-1.99-.19-.02-.35-.05-.42-.15-.22-.3.31-6.28.44-7.36,1.17-8.2,1.76-18.24,8.96-23.77.98-.75,2.2-.67,2.93.37-3.19,2.62-5.57,5.76-6.8,9.74-1.5,4.85-5.43,19.92-2.55,24.22-.64.67-1.44.51-2.03.85Z"/>
    <path class="st188" d="M451.9,128.45c-1.25-2.59-3.28-6.91-2.62-10.33,1.05-5.45,11.85-33.44,14.22-29.07.16.3-.11.66-.44,1.24-5.2,9.04-8.9,18.69-12.28,28.63l1.12,9.53Z"/>
    <path class="st54" d="M340.28,194.51c.77-.35,1.78-.34,1.49.6-4.18,0-8.27,1.58-12.56,2.88-9.69,2.94-18.41,7.74-25.97,14.41-.49.29-1.21.52-1.27.2s-.05-1.1.25-1.39c9.77-9.58,24.84-15.51,38.06-16.7Z"/>
    <path class="st135" d="M414.52,237.91c-.06,9.86,1.49,11.17,8.11,19.29.51.63.57,1.21-.02,1.56-.39.23-.88.21-1.3-.26-7.37-8.26-9.42-11.65-7.28-23.08,1.22-.53.83,1.56.5,2.49Z"/>
    <path class="st79" d="M445.99,129.19c1.19.62,3.93,8.46,3.88,9.77,0,.21-.75.61-.93.28-.51-.97-5.6-11.43-2.95-10.05Z"/>
    <path class="st33" d="M416.51,260.76c-.03.76-.83.73-.98-.03-1.08-.86-7.59-6.9-5.31-9.03,1.77,4.78,5.63,6.34,6.29,9.05Z"/>
    <path class="st263" d="M397.12,204.11c-1.7.49-3.31,1.68-4.99,2.27l-.32-.28c.98-1.52,2.85-1.75,4.36-2.53.25.28.6.43.95.54Z"/>
    <path class="st40" d="M387.11,255.33c.23.44.04.59-.5.5-.25-.36-.61-1.08-.51-1.52,1.32-.92-.31-5.46,1.02-6.48l-.02,7.51Z"/>
    <path class="st105" d="M413.02,261.3c.44.14.43.31,0,.5v.5c-1.7.02-3.36.08-4.98-.5-.44-.14-.43-.31,0-.5h4.98Z"/>
    <path class="st123" d="M342.28,194.11c.96.41,2.03.42,2.99,0,.56,0,.97.31,1.49.5.47.63.19.89-.5.5h-4.48c-.26-.51-.95-.65-1.49-.6.39-.65,1.34-.4,1.99-.4Z"/>
    <path class="st56" d="M416.51,260.76l2.49.98-5.98.06v-.5c.89,0,1.89.22,2.51-.57l.98.03Z"/>
    <path class="st13" d="M371.11,248.33l-.43.4c-.48-.87-.68-1.85-.9-2.82.09-.65.21-1.34.91-1.03l.42,3.45Z"/>
    <path class="st103" d="M415.51,233.43c-.78,1.41.04,3.23-1,4.48,0-.83.32-2.02-.5-2.49.17-.93.36-1.76,1-2.49.42-.19.57,0,.5.5Z"/>
    <path class="st80" d="M404.05,261.3c.44.14.43.31,0,.5-1.18,0-2.35-.31-3.53-.76,1.38-.56,2.56-.23,3.53.26Z"/>
    <path class="st63" d="M337.29,198.55l.5.64c-.63.12-1.24.46-1.99.39-.41.18-.56-.01-.5-.5l1.99-.54Z"/>
    <path class="st53" d="M373.16,184.16c-.33.67-.41,1.8-.5,2.49-.9.4-.82-.19-.5-1-.3-.51.63-1.11.5-1.49.14-.43.31-.43.5,0Z"/>
    <path class="st66" d="M335.8,199.59c-.57-.05-1.28,1.13-1.99,1l-.5-.5c.54-.52,1.26-.8,1.99-1,.15.18.32.35.5.5Z"/>
    <path class="st211" d="M373.66,182.66c-.26.33-.29,1.08-.5,1.49h-.5c-.23-.68.46-1.45.5-1.99.15.18.32.35.5.5Z"/>
    <path class="st222" d="M366.23,183.53c-.05.21.1,1.33-.51,1.14-1.27-.39-.29-1.54-.02-2.04.11.34.28.64.53.9Z"/>
    <path class="st140" d="M372.67,186.64c-.03.27.17,1.17-.54,1-1-.25-.36-1.59.04-1.99-.01.4.09.84.5,1Z"/>
    <path class="st72" d="M370.69,244.88c-.35.3-.66.65-.91,1.03-.08-.34-.05-.69-.1-1.03.78-.8.48-1.96.5-2.99.92.64.39,2,.51,2.99Z"/>
    <path class="st75" d="M345.26,194.11c-.62.84-2.37.84-2.99,0h2.99Z"/>
    <path class="st59" d="M370.63,249.36c.04-.32.22-.48.54-.5.35.4.73.78,1.01,1.43-.96.28-1.32-.4-1.55-.93Z"/>
    <path class="st226" d="M408.04,261.3v.5c-.74-.26-1.72.19-2.49,0-.44-.14-.43-.31,0-.5h2.49Z"/>
    <path class="st72" d="M369.68,243.38c-.82-.47-.51-1.66-.5-2.49.85.47.5,1.66.5,2.49Z"/>
    <path class="st202" d="M354.78,181.73c-.48.22-.8.74-1.49.95-.28-.96.44-1.28.94-1.57.16.22.34.43.54.62Z"/>
    <path class="st250" d="M416.01,231.94c.35.12.33.29,0,.5-.16.33-.32.67-.5,1-.18-.15-.35-.31-.5-.5.3-.35.15-1.3,1-1Z"/>
    <path class="st92" d="M391.65,190.63c-.2.41-.57.97-.81.94-.36-.04-.27-.8-.16-1.04.07-.14.12-.22.36-.44.19.2.4.38.61.54Z"/>
    <path class="st25" d="M405.55,261.3v.5c-.13-.03-.37-.05-.5,0h-1v-.5h1.49Z"/>
    <path class="st114" d="M346.26,195.11c.32,0,.57-.12.5-.5.44-.13.63.47.5.72-.09.17-.38.39-.59.39-.3,0-.47-.38-.41-.61Z"/>
    <path class="st87" d="M333.31,200.58c.09.2-.13.56-.27.47-.25-.17-.37-.48-.25-.71.08-.16.35-.13.52-.26.31.15.3.31,0,.5Z"/>
    <path class="st188" d="M371.17,248.86c-.16.19-.34.35-.54.5-.08-.18.07-.43.04-.63-.05-.3.09-.58.43-.4l.06.53Z"/>
    <path class="st241" d="M416.01,232.43c.07-.14-.04-.35,0-.5-.07-.26.13-.57.27-.47.22.15.38.51.23.72-.12.16-.24.32-.5.25Z"/>
    <path class="st215" d="M333.81,200.58c-.16-.03-.34.01-.5,0v-.5c.33-.07.56.17.5.5Z"/>
    <path class="st135" d="M392.13,206.38c-.32.24-.67.06-.32-.28.23-.06.49-.01.32.28Z"/>
    <path class="st240" d="M602.53,60.45c-.56.39-.89-1.59-.11-2.18,7.64-5.8,14.63-12.11,21.16-19.11.49-.53,1.46-.6,1.64-.11.1.27-.22.82-.56,1.22-6.33,7.68-13.71,14.35-22.13,20.18Z"/>
    <path class="st188" d="M206.78,129.44l-1.01-1c-.14-.04-.33.04-.46-.02-1.21-.79-1.82-1.73-.12-1.04.37.29,1.11.28,1.54.52l1.07.94,7.72,3.3c5.88,1.95,11.92,2.19,18.18,2.18,9.06-.01,16.11-4.54,23.64-10.06-8.4,12.68-28.17,13.83-41.3,9.77-3.43-1.06-6.29-3.03-9.26-4.59Z"/>
    <path class="st157" d="M267.9,196.64c-1.92,2.01-3.57,4.34-5.8,6,1.74-2.37,4.01-3.86,2.48-3.63.99-.8,1.51-2.4,2.93-2.79.47-.21.68,0,.39.42Z"/>
    <path class="st259" d="M205.2,127.37c-.53-.2-.48.37-.23.56.19.14.23.36.35.48-1.07-.51-2.05-1.14-2.96-1.9-.51-.43-.36-.58.45-.45.83.41,1.75.57,2.39,1.31Z"/>
    <path class="st197" d="M269.04,195.6l-.5-.5c1.06-.51,1.36-2.17,3.4-1.91l-2.91,2.41Z"/>
    <path class="st202" d="M201.28,125.43c.19.42,0,.57-.5.5-.58-.22-1.16-.64-1.54-1.4,1.16-.5,1.41.7,2.04.9Z"/>
    <path class="st75" d="M202.81,126.07c.03.27-.22.41-.45.45l-1.57-.6c.15-.18.32-.35.5-.5.53.17,1.03.39,1.53.64Z"/>
    <path class="st188" d="M269.04,195.6c-.17.14-.33.35-.5.5-.44.23-.59.04-.5-.5.2-.12.29-.4.5-.5l.5.5Z"/>
    <path class="st188" d="M268.54,196.1c-.21.18-.45.34-.64.54-.36.2-.46-.14-.39-.42.22-.06.34-.5.54-.62.15.18.32.35.5.5Z"/>
    <path class="st259" d="M206.78,129.44c-.44-.23-.85-.51-1.01-1,.49.15.88.51,1.01,1Z"/>
    <path class="st259" d="M207.8,128.83c-.47-.2-.98-.39-1.07-.94.43.24.91.43,1.07.94Z"/>
    <path class="st188" d="M188.88,155.93c.2,1.39.06,2.5-1.06,2.88.36-2.08-.33-3.6-1.05-5.35-2.47-5.94-5.55-11.34-10-16-2.23-2.34-4.07-5.25-4.37-8.52-.05-.53,1.33-.06,1.57.46,1.12,2.47,2.53,4.52,4.47,6.43,5.47,5.41,9.29,12.17,10.44,20.09Z"/>
    <path class="st22" d="M170.4,121.83c.04-.19.01-.58.35-.42.18.33.05.64-.35.42Z"/>
    <path class="st117" d="M185.35,54.27c-.16-.51.02-.68.52-.52,3.7,2.02,7.41,3.91,11.65,5.28,8.67,2.8,17.47,4.19,26.59,4.62.55.03.88.53,1.03.77.09.14.05.73-.47.71-10.08-.4-19.92-1.9-29.31-5.36-3.78-1.39-7.28-2.96-10.01-5.5Z"/>
    <path class="st180" d="M200.43,26.03c2.16,2.55,16.38,4.45,14.56,5.82-2.26.08-16.01-2.72-15.91-5.5.08-2.07,2.61-3.42,4.47-3.06l-3.12,2.74Z"/>
    <path class="st233" d="M235.22,27.86c-.21-.51-.05-.67.47-.47,1.65.37,3.41,2.52,2.33,3.75-1.65,1.89-4.65,2.07-6.71,1.96.22-2.01,5.08-1.42,5.37-3.19.17-1.04-1.17-1.49-1.45-2.06Z"/>
    <path class="st79" d="M185.88,53.75c-.2.14-.38.32-.52.52-.88-.82-2.51-1.74-2.93-2.96-.22-.18-.2-.34.05-.49,1.38.56,2.16,2.25,3.39,2.93Z"/>
    <path class="st170" d="M238.15,32.85c-.33-.15-.33-.31,0-.5,1.09.02,2.64.22,2.87,1.51-1.39-.2-1.99-1.14-2.87-1.01Z"/>
    <path class="st261" d="M182.35,49.77l.13,1.05-.05.49c-.33-.35-1.12-.52-1.19-1.31-.05-.53.61-.86.61-1.23.07.37.23.72.5,1Z"/>
    <path class="st164" d="M235.68,27.39c-.2.1-.37.26-.47.47-.43-.13-1.03-.5-1-.74.04-.4.85-.26,1.1-.19.15.04.2.16.37.46Z"/>
    <path class="st222" d="M238.15,32.85c-.02.18-.12.58-.26.48-.3-.21-.38-.51-.24-.73.11-.17.24-.32.5-.25v.5Z"/>
    <path class="st23" d="M559.05,205.6c-3.05,10.13-4.61,15.77-.53,25.77l5.08,12.43c.42,1.04.02,2.12-1.08,2.49-5.17-12.54-12.09-21.66-6.48-35.32.79-1.93,1.16-3.96,2.47-5.36.17-.28.35-.27.55,0Z"/>
    <path class="st117" d="M551.27,245.65c-6.05-5.27-4.29-15.14-7.48-17.39-.99-.7-2.3.08-3.31-.78.84-1.56,2.31-1.23,3.67-.94,4.81,1.03,2.27,9.78,7.7,16.99.55.73-.08,2.45-.57,2.11Z"/>
    <path class="st177" d="M560.09,211.03c-.12,6.45,1.02,12.86,2.35,19.43.16.77.37,1.61-.66,2.01-1.77-5.73-3.89-18.22-2.29-23.43,1.26-.73.87,1.02.59,1.99Z"/>
    <path class="st34" d="M539.54,226.47c-1.07,3.94,3.11,5.84,3.4,9.21-2.79.51-6.59-6.09-4.89-8.72-.13-1.19.22-1.7,1.05-1.53-.33-.17-.33-.34,0-.51.69.16.59,1.01.45,1.55Z"/>
    <path class="st34" d="M533.01,228.42c-.34-.82-.14-1.06.55-.46.28-.47.63-.8,1.06-.98.22.11.46.12.45.29-.02.21.06.83-.07,1-3.05,3.9,2.71,5.69,3,9.18-2.71.24-7.53-6.28-4.98-9.04Z"/>
    <path class="st27" d="M529.66,237.4c.03-1.03-.98-1.66-1.4-2.47-.45-.86-.68-2.09-.59-3l.1-1.04c-.18-.85.02-1.27.85-.95.32.04.67-.11,1.04-.44,3.22-.4-.65,1.89-.26,3.29.54,1.96,2.15,3.21,3.23,5.27-1.01.96-2.03-.25-2.96-.67Z"/>
    <path class="st180" d="M540.06,222.46c-.29.62-1.07,1.11-1.06,1.92-.22.46-.18.81.1,1.05-.05.69-.73,1.03-1.05,1.53-.21-.99-.65-1.96-.5-2.99l.42-1.01-.08-.38c-.6-.91-.5-.9.55-.74,1.42-4.09,4.2-5.23,4.14-3.64-.08,1.91-.84.75-2.52,4.26Z"/>
    <path class="st58" d="M529.08,229.37c.35.41.08.58-.47.58-.24.35-.56.65-.85.95-1.75-.84,2.74-7.39,3.84-8.18,2.04,1.58-1.76,4.14-2.52,6.65Z"/>
    <path class="st224" d="M538.44,221.85c-.13.37-.07.6-.55.74-1.84.5-3.34,2.51-3.88,4.34.18.33.03.68-.45,1.04l-.55.46c-1.9-1.85,2.06-6.88,4.14-7.69.56.28.81,1.01,1.29,1.12Z"/>
    <path class="st116" d="M560.09,211.03c.01-.71.1-1.59-.59-1.99.16-.51.47-1.02,1.39-.95-.18,1.11-.24,2.18-.8,2.94Z"/>
    <path class="st102" d="M559.5,205.06c-.43.13-.6-.02-.5-.46l-.02-.51c.56-.02,1.15-.17,1.49.19.14.15-1.18,1-.97.78Z"/>
    <path class="st44" d="M534.62,226.98c-.15.5-.59.8-1.06.98-.04-.41.35-.7.45-1.04l.6.07Z"/>
    <path class="st146" d="M529.65,229.51c.21.32-.26.38-.51.7-.23.3-.54.28-.53-.26.13-.18.41-.37.47-.58l.57.14Z"/>
    <path class="st9" d="M559.5,205.06c-.25.27-.32.47-.44.54h-.55c.35-.38.3-.85.49-1,.19.12.36.28.5.46Z"/>
    <path class="st224" d="M537.55,223.97c.05-.32-.13-1.2.42-1.01.04.19.02.41,0,.7-.02.2-.11.4-.42.32Z"/>
    <path class="st252" d="M506.91,254.53c-.01-.48.65-.2.78.04.09.17.04.55-.21.72-.15.11-.56-.29-.57-.76Z"/>
    <path class="st180" d="M279.98,104.56c-3.97,7.84-.63,12.9-3.2,14.2-1.96-5.44-.71-11.23,2.88-15.25,1.23-1.34.97-.24.33,1.05Z"/>
    <path class="st67" d="M281.87,101.1c-.73,1.1-.97,2.51-1.89,3.46.07-.14.06-.59.11-.86.03-.17-.1-.39-.44-.2.56-.62.57-1.87,1.27-2.47l.52-.34c.15.04.26.17.42.03.32.07.3.2,0,.38Z"/>
    <path class="st222" d="M281.87,101.1v-.38c.71-.3.71.34,0,.38Z"/>
    <path class="st222" d="M280.93,101.04c.15-.13.28-.41.52-.34-.08.22-.31.31-.52.34Z"/>
    <circle class="st112" cx="488.25" cy="215.76" r=".32"/>
    <path class="st75" d="M189.42,79.1c-.04,2.7,2.89,5.69,1.51,6.12-.29.09-1.03-.13-1.45-.41-2.2-1.42-3.44-6.85-.87-6.71.35.02.83.41.82,1Z"/>
    <path class="st180" d="M239.33,99.9c-3.64,1.66-7.33,1.95-11.15,1.6.27-1.02,1.11-.96,2.01-1.04,3.72-.36,10.79-3.26,9.14-.56Z"/>
    <path class="st162" d="M101.14,29.37c0,.66-.55,1.33-.5,1.99-.14.43-.31.43-.5,0,.41-.62-.48-2,.5-2.49.36-.1.51.09.5.5Z"/>
    <path class="st27" d="M100.64,31.36c.06.77-.33,1.31-.5,1.99-.14.43-.31.43-.5,0,.13-.8.03-1.29.5-1.99h.5Z"/>
    <path class="st73" d="M99.64,35.84c-.14.43-.31.43-.5,0-.19-.88.37-1.69.5-2.49h.5c-.19.74-.24,1.77-.5,2.49Z"/>
    <path class="st134" d="M99.64,35.84c-.14.41-.12,1.6-.82,1.32s.2-1.09.32-1.32h.5Z"/>
    <path class="st251" d="M101.14,28.37c.02.33,0,.67,0,1-.18-.15-.35-.31-.5-.5v-1c.21.06.48.25.5.5Z"/>
    <path class="st53" d="M134.86,34.81c-.09.35-.25.34-.47.02-1.61-1.88-2.25-4.35-3.34-6.54.32-.21.44-.59.46-.96,1.05,2.48,2.61,4.84,3.34,7.47Z"/>
    <path class="st215" d="M124.55,37.33c.03.83.11,1.66-.01,2.49-1.12-.04-.6-1.9-.98-2.49h.5c.14-.43.31-.43.5,0Z"/>
    <path class="st156" d="M135.52,36.33c.23.44.04.59-.5.5-.09-.54-.27-1.04-.56-1.5-.02-.43.28-.35.56,0,.35.2.27.76.5,1Z"/>
    <path class="st139" d="M124.55,37.33h-.5v-1.99c.77.32.48,1.32.5,1.99Z"/>
    <path class="st1" d="M135.02,36.83c.18-.15.35-.31.5-.5.28.28.57.26.53.73-.03.39-.05.98-.53.54-.22-.21-.46-.49-.5-.77Z"/>
    <path class="st172" d="M127.56,17.95c-.49.04-.44-.7-.58-1.03.55.09.43.66.58,1.03Z"/>
    <path class="st264" d="M135.02,35.34h-.56c-.08-.13,0-.36-.05-.5l.47-.02c.04.14.05.44.15.52Z"/>
    <path class="st172" d="M126.52,15.42c-.34.1-.42-.23-.45-.5.37-.22.45.29.45.5Z"/>
    <path class="st172" d="M126.96,16.42c-.19-.14-.46-.33-.45-.55.35-.2.38.33.45.55Z"/>
    <path class="st35" d="M146.45,30.84c.45.86.42.95-.45.46-.88-.76-1.3-1.77-2.03-2.6l.42-.42c.58.87,1.66,1.43,2.06,2.56Z"/>
    <path class="st49" d="M148.47,33.35l-.5.5c-.85-.67-1.2-1.87-1.98-2.55.22-.07.38-.24.45-.46.33.93,1.62,1.55,2.02,2.51Z"/>
    <path class="st229" d="M149.96,35.34c-.14.36-.31.36-.5,0-.82-.13-.97-1.08-1.49-1.49l.5-.5c.3.72,1.27,1.17,1.49,1.99Z"/>
    <path class="st238" d="M151.96,37.83c-.14.32-.31.31-.5,0-.49-.15-.67-.67-1-1h.5c.33.33,1,.45,1,1Z"/>
    <path class="st150" d="M150.46,36.33h-.5l-.5-1h.5c.09.34.54.58.5,1Z"/>
    <polygon class="st174" points="150.96 36.83 150.46 36.83 149.96 36.33 150.46 36.33 150.96 36.83"/>
    <path class="st231" d="M151.96,38.32c-.16.05-.44-.12-.58-.04l.08-.46c.15.05.34-.03.5,0v.5Z"/>
    <path class="st245" d="M168.4,27.87c.79.28,1.65,1.11,1.43,1.94.26.14.25.29,0,.46-1.26-.43-1.95-1.73-2.93-2.44l.52-.46h.5c.31.05.5.17.5.5Z"/>
    <path class="st193" d="M172.38,31.85c.33.15.32.31,0,.5-.72-.43-1.42-.88-1.99-1.49-.18-.18-.02-.34.5-.5.15-.34.31-.33.5,0,.46-.2,1.28.88,1,1.49Z"/>
    <path class="st53" d="M177.37,33.84c.37.14.37.31,0,.5-.6-.46-1.23-.92-1.99-1-.44-.14-.43-.31,0-.5l.42-.54c.5.51,1.4.7,1.57,1.53Z"/>
    <path class="st256" d="M177.37,35.84c-.15.34-.31.33-.5,0-.58-.22-1.1-.52-1.49-1-.1-.35.09-.51.5-.5.67.25,1.23.87,1.49,1.49Z"/>
    <path class="st90" d="M175.37,32.85v1c-.15.33-.31.32-.5,0-.49-.08-.79-.55-1-1-.33-.15-.32-.31,0-.5-.33-.15-.32-.31,0-.5l1.49,1Z"/>
    <path class="st176" d="M174.87,33.84c.34.14.33.3,0,.5-.44-.23-.78-.54-1-1v-.5c.47.16.82.54,1,1Z"/>
    <path class="st135" d="M178.36,34.34l-.5.5c-.16-.17-.32-.36-.5-.5v-.5c.4.02.67.32,1,.5Z"/>
    <path class="st58" d="M172.88,32.35c.32.15.31.31,0,.5-.21-.11-.31-.38-.5-.5v-.5c.14-.43.31-.43.5,0,.33.15.32.31,0,.5Z"/>
    <path class="st162" d="M170.89,30.36c0,.27-.24.46-.5.5-.15-.16-.37-.52-.57-.59.23-.24.42-.21.57.09.15-.33.31-.32.5,0Z"/>
    <path class="st226" d="M173.88,32.85v.5c-.09-.19-.44-.27-.5-.5-.33-.16-.33-.33,0-.5.15-.33.31-.32.5,0v.5Z"/>
    <path class="st118" d="M175.87,34.34c-.15.18-.32.35-.5.5-.13-.16-.32-.4-.5-.5.07-.35.24-.32.5,0,.15.02.36-.05.5,0Z"/>
    <path class="st258" d="M176.87,35.84h.5c.08.1.55-.02.49.25-.07.29-.55.32-.71.27-.16-.05-.11-.37-.27-.52Z"/>
    <path class="st120" d="M175.37,34.34c-.16-.02-.33,0-.5,0-.04-.15.06-.35,0-.5h.5v.5Z"/>
    <path class="st178" d="M173.38,32.85h-.5v-.5c.15-.33.31-.32.5,0,0,.16-.04.35,0,.5Z"/>
    <path class="st24" d="M183.84,29.86l.5.5.5.5c-.26.04-.45.24-.5.5-.81-.28-1.31-1.11-2.02-1.5.38.09.51-.15.52-.49l1,.5Z"/>
    <path class="st57" d="M185.83,32.35c-.19-.15-.35-.31-.5-.5.21.09.33.35.5.5Z"/>
    <path class="st215" d="M157.44,31.36v.5c-3.34-2.54-5.97-5.91-8.84-8.88.4.29.8-.04.48-.47,2.5,3.14,5.82,5.68,8.36,8.84Z"/>
    <path class="st131" d="M150.87,33.3c.49.55.24.78-.37.4-.7-.53-1.01-1.24-1.51-1.89.2-.11.36-.28.47-.48.46.69.87,1.28,1.41,1.97Z"/>
    <path class="st67" d="M152.45,35.34c-.15.31-.31.3-.5,0-.94-.05-.94-1.25-1.46-1.64,0-.24.05-.53.37-.4l1.59,2.04Z"/>
    <path class="st253" d="M159.93,33.84v.5c-.21-.36-.93-.45-1-1h.5l.5.5Z"/>
    <path class="st150" d="M159.43,33.35h-.5c-.02-.18-.39-.35-.5-.5h.5l.5.5Z"/>
    <path class="st120" d="M158.43,32.35h-.5c-.16-.16-.32-.36-.5-.5h.5l.5.5Z"/>
    <path class="st150" d="M158.93,32.85h-.5c-.13-.19-.34-.34-.5-.5h.5l.5.5Z"/>
    <path class="st72" d="M180.85,19.41l.5.5h.5l.5.5c1.62.61,2.92,1.78,4.48,2.49.23.44.04.59-.5.5l-4.98-2.49-.5-.5c-.14-.06-.35.02-.5,0-.23-.31-.34-.73,0-1h.5Z"/>
    <path class="st8" d="M184.34,27.87c.43.31.6.64.5,1,.33.15.32.31,0,.5l-1.99-1-.5-.5-.5-.5c-.43-.63-.15-.89.5-.5.59.47,1.24.88,1.99,1Z"/>
    <path class="st171" d="M181.35,25.88l1,1c.02.33-.15.5-.5.5h-.5l-.5-.5c-.33-.16-.66-.36-1-.5l-.5-.5c-1.29-.77-.88-1.27.39-.55.33.42,1.16.34,1.6.55Z"/>
    <path class="st193" d="M179.75,25.33c-.45-.19-.36.3-.39.55l-1.99-1c-.9.15-.96-.25-.06-.61.13-.17.27-.33.42-.48.71.49,1.48.83,2.03,1.52Z"/>
    <path class="st193" d="M187.83,23.89c.44.14.43.31,0,.5-.64-.12-1-.75-1.49-1,.18-.15.35-.31.5-.5.44.2.75.65,1,1Z"/>
    <path class="st107" d="M186.83,29.86c-.15.33-.31.32-.5,0-.15.25-.32.24-.5,0h-.5v-.5c-.33-.15-.32-.31,0-.5.57.21,1.1.52,1.49,1Z"/>
    <path class="st34" d="M189.42,24.9c-.62.05-1.05-.41-1.59-.51v-.5c.74.06,1.26.35,1.59,1.01Z"/>
    <path class="st57" d="M185.34,28.87c-.15.33-.31.32-.5,0l-.5-1c.45.19.79.55,1,1Z"/>
    <path class="st57" d="M182.35,26.88c-.45-.19-.82-.53-1-1,.43.21.97.47,1,1Z"/>
    <path class="st57" d="M187.34,30.31l-.51.05c-.33-.15-.32-.31,0-.5.22.09.4.24.51.45Z"/>
    <path class="st12" d="M181.35,20.9c-.2-.1-.34-.35-.5-.5.22.09.38.3.5.5Z"/>
    <path class="st33" d="M160.43,34.34h-.5v-.5c.16.16.31.37.5.5Z"/>
    <path class="st203" d="M145.05,17.46c.21-.27.33-.38.44-.46-.21.31-.31.4-.44.46Z"/>
    <path class="st9" d="M157.93,31.85h-.5v-.5c.15.18.33.33.5.5Z"/>
    <path class="st12" d="M182.35,20.41c-.21-.08-.34-.36-.5-.5.21.12.39.28.5.5Z"/>
    <path class="st12" d="M181.35,19.91c-.21-.12-.39-.28-.5-.5.22.1.4.27.5.5Z"/>
    <path class="st242" d="M151.96,35.84c-.07-.13.04-.35,0-.5h.5c.07.33-.17.56-.5.5Z"/>
    <path class="st61" d="M151.96,38.32c.1.34.09.43.05.39s-.08-.21-.05-.39Z"/>
    <path class="st14" d="M137.17,17.46c-.1-.15-.08-.37-.16-.53.21-.23.39-.2.54.09.22.3-.05.62-.38.44Z"/>
    <path class="st99" d="M137.55,17.01c-.09-.13-.39-.09-.54-.09-.43-.21-.81-.55-1-1l.5-.5c.61.35.66,1.1,1.03,1.58Z"/>
    <path class="st239" d="M136.09,14.35c.16.25.15.92.42,1.08-.15.31-.31.3-.5,0-.46-.19-.67-.67-1-1h.5l.58-.08Z"/>
    <path class="st14" d="M136.01,15.93c-.06-.14.04-.35,0-.5h.5c.07.33-.17.56-.5.5Z"/>
    <path class="st192" d="M413.02,262.8v-.5c1.24-.01,2.53-.19,4.03.23-1.34.49-2.7.26-4.03.26Z"/>
    <path class="st62" d="M177.3,24.28l.06.61c-.3-.02-.57.16-.5.5-.7-.45-1.43-.87-1.99-1.49-.19-.42,0-.57.5-.5.58.43,1.17.98,1.93.89Z"/>
    <path class="st255" d="M174.38,22.9c.19.42,0,.57-.5.5-.44-.22-.86-.5-1-1-.33-.16-.33-.33,0-.5.6.17,1.06.57,1.49,1Z"/>
    <path class="st42" d="M175.37,23.39c-.15.18-.32.35-.5.5l-1-.5c.15-.18.32-.35.5-.5.25.25.71.29,1,.5Z"/>
    <path class="st221" d="M172.88,22.4h-.5v-.5c.16.03.34-.04.5,0,.03.16-.04.34,0,.5Z"/>
    <path class="st3" d="M170.39,29.37v.5c-.22.33-.41.31-.57-.05-.35-.74-1.03-1.23-1.43-1.94v-.5c.87.41,1.51,1.17,1.99,1.99Z"/>
    <path class="st223" d="M172.88,31.36v.5h-.5l-1-1.49c-.32-.15-.31-.31,0-.5.7.26,1.16.85,1.49,1.49Z"/>
    <path class="st216" d="M165.92,25.37c-.15.28-.32.27-.51,0-.19-.14-.35-.32-.5-.5.36.12.74.2,1.01.49Z"/>
    <path class="st39" d="M164.41,24.39c-.18-.14-.4-.28-.5-.5.21.08.34.34.5.5Z"/>
    <path class="st227" d="M168.4,27.87c-.11-.2-.34-.34-.5-.5.15,0,.36-.06.5,0v.5Z"/>
    <path class="st242" d="M175.37,32.85c.03-.24,0-.75.42-.54.19.34-.06.6-.42.54Z"/>
    <path class="st69" d="M164.91,24.89c-.21-.07-.33-.37-.5-.5.17.16.35.32.5.5Z"/>
    <path class="st246" d="M173.88,32.35h-.5c-.33-.15-.32-.31,0-.5h.5v.5Z"/>
    <path class="st132" d="M173.38,31.85c-.15.33-.31.32-.5,0v-.5c.1.19.41.28.5.5Z"/>
    <path class="st84" d="M171.39,30.36h-.5c-.32-.13-.31-.3,0-.5.15.01.36-.05.5,0v.5Z"/>
    <path class="st94" d="M167.4,26.88c-.16-.18-.3-.38-.43-.58.09.21.27.42.43.58Z"/>
    <path class="st155" d="M170.89,29.86c-.11.33-.28.32-.5,0v-.5c.11.18.44.26.5.5Z"/>
    <path class="st199" d="M167.9,27.37h-.5c-.03-.16.01-.33,0-.5l.5.5Z"/>
    <path class="st57" d="M181.35,28.37c-.21-.09-.33-.35-.5-.5.19.15.35.31.5.5Z"/>
    <path class="st57" d="M182.85,29.37c-.19-.15-.35-.31-.5-.5.3.1.52.1.5.5Z"/>
    <path class="st57" d="M179.86,27.37c-.19-.15-.35-.31-.5-.5.19.14.35.31.5.5Z"/>
    <path class="st57" d="M182.85,28.37c-.18-.16-.34-.32-.5-.5.18.15.35.31.5.5Z"/>
    <path class="st57" d="M181.35,27.37c-.26,0-.44-.25-.5-.5.21.1.34.34.5.5Z"/>
    <path class="st57" d="M179.86,26.38c-.28-.12-.55-.12-.5-.5.21.1.34.34.5.5Z"/>
    <path class="st57" d="M185.83,31.36c-.18-.15-.35-.31-.5-.5.26.04.45.24.5.5Z"/>
    <path class="st119" d="M186.83,30.36h-.5c-.22-.15-.21-.32,0-.5h.5v.5Z"/>
    <path class="st57" d="M186.33,30.36c-.24-.08-.43-.25-.5-.5h.5v.5Z"/>
    <path class="st57" d="M184.34,30.36c-.18-.15-.35-.31-.5-.5.18.16.34.32.5.5Z"/>
    <path class="st57" d="M185.34,29.86c-.18-.15-.34-.32-.5-.5.15-.33.31-.32.5,0v.5Z"/>
    <path d="M166.89,27.83c-.03-.32.2-.46.52-.46.06.34-.17.59-.52.46Z"/>
    <path class="st210" d="M165.41,25.38h.51c0,.6-.55.57-.51,0Z"/>
    <path class="st19" d="M539.09,224.92c.03.16.02.35,0,.51-.25.12-.42-.02-.52-.26-.14-.34.41-.58.42-.8l.09.54Z"/>
    <path class="st129" d="M177.86,34.84l.5-.5-.5.5Z"/>
    <path class="st213" d="M832.02,120.45c.1.34.09.43.05.39s-.08-.21-.05-.39Z"/>
    <path class="st173" d="M387.11,257.32c-.15-.5-.19-1.04-.5-1.49.18-.15.35-.31.5-.5.21.23.48.52.5.81.04.48.08,1.18-.5,1.19Z"/>
    <path class="st188" d="M269.04,195.6l-.5-.5.5.5Z"/>
    <path class="st141" d="M147.97,33.84l.5-.5-.5.5Z"/>
    <path class="st129" d="M170.39,30.36c-.18,0-.42.03-.57-.09-.17-.13-.19-.34,0-.46.19.05.38.05.57.05.33.15.33.31,0,.5Z"/>
    <rect class="st154" x="172.88" y="31.85" width=".5" height=".5"/>
    <path class="st196" d="M170.89,30.36h-.5v-.5c.17,0,.33-.02.5,0,.03.15,0,.34,0,.5Z"/>
    <rect class="st211" x="184.84" y="28.87" width=".5" height=".5"/>
  </g>
</svg>