<?xml version="1.0" encoding="UTF-8"?>
<svg id="Ebene_10" xmlns="http://www.w3.org/2000/svg" version="1.1" viewBox="0 0 930 325">
  <!-- Generator: Adobe Illustrator 30.1.0, SVG Export Plug-In . SVG Version: 2.1.1 Build 136)  -->
  <defs>
    <style>
      .st0 {
        fill: #98c6cd;
      }

      .st1 {
        fill: #344447;
      }

      .st2 {
        fill: #0c1011;
      }

      .st3 {
        fill: #84acb3;
      }

      .st4 {
        fill: #69898e;
      }

      .st5 {
        fill: #69898f;
      }

      .st6 {
        fill: #010101;
      }

      .st7 {
        fill: #44595c;
      }

      .st8 {
        fill: #6d8d93;
      }

      .st9 {
        fill: #95c3cb;
      }

      .st10 {
        fill: #050606;
      }

      .st11 {
        fill: #7ea4aa;
      }

      .st12 {
        fill: #030304;
      }

      .st13 {
        fill: #80a6ad;
      }

      .st14 {
        fill: #9bcad2;
      }

      .st15 {
        fill: #020203;
      }

      .st16 {
        fill: #9ccbd3;
      }

      .st17 {
        fill: #1f2829;
      }

      .st18 {
        fill: #74979d;
      }

      .st19 {
        fill: #2b3739;
      }

      .st20 {
        fill: #3e5054;
      }

      .st21 {
        fill: #6a8b90;
      }

      .st22 {
        fill: #75999f;
      }

      .st23 {
        fill: #0b0f10;
      }

      .st24 {
        fill: #789ca2;
      }

      .st25 {
        fill: #141a1c;
      }

      .st26 {
        fill: #030303;
      }

      .st27 {
        fill: #344346;
      }

      .st28 {
        fill: #080b0b;
      }

      .st29 {
        fill: #a5d8e0;
      }

      .st30 {
        fill: #080a0a;
      }

      .st31 {
        fill: #040606;
      }

      .st32 {
        fill: #455b5e;
      }

      .st33 {
        fill: #090b0c;
      }

      .st34 {
        fill: #7da2a9;
      }

      .st35 {
        fill: #81a8ae;
      }

      .st36 {
        fill: #85adb4;
      }

      .st37 {
        fill: #0b0f0f;
      }

      .st38 {
        fill: #8cb6bd;
      }

      .st39 {
        fill: #485e61;
      }

      .st40 {
        fill: #141a1b;
      }

      .st41 {
        fill: #1f292a;
      }

      .st42 {
        fill: #67858b;
      }

      .st43 {
        fill: #455a5d;
      }

      .st44 {
        fill: #91bcc3;
      }

      .st45 {
        fill: #2b393b;
      }

      .st46 {
        fill: #0a0d0e;
      }

      .st47 {
        fill: #8db7be;
      }

      .st48 {
        fill: #68868b;
      }

      .st49 {
        fill: #a9dce5;
      }

      .st50 {
        fill: #99c7cf;
      }

      .st51 {
        fill: #9ac9d1;
      }

      .st52 {
        fill: #20292b;
      }

      .st53 {
        fill: #121819;
      }

      .st54 {
        fill: #3d4f53;
      }

      .st55 {
        fill: #89b2b9;
      }

      .st56 {
        fill: #2d3a3c;
      }

      .st57 {
        fill: #6e8f95;
      }

      .st58 {
        fill: #192122;
      }

      .st59 {
        fill: #72959b;
      }

      .st60 {
        fill: #000101;
      }

      .st61 {
        fill: #192123;
      }

      .st62 {
        fill: #587276;
      }

      .st63 {
        fill: #86aeb5;
      }

      .st64 {
        fill: #ade1ea;
      }

      .st65 {
        fill: #6b8b90;
      }

      .st66 {
        fill: #719298;
      }

      .st67 {
        fill: #232e30;
      }

      .st68 {
        fill: #94c1c8;
      }

      .st69 {
        fill: #526c70;
      }

      .st70 {
        fill: #ace1ea;
      }

      .st71 {
        fill: #050707;
      }

      .st72 {
        fill: #101516;
      }

      .st73 {
        fill: #0d1112;
      }

      .st74 {
        fill: #a5d7df;
      }

      .st75 {
        fill: #020202;
      }

      .st76 {
        fill: #0c1010;
      }

      .st77 {
        fill: #1e2729;
      }

      .st78 {
        fill: #060808;
      }

      .st79 {
        fill: #a9dde5;
      }

      .st80 {
        fill: #668489;
      }

      .st81 {
        fill: #020303;
      }

      .st82 {
        fill: #8ebac1;
      }

      .st83 {
        fill: #0d1011;
      }

      .st84 {
        fill: #151c1d;
      }

      .st85 {
        fill: #0f1314;
      }

      .st86 {
        fill: #7ea3aa;
      }

      .st87 {
        fill: #5e7b7f;
      }

      .st88 {
        fill: #aadee6;
      }

      .st89 {
        fill: #2e3b3e;
      }

      .st90 {
        fill: #364649;
      }

      .st91 {
        fill: #040505;
      }

      .st92 {
        fill: #9eced6;
      }

      .st93 {
        fill: #090c0d;
      }

      .st94 {
        fill: #566f73;
      }

      .st95 {
        fill: #e5f7fa;
      }

      .st96 {
        fill: #5f7c81;
      }

      .st97 {
        fill: #1a2223;
      }

      .st98 {
        fill: #74979e;
      }

      .st99 {
        fill: #ade2eb;
      }

      .st100 {
        fill: #070909;
      }

      .st101 {
        fill: #141b1b;
      }

      .st102 {
        fill: #0a0d0d;
      }

      .st103 {
        fill: #b0e6ef;
      }

      .st104 {
        fill: #050607;
      }

      .st105 {
        fill: #80a7ad;
      }

      .st106 {
        fill: #789da3;
      }

      .st107 {
        fill: #030404;
      }

      .st108 {
        fill: #b2e8f1;
      }

      .st109 {
        fill: #485e62;
      }

      .st110 {
        fill: #6d8e94;
      }

      .st111 {
        fill: #3b4d50;
      }

      .st112 {
        fill: #2c393b;
      }

      .st113 {
        fill: #b1e7f0;
      }

      .st114 {
        fill: #638186;
      }

      .st115 {
        fill: #81a9af;
      }

      .st116 {
        fill: #354446;
      }

      .st117 {
        fill: #81a8af;
      }

      .st118 {
        fill: #151b1c;
      }

      .st119 {
        fill: #a3d5dd;
      }

      .st120 {
        fill: #7da3a9;
      }

      .st121 {
        fill: #030405;
      }

      .st122 {
        fill: #5e797e;
      }

      .st123 {
        fill: #010202;
      }

      .st124 {
        fill: #556e73;
      }

      .st125 {
        fill: #617e83;
      }

      .st126 {
        fill: #43575b;
      }

      .st127 {
        fill: #aee2ec;
      }

      .st128 {
        fill: #040506;
      }
    </style>
  </defs>
  <path class="st108" d="M929.5,0c.32,108.07.42,216.27.29,324.62-309.96.28-619.89.24-929.79-.12V0h929.5Z"/>
  <polygon class="st95" points="929.5 0 930 0 930 325 0 325 0 324.5 929.59 324.47 929.5 0"/>
  <path d="M12.99,231.14c.14-.44.31-.43.5,0l.28,8.91c.06,1.91.67,3.57.64,5.59-.1,9.39-.47,18.6.73,27.89l1.81,14c1.13,8.79-7.79,13.87-.63,30.21l52.7-.45,87.26-.26c1.29-3.45,3.33-6.72,3.19-10.5-.22-5.84-1.5-11.46-.79-17.28,1.02-8.35,3.27-16.22,6.39-24.02l7.45-18.63c1.86-4.64,4.23-8.82,5.62-13.54,3.91-1.4,7.33-2.78,10.68-4.98l13.55-8.9c.49-.47,1.05-.15.9.51-9.09,6.96-11.92,11.25-23.21,15.54-.62.23-1.23-.06-1.39.63-.07.3-.46,1.4.2,1.33,6.07-.7,11.76-1.56,17.66-3.56.76,2.99-16.17,5.69-18.8,5.45l-5.27,14.86c1.6-.67,2.69-.03,4.03.7l28.63,15.55c2.93,1.59,4.62,4.39,5.17,7.43,1.03,5.71,8.67,3.67,11.52,4.87,3.49,1.47,8.09,5.77,12.53,4.11,3.94-1.48,6.76-7.36,8.19-11.27,3-8.16,5.1-15.78,7.65-23.94.94-3,1.01-6.34-.62-9.07-1.46-2.44-6.5-.31-7.65-3.64-1.16-3.35-4.08-4.16-6.34-6.17-2.75-2.44-4.93-4.21-8.71-5.14-2.05-.51-4.33-2.78-6.11-4.03-2.57-1.81-3.27-5.11-5.48-7.03-1.25-1.1-1.65-2.26-2.6-3.45-5.11-6.44-9.83-12.88-15.73-18.77-4.94-4.94-11.38-9.18-18.13-11.01-4.38-1.19-8.95-1.22-13.41-1.67-4.25-.43-11.89,1.68-24.99.44-1.74-.16-2.92.47-4.25-1.5s-1.49-4.56-2.02-7.05c-.52-2.43-3.42-3.25-5.04-5.3,2.99-.85,6.34,1.63,7.63,4.32.8,1.67.02,4.71,1.91,5.72,6.45,3.46,21.51-.48,27.28.28,4.48.59,8.97.62,13.4,1.72,7.04,1.75,13.57,5.94,18.8,10.89,8.84,8.35,21.45,27.18,23.72,29.36,7.26,6.97,6.54,2.14,15.04,9.43,2.32,1.99,5.37,2.97,6.61,6.32,1.22,3.33,5.97-.18,8.76,5.22,1.56,3.03,1.62,6.26,1.1,9.39.09.54.17,1.08.18,1.61s0,1.04-.14,1.51c-2.59,8.59-5.36,17.24-8.79,25.5-2.95,7.09-10.86,14.36-18.57,9.62-2.3-1.6-4.68-2.7-7.15-3.31-5.14.34-9.68-.83-11.94-5.87-.33-2.48-1.33-4.48-3-6-10.29-5.09-20.51-10.69-30.67-16.82-1-1.64-1.24-1.76-.72-.37-4.52,11.03-7.73,22.39-9.63,34.08.21,5.78.61,11.53,1.19,17.27-.41,2.82-1.22,5.54-2.45,8.15l154.73-.18c.37-4.53,1.45-8.86,3.24-12.99,1.07-5.57,1.89-11.25,2.45-17.06,4.73-12.83,6.41-25.48,7.16-38.67-3.51,1.69-6.89,3.69-10.12,6.02-11.36,8.11-22.98,15.67-34.87,22.69-5.01,2.29-27.85,10.24-31.87,8.46-.36-.16-.68-.38-1-.62-1.75.32-2.42.12-2-.6l1.99-1.29c17.03-3.63,33.2-9.83,46.87-20.8,10.62-7.21,21.44-14.03,32.45-20.45,1.32-2.59,2.26-5.31,2.82-8.14-4.28,1.62-4.88-2.06-1.47-4.41,5.21-1.28,9.81-3.6,13.79-6.98,5.43-5.53,11.43-10.2,17.99-13.99-.92-.74-1.64-1.56-2.16-2.47-4.04,1.39-7.9,3.19-11.58,5.4l-1.67-.24-1.16.97c-.06.46-.19.44-.39,0-.54-.31-.37-.8.52-1.47.13-.69.36-1.37.85-1.88,3.11-3.22,14.73-7.89,19.34-9.04.95-.24,1.81.12,2.55.72,5.94-4.03,5.01-4.79-2.79-2.26l-11.71,3.45c-4.46,2.85-8.86,5.78-13.19,8.8l-14.2,15.6c-11.11,9.84-22.17,12.69-36.49,15.7-10.88,3.1-21.66,5.99-32.35,8.66l-.96-.78c-1.37.38-1.72.18-1.04-.6,5.33-2.48,11.21-3.47,16.94-5.55,7.45-2.7,14.55-4.75,22.26-6.78,8.97-2.36,18.06-4.89,25.78-10.11,7.05-4.76,11.43-12.08,17.91-17.53,10.29-8.67,21.64-13.49,34.9-15.35,2.03-.29,2.06,2.82,1.66,3.89l-.46,1.03c-.02.12.05.25.06.38-.22.43-.64.75-1.11.64-.5.33-.5.49,0,.5.34-.55.96-1,1.6-1.06,3.53-.64,5.62-2.78,9.41-1.56,1.58.07,11.35-8.58,11.27-9.32l-1.08-9.89c-.31-2.86.04-7.18-1.67-9.56-2.96-4.14-4.82-7.74-5.53-12.8-.4-2.83-3.11-5.4-3.08-8.54-2.71-2.09-3.27-5.03-3.38-8.17-.14-3.89-.64-7.58-.43-11.45.06-1.12,1.39-1.75,1.52-2.72.38-2.8,1.02-5.54,1.25-8.36.47-5.73,2.4-10.8,5.42-15.61.99-1.58,2.4-2.17,3.6-3.33,2.25-2.17,4.22-4.22,7.24-5.34,7.3-2.73,19.13-5.08,26.28-1.56l.55.44c.3.58-.04.75-1.04.49l-1.66.51c-9.1-2.8-18.66.63-26.76,4.45,4.88-1.9,9.86-3.37,14.94-4.4,5.47-.16,7.55,4.56.62,3.44-3.71.6-7.28,1.86-10.73,3.79-2.18,1.19-3.95,1.28-5.32.27l-3.31.14c-.43.74-.78.85-1.04.32l.07,1.09c-5.67,8.39-7.68,18.99-7.25,28.82.5.27.33,1.41,0,2,.88.43.43,2.62,0,3.49.37.51.35,1.89,0,2.5.41.13.36.73,0,1,.12.9-.05,1.56-.5,2-.44.23-.59.04-.5-.5-.55-.8-.72-1.96-.5-3.49-.43-.64-.38-2.24,0-3-.43-.08-.22-.61,0-1-.99.49-.88-5.75-.8-5.47,0,2.53.1,5.01.3,7.46.47.5.31,1.8,0,2.5.69,1,.78,2.34.27,4.03l.23.46c.86.08.57.47,0,1,.82-.11.83,2.69.8,2.55-.21-.86-.47-2.51.2-3.05-.7-.33-.74-.73,0-1,.13-.9.47-1.4,1-1.5-.32-.6-.44-1.5,0-2-.45-.57-.44-1.8,0-2.5.25-3.47.28-6.97.1-10.48-.97-.52-.91-2.78.37-2.91.48-.8.63-.55.54.38.12,6.73,1.92,8.79.08,16.18-1.17,4.69-.67,9.67,1.7,13.9,2.56,4.58.32,10.53,9.58,17.5,2.09,1.57,4.18,2.77,6.03,4.47.22.38-.28.99-.55.91-.29-.09-.68.01-.88-.04-2.22.09-5.24-1.85-5.97-3.96-.56-.09-.73.26-.51,1.05l1.12.37c.82,4.23,4.57,28.82,2.67,30.69-1.63,1.6-3.07-.3-3.62-1.93l-.92-8.48c-2.82,3.11-6.01,5.06-9.57,5.87.12.19.22.39.21.58-.22,13.77,2.67,31.31,18.81,33.42,21.66,2.83,42.83-21.99,50.8-39.97.17-1.87.81-2.91,1.91-3.1.36-.82.34-1.52-.05-2.1l.6-.43c-.49-.27-1.02-.62-.7-1.13-1.03.18-1.17-.17-.34-.79,1.26-.69,4.14.04,5.68.71,4.18,1.81,13.67,4.75,11.91,10.09l.82.78c-.46,16.45.07,33.19,1.97,49.74.43,3.78.63,5.17,2.8,1.44,2.7-2.58,5.1-1.4,3.64,2.42-1.88,2.2-3.2,4.51-3.99,6.91,3.94,17.41,8.25,34.74,12.95,51.97l2.73,7.06,20.99-.34c-.97-2.05-.15-3.09,1.55-4.13.79-.29,4.88-1.88,4.87-2.26-.48-13.19-2.28-26.94-5.77-39.55-1.19-11.38-2.18-22.8-2.96-34.26-1.72-8.8-6.49-20.79-14.44-25.68-7.02-4.32-14.26-8.15-21.8-11.5,0,0-.6-.65-1.81-1.95-.42-.81.07-.75.94-.59,8.28,2.26,15.88,6.06,23.37,10.5,4.19,2.48,7.03,5.37,9.61,9.5,4.44,7.11,7.31,14.46,7.96,23.03l2.07,27.38c.3,3.92,1.68,7.53,2.66,11.24.59,2.26.21,4.44.58,6.52.6,3.34,1.68,6.41,2.07,9.87l1.47,13.16c2.41-1.73,4.31-3.61,6.41-5.58,6.44-6.03,13.19-11,20.63-15.82,11.86-7.69,23.4-15.25,35.82-21.77-1.4-2.81,5.95-6.45,7.67-7.2,2.36-1.04,5.19-.3,7.52-1.48,9.71-4.88,19.23-9.52,29.15-13.84,1.72-.75,2.46-3.05,4.6-3.42,6.1-1.06,7.81-2.71,11.02,2.47,3.28-.83,6.48-1.88,9.6-3.23,4.86-2.1,9.84-2.99,15.11-4.62-4.21-4.56-8.58-8.99-14.14-12.06-6.55-3.61-17.91-1.77-26.48-13.47-4.97-6.79-7.78-14.95-5.47-23.29,1.05-3.79,3.34-7.6,2.42-11.69-.71-3.17-5.15-11.3-2.18-14.69,2.27-2.59,7.74-.03,13.27-6.33.36-.64.21-.79-.45-.43-1.96.42-3.01-1.71-4.54-2.3-1.73-.67-3.98.05-5.12-2.14-1.33-.3-3.05.73-4.11.27-.99-1.4-2.14-.88-3.35-1.46-1.97-.94-3.56-4.6-3.07-6.78,1.12-4.98,7.42-12.55,8.45-10.86.3.49-10.63,11.74-4.04,14.8.84.39,2.83.96,3.79.91,3.6-.2,9.85,3.6,11.56,4.47l4.29,2.19c1.8.92,10.15,14.18,4.96,14.63-1.54-3.99-2.95-8.12-5.65-11.49-1.8,1.41-3.87,2.03-5.57,3.2-2.52,1.75-5.28,2.06-8.08,3.01-2.88.97,2.55,10.26,2.97,12.9,1.51,9.54-8.73,14.68.43,30.5,10.57,18.26,17.12,8.46,29.52,16.42,4.04,2.6,7.3,5.59,10.7,8.88,11.13,10.76,22.11,25.75,27.37,40.66-1.02,1.04-2.91.03-3.39-1.36-5.91-11.84-13.05-22.87-22-32.55-9.3,1.97-17.8,5.04-26.72,8.41.39,12.24,2.43,23.83,5.42,35.68,3.01,13.22,8.05,25.58,15.32,37.31l191.75-.69c.44-1.19.84-2.11,1.52-3.14,13.14-19.61,15.11-26.63,20.58-50.32.54,12.86-3.54,25.2-9.03,36.39-3.04,6.2-7.23,11.17-10.98,16.99l21.96-.06,30.24-.28-.25-43.94c-5.1-1.79-9.27-4.87-14.05-7.04-6.49-2.94-11.55-7.01-17.04-11.17-4.15-3.14-9.74-3.58-14.41-6.32,2.44,4.83,1.6,18.2.67,22.08-1.83,7.64-4.15,14.8-6.93,22.15-3.23,8.55-7.78,16.27-13.76,23.27-1.2-.75-1.22-2.19-.49-3.21,4.88-6.78,8.78-13.86,11.65-21.75,2.76-7.55,5.35-14.88,7.24-22.71,1.18-4.91.95-9.74,1.25-14.79-4.13-2-7.21-4.57-10.86-6.91-5.09-3.26-9.15-7.34-12.17-12.57-.8.32-1.03.9-1.81.77-.95-4.24-1.23-8.25-1.52-12.56-1-14.91-.64-29.55.04-44.48-5.59-.95-10.86,3.49-11.8-.66-.09-.45.03-.89.51-1.05.1-.43-.19-.26-.5,0,.26.65,0,.85-.6.49l-4.19,1.73c-1.02.42-2.14.54-2.83-.21-.81-1.06-.42-1.41,1.16-1.04,9.2-3.47,16.52-14.09,19.22-23.6,1.22-4.29,1.85-8.44,2.77-12.85.11-.51,2.06-.14,2,.57-1.15,14.32-4.73,22.85-14.67,32.76-.7.69-.4,2-.86,2.65-.43.41-.34.87,0,.59,8.15-1.85,13.83-10.71,18.28-17.32.41-.61,2.07-.41,2.2.24-2.45,5.07-5.92,9.46-9.46,13.47.12.73-.86,1.22-1.52,1.02-.27.36-.27.52,0,.5.54-.51,1.38-1.12,2.05-.97,5.09-4.09,11.09-9.23,12.2-15.68l1.83-10.59c1.26-7.31,2.98-14.2,1.79-21.65-.99-6.21-2.03-12.15-1.89-18.51l.64-28.44c.21-9.44-.3-19.87-5.19-27.88-6.41-10.5-7.68-17.1-16.9-25.03-5.07-4.35-6.86-10.1-15.96-11.56-1.01-.16-1.04-1.73-1.14-2.36,1.6-.51,4.05-.57,5.58.4l.63-.43c3.56.79,3.02.61-1.64-.55l-.09.37c-31-.25-61.96-.24-92.86.04l-167.88.49-90.01-.17c-6.88-.01-13.2-.18-19.96-.59l-8.2-.5-266.14,1.01-171.75.32c-.66,0-.9-.36-1.07-.27-.19.1.08-1.03.28-1.05,7.09-.53,13.75-.59,21.25-.64l178.77-1.19,188.3-.65,56.83.07,60.24.47,100.86.34,55.52-.24,59.98-.21,83.93-.26,75.41-.2,27.06-.17c.74,0,2.15,1.04,2.3,1.27.3.47-1.71.69-1.69,2.25l.49,27.59,1.97,275.77c0,1.26.02,1.61-1.33,2.18.12.43.51.75.41,1.08-.56.86-1.43.8-2.29,1.74l-278.2.76-112.74.17h-.84s-.65,0-.65,0h-.66s-.67,0-.67,0h-.63s-.59,0-.59,0l-.57-.02-24.87-.03c-.26,0-.32,1.95-2.1,2.11-.2-.09-.65-1.11-.69-1.23-.35-1.2-1.42-.91-2.41-.89l-15.53.43-27.1.46-290.08-.05c-1.35,0-1.56,1.68-2.55,2.2-.71-.34-.65-1.32-1.29-2.24l-111.17-.12-37.02-.43c-.1-1.72,5.27-.51,7.01-1.3-7.71-16.21.29-21.53-.83-29.62l-1.9-13.77c-1.34-9.67-1.47-33.44,1.19-43.12Z"/>
  <path class="st108" d="M347.35,209.2c-.73,1.3-1.69,2.14-2.88,2.51.12.46-.18.6-.65.46-.46.7-.46.86,0,.5.16-.43.6-.71,1.03-.59.01-.7,1.27-1.41,1.99-1.41.13-.02.27.04.39,0l1.16-.97c4.59-2.43,9.03-5.2,14.33-6.49.38,1.22.44,2.45,1.34,2.84,1.27-.81.49-2.23.85-3.3.3-.87,2.64-1.68,3.38-1.12.77.57,1.05,3.2.19,3.72l-11.24,6.78-6.63,5.9c-3.87,3.45-7.57,7.28-12.55,8.94l-5.21,1.74c-1.43.48-2.27,1.77-1.93,3.23,1.61.02,2.56-1,4.38-.69-1.73,3.01-1.94,7.32-3.97,9.99l-8.45,4.87-23.32,15.17c-5.85,3.81-11.03,8.09-17.26,11.27-5.47,2.79-11.26,4.33-17,6.48-5.3,1.98-10.56,3.36-15.95,4.03-.27.65.39.84,2,.6,5.11-.21,10.11-1.2,15.21-2.8,5.58-1.75,11.06-3.22,16.41-5.57,6.8-2.99,12.39-7.38,18.5-11.53,9.61-6.53,18.66-12.71,28.97-18.98l-1.77,19.79c-.85,9.53-6.18,18.25-6.57,28.08-.57,14.22-4.28,12.5-4.76,24.17l-157.3.19c1.41-3.59,3.33-6.75,3.04-10.4-.42-5.36-1.31-10.58-1.17-16.09,1.43-12.57,5.93-23.82,10.29-35.65,6.01,4.54,12.11,7.62,18.48,10.86l12.3,6.25c2.81,1.31,4.02,3.49,4.62,6.43.83,4.07,5.2,6.4,9.22,6.18,2.75-.15,4.19.13,6.55,1.65,2.62,1.69,7.32,4.23,10.67,2.8,4.73-2.02,8.34-6.83,10.22-11.51,3.63-9.03,6.15-17.95,9.08-26.88l.52-.53c.36-.6.79-1.16,1.5-1,.8-.7,1.95-1.08,3.04-.95l18.7-4.82c6.54-1.69,12.6-3.74,19.21-5.23,11.65-2.63,23.62-5.85,31.69-14.79l12.55-13.9c3.84-4.25,9.64-6.16,14.15-9.84,1.29-1.05,3.7-.96,5.27-1.54,4.7-1.75,9.33-3.03,14.41-3.85.69-.11.69,1.7.43,2.14-1.1,1.86-2.89,1.29-4.37,4.18-.83-.53-1.64-1.59-2.66-1.28-7.46,2.29-14.55,5.38-20.43,9.96Z"/>
  <path class="st108" d="M477.85,195.74c8.95,4.2,17.93,8.26,26.25,14.02,2.99,2.08,4.68,5.35,6.56,8.41,3.78,6.15,6.1,12.68,6.62,20l1.88,26.4c.32,4.49,1.97,8.4,2.85,12.77,2.09,10.46,2.92,20.86,3.55,31.57-2.01,3-7.71,2-6.65,5.59,6.96.08,12.61-6.38,18.01-11.22,4.94-4.42,9.65-8.61,15.26-12.22l27.34-17.59c5.4-3.47,10.67-6.4,16.58-9.2,1.71,2.62,2.65,5.18,3.32,8.15l9.75,43.11-43.67.24-36.19.13-32.82.52c-1.68-4.64-3.73-9.17-4.91-14.13l-5-21.01c-1.3-5.46-3.22-10.47-3.93-16.1-.39-3.11-2.49-6.38-2.03-9.51.45-3.05,4.3-5.25,4.61-8.57-2.12-1.95-4.19,3.62-5.68,4.82-.61-2.69-1.38-5.1-1.69-7.86-1.61-14.5-2.14-28.74-1.73-43.33.06-2.07-.4-3.92.17-5.64h.46c.54-.26,1.26-.02,1.08.65Z"/>
  <path class="st108" d="M459.21,188.74c-.53.95-.43,2.27-.99,3.49-7.23,15.46-19.53,30.96-35.48,37.89-12.64,5.49-27.22,3.73-32.69-10.3-2.8-7.17-3.54-14.7-3.3-22.48,4.63-1.24,7.53-4.21,11.13-7.53l1.05,9.9c-.11,1.15.89,2.6,1.96,2.13.96-4.59-2.25-27.66-3.09-30.56-.27-.85-.45-1.43.51-1.05,2.07,1.17,4.13,2.45,5.97,3.96.63.52,1.24.39,1.94.01,1.26-.34,2.46.52,3.59,2.59,2.1,1.65,4.56,2.8,7.39,3.45,6.14,4.37,14.22-4.84,17.88-9.39,1.03-1,5.75-5.6,6.75-4.72,1.18,1.04,1.14,9.25,1.1,11.47-.23,12.98-4.57,21.89-12.22,32.19,3.87-5.58,7.77-11.24,10.72-17.35,1.94-4.02,2.58-8.81,2.92-13.22.27-1.55.63-2.57,1.97-1.67,2.93,2.76,6.13,5.15,9.6,7.16,2.94.8,4.03,2.14,3.29,4.02Z"/>
  <path d="M92.93,107.68c.94-.09.75.09,0,.63-1.59.43-4.18-3.57-6.21-2.64-1.78.82-1.57,3.28-2.04,4.84-1.28,4.25-.67,8.24,1.35,12.14l1.72,3.31c.63,1.22,1.71,1.27,2.55,1.1,1.95-.39,2.93-6.87,2.8-2.03-.15,5.56,2.54,16.39.36,16.24-1.15-2.98-1.37-6.02-1.59-8.94-.44-.68-.43-1.28-.42-2.04,0-.06.16,1.02-.5,1-.38,4.73-1.88,9.18-3.64,13.79-3.08,8.1-8.45,21.96-16.01,26.54-.69,5.33-3.4,9.17-2.03,14.43.8,3.07,9.59,5.73,12.31,8.49,2.94,2.99,2.22,7.77,2.34,11.59.11,3.68.94,6.86.61,10.63,2.49-5.12,5.03-16.24,9.49-19.91,2.78-2.29,15.02-4.93,19.41-7.58,5.34-3.23,9.83-7.51,13.83-12.25-1.28-3.69-1.25-7.29-.35-10.74-.69-1.09-.51-1.61.54-1.57,2.38-2.14,5.33-3.73,7.6-6.03.76-1.04,1.38-.6.52.46-.9,2.59-4.09,3.38-5.66,5.61-1.84,2.62-1.2,6.7-1.6,9.92l1.49-1.37c.38-.35,2.04-.09,2.11.44-1.69,4.9-5.44,8.41-9.02,11.88-4.9,4.74-10.06,7.96-16.61,10.06-13.03,4.18-10.42.2-16.24,14.41-6.19,15.11-2.14,10.15-4.39,18.78-.39,1.5.48,4.36-.99,5.39-1.76.77-3.66-2.11-3.07-3.98,1.52-4.87-.03-20.29-.84-26.06-.31-2.23.77-5.74-1.37-7.08l-10.62-6.68c-4.9-3.08-5.5-9.94-5.24-15.8l-9.27,3.27c-8.42,2.97-17.09,3.94-25.8,5.86-6.69,1.47-12.65,4.37-19.14,6.89l.1,34.52.25,75.72c.01,4.01.24,7.54.02,11.45-.06,1.15-1.28,1.99-2.04,2.65-.56-.83-1.03-1.53-1.04-2.69l-.11-80.22-.15-219.98c0-.88.53-1.46.86-1.45.36.01,1.02.29,1.03.95l.42,30.12.24,52.13.29,65.14.15,28.83c6.6-2.3,12.35-5.3,18.96-6.67,12.01-2.47,23.75-4.63,35.37-8.7.05-2.47,1.52-3.67,3.09-4.95,9.06-7.43,9.29-1.58,13.44-10.64,6.31-13.78,5.92-7.62,4.82-21.96l-.76-9.96c-1.91-5.29-3.28-9.82-1.06-15.44.68-1.73.59-5.19,3.42-5.62,2.51-.38,4.99,1.88,6.3,3.76Z"/>
  <path d="M722.63,52.44c-.84-.74-1.19-.86-1.04-.35.04.25-.02.52.03.77l.42,1.1c.63,2.68.34,5.49.51,8.43.59,10.22-7.78,13.05-6.17,26.27.39.55,2.07.76,2.06,1.82-.01,1.63,1.61,2.23,2.16,3.46l2.91,6.49c.81,1.8,2.65,2.97,3.6,4.78,2.58-.86,4.5-6.29,6.69-8.62.41-.44,1.49-.11,1.79-.57-.73,1.12,1.45-7.81,5.53-10.07,3.6-2,8.32-2.58,12.45-2.55,3.17.03,10.47,1.85,13.02,4.38.61-.12.8.57.51,1.09.43.17.63.03.5-.5-.54-.06-.79-.64-.45-1.07-.33-9.73-13.86-20.31-15.04-22.37-1.53-.25-2.03-.76-1.5-1.53-.55.35-1.14.15-1-.54-4.15-5-7.94-10.08-10.93-16.11-2.1-4.25-4.48-8.23-5.12-12.76-.36-1.41-.17-1.92.56-1.54.81,4.5,3.21,8.38,5.63,12.44,11.26,18.92,22.2,21.07,28.29,34.96,1.31,2.98,1.74,6.15,2.89,9.19,1.55,4.09,1.93,8.3,3.04,12.51.65,2.47,2.23,4.53,2.72,7.13l1.82,9.71c1.15,6.15.89,12.55-.1,18.78-.33,2.07-4.36,12.1-5.34,10.82-.19-.24-.56-.78-.39-1.24l3.2-9.11c1.17-3.32.53-6.82.6-10.36.2-10.11-.39-14.67-4.76-23.53.1,4.53-.67,8.25-1.27,12.36-1.84,12.61-6.45,19.11-14.86,28.17-3.99,4.29-17.09,16.11-22.22,8.61-1.91,7.61-9.94,16.55-15.14,22.52-.8-.66-1.5-2.16-.87-3.01l10.79-14.58c3.11-4.2,3.63-8.41,2.35-13.41-.67-2.63.46-5.96,1.2-8.41.21-.71,1.74-.28,2.16-.09,1.3.57-2.76,7.33,2.03,14.63,1,1.53,2.5,1.76,4.06,1.1,6.62-2.78,11.67-7.43,16.46-12.61,6.27-6.77,9.85-14.65,11.32-23.76,1.13-7.02,1.85-13.94-.95-20.74-.79-1.91-1.84-4.45-3.84-5.38-2.72-1.27-5.73-2.46-8.87-2.76-3.85-.37-8.43.15-11.86,2.03-2.32,1.28-4.04,4.68-4.71,7.02-.84,2.94-.22,5.72-.37,8.39-.14.44-.31.43-.5,0-.31-1.89-.37-3.83-1.16-6.07-2.95,5.14-3.94,8.25-9.59,10.75-1.29-2.39-3.21-3.72-4.14-5.74l-3.03-6.58c-.7-1.52-1.79-2.84-2.75-4.18-.91-1.25-2.52-1.43-2.44-3.67.52-16.07,5.61-15.53,6.91-21.58.96-4.46-.83-15.88-2.1-19.71-1.2-3.58-3.43-6.57-3.33-10.63.17-7.44-.32-14.72-1.7-22.02-.12-.66.21-1.05.99-.98,2.04,7.02,2.79,14.16,2.95,21.5.08,3.89,1.57,7.13,3.71,10.16,2.71,3.84,5.47,7.38,8.72,10.8l8.3,8.74c.47.5-1.16,2.6-1.71,2.18-5.31-4.13-9.67-9.21-13.6-14.36Z"/>
  <path class="st60" d="M630.87,124.14c-1.22,1.88-3.13.94-4.86.75-3.95-.43-8.08-1.58-10.45-5-2.51-3.62-2.45-8.36-1.99-12.51.37-3.4,2.19-5.11,4.52-7.17,5.99-5.32,11.71-10.8,17.14-16.73,2.71-2.95,4.64-6.32,7.09-9.42,5.36-6.78,2.52-13.8,3.35-21.62,3.01-5.56,5.7-10.88,9.58-15.88,7.59-9.76,16.17-18.3,25.4-26.42.46-.4,1.46.05,1.69.31.25.28-.04.82-.5,1.28-13.27,13.25-23.4,22.28-32.28,39.17-3.93,7.47,2.71,14.87-4.7,24.29-2.65,3.36-4.82,6.94-7.73,10.14-6.26,6.89-12.86,12.99-19.87,19.19-1.66,4.1-2.06,8.99.19,12.93,2.41,4.2,8.92,4.99,13.4,6.7Z"/>
  <path class="st6" d="M447.35,133.79c.32.64.68,1.24,1.09,1.79l-.23,1.06c.75-.31,1.43-.34,1.76.39,0,0-.22,3.82-.66,11.45-.56,0-.41.12.45.37.66-.84,1-.59.52.42-1.22,1.05-1.72,2.75-1.76,4.37-.1,4.06-3.48,6.49-4.65,10.1-.8,2.46.42,6.84,1.6,9.27,2.06,4.24,10.61,12.73,13.24,11.29.08.23.11.65.34.79-.12.37.12.75.7,1.13.24,1.07-.09,1.72-.54,2.53-.09-.31.21-1.48-.21-1.76-5.24-1.99-9.7-4.97-13.58-9.21-.24,6.4-1.34,12.27-4.41,17.74-3.67,6.55-7.75,12.59-12.28,18.64-1.04-.42-1.03-1.32-.52-2.18,3.76-6.37,8.53-12.1,11.2-19.12,3.18-8.38,2.69-17.27,2-26.28l-5.79,5.12c.88-.77-4.64,6.24-8.8,8.4-8.51,4.43-7.06,1.99-10.68.84-6.76-2.15-5.19-2.48-9.94-6.72-.32-1.97.13-4.19-.7-6.25s-1.61-4.72,1.07-5.87c-.63,2.44.06,3.44.98,4.91,1.29,2.06.42,5.2,1.48,7.59,1.23,2.77,4.77,4.14,7.57,3.46,1.75,1.04,3.2,2.33,5.06,2.92,2.74-1.91,9.13-6.26,10.71-8.9.74-2.47-2.67-10.09-1.69-11.11,2.7-2.82,3.26,6.25,4.55,8.67,4.81-4.37,8.83-9.39,11.05-15.23,1.1-2.89-.16-6.1-.09-9.09.1-4.61.32-8.9.09-13.38,0-.14.41-.19.48-.2,1.61.25,2.06,1.15.58,2.07Z"/>
  <path class="st6" d="M767,182.22c-.35-1.29-.15-1.79.59-1.5,2.36,9.16,4.29,17.86,5.81,27.08l7.63,46.33c2.53,15.38,5.28,30.16,9.24,45.15.39,1.48-.29,3.23-1.96,3.13-4.01-13.61-7.43-27.09-9.5-41.01l-6.14-41.29-5.67-37.9Z"/>
  <path class="st6" d="M147.03,88.01c.66-.11,1.25.62,1.35,1.26.36.05.57.23.54.6.41.26.58.26.5,0-.34-.09-.59-.23-.56-.61-.95-.51-1.55-1.32-1.4-2.38-.83-.68-.51-1.01.46-.42,6.94,6.6,1.74,5.1,4.84,8.01,2.31,2.16,3.05,5.08,3.51,8.08.3,1.96,2.14,11.26-1.4,10.22,2.16-6.78-6-20.4-10.76-24.1s-12.91-1.32-16.82-3.56c-6.02-3.45-10.06-.21-14.43.24-2.41.25-4.71,1.79-4.33,4.55.2,1.44-.78,2.31-1.05,3.51-.96,4.19.91,7.03-3.34,9.18l-4.31,12.19c-.36,1.01-1.02,1.62-1.99,2.1-.07.03-3.52-.16-3.96-.74-.3-.39-.46-1.27-.14-1.63l3.94.07,3.62-8.82c-2.9-.34,3.66-7.48,3.85-8.57l1.84-10.42c.78-4.4,7.85-5.21,12.03-5.71,3.31-.4,5.76.52,8.68.91l10.32,1.38c2.94.39,5.33,2.58,7.23,4.7.45.4,1.31-.13,1.77-.03Z"/>
  <path class="st6" d="M643.17,111.37c.14,4.53-.29,13.47,2.89,17.49,4.9,6.2,13.95,6.36,13.22,15.97-.36,4.71-1.94,9.42-4.68,13.32-2.67-.94,1.22-6.11,1.97-12.89,1.06-9.53-12.9-7.49-14.79-20.02-4.28,2.93-8.22-2.93-9.28-6.86-.42-1.54-1.76-3.74-3.27-3.34l-5.65,1.48c-.24-1.88,1.5-2.04,2.61-2.75,1.74-1.11,3.68-1.43,5.75-.61,3.66,1.44,3.03,9.12,7.67,10.07,1.41.29,2.06-2.36,1.98-3.35-.34-4.04.09-7.51,1.06-11.06,1.07-.69.92,1.65.51,2.54Z"/>
  <path class="st123" d="M154.89,112.76c.14,1.74,1.75,3.56,1.75,5.43,0,2.74-4.67,7.49-4.14,9.54,2.23,8.56-4,11.93-8.84,18.25-.7.91-4.04,10.18-5.54,7.33l1.26-2.54c-.59-.68-.31-.88.54-.51l.5-.5c-.97.06-.57-.5,0-1.1,1.13-2.78,1.13-5.95.55-8.88-.75-.18-1.49-.33-2.22-.46-.01-.15,0-.31,0-.46.28-.41-.27-.5-1.64-.25l-1.19-.41c-.07-1.01-.29-1.68-1.31-2.63,3.96.18,6.47-3.02,6.39-6.74-.05-2.26.69-4.31.93-6.52.34-3.18-3.22-5.83-.55-9.74.89-1.3,2.04-2.47,4.16-2.52-.57-1.15-.81-1.91-.45-2.72.22-.5.94-1.31,1.64-.87.31.2-.31,1.64.26,1.66,3.6.14,5.62,2.39,7.89,4.64Z"/>
  <path class="st6" d="M652.55,65.4c-.29-.7,0-.95.64-.5.87,2.64,2.42,4.72,4.58,6.31,7.37,5.41,10.29,3.8,14.77,12.37,1.65,3.15,3.4,6.4,6.17,8.62,2.05,1.64,4.85,1.19,7.27,1.77-.05,3.34-7.54,1.79-9.49.01-6.24-5.7-6.14-13.78-13.42-16.52-.62-.23-1.49-.3-1.87.25-.55.8,1.89,1.9,1.88,2.9,0,.51-.81,1.16-.95,1.77l3.62,1.49c.78.32-1.13,1.8-2.1,1.61-2.26-.45-4.26-.99-6.29-1.57l-1.1,9.58c-.05.46-.64.83-.91.89-1.55.32-.28-8.05-.19-9.92.08-1.73,1.63-2.4,2.32-3.21.26-2.13-.39-4.83,2.01-6.22-3.46-2.4-6.55-5.44-6.94-9.64Z"/>
  <path class="st113" d="M436.21,153.38c-.81.89-.82,1.29-1.98,1.89-.95-.44-2.18-.57-3.68-.41-3.38-1-6.47-.84-9.29.49-2.3-.33-4.58-.38-6.85-.15-3.4,1.76-6.66,2.28-9.8,1.55-.78.52-1.71-.27-1.86-1.16-4.78.32-6.1-4.39-.15-3.74,2.51-.29,4.89-.97,7.15-2.04-.38-1.47.9-1.77,3.83-.89,1.28.6,2.56,1.01,3.85,1.23,2.69-1.49,5.49-2.56,8.4-3.23,1.67.86,3.6,1.31,5.78,1.34,6.01-.32,7.4,1.16,4.15,4.43-.32-.22-.17,0,.45.69Z"/>
  <path class="st123" d="M760.73,102.54c-.21-3.04-3.36-7.05-5.82-8.23-3.12-1.49-7.64-.42-10.36,1.01-2.31,1.21-1.2,4.58-2.68,6.69-1.22-2.47-.6-6,1.11-8.3,1.58-2.14,10.81-4.32,14.48-1.59,2.81,2.08,5.95,6.12,6.25,9.86.73,9.34-3.43,18.05-9.42,24.88-1-.82-.97-1.94-.35-2.89,4.07-6.19,7.36-13.27,6.8-21.42Z"/>
  <path class="st15" d="M796.57,120.81c-.15.27-.32.27-.5,0-.77-13.13-1.9-22.94-11.34-32.59-2.2-2.25-4.06-4.48-6.57-6.46-8.5-6.72-9.58-14.71-10.77-24.85.74-.54,1.64.09,1.79.92,1.59,8.89,2.45,15.44,9.58,21.34,8.01,6.63,15.18,15,16.91,25.54.52,3.14,1.95,14.08.9,16.11Z"/>
  <path class="st123" d="M93.67,216.85c-1.72-.98-1.24-2.73-.46-4.04,2.85-4.8,5.59-9.78,9.99-13.39,5.54-4.53,17.9-5.57,27.21-15.76,1.1-1.21,1.15-3.09,3.1-3.67-.07,2.72-1.8,4.57-3.47,6.35-11.68,12.46-22.05,8.91-29.8,20.59l-6.57,9.91Z"/>
  <path class="st12" d="M446.81,116.32c-.74-.56-1.08-1.56-1.05-3-.37-.07-.37-.4,0-1-.76-.12-1.08-1.22-1-2v-.5c-.79-.68-1.46-1.67-2-3-.33-.14-.32-.31,0-.5l-1-1v-.5c-.57-.38-.73-.38-.5,0l.5.5c.38.31.55.64.5,1,.33.15.32.31,0,.5,1.09.63,2.04,2.33,2,3.49v.5c.76.29,1.14,1.22,1,2,.32.15.32.31,0,.5.92,1.39,1.22,3.06.89,4.99-.11,3.52.4,7.08-.45,10.99l-1.73-14.32c-.7-5.76-6.83-15.3-12.24-18.7-.04-1.31,2.63-.99,2.98.45.8.46,1.58,1.25,2.06,2.1.48.34.26-.13,0-.5-.59-.11-1.42-.96-1.59-1.61-1.22-.61-1.89-1.26-1.99-1.96-1.11.01-2.18-.61-3.2-1.86-1.54-.63-2.45-1.48-2.76-2.57.39-.06.76-.21,1.04-.49l.5.07c4.75,2.34,8.14,6.25,11.47,10.5l4.8,6.13c5.14,6.56,5.66,23.84,3.72,20.93-1.73-2.6-.25-5.59-1.96-11.17Z"/>
  <path class="st81" d="M138.94,81.04c.98.95-.03.7-1.06.4-5.8-2.82-12.64-3.74-19.27-2.28-1.47.32-2.79,1.4-4.35,1.65-4.64.75-8.46,3.03-12.31,5.52-2.01,1.3-4.3,1.92-6.06,3.55-3.58,3.31-4.91,7.7-7.6,12.11.1-5.68,3.22-10.85,7.28-14.44,1.87-1.65,4.42-2.12,6.35-3.62,4-3.11,8.45-4.41,13.29-5.76,9.34-2.6,15.76-1.32,23.74,2.89Z"/>
  <path class="st81" d="M791.12,166.84c-.03,1.15-1.06,1.3-3.09.47-1.04-.49-1.97-.76-2.27-2.33-.57-2.95-4.25-.77-5.36-1.6-1.63-1.22-1.21-3.45-.27-5.07-2.82.53-5.62,1.87-8.29.62-1.85-.87,1.02-9.66,2.16-10.5.8,3.2-1.19,5.41-1.08,8.58,2.24.96,8.65-3.51,10.55-.69.54,1.33-1.24,3.01-1.25,4.32,9.69-.04,2.75,4.26,9.82,4.73-.3.73-.58,1.07-.92,1.48Z"/>
  <path class="st75" d="M434.23,155.27c-2.34,1.22-5.5,0-7.7.85-5.13,1.99-9.77,3.33-15.43,1.66-1.55-.46-3.75.72-5.28-.01-.85-.2-1.26-.54-1.21-1.02,9.23-.57,5.74-3.78,16.49-2.35,4.78-2.76,6.84.06,13.67-.42.38.7-.36.86-.54,1.29Z"/>
  <path class="st81" d="M738.45,133.2c-.76-.08-.78-1.68-.52-2.39.95-2.6,5.35-2.15,8.59-4.66,2.63-2.04,4.28-5.8,3.85-9.12-.55-4.31-8.03-5.94-9.94-8.6,3.44.34,6.68,2.01,9.55,3.98,5.71,3.92,2.32,12.82-2.45,16.21-3.44,2.44-6.59,1.6-9.08,4.58Z"/>
  <path class="st12" d="M749.05,63.46c.39-.06.91-.08,1.54-.06.53.46,1.14.91,1.5,1.53-1.97-1.27-1.1,2.23-4.51,1.03-7.08-2.49-12.51-7.66-16.66-13.8-.82-1.22-6.65-8.86-4.9-10.17.14-.11.59-.11.75.03.14.12.07.56.18.89.95,2.94,3,4.94,4.92,7.24,4.73,5.69,10.41,10.75,17.19,13.31Z"/>
  <path class="st26" d="M217.18,262.3c-1.28-1.48-.42-2.92.34-4.09,1.48-2.3,7.25-14.57,7.81-17.13.67-3-.47-5.93.56-9.19,1.43,1.71.91,3.75,1.56,5.6.87,2.46.63,4.96-.39,7.36-1.94,4.58-5.8,15.06-9.88,17.47Z"/>
  <path class="st81" d="M229.24,263.93c-2.86,2.25-11.6,6.61-12.59,2.82,1.47-.82,3.59-.97,5.18-1.64,6.4-2.73,11.01-7.58,14.51-13.45,2.02-3.39,4.49-6.2,6.09-10,1.04,1.29.26,2.55-.33,3.62l-5.33,9.67c-1.96,3.55-4.37,6.49-7.53,8.98Z"/>
  <path class="st91" d="M436.21,153.38c-.46.22-.76.31-1,.1-.51-.46-.57-1-.24-1.54.51-.83,1.51-1.11,1.85-2.48-3.57.12-7.73-.54-11.07-1.55-5.61.55-7.1,4.88-10.65,2.64-1.35-.85-4.13-1.92-5.34-.74-.71.7-.99.39-.44-.48-.87-1.87-1.75-4.35.63-5.73.09,1.52-1.07,3.82.5,4.05l3.91.57c1.76.26,3.68,1.4,5.16-.14,1.12-1.16,2.58-.81,3.95-1.19,1.61-.45.62-2.7.85-4.2,1.44.85,1.41,2.41,2.07,4.19,3.75.36,7.82,1,11.57-.01,1.3-.35,2.24-2.52,3.91-1.7.5,1.59-2.49,2.32-2.7,3.38-.29,2.36-1.53,3.26-2.95,4.82Z"/>
  <path class="st26" d="M430.91,95.41c1.02.08,1,.51-.02.77l-.25.67-3.21,2.55c-1.65,1.31-9.89-.45-12.15-.71-5.28-.62-7.27,5.19-16.03,3.21-1.14-.26-2.46.24-3.12-.91-.95.85-1.32.73-1.39-.58-1.8,1.09-1.34-.1-.76-1.52,1.12-1.19,2.84-.66,4.35-.46.07.62-1.99.84-2.54.42-.29.2-.35.34,0,.5,1.7-.76,3.59-.78,5.17.44,3.01-.31,5.98-1.28,8.92-2.9,5.04-1.05,10.19-1.08,15.46-.1,1.42-.66,2.74-1.58,3.96-2.74,1.29-.34,2.16.06,1.62,1.36Z"/>
  <path class="st107" d="M121.02,131.76c-5.51,3.36-7.57,3.93-9.28,10.33-.12.45-.49.86-.51,1.13-.03.35-1.49.55-1.5.19-.04-5.11,3.08-9.42,7.47-11.82,1.59-.87,2.99-1.3,4.67-1.87,2.19-.76,3.78-4.19,5.86-3.53,1.66.53-4.31,3.52-4.49,5.62-.23.92,1.47,1.31,2.08,1.54.9.34,1.97-.67,2.86-1.16,2.35-1.3,5.36.82,5.48,3.09-1.82,1.03-3.16-1.31-4.34-1.14-1.66.23-3.03,1.27-5.06.71-1.3-.36-2.55-1.27-3.25-3.11Z"/>
  <path class="st26" d="M118.4,164.85c-4.29,7.51-9.89,14.39-15.62,21.16-2.07,2.45-4.79,4.05-7.14,6.04-2.01-.98,3.81-5.07,6.6-8.58,4.74-5.94,8.75-12.2,13.64-17.73l1.05-.99c-.09-.77.99-.34,1.46.1Z"/>
  <path class="st107" d="M75.12,201.09c.47.96,4.08,13.9.62,13.33l-2.59-11.39c-.52-2.31-2.99-3.34-4.48-5.04-2.97-3.39-5.68-7.32-6.67-12.04,3.02,3.17,4.27,7.02,7.43,9.82,1.91,1.69,4.53,2.96,5.69,5.32Z"/>
  <path class="st78" d="M759.13,57.38c.61.75.28.97-.5.34-6.58-9.37-6.18-25.75-4.38-36.67.11-.67.6-.81.89-.77.39.05.82.39.73,1-1.06,7.21-1.23,14.33-.73,21.66.36,5.23,2.08,9.89,3.99,14.44Z"/>
  <path class="st107" d="M833.65,163.17c-2.13,3.03-4.46,5.44-7.03,7.6l-.41,1.19c-.6.31-1.32.41-2.16.29-8.17,5.69-9.17.83-12.57,1.34-1.45.22-3.3-.2-4.41-1.26,1.5-1.17,3.12-.37,4.58-.34l5.36.13c6.54.15,11.32-5.45,16.12-9.46,1.12-1.02,1.27-.82.5.5Z"/>
  <path class="st107" d="M658.22,153.15c4.35,5.51-4.47,25.35-6.92,26.49-2.84,1.33,2.73-9.99,3.08-10.74,2.33-4.96,2.64-9.93,3.84-15.75Z"/>
  <path class="st107" d="M662.84,206.58c-3.03,1.77-6.64,3.73-10.17,1.34,4.98.52,7.58-2.55,11.02-4.52,3.05-1.75,7.37-1.25,10.57-3.71.67-.52,2.28,1.85,1.66,2.32-6.49,4.96-9.01,2.2-13.08,4.57Z"/>
  <path class="st128" d="M139.93,148.66c.42,1.01-.26,1.52-2.05,1.54-.54-.08-.64-.79-.76-1.4-2.18-.3-5.72-4.43-8.15-4.76-3.34-.46-6.57.34-9.56-1.36-.52-.3-.99-.77-1.51-.62s-.63.93-1.89.99c-.03-1.86,1.96-3.45,3.79-4,.42-.13.76.68.59.92s-.35.62-.76.94c4.15,2.35,10.07-.28,13.89,2.85l3.26,2.66c.35-.2.97-1.12,1.45-.83,1.13.68,1.45,2.02,1.71,3.07Z"/>
  <path class="st31" d="M127.45,164.72c.24.6-.42,1.11-.54,1.57,0-.3-.02-.73-.31-.85.93.41-7.36-.57-7.62-.71-1.12.03-1.84-.29-2.14-.96-2.84-.86-5.29-2.65-7.69-4.67-9.79-8.25-6.37-9.28-5.2-7.84,4.82,5.91,11.59,11.74,19.53,12.45,1.48.13,2.84.33,3.96,1.02Z"/>
  <path class="st91" d="M136.93,104.53c-1.49.87-6.96-3.42-12.85-2.8-2.88.3-7.19,5.73-8.32,2.59,2.11-1.64,4.83-4.38,7.76-4.56,5.08-.31,9.75,1.63,14.89,2.93.48.74-.8,1.44-1.48,1.83Z"/>
  <path class="st128" d="M788.03,167.3c.99.39,2.26-.35,3.09-.47,1.12.44,2.42.27,3.96.45l-.59,3.54c1.91-.47,3.46.3,5.12.34,2.01.04,5.84-2.47,6.87-1.15.91,1.16-5.26,4.28-7.67,3.78-1.82-.38-3.56-.74-5.36-.96-1.58-.19-.82-2.94-1.31-3.61l-4.1-1.92Z"/>
  <path class="st83" d="M88.38,166.81c-.66,6.99,1.66,22.28-.56,23.93-.32.24-1.07-.1-1.69.06-1.53.4-2.78,2.23-4.46,1.02,1.53-1.83,3.63-1.85,5.23-3.19l.22-18.33c.02-1.33.16-2.56.76-3.49.14-.43.31-.43.5,0Z"/>
  <path class="st122" d="M827.56,8.99c.97.15,1.31.48,1.01.98-1.87-.52-3.7-.39-5.58-.4l-88.37-.17c-.07-.19.16-.44.62-.44l92.33.04Z"/>
  <path class="st104" d="M409.76,149.8c-2.68,2.6-6.34,3.47-10.37,2.9.41,2,2.18,1.95,3.79,2.04.7.67.83,1.56,1.43,2,.41.3.74.79,1.21,1.02-10.37-2.11-6.7-1.97-8.74-4.39-.92-1.09-3.75-1.11-3.51-3.28.05-.46,1.53-.26,1.9.04,1.53,1.22,2.68.97,4.34.89,3.4-.16,6.58-.34,9.51-1.69.09.2.29.33.44.48Z"/>
  <path class="st46" d="M450.29,149.27c-.01-.28-.29-.36-.52-.42-.28-.14-.51-.28-.52-.44-.29-2.82.26-5.7.8-8.49-.53-2.48-.29-4.55.72-6.18-.55-.87-.79-1.66-.71-2.35-1.93,1.67-2.82,1.76-2.67.27.26-1.58,1.77-3.83,3.72-3.21,1.65.52,1.58,2.89,1.47,4.33l-.94,11.99c-.15,1.91-.08,3.4-1.35,4.49Z"/>
  <path class="st100" d="M122.85,113.8c.91-.51,3.07-2.4,3.09-2.7.22-4.04-7.02,4.23-7.61,2.04,2.07-3.25,8.08-6.3,11.08-3.09.99,1.06,1.42,3.02,1.2,4.84-1.31-.75-1.24-2.1-1.87-3.61-.74,1.01-1.36,1.98-1.64,3.48-1.34-.17-2.55-.23-4.24-.96Z"/>
  <path class="st78" d="M237.47,266.81c.44,3.77-16.79,15.05-18.08,11.79,1.27-1.11,3.12-1.96,4.86-2.73,5-2.2,8.71-5.52,13.22-9.06Z"/>
  <path class="st71" d="M403.81,135.44c-.55-.45.04-1.4-.11-2.09-2.65-.39-6.75,4.87-10.08,3.32,1.98-.91,3.65-1.84,5.35-3.12,3.59-2.95,8.75-2.55,11.4,1.26-.75.84-1.97-.27-2.72-.06-1.06.63-2.25,2.01-3.84.7Z"/>
  <path class="st100" d="M410.51,126.48c-4.39,2.78-12.32.29-16.5,6.17-.47.66-1.96,1.02-2.14.21,1.61-2.06,3.38-4.32,5.74-5.19,4.03-1.49,8.5-2.08,12.9-1.19Z"/>
  <path class="st46" d="M396.12,100.99c-3.38,3.62-6.21,15.21-7.82,20.29l-.54-.38c-.28-.27-.51-.55-.58-.87-.78-3.43,3.93-16.41,6.62-19.81.21-.26.59-.12.93.19.39.15,1.15.16,1.39.58Z"/>
  <path class="st28" d="M90.33,119.49c-.4.77-1.22.47-1.73.34-.97-.25-1.35-1.05-1.59-1.98-.55-2.12,1.98-3.59,1.57-5.09l-1.61-5.88c2.08.16,3.08,2.02,3.59,3.55,1.71,5.18-5.29,5.68-.23,9.06Z"/>
  <path class="st33" d="M738.52,125.59c2.08-.78,2.96-2.35,3.19-4.06.66-4.88-5.18-4.82-5.07-7.96,2.67,0,5.36,2.06,6.27,4.31,1.66,4.09-1.79,9.87-4.39,7.71Z"/>
  <path class="st37" d="M439.74,128.26c-3.95-.02-3.19-3.01-10.97-2.5-2.93.19-5.57.96-8.56.37,1.82-1.01,3.97-.55,5.92-1.34,3.6-1.45,11.93-.66,13.61,3.47Z"/>
  <path class="st33" d="M434.76,130.76c.61.37.11,1-.54.61-.65.02-1.1-.31-1.92-.59.14.92.2,1.43-.17,1.66-.77.47-1.58.69-2.08.57-.97-.23-.56-1.53-1.02-2.2-1.33-1.97-5.3,3.95-6.97,2.08,1.54-.81,2.37-1.87,3.65-2.74,2.68-1.83,6.77-1.64,9.06.61Z"/>
  <path class="st93" d="M129.32,161.44c-1.39-1.63.1-3.21-.05-4.79-1.6-1.75-4.1-1.1-6.47-1.31,1.76-2.64,6.62-2.06,8.12.28,1.05,1.64-.43,4.68-1.6,5.81Z"/>
  <path class="st93" d="M421.81,164.39c-.38,1.12-.91,1.32-1.21.15l-2.82-.19c-1.6-.18-3.15-.55-4.49-1.53-.59-.52-.05-1.15.58-.58,7.4,2.31,12.4-2.37,13.09-.37.59,1.74-4.8,2.52-5.14,2.51Z"/>
  <path class="st33" d="M676.97,97c2.51-2.74,11.31,5.68,9.57,7.45-.62.63-1,.06-1.47-.55-2.24-2.87-4.63-5.35-8.1-6.9Z"/>
  <path class="st102" d="M413.88,142.5c-2.58-1.58.26-9.6-2.65-13.64,3.86-1.19,3.39,11.26,2.65,13.64Z"/>
  <path class="st2" d="M92.92,108.31v-.63c3.43-6.78,1.09-1.55,6.87-6.95.49,3.19-4.94,7.05-6.87,7.58Z"/>
  <path class="st46" d="M421.81,164.39c.87,2.14,1.77,4.79,1.3,7.07-2.89.76-2.13-4.51-2.36-6.69-1.22.33-2.13-.32-2.97-.42,1.34-.44,2.69-.01,4.03.03Z"/>
  <path class="st53" d="M131.1,117.41c2.17.13-5.87,5.22-8.14,2.43,3.5-.44,6.99-2.49,8.14-2.43Z"/>
  <path class="st25" d="M827.59,174.21c-.5.19-.75.75-1.16,1.04s-.81.47-1.4,1.04c-1.74-2.08,1.61-4.69-.98-4.03.71-.5,1.32-1.19,2.56-1.49,1.84,1.05-1.54,3.78.97,3.44Z"/>
  <path class="st118" d="M392.31,140.11c-.51.4-.84.85-1.21.82-.45-.03-1.41-2.7-1.38-2.43-.1-.9,2.21-1.4,3.11-.5.66.66.44,1.36-.51,2.11Z"/>
  <path class="st73" d="M442.5,131.86c-.63.56-1.09,1.3-1.81,1.75-.62.39-1.48-.24-1.68-.65-.23-.47-.85-1.68-.11-1.97,1.25-.48,2.45.15,3.61.87Z"/>
  <path class="st40" d="M419.4,170.53c0,1.58-3.01-1.36-1.5-5.07,1.44,1.24,1.51,3.42,1.5,5.07Z"/>
  <path class="st76" d="M116.76,113.9c-1.41,1.68-3.73,1.1-5.2.13,1.54-.98,3.2-1.44,5.2-.13Z"/>
  <path class="st14" d="M138.76,138.87c-.78-.01-2.73.33-2.83-.66,1.03.13,2.35.42,3.08-.7.38-.58.88-1.27,1.23-2.68,1.18.44.93,1.72.61,2.61-.23.65-1.28,1.46-2.09,1.44Z"/>
  <path class="st84" d="M131.45,149c-1.84.4-3.46-.69-5.28-1.84,1.9-.78,3.78-.05,5.28,1.84Z"/>
  <path class="st97" d="M144.42,83.81c.17.51,0,.69-.52.55l-6.02-2.92c.32-.09,1.19.17,1.06-.4,1.77.93,3.82,1.48,5.48,2.77Z"/>
  <path class="st61" d="M838.02,158.28c-1.07,2.14-3.22,3.26-4.37,4.89.26-.42-.08-.75-.5-.5,1.85-1.54,2.88-3.87,4.9-4.91l-.03.52Z"/>
  <path class="st51" d="M446.81,116.32c-.77.32-.57,1.3-.66,2,.05-1.53-.89-3.42-.89-4.99.14-.44.31-.43.5,0,.9.77.74,1.99,1.05,3Z"/>
  <path class="st0" d="M435.18,96.74c-.13.23-.28.22-.47,0-.82-.69-2.24-1.33-2.98-.45-.13-.02-.25-.09-.38-.1l-.47-.02c.06-.25.07-.51.02-.77.15-1.26,1.41-1.31,2.28-.63.65.59,1.64,1.07,1.99,1.96Z"/>
  <path class="st39" d="M91.87,132.33l-.92-1.04c.07-.85-.46-1.91.58-2.82.89,1.4.24,2.65.33,3.85Z"/>
  <path class="st58" d="M136.93,156.83c0,1.04-1.09,1.54-1.36,2.31.4-.48-.14-.72-.52-.46.49-.69.72-1.76,1.32-2.42.53-.14.72.05.57.57Z"/>
  <path class="st67" d="M258.41,248.17c-.99.26-1.88,1.19-3.04.95-.44.23-.59.04-.5-.5.85-.31,1.68-.67,2.5-1.05.15.44.61.6,1.04.6Z"/>
  <path class="st68" d="M148.86,89.25l-.48.02c-.55-.31-1.1-.65-1.35-1.26.27-.17.39-.42.27-.58l-.38-.56c.15-.44.33-.43.54,0,.35.87,1.1,1.49,1.4,2.38Z"/>
  <path class="st72" d="M767.59,180.72c-.56.27-.57.95-.59,1.5-.47-1.09-.72-2.21-.06-3.23,1.11.46.52,1.22.65,1.73Z"/>
  <path class="st89" d="M734.11,32.45c-.59.26-.55.98-.56,1.54-.14-.95-1.17-2.08.01-3.29.9.51.46,1.23.55,1.75Z"/>
  <path class="st5" d="M643.65,107.83c-.11,1.19.43,2.64-.49,3.54-.03-.84.32-2.05-.51-2.54.1-.38.2-.72.5-1,.14-.44.31-.43.5,0Z"/>
  <path class="st42" d="M140.42,149.77l-.5.5c-.13.18-.45.31-.54.51-.13-.67-.98-.5-1.51-.58.64-.65,1.83-.4,2.05-1.54.16-.05.33-.05.49,0-.13.32.11.77,0,1.1Z"/>
  <path class="st45" d="M146.42,85.37c.2.42,0,.57-.5.5-.82-.18-1.34-1.18-2.02-1.51.2-.15.38-.34.52-.55l2,1.56Z"/>
  <path class="st101" d="M758.63,57.72l.5-.34c.17.16,1.12-.06,1.22.36.08.3-.39.51-.5.71-.18.34-.61.64-.86.21-.17-.29-.29-.59-.37-.94Z"/>
  <path class="st111" d="M136.93,156.83c-.16-.22-.35-.41-.57-.57.4-.44.36-1.2,1.06-1.76,1.49,1.06-.49,1.6-.49,2.33Z"/>
  <path class="st18" d="M118.98,164.72l-.58.14-1.46-.1c-.15.29-.32.28-.5,0,.1-.34.24-.67.41-.99.7.21,1.51.69,2.14.96Z"/>
  <path class="st41" d="M147.92,86.44c-.25-.01-.43.18-.46.42h-.54c-.22-.32-.54-.9-1-1,.15-.18.32-.35.5-.5.51.4,1.01.61,1.5,1.08Z"/>
  <path class="st50" d="M847.6,171.26c-.58.47-1.25,1-2.05.97-.33-.15-.32-.31,0-.5.42-.41,1.14-.58,1.52-1.02.15.21.33.39.53.55Z"/>
  <path class="st32" d="M255.36,249.12c-.4.47-.92.79-1.5,1,.02-.7.35-1.26,1-1.5.15.18.32.35.5.5Z"/>
  <path class="st56" d="M478.79,195.15c-.34.14-.66.34-.94.59-.38-.18-.73-.42-1.08-.65.61-.91,1.36-.12,2.02.06Z"/>
  <path class="st14" d="M140.97,139.78c-.67-.23-1.97.58-2.22-.46.58.04,2.04-.42,2.22.46Z"/>
  <path class="st90" d="M838.02,158.28l.03-.52c.52-.27.41-1.29,1-1,.56.95-.78,1.02-1.03,1.52Z"/>
  <path class="st38" d="M750.6,63.4c.09.47-.43.43-.75.5-.37.07-.52-.34-.79-.44.2-.19.38-.39.54-.6.22.27.73.31,1,.54Z"/>
  <path class="st34" d="M767.59,88.36c.23.44.04.59-.5.5-.21-.31-.25-.83-.51-1.09l.55-.48c.26.24.27.8.45,1.07Z"/>
  <path class="st57" d="M376.41,197.55c.16,0,.33.08.49.09-.52.23-.92,1.05-1.6,1.06-.44-.14-.43-.31,0-.5.32-.28.63-.63,1.11-.64Z"/>
  <path class="st27" d="M736.6,103.84h.5c.06.4.82.73.43,1.52-.92-.3-.83-.92-.93-1.52Z"/>
  <path class="st82" d="M834.55,173.23c-.01.27.05.51,0,.74-.06.27-.23.5-.51.31-.06-.26-.38-.44-.59-.56.2-.06.29-.53.6-.49.17-.32.33-.32.5,0Z"/>
  <path class="st54" d="M413.86,162.25c-.39-.12-.69.2-.58.58-.41-.03-.68-.45-.5-.82.12-.27.38-.35.73-.25.21.05.53.18.35.5Z"/>
  <path class="st94" d="M643.53,150.32l-.45-.43c.17-.15.17-.58.35-.63.3-.09.66.09.75.31.25.6-.46.54-.66.75Z"/>
  <path class="st43" d="M653.19,64.9c-.23-.07-.45.03-.64.5-.32.04-.39-.13-.42-.31-.05-.35.08-.64.27-.7.43-.13.8.11.78.51Z"/>
  <path class="st59" d="M722.63,52.44c-.36-.08-.71-.2-1.04-.35-.4-.24-.68-.51-.36-1.21.73.4,1,1.04,1.4,1.56Z"/>
  <path class="st31" d="M116.94,164.75c-.04.6-.75.66-1.05.99.04-.39.24-.75.55-.99h.5Z"/>
  <path class="st20" d="M796.57,120.81c-.22.42-.44.92-.76.96-.28.04-.35-.59-.24-.71.1-.11.37-.19.5-.25h.5Z"/>
  <path class="st112" d="M434.22,131.37c.45-.11.68-.46.54-.61.46-.21.61.41.51.78-.06.23-.43.32-.72.26-.18-.04-.52-.1-.33-.43Z"/>
  <path class="st23" d="M88.38,166.81h-.5c-.17-.75.22-1.14.77-1.08.82.08-.23.62-.27,1.08Z"/>
  <path class="st57" d="M376.35,197.17c.06-.33-.04-1.09.46-1.03-.11.29.09,1.07-.46,1.03Z"/>
  <path class="st59" d="M722.04,53.96c-.47-.04-.34-.76-.42-1.1.54-.05.34.76.42,1.1Z"/>
  <path class="st115" d="M643.65,107.83h-.5c.12-.11-.11-.51,0-.74.14-.31.4-.34.5,0,.07.26.03.53,0,.73Z"/>
  <path class="st113" d="M428.77,89.94l-.5-.07c-.2-.09-.72-.11-.55-.44l1.05.51Z"/>
  <path class="st111" d="M203.27,219.7c-.23-.29-.53-.48-.9-.51.03-.29.42-.64.7-.55.22.07.51.45.77.76.11.12-.4.41-.58.3Z"/>
  <path class="st96" d="M13.49,231.14h-.5c.06-.2-.09-.47,0-.73.11-.33.4-.34.5,0,.08.27,0,.52,0,.73Z"/>
  <path class="st65" d="M836.05,174.33c.03.34-.18.48-.31.36-.27-.24-.27-.51-.19-.71.13-.28.26-.47.5-.25-.1.15.06.42,0,.59Z"/>
  <path class="st119" d="M450.77,133.74c-.56.8-.86.54-.46-.39-.82-.02-1.49.66-2.02,2.04-.62.03-.93-.5-.94-1.58.06-.72-.33-1.43-.58-2.07.16-.02.5-.17.62-.06.17.32.46.47.79.13l2.07-2.1c1.52,1.28.4,2.82.52,4.04Z"/>
  <circle cx="10.24" cy="264.84" r=".25"/>
  <path class="st62" d="M839.05,156.76c.34-.1.43-.09.39-.05s-.21.08-.39.05Z"/>
  <path class="st113" d="M430.63,96.85l.25-.67.47.02c-.22.23-.47.46-.71.65Z"/>
  <path class="st108" d="M828.56,9.96c-.36-.3-.7-.63-1.01-.98l89.56-.11.21,125.42.67,132.92c-4.88-1.86-8.94-4.45-13.37-6.81-5.69-3.03-11.09-6.23-15.84-10.56-2.51-2.29-5.4-2.95-8.5-4-3.39-1.15-6.67-2.53-10.29-.56l-10.38-7.19c-5.49-3.8-8.97-9.39-10.53-15.95l-.75-47.49c8.12-7.26,15.48-15.91,15.48-27.47,6.32-18.15.06-25.59.5-43.85l.65-26.94c.24-10.22-.41-21.47-5.59-30.29-6.09-10.4-7.73-17.26-16.52-24.94-5.22-4.56-7.1-9.56-14.3-11.19Z"/>
  <path class="st108" d="M372.69,208.68c-.17-.92-.23-1.57.64-1l1.2,1.27c-.62-1.58-.86-2.99-.73-4.23l-.76-.24c-.28,1.03-.41.7-.79-.3.02-.77-.43-2.4.19-2.61l11-3.69c.61-.2,1.24-.08,1.48.45.56,1.22-2.35,11.58,3.11,23.41,4.54,9.84,14.01,15.02,24.79,13.55,21.81-2.98,38.24-22.53,47.04-41.48.56-1.21.61-2.1.84-3.27.27-1.39,1.35-2.57,1.14-4.11l10.08,4.5c1.75.78,2.77,2.44,2.54,4.59-1.39,12.7-1.64,25.16-.92,38.06.4,7.18,1.73,13.76,2.87,20.72,2.19,13.47,8.63,18.75,8.15,33.19-.27,8.11-3.37,19.25-.76,28.97l-19.78-.21-10.36.35-91.25.12c1.09-15.28-5.69-23.17-2.7-38.72.68-3.56,2.63-6.5,3.64-9.94,2.59-8.86,4.88-17.54,6.78-26.6,2.19-10.41,2.39-22.45,2.55-32.77Z"/>
  <path class="st108" d="M610.32,315.56c-2.35-16.6-5.48-32.7-9.64-48.54-.94-2.8-2.5-5.61-4.78-6.98,1.97-3.01,5.28-1.47,7.7-2.49l24.98-10.42c3.26-1.36,6.79-2.26,9.34-4.7,2.83-2.7,6.85-3.58,8.32-2.65,1.21.77,1.56,1.69,1.86,3.17.77,12.51,2.96,24.51,6.53,36.6,3.37,12.8,8.74,24.3,16.35,35.6l-60.66.41Z"/>
  <path class="st108" d="M350.37,316.69h-31.26c2.59-12.39,4.69-10.58,5.34-23.65.48-9.66,5.73-18.19,6.53-27.44l1.52-17.46c.51-5.81,2.77-13.5,6.85-18.03,3.65-4.05,9.6-5.52,13.25-10.17,1.68-2.14,4.32-4.18,6.41-6,3.16-2.75,7.24-3.99,10.61-6.41.94,1.67.92,3,.83,4.66l-.49,9.46c-.32,6.25-.29,12.27-1.94,18.32l-8.11,29.63c-.5,1.81-.62,3.5-1.38,5.22-2.35,5.35-3,11.11-1.91,16.85l1.31,6.88c-2.17,3.89-3.7,7.9-4.93,12.17-.59,2.05-1.14,3.76-2.65,5.98Z"/>
  <path class="st113" d="M427.23,90.35c2.38.84,4.57,2.4,5.96,4.44-.5.62-1.5.72-2.28.63-.4-.05-.71-.86-1.23-.48-1.68,1.22-2.79,3.07-4.88,2.85l-6.38-.66c-3.9-.41-7.18.02-10.73,1.75-10.13,4.94-6.64-1-11.9.49-.44-.14-.43-.31,0-.5.91.44,1.77-.36,2.54-.42,7.59-.59,11.44-6.76,19.89-4.63-3.69-5.87-17.28,3.83-22.97,2.95,6.35-5.12,6.4-3.64,12.85-6.09,6.29-2.39,12.99-2.48,19.13-.31Z"/>
  <path class="st103" d="M487.76,298.07c.24,1.43.96,2.44,1.33,3.67l4.33,14.56c-2.92.1-5.31.32-8.08.02.67-1.32.93-2.72.91-4.3-.05-4.97,0-9.68.49-14.36.3-.49.64-.35,1.02.41Z"/>
  <path class="st113" d="M352.42,316.53l6.18-14.58c1.15,4.76,2.36,9.47,2.48,14.62-2.65.23-4.74.34-8.66-.04Z"/>
  <path class="st64" d="M394.74,100.4c-1.54,1.14-2.01,3.17-2.75,5.08-1.99,5.13-3.73,10.15-4.22,15.42-.09.97-.34,1.91-.37,2.91.27,1.75.24,3.41-.1,4.99-.14.44-.31.43-.5,0l-.69-6.33c-.5-4.63,2.96-18.38,7.87-23.58.51.16.03.6.1.82.09.28.4.6.65.7Z"/>
  <path class="st11" d="M387.29,134.29c-.14.44-.31.43-.5,0v-3.49l.5-2c-.07-1.67.05-3.33.1-4.99.73,3.34.63,7.1-.1,10.48Z"/>
  <path class="st24" d="M385.29,131.8l-.5,1c.41.13.36.73,0,1-.75,1.6-.62-8.33-.24-7.53.52,2.05-.02,3.86.74,5.54Z"/>
  <path class="st35" d="M385.79,139.29c.34.54.12,1.34-.5,1.5-.41.04-.51-.45-.5-.97v-3.52s.5-.5.5-.5c.8.93.54,2.31.5,3.49Z"/>
  <path class="st36" d="M373.82,204.72c.21,1.42.05,2.41-.48,2.96-.4.18-.58.58-.64,1-.86-1.51-.19-3.07-.42-4.49.62-.09,1.18.02,1.55.54Z"/>
  <path class="st1" d="M249.37,283.06c.38.71,1.31.52,2,.6-1.23.05-2.73,1.2-4.29-.06.71-.94,1.61-.46,2.29-.54Z"/>
  <path class="st52" d="M346.83,210.68c-.17.83-1.42.96-1.99,1.41l-.38-.38c.79-1.06,1.89-1.73,2.88-2.51-.35.48-.69.89-.52,1.47Z"/>
  <path class="st13" d="M385.29,141.78c.2-1.11.53-1.27,1-.5-.1.92.25,1.83-.2,3.05-.5-.83-.52-1.72-.8-2.55Z"/>
  <path class="st70" d="M386.29,139.78v.5c-.01.33.04.67,0,1l-1,.5c-.1-.3.15-.73,0-1-.33-.6.49-1.07.5-1.5.15.18.32.35.5.5Z"/>
  <path class="st127" d="M385.29,135.79c-.15.18-.32.35-.5.5v-3.49c.14-.44.31-.43.5,0v3Z"/>
  <path class="st4" d="M387.29,138.79c0,.59-.55,1.13-1,1.5,0-.16.02-.34,0-.5-.08-.71-.05-1.48.5-2l.5,1Z"/>
  <path class="st92" d="M387.29,136.79c-.14.44-.31.43-.5,0v-2.5h.5c-.17.79,0,1.69,0,2.5Z"/>
  <path class="st117" d="M398.3,170.24c-.44.16-.52.64-.51,1.05-.16-.56-.99-1.03-.35-2.08.5.16.63.76.86,1.03Z"/>
  <path class="st110" d="M459.06,185.08c.46.29.59.64.7,1.13l-.61-.08c-.23-.03-.69-.36-.83-.64-.11-.22.47-.72.74-.42Z"/>
  <path class="st51" d="M386.79,130.8v-2h.5c.03.67.24,1.67-.5,2Z"/>
  <path class="st9" d="M487.76,298.07c-.36-.09-.7-.23-1.02-.41.06-.6-.05-.88,0-1.11.14-.44.31-.43.5,0,.31.68.45,1.09.52,1.53Z"/>
  <circle class="st85" cx="593.18" cy="262.1" r=".56"/>
  <path class="st38" d="M387.29,138.79c-.4-.16-.51-.6-.5-1v-1h.5v2Z"/>
  <path class="st66" d="M845.55,172.24c-.06.06-.08.31-.24.5-.13.15-.59.06-.73-.24-.08-.18,1.2-.98.97-.76v.5Z"/>
  <path class="st124" d="M487.24,296.54h-.5c0-.78-.21-1.3.35-1.53.38.67-.02,1.17.15,1.53Z"/>
  <path class="st22" d="M375.3,198.2v.5c-.27,0-.52.07-.74,0-.33-.11-.33-.31-.01-.5.19-.11.58.15.75,0Z"/>
  <path class="st47" d="M385.29,132.8h-.5c0-.4.05-.89.5-1,.12.26,0,.71,0,1Z"/>
  <path class="st8" d="M834.55,173.23c-.16,0-.34.02-.5,0-.05-.24.04-.37.25-.5.15-.09.42-.13.71.21.11.12-.18.36-.46.29Z"/>
  <circle class="st116" cx="644.9" cy="150.52" r=".25"/>
  <path class="st52" d="M347.23,210.68c0-.66.71-.73,1.16-.97-.16.52-.66.82-1.16.97Z"/>
  <path class="st7" d="M343.82,212.67c-.34.46-.5,1.34-1.55.9.42-.71,1-1.03,1.55-1.4.39.14.38.31,0,.5Z"/>
  <path class="st2" d="M344.85,212.09c-.29.23-.68.48-1.03.59v-.5c.2-.13.51-.28.65-.46l.38.38Z"/>
  <path class="st99" d="M66.99,179.72c-.05.56-.36.55-.57,0-.67-10.3-.19-9.64,8.76-15.48.5,2.93-2.58,3.46-3.86,4.75-2.62,2.93-3.08,7.27-4.33,10.73Z"/>
  <path class="st79" d="M88.48,134.29c-.15.44-.33.43-.53,0-.32-.14-.31-.31,0-.5l-.55-.51c-.58-1.25-.9-2.35-1.01-3.45-.26-.85-.33-1.46.56-.99.78.47,1.92.54,2.04,1.46.18,1.47-.47,2.74-.51,3.98Z"/>
  <path class="st114" d="M87.95,134.29c.2.4.36.9.5,1.5-.07.76-.37,1.11-.5,1.5-.14.44-.31.43-.5,0v-3.49c.15-.32.31-.31.5,0,.06.14,0,.35,0,.5Z"/>
  <path class="st98" d="M86.95,128.85c-.5,0-.5.61-.56.99-.46-.67-.59-1.22-.34-2.06.61.16.66.77.9,1.07Z"/>
  <path class="st55" d="M88.45,135.79c-.63-.21-.49-.96-.5-1.5h.53c-.03.74,0,1.13-.03,1.5Z"/>
  <path class="st86" d="M87.95,138.29c-.14.44-.31.43-.5,0v-1h.5c-.1.3.07.69,0,1Z"/>
  <path class="st62" d="M87.45,138.29h.5c.12,1.22-.65,1.14-.5,0Z"/>
  <path class="st125" d="M66.43,179.72h.57c.06,1.23-.64,1.13-.57,0Z"/>
  <path class="st55" d="M87.95,133.79h-.5c0-.29-.03-.45-.05-.51.31-.15.46.28.55.51Z"/>
  <path class="st109" d="M767.09,88.86c.18-.15.35-.32.5-.5.21.3.58.29.54.74-.04.4-.03.96-.54.55-.26-.22-.33-.54-.5-.79Z"/>
  <path class="st49" d="M450.77,133.74c.31,3.25-.45,6.5-.6,10.04-.08,1.83.38,3.59-.4,5.08-1.52,2.63-1.84-4.49-1.13-5.82,1.03-1.96,1.73-5.06-.42-6.39-.9-.91,1.1-3.38,2.1-3.29l.46.39Z"/>
  <path class="st77" d="M450.31,133.34c-.69,1.1-1.63,2.08-2.1,3.29-1.1-.68-.99-1.31-.86-2.84.32.15.26.64.47.93.43.6.88-1.94,1.71-2.15.62-.16.91.26.79.77Z"/>
  <path class="st126" d="M148.92,89.86h.5c.2-.07.37.04.5.25.12.18.05.55-.23.73-.18.11-.97-1.21-.77-.98Z"/>
  <path class="st106" d="M149.42,89.86h-.5c-.15-.18-.34-.48-.54-.6l.48-.02c.08.24.45.38.56.61Z"/>
  <path class="st108" d="M143.54,123.31c.14-3.31,2.35-2.77,3.95-.69l-.07.62.69.04c.1-.86.38-1.02.85-.49,1.04-4.06-1.69-6.63-5.63-3.84l-.91-1.68c-.44-2.3.8-3.8,2.22-5.3l1.74-1.84c1.53,1.05,3.94.72,5.22,1.96,1.12,1.81,2.68,4.26,2.89,6.38.13,2.19-2.14,4.18-2.5,6.4-.19,1.17-.82,1.85-2.01,2.23,3.11,6.5-2.94,11.65-6.48,16.69.18-2.16-1.24-3.78-1.2-5.42.19-7.04-1.22-4.33.73-11.02.56.61.55,1.22,1.04.5-.39-1.67-.66-3.12-.54-4.53Z"/>
  <path class="st76" d="M148.96,122.79c-.66.42-1.17.57-1.54.45-.83-.61-1.79-1.06-3.05-1.45-.51.49-.51,1.1-.83,1.52.29-3.38-1.05-3.28-1.12-6.04.29.23.49.6.89.85,1.22-1.21,2.72-1.61,4.33-1.22,2.3.55,2.71,4.43,2.24,5.52-.13.29-.54.23-.92.38Z"/>
  <path class="st128" d="M139.92,150.27c.15-.18.32-.35.5-.5-.07.22-.37.33-.5.5Z"/>
  <path class="st3" d="M444.76,109.83l-.5.5-2-3.49c.15-.33.31-.32.5,0,1.19.5,1.36,1.96,2,3Z"/>
  <path class="st120" d="M436.77,98.35c.29.15.29.32,0,.5-1.01-.2-1.38-1.52-2.06-2.1h.47c.21.52,1.6.79,1.59,1.6Z"/>
  <path class="st63" d="M445.76,112.33l-.5.5c-.49-.58-.74-1.3-1-2l.5-.5c.47.58.75,1.29,1,2Z"/>
  <path class="st48" d="M442.76,106.34c-.15.33-.31.32-.5,0-.26-.28-.44-.62-.5-1,.45.2.86.5,1,1Z"/>
  <path class="st19" d="M441.76,104.84c-.15.21-.32.21-.5,0-.12.16-.27,0-.49-.24-.18-.19-.05-.98.46-.55.2.17.58.47.52.79Z"/>
  <path class="st88" d="M444.76,110.33c-.15.18-.32.35-.5.5-.05-.15.03-.34,0-.5.15-.18.32-.35.5-.5.08.12-.05.36,0,.5Z"/>
  <path class="st29" d="M445.76,113.33h-.5v-.5c.15-.18.32-.35.5-.5.1.3-.07.69,0,1Z"/>
  <path class="st87" d="M436.77,98.85v-.5c.13.11.45.11.51.26.06.17.04.63-.26.73-.19.07-.23-.33-.25-.49Z"/>
  <path class="st44" d="M442.76,106.84h-.5v-.5h.5c.04.15-.03.34,0,.5Z"/>
  <path class="st80" d="M441.76,105.34c-.21-.09-.34-.35-.5-.5h.5c.02.16-.03.34,0,.5Z"/>
  <path class="st36" d="M395.79,98.85v.5c-.18.05-.49.04-.73,0-.34-.07-.34-.42,0-.48.23-.04.58-.08.73,0Z"/>
  <path class="st91" d="M453.65,212.1c-3.53,5.02-14.63,20.63-21.61,20.33,8.43-5.09,14.25-12.87,19.98-20.92,3.82-5.36,6.83-10.91,8.87-17.18.13-.4.49-.61.71-.67.39-.12.95.32.73,1.04-1.91,6.35-4.89,12.01-8.68,17.4Z"/>
  <path class="st91" d="M373.82,204.72c5.14,7.36,1.23,33.52-1.59,42.91-1.88-1.38-.87-3.24-.62-4.83,2.25-14.03,4.72-20.82,1.73-35.13l-.54-2.58c-.11-.53.75-.48,1.02-.38Z"/>
  <path class="st10" d="M475.61,263.09c-2.69-5.67-3.72-12.06-4.36-18.45l-1.4-13.96c-.29-2.9-.42-11.82.78-13.47.18-.24,1.29-.06,1.21.48-.89,6.42-.11,12.51.24,18.94.49,8.94,2.15,17.09,3.52,26.47Z"/>
  <circle class="st21" cx="456" cy="312.52" r=".32"/>
  <path class="st121" d="M641.05,253.61c-.31-.84-.42-2.47.61-2,2.29,13.71,10.12,42.97,15.27,56.17.19.48.14.99-.03,1.22-.15.21-.78.71-.96.28-3.88-9.16-6.31-18.44-9.03-28.02-2.63-9.28-5.05-18.3-5.86-27.66Z"/>
  <path class="st107" d="M606.6,263.14c-.46-.88-.16-1.13.63-.54,3.21,6.15,5.06,12.35,7.07,18.87,3.02,9.8,5.7,19.36,7.19,29.42.08.53-.82.96-1.15,1.05-.37.09-.7-.72-.81-1.28-2.7-13.82-8.05-34.8-12.93-47.51Z"/>
  <path class="st40" d="M641.66,251.61c-.61.38-.67,1.32-.61,2-.82-.92-.25-2.34-.39-3.49-.36-.86-.55-2.03.5-1.5l.5,3Z"/>
  <path class="st17" d="M641.16,248.62c-.6.2-.56.97-.5,1.5-.96-.99-.55-2.76-.28-4.02.45,1.04.66,1.77.78,2.52Z"/>
  <path class="st30" d="M607.23,262.6c-.22.17-.43.35-.63.54-.27-.7-1.01-.96-.92-1.54-.41-.68-.18-.92.5-.5.68.29.81,1.02,1.06,1.5Z"/>
  <path class="st69" d="M606.17,261.1c-.33-.07-.57.17-.5.5-.29.06-.46-.1-.51-.28-.08-.33.02-.62.26-.72.37-.15.83.06.75.5Z"/>
  <path class="st105" d="M601.28,261.2c.24-.3.78-.13.87.14.05.15-.4.39-.5.55-.26.41-.78-.18-.37-.69Z"/>
  <path class="st71" d="M344.85,212.09l-.38-.38c.16,0,.4.03.38.38Z"/>
  <path class="st16" d="M148.96,122.79c-.26.1-.45.58-.62.75-.56.56-.56-.03-.93-.3.49.19.53-.34.44-.83s-.43-.95-.41-1.33c.02-.27.48-.6.9-.79.09,1.09.16,1.83.61,2.49Z"/>
  <path class="st74" d="M144.22,121.21c-.51-.77-.74-1.47-.96-2.33,1.08-.47,2.97-1.42,3.35-.18.32,1.05-1.61,1.88-2.39,2.51Z"/>
</svg>