<?xml version="1.0" encoding="UTF-8"?>
<svg id="Ebene_10" xmlns="http://www.w3.org/2000/svg" version="1.1" viewBox="0 0 930 325">
  <!-- Generator: Adobe Illustrator 30.1.0, SVG Export Plug-In . SVG Version: 2.1.1 Build 136)  -->
  <defs>
    <style>
      .st0 {
        fill: #070808;
      }

      .st1 {
        fill: #070707;
      }

      .st2 {
        fill: #465c5f;
      }

      .st3 {
        fill: #8eb9c0;
      }

      .st4 {
        fill: #38494c;
      }

      .st5 {
        fill: #a9d9e1;
      }

      .st6 {
        fill: #aee3ec;
      }

      .st7 {
        fill: #010101;
      }

      .st8 {
        fill: #5a7579;
      }

      .st9 {
        fill: #acd9e0;
      }

      .st10 {
        fill: #b1e3ec;
      }

      .st11 {
        fill: #050606;
      }

      .st12 {
        fill: #7ea4aa;
      }

      .st13 {
        fill: #030304;
      }

      .st14 {
        fill: #90bcc3;
      }

      .st15 {
        fill: #151818;
      }

      .st16 {
        fill: #f4f8f9;
      }

      .st17 {
        fill: #b2e5ed;
      }

      .st18 {
        fill: #020203;
      }

      .st19 {
        fill: #292929;
      }

      .st20 {
        fill: #474747;
      }

      .st21 {
        fill: #040405;
      }

      .st22 {
        fill: #b1e6ef;
      }

      .st23 {
        fill: #0b0d0e;
      }

      .st24 {
        fill: #e6eced;
      }

      .st25 {
        fill: #161b1c;
      }

      .st26 {
        fill: #deeef1;
      }

      .st27 {
        fill: #030303;
      }

      .st28 {
        fill: #344346;
      }

      .st29 {
        fill: #f8fcfe;
      }

      .st30 {
        fill: #080b0b;
      }

      .st31 {
        fill: #181f20;
      }

      .st32 {
        fill: #5c787c;
      }

      .st33 {
        fill: #1c2526;
      }

      .st34 {
        fill: #f1f3f3;
      }

      .st35 {
        fill: #dff3f6;
      }

      .st36 {
        fill: #88b2b9;
      }

      .st37 {
        fill: #161818;
      }

      .st38 {
        fill: #2c3a3c;
      }

      .st39 {
        fill: #8cb6bd;
      }

      .st40 {
        fill: #b1e4ec;
      }

      .st41 {
        fill: #0f1414;
      }

      .st42 {
        fill: #324144;
      }

      .st43 {
        fill: #c9eef5;
      }

      .st44 {
        fill: #5a5a5a;
      }

      .st45 {
        fill: #96c4cb;
      }

      .st46 {
        fill: #b1e5ee;
      }

      .st47 {
        fill: #fbfcfc;
      }

      .st48 {
        fill: #f8f9f9;
      }

      .st49 {
        fill: #99c7cf;
      }

      .st50 {
        fill: #516a6e;
      }

      .st51 {
        fill: #afe3ec;
      }

      .st52 {
        fill: #1d1d1d;
      }

      .st53 {
        fill: #9ac9d1;
      }

      .st54 {
        fill: #7ca1a7;
      }

      .st55 {
        fill: #0b0e0f;
      }

      .st56 {
        fill: #50686c;
      }

      .st57 {
        fill: #171e1f;
      }

      .st58 {
        fill: #daf1f5;
      }

      .st59 {
        fill: #5c5c5c;
      }

      .st60 {
        fill: #dde2e3;
      }

      .st61 {
        fill: #000101;
      }

      .st62 {
        fill: #3a3a3a;
      }

      .st63 {
        fill: #a1d2db;
      }

      .st64 {
        fill: #709197;
      }

      .st65 {
        fill: #1e2728;
      }

      .st66 {
        fill: #ade1ea;
      }

      .st67 {
        fill: #3f5154;
      }

      .st68 {
        fill: #696969;
      }

      .st69 {
        fill: #e6f7fa;
      }

      .st70 {
        fill: #131819;
      }

      .st71 {
        fill: #afe5ee;
      }

      .st72 {
        fill: #ebf2f3;
      }

      .st73 {
        fill: #6f9096;
      }

      .st74 {
        fill: #ecf0f0;
      }

      .st75 {
        fill: #d4f0f5;
      }

      .st76 {
        fill: #c8d8db;
      }

      .st77 {
        fill: #e4ecee;
      }

      .st78 {
        fill: #222d2f;
      }

      .st79 {
        fill: #7fa5ac;
      }

      .st80 {
        fill: #050707;
      }

      .st81 {
        fill: #fcfefe;
      }

      .st82 {
        fill: #0d1112;
      }

      .st83 {
        fill: #060606;
      }

      .st84 {
        fill: #4b6266;
      }

      .st85 {
        fill: #495f62;
      }

      .st86 {
        fill: #a5d7df;
      }

      .st87 {
        fill: #fdfeff;
      }

      .st88 {
        fill: #020202;
      }

      .st89 {
        fill: #567075;
      }

      .st90 {
        fill: #d0e2e5;
      }

      .st91 {
        fill: #e9f8fb;
      }

      .st92 {
        fill: #14191a;
      }

      .st93 {
        fill: #91bdc4;
      }

      .st94 {
        fill: #e8f8fa;
      }

      .st95 {
        fill: #060808;
      }

      .st96 {
        fill: #e4f1f3;
      }

      .st97 {
        fill: #fff;
      }

      .st98 {
        fill: #709297;
      }

      .st99 {
        fill: #020303;
      }

      .st100 {
        fill: #d4f1f6;
      }

      .st101 {
        fill: #cbeff5;
      }

      .st102 {
        fill: #0d1011;
      }

      .st103 {
        fill: #b4e2e9;
      }

      .st104 {
        fill: #242424;
      }

      .st105 {
        fill: #f6f9fa;
      }

      .st106 {
        fill: #c7eef4;
      }

      .st107 {
        fill: #fafdfe;
      }

      .st108 {
        fill: #0e1313;
      }

      .st109 {
        fill: #0e1213;
      }

      .st110 {
        fill: #151c1d;
      }

      .st111 {
        fill: #0f1314;
      }

      .st112 {
        fill: #ecefef;
      }

      .st113 {
        fill: #82a9b0;
      }

      .st114 {
        fill: #eef9fc;
      }

      .st115 {
        fill: #d4e1e3;
      }

      .st116 {
        fill: #1a2122;
      }

      .st117 {
        fill: #13191a;
      }

      .st118 {
        fill: #080808;
      }

      .st119 {
        fill: #87b0b7;
      }

      .st120 {
        fill: #101111;
      }

      .st121 {
        fill: #e7f7fa;
      }

      .st122 {
        fill: #b0e5ee;
      }

      .st123 {
        fill: #040505;
      }

      .st124 {
        fill: #090c0d;
      }

      .st125 {
        fill: #e0f5f9;
      }

      .st126 {
        fill: #daf0f4;
      }

      .st127 {
        fill: #2b383a;
      }

      .st128 {
        fill: #e5f7fa;
      }

      .st129 {
        fill: #e8f7fa;
      }

      .st130 {
        fill: #e4f4f7;
      }

      .st131 {
        fill: #0d1111;
      }

      .st132 {
        fill: #addee6;
      }

      .st133 {
        fill: #101415;
      }

      .st134 {
        fill: #93c0c7;
      }

      .st135 {
        fill: #070909;
      }

      .st136 {
        fill: #b0e6ef;
      }

      .st137 {
        fill: #f2fbfc;
      }

      .st138 {
        fill: #e7eff0;
      }

      .st139 {
        fill: #030404;
      }

      .st140 {
        fill: #b2e8f1;
      }

      .st141 {
        fill: #8db8bf;
      }

      .st142 {
        fill: #e8f3f5;
      }

      .st143 {
        fill: #d1e1e3;
      }

      .st144 {
        fill: #2a2a2a;
      }

      .st145 {
        fill: #2f3d40;
      }

      .st146 {
        fill: #b1e7f0;
      }

      .st147 {
        fill: #e6eeef;
      }

      .st148 {
        fill: #e5e7e8;
      }

      .st149 {
        fill: #afe3eb;
      }

      .st150 {
        fill: #b2e6ef;
      }

      .st151 {
        fill: #e9eeef;
      }

      .st152 {
        fill: #b6e5ed;
      }

      .st153 {
        fill: #b1e5ed;
      }

      .st154 {
        fill: #d3f1f6;
      }

      .st155 {
        fill: #0a0e0e;
      }

      .st156 {
        fill: #97c5cc;
      }

      .st157 {
        fill: #fcfcfc;
      }

      .st158 {
        fill: #d6e6e9;
      }

      .st159 {
        fill: #4f676a;
      }

      .st160 {
        fill: #080a0b;
      }

      .st161 {
        fill: #232e2f;
      }

      .st162 {
        fill: #2d2d2d;
      }

      .st163 {
        fill: #a1d2da;
      }

      .st164 {
        fill: #e8f8fb;
      }

      .st165 {
        fill: #0f1415;
      }

      .st166 {
        fill: #202a2b;
      }

      .st167 {
        fill: #d9e6e8;
      }

      .st168 {
        fill: #263133;
      }

      .st169 {
        fill: #253032;
      }

      .st170 {
        fill: #8cb6be;
      }

      .st171 {
        fill: #b0e4ed;
      }

      .st172 {
        fill: #afafaf;
      }

      .st173 {
        fill: #415558;
      }

      .st174 {
        fill: #dcebed;
      }

      .st175 {
        fill: #030405;
      }

      .st176 {
        fill: #37474a;
      }

      .st177 {
        fill: #010202;
      }

      .st178 {
        fill: #192022;
      }

      .st179 {
        fill: #c4e3e9;
      }

      .st180 {
        fill: #0e1212;
      }

      .st181 {
        fill: #eaf5f7;
      }

      .st182 {
        fill: #617e83;
      }

      .st183 {
        fill: #7fa5ab;
      }

      .st184 {
        fill: #afe4ed;
      }

      .st185 {
        fill: #d1e2e5;
      }

      .st186 {
        fill: #b0e3eb;
      }

      .st187 {
        fill: #324043;
      }

      .st188 {
        fill: #b2e8f0;
      }

      .st189 {
        fill: #192021;
      }

      .st190 {
        fill: #76cad8;
      }

      .st191 {
        fill: #040506;
      }

      .st192 {
        fill: #fcfdfd;
      }

      .st193 {
        fill: #2a3739;
      }
    </style>
  </defs>
  <rect class="st190" x=".11" y=".46" width="930.16" height="325.05"/>
  <g>
    <path class="st140" d="M638.16,0c2.19.18,4.36.35,6.5.5,1.64-.42,3.89-.52,5.5,0,21.16.09,42.48.09,63.97,0,2.45-.15,4.95-.32,7.5-.5h64.97c3.53.18,7.03.34,10.49.5,2.56-.44,5.88-.42,8.5,0,2.28-.15,4.61-.32,7-.5h14.99c4.25,1.06,9.73.84,13.99,0h88.45v324.5c-309.78.3-619.71.38-929.78.24C.08,216.44.17,108.19.5,0h637.66Z"/>
    <polygon class="st128" points="930 324.5 930 325 0 325 0 0 .5 0 .41 324.47 930 324.5"/>
    <path class="st87" d="M714.12,0c.44.14.43.31,0,.5-2.42,0-4.91-.26-7.47.59-3.57-.32-6.94.13-10.5.32-6.26.34-12.24-.34-18.51-.35l-23.47-.02c-1.57,0-2.75-.38-4.01-.55-.44-.14-.43-.31,0-.5h63.97Z"/>
    <path class="st81" d="M841.55,0c-.29,1.29-1.74.96-2.97.98-2.38.04-11.02,1.09-11.02-.98h13.99Z"/>
    <path class="st106" d="M797.07,0c.44.14.43.31,0,.5h-9.52c-.52.01-1.01-.11-.97-.5h10.49Z"/>
    <path class="st121" d="M805.57,0c.44.14.43.31,0,.5h-8.5v-.5h8.5Z"/>
    <path class="st164" d="M721.61,0c.04.39-.46.51-.97.51h-6.52v-.51h7.5Z"/>
    <path class="st107" d="M812.56,0c.04.39-.46.51-.97.51h-6.02v-.51h7Z"/>
    <path class="st101" d="M644.65,0c.44.14.43.31,0,.5h-5.52c-.52,0-1.01-.08-.97-.5h6.5Z"/>
    <path class="st128" d="M650.15,0v.5c-1.8-.24-3.69,0-5.5,0v-.5h5.5Z"/>
    <path class="st97" d="M9.85,9.72c.18-.4.45-.53.83-.53l50.22-.19c1.3.32,1.4.71,1.56,2.05.3,2.55.25,7.14.06,9.78-.06.79-.51,1.49-.94,2.13-.16,6.87.81,13.54,2.91,19.99,1.02,1.37,1.54,2.06,1.54,2.06,5.49,23.89,16.8,57.34,41.01,67.95,5.08,2.23,10.36,2.39,14.74-1.04l1.15.44c1.94-1.18,5.4-.53,5.85,1.8.21,1.07-.15,2.61-1.38,2.68.55,1.16-.36,1.67-1.45,1.45-.65.6-1.15,1.48-1.48,2.65l-3.05,11.38.67,1.05c-.24,1.67-1.73,6.82-3.64,6.45l-2.71,4.12-5.77,15.34.82.84c-5.78,12.77-11.39,26.4-15.27,39.89-1.65,5.75-3.09,12.21-1.61,18.15,2.84,7.92,4.97,15.89,6.38,23.93-.49,5-2.5,9.59-6.01,13.75-1.74,3.75-1,6.73.44,10.49,4.75,7.83,4.14,12.09,1.24,20.15-.11,1.5-.63,2.51-1.54,3.02-.28,2.16-2.05,3.17-4.03,2.62l-1.91.46c-14.68-3.16-29.32-6.28-43.91-9.37-8.92-1.17-17.93-1.68-27.02-1.54l-2.03-1.1c-2.92-.19-5.24-2.47-5.01-5.48.06-.74-.02-1.49-.58-1.52l-1-.34c-.34-87.32-.78-174.55-1.3-261.68l.87-.6c0-.44.43-1.02.65-1.39.48-.74.75-.77.7.15Z"/>
    <path d="M507.73,6.53c6.5-.46,13.05-.63,19.66-.53l.33.62,30.43.39c.35-.22.69-.21,1.06,0,.45,0,1.04.06,1.5,0,.35-.24.64-.22,1,0h.96c.51-.3,1.03-.32,1.54,0h1c10.64-.47,21.89-.44,32.48-.02,5.42-.42,11.52-.41,16.99,0,1.75-.49,4.17-.37,6.06,0l51.41-.19,59.99-.22,83.93-.27,75.41-.2,26.96-.18c.3,0,1.86.68,2.08,1.43.2.68-1.65.24-1.62,2.62l.74,50.46.86,101.22.18,28.13.73,124.41c-2.34,1.27.61,3.63-6.56,3.65l-297.63.76-109.87.15-29.11.18-28.59.63-353.9-.08c-.87.71-.93,1.49-1.65,1.89-.56-.66-.7-1.88-1.68-1.88l-53.9-.16c-10.51-.03-20.37.32-30.98-.75,7.73-1.38,14.81-.92,22.51-.98l62.61-.5-.67-19.94c-3.08-1.88-6.19-2.98-9.71-3.57-8.47-1.42-16.71-2.91-24.81-5.02-4.04-.29-8.22-1.15-11.99-2.59-12.72-2.41-20.35-1.15-32.34-2.73-.71-.09-1.28-2.38-.63-2.64.98-.39,2.19.12,3.02-.04,3.08.2,6.27.2,9.58.22,25.39.2,32.2,5.17,55.94,9.07,3.33.55,6.37,1.31,9.35,2.26,1.19-.59,1.84-.21,2.79.53.12-1.13.53-2.18,1.24-3.14,0-3.12,1.72-5.65,2.56-8.8.75-2.84.3-6.91-1.02-9.5-2.22-4.37-4.46-8.55-3.43-13.55,1.12-5.39,8.96-9.1,6.16-19.79-1.43-5.47-2.98-10.79-4.83-16.15-4.2-12.16,1.17-22.96,5.11-34.97,2.78-8.48,5.75-16.56,9.91-24.45.57-1.07.87-2.04,1.09-3.02,2.17-5.73,4.41-11.43,6.72-17.1l1.76-2.37c1.6-2.2,1.96-5.04,2.97-7.5l3.18-11.82c.15-1,.6-1.73,1.34-2.2.09-.7.88-1.21,1.45-1.45.82-1.04,2.12-1.58,3.89-1.62l3.68-1.02-6.83-.86c-1.19-1.81-3.44-1.96-5.21-.98-2.4,1.58-4.94,3.24-8.1,3.22-4.27-.03-8.31-1.37-11.93-3.68-9.06-5.82-16.28-13.42-21.67-22.74-9.01-15.58-12.56-29.18-16.74-46.21-2.12-6.41-3.09-13.08-2.91-19.99-.13-4.21-.19-8.4-.08-12.96l-46.47-.03c-1.94,0-3.59.09-5.18-.25-.58-.65.53-2.43,1.1-1.21l45.03-.97c.09-.45.26-.43.5,0l61.78-.29,99.03-.47,136.78-.49,101.3-.04,52.35.28Z"/>
    <path class="st7" d="M8.51,10.96l.4,29.51.27,53.1.24,65.68.26,66.19.28,48.14.17,36.42c0,2.09-.32,3.82-2.25,5.11-.62-.91-1-1.8-1-3.16l-.11-80.06-.16-219.49c0-.71.41-1.42.66-1.63s.93.05,1.25.19Z"/>
    <path class="st48" d="M527.72,6.62l-19.99-.09c-2.68-.54,8.44-.77,6.45-.99,4.13.47,7.99-.32,12.02-.19,6.72.23,13.09-.24,19.94.55-6.39,1.48-12.41.01-18.42.72Z"/>
    <path class="st29" d="M597.68,6.49c.44.14.43.31,0,.5l-32.48.02c-.07-.19.16-.52.55-.52h31.94Z"/>
    <path class="st72" d="M45.48,285.99c4.03.76,7.99,1.55,11.99,2.59.74,1.57-12.38-1.95-12.98-2.22.51-.43.81-.3.98-.37Z"/>
    <path class="st148" d="M56.49,7.54c-.17,0-.34,0-.5,0l-9.52-.32c3.11-.32,6.08-1.24,9.35-1.39.58-.03.64,1.44.68,1.71Z"/>
    <path class="st34" d="M10.95,8.51c-.66.01-1.08.56-1.1,1.21l-.7-.15c.58-1,.81-2.71,2.1-3.41,1.19-.64,2.83.89,3.59,1.62-1.72.55-3.14-.33-3.89.73Z"/>
    <path class="st91" d="M614.67,6.49c.44.14.43.31,0,.5h-16.99v-.5h16.99Z"/>
    <path class="st179" d="M620.73,7h-6.06v-.51c.44,0,7.11-.23,6.06.51Z"/>
    <path class="st137" d="M542.35,318.9c.75.51-.22.65-.69.86-.44.19-1.14-.3-1.53-.6.6-.31.96-.05,2.22-.26Z"/>
    <path class="st105" d="M564.2,7.01h-1.54c.21-.22.46-.48.78-.49s.57.27.76.49Z"/>
    <path class="st16" d="M559.2,7h-1.06c.16-.18.39-.41.64-.35.19.04.29.35.41.35Z"/>
    <path class="st107" d="M561.7,7.01h-1c.19-.03.32-.53.61-.37.17.09.27.36.39.37Z"/>
    <path class="st88" d="M98.39,112.32c.2.53.04.69-.49.5-8.4-4.9-15.9-11.01-21.07-19.28-6.6-10.55-10.84-21.96-13.95-33.99-2.3-8.88-4.15-17.44-4.95-26.47-.04-.47,1.13-1.3,1.24-.99.09.25.45.73.52,1.18,3.36,20.62,7.62,40.34,18.42,58.46,5.13,8.6,12.54,14.77,20.27,20.6Z"/>
    <path class="st6" d="M127.4,116.85c.2-1.38,1-3.51-.58-4.47-1.23-.76-2.74.08-3.9,0,.7-.46,1.11-1.36,2.46-.89,7.21,2.53,7.7.43,12.86,2.83-3.89,1.16-7.29,2.28-10.83,2.54Z"/>
    <path class="st46" d="M109.99,159.3c1.12-4.95,3.06-9.74,4.52-14.84.61-2.13,2.27-3.68,3.96-4.63-2.31,6.67-5.14,13.28-8.47,19.47Z"/>
    <path class="st152" d="M64.49,42.96c-5.13-11-2.68-12.52-2.91-19.99,1.18,6.55,1.3,13.45,2.91,19.99Z"/>
    <path class="st17" d="M125.95,118.3c-.83,4.84-2.67,9.5-4.52,14.03-.39-1.02,1.94-15.93,4.52-14.03Z"/>
    <path class="st5" d="M90.41,292.13c.78-.6,1.64-1.15,2.81-1.39.55-.4.85-.87,1.22-1.23,0,1.39-.06,2.92-.48,4.42-1.5-.17-2.44-1.45-3.56-1.81Z"/>
    <path class="st59" d="M98.45,113.33c-.01-.42.32-.58,1-.5.42.2.57.33.76.48.28.22.3.46-.21.53-.84.11-1.28-.05-1.56-.51Z"/>
    <path class="st104" d="M99.45,112.83c-.16.4-.6.51-1,.5-.21-.32-.5-.36-.55-.5.22-.11.39-.28.49-.5.44.33.83.39,1.06.5Z"/>
    <path class="st97" d="M443.3,28.96l-3.18,8.21-2.86-.12c-2.62-.04-5.12-.99-7.5-2.05-.61-.35-1.14-.32-1.56.1-.06.43-.23.44-.5.07l-.42.29c-1.33,3.54.26,6.47,4.77,8.78l.18,1.28c1.8,2.09,4.28,3.44,7.43,4.04,2.88-.26,3.1,2.74.67,1.91l.38.46c-.41,2.52-.51,5.02-.28,7.48.63-.15.73.16.3.94,1.1.05.72,1.06.04,1.59-1.7,2.91-.95,5.53-.03,8.39-.88,1.44-1.87,2.64-2.96,3.6.97,2.43,1.87,4.9,2.7,7.39-2.07,2.38-3.27,5.03-3.17,8.21l-.98.77c-.55,1.18-.62,2.85.99,2.09.65,1.11,1.31,2.25,1.96,3.42,1.75,1.27,1.41,6.45-.5,7.47-.03,1.4-.1,6.09.68,7.03,1.15.09,2.21.44,3.17,1.05,1.17-.2,2.45.25,3.83,1.33,5.47,1.36,9.99,3.93,13.57,7.72.54,1.09,1.09,2.21-.19,2.87.91,4.96-1.13,9.21-3.67,13.38,1.23.66.98,1.2-.41,1.07-.09,2.2-.37,2.73-2.54,1.96-4.89-1.73-5.18-7.25-.39-9.05.38-.9,1.36-1.73,2.32-1.84.31-.58.12-.56-.43-.47-.05.9-1.44,1.57-2.36,1.82-.75,1-1.62,2.02-2.61,3.06-.87,3.56,1.02,6.24,5.66,8.04.57.41,1.03.93,1.44,1.5,1.07,1.48,3.08,5.49,1.91,6.96l.51,1.07c.46.14.42.3-.06.47.45,1.07.93,2.24-.45,1.48-.46,0-.48-.16-.09-.47l-.38-.54-.69.12c-.92-1.82-1.93-3.66-3.04-5.51,1.99,3.9,3.65,7.95,4.98,12.16l1.21.33c.24-.95.67-.97.99-.04l1.05.31c1.48,11.02,3.12,22.04,4.92,33.04,1.05,3.93,1.73,4.94,2.04,3.02l1.09-.47c-.46-.56-.19-1.05.49-.97,3.66-5.14,6.86-10.7,9.59-16.67l7.77-12.36c-.55-.95-.31-1.57.07-2.42,1.26-2.81,6.45-9.87,8.75-11.94,6.05-3.41,11.96-7,17.73-10.76,3.49-3.09,6.6-6.57,9.31-10.44,3.65,1.9,7.41,3.56,11.28,4.96,9.22,3.2,18.56,5.93,28.01,8.21,9.34,3.11,17.86,8.51,20.75,18.43-2.47-10.17-9.82-15.5-19.3-18.69,0,0-9.06-2.65-27.19-7.95-5.63-1.23-10.24-3.77-13.82-7.62-1.5-4.75-7.97-6.55-12.17-7.58l.18-2.12,1.4-13.52c.45-4.35,6.82-21.57,6.6-29.5,7.47.95,19.33-4.85,21.59-12.11,1.34-4.28-2.21-9.39-5.58-11.57-3.42-2.21-6.69-3.21-10.44-4.36-.19-8.76,3.84-16.24-.09-24.78-1.91-4.14-4.78-7.3-7.61-11.05l48.14.02,245.55-.81c2.22,2.75,3.27,5.86,4.75,8.89l5.9,12.11c-3.54,1.9-4.67,4.97-6.02,7.89-1.1,3.27-1.39,6.56-.85,9.89,1.04.91,1.5,1.78,1.37,2.6l-5.59,6.81-1.32.07c-3.89,3.5-7.21,7.3-9.96,11.42l-.05,2.08c-13.29,17.92-23.73,37.84-33.13,57.81l-1.19.13-13.34-3.93-.31-1.03c-15.49-5.46-30.99-9.98-46.48-13.54-2.2-.93-4.37-1.27-6.5-1-.09.52-1.14.4-1.5,0l-1.1.23c.22-1.48-1.25-1.13-2.44-.71-.17.42-.35.43-.55.02-1.11.77-1.55.73-1.32-.1-.08-.37.22-.69.91-.98,1.11-.9-.99-.56-1.8.02-11.18,7.95-22.37,15.67-34.29,22.71-8.34,5.65-16.34,11.79-23.99,18.34l-1.89.92c-.93,2.05-2.98,4.35-4.96,5.55-.3,1.38-1.26,2.44-2.89,3.18-11.51,6.36-22.65,13.32-33.41,20.85l-1.67.37-10.31,7.74c-.18.48-.42,1.05-.71,1.72l.2,1.19c-.77,1.29-3.39,4.72-4.43,5.89-.09.1-.37.03-.7-.09.29,2.08-.05,2.85-1.51,4.52.76.54.56,1.2-.59,1.95.88.46,1.93.47,3.14.04,1.47.2,2.52.46,1.02,1.53l-.13,1.06c26.86,7.37,53.67,14.83,80.45,22.39l.36,1.02c.39-1.23.91-1.74,1.54-1.53l2.48,2.55c1.43-.63,1.49,0,1.2,1.33l.58-.45c7.51-.3,15.04-.61,22.57-.93l.74.87c1.14.07,2.15.28,1.05,1.08.32,1.45.73,2.87,1.23,4.24,1.25.81,2.52,1.56,3.79,2.25l.48-.41c5.37.74,10.48.13,15.32-1.84l1.08.7c1.97-.64,4.79,1.85,6.05,3.37v1.22c14.91,13.76,35.64,22.26,55.69,24.98,8.71,1.18,11.68-1.71,16.41-8.81,5.11-7.66,10.01-15.83,14.52-23.74-.36-.25-.21-.53.47-.82-.02-.24-.01-.48.05-.7.48-1.61,28.57-7.87,32.4-8.3,1.04-.01,1.39.47.97,1.48,3.77,7.36,6.9,14.9,9.38,22.61.67,2.06.55,3.65-.36,4.76l-.42,6.15c-3,7.05-3.67,14.03-2.01,20.91,1.3,2.14,1.36,3.68.17,4.62-11.84.28-23.78.89-35.81,1.85-6.1,2.26-12.6,3.32-19.5,3.2-69.53,1.59-139.17,2.86-208.91,3.8-1.31.07-2.02-.56-1-1.54l.06-1.14c5.98-2.27,11.15-5.54,15.49-9.83.9-2.86,1.68-5.78,2.37-8.74-.62-1.32-.83-2.89-.63-4.72-.39-1.77-.32-3.28.23-4.51l-1.48-.03c-2.61-2.14-5.04-4.47-7.3-6.97l.13-1.5c-10.71-7.04-29.53-13.15-39.57-2.49,1.32-.16,1.34.3.15.89-3.89,1.29-7.75,2.61-11.75,4.28-7.02,2.93-14.23,4.46-21.57,6.41l-10.23,2.72c-6.15,1.63-12.37,3.61-18.85,3.47-3.85-.09-7.54-1.24-11.38-1.61-7.58-.73-14.79-2.42-22.29-3.58-10.71-1.66-11.04,1.01-21.27,2.29-.59.45-.84.23-.48-.46,2.51-2.48,7.63-7.12,4.11-11.48-1.48-1.84-3.96-3.29-6.46-2.25-1.91.79-2.8,2.7-4.39,4.16-.88-4.2-.9-8.42-1.53-12.83-.76-5.32-1.58-10.79-.3-16.13s2.85-11.14.78-16.68c-2.77-7.41-4.45-14.72-5.38-22.64-.59-5.02-.24-9.97-1.83-14.78-.59,9.12.44,17.52,1.59,26.15,1.57,11.88,6.7,11.27,2.76,27.21-1.81,7.32-4.89,9.26-5.91,11.55-1.36,3.06-1.85,6.01-4.3,8.52-1.57,1.61-2.03,4.49-1.15,6.52.49,1.13,2.09,2.21,1.7,3.55-1.07,2.11-3.19,4.89-5.26,5.75-2.11.87-3.05-1.78-4.01-2.67-5.5-5.05-14.18-6.72-21.91-7.13-6.44-.34-13.84.03-17.86,5.63l-2.15-5.52c-.89-2.29-1.28-5.81-.24-8.17,1.09-2.48,3.69-4.08,3.45-7.14-.16-2-1.47-4.81-.23-6.8,2.34-3.74,6.24-6.42,10.2-8.08-2.29-2.47-10.59,5.19-12.2,7.58-1.42,2.12-.18,4.97-.23,7.18-.06,2.71-2.45,4.35-3.8,6.38-1.66,2.49-.55,5.38.03,7.98.87,3.88,1.7,7.62,3.42,11.29,3.56,7.59.7,14.6,4.43,22.48,1.57,3.31,5.33,4.01,8.17,5.27,1.14,1.23.2,1.49-1.16,1.74-88.95-3.47-177.91-6.02-266.9-7.65-.92-.2-.71-.74-.28-1.58,2.09-3.24.78-12.59-2.42-17.42-2.74-4.14-1.87-8.92,1.21-12.56,8.57-10.14,1.35-20.02.65-26.85-2.21-6.99-3.05-14-2.55-21.05,1.42-7.27,4.21-14.12,6.47-21.5,7.35-4.29,13.68-9.49,20.5-14.43,1.79.55,2.88,1.82,4.27,2.88,4.25,3.24,8.31,6.57,13.53,8.39,13.2,4.61,26.4,8.68,40.4,10.32,11.34,1.32,32.96-5.19,35.29-14.07.64-1.5,1.46-2.88,2.45-4.12-.61-1.75-1.11-3.53-1.51-5.36l2.04-14.07c.58-1.31,1.68-2.43,3.27-3.36-3.37-12.15-8.89-25.85-14.15-37.91-1.13-7.37-.63-14.8-2.2-22.46-3-14.62-8.18-28.49-15.3-41.56-2.18-4.01-4.57-7.69-4.71-12.46-.22-7.52-.83-14.78-2.39-21.89-.36-1.37-.17-2.17.58-2.41,14.74-1.08,29.41-1.79,44.02-2.13l219.64-.85c2.17,0,3.57.41,5.77.52-7.08,7.18-8.06,12.65-11.56,19.8Z"/>
    <path class="st140" d="M887.52,314.49c-14.04.34-28.12.42-42.24.27-.75-3.72-1.24-7.57-1.45-11.53l1.24-38.48c.08-6.43,0-12.98-2.21-19.03-3.31-6.89-6.23-13.92-8.75-21.09-.88-1.2.23-1.56,1.46-1.75l51.52-7.09c9.34-1.19,18.49-2.94,27.44-5.25l-37.67,6.3c-15.3,1.83-30.54,3.93-45.7,6.31-21.69,5.73-42.99,12.05-63.91,18.97l-.53-.53c-.39.02-.45-.31-.16-1-.41-.26-.78-.63-.8-1.13-.31-7.82-.93-14.81-2.27-22.83-.67-4-1.35-7.99-2.1-11.97-1.28-6.8-2.73-13.27-6.03-19.21l-.07-1.87c28.73-12.64,58.38-16.32,88.14-18.67,6.53-1.01,13-2.28,19.4-3.82l-4.83-.71-111.45-34.4-.3-1.14c-.4-.52-.1-.71.91-.57l.34-.59c7.2,1.81,14.45,3.86,21.75,6.15l-.13-.97c-.18-.74-.03-1.61.45-2.6-.35-.17-.84-.54-.74-.75,4.15-8.78,9.07-18.77,13.99-27.3,10.09-17.5,22.11-32.86,34.43-48.05,2.25-1.64,6.06-1.55,7.78.72-.08-1.37.28-1.5,1.06-.4,1.54,0,2.58,1.21,3.13,3.65l2.18,9.86-.83.91c.24.32.27.62.04.91-.84-.33-.9.51-.94,1.28-.07,1.28.39,3.78.82,1.31-.08-.9-.06-1.14.64-.5.32.29.63.6.88.94s.48.67.53,1.01c.57,3.45,1.09,6.92,1.37,10.4-.94-10.09-2.27-21.09-6.61-30.27-1.39-1.45-1.94-2.8-1.67-4.06-.32-1-.44-1.38.52-.89l.39-.61c.6-13.54-1.08-14.51-6.85-25.41-1.8-3.41-3.47-6.66-5.74-9.88l45.05-.11c-3.98,5.1-9.22,8.67-11.95,14.24-2.62,5.35-6.02,10.36-8.06,15.97-3.14,8.62-3.71,18.35-3.03,27.6,1.64-9.53,1.91-18.6,4.84-27.53l8.07-15.56c4.15-5.31,8.53-9.94,13.17-14.76l55.4-.1.2,133-5,.04c-15.01.12-34.89,11.55-42.98,5.7-3.48-2.52-8.03-2.58-11.16.64-1.04,1.07-5.68,4.81-3.47,4.34,4.48-.96,5.46-7.19,13.11-2.85,3.12,1.97,6.64,2.95,10.45,1.94,12.8-3.36,25.62-6.31,39.07-7.69l.94,170.13-31.03.36Z"/>
    <path class="st140" d="M197.22,67.34c2.2,8.61,4.4,17.62,5.51,26.66.87.11,1.31,1.08,1.65,1.85,1.16,5.15,1.91,10.48,2.27,16.02l1.37,21.32c.04.6.7,1.19,1.1,1,1.24-.58.15-4.4.86-6.28,1.6,1.07,2.01,2.84,2.83,4.58,7.87,16.9,5.28,20.37,2.58,36.7-.36,2.18.5,4.77-.46,6.7-2.25,4.52-6.6,6.83-10.88,8.63-.35-.24-.76-.13-1.51.08-1.28.36-3.38,1.01-3.79,1.59-5.08,1.79-10.96,3.08-16.75,2.26-12.76-1.82-24.92-5.12-37.1-9.16-5.01-1.66-9.3-3.99-13.44-7.14-.54-.41-.43-1.62-1.03-1.98-8.02-4.76-8.59-7.36-17.43-10.61,5.35-13.51,10.57-26.06,13.92-40.24,4.51.02,8.27-1.28,12.55-2.47,4.89,9.71,10.72,18.41,17.54,26.76,1.5,1.83,5.83,9.85,6.91,12.07.39.85.31,1.04-.52.54l-1.07.47-5.4-6.07c3.94,5.4,8.47,10.48,14.02,14.28l-5.37-4.99.36-1.15c-.33-.38-.35-1.06-.04-2.06-2.31-8.69-8.04-14.38-12.96-22.51-5.24-8.65-10.77-16.87-15.19-26.02l-6.52-13.51c-2.63-5.44-3.91-10.89-5.56-16.53-1.73-5.95-4.72-11.27-5.73-17.19-.29-.9-.47-1.52.51-1.01l12.4,11.59c.89-1.2.72-2.54-.16-3.45l-10.59-10.85-9.2-9.83c-4.15-4.43-6.59-9.94-10.19-14.78l-5.98-8.02c-2.64-3.54-3.03-8.1-5.89-11.89-.21,2.77,4.62,13.95,6.35,15.8-3.7,8.13-21.42,6.23-20.06,9.16.89,1.93,11.94-.68,14.78-1.69,3.01-1.08,5.03-3.16,6.3-6.07,1.53,1.86,2.74,3.55,3.78,5.51,2.99,5.62,6.78,10.44,10.05,15.89,2.5,4.17,3.4,9.08,5.52,13.8-5.78-1.04-11.63-2.72-17.36-.83-5.03,1.66-5.98,8.17-3.67,12.35,1.23,2.22,2.95,2.93,5.42,3.92-5.17,3.81-1.69,12.66,2.89,15.86,2.67,1.87,6.17,1.55,9.07,1.4.69-.32,1.18-.28,1.45.12-2.19,5.24,1.02,10.63,6.73,12.3-.52,1.18-1.61,1.13-2.25,1.63-2.4-.11-3.35.23-2.85,1.03-3.66,1-7.79-.12-11.36-2.24-9.18-5.44-16.45-13.24-21.86-22.48-4.9-8.35-8.54-16.93-11.33-26.22-4.7-15.66-9.02-35.56-8.01-51.99l116.77-.33,2.09,11.93c.82,4.66.78,9.16,1.15,13.88.25,3.24.82,6.19.32,9.5-.18,1.17-.08,2.54.78,3.31.8-.78.85-1.66,1.3-2.65l5.32,9.6,5.09,12.12Z"/>
    <path class="st140" d="M368.3,291.02c3.13,1.39,6.37,2.23,9.95,3.16,10.14,2.65,19.99,5.47,30.39,6.99,2.32.34,4.38.76,6.2,2.3-1.43,4.29-1.87,8.55-2.09,13.18l-316.93.54-1.81-18.84c6.13-3.95,1.46-7.88,5.95-14.82-.1.25.06.45.56.65l65.93,1.33,131.87,3.55,68.93,2.7c.7.03,1.02-.46,1.06-.74Z"/>
    <path class="st140" d="M791.07,314.89l-127.24.39-92.09.43-42.85.25c-.19,0-.23-.23-.17-.33,0-.39.08-.99.32-1,5.23-.36,12.54-.54,17.72-.24,1.64-.34,2.65-.02,3.01.96.2-.76.6-1.53,1.2-2.32.44-5.11,1.21-10.15,2.29-15.1,7.46-.91,14.25-3.7,20.89-6.95l1.03.62c-.19.24.11.56.64.55l121.76-1.99,75.43-1.3c8.23-.14,15.84-.76,23.86-1.49,2.89-.26,5.24-1.78,7.86-2.29,5.18-1.03,10.51-.8,15.83-1.01l20.13-.79c-6.02-11.57.26-20.28,1.96-30.68.29.21.56.43.78.7s.41.5.44.75c.23,2.15.37,4.31.34,6.48-.67,14.56-1.21,29.08-1.62,43.56.3,3.64,1.11,7.17,2.44,10.59l-53.96.19Z"/>
    <path class="st140" d="M584.07,254.18c2.3,3.3,5.79,5.67,8.65,8.49l-.48,1.39c.5,4.49.4,10.65-1.25,14.86-1.48,3.77-4.89,5.7-8.4,7.57-4.54,2.43-10.43,5.21-15.19,7.21-11.08,4.64-22.9,3.62-34.84,2.14-12.7-2.26-25.47-3.83-38.33-4.72-7.12.6-14.11,1.9-20.96,3.91-.19.48-.69.8-1.12.5-1.44.27-2.55.09-3.35-.52,2.42-3.24,7.31-6.36,9.1-10.75.63-1.53-1.45-2.9-2.34-3.75-.02-1.15.6-2.26.2-3.48-.71-2.16-2.94-3.31-4.79-3.54-2.09-.27-4.17.44-5.25,2.12-.88,1.19-2.09.54-3.65-1.95-2.7-1.74-6.27-.85-8.84.77l-1-.42c-3.44,0-6.52.27-10.01,1.32-5.77,2.08-11.24,4.6-16.4,7.54l-.57-.36c-.9,12.05,11.95,4.94,17.52.26,2.64-4.2,17.96-15.53,21.08-6.83.45,1.25.26,2.53-1.13,2.03-.98.44-1.74,1.12-2.27,2.06l-12.12,7.65c-5.2,2.83-10.92,4.25-17.15,4.26-9.09,1.82,5.37.03,8.07-.44,3.75-.66,6.88-1.84,10.02-3.98l13.53-8.83,1.06-.13c-.73-.98.06-3.32,1.87-2.52,2.3-.3,3.82-2.01,6.45-.14,1.05.74,2.12,1.89,1.46,3.47-1.84-.08-2.82-2.06-4.64-1.65.37,2.3,2.35,2.43,3.86,3.3-.9,1.43-2.5,2.56-3.99,3.39-1.41-.75-2.05-1.96-3.76-2.36-.45,1.86.84,2.57,2.32,4.08-17.76,13.12-8.77,7.51-26.71,12.68-3.46,1-14.73,1.31-18.92,1.57-1.55.1-3.34-.99-4.87-.18-1.9,1.01-3.09-.28-4.76-.6-11.22-2.19-22.06-4.74-33.13-7.73-5-1.35-9.69-2.52-14.27-4.87-1.67-.86-2.65-2.5-2.99-4.43l-.81-4.6-1.21-10.91c-.16-1.44.54-2.67-.52-4.04-1.2-1.56-.63-3.37,1.03-4.56,6.05-4.39,14.72-2.46,21.64-2.1,1.58.08,2.26,1.03,3.51,1.59,6.84,3.09,13.17,6.68,19.13,11.13-1.01,3.14-1.55,6.48-.82,9.86l-4.05,3.57c-.78.69-1.93,2.25-1.26,3.46,1.83,3.3,6.28,4.45,9.55,2.74,5.14-2.69,1.76,4.48,14.38-1.4.67-.31,1.42-.78,1.09-1.23-2.1-2.83-6.55,3.55-10.5.88-.94-.63-2.61-2.23-2.23-3.43.98-1.35,2.88-2.2,4.42-2.63.1,1.32-.98,1.81-1.28,2.95,1.12.78,2.02-.36,2.76-1.09.78-.77-.06-1.68-.47-2.87l5.03-3.89c2.85-2.2,6.64-3.61,10.24-4.27l9.29-1.7c2.02-.37,4.21-.75,6.03-.86.44,0,.61-.22.5-.63-2.82-.64-13.49.52-16.36,1.27-3.27.85-6.8,1.91-9.6,3.83l-11.19,7.66c-1.85,1.26-1.1,3.35-1.1,4.87-2.15,2.06-7.15,1.87-9.02-.96.88-1.64,2.65-2.4,3.73-3.68.19-.3.41-.25.64.07.16.65-.52,1.09-.62,2.1,1.2.38,1.98-.54,2.64-1.32.67-.79-.26-1.85-.26-2.69,1.46-3.47,15.03-10.14,17.97-11.04,5-1.53,10.47-.67,15.19-2.58,2.01.15,4.01.15,5.98-.01l35.11,5.3c1.91.29,2.96-.23,4.62-.37,8.05-.71,15.53-2.71,23.47-4.55,8.97-2.08,17.52-3.93,25.99-7.65,6.2-2.72,12.53-4.43,19.16-5.77,6.52-1.32,14.86.31,12.47-2.21-3.68-1.11-7.33-.73-10.9-.68.42-1.32,1.68-2.05,3.78-2.2l8.24.16c.33-.18.67-.34,1.02-.43,2.57-.68,12.87,4.66,15.85,6.5Z"/>
    <path class="st140" d="M440.83,47.93c-.75-.77-.48-1.02.47-.57,6.51,1.12,13.04,1.93,19.83,2.76l15.11,1.86,18.59,1.9c-1.02,6.63-6.45,12.12-3.6,18.36.88.32,1.73.55,2.54.7l2.87,2.56,2.88-1.25c2.41-2.65,5.11-4.83,8.1-6.53,14.23-2.47,4.9,16.73-.15,21.61l.74.56c.68-.65.85-.4.63.48l-.69,7.5c-.06.64.22,1.47.75,1.67.28.1.86-.61,1.11-.44,2.56.81-1.08,15.29-.35,21.24l1.03,8.45c.09.77.78,1.63,1.16,1.3l.71-4.84,4.56,3.6c.89.7,1.91,1.13,2.91.94.81.18,1.04.76,1.19,1.5.18,1.7-.67,3.27-2.56,4.7-6.9,5.6-14.23,10.51-21.99,14.71l-12.05,17.69c-2.85,5.01-5.76,9.94-8.75,14.78-1.07,2.53-2.44,5.44-3.91,7.81-.1.15-.35.21-.64.25l-.57.5c.43.17.43.33,0,.5-.25.64-.58,1.12-1.03.47-1.69.55-2.56-2.98-.93-3.44.61-.92.56-1.43-.15-1.53l-1.26-2.18c-1.54-10.2-3.21-20.33-5.03-30.4-1.44-5.41-3.74-10.1-6.92-14.09-.46-1.45-.19-2.11,1.29-1.69.12-.44.28-.45.5-.03l1.04-1.08c-.11-2.77,2.57-3.95,3.38-.34-.3,5.07.35,10.33.55.95.08-3.93-.02-7.56-.31-11.48-.33-4.49-.89-6.93-4-9.9-.61-.92-.18-1.53.62-2.16,9.31-.92,1.93-.75-2.29-.09-2.24,0-6.81-.53-7.46-2.82,1.13-.64-.56-.72-1.5-.62-1.29,1.51-4.25-1.35-5.24-2.59-1.21-1.51-2.11-3.52-2.2-5.48,1.15-4.64.66-8.73-1.48-12.29-1.35-.46-.23-2.3.72-2.59,3.75-1.14,4.34,3.46,4.21,6.25,3.09.69,5.94.08,8.55-1.69,1.82-.48,3.59-.07,5.3,1.23,4.48-2.27-4.6-9.03-7.14-10.48l-.14-1.31c0-.44-.18-.77-.56-.99-1.15.13-2.26-.39-3.32-1.55-1.99,4.17-7.92-1.94-7.19-4.91v-.52c.29-.26.43-.71.14-1.04l-.32-.55c2.4-3.63,5.34-7.06,8.59-9.84-.18-.48.1-.55.58-.55-.04-.45.03-.63.5-.5.03-.45-.18-.62-.63-.52l-.54.42c-1.83-2.41-3.7-3.03-5.62-1.85l-.74-.09c-.04-.31-.16-.66-.3-.94-.02-3.07-.05-5.71-.11-7.95l.97-.89c-3.19-1.35-9.93-1.83-9.06-5.07l.92-.62,6.96,3.58.72-.54Z"/>
    <path class="st140" d="M516.73,12.92l1.07,1.65c.37.52.85.96,1.43,1.34,2.07,1.94,3.68,4.46,4.87,7.05-.23.65-.26,1.13.16,1.07,2.48,5.37-.11,13.57.42,18.44-.08,1.04-.26,2.01-.54,2.9-6.77-1.16-13.65-1.17-20.71-1.64l-18.21-1.23c-14.18-.95-27.94-1.73-41.94-4.58,2.27-9.03,7.59-22.78,14.64-28.58,6.43-.65,12.74.36,19.22.39l33.09.18c2.33.01,5.53,1.53,6.5,3.02Z"/>
    <path class="st97" d="M549.77,315.35l-21.06.28c-22.31.3-44.64-.21-67.09.65l-9.39.36h-37.07c.59-4.8.88-9.37,2.07-13.77,1.41-1.39,4.16-.48,5.84-.15,5.99,1.19,13.65,2.41,19.58,2,1.94-.13,3.94,1.1,5.88.61,7.61-1.9,14.07-6.04,20.27-10.32.72-.5,1.96-.4,2.91-1.21.26.82.12,1.28.44,1.73-.24.5-.21.67.09.5.18-.43.63-.65,1-.38,9.67-4.26,20.31-4.91,30.8-3.16,15.54,2.84,31.12,4.42,46.39,5.13.88.15,1.52.49,1.54,1.4-1.13,5.16-1.6,10.28-1.41,15.38l-.79.94Z"/>
    <path class="st140" d="M532.36,50.49c1.45,1.27,3.03,2.29,4.74,3.07,2.12,2.09,3.74,5.42,2.26,8.51-1,2.09-3.03,3.54-4.64,4.87-.19-.24-.36-.22-.51.08-.25.38-.57.72-.99.92-.18-.24-.35-.23-.5.04-3.55,2.37-7.86,3.15-12.16,4.2l.68-11.05c.82-.12,1.42.21,1.96-.24-1.02-2.72-3.52-4.79-6.47-5.56-12.32-3.23-24.71-4.15-37.49-5.42l-38.44-3.84c-.37-.04-.73.05-.88.19-.12.11-.11.3-.09.51l-.58.06c-.4.09-.79.15-1.18.15-2.83-.02-15.07-7.44-10.36-11.35.35-.29.72-.4,1.12-.14,2.15,1.67,4.7,2.69,7.62,3.2l20.02,3.48c9.42,1.64,18.65,1.89,28.17,2.56,8.6.6,16.86,1.29,25.48,1.44,5.79.1,17.89,1.04,22.25,4.31Z"/>
    <path class="st7" d="M816.98,38.38c.38.21.72.53.68.94-.61,2.38-1.49,6.66,1.63,7.42,2.13.06,3.7.63,4.72,1.72.86.35,2.01,1.97.98,2.43-.39.7-1.03.03-1.65-.27-1.28-.62-4.49-.95-5.56.42l-15.05,19.02c-4.52,5.71-8.3,11.62-12.37,17.67-5.12,7.6-9.19,15.47-13.3,23.64l-7.5,14.91c-.43.96-.58,1.82-.45,2.6l91.6,26.91c.47.14.47.97.51,1.21s-.68.61-1.3.43l-112.77-33.14c-4.29-.61-9.02-2.24-12.98-3.99-1.35.11-3.85-.35-4.5-1.43-.19.26-.36.24-.54-.04-.9.12-1.4-.07-1.5-.57-.17.2-.33.18-.5-.03-1.21.1-2.04-.19-2.46-.86-.18.25-.36.23-.54-.04l-1.04-.51c-.77.45-3.16.02-3.41-.96-.16.27-.33.22-.49-.08-2.02-.21-4.69-.6-6.05-2.01-.89-.74-.37-.89,1.55-.45.14-.35.27-.61.33-.6,12.52,2.75,25.07,6.81,37.11,11.15l14.33,4.24c.64-2.87,2.42-5.29,3.75-8.12,6.25-13.32,12.84-26.17,21.19-38.3,3.07-4.46,6.25-8.4,8.74-12.89,2.85-4.16,6.17-7.96,9.96-11.42,1.84-2.49,4.68-4.7,6.27-7.54-4.07-1.66-1.1-9.18.13-11.83l.51.37Z"/>
    <path class="st140" d="M509.32,88.8c-.37-.28-.57-.68-.34-1.09,2.78-4.04,7.93-12.87,5.71-17.71-3.24-7.06-12.34.98-15.52,4.06-2.1,1.78-3.9,1.4-5.4-1.13-1.01.15-2.08.32-2.54-.7.82,0,1.68.31,2.57-.22-2.45-6.04,2.01-11.51,3.33-17.9l16.6,2.75c1.97.33,3.54,1.24,5.4,2.39-.55,8.1-.26,16.22-2.36,24.16l-4.03,15.27c-.42-1.43-1.78-1.69-2.82-2.14-.62-.59,1.04-8.66-.61-7.75Z"/>
    <path class="st7" d="M488.7,164.7c-4.23,6.26-8.03,12.7-11.41,19.34-.31.3-.69.33-1.12.18-1.07.83-.82-.05-.3-1.07,3.41-8.14,7.92-15.73,13.29-23.06,11.26-15.39,1.22-6.33,18.28-17.04,5.32-3.34,10.43-6.64,13.78-11.77-.08-1.51.17-3.08.76-4.7-.06-1.87-8.12-5.59-8.64-5.51.05.93.03,1.54-1.06,1.75-1.56.46.27-8.48.02-6.04l.15,1.98c1-2.01,7.69,2.23,9.62,3.09,4.39,1.97-1.21,5.88,16.34,11.3l12.94,4c6.09,1.88,12.25,2.82,18.16,5.47,3.76,1.69,7.91,4.05,10.51,7.07,4.04,4.71,5.83,10.51,6.74,16.39.66,4.27,2.32,8.52.58,13.02-.87-7.54-2.89-21.76-9.33-27.63-7.89-7.18-15.3-8.65-25.83-11.17-4.76-1.14-9.09-2.67-13.69-4.25-4.83-1.67-9.33-3.01-13.75-6.15-7.61,12.82-15.44,13.88-26.57,21.18-3.83,4.1-7.35,8.74-9.46,13.6Z"/>
    <path class="st140" d="M109.95,95.51c-4.58,0-9.26-6.93-7.11-11.81.75-1.7,2.72-1.85,4.31-1.66,5.61.69,1.87,7.16,5.02,6.34,1.53-.4,1.19-6.38-2.78-7.78,4.56-1.71,8.73-2.79,13.31-2.49,1.76,5.8,3.26,11.2,5.68,16.73-2.06-.06-3.78.32-5.58.13-.89-.09-1.56-.89-2.77-.58-3.28.84-6.7,1.12-10.07,1.12Z"/>
    <path class="st7" d="M887.52,314.49c.04.39-.37.56-1.07.56l-95.38-.16,53.35-.26c-3.34-5.96-2.98-11.24-2.69-18.13l1.06-25.37c.27-6.39.87-12.49-.13-18.52-.46-2.8-.46-5.52-1.72-8.46-2.7-6.31-5.35-12.54-7.31-18.91-.51-.61-.32-.9.46-.62,9.37,21.26,12.69,19.89,11.87,43.96l-1.06,30.94c-.11,3.31-.22,6.57.48,9.7.41,1.84.77,3.37.18,5.31l41.95-.04Z"/>
    <path class="st140" d="M100.1,76.63c-2.43-2.28-2.79-7.64.49-9.55,2.49-1.45,5.44,2.69,4.94,5.18-.19.96.2,1.52.45,1.83s1.54.6,1.65.18c.75-2.91-.1-5.85-2.01-8.2,4.51-.56,8.35-.06,12.52.74l3.91,9.88c-6.12-.64-11.57.78-17.27,2.45-1.48-.2-3.38-1.29-4.68-2.51Z"/>
    <path class="st97" d="M402.48,263.97c2.17-1.76,4.2-3.43,6.02-5.6,3.6-4.3-3.61-6.35-.22-9.76,4.51-4.55,2.37-8.71,7.45-13.58.44,7.47.68,14.44,2,21.61.12.63.57,1.13.43,1.66-.31,1.19-10.54,6.82-12.5,8.69l-3.18-3.02Z"/>
    <path class="st140" d="M429.86,258.6q-.06-.42,0,0c-.63,2.03-1.37,3.79-3.36,4.74-1.39.67-1.59,2.79-2.53,3.44-5.94,4.06-12.84,4.68-19.13,10.82.87-4.33.85-7.8,3.39-9.93.92-.23,1.76-.79,2.52-1.68,5.31-3.78,8.2-4.53,12.23-9.65,1.71,5.37,1.48-1.67,2.98-2.06,2.66-.7,4.55,2.25,3.91,4.32Z"/>
    <path class="st146" d="M135.88,110.72c-.02.59-.97.29-1.5.09-4.74-.39-9.44-1.67-13.82-4.03-2.54-1.37-3.8-4.72-2.49-7.33.49-.97,2.68-1.73,3.67-1.34,1.35.53,1.91,2.44,2.06,3.79.14,1.21,2.14,2.65,2.51,1.56.8-2.35-.86-4.47-1.57-6.48,1.04-.35,3.3-1.02,4.3-.37,2.82,4.65,4.86,9.37,6.84,14.1Z"/>
    <path class="st146" d="M122.1,168.33l-17.05,11.15c1.49-6.57,4.65-12.22,7.19-18.29,3.86,1.97,6.93,3.98,9.86,7.14Z"/>
    <path class="st188" d="M220.31,153.67c.26-1.82-.43-3.88-.5-5.87-.25-7.59-3.26-13.77-6.41-20.41-2.21-4.66-3.22-10.08-3.97-15.01,1.28.26,1.69,1.37,2.22,2.65,4.84,11.7,9.63,23.13,13.13,35.41-1.22,1.54-2.91,2.39-4.47,3.22Z"/>
    <path class="st22" d="M473.3,285.06c.4.24.81.5.88.9.21,1.22-2.22,2.96-3.5,4.22-.92-.16-1.46-.93-2.32-.95-.93.68.14,1.98.12,2.72-1.61,2.37-4.42,3.4-6.72,5.11-10.87,8.09-17.07,4.68-18.99,4.89-1.07.01-1.57-.29-1.5-.91,2.41-.39,4.96-.68,7.4-1.57l7.37-2.68c3.8-1.38,13.24-10.23,16.26-12.74.33-.51.67-.17,1.02,1.01Z"/>
    <path class="st99" d="M465.73,275.62v.44c-.63.87-1.71,1.4-1.86,2.52-.75,1.29-1.72.83-1.13-.6l.77-.24c-.86-3.15-3.65-4.87-6.78-3.64-2.85,1.12-6.66,2.21-8.71,4.68-3.34,4.02-6.87,7.2-11.82,9.37-2.76,1.22-6.16,2.93-9.22,1.51-3.29-1.52-3.36-8.59-1.71-7.15,1.05-.07,1.12.02.65.85l.41,1.18c1.11-.09,1.67.6,1.68,2.07,1.9,3.65,15.51-6.75,17.28-9.18,1.43-1.33,2.92-1.93,4.46-1.79-.1-.69.39-.92,1-.58-.46-1.11.51-1.14,1.49-1.05,3.07-2.66,9.67-3.51,11.67.31.46.87.96,1.45,1.81,1.29Z"/>
    <path class="st136" d="M826.49,44.41c-.03.65-.33,1.17-.91,1.51-1.68.77-3.67-2.81-4.09-4.26-.25-.86-.3-3.07.67-3.22.35-.78.32-2.29-.64-2-.53,4.82.27,7.11,3.5,10.8l-.5,1.11c-.11.34-.28.38-.52.11-1.97-.43-5.52-.18-7.12-1.99-1.21-1.65-.89-6.2.1-8.09,1.37-2.37,4.11-4.19,5.95-6.47,2.37,3.06.75,15.84,3.56,12.51Z"/>
    <path class="st171" d="M229.44,9.48c.21.29-.22.43-.58.44l-10.38.22-33.1,2.47c-.73.05-.52,1.1-.55,1.41-.3-1.39-.75-2.8-.88-4.37l45.49-.17Z"/>
    <path class="st192" d="M204.01,93.86l.41,1c.04.32-.1.69-.03,1.01-.59-.57-1.95-.67-2.53-1.48-1.38-8.66-2.98-17-4.94-25.54-.14-.63-.02-1.26.3-1.49,2.22,5.28,4.46,10.43,5.33,16.42l1.46,10.1Z"/>
    <path class="st157" d="M521.22,131.28c-.37.08-.93.03-1.23-.4-.18-.25.02-.71.04-1.1l.02-.42-.4-.55c-2.15-2.32-4.95-3.95-7.38-5.98l.13-3.43c3.1,1.42,5.99,3.07,9.01,4.72,1.66.91,1.88,2.3,1.22,4.01-.44,1.14-.18,2.69-1.4,3.15Z"/>
    <path class="st47" d="M567.2,248.11c-4.72,1.49-5.18-.65-12.02,2.03-3.34,1.31-7.13,1.32-10.53,2.44l-.15-.89c4.99-6.17,14.56-6.37,21.82-4.81l.89,1.23Z"/>
    <path class="st0" d="M428.87,35.06l-.05.44c-1.26.24-1.52,1.47-1.39,2.67.08.72.67,1.92,1.56,2.53,3.38,2.28,6.75,4.42,10.25,6.15.67.09,1.39.42,1.58,1.09.08.32.28.64.32.86.34,2.03-8.26-2.9-8.92-3.27-1.81-1.04-3.7-2.69-5.17-4.24-1.76-1.84-1.52-4.59.22-5.82l.42-.29c.1-.09.36-.04.5-.07.18-.41.44-.43.67-.04Z"/>
    <path class="st149" d="M99.41,226.69c-1.37-2.82-2.14-6.07-3.08-9.3-1.18-4.06-.2-7.97.53-11.75.01,2.95.42,5.95,1.03,9.06.81,4.14,1.12,8.09,1.52,11.99Z"/>
    <path class="st10" d="M217.32,177.22c.8-3.07.49-6.35.94-9.48.39,1.22,3.86,4.44,1.94,6.7-.92,1.08-2.29,1.61-2.88,2.78Z"/>
    <path class="st153" d="M437.26,37.05c.26-.16,1.97.16,2.1-.37.79-3.05,2.72-5.24,3.93-7.72-.42,2.91-1.58,5.59-1.52,8.75-1.76-.13-3.22.01-4.52-.66Z"/>
    <path class="st63" d="M473.3,285.06c-.41-.25-.7-.67-1.02-1.01.61-.49.97-2.14,2.16-2.25s2.32,1.9,1.31,2.74c-.54.44-1.75-1.19-2.56-.54-.45.37-.06.77.11,1.07Z"/>
    <path class="st24" d="M537.1,53.56c-.28,1.5-6.65-3.68-4.74-3.07,1.99.34,3.4,1.74,4.74,3.07Z"/>
    <path class="st74" d="M119.83,111.87c-.86.66-1.85.76-2.85,1.03-.6-.09-1.26.04-1.99-.22,1.04-1.76,3.29-1.68,4.84-.81Z"/>
    <path class="st138" d="M204.05,184.53c-1.77.74-3.57,1.06-5.29,1.67-.16.09-.33.1-.44-.18.36-.38,6.61-3.33,5.73-1.5Z"/>
    <path class="st100" d="M445.26,266.07c1.36.78-7.44.74-5.98.01,2.09-.85,3.88-.33,5.98-.01Z"/>
    <path class="st113" d="M165.9,156.72c.17.65.9,1.3.04,2.06-1.28,1.03-3.8-1.18-2.55-2.55.21-.14.39-.32.52-.54.39.79,1.23,1.39,1.78,2.12.41-.54.2-.84.2-1.09Z"/>
    <path class="st56" d="M441.26,301.04c.44.39.99.61,1.5.91-1.25.14-2.46.19-4.05-.03.79-.76,1.71-.74,2.55-.88Z"/>
    <path class="st60" d="M519.24,15.91c-.33.05-.67.03-1.01-.15-.39-.2-.29-.87-.42-1.19-.25-.16-.24-.33.03-.49.78.24.92,1.37,1.41,1.83Z"/>
    <path class="st115" d="M410.74,265.99c-.45.92-1.51,2.72-2.52,1.68.95-.79,1.53-1.55,2.52-1.68Z"/>
    <path class="st75" d="M524.15,45.37c.14-.96-.31-2.26.54-2.9.1.89.46,2.63-.54,2.9Z"/>
    <path class="st73" d="M441.3,47.35c-.24.03-.54.3-.47.57-.75.05-1.06-.83-1.58-1.09.19-.04.4,0,.58-.06.59-.21,1.02.49,1.48.57Z"/>
    <path class="st183" d="M120.45,59.95c-.53-.02-.48.63-.51,1.01-.08-.48-.83-.93-.5-1.55-.32-.16-.31-.33,0-.5.63-.08.67.72,1.01,1.04Z"/>
    <path class="st182" d="M115.35,97.95l-1.45-.12c.22-.16.61-.48,1.2-.51.27-.01,1.39.12.25.63Z"/>
    <path class="st54" d="M508.83,90.36c-.2-.17-.41-.33-.63-.48-.74-1.1.02-1.86,1.11-1.09.04.53-.32,1.15-.48,1.56Z"/>
    <path class="st32" d="M427.31,266.57c-.29.11-.48.62-.78.55-.16-.04-.6.01-.73-.26-.11-.22,1.26-.99,1.02-.76.08.22.26.38.48.46Z"/>
    <path class="st50" d="M135.88,110.72c1.08.49.02.68-.29.64-.56-.08-.97-.2-1.22-.54l1.5-.09Z"/>
    <path class="st158" d="M517.83,14.08l-.03.49c-.63-.32-1.18-.88-1.07-1.65.22.34.75.99,1.1,1.16Z"/>
    <path class="st26" d="M524.27,24.03c-.3.31-.55.31-.56.11,0-.52-.09-1.36.4-1.18.14.32.05.74.16,1.07Z"/>
    <path class="st140" d="M429.77,34.99l-.9.06c-.22.02-.45,0-.67.04-.06-.51.28-.66.8-.7.4-.04.49.48.76.6Z"/>
    <path class="st2" d="M446.76,269.18l.5-.63c.24.06.44.09.5.31.1.31.02.51-.24.73-.37.3-.59-.17-.76-.41Z"/>
    <path class="st140" d="M204.42,94.85c-.6,0-.36-.63-.41-1,.44.13.37.63.41,1Z"/>
    <path class="st36" d="M404.35,281.61c-.21-.04-.43-.06-.64-.07.04-.22.14-.35.32-.47.15-.1.39-.15.72.21.1.11-.05.51-.4.33Z"/>
    <path class="st8" d="M119.44,58.91c-.05.15.07.36,0,.5-.24.06-.37-.05-.5-.25-.09-.14-.13-.42.22-.72.11-.1.35.18.28.47Z"/>
    <path class="st69" d="M534.72,66.94c-.11.09-.37.02-.51.08-.1-.67.63-.81.51-.08Z"/>
    <path class="st129" d="M533.22,67.94c-.14.07-.35,0-.5.04,0-.64.61-.73.5-.04Z"/>
    <path class="st140" d="M520.05,129.35c-.21-.12-.25-.39-.4-.55.42-.1.42.24.4.55Z"/>
    <path class="st140" d="M693.54,108.87c-.42,1.75-1.7,3.21-3.84,4.39-4.42,3.06-8.91,5.95-13.47,8.68-.79,1.12-2.77,2.4-4.09,2.31-.12.87-1.62,1.97-2.5,1.56-.19.67-1.2,1.7-2,1.5-.08.51-.53.69-1,.5l-1.5,1.5c-.28.37-.11.37.5,0,.04-.51.49-.96,1-1,.15-.4.57-.58,1-.5.15-.31.31-.31.5,0,.01-.65,1.21-1.71,2-1.5.48-.61,1.76-1.69,2.56-1.5.82-1.11,2.56-1.99,3.89-2.43,3.98-3.14,8.28-6.13,12.89-8.97l.97.45c.69-.26.59-.02.14.56.81.15.63.48-.22.48l.3.21c.55-.79,1.82-1.96,2.86-1.83,1.47-1.72,3.11-2.67,4.92-2.84l1.69-.61c.43-.36,1.16,0,1.5.5.13-.41.74-.36,1,0,.44-.19,1.22.08,1.5.5.95-.16,2.07.14,2.5,1,.17-.24.33-.24.5,0l1,.56c.62-.66,1.29-.37.91.5.24.46.1.65-.41.55l-.54.94,146.13,45.21.29,1.14c.72.26,1.07.61,1.03,1.05-.05.44-.17.97-.51,1.05-11.93,2.58-23.98,3.49-36.27,4.4-9.38.74-18.59,2.55-27.71,4.8-11.05,2.72-25.18,6.54-35.35,11.38-1.54.73-2.59,1.35-2.07,2.8-2.34,1.29-4.79,2.28-7.34,2.96-2.34-1.01-4.88-1.72-7.63-2.12-7.01-3.5-13.55-7.86-19.64-13.1l-17.43-9.25c-5.9-4.22-11.8-6.4-18.93-7.52-2.37-1.54-5.86-3.58-7.93-3.72-9.45,3.63-.61,14.62,5.55,17.07,4.26,1.53,13.69,6.33,13.21,11.75-.14,1.54-.77,1.97-2.19,1.4l-27.48-11.41-.15-.56-.76.15c-4.05-1.57-8-3.28-11.84-5.13-1.49-.05-3.11-1.04-4.37-1.87-.24.31-.43.28-.57-.08-.48.08-.93,0-1-.5-.5.21-1.18-.07-1.5-.5-.44-.34-.61-.34-.5,0,.82.18,1.32.51,1.5,1,.56-.26,1.36-.1,1.5.55-.02-.45.27-.35.57.02,1.33.12,2.91.9,3.89,1.81,4.11,1.13,8.64,2.76,12.1,5.14l.87-.13,27.16,11.24c.84.93,1.01,1.24.09,2.13-2.88,2.79-12.09,4.43-16.17,4.45-12.37.07-24.2-1.09-36.12-2.68-1.69,0-3.3.15-4.82.46-.02.72-1.34,1.17-2.06.97-1.74,1.31-1.58,1.48.5.5.03-.61,1.46-1.18,2.04-.92.83-.91,2.14-1.26,3.93-1.03,12.72,1.6,25.32,3.09,38.26,2.63,5.24-.19,10.51-1.94,14.95-4.69,2.59-1.61,2.48-3.59,1.17-6.11-2.44-4.7-7.12-6.71-11.86-8.41-4.25-1.66-11.98-9.48-9.91-14.32.26-.61,3.33-3.14,3.92-3.18.8-.06,7.32,3.15,7.75,3.81.94,1.43-1.41,4.84-3,5.37,1.83-.55,3.23-2.07,4.21-4.57,3.18.15,6.32.78,9.4,1.91,8.88,5.34,18.01,10.42,27.4,15.22,5.68,5.02,11.77,9.23,18.28,12.61l.39,1.14c1.01.41,1.17.77.5,1.08.57,1.06-1.75.99-1.64.98,4.87-.46,11.19-1.85,15.11-4.53.71-.19,2.07-.42,2.61.06.68.61,2.88,6.18,3.16,7.39,2.49,10.86,4.81,22,5.58,33.16l-.37,2.33c-.07,1.43-1.18,1.34-1.48-.04l-.4-.9c-8.41.47-17.18.91-26.3,1.34-25.03-.33-49.93,0-74.72,1l-.91.48c-.38-.39-.96-.84-1.2-1.33-1.1-.5-1.95-1.45-2.53-2.86.13,1-.4,1.01-1.37.81l-41.65-11.79-.31-1.13c-1.2-.52-2.37-.75-3.51-.7-.74,1.36-2.39.63-1.91-.83-.34-.19-.71-.37-1.09-.53-1.09-.12-2.6-.4-3.5-1-3.1-1.18-6.26-1.88-9.49-2.09-.56,1.45-2.86.72-2.44-.84-.31-.4-.79-.4-1.11-.11-.75,1.14-1.11.89-.84-.43-.31-.38-.79-.35-1.1-.1-1.55,1.19-5.91.06-6.43-1.87-.24-.45-1.5-.86-2.55-.56-.84,1.08-1.35.95-1.52-.42l-.47-.08c-.37,1.46-3.39.58-2.87-.95.92-1.43-3.3.33-4.11-.48-.24-.24-.05-.8-.06-1.09l.97-1.24c17.26-12.99,34.57-25.92,51.94-38.79l.65.07c.86-1.26,2.08-2.4,3.67-3.44l-.7-1-1.09,1.07c-.08.45-.22.43-.42-.01-1.37.41-.19-1.11.48-1.58-.6-.59.19-1.8.94-2,.41-.69,4.06-5.08,4.4-5.09.19,0,.38.08.58.19.33-.66.7-1.27,1.21-1.74,9.16-8.54,20.58-16.18,31.09-23.03l24.21-15.4,1.47-.31c.81-.78,1.69-1.3,2.65-1.56.39.27.87.17,1.32.1Z"/>
    <path class="st140" d="M762.57,229.1l1.48.04,1.05.32c.59,1.93,1.19,11.09.08,12.47-1.9,2.37-7.1-3.72-7.68-5.7-.73-.23-1.4-1.28-1.32-2.01-.45.08-.29-.19-.04-.58-.4-.17-.58,0-.55.5.38.09.43.27.15.53.69.02,1.27,1.22,1.37,1.93,3.14,4.99,6.74,6.77,10.8,5.34l29.79-9.4.84.68c.35-.13,1.34-.02,1.26.15-1.12,2.57-6.69,12.73-8.59,13.45-.34.13-.71.19-1.08.23-.64.28-.69.37-.69,1.11.3.25.73.68.6.91-2.55,4.66-10.02,16.82-15.77,16.57-22.35-.97-43.58-11.39-61.16-24.5-1.73-1.09-4.93-4.86-6.04-4.59l.12-1.09s4.64-1.41,13.91-4.23c-.81-.71.72-.72,1.5-.71l2.49-.84c12.45-.18,24.73-.61,36.83-1.3l.63.72Z"/>
    <path d="M708.62,113.44c.55-.41,1.4-.29,1.5.47,2.05.2,6.1.88,7.83,1.88.12.07.14.29.14.56.13-.26.29-.23.48.03,1.48-.07,2.66.28,3.54,1.03l.52.38c0-.83.53-.56.93.09,1.36-.16,2.19.12,2.5.84.36-.3.85-.34,1.04.1.45-.48,1.13-.13,1,.56.15-.23.32-.21.5.02,1.47.07,3.73.32,4.57,1.41,4.43.58,9.06,2.06,13.04,4.04l112.03,34.57c2.8.87,5.32.2,8.12,1.7-1.13,1.31-2.48.8-3.84,1.07-8.51,1.66-16.74,3.66-25.43,4.42l-19.83,1.73c-5.18.45-9.86.96-15.06,2.06-15.81,3.34-31.11,7.74-46.41,13.58,1.39,3.43,3.29,6.55,4.23,10.24,3.19,12.52,4.95,25.05,6.58,37.9.37,2.95.15,5.88-.07,8.48-.3.9-.24,1.23.16,1l20.95-6.88,27.79-8.58c10.85-3.35,21.57-5.43,32.91-6.64,13.1-1.4,25.64-3.1,38.67-5.3l27.45-4.64c.42-.07,1.18.25,1.55.36,8.72,2.64-62.46,11.52-63.95,11.72l-16.34,2.23c-.71.1-1.31.32-1.63.77-.14.2-.07.65-.46.62-.11-1.91-14.47,2.35-16.52,2.91l-16.9,4.61c.03.58-.53.73-1.67.45l-30.41,9.41c-2,.62-3.78,1.73-5.75.21-2.19-1.68-4.27-3.78-5.27-6.23-.24-.4-.1-.51.39-.37,1.25,1.11,5.24,6.25,6.67,5.35,1.59-1,.06-10.99-.12-12.45-1.4-11.2-3.22-22.34-5.71-33.58-.69-3.1-2.18-5.87-3.19-8.6-2.73-.1-4.53,1.66-6.68,2.44-4.51,1.64-9.3,1.88-14.08,2.13,1.57-1.9,3.66-.96,5.21-1.77.26-.33.09-.7-.5-1.08-5.13-1.14-12.83-8.11-17.01-11.37-5.2-4.05-12.76-6.37-19.01-10.46l-8.45-5.53c-2.85-1.86-7.24-2.46-10.56-2.78-.99,2.33-2.27,5.34-5.43,4.74-1.44-.27-3.07-1.47-3.66-2.91l4,1.12c1.29-.56,3.19-3.13,2.41-4.4-1.83-1.4-4.65-2.39-6.74-3.11-1.11.34-3.13,1.67-3.22,2.87-.21,3.07,1.12,6.17,3.43,8.2,2.12,1.86,4.34,4.42,7.17,5.22,5.74,1.63,11.12,5.26,12.31,11.57.27,1.43-1.33,3.28-2.56,4.05-4.85,3.03-10.28,4.66-16.15,4.86-11.85.41-23.27-.73-34.95-2.53-2.32-.36-4.62-.77-6.49.07-.51.12-.67-.06-.48-.55,3.26-2.37,12.72-.2,18,.34,7.68.78,15.2,1.24,22.91,1.06,5.76-.14,11.18-1.4,16.26-4.65l-28.19-12.22c-.65-.65-.33-.84.97-.59l29.02,11.45c-.9-12.92-23.84-8.82-22.78-26.94l4.58-3.87c3.42.95,6.05,3.27,9.33,4.16l9.57,2.61,20.21,11.01c2.86,1.56,5.63,2.39,8.13,4.59,4.42,3.89,9.23,7.17,14.37,10.12,2.49,1.43,5.15,2.04,8.01,2.34,3.08.32-.45,2.83,8.82-1.23-.2-.48-.9-.81-.85-1.64,24.9-10.36,48.65-17.22,75.64-18.74,6.89-.39,21.78-2.03,27.8-3.76.04-.4-.3-.75-1.03-1.05l-95.83-29.49-58.65-18.32c2.2-2.02,3.84-.33,8.59.53Z"/>
    <path class="st7" d="M575.19,291.61l-5,2.29c-5.27,2.41-10.51,4.4-16.42,4.7l-1.76,14.32c-.16,1.3-1.16,2.41-2.24,2.43-1.18-4.4.56-11.65,1.33-16.68l-18.4-1.18c-13.12-.84-25.68-4.4-38.93-4.91-7.18-.28-13.88,1.62-20.52,3.08-.72.15-.71-.05.03-.61,6.48-2.88,13.53-4.52,20.95-4.91,12.75.53,24.77,2.66,37.28,4.55,7.92,1.2,15.7,1.15,23.7,1.17,8.15.02,16.54-5.8,24.96-9.35,3.09-1.3,6.38-3.24,8.66-5.67,1.76-1.87,1.53-5,2.27-7.29,2.1-6.49-1.67-10.73,1.61-10.88,1.15,2.49.28,5.4.61,8.48,2.43-1.34,6.14-2.23,7.82-4.55,4.25-5.83,2.83-13.56-1.45-18.87-6.17-7.63,2.89-15.79-5.39-29.74-.46-.78,1.15-2.24,1.66-1.67,4.99,5.62,5.46,16.06,4.15,23.31-.39,2.18-.08,4.09,1.31,5.81,4.96,6.15,6.86,16.69,1.47,22.88-2.13,2.45-6.17,2.86-9.1,4.2-1.08,2.88-.51,6.85-2.8,9.41-2.62,2.93-6.39,5.12-9.91,6.81l-5.89,2.84Z"/>
    <path class="st7" d="M800.22,232.76c.32,2.18-6.59,12.97-8.23,15.36-5.23,7.62-7.84,16.02-15.91,18.93-5.39,1.95-26.1-3.89-32.26-6.2-10.88-4.08-20.7-10.05-29.78-17.15-.98-.76-1.31-1.6-.93-2.56.79-.82,1.39-.33,2.28.31,8.94,6.41,18.09,12.33,28.54,16.26,9.55,3.6,19.43,6.31,29.69,6.93,3.93.24,7.67-3.99,9.47-6.75l6.36-9.74c-.13-.62.07-1.03.69-1.11,3.63-4.11,6.32-8.94,9.3-13.64-.42-.23-.67-.13-.89-.2.59-.18,1.05-.28,1.67-.45Z"/>
    <path class="st7" d="M370.59,227.61c-.79-2.54,0-7.25,2.62-8.82,2.57-1.54,3.65-2.74,4.74-5.56,2.32-5.97,4.59-11.78,5.71-18.22.62-3.55,1.25-7.07,2.51-10.46,3-8.13,7.72-15.1,13.22-21.66,1.68-2.01,3.2-3.68,5.62-4.86,9.44-4.59,19-8.39,28.89-12.03,2.8-1.03,5.32-2.72,8.24-3.2,3.25-.52,4.69-2.46,5.95-5.67.93,4.06-2.52,6.41-5.72,7.76l-9.18,3.88c-9.94,4.2-19.77,7.69-29.58,12.33-6.67,7.21-12.03,15.18-15.4,24.42-2.79,7.63-1.69,13.74-7.71,27.36-1.07,2.41-1.78,5.34-4.26,6.73-5.47,3.08-1.95,5.85-5.64,8Z"/>
    <path class="st7" d="M438.77,75.4c.82,2.1,4.3,6.34,6.36,5.31-.88-1.2-2.47-1.69-2.54-3.45,2.71,1.29,4.97,2.72,6.69,4.61,1.31-.16,1.38-.02.56.99,3.38,2.38,7.09,4.39,8.97,8.43.44.94.96,2.14.47,2.91-2.72,4.29-3.98-2.34-8.37.85-2.75,2-7.96,1.15-8.17,1.04-1.29-.71.57-4.91-2.25-6.45-.92-.5-2.01,1.03-2.16,1.82.05,3.07-3.37,1.57-2-1.12-.15-3.34.63-6.83,3.29-9.22l-2-5.64c-.26-.72.12-1.1.16-1.52.56-.15.89.33.99,1.46Z"/>
    <path class="st88" d="M762.57,229.1l-18.98,1.2c-7.14.45-14.08.75-20.97.22-8.99,1.08-18.1,1.07-27.32.68-3.91.4-7.63.17-11.16-.67l-6.48.47-17.41.03c-1.36-2.25,14.11-1.6,16.41-1.82,10.73-1.03,21.15-.63,31.95-.62l15,.02c8.27,0,16.24.01,24.48-.55,1.35-.09,18.4-1.93,14.48,1.04Z"/>
    <path class="st88" d="M574.35,204.21c.48.62,2.16.72,2.87.95l.47.08c.48.24,1.02.27,1.52.42.72-.33,2.08-.04,2.55.56,2.05.9,4.26,1.32,6.43,1.87.34-.32.86-.29,1.1.1.28.13.54.35.84.43.33-.37.89-.28,1.11.11.68.59,1.63.55,2.44.84.92-.22,2.26-.02,3,.59l1,.5c.14-.44.31-.43.5,0l1.5.5c.14-.44.31-.43.5,0l1,.5c-.02-.69.66-.53,1,0,1.73.22,3.23.72,4.5,1.5.14-.38.79-.3,1.09.03.59.36,1.23.67,1.91.83,1.13-.07,2.3.16,3.51.7l40.86,11.62c.84.24,1.16.6,1.1,1.3.61-.09.57.25-.12,1.03l-83.1-23.03c.4-1.87,1.64-1.22,2.42-1.44Z"/>
    <path class="st177" d="M447.26,111.79c.62-.31,1.66-.19,1.5.62,9.28,3.83,7.65.26,16.42,1.58.49,2.77-4.8,1.44-6.8,2.45,1.18,1.82,3.26,3.24,3.72,5.57,1.44,7.35,1.42,14.78.74,22.18-.08.89-1.6,2.16-1.85,1.27-.86-3.13.01-6.04-.5-9.08-.93.41-1.46,1.32-2.22,1.87.07.9-.1,1.37-1.04,1.08l-.5.03c-1.58,1.58-1.83.07-.96-1.59.16-.24.38-.79.41-1.07l1.4-2.55c1.23-.88,1.81-1.6,1.76-2.15.53-2.87.7-5.77.52-8.69-.32-1.11-.14-1.9-1.13-2.98-5.37-5.88-11.56-4.73-16.08-8.94-3.63-.56-4.34-4.96-3.85-8.08.65-2.48.89-5.02.5-7.47-.92-.86-2.22-3.45-.95-4.39.71-.25.97.48,1.31.99,2.3,3.41,1.39,7.09,1.17,10.98-.23,3.89,3.27,7.07,6.45,8.38Z"/>
    <path class="st177" d="M452.36,130.18c1.23-1.07,1.71-.45.47.49-1.47,2.16-3.34,2.23-2.15,5.98.26.83,3.99,3.1,4.4,2.28.17-.35.41-.76.68-1.17-.05.32-.07.76.13,1.13.13.24.47.44.83.46-.17.34-.41.4-.87.95,2.27,1.11,2.67,3.51,3.77,5.52,3.25,5.97,4.76,11.92,5.43,18.64.8,7.95,2.8,15.56,3.57,23.25.9-.23.81,1.11.15,1.53.12,1.19.28,2.41.93,3.44.61.07.62.57.03,1.52l1.1.5c-.14,1.2-.63,2.65-1.92,3.02-2.21-3.61-2.68-7.43-3.26-11.47l-3.93-27.46-.58-.29c-.74-2.44-1.39-4.85-1.96-7.22.03-.15.1-.33.06-.47l-.51-1.07c-3.16-9.05-3.11-6.66-8.46-10.54-1.86-1.35-2.14-4.6-1.2-6.48.72-1.45,2.39-1.72,3.27-2.54Z"/>
    <path class="st88" d="M542.11,252.26c-4.98-1.2-5.01-13.85-2.87-18.1.94-1.86,2.81-3.03,3.3-5.17-1.09-3.05-2.47-6.09-3.12-9.39-1.1-5.55,6.26-7.97,2.26-15.96l-.11-16.13c-.01-1.87.89-3.7,1.5-5.41.86,6.03,1,11.66.9,17.58-.04,2.43.87,4.5,1.39,6.66.99,4.18-2.04,7.57-3.12,11.2-.98,3.3,1.8,6.84,2.59,9.95,1.49,5.89-6.18,6.69-5.17,14.15-.32,3.76.4,7.2,2.48,10.62Z"/>
    <path class="st146" d="M722.61,230.52c-.59-.11-1.26.26-1.5.71-13.76,4.04-20.64,6.06-20.64,6.06l-.84-.8c-1.18-.05-2.33.16-3.46.61-1.01,1.17-4.21.58-5.64.19-.54.83-1.78.23-.98-.69-1.23-.99-2.21-2.15-2.96-3.47-1.14.29-1.33-.49-1.39-1.53-.04-.58-.5-.98-1.05-1.08,7.88-.57,15.78-.27,23.96-.06,5.07.13,9.82-.31,14.52.05Z"/>
    <path class="st22" d="M624.12,159.18c.48-.17.59.11.55.59,1.12,1.41-.52,2.37-2.02,2.47l-1.94,2.13c-15.75,11.75-31.52,23.47-47.3,35.16l-2.64,1.16c.49-1.54.45-3.28,1.51-4.52l.85-.13,3.3-4.56c1.38-1.54,3.82-4.25,5.81-3.87,1.67-1.09,1.01.31-.07,1.15.34.1.33.26,0,.46-.34.46-.34.63,0,.5.06-.41.23-.58.5-.5.21-.64.54-.98,1-1,.17-.47.59-.81,1.03-.58.37-1.05,1.72-1.92,2.84-2.27,5.51-4.76,11.38-9.28,17.62-13.57-1.37.39-1.53-.21-.5-1.12.26-.46.53-.9.86-1.3,2.08-2.57,12.02-7.92,15.62-9.74.42-.21.9-.31,1.4-.39s1.04-.08,1.57-.07Z"/>
    <path class="st27" d="M693.13,107.79l-3.56,2.54c-5.67,4.49-11.64,8.43-18.16,12.21-14.3,8.3-27.25,17.91-39.82,28.26-1.49.9-1.32.22-.43-1.05,11.94-10.93,25.05-20.37,39.15-28.71,7.29-4.31,13.87-8.83,20.62-13.88.87-.65,2.08-.4,3.02-.23-.12.57-.54.63-.81.85Z"/>
    <path class="st88" d="M622.65,162.25c1.07-.81,2.39-1.02,1.09.44-.28.5-.56.98-1.26,1.5l-49.3,36.84c-1.09.82-1.96,1.36-3,1.62-.02-.71.38-1.31.59-1.95,17.16-12.94,34.07-26.41,51.88-38.44Z"/>
    <path class="st99" d="M626.62,155.71c-.31.75-.15,1.61-.94,2-.51.62-1.03,1.11-1.56,1.47-6.69,3.43-13.01,7.58-19.44,11.49-.11.46-.27.48-.5.07l-1,1c-.13.45-.3.45-.5,0l-.5.5c.4.49.11.71-.5.5.07.7-1.17,1.43-1.89,1.62-.71.78-1.96,1.87-3.04,1.9-.15.71-1.32,1.61-2.06,1.53-.19.88-1.16,1.31-2.02,1.45-.07.25-.17.49-.34.63-1.28,1.11-8.75,7.5-9.33,7.68-.23.07-.49.07-.75.05-3.45,2.94-7.11,5.75-9.5,10.24-.78-.75-.28-1.16-.47-1.67,1.76-2.07,2.85-5.18,4.93-6.99l.3-1.14c3.41-2.94,6.98-5.71,10.72-8.32,11.6-8.22,23.11-16.41,36.07-22.81.75-.37,1.41-1.26,1.91-1.6l.42.39Z"/>
    <path class="st88" d="M595.43,246.01c-2.53-1.54-5-3.46-7.3-5.32-8.42-6.8-18.44-10.69-29.37-10.9-3.13-.06-5.83,1.49-9.28.72,10.76-5.49,27.6-2.06,36.34,5l9.14,7.39c.89.72,1.55,2.31.46,3.12Z"/>
    <path class="st21" d="M584.07,254.18c-.93.22-1.88-.02-2.87-.52-4.62-2.35-9.19-4.4-14-5.55-7.84-1.87-16.33-1.97-22.7,3.59-.47-2.71,7.32-5.8,10.99-6.26,10.55-1.31,18.59,1.78,27.53,6.89.86.49.71,1.36,1.05,1.85Z"/>
    <path class="st150" d="M752.1,123.87l-37.44-10.55c-2.59-.14-5.18-.89-7.54-1.99-.74.25-1.83-.16-1.5-1,1.16-.19,2.31.11,3.61.4l8.53,1.92c11.91,2.68,23.64,5.94,34.33,11.21Z"/>
    <path class="st83" d="M369.3,238.13l2.54.42c4.54.57,8.71,2.67,13.13,4.51,1.97.82,17.46,7.76,14.49,10.3l-7.59-4.87c-5.05-3.24-10.63-5.36-16.25-7.57-3.43-1.35-6.89-1.97-10.32-1.79-.74.37-1.49.31-1-.5.13-.05.36-.01.5,0l2.5-.5c.62-.16,1.4.22,2,0Z"/>
    <path class="st123" d="M721.11,231.23c-.11.2-.1.91-.49,1.03l-13.54,4.28c-3.12.99-6.62,2.66-9.95,2.3l-6.92-.75c-.83-.52-.67-.89.31-.8,1.81-.6,3.75-.45,5.64-.19,1.14-.48,2.29-.68,3.46-.61l19.23-5.56c.92-.27,1.71-.27,2.25.3Z"/>
    <path class="st83" d="M492.22,166.21c-.8.58-1.06.33-.55-.51,8.3-13.42,5.48-11.51,18.46-19.36.52-.32,1.7.35,1.59.7-.57,1.68-8.3,5.92-11.91,9.3-3.15,2.95-4.98,6.72-7.59,9.87Z"/>
    <path class="st1" d="M568.27,224.28c.84.54.74,1.79.05,2.12-7.52-4.4-14.32-9.56-20.71-15.59.57-.86,1.31-.47,1.91,0,6.13,4.7,12.12,9.19,18.74,13.48Z"/>
    <path class="st118" d="M401.82,245.31c.22.72-.12,1.44-.37,1.68-.36.35-.95-.4-1.21-.9-5.71-10.75-4.28-9.31-13.4-19.07,1.77-.35,2.64,1.28,3.82,2.25,5.18,4.21,9.1,9.38,11.15,16.04Z"/>
    <path class="st186" d="M471.34,193.73c-.45-.1-.48-.27-.1-.53.68-2.72,2.71-6.32,4.35-8.92.06-.1.29-.1.57-.06l6.78-11.28c1.78-2.97,3.37-6.04,5.75-8.24l-1.21,2.79c-1.66,3.82-4.89,6.91-6.71,10.74-1.45,3.05-6.43,16.34-9.43,15.5Z"/>
    <path class="st118" d="M458.29,151.75l.38.54c.02.15.05.32.09.47,1.57,1.01,2.29,4.25,2,6.07-.36.53-.55,1.37-1.55,1.47-1.8-4.34-2.96-8.7-5.09-12.82-.97-1.87-3.19-2.57-3.82-4.85,6.71,2.14,6.7,6.69,8,9.1Z"/>
    <path class="st102" d="M695.63,110c-.31.86-1.55,1.75-2.39,1.77.04.76-.96,1.18-1.61,1.05-.15.56-.62,1.09-1.18,1.03l-13.86,8.52c-.43.21-.53.04-.36-.44,5.37-4.46,12.32-8.33,17.31-13.07.17-.03.37-.02.55-.02,2.13-1.01,4.47.55,1.54,1.15Z"/>
    <path class="st23" d="M441.29,61.92c.74.68.79,1.79.16,3.31v1.77s4.04-4.28,4.04-4.28l1.21.17c.47,0,.68.14.47.57l-8.27,10.39c.33.23.17.84-.14,1.04v.52c-.18-.48-1.08-.77-.98-1.46.15-1.34,1.52-2.5,2.12-3.74-.47-2.31-2.11-6.99.87-8.25.11-.46.28-.46.52-.04Z"/>
    <path class="st51" d="M456.17,136.69c.25-3.06,1.62-5.85,3.5-8.44l.18-4.94c.85,2.95.02,6.1.6,9.45-1.6,1.49-2.79,2.82-4.27,3.93Z"/>
    <path class="st40" d="M588.23,179.72c-3.45,3.38-7.39,6.3-11.02,9.45-.22-.53-.52-1.11-.44-1.62.2-1.23,11.06-7.55,11.46-7.84Z"/>
    <path class="st180" d="M447.63,61.88c.2.17.18.35-.02.52l-.38.37c-.1.38-.27.41-.52.11-1.11,0-2.22.14-3.35.44-.72-.47-1.4-.94-2.07-1.41-.16.05-.37-.03-.52.04-.03-.53.02-1.07-.04-1.59.47-.78,1.19-1.45,1.87-1.54,3.2-.42,3.89,2.27,5.03,3.06Z"/>
    <path class="st51" d="M442.64,111.39c-1.1-.04-3.46.62-4.08-.66-1.19-2.45-.34-5.26.23-7.42.16,2.75,1.68,6.06,3.85,8.08Z"/>
    <path class="st103" d="M800.11,68.8c.48-.86.28-2.19,1.18-3.16,2.8-2.98,5.6-5.94,8.78-8.26-3,4.06-6.49,7.74-9.96,11.42Z"/>
    <path class="st120" d="M686.58,233.14c.81,1.32,1.8,2.48,2.96,3.47.14.34.55.83.98.69l-.31.8c-1.63-.18-3.54-.24-4.58-1.66-.97-1.33-.93-3.26-.44-4.83.62.35,1.04.92,1.39,1.53Z"/>
    <path class="st25" d="M659.05,229.7c-1.21.45-2.17-.37-2.83-1.81-.55.01-.77.62-1.2.79l.12-1.03c1.25-.4-1.04-3.75,1.03-4.87.55,2.68,1.81,4.71,2.87,6.91Z"/>
    <path class="st9" d="M461.74,158.8c-.33.03-.66.04-.99.04-.88-1.94-1.4-4.03-2-6.07.71-.08.35-.98.45-1.48,1.63,2,2.17,4.92,2.54,7.51Z"/>
    <path class="st15" d="M440.43,59.42c-1.22-2.45-.86-5.37-.11-7.95,1.87-.14.08,2.17.72,6.99.07.51-.27.89-.61.95Z"/>
    <path class="st132" d="M438.33,91.44c.61,1.46.72,2.93.95,4.39-1.3.3-1.41-1.12-1.99-2.08-.45-.75-1.53-.9-1.57-1.64-.05-.8.12-1.38.61-1.8.02.68-.26,1.4.15,2.2.98-.46,1.3-.92,1.85-1.08Z"/>
    <path class="st37" d="M631.59,150.81c-1.71,1.41-2.85,3.83-4.97,4.9l-.42-.39c1.46-1.95,3.14-3.89,4.96-5.55.08.34-.15,1.18.43,1.05Z"/>
    <path class="st62" d="M102.42,201.16c-.09.47-.93,1.01-1.31,1-.55-.01-.85-1.46-.44-1.99.35-.46,1.86.42,1.75.99Z"/>
    <path class="st43" d="M261.33,259.09c-.91.29-1.71.42-1.91.09-.28-.47.19-1.02.43-1.54.34-.74.87-.4,1.12.05.24.42,1.15,1.15.36,1.4Z"/>
    <path class="st140" d="M705.62,110.33c.12.96-.7.82-1,0-.64.36-1.63.15-2-.5-.15.42-.76.35-1,0-.51.16-1.18-.07-1.5-.5-.14.42-.78.4-1,0,1.91-1.32,4.57-.06,6.5,1Z"/>
    <path class="st162" d="M455.15,128.83c-.48.84-1.58,1.31-2.32,1.84.28-.4-.03-.82-.47-.49.59-.55,1.64-1.58,2.36-1.82l.43.47Z"/>
    <path class="st76" d="M697.62,109.33c.44.14.43.31,0,.5,0,.75-1.07,1.21-1.58.56-.52.28-.66.15-.41-.39.4-.17.71-.62,1.04-1.08-1.1-.21-1.81-.05-2.58-.07.94-1.06,2.8-.71,3.54.48Z"/>
    <path class="st0" d="M471.25,193.2c.05.16.06.36.1.53.08.39-.38.7-.49.97-.24-.08-.64.47-.86.44-.38-.05-.24-.72-.24-.94.12-.9.46-1.4,1-1.5.66-.77.96-.45.5.5Z"/>
    <path class="st144" d="M492.22,166.21c-.58.7-.52,1.52-.94,1.92-.81.19-.88-.19-.53-.91.22-.78.49-1.27.92-1.51.17.19.35.36.55.51Z"/>
    <path class="st62" d="M491.28,168.13c.24,1.36-1.06,1.59-1.1.33-.03-.8.42-1.05.57-1.24.1.34.28.66.53.91Z"/>
    <path class="st52" d="M371.84,238.55c-.83.02-2.07.48-2.54-.42.96-.35,1.72.31,2.54.42Z"/>
    <path class="st52" d="M367.3,238.13c-.66.66-1.63.56-2.5.5.47-.86,1.67-.43,2.5-.5Z"/>
    <path class="st19" d="M699.12,109.33h1c.45.15.44.32,0,.5-.65.85-1.28,1.23-1.68.1-.11.53-.8.61-.82-.1v-.5h1.5Z"/>
    <path class="st52" d="M365.3,239.13c-.27.63-1,.36-1.5.5-.31-.15-.3-.31,0-.5.13-.18.28-.41.5-.5.1.45.6.52,1,.5Z"/>
    <path class="st68" d="M363.8,239.63c-.26.07-.17,1-.76.51-.21-.18-.34-.44-.25-.73.06-.17.23-.34.51-.28l.5.5Z"/>
    <path class="st44" d="M455.15,128.83l-.43-.47c.28-.09.09-1.03.79-.57.25.16.35.39.26.74-.07.28-.41.26-.61.3Z"/>
    <path class="st102" d="M693.13,107.79c-.34.28-.61.66-.91.98-.71.76-1.88.96-2.65,1.56.98-1.05,2.17-2.15,3.56-2.54Z"/>
    <path class="st9" d="M459.26,150.81c-.56.08-.39-.73-.51-1.07.51-.06.43.73.51,1.07Z"/>
    <path class="st88" d="M363.8,239.63c-.33.07-.57-.17-.5-.5h.5v.5Z"/>
    <path class="st9" d="M458.66,152.29c-.38.23-.28-.36-.38-.54.45-.19.34.3.38.54Z"/>
    <path class="st140" d="M427.28,35.46c-.06-.29.16-.68.42-.29l-.42.29Z"/>
    <path class="st13" d="M822.16,38.44c-.83,3.41,1.57,5.16,3.42,7.48,1.57,1.97,3.42,4.58,4.25,7.13,2.08,6.34,5.93,24.49,4.82,30.31-.07.35-.62.85-.85.8s-.6-.63-.64-.98c-.53-5.25-1.01-10.31-2.09-15.29-.75-.22-.89-1.32,0-1.5-1.04-.66-1.23-1.16-.56-1.5l-2.1-9.8c-.41-1.93-1.38-3.26-2.39-4.62-.75-.26-1.26-.97-1.52-2.13-3.34-5.72-4.93-3.92-3-11.9.93-1,1.01,1.11.64,2Z"/>
    <path class="st11" d="M800.59,130.89c.06.45-.57,1.19-.79,1.17-2.28-.21-2.35-17.96-2.3-20.73.11-5.76.45-11.22-.08-16.99-.05-.53.78-.94,1.02-.94,1.53,13.37.35,23.62,2.14,37.49Z"/>
    <path class="st80" d="M831.08,66.4c-.43.35-.64,1.02-.64,2,.09,6.64.89,13.32,1.33,20.18,2.55.96,4.83-.08,7.23-.75,4.49-1.25,1.79-4.67,4.25-4.21,1.14.21.27,4.27-.61,4.79-2.79,1.65-9.82,3.53-11.96,1.56-.7-.65-.68-1.57-.72-2.6l-.79-18.98c-.06-1.53.17-2.78,1.36-3.48.1.48.81.81.56,1.5Z"/>
    <path class="st108" d="M789.78,107.06c-.06-1.93,9.29,15.93,5.89,13.37-1.94-4.33-4.77-8.28-5.89-13.37Z"/>
    <path class="st82" d="M834,21.51c-.3-1.05-.11-1.36.57-.94,2.15,5.26,2.86,16.12,1.49,14.12-.99-1.45-1.07-10.34-2.07-13.18Z"/>
    <path class="st163" d="M734.15,120.29c4.48.78,8.69,2.73,12.98,3.99-.32.16-.63.35-.91.57-4.35-1.34-8.77-2.46-13.04-4.04-.28-.5.05-.68.97-.52Z"/>
    <path class="st187" d="M834.57,20.57c-.27.26-.45.59-.57.94-.48-.98-.99-2.02-1.13-3.26,1.2.28,1.35,1.45,1.7,2.32Z"/>
    <path class="st39" d="M826.04,50.48c-.27.19-.84.17-1.06.4.27-.96-.37-1.74-.98-2.43.16.03.35-.12.52-.11.46.51,1.08,1.53,1.52,2.13Z"/>
    <path class="st143" d="M769.09,128.86c-.23-.07-.51.06-.97-.17.34-1,1.03-1.66,1.42-2.43.12.9.03,1.82-.45,2.6Z"/>
    <path class="st170" d="M831.08,66.4c-.14.38-.08,1.1,0,1.5l-.64.5c0-.66-.94-1.43-.21-2.52.29.22.53.46.85.53Z"/>
    <path class="st98" d="M766.7,241.59c-.14.87-.62.42-.64.21-.04-.53.31-1.04.48-1.21l.16,1Z"/>
    <path class="st139" d="M163.39,156.23c.48,1.41,1.92,1.72,2.55,2.55,3.12,4.09,7.99,5.67,6.02,8.05-8.63-5.43-15.34-14.2-20.31-22.35-.09-.38.76-1.08,1.06-1.09-.33.01,9.2,12.26,10.68,12.84Z"/>
    <path class="st94" d="M146.71,137.47c-.02.45-1.23.06-1.37-.25-.16-.34.2-.94.73-1.82.4.35.68,1.1.64,2.07Z"/>
    <path class="st154" d="M190.28,162.06c-.62.12-2.09-1.48-.9-1.84.42-.13,1.04,1.27.9,1.84Z"/>
    <path class="st125" d="M113.09,18.43c.52.28.3.55-.27.61-1.16-.08-1.01-.68.27-.61Z"/>
    <path class="st99" d="M462.74,277.99c.34.09.62.8,1.13.6-.07.56-.41,1.15-1.09,1.49-5.15,2.53-13.75,9.79-19.32,11.5-5.12,1.57-10.4,1.5-15.61,2.28-.59.09-1.08-1.62-.63-1.82,4.55-1.93,9.95-1.12,14.75-2.52,5.06-1.48,9.31-5.11,13.78-7.8l4.56-2.74c-.68-1.01-1.69-1.59-1.53-3.18,1.51.54,2.44,1.81,3.94,2.19Z"/>
    <path class="st11" d="M452.25,274.02c-.48.41-.85.85-1.49,1.05-.54.03-1.04,0-1.5-.1l-.33.61c-2.42.67-15.35,4.37-16.09,5.67,3.91,4.13-5.58,8.97-4.8,3.42,3.69-3.47-.25-2.03-1.69-.11-.36-.65-1.03-1.18-1.06-2.03l4.78-2.71c5.59-3.17,16.29-8.58,22.2-5.8Z"/>
    <path class="st118" d="M473.25,295.66c-.31.07-.64.44-1,.38-.33-.09-.35-.26-.09-.5l1.12-.5-.03.61Z"/>
    <path class="st18" d="M509.32,88.8c-.49.11-.77.86-1.11,1.09-2.04,1.35-8.2,6.64-10.37,1.26-2.5,4.12-4.94,8.44-8.35,11.98-.75-.3-.9-1.46-.47-2.09,2.52-3.74,5.13-7.22,7.3-11.2.48-.87.6-1.92,1.68-1.94.76-.01,1.82-.72,2.33.46-.5.61-.99,3.03.26,3.12,2.89.2,5.97-2.07,7.8-4.48,2.69-3.55,9.21-15.23,3.99-18.18-6.93-3.92-11.83,10.28-16.92,7.27-.95-.56-1.45-1.96-1.68-3.15.24-.04.47-.23.69-.2.29.04.52.26.72.63,2.47,4.72,10.19-11.23,18.45-5.95,6.36,4.06-1.32,17.23-4.31,21.38Z"/>
    <path class="st175" d="M485.09,158.33c-.44.63-.99-.12-1.07-.34-1.35-3.66,17.38-21.92,22.65-24.06-.54,3.28-3.68,3.9-5.21,6.09-6.33,5.32-11.53,11.38-16.37,18.31Z"/>
    <path class="st11" d="M470.81,56.76c.53.54,5.87,8.59,3,8.56-1.98-1.81-2.45-4.84-4.27-6.71-3.03-3.12-7.13-3.83-11.17-4.43-.96-.39-1.67-2.12-1.15-3.36,2.66,3.68,8.01.25,13.59,5.93Z"/>
    <path class="st160" d="M461.91,65.31c-1.13.1-1.23-1.67-1.51-2.32-1.05.28-1.4,1.15-2.39,1.02.39-1.92,2.32-2.64,3.78-2.88,1.89-.32,3.6.38,4.66,1.97.69,1.04,1.25,2.29.19,3.47-1.2-.8-1.35-2.18-2.5-3.25-.96.21-.96,1.89-2.22,2Z"/>
    <path class="st30" d="M503.81,83.28c-.42.24-.56.06-.45-.45,1.34-1.08-.7-2.39-.58-3.54.59-5.82,8.46-10.11,8.6-8.16.08,1.1-6.15,2.84-6.98,7.98-.12.72,1.28,1.91.75,2.82-.31.53-.72.86-1.34,1.34Z"/>
    <path class="st155" d="M446.99,51.3c1.03.37,3.29,2.62,3.09,5.12-.23,2.85-2.3-2.75-4.54-3.81-1.6-.76-3.5-1.19-3.85-3.44,1.9,1.12,3.49,1.48,5.3,2.13Z"/>
    <path class="st31" d="M476.17,184.22l-4.92,8.98c-.07-.23-.29-.4-.5-.5-.41-.13-.4-.3,0-.5.03-.16-.04-.34,0-.5l.57-.5c1.48-2.71,2.59-5.68,4.55-8.05.08.33-.16,1,.3,1.07Z"/>
    <path class="st131" d="M449.84,82.85c-.37-.26-.32-.72-.56-.99.86-.49,1.9-1.15,2.26-2.02.42-1.02-.52-1.82-.87-3.21,1.34-.43,2.47,1.08,2.61,2.08.39,2.71-3.29,3.36-3.44,4.14Z"/>
    <path class="st117" d="M476.3,70.74c-2.48.75-5.41-.18-6.73-2.82,2.38.27,4.44,1.52,6.73,2.82Z"/>
    <path class="st181" d="M468.79,189.24l-.15-1.53c.13-.32-.12-1.53.64-1.49.85.04.52,2.67.19,2.98-.17.16-.45.21-.68.04Z"/>
    <path class="st189" d="M503.81,83.28c-.69.54-1.19,1.66-2.64,1.07.56-.98,1.42-1.23,2.19-1.53.14.16.29.31.45.45Z"/>
    <path class="st147" d="M448.76,112.41l-1.5-.62c.1-.58.87-.45,1.25-.49.58-.06,1.02.35,1.27.96-.65.24-.86.1-1.02.14Z"/>
    <path class="st42" d="M448.26,62.4c-.4.06-.62-.12-.63-.52.58-.57.9-1.63,2.17-1.44-.51.84-1,1.42-1.54,1.97Z"/>
    <path class="st173" d="M457.23,139.32c.17-.53.63-.78,1.04-1.08.03.48.15.92.52,1.45-.82.31-1.13-.17-1.56-.37Z"/>
    <path class="st186" d="M470.75,192.7c-.19.58-.49,1.14-1,1.5,0-.46-.05-1.04-.03-1.52l1.03-.47c-.03.16.05.35,0,.5Z"/>
    <path class="st130" d="M438.76,74.88l.14-1.04c.41-.17.4.49.34.77-.05.21-.24.35-.48.28Z"/>
    <path class="st7" d="M447.76,62.9c-.18.18-.42.35-.58.55-.21-.14-.29-.4-.47-.57.17,0,.35-.15.52-.11.23-.24.4-.19.53.13Z"/>
    <path class="st80" d="M448.26,62.4l-.5.5c-.29-.08-.34-.25-.15-.5-.05-.16.04-.35.02-.52.23.15.42.35.63.52Z"/>
    <path class="st186" d="M470.75,191.71c.06-.27.31-.45.57-.5-.12.21-.41.33-.57.5Z"/>
    <path class="st172" d="M455.68,312.32c.52-.6.94-.33,1.08-.04s.02.6-.25.74c-.29.16-.76.1-.82-.7Z"/>
    <path class="st20" d="M472.25,296.04c-.06.06-.02.58-.25.49-.27-.1-.34-.47-.24-.64.08-.13.13-.15.4-.35l.09.5Z"/>
    <path class="st49" d="M713.11,113.77c2.05.43,4.12,1.11,6.05,2.01-.2.24-.55.43-1.07.58-2.2-.6-6.06-1.64-7.97-2.44-.12-.36.23-.55,1.04-.55.06-.93,1.77-.37,1.95.41Z"/>
    <path class="st33" d="M714.66,113.32c-.47.13-1.59-.3-1.55.45l-1.95-.41c-.63.4-1.7.02-2.13-.47-.31-.13-.58-.4-.91-.5l-1-.56c-.16,0-.34.02-.5,0-.78-.75-.46-1.07.5-.5,2.64-.05,5.08,1.29,7.54,1.99Z"/>
    <path class="st49" d="M723.07,116.81l1.04.51.54.04c.98.89-.04.87-1.08.52l-.93-.09-.52-.38c-1.22-.19-2.53-.28-3.54-1.03.21-.24.57-.42,1.08-.53l3.41.96Z"/>
    <path class="st53" d="M734.15,120.29c-.37.07-.73.22-.97.52-1.49-.55-3.25-.45-4.57-1.41.12-.24.46-.42,1.04-.54,1.56.13,3.04,1.18,4.5,1.43Z"/>
    <path class="st134" d="M727.11,118.22c0,.22-.35.39-1.04.51-.86-.22-1.8-.25-2.5-.84.35-.11,1.13.01,1.08-.52.84.06,1.86.16,2.46.86Z"/>
    <path class="st53" d="M729.11,118.82l-1,.56c-.4-.06-.67-.39-1-.56-.04-.37.13-.56.5-.57.56,0,1.12.15,1.5.57Z"/>
    <path class="st184" d="M729.11,118.82l.54.04c.07.53-.7.43-1.04.54-.11-.08-.36,0-.5-.02.11-.45.57-.61,1-.56Z"/>
    <path class="st71" d="M719.16,115.78c.15.07.34.04.49.08.08.56-.73.43-1.08.53-.15-.03-.33,0-.48-.03-.15-.59.71-.45,1.07-.58Z"/>
    <path class="st184" d="M727.11,118.22c.15-.05.34.03.5.03-.14.21-.31.4-.5.57-.28-.15-.72-.02-1.04-.1,0-.48.7-.41,1.04-.51Z"/>
    <path class="st134" d="M724.11,117.32c-.34-.03-1.1,0-1.04-.51.38.11.88.04,1.04.51Z"/>
    <path class="st114" d="M429.86,258.6c-.05-.36-.07-.46-.06-.43s.03.22.06.43Z"/>
    <path class="st146" d="M449.26,274.98c.82-.22,1.09.04.5.68l-3.57,2.36c-.97.64-12.51,12.59-18.15,9.67-.88-.46-1.1-2.03-1.7-3.12-.3-.48-.36-1.06-.04-1.53.4-.59,3.28-1.91,3.9-1.23,1.71,1.88-2.08,2.64-1.53,4.6,1.88-.13,3.29-1.15,4.38-2.48-.35-1.11-1.14-1.74-1.74-3.05,4.6-2.26,13.11-5.82,17.95-5.9Z"/>
    <path class="st64" d="M450.76,275.08c-.31.1-.74.41-1,.58l-.5-.68c.23-.06.48-.46.77-.4.33.07.82.06.73.5Z"/>
    <path class="st31" d="M822.16,38.44c.15-.64-.03-1.71-.64-2,.11-.47.16-.92.52-1.28.3-.3.9-.34.94,0-.78,1.21,0,2.47-.82,3.28Z"/>
    <path class="st88" d="M700.54,224.61c-13.63.2-24.45-2.84-37.89-3.88l-22-1.69c-5.1-.39-14.44.35-14.99-5.25,1.46-.09,1.42,1.49,2.47,1.9,2,.78,4.73,1.18,7.01.91.64-.14.29-2.29-.46-2.48-1.18-.3-2.32.27-3.06-1.02,1.22-.8,3.29-1.47,4.43-.34.99.97.41,2.52.54,4.23,8.89-.07,17.46,1.63,26.44,2.21l13.64.88c-4.41-.28,40.16,4.29,23.87,4.52Z"/>
    <path class="st99" d="M629.25,193.2c.32,1.15-.19,3.1.87,4.09,1.41,1.31,3.65,1.5,5.24,1.7-.41-1.06-.13-2-.65-2.62-.4-.47-4.57-1.72-2.87-2.37,1.35-.52,3.82.54,4.53,1.81.51.9-.29,3.32.95,3.6,6.7,1.5,13.41,2.25,19.99,4.14,3.83,1.1,7.4,1.64,11.34,2.22,2.8.42,16.88,4.73,15.72,5.94-.36.37-.72.6-1.26.41l-12.97-4.52c-3.62-1.26-7.62-1.02-11.14-2.35-1.72-.65-2.6.05-4.09.08-10.15.24-19.06-2.33-26.13,5.44-.37.4-1.56.03-1.55.89-.91.66-.89-.06-.66-1.04.21-1.44,1.3-2.58,2.81-3.32,9.03-4.41,7.48-3.19,16.26-4.09.34-.19.34-.37,0-.56l-5.55-.99c-3.8-.68-7.94-1.08-11.19-3.2-1.3-1.63-.52-4.47-.28-6.27.64-.6,1,.31.62,1Z"/>
    <path class="st139" d="M695.59,118.34c.11.8-.87.99-1.51.94l-55.92,34.41c-1.02.48-1.34.36-.97-.38l61.49-39.19c.49-.31,1.19-.08,1.39.13.94.99-3.06,2.47-4.49,4.1Z"/>
    <path class="st175" d="M632.22,165.25l48.58,18.36c.86.33,1.45.48,1.62,1.09s.49,1.14-.41,1.74l-50.86-20.64c-1.02-1.03-.12-.96,1.06-.55Z"/>
    <path class="st80" d="M636.05,151.48c-1.35.84-1.71.49-.48-.47,9.23-6.85,18.45-13.09,27.99-19.12.39-.25,1.02.34,1.23.43.22.1.18.62-.31.93l-28.44,18.23Z"/>
    <path class="st70" d="M663.69,171.68c-.37.12-.71.3-.97.59-4.01-1.74-8.21-3.13-12.1-5.14-.63-.53-.47-.67.48-.42,4.42,1.03,8.42,3.33,12.6,4.98Z"/>
    <path class="st124" d="M623.74,162.68c.22-.38-.08-.46-.28-.47-.37-.02-.61-.04-.81.03.86-.58,1.35-1.71,2.02-2.47-.45-.28-.28-.44.53-.48.13-.01.29.04.42.01l1.09-1.07c.76-.08,1.75-.33,2.54.46-1.67,1.99-3.4,3.44-5.5,3.98Z"/>
    <path class="st110" d="M638.17,153.68c-1.94,1.19-3.71,2.87-5.95,3.58-.74.58-1.03.36-.5-.48,1.5-1.62,3.7-2.34,5.49-3.48.21.32.62.36.97.38Z"/>
    <path class="st142" d="M603.18,211.67c-.23.24-.56.24-1,0h-1l-1-.5h-.5l-1.5-.5h-.5l-1-.5c-1.06.12-2.02-.24-3-.59-.26-1.58,9.31,1.48,9.49,2.09Z"/>
    <path class="st92" d="M697.62,109.83l.82.1c.43.15.42.32-.01.51-1.71.92-3.11,2.2-4.92,2.84-.91.44-1.11.31-.39-.46-.17-.48.05-.67.55-.6.21-.85,1.47-1.59,2.37-1.84.48-.29,1.03-.62,1.58-.56Z"/>
    <path class="st178" d="M676.59,122.38c-1.23.76-2.28,2.14-3.89,2.43-.52.15-.71-.04-.55-.56,1.11-1.08,2.96-1.37,4.09-2.31.11.16.23.3.36.44Z"/>
    <path class="st169" d="M651.09,166.7c-.21.06-.61.12-.48.42-1.27-.66-2.82-.79-3.89-1.81-.37-.14-.37-.3,0-.48,1.64-.06,2.96,1.54,4.37,1.87Z"/>
    <path class="st168" d="M636.05,151.48c-1.21.78-2.15,1.64-3.32,2.15-.29-.17-.28-.33,0-.48.76-1.13,1.84-1.65,2.83-2.14-.41.4.04.95.48.47Z"/>
    <path class="st127" d="M693.52,113.28c-.95.34-1.68,1.73-2.86,1.83l-.3-.21c.28-.03.27-.25.22-.48.05-.54.54-.94,1.04-1.09.13-.32.29-.31.5,0,.03-.68.51-.96,1-.5-.01.26.05.54.39.46Z"/>
    <path class="st145" d="M632.16,189.21c-1.13.51-1.87,1.9-3.53,2.03.69-1.44,1.91-1.94,3.03-2.53.41-.18.56,0,.5.5Z"/>
    <path class="st167" d="M603.18,211.67c1.23.09,2.47.31,3.5,1,.44.14.43.31,0,.5-1.48-.52-3.18-.61-4.5-1.5.33,0,.67-.02,1,0Z"/>
    <path class="st160" d="M632.22,165.25c-.43-.03-.94.07-1.06.55-1.04-.42-1.75-.79-2.5-1.05-.23-.44-.04-.59.5-.5,1.45-.18,2.2.68,3.06,1Z"/>
    <path class="st65" d="M705.62,110.33c.52.29,1.01.66,1.5,1-.25,0-.46.28-.5.5-.9-.13-1.81-.38-2.5-1-.2-.42,0-.57.5-.5.29.07.7.05,1,0Z"/>
    <path class="st166" d="M672.69,124.81c-.81.15-1.51,1.65-2.56,1.5-.44.23-.59.04-.5-.5.87-.43,1.79-.88,2.5-1.56.15.22.34.41.55.56Z"/>
    <path class="st174" d="M581.76,206.23c-.88-.02-1.71-.32-2.55-.56.1-.73,1.21-.52,1.88-.29.34.12,1.51.29.67.86Z"/>
    <path class="st28" d="M670.14,126.31c-.61.18-1.26,1.37-2,1.5l-.5-.5c.62-.55,1.24-1.12,2-1.5.15.18.32.35.5.5Z"/>
    <path class="st90" d="M613.19,214.73c-1.21.07-2.34-.42-3.51-.7,1.16-1.2,2.44.39,3.51.7Z"/>
    <path class="st151" d="M695.59,118.34c.36.22.13.97-.11,1.23-.34.37-1.11-.06-1.4-.3-.08-.88,1.19-.57,1.51-.94Z"/>
    <path class="st140" d="M711.15,113.35c.07.53-.69.45-1.04.55-.37-.15-1.11-.4-1.5-.47.16-.16.3-.35.41-.55.79-.17,1.42.32,2.13.47Z"/>
    <path class="st57" d="M634.2,188.29l-2.04.92c-.18-.15-.35-.32-.5-.5.64-.34,1.48-.55,2.06-.97.13.21.3.39.48.55Z"/>
    <path class="st14" d="M739.6,189.76l-.5-1.08c.84.19,1.76.22,2.54.84-.83.52-1.53-.03-2.04.24Z"/>
    <path class="st77" d="M700.12,109.83c-.37.38-.22,1.35-.98,1.52-.51.07-.58-.73-.71-.91v-.51c.56.06,1.13-.09,1.69-.1Z"/>
    <path class="st193" d="M632.22,157.26c.48-.15-1.2,1.23-1.46.64-.33-.74.97-1.14.96-1.12.12.21.3.37.5.48Z"/>
    <path class="st30" d="M704.62,110.33c-.15.18-.32.35-.5.5-.55.02-1.11-.09-1.5-.5-.44-.14-.43-.31,0-.5l2,.5Z"/>
    <path class="st67" d="M666.64,128.3c-.25.41-.53.8-1,1-.15.33-.31.32-.5,0,.27-.68.85-1.17,1.5-1.5.44.14.43.31,0,.5Z"/>
    <path class="st176" d="M645.15,164.25c.2.42,0,.57-.5.5-.51-.26-1.35-.3-1.5-1,.1-.36.27-.34.5,0,.6-.14,1.07.12,1.5.5Z"/>
    <path class="st116" d="M627.24,211.67c0,.38-.65.75-.89,1.05-.69-1.02.15-1.54.23-2.08.02.44.21.89.66,1.04Z"/>
    <path class="st109" d="M701.62,109.83c.44.14.43.31,0,.5-.53,0-1.03-.26-1.5-.5.08-.11-.04-.36,0-.5.55,0,1.12.07,1.5.5Z"/>
    <path class="st93" d="M691.63,113.33c-.21.48-.6.83-1.04,1.09l-.14-.56c.16-.44.97-.69,1.18-1.03.31.15.3.31,0,.5Z"/>
    <path class="st85" d="M632.73,153.63c-.5.22-.33,1.07-1.31.66-.33-.14-.17-.47.21-.74.15-.11.3-.24.54-.34l.56.42Z"/>
    <path class="st4" d="M629.16,164.25c-.18.15-.35.32-.5.5-.39-.18-.98-.52-.95-.76.05-.4.8-.29,1.02-.15.14.08.22.15.43.41Z"/>
    <path class="st109" d="M646.15,164.75c.38.16.37.34,0,.55-.41-.39-1.04-.31-1.5-.55.15-.18.32-.35.5-.5.25.22.8.14,1,.5Z"/>
    <path class="st159" d="M629.25,193.2c-.11-.4-.14-.86-.62-1,.06-.44.32-.65.78-.5.4.13.23.86.24,1.18,0,.17-.08.36-.41.32Z"/>
    <path class="st12" d="M645.65,203.22v-.56c.4.07.9-.19,1.52.25-.42.49-1.02.26-1.52.31Z"/>
    <path class="st38" d="M667.64,127.8c-.19.34-.76.33-1,.5v-.5c.31-.16.74-.27,1-.5.31.15.3.31,0,.5Z"/>
    <path class="st126" d="M589.28,208.2c-.36-.07-.75,0-1.1-.1-.18-.5.63-.45,1.16-.43.21,0,.32.24-.06.53Z"/>
    <path class="st58" d="M591.24,208.74c-.36-.06-.75-.02-1.11-.11-.3-.55.7-.46,1.21-.46.23,0,.27.25-.1.57Z"/>
    <path class="st35" d="M607.76,213.2c-.34-.08-.76.08-1.09-.03v-.5c.31.21,1.64-.27,1.09.53Z"/>
    <path class="st89" d="M665.64,129.3c-.15.06-.08.47-.26.51-.25.06-.59.03-.73-.26-.1-.2.35-.2.49-.25h.5Z"/>
    <path class="st79" d="M855.54,161.77l-1.03-1.05c.69.21,1.4.42,2.05.77-.44.48-.78.21-1.02.28Z"/>
    <path class="st84" d="M643.65,163.75c-.16.04-.34-.02-.5,0-.28.07-.58-.16-.47-.28.28-.33.54-.33.72-.22.19.12.31.24.25.5Z"/>
    <path class="st65" d="M708.12,112.38c-.38-.11-.8-.17-1-.56.42-.02.93.07,1,.56Z"/>
    <rect class="st95" x="701.62" y="109.83" width="1" height=".5"/>
    <path class="st156" d="M625.62,159.31c.16-.52.59-.88,1.09-1.07-.3.28-.58.96-1.09,1.07Z"/>
    <path class="st139" d="M646.72,165.31l-.57-.02v-.55c.19,0,.38.09.57.08v.48Z"/>
    <path class="st55" d="M632.73,153.63c-.38.29-.66-.02-.56-.42.17-.07.39,0,.57-.05.17.15.12.31,0,.48Z"/>
    <path class="st156" d="M625.2,159.29c-.14.19-.37.31-.53.48-.17-.21-.36-.41-.55-.59.49-.39.83-1.29,1.56-1.47.9-.45-2.12,1.81-.48,1.58Z"/>
    <path class="st137" d="M577.69,205.24c-.14-.07-.33-.03-.47-.08.18-.41.54-.4.47.08Z"/>
    <path class="st111" d="M690.66,115.11c-.29.33-.68.09-.3-.21.25-.14.45-.1.3.21Z"/>
    <path class="st41" d="M668.14,127.8h-.5v-.5c.33-.07.57.17.5.5Z"/>
    <path class="st169" d="M757.5,236.23c-.14.11-.27.24-.39.37-.32-.6-1.35-1.06-1.37-1.93.07-.38.21-.54.44-.45.83.31.77,1.53,1.32,2.01Z"/>
    <path class="st161" d="M756.14,233.64c0,.38-.18.54-.55.5-.6-.45-.8-1.43-.2-2.04.28.78.39,1.2.75,1.54Z"/>
    <path class="st96" d="M790.14,247.05c-.21.39-.44.76-.69,1.11-.27-.29-.44-.65-.17-1.05.2-.31.55-.42.86-.06Z"/>
    <path class="st135" d="M756.18,234.22c-.03.23-.16.54-.44.45,0-.18-.12-.35-.15-.53.16-.19.35-.36.55-.5l.04.58Z"/>
    <path class="st134" d="M722.64,117.8c-.22-.02-.41-.19-.52-.38.19.03.74,0,.52.38Z"/>
    <path class="st122" d="M455.74,91.34c1.05,1.45-.06,1.1-1.03.02-3.56-2.66-6.78-2.06-11.15-4.26-.58-1.11.61-2.26-.84-3.11-.5,1.87-.41,3.39-1.37,4.67-1.16-1.14-2.26-.67-3.75-.1.45-2.41,1.61-5.55,3.82-6.32,1.03-.07,2.69,1.1,3.82.57,2.33-1.1,2.84,1.18,3.95,2.1,2.4,1.99,5.38,3.48,6.54,6.43Z"/>
    <path class="st12" d="M455.74,91.34c.31.79,1.49.96.88,2.09-.79-.67-1.43-1.3-1.91-2.07.12.1.35.13.52.32.27.29.59.12.51-.34Z"/>
    <circle class="st92" cx="442.76" cy="88.61" r=".32"/>
    <path class="st167" d="M599.68,211.18c-.54,0-1.29.12-1.5-.5.54,0,1.29-.12,1.5.5Z"/>
    <path class="st167" d="M601.18,211.67c-.4,0-.89-.04-1-.5.4,0,.88.06,1,.5Z"/>
    <path class="st167" d="M597.68,210.68c-.4,0-.88-.06-1-.5.39-.05.91.07,1,.5Z"/>
    <path class="st112" d="M689.54,236.61c-1.72-.32-3.18-1.67-2.96-3.47,1.31.73,2.22,1.91,3.41,3.16-.07.23-.3.25-.45.31Z"/>
    <path class="st185" d="M699.62,236.49c-1.21.35-2.16.79-3.46.61.87-.79,2.47-1.38,3.46-.61Z"/>
    <path class="st165" d="M605.18,171.79c.15.34.22.84-.29,1.19l-17.33,12.37c-1.34.82-1.59.6-.45-.47-.2-.24-.35-.45-.29-.57.4-.89,5.21-4.38,6.44-4.75.17-.71,1.18-1.35,1.91-1.45.35-.73,1.24-1.52,2.05-1.4.38-.93,1.85-1.86,2.87-2.09.42-.71,1.3-1.58,2.12-1.37-.01-.99,2.3-2.27,2.97-1.47Z"/>
    <path class="st63" d="M593.26,179.58l-6.15,5.31c-.55.99-1.69,2.09-2.77,2.29.12.46-.17.59-.65.53-.23.42-.55.86-1,1-.11.44-.28.45-.51.04.16-.22.21-.46.39-.62.36-.31.22-.7-.32-.54,3.34-2.85,6.44-6.27,10.42-8.36,1.22-.62,1.41-.51.59.34Z"/>
    <path class="st78" d="M587.56,185.36c-.77.55-1.97,1.99-2.84,2.27l-.38-.45c.39-.82,2.04-1.66,2.77-2.29-.41.39.02.91.45.47Z"/>
    <path class="st86" d="M605.18,171.79c-.91.29-2.27.71-2.97,1.47-.45.22-.61.02-.53-.53.2-.05.34-.37.5-.5l.5-.5c.15-.04.36.06.5,0l1-1c.15-.06.37.01.5-.07l.5,1.12Z"/>
    <path class="st80" d="M584.72,187.63c-.29.09-.77.43-1.03.58-.36-.15-.35-.31,0-.5.17-.12.56-.34.65-.53l.38.45Z"/>
    <path class="st178" d="M582.19,189.71c.1.15-.09.52-.26.49-.23-.04-.35-.57-.26-.71s.25-.14.52-.28v.5Z"/>
    <path class="st55" d="M583.69,188.21c-.32.27-.49.87-1,1-.33-.15-.32-.31,0-.5.15-.5.5-.88,1-1v.5Z"/>
    <path class="st133" d="M582.69,189.21c-.19.05-.26.46-.5.5v-.96s.5-.04.5-.04v.5Z"/>
    <path class="st45" d="M600.08,174.64c-.82.99-1.81,1.42-2.87,2.09-.51.2-.67.04-.47-.47,1.05-.59,1.74-1.71,3.04-1.9.4-.34.5-.23.3.28Z"/>
    <path class="st93" d="M595.16,178.13c-.43.6-1.4,1.01-1.91,1.45.32-.5-.38-.32-.59-.34.61-.32,1.38-1.04,2.02-1.45.5-.33.63-.26.48.34Z"/>
    <path class="st3" d="M597.21,176.73c-.6.38-1.39,1.08-2.05,1.4.02-.26-.26-.33-.48-.34.7-.45,1.28-1.09,2.06-1.53.1.21.27.37.47.47Z"/>
    <path class="st119" d="M602.2,173.26c-.57.61-1.57.88-2.12,1.37-.03-.16-.14-.26-.3-.28.66-.3,1.1-1.42,1.89-1.62.16.19.34.37.53.53Z"/>
    <path class="st165" d="M603.18,171.74c.18-.47.53-.82,1-1-.21.44-.54.82-1,1Z"/>
    <path class="st165" d="M602.18,172.24c.18-.15.3-.37.5-.5-.15.18-.32.35-.5.5Z"/>
    <path class="st61" d="M626.62,155.71c-.39.26-.75.01-.42-.39.36-.35.7,0,.42.39Z"/>
    <path class="st141" d="M696.04,110.39c-.56.86-1.48,1.36-2.37,1.84-.71.4-.86.25-.44-.46.71-.72,1.43-1.36,2.39-1.77.04.21.2.37.41.39Z"/>
    <path class="st3" d="M693.67,112.23c.04.4-.22.44-.55.6l-1,.5-.5-.5c.37-.6,1.18-.62,1.61-1.05.41-.18.49.12.44.46Z"/>
    <path class="st66" d="M446.71,62.88l-5.68,6.03c-1.2-2.34-.49-4.72.26-7,.38-.36.61-.85.97-1.3.44.89.69,1.55,1.32,1.78.52.19.89-.51,1.49-.75.76-.31,1.23.81,1.64,1.23Z"/>
    <path class="st7" d="M447.76,62.9l-.53-.13c-.16-.31.19-.32.38-.37l.15.5Z"/>
    <path class="st88" d="M455.15,128.83c-.28-.22-.37-.33-.43-.47.26.22.37.35.43.47Z"/>
    <path class="st136" d="M692.13,113.33c-.14.07-.35-.03-.5,0v-.5c.33-.07.57.17.5.5Z"/>
    <path class="st191" d="M584.72,187.63c-.34-.18-.39-.3-.38-.45.41-.08.37.27.38.45Z"/>
  </g>
</svg>