<?xml version="1.0" encoding="UTF-8"?>
<svg id="Ebene_10" xmlns="http://www.w3.org/2000/svg" version="1.1" viewBox="0 0 930 325">
  <!-- Generator: Adobe Illustrator 30.1.0, SVG Export Plug-In . SVG Version: 2.1.1 Build 136)  -->
  <defs>
    <style>
      .st0 {
        fill: #f7fcfd;
      }

      .st1 {
        fill: #f5f9fa;
      }

      .st2 {
        fill: #abdfe7;
      }

      .st3 {
        fill: #070707;
      }

      .st4 {
        fill: #7ba0a7;
      }

      .st5 {
        fill: #8eb9c0;
      }

      .st6 {
        fill: #222c2e;
      }

      .st7 {
        fill: #050505;
      }

      .st8 {
        fill: #010101;
      }

      .st9 {
        fill: #9bb9be;
      }

      .st10 {
        fill: #d3dfe1;
      }

      .st11 {
        fill: #424e4f;
      }

      .st12 {
        fill: #a7a7a7;
      }

      .st13 {
        fill: #eceff0;
      }

      .st14 {
        fill: #050606;
      }

      .st15 {
        fill: #030304;
      }

      .st16 {
        fill: #b2e5ed;
      }

      .st17 {
        fill: #111617;
      }

      .st18 {
        fill: #232323;
      }

      .st19 {
        fill: #020203;
      }

      .st20 {
        fill: #292929;
      }

      .st21 {
        fill: #e1ecee;
      }

      .st22 {
        fill: #e0f6f9;
      }

      .st23 {
        fill: #f7fafa;
      }

      .st24 {
        fill: #7ea3a9;
      }

      .st25 {
        fill: #283436;
      }

      .st26 {
        fill: #b0e6ee;
      }

      .st27 {
        fill: #b1e6ef;
      }

      .st28 {
        fill: #f2fbfd;
      }

      .st29 {
        fill: #e4edef;
      }

      .st30 {
        fill: #e3ebed;
      }

      .st31 {
        fill: #dbe7ea;
      }

      .st32 {
        fill: #030303;
      }

      .st33 {
        fill: #ddf4f8;
      }

      .st34 {
        fill: #eef4f5;
      }

      .st35 {
        fill: #080a0a;
      }

      .st36 {
        fill: #607d83;
      }

      .st37 {
        fill: #9bc9d1;
      }

      .st38 {
        fill: #111515;
      }

      .st39 {
        fill: #a8dbe3;
      }

      .st40 {
        fill: #d5e3e5;
      }

      .st41 {
        fill: #040606;
      }

      .st42 {
        fill: #97c5cd;
      }

      .st43 {
        fill: #0b0f0f;
      }

      .st44 {
        fill: #d3f1f7;
      }

      .st45 {
        fill: #141a1b;
      }

      .st46 {
        fill: #0f1414;
      }

      .st47 {
        fill: #f2f5f6;
      }

      .st48 {
        fill: #1f292a;
      }

      .st49 {
        fill: #181c1c;
      }

      .st50 {
        fill: #212b2c;
      }

      .st51 {
        fill: #243031;
      }

      .st52 {
        fill: #a9dce5;
      }

      .st53 {
        fill: #242e30;
      }

      .st54 {
        fill: #b2e0e8;
      }

      .st55 {
        fill: #9ac9d1;
      }

      .st56 {
        fill: #334245;
      }

      .st57 {
        fill: #d4e6e9;
      }

      .st58 {
        fill: #0b0e0f;
      }

      .st59 {
        fill: #171e1f;
      }

      .st60 {
        fill: #638185;
      }

      .st61 {
        fill: #a6d2da;
      }

      .st62 {
        fill: #c0d0d2;
      }

      .st63 {
        fill: #000101;
      }

      .st64 {
        fill: #0e1010;
      }

      .st65 {
        fill: #1a2123;
      }

      .st66 {
        fill: #82aab0;
      }

      .st67 {
        fill: #a8dae3;
      }

      .st68 {
        fill: #c1e8ee;
      }

      .st69 {
        fill: #e3eced;
      }

      .st70 {
        fill: #e6f7fa;
      }

      .st71 {
        fill: #272727;
      }

      .st72 {
        fill: #d8f0f3;
      }

      .st73 {
        fill: #a1d1d9;
      }

      .st74 {
        fill: #232e30;
      }

      .st75 {
        fill: #636363;
      }

      .st76 {
        fill: #e6f0f2;
      }

      .st77 {
        fill: #e3f6fa;
      }

      .st78 {
        fill: #fcfefe;
      }

      .st79 {
        fill: #060606;
      }

      .st80 {
        fill: #4b6266;
      }

      .st81 {
        fill: #495f62;
      }

      .st82 {
        fill: #020202;
      }

      .st83 {
        fill: #d9f3f8;
      }

      .st84 {
        fill: #0c1010;
      }

      .st85 {
        fill: #273234;
      }

      .st86 {
        fill: #b3e5ed;
      }

      .st87 {
        fill: #0b0b0b;
      }

      .st88 {
        fill: #a3d4dc;
      }

      .st89 {
        fill: #fff;
      }

      .st90 {
        fill: #2f3e40;
      }

      .st91 {
        fill: #020303;
      }

      .st92 {
        fill: #343434;
      }

      .st93 {
        fill: #0c0f10;
      }

      .st94 {
        fill: #2b383b;
      }

      .st95 {
        fill: #e3f5f7;
      }

      .st96 {
        fill: #cbeff5;
      }

      .st97 {
        fill: #84acb2;
      }

      .st98 {
        fill: #8fbbc2;
      }

      .st99 {
        fill: #040404;
      }

      .st100 {
        fill: #fafdfe;
      }

      .st101 {
        fill: #0e1313;
      }

      .st102 {
        fill: #151c1d;
      }

      .st103 {
        fill: #b1e3eb;
      }

      .st104 {
        fill: #0f1314;
      }

      .st105 {
        fill: #242f30;
      }

      .st106 {
        fill: #20292a;
      }

      .st107 {
        fill: #13191a;
      }

      .st108 {
        fill: #080808;
      }

      .st109 {
        fill: #addfe8;
      }

      .st110 {
        fill: #b0e5ee;
      }

      .st111 {
        fill: #434e4f;
      }

      .st112 {
        fill: #040505;
      }

      .st113 {
        fill: #e5f7fa;
      }

      .st114 {
        fill: #e4f4f7;
      }

      .st115 {
        fill: #425659;
      }

      .st116 {
        fill: #93c0c7;
      }

      .st117 {
        fill: #dbeff3;
      }

      .st118 {
        fill: #2f3c3f;
      }

      .st119 {
        fill: #0b0e0e;
      }

      .st120 {
        fill: #0a0d0d;
      }

      .st121 {
        fill: #171d1f;
      }

      .st122 {
        fill: #050607;
      }

      .st123 {
        fill: #e7f0f1;
      }

      .st124 {
        fill: #b2e7f0;
      }

      .st125 {
        fill: #799ea4;
      }

      .st126 {
        fill: #030404;
      }

      .st127 {
        fill: #b2e8f1;
      }

      .st128 {
        fill: #eaf8fb;
      }

      .st129 {
        fill: #afe2ea;
      }

      .st130 {
        fill: #1f1f1f;
      }

      .st131 {
        fill: #cedddf;
      }

      .st132 {
        fill: #070a0a;
      }

      .st133 {
        fill: #b3e4ec;
      }

      .st134 {
        fill: #4c6366;
      }

      .st135 {
        fill: #aee1ea;
      }

      .st136 {
        fill: #b1e7f0;
      }

      .st137 {
        fill: #ecf2f3;
      }

      .st138 {
        fill: #23292a;
      }

      .st139 {
        fill: #b1e5ed;
      }

      .st140 {
        fill: #cfe5e9;
      }

      .st141 {
        fill: #97c5cc;
      }

      .st142 {
        fill: #fcfcfc;
      }

      .st143 {
        fill: #252525;
      }

      .st144 {
        fill: #c3edf4;
      }

      .st145 {
        fill: #4f676a;
      }

      .st146 {
        fill: #080a0b;
      }

      .st147 {
        fill: #d8e0e1;
      }

      .st148 {
        fill: #101515;
      }

      .st149 {
        fill: #0f1415;
      }

      .st150 {
        fill: #89b2ba;
      }

      .st151 {
        fill: #6a6a6a;
      }

      .st152 {
        fill: #93bfc7;
      }

      .st153 {
        fill: #b2e3eb;
      }

      .st154 {
        fill: #88b1b8;
      }

      .st155 {
        fill: #333;
      }

      .st156 {
        fill: #b2e4ec;
      }

      .st157 {
        fill: #abd9e1;
      }

      .st158 {
        fill: #b0e4ed;
      }

      .st159 {
        fill: #f9fdfe;
      }

      .st160 {
        fill: #b2e1e8;
      }

      .st161 {
        fill: #415558;
      }

      .st162 {
        fill: #feffff;
      }

      .st163 {
        fill: #010202;
      }

      .st164 {
        fill: #192022;
      }

      .st165 {
        fill: #0e1212;
      }

      .st166 {
        fill: #c3ecf4;
      }

      .st167 {
        fill: #1f292b;
      }

      .st168 {
        fill: #171a1a;
      }

      .st169 {
        fill: #e4f6fa;
      }

      .st170 {
        fill: #afe4ed;
      }

      .st171 {
        fill: #76cad8;
      }

      .st172 {
        fill: #040506;
      }
    </style>
  </defs>
  <rect class="st171" x=".11" y=".46" width="930.16" height="325.05"/>
  <g>
    <path class="st127" d="M635.73.5c1.89-.43,4.53-.41,6.48,0,25.65.19,51.22.19,76.73,0,22.63-.44,46.94-.44,69.75,0,7.09-.29,14.23-.29,21.42,0,4.68-.39,10.19-.42,14.95.05,4.51.26,8.99.24,13.45-.05,29.29-.3,58.75-.38,88.37-.24.21,107.98.15,215.9-.19,323.76H0V.5C208.69.06,426.9.06,635.73.5Z"/>
    <path class="st113" d="M635.73,0c.44.14.43.31,0,.5H0v-.5h635.73Z"/>
    <path class="st113" d="M838.5,0h88.68v324.02h-.5V.51s-88.18-.02-88.18-.02c-.44-.14-.43-.31,0-.5Z"/>
    <path class="st162" d="M718.93,0c.44.14.43.31,0,.5l-7.13.27-19.99.89c-8.95.4-17.64-.46-26.65-.58l-16.43-.22c-2.15-.03-4.11-.36-6.53-.36-.44-.14-.43-.31,0-.5h76.73Z"/>
    <path class="st70" d="M788.68,0c.44.14.43.31,0,.5h-69.75v-.5h69.75Z"/>
    <path class="st78" d="M838.5,0v.5c.67.76-14.84,1.85-13.45.05-.44-.16-.43-.34,0-.55h13.45Z"/>
    <path class="st159" d="M810.1,0c.44.14.43.31,0,.5-2.68,1.26-5.89.11-8.94.09l-12.48-.09v-.5h21.42Z"/>
    <polygon class="st113" points="825.05 0 825.05 .55 810.1 .5 810.1 0 825.05 0"/>
    <rect class="st28" x="635.73" width="6.48" height=".5"/>
    <path class="st89" d="M22.92,10.33l.46-.97c12.62-.16,25.22-.12,37.78.12.31.07.58.16.67.34.34.64.52,12.74.36,14.46-.06.61-.43,1.13-.8,1.6-.45,6.1.96,12.18,2.94,17.92l1.42,1.71c5.94,25.46,15.04,52.53,38.9,66.46,6.02,3.51,12.8,3.55,17.87-1.18,1.58-.72,3.79-1.1,3.63,1.19,2.91.98,2.78,4.15-.09,5.02.66.7.39.97-.45.46l-1.27,1.78-3.69,13.18c1.6,1.43-.7,6.57-2.61,7.01l-1.76,2.33c-2.54,5.95-4.93,11.98-7.18,18.1l.71,1.03c-4.65,10.85-9.02,21.87-13.09,33.06-3.28,7.83-4.4,15.73-3.38,23.72l5.36,17.98c1.66,6.02,1.41,9.01-1.46,14.36-3.68,3.92-5.04,8.22-4.06,12.89,3.95,8.46,6.64,14.84,2.05,23.77l-1.06.52c-.21,3.2-1.54,4.67-3.97,4.4l-1.81.51c-14.53-3.13-29.05-6.27-43.55-9.44-10.01-1.12-20.07-1.71-30.18-1.79l-1.82-1.1c-1.78-1.77-2.92-3.72-2.92-6.54l.04-47.69c0-.42-.35-.63-.54-.56l-1-.34c-.22-70.37-.57-140.56-1.08-210.58l.99-.61c.16-1.21-.37-2.57.44-3.46-.74.82,13.55.35,14.13.35Z"/>
    <path d="M454.37,6.49c6.03-.47,12.38-.29,18.44-.02.34.2.66.19,1,0,.14-.34.3-.33.5,0,.35.19.65.22,1,0,.11-.44.67-.32,1,0,.37.2.63.23,1,0,.15-.33.31-.32.5,0l.5.5c.14-.43.31-.43.5,0l.5-.5c.15-.33.31-.32.5,0,.36.22.64.23,1,0,.15-.33.31-.32.5,0l.5.5c.15-.33.31-.32.5,0l.5-.5c.15-.33.31-.32.5,0l.5.5c.13-.32.3-.31.5,0,.13-.41.73-.36,1,0,.13-.41.73-.36,1,0,.11-.43.63-.26,1,0,.14-.43.31-.43.5,0,9.81-.43,20.09-.42,29.89,0,.05-.35.1-.62.15-.62,8.54-.23,17.31-.08,25.83.19l.34.45c5.41-.46,11.22-.33,16.53.15l50.81.21,49.86-.27,76.2-.28,71.26-.21,85.61-.23,20.5-.2c1.25-.01,2.4.65,2.85,1.62-.55.44-1.58.71-1.69,1.36l.47,28.82,1.96,275.47c-1.11.31-.71,1.43-1.02,1.93-1.05,1.7-3.03,1.79-5.22,1.8l-247.16.66-123.86.23c-.66.64-2.12.88-2.57.02l-34.78.03-26.91.2-27.57.55h-229.49s-124.31-.08-124.31-.08c-1.02.14-.97,1.42-1.74,1.9-.85-.6-.69-1.53-1.62-1.92l-83.53-.33c-.67,0-.86-.36-.73-.51.19-.22.57-.56.93-.57l22.99-.49,60.41-.37-.67-19.95c-3.24-1.96-6.41-2.96-9.97-3.61-8.62-1.36-16.96-3.02-25.2-5.14-4.39-.4-8.71-1.28-12.97-2.63-3.44-.42-6.87-1.22-10.66-1.29-6.44-.12-12.74-.51-19.2-1-1.05-.08-1.32-1-1.48-1.89-.09-.48-.01-1.18.87-1.18,16.79.98,26.55-.22,43.59,4.33,8.1,2.16,15.96,3.82,24.21,5.15,3.41.55,6.49,1.43,9.57,2.33.61-.62,1.42-.52,2.45.32.5-1.52,1.01-3.1,1.52-4.72.15-2.39,1.51-4.24,2.2-6.75.82-3.02.41-7.15-1.04-9.98-2.13-4.17-4.23-8.2-3.4-13.02.98-5.64,9.06-9.24,6.2-20.04-1.44-5.44-2.95-10.77-4.81-16.1-1.99-5.71-1.94-11.28-.57-17.16,3.97-17.03,14.76-39,16.35-44.27,2.31-6.61,4.96-13.05,7.94-19.32l1-1.11c.9-2.31,2.27-4.51,2.61-7.01l3.74-13.36,1.22-1.6.45-.46,1.66-1.31c7.35-1.18,8.26-1.81,2.72-1.89-1.87-.18-3.02-.44-4.3-1.83-3.4-2.93-4.9,3.57-12.07,3.49-3.7-.04-7.25-1.05-10.45-2.94-24.44-14.43-33.35-42.91-39.3-68.74-2-5.75-3.39-11.8-2.94-17.92-.74-4.97-.28-10.07-.2-15.61l-38.28.06-13.34-.53.89-1.21c1.19-1.26,2.87-1.28,5.02-.05l28.86-.53c1.11-.18,8.72-1.1,9.08-.66.15.18.25.42.32.66l10.71-.16,212.09-1.08,172.68-.55,5.16.28Z"/>
    <path class="st8" d="M8.35,13.44l.3,28.59.23,51.58.25,65.07.3,66.3.37,86.47c0,1.42-1.62,2.21-2.15,3.05-.81-1.21-1.07-2.09-1.07-3.54l-.1-79.56-.15-218.76c0-.83.48-1.32.53-1.62.04-.2.89-.13.95.07.26.82-.02,1.72.52,2.37Z"/>
    <path class="st23" d="M543.99,6.47c.43.16.42.33-.02.51h-26.32c-4.34-.18-8.65-.35-12.95-.51-.44-.14-.43-.31,0-.5,5.76,0,11.5-.3,17.5-.3l20.37-.02c.69,0,1.19.51,1.42.82Z"/>
    <path class="st117" d="M584.91,6.47c.44.14.43.31,0,.5l-24.41.16c-2.25.01-4.56.22-7.08,0-3.22-.27-6.4-.15-9.45-.15l.02-.51h40.92Z"/>
    <path class="st68" d="M479.78,5.97c.44.14.43.31,0,.5h-.5l-.5.5h-.5l-.5-.5h-.5c-.33.23-.65.21-1,0-.27-.03-.72,0-1,0-.34.22-.65.21-1,0-.15.03-.35-.05-.5,0-.33.19-.66.21-1,0-.89.55-1.89.09-3.02.08l-15.42-.06c-.05-.18.17-.51.54-.51h24.87Z"/>
    <path class="st47" d="M53.74,8h-9.4c3.05-1.23,6.56-.99,10.01-2.01.57-.17,1.38.23,1.55.58.82,1.74-2.6.34-2.16,1.42Z"/>
    <path class="st169" d="M504.69,5.97v.5c-5.57.17-11.22.33-16.94.5h-.5l-1-.5c-.13.41-.73.36-1,0-.13.41-.73.36-1,0-.15.33-.31.33-.5,0-.15.25-.32.25-.5,0h-.5c-.15.23-.32.22-.5,0-.15.33-.31.32-.5,0-.15.27-.32.27-.5,0h-.5c-.33.24-.65.22-1,0v-.5h24.91Z"/>
    <path class="st137" d="M56.3,287.75c.9,1.59-13.45-1.86-12.97-2.63,4.41.54,8.66,1.52,12.97,2.63Z"/>
    <path class="st100" d="M15.48,8.54c-1.67.03-3.35.18-5.02.05-1.6.2-.3-1.48.19-2.03,1-1.11,3.73,1.07,4.83,1.98Z"/>
    <path class="st166" d="M597.86,6.97c-.44-.14-.43-.31,0-.5,5,0,9.98-.26,14.97.25-5.23.54-10.09.25-14.97.25Z"/>
    <rect class="st44" x="584.91" y="6.47" width="12.95" height=".5"/>
    <path class="st29" d="M541.07,318.02c-.13.68-.71.98-1.25,1.05-.81.11-1.61-.15-1.32-1.04l2.57-.02Z"/>
    <path class="st82" d="M97.48,111.97c.78.59.5.91-.42.51-8.24-4.77-15.62-10.82-20.71-18.98-6.58-10.53-10.8-21.87-13.9-33.84-.59-2.26-7.09-28.39-3.91-27.33.34.11.63.53.72,1.09,3.36,20.55,7.6,40.21,18.38,58.28,5.04,8.44,12.28,14.53,19.84,20.26Z"/>
    <path class="st158" d="M126.06,117.02c1.44-1.48,1.6-3.49.09-5.02l3.16.63c2.98.6,5.85.31,8.84,1.4-4.15,1.38-8.08,2.32-12.09,2.99Z"/>
    <path class="st16" d="M109.11,159.87l4.17-13.8c.86-2.86,2.08-5.43,4.77-6.63-2.68,6.92-5.48,13.88-8.94,20.42Z"/>
    <path class="st86" d="M120.66,132.44c.22-4.53,1.34-9.08,2.95-13.53.3-.82,1.57-.99,2.01-1.43-1.25,5.09-2.69,10.25-4.96,14.96Z"/>
    <path class="st156" d="M64.33,43.8c-2.48-4.98-4.85-12.32-2.94-17.92.89,5.96,1.59,12.03,2.94,17.92Z"/>
    <path class="st109" d="M90.22,291.58c.36-1.26,2.1-1.13,3.03-1.91.74-.62-.04-2.23.94-2.49-.11,1.85-.68,3.8-.49,5.92-1.71.4-2.39-1.2-3.48-1.52Z"/>
    <path class="st71" d="M99.65,113.53c-.31.35-.75.28-1.04-.06-.85-.17-1.27-.55-1.55-.99l.42-.51c.89.67,2.02.63,2.17,1.56Z"/>
    <path class="st151" d="M99.65,113.53c.07.47-.52.52-.73.46-.17-.05-.15-.39-.32-.52l1.04.06Z"/>
    <path class="st89" d="M806.64,58.22c-3.68,3.22-6.8,6.84-9.37,10.87l-8.9,13.19c-8.11,12.02-14.66,24.69-20.86,37.77-1.31,2.78-2.84,4.66-3.66,8.07l-15.03-4.63c-14.46-4.93-29.07-9.26-43.85-12.99-2.38-.62-4.7-1.12-6.98-1.49-.57.41-1.42.57-2.54.5.39.9-.89,1.33-1.34.44-.9.22-.8-.01-.07-.57-.4-.14-1.01-.14-1.82-.02l-.21-.75c-1.19.7-1.86.7-1.99,0-.36-.6-.59-.88-.69-.82l-13.51,9.41c-16.01,9.6-31.84,19.75-45.81,32.28l-1.7.83c-.71,1.8-2.79,3.98-4.5,5.06.24.67-.66,1.69-1.31,2.08-12.01,6.66-23.63,13.94-34.85,21.81l-1.72.42-9.55,7.16c-.46.79-.93,1.59-1.42,2.4l.17,1.16c-.63,1.07-3.05,4.26-3.91,5.23-.09.11-.37.05-.7-.05-.55.87-.55,1.55,0,2.04l-1.56,2.5c.97.4.71,1.08-.76,2.04,1.1.27,2.13.58,2.26,1.78l.96.89,81.34,22.45.33,1.09c.19-1.06.42-1.31,1.15-.43.9-.48,1.84.61,2.42,1.35.52-1.42,1.57-.9,1.14.57l19.99-.36.77.82,4.73-.15c.76.65.36,1.13-.64,1.27.53,1.34,1.05,2.71,1.57,4.13,5.61,3.28,13.42,1.62,19.48-.18l1.82.49,1.39.14c1.05.49,5.35,4.13,3.55,5.41l1.04.02c15.05,13.24,34.47,21.07,53.97,23.98,8.82,1.32,11.89-.9,16.88-8.3,4.05-6.74,8.26-13.45,12.64-20.13l1.08-.62.49-.98c-.46-.07-.46-.22-.04-.45-.05-2.22,1.44-5.69,3.6-3.02,2.14-.04,4.31-.72,6.5-2.05.32-.35.64-.69,1.01-.97s.71-.53,1.1-.65c3.84-1.18,19.37-5.9,21.78-4.96.83.33.87.85.51,1.67.92,3.96,4.68,13.21,6.56,17.28s2.08,7.63,2.48,11.53c-1.29,5.77-2.52,11.56-3.69,17.36-.13,3.69.55,7.3,2.05,10.83l-.02,1.02c-1.82.67-3.77.92-5.86.73-9.71-.63-19.29-.19-28.72,1.33-5.47,1.75-11.07,3.09-16.81,4.02-71.36,1.11-142.78,2.19-214.26,3.24l-.21-1.14.08-1.14c4.91-1.95,9.47-4.45,13.7-7.51,1.68-1.26,2.5-2.47,3.13-4.36.26-.76,1.46-6.26,1.48-6.79.01-.36-.24-.67-.51-.96l-.27-7.13.7-.91-1.31.12-7.84-7.5.18-1.21c-6.05-4.38-14.31-7.76-22.31-8.17,2.29-.11,3.95.5,4.97,1.82.83.77.5,1.28-.59,1.44-3.97-.28-7.79.05-11.45,1-7.32,1.31-14.39,3.48-21.44,6.43s-14.19,4.47-21.53,6.41l-9.88,2.62c-6.18,1.64-12.36,3.57-18.87,3.57-3.7,0-7.35-1.23-11.11-1.58-7.57-.7-14.76-2.37-22.26-3.55-4.06-.64-7.91-1.06-11.82.14-3.08.94-6.17,1.39-9.14,1.94-1.12.31-1.44.12-.93-.57,2.78-2.67,7.25-7.15,3.69-11.39-1.37-1.63-3.85-3.06-6.24-2.1-1.98.8-2.77,2.73-4.44,4.13-.85-4.18-.88-8.04-1.44-12.13-.75-5.52-1.75-11.22-.37-16.72,4.18-16.73-.13-14.99-2.92-28.8-1.69-8.35-2.23-16.54-2.87-25.05-.33.06-.92.45-.91.93.16,8.63.59,16.95,1.92,25.45,1.98,12.57,6.46,10.7,2.71,26.81-1.57,6.76-5.27,10.01-5.91,11.6-1.33,3.31-2.2,6.18-4.6,8.87-1.92,2.15-1.55,5.63.22,7.59,2.47,2.73-3.96,7.46-4.39,7.64-2.56,1.06-3.36-2.08-4.51-2.99-6.3-5-14.03-6.24-21.77-6.73-5.88-.37-13.63.06-17.57,5.61l-2.14-5.45c-.92-2.33-1.28-5.9-.23-8.25s3.62-3.93,3.41-6.96c-.15-2.15-1.44-4.98-.14-7.04,3.1-4.94,10.16-8.21,10.03-7.66.68-2.91-8.49,1.96-12.14,7.44-1.41,2.12-.08,4.98-.21,7.22-.16,2.68-2.48,4.21-3.78,6.18-1.65,2.48-.55,5.47.07,8.12.85,3.68,1.6,7.19,3.2,10.66,1.47,3.18,2.25,6.39,2.19,9.97-.05,3.16.59,6.06,1.11,9.1.96,5.65,4.35,7.37,9.7,9.33.38,1.13-.04,1.52-1.17,1.45-88.74-3.41-177.5-5.93-266.28-7.54l-.59-1.01c2.39-4.03,1.07-13.22-2.04-17.82-2.85-4.22-2.01-9.09,1.12-12.82,8.33-9.91,1.59-19.03.85-25.95-2.1-6.74-3.11-13.57-3.03-20.49.64-2.57.98-5.25,1.9-8.03l4.84-14.71c3.26-1.88,6.27-3.88,9.33-6.13l11.17-8.24c6.53,4.12,10.34,8.73,18.09,11.45,12.88,4.53,25.79,8.27,39.45,10.13,11.4,1.55,34.2-5.34,36.45-15.37,1.45-2.01,2.06-4.49,1.85-7.43,1.06-3.66,1.09-7.62,1.98-11.51,1.58-6.93,4.07-13.85,1.12-21.4-3.18-8.16-7.03-15.95-12.2-23.04-4.14-5.68-6.59-11.6-7.43-18.65-2.16-18.07-2.73-28.25-11.47-44.56-2.43-4.53-4.42-8.66-5.24-13.82-1.16-7.33-2.33-14.56-2.6-21.78l.1-1.34c12.19-.89,24.29-1.61,36.32-2.16l26.5-.32,202.53-.6,22.23.76,12.38.31,80.73.05,245.24-.74c2.48,3.69,3.77,7.29,5.5,10.91,1.57,3.29,3.38,6.18,4.88,9.84-5.21,3.83-7.85,9.71-8.07,16.18-.06,1.77.32,2.8,2.12,3.97-2.92,2.5-4.41,5.87-7.14,7.96Z"/>
    <path class="st127" d="M831.49,225c-1.72-1.14-.74-1.79.82-2.48,23.18-2.9,46.59-6.31,70.23-10.23l9.32-2.17c-26.39,4.74-54.14,8.52-81.54,12.23-.52.07-1.06.02-1.6-.06s-1.11-.22-1.66-.38c-.61-.25-.98-.22-1.1.09l-.16,1.08c-20.48,5.85-41.22,12.14-62.24,18.85l-.57-1.87c.56-16.12-3.37-33.69-7.6-49.28-1.37-2.46-2.23-4.97-2.59-7.52,28.08-12.28,57.22-16.27,86.37-18.43,6.95-1.21,13.85-2.51,20.7-3.91l-4.36-.68-118.83-36.61-.29-1.13c-.39-.16-.38-.34,0-.55.18-.27.52-.29,1.04-.06l119.41,35.28c.72.21,1.65-.17,1.53-.53-.08-.24-.16-1.01-.69-1.16l-90.87-26.53c-.94-.44-.95-1.29-.03-2.53l7.4-14.62c4.22-8.34,8.35-16.41,13.58-24.17,4.05-6.02,7.82-11.9,12.32-17.57l14.98-18.9c1.43-1.81,4.99-.74,6.52-.02.84.39.84-.93,1.03-1.32.34-.22.72-.37,1.13-.32,2.05.26,4.79,12.61,4.82,14.98l-.9.73c-.2.21-.57.37-1.11.5l.41.13c.14,2.87.26,5.74.38,8.63-.16-.68.07-1.27.59-1.79l.05-3.71.6.22c.32.29.62.6.86.94s.46.67.52,1.01c.48,2.9.82,5.81,1.11,8.72-.45-7.14-1.74-14.33-3.44-21.29-1.07-4.37-2.2-7.55-4.98-11.27l.49-1.11c-.96-.73-.82-1.21.44-1.42.62-4.4.46-9.1-.81-13.6-1.19-4.19-3.54-7.69-5.56-11.47-1.89-3.54-3.55-6.96-6.07-10.34l44.98-.13c-3.95,5.04-9,8.5-11.76,13.93s-6.04,10.43-8.15,16.09c-3.19,8.56-3.67,18.26-3.15,27.61,2.01-9.06.86-18.78,5.03-27.16l7.85-15.79,13.24-14.74,55.19-.09.23,132.67c-9.42-.37-28.91,4.32-38.06,7.34-3.27,1.08-6.88.33-9.76-1.67-6.87-4.76-10.89.21-15.44,4.79,4.75.65,5.31-6.94,13.35-3.05,3.22,2.16,6.95,3.39,10.97,2.31,12.66-3.4,25.33-6.19,38.93-7.74l.94,169.71-72.83.44c.61-1.86.46-3.4-.06-5.07-.76-3.53-.63-7.04-.5-10.72l1.03-29.87c.26-7.48.84-15.17-1.87-22.28s-6.3-14.23-9.77-20.96Z"/>
    <path class="st127" d="M218.22,154.3c-.86,1.53-1.19,3.32-1.01,5.39-.66,1.17-.47.06-.09-.13.08-.04.25.09.44.28-.51,3.5-2.39,13.73-3.62,15.99-2.35,4.34-6.47,6.68-10.7,8.28-2.05.16-4.04.87-5.97,2.15-5.19,1.4-10.49,2.7-15.99,1.91-12.76-1.85-24.92-5.06-37.08-9.16-5.11-1.73-9.8-4.01-13.76-7.57-.58-.52-.19-1.63-1.44-2.16-4.96-2.13-8.74-7.55-16.64-9.9,5.53-13.71,10.59-26.11,13.93-40.18,4.9.17,9.34-1.68,14.07-2.83,2.59,3.74,3.88,7.79,6.08,11.55,3.94,6.72,8.02,13.12,12.35,19.61,2.09,3.13,4.36,5.97,7.24,8.82-.48-3.75-3.2-6.1-4.99-9.14l-11.57-19.7-9.25-17.97-8-15.69c-6.65-13.04-11.18-26.59-16.59-40.2-3.76-9.46-8.06-18.32-13.04-27.05-3.1-5.44-11.18-9.09-12.67-7.79-.35.3-1.09.91-.96,1.49l6.47,3.32c6.18,3.17,19.15,33.88,21.46,41.73-6.11-1.58-11.91-2.54-17.73-.89-2.6.74-7.21,7.49-2.09,13.76,1.09,1.34,2.75,1.47,4.19,2.47-5.09,4.06-1.28,12.82,3.03,15.75,3.01,2.05,6.74,1.57,10.62,1.15-2.47,6.14.87,10.47,6.54,12.79-.68,1-1.68,1.01-2.39,1.47-1.83.02-3.25.3-4.82,1.27-3.43.05-6.46-.84-9.26-2.52-9.46-5.68-16.9-13.8-22.36-23.45-4.68-8.27-8.21-16.69-10.9-25.82-4.52-15.39-8.83-35.12-7.73-51.11l117.34-.28c.57,4.12.53,7.99.7,12.03.2,4.69.82,9.24,1.4,13.84.66,5.23,2.52,9.52,4.96,14.09,8.87,16.61,9.37,25.64,11.34,44.2.71,6.72,2.55,12.62,6.49,18.08,5.62,7.82,10.05,16.25,13.4,25.26,1.36,3.65.93,7.02.45,10.64-.32,2.4-1.31,4.26-1.83,6.25Z"/>
    <path class="st127" d="M367.2,290.69c4.87,1.79,9.93,2.84,15.18,4.3,9.2,2.55,18.22,4.58,27.63,6.05,1.26.2,2.29,1.23,3.32,1.6-1.38,4.49-1.93,8.73-2.03,13.36l-243.72.31-72.36.11-1.75-18.79c6.06-3.82,1.46-6.89,5.68-14.03l48.38.98,155.81,4.1,62.79,2.48c.62.02.91-.23,1.06-.46Z"/>
    <path class="st127" d="M547.56,315.12c-1.29-.35-1.23-.8.07-1.1,1.53-1.25,2.23-3.28,2.09-6.11.23-3.53.72-7.02,1.48-10.46,7.25-1.16,13.98-3.46,20.31-6.88l1.04.6c.5.26,1,.32,1.98.31l110.99-1.86,84.14-1.35c8.31-.13,16.38.77,24.03-1.41l8.22-2.34c11.43-3.26,23.88-1.26,35.95-1.95-2.13-4.27-3.06-8.74-2.24-13.29.97-5.44,2.32-10.76,4.45-15.5.47,4.59.28,9.07.08,14.01l-1.34,33.29c-.19,4.64.47,8.75,2.85,12.86l-69.91.21-58.32.22-65.73.28-43.9.19-56.25.28Z"/>
    <path class="st127" d="M581.89,253.8l8.98,8.59-.66,1.08c.38,2.92.4,5.8.06,8.65l-1.35.53c-.27.02-.25.22.06.6,1.34.59.26,4.8-.33,5.91-3.81,4.67-8.9,7.98-15.28,9.93-13.48,9.03-28.11,7.92-43.87,5.95-13.94-2.84-27.89-4.23-41.83-4.16-4.26.9-8.51,1.64-12.76,2.23-.1.86-1.63,1.31-2.01.45-1.57-.22-3.19.27-4.87,1.46l-1.12-.48c2.7-3.36,6.99-6.15,9.22-10.54.9-1.75-1.25-3.01-2.21-4.05.68-2.66.13-5.33-2.8-6.57s-5.63-.15-7.85,1.85l-1.15-.03c-2.42-4.48-7.33-3.28-11.12-1.16l-1.16-.35c-6.95-.1-13.68,1.82-20.2,5.75-.62.91-1.63,1.14-2.68.9-.18.74-1.51,1.11-2.31,1.26.17.7-.1.91-.65.44-.79.88-.8.87-1.08-.3-.78.73-1.34,1.61-1.67,2.64l-1.15.25c-2.52,1.28-7.01,3.62-9.19,1.33-.69-.72-2.3-2.18-1.54-3.14,1.07-1.36,2.82-2.08,4.21-2.52.18,1.5-1.03,1.77-1.21,3.09,1.14.55,2.17-.52,2.76-1.28.7-.9.05-1.67-.62-2.88,2.27-.7,3.43-3.09,5.39-3.97,3.33-1.51,6.61-3.5,10.16-4.14l9.07-1.64c2.54-.46,4.92-.68,7.31-.87.4-2.29-16.76.57-17.18.67-3.14.77-6.58,1.83-9.29,3.68l-11.36,7.75c-1.9,1.3-1.12,3.38-1.17,4.91-2.17,1.97-6.93,1.82-8.96-.97,1.06-1.71,2.78-2.83,4.42-3.94.05,1.14-.79,1.67-.5,2.51,1.46.08,1.91-.92,2.5-1.45.76-.7-.55-1.97-.16-2.56.9-1.37,2.46-3.37,4.14-4.18,4.58-2.2,8.85-5.61,13.76-6.91,5.49-1.45,11.14-1.07,16.33-2.81,1.14.24,2.32.34,3.45,0,5.41.55,10.7,1.82,16.34,2.6l22.8,3.18c1.41-.58,3.18-1.13,4.8-1.2,7.05-.29,13.46-2.59,20.31-4.05,8.83-1.88,17.18-3.85,25.51-7.42,7.41-3.17,14.95-5.3,22.93-6.43,2.64-.37,5.18-.18,7.85-.02.69.04,2.16-1.17,1.37-1.45-3.78-1.37-8.03-1.31-11.8-.64,1.23-2.08,12.8-1.34,12.03-2.45.3-.19.61-.36.93-.47,2.13-.71,12.9,4.53,15.94,6.02.33.16.47.42.46.8Z"/>
    <path class="st89" d="M547.63,314.02l-.07,1.1-20.52.09-64.11.33-10.29.32-39.04.13c.66-4.68.87-9.15,2.13-13.76.71-1.1,3.67-.84,4.87-.42,2.12.74,4.02.69,6.07,1.1,5.09,1.02,10.02,1.4,15.24,1.24,1.83-.06,3.64.99,5.5.45,7.28-2.07,13.5-5.92,19.48-10.05,1.66-1.14,4.42-1.89,5.99-.99-.68.44-1.38.8-2.09,1.08,0,.32.17.49.5.5-.18-.75.33-.9,1.54-.45.33-1.05,2.32-1.11,3.48-1,.16-.32.33-.58.56-.65,10.26-2.9,19.76-2.46,30.51-.74,14.07,2.53,27.71,4.06,41.4,4.85l.89.68c-.01,4.54-.44,9.55-.95,14.22-.04.34-.2.66-.39.99-.2.35-.45.66-.73.97Z"/>
    <path class="st127" d="M420.1,284.62l.91-2.44c.26-.71,1.37-.44,1.91-.45l.58.37c-.11,12.2,12.95,4.07,17.94-.14,2.66-4.09,16.12-14.15,20.14-7.59.72,1.18,1.29,2.31.18,3.29-.84,1.1-1.76.47-2.67-.26.31.29.52.7.44,1.12-.16.77-11.31,7.58-13,8.53-5.54,3.09-9.92,3.91-16.26,4.16-.46-.1-3.91.91-3.72.9,6.85-.22,14.9-1.17,20.73-4.92l13.09-8.66,1.48.05c.07-2.85.75-3.81,2.02-2.88l2.17-.77c1.69-.6,3.07-.57,4.38.35,1.13.79,2.26,1.87,1.5,3.53-1.93-.26-2.9-2.01-4.58-1.85.15,2.33,2.22,2.52,3.88,3.49-1.02,1.4-2.5,2.44-3.91,3.3-1.58-.49-2.07-2.19-3.98-2.19-.17,2.06,1.2,2.45,2.39,4-17.93,13.13-8.46,7.29-26.3,12.51-3.26.95-15.6,1.55-19.44,1.64-1.35.03-3.04-.97-4.48-.19-1.96,1.07-3.12-.25-4.81-.58-11.18-2.2-21.99-4.72-33.03-7.71-4.09-1.11-15.71-3.72-16.87-7.77-1.22-4.26-1.25-8.59-1.93-12.95-.34-2.2-.7-4.01-.35-6.21.18-1.15-1.3-2.33-1.27-3.6.04-1.51,1.39-2.8,2.73-3.5,5.96-3.14,14.55-2.17,21.37-1.21,1.18.17,1.69.99,2.64,1.42,6.77,3.07,13.2,6.55,19.07,11.17-1.11,3.32-1.51,6.58-.73,9.77-2.02,1.81-5.7,4.1-5.55,6.5.05.77.78,1.45,1.49,2.1,2.92,2.68,6.96,2.2,10.43.19,4.01,5.11,18.22-2.35,11.37-2.55Z"/>
    <path d="M710.46,114.59c.51-.5,1.44-.32,1.49.47,1.8-.02,3.28.44,4.45,1.37.18-.24.36-.22.53.04,1.02-.28,1.68-.11,1.99.5.83-.13,2.12.24,2.49,1,.15-.21.32-.21.5,0,.61-.18,1.45-.2,1.49.5.81-.14,1.31.03,1.49.5.16-.24.33-.24.5,0,.82-.01,1.15.17,1,.56.15-.26.32-.24.5.02l1,.45c1.46-.53,4.12.52,5.44,1.51l1.1.45c-.08-.82.47-.63.93-.01l.5.5c.18-.4.34-.38.5.05l119.75,36.9c-1.26-.39,11.87,1.62,6.81,2.2l-3.34.39c-8.59,1-16.77,3.64-25.46,4.39l-19.54,1.69c-5.21.45-9.87.98-15.04,2.06-15.81,3.3-31.11,7.76-46.25,13.51,1.55,3.89,3.57,7.35,4.53,11.41,2.91,12.39,4.8,24.74,6.28,37.38.36,3.09.07,5.76-.33,8.9,7.31-2.95,14.52-5,22-7.31l24.39-7.53,15.79-4.49c.14-.35.5-.38,1.1-.09,7.22-1.27,14.39-2.5,21.98-3.26,11.61-1.15,22.66-2.8,34.17-4.73l28.48-4.78c.48-.08,1.4.29,1.43.63s-.45,1.17-.91,1.3c-14.09,4.02-46.84,7.94-62.6,10.09l-17.09,2.33c-1.12.15-1.09.97-1.01,1.51h-.46c-.39-.16-.77-1.01-1.44-.9-7.94,1.35-15.41,3.71-22.97,5.8l-5.88,2.44-.62-.38c-.54.29-1.88-.34-2.3.7-.37.91-.55,1.85-1.29,2.32-.63,1.67-1.46.99-.63-.42l-.78-.39-29.66,9.09c-3.06,1.03-4.7,1.11-7.37-.9-1.1-.83-3.24-3.27-2.42-4.56-.9-1.27-.54-1.56.51-.46l1.2-.03c.36.67,3.34,2.88,3.58,2.72.44-.3.45-3.99.34-4.77-1.9-14.01-3.94-27.33-6.82-41.2-.2-.98-2.11-5.82-2.6-6.34-.08-.09-1.12.19-1.39.28-4.34,2.32-12.22,4.86-17.1,4.1-4.53-.7.75-4.99,2.93-2.44.12-.33,2.72-.77,2.58-.67-.15.11-1.09.08-1.05-.38-2.11.66-4.22.19-6.32-1.42-5.01-3.41-9.87-7.03-14.58-10.86-8.88-4.24-17.32-9.07-25.33-14.49-2.79-1.57-6.01-2.13-9.17-2.4-1.43,4-5.83,6.46-9.16,3.15s.35-3.96,3.15-2.22c.49-.31,2.11-2.55,1.84-2.94-.55-.78-5.68-3.02-7-2.07-4.28,3.07,3.68,11.2,6.84,12.81,5.87,2.22,12.3,4.73,14.36,11.35,2.21,7.1-8.38,10.42-13.95,11.35-14.68.95-29.35.19-44.02-2.29-1.22.38-2.14.23-2.75-.45-.65.26-.96.12-.95-.4-.51-1.86,3.03-2.51,4.53-2.46,9.98,1.15,20.02,2,30.12,2.56,7.18.25,14.44.11,20.79-3.46l-27.39-11.94-.16-1.15c-.24-.61.08-.79.95-.55l.8-.76,28.62,11.29-1.09-2.39c-3.24-3.2-7.15-5.68-11.73-7.44-5.29-3.13-11.52-8.68-9.49-15.78.21-.73,4.76-4.63,5.91-4.35,6.13,3,12.27,5.16,18.87,6.7,8.56,4.77,17.21,9.4,25.97,13.9,6.06,5.27,12.59,9.62,19.58,13.05,2.49.38,4.91,1.03,7.24,1.95l4.5-1.74.02-1.61c27.57-13.26,57.67-18.48,87.73-20.34l14.07-2.19.77.77c1.52-.55,1.85-.9,1-1.06-.62.46-1.28.54-2.05.41-50.87-15.52-101.4-31.2-151.58-47.03l-.27-1.13c-.43-.17-.42-.35.02-.53-.13-.43-.22-.96.07-1.23.44-.41,11.22,2.42,11.61,2.88.11.13.17.3.21.49Z"/>
    <path class="st127" d="M120.66,94.39c-7.11.42-12.4,3.3-16.51-1.91-2.02-2.56-3.41-5.94-1.66-9.1.89-1.62,3.06-1.56,4.42-1.28,5.29,1.09,1.3,6.66,4.88,6.36,1.46-2.65.26-6.23-2.71-7.8,4.17-1.88,8.36-2.72,13.01-2.56l7.11,16.7-4.87.14c-1.52.04-2.54-.61-3.66-.54Z"/>
    <path class="st127" d="M99.38,76.51c-2.55-2.91-2.12-6.94.47-9.71,3.11-.2,5.26,2.26,5.09,5.45-.03.61.21,1.46.47,1.82.24.33,1.28.64,1.59.31.8-2.66.04-5.87-1.91-8.2,4.37-.75,8.48-.12,12.6.77l3.74,9.73c-6.03-.55-11.59.69-17.28,2.54-1.69-.71-3.6-1.39-4.76-2.71Z"/>
    <path class="st162" d="M401.04,263.41c2.46-2.11,4.85-3.82,6.56-6.49,2.15-3.35-3.86-5.63-.84-8.76,4.66-4.82,2.2-8.24,7.46-13.71.42,7.3.66,14.42,1.99,21.71.12.65.64,1.22.43,1.7-.52,1.17-10.17,6.49-12.33,8.52-1.24-.74-2.03-1.72-3.27-2.96Z"/>
    <path class="st127" d="M428.48,256.82c-.32.53-.29.92-.11,1.5-1.06,4.39-5.44,4.57-5.57,7.95l-14.75,7.03-4.42,3.4c-.36-.07-.39-.24-.13-.51.86-3.82.82-7.04,2.99-8.82.95,0,1.65-.8,2.17-1.55,5.29-3.96,8.99-4.72,13.13-10.56.3,1.1-.44,2.24.85,2.67.91-1.25.35-3.81,2-4.26,1.88-.52,3.56,1.63,3.84,3.17Z"/>
    <path class="st124" d="M117.43,99.49c.51-1.18,2.95-1.83,3.91-1.3,2.39,1.31,1.18,6.4,4.54,5.41.32-2.27-.73-4.64-1.87-6.64,1.94-.64,3.81-.63,5.98-.77,2.97,4.97,5.44,9.94,7.81,15.32l-8.46-1.4c-2.95-.49-5.68-1.68-8.43-2.85-2.94-1.25-4.91-4.45-3.48-7.77Z"/>
    <path class="st136" d="M121.4,168.01l-17.01,11.25c1.65-6.47,4.6-12.16,7.26-18.27,3.59,1.83,6.7,3.69,9.75,7.02Z"/>
    <path class="st136" d="M471.38,283.2c-.04.81,1.01,1.56,1.21,2.4-.81,1.45-2.41,3.48-4.07,3.87-.58,0-2.48-1.63-2.2-.21l.41,2.11c.19.96-9.39,6.87-10.92,7.75-2.66,1.53-5.89,2.41-8.93,2.79-2.29.28-4.38-.87-6.45-.77-.23-.39.28-.74,1.53-1.05,2.11-.37,4.11-.69,6.15-1.75s4.41-1.07,6.36-2.22c3.29-1.93,6.26-4.21,9.28-6.54,2.65-2.05,4.43-4.82,7.13-6.44.18-.21.35-.18.51.05Z"/>
    <path class="st91" d="M463.27,275.24c.11.22.43.33.61.48-1.25.44-1.1,2.06-2.02,2.88-1.33.06-1.31-.41-.09-.93-.14-1.4-.79-2.8-1.73-3.49-3.96-2.91-12.21,2.36-13.62,4.02-3.33,3.91-6.75,7.13-11.66,9.27-2.7,1.18-6.15,3.01-9.17,1.62-2.66-1.23-3.33-4.92-2.67-7.36.37,0,.83-.03,1.08.3.59-.38.86.08.58.71,1.04.57,1.79,1.75,2.25,3.55,2.81,2.78,16.15-8.08,18.35-10.56l3.63-1.22c-.68-1.13-.11-1.47,1.03-.81,1.98-1.34,4.39-2.38,6.99-2.54,3.17-.19,5.17,1.64,6.44,4.08Z"/>
    <path class="st26" d="M820.54,33.3c.23.78.48,1.77-.49,1.65-2.79,4.73-1.07,9.08,2.54,12.78l-.61.98c-.15.33-.32.35-.5.03-2.28-.76-5.35-.38-7.44-2-1.13-2.18-.64-6.15.66-8.34.64-1.08,6.39-8.55,5.85-5.11Z"/>
    <path class="st124" d="M219.73,9.91c-.37.96-1.56.36-2.54.47-10.7,1.25-21.17,1.71-31.9,2.37-.87.05-1.65.05-1.98.67-.04-.95-.95-2.15-.34-3.45l36.76-.06Z"/>
    <path class="st27" d="M704.98,110.49c11.56,0,37.8,11.13,43.85,12.99l-21.82-5.96c-1.8.15-2.99-.22-3.55-1.12-.62.38-1.61.19-2.03-.44-1.08.26-2.08-.09-2.99-1.06-.24.27-.46.46-.63.43-2.09-.43-5.03-1.46-6.78-2.39-.85,0-5.61-1.05-5.85-1.37-.12-.15-.16-.36-.19-.58-.4.25-.72.41-1,0-.44-.14-.43-.31,0-.5h1Z"/>
    <path class="st135" d="M99.1,227c-2.69-7.54-5.12-12.07-3.03-20.49,1.1,6.82,2.3,13.63,3.03,20.49Z"/>
    <path class="st2" d="M823.56,44.78c-.07.48-.33.94-.44,1.42-.7.46-1.02.38-1.59.02-3.29-2.11-3.59-8.25-1.48-11.26l.49-1.65c1.82,1.29.54,14.08,3.02,11.48Z"/>
    <path class="st127" d="M504.69,6.47h12.43c.34,0,.58.31.52.5h-29.89c-.06-.19.18-.49.53-.49h16.41Z"/>
    <path class="st160" d="M797.27,69.09c.23-3.66,6.63-8.77,9.37-10.87.09.67-.62.98-1.07,1.49l-8.3,9.38Z"/>
    <path class="st54" d="M217.3,175.62c.56-2.5,1.14-4.99,1.85-7.43-.2,1.3.27,2.64.6,4.09.42,1.88-1.17,2.65-2.45,3.34Z"/>
    <path class="st37" d="M727.43,118.88c1.86.33,3.63,1.03,5.44,1.53l1.04.46c.3-.02.61.07.91.07l1.04.51c.15.04.34.02.5,0,.42.14.41.31,0,.5v.55c-.15-.05-.35.01-.5-.05l-.5-.5h-.93s-1.1-.44-1.1-.44c-1.87-.3-3.6-1.08-5.44-1.51l-1-.45c-.16.02-.34-.02-.5-.02-.54-.58.49-1.13,1.03-.64Z"/>
    <path class="st88" d="M471.38,283.2c-.16.03-.34-.06-.51-.05.52-.5.78-1.73,1.88-2.03.73-.2,1.16.88,1.56,1.29s.07,1.65-.41,1.58c-1.02-.14-1.66-.95-2.52-.79Z"/>
    <path class="st69" d="M217.56,159.83l-.82.42c.24-1.08.28-1.92.13-3-.39-1.43.32-2.42,1.35-2.96-.51,1.94-.43,3.95-.66,5.53Z"/>
    <path class="st34" d="M119.05,111.81c-1.62,1.05-3.22,1.38-4.82,1.27.3-.88.96-1.63,1.85-1.79,1.04-.19,2.21-.21,2.96.52Z"/>
    <path class="st30" d="M203.25,184.1c-2.21.84-3.96,1.6-5.97,2.15.01-.78,6.25-3.73,5.97-2.15Z"/>
    <path d="M727.01,117.53c-.45.14-1.01-.48-1.73.15.58.43,1.23.26,1.67.71-.11.4-.29.42-.55.07-.34.28-.76.38-1,0-.45.26-.99.11-1-.5-.69.23-1.59.14-1.99-.5-.44-.14-.43-.31,0-.5.05-.38.39-.57,1.04-.56.98.05,2.63.87,3.55,1.12Z"/>
    <path class="st57" d="M406.49,267.36c.86-.7,1.36-1.34,2.17-1.55.73.43-.43.91-.66,1.26-.34.52-1.3,1.16-1.52.29Z"/>
    <path class="st123" d="M442.42,265.31c-.83.81-2.63.79-3.45,0,.91-.3,2.5-.09,3.45,0Z"/>
    <path class="st24" d="M426.47,265.88c-.53.1-1.06.84-2.01.27.12-.62.79-.56,1.07-.84,0,.48.58.48.93.57Z"/>
    <path class="st95" d="M428.37,258.32c-.21-.12-.88-.46-.83-.75.06-.36.7-.66.94-.74.08.43,0,1.07-.11,1.5Z"/>
    <path class="st62" d="M766.79,128.94c-.78-.23-1.29.06-1.01-1.23.1-.44.72-.78.98-1.3-.29.84-.61,1.79.03,2.53Z"/>
    <path class="st42" d="M441.95,300.1l-1.53,1.05c-.49.02-1-.02-1.49-.03-.44-.14-.43-.31,0-.5l3.02-.53Z"/>
    <path class="st36" d="M438.93,300.62v.5c-.41,0-.85.16-1.54-.18.38-.55,1.03-.23,1.54-.31Z"/>
    <path class="st150" d="M822.59,49.81c-.41-.32-.96-.5-1.11-1.07.15.05.35-.06.5-.03,1.28-.77,1.82.19.61,1.1Z"/>
    <path class="st127" d="M473.8,6.47c-.13.04-.22.26-.4.31-.23.06-.45-.13-.6-.31h1Z"/>
    <path class="st55" d="M727.43,118.88c-.42-.07-.99.18-1.03.64-.4-.02-.84-.15-1-.56.14-.21.47-.37,1-.5l.55-.07c.16.16.41.24.49.49Z"/>
    <path class="st127" d="M475.3,6.47c-.12,0-.2.31-.39.34-.24.04-.46-.17-.61-.34h1Z"/>
    <path class="st127" d="M477.29,6.47c-.1.11-.22.26-.4.35-.25.12-.43-.26-.6-.35h1Z"/>
    <path class="st127" d="M480.78,6.47c-.13.19-.36.45-.59.36-.18-.08-.3-.25-.4-.36h1Z"/>
    <path class="st42" d="M737.4,121.88l-1.04.06v-.5c.41-.04.7.33,1.04.43Z"/>
    <path class="st42" d="M733.92,120.86c-.41.02-1,.09-1.04-.46.33.09,1.03,0,1.04.46Z"/>
    <path class="st97" d="M403.63,276.69c-.3,1.12-1.08-.16-.13-.51l.13.51Z"/>
    <path class="st127" d="M485.26,6.47c.44.14.43.31,0,.5h-1c-.33-.15-.32-.31,0-.5h1Z"/>
    <path class="st68" d="M486.26,6.47c.44.14.43.31,0,.5h-1v-.5h1Z"/>
    <path class="st127" d="M487.26,6.97h-1v-.5c.4,0,.89.05,1,.5Z"/>
    <path class="st42" d="M735.87,121.44c-.33-.1-1.09-.02-1.04-.51.41,0,.89.08,1.04.51Z"/>
    <path class="st68" d="M484.27,6.97c-.16,0-.34.04-.5,0-.22-.15-.21-.32,0-.5h.5v.5Z"/>
    <path class="st127" d="M483.77,6.97c-.24-.06-.42-.27-.5-.5h.5v.5Z"/>
    <path class="st127" d="M482.27,6.97c-.33-.15-.32-.31,0-.5h.5c-.05.26-.24.46-.5.5Z"/>
    <path class="st68" d="M482.27,6.97h-.5c-.23-.15-.22-.32,0-.5h.5v.5Z"/>
    <path class="st127" d="M481.78,6.97c-.26-.04-.45-.24-.5-.5h.5v.5Z"/>
    <path class="st127" d="M478.79,6.97c-.07-.34.2-.5.5-.5-.05.26-.24.46-.5.5Z"/>
    <path class="st127" d="M478.29,6.97c-.26-.04-.45-.24-.5-.5.29,0,.57.16.5.5Z"/>
    <path class="st127" d="M692.02,108.6c.34.29.45.56.17.8-5.2,4.34-11.29,8.32-17.01,11.59-.96,1.06-2.7,2.39-4.14,2.61-.54.86-1.79,1.6-2.78,1.85-.28.45-.7.8-1.14.47.1.56-.46.97-1,1-.39.35-.89.68-1.49,1h-.5c-.22.44-.5.94-1,1-.35.47-.35.64,0,.5.22-.44.48-.94,1-1l.5-.5c.44-.36.99-.8,1.49-.5.33-.57.88-1.25,1.49-1-.11-.58.48-.83,1.03-.66.54-.91,1.9-1.69,3-1.84.96-1.04,2.54-2.31,3.95-2.45,3.64-2.88,8.16-6.25,12.42-8.76.29-.17.77.16,1.1.41.3-.26.42-.16.39.25.59.33.34.55-.35.48-1.17.67-1.03.83.43.46-.06-.14-.09-.27-.06-.39.1-.37,5.71-4.11,6.46-3.42l1.54-.51c.3-.69.67-.68,1,0,.17-.23.33-.23.5,0,.89-.07,2.09.18,2.49,1,.36-.3.7-.37,1,0,.58-.23,1.06-.09,1,.56.14-.28.31-.26.5.02,1.86.18,4.9.55,5.99,1.93.41-.4,1.07-.25,1.01.4.67.68.38.71-.52.69-4.55-.89-10.59-3.74-11.89-2.14-.28.21-.3.39-.02.53l42.78,13.51,111.13,34.24c.53.34.2.69-1,1.06-4.58,1.44-19.81,3.09-25.42,3.4-27.61,1.53-51.37,8.27-76.55,18.83.13.86.78.85,1.36,1.43l-6.54,2.53c-3.68-2.03-6.17-1-10.16-3.22-5.33-2.97-10.3-6.39-14.89-10.4-2.55-2.23-5.36-3.06-8.25-4.63l-20.01-10.91-9.41-2.53c-3.32-.89-5.97-3.33-9.47-4.14l-4.47,3.85c-1.1,17.94,21.91,14.06,22.71,26.83l-30.69-12.11c-2.81-.41-6.15-1.94-8.47-3.44-1.24-.12-2.64-.52-3.48-1.41-.22.25-.4.2-.53-.12-.72-.03-2.11-.3-2.49-1-.76.01-1.59-.32-2.49-1-.69-.07-.85.09-.5.5.92-.47,2.13.06,2.49,1,.8-.18,2.51.09,2.49,1.04.2-.21.39-.24.62-.04.99,0,2.42.46,2.84,1.37,2.93.59,6.35,1.82,8.59,3.65l29.78,12.89c-5.18,3.46-10.94,4.59-16.87,4.68-7.25.12-14.32-.3-21.56-1.02-4.85-.48-9.44-1.38-14.34-1.56-1.95-.07-3.49.56-4.9,1.46-.11.83-1.8,1.61-2.58,1.35.21.48-.49,1.04-1,1.06-.28.2-.27.29,0,.5.44-.86.95-1.2,1.51-1.01.39-.86,1.95-1.51,3.02-1.49,2.14-.87,4.59-.56,7.09-.18,11.68,1.78,23.17,2.92,34.98,2.43,5.63-.23,10.89-1.88,15.57-4.8,1.41-.88,2.9-2.72,2.53-4.33-1.42-6.22-6.64-9.68-12.3-11.28-2.66-.75-11.51-7.04-10.39-13.61.18-1.04,2.21-2.66,3.17-2.5,2.42.56,4.77,2.02,6.99,2.94-.31,1.97-1.17,3.71-2.91,4.5l-3.87-1.24c.93,2.1,3.17,3.24,4.93,2.99,2.48-.35,3.18-2.77,4.13-4.67,3.31.17,7.92.94,10.77,2.81l7.87,5.18c6.1,4.01,14.68,6.94,19.25,10.59s12.59,10.92,18.25,11.64c.32.4-.19.75-1.53,1.04-1.36.39-3.1-.08-4.33,1.51,4.74-.23,9.45-.46,13.88-2.06,2.2-.79,4.01-2.65,6.88-2.36.75,2.7,2.3,5.13,2.92,7.96,2.88,13.16,5.02,26.23,6.54,39.64.28,2.49.28,4.87-.72,7.09-2.28-1.08-4.21-2.38-5.32-4.1-.44-.37-.66-.14-.51.46,4.06,5.69,5.04,5.87,9.81,4.41l30.79-9.44c.21.94-.25,1.3-.38,1.79-1.3,3.21-4.05,8.81-6.52,11.28-.41.41-1.08.45-1.68.47-.57.6-1.07,1.29-1.5,2.06l.58.94c-2.4,4.95-9.86,16.57-16.07,15.86-22.06-2.54-41.34-10.17-58.87-23.83l-1.36.11c-.47-2.73-2.12-1.8-4.94-5.55l.25-1.12c4.35-1.5,8.71-2.77,13.08-3.81-.01-.27,0-.5.12-.58.7-.45,4.87-.34,5.93-.08l3.09-.99,10.88-.37c-17.99-.1-34.58-.17-52.74.08-9.59.56-19.03.84-28.33.84-.24-.21-.82-.58-1.14-.57-1.12-.82-2-1.96-2.65-3.4l-.89.49-.6.83c-15.27-4.33-30.53-8.69-45.8-13.07l-.31-1.12-.59-.51c-.8.21-1.79-.05-2.49-.5-4.14-1.42-8.29-2.42-12.46-2.98-.67,1.22-1.11.97-1-.41.97-.47.63-.52-1-.17-2.03,1.12-7.05-.17-7.96-2.38-1.28-.77-2.48-.99-3.59-.67-.66,1.31-3.15.71-2.44-.78,1.27-.66.41-.54-.49,0-.73,1.1-3.63.47-3.96-.69-.61-.07-1.36-.4-2.13-.58-.42-.1-.06-.93-.13-1.2,17.09-13.2,34.97-26.68,52.42-39.52.15-.11.41-.07.69.01l.14-.76c2.14-1.11,1.72-1.01-1.26.32l.32.58c-16.83,12.77-33.8,25.32-50.89,37.65l-.67-.33c.19-1.7.55-3.21,1.56-4.54.9.1.43.86,0,1.43,1.8-3.55,4.28-6.6,7.36-9.12.41-.33,1.01-.28,1.55-.16,1.86-1.25,2.12-.33.49.95l1.01-.04c.06-.32.16-.54.5-.5.2-.42.57-.77,1.03-.59.47-1.09,1.83-2.08,2.96-2.41,5.56-4.93,11.52-9.39,17.88-13.38-1.02-.15-1.33-.5-.95-1.04l.51-.53-.1-1.06,19.35-11.45c.74-.64,1.45-1.28,2.12-1.92.27-.67,3.67-4.65,3.98-4.66.18,0,.36.08.53.18.31-.63.67-1.22,1.15-1.68,9.23-8.77,20.71-16.46,31.36-23.43,9.28-5.61,18.39-11.39,27.3-17.35l1.5-.21c.66.17,1.32-.05,1.99,0Z"/>
    <path class="st127" d="M509.33,36.38l2.81,3.36c.99.12,1.65,1.04,1.98,2.76,1.26.68,1.9,1.57,2.51,2.84.87,1.79,2.6,6.63,1,7.89-.38.35-.29.69.04,1.02.39.03.98.17.97.41-.4,14.8-2.18,29.82-6.67,44.16-1.22,1.64-2.8-.51-3.3-1.89l-.6-.38c-.14-2.38-.28-4.77-.41-7.16-.82-1.84-2.79-.15-1,.28.33-.02.49.13.49.46.79.33.79,1.13,0,1.46-.09,2.21-.01,4.4.22,6.56,1.77.02,2.6,1,2.96,2.65-1.45,8.46-1.71,16.9-.77,25.31l1.06-.18c.04-.32.32-.58.59-.42.29-.27.69-.54.96-.38,1.91,1.1,4.28,3.27,5.88,4.77,1.13-.13,1.22.51,1.01,1.48.17.51.32,1.09.12,1.61-1.14,2.99-8.27,7.65-11.13,9.51-4.11,2.67-8.41,5.2-12.78,7.44-8.9,11.81-16.25,24.42-23,37.06l-.53.11c.14.21.23.39.18.52-.52,1.22-1.9,4.26-2.52,5.28-.08.14-.32.19-.59.21.76,1.84-.5,2.11-.91-.04-1.54.04-2.01-3.38-.63-3.94.36-1.03.35-2.24-.5-2.99-.33-.41-.64-.84-.89-1.29s-.48-.89-.57-1.35c-1.48-7.75-2.55-15.59-3.44-23.4-1.07-6.59-3.96-14.41-8.16-19.44-.3-1.21.42-2.18,2.17-2.89,3.2-4.11,4.6-2.1,4.19,6.03,1.04-6.17.51-12.35-.08-18.53-.18-1.91-.44-3.92-1.62-5.39-4.61-4.55-1.33-5.06,3.64-5.25-4.64.35-6.96.53-6.96.53-2.07,0-6.52-.65-7.15-2.69-.9-.75-2.07-1.25-3.5-1.5-3.08.98-5.44-3.68-6.1-6.35.43-3.37.47-6.71.12-10.02-.55-1.13-.74-2.13-.58-3-1.12-.34-1.31-.65-.57-.91-.79-.51-.66-1.4.15-1.8,3.31-1.66,4.53,3.48,4.2,5.95.8,1.85,8.55-1.07,9.95-1.66l1.75.29c.87.9,3.69,1.82,3.53-.18-.25-3.13-5.45-7.63-8.31-8.8l-4.27-4.22c-1.89,4.47-8.05-2.25-7.35-5.63-.21-1.71,1.76-4.1,3-5.28,1.85-2.21,3.81-4.23,5.87-6.07-.29-.81.35-1.1,1.1-1.07l-.5-1c-.22.5-.87.6-1.01-.01-.9.02-1.82-.36-2.77-1.13-1.14-.08-1.87-.49-2.2-1.23-.72.82-1.06.45-1.03-1.1-1.57-1.16-.48-4.56.13-6.37.16-.21.36-.73.39-1,.14-.41.31-.41.51,0,.47.05.65-.14.55-.59-.47.08-.65-.12-.53-.58.31-.63.47-1.54,1.13-1.95,2.22-2.84,4.77-6.44,5.93-9.81.72-.89.79-2.59,1.99-3.11l.84.62c1-1.47,1.7-3.03,2.09-4.66,3.38-2.91,7.85-5.98,12.42-5.79l1.14-1c7.12-.14,14.26-.25,21.41-.34,7.03.68,17.37,5.61,21.51,11.36.39.54.42,1.24.43,1.88Z"/>
    <path class="st63" d="M572.55,291.18l-4.48,2.18c-5.24,2.56-10.58,4.2-16.28,4.7-.68,5.25-.87,9.97-1.87,14.77-.12.6-.85,1.19-1.27,1.64-.22.24-.72-.16-1.03-.45.3-4.7.48-9.55,1.29-14.49.09-.56.21-1.02-.16-1.35-.62-.54-15.14-.83-19.24-1.5-12.63-2.07-24.95-4.15-37.77-4.79-5.41-.27-10.36,1.31-15.41,1.81-1.16.22-1.63.03-1.43-.58,5.62-1.92,11.54-3.65,17.84-3.5,12.58.29,24.5,2.63,36.89,4.44,7.85,1.15,15.49,1.12,23.39,1.18,8.67.07,15.49-5.37,22.37-8.13,4.12-1.66,8.41-3.68,11.46-6.96,1.72-1.85,1.43-4.83,2.13-6.89l-.06-.6c2.52-4.11-1.76-11.34,1.95-10.26.79,2.47.22,5.23.41,8.13,6.85-2.72,10.29-4.7,10.33-12.69.05-10.04-7.92-10.29-6.12-20.39,1.26-7.03.25-13.92-3.28-20.03-.37-.65,1.32-2.01,1.75-1.49,4.82,5.86,5.45,15.51,4.16,22.77-1.1,6.18,2.09,5.14,4.75,12.77,1.85,5.3,1.87,11.83-2.04,16.33-2.18,2.51-6.31,2.88-9.17,4.21-.91,3.08-.52,7.07-2.88,9.59-2.52,2.7-5.9,4.8-9.19,6.33l-7.03,3.27Z"/>
    <path class="st8" d="M512.71,118.37c3.11.74,5.91,2.53,8.74,4.25,1.45.88,1.08,3.04,2.07,3.9,3.81,3.3,8.6,5.16,13.38,6.63l12.12,3.73c6.18,1.9,12.45,2.88,18.43,5.53,11.18,4.94,15.25,11.26,17.31,23.44.75,4.46,2.13,8.75.61,13.25-3.18-26.3-8.43-32.68-33.41-38.54-5.46-1.28-10.46-2.93-15.71-4.78-4.63-1.63-8.99-2.84-13.3-6.04-4.23,7.57-10.46,12.2-17.9,16.18-9.88,5.29-9.29,4.19-16.26,15.81-5.93,8.27-10.68,16.98-15.16,25.79l-1.23.12c-.8.59-1.09.34-.63-.54l8.37-16.1c4.07-7.82,9.57-14.44,14.5-21.79,4.07-1.95,7.44-4.34,11.27-6.58,5.14-3.02,10.08-6.33,13.17-11.24.55-1.94.82-3.89.8-5.84-2.55-1.67-5.21-3.22-7.98-4.65l-.39-1.47c-.98-.9.11-1.22,1.21-1.03Z"/>
    <path class="st8" d="M519.67,58.71c.48,2.31.3,4.82-.55,7.52-.45,6.16-.66,12.4-2.33,18.6l-4.72,17.51c-1.42,5.26-1.16,10.59-1.55,16.08,1.19-.64,1.58-.2,2.18-.06-.62,0-1.24.35-1.21,1.03l-.2,1.61c1.23,2.18,3.17,4,5.82,5.47,1.19,1.03,2.71,2.47.94,3.4-2.76-.46-4.63-3.06-6.84-4.38-.2-.14-.39,0-.59.42-.57,1.3.54,2.93-1.32,4.39-2.03-9.89-1.69-16.58-.23-26.42.25-1.68.85-3.67-.9-4.73-.58-.35-3.09,2.88-1.03-7.58l.64.02.16,4.59.72.74c1.16-.19,1.67.72,2.31,2.15,1.85-9.12,4.49-14.22,5.22-24.43l1.46-20.39c-.42-.19-.39-.77-.04-1.02-.09-2.41-1.07-4.69-1.71-7.15-.38-1.47-1.29-1.85-2.25-2.86-.64-.67-1.46-2.54-1.53-3.47l-2.81-3.36c-9.5-10.08-18.65-13.9-33.03-12.03-3.87.5-7.89,0-11.47.12-1.02.18-1.55,0-1.57-.52.76-1,2.07-1.46,3.53-1.54l10.03-.5c16.99-.85,20.27.24,33.41,11.83,2.54,2.24,4.51,4.71,4.47,8.25,1.52.21,1.95,1.21,2.45,2.28,2.18,4.64,2.87,9.45,2.51,14.43Z"/>
    <path class="st8" d="M369.16,227.23c-.68-2.74.08-7.36,2.73-8.88s3.59-2.79,4.68-5.55c2.33-5.92,4.56-11.72,5.69-18.13.62-3.54,1.25-7.05,2.5-10.43,3.02-8.21,7.82-15.24,13.39-21.85,1.63-1.94,3.11-3.45,5.44-4.61,9.52-4.71,19.25-8.35,29.17-12.2,3.38-1.31,6.36-2.86,9.88-3.63,2.24-.49,2.55-2.98,3.95-4.82.69,3.78-2.56,6.21-5.82,7.59l-9.08,3.83c-9.91,4.18-19.68,7.66-29.51,12.28-6.61,7.09-11.89,14.97-15.29,24.08-2.8,7.51-1.81,14.05-7.78,27.56-1.11,2.51-1.85,5.5-4.46,6.86-4.87,2.53-2.12,6.4-5.47,7.91Z"/>
    <path class="st8" d="M796.52,234.98c.03.15,0,.31.04.45l-.49.98c-2.05,3.74-4.16,7.46-6.69,11.13-5.28,7.68-7.77,15.91-15.87,18.94-5.28,1.98-26.07-3.88-32.24-6.2-10.63-3.99-20.16-9.78-29.08-16.64-.79-.61-1.6-1.46-1.73-2.19l1.17-1.47c9.39,6.82,19.08,13.19,30.18,17.35,9.35,3.5,18.91,5.94,28.95,6.84,6.57.59,12.7-11.69,15.42-15.81.44-.81.94-1.49,1.5-2.06,3.21-3.56,5.45-7.84,8.2-11.75-.47.56.3.66.63.42Z"/>
    <path class="st8" d="M437.28,90.69c.46.34.27.57-.57.68.11,1.66-.91,2.35-2.13,1.07.53-4.92-.47-7.22,3.43-11.3l-1.63-4.94c-.28-1.13-.1-1.65.54-1.56.09,1.96,4.84,7.47,6.63,6.06-1.08-1.28-2.5-1.77-2.55-3.42,3.33,1.62,6.25,3.51,8.15,6.47,3.31.99,10.38,8.19,8.32,10.66-.44.52-1.65,1.7-2.47,1.12-5.91-4.21-5.06,3.1-14.46.07.42-2.41-.3-6.5-2.29-6.04-.61.14-.59.88-.97,1.14Z"/>
    <path class="st82" d="M574.41,204.64c.11-.34.28-.33.49,0,.53.86,1.69.31,2.44.78,1.06-.37,2.26-.14,3.59.67,2.51,1.15,5.26,1.72,7.96,2.38.46-.24.81-.35,1,.17.33.18.62.34,1,.41,4.03.45,8.02,1.44,11.96,2.98,1.14.2,2.14.55,2.99,1.04.18-.33.38-.34.59-.03l46.71,13.36c.44.78.85,1.59-.04,1.99l-81.67-22.67c-.65-.18-1.19-.53-1.35-.89-.1-.22.35-.64.38-.87,1.33.16,2.69.17,3.96.69Z"/>
    <path class="st163" d="M724.91,230.32l-2.99-.38c-4.21-.42-8.75-.41-12.95.03l-.46.99c-9.97-.06-19.95-.27-29.93-.62-1.15.22-2.58.25-3.98.25h-15.46c-.7-.01-1.02-.46-1.32-.72,1.9-.76,4.03-.85,6.3-.91l13.1-.36c9.97-.28,19.69-.47,29.58-.45l14.94.03c8.09.02,15.93-.06,24.07-.59,2.45-.16,15.14-1.61,14.76.49-.04.22-.78.54-1.07.56l-14.17.91c-6.99.45-13.68.82-20.4.75Z"/>
    <path class="st82" d="M540.3,251.66c-5.03-.69-4.69-12.79-3.43-17.03.63-2.1,4.51-4.82,3.53-6.95s-1.66-4.36-2.42-6.57c-2.7-7.87,6.1-8.87,1.83-17.88l-.17-15.14c-.02-2.05.59-4,1.55-5.82.77,5.34,1.02,10.72.83,16.3-.09,2.72.84,5.03,1.42,7.48.98,4.14-2.04,7.47-3.09,11.06-1.55,5.33,6.46,10.54.25,16.31-2.21,2.06-2.94,4.42-2.95,7.47,0,3.83.24,7.52,2.64,10.77Z"/>
    <path class="st124" d="M708.96,229.98c4.24-.46,8.71-.42,12.95-.03.98,0,2.24-.28,2.99.38-2-.02-4.25-.19-6.05.66-7.72,2.02-15.43,4.15-23.14,6.4-2.22.14-4.87.1-7.06-.3-.24-.04-.44-.31-.63-.65-1.18-.85-2.35-1.66-3.48-2.44-.91.04-1.54-.8-1.88-2.53.1-.19.28-.94-.14-.95l-3.96-.17c4.18-.82,8.57-.66,13.09-.6l17.3.23Z"/>
    <path class="st32" d="M690.04,108.6c-7.11,4.81-13.87,9.82-21.55,14.25-14.33,8.26-27.27,17.96-39.76,28.43-1.09.28-1-.16-.4-.99,11.87-11.21,25.2-20.71,39.41-29.17,7.38-4.4,14.04-8.91,20.84-14.02.87-.65,2.06-.5,3.03-.18-.63.88-1.29,1.05-1.58,1.68Z"/>
    <path class="st82" d="M620.2,162.22c1.28-.89,1.88-1.19,1.12.44-.27.66-.72,1.1-1.5,1.68l-48.7,36.38c-1.04.78-1.88,1.4-2.92,1.46-.15-.63.7-1.45.76-2.04l51.24-37.91Z"/>
    <path class="st91" d="M624.22,155.75c-.11,1.02-.55,2-1.83,2.76l-19.53,11.67-2.5,1.63c.36.73-.81,1.57-1.52,1.37.11.63-.86,1.11-1.47,1.02.4.43-.55.91-1.03.64-.56,1.21-2.62,2.37-3.95,2.87-3.97,3.22-7.92,6.53-11.83,9.9l-1.11.11c-3.31,2.91-6.55,5.96-8.73,9.9-.75-.91-.16-1.48-.18-2.05,1.5-1.98,2.53-4.68,4.44-6.35l.24-1.31c3.43-2.93,7-5.68,10.73-8.25,11.58-8.34,23.18-16.49,36.17-22.95.69-.34,1.28-1.08,1.72-1.36l.4.39Z"/>
    <path class="st82" d="M593.4,245.54c-2.61-1.6-5.05-3.49-7.35-5.36-8.55-6.92-18.91-10.86-30.05-10.8-2.88.02-5.34,1.56-8.32.57,10.87-5.29,27.43-1.91,36.08,5.06l8.91,7.18c.87.7,1.91,2.11.74,3.36Z"/>
    <path class="st99" d="M581.89,253.8c-1.32.07-2.51-.57-3.81-1.22-4.47-2.21-8.87-4.15-13.52-5.13-8.2-1.74-14.99-1.67-22.12,3.65,1.75-3.58,5.79-5,9.4-5.79,10.41-2.29,20.92,1.41,29.66,6.9.55.34.29,1.34.4,1.6Z"/>
    <path class="st7" d="M718.86,230.99c-.23.31-.66.93-1.3,1.13l-12.03,3.8c-3.29,1.04-6.9,1.89-10.58,2.34-2.84.34-5.97-.71-8.79-.72-3.2,0-4.04-3.56-3.49-6.07.8-.53,1.69,1.97,1.88,2.53,1.13.71,2.3,1.52,3.48,2.44,2.11-.03,4.22.14,6.51.28,1.65.1,3.2-.98,4.77-1.41l16.78-4.67c1.07-.3,2.05-.17,2.77.35Z"/>
    <path class="st3" d="M368.68,238.93c-1.7-.32-3.43-.42-5.19-.31l.21-.72c6.4-1.7,15.64,2.86,21.85,5.54,1.52.66,15.63,7.25,12.41,9.54-4.79-3.77-10.21-6.53-15.79-9.08-4.52-2.07-8.77-4.26-13.5-4.98Z"/>
    <path class="st79" d="M492.2,163.21c-.97.61-.91-.06-.4-.98,1.89-2.71,3.02-5.84,5.23-8.17,1.69-1.79,11.28-9.33,12.96-7.49.24.26-.36,1.03-.75,1.33-3.77,2.93-7.98,5.09-11.45,8.46-2.21,2.15-3.64,4.74-5.59,6.85Z"/>
    <path class="st3" d="M565.95,223.47c.87.46,1.33,1.87.42,2.62-7.19-4.81-14.97-9.33-20.7-16.29,7.69,3.78,13.09,9.87,20.28,13.67Z"/>
    <path class="st108" d="M395.77,235.65c1.46,1.87,6.49,11.11,4.04,10.97-.3-.02-.78-.55-.98-.92l-4.69-8.92-8.6-10.53c4.27,2.26,7.41,5.79,10.23,9.4Z"/>
    <path class="st139" d="M469.89,193.19c-.68-1.52,1.19-4.58,2.5-5.55l8.09-13.76c2.55-4.34,5.25-8.45,8.29-12.15l-9.52,15.86c-1.66,2.77-5.93,16.06-9.36,15.6Z"/>
    <path class="st108" d="M456.88,151.82c1.67,1.59,2.91,5.29,2,7.44-.41.25-.59,1.02-1.32.91-1.7-4.32-2.96-8.59-4.96-12.7-.95-1.95-3.34-2.64-3.78-5.06,4.85,1.62,6.62,5.19,8.07,9.41Z"/>
    <path class="st146" d="M694.06,109.37c-.12.45-.3.45-.54.04l-.5.58c-.14.43-.31.43-.5,0l-.5.5c.26.52.04.75-.54.66-.45.8-1.44,1.87-2.38,1.97l-13.52,8.35c-.78.4-.93.23-.4-.49l16.85-12.38c.56.37,2.39-.38,2.03.77Z"/>
    <path class="st119" d="M463.27,23.96c.43.31,1.01.54,1.57.52-3.62.36-8.9,3.4-11.69,6.07.37,3.72-2.38,1.7-1.93,6.65-1.15.28-1.95-.55-1.88-1.17s.02-1.18.15-1.71c1.33-.58.72-2.6,1.36-3.46,3.23-3.49,7.98-6,12.42-6.89Z"/>
    <path class="st64" d="M439.93,61.65l.69.94c-1.97,5.33-.91,5.45,3.19.35l1.2.2c.09-.43.22-.41.37.04.06-.24.2-.21.42.11-2.72,3.98-6.54,7.14-8.88,11.35-.27.49-.59.95-.54,1.56-1.01-3.08-.3-2.22,2.02-6.11-.94-2.63-1.57-5.63,0-7.85.48-.79.86-1,1.14-.62.09-.43.23-.41.39.04Z"/>
    <path class="st129" d="M454.42,136.74c.48-2.27,1.55-7.33,3.97-8.28,2.4.92,1.46,4.25.02,6-.76.92-2.88,2.98-4,2.28Z"/>
    <path class="st133" d="M441.4,111.52c-1.1-.41-3.03.43-4.09-.52-1.71-1.86-.71-4.83-.31-6.97l1.21.36,1.26,3.27c1.3,1.33,1.94,2.62,1.93,3.86Z"/>
    <path class="st103" d="M585.94,179.67l-10.98,9.56c.39-.52-.26-1.4-.3-1.96,3.15-3.38,7.77-5.08,11.28-7.61Z"/>
    <path class="st49" d="M441.57,47.24c-.02-.16.04-.32.02-.47l.41-.48c1.78-2.99,3.32-6.16,5.51-8.86.54.18.52,1.14.15,1.73l-4.64,7.27c-.42.65-1.06.58-1.45.82Z"/>
    <path class="st38" d="M656.67,229.31c-1.09.12-1.92-.4-2.42-1.35-.51.23-.88-.29-1.11-1.56.06-1.31-.48-2.71.55-4.12,1.14,1.31.78,2.76,1.55,4.03.62,1.03,1.43,1.92,1.44,3Z"/>
    <path class="st157" d="M460.37,159.81c-.27-.12-.46-.86-.74-1-.18-.09-.57.34-.75.45-.43-2.5-1.17-5.02-2-7.44.61-.26.48-1.02.48-1.58,1.59.67,2.59,2.21,3.01,4.6.98,2.04.97,3.7,0,4.97Z"/>
    <path class="st138" d="M439.4,57.74c.54.82.58,1.54-.5,1.47-1.29-2.24-1.36-6.19.63-7.84.32,2.1-.6,4.22-.13,6.37Z"/>
    <path class="st153" d="M437.85,91.6c-.18.82,0,1.77.54,2.83.62,1.52.49,2.56-.39,3.12-1.08-1.75-2.09-3.53-3.41-5.12,1.14-.04,1.79-1.12,2.7-1.75l.57.91Z"/>
    <path class="st106" d="M695.46,109.5c.78-.31,1.4-.39,1.04.5.56.62.25.75-.54.51l-6.4,3.81c-.62.36-.86.14-.43-.46l.35-.48c.57-.77,1.43-1.76,2.44-1.86.34-.81,1.07-1.33,2.19-1.57.36-.23,1.02-.15,1.34-.44Z"/>
    <path class="st54" d="M806.63,229.91c-.75.57-6.56,4.9-6.5,2.05,1.92-1.24,4.31-1.44,6.5-2.05Z"/>
    <path class="st168" d="M628.73,151.28c-1.45,1.22-2.74,3.54-4.51,4.47l-.4-.39c1.19-1.77,2.92-3.57,4.5-5.06.06.36.16.72.4.99Z"/>
    <path class="st61" d="M519.12,66.24l.55-7.52c2.21-.31-.38,7.14-.55,7.52Z"/>
    <path class="st130" d="M492.2,163.21c-1.14,1.23-1.21,3.12-2.48,3.96-.53.18-.7,0-.5-.51.64-1.57,1.41-3.18,2.58-4.42.04.36.1.74.4.98Z"/>
    <path class="st144" d="M259.16,256.85c.65-.23.83.38,1.06.65.34.4.43,1.46-.45,1.21-.42-.12-1.43.42-1.48-.15-.05-.5.38-1.53.86-1.71Z"/>
    <path class="st155" d="M363.7,237.91c-.08,1.21,4.37-.24,4.98,1.02-2.17.12-4.48-.49-6.48.47l-.5-.5c.2-.82,1.29-.81,1.99-1Z"/>
    <path class="st127" d="M704.98,110.49h-1c-.29.58-.88.74-1,0-.33.32-.68.33-1,0-.83.07-2.16-.21-2.49-1h-.5c-.55.13-.98.14-1-.5.06-.66,1.06-.45,1.68-.25l5.29,1.74Z"/>
    <path class="st143" d="M453.74,128.45c-.58,1.14-1.91,1.53-2.79,2.3-.5.16-.66,0-.49-.49.88-.83,1.67-1.81,2.87-2.26.33.06.56.16.4.45Z"/>
    <path class="st112" d="M468.82,193.12c.14-.43.31-.43.5,0,.34.17.34.66,0,1.49-.27.48-.39,1.38-.96,1.58-1.5.03-1.95-2.75-.45-3.11.24-.09.64,1.75.87.77.07-.29.03-.53.04-.72Z"/>
    <path class="st111" d="M698,109c.39.03.89.02,1,.5.13.17-.04.33-.5.5-.32-.03-.69.07-1,0-.25.62-.61.5-1,0-.16-.43-.63-.51-1.04-.5.7-.65,1.63-.57,2.54-.5Z"/>
    <path class="st39" d="M440.42,58.84c.36.67.07,1.59-.88,2.78l-1.14.62c.63-.89.51-1.99.5-3.02.28-.39.63-.89.5-1.47l1.03,1.1Z"/>
    <path class="st67" d="M694.13,109.94c-.24,1.05-1.61.97-2.19,1.57-.8.67-1.03.56-.45-.36.21-.07.36-.5.54-.66l.5-.5h.5l.5-.58.54-.04.07.57Z"/>
    <path class="st20" d="M489.72,167.17c-.65.43-.13,1.54-.67,2.08-.3-.37-.64-1.04-.6-1.55.03-.41.63-.67.78-1.04.11.22.28.41.5.51Z"/>
    <path class="st9" d="M654.25,227.96c-.38.17-.76.31-1.15.43-.01-.66.01-1.33.04-1.99.55.16.88,1.11,1.11,1.56Z"/>
    <path class="st11" d="M440.97,49.77c.38.71.19.91-.55.59h-.51c.05-.47.32-.78.52-1.18.2.17.38.37.53.58Z"/>
    <path class="st127" d="M469.32,194.61v-1.49c.04-.97.42-.92.57.07-.13.62-.28.9-.57,1.42Z"/>
    <path class="st127" d="M796.08,236.42c.01-.38.08-.84.49-.98.14.47-.32.67-.49.98Z"/>
    <path class="st32" d="M453.74,128.45c-.38.2-.42-.18-.4-.45.72-.4,1.46.29.4.45Z"/>
    <path class="st127" d="M441.58,46.76c-.06-.3.08-.5.41-.48-.11.18-.27.32-.41.48Z"/>
    <path class="st87" d="M362.2,239.4c-.31.07-.58-.18-.5-.5.18.15.35.31.5.5Z"/>
    <path class="st15" d="M823.13,46.2l3.76,6.24c1.14,1.89,7.34,29.45,4.38,31.62-.24.18-.83-.32-.87-.78-.48-4.83-.89-9.5-1.83-14.1-.67-1.08-.98-2.41-.92-3.98-.65-4.13-1.72-12.77-5.06-15.39.19-.39-.49-.79-.61-1.1-2.28-4.53-5.2-3.8-3.52-10.99.28-1.21.48-2.41,1.59-2.77-1.3,4.4-.98,8.56,3.07,11.24Z"/>
    <path class="st41" d="M797.94,130.55c.23,1.55-3.32,5.62-3.07-19.58l.18-17.87c2.02,4.19,1.28,8.56,1.48,12.95.38,8.26.18,16.24,1.4,24.5Z"/>
    <path class="st14" d="M827.92,72.67c.3,5.32.45,10.61,1.3,16.19,3.37.21,7.16-.43,9.49-2.58.59-.54.18-3.5,1.94-2.51.7.77.32,3.87-.82,4.59-2.85,1.79-10.34,3.61-12.08,1.41-.89-1.12-1.31-21.24-1.2-24.07,1.08-.3,1.61.86,1.58,3.49-.25,1.11-.32,2.27-.2,3.48Z"/>
    <path class="st46" d="M833.79,35.14c-1.39-.85-1.24-2.45-1.26-3.75-.07-4.72-1.31-8.73-2.29-13.33,3.6,5.15,3.68,11.37,3.55,17.08Z"/>
    <path class="st17" d="M787.2,106.97c.46-.86,8.74,15.14,5.94,13.48-2.07-4.32-4.91-8.45-5.94-13.48Z"/>
    <path class="st5" d="M827.65,65.2c.58,1.24.64,2.65.92,3.98-.82-.45-.43,3.04-.65,3.48-.07-1.26-.34-4.52-.45-6.65-.02-.35-.53-.42-.93-.32.02-.57.69-.56,1.11-.5Z"/>
    <path class="st114" d="M827.04,221.9l-1.1.09c-.49-.47-.01-.61.33-.51.38.11.59.22.77.42Z"/>
    <path class="st126" d="M171.05,166.48c-8.59-5.54-14.12-13.02-19.55-21.13-.31-.46-.69-.93-.33-1.51.21-.34.68-.88,1.01-.4,5.26,7.62,11.35,14.26,18.32,20.15.83.7,1.65,1.61.55,2.89Z"/>
    <path class="st126" d="M91.48,36.1c-2.79,1.03-14.62,3.83-14.8,1.53-.03-.39.56-1.11,1.17-1.22,4.01-.74,7.96-1.19,11.89-2.42,5.96-1.86,6.12-5.57,7.49-4.85,1.13.59-1.05,5.23-5.75,6.96Z"/>
    <path class="st128" d="M146.04,137.36c-.08.35-1,0-1.24-.2-.33-.28.02-1.06.55-1.66.47.2.87,1.09.7,1.86Z"/>
    <path class="st96" d="M112.92,18.61c.23.17-.34.72-.62.79-.3.08-1.26.2-1.24-.49s1.03-.67,1.86-.3Z"/>
    <path class="st83" d="M188.44,160.37c.3-.33.77-.1.87.13.07.17,0,.43,0,.97,0,.24-.25.35-.51.04-.28-.33-.8-.67-.36-1.15Z"/>
    <path class="st172" d="M449.84,273.7c-.36.24-.74.48-1.03.81-6.01,1.51-11.83,3.55-17.47,6.11,1.91,2.38.22,5.47-2.57,5.84-3.53.47-3.15-2.34-.81-4.03l.05-1.62c-1.41.43-1.76.28-1.06-.47,2.76-2.78,20.42-10.64,22.88-6.64Z"/>
    <path class="st18" d="M474.91,293.12c.4.34.93.46,1.43.58-.96.09-2.43,1.08-3.48,1-2.42.32-2.16-.58.05-1.13.67-.13,1.36-.23,2.01-.45Z"/>
    <path class="st105" d="M426.96,280.34c-.09.48.73.46,1.06.47.79,1.28-2.2,2.51-3,1.28-.44.16-.63-.07-.37-.48.53-.76,1.4-1.13,2.31-1.26Z"/>
    <path class="st102" d="M425.01,282.08c1.35.48.84,1.41-.44.66-.25-.19-.4-.47-.58-.71.16-.19.51-.24.65-.44.37-.09.51.17.37.48Z"/>
    <path class="st22" d="M588.92,272.65l.06.6c-.63-.32-.73-1.14-.06-.6Z"/>
    <path class="st92" d="M472.9,293.57c.09.46-.46.45-1.12.75.18.5.68.31,1.07.38-.41-.03-1,.71-1.54.45-.44.23-.59.04-.5-.5.63-.1.06-.43-.49-.78.85-.44,1.7-.13,2.58-.3Z"/>
    <path class="st75" d="M471.31,295.15c-.4.23-.79.81-1.43,1.01-.34-.99.44-1.2.93-1.51.15.18.32.35.5.5Z"/>
    <path class="st12" d="M454.96,311.61c-.07,1.15-.59,1.15-.66,0,.11-.62.55-.62.66,0Z"/>
    <path class="st19" d="M461.76,277.68l.09.93c-2.1,1.88-4.67,3.2-7.25,4.88-4,2.61-7.85,5.77-12.45,7.35-5.02,1.73-10.41,1.47-15.67,2.37-.81.14-1.3-1.63-.78-1.84,4.74-1.93,10.18-1.06,14.95-2.57,5.02-1.58,13.13-7.96,18.15-10.39-.99-1.09-1.92-1.89-1.56-3.31,1.69,1.15,2.98,2.06,4.52,2.57Z"/>
    <path class="st45" d="M651.2,167.27c3.01.65,5.67,2.33,8.47,3.44-.35.12-.68.29-.95.55-2.85-1.23-5.85-2.16-8.59-3.65-.86-.67-.5-.78,1.06-.34Z"/>
    <path class="st48" d="M756.18,237.33c-.39-.27-.89,0-.51.46-1.25-1.75-3.38-3.38-3.04-5.98l3.55,5.51Z"/>
    <path class="st116" d="M717.43,115.91l-1.03.52c-1.28-.1-3.41-.84-4.45-1.37-.13-.4.21-.59,1.03-.54.75-.78,4.62.22,4.45,1.4Z"/>
    <path class="st74" d="M631.79,188.13c-1.01.41-1.89,1.25-3.02,1.49-.52.14-.69-.04-.51-.54.79-.57,1.77-.83,2.58-1.35.29.19.62.31.95.4Z"/>
    <path class="st170" d="M721.92,116.96c.09-.45.26-.43.5,0v.5l-1,.5c-.97,0-1.72-.54-2.49-1-.19-.42,0-.57.5-.5.39-.69,1.22-.53,2.49.5Z"/>
    <path class="st136" d="M712.99,114.51c.08.53-.69.44-1.03.54-.36-.18-1.1-.39-1.49-.47l.52-.69c.4-.81,2.05-.35,2.01.61Z"/>
    <path class="st170" d="M718.93,115.97c.65-.52.89-.25.5.5-.15.18-.32.35-.5.5-.51-.3-1.63.31-1.99-.5l.5-.56c.29-.9,1.05-.68,1.49.06Z"/>
    <path class="st170" d="M724.41,117.96c.36.89-.21.79-1,.5-.43-.22-1.19.07-1.49-.5l.5-.5c.72-.06,1.36.19,1.99.5Z"/>
    <path class="st125" d="M736.33,189.65l1.53-1.04c.41.05.86-.14,1.53.2-.9.94-2.08.57-3.06.85Z"/>
    <path class="st4" d="M851.45,161.79l1-1.06c.23.07.53-.08,1.01.13-.34,1.15-1.31.71-2,.93Z"/>
    <path class="st55" d="M725.4,118.46c.24.17.07.34-.5.5-.63.2-1.03-.26-1.49-.5.4.01.84-.09,1-.5.32.15.97-.1,1,.5Z"/>
    <path class="st170" d="M726.4,118.46c-.12.45-.6.49-1,.5-.15,0-.35-.05-.5,0,.06-.25.26-.42.5-.5h1Z"/>
    <path class="st134" d="M698.57,112.45l-.02.53c-.64.12-.99,1-1.06.18-.03-.34.12-.64.27-.71s.68.16.82-.01Z"/>
    <path class="st55" d="M727.9,119.99c-.36-.09-.8-.07-1-.45.4-.04.96-.06,1,.45Z"/>
    <path class="st136" d="M717.43,115.91c.08.34-.13.62-.5.56l-.53-.04c-.05-.46.7-.47,1.03-.52Z"/>
    <path class="st42" d="M734.44,121.95c-.35,0-1.07.02-1.1-.45.34.06,1.11-.05,1.1.45Z"/>
    <path class="st136" d="M722.41,117.46c-.1.22-.27.4-.5.5h-.5c.09-.49.6-.47,1-.5Z"/>
    <path class="st42" d="M735.87,122.44c-.22-.1-.37-.31-.5-.5.24,0,.43.28.5.5Z"/>
    <path class="st136" d="M448.82,274.51c-1.02,1.17-2.75,1.59-3.97,2.73-4.17,3.89-8.28,7.63-13.71,9.7-1.5.57-3.56,1.04-4.81-.06s-1.34-2.83-1.75-4.13c.41.17.33-.44.44-.66l3-1.28c.65.02.78.39.88.76.63,2.32-1.98,1.77-1.78,4.15,1.82,0,3.33-1.05,4.4-2.45l-1.66-2.99c4.27-2.27,15.52-6.74,18.97-5.76Z"/>
    <path d="M711.01,112.94c2.54.24,4.97,1.25,7.42,1.96,1.47.53,1.63.89.5,1.06-.49,0-1-.12-1.49-.06-1.27-.89-3.01-.83-4.45-1.4-.67-.26-1.26-.6-2.01-.61-.31,0-.71-.29-1.01-.4-.85-1.06.02-.85,1.04-.56Z"/>
    <path class="st59" d="M711.01,112.94c-.33-.03-1.15.1-1.04.56-1.97-.72-4.13-.94-5.99-1.93.14-.29.47-.48,1-.58,1.99.72,4.22.91,6.04,1.95Z"/>
    <path d="M721.42,115.97c.52.36.69.69.5,1-.86-.01-1.66-.3-2.49-.5-.2-.05-.52-.29-.5-.5.42-.43-.18-.76-.5-1.06,1.03.3,2.19.25,2.99,1.06Z"/>
    <path d="M723.45,116.41c-.16.44-.6.59-1.04.56-.16-.01-.33,0-.5,0-.2-.14-.35-.36-.7-.52-.38-.17-.35-.47.2-.48.62-.24,1.5.41,2.03.44Z"/>
    <path class="st59" d="M703.98,110.49v.5c.15.25-.01.44-.5.56-.39-.06-.83-.16-1-.56-.22-.19-.05-.36.5-.5h1Z"/>
    <path class="st132" d="M704.98,110.99c-.19.38-.57.61-1,.58-.13-.07-.35,0-.5-.02.03-.22.23-.58.5-.56.3.02.72-.1,1,0Z"/>
    <path class="st82" d="M660.36,220.32l-21.13-1.64c-4.73-.37-15.96.32-15.51-5.4,1.26.29,1.27,1.64,2.29,2.04,1.95.76,4.51,1.09,6.88.95.66-.04.44-2.33-.21-2.5-1.03-.27-2.45.19-3.13-.85.82-.98,2.87-1.6,4.07-.74,1.26.91.67,2.78.77,4.34,8.87.39,17.57.68,26.36,2.53,1.9-1.27,38.73,4.1,37.29,3.33l.9.49c.21.11.67.49.43.81-.15.21-.78.54-1.18.54-13.63.16-23.95-2.8-37.83-3.88Z"/>
    <path class="st19" d="M640.15,203.09c1.66-.63,3.17-.63,4.54-.02.26-.22.26-.39,0-.5-.79.25-2.33.34-2.49-.52l-5.1-.86c-3.45-.58-7.42-.95-10.24-3.12-1.4-1.27-.91-4.98.03-6.5.9,1.59-.31,3.85,1.05,5.37,1,1.12,3.29,1.38,4.79,1.68.52-.49.15-1.68-.03-2.2-.37-1.06-2.02-1.01-3.33-2.06-1.53-1.22,3.34-1.23,4.73.91.59.9-.14,2.93.86,3.75l18.61,3.76c4.39.89,8.33,2.05,12.79,2.63,3.48.45,16.6,4.88,15.92,5.76-.13.16-.69.73-.95.64l-13.36-4.58c-3.49-1.19-7.3-1.01-10.7-2.23-1.96-.7-3.24,0-5.07-.01-9.81-.06-18.33-1.94-25.11,4.9-.86.87-2.24,1.18-2.94,2.62-.69-3.57,2.09-5.15,4.67-6.38,3.73-1.78,7.36-3.03,11.34-3.05Z"/>
    <path class="st126" d="M693.49,118.01c-.31.65-.76,1.4-1.49,1l-59.32,36.35c-.43.2-.55.03-.39-.47l64.13-40.88c.51-.33,1.33-.01,1.44.24.42.93-2.89,2.28-4.37,3.76Z"/>
    <path class="st126" d="M633.29,166.24l44.84,16.92c1.04.39,1.76.53,1.94,1.45.63,1.01-.02,1.62-1.04,1.06l-46.72-18.9c-.43-.64-.11-.81.98-.53Z"/>
    <path class="st122" d="M633.77,151.3c-.52.2-.68.04-.48-.48,9.11-6.76,18.33-12.89,27.81-19,.66-.42,1.96.63,1.49.95-9.65,6.43-19.06,12.76-28.82,18.52Z"/>
    <path class="st104" d="M603.29,171.75c-5.35,5.02-11.92,8.91-17.88,13.38-.99.57-1.29.63-.57-.33l-.06-.85c2.51-2.29,5.2-4.26,8.07-5.9.71-1.17,2.57-2.26,3.93-2.8.06-.52.64-.89,1.09-.56-.18-.67.82-1.17,1.49-1,.02-.72,1.1-1.53,1.86-1.5.1-.86,1.39-1.18,2.07-.45Z"/>
    <path class="st73" d="M592.84,178.06c-2.52,2.44-5.61,4.18-8.01,6.75-.38,1.05-1.81,1.99-2.81,2.31.11.47-.13.67-.61.53-.05.33-.13.53-.5.5-.22.55-.54,1.02-1.01.54.08-.24.25-.42.35-.53.19-.2.15-.6-.21-.65-.21-.03-.47.22-.63.23,4.09-3.6,8.26-7.23,12.95-10.01.78-.41.89-.46.47.34Z"/>
    <path class="st84" d="M621.31,162.66c.15-.63-.75-.36-1.12-.44l2.97-3.03c1.05-1.07,2.45-1.93,3.92-.79-1.51,2.05-3.55,3.52-5.77,4.26Z"/>
    <path class="st21" d="M603.34,212.03h-.5c-4.11-.33-7.91-2.21-11.96-2.98-1.01-1.92,12.48,2.46,12.46,2.98Z"/>
    <path class="st164" d="M627.19,163.76l.6.43c1.98.22,3.69,1.37,5.5,2.05-.37.08-.73.24-.98.53l-5.5-2.04c-.52-.3-.7-.63-.55-1,.31-.02.63-.05.93.03Z"/>
    <path class="st59" d="M675.58,121.47c-1.1.68-2.58,2.13-3.95,2.45-1.26.58-1.46.47-.6-.33,1.31-.97,2.55-2.09,4.14-2.61l.4.49Z"/>
    <path class="st59" d="M632.68,155.35c-1.29.79-2.28,2.54-4.3,2.27,1.08-1.51,2.56-2.18,3.92-2.73.12.16.25.32.39.47Z"/>
    <path class="st167" d="M585.41,185.13c-.99.74-1.75,1.9-2.96,2.41l-.42-.43c.55-1.15,2.03-1.48,2.81-2.31-.31.49.37.31.57.33Z"/>
    <path class="st25" d="M651.2,167.27c-.33.02-1.09-.18-1.06.34-.91-.5-2.07-.59-2.84-1.37-.1-.17.04-.3.41-.38,1.3-.07,2.38,1.17,3.48,1.41Z"/>
    <path class="st51" d="M671.64,123.93c-.86.21-2.11,1.81-3,1.84-.59.18-.71.17-.39-.31.66-.99,1.92-1.21,2.78-1.85-.31.49.41.3.6.33Z"/>
    <path class="st154" d="M644.69,202.57c.44.14.43.31,0,.5l-4.54.02c.53-.64,1.59-.28,2.05-1.04,1.1.13,1.79.35,2.49.52Z"/>
    <path class="st140" d="M580.94,206.09c-1-.45-2.57-.03-3.59-.67-.19-.25-.02-.47.09-.62.63-.85,2.81.82,3.5,1.29Z"/>
    <path class="st6" d="M633.77,151.3c-1.2.71-1.89,1.71-3.02,2-.44-.14-.43-.31,0-.5.69-1.11,1.72-1.44,2.55-1.98.1.21.27.37.48.48Z"/>
    <path class="st53" d="M701.99,110.49c.21.2.05.37-.5.5-.9-.12-1.81-.38-2.49-1-.06-.33.13-.48.5-.5.88.19,1.89.27,2.49,1Z"/>
    <path class="st25" d="M647.18,165.74c0,.33-.17.5-.5.54l-2.49-1.04c-.23-.44-.04-.59.5-.5.69.41,2.11-.12,2.49,1Z"/>
    <path class="st31" d="M693.49,118.01c-.1.47-.19.96-.41,1.49-.34.16-.62.15-.82-.06-.11-.12-.2-.27-.25-.43.03-.64.98-.48,1.49-1Z"/>
    <path class="st94" d="M644.69,164.75c-.18.15-.35.31-.5.5-.83-.34-1.58-.89-2.49-1-.23-.44-.04-.59.5-.5,1.02-.3,1.77.56,2.49,1Z"/>
    <path class="st40" d="M605.83,212.53c.44.16.43.34,0,.54-1.05-.16-2.25-.21-2.99-1.04.16.01.34.02.5,0,.82-.11,1.8.13,2.49.5Z"/>
    <path class="st76" d="M697.5,110c.13.52,0,1.14-.7,1-.25-.05-.59-.21-.84-.49.1-.25.32-.39.54-.51l.49-.26c.17-.09.33.14.51.26Z"/>
    <path class="st58" d="M689.14,113.86c.23.04.48.19.43.46-.6.35-1.19.76-1.91,1.17-.3-.7-.09-1.12.34-1.35.29-.16.73-.2,1.15-.28Z"/>
    <path class="st170" d="M603.29,171.75c-.6.11-1.58-.04-2.07.45-.83.64-.99.56-.41-.35.17-.68.88-1.03,1.53-1.13.35.31.85.54.95,1.04Z"/>
    <path class="st131" d="M787.69,246.32c-.34.79-.61,1.78-1.5,2.06.46-.69.14-2.19,1.5-2.06Z"/>
    <path class="st90" d="M628.77,189.62c-.53.11-.81,1.15-1.51,1.01-.27-.15-.26-.32,0-.5.15-.51.6-.77,1-1.06.14.21.31.39.51.54Z"/>
    <path class="st81" d="M679.03,185.67c.22,0,.5.02.74-.1.32-.16.34-.62.3-.96.35.15.52.4.53.79.01.58-.12.79-.77.79-.33,0-.5-.4-.8-.52Z"/>
    <path class="st56" d="M667.61,126.42c-.37.34-.93.83-1.49,1-.44-.14-.43-.31,0-.5.25-.33.54-.83,1-1,.42-.19.57,0,.5.5Z"/>
    <path class="st165" d="M630.74,152.8v.5c-.49.12-.64.7-1,.5-.3-.15-.29-.31,0-.5.37-.42.71-.45,1-.5Z"/>
    <path class="st77" d="M589.89,208.64c-.27-.15-.69-.09-1-.17.36-.63,1.48-.62,2.03-.16l-1.03.32Z"/>
    <path class="st145" d="M664.12,128.41c-.2.45-.54.83-1,1-.34-.15-.33-.31,0-.5.2-.44.51-.85,1-1,.2.15.2.32,0,.5Z"/>
    <path class="st43" d="M666.12,126.92v.5c-.5.15-.94.51-1.49.5.19-.71.86-.89,1.49-1Z"/>
    <path class="st148" d="M668.64,125.76c-.31,0-.8.45-1.03.66-.18-.15-.35-.31-.5-.5.39-.14.72-.4,1.14-.47.26-.04.55-.04.39.31Z"/>
    <path class="st115" d="M642.2,163.75c-.18.15-.35.31-.5.5-.29-.03-.55-.3-.77-.5-.44-.41.09-.6.54-.52.23.04.52.3.73.52Z"/>
    <path class="st35" d="M582.45,187.55c-.35.15-.59.59-1.03.59v-.5c.16-.18.51-.31.61-.53l.42.43Z"/>
    <path class="st101" d="M580.92,188.64c-.16.3-.29.55-.48.76-.22.24-.41.33-.5-.03-.06-.24-.07-.55-.02-.69l1.01-.54v.5Z"/>
    <path class="st132" d="M702.98,110.49c-.06.2-.25.5-.5.5-.32,0-.68.04-1,0,.07-.21.25-.48.5-.5.33-.03.67,0,1,0Z"/>
    <path class="st44" d="M574.9,204.64c-.15-.04-.35.06-.49,0-.19-.34.11-.56.3-.57.54-.02,1.05-.16,1.21.26-.57.25-.81.25-1.03.3Z"/>
    <path class="st43" d="M581.42,188.14c-.13.13-.41.33-.5.5v-.5c.19-.1.35-.33.5-.5v.5Z"/>
    <path class="st72" d="M606.43,213.04c-.2-.02-.4.06-.59.03v-.54c.09.03.35.03.62.08.15.03.19.2-.02.43Z"/>
    <path class="st104" d="M602.86,170.18c-.15.2-.32.38-.51.53-.54.33-1.04.73-1.53,1.13-.13.43-.28.41-.46-.03.58-1.05,1.6-1.1,2.5-1.63Z"/>
    <path class="st161" d="M629.75,153.8c-.32,1.07-1-.42,0-.5v.5Z"/>
    <path class="st120" d="M699.5,109.5c-.15.18-.32.35-.5.5-.17,0-.33.02-.5,0,.06-.23.25-.46.5-.5.15-.02.35-.03.5,0Z"/>
    <path class="st132" d="M647.71,165.86c.2.3-.2.33-.41.38l-.62.04c.14-.2.31-.38.5-.54.18,0,.35.13.53.12Z"/>
    <path class="st80" d="M663.13,129.41c-.09.09-.04.61-.26.48-.33-.18-.33-.56-.26-.71s.3-.13.52-.27v.5Z"/>
    <path class="st121" d="M664.12,128.41v-.5c.15-.04.34,0,.5,0-.05.21-.41.3-.5.5Z"/>
    <path class="st107" d="M627.26,190.63c-.58-.01-.59-.5,0-.5v.5Z"/>
    <path class="st118" d="M626.81,164.73c-.27-.04-.49-.18-.81-.45-.3-.25-.3-.51.25-.55l.55,1Z"/>
    <path class="st118" d="M627.8,164.19c-.22-.02-.82-.07-.6-.43.22.06.76.09.6.43Z"/>
    <path class="st91" d="M508.68,96.93c-2.43.4.17-3.47-1.52-5.35-.03-.49-.03-.97,0-1.46-.1-.41-.26-.56-.49-.46-1.98,1.27-3.72,2.98-6.19,3.61-2.03.51-3.52-.03-4.43-2.2-2.39,4.25-4.96,8.37-8.22,12-1-.38-.91-1.61-.41-2.32,3-4.27,5.87-8.39,8.21-12.89,1.16.16,1.94-.36,2.98.02-.19.92-1.1,2.62-.1,3.39s2.67-.12,3.67-.62c3.84-1.91,5.88-5.3,7.65-9.03,1.47-3.09,3-6.14,2.62-9.61-.31-2.78-2.47-4.09-5.04-3.68-5.49.88-9.86,10.69-13.81,7.69-.95-.72-1.83-2.16-.96-3.49.89.66,1.06,1.4,1.51,1.6,3.14,1.39,9.9-11.22,17.53-6.77,6.41,3.73-.7,16.48-3.71,20.84.82,2.99-.47,7.07.72,8.73Z"/>
    <path class="st126" d="M483.34,158.14c-.43.63-1.25-.49-1.26-.82,0-.36.11-.83.45-1.38,4.99-7.96,11.65-14.34,19.11-20.05,1.09-.83,1.99-2.18,3.58-1.55-1.68,2.24-3.64,3.76-5.58,5.46-6.19,5.44-11.48,11.36-16.3,18.34Z"/>
    <path class="st112" d="M454.38,37.84c-.35-.12-.46-.28-.35-.48,2.07-.62,4.13-1.69,6.35-1.7.8,0,1.52.72,2.52.4,3.73-1.18,7.51-.8,11.39-.69,4.95.14,9.64.75,14.07,2.88.49.24.95.82.64,1.07-.2.17-.79.54-1.19.4-7.06-2.54-19.34-3.39-26.48-1.69-.85.2-1.6-1.13-2.36-1.02-1.68.24-3.09.85-4.58.84Z"/>
    <path class="st112" d="M491.77,71.62c.17.8-1.69,1.19-2.05.65-2.65-4.02.51-10.19,2.44-14.65,1.18-2.73,1.13-10.5,1.1-13.39,2.25,1.6,1.07,3.99,1.51,5.96.51,2.3.72,4.26-.08,6.54l-2.85,8.07c-.78,2.22-.62,4.16-.06,6.82Z"/>
    <path class="st142" d="M511.5,119.4c2.42,1.77,5.34,2.95,8.05,4.56,1.7,1.02,1.83,2.29,1.25,4.15-.4,1.29-.33,2.83-1.73,3.26-.64-.11-1.09-.83-1.01-1.48.31-2.44-4.66-4.16-7.15-7.12-.93-1.11-.83-3.43.59-3.37Z"/>
    <path class="st41" d="M460.86,53.01c11.01.73,13.62,14.68,11.15,12.28-1.79-1.75-2.25-4.43-3.94-6.33-5.92-6.65-13.65-1.96-12.49-8.02,1.57,1.93,3.1,1.93,5.27,2.07Z"/>
    <path class="st120" d="M500.75,84.17c-.61.35-1.24.16-.9-.59l1.31-.45.95-1.04c.04-1.25-1.11-1.95-1.39-3.4.75-2.44,6.08-9.75,9.28-7.4-3.43,1.99-6.52,4.16-7.5,7.76.26.86,1.45,1.97.81,2.95s-1.35,2.02-2.56,2.18Z"/>
    <path class="st132" d="M460.07,65.36c-.94-.13-.91-1.71-1.61-2.22-.84.31-1.11,1.18-2.14.92.48-1.86,2.35-2.67,3.79-2.86,1.93-.26,3.66.33,4.67,1.97.73,1.18,1.3,2.55,0,3.62-.94-1.25-1.27-2.61-2.6-3.54-.57.68-.92,2.24-2.13,2.11Z"/>
    <path class="st43" d="M440.43,50.36c-.11-.39.17-.64.55-.59,4.03,2.04,5.02.21,7.61,5.59.36.74-.43,2.12-.92,1.64-1.38-1.38-1.91-3.44-3.64-4.26-1.41-.66-2.82-1.13-3.6-2.38Z"/>
    <path class="st93" d="M445.39,61.21c.83.02.58.52-.07.95-.17.44-.35.44-.53,0-1.95,1.51-3.46,1.97-4.86-.5l-.39-.04c-.28-1.04.09-2.06.88-2.78,2.07-.27,3.83.63,4.97,2.37Z"/>
    <path class="st149" d="M448.49,81.65c-.1-.62,1.42-1.22,1.48-1.86.08-.8-.34-1.91-.92-2.93,1.08-.79,1.86.45,2.31,1.05.72.96.23,1.95-.43,2.87-.48.66-1.8,2.05-2.45.87Z"/>
    <path class="st149" d="M474.45,70.7c-2.23.79-5.4-.13-6.52-2.85,2.33.58,4.24,1.45,6.52,2.85Z"/>
    <path class="st65" d="M472.39,187.64c-1.01,1.72-2.11,3.64-2.5,5.55l-.57-.07h-.5c.49-2.19,1.92-4.06,2.93-6.02.19.2.4.38.63.54Z"/>
    <path class="st147" d="M512.15,39.75c-1.31-.74-2.38-1.91-2.81-3.36.88.93,2.71,1.93,2.81,3.36Z"/>
    <path class="st10" d="M447.91,112.47c-.93,1.32-3.87.09-3.5-1.5.51.19,4.54.29,3.5,1.5Z"/>
    <path class="st0" d="M467.28,189.13c-1.48.24-1.86-2.5-.5-2.99.96-.26,1.18.48,1.09,1.25-.07.63.2,1.57-.58,1.74Z"/>
    <path class="st85" d="M446.9,62.21c-.11.61-.82.67-1.1,1.07-.11-.2-.25-.24-.42-.11l-.37-.04c-1.33.13-1.37-.33-.22-.98.17-.03.36.04.53,0,.18-.57.56-.75,1.08-.44.41-.08.58.09.5.5Z"/>
    <path class="st48" d="M446.9,62.21c-.22-.1-.4-.27-.5-.5-.44-.14-.43-.31,0-.5.4-.22.73-.75,1.53-.37-.3.56-.94.83-1.03,1.37Z"/>
    <path class="st50" d="M500.75,84.17c-.26.34-.28.36-.47.41-.34.08-1.04.12-1.09-.23-.08-.55.22-.87.66-.78.24.28.53.5.9.59Z"/>
    <path class="st39" d="M446.4,61.22v.5c-.35.17-.7.34-1.08.44l.07-.95h1.01Z"/>
    <path class="st1" d="M511.22,125.51c.18.37-.36.34-.59.42-.15-.67.39-1.42.59-.42Z"/>
    <path class="st127" d="M507.15,90.12c-.21-.1-.37-.26-.49-.46.14-1.03.78-.2.49.46Z"/>
    <path class="st33" d="M517.68,54.25c-.26.08-.47-.08-.53-.26-.13-.38.08-1,.49-.76l.04,1.02Z"/>
    <path class="st82" d="M454.38,37.84c-.84.18-1.35-.48-.35-.48.38-.12.36.23.35.48Z"/>
    <path class="st50" d="M501.16,83.12c.17-.46.49-.86.95-1.04-.02.56-.44.86-.95,1.04Z"/>
    <path class="st8" d="M437.85,91.6c5,8.01-3.35,13.72,6.56,19.37,1.2.68,2.17,1.05,3.5,1.5,10.26,3.48,4.74.46,15.8,1.26.05,3.09-4.56,1.5-7,2.61,1.1,1.62,3.26,3.17,3.72,5.53,1.48,7.58,1.62,15.34.53,22.85-.06.39-1.14,1.16-1.39.93-.19-.17-.46-.73-.47-1.13l-.24-8.22c-1.17.55-2.37,1.41-2.18,2.89-.83-.19-1.55-.2-2.53.79,2.43,1.35,2.86,3.83,4,5.98,2.93,5.53,4.53,11.03,5.14,17.32.75,7.84,2.23,15.35,3.49,22.85l.5,2.99.63,3.94c.16,1.01.11,2.12.45,3.11-.38.13-.56,1.77-1.08,1.02-2.29-3.33-2.66-7.37-3.27-11.29-1.38-8.86-2.92-17.41-3.64-26.11-.28-3.4-1.48-6.61-3.01-9.57-1.05-2.03-1.31-4.63-2.72-6.72-1.49-2.2-3.88-3.04-6.01-4.52-1.8-1.25-2.01-4.34-1.3-6.23.56-1.49,2.29-1.71,3.14-2.51.4-.23.8.07.49.49-1.84,1.63-3.29,4.21-1.38,6.36.95,1.08,2.56,1.25,3.62,2.12.39-1.12,1.06-1.71,1.22-2.5,3.59-3.71,5.16-2.97,3.97-8.28.18-2.06.11-4.2-.18-6.48-4.41-7.48-11.15-5.7-16.81-10.45-2.26-1.9-3.38-4.86-4.4-7.5.4-2.14.93-4.29.98-6.47.05-2.01-.46-3.89-1.27-6.04.51-.29.82.12,1.13.08Z"/>
    <path class="st110" d="M453.88,91.03c.16.51-.02.69-.54.55-3.45-2.88-7.03-2.33-11.42-4.5-.42-1.13.53-2.28-.67-3.1-.84,1.44-.18,3.43-1.56,4.41-1.01-.4-2.3-.79-3.64.18.38-2.38,1.6-5.6,3.81-6.31,1.18.01,2.85,1.09,4.05.55,2.37-1.07,2.58,1.32,3.7,2.2,2.22,1.73,5.25,3.29,6.27,6.03Z"/>
    <path class="st66" d="M453.34,91.58c.2-.16.38-.34.54-.55.23.32,1.22.77.83,1.65-.42.46-1.15-.58-1.36-1.1Z"/>
    <path class="st7" d="M721.92,229.95l-12.95.03c-.06-.41.44-.54.97-.54h11.01c.52,0,1.01.13.97.51Z"/>
    <path class="st13" d="M688.03,236.44c-1.46.02-3.02-1.09-3.48-2.44-.04-.24.02-.47.33-.96,1.1,1.07,2.35,2.08,3.15,3.4Z"/>
    <path class="st152" d="M596.77,175.26c-.83,1.45-2.82,1.73-3.93,2.8.14-.37-.25-.32-.47-.34,1.06-.63,2.77-2.55,3.95-2.87.71-.22.86-.08.44.41Z"/>
    <path class="st154" d="M601.22,172.2c-.58.58-1.09,1.16-1.86,1.5-.43.19-.59,0-.52-.52.39-.48,1.24-.85,1.52-1.37l.46.03c-.17.32.21.31.41.35Z"/>
    <path class="st141" d="M599.36,173.7c-.54.24-.98.7-1.49,1-.4.16-.55-.02-.5-.5.29-.52,1.15-.62,1.47-1.02.19.16.36.33.52.52Z"/>
    <path class="st52" d="M597.86,174.7c-.29.16-.9.32-1.09.56-.23-.04-.62-.11-.44-.41.29-.08.89-.38,1.03-.64.18.15.35.31.5.5Z"/>
    <path class="st8" d="M624.22,155.75l-.4-.39c.32-.33.39-.1.4.39Z"/>
    <path class="st98" d="M691.93,111.51c-.71.73-1.39,1.5-2.44,1.86l-.39-.25c.81-.5,1.29-1.78,2.38-1.97-.19.31.24.32.45.36Z"/>
    <path class="st106" d="M693.02,110l.5-.58-.5.58Z"/>
    <path class="st106" d="M692.02,110.49c.17-.16.3-.36.5-.5-.15.18-.32.35-.5.5Z"/>
    <path class="st39" d="M444.79,62.16l.22.98-5.6,5.8c-1.17-2.6-.45-5.01.52-7.28.21-.48.5-.98.83-1.44.36,1.39.63,2.66,1.84,2.17.5-.2.82-1.07,1.27-.79l.93.57Z"/>
    <path class="st8" d="M445.8,63.28c-.22.18-.38.21-.42-.11-.03-.67.64-.5.42.11Z"/>
    <path class="st60" d="M644.69,203.07v-.5c1.22-.12,1.14.64,0,.5Z"/>
    <path class="st91" d="M582.45,187.55c-.26-.21-.35-.32-.42-.43.27.17.37.31.42.43Z"/>
  </g>
</svg>