<?xml version="1.0" encoding="UTF-8"?>
<svg id="Ebene_10" xmlns="http://www.w3.org/2000/svg" version="1.1" viewBox="0 0 930 325">
  <!-- Generator: Adobe Illustrator 30.1.0, SVG Export Plug-In . SVG Version: 2.1.1 Build 136)  -->
  <defs>
    <style>
      .st0 {
        fill: #c6edf4;
      }

      .st1 {
        fill: #3f3f3f;
      }

      .st2 {
        fill: #e2f6f9;
      }

      .st3 {
        fill: #070808;
      }

      .st4 {
        fill: #070707;
      }

      .st5 {
        fill: #a7dae3;
      }

      .st6 {
        fill: #658389;
      }

      .st7 {
        fill: #e0f0f4;
      }

      .st8 {
        fill: #060809;
      }

      .st9 {
        fill: #222c2e;
      }

      .st10 {
        fill: #eef0f0;
      }

      .st11 {
        fill: #c8eef5;
      }

      .st12 {
        fill: #69898f;
      }

      .st13 {
        fill: #e2f5f9;
      }

      .st14 {
        fill: #010101;
      }

      .st15 {
        fill: #050606;
      }

      .st16 {
        fill: #b3e8f1;
      }

      .st17 {
        fill: #182021;
      }

      .st18 {
        fill: #4b6265;
      }

      .st19 {
        fill: #020203;
      }

      .st20 {
        fill: #95c2ca;
      }

      .st21 {
        fill: #474747;
      }

      .st22 {
        fill: #545454;
      }

      .st23 {
        fill: #121718;
      }

      .st24 {
        fill: #1b2324;
      }

      .st25 {
        fill: #ddeaec;
      }

      .st26 {
        fill: #e1f5f9;
      }

      .st27 {
        fill: #b5b5b5;
      }

      .st28 {
        fill: #3b4546;
      }

      .st29 {
        fill: #f8fdfe;
      }

      .st30 {
        fill: #303e40;
      }

      .st31 {
        fill: #343a3b;
      }

      .st32 {
        fill: #b2dee6;
      }

      .st33 {
        fill: #4f666a;
      }

      .st34 {
        fill: #7fa6ac;
      }

      .st35 {
        fill: #030303;
      }

      .st36 {
        fill: #ddf4f8;
      }

      .st37 {
        fill: #080b0b;
      }

      .st38 {
        fill: #181f20;
      }

      .st39 {
        fill: #08090a;
      }

      .st40 {
        fill: #080a0a;
      }

      .st41 {
        fill: #b3e4ed;
      }

      .st42 {
        fill: #bfecf3;
      }

      .st43 {
        fill: #040606;
      }

      .st44 {
        fill: #2c2c2c;
      }

      .st45 {
        fill: #090b0c;
      }

      .st46 {
        fill: #171717;
      }

      .st47 {
        fill: #465b5f;
      }

      .st48 {
        fill: #dbf4f8;
      }

      .st49 {
        fill: #1d2627;
      }

      .st50 {
        fill: #1b2021;
      }

      .st51 {
        fill: #151b1d;
      }

      .st52 {
        fill: #0b0f0f;
      }

      .st53 {
        fill: #2c3a3c;
      }

      .st54 {
        fill: #b8c9cc;
      }

      .st55 {
        fill: #141a1b;
      }

      .st56 {
        fill: #4d6468;
      }

      .st57 {
        fill: #0f1414;
      }

      .st58 {
        fill: #b7e9f2;
      }

      .st59 {
        fill: #324144;
      }

      .st60 {
        fill: #1f292a;
      }

      .st61 {
        fill: #cdf0f6;
      }

      .st62 {
        fill: #c9eef5;
      }

      .st63 {
        fill: #303e41;
      }

      .st64 {
        fill: #0a0d0e;
      }

      .st65 {
        fill: #242e30;
      }

      .st66 {
        fill: #e5eced;
      }

      .st67 {
        fill: #c9eff5;
      }

      .st68 {
        fill: #43585b;
      }

      .st69 {
        fill: #edf9fc;
      }

      .st70 {
        fill: #171e1f;
      }

      .st71 {
        fill: #73969c;
      }

      .st72 {
        fill: #638185;
      }

      .st73 {
        fill: #fefeff;
      }

      .st74 {
        fill: #192122;
      }

      .st75 {
        fill: #000101;
      }

      .st76 {
        fill: #dcebee;
      }

      .st77 {
        fill: #def5f9;
      }

      .st78 {
        fill: #1a2123;
      }

      .st79 {
        fill: #323e40;
      }

      .st80 {
        fill: #e3eced;
      }

      .st81 {
        fill: #e6f7fa;
      }

      .st82 {
        fill: #f7fcfe;
      }

      .st83 {
        fill: #324143;
      }

      .st84 {
        fill: #d9dcdd;
      }

      .st85 {
        fill: #a2cfd7;
      }

      .st86 {
        fill: #f1fbfc;
      }

      .st87 {
        fill: #e1f3f6;
      }

      .st88 {
        fill: #060708;
      }

      .st89 {
        fill: #fbfefe;
      }

      .st90 {
        fill: #a7d9e1;
      }

      .st91 {
        fill: #d4f2f7;
      }

      .st92 {
        fill: #aee2eb;
      }

      .st93 {
        fill: #acd9e1;
      }

      .st94 {
        fill: #fafefe;
      }

      .st95 {
        fill: #638085;
      }

      .st96 {
        fill: #4e4e4e;
      }

      .st97 {
        fill: #7fa5ac;
      }

      .st98 {
        fill: #050707;
      }

      .st99 {
        fill: #cff0f6;
      }

      .st100 {
        fill: #c2ecf3;
      }

      .st101 {
        fill: #101516;
      }

      .st102 {
        fill: #fcfefe;
      }

      .st103 {
        fill: #0d1112;
      }

      .st104 {
        fill: #060606;
      }

      .st105 {
        fill: #fdfeff;
      }

      .st106 {
        fill: #020202;
      }

      .st107 {
        fill: #dee2e3;
      }

      .st108 {
        fill: #212b2d;
      }

      .st109 {
        fill: #e9f8fb;
      }

      .st110 {
        fill: #aadde6;
      }

      .st111 {
        fill: #405356;
      }

      .st112 {
        fill: #d9f3f8;
      }

      .st113 {
        fill: #e8f8fa;
      }

      .st114 {
        fill: #8bb6bd;
      }

      .st115 {
        fill: #1e2729;
      }

      .st116 {
        fill: #060808;
      }

      .st117 {
        fill: #cdeff5;
      }

      .st118 {
        fill: #f6fafb;
      }

      .st119 {
        fill: #effafc;
      }

      .st120 {
        fill: #e2f6fa;
      }

      .st121 {
        fill: #fff;
      }

      .st122 {
        fill: #515151;
      }

      .st123 {
        fill: #f4fbfc;
      }

      .st124 {
        fill: #ebf9fb;
      }

      .st125 {
        fill: #e6f5f8;
      }

      .st126 {
        fill: #020303;
      }

      .st127 {
        fill: #d9e0e1;
      }

      .st128 {
        fill: #d2f1f6;
      }

      .st129 {
        fill: #f4fbfd;
      }

      .st130 {
        fill: #e9f1f3;
      }

      .st131 {
        fill: #cbeff5;
      }

      .st132 {
        fill: #242424;
      }

      .st133 {
        fill: #f4fcfd;
      }

      .st134 {
        fill: #080b0c;
      }

      .st135 {
        fill: #d5dbdc;
      }

      .st136 {
        fill: #eef5f6;
      }

      .st137 {
        fill: #040404;
      }

      .st138 {
        fill: #c7eef4;
      }

      .st139 {
        fill: #fafdfe;
      }

      .st140 {
        fill: #f6fcfd;
      }

      .st141 {
        fill: #a5d6df;
      }

      .st142 {
        fill: #1a1b1b;
      }

      .st143 {
        fill: #565656;
      }

      .st144 {
        fill: #87aab0;
      }

      .st145 {
        fill: #d7dfe0;
      }

      .st146 {
        fill: #3c4e51;
      }

      .st147 {
        fill: #edf9fb;
      }

      .st148 {
        fill: #080808;
      }

      .st149 {
        fill: #101111;
      }

      .st150 {
        fill: #37484b;
      }

      .st151 {
        fill: #e7f7fa;
      }

      .st152 {
        fill: #b0e5ee;
      }

      .st153 {
        fill: #101010;
      }

      .st154 {
        fill: #040505;
      }

      .st155 {
        fill: #3a4b4e;
      }

      .st156 {
        fill: #202a2c;
      }

      .st157 {
        fill: #e5f7fa;
      }

      .st158 {
        fill: #d5f2f7;
      }

      .st159 {
        fill: #1a2223;
      }

      .st160 {
        fill: #ade2eb;
      }

      .st161 {
        fill: #425659;
      }

      .st162 {
        fill: #6c8d92;
      }

      .st163 {
        fill: #fefefe;
      }

      .st164 {
        fill: #0b0e0e;
      }

      .st165 {
        fill: #070909;
      }

      .st166 {
        fill: #7a9fa5;
      }

      .st167 {
        fill: #b0e6ef;
      }

      .st168 {
        fill: #050607;
      }

      .st169 {
        fill: #b3e1e9;
      }

      .st170 {
        fill: #b2e7f0;
      }

      .st171 {
        fill: #f2fbfc;
      }

      .st172 {
        fill: #799ea4;
      }

      .st173 {
        fill: #030404;
      }

      .st174 {
        fill: #b2e8f1;
      }

      .st175 {
        fill: #eaf8fb;
      }

      .st176 {
        fill: #314042;
      }

      .st177 {
        fill: #d9f3f7;
      }

      .st178 {
        fill: #a7dae2;
      }

      .st179 {
        fill: #111616;
      }

      .st180 {
        fill: #293537;
      }

      .st181 {
        fill: #dff2f5;
      }

      .st182 {
        fill: #070a0a;
      }

      .st183 {
        fill: #c5edf4;
      }

      .st184 {
        fill: #cceff5;
      }

      .st185 {
        fill: #e9f1f2;
      }

      .st186 {
        fill: #383838;
      }

      .st187 {
        fill: #273335;
      }

      .st188 {
        fill: #2a2a2a;
      }

      .st189 {
        fill: #424242;
      }

      .st190 {
        fill: #aee1ea;
      }

      .st191 {
        fill: #4f676b;
      }

      .st192 {
        fill: #3b4d50;
      }

      .st193 {
        fill: #2c393b;
      }

      .st194 {
        fill: #d5dcde;
      }

      .st195 {
        fill: #1f282a;
      }

      .st196 {
        fill: #b1e7f0;
      }

      .st197 {
        fill: #cef0f6;
      }

      .st198 {
        fill: #cff0f5;
      }

      .st199 {
        fill: #8bb4bc;
      }

      .st200 {
        fill: #a0c6cc;
      }

      .st201 {
        fill: #75989e;
      }

      .st202 {
        fill: #080a0b;
      }

      .st203 {
        fill: #37484a;
      }

      .st204 {
        fill: #d8f3f7;
      }

      .st205 {
        fill: #def5f8;
      }

      .st206 {
        fill: #181e20;
      }

      .st207 {
        fill: #0f1415;
      }

      .st208 {
        fill: #b8eaf2;
      }

      .st209 {
        fill: #93bfc7;
      }

      .st210 {
        fill: #283435;
      }

      .st211 {
        fill: #1e2829;
      }

      .st212 {
        fill: #253032;
      }

      .st213 {
        fill: #ebf0f0;
      }

      .st214 {
        fill: #030405;
      }

      .st215 {
        fill: #090909;
      }

      .st216 {
        fill: #feffff;
      }

      .st217 {
        fill: #010202;
      }

      .st218 {
        fill: #1a1a1a;
      }

      .st219 {
        fill: #658489;
      }

      .st220 {
        fill: #fdfefe;
      }

      .st221 {
        fill: #1d2527;
      }

      .st222 {
        fill: #2c383a;
      }

      .st223 {
        fill: #91bdc5;
      }

      .st224 {
        fill: #e9f8fa;
      }

      .st225 {
        fill: #0f0f0f;
      }

      .st226 {
        fill: #7fa4ab;
      }

      .st227 {
        fill: #dce5e7;
      }

      .st228 {
        fill: #030505;
      }

      .st229 {
        fill: #1b1b1b;
      }

      .st230 {
        fill: #c3ecf4;
      }

      .st231 {
        fill: #7fa5ab;
      }

      .st232 {
        fill: #e4eff1;
      }

      .st233 {
        fill: #a6d4dc;
      }

      .st234 {
        fill: #161d1e;
      }

      .st235 {
        fill: #76cad8;
      }

      .st236 {
        fill: #040506;
      }

      .st237 {
        fill: #fcfdfd;
      }
    </style>
  </defs>
  <rect class="st235" x=".11" y=".46" width="930.16" height="325.05"/>
  <g>
    <path class="st174" d="M.5,0h926.68v323.52c-265.27.38-542.71.49-808.07-.11l-.46-1.18c-2.18-2.12-2.43-3.69-.75-4.72l330.38.07,28.49-.57c144.92-.35,290.72-.76,437.4-1.2,1.6-.08,2.74-1.14,3.43-3.17-.53-101.8-1.27-203.17-2.23-304.11,1.37-1.22.99-1.76-1.13-1.62-133.42.8-267.1,1.06-401.05.8-166.6-.74-333.96-.23-502.07,1.55l.26.69c.63.8.21,1.89-1.26,3.27l-.26,9.51-1.02.69c-1.08-1.3-1.52-3.12-1.32-5.44l-1.01.46c-.22.84-.4,1.67-.53,2.49.16,2.95.34,5.94.53,8.96l1,.46v22.84l-1,.6c-.45,5.81-.43,12.1,0,17.92.39.05.95.15,1,.45.45,2.65.29,11.87,0,14.76l-1,.72c-.19,3.66-.37,7.31-.53,10.95.16.62.33,1.28.53,1.99l1,.34.1,82.05c-.42,1.23-.47,2.28-.14,3.13.15,42.04.36,84.23.63,126.56l.81-1.25c-.06-37.57-.19-74.93-.39-112.11l.49-1.23c7.85-1.55,15.64-3.33,23.38-5.34,1.23,1.95,1.65,4.27,1.25,6.94.34-10.51.48-21.34-1.98-31.5-.64-2.64-2.44-4.64-4.22-6.49-.81.63-1.3.74-1.29-.29,0-2.08,4.06-2.42,5.73-2.08,5.87,1.2,8.47,7.2,9.28,12.64,1.69,11.42,1.18,24.26-.24,35.73-1.56,1.37-1.77,2.17-.63,2.39.74-.7,1.03-.4.52.51.34,1.84,2.17-1.01,1.54-1.96-.52.11-.67-.08-.48-.57l-.68-1.59c.41-4.62.82-9.21,1.22-13.79l1.97-.54c12.84.77,25.65.83,38.42.2,6.79-.85,6.24,3.03,3.19,7.22-.67,8.89,10.01,9.95,8.29.34l.79-.72c-.23-.39-.31-.84.06-1.14-.45-.81.55-5.3,1.03-5.59.72-.43,11.67-2.2,12.72-2.04,1.16.17,1.62.33,1.22,1.54-3.89,12.13-7.65,24.22-11.27,36.27l-1.13.27c-.36.44-.41.8-.14,1.07,1.19.6.93,1.01-.38.86-1.24,2.13-2.45,7.1-2.52,10.5.37.14.9.41.86.68-.29,1.58-2.88,13.03-3.43,13.45-1.28.94-1.61,1.11-2.39-.45-.99-1.99-2.23-9.64-2.48-12.29-.04-.42.17-.87.45-1.32-.33-.91-.33-1.58.01-2.03.27-.19.25-.3.02-.54-.95-.02-1.05.07-1.08.94l4,20.42c-2.03,9.29-3.65,18.65-4.87,28.07.24,1.69.17,3.18-.2,4.49.26.13.23.27-.05.41l.22,1.54c-5.97,6.86-10.68,14.42-14.12,22.68l-1.07.4-36.51.17c-.75-.23-1.1-.76-1.01-1.55,3.16-17.59,6.06-35.36,8.71-53.31l.99-11.63.71-1.65c.36-2.5.32-5.05-.12-7.65l.52-.32c-.34-1.08-.46-2.52,0-3.48.3-.88.63-2.25-.5-1.99.2.15.19.31,0,.5.43.48.37,1.89,0,2.49l-.28,1.47c.27.79.2,1.29-.22,1.52.21,4.12.09,8.23-.34,12.35-2.48,20.9-5.65,41.53-9.51,61.87-.15.88-.57,1.44-1.5,1.49l81.78-.08c1.86.54,5.25,3.91,4.34,5.89-38.88.39-77.97.51-117.28.36C.1,215.79.16,107.87.5,0Z"/>
    <path class="st157" d="M927.18,323.52v.5H119.07c-.97-.04-.94-.43.04-.61l808.07.11Z"/>
    <path class="st157" d="M117.61,323.41c.56-1.29.94-1.29,1.51,0-.06.18,0,.43-.04.61H0V0h.5v323.53s117.11-.12,117.11-.12Z"/>
    <path d="M119.12,323.4c-.5,0-1-.02-1.51,0-.97-1.7-2.32-3.04-3.73-4.9l-79.89-.1c-1.32.62-2.34.13-3.58.05-7.69-.49-15.06.37-22.88-.91,8.28-1.43,16.07-.54,24.49-1l7.25-42.83c1.84-10.88,2.72-21.3,3.58-31.84l.56.3c.34,2.41.35,4.8.03,7.17-.24,8.93-1.1,17.74-2.67,26.86l-6.94,40.32,37.18-.21c2.11-6.31,5.27-11.88,9.53-16.82,1.74-2.37,3.62-4.42,4.98-6.81.4-.45.41-.59.05-.41-3.26-3.65,4.47-30.55,4.06-32.87l-2.93-16.52c-.39-2.22-.88-4.34-.14-6.4.79.53.95,1.28,1.15,1.86-.39.72-.4,1.58-.04,2.57.7,4.88,1.84,9.65,3.28,14.52l3.72-14.58c.09-3.52,1-7.4,2.52-10.5l.38-.86c-.37-.27-.14-.71.14-1.07l7.56-24.67c1.32-4.31,2.36-8.36,4.3-12.67-4.49.66-8.39,1.6-12.88,2.02-.55,1.82-.91,3.46-1.55,4.88-.21.4-.38.37-.49-.09-.1.45-.28.46-.53.06-1.13-1.37-.72-5.62,1-6.34-.36-2.04-.18-3.87.56-5.47l-.9-2.69c.54-8.46.27-16.9-.4-25.3-.39-4.94-3.52-13.92-9.82-11.24l-.84-.92c-.16.43-.34.42-.53,0l-.54.27c-.03.9-.37.84-.86.1-1.72-.92.08-1.94,1.38-2.58,1.78-.89,7.83-1.7,7.47,1.02,1.95.42,2.72,1.1,2.3,2.02l1.49.73c2.43,3.65,3.75,7.81,3.96,12.48,11.4-2.3,23.01-3.74,34.84-4.32l11.49-10.59,1.2.25c.07-.39.26-.57.56-.54.61-1.14,1.44-1.84,2.49-2.08,2.35-3.35,5.16-6.08,8.84-7.87.63-1.24,1.97-2.04,3.13-2.53-.47-1.76,2.44-3.44,4.05-3.49,1.99-2.53,5.85-5.44,8.74-7.06l1.66.1c-.2-1.48,2.12-3.71,3.48-2.5.87-1.9,4.68-4.49,6.49-3.43,3.51-2.72,9.04-4.19,13.42-3.45,1.13-1.31,3.92-2.63,5.04-.99.95-1.3,3.59-2.13,4.43-.5,1.03-1.14,2.44-1.72,4.21-1.74,1.98-.74,3.42-.65,4.3.27.17-1.42,1.71-1.78,2.56-.54,4.28-2.41,10-3.82,14.9-3.43-.1-1.42,2.05-2.22,2.9-1.08,3.51-4.42,7.55-8.28,12.12-11.6l1.31.22c-.23-.65.05-.86.61-.47.61-1.41,1.8-1.78,3.16-2.05,5.1-8.01,8.67-18.68,5.54-28.82l.26-2.48c-1.38.46-2.08-5.9-1.92-6.21.21-.38.47-.66.89-.82-1.15-.77-1.58-2.16-1.28-4.18.68-2.34.81-4.77.4-7.29-1.07-1.75-1.39-3.95-.96-6.59-.25-1.79.19-3.09,1.33-3.89-1.49-.83-.64-3.65.87-3.87-.23-.06-.43-.13-.5-.27-.14-.29,1.11-3.84,1.62-4.38.27-.55-.04-.86-.75-1l4.63-10.29-.47-1.11c-1.04,1.31-3.48,1.56-4.42.03-.8,1.2-2.05,1.55-2.55-.02l-1.09,1-26.07.02-.59-.99-24.29.27-1.05.76c-1.49.06-12.56.3-13.15.02-.19-.09-.27-.39-.33-.76-14.51-.13-28.99-.1-43.44.1l-.34,1c-15.31.03-30.62.07-45.93.1l-.61-.99c-.57,1.46-3.92,1.55-4.38.02l-.75.99c-8.51,0-17.03,0-25.54-.01l-.6-1-19.3.27c-1,1.13-3.91,1.14-4.88,0-9.17.15-18.26.06-27.26-.26-.41,1.58-5.45,1.5-5.99-.01-.35.02-.75-.18-1.18-.12s-.37-1.16-.04-1.19c6.8-.51,13.19-.58,20.36-.62l185.2-1.23,137.27-.49,101.09-.03,59.11.45,99.07.34,57.83-.25,58.81-.21,84.17-.26,75.67-.2,25.5-.21c1.31-.01,3.39.28,3.36,1.67-.85.65-1.56,1.15-1.54,2.39l.76,50.3.8,89.99.18,32.5.79,130.48c-2.33,1.36.53,3.64-6.52,3.66l-250.85.65-33.56.05-121.41.23-29.47.18-28.5.57-207.51.09c-1.18,0-1.57-.03-2.72-.03l-120.51-.13c.16,1.68,1.73,2.3,2.13,3.68.13.44-.47.92-.57,1.23Z"/>
    <path class="st121" d="M17.38,9.94c9.33.19,18.67.36,28.02.48l.16.67c-11.94,38.7-23.62,77.38-35.02,116.03l-1.13.29-1-.45c-.28-34.36-.47-68.69-.56-102.99l1-.59.31-10.39c.22-1.29,1.89-1.95,2.23-3.07h5.99Z"/>
    <path class="st75" d="M8.84,23.39l.03,17.97.29,51.5.25,34.56,1,.56c.05,3.32-.28,6.62-.98,9.89l1,.46.14,26.74c4.38-1.48,8.81-2.42,13.29-2.79l1.06.51c.77-1.23,1.61-1.61,2.54-1.14,3.01-.86,5.71,7.04,6.05,9.45,1.4,9.89,1.56,19.62,1.08,29.55-.02.5-.46.97-.86,1.12-.24.09-.53.13-.91-.23-.43-2.78.22-5.42-.65-8.1-7.73,2.41-14.83,4.33-22.65,5.24l.15,25.74.22,75.63c.01,4.05.25,7.54,0,11.47-.05.82-1.21,2.21-1.94,2.46-1.02-.57-1.03-2.14-1.04-3.45l-.19-78.84-.21-32.06c0-1.13-.3-1.88-.12-3.1.52-3.39.18-6.87.11-10.28-.01-.54-.9-.86-.79-1.31.09-.35.9-.8.9-1.4l-.1-83c-.37-.59-.49-1.49-.03-1.99-.4-3.37-.39-7.43.03-10.95v-15.93c-.45-5.83-.44-12.06,0-17.92v-23.89c-.44-2.85-.41-6.16-.03-8.96-.47-.71-.39-1.73.03-2.49.17-2-.28-8.06,1.16-7.76.27.06.95.39.88.9-.53,4.11.29,8.06.3,11.84Z"/>
    <path class="st14" d="M81.27,146.45c1.47-.07,2.1.37,1.9,1.34l1.46.06c7.78,7.57,12.74,18.87,5.71,28.65.31,8.58.41,17.63-1.83,25.86,2.61,4.59,4.88.95,3.82-2.92.18-1.36.34-2.54,1.78-1.47l.53-.06c.19.32.34.73.43,1.23.68,2.77.8,6.08-2.03,7.86-1.78,1.12-4.78.75-6.17-1.16-1.27-1.73-2.68-5.24-1.59-7.2.87-1.57,2.62-2.66,1.74-5.21-4.72-.59-9.69.61-14.75.48l-14.99-.39c-4.84-.13-9.5-.81-14.27-.3-.32,5.11-.13,10.07-1.15,14.8.21.72-.8,1.96-1.58,2.02-1,.45-2.16.85-3.41.97-.64.06-.74-.72-.61-1.26.25-1.07,3.57-.45,3.96-3.28,1.37-9.99,1.02-19.7.39-29.66-.26-4.13-.62-8.05-2.64-11.69-2.92-5.28-9.46-5.88-10.44-4.64-.29.37-1.44.92-.1,1.17-.39.89-1.69,1.03-2.54,1.14-1.18-.74-.78-1.31.55-.98-.48-2.45,1.79-3.69,3.84-4.35-1.04-3,2.31-7.14,4.41-9.43,4.57-4.98,11.02-7.88,17.63-8.93l1.43.81c1.59-1.58,2.62-1.74,3.09-.48.53-.44,1.11-.94,1.82-1.02,5.7-.58,17.96,2.82,22.55,6.24.57.42.82,1.15,1.04,1.81Z"/>
    <path class="st134" d="M40.81,210.54c-.28-.63.81-1.86,1.54-1.96.47.06.95.36.94.73-.01.87-3.04,6.76-7.3,5.35-3.04-1.01-4.23-5.8-1.55-8.04.18,2.59-.65,5.39,1.94,6.32,2.02.72,3.62-.93,4.42-2.4Z"/>
    <path class="st102" d="M652.5,318.11c-1.67.78-3.48.34-5.29.92-6.72.45-13.19,1.01-19.49-.87l24.78-.05Z"/>
    <path class="st80" d="M97.19,230.38c-1.39,3.16-1.63,7.02-2.52,10.5-1.44-.31,1.45-8.33,1.91-10.06-.09-.59.36-1.22.61-.45Z"/>
    <path class="st131" d="M6.51,71.67c-.19.07-.53-.16-.53-.52v-16.87c0-.36.34-.6.53-.52v17.92Z"/>
    <path class="st133" d="M6.48,98.55c-.14.43-.31.43-.5,0v-10.43c.01-.36.32-.59.53-.52l-.03,10.95Z"/>
    <path class="st108" d="M43.84,241.39l-.02,7.43c0,.34-.14.6-.38.53.07-2.48.17-5.16-.59-7.47-.31-.93-.06-2.26.5-2.99.18.79.35,1.62.5,2.49Z"/>
    <path class="st62" d="M6.51,29.86c-.21.07-.51-.16-.51-.52l-.02-8.44c.14-.43.31-.43.5,0l.03,8.96Z"/>
    <path class="st203" d="M43.84,237.91c-.43-.15-.36-1.15,0-1.49l-.5-.5c.16-.68-.56-1.55.69-2.27.45,1.46.72,3.28-.19,4.26Z"/>
    <path d="M43.84,237.91v3.48c-.65-.66-.56-1.62-.5-2.49v-2.49c.15-.26.32-.25.5,0v1.49Z"/>
    <path class="st166" d="M42.35,208.59c-.26.81-1.16,1.26-1.54,1.96-.13-.21-.31-.39-.52-.51.58-.53.89-1.54,1.58-2.02.13.21.29.4.48.57Z"/>
    <path class="st224" d="M6.48,20.9h-.5c0-.83-.34-2.07.53-2.49-.07.82-.04,1.66-.03,2.49Z"/>
    <path class="st12" d="M87.69,238.91v2.03c-.12-.76-1.36-2.11.02-2.57.21.16.18.34-.02.54Z"/>
    <path class="st48" d="M6.51,100.54c-.8-.27-.53-1.31-.53-1.99h.5l.03,1.99Z"/>
    <path class="st174" d="M95.08,199.13c-.51-.09-.31-.85-.43-1.23l.49.09c-.07.28-.06.85-.06,1.14Z"/>
    <path class="st181" d="M97.58,229.51c-.28.2-.44-.12-.43-.34.02-.41.35-.6.57-.74l-.14,1.07Z"/>
    <path class="st111" d="M85.52,292.7l.05-.41c.58-1.02,1.02.13-.05.41Z"/>
    <path class="st222" d="M87.69,238.91c0-.18,0-.36.02-.54.54.15.53.55-.02.54Z"/>
    <path class="st108" d="M43.84,236.42h-.5c0-.16-.04-.34,0-.5.25.05.42.26.5.5Z"/>
    <circle class="st56" cx="87.94" cy="221.24" r=".25"/>
    <path class="st121" d="M239.6,108.07c-1.31,5.69-1,11.33-.69,17.36.35,6.65-.14,13.1,1.59,19.62,4.57,17.26,9.36,21.1,11.6,28.52.2.67,1.36.93,1.56,1.46.61,1.59,1.84,2.1,2.9,3.18l5.91,6.03c5.18,5.28,15.72,6.98,16.96,16.49,1.57,12.04,4.03,11.25,4.92,20.8l2.13,22.76c.07.72.94,1.28,1.25,1.04.34-.27.43-.91.4-1.44l-.69-12.96c-.47-8.91,8.16-29.21,6.02-40.33l-.91-.51c.87-.99,1.47-2.16,1.79-3.53-.68-.6-.62-1.56.2-2.88,5.16-7.93,8.65-16.06,9.24-25.85l1.07-1.07c-1.05-.26-.65-.94.08-1.48.53-.52.88-1.65,2.06-2.02,5.49,8.61,10.8,17.05,15.35,25.89l1,1.57c3.77,6.08,6.68,12.78,9.02,19.8,1.92,5.79,2.77,11.62,3.79,17.58.44,2.59.16,4.99.17,7.35-1.17,8.02-2.47,16-3.91,23.92l-4.05,19.42c-2.97,14.27.48,29.01-1,43.25-.76,3.05-1.58,3.49-4.63,3.82-13.86-.24-27.71-.26-41.56-.07-1.33-.29-2.2-.88-2.61-1.74-.34-.47-.48-1.04-.07-1.47-.32-.77-.52-2.27.04-2.99.14-.89.04-2.15.31-3.22l7.05-7.23c4.9-5.02,7.56-10.52,10.39-16.66,4.42-9.6,8.13-18.93,9.79-29.55.63-4.01,2.17-8.61,4.33-11.96,1.92-2.98,10.38-6.67,8.21-7.7-1.04-.49-5.28,3.77-7.16,4.49,2.18-5.92,5.43-11.07,8.76-16.35.5-.8.76-1.31-.21-1.89-.43-.26-1.06-.42-1.71.57-19.8,30.08-11.37,35.97-24.18,61.68-2.55,5.12-4.74,9.92-8.8,14.3l-13.87,14.96c-2.86,2.75-7.53,4.34-11.47,4.76-30.61-.12-61.16-.03-91.65.3l-95.15.14,5.9-10.19,7.88-10.17c7.11-9.17,4.46-13.07,11.2-25.65,3.74-6.99,7.56-13.62,10.95-20.83,1.22-2.59,10.44-25.76,9.15-26.2-.27-.09-.56-.18-.74.24l-10.62,25.2-10.2,18.74c-2.56,4.7-4.84,9.01-6.1,14.3-.76,3.21-1.63,6.46-3.99,9.15.57-6.95,1.03-13.42,2.72-19.86l9.41-35.82c3.65-13.91,11.38-43.46,18.54-54.78,7.69-12.16,17.69-22.27,28.53-31.65l19.24-16.65c4.73-4.09,9.91-7.27,15.08-10.77,10.16-6.89,31.62-7.3,45.75-11.5,3.69-1.1,7.42-1.4,10.82-2.68,1.81-.61,2.78-.28,2.9.97Z"/>
    <path class="st174" d="M582.45,12.44l-.61,3.2-.24,5.6c-.19-1.38.08-2.17.79-2.37l-3.07,148.63-23.8-16.72c-1.42-.88-3.29-2.25-3.96-3.81-.5-.36-.65-.23-.45.4,1.35.88,3.48,2.37,3.96,3.89l2.17,2.32,17.08,12.83c7.04,5.29,15.66,7.9,22.5,13.21l4.67,3.62c.84.53,1.41,1.45,1.5,2.47.28,0,.52.03.62.16,5.49,7.52,7.11,19.85,7.53,29-.44,14.12-.74,28.32.93,42.29l5.54,29.2c.25,9.47.43,18.94.54,28.4l-25.3.06c-1.22.1-1.69-.17-1.4-.81.93-3.44.81-7.19-.04-10.9l-3.78-16.51c-.62-2.73-.03-5.58.14-8.36.54-8.91-3.3-14.73-2.34-23.91.38-3.64,1.58-7.3.06-11.23l-2.28,13.96c-.91,5.6,3.61,14.27,2.02,24.56-.3,1.95-.21,3.98.25,5.93l3.52,14.95c.93,3.93.84,7.93.81,12.15l-62.44.35-67.98.2.6-11.05,2.29-20.92c1.36-12.38-.96-26.23-7.2-37.04l.56-24.19c.15-6.73-.21-13.19.34-19.92s.75-13.02-.08-19.41c-.35-2.78-.43-5.62-.23-8.51,10.92-7.8,22.18-15.35,33.56-22.01,2.29-1.67,4.86-3.29,7.49-3.74-.25-.62.87-1.5,1.5-1.08.34-.52.18-.68-.5-.5-.22.56-.94,1.32-1.58.99-1.07,1.28-3.4,3-4.3.83-.32-.76-.38-15.91.12-16.57s1.12-.81,1.77-.36c-2.12-2.07-.09-5.65,2.64-4.05,1.28-2.14,3.4-1.98,6.36.48,3.62-1.75,6.97-2.08,10.06-.99l2.87,2.2c2.21.82.4-7.81-.79-8.52l.6-1.01c-.85-1.36-.27-1.73.54-.43,1.07-.44,2.05,1.48,2.07,2.51.34.04.43-.2.53-.5l-.63-.27c-1.5-3.8-3.75-6.41-6.76-7.85-.56,1.77-1.52,2.85-2.9,3.26-3.73-.04-7.42.28-11.05.96-.89-.67-1.29-1.39-1.21-2.14l4.38-12.67c.09-2.23.18-4.44.28-6.65-.7-.22-.68.35-.59,1,1.07,1.16,1.01,4.68-1.32,3.55-2.38-.12-4.67.22-6.6,1.38l.2.36c-1.28.63-.82.38,1.38-.73l.64-.56,2,1.09c.11-1.83,3.61-2.09,4.07-1.17s-3.63,13.22-4.47,14.94l-1.68,1.61c-.23,1.22-.74,2.17-1.51,2.84.86.25,1.17.62.94,1.12,1.86,2.03-.57,4.48-2.7,1.81-3.22-4.03-5.11-14.23-2.81-19.1.47-2.04.32-3.91-.44-5.59-.81-1.72-.71-4.2.42-5.58,11.06-29.33,8-17.91,17.44-27.83.38-.26.55-.75.49-1.49,5.01-4.68,12.82-4.07,19.2-3.33.46.05.7.25.74.81.16.82-.67,1.04-2.49.66l-.71.71c-3.42.52-6.83.74-10.25.65-.32.71-1.84.84-2.67.8-.34-.02,5.89-.23,6.66-.18.16-.35.33-.63.54-.67,5.63-.92,12.5-.8,17.39,2.33l-.38-1.28c-.35-.49-.08-.66.51-.46.18-1.04,1.7-.37,1.99.48.22-.12.51-.26.69-.15,5.49,3.46,9.63,7.01,13.14,12.63,2.28,3.66,6.97,14.42,6.44,18.46-.04.3-.24.58-.48.86.34.42.67.57,1.01.43l-.49-.54c-.58-6.21-2.44-12.3-5.52-17.72-4.01-7.04-6.77-8.97-13.22-13.35-.4-.27-.63-.59-.63-1.11l-.85.07c-9.22-3.91-22.84-6.77-31.01.26-3.62,1.31-6.77,3.73-9.19,6.96-1.78,2.07-3.02,4.34-4.17,6.65l-.54-67.84,72.01.09,18.45-.04c.45,1.06.12,1.86.13,2.58Z"/>
    <path class="st174" d="M705.53,9.46l-.45,1.01-5.23.73c8.37,17.35,16.03,34.95,22.98,52.79,6.39-2.08,9.51,3.62,11.7,8.75l3.53,9.22c9.95,19.44,19.03,39.32,27.24,59.65,3.34.78,6.76,1.78,10.24,2.97-5.07-22.76-10.32-45.58-16-68.04-.54-3.32-.81-8.59,2.83-10.07-1.66-8.43-3.74-16.71-6.25-24.83l-6.63-31.43.85-.79c.83,0,1.71,0,2.54-.02l1.07.25c4,19.12,8.23,38.16,12.69,57.1,5.65.2,8.23,3.82,9,9.17-.49-3.97,1.32-6.45,3.58-9.32l-14.33-56.36.82-.84c.83.04,1.75,0,2.59,0l1.11.36,13.34,55.45c6.05-1.09,8.64,5.45,10.08,10.11l3.83,15.24c6.73,21.91,12.51,43.96,17.33,66.15l8.7,2.9.35,1.17c-1.75.98-3.22,3.21-5.31,3.81-.98-.12-1.19.08-.63.6-2.59,2.38-5.09,4.91-7.89,7.04-.37-.03-.54.15-.53.53-1.43,1.69-2.77,3.57-4.53,4.91l-1.22-.15c.88-1.3-2.82-4.71-2.93-4.45-.22.52-1.15,3.46-1.07,3.62l3.61,1.49.49,1.14c-.17,1.5-1.94,2.5-2.46,3.76-.86.44-1.95.31-3.27-.42-.59.55-.95,1.36-1.09,2.44,1.51.46,2.27,1.15,2.27,2.06l-10.56,20.5c-5.39,10.47-21.18,56.92-24.76,69.96l-5.89,21.44c-.11,3.19-1.35,6.72-3.02,9.45.06,1.3-.37,3.44-1.47,4.03-.14.4-.19,1.36-.99,1.36h-14.63s-.85-17.81-.85-17.81c-.3-6.37-1.28-12.71-3.23-18.81-1.74-5.45-5.68-10.1-9.33-14.29-2.34-2.68-5.4-4.21-7.58-7.01-.68-.38-.19-2.17-1.23-1.75-.8.84-1.92.18-1-.87-.3-.45-.52-.76-1.04-.96-1.8.81-5-.29-5.93-2.03-.54-.31-.9-.35-1.47-.07l-.59.61c-3.16-.57-6.27-1.35-9.32-2.34-.23.48-.93,1.01-1.41.96-2.25-.23-9.56-10.02-10.11-12.67,1.36,3.33,3.18,6.38,5.47,9.16,1.59,1.1,2.59,2.35,2.99,3.73.98.22,1.3.58.98,1.1.62,3.05-2.42,6.65-4.44,9-13.67,15.87-39.49,13.29-53.44-.67-1.88-.02-3.83-2.67-4.83-4.32-.35-.05-.58-.21-.56-.56-.66-.05-.37-.77.11-1.06.42-.41.42-.73-.07-.92-.06,1.43-.46,1.28-1.13.08-1.1.58-2.43.98-4,1.18-3.81,1.07-6.89,2.94-9.23,5.61-.17.77-.91.96-2.23.58-.31-.3-.61-.6-.85-.95s-.45-.67-.5-1.02c-.41-2.91-.66-5.79-.87-8.71-.79-11.31-.4-22.62,0-33.91-.11-10.81-3.32-21.26-8.17-30.58-1.02.02-1.25-.94-1.3-1.88-2.13-3.65-5.79-5.95-9.75-7.84s-7.09-4.14-11.01-6.3l3.17-133.34c1.08-.47,2.21-.89,3.4-.93,8.32-.25,19.02,1.17,27.36,2.45.8.12,4.7,4.29,5.52,5.24-.43,9.75-.97,19.51-1.63,29.3-.66,7.16-2.17,14.08-4.53,20.75l2.27-.07c10.76,2.46,21.42,5.27,31.98,8.41,14.17,4.77,28.42,9.43,42.75,14.01-4.9-12.11-9.74-24.48-14.51-37.09l-.55-2.84c-2.38-3.76-3.24-7.65-2.56-11.66-6.75-17.21-13.48-34.51-20.19-51.88l-48.27-.15-.6-1c-.08-.25.2-.38.57-.38l48.77.04,51.35-.04Z"/>
    <path class="st174" d="M812.69,192.6c1.63.61,2.74.23.35-.54.69-1.86,6.77-10.41,8.51-10.93l.74.86c-1.07,1.32-2.04,2.68-2.93,4.09l18.79,6.42c.87-.17,5.53-16.02,5.16-16.82-.23-.5-9.23-2.87-10.67-2.96l-.65-.95c2.09-1.66,4.79-2.18,7.06-3.53,9.26,2.13,18.4,4.44,27.42,6.91,1-.15,5.54.34,5.97.83.29.33.42.73.46,1.16l-1.58,25.41c-.08,1.32.51,2.66-.45,3.47-1.06-.61-1.28-1.05-.64-1.31.35.15.57.58.64,1.31.06,2.64.29,5.47-.39,7.99-.92.03-1.3-.66-1.14-2.06-.31-.42-8.93-3.82-9.65-3.86-.23-.01.77,4.18,1.45,4.27,0,0,2.93,1.29,8.78,3.88l.39.93-5.14,93.23,4.37-52.65,6.79-98.65c7.26-.84,14.47-.78,21.91-.25,3.55.25,6.96,0,10.29-.66.48-.46,1.09-.81,1.16-1.3.05-.35-.88-.84-1.41-.82-4.17.1-8.23.2-12.49-.15-5.76-.48-11.24-.13-16.95.13-15.65.72-28.01,4.18-42.21,10.33-3.9,1.69-6.88,3.74-10.12,6.35-6.44,5.17-11.44,10.95-16.08,17.74-5.34,7.8-9.6,15.47-13.07,24.33l-18.3,46.82c-4.76,12.19-7.22,24.6-10.68,37.17-1.41,5.13-3.35,9.7-3.77,15.11h-10.75c-.45,0-.39-.62-.48-.79-.18-1,.42-3.06,1.43-3.53-.25-.4-.37-.75.08-1l.4-.53c-.19-.14-.34-.27-.32-.35.58-2.16,1.49-4.96,2.31-7.04.04-.11.26-.15.54-.17,1.39-4.17,2.8-8.26,4.03-12.79,4.48-16.48,9.84-32.25,15.88-48.24,4.01-10.63,7.48-20.91,12.21-31.23,3.27-7.14,7.14-13.52,10.74-20.42,3.53-6.75,8.01-12.33,13.69-17.31,3.56-3.12,6.92-6.02,11.05-8.38,3.65-2.09,6.9-4.56,10.92-6.08,12.41-4.68,25.16-6.53,38.31-8.02,9.82-1.12,19.17-2.87,29.11-2.26l11.06.67.93,166.78-71.29.41-78.81.39c.8-5.29,2.93-9.65,4.42-14.59l10.72-35.58c5.23-17.36,12.87-33.42,19.92-50.11,3.25-7.7,6.82-14.93,11.98-21.13Z"/>
    <path class="st174" d="M382.58,34.84l.41,1.06.94,3.25c-1.64,1.74-2.22,3.98-3.44,5.96l-1.91,3.12c.78,3,.1,5.3-2.04,6.89-.31,1.77.11,2.85,1.24,3.24l1.71,5.24c3.43,4.07,5.46,8.59,6.1,13.56.89,2.09-.21,5.32.53,7.5-.21,1.43-.87,2.7-1.97,3.81-1.62,1.1-3.42,2-5.48,1.67-.64.38-.8.1-.44-.56-.14-1.26.92-2.03,3.19-2.29-2.1-.53-3.93.43-5.48,2.87.73-.08.99.3,1.15,1.06l-1.08,6.64c-3.6.37-6.51,2.46-8.34,5.15-.17.52.07.64.56.52l3.22-1.79c.72,1.13,1.71,1.95,2.03,3.15-1.8,1.73-4.05,2.89-5.22,5.06-3.07,5.7,1.88,13.86-9.72,16.32-6.51,1.38-12.66,1.79-19.19.56-6.14-1.15-11.9,1.06-16.02,5.58l-13.53,14.83c-4.89,5.35-10.12,9.99-15.43,14.62-.21.46-.12.63.42.59,2.7-1.13,4.74-3.28,7.22-4.84.76-.93.9-.7.42.69l.78,1.56c-.79,9.09-4.53,16.76-8.94,24.44-.91,2.06-.89,2.81.06,2.26l-.88,4.04c-.2-.22-1.69-.16-1.6.48.48,3.28-.63,6.18-.85,8.98-.98,3.05-1.43,7.01-1.64,10.48-.81,2.93-1.85,5.98-1.89,8.96-.47.52-.81,0-1.04-1.53-.01-2.04-.82-4.13-1.69-6.23-3.6-8.77-1.42-16.2-8.7-21.12l-10.42-7.05c-8.1-5.48-16.17-19.89-19.91-28.94.41-2.2-.14-4.09-.92-6.23-.48.08-.64.55-1.02.96l-.64-2.55c-.1-1.84-.22-3.69-.36-5.53l.71-.42-.31-2.49c-1.79-1.4-1.14-6.86-.57-9.14l1.06-.89c.94-.14,1.79-.69,1.86-1.92.5-9.04.68-16.49,5.01-24.49.38-.71,1.44-.84,1.86-1.52,1.86-2.98,3.84-5.78,5.35-8.99,2.04-4.34,4.08-8.49,5.77-12.75.44-1.68,1.13-2.13,2.08-1.34.17.6.87.34,2.1-.78,2.9-3.16,6.17-5.2,9.82-6.12,2.99-2.71,5.94-5.46,8.86-8.26l.52.04c-.03-.84.88-.82,1.55-.5.41-.75-.7-1.04-1.49-.5.32.52.04.7-.56.49-2.5,2.86-5.24,5.6-8.2,8.21-.9.17-1.82.14-2.76-.11l-9.51,7.76c-1.49.5-1.63-.26-1.38-1.44,1.61-2.66,2.1-5.94,2.6-8.95-.34-.93-.21-1.6.38-1.99-.17-.79,0-1.29.5-1.49-.35-.42-.41-1.07,0-1.49.15-.37-.01-.37-.5,0,.43.11.35.73,0,1,.38.48.17,1.05-.5,1,.3.72.29,1.83-.54,1.99-.66,2.5-1.41,4.97-2.41,7.36-.7.41-.91-.21-.65-1.88.65-4.72-.45-9.27-1.18-14.18-1.2-8.14-1.75-16.34-1.19-24.63.39-5.83,2.5-11.25,4.31-16.61.55-1.62,1.51-2.72,2.55-4.04.47-.6.39-2.78,1.72-2.85l98.11-.47c5.35,4.63,9.1,10.49,10.89,17.42.82,3.18,2.06,6.09,3.93,8.53Z"/>
    <path class="st121" d="M877.26,136.87c-.23,2.73-.18,5.46.15,8.19l-.66.27c-10.01,1.62-33.02,3.92-42.87,9.4l-10.86,6.05-9.89-3.3c-2.75-12.59-5.33-25.04-8.99-37.56l-6.96-23.81c-1.43-4.88-2.74-9.61-3.81-14.57-.94-4.35-4.08-18.7-11.29-14.79l-13.79-57.34,117.87-.57-8.18,113.47c-.38,5.23-.7,9.77-.74,14.56Z"/>
    <path class="st174" d="M487.77,92.01c-.41,2.22-.43,4.31-.05,6.26.32-.02.58-.01.66.11.9,1.53-.58,7.95-1.13,9.83,0,5.51,1.34,10.89,4.01,16.14.24,8.79.29,17.57.14,26.35-11.92,7.5-23.72,15.03-35.37,22.59-.26-.98-.45-2-.56-3.07.03-3.82,1.47-9.63-.75-14.23-2.42-5.02-7.57-8.32-12.95-8.95l-8.59-1c-4.54-15.57-21.67-20.87-36.03-16.09-6.62,2.2-11.88,6.48-15.56,12.46l-16.71.06-.46-15.89c9.19-5.91.79-13.58,9.01-18.73,1.33-.84,2.34-2.12,2.31-3.56-.03-1.52-1.34-2-2.91-3.46,2.11-.11,3.55-1.59,4.97-2.12,2-1.45,4.42-2.38,7.26-2.76l7.36-2.25-1.49-2.19c-2.85.5-5.71.87-8.6,1.12l-.69-1.07c1.56-1.08,3.71-1.47,5-2.95.62-.72,1.32-1.11,2.09-1.18-.14-1.11-.37-2.05-.69-2.81-.32-2.89-1.44-5.66-1.95-8.5-.95-1.93-1.78-4.01-2.51-6.23l-2.39-3.74.11-1.44c-1.75-5.31-2.4-11.16-1.17-16.49,1.36-2.11,3-4.11,4-6.43l.66.22c17.94-4.47,36.39-6.9,54.79-8.83l23.19-5.1c-.16-5.99.38-11.86,1.63-17.61l.85-1.09c2.25-.28,4.57.13,7.06.18l17.34.31.18,36.92.26,37.79c.02,2.68-1.56,5.14-2.33,7.43Z"/>
    <path class="st121" d="M146.97,9.83c14.54-.2,29.11-.23,43.71-.1l.69.84-15.01,52.09-.51.97c-4.63,1.33-6.51,4.69-8.01,8.95-5.61,22.69-11.86,45.5-18.89,68.09-3.26.12-6.59.35-9.98.7l-1.76.72c-10.71,1-21.4,1.91-32.09,2.73-1.51,1.21-4.56,1.18-6.48.45-1.89.18-3.87.39-5.92.63l-2.09-1.13c-1.75-1.69-8.71-.61-8.85,1.56-.12.25-.3.28-.52.09-7.66-4.9-16.31-7.31-25.41-7.03l-.83-.65c14.59-42.88,29.26-85.73,44.02-128.54l1.04-.3,46.89-.1Z"/>
    <path class="st121" d="M95.71,9.96l.84.64c-13.92,42.84-27.88,85.63-41.88,128.36l-1.91.94c-10.49,1.26-20.03,7.13-23.47,17.56l-.79.68c-1.76-.11-3.56,2.05-3.05,3.67l-.55.98c-5.08.71-10.06,2.1-15.33,3.58l-.14-28.5,1.02-6.58L48.22,10.77l1-.56,19.6-.27,26.9.02Z"/>
    <path class="st121" d="M604.84,9.83l49.81.15c1.32,4.63,3.05,8.65,4.8,13.13l15.5,39.71c-1.82,6.98,2.75,8.64,3.02,14.33,2.11,6.74,4.93,12.89,7.51,19.41l7.76,19.57c-6.38-2.44-12.2-4.12-18.34-6.05l-15.09-4.74c-6.81-2.91-13.7-4.57-20.8-6.57-8.35-2.35-16.38-4.75-25.17-6.26,3.45-12.64,5.26-25.23,5.2-38.25-.02-4.1.2-7.85.75-11.97l-4.95-4.57c-10.27-1.23-20.31-2.33-30.44-2.42l.65-25.49,19.78.04Z"/>
    <path class="st174" d="M389.61,309.56l1.16-.55c-.07-47.07-.26-94.09-.57-141.07l-5.42-5.83c-5.09-5.47-4.31-14.13.22-20.43,8.75-12.15,26.55-15.04,38.59-6.11,4.94,3.67,7.7,9.08,7.62,14.83s-3.12,11.09-8.01,14.53c-1.73,1.22-3.42,2.1-4.79,3.83l.28,69.62.32,44.31.38,24.95c.03,2.18-2.79,5.23-4.52,6.03-1.28.59-3.04.69-3.99,2.02l-26.86-.14c1.46-3.17,4-4.01,5.58-5.99Z"/>
    <path class="st174" d="M367.19,313.07c.33.75.39,1.66.18,2.74-9.56-.12-19.09-.08-28.58.13l-9.36-.14c1.19-4.79,1.58-9.32,1.35-14.18l-.79-16.91c-.25-5.44-.03-10.91,1.12-16.24l6.88-31.81c1.57-7.28,1.71-14.48.34-21.77-1.52-11.27-5.24-21.37-10.46-31.46l-16.15-25.74,51.3-.31,1.85,78.51,1.61,58.82c.49,4.41,0,8.5.27,12.9.11,1.92.74,3.69.44,5.45Z"/>
    <path class="st121" d="M714.83,254.88c.47,5.08.1,10.05-.2,15.39-.54,9.7-.89,19.13-.8,28.83.05,5.29.91,10.15,2.56,15.01l-28.85-.02c-3.39-.98-6.61-.93-9.99,0l-8.94.08c-15.9.21-31.83.21-47.79-.02-1.07.01-1.59-.84-1.57-2.58l-.66-.03c-.36-7.72-.59-15.6-.71-23.63-1.57-9.2-3.26-18.32-5.06-27.35l.87-.76c-.03-.59.35-.96.83-.86l1.41.28c1.28-2.54,9.78-6.65,12.37-6.24.17.03.32.21.46.44.53-.12.7-.12.5.41.49-.16.66,0,.5.5.35.09.61.2.56.59l3.7,3.75-.25.6c1.87,2.38,4.03,4.06,6.49,5.03.59-.26,1.16-.24,1.72.04,11.8,5.89,22.37,9.74,35.36,4.31,9.47-3.96,15.13-10.83,19.04-20.09,5.98,1.67,11.84,3.56,17.56,5.66l.89.67Z"/>
    <path class="st174" d="M389.49,168.41c.65.33.81.97.48,1.91.11,46.19.49,92.28,1.15,138.29-.52.65-1.37.81-2.55.48-1.83.65-6.33,3.89-6.94,6.4-4.65.35-9.35.46-14.1.31-.23-1.04-.17-1.95.16-2.74l-.35-36.9-2.27-118.68,12.71-.37c.63-.18.21-.9.04-1.22-.34-.63-.96-.65-1.71-.65l-66.59-.38c.24-.22.11-.35-.16-.53-.49-.35-1.39-1.28-1.42-2.09l7.6-8.29,65.03.27c-4.19,9.51-.41,20.24,8.92,24.2Z"/>
    <path class="st174" d="M879.9,144.82c-2.09.48-3.51-.02-2.04-1.98l10.7-134.03,26.03.03.05,93.13.19,42c-11.95-1.77-23.51-1-34.95.85Z"/>
    <path class="st121" d="M750.35,9.43l6.75,31.99c.29,1.39,1.1,2.34,1.38,3.57l5.16,22.52c-2.01-.45-2.55,1.08-2.97,2.5-1.27,4.27.42,8.47,1.46,12.7l3.66,14.87,11.24,48.53-12.42-3.89c-2.41-6.19-4.65-11.91-7.41-17.83l-13.76-29.5c-2.75-5.89-6.13-11.22-8.24-17.39-1.71-5-3.34-10.05-8.17-13.06l-4.84.66-4.24-11.34-15.96-35.85c-1.26-2.84-2.74-4.84-3.63-8.06,2.66.74,5.11-.38,7.18-.38l44.82-.03Z"/>
    <path class="st121" d="M257,9.42l.75.74-8.09,16.43c-1.02.72-1.49,1.75-1.42,3.09l-12.52,29.16c-1.71,1.9-2.54,1.44-4.06-.2-3.47-.27-11.02,12.29-12.47,14.8-6.17,12.06-12.12,24.23-17.85,36.51-.47,1.21-1.37,2.04-2.54,2.57-4.53.89-9.01,2.1-13.42,3.45l-.92-.51c1.88-10.75,3.95-21.5,7.25-32.2.41-1.59.46-3.19.12-4.81,1.29-3.03,1.66-5.7,1.43-8.96s-.56-3.88-2.84-5.56c4.15-17.89,8.51-35.77,13.08-53.63l.99-.58,24.77-.27,27.76-.03Z"/>
    <path class="st174" d="M440.15,229.85l-.21,20.51-.26,35.62-.11,29.68-10.43-.05c-1.41-6.46-8.31-8.02-8.31-10.08v-136.37c3.92-2.17,7.1-4.78,9.57-8.52,10.17,3.9,9.07,14.74,9.74,23.36-2.62,2.07-12.82,19.81-10.47,20.96.27.13.92-.2,1.11-.66,2.74-6.4,5.17-12.82,9.51-18.57.26,8.29.58,15.58.39,23.19l-.54,20.93Z"/>
    <path class="st121" d="M465.25,9.37c-1.06,6.32-1.54,12.67-1.38,19.47l-24.15,5.31c-18.81,1.83-37.13,4.73-55.46,8.71-.22-.49-.1-.81-.13-1.09,1.2-2.79.69-6.03-.74-8.79-5.3-10.62-3.47-13.95-12.89-24.09l78.1-.14,16.65.61Z"/>
    <path class="st174" d="M259.55,9.44l.76.72-7.13,15.26c.1.27.42.38.95.32l8.35-15.67,1.48-.66c.41.03.94-.14,1.29.01,1.43.66-3.73,8.34-4.7,12.39-1.18,1.69-1.55,3.24-1.11,4.65-.27,1.14-.69,2.69-.87,3.87-.25,1.05-.82,1.01-1.67.9l-7.48,15.87c-.08.34,6.54.17,7-.03.71-.32.8-4.71.78-5.71l1-.55c.89,3.69.32,7.66.88,11.47,0,.92-.38,1.06-1.16.95-.51.5-5.03,8.62-4.26,9.09.72.43,3.39.49,4.09-.52.49-1.8,1.28-2.62,2.35-2.49,2.28,6.33,2.42,13.27.58,20.25-1.1,4.15-3.99,7.8-5.53,11.89-1.78.35-2.79.79-4.01,1.21-.39-.28-.59-.13-.61.47-2.59,2.19-5.89,3.91-7.93,6.83-1.5,2.15-3.36,3.46-5.5,4.55l-.85-.83c3.97-7.79,7.49-15.79,10.56-24-4.41,7.95-8.81,16.8-12.82,25.22-.08.16.04.41.21.69-4.94,1.21-9.9,2.48-14.9,3.43-.07-1.82.31-3.56,1.22-5.14-1.09,2.22-2.35,4.12-3.78,5.69l-8.5,1.47c.22-1.44.47-2.91,1.09-4.24,4.73-9.54,9.33-19.17,13.67-28.88.02-.05-.95-.62-.98-.57l-16.73,33.47-1.48.72-5.04.99c9.06-15.97,15.09-35.68,26.79-50.36,1.72-2.16,5.42-5.67,6.93-4.13l1.01,1.04c.29.3,1.17-.27,1.48-.99l12.51-29.22-.27-1.65,1.42-.82,8.35-16.97,2.55.02Z"/>
    <path class="st174" d="M453.41,315.47c-3.92.5-7.59.12-11.62.22l.31-29.84.26-68.3.54-20.98c.15-6.05-.41-11.85-.84-17.88-.59-8.09-1.32-16.91-11.07-19,2.22-3.87,3.03-7.88,2.45-12.47,2.94.43,5.23.78,8.21,1.5,4.62,1.12,10.39,4.45,11.55,9.54,1.89,8.25.96,16.55,1.11,24.89.07,4.07.46,7.92.13,11.98-.53,6.54-1.08,12.81-.93,19.41.18,8.09-.25,15.79-.47,23.89l-.86,30.77c-.45,15.39.48,30.28,1.24,46.29Z"/>
    <path class="st174" d="M229.24,9.45c-7.96,0-16.06.71-24.64.51l-13.33,53.68c.36.62,1.39.77,1.99,1.23,1.36,4.24,1.64,8.89-.27,13.05-.6,1.31.26,2.09.11,3.12-.91,6.24-3.46,11.92-4.61,18.1l-3.13,16.82-6.49,3.43c-.38-.08-.94-.27-.91-.52.64-5.87,2.64-14.36,4.38-20.05.04-.13.28-.19.58-.23.12-1.36-.08-1.85-.61-1.45-.31,3.32-.99,6.63-2.06,9.93-1.46,5.04-3.08,9.98-4.87,14.83-3.52,2.22-6.69,5.07-10.4,6.95l-.06-4.58c2.61-13.26,6.3-26.17,11.05-38.74l1.38-1.89c.07-.91-.1-1.22-.53-.94l.14.88c-1.99,2.06-3.38,4.52-4.17,7.37l-11.42,39.94c-.37.74-.85,1.21-1.43,1.41-.08.83-1.34,1.6-2.14,2.05-2.54,2.96-5.08,3.71-3.28-2.14-.39,1.69-2.7,9.11-5.19,9.78-.13.03-.28-.03-.44-.13-2.82.2-6.14.27-9.17.29-.41,0-.64-.34-.72-.78-.76-.82,7.61-.43,9.3-1.26,1.77-4.92,2.95-9.59,4.35-14.66l11.89-43.03c1.38-4.99,2.12-17.6,10.73-19.45l15.27-53.01-43.54-.14c-.08-.25.2-.38.57-.38l42.27.05,39.43-.05Z"/>
    <path class="st121" d="M765.71,9.41l14.63,57.54c-1.45,2.01-3.25,3.5-3.54,5.84-.7,5.76.89,11.38,4.09,16.26l15.12,63.12c-1.81-.03-2.84-.48-4.12-1.16-2.24-7.04-3.84-13.96-5.57-21.21l-7.63-32.12c-1.14-4.78-2.39-9.31-3.38-14.09-.33-1.61.37-12.08-4.59-14.86-1.46-.82-3.21-.52-4.91-1.17l-5.52-23.76-7.41-34.4c4.27-.14,8.56-.2,12.82.01Z"/>
    <path class="st174" d="M717.41,307.59c.18-4.39-.23-9.01-1-13.44l.34-27.35-.29-8.64c5.58,5.7,10.52,11.49,13.97,18.57,1.36,2.78,1.38,5.89,1.98,8.93,1.32,6.66,1.84,13.12,1.97,19.9.06,2.98.43,5.74,1.2,8.44l-16.06.07c-1.21-2.13-1.88-4.3-2.11-6.49Z"/>
    <path class="st174" d="M147.47,142.81c.62.52-.26,1.34-1,1.52-.07.3-.14.51-.5.5-.27.22-.29.4-.07.54l-12.41,11.24c-6.52.31-12.58.61-18.89,1.68l-17.31,2.94c-.81-8.43-.91-10.61-6.66-16.43l8.01.5c.44.16.43.34,0,.54-.27.46-1.44.32-1.99,0-.04.78-1.27.63-1.99.5-.36.23-.37.4,0,.5.72-.45,1.72-.61,2.99-.5.48-.45,1.8-.34,2.49,0l.2-.52c2.75-.17,5.17-.33,7.27-.48.29-.72,1.17-.63,1.49.07,3.82-.24,7.64-.43,11.46-.57.17-.21.5-.38,1-.53,1.1-.73,2.31-1.07,3.61-1.2,6.18-.59,12.37-.93,18.57-1.06,1.31-.03,2.55.12,3.72.77Z"/>
    <path class="st14" d="M493.78,121.49c-.55-.63-.41-.97.45-1.04.14-.6.49-1.17,1-1.49-.39-.45-.18-1.13.5-1,.05-.36-.08-.57-.5-.5.07.66-.1,1.16-.5,1.49.03.38-.13.88-.5,1.49-.38.69-.91.43-1.39-.08-.25-2,1.49-3.25,2.3-4.9,1.96-3.97,2.93-8.34,4.6-12.5.35-.87.08-1.87-.76-1.76-2.36.31-.73,1.67-2.55,1.93-2.04.29-1.63-1.8-2.66-1.52-.6.6-1.12.72-1.58.37,1.43-2.55,4.87-2.92,7.65-1.73.3-.96.21-2.1.26-3.19-.3-.97-.45-1.52.59-1,2.26,5.84-1.85,11.95-3.77,19.07-.14.51.29,1.66.73,1.52,6.91-2.2,10.88.36,12.18-2.27,1.01-2.05-3.14-4.78-.94-5.14,3.78,6.01,5.39,1.66,9.7,12.18-.02.39-.14.59-.53.5-.62-.74-1.69-1.61-2.07-2.51-.52-.3-.83-.07-.54.43,1.26,2.29,4.69,9.9-.16,10.62-6.96-7.58-10.84,1.35-14.49-2.19-.86-.83-2.47-1.99-3.37-.64-.6.91.41,2.48-.77,3.4-.85-.89-.68-1.89-1.02-2.96-.68-.1-1.1.34-1.45.6-1.74,1.3,2.84,6.5,3.84,7.9,2.72,3.79,6.67,6.73,11.65,6.83,3.6.07,6.39-2.42,10.15-3.19-.85,2.8-4.02,3.08-6.27,4.03-4.2,1.78-8.19.8-12.02-2.19l10.81,29.93c.25.7.02,1.68-.95,1.87-4.92-10.46-8.07-21.51-11.79-32.56l-6.72-9.42-.1,17.36c1.29-.53,2.23-1.04,3.31-1.41.76-.62,1.08-.31.58.59l-19.28,12.1c-7.3,4.58-13.86,9.57-21.53,13.82.14,3-.36,5.67-.01,8.35-.42.06-.54-.44-.54-.97l.1-11.47c.7.45.21,1.37.57,2.43,1.24-1.31,2.83-1.85,4.31-2.86l18.11-12.32c3.99-2.71,8.23-4.41,12.17-7.25l-.35-25.77c-.03-2.08-5.82-10.86-3.34-18.35,2.82-8.49-1.73-6.43.84-14.09.11.36.24.72.48,1.02.06,1.73-1.48,3.44,0,5.33,5.24-8.42,9.47-2.78,13.05-9.3.56,3.6-2.63,5.25-5.83,5.81-2.51.44-6.28,2.22-6.39,5.02-.09,2.17.33,3.8-.44,5.96-1.71,4.77-.11,9.88,1.92,14.25.67,1.43.93,2.62,2.53,3.77.34-.68.39-1.58.69-2.38Z"/>
    <path class="st174" d="M68.82,9.94c-6.27,0-12.77.8-19.46.54L9.43,137.87l-.02-10.45,13.22-44.6L44.71,10.47l-26.27-.02c-.49,0-1.22-.14-1.06-.51h51.44Z"/>
    <path class="st174" d="M317.24,142.42c2.91-3.47,5.53-6.87,8.61-9.92,5.71-5.64,16.19-2.03,21.4-2.15s9.97-1.09,14.97-2.45l.41,14.56-45.39-.05Z"/>
    <path class="st14" d="M705.5,250.33c.51-.29.99-.27,1.47.07,1.97.49,4.05,1.21,5.93,2.03.5.13.83.48,1.04.96.05.5.54.77,1,.87,0,.21-.14.42-.12.63-1.34.53-2.34-.02-3.6-.72-3.28-1.83-9.76-2.28-14.49-4.94-2.69,8.4-8.37,14.93-16.12,18.98-14.01,7.33-27.85,3.67-40.36-3.9-1.97-.36-4.47-2.01-4.55-3.96-1.28-.98-1.79-2.12-.07-1.12,4.54,3.08,9.08,6.15,14.47,8.08,17.45,6.25,36.02.74,43.4-16.4-.05-.52-.37-.88-.98-1.1-3.25-1.96-5.63-4.98-7.43-8.49-1.7-3.32-7.37-15.15-6.75-18,.24-1.12,2.21.87,2.38.78,1.8-1.05-.27-9.69-.76-11.65-.06-.23-1.42.01-1.14-.35,4.99-6.36.2-13.77-.76-17.67-.83-3.38-1.56-6.02-4.62-8.26-4.8-3.51-10.68-6.11-16.76-6.68-1.53-.14-2.91.02-4.58-.24-3.4-.52-7.15-1.57-10.59-.76-6.38,1.51-11.29,6.16-14.86,11.42-1.05,1.55-2.53,2.85-2.91,4.69-.72,3.47.92,8.67-1,8.45l-.6-8.62c-.15-2.21,2.08-3.89,3.25-5.69,3.31-5.1,7.66-9.21,13.38-11.45,2.97-1.16,6.22-1.05,9.34-.44,2.63.51,4.94.31,7.6.39,6.46.18,12.72,2.86,17.88,6.36,3.16,2.14,4.29,5.1,5.69,8.33,2.84,6.55,5.66,11.47,2.24,18.78,6.43,23.06-7.1,5.88,5.6,29.96,1.78,3.37,4.73,5.27,7.13,8.18.36-.21.64-1.54,1.2-1.36,3.43,1.12,6.66,2.58,10.05,2.85Z"/>
    <path class="st174" d="M100.09,9.93l-44.23,129.48c-1.01.03-2.09.36-3.09.48.99-.85,1.24-1.91,1.74-3.45L95.71,9.96l4.38-.02Z"/>
    <path class="st121" d="M872.91,177.15c-2.04-.55-4.12-1.19-6.53-1l-14.13-3.67c-4.3-1.12-8.32-2.49-12.68-3.34-.48-.09-.62-.69-.51-.89,6.39-3.78,26.32-9.11,34.91-9.15l-1.06,18.05Z"/>
    <path class="st121" d="M121.98,169.22l-2.45,1.93-19.49,8.01-1.89.28c-.14-4.45-.32-8.85-.53-13.2-.02-1.21-.27-2.43-.21-3.84l9.1-1.3c8.24-1.18,16.36-2.29,24.68-2.28l-9.21,10.4Z"/>
    <path class="st121" d="M821.55,181.13c2.87-3.65,6.79-6.46,10.44-9.36,2.03-.45,9.91,2.4,12.77,3.34l-5.72,18.74-21.19-7.24c.69-1.69,1.92-3.03,3.24-4.41.33-.34.29-.84.47-1.07Z"/>
    <path class="st217" d="M389.61,309.56c-.27-.18-.64-.53-1.04-.47.61-.22,1.21-.73,1.8-.89l-.97-57.41-.43-80.52c0-.86.27-1.44.52-1.86.11-.19.66-.14.71-.48.33.36,1.28.3,1.28,1.43v137.55c.12,1.58.73,3.91,1.67,4.52l3.92,2.57c-2.21,1.35-5.7.1-6.25-2.48-.23-1.07-.31-1.9-1.22-1.97Z"/>
    <path class="st174" d="M95.68,186.15c-.25.33-.46.62-.55,1.19-.21,1.38-.15,2.9,0,4.28-.43,2.07-.42,4.29-1,6.34-2.17.54,1.21,5.45-2.21,7.22-1.85.96-2.98-.48-3.87-1.59-1.16-1.45-.05-2.26.22-3.9,1.25-7.79,1.46-15.52,1.14-23.42,7.18-10.74,1.7-20.62-6.23-28.5-1.09-.99-.63-1.22.55-1.79,1.51.02,3.89-1.25,5.44-.2,4.56,3.11,5.85,8.3,6.37,13.6.89,9.07.48,17.9.16,26.76Z"/>
    <path class="st217" d="M613.69,259.81l3.3,17.22c.95,4.98,2.08,9.64,2.11,14.72l.15,19.83c.21,1.31.76,2.17,1.65,2.58,5.85-.1,11.62.04,17.31.4.06.21-.16.48-.56.48l-45.85.02c-.99.27-1.37-.75-.36-1.05.26.35.76.58,1.42.57l24.71-.11c-1.51-7.11.14-23.05-1.28-30.21l-2.38-12.05-2.78-14.61c-1.18-6.18-1.63-28.42-1.18-35.17.74-10.86-.47-21.34-4.47-31.44-.77-1.95-1.89-3.5-2.49-5.29-.62-1.23-.52-1.58.31-1.06,3.14,3.83,4.97,8.48,6.49,13.43,2.55,8.34,3.12,16.66,2.41,25.42-.37,4.56-.2,8.86-.09,13.41.19,7.86.18,15.52,1.59,22.92Z"/>
    <path class="st170" d="M457.55,304.8c-.39,3.67-.28,6.86-.2,10.25.01.47-1.37.68-1.57-.02-1.51-22.18-1.89-43.8-.85-66.36,4.28,9.81,6.16,22.55,5.05,33.06l-2.43,23.07Z"/>
    <path class="st216" d="M177.35,83.65c-5.31,14.7-9.25,29.89-12.37,45.2-.81,1.64-2.98,2.15-4.05,3.49-.66.57-1.26,1-1-.04l9.43-33.29c1.32-4.66,2.47-9.2,4.55-13.48.52-1.07,2.87-1.34,2.91-2.83.65-.65.83-.34.53.94Z"/>
    <path class="st174" d="M121.98,169.22l-7.44,10.4-1.43,1.07-14.31,5.17c.17,2.54-.39,3.63-1.68,3.27.48-7.62.64-15.25.5-22.9.08-.03.43-.01.44.17l.22,12.4c8.11-3.29,15.75-6.86,23.7-9.59Z"/>
    <path class="st216" d="M208.25,111.04l-4.43.5,17.65-35.31c.85-.28,2.44,1,2.47,1.82-5.04,11.16-10,22.32-15.68,33Z"/>
    <path class="st220" d="M250.7,98.45c-7.9,9.67-6.45,19.15-7.02,29.88-.17,3.24-.99,6.63-.49,10.03l.31,2.49c-.29,2.34.48,5.55-.34,5.95-.69-2.76-1.5-5.55-1.82-8.66-1.11-10.97-.63-21.92,1.7-32.66.78-3.6,2.5-6.86,5.56-8.41l.52-.47.52-.02c1.77-.74,1.94.43,1.07,1.88Z"/>
    <path class="st121" d="M258.56,30.34c-.54,3.46-.28,6.99-.37,10.47-.04,1.58.14,6.97-1.6,7.22-2.88.42-5.57.08-8.81.18l8.27-17.51c.4-.76,1.97-.3,2.51-.36Z"/>
    <path class="st163" d="M114.55,179.62l-3.75,8.69c-4.54.94-9.01,2.1-13.49,2.35-.33-.18-.46-1.39-.18-1.53.72-.37.69-2.44.35-3.85l16.67-6.02c.33-.12.54.07.41.35Z"/>
    <path class="st216" d="M219.31,109.02c-.76.15-1.8.41-2.56.54-.14-.08-.35-.19-.35-.33,0-.16.03-.48.21-.77,5.57-8.73,9.69-17.91,13.24-27.62.84-2.29,2.1-4.12,2.44-6.71,1.6.47,2.8,1.23,3.98,2.64-6.17,10.67-12.18,21.15-16.96,32.24Z"/>
    <path class="st216" d="M237.1,104.51c-1.04.52-1.77.81-2.9,1.08-.45-.08-.94.03-1.55-.22l13.13-26.48c.68-.31,1.97-.22,2.6-.1-2.39,7.54-6.03,14.3-9.47,21.39-.74,1.52-1.6,2.84-1.81,4.33Z"/>
    <path class="st102" d="M157.79,134.36c.22.16.22.33.01.52-2.72,2.84-5.79,5.36-8.84,7.87-.81.62-.99.53-.44-.39-.82-.5-.58-.84.35-.49,1.3-.83,2.06-2.33,2.67-4.08,5.91-17.13,11.44-34.19,16.42-51.66.27-.94.41-1.17,1.15-1.04.29.05,1.02.31.81.92l-5.1,14.48c-4.14,11.76-7.21,23.56-10.33,35.82l3.3-1.96Z"/>
    <path class="st105" d="M377.79,98.71c.65-2.22.86-4.51.92-7.03,1.12-.35,2.05-.25,2.93-.12,3.09.45,6.12-1.04,9.5-1,1.35.41,2.01,2.74,2.81,3.76-5.58,1.66-10.77,3.41-16.16,4.39Z"/>
    <path class="st92" d="M277.96,309.58c.41.74.49,2.25.04,2.99l.57,1.47c2.82.92,1.6-.54,2.72,1.56l26.34-.28c3.13-.03,6.09-.47,9.28-.2,6.19.53,7.28,1.82,10.46-3.09-.13,1.21-.27,2.37-.57,3.79-1.59-.21-2.91.23-4.49.23l-39.8-.08c-4.37,0-8.33.13-12.59-.21l7.21-7.65c.63.17.67,1.03.83,1.47Z"/>
    <path class="st216" d="M870.49,214.02c.07,1.08-.11,2.1-.17,3.15.24.83-9.87-3.64-9.91-4.18-1.56-1.34-1.49-4.47-2.07-6.48l11.94,4.51.2,2.99Z"/>
    <path class="st190" d="M271.45,311.01l-3.34,4.93-8.64.08-91.13.06c-.21-.28.18-.37.66-.51l90.94-.02,11.52-4.53Z"/>
    <path class="st216" d="M263.97,9.41l-8.97,16.89c-.51.88-2.82.19-3.26-.15l7.81-16.71c1.47.01,2.94-.14,4.42-.03Z"/>
    <path class="st105" d="M182.92,98.59l-4.05,20.81c-1.01.38-2.47,1.86-3.48,2.5-.38.19-.64-.52-.49-1.02l7.41-23.74c.65-.38.85.11.61,1.45Z"/>
    <path class="st73" d="M259.07,52.28l1.03,7.03c-.9,1.14-1.12,3.52-2.79,4.13-1.07.39-2.84-.45-4.07.2-.79-.64-.76-2.67-.25-3.58l4.13-7.34c.39-.69,1.46-.42,1.96-.43Z"/>
    <path class="st15" d="M379.14,49.27c1.04,1.38.9,4.87-.53,6.36,1.17,2.87,2.07,5.89,2.68,9.07,2.85,3.28,4.02,7.21,4.79,11.41-.51-.03-.35.73-.49,1.05-1.13-2.65-1.73-5.93-3.64-8.36-2.31-2.95-4.58-5.99-4.77-9.87-.62-.07-1.12.11-1.38.03.17.05-1.68-4.38,2.4-6.2.2-1.77-.41-3.26.37-4.53-.06.42.51.71.56,1.04Z"/>
    <path class="st40" d="M537.62,63.72c.38,1.07.07,1.24-.93.5-.67-.13-1.3-.48-1.99-.48-.52.22-.76,0-.62-.53-.93.38-2.39-.28-2.99-1-.39.53-1.55-.02-1.99-.5-1.01.16-2.44.34-2.99-.53-6.37-.77-14.64-2.07-19.04,2.55l-1.39,1.46c.19-.15.65-.41.56-.63-.1-.27-.39-.42-.49-.52-.4-.68.2-1.53.91-1.87,10.21-4.76,21.39-3.4,30.95,1.53Z"/>
    <path class="st116" d="M378.24,89.59c.1.35-.07.73-.49,1.14-.21.08-.4.5-.65.49-1.28-.04-3.9-.08-4.28-1.82-.82-3.73,1.69-12.4,4.26-9.99.36.34.89,1.24.23,1.82-.32.29-1.14-.21-1.43.13-1.22,1.68-3.81,7.23-.92,8.09,1.27.38,2.45-5.7,8.23-2.44-1.53,2.24-2.53.8-4.96,2.57Z"/>
    <path class="st152" d="M426.1,315.51c-3.44.32-6.45.39-9.59-.07,2.43-2.12,3.88-4.16,4.9-6.99,2.31,1.92,3.92,3.72,4.69,7.06Z"/>
    <path class="st105" d="M804.14,177.68l-.05.5-.49.53c-.15.18-.46.44-.57.63-1.81-.36-3.43-1.28-5.29-2.07.76-2.64,1.31-4.97,2.44-7.38.6.97.26,2.6,1.12,3.2l1.68,1.19c.92.65.38,2.52,1.17,3.4Z"/>
    <path class="st85" d="M668.61,314.18c.08.24-.2.39-.56.39h-29.83s-19.71-.18-19.71-.18c.18-1.16.76-2.01.75-2.8.8-.05.94,2.29,1.65,2.34l47.71.26Z"/>
    <path class="st232" d="M381.3,64.7c-2.45-2.82-1.62-6.95-4.28-9.41,2.73-1.27,2.46-3.69,2.13-6.02.05-.56.75-.69.98-1.06-.37,5.09,1.16,11.7,1.17,16.49Z"/>
    <path class="st41" d="M332.41,249.36c.28-1.36-.11-2.82.38-4.47,1.02-3.48,1.24-14.71,3.54-19.45.03,8.15-1.85,16.12-3.91,23.92Z"/>
    <path class="st206" d="M381.63,315.5c-.09.35-.33.6-.99.6l-41.85-.17c-.08-.24.2-.37.56-.37h27.75c.29-1-.04-1.77.09-2.49h.5c0,.74-.11,1.47.08,2.5l13.86-.07Z"/>
    <path class="st237" d="M800.57,183.1c-.59,1.43-1.37,2.7-2.08,4.08-1.1-.42-2.28-.73-3.4-1.52.29-1.6.72-2.78,1.38-4.26,1.48.45,3.03.74,4.1,1.69Z"/>
    <path class="st171" d="M251.14,92.66c-.21.07-.44.32-.61.47-.28.23-.53-.21-.4-.51l5.77-13.47c2.75.12-5.25,12.18-4.76,13.51Z"/>
    <path class="st213" d="M291.02,200.06c-.27,3.56-.67,6.99-1.64,10.48-1.26-.51,1.11-10.43,1.24-11.95.81.61.18,1.14.39,1.47Z"/>
    <path class="st70" d="M757.83,300.5l-2.52,7.56-.4.53c-.11.28.08.75-.08,1-.7.7-.89.35-.58-1.04,1.12-3.08,2.15-6.28,3.02-9.45.12.49.24,1.01.56,1.41Z"/>
    <path class="st10" d="M582.39,18.86c-.09.92-.68,2.02-.75,3.55-.66-3.3-1.25-7.21.81-9.97,0,2.12.16,4.3-.05,6.42Z"/>
    <path class="st208" d="M687.54,314.09h-9.99c4.08-1.92,5.69-2.13,9.99,0Z"/>
    <path class="st227" d="M717.41,307.59c-.02-.16.02-.34.02-.5l-.5-1v-2.99c-.19-1.64-.36-3.3-.5-4.98l-.02-3.98c.59-1.08,2.37,15.03,1,13.44Z"/>
    <path class="st118" d="M386.64,88.6c.73-.85,1.52-2.9,1.4-3.99.19-.76.69-.39.67.28l1.36,2.93c-.98.81-2.27.7-3.43.78Z"/>
    <path class="st123" d="M812.69,192.6c.13-.15.19-.43.35-.54.52-.34.92-.78,1.46-1.31.73,1.23.93,2.27,1.05,3.55-1.28-.07-2.83-.41-2.86-1.7Z"/>
    <path class="st233" d="M253,94.63c-.27,1.45-1.41,2.74-2.3,3.83.05-.8-.48-1.4-1.07-1.88.83-1.12,2.12-1.84,3.37-2.41.31.14.31.29,0,.46Z"/>
    <path class="st79" d="M877.86,142.85c.29.46-.45,1.71.29,1.95.6.2,1.24-.01,1.75.02l-3.14.51c.47-2.82-.48-5.78.5-8.46.47,1.99-.55,4.16.6,5.97Z"/>
    <path class="st70" d="M555.52,150.78c-.16.15-.31.31-.46.47-1.24-1.32-2.99-2.25-3.96-3.89l.45-.4c1.38,1.2,2.93,2.3,3.96,3.81Z"/>
    <path class="st93" d="M240.14,106.09c.04.72-.39,1.31-.54,1.98-.96-.37-2.07-.35-2.9-.97,1-.38,1.83-1.32,2.92-1.55.42-.64,1.05-.13.51.54Z"/>
    <path class="st185" d="M260.55,21.82l-1.11,4.65c-3.22,1.9,2.08-7.44,1.11-4.65Z"/>
    <path class="st66" d="M95.68,186.15c-.07,1.89-.17,3.61-.56,5.47-.48,1.07-1.18-6.9.56-5.47Z"/>
    <path class="st145" d="M384.15,88.48c.48-1.35,1.24-2.57,1.97-3.81.6,1.77-.57,2.85-1.97,3.81Z"/>
    <path class="st49" d="M754.83,309.58c-.7,1.1-.66,2.5-1.43,3.53-.12-.21-.44-.37-.62-.54l1.47-4.03c.02.42.16.87.58,1.04Z"/>
    <path class="st209" d="M304.94,155.27c0,.5-.06.99-.08,1.48-.14,1.15-1.37,1.6-2.4,1.55-.03-.24.19-1.12-.42-.69,1.04-.65,1.56-2.1,2.91-2.34Z"/>
    <path class="st212" d="M294.39,161.86c0,.29-.11.88.42.59-.81.34-1.47,1.58-2.68,1.21.1-1.41,1.61-1.23,2.25-1.79Z"/>
    <path class="st13" d="M809.19,172.23c-.19.14-.37.35-.53.53-.86-1.06-1.24-2.49-1.54-4.1,1.53.88,1.25,2.46,2.07,3.57Z"/>
    <path class="st107" d="M83.17,147.78c-.8-.05-1.32-.96-1.9-1.34l.52-.09.86-.1.54-.27h.53c-.11.62-.3,1.22-.55,1.79Z"/>
    <path class="st49" d="M603.3,184.64c-.46.08-.24.73-.31,1.06-.24-.72-1.48-1.52-1.5-2.47.4.32.82-.03.51-.47.31.53.9,1.39,1.3,1.88Z"/>
    <path class="st144" d="M287.49,219.49l-.02,1.49c-.11.91-.38,1.33-1,.5l-.02-3.52,1.04,1.53Z"/>
    <path class="st84" d="M716.93,303.11c-.39.04-.51-.45-.5-.97v-4.01c.41-.03.51.45.51.97v4.01Z"/>
    <path class="st136" d="M817.71,164.59c-.22.06-.45.44-.63.6-.38.14-.92-.13-1.14-.62-.13-.28-.4-.95.55-.78.46.08.73.23,1.12.33.2.05.52.13.1.47Z"/>
    <path class="st135" d="M148.97,142.75c-.83.68-1.51,1.57-2.49,2.08v-.5c.42-.42.68-1.01,1-1.52-.27-1.04.33-1.27,1.05-.45,0,.27.12.55.44.39Z"/>
    <path class="st194" d="M160.93,132.35c-.87,1.09-2.2,1.56-3.13,2.53v-.52c.62-.76,1.27-1.54,2.12-2.05.09.12.2.25.32.28.26.06.53-.09.68-.24Z"/>
    <path class="st126" d="M267.54,65.2c.11.63-.28,1.39-.38,1.99-.07-.41-.27-.81-.66-1,.17-.66.41-1.31.54-1.99.7-.39.87-.06.5,1Z"/>
    <path class="st20" d="M264.1,73.55c-.22.53-.45,1.03-.54,1.6-.69.52-.85.19-.5-1-.15-.77.29-1.79.39-2.49.05.68.11,1.41.65,1.88Z"/>
    <path class="st122" d="M286.47,221.49l1-.5c0,.51.39,1.89-.47,1.99s-.53-1.11-.53-1.49Z"/>
    <path class="st149" d="M278.5,312.57c-.14.43-.31.43-.5,0,.11-.99-.06-2-.04-2.99h.58c-.15.98.02,2-.04,2.99Z"/>
    <path class="st219" d="M263.56,75.16c-.05.35-.41.65-.5,1-.15.28-.32.28-.5,0-.56-.71.6-1.47.5-1.99-.01.4.09.84.5,1Z"/>
    <path class="st65" d="M368.24,103.53c-.22.09-.32.65-.56.8-.62.38-.44-.3-.52-.56-.21-.62.34-.5.52-.76.17.2.36.37.56.52Z"/>
    <path class="st200" d="M323.35,180.7c-.91-.09-.72-1.03-1-1.57.92-.1.7,1.09,1,1.57Z"/>
    <path class="st53" d="M263.06,76.15c-.07.29-.29.51-.49.77-.35.45-.69-.05-.5-.51.06-.16.43-.22.49-.26h.5Z"/>
    <path class="st43" d="M286.42,61.71c.52-.19.69-.02.5.5l-8.49,8.75c-1.2,1.23-2.63.6-3.58,1.17-3.46,2.07-5.91,5.49-9.72,7.15-.63-.57-.2-1.39-.67-2.27-.63.57-.37,1.29-.91,1.67.39-.97.47-1.63,1.02-2.53.06.24-.15.58.18,1.08,3.53-2.45,6.58-5.42,10.1-8.18.78-.61,2.11.28,3,0,3.24-2.18,5.38-5.44,8.57-7.34Z"/>
    <path class="st201" d="M378.68,90.15c-.22.32-.58.46-.93.58-.07-.21-.06-.46,0-.77.03-.19.31-.23.49-.36l.44.56Z"/>
    <path class="st162" d="M240.14,106.09c-.02-.35-.07-.66-.51-.54-.18-.45.43-.69.76-.53.27.13.34.4.25.73-.06.21-.19.52-.5.34Z"/>
    <path class="st6" d="M253,94.63c-.05-.13-.16-.32,0-.46-.1-.25.21-.68.36-.57.38.27.31.56.23.73-.09.18-.32.43-.59.3Z"/>
    <path class="st174" d="M717.43,307.09c-.46-.1-.5-.6-.5-1,.45.11.5.6.5,1Z"/>
    <path class="st202" d="M383,35.9c-.52.04-.32-.73-.41-1.06.31.4.27.55.41,1.06Z"/>
    <path class="st151" d="M146.48,144.84c-.21.11-.39.38-.56.54-.21-.21-.19-.39.07-.54l.5-.5v.5Z"/>
    <path class="st174" d="M82.65,146.25c-.14-.39.34-.31.54-.27-.19,0-.34.24-.54.27Z"/>
    <path class="st233" d="M248.59,97.07c-.12-.32.29-.4.52-.47-.19.12-.31.37-.52.47Z"/>
    <path class="st174" d="M803.6,178.71c.14-.2.3-.38.49-.53-.03.27-.34.35-.49.53Z"/>
    <path class="st130" d="M309.51,154.86l-.16-.53c.51,0,.75.51.16.53Z"/>
    <path class="st42" d="M24.32,24.02c-.67.1-.98-.74-1.2-1.76-.12-.52.83-.36,1.24-.07.27.19.37.58-.04,1.83Z"/>
    <path class="st11" d="M22.12,19.24c.09-.45.63-.03.91-.03.41,0,.37.43.12.7-.16.18-.31.4-.5.44-.46.1-.68-.34-.52-1.11Z"/>
    <path class="st174" d="M15.94,181.6c-1.38.15-2.71.18-3.99.07.4.47.13.66-.5.5-.8.16-1.15.35-1.03.57-.12.27-.93.55-.93.26v-14.82c5.6-1.64,11.1-2.86,16.79-3.99.69-.14,1.08-.97,1.68-.71,3.25,1.42,4.13,10.48,3.96,14.19l-15.99,3.92Z"/>
    <path class="st216" d="M9.65,196.28l-.2-10.98,17.47-4.46.31,11.13c-5.73,1.92-11.27,3.11-17.59,4.32Z"/>
    <path class="st167" d="M32.4,190.49c-.12.86-2.82,1.2-3.31.64-.43-3.4-.41-7.03-1.08-10.37,1.25-.72,2.4-.82,4.12-1.04.28,3.4.83,6.76.27,10.77Z"/>
    <path class="st87" d="M15.94,181.6c-1.25.31-2.01.59-2.99.57-1.08.34-1.41.17-1-.5.71.3,4.11-1.18,3.99-.07Z"/>
    <path class="st25" d="M12.95,182.17c-.62-.02-.92.81-1.49.5-.44-.14-.43-.31,0-.5l.5-.5c.16.4.6.51,1,.5Z"/>
    <path class="st171" d="M11.46,182.17v.5c-.45-.25-.88.27-1.03.08-.54-.13-.51-.57-.18-.57h1.21Z"/>
    <path class="st174" d="M73.19,144.71c.05.37.24.39.56.06,5.99,2.72,11.29,6.85,14.54,12.73,4.49,8.11,3.18,18.05-4.21,22.87-.19.77-1.07,1.61-1.87,1.22.03.48-.31.84-1,1.07-.31.42.03.27.5,0,.13-.53.55-.88,1.01-.51.11-.72,1.14-1.16,1.88-1.33,1.12-.71,2.31-1.38,3.04-2.55.75-.39.88.09.64.91l-.79,11.96c-2.47.2-4.73.24-7.03.02.08-3.2.2-6.12-.73-9.43-1.17,3.49.21,6.25-.23,9.7-2.76-.38-5.56.88-8.21.72l-15.98-.96c-3.7-.22-7.18-.6-10.81-.45-.44-1.5-.72-2.64-.22-3.78,3.04-.13,17.19.94,18.17-.49,1.22-1.77-5.28-.55-8.14-.7-3.81-.2-7.35-.08-11.15.09l-.07-8.53c3.74-.56,6.38-3.44,6.82-7.15.31-2.61.39-5.62-2.27-7.31,1.18,5.23,1.36,10.54-4.69,12.62-.82-8.2-2.14-15.62-11.89-17.01,4.36-17.46,28.91-20.58,42.14-13.77Z"/>
    <path class="st32" d="M29.29,157.45c-.76,2.3-3.68,1.37-3.84,4.35-1.08.7.03-3.7,1.47-4.38.76-.36,1.81.62,2.37.03Z"/>
    <path class="st115" d="M84.6,180.82c-.63.4-.97,1.27-1.88,1.33-.52.14-.69-.05-.51-.55l1.87-1.22c-.41.44.15.73.52.45Z"/>
    <path class="st63" d="M43.05,190.61c-.33-.9-.36-1.82,0-3.02.51.72.46,1.55,0,3.02Z"/>
    <path class="st95" d="M88.28,179.18c-.16-.33-.38-.64-.64-.91.18-.28.11-.82.79-.6.56.19.24,1.19-.14,1.51Z"/>
    <path class="st125" d="M73.75,144.78c.19.26.03.41-.25.56-.16.08-.53.05-.73-.21-.1-.14.3-.27.42-.4.17.06.4,0,.56.06Z"/>
    <path class="st14" d="M202.38,243.81c-.19.57-.38.58-.6,0l-.99,1.58c-3.65,6.09-7.12,12.05-10.1,18.88-7.4,16.96-17.01,32.46-28.94,46.55-1.81,2.14-3.76,4.08-6.65,4.72,2.79-2.98,5.38-5.14,7.54-8.3,11.18-16.32,16.92-25.19,25.12-43.5,3.74-8.36,7.95-16.09,13.7-23.17.64-.79,2.15-.7,2.88-.3-.64,1.55-1.76,2.27-1.96,3.52Z"/>
    <path class="st106" d="M164.46,260.38c-.51.12-.67-.06-.49-.55l17.07-11.84c4.47-3.08,8.75-5.84,13.75-8,9.55-4.13,20.7-12.37,25.57-21.78l8.17-15.81c.31-.61.62-1.08.97-1.24s1.74.09,1.73.49c-2.53,5.76-5.3,11.27-8.15,16.83-4.15,8.12-13.7,17.23-21.26,20.85l-13.58,6.5-20.82,13.06c-1.05.66-1.91,1.29-2.96,1.49Z"/>
    <path class="st14" d="M157.5,148.21c1.02-1.18,1.49-.64.52.53-4.47,5.01-9.18,9.13-13.19,14.32-8.5,10.99-14.42,22.92-18.02,36.34l-5.57,20.75c-.19.7-1.79,1.36-1.91.78-.08-3.94,1.35-7.58,2.23-11.36,1.56-6.7,3.09-13,5.43-19.52,4.02-11.23,9.77-21.56,17.95-30.27,4.03-4.3,7.98-8.38,12.56-11.57Z"/>
    <path class="st35" d="M247.99,176.59c-1.02-1.1-.63-1.49.46-.47,6.18,6.68,12.58,12.28,20.25,16.87,3.13,1.88,5.48,3.96,6.92,7.45.4.96,8.14,21.32,3.98,19.4-1.92-5.94-3.44-11.95-5.75-17.6-1.36-3.33-3.39-5.22-6.28-7.16-7.63-5.11-14.54-11.08-19.58-18.49Z"/>
    <path class="st137" d="M304.85,156.75c-.08,2.12-.48,4.23-.86,6.56-2.59,15.67-8.12,17.03-9.64,23.25-.19.78-.78,1.99-1.64,2.68-.27-4.59,2.29-8.46,4.47-12.36,3.25-5.81,4.34-12.24,5.26-18.58.16-1.07,1.48-1.59,2.4-1.55Z"/>
    <path class="st104" d="M201.8,245.06c-.16-.43.16-1.05.58-1.25l18.04-10.56,10.43-7.27c-.96,4.95-27.19,19.98-28.64,19.79-.23-.03-.37-.42-.4-.7Z"/>
    <path class="st218" d="M163.36,144.34c-1.76,1.48-3.3,3.31-5.34,4.39.2-.43-.16-.57-.52-.53,1.43-2.08,3.61-3.07,5.39-4.37.52-.18.68,0,.47.5Z"/>
    <path class="st58" d="M229.69,148.34c0-.07-2.84,2.32.31-7.08.43,2.53-.31,4.61-.31,7.08Z"/>
    <path class="st188" d="M248.46,176.12c-.41-.34-.8.06-.46.47-1.16-.81-1.72-1.86-2.3-2.85l.45-.42c1.2.75,1.57,2,2.31,2.8Z"/>
    <path class="st188" d="M165.8,142.33c-.81,1.01-1.7,1.38-2.45,2.01-.1-.21-.26-.38-.47-.5,1.01-.73,1.51-1.5,2.48-1.92l.43.41Z"/>
    <path class="st143" d="M245.62,172.71c.19.42,0,.57-.5.5-.8-.98-1.88-1.63-1.38-3.07.97.72,1.21,1.78,1.88,2.57Z"/>
    <path class="st99" d="M301.21,204.25c-.54-1.14.31-2.14.46-3.21.27,1.07.84,2.25-.46,3.21Z"/>
    <path class="st1" d="M167.9,140.85c-.61.88-1.66.93-2.1,1.48l-.43-.41c.92-.39,1.24-1.48,2.03-1.57l.5.5Z"/>
    <path class="st186" d="M163.42,260.8c-.47.4-.91.9-1.23.94-.23.02-.83-.64-.68-.77l1.41-.66c.41-.18.56,0,.5.5Z"/>
    <path class="st112" d="M287.46,309.52c.3-.67.83-1,1.39-1.48.31.85,0,1.56-1.39,1.48Z"/>
    <path class="st96" d="M169.39,139.86c-.21.62-1.2.57-1.49,1-.31-.15-.3-.31,0-.5.32-.59.65-.85,1-1l.5.5Z"/>
    <path class="st229" d="M164.46,260.38c-.5.1-.72.55-1.04.43-.18-.15-.35-.31-.5-.5l1.05-.48c.14.2.3.39.49.55Z"/>
    <path class="st177" d="M93.07,302.31c.4-.39,1.02-.19,1.04.02s-.47.58-.71.75c-.42.29-1.01-.11-.33-.77Z"/>
    <path class="st31" d="M278.58,314.04c-.51-.17-.63-.89-.57-1.47h.5c-.03.49.06.98.07,1.47Z"/>
    <path class="st27" d="M201.8,245.06l-.46-.03c-.26-.43.08-.93.45-1.21h.6c-.07.46-.22.92-.58,1.25Z"/>
    <path class="st215" d="M246.15,173.32l-.45.42c-.24-.32-.5-.39-.57-.53.15-.18.32-.35.5-.5.27.32.4.54.53.61Z"/>
    <path class="st96" d="M169.39,139.86c-.31-.15-.3-.31,0-.5.12-.7.82-.54.96-.27.05.1-.68.74-.96.77Z"/>
    <path class="st104" d="M201.34,245.03c-.09.23-.26.53-.54.37.3-.5.09-1.48.99-1.58l-.45,1.21Z"/>
    <path class="st4" d="M167.9,140.85c-.33.07-.56-.17-.5-.5h.5v.5Z"/>
    <path class="st46" d="M169.39,139.86c-.33.07-.56-.17-.5-.5h.5v.5Z"/>
    <path class="st106" d="M552.39,118.49c.37-.45.37-.6,0-.44-1.6.96-2.92,2.31-4.81,2.49-.98.14-1.47-.08-1.47-.64,2.62-.49,4.31-2.71,6.52-4.32,3.56-2.59,6.27-5.91,6.29-10.57.02-2.58-1.41-4.77-4-5.38-1.45-.34-2.26.55-3.72,1.54-.43-2.12,1.94-3.08,3.62-3,3.24.15,4.61,2.7,5.29,4.92,1.93,6.23-3.18,9.11-5.33,13.42-4.27,8.56-5.05,18.8-5.27,28.3l-.58,25.15c-.01.58-.65,1.36-1.07,1.24-.27-.08-.81-.58-.82-1.07-.19-7.59-.72-15-.21-22.59.89-13.07,1.45-16.84,5.54-29.04Z"/>
    <path class="st19" d="M523.63,61.85c1.95-.15,3.78-.03,5.48.36.57-.29,1.4.16,1.99.5.79-.01,1.9.44,2.49,1,.49-.26.74-.07.61.49,2.97,1.57,4.98,3.89,7,6.38,3.86,4.78,4.94,10.79,2.96,16.64-1.88,5.54-.65,12.89.09,18.7,1.94.77,1.79-3.42,4.74-2.17-.59,1.64-1.36,3.59-3,4.41-.49.09-1.16-.52-1.42-.26-.51.5-.38,1.09-1.69,1.73-1.87-5.71-2.26-12.18-1.66-18.41.49-5.09,5.41-10.53-1.1-19.06s-12.64-9.37-23.46-8.33l-4.2.06.22-.67c3.92-.57,7.39-1.19,10.96-1.36Z"/>
    <path class="st173" d="M466.73,220.49c-.27-.84-.15-1.54.65-1,1.29,3.72,1.04,7.74,2.81,11.2,2.75,5.38,7.58,9.28,11.85,13.34,5.02.53,9.32.83,14.01-.34l15.57-3.86c.75.64.13,1.95-.78,2.25-9.77,3.14-20.5,6.38-30.34,2.57-4.94-3.71-8.88-8.19-11.91-13.49-.74-3.71-1.59-7.16-1.86-10.68Z"/>
    <path class="st173" d="M537.62,63.72c4.8,2.48,9.11,5,12.31,10.15,1.96,3.15,4.2,6.23,5.35,10.03,1.27,4.17,2.72,8.33,2.21,12.55-.46.75-.83.43-1.01-.43-2.47-12.05-6.85-23.14-18.09-30.14-.73-.45-.92-1.51-1.71-1.66.25-.26.58-.41.93-.5Z"/>
    <path class="st228" d="M545.09,234.5c7.51,2.63,15,5.34,22.98,7.28,5.17,1.25,13.94.05,18.25-3.28,1.06,4.68-12.67,6.32-16.99,5.42-8.8-1.83-16.99-5.11-25.2-8.95-.6-.62-.28-.77.96-.47Z"/>
    <path class="st236" d="M587.44,237.41c-.7.63-.97.36-.63-.5l-2.43-12.43c-.29-1.45-.27-3.29.45-4.59,4.65-8.25,3.12-10.93,6.28-18.4,1.5,1.02.66,2.48.43,3.77-.97,5.48-2.44,10.61-5.46,15.31l1.57,11.06c.29,2.02.47,4.02-.22,5.77Z"/>
    <path class="st15" d="M546.11,119.9c.41.37.92.57,1.47.64-.82.08-1.81.29-2.73.47-1.62,6.66-5.74,12.64-12.16,15.14,2.89-3.77,6.73-5.64,8.11-9.94.67-2.07,3.6-11.63,4.99-11.94.31-.07,1.27.18,1.13.6l-1.53,4.67c-.14.42.57.22.72.36Z"/>
    <path class="st116" d="M606.42,270.3c-1.77,5.03-5.18,8.85-7.55,13.61-4.34-.11-10.96-8.26-7.7-7.03l.85.32c2.17.82,3.57,3.41,6.09,4.38l5.96-8.63c.74-1.08,1.29-2.15,1.72-3.19.68-.52.92-.26.64.54Z"/>
    <path class="st40" d="M525.43,97.52c-2.03.24-2.52-1.69-4.01-1.87l-11.84-1.47c-1.2-.15-2.33-.85-2.77-1.53-.73-1.13-1.24-2.56-.24-3.71.52,2.7,2.21,3.99,4.57,4.2l9.95.89c1.92.17,4.14,1.34,4.34,3.49Z"/>
    <path class="st101" d="M498.25,84.07c-.47-.11-.81-.29-1.03-.53,7.88-2.76,13.51-.45,21.43.07,1.67.11,3.86-.44,4.69,1.58-3.02-.91-5.72-.47-8.48-.89-5.69-.87-11.16-1.44-16.61-.23Z"/>
    <path class="st64" d="M569.7,172.87c-5.39-1.2-10.48-2.27-15.79-2.99-.27-.04-.47-.82-.3-.86,3.92-.89,12.27,1.26,16.7,2.47.38.1-.04,1.51-.61,1.38Z"/>
    <path class="st165" d="M513.25,101.56c-.82.44-1.72.31-1.08-.58.79-.53,2.42-.78,2.07-1.93-.62-.6-.37-.83.46-.57,3.45.69,6.72,2.02,10.47,2.46.51.06.98.53.87.86-.1.3-.49.39-.92.33l-6.45-.88c-.73-.1-1.15,1.84-2.28,1.48-3.94-1.26.88-1.09-3.13-1.17Z"/>
    <path class="st51" d="M522.62,135.25c-.18.14-.32,0-.41-.4l4.65-11.3c-.21,4.34-1.83,8.56-4.23,11.71Z"/>
    <path class="st101" d="M532.72,218.19c-3.76.84-5.93,2.4-6.55,5.87-1.19-1.93.07-3.78,1.21-5.08s3.44-2.52,5.34-.79Z"/>
    <path class="st57" d="M554.55,104.44c.37,1.17.32,2.42.03,3.6l-.08.91-.49,1.04c-.06.15.03.34,0,.5-.32.48-.65.65-1,.5v-1.49l.39-1c-.02-.5.02-1,.08-1.49.37-.85.56-2.49-.53-2.32-.39,1.08-1.24,1.89-1.96,2.76-.49.19-.67.02-.53-.48.68-1.45,1.36-3.08,2.61-4.39,1.01-1.06,3.08-.83,4.11-.14-.2,1.11-3.05.95-2.83,1.6.04.11.2.26.19.41Z"/>
    <path class="st55" d="M536.66,309.38c-1.51-3.37-1.92-6.82-1.32-10.51,1.14,3.41,1.88,6.74,1.32,10.51Z"/>
    <path class="st178" d="M516,119.39c-.35-.29-.86-.03-.54.43-.98-1.79-3.18-2.55-5.11-3.46.43-.74.87-1.7,1.57-2.2,2.16,1.32,3.24,3.26,4.08,5.23Z"/>
    <path class="st55" d="M509.18,78.14c.73.94-.67.97-1.49.5-2.35-.22-4.64.5-6.98.5-.33-.15-.32-.31,0-.5.59,0,1.47-1.37,8.47-.5Z"/>
    <path class="st60" d="M550.39,109.1c.07,1.55-.31,3.52-2.36,4.07.11-1.92,1.32-2.88,1.9-4.08.11-.44.26-.42.46,0Z"/>
    <path class="st195" d="M545.09,234.5c-.35.08-.7.21-.96.47-1.51-.71-3.34-1.07-4.71-2.68,2.22-.08,3.67,1.5,5.67,2.2Z"/>
    <path class="st101" d="M554.78,96.75c-1.97.65-3.34.85-4.06,2.37-.64-1.48.31-2.31.97-2.65,1.01-.51,2.22-1.15,3.08.28Z"/>
    <path class="st159" d="M512.67,63.21c-.42.83,3.46.35,3.99.61-2.35.23-4.48.81-7.05.19.98-.57,2.04-.65,3.06-.8Z"/>
    <path class="st23" d="M466.83,216.51c.02.7-.15,1.2-.5,1.49-.78-1.54-.68-3.06-1-4.48l.5-.5c.83,1.19.54,2.45,1,3.48Z"/>
    <path class="st110" d="M529.11,61.72c.44.14.43.31,0,.5-1.73-.29-3.59.42-5.48-.36.83-.2,2.03.21,2.49-.66,1.01.12,1.99.28,2.99.53Z"/>
    <path class="st24" d="M513.16,78.64c.66,1.05-.58.78-1.49.5-1.07-.4-3.21.71-3.99-.5.53.05,1.3.11,1.49-.5l3.99.5Z"/>
    <path class="st173" d="M467.38,219.49c-.4.17-.6.58-.65,1-.82-.79-.09-1.88-.4-2.49-.02-.54-.11-1.27.5-1.49.5,1.15.27,2.17.55,2.99Z"/>
    <path class="st83" d="M511.67,79.14c.54.02,1.27.11,1.49-.5.26.03,1.22-.05,1.02.47-.51,1.31-1.88.26-2.51.02Z"/>
    <path class="st70" d="M554.59,108.05c-.11-1.2-.09-2.4-.03-3.6.79.97.71,2.56.03,3.6Z"/>
    <path class="st59" d="M500.21,78.64c.33.15.32.31,0,.5-.65.62-1.74.79-2.53.22,1.05-.4,1.79-.72,2.53-.72Z"/>
    <path class="st70" d="M553.49,107.01c.06-.81.11-1.73-.53-2.32.06-1.09,1.21-.82,1.08.2.05.99-.03,1.72-.56,2.12Z"/>
    <path class="st106" d="M498.22,147.32c-.62.16-.97.75-1.5,1.08-.16-.23-.35-.43-.58-.59.56-.19.89-1.01,1.58-.99.64-.44.88-.2.5.5Z"/>
    <path class="st187" d="M500.71,96.06c-.4.16-.57.59-.59,1-.38-.41-.43-.99-.82-1.78-.06-.3.67-.35.91,0,.15.21.37.46.5.78Z"/>
    <path class="st57" d="M496.72,83.56c.36.01.53.2.5.56-.5.55-1.31.54-1.99.5-.35-.14-.35-.31,0-.5.47-.25.97-.46,1.49-.56Z"/>
    <path class="st74" d="M551.01,107.45c-.3.37-.47,1.22-.61,1.65h-.46c.06-.75.22-1.45.54-2.13.15.19.33.35.53.48Z"/>
    <path class="st187" d="M606.42,270.3c-.2-.19-.41-.37-.64-.54.02-.3-.06-.83.31-.99.55-.23.8.21.79.73,0,.28-.32.42-.46.8Z"/>
    <path class="st180" d="M492.2,101.98c.54-.04,1.06-.23,1.58-.37-.51.75-1.36,1.36-2.52,1.43,0-.77.75-.75.94-1.07Z"/>
    <path class="st193" d="M513.25,101.56c-.26.62-1.19.61-2.09.34.25-.53.65-.67,1.01-.92-.05.56.71.57,1.08.58Z"/>
    <path class="st8" d="M465.83,213.02c-.15.18-.32.35-.5.5.06-.84-.17-1.31.15-2.02.78.25.08,1.14.35,1.52Z"/>
    <path class="st155" d="M551.56,146.97l-.45.4c.09.16-1.14-.62-1.03-.81.17-.31.59-.19.74-.25.54-.23.5.45.75.66Z"/>
    <path class="st146" d="M557.5,96.45c-.04.34-.13.58-.49.89-.48.41-.58-.17-.51-.54.05-.26.05-.56,0-.78.36.08.7.23,1.01.43Z"/>
    <path class="st9" d="M514.69,98.48l-.46.57c-.38-.11-.65-.5-1.07-.5-.41-.66-.16-.9.5-.5.46-.14.69.36,1.03.43Z"/>
    <path class="st210" d="M587.44,237.41c-.28.7-.81.85-1.12,1.08-.18-.81.36-1.3.49-1.58l.63.5Z"/>
    <path class="st71" d="M494.23,120.45c-.09.29-.34.74-.45,1.04-.34-.3-.88-.62-.94-1.12l1.39.08Z"/>
    <path class="st33" d="M498.22,147.32c.07-.36-.17-.49-.5-.5-.08-.44.38-.65.75-.5.24.1.33.41.26.72-.04.18-.22.34-.51.28Z"/>
    <path class="st15" d="M498.25,84.07c-.33.07-.7,0-1.03.05-.19-.16-.36-.35-.5-.56.15-.03.35-.06.5-.02.33.11,1.1.02,1.03.53Z"/>
    <path class="st161" d="M495.23,84.61c-.14.12-.14.75-.74.51-.48-.19.02-.6.24-.75.13-.09.26-.12.5-.25v.5Z"/>
    <path class="st47" d="M513.66,98.05c-.29.09-.58.09-.5.5-.29.06-.46-.11-.51-.28-.06-.24.02-.64.26-.72.37-.13.83.06.75.51Z"/>
    <path class="st106" d="M522.62,135.25c-.09,1.1-.78.27-.41-.4.33-.15.39.17.41.4Z"/>
    <path class="st68" d="M518.07,121.9c.13-.21.32-.38.53-.5.28.65-.25,1.49-.53.5Z"/>
    <path class="st70" d="M553.02,109.5c0-.36-.04-.88.39-1,.01.37.13.98-.39,1Z"/>
    <path class="st70" d="M554.02,110c.12-.33.04-1.02.49-1.04-.03.4-.03.91-.49,1.04Z"/>
    <path class="st191" d="M552.39,118.49v-.44c.6-1.01,1,.19,0,.44Z"/>
    <path class="st70" d="M553.02,110.99l1-.5c-.07.26-.23.45-.47.75s-.53.29-.53-.25Z"/>
    <path class="st231" d="M534.7,63.74l-.51.46c-.13-.07-.28-.28-.61-.49-.19-.42,0-.57.5-.5l.62.53Z"/>
    <rect class="st207" x="500.21" y="78.64" width=".5" height=".5"/>
    <path class="st121" d="M719.63,68.15c-.91-2.33-2.45-4.36-4.55-6.1-1.92-1.59-4.21-.96-6.24.91l-6.96-17.11c-2.61-6.42-5.48-12.4-7.86-18.91-2.21-6.04-5-11.41-8.45-16.93l10.06-.06c1.02,3.31,2.69,5.99,4.16,9.18l17.21,37.38c1.45,3.15,2.25,6.24,4.03,9.12-.55.83-.8,1.29-1.39,2.51Z"/>
    <path class="st121" d="M674.01,10.04c.64.88,1.13,1.85,1.48,2.91.03.16,0,.34.03.5l.97,1.99c0,.16,0,.34.02.5l.95,1.99c-.01.16.02.33.03.5l.48,1c-.02.15,0,.35.03.5l.96,1.99c-.01.16.02.33.03.5l.48,1c-.02.15,0,.35.03.5l.96,1.99c0,.15-.02.36.03.5l1,2.04c0,.52.3.99.5,1.45l.99,2.04c0,.53.33.98.5,1.45l1.5,3.03c.06.51.26,1,.5,1.45l.96,1.99c0,.15-.02.36.03.5l1.01,2.04c.02.52.3.99.49,1.45l1,2.04c.02.52.3.99.49,1.45l1,2.04c-.02.94.8,1.6,1.04,2.42,1.47,1.78,2.3,3.74,2.49,5.88,1.08,1.09,1.87,2.61,2.36,4.56.58.56.61,1.41.1,2.53-.83,2.6-1.88.15-3.13,5.92-1.4-1.77-3.07-3.08-5.53-2.63l-8.66-25.28-8.69-22.13c-1.47-3.74-2.7-7.27-4.82-10.59l8.39.03Z"/>
    <path class="st121" d="M699.03,63.21c-.76-.28-1.53-.35-2.29-.22-1.08-2.07-1.82-4.16-2.23-6.27l-.49-.06c-.67-1.63-1.18-3.29-1.52-4.99,0-.13.11-.27.1-.39l-.49-1c.02-.15,0-.35-.02-.5l-.96-1.99c0-.16,0-.34-.03-.5l-.95-1.99c.01-.16-.03-.34-.04-.5l-.48-1c.02-.15,0-.35-.03-.5l-.96-1.99c0-.15.02-.36-.03-.5l-1.47-3.48c-.02-.16.03-.35-.03-.5l-1-2.04c-.01-.51-.27-1-.5-1.45l-.96-1.99c.01-.16,0-.35-.03-.5l-.96-1.99c.01-.16,0-.35-.03-.5l-.96-1.99c.01-.16-.03-.34-.04-.5l-.48-1c.02-.14.02-.37-.03-.5-.62-1.09-1.11-2.25-1.45-3.48l-.04-.5-.47-1c0-.16-.02-.33-.03-.5l-.48-1c.02-.15,0-.35-.03-.5l-.95-1.99c.01-.15,0-.35-.04-.5l-.96-1.99c.01-.15,0-.35-.04-.5-.64-.76-.94-1.55-.9-2.39,1.79-.07,3.72-.28,5.59,0,4.42,6.61,7.04,13.6,10.25,20.83l13.8,31.07c-1.45,2.56-1.4,5.13-1.06,7.72-.61-1.16-1.34-1.75-2.45-1.85-1.13-1.85-2-3.86-3.84-4.61Z"/>
    <path class="st121" d="M686.04,73.16c-.42.05-.75-.29-.97-1.02.24-1.92-4.92-13.85-7.03-10.93-.31.43-.51.86-.79.91-.33.06-1.11.21-1.29-.31l-13.11-37.12c-1.79-5.08-4.07-9.54-5.46-14.69,1.64-.06,3.34-.15,5.1.02,2.41,3.64,3.74,7.52,5.38,11.56l9.39,23.09,9.4,24.97c.02,1.02-.69,2.6-.61,3.52Z"/>
    <path class="st121" d="M684.88,116.94l-3.4,10.62-20.77-6.77-3.92-12.77c2.59.29,4.85,1.27,7.33,2.15,6.85,2.42,13.32,4.87,20.76,6.78Z"/>
    <path class="st121" d="M719.93,78.17l3.1,6.79c4.52,9.91,7.49,20.2,12.08,30.13l9.15,19.75c-1.85-.08-3.37-.63-4.92-1.57l-14.99-34.14-8.94-19.61,3.49-1.37c.05-1.05.62-.85,1.03.02Z"/>
    <path class="st121" d="M655.62,107.5c-3.2,4.84-1.92,5.34-3.96,10.34l-16.23-5.19-3.07-11.86,23.26,6.71Z"/>
    <path class="st121" d="M782.83,170.58c-4-1.03-7.09-2.71-10.83-4.21-.47-2.9-1.99-5.65-2.02-8.61-.03-3.87,1.73-2.67-2.55-9.76,3.72.82,7.16,2.15,11.01,3.58,2.82,8.01,1.94,11.2,4.38,19Z"/>
    <polygon class="st121" points="625.18 109.46 611 105.65 613.49 94.74 627.86 99.31 625.18 109.46"/>
    <path class="st216" d="M731.94,80.6c.5-.18.68-.01.53.5-.29,1.36.21,2.64.85,4.01l10.53,22.46,14.75,32.15c-2.56.63-3.25-1-4.06-2.76-8.38-18.23-16.73-36.19-24.17-54.87-.45-1.13,1.08-1.3,1.58-1.48Z"/>
    <path class="st216" d="M701.32,118.89c-2.04-.06-3.14-.99-4.47-1.77l-8.04-22.37-8.18-18.63c.86-.45,1.79-.64,3-.41l17.69,43.18Z"/>
    <path class="st121" d="M752.79,147.35c.16-1.24.51-1.87,1.05-1.89,1.09,1.67,1.2,3.58,1.71,5.65.87,3.56,3.93,8.42,3.08,9.55l-9.51-4.08c-3.34-1.43-6.89-2.55-9.81-4.8-1.22-1.87-2.48-4.75-2.41-6.95l.14-4.34c1.49,1.68,3.42,9.7,6.85,10.66s6.48-2.12,8.89-3.78Z"/>
    <path class="st216" d="M724.17,127.62c-1.06-.23-3.25-.36-3.81-1.55-2.86-6.1-5.1-12.17-7.49-18.5-3.1-8.21-6.15-16.1-9.71-24.11-.32-.73-.36-1.49.08-1.74.98-.55,1.61-.26,2.05.79l18.88,45.12Z"/>
    <path class="st105" d="M806.07,154.9c-.64.7-1.22,0-1.33-.67l-7.93-33.99-8.71-33.09c-.13-.49-.05-.91.12-1.13.25-.32.71-.59,1.51-.34l6.65,27.17,9.69,42.06Z"/>
    <path class="st216" d="M711.94,122.69c-.86.33-3.5-.08-3.97-1.32l-14.01-37.26c2.07,0,2.59,1.76,3.25,3.34l14.73,35.24Z"/>
    <path class="st216" d="M791.14,183.93c-5.45-2.89-10.63-5.36-16.41-7.18-.69-1.86-1.2-3.5-1.36-5.62l19.1,8.02c-.26,1.6-.42,2.85-1.33,4.78Z"/>
    <path class="st216" d="M679.05,135.18l-15.54-5.52c-.61-1.66-1.26-2.98-1.43-5.09l18.35,5.91c-.1,1.67-.6,3.06-1.38,4.7Z"/>
    <path class="st121" d="M694.92,120.72c3.42,3.24,1.54,9.56,3.44,13.2-2.58-.58-4.16-1.36-6.33-2.18l-3.74-13.71c2.4.85,4.9,1.05,6.63,2.7Z"/>
    <path class="st216" d="M756.64,168l-13.98-6.16c-1.13-1.11-1.42-3.35-1.73-5.12l16.56,7.39c.43.87-.22,1.97-.85,3.9Z"/>
    <path class="st216" d="M623.11,116.13c-6.92-2.97-12.54-1.3-12.78-9.09l13.86,4.7c.14,1.41-.26,2.47-1.08,4.39Z"/>
    <path class="st216" d="M649.81,124.89l-12.28-4.12c-.58-1.64-.99-3.05-1.17-4.78l14.5,4.78c-.05,1.42-.38,2.61-1.06,4.12Z"/>
    <path class="st98" d="M622.38,217.01c-1.03,3.76-.53,7.2.89,10.92,3,7.89,2.43,12.03,8.74,19.74,1.1,1.34-.18,2-.19,1.99-6.44-4.97-7.77-15.42-9.94-20.87-1.73-4.36-2.08-8.54-.16-12.77.68-1,1.02.12.66,1Z"/>
    <path class="st88" d="M630.35,253.27c-.67-.11-.88-.76-.07-.92.69-.73,1.81-1.06,2.56-1.95,6.97-8.22,3.95-17.38,6.38-16.75,1.9.49.31,8.47-.86,10.89-.86,1.79-1.73,3.43-2.02,5.49-1.98,1.33-3.9,2.55-5.99,3.25Z"/>
    <path class="st216" d="M769.67,174.39l-9.78-4.85c-.43-1.05.37-2.77,1.04-3.88l7.52,2.97c.68,1.77,1.25,3.47,1.22,5.76Z"/>
    <path class="st98" d="M636.69,222.52c1.1-.19,1.07.3-.09,1.46-.33.37-.68.84-1.14.73.17.04-3.22-2.36-3.22-3.18-.49-.89-.85-1.09-1.08-.59-.18.09-.39.3-.51.17-.13-.14-.39-.39-.41-.7-.43-6.68-1.56-13.02-3.07-19.29-.43-.89-.13-1.14.66-.54,2.5,5.34,3.19,11.32,4.09,17.39.36,2.41,2.72,3.88,4.77,4.55Z"/>
    <path class="st216" d="M711.68,147.7l-9.71-3.91c-.16-1.63.47-2.83,1.14-4.31,2.46.68,4.8,1.36,6.96,2.83.59,1.77,1.22,3.33,1.6,5.39Z"/>
    <path class="st105" d="M710.49,132.41l-.51-1.1c.04-.23-.04-.47-.02-.7.05-.45.22-.48.49-.1,2.51,1.64-.57-3.01-.25-3.85,1.29.51,3.78.63,4.37,1.97,1.02,2.62,1.08,5.34,1.84,8.17-1.45-.48-2.52-.69-3.41.54-1.01-1.74-1.8-3.27-2.5-4.93Z"/>
    <path class="st216" d="M634.44,119.73c-3.55-.99-6.46-1.86-9.49-3.16.37-1.54.64-2.7,1.42-4,2.19.96,4.74,1.15,6.76,2.5,1.24.83,1.07,3.26,1.32,4.67Z"/>
    <path class="st124" d="M752.73,120.03c.16.66.03.97-.39.95l-14.88-31.4-2.8-6.12c-.51-1.11-1.04-2.22-2.19-2.36-.14-.2-.32-.37-.53-.5.37-.26.86-1.35,1.57-1.12,2,4.52,4.24,8.63,6.35,13.13l12.87,27.43Z"/>
    <path class="st45" d="M625.78,225.99c-.61-.55-.48-1.18.38-1.9.19-3.55.22-7.07.1-10.57l-.51-.34c.52-3.4-.15-6.13-2.01-8.18.05-.94,1.03-1.2,1.75-1.03.57.14,1.65.9,1.8,1.81,1.13,7.01,1.48,14.25.68,21.32-.07.61-1.47.3-1.59-.02s-.39-.69-.6-1.08Z"/>
    <path class="st105" d="M737.16,159.29l-8.96-3.94c.04-1.42.5-2.72,1.31-4.1l6.27,2.77c.52,1.65,1.16,2.9,1.39,5.27Z"/>
    <path class="st102" d="M752.34,120.98c.04-.35.12-.71.39-.95,3.27,6.96,7.41,13.57,9.84,21.23-1.57.34-2.31-.87-2.87-2.24l-7.36-18.03Z"/>
    <path class="st216" d="M690.03,138.81l-8.01-2.62c-.05-1.68.58-2.98,1.38-4.56,1.59.82,3.82.87,5.25,2.19,1.11,1.03.93,3.08,1.38,4.99Z"/>
    <path class="st105" d="M660.41,128.51c-3.29-.74-5.64-1.85-8.45-2.91.19-1.5.47-2.69,1.29-4.05,1.77.87,4.13.8,5.58,2.15,1.18,1.1,1.15,3.22,1.58,4.81Z"/>
    <path class="st102" d="M727.12,146.34c-.85-2.85-.67-5.65-2.53-8.21-.37-.51.23-1.51.06-2.12-.47-1.6-1.57-2.68-1.7-4.49.83.3,2.99.5,3.23,1.54,1.84,7.91,4.05,7.23.94,13.27Z"/>
    <path class="st168" d="M665.05,219.09c-.48.1-.58-.05-.29-.45-.04-1.89,7.13-2.7,8.95-1.66s4.71,6,2.22,7.51c-1.57-1.77-1.55-4.2-3.74-5.4-1.16-.63-2.51.29-3.39,0-1.37-.46-2.53-.78-3.76,0Z"/>
    <path class="st102" d="M632.76,111.71c-2.22-.43-3.79-.95-5.76-1.71l3.04-9.56,2.71,11.26Z"/>
    <path class="st45" d="M629.73,197.18c-.33-1.13-.15-1.45.55-.96,1.06,2.27.8,5.6,2.46,7.27l1.57,1.58c.29.29,2.7,10.53.69,10.78-.81.1-1.03-6.46-1.87-9.14-.24-.77-1.42-1.09-1.58-1.92-.5-2.7-1.12-5.18-1.82-7.61Z"/>
    <path class="st105" d="M698.87,142.37c-1.62-.09-2.93-.74-4.39-1.5-.72-1.76-1.11-3.43-1.32-5.26,2.43.71,4.57,1.36,6.85,2.35.01,1.61-.53,2.88-1.14,4.42Z"/>
    <path class="st105" d="M725.06,153.97c-3.06-2.04-6.32-2.43-8.84-4.77,2.49.34,4.79,1.17,5.72-1.46,1.41.87,3.11,1.11,4.2,2.27.25,1.07-.38,2.43-1.09,3.97Z"/>
    <path class="st98" d="M624.76,207.64l.74.51c.27,2.94.35,5.9.26,8.86.29.07.52.14.52.23.08,1.23.32,7.21-.66,7.6-.52.21-1.15-.42-1.37-.91.01-2.32-.45-4.61-.46-6.92-.88-1.07-.51-9.36.05-9.69.25-.15.73.06.91.32Z"/>
    <path class="st39" d="M629.15,252.43c.44.07.44.21.03.44.5.55.29.82-.43.56-4.29.32-8.83,4.06-12.83,5.8-.42-3.12,2.03-2.95,4.37-4.48,2.72-1.78,5.83-2.09,8.86-2.32Z"/>
    <path class="st202" d="M664.76,218.64c.07.16.17.31.29.45-1.65,1.06-1.66,3.65-3.44,4.23-1.32.43-2.03-1.83-2.74-2.49-1.18-1.11-2.79-1.31-3.74-3.06,3.63.4,4.35-.37,6.17,2.25l3.46-1.37Z"/>
    <path class="st164" d="M646.06,221.83c-.77.47-.87.18-.3-.88.26-.52.12-1.26.63-1.53,1.94-1.02,3.58,1.42,5.22-1.01.47-.69,1.68-1.22,2.45-.66-.31,2.2-3.01,5.77-5.02,4.41l-1.67-1.13c-.41-.28-.92.36-1.31.78Z"/>
    <path class="st89" d="M762.07,162.02c-.04-2.42,3.41-1.93,4.34-3.46.61,2.1,1.08,3.61,1.09,5.56-1.78-.65-3.77-1.19-5.43-2.1Z"/>
    <path class="st94" d="M797.09,158.13c1.84,1.02-.2,5.6-.74,7.19l-2.39-7.71c1.02-.46,2.2,0,3.12.52Z"/>
    <path class="st133" d="M777.6,105.02c-.24.96-.53,1.06-.87.3-1.01-5.24-2.31-10.44-3-15.73-.13-.38.06-.53.5-.5.64,4.63,3.96,14.54,3.38,15.93Z"/>
    <path class="st89" d="M657.89,119.53c-1.11.13-2.98-.31-3.74-1.18.1-1.99.96-4.03,1.63-5.75,1.05,2.24,1.43,4.22,2.11,6.93Z"/>
    <path class="st119" d="M729.89,118.46c-.15-.39.04-.54.5-.5l6,13.51c.19.43.22.85-.01.88s-.98-.13-1.11-.45l-5.38-13.44Z"/>
    <path class="st94" d="M703.03,127.59c-2.38-2.59-3.31-.62-3.93-5.2,1.47.4,2.74.74,4.02,1.49s.94,2.71-.09,3.7Z"/>
    <path class="st133" d="M799.14,141.85c-.23-.96-.06-1.3.5-1,1.14,4.75,2.72,9.01,2.89,13.83-2.79-4.18-2.21-8.8-3.39-12.83Z"/>
    <path class="st52" d="M646.06,221.83l-1.73,1.85c-.54.58-1.47-.16-2,.06-.97.39-1.68,1.13-2.74.72-.63-.25-1.22-.74-1.95-1.44-.34.43-.79.67-1.06.96l.09-1.46c1.16.37,2.51.39,3.88.99,1.56-3.97,3.9.03,5.2-2.56.07.3.15.6.3.88Z"/>
    <path class="st0" d="M776.73,105.32c.27-.15.57-.25.87-.3-.83,1.96,4.62,17.5,3.91,20.49-2.07-6.93-3.5-13.54-4.78-20.19Z"/>
    <path class="st112" d="M742.78,127.95l-8.87-20.46c3.65,6.44,6.67,13.18,8.87,20.46Z"/>
    <path class="st139" d="M687.82,129.37c-1.29.05-2.31-.32-3.43-.99.51-2.09,1.04-3.78,1.93-5.48.8,2.34,1,4.14,1.5,6.47Z"/>
    <path class="st141" d="M625.78,225.99c-.41-.76-1.53-1.12-1.52-2.07.38.25.77.59,1.02.33.37-.39.46-.81.46-1.29l.03-5.96c-.25-1.53-.08-2.7.5-3.48.36-.04.53.46.53.97l.06,9.47c0,.83-1.13,1.33-1.07,2.03Z"/>
    <path class="st81" d="M799.64,140.85c-.4.16-.51.6-.5,1-1.3-4.43-2.4-8.65-2.99-12.94-.09-.35.1-.5.5-.5l2.99,12.44Z"/>
    <path class="st147" d="M766.65,87.09c.57,3.65,1.55,6.85,1.46,10.53-1.13-3.45-1.7-6.86-2.59-10.49-.08-.31,1.05-.51,1.13-.04Z"/>
    <path class="st29" d="M734.29,149.24c-1.23,0-2.54-.59-3.48-1.42-.58-.51.24-1.54.43-2.39,1.41.59,3.15,1.32,3.05,3.81Z"/>
    <path class="st131" d="M753.7,138.6c-2.34-3.8-4.59-8.03-6.17-12.75,2.23,3.9,4.52,7.61,6.17,12.75Z"/>
    <path class="st100" d="M699.03,63.21c-.49,0-1.63-.51-1.94.16-.16.34-.48.88-.64,1.36.57-.47-1.94-5.88-2.46-7.1-.19-.81-.02-1.11.52-.92.83,1.75,1.59,3.52,2.32,5.6l2.2.9Z"/>
    <path class="st69" d="M809.36,156.87c-1.92-2.83-1.81-5.96-2.17-9.13,1.1,2.86,2.33,5.68,2.17,9.13Z"/>
    <path class="st114" d="M624.76,207.64c-.2,0-.61-.17-.98.01l.02,9.36-1.03-1c-.27-.07-.48-.14-.48-.22-.08-1,.24-2.77.48-3.76.29-.41.36-.63,0-1-.27-1.01-.19-2.75.13-3.79.04-.13.35-.17.74-.19.56-1.67,2.01-.96,1.11.58Z"/>
    <path class="st50" d="M635.63,259.21c-.31-.28-.62,0-.49.24.23.41.45.64.57.88-.59.23-1.24-.13-1.94-1.06-1.04-1.57-2.6-2.65-3.45-4.35.14-.21.3-.22.49-.03,1.44,1.44,3.11,3.16,4.83,4.32Z"/>
    <path class="st183" d="M777.22,118.46c-.01.55-.18.88-.5,1-.55-3.27-2.12-6.09-1.85-9.56,1.02,2.87,1.7,5.7,2.34,8.56Z"/>
    <path class="st184" d="M778.71,128.91l.5-.5c.52,3.63,1.9,7.03,2.4,10.46-1.62-3.39-2.43-6.69-2.9-9.96Z"/>
    <path class="st140" d="M762.14,145.95c-.3,1.15-1.49.91-2.56.83-.96-.08-1.67-1.04-1.66-2.35,1.39.36,2.5.65,4.22,1.52Z"/>
    <path class="st61" d="M731.88,127.91c.21.43.02.58-.5.5-1.5-4.36-3.94-7.98-4.89-12.49,2.03,3.97,3.86,7.91,5.39,11.99Z"/>
    <path class="st109" d="M748.45,133.85c-1.69-.26-3.33-4.69-3.49-6.84l3.49,6.84Z"/>
    <path class="st78" d="M623.74,204.99c1.36.46,1.45,1.88-.1,2.06-.5,1.27-.7,2.63-.87,3.98.32.17.32.33,0,.5-.86.36-.85-.24-.5-1,.14-1.42-.58-5.96,1.47-5.54Z"/>
    <path class="st16" d="M692.5,51.66c1.37,1.31,1.25,3.47,2.01,5.05-.12.33-.28.65-.52.92-.85-1.95-1.88-3.83-2.49-5.88-.01-1.07,1.38,3.45.98.73-.06-.39-.11-.63.01-.82Z"/>
    <path class="st91" d="M706.97,73.26c1.48,1.06,4.91,8.82,4.84,10.41-1.95-3.44-3.4-6.9-4.84-10.41Z"/>
    <path class="st117" d="M796.65,128.41c-.18.15-.35.31-.5.5-.79-2.86-2.1-5.44-1.76-8.54.52,2.74,1.63,5.43,2.26,8.05Z"/>
    <path class="st197" d="M799.34,153.61c-1.52-2.9-1.65-5.75-2.04-8.82.77,2.83,2.18,5.41,2.04,8.82Z"/>
    <path class="st184" d="M702.49,115.47c.14.38-.05.53-.5.5-.73-2.47-2.48-4.32-2.38-7.05l2.88,6.56Z"/>
    <path class="st230" d="M691.53,89.59c-.12-.37.07-.52.5-.5,1.02,2.35,2.29,4.41,2.43,7.03l-2.93-6.53Z"/>
    <path class="st158" d="M778.71,124.93l-.5.5c-1.04-2-1.13-4.04-1.49-5.97-.01-.4.09-.84.5-1,.49,2.18,1.18,4.3,1.49,6.47Z"/>
    <path class="st204" d="M692.02,89.09c-.15.18-.32.35-.5.5l-2.39-6.5c1.88,1.79,2.07,4.11,2.89,6Z"/>
    <path class="st147" d="M713.45,119.95c-.19-.42,0-.57.5-.5.6,2.09,1.89,3.36,2.01,5.59-1.71-1.34-1.97-3.34-2.5-5.09Z"/>
    <path class="st91" d="M713.95,119.45c-.18.15-.35.31-.5.5-.76-1.89-2.15-3.36-1.84-5.57.77,1.75,1.84,3.34,2.33,5.07Z"/>
    <path class="st128" d="M730.39,117.96c-.18.15-.35.31-.5.5-.52-1.68-2-2.66-1.87-4.87.89,1.37,1.7,2.86,2.37,4.37Z"/>
    <path class="st140" d="M792.91,175c-1.35-.41.35-2.67,1.06-2.38.58.31.09,2.73-1.06,2.38Z"/>
    <path class="st17" d="M622.77,216.01c0,.36.04.88-.39,1,.11-.39-.29-.92-.66-1,.47-1.03.41-2.4.55-3.48-.22-.44-.04-.59.5-.5v3.98Z"/>
    <path class="st77" d="M701.99,115.97c.15-.18.32-.35.5-.5.59,1.34.76,2.89,1.6,4.51-1.78-.83-1.57-2.64-2.1-4.01Z"/>
    <path class="st131" d="M787.41,150.13c-1.47-1.83-1.43-3.76-1.56-5.84.48,1.91,1.81,3.41,1.56,5.84Z"/>
    <path class="st205" d="M710.44,130.52l-.49.1c-.77-1.18-1.61-2.47-1.38-4.26.94,1.36,1.39,2.73,1.86,4.16Z"/>
    <path class="st197" d="M774.23,89.09c-.18.15-.35.31-.5.5-.47-1.39-1.09-2.48-.86-4.06.68,1.18,1.18,2.32,1.35,3.56Z"/>
    <path class="st147" d="M753.84,145.45c-.49.5-.45,1.48-1.05,1.89.32-1.48-.44-2.74-.42-4.57.78.86.94,1.86,1.47,2.68Z"/>
    <path class="st175" d="M608.34,111.85c.65-.38.88-.07.92.38.03.31-.25.88-.63,1.13-.19.13-.49-.02-.85-.41-.21-.22-.07-.75.56-1.11Z"/>
    <path class="st62" d="M731.38,128.41c.18-.15.35-.31.5-.5.48,1.28,1.53,2.06,1.45,3.56-1.22-.75-1.31-2.07-1.95-3.06Z"/>
    <path class="st2" d="M779.21,128.41c-.15.18-.32.35-.5.5l-.5-3.48c.15-.18.32-.35.5-.5l.5,3.48Z"/>
    <path class="st86" d="M738.29,139.03c-.07.58-.93-.15-.92-.53,0-.44-.16-1.58.22-1.57.43.35.64.47,1.02.47.47,0-.17.52-.31,1.63Z"/>
    <path class="st53" d="M630.28,196.22c-.23.29-.41.62-.55.96-.1-.36-.48-.65-.48-1.08l-.5-.5c.04-.24-.15-.51.16-1.03.64.48,1.08,1.01,1.38,1.65Z"/>
    <path class="st226" d="M630.28,252.35l.07.92-.11,1.06h-.5c-.14-.18-.32-.35-.5-.5l-.07-.97-.03-.44,1.13-.08Z"/>
    <path class="st221" d="M627.83,200.58c-.23.17-.45.35-.66.54-.15-.64-1.3-.95-.79-2.1.57.5,1.17.97,1.45,1.56Z"/>
    <path class="st158" d="M686.04,73.16c.11,1.31.11,2.57.38,3.98-1.33-1.67-.73-3.45-1.36-5,.3.36.62.71.97,1.02Z"/>
    <path class="st158" d="M719.93,78.17c-.31.08-.75-.15-1.03-.02.05-.42-.06-.83.1-1.52.96.24.7,1.02.94,1.54Z"/>
    <path class="st26" d="M788.3,155.4c.33-.34.74-.11.88.13.32.58-.83,1.16-.75,1.19-.41-.16-.39-1.06-.13-1.33Z"/>
    <path class="st150" d="M622.77,211.53c.29.15.29.31,0,.5-.18.15-.35.32-.5.5-.58,0-.54-.71-.5-1.18.02-.28.31-.57.5-.81-.01.4.09.84.5,1Z"/>
    <path class="st146" d="M632.24,221.52l-1.08-.59.11-.7c.07-.44.63.1.76.3.14.23.21.7.22.99Z"/>
    <path class="st97" d="M693.5,250.89l-.98-1.1c.38.23,1.2-.26,1.49.31.21.4-.14.71-.51.79Z"/>
    <path class="st16" d="M682.13,24.39c-1.12-.73-1.35-2.23-1.45-3.48.91.91,1,2.31,1.45,3.48Z"/>
    <path class="st16" d="M688.61,40.81c-1.13-.72-1.28-2.23-1.47-3.48.93.9,1.02,2.31,1.47,3.48Z"/>
    <path class="st76" d="M713.94,253.39c-.46-.17-.86-.49-1.04-.96.16.07.5-.12.73,0,.34.18.27.63.31.95Z"/>
    <path class="st140" d="M706.97,250.4l-1.47-.07c.2-.18.45-.46.75-.46.35,0,.54.36.73.53Z"/>
    <path class="st16" d="M676.49,15.43c-.62-.47-.81-1.26-.97-1.99.77.35,1.01,1.19.97,1.99Z"/>
    <path class="st16" d="M690.11,44.79c-.55,0-.54-.58-.48-1,.37.19.46.61.48,1Z"/>
    <path class="st16" d="M677.98,19.41c-.37-.18-.45-.61-.48-1,.55,0,.54.58.48,1Z"/>
    <path class="st16" d="M680.64,20.41c-.26.02-.43-.12-.47-.31-.05-.27-.01-.49,0-.69.37.18.44.62.47,1Z"/>
    <path class="st16" d="M677.47,17.92c-.61-.48-.79-1.26-.95-1.99.77.35,1.02,1.19.95,1.99Z"/>
    <path class="st16" d="M678.96,21.9c-.61-.48-.8-1.26-.96-1.99.77.34,1.02,1.19.96,1.99Z"/>
    <path class="st205" d="M710.49,132.41c-.15-.36-.6-.62-.51-1.1.54-.06.38.77.51,1.1Z"/>
    <path class="st16" d="M677.65,12.44c-.65-.3-.88-1.07-1.28-1.88-.49-.43-.11-.76.38-.5.34.78.66,1.57.9,2.39Z"/>
    <path class="st16" d="M675.49,12.94c-.75-.8-1.17-1.86-1.48-2.91,1.08.24,1.35,2,1.48,2.91Z"/>
    <path class="st16" d="M680.14,18.91c-.55,0-.53-.58-.48-1,.37.18.45.61.48,1Z"/>
    <path class="st16" d="M679.48,23.39c-.37-.18-.46-.61-.48-1,.55,0,.54.58.48,1Z"/>
    <path class="st16" d="M678.65,14.93c-.79-.34-1.02-1.19-.96-1.99.6.48.79,1.26.96,1.99Z"/>
    <circle class="st131" cx="747.08" cy="124.93" r=".32"/>
    <path class="st16" d="M680.47,25.88c-.61-.48-.81-1.26-.96-1.99.77.35,1.01,1.19.96,1.99Z"/>
    <path class="st16" d="M682.63,25.88c-.56,0-.53-.58-.48-1,.37.19.45.61.48,1Z"/>
    <path class="st16" d="M681.49,28.41c-.73-.35-.73-1.35-1-2.04.81.35.98,1.23,1,2.04Z"/>
    <path class="st16" d="M683.63,28.37c-.78-.34-1.03-1.19-.96-1.99.6.48.79,1.26.96,1.99Z"/>
    <circle class="st117" cx="793.91" cy="119.45" r=".32"/>
    <path class="st16" d="M684.62,30.86c-.78-.34-1.02-1.19-.96-1.99.61.48.8,1.26.96,1.99Z"/>
    <path class="st16" d="M682.99,31.9c-.74-.34-.7-1.36-.99-2.04.8.35.99,1.23.99,2.04Z"/>
    <path class="st16" d="M692.6,51.27c-.55,0-.54-.58-.49-1,.4.14.45.62.49,1Z"/>
    <path class="st16" d="M692.09,49.77c-.77-.35-1.01-1.19-.96-1.99.61.48.81,1.26.96,1.99Z"/>
    <path class="st16" d="M690.47,49.32c-.74-.34-.71-1.35-1-2.04.78.35,1.02,1.23,1,2.04Z"/>
    <path class="st16" d="M691.1,47.28c-.78-.34-1.02-1.19-.95-1.99.6.48.79,1.26.95,1.99Z"/>
    <path class="st16" d="M688.98,45.83c-.75-.34-.72-1.35-1-2.04.8.35.98,1.23,1,2.04Z"/>
    <path class="st16" d="M685.62,33.35c-.78-.34-1.02-1.19-.96-1.99.61.48.77,1.27.96,1.99Z"/>
    <path class="st16" d="M689.6,43.3c-.78-.34-1.01-1.19-.96-1.99.61.48.8,1.26.96,1.99Z"/>
    <path class="st16" d="M687.48,42.35c-.73-.35-.76-1.34-1.01-2.04.81.35.98,1.23,1.01,2.04Z"/>
    <path class="st16" d="M684.99,36.38c-.87-.76-1.11-1.98-1.5-3.03.98.67,1.37,1.89,1.5,3.03Z"/>
    <path class="st16" d="M679.63,17.42c-.78-.34-1.01-1.19-.95-1.99.6.48.79,1.26.95,1.99Z"/>
    <path class="st16" d="M686.44,39.82c-.62-.48-.78-1.27-.96-1.99.77.35,1.01,1.19.96,1.99Z"/>
    <path class="st28" d="M630.8,254.89l-.49.03c-.11-.22-.41-.38-.56-.59h.5l.56.56Z"/>
    <path class="st16" d="M687.11,36.83c-.81-.35-.98-1.23-1-2.04.73.35.73,1.35,1,2.04Z"/>
    <circle class="st112" cx="733.62" cy="106.76" r=".25"/>
    <circle class="st183" cx="774.48" cy="108.75" r=".25"/>
    <path class="st192" d="M629.25,196.1c-.33.06-.55-.17-.5-.5.11.15.5.29.5.5Z"/>
    <path class="st121" d="M870.87,206.02l-14.61-5.65-7.49-24.06c8.69,2.4,14.39,4.88,23,6.94l-.74,7.95-.16,14.82Z"/>
    <path class="st121" d="M836.27,202.95l-18.48-7.48c-.7-2.18-1.45-4.04-1.66-6.29l21.44,8.88c-.11,1.79-.63,2.93-1.3,4.89Z"/>
    <path class="st216" d="M853.8,210.31l-14.84-6.2c.2-1.83.76-3.17,1.51-4.8l11.73,4.6c.62,2.03,1.3,3.45,1.6,6.4Z"/>
    <path class="st216" d="M850.68,198.02c-3.35-.78-5.95-1.97-8.9-3.26l4.54-13.77,4.36,17.04Z"/>
    <path class="st49" d="M754.91,308.59c.08-.22.04-.73.4-.53-.07.21-.25.38-.4.53Z"/>
    <path class="st14" d="M334.84,68.07c3.69,1.36.82-7.67.8-8.55,0-.49,3.2-2.23,3.51,8.52.14,4.76,3.53,11.85,2.29,12.56-1.66.95-3.7-9.92-3.91-10.91-6.33,5.43-18.96-15.25-20.86-19.59-2.23-5.09-3.05-11.13-2.09-16.72.6-3.5,3.08-7.2,5.77-9.38,3.04-2.48,8.23-2.66,11.67-1.31,6.29,2.47,5.83,15.71,1.55,18.76,1.52-4.79,2.17-14.86-3.18-16.72-2.77-.96-6.7-.86-9.14,1.17-2.23,1.86-4.33,4.94-4.77,7.97-.75,5.12-.07,10.71,2.02,15.41,2.26,5.09,10.92,16.82,16.33,18.8Z"/>
    <path class="st19" d="M307.94,137.77l-12.71,16.72c-3.38,4.44-6.24,9.13-7.4,14.66l-4.12,19.63c-.11.54-.7,1.11-1.07,1.31-.49.28-1.15-.85-1.03-1.53,1.2-6.96,2.13-13.83,4.04-20.73,1.49-5.39,4.55-10.03,7.94-14.43,4.25-5.52,8.64-10.64,13.28-15.52.81-1.03,1.85-1.68,1.07-.1Z"/>
    <path class="st173" d="M300.04,37.83c-.18,7.88.98,15.62,3.34,23.42.44,1.44-.55,4.52-1.83,3.77l-3.65-2.15-4.72,3.47c-1.33-1.99.68-2.67,1.59-3.74,1.77-2.07,3.64-2.4,6.34-1.04-2.46-9.25-3.53-18.05-1.68-26.71,1.07-.63.9,1.98.61,2.99Z"/>
    <path class="st154" d="M310.44,19.95c-.73,2.62-1.54,5.21-1.85,8.13-.08.71-.72,1.26-1.33,1.65-.81-.99-.22-2.23-.67-3.4-2.15,5.27-1.93,10.59-1.65,16.01.05,1.01.12,2.07-1.15,2.42-1.47-4.36-1.82-21,4.08-21.93,1.09-.82,1.08-3.01,2.15-3.93.99-.97.94.02.42,1.05Z"/>
    <path class="st43" d="M324.88,29.24c-2.72,1.07-4.24,7.24-5.21,6.05-1.25-1.54,2.19-6.78,3.68-7.79,2.94-1.99,7.06-.68,8.34,2.53.98,2.46.93,5.31.09,8-.94-1.33-.41-2.59-.6-4.16-.34-2.76-3.15-5.87-6.3-4.63Z"/>
    <path class="st116" d="M341.38,48.13c-1.24.03-1.51-2.19-.96-3.33.67.42.42,1.19,1.06,2.03,1.07-1.38,2.53-1.7,4.35-.92,1.67-1.38,3.77-11.82,6.12-8.95-1.09,2.75-3.24,10.64-6.25,11.22-.62.12-1.37-.78-1.81-.92-.66-.21-1.5.85-2.52.87Z"/>
    <path class="st202" d="M376.52,44.67c-1.59,1.26-7.79,7.12-7.98,6.88-1.54-1.98,5.33-7.04,7.11-8.21,2.88-1.9,4.97-4.26,6.44-7.52,2.14,2.55-4.09,7.68-5.57,8.85Z"/>
    <path class="st202" d="M361.79,13.48c-1.05,6.68-5,12.15-9.7,16.43-1.01-1.19-.27-1.96.45-2.74,4.15-4.45,7.48-9.45,8.65-15.23.95-.9.82.56.6,1.53Z"/>
    <path class="st202" d="M331.34,41.9c-1.57-.29-3.43-1.8-4.97-.57s-.79,3.97-2.96,4.99c-.53-2.24.08-5.42,1.98-6.88,1.59-1.22,4.24-.38,5.65.52.74.47,1.08,1.99.3,1.94Z"/>
    <path class="st182" d="M345.86,27.76c-3.06-1.21-5.5-.18-6.19-1.51-1.28-2.49,5.44-1.13,6.44-.99l3.45-4.44c-.3,2.61-1.6,5.42-3.71,6.94Z"/>
    <path class="st37" d="M334.21,44.7c-2.42,5.35.97,8.01-.92,9.35-2.11-3.37-2.42-7.36-.82-11.27.17-.42.88-.19,1.2-.03.55.29.83,1.31.54,1.95Z"/>
    <path class="st103" d="M316.78,16.02c-1.48,4.01-3.11,7.58-2.42,11.87.06.35-.54.86-.75.77-2.12-.88.17-11.07,2.73-13.08.61-.72.91-.43.44.44Z"/>
    <path class="st234" d="M311.85,132.91c-.77,2-2.72,3.28-3.91,4.86.2-.58-.35-.5-.56-.23-.15.19-.39.21-.51.33,1.25-1.99,2.92-3.7,4.51-5.42.68-.79.99-.49.47.46Z"/>
    <path class="st212" d="M310.44,19.95c.09-.32.11-1.22-.42-1.05.65-.56.29-2.52,1.96-2.09-.61,1.24-.85,2.38-1.54,3.15Z"/>
    <path class="st24" d="M300.04,37.83c.02-.97.12-2.35-.61-2.99.1-.48.09-.92.48-1.28.31-.29.91-.34.93,0-.95,1.54.15,3.11-.8,4.26Z"/>
    <path class="st156" d="M313.74,130.44c-.05,1.06-1.58,1.68-1.89,2.47-.08-.22-.25-.39-.47-.46.61-.66.88-1.72,1.88-2.02.12-.3.28-.29.48,0Z"/>
    <path class="st176" d="M316.78,16.02l-.44-.44c.29-.7.61-.92,1.14-.86.4.05.35.36.16.71-.12.23-.75.28-.87.58Z"/>
    <path class="st59" d="M361.79,13.48c-.02-.57,0-1.28-.6-1.53.28-.52.51-.83.85-1.02.66,1.16-.14,1.85-.25,2.56Z"/>
    <path class="st155" d="M288.47,61.72c-.69-.04-1.19-.2-1.49-.5-.08-.53.49-.47,1.07-.55.97-.13,1.4.83.42,1.05Z"/>
    <path class="st38" d="M288.47,61.72c-.42.2-1.2.14-1.55.5-.11-.22-.29-.39-.5-.5.18-.11.33-.47.56-.49.52-.05,1.39-.13,1.49.5Z"/>
    <path class="st54" d="M243.5,140.85c-.78-.57-.19-1.68-.31-2.49.79.53.41,1.68.31,2.49Z"/>
    <path class="st180" d="M268.04,63.71c.34.61-.57,1.09-.5,1.49.01-.4-.09-.84-.5-1,.07-.37.25-.71.5-1,.33-.06.48.12.5.5Z"/>
    <path class="st15" d="M314.37,129.9c-.19.17-.46.36-.63.54h-.48c.04-.44.41-.7.61-1.03l.5.5Z"/>
    <path class="st179" d="M315.37,128.41c-.12.27-.29.25-.5,0-.05-.32.12-.48.3-.5.43-.04,1.25-.08,1.13.3-.3.4-.73.16-.94.19Z"/>
    <path class="st18" d="M268.04,62.21c-.14.43-.31.43-.5,0-.08-.29.16-.37.24-.49.2-.29.6-.71.75-.24.18.53-.27.71-.5.73Z"/>
    <path class="st211" d="M268.04,63.71c-.18-.15-.35-.31-.5-.5v-1h.5c.16.44-.23,1.09,0,1.49Z"/>
    <path class="st103" d="M315.37,128.41c-.2.58-.53,1.09-1,1.49l-.5-.5c.25-.42.47-.87,1-1,.16-.04.34.02.5,0Z"/>
    <circle class="st67" cx="869.64" cy="141.85" r=".32"/>
    <path class="st82" d="M394.07,51.55c-.89.16-1.46.71-2.18.44.47-1.13,1.35-.92,2.18-.44Z"/>
    <path class="st3" d="M138.98,141.38l8.52-.24c.66-.02,1.23.37,1.37.73-.15.1-.2.42-.35.49-.34.08-.71.44-1.05.45-8.65-.01-17.31.59-25.91,1.49-.31.32-.67.32-1,.03-2.13.7-5.72.91-8.2.88-.09,0-.18-.17-.27-.38l-.5.5c-.75.48-1.68.33-2.49.07-.49.04-1-.04-1.49-.07-.91.3-3.07.67-2.49-.5,11.22-1.68,22.53-3.14,33.85-3.45Z"/>
    <path class="st142" d="M105.12,144.84c.47.85,1.66.44,2.49.5,1.58.44-7.91,1-7.47,1l-1.49-.5v-.54c2.15.13,4.35-.14,6.48-.45Z"/>
    <path class="st198" d="M142.61,59.71c.5-.54.88-.31.84.25-.03.37.02.52-.69.54-.3,0-.84-.06-.15-.79Z"/>
    <path class="st214" d="M357.12,186.89c-.15,1.85-.67,3.53-2.3,3.91-.5-.29-.62-1.41-.55-2.17l1.91-20.31c.78-.23,2.46.16,2.39.92l-1.45,17.65Z"/>
    <path class="st148" d="M695.48,258.42c-3.64,8.15-10.9,13.79-19.3,16.41-1.28.42-12.86,3.49-11.98,1.71.07-.14.23-.63.58-.71,3.94-.92,7.66-1.67,11.51-2.87,8.13-2.53,14.53-7.83,18.65-15,.71-.66,1-.41.55.45Z"/>
    <path class="st153" d="M711.98,293.16c-.2,3.1-.36,6.22-.48,9.35l-.55.11c.37-1.75-.43-3.51-.39-5.43.16-8.59.17-16.9.94-25.47.39-.92,1-1.26,1.03-.09l-.55,21.54Z"/>
    <path class="st169" d="M635.7,260.33c1.39,1.34,2.88,2.95,4.55,3.96-3.36.39-4.14-1.46-6.49-5.03.58.39,1.43.57,1.94,1.06Z"/>
    <path class="st132" d="M711.95,303.61c-.19,1.04-.35,2.04-.5,2.99-.6-.77-.93-2.9-.5-3.98,1.33-3.38-.38-8.57,1.03-9.46l-.03,10.45Z"/>
    <path class="st44" d="M697.5,254.33c-.36,1.48-.84,3.08-2.03,4.09l-.55-.45c.91-1.58,1.69-2.79,2.07-4.13.44-.23.59-.04.5.5Z"/>
    <path class="st138" d="M700.64,303.98c-.62.06-.9-.61-.88-1.06.02-.67.54-1.01,1.22-1.6.33.76-.1,1.59-.34,2.66Z"/>
    <path class="st153" d="M711.95,307.09c.43.72.36,1.5-.5,1,0-.49-.05-1,0-1.49.1-.99-.44-2.35.5-2.99v3.48Z"/>
    <path class="st189" d="M712.45,309.08l-.5,1c-.75-.32-.5-1.32-.5-1.99.46-.1.5-.6.5-1,.76.33.5,1.32.5,1.99Z"/>
    <path class="st21" d="M711.95,311.07c.14-.43.31-.43.5,0,.55.58.77,1.44.29,2.53-.48-.81-.79-1.64-.79-2.53Z"/>
    <path class="st120" d="M705.99,286.74c-.53,0-.64-.55-.52-.78.09-.17.58-.27.52-1.04.58-.46.5.33.49.58-.02.43.18,1.24-.49,1.24Z"/>
    <path class="st22" d="M697.5,254.33c-.15-.18-.32-.35-.5-.5.47-.49.37-.9.71-1.53.58.61.36,1.56-.22,2.03Z"/>
    <path class="st225" d="M712.45,311.07h-.5v-1c0-.4.04-.89.5-1v1.99Z"/>
    <path class="st38" d="M629.25,253.84l-.5-.41c.23-.02.57-.32.43-.56.23.1.4.23.48.36.22.34-.04.71-.42.61Z"/>
    <path class="st216" d="M243.13,70.18c-.56.33-.73,0-.5-1,1.87-3.17,3.03-6.54,3.27-10.12-1.23-.53-2.01.5-3.36.57.57-3.05,2.25-5.32,3.52-8.23,3.04-.05,5.68.18,9.05.58-2.07,2.74-2.64,6.76-5.1,9.15-2.76,2.67-5.64,5.24-6.88,9.04Z"/>
    <path class="st216" d="M244.87,48.04c-.6.57-2.31.39-3.28.08l8.52-18.42c.34-.74,2.62.03,3.09.64l-8.33,17.7Z"/>
    <path class="st102" d="M243.35,51.26c-1.9,4.17-1.8,6.72-6.64,8.09.67-3.08,2.11-5.45,3.46-8.12.47-.93,2.28-.42,3.17.03Z"/>
    <path class="st99" d="M233.16,93.59c2.16-6.08,5.09-11.63,8.47-16.93-2.54,5.92-5.32,11.43-8.47,16.93Z"/>
    <path class="st36" d="M243.13,70.18c-.63,1.94-1.57,3.16-2.88,4.58-.16-2.36,1.19-1.06,2.38-5.58-.01.4.09.84.5,1Z"/>
    <path class="st121" d="M188.86,63.46c-2.85.22-8.18,5.85-8.21,7.07-.36-2.34-.47-4.32-1.11-6.01-.23-.62-2.35-.67-1.97-1.96l15.86-52.54h7.95s-12.52,53.43-12.52,53.43Z"/>
    <path class="st129" d="M182.92,98.59c-.06-.53-.16-1.1-.61-1.45l2.89-10.39c1.52,1.22.19,2.46-.11,3.61l-2.17,8.22Z"/>
    <path class="st109" d="M177.35,83.65c-.08-.36-.26-.69-.53-.94.54-1.05.84-2.15,1.24-3.64,1.09,1.74-.19,3.15-.71,4.58Z"/>
    <path class="st165" d="M723.2,310.31c0,.88-.19,1.2-.31,1.44s-1.38.52-1.41.16c-.63-7.18.42-14.31,2.29-21.27.42-.47.55-.73.75-.6.39.25.54.71.45,1.19-1.14,6.32-1.83,12.43-1.76,19.09Z"/>
    <path class="st127" d="M120.57,144.34c.44.14.43.31,0,.5-2.13.86-4.48.31-6.95.55-1.58.15-3.33,1.12-4.51.03.83-.06,1.66-.09,2.49-.07l.5-.5c-.22.03,8.47-.5,8.47-.5Z"/>
    <path class="st30" d="M96.65,145.83l1,.5c-.63.93-2,.41-2.99.5-.44-.14-.43-.31,0-.5.6-.5,1.21-.5,1.99-.5Z"/>
    <path class="st165" d="M98.65,145.83c.53,0,1.29-.16,1.49.5h-2.49c-.39,0-.9-.01-1-.5h1.99Z"/>
    <path class="st159" d="M94.66,146.33v.5c-.4.04-.86.12-1.52-.16.23-.77,1.18-.05,1.52-.34Z"/>
    <path class="st7" d="M121.56,144.31c-.1.53-.65.39-1,.53v-.5c.32.03.68,0,1-.03Z"/>
    <path class="st151" d="M145.91,145.37c-.59.14-.51-.61.07-.54.02.18,0,.36-.07.54Z"/>
    <path class="st196" d="M503.09,124.84c-.79-.98.5-2.27-.63-3.36-1.38,1.09-1.01,2.65-.96,4.4-2.47-1.25-4.75-.89-7.29.65.21-2.99.88-5.67,2.4-7.88-.11-.68,10.14-1.23,8.92-.99,4.47-.85,8.33.77,9.57,5.37.49,1.81,2.01,3.51,1.11,5.86-1.69-2.46-4.11-3.46-6.97-3.61-1.96-.1-3.56-.97-6.15-.45Z"/>
    <path class="st90" d="M495.73,117.96c-.72.55-.93.29-.5-.5-.08-.44.37-.64.75-.51.24.08.32.47.26.72-.04.18-.22.34-.51.28Z"/>
    <path class="st34" d="M495.73,117.96c-.06.38-.39.65-.5,1-.15.32-.31.31-.5,0,.23-.48-.42-1.53.5-1.49-.07.33.17.56.5.5Z"/>
    <path class="st172" d="M495.23,118.95c-.19.6-.58,1.05-1,1.49-.26-.61.28-1.04.5-1.49h.5Z"/>
    <path class="st77" d="M95.36,177.61c-.36-.81-.34-1.54,0-2.43.42.68.57,1.45,0,2.43Z"/>
    <path class="st199" d="M534.09,63.21c-.15.18-.32.35-.5.5-.78-.12-1.66-.32-2.49-1-.44-.14-.43-.31,0-.5,1.01.25,1.94.83,2.99,1Z"/>
    <path class="st223" d="M531.1,62.21v.5c-.61.35-1.24-.37-1.99-.5v-.5l1.99.5Z"/>
    <path class="st154" d="M551.1,147.36c.17-.29.32-.37.45-.4-.21.27-.32.34-.45.4Z"/>
    <path class="st113" d="M50.06,150.7c-.29.39-.68.38-.84.33-.13-.04-.32-.23-.26-.47.05-.22.43-.46.95-.51.81-.17.8.09.15.64Z"/>
    <path class="st176" d="M82.72,182.15c-.31.02-.61.59-1.01.51-.15.31-.31.3-.5,0,.11-.55.59-.8,1-1.07.14.21.31.4.51.55Z"/>
    <path class="st72" d="M81.71,182.66c-.14.15-.12.47-.27.52-.17.05-.63.02-.71-.27-.08-.28.44-.12.49-.25h.5Z"/>
    <path class="st137" d="M245.69,173.74c.07-.11.18-.24.45-.42-.03.14-.11.25-.45.42Z"/>
    <path class="st106" d="M165.8,142.33c-.12-.07-.23-.15-.43-.41.11.06.25.16.43.41Z"/>
    <path class="st5" d="M626.26,213.52c.06,1.39-.49,2.28-.5,3.48-.68-3.08-.53-6.25-1-9.37-.09-.58-.59-.69-1.11-.58.24-.6-.04-1.43.1-2.06,3.6-1,2.44,6.82,2.51,8.53Z"/>
    <path class="st160" d="M622.77,212.03v-.5c0-.16-.02-.33,0-.5.24-.07.43.08.5.27.16.41-.17.66-.5.73Z"/>
    <path class="st126" d="M314.37,129.9l-.5-.5.5.5Z"/>
    <path class="st174" d="M111.6,145.33c.05-.23.25-.47.5-.5-.05.2-.26.5-.5.5Z"/>
  </g>
</svg>