<?xml version="1.0" encoding="UTF-8"?>
<svg id="Ebene_10" data-name="Ebene 10" xmlns="http://www.w3.org/2000/svg" viewBox="0 0 930 162.5">
  <defs>
    <style>
      .cls-1 {
        fill: #213c40;
      }

      .cls-2 {
        fill: #010101;
      }

      .cls-3 {
        fill: #23575f;
      }

      .cls-4 {
        fill: #071011;
      }

      .cls-5 {
        fill: #020506;
      }

      .cls-6 {
        fill: #223d41;
      }

      .cls-7 {
        fill: #73c4d2;
      }

      .cls-8 {
        fill: #153338;
      }

      .cls-9 {
        fill: #091517;
      }

      .cls-10 {
        fill: #5dabb8;
      }

      .cls-11 {
        fill: #143035;
      }

      .cls-12 {
        fill: #68868b;
      }

      .cls-13 {
        fill: #56a4b1;
      }

      .cls-14 {
        fill: #4694a0;
      }

      .cls-15 {
        fill: #5796a0;
      }

      .cls-16 {
        fill: #76c8d6;
      }

      .cls-17 {
        fill: #000101;
      }

      .cls-18 {
        fill: #000001;
      }

      .cls-19 {
        fill: #5eaebc;
      }

      .cls-20 {
        fill: #071012;
      }

      .cls-21 {
        fill: #33808c;
      }

      .cls-22 {
        fill: #afe5ee;
      }

      .cls-23 {
        fill: #071112;
      }

      .cls-24 {
        fill: #3a8793;
      }

      .cls-25 {
        fill: #4b6165;
      }

      .cls-26 {
        fill: #75c7d5;
      }

      .cls-27 {
        fill: #6bb6c2;
      }

      .cls-28 {
        fill: #22545c;
      }

      .cls-29 {
        fill: #fff;
      }

      .cls-30 {
        fill: #060d0e;
      }

      .cls-31 {
        fill: #0e2224;
      }

      .cls-32 {
        fill: #153439;
      }

      .cls-33 {
        fill: #34808c;
      }

      .cls-34 {
        fill: #0c1d1f;
      }

      .cls-35 {
        fill: #41727a;
      }

      .cls-36 {
        fill: #2b6d77;
      }

      .cls-37 {
        fill: #34808a;
      }

      .cls-38 {
        fill: #112a2e;
      }

      .cls-39 {
        fill: #35818c;
      }

      .cls-40 {
        fill: #0b191b;
      }

      .cls-41 {
        fill: #317f88;
      }

      .cls-42 {
        fill: #62b1be;
      }

      .cls-43 {
        fill: #75c8d6;
      }

      .cls-44 {
        fill: #33808b;
      }

      .cls-45 {
        fill: #1c444a;
      }

      .cls-46 {
        fill: #143136;
      }

      .cls-47 {
        fill: #1e4c53;
      }

      .cls-48 {
        fill: #10272a;
      }

      .cls-49 {
        fill: #31555b;
      }

      .cls-50 {
        fill: #264246;
      }

      .cls-51 {
        fill: #2f7780;
      }

      .cls-52 {
        fill: #317d86;
      }

      .cls-53 {
        fill: #266069;
      }

      .cls-54 {
        fill: #66b6c3;
      }

      .cls-55 {
        fill: #070e0f;
      }

      .cls-56 {
        fill: #65b6c4;
      }

      .cls-57 {
        fill: #010202;
      }

      .cls-58 {
        fill: #192c2f;
      }

      .cls-59 {
        fill: #0f2327;
      }

      .cls-60 {
        fill: #0c1416;
      }

      .cls-61 {
        fill: #7da0a6;
      }

      .cls-62 {
        fill: #509fac;
      }

      .cls-63 {
        fill: #62b3c0;
      }
    </style>
  </defs>
  <g>
    <path class="cls-44" d="M-.23,162.35c0-53.75,0-107.51-.02-161.26C-.25.15-.04-.06.9-.06c46.17.03,94.34.02,140.52.02.53.65.38,1.43.38,2.16.09,11.45-.22,22.9-.21,34.34.02,14.9-.24,29.81-.35,44.71-.08,11.06-.43,22.13-.75,33.19-.27,9.2-.26,18.4-.12,27.6.09,6.15.53,12.3.43,18.47-.01.69.17,1.43-.44,2-.46.07-.92.03-1.37.03-45.25,0-92.49,0-137.74,0-.49,0-1,.12-1.48-.11Z"/>
    <path class="cls-44" d="M637.17-.03h20.52c.46.49.51,1.11.61,1.73.67,4.31,1.08,8.65,1.51,12.98.04.4.05.8.32,1.17.25-2.31.29-4.61.09-6.92-.21-2.52-.47-5.04-.82-7.55-.07-.5-.07-1,.3-1.41h64.32c.46.54.35,1.17.31,1.79-.22,3.36-.27,6.73-.44,10.09-.27,5.52-.36,11.05-.68,16.57-.12,2.12-.21,4.24-.25,6.36-.12,5.24-.39,10.47-.6,15.7-.22,5.19-.26,10.39-.69,15.57-.06.68-.17,1.31-.66,1.84-.29.31-.46.7-.53,1.12-.46,2.49-.96,4.99-1.3,7.5-.03.19-.08.4.18.67.4-1.14.51-2.29.87-3.38.14-.42.17-1.13.66-1.07.58.07.48.79.48,1.26-.03,3.41-.19,6.81-.4,10.22-.16,2.45-.2,4.91-.26,7.35-.14,5.61-.41,11.22-.62,16.83-.2,5.27-.29,10.55-.65,15.82-.16,2.36-.15,4.74-.23,7.11-.1,2.83-.24,5.65-.32,8.48-.18,6.23-.35,12.46-.71,18.69-.05.87,0,1.75-.04,2.62-.02.49.04,1.02-.45,1.36-7.75.05-15.5.01-23.25.02-.63-.27-.47-.82-.4-1.29.72-4.35,1.15-8.74,1.51-13.14.2-2.43-.11-4.84-.59-7.19-.97-4.79-1.47-9.58-1.46-14.49,0-5.1-.44-10.21-.78-15.31-.37-5.51.16-10.97,1-16.41.97-6.25,1.59-12.54,1.96-18.85.34-5.7,1.13-11.34,2.76-16.84.5-1.71,1.07-3.4,2.15-4.85-1.53,2.13-2.24,4.61-2.93,7.08-1.5,5.39-2.37,10.88-2.83,16.46-.52,6.31-1.43,12.57-2.56,18.79-1.25,6.89-1.28,13.8-.75,20.75.28,3.68.59,7.38.56,11.08-.03,3.4.26,6.75,1.16,10.01,1.42,5.19,1.48,10.43.82,15.71-.3,2.35-.58,4.71-.95,7.05-.09.57-.11,1.19-.8,1.43-11.11,0-22.22,0-33.32,0-.8-.35-.31-.93-.17-1.37.75-2.38,1.55-4.74,2.35-7.11.46-1.36.62-2.71.5-4.16-.25-3.03.34-6.05.22-9.09-.07-1.79-.09-3.57-.34-5.35-.16-1.09-.64-1.73-1.72-2-.6-.15-1.21-.32-1.72-.72-.5-.32.17-.81-.21-1.21-.66-.68-1.37-.6-1.83.31-1.13.12-2.09-.46-3.09-.81-2.36-.83-4.42-2.28-6.7-3.28-.54-.24-.91-.65-.8-1.26.44-2.43.99-4.83,1.62-7.22,2.78-.38,5.56-.17,8.34-.07,3.45.13,6.9.33,10.35.41.21,0,.42,0,.62-.05.24-.06.55-.09.56-.39.01-.28-.25-.42-.48-.52-1.05-.48-2.2-.43-3.31-.53-6.93-.64-13.89-.7-20.84-.5-3.37.1-6.73.28-10.1-.03-1.28-.12-2.53-.49-4.12-.58.6.6,1.15.67,1.66.83,1.1.36,2.32.27,3.37.82.1.19-.07.4.11.62.45.57.13.98-.44,1.1-2.18.46-4.35,1.3-6.64.58-4.1-1.29-8.37-1.92-12.48-3.17-2.47-.75-4.93-1.58-6.94-3.32-.48-.41-1.08-.61-1.67-.82-6.15-2.25-12.07-5.03-18.16-7.42-.27-.11-.54-.22-.76-.42-.24-.31-.14-.64-.03-.95.76-2.15.79-4.3.08-6.48-.33-1.01-.06-1.25.94-.93.87.28,1.71.66,2.54,1.05,7.75,3.62,15.1,7.96,22.56,12.11,1.86,1.03,3.73,2.03,5.59,3.06.53.29,1.33.77,1.67.15.33-.61-.6-.85-1.06-1.12-9.15-5.31-18.02-11.1-27.55-15.74-6.71-3.27-13.73-5.62-21.15-6.57-6.27-.81-12.54-.71-18.8.27-5.16.81-9.6,3.22-13.72,6.29-2.91,2.16-5.82,4.33-7.94,7.36.98-.5,1.64-1.37,2.46-2.05,3.39-2.8,7.14-5.05,10.95-7.2.33-.18.66-.35,1.03-.45.29-.08.59-.12.82.11.25.25.15.54.01.81-1.05,2.07-1.61,4.27-1.87,6.56-.03.29-.09.58-.23.84-.04.07-.09.16-.16.19-2.94,1.03-3.16,3.86-4.13,6.19-.2.49,0,.86.38,1.21,2.29,2.07,4.09,4.58,6.16,6.86.28.31.77.74.15,1.23-1.05-.08-1.59-.99-2.49-1.42.07,1.06.68,1.8,1.52,2.36,1.01.67,2.11,1.16,3.26,1.55,3.69,1.23,7.49,1.96,11.33,2.44,3.59.45,7.19.76,10.81.86,6.24.18,12.26-.85,18.17-2.78,2.53-.83,5.11-1.5,7.68-2.2,1.17-.32,2.33-.67,3.22-1.56.93-.56,1.96-.92,2.94-1.38,1.41-.65,3.7.83,3.79,2.38.04.69-.43,1.04-.92,1.38-1.57,1.11-3.36,1.85-5.06,2.72-3.54,1.8-7.19,3.25-11.04,4.29-4.05,1.09-8.18,1.55-12.33,1.94-.17.02-.33-.03-.49-.08-1.15-.57-2.43-.54-3.66-.69-3.8-.46-7.6-.97-11.39-1.57-.19-.03-.4-.1-.71.04,3.44.63,6.8,1.07,10.17,1.5.92.12,2.03-.2,2.71.8-.43.45-1,.36-1.53.36-5.92.07-11.82-.22-17.7-.99-1.37-.18-2.7-.49-4.02-.91-.59-.19-1.18-.43-1.92-.2.52,1.22,1.47,1.96,2.56,2.58,2.33,1.33,4.97,1.95,7.38,3.05,2.51,1.15,4.96,1.22,7.64.63,5.29-1.16,10.59-2.3,15.94-3.21,2.89-.49,5.75-.56,8.55.27,4.34,1.29,8.61.97,12.96.05,3.02-.63,6.05-1.19,9.07-1.83,1.76-.37,3.52-.47,5.32-.06,3,.7,6.07,1.12,9.07,1.84.52.12,1.14.17,1.28.82.13.62-.36.99-.77,1.33-2.3,1.93-4.53,3.93-6.82,5.87-1.12.95-2.41,1.23-3.83,1.25-3.87.07-7.75.13-11.61.33-3.7.19-7.42-.08-11.1.48.59.04,1.23.15,1.47.77.24.61-.31.98-.66,1.37-.42.47-.92.84-1.41,1.23-.57.46-1.02.92-.76,1.79.23.77-.44,1.11-1.01,1.11-1.72,0-2.84,1.06-4,2.06-.55.48-1.14.84-1.9.82-6.09-.21-12.02,1.04-17.98,2.02-3.04.5-6.09.97-9.16,1.33-1.23.14-1.23.2-.62,1.24.15.25.34.48.44.75.78,2,2.11,3.42,4.12,4.26.85.35,1.45,1.11,2.02,1.84.26.33.61.77-.07,1.09-14,0-28,0-42,0-.82-.21-.59-.9-.63-1.43-.19-2.37.24-4.73.25-7.1.06-13.4.43-26.8.56-40.2.07-7.03.03-14.07.2-21.1.39-16.02.18-32.05.47-48.07.02-1.22.45-2.15,1.34-2.96,7.64-6.99,16.27-12.43,25.76-16.54.35-.15,1.02-.21.83-.71-.24-.66-.91-.45-1.41-.26-3.24,1.23-6.38,2.7-9.37,4.43-5.61,3.25-10.86,6.99-15.41,11.65-.09.09-.17.18-.27.26-.32.25-.65.67-1.08.42-.34-.2-.25-.67-.23-1.04,0-.12.05-.25.04-.37-.34-3.18.68-5.96,2.44-8.55.09-.14.16-.29.22-.45.19-.45.62-1.03.08-1.35-.64-.38-.74.42-1.01.77-.37.47-.55,1.41-1.22,1.21-.67-.2-.38-1.07-.32-1.67.31-3.32,0-6.66.2-9.98.03-.47-.13-1.03.47-1.31,2.61.03,4.38,1.66,6.11,3.28.85.8,1.57.93,2.67.48,4.76-1.94,9.64-3.46,14.81-3.89.81-.07,1.48.06,2.06.63.87.85,1.87,1.35,3.14,1.25.82-.07,1.57.24,2.22.72.59.44,1.18.51,1.88.28,4.04-1.39,8.23-2.12,12.41-2.88,2.1-.38,4.07-.24,5.64,1.46,1.04,1.13,2.25,1.26,3.75.94,4.93-1.04,9.93-1.76,14.95-2.23,3.01-.28,5.91.14,8.54,1.75.69.42,1.4.45,2.16.37,3.77-.42,7.54-.76,11.34-.67,1.25.03,2.49.23,3.73.38.75.09,1.48.35,2.03.89.96.93,2.13,1.12,3.36.94,2.21-.32,4.4-.23,6.6.03,3.02.35,6.07.43,9.03,1.22,1.45.39,2.9.73,3.98,1.92-2.3-7.38-4.23-14.83-6.17-22.26-.23-.89-.81-1.78-.29-2.76Z"/>
    <path class="cls-43" d="M334.86-.03h171.18c.37.41.37.91.37,1.41-.14,9.26-.18,18.52-.43,27.77-.01.54-.03,1.08-.23,1.59-.79.28-2.87.03-3.42-.43-.57-.48-1.17-.94-1.73-1.43-.57-.49-1.02-.52-1.28.32-1.68,5.54-1.82,11.1.38,16.48.56,1.38.99,2.76,1.38,4.17.52,1.9,1.56,3.28,3.52,3.86.28.08.55.2.75.43.05.13.06.27.02.41-4.39,6.98-6.59,14.9-9.66,22.44-.77,1.89-.87,3.96-1.1,5.99-.5,4.47-1.21,8.91-2.52,13.23-1.25,4.12-2.16,8.28-2.22,12.61-.03,2-.54,3.96-1.06,5.89-.43,1.59-.56,3.21-.44,4.83.25,3.4.4,6.81.9,10.19.33,2.26.3,4.59.04,6.85-.31,2.72-.11,5.41.18,8.09.62,5.82-.07,11.45-2.03,16.95-.12.34-.19.74-.64.84-29.51,0-59.03,0-88.53,0-1.22-.04-.55-.67-.24-.98,1.22-1.2,2.29-2.53,3.46-3.77,5.21-5.49,10.48-10.94,15.04-17.01,1.3-1.73,2.49-3.54,3.4-5.52.69-1.49.95-2.9-.53-4.17-.55-.48-1-1.11-1.49-1.68-.66-.77-.79-1.46,0-2.28.88-.92.75-1.27-.48-1.53-1.14-.25-2.28-.5-3.44-.66-.13-.02-.26-.05-.38-.09-.5-.08-.99-.17-1.49-.19-1.67-.09-3.25,0-4.2,1.75-.45.83-1.19,1.4-2.23,1.38-3.63-.07-7.08,1.03-10.59,1.7-3.47.67-6.88,1.64-10.43,1.97-3.47.32-6.68,1.73-10,2.71-4.44,1.31-8.83,2.84-13.47,3.27-3.36.31-6.71.68-10,1.47-.99.18-1.97.15-2.96-.02-.46-.08-.9-.09-1.3.23-.34.28,0,.35.14.49.39.66.54,1.4.73,2.12.23.87.75,1.35,1.65,1.43,1.86.17,3.72.36,5.6.41,2.95.08,5.9-.03,8.86.19,2.18.16,4.39-.24,6.58-.54,4.61-.64,9.2-1.52,13.83-2,1.82-.19,3.64-.42,5.47-.38,2.12.05,4.14-.34,6.09-1.13,1.04-.42,2.14-.69,3.2-1.04.8-.26,1.28-.04,1.55.75.24.71.49,1.42.53,2.17-.03.85-.65,1.3-1.23,1.77-2.26,1.83-4.57,3.57-7,5.17-.63.42-1.21.86-1.39,1.76.73.1,1.34-.14,1.94-.39.37-.15.7-.49,1.15-.25.19.63-.26,1.03-.61,1.41-3.05,3.35-5.73,7.01-8.61,10.51-.43.52-.82,1.07-1.61,1-16.7,0-33.4,0-50.1,0-.46,0-.92.05-1.37-.05-.48-.46-.41-1.07-.41-1.64-.07-8.23.28-16.45.35-24.68.02-2.36.14-4.73.13-7.1-.02-7.65.4-15.28.29-22.93-.02-1.48-.01-2.99.38-4.45.35-.64,1.02-.67,1.62-.76,6.45-.89,12.67-2.61,18.76-4.88.43-.16.85-.36,1.32-.19.43.34.4.83.28,1.26-1.54,5.42,1.43,8.82,5.37,11.67,2.3,1.67,4.96,2.72,7.65,3.63.24.08.48.15.73.14.36-.02.82.06.93-.42.09-.39-.27-.58-.55-.75-.61-.37-1.26-.63-1.91-.92-2.33-1.04-4.58-2.2-6.62-3.74-1.31-1-2.34-2.25-3.18-3.65-.73-1.21-.6-2.49.28-3.6.05-.07.13-.12.16-.19,1.65-3.4,4.85-2.69,7.7-2.87.64-.04.98.37,1.03,1.01.03.33.02.67.04,1,.3,5.02,4.82,8.52,9.76,7.47,2.69-.57,5.19-1.58,6.9-3.91.92-1.25.81-1.49-.73-1.77-.94-.17-1.87-.4-2.83-.48-.21-.02-.41-.08-.61-.14-1.36-.4-2.11-1.24-2.08-2.32.03-1.06.83-1.9,2.18-2.24,1.15-.29,2.33-.23,3.48-.13,1.64.14,3.34.12,4.86.94.08,1.06.7,1.41,1.72,1.64,1.9.43,3.59,1.4,5.11,2.63.34.61.01,1.14-.26,1.64-2.23,4.05-5.21,7.29-9.63,9-.77.3-1.59.53-2.29.99-.36.24-.67.64-.52,1.05.18.47.66.17.99.11,6.1-1.23,10.37-4.68,12.76-10.43.21-.52.22-1.18.89-1.42,2.83.74,5.55,1.77,8.07,3.24,3.38,1.97,6.72,4.02,9.88,6.33.8.58,1.59.79,2.57.62,1.52-.27,3.05-.38,4.58-.59.95-.13,1.11-.45.41-1.13-5.31-6.55-11.57-11.92-19.17-15.7-4.69-2.33-9.5-4.26-14.62-5.4-3.35-.74-6.73-1.26-10.15-1.32-7.46-.13-14.92-.33-22.31,1.15-5.21,1.04-10.29,2.49-15.24,4.4-1.98.77-3.96,1.55-5.95,2.29-1.05.39-1.42.14-1.46-.95-.13-4.33.21-8.64.35-12.96,1.24-2.31,2.71-4.48,4-6.76.27-.48.71-.81,1.16-1.11,4.03-2.72,8.32-4.86,12.98-6.32,4.01-1.25,7.92-2.85,11.99-3.94,5.68-1.52,11.46-2.56,17.3-3.24,6.56.73,12.98,2.04,18.99,4.92,1.73.83,3.06,2.14,4.39,3.45,3.02,2.99,5.08,6.65,7.06,10.36,1.46,2.75,3.09,5.41,4.67,8.09.22.38.38.84.85,1.02.41-.7.78-.57,1.18.02.95,1.39,1.52,2.96,2.17,4.49,1.18,2.8,2.33,5.61,3.43,8.43,1.22,3.13,2.82,6.02,4.76,8.74,1.63,2.29,2.77,4.8,3.57,7.51,1.02,3.47,2.27,6.87,3.39,10.31.26.81.9,1.4,1.16,2.2-.22,5.11-.59,10.21-.78,15.31-.18,4.69-.25,9.4.2,14.09.06.59.17,1.41.75,1.44.74.04.56-.85.69-1.37.09-.36.04-.75.05-1.12.07-8.03.43-16.03,1.18-24.03.47-5.05.68-10.12,1.1-15.17.42-5.14.66-10.28,1.12-15.42.47-5.19-.01-10.38-.73-15.55-.96-6.9-2.55-13.65-4.55-20.32-.16-.52-.32-1.03-.34-1.58.33-3.51.12-7.05.48-10.57.13-1.28.11-2.58-.36-3.82-.25-.65-.16-1.18.27-1.74,3.27-4.22,5.37-9.18,8.53-13.48.81-1.1.74-2.13-.13-3.15-.06-.2-.08-.42.06-.58.49-.57.56-1.12.04-1.72-.17-.2-.12-.46.13-.63,1.21-.68,2.52-1.09,3.83-1.51.81-.26,1.02-.72.42-1.36-1.47-1.59-2.78-3.32-4.28-4.88-.43-.45-.95-.74-1.57-.52-3.82,1.37-7.86,1.38-11.8,1.97-1.78.27-3.53.65-5.25,1.14-1.19.34-2.14.11-2.83-.94-.63-.96-1.47-1.09-2.51-.74-.87.3-1.75.55-2.6.89-.82.32-1.57.27-2.13-.47-.71-.92-1.61-1.01-2.56-.56-1.56.74-2.63.3-3.62-1.06-1-1.38-2.24-2.57-3.33-3.88-.5-.59-1.01-.68-1.85-.55-1.87.29-3.71-.05-5.32-1.17-.34-.24-.61-.57-.88-.88q-1.61-1.83-2.74.29c-.24.46-.53.9-1.08.95-1.36.13-2.69.47-4.08.07-6.52-1.89-13.14-3.46-19.59-5.58-3.03-.99-6.19-1.29-9.34-1.63-5.63-.6-11.29-.87-16.93-1.19-2.16-.12-4.32-.36-6.49-.31-.17,0-.33,0-.5,0-2.14-.06-2.38-.28-2.67-2.38.16-1.82-.27-3.68.44-5.46Z"/>
    <path class="cls-44" d="M770.56-.03h93.85c.76,1.37.43,2.87.34,4.28-.29,4.45-.08,8.9-.22,13.35-.36,11.68-.32,23.38-.61,35.06-.11,4.37-.01,8.74-.13,13.1-.34,12.98-.39,25.96-.57,38.94-.16,11.32-.28,22.64-.48,33.95-.12,7.36-.04,14.73-.33,22.09-.02.62.03,1.27-.57,1.7-.5.06-1,.03-1.5.03-40.4,0-80.8,0-121.2,0-.94-.21-.46-.84-.3-1.26.88-2.35,1.26-4.83,1.86-7.25,1.35-5.47.66-10.75-1.39-15.9-.68-1.71-.91-3.26.43-4.77.47-.52.63-1.26.86-1.93,1.84-5.31,4.6-10.14,7.48-14.94,5.43-9.04,10.57-18.22,14.72-27.94,1.82-4.25,3.69-8.48,5.26-12.83,2.24-6.2,3.83-12.58,5.17-19.03.96-4.6,2-9.21,2.34-13.9.23-3.14.72-6.3.19-9.46-.06-.33-.06-.66-.05-1,.18-5.56-.67-11.03-1.35-16.52-.53-4.22-1.08-8.42-2.58-12.43-.42-1.11-1.14-2.12-1.23-3.35Z"/>
    <path class="cls-44" d="M160.68-.03h42.54c.38.44.23.94.18,1.43-.4,3.97-.68,7.95-.85,11.94-.34,7.81-.55,15.63-.45,23.45.14,11.41.93,22.77,2.75,34.04,2.49,15.41,5.29,30.77,9.07,45.92,1.7,6.83,3.36,13.71,6.29,20.12,3.63,7.95,6.44,16.26,10.56,23.99.25.48.81,1.06.04,1.61-24.32,0-48.64,0-72.95,0-.37,0-.75.03-1.12-.04-.74-.92-.47-2-.37-3,.15-1.46.18-2.91.18-4.36-.02-4.91.22-9.82.31-14.72.12-6.15.3-12.31.48-18.46.2-6.99.33-13.97.51-20.96.16-6.36.33-12.72.49-19.08.18-6.9.32-13.81.5-20.71.18-6.9.32-13.81.5-20.71.17-6.65.32-13.31.5-19.96.17-6.32.38-12.64.47-18.97,0-.54,0-1.09.39-1.53Z"/>
    <path class="cls-44" d="M883.93-.03h46.8c.23.43.12.9.12,1.35,0,53.2,0,106.41,0,159.61,0,1.73.17,1.54-1.53,1.54-15.35,0-28.69,0-44.04,0-.46,0-.92.07-1.37-.07-.35-.36-.36-.83-.38-1.28-.02-.46-.01-.92-.01-1.37,0-51.62,0-103.24,0-154.86,0-1.25.12-2.49.06-3.74-.02-.42.05-.83.35-1.16Z"/>
    <path class="cls-16" d="M267.29-.03h46.3c.23.26.34.57.35.9.04,2.63.1,5.26-.09,7.89-.01.21-.1.4-.21.57-1.2.92-2.68,1.07-4.08,1.41-1.61.39-3.26.71-4.91.88-1.74.18-2.89,1.18-3.84,2.47-.45.61-.85,1.26-1.48,1.66-1.97,1.27-2.95,3.45-4.68,4.94-.63.54-1.24,1.12-1.9,1.61-3.7,2.72-4.88,6.89-6.43,10.85-.26.67-.14,1.14.67,1.25.21.03.5.08.54.26.28,1.07,1.3.85,1.99,1.18.28.57-.16.95-.4,1.35-1.62,2.7-2.8,5.55-3.44,8.66-.67,3.23-2.39,6.02-4.09,8.79-3.68,6-7.67,11.8-11.36,17.79-.36.59-.82,1.13-.89,1.95.67-.04.9-.51,1.17-.89,1.13-1.6,2.14-3.28,3.2-4.92,3.48-5.34,7.26-10.47,10.61-15.9,1.78-2.88,3.32-5.84,4.07-9.2.62-2.77,1.83-5.35,3.25-7.82.35-.61.71-1.24,1.46-1.47,3.71.11,6.74-1.92,9.97-3.26,2.96-1.23,5.89-2.51,8.86-3.72.48-.19,1.02-.7,1.58-.09.14.31.16.64.17.97.14,5.55-.15,11.09-.28,16.64,0,.17-.05.33-.09.49-.2.57-.72.77-1.18,1.05-2.01,1.19-4.14,2.16-6.11,3.41-.95.6-1.68,1.33-2.01,2.44-.3,1.03-1.04,1.8-1.71,2.58-4.93,5.73-8.36,12.3-10.84,19.4-.97,2.79-2.31,5.43-3.39,8.18-1.09,2.79-2.24,5.55-2.6,8.56-.13,1.05-.12,2.05.25,3.07.62,1.69-.21,3.17-.94,4.59-.33.63-1.11.48-1.72.28-3.21-1.06-6.54-1.65-9.77-2.64-.2-.06-.4-.11-.6-.16-1.9-.47-2.23-.29-2.82,1.53-.69,2.14-1.36,4.28-1.91,6.46-.31,1.22-.18,1.52,1.01,1.78,3.74.82,7.46,1.77,11.3,2.07,1.17.09,1.48.51,1.18,1.64-.29,1.08-.59,2.17-.96,3.23-.82,2.32-1.18,4.76-1.87,7.11-.29.98-.21,1.8.93,2.23.93.35.64,1.05.31,1.65-1.05,1.87-1.63,3.91-2.19,5.96-.31,1.12-.21,1.22.96,1.16.08,0,.17-.02.25-.02,2.64.04,4.6-1.02,5.92-3.37.89-1.59,2.1-3,2.93-4.64.34-.66.56-1.3.15-2.01-.32-.55-.11-1.05.21-1.51,1.07-1.58,2.37-3.01,2.89-4.92.13-.49.67-.72,1.12-.95,2.14-1.12,4.23-2.34,6.25-3.66.46-.3.94-.53,1.49-.62,3.99-.65,8-1.15,12-1.71.53-.07,1.1-.15,1.45.44.22.56.17,1.15.17,1.73,0,4.07-.09,8.14-.11,12.21-.04,6.89-.18,13.79-.13,20.68.05,6.4-.08,12.8.06,19.2,0,.29,0,.59-.26.79-9.78.07-19.56.01-29.34.03-3.08,0-6.16,0-9.24,0-.69,0-.76-.57-.88-1.03-1.56-6.14-3.75-12.07-5.97-17.99-.8-2.13-1.6-4.28-2.61-6.34-1.33-3.24-2.23-6.62-3.25-9.96-2.29-7.52-4.49-15.07-5.95-22.81-.66-3.48-1.26-6.96-1.53-10.49-.18-2.38.21-4.76.61-7.12,1.27-7.51,3.12-14.9,4.4-22.41,1.2-7.01,1.86-14.1,2.65-21.16.82-7.35,1.57-14.71,2.43-22.06.48-4.13,1.04-8.25,1.37-12.39.04-.46.14-.9.3-1.34.56-2.05.6-4.17.92-6.26.06-.41.08-.83.37-1.16Z"/>
    <path d="M313.07,45.43c.09-6.15.41-12.3.24-18.46-.41-.39-.88-.38-1.4-.27-3.42.73-6.88,1.44-10.12,2.74-2.69,1.08-5.21,2.6-7.61,4.25-.38.26-.73.55-1.16.71-2.08,2.2-3.29,4.94-3.92,7.76-1.67,7.45-6.28,13.24-10.34,19.36-2.67,4.02-5.33,8.04-8,12.06-.16.24-.33.48-.48.72-.32.53-.93.81-1.35.52-.42-.28.03-.82.26-1.19,2.87-4.87,6.03-9.56,9.08-14.32,2.21-3.44,4.48-6.85,6.17-10.6.62-1.37.91-2.82,1.24-4.28.7-3.08,2.22-5.82,3.86-8.49.68-2.12,2.37-3.34,4.15-4.39,1.61-.95,3.35-1.67,4.96-2.63.47-.28.96-.54,1.3-.96,1.16-1.43,2.76-2.06,4.46-2.57,2.36-.71,4.76-1.23,7.18-1.64,1.07-.18,1.47-.65,1.44-1.74-.09-3.41.11-6.81.11-10.22,0-.78-.03-1.58.24-2.34.4-.82.17-1.69.19-2.53.05-2.32.02-4.64.02-6.95h6.01c.63.34.59.95.6,1.53.04,1.66-.03,3.32.1,4.98.23-1.69.2-3.4.43-5.09.07-.49,0-1.01.37-1.41h13.76c-.09,1.63.13,3.28-.23,4.9-.04.17.12.38.18.57-.34,1.17.19,2.29.17,3.45-.05,3.08-.02,6.16-.01,9.24,0,1.54.05,1.63,1.63,1.63,4.67,0,9.33,0,14,.11,4.93.12,9.81.61,14.56,2.04,1.01.3,1.98.67,2.81,1.32.82.64,1.27,1.43.81,2.5-.52.56-1,.56-1.43-.11-.28-.77-1.03-.82-1.64-.96-3.12-.72-6.26-1.32-9.48-1.36-.84-.01-1.63-.36-2.48-.22-5.62,0-11.24.07-16.86-.23-2.1-.11-2.11,0-2.13,2.15-.04,4.24.1,8.48-.09,12.72-.28,3.11-.23,6.23-.2,9.35.06,6.32-.42,12.64-.26,18.97.01.41-.03.83.06,1.38.64-.33,1.14-.76,1.63-1.16,5.4-4.43,11.68-6.98,18.33-8.81,4.48-1.24,9.01-2.1,13.67-2.11,3.22,0,6.4.52,9.55,1.12,3.03.58,6.06,1.17,9.09,1.75,4.98.95,9.81,2.34,14.21,4.96.18.11.37.27.57.23,1.51-.27,2.39.8,3.33,1.63,3.6,3.15,6.31,6.96,8.27,11.31,1.21,2.7,2.47,5.37,3.68,8.07.55,1.22.79,2.42.35,3.71-.72.09-.56-.57-.78-.9-2.97-4.55-5.31-9.48-8.21-14.06-2.17-3.43-4.72-6.66-8.48-8.46-4.19-2-8.66-3.22-13.25-3.99-1.76-.3-3.52-.54-5.28-.81-4.25-.12-8.34-1.41-12.62-1.43-5.17-.02-10.09,1.11-14.95,2.65-3.86,1.22-7.56,2.87-11.04,4.96-2.72,1.63-5.08,3.77-7.65,5.62-.57.41-.71.99-.71,1.64,0,1.75-.01,3.5,0,5.24,0,.8-.05,1.58-.32,2.33v13.84c2.55-.95,5.22-2,7.93-2.96,4.71-1.66,9.49-3.02,14.42-3.95,6.42-1.2,12.88-1.24,19.36-1.23,8.06.01,15.76,1.58,23.14,4.79,5.81,2.53,11.28,5.57,16.02,9.86,2.19,1.98,4.2,4.14,6.35,6.14.59.55.89,1.3,1.32,1.95-1.26.94-2.69.78-4.02-.45-2.68-2.5-5.41-4.93-8.37-7.11-3.54-2.6-7.41-4.62-11.4-6.43-1.19-.54-1.45-.33-1.42.99.03.96.05,1.91,0,2.87-.03.65-.03,1.34-.6,1.83-1.13,3.25-2.93,6.07-5.47,8.39-2.72,2.48-6.15,3.25-9.66,4.05.01-1.63.83-2.26,2.09-2.65,4.93-1.53,8.24-4.93,10.65-9.35.24-.43.49-.87.47-1.39-.15-.59.09-1.15.19-1.72.21-1.24.11-1.36-1.13-1.44-1.99-.12-3.94-.53-5.87-1.04-2.2-.79-4.51-.7-6.79-.8-.25-.01-.5,0-.75.02-1.66.13-2.68.9-2.71,2.05-.03,1.11.81,1.83,2.5,2.13,1.27.22,2.54.48,3.82.61.93.1,1.09.31.61,1.18-1.62,2.98-4.38,4.26-7.44,4.97-5.54,1.28-10.32-2.46-10.49-8.15-.03-1.05-.33-1.42-1.34-1.24-.37.06-.76.1-1.12.02-2.87-.58-4.7.88-6.1,3.11-.58.92-.65,1.93-.08,2.93,1.64,2.83,4.19,4.61,7.02,6.05,1.48.76,3.03,1.4,4.54,2.12.6.29,1.4.88,1.2,1.35-.24.58-1.27.75-1.9.53-4.91-1.69-9.61-3.69-12.73-8.22-1.63-2.37-1.71-4.85-1.16-7.49.08-.4.13-.82.19-1.22-.16-1.6.8-2.91,1.19-4.37-.38-.32-.74-.09-1.08-.03-6.93,1.28-13.55,3.63-20.18,5.95-.84.29-1.17.79-1.16,1.66,0,.77.21,1.59-.3,2.29-.39,5.68-.09,11.38-.34,17.06-.26,5.77,0,11.55-.33,17.32-.13,2.19-.06,4.4-.09,6.6-.09,6.65-.18,13.3-.27,19.94-.13.12-.28.15-.46.15-5.08-.03-10.17.06-15.25-.04-.69-.84-.5-1.85-.38-2.75.35-2.57.29-5.15.37-7.72.17-5.73.47-11.46.62-17.2.2-7.73.53-15.45.76-23.18.14-4.9.32-9.8.47-14.71.18-5.9.37-11.8.53-17.7.15-5.4.33-10.8.48-16.21.18-5.98.34-11.97.51-17.95.16-5.53.3-11.06.51-16.58.13-3.41.01-6.82.34-10.22.17-.95.31-1.9.26-2.69.07.2-.05.58-.03.96-.89,3.77-1.72,7.55-2.67,11.3-.42,1.66-.64,3.35-.67,5.06-.06,3.49-.15,6.99-.19,10.48-.07,5.95-.28,11.89-.36,17.84-.11,8.4-.33,16.8-.53,25.2-.08,3.66-.09,7.32-.19,10.98-.3,10.85-.3,21.71-.57,32.56-.22,9.2-.03,18.39-.21,27.58-.02,1.04-.08,2.07-.03,3.12.03.62-.08,1.25-.51,1.76-.69.17-1.38.23-2.06-.04-.45-1.72-.21-3.47-.22-5.2-.05-7.56-.04-15.13.03-22.69.03-3,.06-6.01.13-9.02.13-5.92.02-11.84.01-17.76-.63-1.32-.63-1.31-2.11-.96-3.18.74-6.4,1.14-9.67,1.08-.8-.01-1.59-.1-2.35-.28-.57-.14-1.41-.11-1.32-.98.08-.83.84-.95,1.53-.97,1.42-.04,2.83-.1,4.24-.24,2.89-.29,5.63-1.14,8.34-2.13.7-.25.99-.69.98-1.4-.08-5.03.22-10.07-.18-15.1-.05-.67-.06-1.33-.06-2,0-10.28,0-20.56,0-30.83,0-2.41.32-4.82.27-7.23,0-.43.14-.81.35-1.18Z"/>
    <path d="M770.56-.03c1.84,3.3,2.87,6.87,3.44,10.56.67,4.33,1.19,8.69,1.73,13.04.15,1.19.18,2.4.27,3.6.75,10.58-.48,20.94-2.74,31.29-3.81,17.45-11,33.49-19.57,49.02-3.1,5.61-6.64,10.96-9.6,16.65-1.11,2.14-2.02,4.37-2.91,6.62-.49,1.25-.88,2.53-1.82,3.63-.63.74-.38,1.89-.02,2.87.92,2.49,1.7,5.01,2.15,7.63.56,3.23.04,6.38-.56,9.53-.51,2.69-1.08,5.37-2.18,7.9-.24.24-.55.16-.83.16-6.45,0-12.89,0-19.34,0-.28,0-.59.09-.83-.16.18-5.93.29-11.87.56-17.8.19-4.21.29-8.43.47-12.64.21-4.88.35-9.77.54-14.65.15-4.02.3-8.04.47-12.06.29-6.89.54-13.79.78-20.69.13-3.84.43-7.68.45-11.87-.88,2.04-.77,4.08-1.91,5.85-.69-1.24-.3-2.33-.11-3.4.39-2.23.37-4.68,1.35-6.61,1.29-2.55,1.03-5.09,1.14-7.68.29-6.69.5-13.38.81-20.06.28-6.11.54-12.23.74-18.35.24-7.47.63-14.93.95-22.39.83,0,1.67,0,2.5,0,.43.49.38,1.09.36,1.66-.16,4.98-.4,9.97-.62,14.95-.12,2.73.11,5.5-.49,8.21-.12.32-.14.65-.14.98-.01,4.6-.41,9.19-.55,13.79-.11,3.51-.27,7.03-.5,10.54-.22,3.3-.12,6.62-.67,9.9-.11.65-.02,1.33-.24,1.96-.03.36,0,.71,0,.84.06.4.31.2.15.26-.07.02-.1,0-.11-.05-.07-.36-.04-.72,0-1.09.19-.51.11-1.06.21-1.58q.02-.85.47-.84c.53,1.16.37,2.4.23,3.56-.36,2.99-.29,5.99-.37,8.97-.17,6.24-.42,12.47-.63,18.71-.25,7.31-.52,14.63-.74,21.94-.17,5.65-.32,11.31-.51,16.96-.12,3.69-.14,7.39-.22,10.75,1.8-3.31,2.11-7.27,2.27-11.27.24-6.27.62-12.54.94-18.81.2-4.03.38-8.06.59-12.09.21-4.15.31-8.31.67-12.45.17-2.03.15-4.07.24-6.11.19-4.32.4-8.64.61-12.96.29-6.1.59-12.21.89-18.32.22-4.48.4-8.97.6-13.46.2-4.44.32-8.89.66-13.33.16-2.07.2-4.16.26-6.23.13-4.57.59-9.13.56-13.71,0-.64.07-1.25.62-1.69h12.51c.5.61.39,1.34.32,2.03-.34,3.84-.27,7.7-.4,11.55-.1,2.82-.3,5.63-.32,8.45-.18,5.07-.23,10.15-.56,15.43,1.11-1.34,1.92-2.66,2.8-3.92,5.25-7.56,10.22-15.31,15.42-22.9.31-.45.63-.88.97-1.3.51-.63,1.18-.72,1.92-.62.62.08.86.43.71,1.05-.14.58-.44,1.08-.75,1.57-3.87,6.23-8.02,12.27-12.32,18.21-2.64,3.64-5.23,7.32-8.08,10.81-.38.47-.6.99-.69,1.58-.11.74-.2,1.49-.2,2.24-.02,2.54-.08,5.07-.2,7.61-.14,2.73.36,5.48.19,8.23-.24,3.9-.25,7.81-.67,11.7-.18,1.69-.25,3.41-.27,5.1-.09,6.2-.43,12.39-.6,18.58-.1,3.82-.06,7.65-.41,11.47-.02,5.51-.31,11.02-.53,16.52-.11,1.78.24,3.62-.46,5.23,1.96-7.38,6.23-13.81,9.86-20.55,4.57-7.83,8.55-15.95,12.1-24.3,2.61-6.14,4.79-12.39,6.51-18.82,1.09-3.71,1.68-7.53,2.58-11.28,2.21-9.31,2.59-18.73,2.05-28.24-.27-4.81-.76-9.6-1.06-14.41-.2-3.18-.95-6.24-1.96-9.25-.19-.57-.57-1.14-.18-1.78h1.25Z"/>
    <path class="cls-16" d="M207.98-.03h4.25c.27.3.36.66.32,1.05-.35,3.35-.3,6.73-.63,10.08-.16,1.66-.2,3.32-.25,4.98-.09,2.58-.45,5.14-.32,7.73.13,2.46-.29,4.9-.26,7.35.09,7.23.37,14.46.95,21.67.39,4.89.91,9.77,1.53,14.64.1.77.36,1.34,1.1,1.67.79.35,1.2.99,1.36,1.83,1.37,7.29,4.12,14.14,6.82,20.98,4.07,10.3,8.41,20.49,12.53,30.76.46,1.16,1,2.29,1.41,3.47.13.36.29.7.57.96.31.29.66.57,1.1.5.55-.09.51-.62.55-1,.29-3.03.16-6.05-.18-9.09-.35-3.09-.82-6.18-.83-9.3.08-.14-.08-.02.04-.11,2.33-1.84,1.64-4.42,1.6-6.79-.03-1.48-.3-2.97-.58-4.45-.88-4.72-3.59-8.36-6.84-11.67-3.59-3.65-5.79-8.01-6.65-13.03-.38-2.23-.21-4.47.49-6.66,1.26-3.93,3.1-7.64,4.4-11.55.97-2.93,1.76-5.9,2.22-8.96.04-.29.08-.58.27-.82.48-.17.58.23.76.51.42,1.36.45,2.78.67,4.18.47,2.97,1.16,5.87,2.43,8.6.46,2.01,1.19,3.92,2.18,5.74.29,2.1-.12,4.24.39,6.33.14.57.22,1.15.47,1.68.21.45.47.87,1.16.82-.4-1.47-1.16-2.84-.56-4.36.76-.12.83.55,1.05.97,1.1,2.14,1.9,4.39,2.36,6.77.4,2.07.98,4.1,1.86,6.03.44.7.36,1.49.38,2.26.01.6-.06,1.21.31,1.87.4-.49.27-1.02.42-1.46.44-1.23.87-1.51,1.71-.77,1.21,1.07,2.64,1.7,4.01,2.46.18.1.33.25.43.44.32,1.17-.17,2.3-.16,3.46,0,.75-.16,1.49.69,1.96.4.22.37.72.38,1.13.16,11.59,3.02,22.7,6.05,33.78.27.98.83,1.93.55,3.02-.78.61-.89-.22-1.08-.58-1.1-2.03-1.74-4.22-2.18-6.48-.18-.94-.37-1.88-.54-2.82-.16-.93-.68-1.43-1.6-1.68-3.06-.84-3.53-.6-4.03,2.58-.37,2.38-.62,4.78-1,7.16-.05.33-.1.67,0,.99,1.04,3.52.11,7.19.89,10.75.76,3.49,1.31,7.03,1.79,10.58.37,2.72.61,5.45.9,8.18.17,1.61-.36,3-1.51,4.16-5.47,0-10.94,0-16.41,0-.48.03-.8-.22-1-.62-.68-1.38-1.53-2.68-1.96-4.17-.28-1.89-1.06-3.64-1.49-5.49-.19-.83-.95-.21-1.35-.53-.62-.6-.89-1.42-1.16-2.18-2.17-5.99-5.23-11.59-7.45-17.56-1.77-4.76-3.23-9.61-4.55-14.51-3.42-12.65-6.02-25.48-8.43-38.35-.08-.45-.17-.9-.15-1.36-.33-4.05-.56-8.11-1.81-12.02-.36-1.11-.36-2.32-.38-3.45-.05-2.99-.28-5.98-.39-8.97-.23-6.64-.43-13.28-.68-19.92-.15-4.24-.04-8.48-.04-12.72,0-4.03-.19-8.07.29-12.08.36-3.02,1.32-5.9,2.85-8.56Z"/>
    <path d="M883.93-.03c-.01,54.11-.02,108.22-.03,162.34-.19.22-.46.16-.7.16-5.32-.01-10.64.03-15.95-.02-.52-.39-.49-.96-.41-1.48.42-2.77.29-5.57.37-8.34.22-7.23.41-14.46.63-21.69.24-7.73.25-15.46.65-23.18.19-3.65.16-7.32.22-10.97.09-5.86.23-11.73.37-17.59.23-9.6.25-19.21.67-28.8.02-.37.03-.75.03-1.12-.15-6.86.23-13.72.33-20.58.06-3.94-.01-7.9.3-11.84.1-.54.37-1.06.24-1.91,0,.1-.08.24-.06.28.16.26.05.55.04.84-.89,3.55-2.14,7-3.11,10.53-.55,1.97-.47,4.05-.46,6.08.05,9.74-.2,19.48-.38,29.21-.12,6.95-.07,13.9-.23,20.85-.51,22.18-.43,44.36-.39,66.54,0,3.95.33,7.9.24,11.86,0,.44.15.92-.19,1.32-1.39-.02-2.78.22-4.15-.13.07-1.42.19-2.84.2-4.26.04-4.9-.11-9.8.1-14.69.23-5.34,0-10.68.21-16.02.26-6.89.05-13.78.29-20.66.21-5.94-.02-11.89.24-17.83.25-5.83-.01-11.66.25-17.48.24-5.22-.02-10.43.24-15.64.31-6.12.09-12.25.32-18.37.21-5.29-.09-10.61.21-15.9.27-4.73-.1-9.46.32-14.18.22-2.42.06-4.87.07-7.31,6.51,0,13.01,0,19.52,0Z"/>
    <path d="M160.68-.03c-.1,5.78-.17,11.55-.29,17.33-.14,6.65-.27,13.29-.5,19.94-.23,6.94-.33,13.88-.52,20.82-.2,7.23-.34,14.46-.52,21.69-.16,6.28-.3,12.56-.48,18.83-.19,6.74-.32,13.47-.5,20.21-.17,6.45-.33,12.89-.51,19.34-.17,6.07-.35,12.14-.46,18.21-.04,2-.16,3.99-.24,5.98-.2.21-.46.16-.7.16-4.94,0-9.88,0-14.82,0-.24,0-.5.06-.7-.17,0-3.62.19-7.25-.06-10.85-.73-10.75-.53-21.5-.42-32.26.11-11.53.39-23.05.76-34.57.21-6.52.05-13.04.23-19.56.32-11.57.03-23.15.27-34.73.21-10.12.14-20.25.17-30.37h4.75c.43.48.39,1.08.39,1.66-.01,10.78-.22,21.56-.43,32.34-.02,1.08-.07,2.16-.06,3.25.09,10.7-.21,21.4-.35,32.09-.09,6.66.06,13.32-.22,19.98-.25,5.99.05,12-.23,17.98-.32,6.82.04,13.65-.35,20.47-.05.92-.35,1.81-.33,2.74,0-1.11.17-2.23.44-3.28.8-3.07.74-6.18.83-9.3.2-7.4.29-14.81.47-22.22.18-7.78.32-15.56.51-23.34.18-7.28.27-14.56.49-21.84.28-9.19.23-18.39.69-27.58,0-.17.02-.33.01-.5-.14-6.58.42-13.14.26-19.72-.02-.95-.07-1.93.63-2.73,3.92,0,7.84,0,11.76,0Z"/>
    <path d="M505.24,54.41c.03-.07.03-.13,0-.2-.32-.43-.33-.93-.33-1.43.01-2.29-.06-4.57.05-6.86.03-.63.04-1.25-.24-1.83-.15-.31-.25-.67-.09-.97.83-1.53.47-3.18.51-4.78.05-1.91,0-3.83.02-5.74,0-.57-.1-1.18.37-1.65.41-4.89.18-9.79.28-14.68.11-5.43.31-10.86.22-16.3h4c.3,1.86.18,3.73.1,5.59-.25,6.4-.36,12.8-.54,19.21-.17,5.94-.27,11.89-.48,17.83-.29,8.06-.3,16.13-.65,24.19-.16,3.65-.25,7.32-.28,10.97-.05,7.53-.28,15.06-.38,22.58-.13,10.19-.47,20.38-.38,30.57.01,1.58-.33,3.12-.28,4.7-.13.58-.3,1.16-.27,1.58-.02-.41.15-.99.28-1.57-.09-1.25.21-2.47.41-3.69.31-1.89.61-3.79,1.07-5.64,1.02-4.13.82-8.36.97-12.55.22-6.19.47-12.38.61-18.58.11-5.07.3-10.14.48-15.21.28-7.9.53-15.79.75-23.69.16-5.53.32-11.06.5-16.59.27-8.57.48-17.13.78-25.7.15-4.2.01-8.41.44-12.6.05-.5.02-1.01.38-1.41h10.01c.36.4.37.91.38,1.4.13,5.09-.36,10.18-.3,15.27,0,.52.04,1.09-.38,1.52-.31,2.52-.16,5.05-.2,7.57-.03,1.73,0,3.45,0,5.1.42-.31.59-.98.98-1.5.28-.38.25-1.31,1.09-.88.7.35.95.88.44,1.7-.78,1.27-1.35,2.66-2.14,3.92-.51.83-.66,1.66-.64,2.59.03,1.36,0,2.71,0,4.11,1.57-1.39,2.98-2.97,4.61-4.32,5.99-4.95,12.44-9.13,19.69-12.02.61-.24,1.22-.5,1.84-.75.19-.08.39-.16.59-.19.7-.09,1.16.44,1.37.9.25.57-.49.61-.85.76-9.69,4.06-18.45,9.57-26.2,16.66-.9.82-1.3,1.66-1.31,2.9-.06,14.01-.16,28.03-.29,42.04-.13,13.67-.3,27.35-.49,41.02-.13,9.43-.27,18.86-.51,28.29-.05,2.08-.16,4.15-.2,6.23-.32.29-.72.15-1.08.15-6.17,0-12.33.01-18.49,0-.56-.21-.52-.72-.53-1.16-.15-6.59-1.28-13.07-2.25-19.57-.69-4.61-1.57-9.18-2.12-13.81-1.09-9.12-.97-18.19,1.26-27.14,1.67-6.7,2.9-13.5,4.82-20.14.3-1.04.54-2.11.95-3.1,1.01-2.45,1.16-4.99,1.08-7.59-.16-4.66.24-9.31.24-13.97,0-.55.12-1.07.32-1.58Z"/>
    <path class="cls-16" d="M523.26,18.17c-.21-.51,0-1.02.01-1.53.11-5.56.2-11.12.29-16.67,37.87,0,75.74,0,113.62,0,1.22,4.7,2.4,9.4,3.68,14.08,1.02,3.72,2.18,7.41,3.27,11.11.06.21.25.44,0,.76-2.67-3.03-6.46-2.99-9.98-3.38-2.58-.29-5.19-.78-7.82-.6-1.24.09-2.49.18-3.73.26-.42.03-.85.03-1.16-.32-1.63-1.82-3.88-1.78-6-1.89-3.95-.2-7.89.15-11.82.65-.92.12-1.69-.02-2.56-.56-2.57-1.57-5.48-1.85-8.44-1.57-5.46.53-10.86,1.44-16.24,2.49-.46.09-.78.05-1.12-.26-.53-.47-1.18-.82-1.64-1.34-1.41-1.6-3.19-1.4-4.97-1.09-4.42.77-8.84,1.56-13.08,3.09-.43.16-.77.12-1.12-.23-.81-.82-1.83-1.1-2.97-1-.67.06-1.35.09-1.82-.53-1.26-1.66-3.02-1.45-4.72-1.15-4.55.81-9.01,2-13.24,3.89-.83.37-1.43.36-2.12-.32-1.01-.98-2.14-1.84-3.22-2.75-.6-.51-1.33-.65-2.1-.67-.41,0-.86.05-.99-.51Z"/>
    <path class="cls-44" d="M740.1,106.66c.24-7.8.4-15.61.73-23.4.3-7.17.84-14.33,1.17-21.5.11-2.4.04-4.82-.06-7.23-.19-4.35.06-8.71.31-13.06.06-1.04.97-1.62,1.54-2.36,6.73-8.78,13.13-17.8,19.07-27.13.33-.53.67-1.06.93-1.62.19-.41.73-1.06.22-1.27-.58-.24-1.42-.41-1.99.44-1.44,2.16-2.98,4.27-4.43,6.42-2.45,3.62-4.87,7.27-7.31,10.9-2.51,3.74-5.03,7.47-7.54,11.2-.06.09-.18.15-.47.4.18-5.55.36-10.91.54-16.27.88-1.21,1.72-2.45,2.34-3.82.12-.27.25-.54.46-.74,2.3-2.22,4.33-4.71,6.73-6.83,1.28-1.13,2.36-2.46,3.53-3.68,2.04-2.13,4.17-4.18,6.25-6.27.36-.36.77-.63,1.19-.88h6.01c.76,2.54,1.75,5.03,2.1,7.68.24,1.83.49,3.67.65,5.51.35,4.28.78,8.56.93,12.86.16,4.56.2,9.12-.05,13.69-.44,8.19-2.57,16.06-4.34,24.01-.11.51-.14,1.06-.51,1.49-.45-.43-.26-.94-.14-1.41.89-3.63.9-7.42,2-11.01.28-.91-.04-1.25-.97-1.38-1.93-.28-2.13-.22-2.71,1.6-2.6,8.21-5.42,16.34-8.72,24.29-2.09,5.04-4.65,9.85-7.4,14.56-2.16,3.7-4.17,7.49-6.6,11.02-.73,1.06-1.52,2.08-2.34,3.08-.29.35-.56.75-1.1.71Z"/>
    <path class="cls-44" d="M252.74,86.17c-1.39-.67-2.93-1.06-4.01-2.34-.7-.83-1.26-.66-1.68.33-.63-1.16-.34-2.45-.35-3.64-.04-5.12-.5-10.21-.83-15.31-.04-.65-.04-1.33-.59-1.92-.52.53-.35,1.12-.3,1.66.39,4.68.56,9.38.9,14.06.06.88.27,1.84-.35,2.65-1.13-1.91-1.57-4.06-2.01-6.19-.57-2.77-1.49-5.38-2.98-7.79-.51-.5-.38-1.16-.4-1.77-.1-3.91.07-7.81.24-11.71.02-.41.03-.83-.05-1.24-.05-.28-.06-.64-.46-.62-.38.03-.4.39-.43.67-.11,1.08.05,2.17-.12,3.24-.09.59,0,1.48-.68,1.6-.81.15-1.12-.72-1.42-1.34-.38-.79-.59-1.64-.77-2.5-.66-3.27-.94-6.57-1.12-9.9-.2-3.74-.36-7.48-.18-11.22.24-5.23.05-10.47.55-15.69.15-.69.42-1.36.46-2.08,1.05-4.7,2.06-9.4,2.9-14.14.07-.37.17-.73.43-1.02h27.78c-.15,2.52-.32,5.04-1.01,7.5-.63-.92-.35-1.93-.24-2.9.12-1.08.18-2.15.05-3.23-.13,3.03-.58,6.02-1.01,9.01-1.56,10.91-3.17,21.81-4.68,32.73-.06.45-.13.91-.28,1.34-.2.46-.3.93-.22,1.43,0,.18-.05.35-.14.51-.27.47-.15,1.01-.26,1.51-.02.12-.05.24-.09.36-.15,1.38-.52,2.72-.59,4.11-.74,4.71-1.71,9.38-2.7,14.05-.29,1.38-.49,2.81-1.84,3.68-.35.23-.4.63-.39,1.01.13,3.78-.46,7.55-.26,11.33.06.95-.14,1.87-.28,2.8-.06.41-.16.81-.63.97Z"/>
    <path class="cls-44" d="M238.24,108.11c.41,3.87.89,7.74,1.2,11.63.21,2.61.22,5.23-.16,7.84-.1.66-.34.87-1,.57-.9-.41-1.5-.94-1.9-1.95-2.9-7.28-5.92-14.52-8.86-21.79-3.32-8.23-6.89-16.37-9.56-24.85-.9-2.85-1.97-5.64-2.27-8.64-.09-.88-.64-1.32-1.39-1.56-.74-.24-1-.72-1.08-1.47-.37-3.45-.83-6.89-1.2-10.33-.24-2.22-.41-4.45-.53-6.68-.25-4.34-.43-8.69-.59-13.04-.1-2.86-.24-5.73-.12-8.58.19-4.43.19-8.87.48-13.3.29-4.46.6-8.92.74-13.39.03-.87.16-1.73.25-2.59,2.67,0,5.34,0,8.01,0,.6.65.9,1.37.55,2.25-.8.18-1.09-.62-1.74-.94,4.87,6.59,7.32,14.15,9.89,21.67,1.58,4.63,2.28,9.38,2.34,14.21.07,5.49-.95,10.83-2.9,15.98-1.19,3.15-2.54,6.24-3.83,9.36-2.68,6.51-1.53,12.72,1.44,18.78,1.22,2.49,3.02,4.58,4.99,6.51,4.63,4.53,6.75,10.09,6.83,16.48.02,1.3.19,2.56.4,3.83Z"/>
    <path class="cls-22" d="M731.02-.03c-.45,2.34-.32,4.72-.44,7.07-.6,11.87-1.07,23.75-1.62,35.62-.54,11.66-1.12,23.32-1.69,34.98-.57,11.57-1.15,23.15-1.72,34.72-.27,5.56-.63,11.11-.77,16.67-.12,4.56-.79,8.94-2.95,13-.49-.5-.03-1.13-.03-1.7.07-5.51.17-11.03.32-16.54.23-8.16.48-16.32.77-24.48.44-12.38.92-24.76,1.37-37.13.03-.91,0-1.83-.02-2.74-.48-.87-.21-1.81-.12-2.69.27-2.56.22-5.14.34-7.7.29-6.22.57-12.44.84-18.65.08-1.91-.07-3.82.2-5.72.26-5.84.52-11.68.76-17.52.1-2.4.35-4.79.25-7.2h4.5Z"/>
    <path d="M238.24,108.11c-.84-.76-.67-1.82-.69-2.76-.07-3.22-.45-6.37-1.52-9.42-1.09-3.1-3.02-5.64-5.32-7.89-4.41-4.32-7.03-9.51-7.82-15.62-.45-3.48.04-6.82,1.4-10.05,1.66-3.95,3.45-7.86,4.7-11.96,2.68-8.83,2.63-17.68-.11-26.49-1.7-5.47-3.59-10.86-6.14-16.01-.9-1.83-1.96-3.57-3.15-5.22-.39-.53-.76-1.07-.89-1.84,1.05.1,1.32,1.06,2.01,1.43.56.11.77.6,1.06.99,3.49,4.79,5.73,10.22,7.86,15.69,1.18,3.02,2.47,6.01,2.89,9.27.05.37.22.74.12.93-.69-4.3.03-8.78.08-13.26.05-4.85.54-9.7,1.28-14.51.08-.49.14-.99.5-1.39h3.25c.4.48.25,1.02.17,1.55-.71,4.49-.94,9.04-1.55,13.54-.12.63-.24,1.27-.36,1.9-.1,1.99-.26,3.98-.27,5.97-.04,5.86-.48,11.72-.23,17.58.21,4.79.26,9.6,1.46,14.29.29,1.12.63,2.22,1.62,3.07.54-1.55.36-3.07.42-4.56.02-.62-.36-1.55.82-1.58,1.2-.03.86.89.86,1.52-.05,4.82-.36,9.63-.17,14.45.1,1.4-.29,2.92,1.05,4,.37.3.02.49-.12.71-.26.38-.56.41-.95.18-1.17-.66-1.26-1.85-1.49-2.96-.43-2.12-.17-4.28-.29-6.42-.41-1.42-.31-2.87-.29-4.41-1.07.34-1.49-.39-1.89-1.14-2.03-4.08-2.51-8.53-3.07-12.95-.12-.39-.21-.79-.21-1.2-.05-.54-.17-1.08-.12-1.63,0-.67,0-1.35-.04-2.02-.06-.16-.29.05-.14-.02.07-.03.1-.01.11.05.13.68.02,1.36.05,2.04-.08.64.17,1.26.1,1.9-.03.14-.1.27-.19.38-.56,5.84-2.68,11.23-4.87,16.59-1.22,2.99-2.62,5.95-2.47,9.28.24,5.35,2.36,9.96,5.87,13.96,1.51,1.72,3.16,3.31,4.51,5.16,2.63,3.59,3.56,7.72,3.87,12.05.07.95-.05,1.92.06,2.87.2,1.71-.22,3.09-1.77,4Z"/>
    <path d="M233,157.62c.57,1.65,1.51,3.12,2.23,4.69-1.4.26-2.8.27-4.19,0-2.04-4.14-4.16-8.24-5.73-12.58-1.98-5.48-4.88-10.57-6.8-16.07-3.04-8.72-5.31-17.65-7.28-26.66-2.23-10.22-4.14-20.51-5.92-30.81-1.01-5.81-1.77-11.65-2.37-17.52-1.13-11.07-1.33-22.16-1.19-33.27.06-5.07.24-10.14.51-15.2.19-3.41.64-6.81.97-10.22.33,0,.67,0,1,0,.38,1.35.17,2.73.06,4.07-.24,2.78-.31,5.57-.38,8.35-.14,5.62-.2,11.25,0,16.86.19,5.32.29,10.64.63,15.95.36,5.69,1.11,11.34,1.47,17.03.18,2.86.93,5.64,1.42,8.46.41,2.41.63,4.84,1.03,7.25.85,5.62,2.11,11.16,3.25,16.73,2.25,10.94,4.78,21.8,8.22,32.44,1.88,5.81,4.42,11.36,6.95,16.91,1.14,2.49,2.1,5.06,3.15,7.59,1.25,1.65,1.99,3.55,2.74,5.45.07.19.11.39.24.56Z"/>
    <path class="cls-22" d="M507.02,135.87c-.21-1.01.02-2.01.03-3.02.09-9.93.15-19.86.31-29.79.15-9.41.4-18.82.61-28.23.21-9.34.38-18.69.62-28.03.29-11.07.64-22.13.95-33.2.12-4.1.19-8.21.3-12.31.01-.44-.13-.92.21-1.32,1.17,0,2.34,0,3.5,0-.29,9.8-.57,19.59-.86,29.39-.25,8.43-.5,16.86-.75,25.28-.22,7.14-.43,14.28-.66,21.42-.34,10.67-.69,21.33-1.05,32-.13,3.98-.36,7.97-.42,11.95-.05,3.17-.82,6.21-1.36,9.29-.39,2.18-.79,4.36-1.18,6.54-.07.1-.15.1-.24.02Z"/>
    <path class="cls-22" d="M148.92-.03c-.47,3.93-.21,7.89-.33,11.83-.23,8.14-.34,16.28-.51,24.42-.14,7.02-.28,14.05-.45,21.07-.2,8.31-.43,16.61-.62,24.92-.15,6.82-.24,13.63-.38,20.45-.14,6.89-.2,13.79-.55,20.67-.12,2.52-.95,5.01-1.56,7.5.2-4.3.09-8.59.14-12.88.1-8.16.16-16.32.32-24.48.14-6.77-.03-13.54.24-20.31.27-6.61-.02-13.22.26-19.81.28-6.55-.02-13.1.26-19.64.27-6.36-.03-12.72.26-19.07.22-4.89.08-9.78.14-14.67h2.75Z"/>
    <path class="cls-16" d="M763.3-.03c-2.39,2.44-4.78,4.87-7.16,7.31-3.29,3.36-6.56,6.72-9.86,10.06-1.08,1.09-1.4,2.64-2.36,3.78-.33.39-.42,1.05-1.11,1.06.24-7.41.48-14.82.73-22.23,6.59,0,13.18,0,19.77,0Z"/>
    <path class="cls-16" d="M234.51-.03c-.14,2.46-.62,4.89-.85,7.35-.12,1.3-.23,2.62-.34,3.91-.25,3.09-.26,6.2-.37,9.3-.11,3.08-.14,6.16-.2,9.35-2.66-9.9-6.25-19.23-12.03-27.62.07-.81-.35-1.52-.47-2.29h14.26Z"/>
    <path class="cls-21" d="M208.45,77.94c-.75-2.55-1.02-5.19-1.49-7.8-1.15-6.41-1.9-12.88-2.46-19.37-.29-3.39-.44-6.79-.61-10.19-.47-9.27-.55-18.54-.39-27.81.07-4.27.1-8.56.72-12.81,1.25,0,2.5,0,3.75,0-.44,1.38-.78,2.81-1.35,4.13-1.16,2.66-1.33,5.49-1.37,8.29-.09,6.9-.07,13.81.02,20.72.06,5.15.23,10.3.49,15.44.23,4.44.28,8.88.5,13.31.1,2.02.24,4.05.96,5.99.8,2.13.78,4.4.96,6.62.09,1.15.45,2.29.26,3.46Z"/>
    <path class="cls-17" d="M659.7-.03c-.06,2,.41,3.94.61,5.91.32,3.19.48,6.38.4,9.58-.01.57-.2,1.05-.96,1.36-.74-5.66-1.14-11.29-2.05-16.86h2Z"/>
    <path class="cls-26" d="M236.24,15.21c-.05-3.56.48-7.07.86-10.59.17-1.56.44-3.1.67-4.65.58,0,1.17,0,1.75,0-.41,3.75-1.35,7.41-2.09,11.1-.28,1.38-.62,2.75-.94,4.12-.07.13-.16.14-.25.02Z"/>
    <path class="cls-7" d="M321.1-.03c-.02,2.36-.2,4.7-.46,7.04-.03.26.09.67-.34.67-.4,0-.34-.41-.35-.67-.07-1.94-.1-3.89-.17-5.83-.01-.4.1-.83-.18-1.2h1.5Z"/>
    <path class="cls-16" d="M658.74,162.3c-.37.02-.75.05-1.12.05-31.14,0-62.27,0-93.41,0-.21,0-.42-.02-.62-.03-.5-1.09-1.29-1.99-2.34-2.48-1.98-.91-3.48-2.16-4.22-4.28-.28-.8-.87-1.49-1.38-2.35,2.57-.37,5.01-.71,7.45-1.09,3.86-.6,7.71-1.2,11.56-1.84,2.8-.47,5.62-.8,8.44-.65,1.74.09,3.07-.42,4.2-1.63.75-.81,1.6-1.21,2.75-1.21.57,0,1.99.08.87-1.28-.33-.4,0-.6.23-.82.83-.75,1.69-1.48,2.52-2.24.24-.21.63-.41.53-.78-.11-.41-.55-.46-.91-.56-.51-.14-1.03-.25-1.54-.37.06-.37.28-.37.49-.38,2.45-.09,4.91-.2,7.36-.27,5.54-.17,11.07-.35,16.61-.46,1.82-.04,2.96-1.18,4.19-2.21,1.94-1.63,3.86-3.3,5.76-4.97.29-.26.79-.48.62-.98-.14-.41-.62-.33-.98-.4-3.17-.64-6.36-1.25-9.51-1.96-2.47-.56-4.79.11-7.13.63-4.3.94-8.64,1.63-12.99,2.33-1.72.28-3.41-.27-5.03-.73-5.23-1.48-10.35-.77-15.51.36-4.66,1.02-9.36,1.91-14.04,2.85-.41.08-.83.1-1.23-.06-3.33-1.31-6.79-2.28-10-3.88-2.08-1.03-2.5-1.43-3.99-3.57.67-.38,1.4-.32,2.02-.1,3.38,1.16,6.89,1.46,10.42,1.73,4.28.32,8.56.55,12.85.44.25,0,.5-.04.75-.06.97-.51,1.99-.3,3-.17,3.48-.53,7.01-.72,10.46-1.5,6.35-1.44,12.2-4.09,17.81-7.31.56-.32,1.59-.57,1.09-1.63-.73-1.54-1.99-2.28-3.09-1.86-1.12.42-2.1,1.18-3.33,1.34-.16.07-.35.13-.48.03-1.26-.99-2.62-.53-3.94-.28-2.86.56-5.66,1.38-8.44,2.26-6.52,2.05-13.19,2.53-19.99,2.11-5.24-.33-10.45-.75-15.6-1.82-1.31-.27-2.6-.58-3.85-1.05-.4-.15-.94-.18-.96-.8-1.13-1.8-2.68-3.27-4.04-4.88-.93-1.1-1.77-2.32-3.04-3.11-.53-.33-.33-.78-.16-1.21.43-1.08,1.16-2.13,1.24-3.24.16-2.16,1.97-2.27,3.25-3.07.77,1.53.98,3.24,1.62,4.82,1.28,3.15,3.29,5.65,6.04,7.61.41.29.86.52,1.35.64.42.1.87.14,1.12-.29.26-.45-.06-.78-.38-1.07-.15-.14-.34-.24-.51-.36-2.51-1.72-4.64-3.77-5.84-6.65-.35-.84-.9-1.6-1.19-2.47-.53-1.58-.02-2.75,1.56-3.25,2.2-.7,4.37-.24,6.49.41.58.18.83.79,1.08,1.32.64,1.31,1.37,2.57,2.22,3.75,1.56,2.16,3.66,3.12,6.28,2.7,2.52-.41,4.94-1.09,7.02-2.73,1.4-1.1,2.06-2.57,2.51-4.2.23-.82-.26-1.05-.92-1.11-1.29-.11-2.56-.32-3.84-.52-.16-.03-.33-.04-.49-.08-1.53-.31-2.47-1.06-2.54-2.04-.06-.94.66-1.62,2.28-2.12,1.44-.44,2.93-.61,4.43-.69,1.24-.08,2.38.35,3.51.73,2.36.78,4.7,1.65,6.89,2.84,1.44.79,2.72,1.79,2.88,3.63-.07.86-.48,1.6-.95,2.27-1.47,2.11-3.05,4.15-4.76,6.08-1.46,1.65-3.3,2.77-5.26,3.71-.64.3-1.28.62-1.6,1.32-.27.61-.16.97.59.92.25-.02.51-.01.74-.12,2.16-1.05,4.4-1.91,6.22-3.6,2.7-2.5,5.26-5.07,6.88-8.43.07-.15.23-.23.41-.25,2.47.94,4.98,1.82,7.42,2.85,4.01,1.69,7.97,3.53,12.1,4.93.86.29,1.45.94,2.17,1.42,2.2,1.48,4.71,2.27,7.23,2.94,3.97,1.04,7.97,1.95,11.95,2.92,2.05.5,3.91-.49,5.86-.73.37-.05.49-.3.18-.61-.27-.26-.35-.46.12-.56.63-.46,1.35-.35,2.04-.28,3.3.34,6.62.21,9.92.46.6.05,1.26-.11,1.75.41.33.4.23.82.12,1.28-.43,1.8-.81,3.62-1.23,5.42-.11.47-.24.95.31,1.18,3.08,1.31,5.86,3.27,9.14,4.13.32.08.62.24.96.18.79-.28,1.28.13,1.7.72.58.22,1.15.55,1.75.63,1.76.23,2.13,1.38,2.3,2.91.43,3.94-.03,7.87.1,11.8.11,3.4-.41,6.56-1.64,9.69-.64,1.62-1.12,3.3-1.67,4.95Z"/>
    <path class="cls-16" d="M650.83,101.74c-2.97-1.36-5.58-2.55-8.18-3.77-.48-.23-.97-.52-1.35-.89-3.73-3.69-7.74-7.09-11.2-11.04-.68-.77-1.53-1.4-2.35-2.13.5-.48,1.09-.43,1.62-.54,3.17-.65,6.35-1.31,9.52-1.96.37-.08.8-.09.96-.47.21-.5-.25-.77-.54-1.02-3.56-3.06-7.12-6.12-10.72-9.14-5.29-4.43-10.93-8.43-16.38-12.66-2.88-2.24-6.24-3.65-9.49-5.25-2.87-1.41-5.7-2.91-8.76-3.92-5.27-1.73-10.64-2.97-16.12-3.77-1.48-.22-2.97-.34-4.45-.53-.44-.05-.96-.05-.89-.74,0-.1-.11-.21-.17-.32-.23-.49-1.31-.5-.94-1.19.18-.33,1.06-.3,1.63-.39,6.6-1.03,13.2-2.07,19.81-3.08,5.46-.83,10.91-1.71,16.38-2.42,5.31-.69,10.64-1.19,15.98-1.66,5.62-.49,10.28,1.83,15.04,4.07,1.53.72,2.44,2.24,3.75,3.28,1.66,1.32,3.15,2.84,4.81,4.16,1.82,1.45,2.14,3.63,2.82,5.58,2.34,6.75,4.51,13.56,6.79,20.33.34,1.02.05,1.27-.9,1.11-1.32-.23-2.65-.24-3.98-.23-1.3,0-1.62.3-1.31,1.58.53,2.22,1.17,4.41,1.85,6.59.26.84.26,1.2-.77,1.12-2.48-.2-4.97-.29-7.45-.5-1.8-.15-2.72.95-2.13,2.67,1.79,5.15,4.11,10.08,6.25,15.08.24.56.48,1.13.88,2.05Z"/>
    <path class="cls-16" d="M638.19,111.35c.57.69,1.46.7,2.21.98,1.74.65,3.51,1.21,5.27,1.81.08.67-.6.16-.74.49-1.84,1.01-3.59.12-5.37-.25-2.56-.54-5.11-1.11-7.68-1.63-2.61-.53-4.98-1.77-7.52-2.51-1.75-.51-3.49-1.05-5.47-1.65.7-.18,1.05-.3.69-.92-1.02-1.75-1.93-3.37-4.18-4.1-4.38-1.44-8.55-3.47-12.83-5.5.17-.32.8-.2.74-.61-.04-.31-.29-.59-.39-.89-1.28-3.71-4.6-4.18-7.77-4.9-.2-.05-.41-.09-.62-.09-1.64-.05-2.66-.91-3.26-2.39-.34-.83-.95-1.26-1.91-1.35-4.63-.44-9.25-.94-13.88-1.44-4.05-.44-8.11-.74-12.19-.62-.41.01-.73-.17-.91-.55-.37-.78-1.02-.86-1.78-.8-4.02.3-8.02.8-11.97,1.53-3.13.58-6.27,1.27-9.28,2.41-1.02.39-1.85.92-2.31,1.94-.59,1.29-1.65,1.96-2.93,2.52-2.25.98-4.42,2.13-6.71,3.04-.38.15-.77.28-1.31.48.27-1.58.36-3.05.96-4.43.04-.12.08-.27.19-.31,2.33-.86,3.58-2.91,5.08-4.65,3.53-4.09,6.76-8.44,10.28-12.55,1.22-1.42,2.5-2.79,4.02-3.91,1.57-1.15,3.31-1.9,5.23-2.25,4.96-.89,9.88-2.02,14.86-2.74,4.33-.63,8.7-.77,13.04.04.45.08.9.17,1.32.36,4.52,1.62,8.71,3.94,13.04,5.98,2.5,2.07,4.82,4.3,6.73,6.94,1.42,3,3.5,5.44,6.21,7.36,1.1.86,1.76,2.09,2.6,3.17,2.1,2.72,4.71,4.93,7.25,7.18,2.27,2.02,4.32,4.24,6.62,6.24,3.88,3.37,8.21,5.91,13.04,7.66.58.21,1.35.16,1.62.93Z"/>
    <path d="M570.57,96.85c-1.7.15-3.39.36-5.01.91-.74.25-1.42.66-1.41,1.54.01.93.68,1.43,1.51,1.58,1.88.34,3.77.65,5.67.88.87.11.93.44.77,1.2-.73,3.41-2.96,5.37-6.13,6.44-1.02.35-2.06.66-3.11.89-2.83.63-5.16-.22-6.99-2.47-.77-.94-1.46-1.93-1.9-3.06-.58-1.48-1.35-2.53-3.16-2.66-1.53-.11-3.04-.44-4.54.02-1.45.44-2,1.35-1.45,2.76,1.43,3.65,3.45,6.9,6.89,9.05.14.09.29.16.43.25.61.42,1.22.89.77,1.72-.44.81-1.18.59-1.87.33-1.61-.6-2.8-1.79-3.94-2.99-2.75-2.91-4.21-6.43-4.75-10.36.16-2.84.77-5.57,2.25-8.04-.52-.36-.86.02-1.18.19-4.53,2.41-8.92,5.03-12.71,8.55-.64.59-1.24,1.34-2.36,1.25,3.68-4.85,8.43-8.26,13.51-11.29,3.85-2.3,8.09-3.2,12.51-3.66,5.04-.53,10.06-.5,15.06.09,6.47.76,12.67,2.62,18.62,5.26,9.16,4.07,17.62,9.43,26.19,14.57,1.65.99,3.38,1.88,5.01,2.9.45.28,1.39.67,1.01,1.28-.3.48-1.18.63-1.93.2-2.88-1.61-5.8-3.16-8.69-4.77-7.27-4.03-14.42-8.28-22.09-11.57-.37-.16-.76-.3-1.41-.55,1.34,2.92,1.12,5.66.05,8.37-2.87,5.76-7.23,9.97-13.17,12.52-.78.33-1.53.19-2.32.18.14-1.29.68-2.21,1.9-2.69,3.52-1.4,5.92-4.07,8.06-7.06,1.09-1.52,2.48-2.84,2.99-4.72.17-1.48.14-2.96.11-4.45-.01-.9-.6-1.3-1.36-1.57-2.87-1-5.86-1.09-8.84-1-.99.03-1.98-.34-2.96-.04Z"/>
    <path d="M600.65,78.88c-1.94-2.47-4.18-4.64-6.51-6.73-1.38-.79-2.62-1.75-3.48-3.13-.23-.37-.59-.59-1.01-.68-2.87-.65-5.74-1.28-8.55-2.15-3.74-1.08-7.57-1.03-11.38-.71-6.34.53-12.51,2.1-18.73,3.32-3.44.67-5.81,3.06-8.01,5.61-4.49,5.22-8.57,10.78-13.16,15.92-.8.89-1.8,1.12-2.76,1.56-.63-1.01-.03-1.86.51-2.57,3.21-4.25,6.51-8.42,9.95-12.48,1.63-1.93,3.26-3.86,4.99-5.69,2.8-2.97,6.33-4.56,10.32-5.22,6.58-1.08,13.1-2.69,19.83-2.69,3.22,0,6.38.51,9.5,1.32,3.02.79,6.05,1.57,9.07,2.35,1.11.29,1.8,1.16,2.58,1.87,6.39,5.87,12.17,12.29,17.46,19.17,2.12,2.75,4.75,5.01,7.29,7.35,1.59,1.47,2.96,3.14,4.57,4.59.54.32.98.73,1.28,1.3,3.48,3.66,7.64,6.32,12.32,8.19,1.26.5,2.52.98,3.75,1.54.41.19,1.08.56.81,1.06-.25.48-.79,0-1.19-.17-.61-.25-1.22-.52-1.91-.46-4.99-1.59-9.51-4.07-13.62-7.3-.85-.67-1.69-1.36-2.44-2.13-3.2-3.32-6.73-6.3-10.07-9.48-1.94-1.84-3.34-4.12-5.16-6.05-2.16-2.44-4.37-4.84-6.26-7.51Z"/>
    <path d="M703.3,5.68c-.35,1.59.23,2.98.48,4.37,1.27,7.13,2.29,14.31,3.47,21.46,1.76,10.69,2.32,21.45,1.92,32.26-.24,6.48-.8,12.94-1.13,19.41-.26,5.11-.44,10.22-.54,15.33-.03,1.42-.5,2.57-1.24,3.79-1.26-1.08-1.44-2.51-1.48-3.92-.14-5.52.12-11.04.4-16.55.16-3.18.35-6.36.53-9.55.49-8.29,1.04-16.58.76-24.89-.15-4.5-.38-9-.95-13.47-.43-3.43-.66-6.89-1.05-10.33-.45-4.01-1.02-8-1.43-12.01-.15-1.48-.37-2.95-.53-4.42-.06-.56-.25-1.29.78-1.49Z"/>
    <path d="M694.2,162.3c-.57,0-1.13,0-1.7,0,.68-3.88,1.07-7.8,1.5-11.71.55-4.97-.57-9.72-1.62-14.51-.39-1.78-.65-3.59-.66-5.43-.02-6.61-.64-13.19-.91-19.8-.2-4.8.3-9.54,1.04-14.26.77-4.91,1.67-9.8,2.14-14.76.77-8.06,1.51-16.14,4.26-23.85.5-1.4,1.09-2.75,1.96-3.98.17-.25.33-.46.6-.59.26-.13.54-.39.77-.06.3.42-.23.4-.39.58-1.38,1.49-1.9,3.39-2.44,5.25-1.44,4.92-2.24,9.96-2.56,15.08-.51,8.08-1.43,16.12-2.64,24.12-.86,5.65-.6,11.35-.25,17.04.3,4.71.69,9.42.55,14.16-.11,3.76.71,7.42,1.47,11.08.75,3.63.67,7.26.3,10.91-.36,3.59-.85,7.16-1.41,10.73Z"/>
    <path d="M545.08,118.38c2.2,1.14,4.64,1.56,7.03,1.95,6.21,1.01,12.47,1.6,18.77,1.53,5.44-.06,10.75-.94,15.93-2.64,3.05-1,6.18-1.76,9.35-2.31,1.02-.18,1.41.78,2.17,1.02.29.65-.33.65-.63.81-1.93,1.02-4.1,1.3-6.17,1.91-4.06,1.19-8.05,2.64-12.24,3.34-4.58.76-9.18.78-13.8.46-4.22-.29-8.42-.75-12.57-1.6-3.03-.62-6.05-1.33-8.8-2.84-1.64-.9-2.41-2.17-2.22-3.92,1.25.55,1.78,2.05,3.16,2.28Z"/>
    <path d="M615.64,131.96c-.85.82-1.95.96-2.99,1.13-5.57.92-11.18,1.53-16.8,2.06-6.87.65-13.74,1.19-20.61,1.75-6.42.53-12.82,1.25-19.26,1.46-.67.02-1.33-.04-1.94-.36-.24-.12-.41-.28-.27-.58.12-.27.3-.14.5-.13,3.16.27,6.28-.21,9.41-.61,2.59-.33,5.19-.53,7.78-.82,5.05-.56,10.1-1.16,15.16-1.71,3.54-.38,7.09-.63,10.62-1.05,3.81-.45,7.64-.78,11.44-1.41,1.67-.27,3.38-.35,5.05-.6.87-.13,1.41.21,1.91.86Z"/>
    <path d="M646.92,119.41c-4.57-.19-9.15-.21-13.71-.59-1.16-.23-2.33-.45-3.48-.71-.48-.11-.96-.26-1.41-.47-.36-.18-1.06-.18-.83-.84.22-.62.72-.28,1.16-.19,4.78.99,9.61.78,14.45.59,4.2-.16,8.42-.14,12.62-.02,3.31.1,6.61.49,9.91.73.95.07,1.6.59,2.17,1.36-.74.51-1.51.69-2.43.66-6.15-.21-12.3-.73-18.47-.53Z"/>
    <path d="M604.08,33.84c-.03-1.02.66-1.49,1.43-1.81,3.5-1.48,7.12-2.6,10.79-3.57,5.09-1.33,10.29-1.86,15.53-1.88,3.46-.01,6.92.24,10.38.38.63.03,1.02.49,1.45.88.36.34.26.54-.13.73-.65.31-1.33.43-2.06.43-3.83-.03-7.67-.02-11.5-.05-8.14-.05-15.98,1.66-23.7,4.05-.39.12-.75.35-1.12.52-.33.15-.63.37-1.06.31Z"/>
    <path d="M652.54,36.92c1.4.02,2.33,1.01,3.28,1.81,5.66,4.81,10.94,9.99,15.29,16.04.28.38,1.27.79.43,1.47-.9.73-1.78.58-2.44-.2-4.05-4.79-8.06-9.62-12.47-14.1-.99-1-1.92-2.07-2.86-3.12-.43-.47-.96-.78-1.5-1.09-.25-.15-.81.12-.76-.4.07-.62.65-.31,1.03-.41Z"/>
    <path d="M534.54,42.7c-.14-.93.47-1.37.98-1.81,2.59-2.21,5.4-4.08,8.31-5.83,6.21-3.73,12.88-6.35,19.86-8.23,1.86-.5,3.8-.72,5.7-1.08.41-.08.72.07,1.02.32.55.46.56.8-.2.96-1.42.3-2.84.55-4.25.89-10.96,2.64-20.97,7.33-30.13,13.86-.39.28-.62.78-1.29.91Z"/>
    <path d="M571,33.88c0-1.01.71-1.35,1.43-1.71,4.91-2.45,10.13-3.99,15.45-5.18,4.91-1.09,9.87-1.93,14.92-2.05.25,0,.5,0,.75,0,.63.02,1.09.46,1.17.93.07.4-.6.51-.99.56-2.18.28-4.36.47-6.54.77-8.23,1.11-16.3,2.85-24.06,5.86-.35.13-.68.31-1.01.48-.33.16-.6.46-1.12.34Z"/>
    <path d="M586.88,23.49c-.16.56-.58.59-.92.69-2.43.69-4.89,1.29-7.29,2.05-7.41,2.34-14.69,5.03-21.56,8.71-1.02.55-2.1,1.02-2.86,1.95-.16.2-.38.36-.65.23-.37-.18-.19-.45-.13-.74.15-.67.58-1.05,1.11-1.42,4.15-2.87,8.72-4.89,13.39-6.73,4.53-1.78,9.15-3.34,13.86-4.59,1.23-.33,2.51-.48,3.75-.81.77-.21.83.52,1.29.65Z"/>
    <path d="M653.38,34.58c-1.12.54-2.1.96-3.36.62-1.91-.52-3.88-.86-5.81-1.3-.54-.13-1.16-.21-1.07-1.07.06-.59-.51-.7-.91-.87-1.11-.45-2.24-.85-3.36-1.28-.46-.18-1-.3-.75-1.01.32-.91.65-.09.98-.01,1.48.34,2.97.64,4.44,1.04,2.49.68,4.95,1.46,7.44,2.14,1.03.28,1.7.94,2.41,1.74Z"/>
    <path class="cls-17" d="M712.4,92.35c-1.45-1.34-.63-2.89-.51-4.27.25-2.99.83-5.96.84-8.97,0-1.31.49-2.61.08-3.93-.09-.27.04-.49.37-.51.33-.02.69-.05.79.39.09.4.22.81.24,1.22.2,4.82-.15,9.61-.95,14.37-.1.62-.39,1.17-.85,1.7Z"/>
    <path class="cls-17" d="M680.18,73.43c-1.61,1.34-2.36.11-3.25-.65-2.76-2.36-5.28-4.93-7.08-8.12q-.61-1.07-.17-2.67c3.13,4.35,6.79,7.94,10.51,11.44Z"/>
    <path class="cls-17" d="M659.94,124.39c1.58.87,3.34,1.29,4.98,2.01.59.26,1.53.57,1.32,1.19-.2.58-1.12.58-1.87.3-3.83-1.43-7.7-2.74-11.39-4.51-.3-.14-.58-.32-.88-.46-.36-.17-.52-.46-.36-.81.17-.36.46-.17.74-.08,1.8.56,3.61,1.1,5.42,1.64.79-.08,1.41.31,2.03.71Z"/>
    <path class="cls-17" d="M532.65,38.08c-.32-.81.27-1.19.77-1.51,3.59-2.28,7.3-4.33,11.16-6.12.54-.25.91-.13,1.15.3.26.45-.22.54-.48.67-3.94,1.95-7.8,4.05-11.58,6.31-.31.19-.63.37-1.02.35Z"/>
    <path class="cls-57" d="M575.4,128.89c-.97.53-2,.1-3,.17-2.24-.31-4.48-.61-6.72-.94-2.16-.32-4.32-.67-6.48-1-.35-.05-.7-.11-.62-.57.1-.61.49-.22.76-.18,4.28.58,8.55,1.19,12.83,1.73.77.1,1.55.19,2.33.28.4.04.72.14.9.53Z"/>
    <path class="cls-57" d="M597.25,138.52c.77-1.35,8.53-2.28,9.8-1.07-3.29.78-6.51.63-9.8,1.07Z"/>
    <path class="cls-5" d="M657.91,132.33c-.57-.24-1.13-.48-1.7-.72-.21-.36-.46-.76-.09-1.11.36-.33.67.1.99.21.31.1.6.26.87.43.27.16.65.31.66.66,0,.43-.56.24-.74.53Z"/>
    <path class="cls-56" d="M659.94,124.39c-.74-.06-1.4-.34-2.03-.71.15-.43,1.19-.49,1.62-.04.19.2.28.5.41.75Z"/>
    <path class="cls-42" d="M624.4,101.19c-.51-.35-.93-.79-1.28-1.3.76.11,1.17.55,1.28,1.3Z"/>
    <path class="cls-14" d="M644.92,114.63c.25-.16.5-.32.74-.49.26.04.56.12.17.36-.24.15-.6.09-.91.12Z"/>
    <path class="cls-44" d="M368.61,25.67c.26-1.72-.39-2.33-2.67-3.13-3.51-1.24-7.21-1.77-10.92-2.08-4.44-.37-8.88-.26-13.32-.3-2.1-.02-4.2,0-6.3.03-.5,0-.82-.15-.82-.68.04-4.62.08-9.23.12-13.85,0-.07.07-.15.11-.22.15,1.96.15,1.92,2.19,2.02,6.31.32,12.63.58,18.93,1.06,4.71.36,9.49.52,14.04,1.96,6.54,2.08,13.21,3.69,19.78,5.66,1.49.45,2.87,0,4.31.01.57,0,.67-.55.84-.96,1.07-2.65,1.32-2.76,2.93-.44,1.47,2.1,3.72,1.9,5.74,2.45.07.02.19,0,.24-.05,1.32-1.3,1.94-.03,2.64.75,1.3,1.46,2.55,2.96,3.8,4.46.44.53.89.67,1.52.37.37-.18.8-.24,1.18-.41,1.16-.51,2.1-.29,2.76.81.41.68.93.67,1.6.4,1-.4,2.06-.66,3.06-1.07,1.15-.47,1.94-.09,2.52.88.6,1.01,1.33,1.26,2.5.9,4.11-1.26,8.41-1.52,12.65-2.02,1.5-.18,2.91-.67,4.34-1.13.78-.25,1.35-.16,1.88.47,1.59,1.87,3.19,3.72,4.81,5.56.45.5.5.87-.18,1.11-1.64.59-3.28,1.15-4.93,1.72-1.04,1.57-2.49,2.77-3.68,4.21-3.59,4.35-6.89,8.88-9.43,13.93-.28.56-.57,1.11-.65,1.89,1.89-2.32,3.34-4.8,5.02-7.1,2.48-3.4,5.04-6.73,7.8-9.91.24-.28.45-.62.91-.54,1.46,1.59,1.64,1.72.43,3.42-3.18,4.47-5.31,9.6-8.81,13.87-.2.25-.31.46-.15.78.58,1.15.62,2.4.56,3.65-.17,3.69-.36,7.37-.54,11.06-.74-.25-.72-.97-.91-1.52-1.66-4.99-3.73-9.81-6.34-14.38-.91-1.6-2.04-3.04-3.24-4.43-.83-.96-.78-1.07.19-1.88.41-.35,1.36-.72.97-1.21-.5-.61-1.02.28-1.5.6-.35.23-.66.51-1.11.52-.44,0-.85-.12-1.06-.53-.19-.36.12-.6.31-.88,2.35-3.39,4.4-6.97,6.63-10.43.22-.34.5-.8.01-1.1-.45-.27-.66.21-.86.5-2.25,3.35-4.57,6.67-6.16,10.41-.37.87-.86,1.03-1.65.56-1.58-.94-3.23-1.73-4.94-2.4-.85-.33-1.08-.75-.71-1.82.59-1.67,1.07-3.4,1.41-5.15.06-.33.07-.73-.34-.83-.38-.09-.47.3-.55.56-.68,2.19-1.38,4.37-1.89,6.6-.14.61-.11,1.14.77.92.3-.07.58,0,.84.14,3.99,2.03,7.61,4.52,10.1,8.33,1.18,1.81,2.1,3.79,2.92,5.79,4.26,10.33,6.87,21.12,8.71,32.11.74,4.4,1.07,8.84,1.21,13.28.09,2.9-.2,5.81-.53,8.71-.36,3.1-.46,6.22-.65,9.33-.22,3.65-.61,7.3-.53,10.96,0,.33-.03.67-.34.89-.95-.58-1.14-1.6-1.45-2.53-1.43-4.24-2.81-8.5-4.26-12.74-.72-2.11-2.11-3.85-3.36-5.65-2.71-3.89-4.18-8.37-5.98-12.7-1.14-2.75-2.14-5.57-3.74-8.16-.36.29.06.87-.47,1.02.12-.79.11-1.57-.2-2.33-2.02-4.83-4.04-9.66-6.79-14.13-1.82-2.96-4.26-5.4-6.98-7.55-.34-.27-.77-.98-1.4-.2-.18.22-.52-.16-.75-.3-5.16-3.09-10.86-4.5-16.72-5.47-3.18-.52-6.32-1.27-9.5-1.79-4.06-.66-8.09-.82-12.18-.24-4.99.7-9.79,2.02-14.5,3.76-4.7,1.74-8.93,4.25-12.81,7.4-.34.28-.72.51-1.22.86,0-3.42-.1-6.69.02-9.94.24-6.43.15-12.86.28-19.29,0-.33.11-.65.17-.98.31-.38.73-.51,1.19-.63,4.6-1.19,9.21-2.29,13.97-2.72,2.33-.21,4.55-1.02,6.87-1.34,8.76-1.21,17.5-1.53,26.22.34.86.18,1.74.22,2.6.37.82.15,1.65.08,2.78.31-3.39-2.75-6.4-5.45-10.7-6.05-2.55-.36-5.01-1.25-7.51-1.89-.44-.11-.9-.21-1.15-.67Z"/>
    <path class="cls-44" d="M501.3,162.31c-4.76,0-9.52.01-14.28.02.07-1.47.63-2.84,1.07-4.21,1.42-4.42,1.34-8.91.99-13.45-.21-2.77-.44-5.53-.12-8.33.41-3.69-.19-7.37-.53-11.05-.23-2.51-.51-5.03-.45-7.57.04-1.48.39-2.88.79-4.27.76-2.67.69-5.42.96-8.14.29-2.87.94-5.64,1.76-8.39,1.47-4.91,2.4-9.91,2.8-15.01.29-3.67,1.75-6.99,3.06-10.35,1.55-3.95,3.11-7.89,4.7-11.82.78-1.94,1.88-3.69,3.19-5.33.22,5.07-.37,10.14-.17,15.2.13,3.2-.4,6.22-1.45,9.23-1.61,4.64-2.5,9.47-3.57,14.26-.94,4.22-2.14,8.39-2.82,12.68-.86,5.37-1.24,10.75-.75,16.19.19,2.1.32,4.2.53,6.3.31,3.12.91,6.18,1.39,9.27.55,3.58,1.03,7.16,1.65,10.73.59,3.42.83,6.87,1.19,10.32.13,1.24.04,2.49.06,3.74Z"/>
    <path d="M436.19,128.89c-.04-4.28.38-8.54.6-12.8.25-4.89.66-9.77,1.01-14.65.25-3.49-.06-6.96-.41-10.42-.73-7.34-2.29-14.53-4.17-21.66-1.7-6.44-3.73-12.75-6.62-18.78-2.26-4.72-5.94-7.93-10.48-10.29-.62-.32-1.1-.93-2.1-.43-.73.37-.9-.62-.73-1.25.57-2.12,1.19-4.22,1.79-6.33.07-.24.09-.51.22-.71.24-.38.18-1.21.81-1.01.63.2.97.81.7,1.62-.39,1.14-.6,2.34-1.02,3.45-.28.73.14,1.66-.75,2.26-.36.24.11.56.42.68,2.03.77,3.98,1.69,5.81,2.86.47.3.55.01.68-.34,1.55-4.13,4.25-7.59,6.58-11.27.22-.34.49-.88,1.07-.43.45.35.73.72.33,1.35-1.58,2.47-3.08,4.99-4.69,7.44-.83,1.27-1.37,2.75-2.55,3.79-.21.19-.15.34.06.49.41.3.85.36,1.26.04.48-.39.94-.81,1.42-1.2.62-.51.86-.09,1.21.25.55.53-.04.7-.32.93-.58.47-1.19.9-1.81,1.35,5.36,6.01,8.07,13.4,10.65,20.84.07.19.07.41.28.53.79,3,1.59,5.99,2.38,8.99,1.73,6.6,2.82,13.32,3.36,20.11.37,4.73,0,9.47-.53,14.18-.16,1.44-.18,2.9-.26,4.35-.38,7.3-.97,14.59-1.61,21.87-.68,7.71-1,15.43-1.01,23.16,0,1.12-.3,2.12-.87,3.14-.83-.78-1.38-1.52-1.45-2.74-.19-3.53-.24-7.05-.18-10.57.11-6.28.59-12.55.94-18.83Z"/>
    <path class="cls-44" d="M397.68,162.32c-4.41,0-8.82,0-13.24-.01,3.07-3.87,6.05-7.81,9.35-11.49.36-.4.72-.81.89-1.33.08-.47.48-.66.82-.87,3.75-2.35,7.16-5.15,10.29-8.25,3.28-3.24,6.17-6.82,8.15-11.08.76-1.63.92-3.1-.02-4.65,1.51,0,2.95.45,4.4.78.92.21.75.83.27,1.41q-1.23,1.46.08,2.89c.34.37.58.85.96,1.14,1.8,1.35,1.3,2.95.53,4.56-1.57,3.29-3.77,6.16-6.09,8.94-5.21,6.22-10.92,11.99-16.4,17.97Z"/>
    <path class="cls-44" d="M363.64,125.37c-1.84.13-3.67-.09-5.44-.51-2.95-.71-5.98-.25-8.94-.71-.9-.14-1.82-.18-2.72-.29-.7-.09-1.09-.38-.74-1.17.36-.81.16-1.28-.75-1.64-1.39-.55-2.66-1.36-3.68-2.51-.57-.64-.84-1.27-.49-2.14.34-.84.54-1.74.81-2.61.22-.71.65-.8,1.22-.36.09.64.62.85,1.08,1.11,3,1.7,6.23,2.8,9.55,3.61,6.87,1.7,13.87,2.37,20.94,2.1,4.87-.18,9.69-.95,14.48-1.86,4.26-.81,8.51-1.65,12.75-2.5.41-.08.81-.21,1.22.02.69.65,1.37,1.3,2.07,1.94.51.46.51.77-.16,1.08-5.63,2.61-11.34,4.9-17.65,5.25-2.56.14-5.11.48-7.67.74-.33.03-.64.15-.96.23-1.14.65-2.36.35-3.54.26-5.15-.39-10.29-.91-15.4-1.68-1.3-.19-2.56-.61-3.9-.56,1.65.7,3.41.95,5.14,1.29.65.13,1.32.21,1.97.33.34.07.79.04.81.58Z"/>
    <path class="cls-44" d="M401,141.93c-.74-3.38-.82-3.56-3.95-2.25-3.33,1.39-6.8,1.46-10.26,1.64-3.62.2-7.16.84-10.73,1.37-3.61.54-7.22,1.45-10.84,1.32-5.43-.19-10.89.16-16.3-.61-.69-.1-1.07-.38-1.24-1.01-.27-1-.54-2-.81-3,.81-.65,1.76-.39,2.64-.33,5.07.35,10.12.57,15.21.26,7.45-.45,14.84-1.35,22.19-2.58,6.71-1.12,13.34-2.59,19.5-5.62,1.83-.9,3.61-1.91,5.27-3.1.36-.26.81-.66,1.22-.32.43.36.05.85-.13,1.25-1.18,2.61-2.94,4.84-4.82,6.95-1.79,2.02-3.78,3.87-5.85,5.62-.31.27-.63.57-1.11.4Z"/>
    <path class="cls-44" d="M333.65,80.92c0-2.74,0-5.49,0-8.23,0-.5.22-.82.6-1.14,8.48-7.32,18.31-11.63,29.4-13.14,4.81-.66,9.54-.03,14.25.9,1.01.2,2.06.21,3.03.6-9.31,1.12-18.41,3.14-27.19,6.47-2.76,1.05-5.62,1.81-8.31,3.06-2.54,1.18-4.88,2.71-7.16,4.28-1.25.87-1.61,2.58-2.46,3.85-.74,1.1-1.44,2.23-2.15,3.35Z"/>
    <path d="M401,141.93c2.58-1.91,4.84-4.16,6.95-6.55,2-2.26,3.86-4.66,5.04-7.8-1.27.82-2.33,1.55-3.42,2.2-5.75,3.45-12.08,5.27-18.59,6.58-6.88,1.38-13.84,2.29-20.82,2.96-4.76.46-9.54.72-14.33.52-2.99-.12-5.96-.5-8.96-.44-.35-.73-.12-1.06.82-.95,1.15.14,2.29.21,3.44.14,1.52-.2,3.05-.36,4.59-.33,6.39.14,12.72-.58,19.03-1.5,7.01-1.03,13.99-2.24,20.83-4.15,5.79-1.61,11.2-4.02,16.22-7.3.64-.42,1.26-.99,2.14-.66h0c1.39,1.16,1.22,2.51.58,4.01-1.55,3.62-3.81,6.75-6.43,9.67-3.93,4.37-8.46,8.01-13.39,11.17-1.06.68-2.14,1.27-3.56,1.02.17-.85.51-1.51,1.28-2.04,2.98-2.03,5.97-4.05,8.6-6.54Z"/>
    <path class="cls-44" d="M413.93,124.64c-1.29.18-2.18,1.13-3.21,1.78-5.44,3.44-11.36,5.69-17.57,7.23-6.78,1.68-13.65,2.8-20.56,3.78-7.13,1.01-14.28,1.38-21.47,1.15,2.66-.85,5.42-1.24,8.17-1.41,3.93-.25,7.7-1.17,11.44-2.29,4.14-1.23,8.2-2.95,12.43-3.58,5.18-.77,10.24-2.02,15.38-2.96,2.49-.46,4.94-1.07,7.51-.98.87.03,1.37-.69,1.66-1.33.88-1.92,2.59-1.85,4.22-1.85.65,0,1.41.02,2.01.46Z"/>
    <path class="cls-44" d="M505.53,30.94c0,3.66,0,7.32,0,10.98,0,.3.04.57-.37.77-.21.1-.58.86-.2,1.07.76.42.42.97.41,1.49-.04,2.98-.09,5.96-.13,8.95-3.17-.72-4.49-2.39-4.94-6.3-.06-.5.14-1.11-.66-1.25-.14-.02-.26-.31-.33-.5-2-5.8-2.07-11.63-.24-17.48.24-.76.66-.91,1.29-.43.56.43,1.1.89,1.64,1.34.62.5,1.04,1.4,2.14.66.4-.27.9.47,1.38.69Z"/>
    <path class="cls-44" d="M396.37,101.09c.26-1.85.48-3.69.15-5.56-.14-.76.63-1.04,1.65-.59,3.5,1.55,6.9,3.28,10.09,5.4,3.54,2.34,6.75,5.1,9.77,8.05,1.3,1.27,2.56,1.52,4.15.99.41.23.85.5.72,1.03-.15.58-.72.42-1.16.48-1.68.23-3.36.46-5.04.7-.76.11-1.47.06-2.13-.42-5.53-3.99-11.16-7.79-17.76-9.86-.16-.05-.3-.15-.44-.23Z"/>
    <path d="M402.94,115.9c-3.73,1.04-7.56,1.57-11.35,2.35-7.6,1.56-15.25,2.75-23.03,2.35-7.78-.4-15.45-1.43-22.64-4.71-1.02-.46-1.96-1.08-2.97-1.57-.65-.32-.27-.58-.04-.89,3.45,1.3,6.88,2.61,10.53,3.28,2.92.53,5.84,1.02,8.81,1.24,3.59.26,7.17.38,10.78.29,7.1-.18,14.01-1.64,20.95-2.93,2.39-.44,4.8-.78,7.2-1.09,1.2-.16,1.41.87,1.75,1.68Z"/>
    <path class="cls-44" d="M333.38,101.4c-.19-3.77-.2-3.79,3.31-4.97,6.18-2.08,12.33-4.27,18.8-5.37.41-.07.81-.2,1.34-.08-.89,1.57-1.33,3.27-1.92,4.92-3.51,1.16-6.97,2.46-10.55,3.4-3.61.94-7.27,1.64-10.98,2.11Z"/>
    <path class="cls-18" d="M443.92,32.44c-3.18,3.38-5.95,7.09-8.66,10.83-1.65,2.28-3.18,4.63-4.75,6.97-.14.21-.2.49-.52.41-.44-.12-.23-.43-.16-.7.65-2.43,2.05-4.48,3.34-6.59,2.74-4.47,6.01-8.54,9.56-12.39.35-.38.81-.68,1.22-1.01.08.14.13.33.25.41.88.57.72,1.11,0,1.68-.12.1-.19.26-.28.4Z"/>
    <path class="cls-17" d="M363.64,125.37c-2.35-.6-4.79-.76-7.11-1.5-.62-.2-1.79-.14-1.64-.84.19-.91,1.17-.26,1.8-.16,3.78.62,7.56,1.19,11.37,1.53,3.49.31,6.97.81,10.49.74.47.27.86.61,1.03,1.39-5.38.09-10.66-.67-15.95-1.16Z"/>
    <path class="cls-44" d="M387.63,95.96c2.42-.21,4.69.94,7.12.77.52-.04.46.43.4.72-.19.91-.16,1.88-.7,2.7-1.03-.25-1.74-1.08-2.69-1.48-1.03-.43-2-.99-3.15-1.08-1.07-.09-1.46-.59-.98-1.62Z"/>
    <path class="cls-62" d="M445.91,103.37c.09-.11.15-.19.22-.27.09.17.21.33.25.51.03.12-.12.24-.24.15-.11-.09-.15-.25-.23-.4Z"/>
    <path class="cls-44" d="M313.07,45.43c-.2,8.1-.27,16.2-.21,24.3.07,10.69.14,21.38.25,32.07.01,1.01-.24,1.41-1.27,1.79-4.2,1.57-8.49,2.47-12.99,2.3-.57-.02-1.1.12-1.07.73.02.45.6.44.98.5,4.4.68,8.72.04,12.97-1.03,1.2-.3,1.55-.13,1.37,1.06-.03.16-.02.33-.03.5-3.39.32-6.74,1.04-10.12,1.26-3.38.22-5.87,2.09-8.59,3.62-.25.14-.49.32-.75.45-1.29.63-2.43,1.19-2.89,2.88-.36,1.32-1.55,2.43-2.38,3.62-.3.43-.57.79-.04,1.28.52.48.32,1.07.05,1.61-1.43,2.83-3.33,5.36-5.27,7.86-.14.18-.39.34-.61.38-1.56.24-3.12.48-4.69.64-.93.1-.73-.58-.58-1.1.66-2.31,1.22-4.67,2.49-6.76.39-.64.4-1.01-.46-1.18-1.05-.21-1.26-.93-1.04-1.89.85-3.63,1.75-7.25,2.94-10.79.35-1.04.14-1.35-1-1.42-4-.24-7.86-1.29-11.74-2.16-.91-.2-1.2-.68-.89-1.64.82-2.57,1.54-5.17,2.31-7.76.3-1.03.99-1.41,2.27-1.08,3.54.91,7.08,1.85,10.6,2.84,1.91.54,1.88.6,2.48-1.34.38-1.22.8-2.36.06-3.66-.42-.74-.17-1.7-.05-2.58.44-3.24,1.59-6.25,2.91-9.2,2.22-4.97,3.9-10.15,6.21-15.07,2.21-4.7,5.16-8.9,8.5-12.86.21-.25.53-.5.59-.79.61-2.98,3.23-3.81,5.41-5.09,1.4-.82,2.86-1.54,4.29-2.3Z"/>
    <path d="M272.99,162.3c-.98,0-1.96.01-2.94.02-.62-.46-.74-1.19-.93-1.85-2.79-9.65-5.7-19.27-8.5-28.92-.19-.64-.36-1.28-.26-1.95-1.33-4.99-2.77-9.96-3.88-15.01-1.22-5.53-2.25-11.08-2.74-16.74-.16-1.78-.11-3.56-.24-5.34-.02-.28.27-.86-.51-.47-.5.25-.44-.34-.48-.61-.19-1.23-.03-2.45.16-3.66.09-.54.11-1.05.09-1.59.4-1.21.58-2.46.55-3.74.66-7.61,2.96-14.91,4.17-22.41.42-2.62.86-5.23,1.21-7.86.21-1.41.37-2.84.64-4.24v.03c.3-.56-.07-1.21.22-1.77.07-.09.15-.18.22-.27-.12-.4-.12-.8,0-1.21.66-3.63,1.06-7.29,1.56-10.95.59-4.3,1.32-8.58,1.94-12.87.55-3.77,1.04-7.55,1.55-11.33.33-2.48.64-4.97.98-7.45.06-.4-.17-.72-.21-1.08-.02-.21-.16-.54.19-.6.23-.04.48.06.6.35.19.44.16.89.18,1.35.08,1.79-.42,3.55-.24,5.34-.42,3.41-.86,6.82-1.26,10.24-.59,5.05-1.19,10.1-1.74,15.15-.39,3.53-.67,7.07-1.06,10.6-.45,4.02-1.01,8.02-1.44,12.04-.43,4.06-1,8.1-1.8,12.1-.93,4.68-1.94,9.35-2.87,14.03-.57,2.86-1.04,5.74-1.58,8.61-.12.62.23.88.85,1.17-1.02-.14-.98.34-.94.97.33,4.65,1.06,9.24,2.02,13.79,2.21,10.52,5.38,20.77,8.82,30.95,2.88,7.79,5.15,15.78,7.53,23.74.14.46.39.94.16,1.45Z"/>
    <path class="cls-44" d="M313.38,9.46c.47,1.36.18,2.78.14,4.14-.08,3.03-.12,6.05-.13,9.08,0,.84-.25,1.15-1.08,1.3-3.17.55-6.33,1.21-9.38,2.27-.54.19-1.17.4-1.52.81-1.81,2.14-4.32,3.19-6.74,4.34-2.19,1.04-3.74,2.68-5.14,4.56-.5,0-1.2.19-1.46-.07-.67-.65-1.3-1.24-2.22-1.56-.24-.08-.06-.76.1-1.16.93-2.31,1.87-4.61,2.77-6.93.16-.41.4-.71.69-1.01,1.93-1.95,4.25-3.6,5.88-5.7,1.64-2.11,3.89-3.56,5.37-5.78.8-1.21,1.9-2.16,3.59-2.37,3.08-.39,6.11-1.08,9.1-1.91Z"/>
    <path class="cls-44" d="M293.03,34.4c.82-1.24,2.2-1.71,3.36-2.49,4.81-3.22,10.34-4.4,15.85-5.62.54-.12,1.26-.4,1.07.68-5.42,2.33-10.88,4.53-16.24,7.01-1.2.55-2.67.52-4.05.42Z"/>
    <path class="cls-2" d="M296.17.18c.94.52,1.26,1.1,1.15,2.08-.5,4.45-1.12,8.89-1.9,13.3-.06.33-.19.67-.13.98.14.81-.53.81-.93.85-.64.07-.52-.54-.49-.91.14-1.78.3-3.55.51-5.32.36-2.96.8-5.91,1.16-8.87.09-.72.37-1.35.62-2.1Z"/>
    <path class="cls-44" d="M272.99,162.3c-1.38-4.47-2.76-8.95-4.15-13.42-1.07-3.44-2.15-6.89-3.21-10.33-.14-.47-.41-.91-.33-1.44,1.03,2.48,2.14,4.93,3.07,7.45,2.06,5.6,4.14,11.21,5.55,17.02.06.24.08.49.12.73-.35,0-.7-.01-1.05-.02Z"/>
    <path class="cls-16" d="M368.61,25.67c3.06.77,6.09,1.7,9.19,2.27,3.22.58,5.72,2.35,8.19,4.24.95.72,1.82,1.54,2.68,2.54-2.19-.28-4.41-.41-6.56-.87-6.2-1.3-12.44-1.28-18.74-1-4.81.22-9.42,1.55-14.15,2.09-5.06.58-9.95,1.83-14.87,3,.01-4.19.01-8.39.04-12.58,0-.94-.25-2.26.25-2.72.52-.48,1.81-.2,2.76-.15,5.48.28,10.97.08,16.46.26,2.49.67,5.09.51,7.59,1.06,1.69.37,3.41.65,5.09,1.08.41.11.8.22,1.05.58.16.93.63.33,1,.2Z"/>
    <path class="cls-22" d="M316.61,162.33c-.5,0-1.01,0-1.51,0,.37-2.3.21-4.62.23-6.93.06-7.28-.07-14.57.12-21.85.15-5.67-.06-11.34.23-16.99.25-4.84.09-9.68.23-14.52.25-8.73.41-17.47.59-26.2.14-6.63.21-13.25.37-19.88.2-8.6.46-17.2.7-25.8.04-1.51.58-2.93.93-4.38.77-3.19,1.37-6.43,2.35-9.57.67.51.29,1.18.28,1.79-.14,5.86-.27,11.71-.43,17.57-.14,5.32-.29,10.64-.44,15.96-.25,8.68-.49,17.37-.74,26.05-.23,7.81-.47,15.62-.72,23.43-.25,7.85-.5,15.71-.76,23.56-.24,6.94-.48,13.88-.75,20.83-.22,5.64-.46,11.28-.7,16.92Z"/>
    <path class="cls-39" d="M367.61,25.47c-4.11-1.04-8.28-1.75-12.49-2.25-.46-.05-.91-.13-1.25-.48,4.2.26,8.4.58,12.47,1.73.48.14,1.38,0,1.27,1Z"/>
    <path class="cls-55" d="M313.96,153.41c.04,2.47.37,4.95-.29,7.39,0-2.47.32-4.93.29-7.39Z"/>
    <path class="cls-58" d="M313.88,152.05v-8.15h.22v8.18c-.07,0-.14-.02-.22-.03Z"/>
    <path class="cls-61" d="M321.14,18c-.23-.57.2-1.25-.28-1.79-.08-.43.17-.74.37-1.08.08.97.28,1.93-.09,2.87Z"/>
    <path class="cls-49" d="M314.13,131.9v-3.45c.07,0,.13,0,.2,0v3.43c-.06.1-.12.11-.2.02Z"/>
    <path class="cls-35" d="M314.1,138.85v-2.8c.39.92.15,1.87.22,2.8-.07.12-.15.13-.22,0Z"/>
    <path class="cls-1" d="M314.1,138.85c.07.02.15.02.22,0,0,.82,0,1.63,0,2.45-.07,0-.15,0-.22,0v-2.45Z"/>
    <path class="cls-27" d="M314.36,133.11v2.33c-.35-.77-.26-1.54-.22-2.31.07-.12.14-.12.22-.01Z"/>
    <path class="cls-15" d="M314.36,133.11c-.07.01-.15.02-.22.01,0-.41,0-.82,0-1.23.07,0,.13-.01.2-.02,0,.41.02.82.02,1.24Z"/>
    <path class="cls-16" d="M740.1,106.66c3.01-3.21,5.21-6.97,7.34-10.77,2.07-3.69,4.24-7.31,6.2-11.06,2.5-4.79,4.47-9.81,6.42-14.83,2.28-5.88,4.2-11.88,6.1-17.89.28-.89.68-1.27,1.57-1.14,3.45.48,2.99-.41,2.28,2.79-.84,3.78-1.16,7.65-1.94,11.44-1.51,6.61-4.02,12.86-6.61,19.11-3.32,8-7.27,15.69-11.48,23.24-.12.21-.29.4-.44.59-.13.16-.22.37-.39.49-2.87,2.05-3.96,5.23-5.35,8.25-.93,2.03-1.63,4.2-3.1,5.94-.3.36-.5.91-1.14.79.18-5.65.36-11.3.54-16.95Z"/>
    <path class="cls-21" d="M739.56,123.61c1.2-1.07,1.98-2.42,2.63-3.86.99-2.18,2.05-4.34,2.93-6.57.88-2.24,2.55-3.71,4.42-5.04-2.17,4.03-4.39,8.04-6.48,12.1-1.38,2.68-2.58,5.44-3.3,8.39-.04.18-.2.34-.2.34v-5.36Z"/>
    <path class="cls-51" d="M725.5,24.68c0,1.4.05,2.81,0,4.21-.37,9.49-.89,18.97-1.05,28.46-.01.7-.14,1.39-.21,2.09-.38.26-.14.66-.23.98-.09.09-.18.09-.27,0,.32-6.84.66-13.67.97-20.51.21-4.64.38-9.29.58-13.93.02-.44-.14-.92.22-1.31Z"/>
    <path class="cls-52" d="M720.3,130.63c.09-1.85.19-3.71.28-5.56.1,1.94.39,3.89-.06,5.82-.11-.06-.18-.15-.22-.26Z"/>
    <path class="cls-59" d="M741.73,56.46v2.89s-.08,0-.12,0v-2.87s.08-.02.12-.03Z"/>
    <path class="cls-46" d="M723.74,60.43c.09,0,.18,0,.27,0-.04.51.19,1.05-.23,1.5-.07.12-.16.12-.25.02.06-.51-.06-1.03.2-1.51Z"/>
    <path class="cls-41" d="M720.3,130.63c.07.09.14.17.22.26v1.56c-.35-.6-.25-1.21-.22-1.82Z"/>
    <path class="cls-48" d="M720.73,122.62c0,.75.13,1.15-.11,1.58-.14-.48-.18-.91.11-1.58Z"/>
    <path class="cls-53" d="M723.53,61.94c.08-.01.16-.02.25-.02,0,.44,0,.88,0,1.63-.37-.72-.25-1.17-.25-1.61Z"/>
    <path class="cls-44" d="M260.35,129.58c1.14,3.84,2.29,7.68,3.43,11.52,2.09,7.07,4.18,14.14,6.27,21.21-5.92,0-11.85,0-17.77.01,0-.08-.04-.19,0-.25,1.86-3.04.72-6.26.35-9.34-.67-5.71-1.7-11.37-2.56-17.06-.07-.45-.1-.92-.03-1.37.32-1.91.15-3.77-.41-5.63-.15-.51.05-1.14.17-1.7.55-2.63.55-5.35,1.22-7.96.43-1.71.83-2,2.49-1.65,3.53.76,3.09.09,3.79,3.79.51,2.7,1.15,5.36,2.43,7.81.11.22,0,.87.63.6Z"/>
    <path class="cls-17" d="M245.52,81.66c-.06-4.29-.42-8.57-.7-12.85-.11-1.69-.26-3.38-.28-5.07,0-.37-.3-1,.48-1.04.63-.03.97.2,1.02.92.08,1.36.37,2.7.42,4.06.16,4.1.61,8.18.57,12.28-.02,1.4.28,2.79.03,4.19-.11.75.2,1.62-.72,2.19-.42-.6-.52-1.28-.56-2-.05-.9.22-1.83-.24-2.69Z"/>
    <path class="cls-33" d="M236.54,57.64c.71.29,1.01,1.79,2.19.61,0,1.74,0,3.34,0,4.93-1.26-1.64-1.65-3.62-2.19-5.54Z"/>
    <path class="cls-37" d="M233,157.62c-1.24-1.88-2.09-3.96-2.98-6.01,1.06-.63,1.48-.11,1.66.91.31,1.73,1.17,3.33,1.32,5.1Z"/>
    <path class="cls-10" d="M233.04,44.19c0-.08-.01-.16-.02-.25.22-.1-.03-.65.47-.48,0,.41-.01.81-.02,1.22-.14-.16-.29-.33-.43-.49Z"/>
    <path class="cls-22" d="M867.19,162.32c-.35,0-.7,0-1.05,0-.31-1.01-.19-2.05-.21-3.08-.35-14.68-.29-29.36-.19-44.04.08-11.79.19-23.59.31-35.38.11-10.74.26-21.47.41-32.21.09-6.4.15-12.79.33-19.19.06-2.26,1.15-4.32,1.76-6.48.59-2.08,1.27-4.13,1.92-6.2.62.05.24.46.26.72-.29,15.42-.55,30.84-.86,46.26-.24,11.76-.53,23.52-.8,35.28-.12,5.15-.24,10.3-.37,15.46-.26,10.68-.5,21.36-.81,32.04-.16,5.61-.45,11.21-.67,16.82Z"/>
    <path class="cls-38" d="M882.22,33.15v-6.16s.08,0,.13,0v6.15s-.08,0-.13.01Z"/>
    <path class="cls-30" d="M865.05,41.87v-4.3c.11,0,.21.01.32.02-.09,1.43-.17,2.87-.26,4.3-.02,0-.04-.01-.06-.02Z"/>
    <path class="cls-31" d="M864.43,113.4v-4.71c.07,0,.14,0,.21,0v4.71c-.07.1-.14.1-.21,0Z"/>
    <path class="cls-45" d="M864.43,113.4c.07,0,.14-.01.21,0,0,1.32,0,2.64,0,3.96-.07,0-.14,0-.21,0v-3.96Z"/>
    <path class="cls-34" d="M864.21,145.6v-3.43s.08,0,.11,0v3.44s-.08,0-.11,0Z"/>
    <path class="cls-25" d="M870.71,16.47c-.11-.23,0-.55-.26-.72-.08-.37.07-.63.4-.84.05.55.17,1.08-.15,1.57Z"/>
    <path class="cls-38" d="M864.68,84.67v-1.72c.07,0,.14,0,.21,0v1.73c-.07.1-.14.09-.21,0Z"/>
    <path class="cls-28" d="M864.68,84.67c.07-.01.14-.01.21,0,0,.52,0,1.04,0,1.82-.35-.77-.19-1.3-.21-1.82Z"/>
    <path class="cls-32" d="M865.27,30.4c-.14-.56-.21-.9.02-1.26.18.38.15.73-.02,1.26Z"/>
    <path class="cls-9" d="M158.13,30.51v1.58c-.34-.65-.12-1.14,0-1.58Z"/>
    <path class="cls-9" d="M157.92,34.34c.02-.39.04-.78.08-1.47.23.72.25,1.15-.08,1.47Z"/>
    <path class="cls-44" d="M503.56,155.08c-.28-4.81-1.18-9.54-1.94-14.28-1.28-8.02-2.73-16.02-2.73-24.19,0-6.43,1.06-12.71,2.5-18.96,1.13-4.93,2.1-9.89,3.14-14.84.03-.15,0-.34.36-.44-.36,24.27-.73,48.51-1.09,72.74-.09.11-.17.1-.23-.03Z"/>
    <path class="cls-23" d="M513.66,66.61c-.21-3.01-.49-6-.36-8.99.56.43.8,5.38.36,8.99Z"/>
    <path class="cls-20" d="M506.17,109.96c-.39-1.86.27-3.29.23-4.76.11,1.48.25,2.96-.23,4.76Z"/>
    <path class="cls-20" d="M506.29,99.65c.05-1.42-.21-2.87.38-4.37.37,1.56-.17,2.96-.14,4.37-.08.11-.16.11-.24,0Z"/>
    <path class="cls-4" d="M505.53,149.1c.17,1.61-.24,3.18-.26,4.78-.07.09-.14.09-.22,0-.17-1.61.15-3.19.24-4.78.08-.11.16-.11.24,0Z"/>
    <path class="cls-8" d="M506.29,99.65c.08,0,.16,0,.24,0,0,1.48,0,2.96,0,4.44-.08,0-.16,0-.24,0v-4.44Z"/>
    <path class="cls-3" d="M505.05,153.88c.07-.02.14-.02.22,0,0,1.01,0,2.03,0,3.04-.07,0-.14,0-.22,0v-3.04Z"/>
    <path class="cls-36" d="M506.76,91.16v3.04c-.32-1.01-.19-2.03-.19-3.04.06-.12.13-.13.19,0Z"/>
    <path class="cls-40" d="M505.48,144.38v2.65s-.07,0-.11,0v-2.6s.07-.04.11-.05Z"/>
    <path class="cls-12" d="M507.02,135.87c.08,0,.16-.02.24-.02-.1.53-.21,1.06-.31,1.59-.08-.54-.42-1.1.07-1.58Z"/>
    <path class="cls-11" d="M503.56,155.08c.08.02.15.03.23.03v1.53c-.08,0-.16.01-.23.02v-1.58Z"/>
    <path class="cls-47" d="M506.76,91.16h-.09s-.09,0-.09,0c0-.66,0-1.32,0-1.99.06-.14.12-.14.18,0,0,.66,0,1.32,0,1.99Z"/>
    <path class="cls-11" d="M513.4,140.15c.18.4.22.79.04,1.32-.23-.51-.16-.92-.04-1.32Z"/>
    <path class="cls-8" d="M506.12,110.67c.21.33.23.68.06,1.05-.28-.35-.08-.7-.06-1.05Z"/>
    <path class="cls-40" d="M505.53,149.1h-.12s-.12,0-.12,0c0-.4,0-.81,0-1.21.08,0,.16,0,.24,0v1.22Z"/>
    <path class="cls-48" d="M506.76,89.18h-.09s-.09,0-.09,0c0-.43-.14-.87.09-1.33.23.45.09.89.09,1.33Z"/>
    <path class="cls-40" d="M505.5,142.36v1.05c-.31-.29-.24-.54,0-1.05Z"/>
    <path d="M758.79,45.77c.05,8.63-2.09,16.11-4.9,23.45-1.55,4.04-3.14,8.06-5.28,11.84-.66,1.17-.73,1.09-1.51,0-.72-1.02-.59-1.88-.14-2.95,2.4-5.68,4.6-11.43,6.46-17.31,2.07-6.53,3.2-13.21,2.83-20.06-.18-3.28-.51-6.57-1.17-9.8-.05-.24-.05-.5-.03-.75.06-.57-.28-1.4.69-1.46,1.01-.06.43.8.53,1.2.71,2.72,1.37,5.45,1.79,8.24.42,2.75.76,5.5.72,7.62Z"/>
    <path class="cls-26" d="M258.74,52.18c-.26,2.19-.45,4.38-.8,6.56-.55,3.44-1.13,6.88-1.9,10.29-.69,3.04-1.3,6.11-1.9,9.17-.28,1.41-.42,2.85-.86,4.23.08-3.86.17-7.72.25-11.58.01-.59-.04-1.07.77-1.29.93-.25,1.03-1.25,1.2-2.04.91-4.17,1.85-8.33,2.54-12.54.15-.94.33-1.87.5-2.81.07-.12.13-.11.2,0Z"/>
    <path class="cls-54" d="M258.74,52.18h-.1s-.1,0-.1,0c.11-1.44.24-2.89.76-4.26-.04,1.44-.2,2.86-.56,4.26Z"/>
    <path class="cls-13" d="M236.24,15.21c.08,0,.17-.02.25-.02-.03.62-.12,1.22-.47,1.76-.08-.6-.06-1.18.22-1.74Z"/>
    <path class="cls-63" d="M259.52,46.18c-.11.59.28,1.24-.23,1.77.02-.6-.19-1.23.23-1.77Z"/>
    <path class="cls-19" d="M259.75,44.71c0,.4,0,.8,0,1.21-.35-.4-.28-.8,0-1.21Z"/>
    <path class="cls-60" d="M233.03,41.96v-2.22c.07,0,.14,0,.21,0v2.22c-.07.09-.14.1-.21,0Z"/>
    <path class="cls-6" d="M233.03,41.96c.07-.01.14-.01.21,0,.08.5.16,1,.25,1.51-.16.16-.31.32-.47.48,0-.66,0-1.33,0-1.99Z"/>
    <path class="cls-50" d="M232.89,32.9c-.14-.58-.2-.92-.01-1.37.2.44.14.79.01,1.37Z"/>
    <path class="cls-24" d="M745.58,4.45c.61.86.52,1.44,0,2.26v-2.26Z"/>
    <path class="cls-44" d="M570.57,96.85c3.47-.54,6.95-.65,10.36.3,3.25.91,3.23.97,3.19,4.36-.01.83-.08,1.65-.49,2.39-.04-1.51-.99-2.53-2.15-3.13-3.45-1.79-6.98-3.44-10.91-3.92Z"/>
    <path class="cls-44" d="M581.1,66.2c2.38.23,4.65.97,6.98,1.43,1.42.28,2.69.58,3.54,2.02.58.99,1.67,1.68,2.52,2.5-1.82-.58-3.44-1.59-5.13-2.45-2.58-1.32-5.28-2.33-7.92-3.5Z"/>
    <path class="cls-33" d="M600.65,78.88c2.25,2.36,4.48,4.75,6.26,7.51-2.82-1.89-4.93-4.38-6.26-7.51Z"/>
    <path d="M363.73,17.91c2.62.5,5.19,1.22,7.73,2.03,4.68,1.5,9.28,3.18,13.38,5.98,1.03.7,2.02,1.44,2.79,2.44.36.47.67.98.54,1.6-.12.6-.66.67-.9.3-1.78-2.64-4.64-3.63-7.32-4.84-5.25-2.37-10.73-4.11-16.32-5.53-.32-.08-1.1-.01-.76-.76.19-.43-.07-1.24.86-1.22Z"/>
    <path d="M401.69,35.5c.04.24.06.58-.47.71-.39.09-.44-.06-.58-.38-1.46-3.32-4.24-5.47-6.96-7.64-2.75-2.2-5.73-4.07-9.02-5.37-1.06-.42-.61-1.07-.45-1.72.21-.87.77-.4,1.16-.25,5.66,2.23,10.46,5.64,14.26,10.41.97,1.21,1.71,2.56,2.07,4.24Z"/>
    <path class="cls-57" d="M404.47,37.74c2.15-3.16,2.2-6.83,2.59-10.5,1.87.95,1.71,2.43,1.55,3.82-.27,2.32-1.27,4.34-2.71,6.16-.32.41-.73.5-1.43.51Z"/>
    <path d="M294.15,103.84c-2.59.53-4.98-.31-7.37-.83-3.93-.86-7.8-1.96-11.86-2.04-.8-.02-.76-.31-.48-.9.45-.96,1.11-1.41,2.22-1.42,2.99-.05,5.8.78,8.62,1.56,2.42.67,4.8,1.48,7.21,2.14.79.22,1.34.57,1.66,1.5Z"/>
    <path class="cls-17" d="M294.23,96.35c.23-1.24,1.32-1.7,2.14-2.31,3.35-2.47,6.62-5.04,9.77-7.77,1.13-.98,2.13-2.08,3.28-3.03.52.5.16.9-.13,1.3-1.49,2.01-3.31,3.71-5.18,5.34-2.49,2.18-5.12,4.2-7.87,6.06-.63.42-1.25.6-2.01.41Z"/>
    <path class="cls-17" d="M279.19,120.35c.19-1.03.68-1.76,1.43-2.33,1.58-1.19,3.16-2.37,4.74-3.56.36-.27.69-.6,1.21-.4.4.15.72.39.97.74.48.68-.34.57-.53.82-1.3,1.77-3.1,2.95-4.92,4.11-.89.57-1.84.66-2.91.62Z"/>
    <path class="cls-17" d="M281.4,110.35c.22-.92.7-1.45,1.51-1.74,1.39-.49,2.77-1.04,4.14-1.59.41-.16.83-.19,1.22-.09.62.17.99.74.97,1.3-.01.6-.64.24-.99.34-1.15.34-2.26.79-3.39,1.18-1.09.37-2.17.85-3.47.6Z"/>
  </g>
  <polygon class="cls-29" points="721.76 151.39 681.75 149.53 721.79 148.53 721.76 151.39 721.76 151.39"/>
</svg>