<?xml version="1.0" encoding="UTF-8"?>
<svg id="Ebene_10" data-name="Ebene 10" xmlns="http://www.w3.org/2000/svg" viewBox="0 0 930 325">
  <defs>
    <style>
      .cls-1 {
        fill: #264145;
      }

      .cls-2 {
        fill: #a9dfe8;
      }

      .cls-3 {
        fill: #94d9e5;
      }

      .cls-4 {
        fill: #77cbd9;
      }

      .cls-5 {
        fill: #77c8d5;
      }

      .cls-6 {
        fill: #95d9e5;
      }

      .cls-7 {
        fill: #96dae6;
      }

      .cls-8 {
        fill: #6da9b3;
      }

      .cls-9 {
        fill: #1c454b;
      }

      .cls-10 {
        fill: #222c2e;
      }

      .cls-11 {
        fill: #0e181a;
      }

      .cls-12 {
        fill: #010101;
      }

      .cls-13 {
        fill: #9dd4dd;
      }

      .cls-14 {
        fill: #74c1cd;
      }

      .cls-15 {
        fill: #a7dfe8;
      }

      .cls-16 {
        fill: #4d96a1;
      }

      .cls-17 {
        fill: #6498a1;
      }

      .cls-18 {
        fill: #7db5be;
      }

      .cls-19 {
        fill: #769aa0;
      }

      .cls-20 {
        fill: #aee6ef;
      }

      .cls-21 {
        fill: #4f8790;
      }

      .cls-22 {
        fill: #5ba3ad;
      }

      .cls-23 {
        fill: #96dae5;
      }

      .cls-24 {
        fill: #8bd5e1;
      }

      .cls-25 {
        fill: #36565b;
      }

      .cls-26 {
        fill: #a1dee8;
      }

      .cls-27 {
        fill: #9ed9e2;
      }

      .cls-28 {
        fill: #77bcc8;
      }

      .cls-29 {
        fill: #a4e0ea;
      }

      .cls-30 {
        fill: #afe6f0;
      }

      .cls-31 {
        fill: #a8dde6;
      }

      .cls-32 {
        fill: #a5d9e1;
      }

      .cls-33 {
        fill: #628389;
      }

      .cls-34 {
        fill: #a2d7df;
      }

      .cls-35 {
        fill: #9bdae5;
      }

      .cls-36 {
        fill: #427179;
      }

      .cls-37 {
        fill: #75c5d2;
      }

      .cls-38 {
        fill: #a0d8e1;
      }

      .cls-39 {
        fill: #0a181a;
      }

      .cls-40 {
        fill: #030707;
      }

      .cls-41 {
        fill: #18292c;
      }

      .cls-42 {
        fill: #040606;
      }

      .cls-43 {
        fill: #233d41;
      }

      .cls-44 {
        fill: #313f42;
      }

      .cls-45 {
        fill: #93c9d2;
      }

      .cls-46 {
        fill: #61b4c1;
      }

      .cls-47 {
        fill: #81a8ae;
      }

      .cls-48 {
        fill: #89c1cb;
      }

      .cls-49 {
        fill: #060b0b;
      }

      .cls-50 {
        fill: #050909;
      }

      .cls-51 {
        fill: #9edee9;
      }

      .cls-52 {
        fill: #4f95a1;
      }

      .cls-53 {
        fill: #7bcbd8;
      }

      .cls-54 {
        fill: #a8e3ed;
      }

      .cls-55 {
        fill: #e1f5f8;
      }

      .cls-56 {
        fill: #8dd6e2;
      }

      .cls-57 {
        fill: #76cbd9;
      }

      .cls-58 {
        fill: #8fc4cd;
      }

      .cls-59 {
        fill: #425a5e;
      }

      .cls-60 {
        fill: #a8e0e9;
      }

      .cls-61 {
        fill: #fbfcfc;
      }

      .cls-62 {
        fill: #5e9099;
      }

      .cls-63 {
        fill: #243e42;
      }

      .cls-64 {
        fill: #7ccedb;
      }

      .cls-65 {
        fill: #a5e2eb;
      }

      .cls-66 {
        fill: #7fcfdd;
      }

      .cls-67 {
        fill: #070a0b;
      }

      .cls-68 {
        fill: #4e919b;
      }

      .cls-69 {
        fill: #73c6d4;
      }

      .cls-70 {
        fill: #010102;
      }

      .cls-71 {
        fill: #132124;
      }

      .cls-72 {
        fill: #76c8d6;
      }

      .cls-73 {
        fill: #5eabb7;
      }

      .cls-74 {
        fill: #3d4f52;
      }

      .cls-75 {
        fill: #0b0e0f;
      }

      .cls-76 {
        fill: #50686c;
      }

      .cls-77 {
        fill: #85d2df;
      }

      .cls-78 {
        fill: #9bdbe5;
      }

      .cls-79 {
        fill: #364648;
      }

      .cls-80 {
        fill: #050809;
      }

      .cls-81 {
        fill: #192122;
      }

      .cls-82 {
        fill: #6cbbc8;
      }

      .cls-83 {
        fill: #72959b;
      }

      .cls-84 {
        fill: #000101;
      }

      .cls-85 {
        fill: #5b9ba5;
      }

      .cls-86 {
        fill: #111718;
      }

      .cls-87 {
        fill: #d1edf2;
      }

      .cls-88 {
        fill: #5c99a3;
      }

      .cls-89 {
        fill: #091314;
      }

      .cls-90 {
        fill: #33828e;
      }

      .cls-91 {
        fill: #6098a1;
      }

      .cls-92 {
        fill: #538e98;
      }

      .cls-93 {
        fill: #1a2425;
      }

      .cls-94 {
        fill: #afe5ee;
      }

      .cls-95 {
        fill: #9fd8e1;
      }

      .cls-96 {
        fill: #142528;
      }

      .cls-97 {
        fill: #9bcfd9;
      }

      .cls-98 {
        fill: #4a828b;
      }

      .cls-99 {
        fill: #79cdda;
      }

      .cls-100 {
        fill: #9cdae4;
      }

      .cls-101 {
        fill: #1c464d;
      }

      .cls-102 {
        fill: #030506;
      }

      .cls-103 {
        fill: #0b1b1e;
      }

      .cls-104 {
        fill: #5297a2;
      }

      .cls-105 {
        fill: #4b939e;
      }

      .cls-106 {
        fill: #95dae5;
      }

      .cls-107 {
        fill: #b0e7f0;
      }

      .cls-108 {
        fill: #9dd0d9;
      }

      .cls-109 {
        fill: #79cad7;
      }

      .cls-110 {
        fill: #34818d;
      }

      .cls-111 {
        fill: #43747b;
      }

      .cls-112 {
        fill: #aadde6;
      }

      .cls-113 {
        fill: #529ba7;
      }

      .cls-114 {
        fill: #5fa3af;
      }

      .cls-115 {
        fill: #7acdda;
      }

      .cls-116 {
        fill: #81cad6;
      }

      .cls-117 {
        fill: #10282c;
      }

      .cls-118 {
        fill: #aae0e9;
      }

      .cls-119 {
        fill: #44575b;
      }

      .cls-120 {
        fill: #9ad3dd;
      }

      .cls-121 {
        fill: #a6dae3;
      }

      .cls-122 {
        fill: #020303;
      }

      .cls-123 {
        fill: #284549;
      }

      .cls-124 {
        fill: #86d3df;
      }

      .cls-125 {
        fill: #4c828b;
      }

      .cls-126 {
        fill: #8fd7e3;
      }

      .cls-127 {
        fill: #aadce5;
      }

      .cls-128 {
        fill: #080b0c;
      }

      .cls-129 {
        fill: #1a2d30;
      }

      .cls-130 {
        fill: #90d4df;
      }

      .cls-131 {
        fill: #a9e0e9;
      }

      .cls-132 {
        fill: #a9e3ed;
      }

      .cls-133 {
        fill: #66afbb;
      }

      .cls-134 {
        fill: #5d98a2;
      }

      .cls-135 {
        fill: #05090a;
      }

      .cls-136 {
        fill: #a4e0e9;
      }

      .cls-137 {
        fill: #385f66;
      }

      .cls-138 {
        fill: #5da1ac;
      }

      .cls-139 {
        fill: #abe0e9;
      }

      .cls-140 {
        fill: #779ba2;
      }

      .cls-141 {
        fill: #e4f7fa;
      }

      .cls-142 {
        fill: #1e2f33;
      }

      .cls-143 {
        fill: #33585f;
      }

      .cls-144 {
        fill: #1c3033;
      }

      .cls-145 {
        fill: #245158;
      }

      .cls-146 {
        fill: #a3d7e0;
      }

      .cls-147 {
        fill: #94d7e2;
      }

      .cls-148 {
        fill: #33585e;
      }

      .cls-149 {
        fill: #020505;
      }

      .cls-150 {
        fill: #296871;
      }

      .cls-151 {
        fill: #0d1111;
      }

      .cls-152 {
        fill: #91c3cb;
      }

      .cls-153 {
        fill: #7dcedc;
      }

      .cls-154 {
        fill: #49929e;
      }

      .cls-155 {
        fill: #a5dee7;
      }

      .cls-156 {
        fill: #070909;
      }

      .cls-157 {
        fill: #99dce7;
      }

      .cls-158 {
        fill: #b0e6ef;
      }

      .cls-159 {
        fill: #080e0f;
      }

      .cls-160 {
        fill: #799ea4;
      }

      .cls-161 {
        fill: #7ecfdc;
      }

      .cls-162 {
        fill: #55a2af;
      }

      .cls-163 {
        fill: #030404;
      }

      .cls-164 {
        fill: #b2e8f1;
      }

      .cls-165 {
        fill: #314649;
      }

      .cls-166 {
        fill: #75c4d1;
      }

      .cls-167 {
        fill: #9fd1d9;
      }

      .cls-168 {
        fill: #75c9d7;
      }

      .cls-169 {
        fill: #abe2eb;
      }

      .cls-170 {
        fill: #7bc9d5;
      }

      .cls-171 {
        fill: #273335;
      }

      .cls-172 {
        fill: #92d8e4;
      }

      .cls-173 {
        fill: #010203;
      }

      .cls-174 {
        fill: #aee4ed;
      }

      .cls-175 {
        fill: #3e8590;
      }

      .cls-176 {
        fill: #b1e7f0;
      }

      .cls-177 {
        fill: #223a3e;
      }

      .cls-178 {
        fill: #8abdc6;
      }

      .cls-179 {
        fill: #151b1c;
      }

      .cls-180 {
        fill: #60b0bc;
      }

      .cls-181 {
        fill: #080a0b;
      }

      .cls-182 {
        fill: #61a7b3;
      }

      .cls-183 {
        fill: #76c8d5;
      }

      .cls-184 {
        fill: #101a1c;
      }

      .cls-185 {
        fill: #0f1415;
      }

      .cls-186 {
        fill: #97d2db;
      }

      .cls-187 {
        fill: #6bb8c4;
      }

      .cls-188 {
        fill: #6ca6af;
      }

      .cls-189 {
        fill: #76c9d7;
      }

      .cls-190 {
        fill: #11292d;
      }

      .cls-191 {
        fill: #020404;
      }

      .cls-192 {
        fill: #a5dce5;
      }

      .cls-193 {
        fill: #8cb6be;
      }

      .cls-194 {
        fill: #ade5ef;
      }

      .cls-195 {
        fill: #415558;
      }

      .cls-196 {
        fill: #7da3a9;
      }

      .cls-197 {
        fill: #030405;
      }

      .cls-198 {
        fill: #010202;
      }

      .cls-199 {
        fill: #68bbc9;
      }

      .cls-200 {
        fill: #d1eef2;
      }

      .cls-201 {
        fill: #8bceda;
      }

      .cls-202 {
        fill: #192022;
      }

      .cls-203 {
        fill: #74c8d6;
      }

      .cls-204 {
        fill: #63929b;
      }

      .cls-205 {
        fill: #aadee7;
      }

      .cls-206 {
        fill: #67b5c2;
      }

      .cls-207 {
        fill: #173236;
      }

      .cls-208 {
        fill: #2a6a74;
      }

      .cls-209 {
        fill: #010304;
      }

      .cls-210 {
        fill: #ace5ef;
      }

      .cls-211 {
        fill: #76cad8;
      }

      .cls-212 {
        fill: #58a6b2;
      }

      .cls-213 {
        fill: #fcfdfd;
      }

      .cls-214 {
        fill: #4a7f88;
      }
    </style>
  </defs>
  <rect class="cls-189" x=".11" y=".46" width="930.16" height="325.05"/>
  <g>
    <path class="cls-57" d="M930,.5v324.5h-425.77c-5.55-.44-11.42-.41-16.99,0h-3c-3.2-.47-6.78-.43-9.99,0h-20.14c-1.44-1.71-2.21-1.71-2.31,0H.5c-.44-26.94-.44-55.75,0-82.87,0-1.69,0-3.36,0-4.99C.06,193.36.06,147.23.5,103.34c.27-4.14.53-8.36.78-12.67-.79-.96-1.06-2.09-1.03-3.34V.32c309.96-.22,619.87-.16,929.75.18Z"/>
    <path class="cls-87" d="M0,89.86V0h930v.5H.49s.02,86.29.02,86.29c-.06,1.64.36,2.67,1.56,3.6-.35,2.31-.35,4.45-.87,6.66-.59,2.52.37,6.54-.69,6.29-.17-4.45-.34-8.94-.5-13.48Z"/>
    <path class="cls-200" d="M.5,237.14c-.14.44-.31.43-.5,0V103.34c.09-.45.26-.43.5,0v133.79Z"/>
    <path class="cls-200" d="M.5,325h-.5v-82.87c.14-.44.31-.43.5,0v82.87Z"/>
    <path class="cls-20" d="M454.1,325h-2.31c-.84-.95-2.16-1.04-3.58-1.76,1.92-.55,3.83-.33,6.14-.53.22.88-.2,1.55-.26,2.29Z"/>
    <path class="cls-172" d="M504.23,325h-16.99c-.04-.39.46-.51.98-.51h15.03c.52,0,1.02.12.98.51Z"/>
    <path class="cls-141" d="M.5,103.34c-.16-.04-.34.02-.5,0v-13.48c.19-.06.49.18.49.53v12.95Z"/>
    <path class="cls-106" d="M484.24,325h-9.99c-.04-.38.46-.51.97-.51h8.05c.52,0,1.01.13.97.51Z"/>
    <path class="cls-55" d="M.5,242.13h-.5v-4.99h.5c.67,1.54.96,3.55,0,4.99Z"/>
    <path class="cls-164" d="M458.28,136.83c.39.05.98.17,1,.45.26,3.37.25,8.88-.02,12.25l-1,.72-.48.99c-35.82-.74-71.45-1.34-108.12.88l-69.3,5.89,51,.25c32.39,1.78,64.76.93,97.12.08,1.18-.03,2.51.5,3.18,1.49l2.63,8.18,19.53-.53c1.52.22,1.86,1.69,2.04,2.94,1.48,0,2.3.4,2.45,1.22.39,0,.99.1,1,.34.31,6.63.3,14.63,0,21.27l-1,.59c-.11.98-1.18,1.3-3.21.98,1.52,4.2,2.75,8.43,3.18,12.9l1,.46c.02,10.94.05,21.89.07,32.84l-1,.61c.21,18.73.24,37.52.09,56.37l-.47,2.98c.63,3.74.65,7.35.06,10.83-.8.03-1.56.31-2.27.86-5.07-.08-10.09.04-15.05.36-.27,1.54-4.18,1.44-4.55-.04-1.13-.55-1.99-.61-3.32-.39-1.64-.3-3.01-.15-4.11.43l-.47,1c-45.74.19-91.48.37-137.23.56l-.63-1c-.35-1.05-3.5-1.18-3.66-2.37-.22-1.65,1.86-1.55.58-3.2l-1.52-.86c-5.64-6.45-11.22-12.96-16.75-19.51l-.66-1.61c-.77-.91-.85-1.62-.24-2.12-1.15-.24-2.25-.71-3.3-1.41l-1.54-.15c-6.03-8.75-14.24-12.02-23.93-15.38l-16-8.11c-18.34-8.03-36.58-15.58-54.72-22.66l-1.99-1.99c1.37-2.55,0-4.65-4.12-6.28l-.12-.75c-1.96.08-2.06-.8-1.63-2.53-.48-.29-.99-.25-1.53.12-1.73.64-2.24-3.15-2.03-4.41.26-1.6.85-4.38,2.69-3.18,1.13-.38,2.39.07,3.76,1.37l4.15-1.1,1.05.71c1.22-.51,2.48-.91,3.77-1.2,1.07-.75,1.99-.85,2.76-.32.45-1.66,3.52-3.88,4.73-1.64,3.85-2.9,7.59-7.16,8.86-11.9,3.01-2.41,3.64-5.18,3.96-8.85.2-2.37.08-4.8-.04-7.18l.89-.79c.04-.97.42-.98.68-.03,3.47-6.14,5.6-13.01,6.39-20.61,2.2-2.63,3.53-5.49,3.99-8.59,4.12-6.91,7.7-15.85,4.01-23.62l.56-1.21,1.64-1.23c59.74-3.11,118.77-4.94,178.65-4.34,21.71,1.2,43.41,2.55,65.1,4.05.92.07,2.02.56,2.57,1.31l.88,4.81Z"/>
    <path class="cls-164" d="M641.18,75.99c1.38.52.91,2.33-.51,2.35.77.61.66,1.52-.34,2.74-4.31,3.8-8.02,9.39-8.48,15.13l4.07-.56.5.51c.94-.25,1.54-.19,1.8.18.29,1.39.53,2.81.32,4.56-.74-.65-.23-1.59-.6-2.31-.5-.34-.89-.2-.83.35-.02,5.91.77,11.75,2.39,17.53l-.81.8c.58,1.75.65,3.34.2,4.76-15.03.16-30.06.5-45.08,1.01l46.77,3.96c.9.09,1.61.68,2.16,1.78l1.28.61c4.82,9.12,3.37,19.09.3,28.56-5.45,12.96-10.06,24.12-10.09,38.56-.02,9.83,3.52,21.33,8.57,29.73-.05-.94.22-1.62.79-2.04-.14-1.17,1.11-1.15,2.07-1.55,1.53-.63,2.55-2.37,4.02-2.56.45.17.45.35.01.54l-.58.53.09,1c-3.34,5.72-6.81,11.86-7.53,18.46.87.04,1.24.58,1.11,1.63,2.43-.68,3.7-.38,3.81.9.28.16.47.48.57.96.5-.96.76-.43,1.04.51.38-1.36,2.41-1.5,2.8-.07,1.19-.2,1.37.23.9,1.24,2.14,6.45,4.33,12.9,6.58,19.35l-.81,1.03c.55.94,0,1.29-.89,1.49,1.02,2.08,2.48,3.75,4.24,5.28.36-.15.93-.34,1.09-.12,5,7.19,7.11,13.71,8.68,22.63.33,1.85,1.72,16.74,1.4,17.57-.27.69-.55,1.12-1.31,1.33-64.13.33-128.23.69-192.3,1.08l-.83-.45c-1.02.84-3.55.82-4.5.05-.53-.88-.77-2.06-.73-3.54-.13-7.67-.09-15.32.11-22.94l-.94-.34c.02-36.31.03-54.47.03-54.47l1-.6c.06-36.9.63-74.1.64-111.2l.23-1.03c37.42-5.02,74.98-8.02,112.78-11.02,2.36-.07,4.63.08,6.82.44.34-.17.34-.33,0-.5l-4.26.08c-39.63-4.37-77.99-8.59-115.09-12.63l-.47-1.06c0-2.84-.41-5.79-.04-8.85l12.23-.1c.87-.4,1.3-2.06,1.73-3.02-2.27-.78-4.54-.4-6.8-1.71.87-2.03,1.82-3.84,2.92-5.45,4.35-.92,8.42-.48,12.92-.79,21.09-1.45,41.66-2.5,62.87-2.12l55.65,1,26.33.83Z"/>
    <path class="cls-57" d="M458.3,10.49c.37.4.67.8.71,1.23.33,3.59.66,8.05-.7,11.25-.81.08-1.59-.25-2.36-.99-1.68.89-3.48.68-5.41-.64l-2.65.9h-54.67c-1.42-.7-2.88-1.14-4.38-1.33-3.24-.05-6.09.48-8.54,1.59-.1.39-.26.96-.57,1-1.98.24-5.83.14-7.9,0-1.84.35-3.03.02-3.57-.99-2.94-1.96-5.67-1.83-8.89-.29-8.42-.13-16.77-.03-25.07.32-.12.44-.29.45-.5.03-3.9,2.01-2.78,3.07.89,4.24.07.43.24.66.53.67,2.68-.91,3.18-.8,5.55.57,1.89-1.6,3.84-.67,5.61.46,1.18-1.17,4.13-1.22,4.72.42l1.5.18c1.84-1.8,5.67-.99,7.45.8,2.77-1.79,5.21-1.31,7.88.22,3.29-1.04,6.75-1.28,10.35-.73.13-.41.3-.4.5.01,2.6,2.2,4.06,1.78,6.84.3,23.07-.03,46.15,0,69.23.1,1.59.58,2.72,1.45,3.39,2.58.39,0,.98.1.98.35.34,34.35.35,69.18.04,103.37l-1,.73c-1.52-1.1.03-5.05-4.08-5.17-11.45-.33-22.43-1.12-33.89-2.26-15.53-1.55-30.39-1.93-46.03-1.82l-65.48.43-83.86,3.23c-5.52.21-10.52.25-15.49.99-2.18.53-4.31-4.2-3.23-6.14l5.03-7.81c1.01-1.43,1.46-2.94,1.36-4.54-.55-1.72-.58-3.18-.09-4.37l.37-.99,48.46,1.06c20.59-.2,41.19-.78,61.79-1.73,16.26.51,32.49,1.02,48.68,1.55,0,0,28.35-1.48,85.04-4.44l-.52-27.14.99-.61c-1.98-.24-3.86-.46-5.65-.66-1.07,1.3-3.59,1.44-5.22,1.16-1.18-.2-3.71-1.46-4.12-2.6-.45-.11-.48-.29-.11-.56-1.56-2.09-2.67-2.78-3.34-2.09-10.76.37-21.51.42-32.26.16-1.62.18-2.82-.29-3.59-1.41-2.34.91-4.57,1.43-7.25.89-.09.43-.26.39-.49-.05-.71-.68-1.42-1.05-2.13-1.09-2.34,1.52-5.1.88-7.27-.58-3.19,1.13-8.47,1.77-11.04-.69-3.44,1.15-7.19,2.02-10.28-.52-2.91,1.46-6.15,1.73-8.84-.46-3.25,1.26-5.71,1.74-8.52-.51-2.46,1.55-4.23,1.52-6.5-.38-4.82,2.89-8.8-1.22-2.92-3.81.74-1.5,4.91-1.8,5.52-.09,5.89-.23,11.79-.17,17.7.18,2.88,1.28,5.76,1.71,8.64,1.28,3.41-1.31,7.06-1.62,10.95-.93,4.14,1.83,7.36,1.7,9.68-.4.16-.95.6-1.01,1.01-.13l5.52-.02c1.63,1.05,2.96.93,3.99-.37.1-.45.26-.46.49-.05l1.96-.19c1.62.3,3.16.56,4.64.76,1.73-1.7,3.76-1.27,5.72-.23,1.5-1.66,3.35-1.88,5.57-.65,2.25-2.19,5.31-1.29,7.94-.48,1.21-1.42,2.85-1.54,4.58-.92l4.44-1.24c1.5.67,1.42,0-.26-2.03-.45-.05-.48-.21-.09-.48-.5-1.93-1.38-1.75-2.93-.9.1.95-.33.96-.66.03-.95-1.17-1.8-1.42-2.54-.74-1.47.44-2.87.12-4.18-.95-2.37,1-4.68.71-6.93-.87l-.89.89s-5.79.07-17.37.22c-.44,1.41-1.71,1.32-2.03-.1-.85-.66-1.77-1.16-2.76-1.49-3.13,1.58-8.5,2.04-11.24-.22-2.68.89-5.91,1.69-8.19-.44-2.92,1.29-5.27,1.13-7.06-.46-3.05.91-4.5,1.16-7.08-.8-2.83,1.88-6.06,1.21-8.74-.58-3.67,2.15-7.97,1.36-11.6-.64-3.89,1.98-10.21,2.15-13.86-.44l-1.48.22c-1.47,1.19-3.45,1.49-5.94.89-.16.4-.32.38-.49-.05-.57-.33-1.1-.7-1.59-1.13-1.81,1.31-5.43,1.28-6.84-.5-2.61.92-5.03,1.43-7.26-.51-1.73,1.44-4.85,1.08-6.43-.48-2.96,1.23-5.36,1.07-7.2-.48-2.84,1.08-4.95,1.1-7.31-.62-2.31,1.32-4.49,1.04-6.74-.4-2.96,1.07-3.88.75-6.41-.68-2.16,1.25-3.93,1.12-5.29-.38-2.5,1.19-4.49,1.02-5.97-.5-2.6,1.01-4.11,1.13-6.31-.43-2.39,1.13-4.39.94-5.99-.59-2.83,1.11-4.35,1.03-6.81-.41-2.79.93-4.93,1.28-7.42-.52-3.58,1.43-6.54,1.01-9.74-.83-2.42,1.63-5.17,1.45-8.13,1.04-.09.43-.25.39-.49-.04-.86-.74-1.82-1.25-2.89-1.54-3.87,1.96-8.87,1.82-12.54-.57-4.34,1.84-9.44,1.53-14.08,1.09l-1.21.28c-2.55-2.54-5.53-4.57-8.94-6.1-15.47-13.57-34.33-10.48-52.35-7.12-14.42,1.56-28.96,5.76-40.68,14.63l-2.25.45c-.95.29-1.97.29-3.07.01-1.63-1.09-3.11-.96-4.44.37-.09.42-.26.43-.48.04-3.63.02-7.24.2-10.82.55-3.49,1.22-10.29,5.97-3.96,8.22l7.49,3.13c1.24.16,1.96.67,2.17,1.54l-.19,2.18c-2.31,4.41-4.63,8.72-6.98,12.94l-1.17-.22c-1.51-.06-2.45.36-3.83,1.15-2.37-.62-4.79-.16-7.24,1.4-.23.42-.41.38-.55-.1-1.01.33-1.17.17-1.79-.46-1.18,1.17-2.59,2.12-4.23,2.87-1.54,2.46-3.37,4.71-5.49,6.76-1.84-.45-3.83-.41-5.98.1-2.58.36-5.66.83-7.83,1.91-1.85.19-3.71.33-5.57.41-.79-.29-1.79.03-3,.96.44.15.43.33,0,.53-.15.44-.32.43-.51,0l-1-.35.39-76.84.77-1.34,355.53-.99.63,1,87.89.07c1.14,0,1.81-.89,2.61-.42Z"/>
    <path class="cls-164" d="M876.48,8.43c-2.32,2.49-2.09,5.97-3.25,9.23-4.78,13.31-11.06,25.67-16.83,38.58s-9.03,27.16-14.84,39.62l-1.4-.08c-15.34-16.29-33.49-29.29-53.12-40.19-2.79-1.55-5.62-2.5-8.86-2.4-11.25.78-22.57,1.31-33.94,1.6-1.04,2.38-1.54,4.95-1.5,7.72l-1.08.46c-4.84,2.82-9.15,6.65-14.63,8.78-4.27,1.66-8.23,3.24-12.38,5.14-8.85,4.04-19.98,2.85-27.11-3.46-.89.09-1.13-.08-.41-.67.02-.97.24-1.41,1.14-1.59-3.44-3.08-6.75-6.18-9.95-9.29l-6.51,2.04c-10.05.59-18.82,7.01-26.07,13.72-1.44.47-2.44.25-1.56-1.3-.2-.73-.42-1.51-.25-2.26,4.62-20.16,14.41-43.17,24.83-61.08.35-.6.73-1.01,1.5-1.05.74-.72,1.67-1.13,2.79-1.22.3-.82,1.05-2.06,2.11-2.07,24.85.12,49.7.06,74.54-.18l.35-1c41.94-.02,83.88-.03,125.84-.05l.62,1Z"/>
    <path class="cls-164" d="M775.08,105.73c.69-1.74,4.68-1.25,4.97.59.44.14.45.32.03.55l-.55,1.01c-2.1.53-4.11,1.44-6,2.74l-1.01-.63c-1.39.57-2.21,1.37-2.47,2.39.5.89,0,1.9-1.47,3.02-2.34,2.81-6.3,6.46-9.44,7.9-.03.38.16.71.59.99,2.05-1.44,4.63.62,1.37,1.57l.25.6c5.89.02,11.81.31,17.74.86-2.11-.18-2.09-.75-1.26-2.38,3.33-1.47,4.47-4.93,4.31-8.36l.96-.77c-.09-1.09,1.04-1.68,3.38-1.77.08.54.32.5.72-.12,3.36.18,6.62,1.55,10.07,2.22,6.52,1.26,11.72,4.49,17.45,7.46l13.89,7.19,12.04,4.89c.75,2.97,2.83,5.17,5.79,6.29,6.93,2.62,14.07,4.27,21.23,6.21,1.66.45,1.05,3.29.77,4.39-2.06,8.2-4.79,15.53-7.74,23.36-6.06,16.11-9.68,21.89-20.38,35.53-7.17,3.77-15.54,4.42-23.46,4.61-9.43-6-16.11-16.42-27.39-18.83l-26.7-5.7c-2.43-.52-1.84-4.23-8.1-4.92-2.69-3.53-4.86-7.38-6.12-11.6-1.15-.38-1.99-.52-2.86-.67-.29.37-.49.33-.59-.13l-.26.69c.55,2.01.35,2.94-.59,2.81-.31.22-.77.53-1.02.36-.97-.62-4.44-4.24-3.61-5.38.14-3.4-2.35-9.07-2.34-11.14.02-4.94-1.24-10.77-.02-15.65l12.06-24.73c2.38-1.17,4.34-1.92,6.41-3.31,1.08-4.95,4.86-5.5,6.89-7.59,5.58-5.77,5.34-3.93,12.48-4.56Z"/>
    <path class="cls-164" d="M760.54,313.03l-.34,1c-14.98,0-29.96.01-44.94.02l-.6-1c-5.3-.4-10.69-.67-16.17-.79l-.84.79-.45,1-22.77.27c-1.39-.38-1.7-.8-1.75-2.37-.04-10.74-1.67-21.06-4.88-30.97-1.03-1.47-1.41-2.93-1.16-4.36-.83-1.33-.37-2.56,1.4-3.69l5.64-4.93c.5-3.14,1.51-7.36,5.5-5.99l.87-.75c7.28,3.06,14.32,5.05,22.29,2.96l1.25.79c1.9.04,4.22.86,6.46-.05,3.41-1.39,6.92-1.39,10.53-1.94,4.43-.67,8.52-1.62,13.08-1.53,3.44.07,7.01-1.02,10.46-.3,6.68,1.4,13.1,2.06,19.91,2.66,3.49.3,7.12,2.27,9.69,4.41,2.19,1.83,3.15,8.53,5.1,6.93l6.14-5.05c.73,1.21.65,2.41,1.89,3.69l14.48-12.47-.48-10.81c4.54,6.45,11.63,16.91,12.63,24.07.92,6.62-7.17,19.75-10.78,25.52-4.92,7.87-4.33,4.13-2.37,12.42-13.33-.3-26.67.45-39.76.45Z"/>
    <path class="cls-164" d="M657.66,31.46l-.51,3.14c-5.55,10.92-9.55,22.69-12.45,34.27-.15.72-.78.93-1.52.99l-33.88-2.22-32.03-2.01-63.98-2.72-21.51-.22c-5.91-.06-11.56-.74-17.32-2.56.69-1.5,1.58-3.2,2.85-3.83l17.14-1.13,4.99-6.89c-3.73-.75-7.07-1.73-10.79-2.23s-7.99-.24-11.68-.98c-.78-.16-2.31-1.8-2.03-2.53.93-2.46-.97-3.31,3.69-9.7,6.81-2.22,13.57-2.06,20.59-2.86,8.44-.97,16.45-1.66,25.01-1.46l32.5.75,58.95.89,41.99,1.3Z"/>
    <path class="cls-90" d="M784.98,223.17c.09.66.88,1.07,1.13.96l1.28-.02c2.76,4.49,4.43,9.54,5.02,15.15l-.83.89c-1.89,3.42-2.78,1.09-4.46,2.88-.86.6-1.98.26-3.36-1.02-4.28,1.82-8.67,3.07-13.19,3.74l-6.26-1.19c-2.62.48-4.73.02-6.32-1.37-1.45.69-3.09.45-4.91-.71,3.21,2.47,2.06,4.55-1.83,2.99-2.85.62-5.82.73-8.91.32-5.37,1.71-8.72.27-13.18-2.61-3.2-1.5-.99.58.54,1.73l-.18,1.17c.5,1.02-1.52,1.02-2.41.6-1.97,2.98-5.13,1.03-7.33-.86-3.48-4.11-4.58-5.03-3.29-2.77.18.55.13,1.17-.2,1.66-.61.91-7.21,2.77-8.29,1.04-.92.97-1.83,1.46-2.74,1.45-.9,1.27-2.02,2.09-3.58,1.59-2.4-.78-5.04-11.87-5.5-14.74.39,3.52,1,7,1.84,10.44-2.13,1.41-4.49,2.39-7.1,2.93-3.34,1.24-5.58.85-6.72-1.18l-4.97,2.26c-1.59-.01-3.22-.27-4.87-.77l-2.26-2.21c-2.77,1.16-5.5,1.6-8.19,1.32-.98-1.38-2.8-1.61-5.44-.69-1.16,0-1.61-1.04-1.74-2.04-2.44.03-4.35.19-5.73.47-.93,0-1.87.16-2.8.07-.33-.63-.68-1.13-1.04-1.5-.03.56-.33.57-.57.04-.99-1.02-3.78,1.09-4.7-.47-.31-.52-.01-1.4-.22-2.06,1.54-12.4,14.87-31.37,26.98-35.47,1.26-.43,2.75-.86,3.99-.45.37-.7,1.21-1.05,2.53-1.04,7.12,1.81,14.57,2.06,21.86,1.16l1.35.8c3.93-.31,7.83-1.45,11.69-3.44l.55.5,1.5.5c.51-.53,1.34-.88,2.5-1.04.27-.57.69-.89,1.3-.92,5.05-.23,9.35.68,14.12,2.25,13.59,5.09,27.67,9.45,42.24,13.08,2.76.79,11.15,3.45,12.31,5.58.18.32.29.67.39,1.03Z"/>
    <path class="cls-164" d="M54.97,152.31l1.63,1.79c3.65,9.29,8.07,18.11,13.26,26.46.09,2.34-.02,15.11-.96,16.39-2.6.97-4.78,2.76-6.53,5.38-5.61,4-9.28,10.03-7.13,17.05-1.17,2.07-2.99,3.75-5.45,5.03-10.43,6.39-20.44,13.35-30.02,20.86l-1.25-.19c-2.42.51-4.74.78-7.56.83l-.09-37.74-.67-1.46c-.5-7.18-.91-14.86-.38-22.08.04-.49.21-.97.4-1.45s.47-.97.75-1.43c.14-9.15.34-18.28.62-27.4l.29-.56c2.54.24,5.08.27,7.61.09-.08-1.49,1.12-1.48,1.5-.09l.27-.52c2.41.26,4.82.3,7.23.11.19-1.02.64-1.04,1-.08l.64-.45c2.46.23,4.91.24,7.36.03.01-1.4.37-1.29,1-.08l.31-.54c2.73.29,5.46.33,8.18.1.13-.46.3-.47.5-.03l.82-.53c2.26.06,4.49.23,6.68.5Z"/>
    <path d="M823.56,315.98c-5.98.47-12.45.45-18.49.02l-105.87.13-25.17.2c-.38,0-.85,1.19-1.19,1.23-.56.07-.88-1.1-1.27-1.13-5.7-.49-11.34.05-16.92.05-.16.43-.48.67-.94.69-22.35.31-44.52.1-66.52-.66-2.4.42-5.47.44-8-.04h-39.48c-2.86.47-6.22.43-9,0l-.09.28c-15.53.32-30.99.2-46.39-.36-2.18-.9-4.66-.41-7-.39-.93-.34-.76-.69.5-1.03,3.93-.39,7.72-.36,12.08-.4l84.4-.77,96.99-.45-1.28-16.11c-.4-5.07-1.35-9.84-3.32-14.52l-5.6-9.78c-1.85-1.19-3.73-4.63-3.35-6.76-.38-2.42-1.68-4.61-2.42-7.15l-4.24-14.47c-.1-.18-.19-.78.23-.83l6.03-.76c.6.69.43,1.54.86,2.28,11.53-2.42-.5,3.78,14.63-1,.25,1.36,1.53,2.47,2.91,2.94.41.14,1.2-.4,1.56-.33.32.06.61.98.98,1l6.84-3.1c.33.63.26,2.31,1.1,2.3,3.9-.07,7.5-1.38,11.18-2.97-1.38-3.75-2.89-9.46-1.71-12.7.11-.29,1.33-.53,1.36-.13.28,5.29,1.84,10.16,3.98,15.06.29.65.47,1.4,1.02,1.53.66.17,1.34.06,2.09-.43-.55-1.3-3.39-6.04-1.97-6.94,1.25-.79.99,3.65,3.7,6.15.47-.96,1.17-1.39,1.78-1.73.98-.54,1.65.69,2.57.69,1.95,0,3.63-1.11,5.51-1.4.12-1.35-1.53-3-.52-3.78,1.51-1.18,4.07,4.92,8.09,6.58,1.26.52,2.78-.41,3.9-.31.87.38,2.1.49,2.41-.6-.8-.8-2.99-2.02-2.99-3.39,0-3.97,7.86,3.72,11.01,2.97,3.44-.82,5.92-1.3,9.68-.5,1.75.37,4.33-1.98,6.49.39,1.39-1.12-2.53-2.44-2-3.62.71-1.58,3.68.83,4.93.85.47,0,.93-.73,1.27-.63.42.12,1.27.35,1.46.66,1,1.66,1.77.82,3.06.72,2.43-.19,5.19.68,7.61,1.15,2.63.51,4.09-.41,6.34-1.3,2.37-.93,5.16-.92,7.43-2.6l3.3,2.26.18,2.45c-.44.18-.78.17-1.11.18-.58-.06-.75.09-.5.46,3,2.47,5.69,5.37,7.82,8.8-4.8,3.47-6.39-5.61-15.23-7.87-1.63-.42-3.98-.97-5.66-.7-5.4.87-10.59,2.08-15.86,3.49l-12.65,3.37-9.82,2.72c-10.48,2.9-20.72,5.8-30.7,9.08-5.35.99-10.97,1.85-16.38-.1l-8.02-2.89c-1.83.25-2.75-.16-4.05-1.48l-5.88-6.57c-1.71-.59-2.39-1.38-2.06-2.38-.78-1.11,1.35-1.24,1.95-.48.39-.25.74-.41,1,0,.61,0,1.18.45,1.5,1,.57-.33,1.2-.22,1,.5l.5-.5c-.56.02-1.19.03-1.5-.5-.63.02-1.17-.45-1.5-1-.15.33-.32.33-.5,0-1.54.4-2.55.23-3.01-.51l-1.12.4c-3.48-1.28-7.09-2.23-10.83-2.85-.52-1.75-.88-2.27-1.07-1.57l4.21,11.02-.67,1.04c.98-.33,1.14,1.52,1,2.41,1.95,1.94,3.45,4.34,4.51,7.21,2,2.85,3.33,5.81,3.97,8.87,6.6,10.65,5.87,24.5,7.18,36.71l23.82-.29c.02-.45.2-.81.58-.8,5.47.13,11.01.4,16.43.79l45.89-.02,39.02-.1h23.09s75.81-.28,75.81-.28l23.6-.18c.17-4.78-.03-9.2-.06-13.97l-.23-40.2-.26-50.64-.25-56.09-.24-58.25-.13-82.25c0-.52.37-.88.44-1.07s.85,0,.86.49l.47,23.88.51,51.91.5,65.89.52,67.86.23,36.66.5,56.73c0,.78.65,1.13-.42,1.67-.47.24-.73,1.02-1.32,1.23-.47.17-.92-.64-1.76-.64l-97.87.31Z"/>
    <path class="cls-164" d="M662.02,183.72l-.59-1.53c5.23-14.77,13.8-28.23,22.46-41.03,4.71-6.87,8.75-14.06,12.12-21.55l1.17-.36c1.37-1.51,1.66-2.52.92-4.44-.74-.52-1.05-1.43-.93-2.73l-.82-2.23c-3.05-4.59-7.31-8.03-12.77-10.33l.06-.72c-.38-3.24,12.07-10.68,14.81-11.93,4.61-2.1,9.71-1.68,14.66-1.81,7.06-.19,13.57.96,19.79,4.14.92.47,2.16-.34,2.78.9.29.58.7,1.53.97,2.36s2.82,2.13,1.69,3.19c-6.06,5.72-13.41,10.8-17.5,18.3l-12.84,23.55-11.19,22.19,3.65,11.76c5.28.65,5.93-2.4,13.23.77,2.36,1.02,5.3,1.23,7.07,3.43,4.56,5.66,6.6,10.67,9.35,17.56-5.45,1.54-11.84-6.11-21.04-8.86-5.98-1.79-12.05-2.72-18.18-3.87-2.98-.56-5.57.5-7.96,2.09-2.85,1.88-5.38,3.71-7.75,6.21-.83.88-2.67,1.72-3.75,1.31-2-.76-2.57-2.9-4.01-4.05-1.62-1.29-5.66-.29-5.37-2.3Z"/>
    <path d="M460.2,23.96c.5,1.93.46,4.06,0,5.99l.25,47.13.22,52.22.26,62.71.24,67.59.2,53.32c0,.79.93,1.19.84,1.92-1.02.73-1.8,1.47-2.56,2.38-.59-.54-1.02-1.2-1.98-1.2l-39.36.06-29.97-.08c-.36,0-.66.11-.56.39-.05.24-.1.43-.15.43-9.03.12-18.43.07-27.33-.32-3.27.4-7.12.38-10.49-.03-4.16-.01-8.33,0-12.49.01-5.8.74-11.81.49-17.49.01l-58.04.28-132.35.4-116.26.11c-.55,0-.99-.23-1.09-.52-.08-.26.26-.87,1.02-.87l104.75-1.09,172.53-1.21,138.33-.56c1.02-.59,2.49-.74,4.41-.44,1.61-.91,2.62-.78,3.02.41l4.55.04c4.84-.32,9.73-.44,14.67-.36,1.21-.52,2.23-1.11,3.06-1.77-.3-4.41-.3-8.77,0-13.1.15-18.79.12-37.51-.09-56.19l-.08-33.91c-.96-4.35-1.12-8.72-.97-13.17l1-.72v-22.2l-1-.33c-.02-6.82-.03-13.64-.05-20.46l1-.59.02-13.42v-13.55s-.05-44.92-.05-44.92l.03-45.98c-1.4-.42-1.42-2.12.02-2.46-1.49-1.34-1.36-5.04.02-6.45-.43-.19-.42-.36.02-.5.06-4.16.17-8.32-.01-12.48.16-.27.4-.48.48-.7.11-.34.86-.2.88.25l.54,13.92Z"/>
    <path d="M367.8,10.84l-232.33.73-81.92.2-41.67-.18-.17,31.97-.22,45.81c.41.83.36,1.69-.01,2.53.39.05.98.18,1,.45.25,3.43.27,9.3-.04,12.68.3,1.53-.03,2.5-1.01,2.9.4.05.99.19,1,.47.24,10.56.09,21.98-.25,32.55,0,.15-.36.29-.81.42-.03,2.21-.03,4.42,0,6.65,1.24.81,1.17,4.55-.03,5.41l-.36,28.34c-.59,8.75-.13,17.65-.1,26.42-.26-.08-.37.16-.37.64l-.83,104.62c-1.75-2.52-1.25-5.85-1.25-9.02l.08-132.18c-.24-.08-.43-.15-.43-.24-.16-5.5-.2-11.4-.06-16.9,0-.12.23-.23.52-.33,0-2.33.13-4.66,0-6.99-.64-1.88-.36-4.45,0-6.49v-37.44s-.46-.73-.46-.73c.02-4.6.17-9.18.46-13.74l.27-7.77.11-72.04c1.22-.96,2.13.59,3.28.58l81.28-.88,112.89-.67,64.07-.31,183.71-.75c1.71,0,3.58-.13,4.04,1.59-.3.94-2.19,1.38-3.49,1.38h-86.26c-.46,0-.71.08-.63.35Z"/>
    <path class="cls-164" d="M688.24,130.18l.23,1.05c-1.01,2.82-2.44,5.5-4.3,8.04-9.57,13.39-17.68,26.91-23.63,42.37-1.41,3.66-1.52,7.97-.3,11.7l-.56,1.33c.46,1.94-3.71-.48-5.5.11-3.55,2.75-6.46,6.48-8.3,10.61-1.01,2.27-3.6,10-5.71,9.8-.33-.1-.65-.21-.94-.37-4.49-2.62-5.15-26.03-3.1-31.45,2.71-9.59,5.97-19.05,9.75-28.38l1.83-16.76.88-.85c2.8-.95,5.66-2.28,7.97-4.12-.26-1.01,1.15-1.69,1.58-.51,2.28-1.55,3.15-1.52,2.59.1.81.46,1.14,1.35.98,2.66.16-3.31,1.22-4.18,4.16-5.03,7.28-.57,14.57-.84,21.86-.8l.52.51Z"/>
    <path d="M69.44,162.76c.15-.44.34-.44.56-.01,1.59-.28,2.32,4.01,1.32,4.71l.06,1.32c1.35-.24,1.67,3.33,1.56,4.32-.2,1.81-.43,3.22-2.02,4.36,2.23,4.78,1.16,24.8-1.16,27.05-.26.25-.56.45-.87.63-.56,2-2.38,5.62-3.7,2.25-.27-.7.75-7.83,2.36-7.7.34-.69.08-1.47-.59-.93l.04.91c-8.52,10.73-1.22,24.32,6,33.99,11.92,15.99,30,31.86,50.4,34.07l3.05,1.41c.45-.77,1.29-1.02,2.5-.74l5.23-1.91c2.64,1.03,4.41,2.55,5.3,4.56.34.1.67.22.96.39s.55.33.66.57c4.04,8.55,6.26,17.7,8.15,26.92.06-5.15-1.03-10.29-3.25-15.44-1.84-10.18,4.28-16.33,11.18-22.95-.23-9.09-.07-18.22.47-27.37l.73-1.54c-.47-.61-.26-1.41.09-2.01-.95-.86-.66-4.62.77-4.86.27-.75.1-1.72.79-2.49.97.55.61,1.59.75,2.37-.5,1.51-.08,2.44,1.63,2.53,1.77.63,3.55,1.41,5.03,2.84,1.24,1.2,1.14,2.7.04,4.08,1.26,1.34,2.92,1.76,4.59,2.43l28.12,11.25c10.79,4.32,21.06,8.63,31.28,14.07,4.19,2.23,8.17,4.38,12.59,6,4.09,1.5,8.14,2.69,11.69,5.33,3.62,2.69,6.04,6.31,9.07,9.32l2.54,1.12c1,.63,1.33,1.43,1,2.4,6.85,6.82,12.97,14.35,18.92,21.98.06.99-.88.92-1.69.98s-.87-.48-1.29-.95l-1.13.23c-8.7-9.66-17.42-19.36-26.17-29.11-4.79-4.44-10.62-7.37-17.48-8.79-5.59-2.47-11.11-5.09-16.56-7.88l-1.07-1.51c-1.41-.57-2.75-1.23-4-2l-2.55-.16c-15.76-6.49-31.34-12.94-46.74-19.34l-.17-1.15c-.7.09-1.38.33-2.03.73.24.37.46.75.62,1.15.77,1.92-.14,15.18-1.22,16.88-.23.37-.53.7-.84,1.02-7.13,8.23-9.19,5.6-14.11,15.93-5.09,10.68,8.05,18.25-.22,31.87-.59.98-1,1.95-2.15,1.97-.88.02-2.27.42-2.52-.84l-3.04-15.64c-.81-4.15-2.26-7.97-3.48-11.78-.43-.29-.45-.67-.1-1.06.12-.84-.65-1.38-.89-2.04h-.62s-2.55-4.35-2.55-4.35c-.42-.08-.7-.89-1.16-.82-.48.07-.92.27-1.38.48-3.04,1.4-6.19.52-9.33.35-11.83-.65-23.31-7.12-32.43-14.18-7.45-5.76-13.64-12.1-19.47-19.49-5.01-6.36-9.62-12.68-11.76-20.64-.84-3.11-.53-6.22-.3-9.24-.41-.07-.4-.22-.01-.44.26-.71.3-1.46-.57-1.41.28.95.11,1.67-.97,1.48-1.53,2.84-1.55,6.53-.88,9.77.6,2.88-.97,3.68-2.77,4.92l-11.82,8.15c-9.38,6.47-18.33,13.08-26.81,20.66-1.21,1.08-2.32,1.83-4.01,1.19.4-1.34,1.23-2.42,2.25-3.41l4.6-4.45c8.94-8.65,36.28-23.93,35.76-25.66-2.07-6.99,1.01-12.76,6.49-17.01,2.45-1.9,3.94-5.16,7.45-6.02l.67-10.72c.44-7.05,1.1-2.75-3.67-11.14-4.1-7.22-7.88-14.44-10.24-22.22-.53-.09-.67-.29-.41-.59-1.23-.09-2.04-2.15-1.08-2.98-1.69-.25-1.21-.95-.46-2.01-1.37.62-2.87-6.09-2.79-6.51.07-.4.45-.68.79-.92l-1.39-1.39c-2.06-8.81-2.52-19.17-.81-28.08l1.18-1.55-.74-.61c-.21-.5,2.91-9.99,3.45-9.97.26,0,.51.09.76.19.51-1.41,1.76-1.08,1.83.64-7.8,24.67-.48,53.69,13.36,75.12.34.53.66-.22.83-.67l-1.35-9.41c0-.68.59-.85,1.3-.81Z"/>
    <path class="cls-90" d="M217.92,259c1.27.77,2.6,1.44,4,2,6.62,2.52,12.5,6.77,19.52,8.97,5.3,1.66,10.47,3.09,14.65,6.85,2.55,2.29,4.3,5.05,6.58,7.47l10.4,11.05,11.27,12.72c-.94.04-1.14.74-1.82,2.2-16.9-12.02-16.12-9-27.74-26.09-.44-.65-.29-1.49-.9-1.78-.53-.25-1.35.47-1.98.27-3.79-1.2-7.5-1.81-11.31-2.81l-16.56-4.35c-7.88-2.07-15.63-3.3-23.5-5.54-8.42-2.4-16.49-4.68-25-6.52-1.23-.27-1.9-.82-3.31-.75-2.28.11-4.45.02-6.61.74l-1.17-1.78c.66-1.07,1.43-2.43.56-3.54,1.07-6.3,1.19-12.67,1.44-19.04.16-.7.84-.95,2.03-.73l26.31,10.94c7.9,3.29,15.79,5.89,23.15,9.71Z"/>
    <path class="cls-57" d="M593.18,109.83c.44.14.43.31,0,.5l-66.48,5.46-53.35,6.15v-25.72s23.46,2.6,23.46,2.6c32.33,3.59,64.4,6.48,96.36,11.01Z"/>
    <path class="cls-90" d="M841.55,95.85s5,8.13,4.64,10.48c-.06.36-.64.72-1.24.84l-6.4,1.24c-1.69.33-2.36-1.01-3.65-1.52l-2.83-1.12c.36-.42.61-1,.32-1.45-4.16-6.5-13.13-14.92-19.35-19.64-8.5-6.44-20.26-12.11-30.56-14.68-11.78-1.55-23.81-2.78-36.08-3.68l-.26,1.06c-1.58-.09-3.17.08-4.98-.56.17-1.36.08-2.77.5-3.85.24-.61.13-6.26,1.78-9.18,3.2.05,5.92.05,8.88-.12l24.71-1.44c4.66-.27,8.12.86,11.92,3.37,6.59,4.36,13.79,7.56,20.15,12.35l12.26,9.21c5.99,4.5,15.51,13.26,20.19,18.69Z"/>
    <path d="M691.13,6.03c24.11-1.1,49.12-1.51,73.28-.84.26,0,.46.47.62.84l58.56-.11,98.24-.05c.63,0,1.68.99,1.45,1.34-.18.29-.89.94-1.44.95l-45.36.27-126.8.05c-24.77.23-49.53.29-74.3.17-1.69,1.19-3.4,2.29-5.13,3.3-1.45,2.36-2.76,4.78-4.05,7.5l-8.45,17.7c-3.45,7.23-6.3,14.53-8.6,22.21-1.74,5.82-2.91,11.5-4.98,16.98,1.12,1.13-.07,2.37-1.26,3.02-1.45.79-3.22.78-2.24-1.01l.51-2.35c.41-1.9,1.08-4.31,1.99-6.13,1.55-3.11,1.78-6.54,2.91-10.12,3.11-9.84,6.79-19.39,11.58-28.28l7.55-14.02c1.68-3.12,3.51-5.93,5.7-8.81l-143.63.03-52.01-.14c-.5,0-.86-.24-.99-.39-.18-.21,0-.57.15-.73.13-.14.4-.25.89-.26l52.91-.57,67.48-.22,95.42-.31Z"/>
    <path class="cls-198" d="M472.71,233.14l-.09,55.41.19,25.53.43.95c1.12-.04,3.28.07,4.5-.05l-.5,1.03-4.5.04c-1.24.01-1.82-.94-1.84-2.13l-.16-14.42-.03-25.91-.22-22.86-.23-115.44-.39-.57.39-11.91.12-115.11c.86-.32,1.68-.32,2.44.43l-.12,225.02Z"/>
    <path class="cls-90" d="M687.12,72.75c-5.21,1.2-10.51,2.16-15.91,2.89-10.89,2.07-22.06,10.36-30.01,17.76-.62.59-1.28.9-1.97.95-.24.47-.93.81-2.08,1-.43.3-.26.3.5,0,.16-.57.93-.51.95.14-.11.3-.24.58-.4.85l-7.77,1.07c1.3-8.26,1.69-5.63,4.65-12.27.87-1.96,3.52-2.98,4.5-4.81l1.06-1.99c-.13.29.14.54.6.51,1.38-.1,2.45-1.34,2.9-2.52-.12.26.17.58.35.54.17-.04.7.03.93-.21,5.38-5.54,11.67-9.34,18.69-12.33,1.71-.73,2.87-.79,4.67-.92,3.24-.23,6.39-1.8,9.72-2.44l11.78,10.57c-1.38.41-2.45.82-3.17,1.21Z"/>
    <path d="M683.63,98.78c2.13,1.82,5.05,2.27,7.5,4.03,3.64,2.64,8.13,7.27,6.97,11.98.96,1.39.43,3.48-.92,4.44-2.24,7.42-14.46,25.61-19.44,33.04-5.21,7.75-9.15,15.68-12.94,24.07-1.18,2.61-2.09,4.86-2.77,7.37-1.93,7.08-.03,9.57,5.58,15.09-.37.54-1.5,2.01-2.34,1.49-2.04-1.27-4.65-3.34-5.6-5.63-1.81-4.33-1.63-9.34.11-13.89,2.06-5.37,4.43-10.35,6.95-15.54,6.37-13.11,16.62-24.84,21.51-35.06-.68-1.7,1.3-4.01,2.92-4.97-.56-.69-.32-1.5.73-2.44-2.37-3.5-6.86-5.9-11-6.42l-.84-1.08c-1.11,1.1-2.39.96-3.85-.44-.38.92-1.25,1.51-2.62,1.77-3.67,2.2-4.53,4.92.46,1.85l.99.9c.29.97.65,1.79,1.1,2.47l-1.57,5.16c4.64-.34,9.13.02,13.49,1.08.84.25.9.96.18,2.13-3.73,1.66-22.56-.67-24.74,2.47-1.34,1.93-.22,4.38-1.9,6.37-.95-1.94-1.12-4.21-.87-6.18-.02-1.21-.89-1.25-2.59-.1-.47.06-1.2.21-1.58.51-1.79-1.36,1.93-1.16,4.28-7.79.47-1.32,1.25-2.43,1.38-3.68-.89-1.41,1.47-4.59,2.58-5.83,4.56-5.09,11.92-6.11,18.42-4.8l.89,1.24c4.02,1.08,7.24,4.04,10.47,6.69.35-2.29,1.77-5.09,1.1-7.14-.97-2.95-3.14-6.18-5.74-7.79l-7.76-4.8c-.43-.62-.2-.87.49-.58.24-.04.76-.14.96.03Z"/>
    <path d="M781.02,103.86c1.42-.32,2.95-.13,4.57.56,12.93,2.98,25.21,7.14,37.08,13.7,5.1,2.82,10.11,5.35,14.87,8.67,4.07,2.84,7.73,6.1,12.52,7.02h.49c1.19-.03,2.52.29,3.5.99.48-.32,1.21-.38,1.56.06.39.28.95.44,1.44.38.55-.26.98-.22,1.5.11,2.67.88,7,.19,7.5,1.73.62,1.93-12.32-.17-13.87-.47-4.69-.89-9.07-2.73-12.79-5.68-2.56-2.03-5.15-3.37-8-5.03-10.23-5.95-20.66-11.09-31.81-15.03-1.8-.64-3.16-.55-4.96-.77-4.94-.61-9.88-2.18-14.53-.86l-.3,1.07c-3.8,1.66-6.47,7.96.33,2.84,2.02-.41,4.73.78,3,2.69.3,4.47-.94,8.63-5.6,10.34,9.48,1.07,18.35.55,27.53-.8,1.04-.15,2.26-.26,2.63,1.2-14.18,2.72-24.15,2.26-38.45,1.05-3.26-.28-6.31-.7-9.77-.42-.08-1.13.93-1.2,1.64-1.32,1.58-1.37,4.87-2.37,6.55-.56,1.6-.93,2.4-.76,2.39.49,1.28.5,2.09.32,2.42-.54-1.62.42-3.12-.49-2.06-2.07-2.82-.07-2.58-5.95-.37-7.27.25-.52.09-.53-.49-.04-.55,2.23-5.89,7.36-7.88,8.01-.69.23-1.25.36-1.92-.07-.63.35-.89.13-.59-.52,1.03-1.26,2.73-2.21,3.97-3.52l6.94-7.39c-.14-.97.69-1.76,2.47-2.39,2.56-1.12,4.65-3.19,7.56-3.13.43-.38,1.07-.43,1.5-.03v-.5c-.28.4-1.23.43-1.53-.02-1.57-.47-3.31-.73-4.97-.59.04-.45-.51-.33-1-.35-7.42-.28-14.65.42-22.1-1.27,4.81-.65,9.56-.15,14.53-.45s9.76-.22,14.5.19Z"/>
    <path d="M739.61,172.71l4.63,5.01c1.04-.1,1.43,1.95,1.36,2.89.78.9,1.19,2.4.88,3.61,2.01,8.23-5.13,17.66-13.38,17.57-2.65.52-5.78.5-8-1.1-.5.25-1.33.12-1.5-.5-.56.28-1.63.21-1.5-.57l-11.2-5.67c-3.87,2.42-8.16,4.02-12.77,3.97-1.95-.02-2.34-.86-3.1-2.3s-3.21,2.02-4.25,2.06c-.69.03-.94-1.28-.79-2.07,1.04-5.48,6.45-8.95,12.04-8.19,7.93,1.07,16.55,7.38,24.52,10.33,6.27,2.32,13.53.42,16.41-6.48,2.18-5.23.45-10.7-2.99-14.84-2.92-3.51-6.55-5.53-10.25-7.69-.35-.11-.32-.26.02-.46,3.63.5,6.68,2.66,9.86,4.43Z"/>
    <path class="cls-12" d="M637.1,98.94c.54.59.76,1.51.91,2.53.68,4.92,1.32,9.75,3.08,14.42l4.66,12.31c1.19,3.15,2.22,6.05,2.83,9.16.57,2.89-.59,5.48-.91,8.36-.42,3.75.12,7.17-1.25,10.81-1.87,4.98-3.44,9.96-5.6,14.89-5.61,12.8-7.16,31.49-.67,43.76,1.46,2.75,1.62,6.35,3.43,9.01.34.5.35,1.51.28,2.02-.08.55-.93,1.64-1.68,1.44-5.43-12.12-8.99-18.37-8.96-31.95.07-24.64,12.03-32.69,13.04-52.54.28-5.42-1.92-9.8-3.54-14.4-1.41-1.14-2.31-2.71-2.72-4.71-.73-2.16-1.17-4.42-1.33-6.79-.41-1.16-4.49-19.02-1.57-18.33Z"/>
    <path class="cls-84" d="M832.06,105.76c-5.14-2.04-8.51-9.07-12.99-13.4-10.63-8.1-21.89-15.02-34.5-19.53-1.35-.82-3.22-1.21-4.99-1.32-12.38-.77-22.36-3.49-33.45-4.13-.14-.5-1.58-.3-1.59-.8-.03-1.58,1.61-1.25,2.57-1.22,5.52.22,10.74.73,16.18,1.37l18.82,2.21c3.79.45,7.19,2.34,10.8,3.64,17.93,6.48,30.31,18.09,41.68,32.95-1.11.66-1.82.15-2.53.23Z"/>
    <path class="cls-12" d="M747.14,183.22c-.8-.28-1.17-1.83-1.02-2.66-.94-1.09-1.65-3.16-.64-4.33-.14-.88-.05-1.13.63-.48,1.46.98,1.95,8.18,5.42,11.98,6.53,7.15,14.62,11.92,23.56,15.48,11.88,4.73,24.08,11.73,27.75,24.75.18.64-.17,1.73-.58,1.92-3.32,1.59-1.81-6.65-12.15-14.83-12.31-9.74-22.7-8.9-36.66-22.19-2.93-2.79-5.27-5.86-6.32-9.63Z"/>
    <path class="cls-12" d="M720.11,200.29c1.4-.09,2.57.04,3.5.4.43-.12,1.22.05,1.5.5,1.67.41,3.4.74,5.21.98l.29.55c4.25,1.17,8.14,3.52,12.54,4.06.38-.87,1.33-.44,1.41.43l1.1.45c.14-.46.3-.45.48,0,12.38,5.33,33.54,7.81,41.33,14.63,4.77,4.17,5.46,13.76,6.62,20.32-.96-.99-1.61-1.76-2.52-2.48l-2-9.52c-.52-2.5-1.95-4.75-3.46-6.5-.52.05-1.01-.42-1.13-.96-4.37-2.84-9.37-4.82-14.74-6.1-7.99-1.91-15.56-3.88-23.34-6.65l-17.38-6.2c-4.96-1.77-9.95-2.69-14.91-2.07-.92.41-2.06.58-3,.54-.07.48-.59.24-1,0l-8.18,3.24c-1.31.52-5.58.93-5.41-1.1,4.94,1.37,8.93-2.58,13.89-3.76,3.1-.74,6.22-.63,9.2-.78Z"/>
    <path class="cls-164" d="M684.1,112.38c-5.28-1.41-11.27-.96-16,1.93-2.95,1.8-4.15,4.91-5.89,7.46-2.65,3.91-2.83.8-6.24,3.06-3.14-6.8,8.73-15.93,14.47-18.11,3.49-1.32,7.53-.19,11.05-.25,1.74-.03,2.05,1.09,2.82,2.05s2.51.89,2.92,2.32c-.92.82-2.09,1.21-3.13,1.53Z"/>
    <path class="cls-70" d="M107.94,275.13l-1.03-.56c-.46-.08-.89-.35-1.33-.5-.76-.59-.53-.88.4-.55,7.69,2.31,15.59,3.7,23.96,3.11,3.02-.21,5.46.68,6.76,3.74,2.09,4.93,3.18,10.24,4.33,15.62.83,3.89,2.11,8.04,2.46,11.93-.19.71-2.64.99-2.9.33-3.26-8.94-3.76-17.94-6.46-26.81-.56-1.83-1.94-2.19-3.68-2.24-7.88-.2-15.46-1.27-22.52-4.07Z"/>
    <path class="cls-107" d="M765.03,6.03h-73.9c-3.18-.24,8.42-1.03,6.96-.97l20.04-.89c20.85-.93,46.38.43,67.66.58l16.31.59-35.99.18c-.54,0-1.26.09-1.08.51Z"/>
    <path class="cls-12" d="M687.12,72.75l.41.67c-5.8,1.67-12.36,2.34-18.74,4.18l-9.13,4.74-2.55,2.03c-3.95,2.59-8.04,4.99-11.97,7.95-1.69,1.27-3.65,1.85-5.46,2.51-.75.55-1.01.32-.44-.48,3.53-4.93,13.43-11.95,19.14-14.64,2.51-1.19,4.97-3.18,7.71-3.91,6.95-1.83,14.08-2.72,21.04-3.05Z"/>
    <path class="cls-198" d="M851.17,213.73c-3.52,2.91-10.19,5.39-13.25,3.43-.2-.13-.24-1.01.07-1.04,4.86-.45,8.78-2.43,12.31-5.67,4.3-3.94,8.15-8.07,12.02-12.48.92-1.05,2.71-1.77,3.64-.37-4.22,5.98-9.24,11.53-14.8,16.13Z"/>
    <path class="cls-158" d="M654.64,316.48c-.09.39-.22,1.39-1.04,1.39l-30.42.2-16.48-.44c-4.07-.11-7.96-.16-12.04-.05-2.56-.79-5.05-.57-7.47-.56-.44-.14-.43-.31,0-.5l19.03-.06,48.42.03Z"/>
    <path class="cls-122" d="M671.64,204.08c.99-.36,1.67-.36,1,.63-4.3.87-8.12,2.9-11.51,6-7.97,7.28-14.97,15.94-17.89,26.49-.37,1.32-.77,2.54-1.57,3.43-.12-.4-.78-.68-.64-1.49,1.14-6.83,4.12-12.66,8.08-17.97l.58-.53c.06-.16-.05-.37-.01-.54,4.36-4.46,7.91-10.18,13.4-12.94,1.34-1.26,2.82-2.21,4.46-2.85l.54.34c1.04-.52,2.48-.46,3.57-.57Z"/>
    <path class="cls-213" d="M780.08,109.23c.81-.1,2.48-.06,3.21.41l3.91,4.29.23.46c.41.83-3.45.95-4.32,1.43-.04-.61-.6-1.45-1.09-1.65-2.65-1.13-3.35,2.82-7.31,1.92.25-3.04,2.34-6.5,5.38-6.87Z"/>
    <path class="cls-110" d="M819.08,92.36c-5.8-1.96-18.21-13.33-23.5-12.99-.25-.56-.59-1.08-1.03-1.54l-7.66-3.73c-1-.49-1.59-.84-2.31-1.27,12.88,3.43,24.94,10.28,34.5,19.53Z"/>
    <path class="cls-122" d="M165.61,263.43c-7.75,7.53-6.58,4.9-12.09,15.84-1.22-1.35-.45-2.77-.03-4.15,1.78-5.87,5.56-10.92,10.95-13.46.77-.12,1.77-.18,1.69.41-.05.36-.19,1.04-.52,1.36Z"/>
    <path class="cls-30" d="M920.01,159.25l-.49-.11c-.2-2.79-.37-5.59-.51-8.38l-.22-16.47.33-19.98c.04-2.45.63-4.69.39-6.98.14-.44.31-.43.5,0l.11,27.45-.11,24.47Z"/>
    <path class="cls-29" d="M387.79,316.39l31.22.08c-.15,1.45-1.34,1.24-2.42,1.23l-28.5-.44-27.78-.25c-.44-.14-.43-.31,0-.5l27.49-.12Z"/>
    <path class="cls-169" d="M484.24,316.4l46.48.08c.44.15.43.34,0,.54l-3.1.68c-1.24.27-17.64-.6-19.44-.61l-34.93-.23,11-.47Z"/>
    <path class="cls-197" d="M681.5,201.77c.52.79-.88,2.07-1.68,1.73-4.78-2.05-6.66-5.84-10.56-9.38-.23-.21-.13-.84-.04-1.07.59-1.38,7.18,4.66,7.83,5.18,1.42,1.14,3.2,1.66,4.44,3.54Z"/>
    <path class="cls-80" d="M866.2,143c-1.66-.07-21.44-2.05-19.57-4.94,6.09,1.67,12.1,2.45,18.38,3.34.8.14,1.71.45,1.19,1.59Z"/>
    <path class="cls-139" d="M319.83,317.01c.69-.37,6.47-.41,6.68-.14.08.1-.02.35-.18.64-2.44-.27-4.84.25-7.44.41l-14.55.91c-1.68.1-3.2-1.22-4.56-1.72l20.06-.1Z"/>
    <path class="cls-131" d="M8.53,154.76l-.03,17.47-.79,8.49-.22-25.82c0-.23,1.18-.18,1.04-.14Z"/>
    <path class="cls-31" d="M701.56,318.98c-1.97.22-3.79.12-5.74-.15-.66-.8-1.12-1.46-1.54-2.26l5.74-.04c.67.59,1.24.99,1.55,2.45Z"/>
    <path class="cls-155" d="M746.14,207.68c-.13-.05-.34-.01-.48,0l-1.1-.45c-.46-.15-1.04-.04-1.41-.43-.95-1.03-2.43-.98-3.76-1.99.46-.79,1.17-1.44,2.1-1.83,1.4,2.17,3.45,3.42,5.62,4.44l-.97.26Z"/>
    <path class="cls-77" d="M337.32,316.49c.75.7-10.84,1.04-10.99,1.02.04-.39-.45-.51-.97-.51h-5.53s0-.5,0-.5h17.49Z"/>
    <path class="cls-186" d="M823.56,315.98c.07.41-.44.55-.98.55h-16.53c-.53,0-1.03-.13-.98-.53l18.49-.02Z"/>
    <path class="cls-34" d="M823.9,312.53c-2.62-.13-4.43.23-6.87-.24,2-.53,3.81-1.12,5.81-2.01.56.7.95,1.31,1.05,2.26Z"/>
    <path class="cls-54" d="M8.53,103.84c-.7-.08-1.3-1.06-1.12-2.02.65-3.54.7-6.86.56-10.5-.03-.78-.14-1.82.56-1.96v14.48Z"/>
    <path class="cls-210" d="M470.28,135.29c-2.13-.35-.2-5.02-.58-11.02-.04-.64.02-1.44.57-1.46v12.48Z"/>
    <path class="cls-118" d="M138.5,276.53c-.8,2.56-4.21-4.64-3.17-4.35,1.99.36,2.55,2.61,3.17,4.35Z"/>
    <path class="cls-132" d="M469.99,284.49c-.68-2.95.12-6.04-.37-9.32-.16-1.06-.96-2.19.67-2.59l-.3,11.91Z"/>
    <path class="cls-51" d="M920.01,159.25c.47,1.07-.15,2.92-.24,4.01-1.14-5.09-.7-7.77-.76-12.5,1.36.89-.34,5.42,1,8.49Z"/>
    <path class="cls-95" d="M668.07,204.64l-4.99,2.51c.11-.09,4-5.39,4.99-2.51Z"/>
    <path class="cls-207" d="M733.11,201.79c-.7.14-1.97.4-2.5.94-1.46-.4-4.34-.7-5.5-1.54-.44-.14-.43-.31,0-.5,2.57,1.07,5.24,1.04,8,1.1Z"/>
    <path class="cls-130" d="M360.31,316.51v.5l-9.98-.02c-.36,0-.59-.29-.52-.51l10.49.03Z"/>
    <path class="cls-100" d="M539.71,316.48c.07.39-.44.56-.97.56l-8.02-.02v-.54h9Z"/>
    <path class="cls-82" d="M767.42,80.01c-2.45.07-4.45-.45-6.42-1.53,2.31,0,4.24.41,6.42,1.53Z"/>
    <path class="cls-78" d="M587.18,316.51v.5h-7.02c-.54.02-1.04-.12-.97-.54l8,.04Z"/>
    <path class="cls-30" d="M8.53,147.77c-.25,0-.52.11-1.1-.13,1.23-2.02-.1-6.54,1.1-6.36,0,2.16-.12,4.33,0,6.49Z"/>
    <path class="cls-120" d="M785.59,104.41c-1.55.13-3.03-.42-4.57-.56,1.51-1.84,3.31.26,4.57.56Z"/>
    <path class="cls-96" d="M675.17,203.67c-.64.69-1.63.86-2.53,1.04-.13-.38-.59-.67-1-.63,1.16-.93,2.41-.69,3.53-.41Z"/>
    <path class="cls-157" d="M460.21,29.95c-.01-1.99.07-4,0-5.99.82-1.53.81,7.5,0,5.99Z"/>
    <path class="cls-24" d="M920.01,107.33h-.5c-.2-1.97-.05-4.05.24-6.03.48,2.18.26,4.13.26,6.03Z"/>
    <path class="cls-13" d="M854.04,134.29c.44.14.43.31,0,.5-1.21-.12-2.49-.26-3.5-1,.19-.28.53-.44,1-.5.85.36,1.74.5,2.5,1Z"/>
    <path class="cls-85" d="M747.14,183.22c-.4.18-.59.58-.65,1l-.88-3.61c.11-.45.28-.46.52-.05.3.89.76,1.72,1.02,2.66Z"/>
    <path class="cls-126" d="M465.73,87.14c-.92-1.05-.47-2.04-.32-3.31.47.93,1.53,1.93.32,3.31Z"/>
    <path class="cls-182" d="M723.61,200.19c.29.15.28.32,0,.5-1.09-.17-2.55.39-3.5-.4.7-.08,1.73.16,2-.67.47.24,1.07.24,1.5.57Z"/>
    <path class="cls-7" d="M829.27,241.72c.83-.88,1.74-.85,2.78-1.08-.56,1.01-1.27,2.16-2.78,1.08Z"/>
    <path class="cls-177" d="M659.67,82.34c-.3,1.38-1.68,1.46-2.55,2.03.6-.96,1.37-1.93,2.55-2.03Z"/>
    <path class="cls-152" d="M59.49,208.2c0,.14.02.29.01.44-.52-.09-1.04-.21-1.55-.37.28-.52.63-.99.97-1.48.9-.29.95.67.57,1.41Z"/>
    <path class="cls-145" d="M639.24,94.35c-.02.27.2.44.44.48-.34.12-.58.74-1.07.66l-.95-.14h-.5c.09-1.08,1.47-.53,2.08-1Z"/>
    <path class="cls-199" d="M158.37,277.86c.96-.28,1.57-1.11,2.67-1.11-.45,1.31-1.62,1.57-2.67,1.11Z"/>
    <path class="cls-73" d="M795.57,79.38c-.67.04-1.03-1.04-1.03-1.54.37.18.83.19,1.28.5.42.29-.05.64-.26,1.04Z"/>
    <path class="cls-144" d="M105.99,273.52l-.4.55c-.59-.2-1.4-.46-1.08-1.5.69.16,1,.8,1.49.95Z"/>
    <path class="cls-92" d="M786.18,245.66c-.18.14-.34.3-.5.46-.4-.33-.85-.39-1.64-.71.6-.54,1.84-.48,2.14.25Z"/>
    <path class="cls-41" d="M746.11,175.74l-.63.48c-.82-.16-.86-1.3-.39-2,.2.03.4.1.59.13.12.37.05,1.13.42,1.38Z"/>
    <path class="cls-187" d="M679.13,91.36c.44.14.43.31,0,.5-.27-.02-.56.08-.75,0-.28-.13-.35-.43-.26-.74.08-.27.51-.33.73-.26.19.06.34.23.27.5Z"/>
    <path class="cls-136" d="M855.6,134.85c-.52-.01-1.04,0-1.56-.06v-.5c.41.24,2.21-.47,1.56.56Z"/>
    <path class="cls-65" d="M851.54,133.29c-.26.29-.63.43-1,.5-.16-.02-.33.04-.49,0,.18-.64.96-.52,1.49-.51Z"/>
    <path class="cls-35" d="M858.54,135.34l-1.5-.11c.24-.03.44-.47.78-.45.36.03.5.48.72.56Z"/>
    <path class="cls-15" d="M139.48,279.63c-.55.54-.6.08-.58-.33.02-.5.08-.8.49-.73-.05.35.13.71.1,1.06Z"/>
    <path class="cls-11" d="M682.67,98.76c-.21.04-.64.29-.49.58-.25-.15-.61-.05-.55-.49-.35-.69-.13-.93.5-.5.25.02.71,0,.54.41Z"/>
    <path class="cls-1" d="M682.13,98.35c-.39-.03-.45.16-.5.5-.44.08-.65-.38-.51-.75.1-.24.43-.33.72-.26.18.04.34.22.28.51Z"/>
    <path class="cls-148" d="M729.75,168.28c.07.16.07.31-.02.46-.27.11-.47.03-.62-.25-.09-.17-.15-.45.22-.72.16-.12.53.21.41.51Z"/>
    <circle class="cls-137" cx="683.13" cy="86.62" r=".32"/>
    <path class="cls-214" d="M679.13,91.86v-.5c1.16-.06,1.16.56,0,.5Z"/>
    <path class="cls-144" d="M107.94,275.13c-.33-.13-1.08-.06-1.03-.56.41.07.89.08,1.03.56Z"/>
    <path class="cls-57" d="M109.41,192.71c.77-.53,1.76-.47,2.97.17,11.05,2.15,21.63,5.52,31.72,10.11l.29,1.2c1.01.92.92,1.27-.44,1.53.64.64.32.66-.56.43-.61,1.39-4.64-.58-4.42-.49,2.87,1.12,5.67,2.16,8.62,3.04.53.16.97.4,1.27.91,1.41-1.83,5.2-.16,5.5,2.02.56.25,1.1.74,1.62,1.46,1.85.7,4.66,1.83,3.93,4.09-2.36,1.62-1.97,5.21-.66,7.59-.13,1.62-.02,3.38-.77,4.86-.32.67-.54,1.33-.09,2.01-.27,5.73-.38,11.46-.33,17.49.03,3.99.59,7.87.02,11.79-2.34,2.96-5.66,5.41-7.62,8.23-10.62,15.32,4.67,20.6-1.55,34.08-1.77-10.65-4.73-23.53-9.43-32.18l-.89-1.54-.39-8.38c.77-8.5,1.4-16.97,1.87-25.39-14.12-6.57-26.88-12.89-38.49-24.07-8.42-8.1-16.71-18.44-19.82-29.64-2.14-3.51-3.26-7.11-3.34-10.81-1.34-.27-6.81-2.38-6.74-3.28.03-.39,1.73.22-.32.82l-1.38-6.03c-.84-1.05-.32-1.77,1-1.43,1.08-.53,2.35-.39,3.82.43,2.46.7,4.98.97,7.56.79,4.08,10.07,7.37,17.72,16.1,24.46,1.18.91,9.59,7.26,10.01,6.81-.19-.66.24-.89.93-1.1Z"/>
    <path class="cls-57" d="M458.26,150.24l.05,21.38c-.92-.22-2.25.31-3.15-.5-.54-.49-.27-2.71-1.41-2.68l-20.32.57-2.49-8.41c-.32-1.07-1.97-1.35-3.23-1.28-25.7,1.39-51.03,1.48-76.87.44-25.02-1.01-49.48-.41-74.41-.87l-15.12-.28c2.43-.54,4.75-.36,7.41-.58l57.59-4.84c16.4-1.38,32.06-3.25,48.51-3.35l48.46-.29,35,.69Z"/>
    <path class="cls-90" d="M155.99,175.25c2.37-.17,4.7,2.53,6.06,4.59.81,1.24,1.95,1.95,3.41,2.12.33.28,1.75,3.81,1.05,4.21,1.5.66,2.52,2.08,3.04,4.24,1.32-.45,3.07-1.93,3.84-3.21.54-1.29,3.39-1,3.58.41l1.17.67,2.08,5.15c2.59-4.37,5.2-8.74,7.82-13.09,1.49-1.54,4.47-3.36,4.17-.11.62.71.76,1.75.4,3.1.6,4.22.54,8.41-.19,12.56-.2,3.42-1.48,5.06-3.84,4.92-1.19,3.66-4.18,10.67-7.63,12.44-2.15.4-4.76,1.23-5.54,3.38-1.93,1.26-4.22,2.2-6.53,1.52.14-1.29-.89-1.47-3.11-.55l-.86-.82c-.48-.26-.99-.39-1.54-.29l-1.04.53c-2.08-1.93-4-3.22-6.68-4.16-.55-.18-.98-2.09-.92-2,.36.58.43.75-.35.75-1.27-.33-2.24-1.65-3.68-1.81l-1.82-.21c-.34-.36-.3-.66.14-.88-.41-.18-.36-.35.1-.51.42-1.06-.09-1.61-1.55-1.64l-1.91-1.11c.11-.93-.12-1.54-.67-1.84-1.07-.64-1.27-1.79-.62-3.46,1.1-2.01,1.9-4.16,1.72-6.53,1.7-2.96,3.02-6.07,3.98-9.32l.96-6.39c1.01-1.27,2.13-2,3.35-2.19l.59-.45c.13-.36.28-.34.46.03.1-.88.27-.91.57-.07Z"/>
    <path d="M205.89,101.84c.17-.31.33-.3.5,0,.48-.01.65.15.5.5l.67.17c.39-1.15.63-.85.93.31.35-.3.92-.69,1.16-.49,1.34,1.11,4.08,5.49,2.86,7.02,1.53,3.33,1.41,6.62-.65,9.8l-5.59,8.64c.94,1.71,1.89,3.26,3.16,4.42,1.47,3.29,2.53,6.64,1.84,10.54-.8,4.58-2.1,9.36-4.69,13.21-.93,1.39-1.07,2.07-1.13,3.67-.09,2.54-3.25,4.4-3.78,6.79-1.35,6.07-1.63,12.21-4.93,17.59-.6.98-1.13,2.51-2.26,2.23-.29-.56-.23-1.09-.06-1.66,1.38-4.63,2.73-9.27,3.23-14.1l-3.95,1.31c-5.57.11-6.82,2.77-7.62,7.68l-1.15.22c-.44,2.37-4.62,2.43-6.75,2.29-5.97-.38-11.31-4.27-15.93-7.67l.07-1.19c-2.28-.41-4.42-1.43-6.42-3.05-2.76-1.38-5.68-2.43-8.75-3.14-2.02-.79-2.9-1.86-2.65-3.21-.37-.44-.47-.94-.06-1.19.67-.41,8.44,1.52,8.56,1.94.19,1.29.3,1.28.33-.02,5.99,4.4,14.75,3.57,21.36.97,2.56-.14,5.1.55,7.64,2.06,5.38,1.45,15.68,1.17,17.08-5.48,3.64-.31,3.33-4.49-.4-4.03-2.12-.43-4.07-1.34-5.85-2.75-2.75-.51-5.62-.05-8.61,1.39-1.72.22-3.95.36-3.16-1.83-.77-.72-.54-1.24.33-1.73,3.71-.99,7.05-2.43,10.04-4.31.54-1.18,1.25-1.86,2.13-2.04-2.54-6.21-4.82-12.58-6.85-19.09-2.45-8.78-3.9-18.39,3.07-25.82,3.22-3.44,4.52,1.76,1.06,4.21-.36.73-.78,1.35-1.27,1.85.43.72.33,1.6-.31,2.64l-.68,3.99-1.1.29-.08,2.01c.92.83,1.54,3.93.58,5.03,1.74-.06,2.25,3.03,1.13,4.09l1.27.83c2.17,4.99,5.22,13.09,6.27,18.33.6,2.99-.77,4.78-2.6,6.94,2.33,1.46,4.39,1.88,6.17,1.25,1.58-1.63,3.18-2.24,4.8-1.84,3.13-5.7,3.78-11.2,1.95-16.5-1.37-2.22-2.38-4.55-3.01-6.99.61-.49,1-1.38,1.15-2.66-1.03-.98-.02-3.01,1.39-2.58-1.07-1-.4-1.53.89-1.26-.37-1.37.6-3.11,2.08-3.18-.89-.65-.58-1.66.92-3.03-.5-3.25-1.6-6.45-3.27-9.58-2.88-1.34-5.9-2.35-9.03-3.03l-.55-1.22c-1.76.71-4.97.32-3.4-1.71-.07-.45.05-1.11.4-1.12,3-.15,7.67.92,10.44,2.04l.59,1.21Z"/>
    <path class="cls-211" d="M194.49,186.26c-.22-.05-.46.06-.68.03-.39-.21-.82-.45-1.01-.87-.52-1.17,1.11-5.88,1.78-7.13-.6.97-1.39,1.62-2.36,1.96-.27-.12-.79-1-1.11-.86-2.87,1.22-3.89,3.88-5.07,6.51-.97,2.16-2.82,3.83-3.91,5.97-.72,1.4-1.21,2.89-2.5,3.75-1.17-5.67-1.81-3.87-2.65-8l.59-1.05c1.34.04,2.47-.33,3.38-1.1.09-.86.86-1.49,2.32-1.89l1.43-1.31c.13-.83.21-1.68.24-2.55,1.87-4.81-.14-4.99,4.51-8.24,3.4-.29,6.38-1.09,9.42-2.64-.46,6.34-2.39,11.86-4.39,17.43Z"/>
    <path class="cls-198" d="M193.8,186.29c.17,5.69,1.14,13.32-3.5,16.83-1.09.82-.78,2.43-1.41,3.5-1.26,2.11-7.13,9.95-9.06,9.29-.32-.11-.68-.76-1.13-1.08-1.02.51-2.33,1.2-3.29,1.82-2.01.39,1.85-3.73,3-3.83,1.83-.16,2.42-.38,3.49-1.65,7.57-9.08,3.6-12.18,8.47-11.28,1.08-3.57,2.05-8,1.71-11.91-.24-2.77-.97-5.26.14-7.72.44-.96.75-2.26,1.73-2.94.46-.32,1.34.15,1.56.41.74.85-1.89,2.64-1.71,8.57Z"/>
    <path class="cls-69" d="M162.43,227.19c-.41-.07-1.35-.16-1.59.54l4.96,3.67c-3.38,7.65-1.67,13.73-4.08,20.3-.68,1.85.26,4.07-1.23,5.94l-.07-32.42c0-.37.11-.65.37-.57.08.43-.02,1.13.17,1.7.15.46.89.63,1.47.84Z"/>
    <path class="cls-99" d="M388.29,209.18c2.75-.03,5.48.2,8.53.47l34.38,3.05c4.34.39,8.37.46,12.61.2.73-.04,1.11.23,1.24.57.14.35.56,1.62-.31,1.54l-58.95-5.34c-.46-1.11,1.61-.84,2.5-.5Z"/>
    <path class="cls-4" d="M440.71,313.03c-.21-.28.22-.4.57-.48l14.31-.06c.33-1.5,1.24-1.81,2.69-1.54.84-7.22-2.52-9.06-.05-13.01l.13-56.31c.07-.06.39-.01.41.2l-.1,55.65-.07,15.34-17.89.21Z"/>
    <path class="cls-42" d="M163.37,216.51c.51-.13,1.19-.05,1.54.29l3.29-.77c.89-.21,1.82-.23,2.34.61-.56.62-1.2,1.18-1.66,1.53-7.31,2.38-4.79,1.44-8.96-.98-.96-.56-1.4-2.28-2.84-2.59-1.64-.35-2.62-1.43-2.71-2.96.12-.31-.08-.72.65-1.19.48,2.2,2.09,1.98,3.54,2.56,1.96.78,3.14,2.6,4.81,3.5Z"/>
    <polygon class="cls-4" points="458.31 193.83 458.28 207.72 453.7 193.75 458.31 193.83"/>
    <path class="cls-153" d="M447.26,242.15c-.31,2.1-.66,3.94-1.64,5.97-.93-1.99-1.15-3.83-1.89-6.1,1.08-.25,1.84-.29,3.53.13Z"/>
    <path class="cls-53" d="M436.16,312.99l-7.43.03c-1.06-2.69,7.18,1.31,5.2-2.9-.21-.45.89-1.03,1.38-.49.77.84.34,2.36.85,3.36Z"/>
    <path class="cls-170" d="M268.39,286.04l-3.54-3.53,5.49.64c-.87,1.09-2.2,1.63-1.95,2.89Z"/>
    <path class="cls-124" d="M388.29,209.18c-.83.01-2.02-.33-2.5.5l-7.53-.75c-.51-.32,11.55-.56,10.03.25Z"/>
    <path class="cls-57" d="M642.72,128.78c-.62-.34-1.3-.7-2.28-.79l-50.22-4.29c-2.82-.53-5.33.06-8.16-.87,18.77-1.42,37.45-1.65,56.47-1.53.37-1.56.03-2.79.16-4.03l4.05,11.5Z"/>
    <path class="cls-183" d="M661.01,272.95c-2.8.26-4.21-3.5-5.97-6.18,1.18-.35,2.07.04,2.61-.59,1.46,2.03,2.47,4.42,3.35,6.76Z"/>
    <path class="cls-66" d="M473.25,315.04c-.18,0-.95.08-.95-.16l-.06-25.76c0-.36.13-.64.38-.56l.12,22.93c0,1.28.93,2.44.51,3.55Z"/>
    <path class="cls-48" d="M648.19,244.63c-.35-.03-.71-.39-1.04-.51-.26-.37-.42-.77,0-1,.1-.44.36-.63.96-.47.12.8.06,1.39.08,1.97Z"/>
    <path class="cls-56" d="M593.18,110.33v-.5c.57.08,1.22-.26,2.03.23-.62.51-1.37.21-2.03.27Z"/>
    <path class="cls-202" d="M647.15,244.12c-.38-.14-.52-.6-.57-.96l.57-.04v1Z"/>
    <path class="cls-57" d="M649.1,221.17c.16-.21.36-.38.58-.53-.09.24-.26.65-.58.53Z"/>
    <path class="cls-164" d="M395.3,71.91c.15,0,.34.01.49.05,2.63.09,5.26,0,7.88-.28l1.53.68c21.42.09,32.13.14,32.13.14,2.37-1.17,3.55-.01,4.91,1.9.07.17.06.41.11.56,1,.54,1.37.89,1.29,2.01,1.06-.1,2.16.11,3.3.63l2.64-.12c2.28-1.08,4.86-1.22,7.75-.42l.55,28.83-37.08,1.97-32,1.72c-11.52.62-22.39,1.11-34,.25-19.53-1.44-38.54-1.49-58.04-.21-13.51.89-26.36,1.04-39.93.74l-44.31-.98c-1.09-2.36-2.5-6.13-4.02-6.54-.35-.49-.32-1.43-.11-1.98-.03-1.8-.17-2.61-1.48-3.92-.95-.25-1.49-1.18-1.61-2.79.06-8.89-1.53-17.36-4.78-25.41l.4-1.3c-.75-1.59-.72-1.62.88-1.96,44.17-1.29,88.26-.58,133.35,2.44,1.69.83,3.42.94,5.21.34,2.44.72,5.05.87,7.84.46,1.43.89,2.87,1.07,4.38.82,3.11-.51,4.03-.55,7.2.6l3.32-.63c2,.19,3.98.57,5.94,1.15,3.05-.78,5.91-.68,8.57.3,2.95.3,5.93.15,8.94-.45,1.13.74,2.29,1.13,3.48,1.16,2.36-.98,4.12-.89,5.28.26Z"/>
    <path class="cls-164" d="M213.9,43.95c.15,0,.34,0,.49.04,2.32.49,4.53.37,6.61-.37,2.09-.05,4.18.28,6.25,1,3.05-.79,5.84-.63,8.36.47,2.6-.89,4.89-.73,6.85.46,2.45-.85,4.62-.68,6.52.52,2.23-.9,4.13-.77,5.71.4,2.47-.75,4.55-.57,6.24.56,2.38-.88,4.32-.72,5.84.47,2.35-.8,4.29-.93,6.44.56,2.31-1.02,4.03-.8,6.12.48,2.6-.84,4.92-.65,6.97.57,2.46-.8,4.69-.65,6.68.44,1.86-.29,3.72-.42,5.57-.38,1.45,1.18,3.2,1.32,4.82.37,1.4.2,2.77.56,4.14,1.07,2.47-.67,4.95-.49,7.44.56,2.16-.84,3.79-.76,4.89.26.15-.01.34,0,.49.05,2.93.02,5.86-.07,8.8-.29,3.3,1.35,7.36,1.34,10.74.34,2.57.08,5.13.46,7.65,1.13,3.49-.81,6.73-.67,9.74.41,2.97-.75,5.65-.59,8.06.48,2.08-.81,4.24-.63,6.47.54,3.12-.93,4.84-.43,7.82.52,2.46-.76,4.64-.69,6.56.21l5.95.22c2.14-.72,4.3-1.12,6.14.38.68,0,1.33.12,2.03.1,6.12.35,12.14.16,18.06-.56,1.58.27,3.09.6,4.55,1,1.54-1.07,3.62-.53,5.02.51,2.1-1.03,3.52-.86,4.28.51.19.01.48-.11.66-.03,1.1-1.01,2.6-.56,2.93.9l.09.48c2.57,1.84.74,2.99-1.88,2.4l-2.36.87c-1.38-.5-2.55-.38-3.5.37-2,.16-4.01.07-6.04-.27-2.23,1.33-4.15,1.45-5.79.34-1.89,1.68-3.85,1.28-6.09.71-2.32,1.12-4.98,1.23-7.98.33l-.95.24-.49.05-1.27,1.07c-2.69-.69-5.44-.91-8.24-.68-.3.08-.69.14-1.01.13,0,.61-.21.87-.76.99-2.29.5-7.33-.24-9.69-.67-5.66.16-11.32.27-16.98.32-6.44-1.01-12.95-1.27-19.53-.78-1.87-.23-3.67.15-5.52.09-.2.58-.72.89-1.56.95-28.76-.86-57.59-2.35-86.47-4.47l-55.72-2.79-2.02-1.1c-1.11.83-1.92.37-1.55-1.02l-.61-.85c.86-.02,1.03-.74.5-2.18l-.78-.23c-1.4-2.55-3.03-4.96-4.89-7.23l.24-1.4c2.74-.36,5.54-.49,8.39-.4,3.64-.77,7.33-.58,11.08.56,2.45-.17,4.88-.41,7.3-.71l2.19.97Z"/>
    <path class="cls-164" d="M57.04,74.93l.71.89c-3.63,6.41-4.85,13-3.65,19.77l-.7,1.25c1.31.25,1.28.54.08,1.05-.34-.86-3.69,12.28-3.47,10.39l-.48.99c-12.15-.19-24.41-.43-36.77-.72l-1.34-.63.05-16.03c.18-.89.36-1.73.53-2.53v-.53c1.31-1.32,2.92-1.6,4.82-.86,1.09-1.01,2.32-1.18,3.71-.5,1.34-.97,3.06-1.4,5.16-1.3,3.06-.93,6.02-1.19,8.9-.78,2.07-2.62,4.26-5.1,6.57-7.44,1.9-1.71,3.48-2.27,4.74-1.68.18,0,.37.12.55.1,2.44-1.54,4.92-2.06,7.42-1.55,1.15-.98,2.21-1.19,3.19.1Z"/>
    <path class="cls-57" d="M337.8,63.86c.23,1.42-1.53,1.7-2.01,2.42,1.32,5.47,3.41-1.92,6.53,1.19.51.51.47,1.4,1.27,1.36,2.89-.15,1.42-2.2,4.25-1.71.84.15,1.01.92,1.63,1.71.54.69,2.68.76,3.32.13,1.06-1.04,1.81-1.49,3.05-1.38s1.55,1.13,2.34,1.87c.69.64,3.05.68,3.74.05.92-.85,1.64-1.65,2.92-1.43,1.12.19,1.32,1.2,2.26,1.85,1.06.73,3.68.76,4.57-.02,1.14-1,1.89-1.35,3.16-1.32,1.17.02,1.32,1.4,2.27,1.83,1.75.8,4.62.78,6.37.08,1.04-.42,1.36-1.32,2.59-1.22,1.14.1,1.38.91,2.09,1.74.52.6,2.71.57,3.29-.02.69-.7,1.36-1.43,2.59-1.11.95.25,1.41.92,1.29,2.05-2.21.07-4.54.17-6.95-.21-3.37-.53-6.66-.22-10.05-.4l-10-.51-8.99-.52-8.55-.43c-19.29-.98-38.01-2.79-57.43-3.16l-52.44-1-39.01.78c-.39,0-.86.15-1,.27s.05.55.03.7l-1.64-.68c-2.21-2.95-4.56-5.79-7.06-8.5l-.19-1.79,57.79,2.89,57.96,3.57,30.02.95Z"/>
    <path class="cls-164" d="M368.28,22.51h12.04c.09-.35.3-.6.62-.75,2.17-.98,10.6-.13,12.99.46h53.63c1.78-.87,3.97-1.2,5.53.27,2.2-.77,3.93-.45,5.21.97.17,2.15,0,4.3-.02,6.45-.05,1.66-2.58.89-3.48-.12-22.95-.11-45.94-.14-68.96-.1-1.78.97-5.69,1.16-7.03-.3-.15.02-.35.02-.5-.01l-5.88-.23c-2.84.92-5.47.8-7.89-.37-2.8.77-5.53.57-8.19-.61-2.68.71-5.06.56-7.14-.46-2.22.55-3.6.68-5.71-.48-1.97.79-3.74.64-5.3-.45-1.86.7-3.48.95-5.01-.59-3.59-.88-1.73-2.27.65-3.63l.5-.03c8.1-.35,16.29-.46,24.55-.32,1.95-.76,7.3-1.24,9.06-.25.16.09.26.3.35.54Z"/>
    <path class="cls-84" d="M184.39,42.94c.64.03.82.23.55.59,1.96,2.88,4.34,5.54,5.43,8.86.57,1.6.19,3.56-.97,1.53-.29-.15-.42-.48-.38-1-1.22.09-2.96-2.41-2.06-3.41-.45.03-.63-.18-.54-.62l-1.32-.1c-2.82-4.47-6.63-7.23-11.38-9.59-14.16-12.19-33.17-11.36-50.24-6.89-6.43,0-12.74,1.04-18.92,3.15l-.6-.99c-.77.42-1.64.86-2.53.61-.09,1.46-3.38,3.13-4.4,1.88-.76.83-1.97,1.25-3.09,1.13l-.98,1.46c-16.05,7.8-25.78,23.49-33.74,38.67l-1.22.13c.29.22.28.42-.05.59.92.99.47,1.51-.84,1.45.17.65-.11,1.74-.73,2,.52.58.29.82-.42.5.35.34.37.68,0,1l-.54,1.5.9,1.12-.37,5.76c.72,2.55.96,6.14-2.56,4.59-1.26-4.34-1.33-9.77.46-14.12l3.19-7.79c-.92-.85-.76-1.21.47-1.1.93-.88,1.67-2.22,2.25-3.58,1.75-4.08,3.8-7.75,6.09-11.32-.86-1.22-.17-2.05,2.06-2.47.05-.45.12-.9.26-1.33s.28-.79.53-1.1c2.5-3.16,6.11-7.02,9.73-8.51-.24-.21-.06-.36.54-.46,7.43-5.8,15.64-9.51,24.71-12.48,6.69-2.19,12.82-2.68,19.79-3.88l12.66-2.18c10.72-1.84,27.24.17,36.54,8.18,1.87,1.61,4.07,2.7,6.26,3.8s3.68,2.97,5.47,4.42Z"/>
    <path class="cls-164" d="M78.42,45.53c-3.6,3.55-7.25,7.06-10.52,10.94l-1.6.97c-2.41.08-12.36-3.51-12.66-5.37-.21-1.34,6.47-7.53,8.89-6.45,2.83.18,5.64.14,8.43-.12.12-.06.35-.05.48-.04l.45-.97c2.24,0,4.42.35,6.53,1.04Z"/>
    <path class="cls-57" d="M319.84,51.44c-3.23.3-6.52-.19-9.99-.44l-15.09-1.09-57.32-4.52-11.84-.67c-3.9-.22-7.68.17-11.21-.71,8.81.51,5.11-2.46,8.63-1.99,1.24.17,1.71,1.06,2.67,1.96.7.65,3.12.69,3.88.05,1.03-.87,2.66-1.85,4.11-.68.76.61.73,1.76,1.98,1.58.96-.14,1.46-.14,2.27-1.05.67-.75,2.75-.74,3.4.06.57.7.5,1.42,1.3,1.45.9.04,3.54-2.97,5.2-.94.57.69.49,1.37,1.28,1.45.92.09.97-.52,1.64-1.12.78-.7,2.8-.58,3.34.31.43.71.36,1.3,1.04,1.29,1.06-.02,3.56-3.02,4.97-.76.42.67.34,1.28,1.03,1.26,1.11-.03,3.45-3.02,5-.76.41.6.21,1.38.99,1.21,1.59-.34.79-2.1,3.64-1.59,1.12.2,1.27,1.05,1.88,1.85.73.96,1.58-.2,2.1-.79.59-.68,2.61-.58,3.11.06.71.91.7,1.68,1.78,1.56,3.29-.37,1.54-2.03,4.13-1.61.96.16,1.09.88,1.65,1.63,1.4,1.87,3.34-1.1,5.15-1.03.9.04.9.96,1.61,1.64.49.47,2.36.6,2.8.02.72-.95,1.42-1.24,2.6-1.22s1.42.81,2.1,1.73c.41.55,2.35.5,2.81,0,.65-.69,1.06-1.41,2.07-1.18.75.17.9.62,1.43,1.49.39.65,2.43.76,2.97.18.83-.9,1.29-1.32,2.59-1.18.86.09.93,1.04,1.61,1.63.62.54,2.71.62,3.29.04.76-.77,1.31-1.56,2.54-1.02.69.3.9,1.1.84,1.93Z"/>
    <path class="cls-57" d="M458.31,22.96c0,.17-.04.34-.02.5-2.58-.44-5.08-.94-8.09-.94l-69.88-.04c.06-.64.33-1.28.72-1.57.63-.47,1.43-.5,2.25-.45,2.61.15,7.19-2.1,10.06,1.48h54.36c1.11-1.58,3.14-2.19,4.55-.93.51.45.38,1.53,1.23,1.38,1.62-.29,1.51-1.71,2.9-1.32.86.24.99,1.41,1.91,1.9Z"/>
    <path class="cls-57" d="M70.97,45.5c-2.98,1.38-6.66-.45-9.98.74-2.51.9-4.13,3.91-6.66,5.71,4.11,2.31,9.72,4.84,13.57,4.51-.64.76-1.54,1.66-2.06,2.47-2.53-.13-4.68-1.84-7.22-2.62-1.73-.53-2.97-.93-4.29-2.26-.49-.5-1.86-.18-1.78-1.04.06-.61-.51-1.82.16-2.45,1.49-1.4,3.07-3.94,5.07-4.72,4.39-.96,8.89-.2,13.18-.35Z"/>
    <path class="cls-57" d="M333.82,22.56c-.76.79-1.73,1.25-2.51,2.31.84.47,1.53,1.18,2.45,1.26l31.89,2.58c4.41.36,8.62-.18,12.65.67-2.42.46-5.28-.56-7.64.5-1.12.5-1.65,1.41-3.12,1.19-1.05-.16-1.41-.77-2.06-1.75-.38-.57-2.37-.5-2.85.03-4.45,4.5-3.56-2.6-8.22-.66-.88.36-1.01,1.49-1.87,1.33-.92-.17-2.01.17-2.4-.89-.25-.69-.52-1.1-1.08-1.11-1.87-.03-1.23,1.64-2.95,1.42-1.61-.2-1.32-1.81-2.56-1.91-1.83-.15-1.22,2.09-3.85,1.32-.52-.15-.84-.84-1.04-1.74-1.81-.4-1.2,1.24-2.63,1.34-3.72.25-.25-2.81-5.93-2.52.47-1.14,3.18-4.1,3.74-3.38Z"/>
    <path class="cls-57" d="M458.27,29.92l-.02,2.46c-1.53-.32-2.83-.6-3.49-2.42h-68.96c-1.27,1.74-2.81,2.35-4.83,1.85-1.36-.33-2.2-1.12-2.17-2.42,1.93-.27,3.79.02,6.09.03l68.32.05,5.07.45Z"/>
    <path class="cls-57" d="M390.28,63.9c1.5,4.08-8.76,2.5-9.97.91-2.31-.79-4.82-.29-7.32-.3-5.02,4.62-13.41-.41-12.21-.16-5.89-1.21-11.81.12-17.47-.59-.09-.24.21-.39.55-.39l17.24.17,29.17.36Z"/>
    <path class="cls-57" d="M401.28,63.34c.72-.84,1.85-.25,3.02-.35l31.67-2.58c.16-.9.01-1.48-.1-2.05.93-.01,1.96.46,2.28,1.42.27.8-.6,2.25-1.61,1.86-.91-.35-1.54-.74-2.5-.7-.74.03-1.11.8-1.84,1.4-.88.71-2.23-1.04-2.78-.7-1.11.69-1.16,1.92-2.44,1.91-1.18-.01-1.87-.4-2.61-1.23-.54-.6-2.71-.6-3.29,0-.69.7-.85,1.82-2.09,1.68-4.5-.5-.89-4.07-3.94-.27-2.62,3.26-4.14-3.2-6,.47-.51,1-1.56.6-2.5.78-1.72.33.35-1.91-5.28-1.64Z"/>
    <path class="cls-57" d="M45.88,76.29c-3.43,1.02-8.39,6.32-11.14,9.42l-22.75,3.13c.55-.54.9-1.27,1.43-2.05,1.06-1.57,1.64,1.03,3.31,1.01,1.01-.01.8-1.56,1.53-1.82.96-.35.59.95,1.97,1.32.81.21.76-1.22,1.17-1.7,2.27-.08,4.64.24,6.72-1.12-.72.47,5.21-.52,4.57-.57.63.06,1.05.51,1.68,1.28.59-1.17,2.49-2.05,2.92-3.33.28-3.09,2.12-4.57,5-5.29.64-.16.86-1.83,1.93-1.64.67.12,1.18.74,1.66,1.39Z"/>
    <path class="cls-57" d="M432.19,57.01l-13.91-1.02c-6.2-.46-12.21.42-18-.44l15.95-.42c.95-.02,1.42-2.14,2.76-1.56.93.4,2.06.31,2.36,1.82.12.6,1.03.45,1.51.32.28-.08.3-.7.74-.99.94-.6,2.75-.62,3.42.35.41.59.21,1.39.99,1.22,1.4-.3.8-1.95,3.39-1.29.79.2.85,1.18.78,2Z"/>
    <path class="cls-57" d="M368.28,22.51l-33.96.02c-.08-.21.14-.56.53-.56l24.37-.06c1.99-2.91,9.22-2.29,9.06.59Z"/>
    <path class="cls-57" d="M398.26,55.45c-3.7.01-7.5.08-11.42-.16l-8.42-.52-20.12-1.45-12.84-.59-14.5-.49c-3.71-.13-7.3.08-10.63-.75,7.05.22,3.05-1.9,7.17-2.1,1.61-.08,1.95,1.43,3.18,1.99,2.06.94,5.67.86,7.77.09,1.4-.51,1.85-1.89,3.56-1.6,1.46.25,1.96,1.03,3.2,2.06,1.03.85,4.08.69,5.26.09,1.24-.63,1.58-1.77,2.98-1.53,1.29.21,1.69,1.01,2.67,1.97.68.66,2.95.61,3.66-.07.77-.75,1.54-1.59,2.58-1.26,2.82.89.79,2.13,3.19,2.2,2.04.07-1.6-.94,3.44-1.43.89-.09.98.98,1.64,1.66.49.5,2.35.53,2.82-.04.69-.84,1.36-1.25,2.6-1.21,1.03.04,1.21.93,2.02,1.65.62.56,2.81.71,3.4,0s1.42-1.05,2.55-1.18c1.34-.15,1.2,1.22,2.2,1.67,1.67.76,4.92.82,6.51-.02,1.34-.71,2.04-1.87,3.62-1.31,1.06.37,1.99.96,1.93,2.34Z"/>
    <path class="cls-57" d="M442.23,74.4c-1.09-.92-2.31-1.46-3.98-1.47l-33.21-.24c-3.26-.02-6.38-.09-9.25-.74,7.22.01,2.82-1.26,7.05-1.85,1.4-.2,1.57,1.8,2.42,1.94,5.11.84,10.08.12,15.07.21,5.82.11,11.51.47,17.18-.2.79-.09,1.62-2.37,2.97-.7.66.81,1.35,2.04,1.75,3.05Z"/>
    <path class="cls-57" d="M213.9,43.95c-10.31.24-18.78-.9-28.95-.42-.14-.2-.36-.44-.55-.59,3.27-.35,6.96.64,10.23-.43,1.4-.46,2.14-1.82,3.94-1.65,1.59.15,2.01,1.45,3.41,2.16,1.55.78,4.64.67,6.06,0s1.87-2.04,3.5-1.49c1.27.43,2.68.73,2.37,2.43Z"/>
    <path class="cls-57" d="M57.51,73.83c-.01.37-.34.78-.47,1.1-3.59.06-7.06,1.03-10.61,1.45,1.55-1.4,5.41-4.59,7.19-1.62.64-1,1.18-1.72,2.12-1.86.68-.1,1.44.22,1.77.93Z"/>
    <path class="cls-57" d="M400.8,63.38c-.13.24.25,1.13-.08,1.53-1.13,1.11-3.27.65-4.07-.84l-5.35-.3c3.06-.78,6.37-.09,9.51-.39Z"/>
    <path class="cls-57" d="M457.32,77.06c-4.49.46-9.12,1.04-14,.81-.85-.36-.79-2.18-.99-2.91.68.54,2.29.2,2.8.93.81,1.42,1.62,1.45,3.1,1.51,1.59.06,1.74-.6,2.53-1.5,1.93-2.21,4.41,1.46,6.56,1.15Z"/>
    <path class="cls-57" d="M78.96,45.07c-.18.14-.32.36-.54.46l-6.97-.08c.05-.51-.12-1.21.13-1.66.33-.59,1.21-.25,1.84-.39,2.74-.61.31,1.72,5.53,1.67Z"/>
    <path class="cls-57" d="M435.78,57.88c-1.01-.19-2-.47-2.93-.9-.11-.89.37-1.52,1.2-1.56s1.74-.1,2.12.83c.19.48.09,1.21-.39,1.63Z"/>
    <path class="cls-57" d="M11.47,91.89c0-.84,0-1.69.01-2.53h.51c0,.85.27,2-.53,2.53Z"/>
    <path class="cls-166" d="M749.67,8.48c-24.62,0-49.42,1.06-74.48.35-.99,1-.84,2.3-1.76,2.84-1.01.59-2.26-.04-3.19.28,1.34-2.18,2.36-3.48,5.44-3.48h73.99Z"/>
    <path class="cls-64" d="M713.27,55.77c-.45,1.69-1.41,3.7-2.71,5.1-1.68.02.3-5.24.49-5.35.56-.34,1.95-.26,2.22.26Z"/>
    <path class="cls-57" d="M805.9,140.15l-8.04-.46c-7.23-1.94-14.55-3.08-21.96-3.43-2.06.42-3.99.58-5.81.46-.72-1.19-7.62-1.13-8.17-4.44.05-1.32,1.95-3.92,3.21-4.31l6.28,1.09c2.2.38,4.02,1.88,6.26,2.15l19.2,2.35c2.13.26,4.69.25,6.51,1.45,1.58,1.05,2.11,3.54,2.52,5.14Z"/>
    <path class="cls-197" d="M805.9,140.15c-2.71,1.55-6.4,1.18-9.68.46l-13.87-3.04c-4.39-.96-8.57-.65-12.71.3-.87.38-1.13.13-.54-.63.27-.2.68-.42,1-.51,4.8-1.38,9.8-1.93,14.94-.8l11.44,2.5c6.21,1.36,7.55-.68,9.43,1.73Z"/>
    <path class="cls-168" d="M770.02,115.92c-.77,2.45-1.07,5.06.37,7.27.34,1.64-1.4,2.05-2.75,2.12-2,.11-4.52.22-6.55.56.19-.44.65-.44,1.11-.81l-2.48-.76c-.73-.12-.69-.46,0-.47,3.84-1.9,6.54-5.25,9.8-7.94.17-.38.33-.36.49.04Z"/>
    <path class="cls-28" d="M745.49,176.23c.27,1.39.19,2.97.64,4.33l-.52.05c-.25-1.01-1.36-1.79-1.36-2.89.97-1-.39-2.68.86-3.49-.32.74.26,1.37.39,2Z"/>
    <path class="cls-116" d="M772.52,109.99c-.56,1.03-1.69,1.56-2.47,2.39-.26-.51-.78-.83-1.43-.96,1.14-1.33,2.74-.92,3.9-1.43Z"/>
    <path class="cls-157" d="M763.13,113.88c-.57.89-1.39,1.47-2.59,1.37.6-.88,1.37-1.45,2.59-1.37Z"/>
    <path class="cls-44" d="M769.63,137.86c-.71.16-1.32,1.1-2.26.62.47-1.01,1.24-.91,1.72-1.25.17.22.35.43.54.63Z"/>
    <path class="cls-59" d="M759.73,123.82c.29.18.32.31,0,.47-.27-.08-.6.11-.87.02-.23-.07-.35-.33-.27-.73.04-.22.32-.32.55-.28.2.17.37.38.59.52Z"/>
    <path class="cls-193" d="M781.58,106.34c.44.14.43.31,0,.5-.5.02-1,.04-1.5.03l-.03-.55c.46.14,1.05-.1,1.53.02Z"/>
    <path class="cls-57" d="M719.07,284.03c-.98-.53-2-.72-3.07-.57-8.24,1.74-16.57,2.75-24.98,3.03-6.25-1.02-2.36.24,1.3.61,8.25.27,16.42-.79,24.49-3.17l1.23.74c-1.18,2.19-3.59,2.66-5.76,3.54-5.14,2.08-9.76,2.55-15.18,2.15-6.12-.46-12.1-.95-17.31-4.41-.82-2.82-1.92-5.28-2.26-8.41,10.38,1.49,21.91-4.28,31.57-3.25,5.77.61,11.27,1.91,16.92,3.38-2.46,2.93-4.81,4.37-6.96,6.37Z"/>
    <path class="cls-57" d="M666.63,250.1c.92.23,1.08.54.56,1.5.71.84,2.29.93,2.99,1.95,2.01,2.9,6.22,7.48,8.99,8.48-5.12.97-3.69,5.61-4.83,6.74-2.02,2-9.12,7.3-7.71,7.87-3.19-5.14-6.17-10.48-8.48-16.08,0-.86-.1-3.23-1-2.41l-4.85-12.7c.85-.62,1.67-.79,2.65-.79.14.91.11,1.49.37,2.38l5.03.82c2.35.38,4.59.82,6.29,2.25Z"/>
    <path class="cls-198" d="M719.07,284.03c-.24.22-.8.38-1.03.63-8.92,2.1-23.51,5.95-32.28,1.7-1.12-.54-2.18-1.38-1.52-2.78,7.63,5.51,31.54-2.5,34.05-1,.48.29.88.78.78,1.45Z"/>
    <path class="cls-115" d="M714.65,313.05h-17.01c-.07-.54-.48-.97-.8-1.61,5.03-.03,9.73.89,14.78,1.11,1.12.05,2.46-.43,3.03.49Z"/>
    <path class="cls-161" d="M674.1,272.49c1.14-.79,3.91,1.75,3.91,1.88.01.38-.2.84-.41,1.02-1,.85-2.51-1.6-3.51-2.9Z"/>
    <path class="cls-209" d="M687.61,239.33c.11.73-.18,1.39-.29,1.7-.11.34-1.32-.32-1.42-.79-1.63-7.09-1.53-14.61.73-21.58.34-1.06,1.09-2.22,2.34-1.62-2.16,7.42-2.46,14.62-1.35,22.29Z"/>
    <path class="cls-9" d="M727.11,246.67c.83.07,1.82.04,2.41-.6.27.27,1.49.72.83.96-1.39.13-2.66.42-3.24-.36Z"/>
    <path class="cls-104" d="M714.62,202.15c-.56.77-1.61.87-2.5,1.04-.44-.07-.61-.23-.5-.5.64-.92,2-.41,3-.54Z"/>
    <path class="cls-154" d="M786.1,224.13c-.06.76-.49.41-.78.03-.24-.32-1.16-.82-.35-.99.48.31.75.53,1.13.96Z"/>
    <path class="cls-180" d="M711.62,202.69c.24-.02.44.3.5.5-.51.1-1.33.09-1.5-.5.28-.11.7.02,1,0Z"/>
    <path class="cls-101" d="M764.24,238.09c.52.28.3.55-.27.61-1.16-.08-1.01-.68.27-.61Z"/>
    <path class="cls-150" d="M693.23,239.23c.24-.31.8-.08.87.13.05.16-.39.4-.48.54-.31.48-.78-.17-.39-.67Z"/>
    <path class="cls-57" d="M50,108.27c-1.37,11.82-2.11,19.42,1.02,31.03-.51.51-1.19.64-2.04.38l-36.06,2.43c-.45,1.41-.59,3.05-.42,4.95l-1,.67c13.78.2,27.59.37,41.43.5l.56.51c.6.88,1.04,1.88,1.08,2.98-1.96.39-4.1.42-6.41.09.06.14-.17.31-.68.53-.16.01-.35-.02-.5.03l-8.02-.12c.7.05.55.24-.48.56-.31.04-.7-.03-1,.08-2.4.23-4.81.21-7.22-.05l-.77.47c-.31.04-.71-.03-1,.08l-7.02-.14c.71.05.55.24-.47.55-.46.07-1.08-.05-1.5.09-2.3.19-4.62.17-6.94-.05l-.95.51c-.07,9.18,0,18.37-.62,27.4l.2-41.93.25-31.91c4.42-.14,8.84-.18,13.56-.1l25.03.45Z"/>
    <path class="cls-57" d="M19.49,153.9c-2.53.89-5.27.04-7.9.46,0-.36-.29-.97.17-1.09-.53.14,7.17.69,7.73.63Z"/>
    <path class="cls-57" d="M46.97,152.37c-2.71.97-5.67.05-8.5.44-.03-.36-.11-.94.27-1.04.48-.13.95.28,1.44.3l6.79.3Z"/>
    <path class="cls-57" d="M54.56,151.72c.09.21.34.37.41.59-2.5-.03-5-.14-7.5.03-.85-2.33,3.88.18,7.09-.62Z"/>
    <path class="cls-57" d="M28.48,153.39c-2.39.92-5,.05-7.5.42-.03-.35-.11-.95.27-1.04.48-.12.95.27,1.43.3l5.8.32Z"/>
    <path class="cls-57" d="M37.48,152.89c-2.55.92-5.34.06-8,.42.08-.28.19-.62.46-.8.29-.2.67.12,1.12.14l6.42.24Z"/>
    <path class="cls-38" d="M658.15,260.55l-1-2.41c-.02-.06-.01-.47.03-.62.05-.17.5,0,.8.24.91.74.67,2,.17,2.79Z"/>
    <path class="cls-123" d="M669.64,250.61c.1.35-.09.51-.5.5-.63,0-1.68-.25-1.95.48-.38-.45-.77-.78-.56-1.5.95.59,2.12-.15,3.01.51Z"/>
    <path class="cls-71" d="M714.89,255.04c-.84.93-2.17.87-3.04.04.94-.74,1.78-.79,3.04-.04Z"/>
    <path class="cls-36" d="M671.64,251.61c.44.14.43.31,0,.5-.56-.23-1.12-.51-1.5-1-.44-.14-.43-.31,0-.5.61.17,1.06.58,1.5,1Z"/>
    <path class="cls-39" d="M717.72,247.41c.22-.5.54.16.68.22.26.11.39.91-.02.93-.23,0-.93-.52-.66-1.15Z"/>
    <path class="cls-111" d="M673.14,252.11l-.5.5c-.37-.07-.66-.36-1-.5v-.5c.19.18.85-.13,1.22,0,.17.06.28.2.28.5Z"/>
    <circle class="cls-190" cx="670.64" cy="245.87" r=".32"/>
    <path class="cls-21" d="M670.14,250.61v.5h-1c.15-.18.32-.35.5-.5.11.08.36-.04.5,0Z"/>
    <circle class="cls-74" cx="709.12" cy="254.86" r=".32"/>
    <path class="cls-133" d="M672.64,252.61c.15-.18.32-.35.5-.5,0,.32-.14.57-.5.5Z"/>
    <path class="cls-109" d="M697.18,119.24c.38-1.26.62-3.21.92-4.44,1.07.35,1.36,1.48,1.18,2.73-.12.86-1.14,1.39-2.1,1.71Z"/>
    <path class="cls-23" d="M727.83,93.05c-.02-.49.67-.16.78.03.09.17.07.54-.21.73-.16.11-.56-.29-.57-.76Z"/>
    <path class="cls-156" d="M677.04,140.04l-10.81.48c-.69.03-.29-1.5.36-1.73,2.12-.75,10.48-2.92,10.46,1.25Z"/>
    <path class="cls-112" d="M660.72,132.84c-.07-.22-.13-.46-.33-.73-.8.46-1.52.52-2.26.63,2.66-1.99,4.37-4.76,6.18-7.95,1.01.93,1.7,2.09,2.18,3.44-1.81,1.3-5.31.99-5.77,4.62Z"/>
    <path class="cls-90" d="M186.43,48.89c.06.53.24.74.54.62.85,1.04,1.78,2.08,2.06,3.41.22.55.16.89-.18,1.01.22.8-.15,1.25-1.09,1.35-.06.24-.15.47-.3.64-.78.9-8.8-2.7-10.01-3.59-5.27-4.59-16.15-3.03-22.53-1.16l.54.76c-.63,1.55-2.25,2.27-4.85,2.17-2.19.2-6.44.47-7.61-1.32-2.59-.98-5.02-2.18-7.29-3.61l.82-1.19c1.95.16,1.69-.27-.79-1.28-2.8-.76-5.07-2.01-6.8-3.75l-1.01.52c-.22,1.45-3.17,2.04-4.09.98-.65.65-1.33.82-1.96.15-11.9,3.14-20.18,12.27-26.26,22.52l-1.64.78c-.26.22-.36.33-.09.53.27,1.58-.1,3.19-1.13,4.84-2.57,8.24-4.79,16.55-6.65,24.93-.16,7.23.13,14.42.87,21.56,1.41,1.03,1.72,5.07-.52,5.05l-.98-.52c.19-.74-.1-.88-.93-.97-.52-1.07-.46.05,0,.5,1.5.55.91,2.01-.65,1.86-.4.22-.99.28-1.5.15-.38.25-.8.39-1.26.35-1.38-.13-4.75-5.88-5.24-7.46l-.92.57c.12.51-.07.68-.57.5h-1.31c-3.74-4.04-10.23-5.13-15.11-2.62l-1.04-.35c-.58.29-.72.4-.66,1.06l.5,1.64c-3.26,11.34-.15,23.6,5.8,33.52l-.1,1.7c.36.8.83,1.36,1.4,1.67,1.3-.89,2.94.79,1.55,1.83l1.08,1.61c1.22.28,3.83,1.53,2.87,2.94-.18.31-.39.79-.3,1.35l1.34,8.69c.16,1.04-1.69,3.02-2.14,2.24-3.15-5.39-6.18-10.47-8.48-16.19-3.35-8.32-6.13-16.68-7.82-25.56-1.51-7.88-1.04-15.79-.26-23.64.41-4.14,1.87-7.76,2.69-11.85-.28-.25-.7.03-.99.08-.16-.32.02-.73-.08-1.05.79-.09,1.44-.53,2.06-1.2s-.35-1.29-.43-2.24c-.25-2.83.2-5.47.4-8.04l.54-1c.36-.42.38-1.08,0-1.5-.05-.23.22-.53.42-.5.63-.43.86-1.22.73-2,.23-.51.42-1.05.84-1.45.33-.15.32-.33.05-.59l4.05-7.26c3.66-6.55,7.2-12.74,12.39-18.2,5.75-6.06,11.86-12.01,19.49-14.81,1.14.09,2.29-.3,3.09-1.13,1.5-.55,2.82-1.48,4.4-1.88.87.12,1.72-.08,2.53-.61,1.15.06,2.43-.34,3.69-.79,5.15-1.81,10.22-2.61,15.72-2.35,13.15-3.66,33.16-5.21,44.73,2.89,3.52,2.46,6.65,4.64,10.45,6.63,3.36,1.76,5.75,5.19,7.86,8.05Z"/>
    <path class="cls-164" d="M139.49,271.06l-5.66-3.78c-2.35,2.14-4.76,2.47-7.38,1.87-2.44-.69-4.16-2.01-6.11-3.54-12.29-6.6-24.33-15.36-34.73-24.59-9.17-8.14-16.21-18.19-19.12-30.03.56-2.03,1.36-3.98,2.39-5.84,1.74-5.87,2.03-11.99,2.25-18.31.16-4.41.2-4.77-1.59-9.68,2.04-1.11,2.6-2.79,2.31-4.85l-.49-3.52c.08-.45.02-.94.2-1.52,2.5,1.18,4.86,2.36,7.52,3.35.47,2.33.48,4.78,1.63,6.93,5.1,9.55,2.22,10.17,10.19,20.22l5.28,6.65c3.2,4.03,6.97,7.31,10.63,10.93,5.14,3.5,9.57,7.62,15.14,10.36l19.38,9.56-2.06,24.82c-.32,3.87.66,7.47.22,10.99Z"/>
    <path class="cls-57" d="M67.55,199.69c0,1.24-3.86,13.55,1.34,5.45-.52,1.74-.54,3.73-1.32,5.67-.52,1.29.7,2.52,1.07,3.65,2.69,8.33,7.26,15.39,13.25,21.72,3.99,4.22,8.55,7.24,12.99,10.96,7.95,6.65,16.01,12.49,25.24,17.19,2.46,1.25,4.21,3.46,6.34,4.82-3.36-.77-7-.3-10.53-1.54-5.58-1.96-11.09-4.15-16.1-7.41-13.74-8.94-20.06-15.83-29.71-28.68-3.47-4.62-6.15-9.87-7.34-15.53-.84-3.99-.25-8.17.46-12.08.41-2.27,2.18-3.95,3.74-5.14.51-.83,1.09.22.59.93Z"/>
    <path class="cls-164" d="M51.02,139.3l2,7.43c.35,1.68-.76,2.1-3.33,1.27-12.79.15-25.52.06-38.2-.27l.05-6.53,37.43-2.52c.9-.06,1.55.29,2.05.61Z"/>
    <path class="cls-57" d="M53.49,148.74c-1.17.44-2.34.47-3.59-.45l-37.88-.02c-.44,0-.53-.4-.52-.55l40.48-.02c.46,0,.8-.16.94-.31s.11-.47.11-.67c.17.62.48,1.36.46,2.01Z"/>
    <path class="cls-121" d="M70.99,161.32c-.24.53-.61.99-1,1.43h-.56c-.82-1.1-1.94-1.92-2.87-2.93-.38-.21-.35-.37.08-.51,1.16-1.35,4.49.3,4.35,2Z"/>
    <path class="cls-206" d="M168.46,238.34c-.3.77-1.33.63-2.03.73.02-.53-.14-1.58.62-1.39.56.13,1,.49,1.41.66Z"/>
    <path class="cls-52" d="M221.92,261c-1.3-.5-3.26-.26-4-2,1.32.69,3.22.6,4,2Z"/>
    <path class="cls-160" d="M59.49,208.2c-.03-.52-.17-1.05-.57-1.41.26-.38.27-.89.92-1.11.2,1.01.39,2.18-.35,2.52Z"/>
    <path class="cls-125" d="M67.55,199.69c0-.19-.08-.43-.09-.73,0-.16-.26-.39-.5-.2-.13-.46.33-.74.75-.57.4.16.25.7.25,1.18,0,.19-.06.33-.41.32Z"/>
    <path class="cls-3" d="M158.4,231.64c-.51.05-.43-.54-.53-.78-.27-.67.44-.86.62-1.22l-.09,2.01Z"/>
    <path class="cls-46" d="M170.09,258.68c.19-.14.43.34.58.42.37.19.19.49-.03.49-.35,0-.64.07-.97,0-.46-.11-.1-.53.42-.9Z"/>
    <path class="cls-117" d="M637.16,95.35h.5c-.28.31-.85.85-1.43.3-.15-.26.61-.39.93-.3Z"/>
    <path class="cls-164" d="M691.16,125.21c-.06,1.89-2.19,3.44-2.92,4.97,1.07-3.17-13.17-1.82-15.61-2.35,2.17-2.55,2.86-5.56,2.41-8.49.65-1.06,1.16-.65,1.6.42.97-.55,1.95-.87,2.96-.97l.82-.13c3.31,2.02,6.82,3.81,10.53,5.34l.23,1.21Z"/>
    <path class="cls-57" d="M691.16,125.21l-11.08-5.19c-.29-.14.02-1.18-.49-1.24-1.16,1.01-1.75.27-.86-.97-1.22-1.62-.56-2.39,1.33-2.55,4.96.32,9.84,2.9,12.74,7.15.32,1.08-1.24,2.17-1.63,2.8Z"/>
    <path class="cls-61" d="M676.21,114.82c1.54.56,2.88,1.14,2.52,2.99.28.23.44.92.86.97-.02.66-.52,1.03-1.26,1.34l-2.62,1.09c-.12-.66.09-1.83-.67-1.88-1.75-.12-2.89,1.68-5.1,2.03-1.59-3.48,3.2-6.33,6.28-6.54Z"/>
    <path class="cls-127" d="M680.05,115.26c-.55.81-1.39,1.51-1.33,2.55-1.02-.83-1.77-1.92-2.52-2.99,1.34-.09,2.55.36,3.85.44Z"/>
    <path class="cls-32" d="M770.39,123.19c.54.83,1.07,1.76,2.06,2.07-.01.89-.82,1.07-2.42.54-.58-.24-1.81-.11-2.39-.49.75-.89,1.72-1.59,2.75-2.12Z"/>
    <path class="cls-142" d="M771.59,121.81c-1.19-1.83-1.6-4.29-.08-5.9-.15,2.5-.35,4.11.08,5.9Z"/>
    <path class="cls-119" d="M770.03,125.8c.84.04,1.79.1,2.42-.54.46.14.88.37,1.17.92-1.54.39-2.57.18-3.59-.38Z"/>
    <path class="cls-86" d="M776.2,118.43c.34-.33.74-.12.89.14.33.56-.83,1.17-.76,1.2-.39-.14-.4-1.08-.13-1.33Z"/>
    <path class="cls-17" d="M770.02,115.92l-.49-.04c-.13-.38.3-.58.77-1,.22-.2.44.59.3.68l-.58.36Z"/>
    <path class="cls-76" d="M781.58,106.84v-.5c.4.1.86-.22,1.54.19-.38.54-1.03.29-1.54.31Z"/>
    <path class="cls-81" d="M771.59,121.81c-.08.49-.1.59-.08.52s.06-.32.08-.52Z"/>
    <circle class="cls-129" cx="787.33" cy="107.58" r=".25"/>
    <path class="cls-98" d="M725.11,200.69v.5c-.33-.24-1.22-.05-1.5-.5v-.5c.44.34,1.02.3,1.5.5Z"/>
    <path class="cls-57" d="M745.65,207.67c-.43.03-.74-.33-1.1-.45.35.07,1.21-.14,1.1.45Z"/>
    <path class="cls-164" d="M127.93,43.47c.12-.45.29-.44.51-.01,2.67,1.16,5.31,2.44,7.92,3.84-.76,1-.8,1.81-.13,2.43,2.27,1.04,4.53,2.05,6.77,3.05,4.23.4,8.62.89,12.46-.85.1-.26.22-.5.38-.7.56-.67,10.28-1.82,11.87-1.75,3.13.14,7.7.37,9.74,2.85.88.27,1.81.7,2.46,1.36,2.38,2.42,9.29,13.89,9.26,17.19,0,.87-.26,1.66-.82,2.32,2.64,1.27,5.91,8.93,3.6,10.78-.62.49-.88.45-1.55-.18-.11.49-.28.51-.5.07-.56.47-1.6.07-2-.5-.59.25-1.38.17-1.5-.5-.4.26-.74.44-1,0-5.62-.44-11.28-.44-16.99,0l-.32.53c-1.5.14-.73.13,2.32-.03,4.54-1.06,10.09-1.66,14.49,0,.35-.26.68-.36,1,0,.65-.11,1.58-.06,2,.5.6-.16,1.42.18,2,.5.19-.33.53-.14,1,.56,1.53-2.16,4.75,5.31,4.74,6.28.17.66-.26,1.04-1.27,1.15-.74,2.27-.67,4.34.2,6.22l-.11,1.14c.03,1.03,1.45,1.05,3.4,1.71-.58,1.43-1.79,2.66-3.63,3.7l-3.12,3.5c-.79.53-1.28.26-1.22-.73-.11-1.51,2.65-4.71,2.71-5.76.01-.26-.98-.62-1.28-.23-8.28,10.61-5.65,18.9-1.61,30.59l3.72,10.77c.52,1.51.75,2.18.46,3.48-.55.82-1.38.54-2.48-.84-6.11.21-12.21.73-18.29,1.56-4.72.75-7.5.29-6.73-4.7-.66-.48-.68-1.18-.06-2.11-4.69,5.14-9.36,10.3-14.02,15.45-4.58,1.06-8.79-.43-12.52-2.25,1.68,1.61,2.22,3.27,1.6,4.99-1.02,1.58-2.72,1.63-5.1.15-11.54-7.49-6.42-2.02,2.14,1.81l.9,1.42c.69.54.61,1.47-.23,2.77,1.53,3.31,4.1,5.76,7.7,7.33.08,1.34-.36,2.67-1.3,3.98,2.91,1.02,4.29.51,6.53-1.43,1.53-.71,4.73-2.09,3.38.45l-.46-.03-.59.45-2.28,2.25c-.71.7.16,6.3-2.03,6.34-1.34,4.86-3.77,9.14-6.18,13.32.15-.42.46-.34.62.09,1.21.33.62,1.76-.13,2.44,1.25.73.53,2.21.62,3.46.5.81.22,1.09-.58.55l-10-4.05c-6.8-2.75-13.55-4.83-20.83-6.01-1.61-.26-3.02-.62-4.16-1.42-.46-.01-.92-.04-1.36-.14-3.31-.73-13.12-9.39-15.76-12.66-4.33-5.38-8.9-14.76-9.59-21.55-.89-2.19-1.26-1.3-1.12,2.68-2.2,2.73-11.18-1.04-13.56-2.8-9.44-7-14.31-25.98-11.49-37.09,1.73-6.82,10.36-6.28,15.04-2.81,1.03.76,2.71,2.02,1.34,3.05,1.37,2.29,3,4.23,4.88,5.82.79-.61.93.18.63.98l1.09-.36c-.48-.65-.24-.91.51-.49.82-.28,1.76-.08,2.83.58,1.66.19,2.49-.81,2.49-3l1.14-.12c1.13-1.67.09-3.19.52-5.05-3.45-27.98,5.56-63.85,34.78-74.52.61-.83,1.3-1.09,2.06-.78,1.24-.58,2.76-.78,4.09-.98Z"/>
    <path class="cls-84" d="M82.43,125.82c.43-.1.93-.15,1.5-.15.29-.59.64-1.19.65-1.86-.36-.15-.36-.32,0-.5.43-.38.67-1.01,1.13-.84.6.23.8.56.79,1.24l-.02,1.09c-.83,1.22.22,3.33-2.35,4.05-1.26.35-2.82-.13-4.12-1.51l-1.11.4c.49.53.19.77-.49.44-.15-.35-.42-.66-.63-.98-1.86-1.56-3.49-3.5-4.88-5.82-1.82-4.37-12-6.19-14.62-2.33-1.05,1.54-.78,3.68-1.08,5.43-1.79,10.77,2.74,24.84,10.55,32.44,1.32.93,13.02,6.53,13.01,3.33,0-1.58-1.18-9.58,1.74-7.97-.12,1.06-.91,3.53-.03,4.2,1.93,1.45.93,2.59,1.32,4.28.8,3.5,2.77,6.89,4.32,10.23,2.17,4.66,4.86,8.93,8.77,12.26,4.09,3.48,8.31,6.49,12.52,9.45-.04.85.39,1.81-.48,2.74-16.33-10.88-20.17-13.33-27.03-32.27-3.06,1.22-8.73-.72-10.91-1.86-1.41-.74-2.79-1.57-4.35-2-.49-.08-.88-.45-1.15-1.11-.12-.84-1.12-1.22-1.55-1.83-.57-.26-1.04-.81-1.4-1.67-6.73-10.2-10.5-25.08-6.2-36.85-.22-.53.1-.94.66-1.06,1.1-1.79,11.36-4.45,17.46,2.97.17-.07.31-.11.36-.06.92.96.29,1.38,0,0-.03-.13.07-.28.21-.44-.15-1.85-1.38-3.34-1.37-5.54,3.4,1.87,3.26,8.57,8.79,12.08Z"/>
    <path class="cls-173" d="M145.35,259.83c-.28,1.42-.72,2.62-2.24,2.47,1.06-8.62,1.56-16.94,4.06-24.98l3.8-12.2c3.91-12.57,6.93-10.23,5.82-8.6-1.49,2.19-2.52,4.64-3.27,7.26l-4,13.98c-2.06,7.2-2.66,14.45-4.17,22.07Z"/>
    <path class="cls-49" d="M143.4,206.16c.55-.24,1.16.1,1.53.53.81.25,1.65.59,2.5,1,.75.15,1.28.5,1.58,1.05.15.17.47.42.36.58-.13.19-.37.3-.5.3-7.17-.82-14.15-4.74-21.08-8.81,5.61.8,10.37,3.86,15.61,5.36Z"/>
    <path class="cls-40" d="M149.1,208.23c-.51-.01-1.07-.19-1.68-.55-1.05-.26-1.89-.76-2.5-1.5-.5.27-.85.12-.97-.46.16-.5.2-1.06.44-1.53.13-.15.41-.45.58-.55,1.04-.25,1.46-1.9,2.93-2.02.1,1.61-1.26,2.23-1.52,3.5,1.43.76,3.46.56,4.13,2.04.33.71-1.09,1.09-1.42,1.07Z"/>
    <path class="cls-143" d="M144.92,206.18c.3.15.3.32,0,.5-.54.14-1.09-.4-1.53-.53.18-.09.49-.21.56-.43.33.14.65.3.97.46Z"/>
    <path class="cls-164" d="M162.33,173.15l2.71,1.98c6.07,4.43,13.11,7.94,19.9,4.59.5.37.83.95.94,1.43.55,2.22-3.29,4.3-4.94,4.32,0,.25-.03.48-.14.67-.28.5-9.65.78-10.48-.73-.24,1.58-2.71,1.48-3.81.77-.38-.78-1.46-1.27-1.4-2.72.02-.49-.51-1.09-.85-1.1-.54-.01-.59,1.01-3-1.89-1.16-1.39-1.71-2.91-3.57-3.62-.78-.3-1.32-1.05-1.72-1.6l-1.1-.66c1.38-2.21,5.14-2.4,7.44-1.44Z"/>
    <path class="cls-203" d="M173.39,187.21l1.02.77c-1.77,1.75-3.58,2.76-5.07,4.68-.84-2.35-1.81-4.37-2.83-6.48,1.04-.95,2.53-.41,3.81-.77.76.45,1.62.75,2.59.92l.47.88Z"/>
    <path class="cls-50" d="M144.36,200.17c-.03-.74,0-1.74.13-2.44-.03-.39-.33-.35-.62-.09-.44-.07-.68-.48-.73-.79-.08-.55.17-.97.56-1.39,5.35-5.57,4.53-11.12,6.34-11.15-.2,3.27-1.47,6.38-3.21,9.4,1.03,1.43-1.28,7.04-2.49,6.45Z"/>
    <path class="cls-67" d="M180.95,185.46c.04.32.43,1.31-.17,1.45-1.34.32-2.64.66-3.8.71s-2.41-.34-3.58-.41c-1.23-.07-3.21-.35-3.06-1.8,1.15-.32,2.32.17,3.68.15l6.94-.1Z"/>
    <path class="cls-58" d="M164.91,216.8c-.85.2-.72.15-1.54-.29-.08-.47.57-.33.82-.35.4-.03.9.15.72.64Z"/>
    <path class="cls-63" d="M149.1,208.23c-.02.17-.06.34-.1.51-.6-.23-1.16-.55-1.58-1.05.61-.06,1.3.01,1.68.55Z"/>
    <path class="cls-57" d="M154.37,175.73c.17-.18.37-.33.59-.45l-.59.45Z"/>
    <path class="cls-57" d="M144.5,163.75c1.9,1.92,4.41,3.33,7.35,3.5,2.3.13,8.66,4.57,10.48,5.9-.55.23-8.16.76-6.34,2.1l-.57.07c.05-.1.03-.36-.1-.61-6.75,1.72-2.67,4.48-11.29,2.29l2.17-4.25c-3.66-1.2-6.53-3.7-7.98-7.31-.46-1.14.84-2.27,1.13-3.21.19-1.29,2.06-1.93,2.72-.57.73.76,1.55,1.46,2.45,2.1Z"/>
    <path class="cls-90" d="M176.89,154.78c.82-.93,3.72-.92,4.51.04,2.02,3.41,8.32-3.29,12.92-.04,2.27,1.6,4.49,2.95,7.43,1.88-.06,1.51,1.28,2.12,1.34,3.06.02.29-.97,3.81-3.15,2.83-.16,1.76-.61,3.44-2.42,4.31-5.38,2.58-12.01,3.5-17.47.79-2.11-1.05-3.72-2.05-6.15-.83-4.57,2.29-15.45,1.85-17.29.71l-3.39-2.11c1.44.89-9.65-3.19-8.72-1.67-1.04-.66-1.85-1.36-2.45-2.1-1.14-.64-.94-2.34.41-2.47q.41,0,0,0c-2.77.78.01-2.74,1.7-3.25,8.08,2.22,14.5-.13,21.73-3.27l1.02.68c.49.29.86.25,1.1-.1-.26-1.83,2.35-1.68,3.72-1.42,1.66.32,4.1,1.6,5.15,2.96Z"/>
    <path class="cls-57" d="M201.76,126.38c1.61.76,2.44.41,2.49-1.06h1.18c-1.54,6.21,5.81,8.52,3.57,18.12-.84,3.63-1.96,7.15-3.67,10.19-1.16-4.71-3.78,3.12-8.12.71-1.5-.83-2.97-1.48-4.91-1.67,1.74-1.92,4.27-4,3.78-6.86-.99-5.85-5.05-13.68-6.66-19.86.2-1.21.97-4.46,2.54-3,1.13.82,2.67,1.03,4.61.63,1.68.21,5.1.96,5.18,2.8Z"/>
    <path class="cls-57" d="M209.8,118.28c-.69.59-1.54.71-2.56.37.59-.62.47-.72-.38-.3l-1.15.02c-2.21-2.87-5.89-3.34-9.29-3.17l-1.06-.85c-.18-.35-.3-.65-.21-.75.68-.73,6.23.45.93-.22-1.58.58-3.07.9-4.49.94-.6,1.13-1.86,1.29-3.78.49.65-2.27.29-5.06,2.09-6.93.13.57.55-.01.8-.27,1.95-2.78,4.37-4.72,7.17-6.2,3.29,1.1,7.28,1.61,10.31,3.61,5.87,12.65,3.18,9.71,1.62,13.25Z"/>
    <path class="cls-57" d="M193.9,146.74c-1.45,6.46-10.96,5.15-12.5,8.07-1.4.56-2.84.57-4.51-.04-1.21-.68-1.57-1.37-1.09-2.06-1.34-.85-1.04-1.35.46-1.54l.7-1.05c6.56.41,6-.75.24-1.28l-2.38.22c-3.22,1.88-5.68,3.11-8.74,0-1.92-1.95-2.66-5.56.32-6.32l1.58,3.93c8.51-.06,15.08-1.83,23.39-1.8,1.14.09,1.69,1.52,2.53,1.85Z"/>
    <path class="cls-122" d="M188.85,53.93c1.28.48,1.83.98,1.63,1.49.44.36,1.2.59,1.55,1.02,2.98,3.64,6.39,6.95,8.89,10.97,3.2,5.15,4.76,15.01,4.84,21.41.04,2.99-.1,5.63,1.15,8.09,1.46,1.07,1.85,2.17,1.48,3.92.39.46.45,1.55.11,1.98-.55-.15-1.11.01-1.61-.48.43-.26.6-.59.5-1-.89.33-.95-.05-.18-.64-1.6-.31-3.49-3.95-2.29-5.25-.83-.34-.87-1.42-.49-2.1l-1.07-.51-.19-5.06.78-.84c-.45-.28-.38-1.07-.07-1.54l-1.19-1.21c-.86-11.35-6.86-19.54-14.75-27.24l-.17-1.67c-.41-.3-.15-.67.17-.96.22-.2.56-.32.93-.39Z"/>
    <path class="cls-90" d="M194.37,92.35c.72-1.27,2.14-1.49,4.26-.67,1.64.41,5.21,1.5,5.22,3.24.45.06.81.24,1.07.54.62,1.8,1.77,3.44,2.29,5.25-.11.53-.55.91-1.32,1.13-2.6-.73-9.24-2.98-11.42-2.13-2.56-1.3-1.27-6.72-1.24-6.8.17-.32.62-.48,1.14-.56Z"/>
    <path class="cls-174" d="M206.83,122.72c-.5.81-.81,1.81-1.39,2.58-.41.54-.56,1-.65,2.03-.07.87-1.33.45-2.09.37-.54-.05-.87-.64-.93-1.33-.43-1.37-1.75-2.28-3.95-2.72-.3-.17-.14-.84.07-1.27-.47-1.27,2.05-2.85,3.11-2.16.85-.66,1.88-.36,3.11.91,1.63.04,2.54.57,2.72,1.59Z"/>
    <path class="cls-72" d="M187.9,115.32c.59.33,1.24.5,1.94.51.05-.77.91-.84,1.11-.08l.23.75c1.04-.52,1.78-.4,2.22.34,1.11-.19,1.59.67,2.04,1.54.44.96.71,2.02-.52,2.46-1.86.05-3.84.57-5.62,1.52l-.99-.51c-.91-2.39-1.19-4.6-.5-7.03.5.05.52.22.09.5Z"/>
    <path class="cls-94" d="M194.92,120.84c1.32-.4,1.39.06.41.97,1.04.39.48.74-.49,1.01-.3,1.24-2.42,1.19-2.86.12-1.04-.06-1,3.12-2.54,3-.33-1.26-.67-2.91-1.13-4.09,1.58-1.32,3.8-1.31,5.73-2.46.27.68.57,1.01.88,1.45Z"/>
    <path class="cls-183" d="M206.87,120.79c.82-.4,1.1-.17.86.67-.11.43-.67.89-.89,1.26-5.01-1.38-1.17.45-5.84-2.5-.99-.61-1.58-3.01-.16-3.36-.12-.46.21-.42.6-.11,1.72-2.34,4.41,2.25,5.43,4.03Z"/>
    <path class="cls-31" d="M209.8,118.28c-.47,1.07-1.12,2.48-2.08,3.18-.34.42-.86-.36-.86-.67-1.15-.52-1.43-2.06,0-2.43.02-.2-.04-.44.09-.72,1.11.1,2.04.18,2.85.64Z"/>
    <path class="cls-2" d="M207.2,100.71l.18.64c.58.65-.29.97-1,.5-.16-.01-.35.04-.5,0,.22-.58.66-1.11,1.32-1.13Z"/>
    <path class="cls-196" d="M206.89,102.34l-.5-.5c.4.03.88-.06,1-.5.2.09.46.12.5.28.07.29-.03.7-.27.72-.26.02-.52,0-.74,0Z"/>
    <path class="cls-175" d="M208.39,100.84c-.95-1.11-.87-2.72-1.48-3.92.79.46,2.88,1.12,2.42,2.03l-.94,1.89Z"/>
    <path class="cls-33" d="M190.48,55.42c-.55-.46-1.46-.69-1.63-1.49.14-.45.32-.45.55-.02.29.08.46.41.94.51.15-.89.03-1.44.03-2.04.32.97,1.03,1.96.11,3.03Z"/>
    <path class="cls-113" d="M97.04,36.94c-.07,1.05-2.24,1.86-3.09,1.13l3.09-1.13Z"/>
    <path class="cls-105" d="M103.97,34.45c-.43.78-1.87,1.41-2.53.61.87-.22,1.59-.66,2.53-.61Z"/>
    <path class="cls-62" d="M56.39,82.37c.14-.7.44-1.35.73-2,.56.18.33.84.14,1.49-.11.36-.28,1.03-.87.51Z"/>
    <path class="cls-188" d="M55.97,84.37c-.24-.14-.23-.31,0-.5-.04-.33.08-.68,0-1,.47-.08.53.4.53.75s-.06.83-.53.75Z"/>
    <path class="cls-88" d="M186.96,49.51c.2.28-.13.52-.31.4-.24-.16-.4-.34-.53-.49-.15-.16.07-.43.3-.53.2.19.36.41.54.62Z"/>
    <path class="cls-204" d="M55.97,84.37c.03.41-.06.92-.54,1,.04-.54-.08-1.25.54-1.5.02.16-.01.33,0,.5Z"/>
    <path class="cls-8" d="M57.96,78.93c.06-.18-.04-.43.05-.59.26-.17.35.01.46.28.07.18.02.52-.2.69-.13.1-.21-.19-.32-.38Z"/>
    <path class="cls-178" d="M189.4,53.92c-.17-.05-.38.04-.55.02l.18-1.01c.07.32.47.61.38,1Z"/>
    <path class="cls-114" d="M678.86,279.77c-.02-.49.67-.18.78.04.09.17.12.5-.22.73-.16.11-.54-.3-.56-.77Z"/>
    <path class="cls-57" d="M187.75,55.28c10.67,11.68,13.81,14.03,16.11,30.12-.34.7-.29,1.45.07,1.54.78,2.04.12,4.3.48,6.41-.05.74-.24,1.26-.58,1.56-3.06-1.36-6.08-3.12-9.47-2.57.81-1.03-.22-2.02-.69-3.15-.73-1.74-1.13-3.54-2.78-4.28-.63-.39-.8-.76-.5-1.12,3.02-.69-.1-7.64-1.06-8.39-4.84-3.76.99-1.38-2.13-7.69-2.78-5.61-5.68-10.86-9.75-15.39,1.27-.69,7.58,2.74,10.3,2.95Z"/>
    <path class="cls-12" d="M123.85,44.45c-.49.55-.99,1.53-2.08,1.87-6.92,2.16-12.58,6.18-17.24,11.68s-8.86,10.86-11.26,17.59c-3.15,8.84-6.16,21.36-6.12,30.73.02,4.72.86,9.1-.15,13.43-.85-.58-.8-1.76-.92-2.92l-1.13-11c-1.03-10.1,3.48-18.94,4.42-24.02.89-4.78,2.33-9.3,4.53-13.38-.22-.2-.18-.38.09-.53,6.65-11.14,14.51-20.86,27.91-24.26l1.95.81Z"/>
    <path class="cls-102" d="M177.45,52.33c-11.06-3.46-13.34-1.15-21.99-.4-2.26.2-4.71.44-7.12-.87,10.67-.15,15.49-5.12,27.24-1.34,1.71.55,1.46,1.6,1.87,2.61Z"/>
    <path class="cls-191" d="M153.92,39.92c0,.47-.34.82-1.02,1.05-8.58,2.68-18.01,1.84-25.97-1.81.16-.99.94-.97,1.57-.75,6.52,2.28,13.43,3.19,20.25,1.76,1.86-.39,3.49-.64,5.17-.24Z"/>
    <path class="cls-135" d="M143,52.78c-3.16-.3-6.15-2.06-9-3.65.52-1.1,1.2-1.24,1.77-1.63-2.69-1.28-5.42-2.05-7.33-4.04-.23-.44-.04-.59.5-.51,5.48,3.38,11.39,3.83,11.49,4.83.14,1.32-2.87.53-4.07,1.38.98.92,6.99,2.43,6.63,3.62Z"/>
    <path class="cls-149" d="M67.64,104.67c1.24,3.23,3.05,6.85.56,7.47-.85.21-2.35-6.27-3.57-7.41-.73-.18-1.55.15-1.63-.29-.11-.59-.26-2,.42-2.21,1.64-.5,3.58.76,4.22,2.44Z"/>
    <path class="cls-89" d="M128.94,42.95c-.18.16-.34.33-.5.51-.17.02-.35-.01-.51.01l-1.54-2.41c1.14.25,1.67,1.34,2.55,1.89Z"/>
    <path class="cls-208" d="M74.45,119.77c.21-.14.4-.31.57-.5.06.79,1.28,1.4.86,2.57-1.02-.38-.93-1.46-1.43-2.08Z"/>
    <path class="cls-18" d="M83.92,125.67c-.18.38,0,.75-.72.69-.4-.03-.47-.35-.77-.54-.07-.43.42-.47.77-.51.24-.03.83-.12.73.37Z"/>
    <path class="cls-91" d="M63.94,156.39c-.33.75-.76-.19-1.04-.42-.44-.35-.18-.98-.36-1.26.8.24.98,1.08,1.4,1.67Z"/>
    <path class="cls-134" d="M66.64,159.32l-.08.51c-.84-.2-.98-.89-1.08-1.61.52.2.89.63,1.15,1.11Z"/>
    <path class="cls-22" d="M84.57,123.31v.5c-.59.13-.71-.35-.64-1.04.05-.51.41-.56.52-.09.03.14.08.34.12.63Z"/>
    <path class="cls-212" d="M56.99,116.8l-.66,1.06c-.23-.21-.4-.55-.3-.77.16-.35.7-.36.96-.3Z"/>
    <path class="cls-16" d="M184.12,47.62c-.02-.49.67-.17.78.03.09.17.05.55-.21.73-.16.11-.55-.29-.57-.76Z"/>
    <path class="cls-103" d="M152.9,40.97c.37-.32.72-.67,1.02-1.05.65-.08,1.27.13.74.5-.94.11-1.28.55-1.77.54Z"/>
    <path class="cls-162" d="M93.9,68.43c-.62.04-.47-.48.09-.53-.06.16,0,.38-.09.53Z"/>
    <path class="cls-163" d="M122.27,255.05c.58,1.26.57,2.32-.79,2.64l-16.25-36.66c-.31-.34-.49-.48-.51-.66-.05-.5.22-.82.49-.79.45.05.92.26,1.15.77l15.9,34.69Z"/>
    <path class="cls-57" d="M166.29,96.33c5.63,3.41,3.67,3.93,5.93,7.82,2.12,3.65,3.08,7.68,1.96,11.87-3.4.78-6.89.07-9.24-2.12-1.31-.07-1.35-.43-.14-1.08-.87.06-1.7-.35-2.51-1.21l-3.24-.67c-1.32.37-2.2.16-2.64-.66-.32-.24-.98-.4-1.08.08l-.61,1.32-4.95,2.48c-3.16,3.15-6.67,5.43-10.53,6.83l-.42.75c-.84.75-1.88,1.66-3.03,2.02-.45,0-.47-.17-.1-.46-1.95-.23-3.97-.04-6.07.58-2.37.58-3.77.25-4.19-.97.48-.07.86-.47,1.24-.7-.99-.11-1.62-.16-2.79-.56,2.07-5.12-1.17-2.61,4.96-7.83l.36-.55c.66.38,1.39.36,2.21-.04-.16-.37-.36-.93-.13-1.13,4.22-3.57,13.48-11.14,18.16-13.32,5.12-2.38,10.64-2.86,16.22-2.93.2,0,.41.21.62.48Z"/>
    <path class="cls-90" d="M164.45,95.27l-.78.63c-13.06-.48-23.84,7.95-32.81,16.53l.56.78c-.74.57-1.63.52-2.56.6-.07-.24-.1-.62-.27-.76-.16-.13-1.07.44-1.29.19-.73-.82-.76-3.25.11-4.35,2.56-3.26,5.23-6.17,7.34-9.68,2.68-4.46,10.45-9.58,15.77-10.78,6.42-1.45,4.38-3.49,13.08,2.03.12.42-.29,1.3-.07,1.54.62.66,1.69.8,1.99,1.37s-1.14.85-1.36,1.21c-.1.17.28.48.28.69Z"/>
    <path class="cls-12" d="M166.4,142.77c-.71,1.23-1.17,2.37-.79,4.03.28,1.2,1.55,1.82,2.64,2.58,2,1.4,3.27.46,5.05-.76,2.01-1.38,10.36-.98,9.89,2.3-2.51.5-4.71.06-6.92.27-.43.44-.62.95-.46,1.54.59.4.76,1.49,1.09,2.06-3.01-1.09-5.79-3.06-8.88-1.54-.22.41-.73.36-1.1.1l-9.31,3.57c-4.44,1.7-9.38.59-13.86-.09-.09.42-.07.72-.07.88,0,.74-1.12.42-1.73.8-.18.11.52.33.52.67.01.74-.09,1.54-.41,2.47-.8-.09-1.87.88-2.72.57-4.07-1.49-8.08-3.78-11.37-6.89,2.25-3.6,5.16,2.18,11.71,3.86.81.21,1.03-1.54,1.08-2.14.09-1.07-3.17-2.86-1.36-4.11.69-.48,1.33-.1,2.06.4,3.02,2.11,6.77,2.23,10.41,1.98,4.09-6.51,7.19-6.47,12.56-14.1.88-1.25,2.35-2.38,3.92-1.8l-1.94,3.35Z"/>
    <path class="cls-57" d="M72.81,131.39c.63,1.21,1.3,2.6,1.17,3.94l.42,1.12c-2.37,4.09-.55,9.37,4.43,9.8l.49.61.67,5.23c-4.95-1.38-9.21-3.79-13.59-6.23l-1.38-3.1c-1.08-.3-1.92-2.94-.56-3.46l.98-7.46-.44-.52c.41-1.04.24-1.53-.53-1.49-2.15-.58-4.37-1.3-6.32-2.9l3.91-3.61c1.84-1.28,4.79.83,6.49,2.06,1.8,1.31,4.95,3.73,4.26,5.98Z"/>
    <path class="cls-198" d="M164.8,112.82c-.61,1.08-2.69,1.42-4,.85.61,1.49.47,2.36-.41,2.61l-.5,1.54-.43.5.45,1.02c1.56.23,3.19.71,3.87,2.29-.61.39-1.06.51-1.48.67l-.86.93c-2.73-.46-5.39-.4-8,.18-2.44,1.21-3.42,1.04-2.93-.52.78-1.84,2.44-2.7,4.77-3.48-.34-.8-1.11-1.19-1.33-2.21.98-1,2.3-1.12,3.48-2-.35-.89-1.15-1.94-2.06-2.08-1.63-.25-2.46,1.29-3.51,1.74-.06,1.02-.83,1.83-2.29,2.41-3.22,3-6.26,4.58-10.72,4.46-.27.03-.6-.47-.57-.72.03-.22.3-.48.7-.62,7.93-2.89,5.04-5.57,16.36-10.03.28-.45.66-.4,1.08-.08,3.15-.68,6.64-.61,8.39,2.53Z"/>
    <path class="cls-173" d="M164.45,95.27l1.22.05c.5.02.6.48.62,1-6.8.61-14.23,1.15-19.88,5.47l-14.98,11.43c-.7-.12-1.65.77-2.31-.6,12.74-10.27,18.41-18.08,35.34-17.35Z"/>
    <path class="cls-122" d="M74.85,138.79c-.35,2.79,1.19,5.14,4.61,7.06.19.45.1.54-.13,1.01-1.88.07-4.06-.29-5.36-2.03-2.13-2.84-2.07-6.87.02-9.5-.26-1.32-.65-2.63-1.17-3.94-2.51-3.94-6.26-6.75-10.76-8.05,0-.5-.31-.93-.19-1.62,6.62-.38,11.75,5.18,14.9,10.16.87,1.38.53,3.1-.6,4.13-.98.9-.94,1.88-1.32,2.77Z"/>
    <path class="cls-211" d="M162.31,122.3c.02.87.67,1.49,1.11,2.52-5.78.25-9.24,2.03-14.43,1.36-.4-1.62,1.12-2.29,1.53-3.28-.09.3.47.34.76.36,3.58-1.95,7.29-1.25,11.03-.95Z"/>
    <path class="cls-211" d="M135.72,123.31l.1.46c-.06-.19-1.67,3.7-1.72,3.26.03.33.95.89.78,1.31-.38.96-1.69.84-2.38,1.29-.57-.02-1.22.18-1.95.61l-.53-.37c-1.26.05-2.54.18-3.84-.15.01-.87.42-1.39.65-1.96.1-.36-.22-.68-.94-.96-1.07.21-2.33-.31-3.48-.3.08-1.55.79-2.15,1.59-2.7l.51-.29c3.46.64,7.06.46,10.8-.54l.4.33Z"/>
    <path class="cls-189" d="M151.86,114.87c-.03.95.93,2,.74,3.07-.34,1.97-8.67,4.03-9.34,4.06-1.54.06-3.01-.38-4.41-.25,7.93-1.61,7.54-4.5,13.01-6.87Z"/>
    <path class="cls-128" d="M65.44,131.85l-.98,7.46.56,3.46c-1.94,1.82-4.52-7.77-.55-12.92.79-1.02,2.85-2.04,4.26-1.08-2.04.69-2.46,1.97-3.29,3.09Z"/>
    <path class="cls-5" d="M164.8,112.82c.16.3.01.77.14,1.08-.69.03-1.35-.23-2.08.02,1.31,1.11,2.27,1.88,2.54,3.25-1.72.36-3.1.04-4.66-1.01-.36.63-.45,1.21-.83,1.66.38-1.81.45-3.69-.83-5.17,2.32-.78,3.97,1.64,5.73.17Z"/>
    <path class="cls-159" d="M135.72,123.31c-2.02.76-10.55,2.68-11.71.5.48-.33.81-.8,1.45-.89,3.88,1.55,9.68-2.26,10.26.39Z"/>
    <path class="cls-179" d="M185.4,82.87c.1.36-.09.51-.5.5-1.26.29-2.53-.48-3.98-.5-3.68-.05-7.11.38-10.51.5-1.59.36-2.25.19-2-.5,5.2-.68,12.04-1.72,16.99,0Z"/>
    <path class="cls-37" d="M79.45,145.85c-1.51-.53-3.19-1.14-4.07-2.32-1.13-1.51-1.19-3.24-.54-4.74-.32,4.49,2.8,2.66,4.61,7.06Z"/>
    <path class="cls-184" d="M126.83,127.76l-.8-.06c-.34-.07-.35-.24-.06-.47l-.08-.42c1.92-.37,4.07-1.77,6.18-.03-1.87.8-3.64,1.11-5.24.98Z"/>
    <path class="cls-14" d="M77.79,127.21c-1.41,1.31-4.78-4.95-4.88-5.82,2.03,1.5,3.53,3.69,4.88,5.82Z"/>
    <path class="cls-79" d="M175.91,74.39l1,.5c1.32.79-7.44.55-7.05.31,2.04-1.32,4.1-.81,6.05-.81Z"/>
    <path class="cls-10" d="M168.41,82.87c.33.76,1.32.48,2,.5-1.62.06-3.47,1.31-5.58.88.87-1.19,2.34-1.22,3.58-1.38Z"/>
    <path class="cls-93" d="M132.5,129.63c-.48.31-.88.88-1.66,1.12-.64.2-.86-.5-.83-.89l1.36-.75c.39-.22.94-.06,1.12.52Z"/>
    <path class="cls-75" d="M181.9,74.39c.23.44.04.59-.5.5h-4.5c-.4,0-.9-.04-1-.5h6Z"/>
    <path class="cls-151" d="M187.9,83.37c.44.14.43.31,0,.5-.59-.25-1.56.26-2-.5-.07-.34.12-.49.5-.5.55.03,1,.32,1.5.5Z"/>
    <path class="cls-185" d="M189.9,83.87c.41.14.41.31,0,.5-.79.29-1.37-.24-2-.5v-.5c.64.23,1.35.33,2,.5Z"/>
    <path class="cls-47" d="M159.91,119.35c-.58-.09-1.2.2-2.03-.25.52-.43,1.19-.32,1.58-.77l.45,1.02Z"/>
    <path class="cls-195" d="M181.4,74.88c.18-.15.35-.32.5-.5.33,0,.49.24.77.5.44.4-.07.59-.54.53-.23-.03-.51-.38-.74-.53Z"/>
    <path class="cls-25" d="M80.01,127.35l-.51.49c-.08.71-.45.66-.6-.09.07-.39-.04-.77.07-1.19.12-.48.54-.04.74.24.08.12.14.37.3.54Z"/>
    <path class="cls-181" d="M186.4,82.87c-.15.18-.32.35-.5.5-.32.05-.68-.07-1,0,.15-.18.32-.35.5-.5.27.1.7-.01,1,0Z"/>
    <path class="cls-171" d="M78.41,128.19l.49-.44.6.09c-.05.28.03.56-.07.73-.13.24-.46.33-.73.24-.32-.11-.21-.4-.3-.62Z"/>
    <path class="cls-165" d="M190.9,84.93c-.35-.16-.75-.24-1-.56v-.5c.12.03.39-.02.5-.07l.5,1.12Z"/>
    <path class="cls-140" d="M144.49,197.74l-.62-.09c-.21-.3.1-.29.29-.45s.49-.74.76-.26c.32.57-.37.59-.43.8Z"/>
    <path class="cls-211" d="M126.04,127.69c-.69.27-.77-.55-.06-.47l.06.47Z"/>
    <path class="cls-43" d="M147.42,207.68c-.98.1-1.89-.25-2.5-1v-.5c.87.45,1.86.73,2.5,1.5Z"/>
    <path class="cls-27" d="M144.5,163.75c-1.22-.3-1.84-.91-3.08-1.17.21-.38.52-.59.64-.93,1.08.12,2.14,1.12,2.45,2.1Z"/>
    <path class="cls-68" d="M168.01,153.24c.69.14.25.54.04.54-.5,0-1.35.04-1.15-.45.55-.21.89,0,1.1-.1Z"/>
    <path class="cls-45" d="M142.46,159.18c.32-.07.4-.03.37.01s-.19.07-.37-.01Z"/>
    <path class="cls-176" d="M200.4,139.28c-.45-.04-.78-.37-1-1-.65-3.5-1.87-6.28-3.71-9.64,2.14.3,4.45-.26,6.21.61,1.13.56.15,2.47-.23,3.27-.99,2.11-1.16,4.59-1.26,6.76Z"/>
    <path class="cls-128" d="M197.89,122.39c.38.92,4.16,1.37,4.43,2.76.09.47-.3.88-.55,1.23-5.52-2.93-6.86-1.24-10.02-2.34-.55-.19-.02-.69.23-1.09.96.06,1.91-.09,2.86-.12.48-.38,1.16-.55,2.06-.51.26-1.31.71-1.22,1,.07Z"/>
    <path class="cls-6" d="M200.4,139.28c.11.65-.11,1.27-.49.75-.11-.93-.55-1.27-.51-1.75.36.3.69.65,1,1Z"/>
    <path class="cls-122" d="M195.36,114.35c2.93-.63,9.56.18,11.5,4.01.12.81.01,1.62,0,2.43-1.26,1.24-3.02-4.45-5.43-4.03-.48-.29-.68-.26-.6.11-.02.92.85,2.51.16,3.36-.76.96-2.07,1.64-3.11,2.16l-1-.07c-.71.25-1.7.35-1.57-.5-.16-.25-.23-.73-.41-.97-.13-.92-.42-1.94.52-2.46.93-1.26.59-1.55-1.01-.88l-1.02-.66c-1.23.51-2.73.54-4.03,1.26-.04-1.46,1.1-1.62,1.58-2.35-.27-.73.38-.97.96-.56.11-.43.26-.41.44.04l.59-.36c-.24-.94,2.07-1.53,2.42-.52Z"/>
    <path class="cls-192" d="M195.36,114.35l-2.42.52-.59.36c-.14.03-.29-.04-.44-.04-1.22.07-1.19-.04-.32-.87,2.33-1.43,4.76-1.98,7.34-.68-1.56.51-2.87-.33-3.57.71Z"/>
    <path class="cls-201" d="M191.91,115.2c-.12.4-.79.3-.96.56l-1.11.08c-1.08.27-1.73.1-1.94-.51,0-.17.01-.34-.09-.5,1.2-.05,2.69.17,3.78-.49.22.24.34.54.32.87Z"/>
    <circle class="cls-138" cx="189.4" cy="114.07" r=".32"/>
    <path class="cls-167" d="M176.26,151.19c-.25.48-.41,1-.46,1.54-.72-.49-1.7-.62-2.45-1.28,1.17-.64,2.06-.18,2.91-.26Z"/>
    <path class="cls-97" d="M204.91,95.46c-.02.51-.32.4-.55.17-.19-.19-.3-.61-.52-.71,0-.57-.07-1.34.58-1.56.1.59.3,1.54.49,2.1Z"/>
    <path class="cls-147" d="M203.94,86.94c-.64.52-.6-.09-.58-.39.04-.56-.02-1.26.5-1.15.07.51.06,1.03.07,1.54Z"/>
    <path class="cls-205" d="M195.44,118.38c-1.13.33-1.71-.51-2.04-1.54,1.46-.61,3.05-1.21,4.47.32-.68.99-1.62.98-2.43,1.22Z"/>
    <path class="cls-194" d="M189.84,115.83c-.6.28-1.17.55-1.83,1.03-.23-.73-.09-1.12-.12-1.54.7-.1,1.43-.02,1.94.51Z"/>
    <path class="cls-19" d="M196.89,122.31c-.53.63-1.33.48-2.06.51.13-.31.46-.67.49-1.01.49.26,1.02.42,1.57.5Z"/>
    <path class="cls-83" d="M201.44,116.76l-.6.11c-.35.18-.52-.21-.41-.33.38-.42.55-.29.73-.22.26.1.48.18.29.44Z"/>
    <path class="cls-26" d="M156.42,110.29c-.34.07-.76-.04-1.08.08-.85-.4.03-.6.35-.57.51.04.81.08.72.49Z"/>
    <path class="cls-203" d="M165.92,150.27c.39.6.05,1.1-1.02,1.5-3.37,1.54-6.88,3.41-11.08,3.58,3.37-3.62,7.18-5.93,9.92-10.07.29,1.92.83,3.6,2.18,4.99Z"/>
    <path class="cls-108" d="M164.91,151.77c.14-.59.55-1.1,1.02-1.5.47.48,1.5.03,1.36.9-.82.41-1.63.54-2.38.6Z"/>
    <path class="cls-60" d="M64.46,139.31c-.43-2.64-.59-5.34.98-7.46,1.11.41-.44,7.21-.98,7.46Z"/>
    <path class="cls-146" d="M73.98,135.33c-1.43-.43-1.44-2.71-1.17-3.94.36.57,1.33.85,1.67,1.6.43.94.14,1.54-.5,2.34Z"/>
    <path class="cls-201" d="M192.35,115.23c-.2-.49.36-.31.59-.36.16.34-.39.32-.59.36Z"/>
  </g>
</svg>