<?xml version="1.0" encoding="UTF-8"?>
<svg id="Ebene_10" data-name="Ebene 10" xmlns="http://www.w3.org/2000/svg" viewBox="0 0 930 325">
  <defs>
    <style>
      .cls-1 {
        fill: #74c9d7;
      }

      .cls-2 {
        fill: #355b61;
      }

      .cls-3 {
        fill: #5595a0;
      }

      .cls-4 {
        fill: #0a1b1d;
      }

      .cls-5 {
        fill: #10292c;
      }

      .cls-6 {
        fill: #0e191b;
      }

      .cls-7 {
        fill: #6bbac6;
      }

      .cls-8 {
        fill: #508a94;
      }

      .cls-9 {
        fill: #010101;
      }

      .cls-10 {
        fill: #74c1cd;
      }

      .cls-11 {
        fill: #071011;
      }

      .cls-12 {
        fill: #75cad8;
      }

      .cls-13 {
        fill: #365d64;
      }

      .cls-14 {
        fill: #a1dce6;
      }

      .cls-15 {
        fill: #1d3134;
      }

      .cls-16 {
        fill: #182021;
      }

      .cls-17 {
        fill: #020506;
      }

      .cls-18 {
        fill: #76c9d6;
      }

      .cls-19 {
        fill: #5ca0ac;
      }

      .cls-20 {
        fill: #1b464c;
      }

      .cls-21 {
        fill: #aee6ef;
      }

      .cls-22 {
        fill: #477a83;
      }

      .cls-23 {
        fill: #70aeb9;
      }

      .cls-24 {
        fill: #040708;
      }

      .cls-25 {
        fill: #192a2d;
      }

      .cls-26 {
        fill: #050d0e;
      }

      .cls-27 {
        fill: #15353a;
      }

      .cls-28 {
        fill: #4c838d;
      }

      .cls-29 {
        fill: #1c484f;
      }

      .cls-30 {
        fill: #436065;
      }

      .cls-31 {
        fill: #070b0c;
      }

      .cls-32 {
        fill: #56a1ae;
      }

      .cls-33 {
        fill: #171f20;
      }

      .cls-34 {
        fill: #3b666d;
      }

      .cls-35 {
        fill: #72c5d3;
      }

      .cls-36 {
        fill: #071315;
      }

      .cls-37 {
        fill: #0e1819;
      }

      .cls-38 {
        fill: #548e98;
      }

      .cls-39 {
        fill: #5ca4b0;
      }

      .cls-40 {
        fill: #020607;
      }

      .cls-41 {
        fill: #122c30;
      }

      .cls-42 {
        fill: #081315;
      }

      .cls-43 {
        fill: #030607;
      }

      .cls-44 {
        fill: #72c2cf;
      }

      .cls-45 {
        fill: #2f7984;
      }

      .cls-46 {
        fill: #34838f;
      }

      .cls-47 {
        fill: #427179;
      }

      .cls-48 {
        fill: #132022;
      }

      .cls-49 {
        fill: #4495a2;
      }

      .cls-50 {
        fill: #030707;
      }

      .cls-51 {
        fill: #091719;
      }

      .cls-52 {
        fill: #61b4c1;
      }

      .cls-53 {
        fill: #060b0b;
      }

      .cls-54 {
        fill: #050909;
      }

      .cls-55 {
        fill: #28666f;
      }

      .cls-56 {
        fill: #a0dbe5;
      }

      .cls-57 {
        fill: #060e0f;
      }

      .cls-58 {
        fill: #76cbd9;
      }

      .cls-59 {
        fill: #9ed3dc;
      }

      .cls-60 {
        fill: #649fa9;
      }

      .cls-61 {
        fill: #5a9ba6;
      }

      .cls-62 {
        fill: #0d191b;
      }

      .cls-63 {
        fill: #050a0b;
      }

      .cls-64 {
        fill: #040909;
      }

      .cls-65 {
        fill: #0c191b;
      }

      .cls-66 {
        fill: #0c1f22;
      }

      .cls-67 {
        fill: #305258;
      }

      .cls-68 {
        fill: #68b3bf;
      }

      .cls-69 {
        fill: #4e8690;
      }

      .cls-70 {
        fill: #20525a;
      }

      .cls-71 {
        fill: #60a6b1;
      }

      .cls-72 {
        fill: #69b5c1;
      }

      .cls-73 {
        fill: #010102;
      }

      .cls-74 {
        fill: #132124;
      }

      .cls-75 {
        fill: #4f9aa6;
      }

      .cls-76 {
        fill: #0c1517;
      }

      .cls-77 {
        fill: #6cbbc8;
      }

      .cls-78 {
        fill: #0e2022;
      }

      .cls-79 {
        fill: #1e3336;
      }

      .cls-80 {
        fill: #000101;
      }

      .cls-81 {
        fill: #26616a;
      }

      .cls-82 {
        fill: #385f65;
      }

      .cls-83 {
        fill: #2e7580;
      }

      .cls-84 {
        fill: #2a3e42;
      }

      .cls-85 {
        fill: #33828e;
      }

      .cls-86 {
        fill: #3e8e9a;
      }

      .cls-87 {
        fill: #33808c;
      }

      .cls-88 {
        fill: #030606;
      }

      .cls-89 {
        fill: #030708;
      }

      .cls-90 {
        fill: #020304;
      }

      .cls-91 {
        fill: #091618;
      }

      .cls-92 {
        fill: #5195a0;
      }

      .cls-93 {
        fill: #0d1f22;
      }

      .cls-94 {
        fill: #4e8b96;
      }

      .cls-95 {
        fill: #152527;
      }

      .cls-96 {
        fill: #2f5055;
      }

      .cls-97 {
        fill: #cdeaee;
      }

      .cls-98 {
        fill: #0d2023;
      }

      .cls-99 {
        fill: #7ba1a7;
      }

      .cls-100 {
        fill: #060f10;
      }

      .cls-101 {
        fill: #4b818a;
      }

      .cls-102 {
        fill: #213133;
      }

      .cls-103 {
        fill: #67b3bf;
      }

      .cls-104 {
        fill: #152528;
      }

      .cls-105 {
        fill: #70bdc9;
      }

      .cls-106 {
        fill: #5897a2;
      }

      .cls-107 {
        fill: #2e4246;
      }

      .cls-108 {
        fill: #6ca1aa;
      }

      .cls-109 {
        fill: #33818d;
      }

      .cls-110 {
        fill: #66b1bd;
      }

      .cls-111 {
        fill: #388490;
      }

      .cls-112 {
        fill: #6dbecb;
      }

      .cls-113 {
        fill: #090f11;
      }

      .cls-114 {
        fill: #0c1719;
      }

      .cls-115 {
        fill: #63a1ab;
      }

      .cls-116 {
        fill: #245b63;
      }

      .cls-117 {
        fill: #82aab1;
      }

      .cls-118 {
        fill: #28656e;
      }

      .cls-119 {
        fill: #020303;
      }

      .cls-120 {
        fill: #6bbfcd;
      }

      .cls-121 {
        fill: #5ea3ae;
      }

      .cls-122 {
        fill: #0f1a1c;
      }

      .cls-123 {
        fill: #0b1113;
      }

      .cls-124 {
        fill: #03090a;
      }

      .cls-125 {
        fill: #1d3235;
      }

      .cls-126 {
        fill: #040a0b;
      }

      .cls-127 {
        fill: #7ba9b1;
      }

      .cls-128 {
        fill: #0a1011;
      }

      .cls-129 {
        fill: #1b2e31;
      }

      .cls-130 {
        fill: #04090a;
      }

      .cls-131 {
        fill: #9ed7e0;
      }

      .cls-132 {
        fill: #121e21;
      }

      .cls-133 {
        fill: #152326;
      }

      .cls-134 {
        fill: #4f8891;
      }

      .cls-135 {
        fill: #37484b;
      }

      .cls-136 {
        fill: #65a0ab;
      }

      .cls-137 {
        fill: #061012;
      }

      .cls-138 {
        fill: #162629;
      }

      .cls-139 {
        fill: #182a2d;
      }

      .cls-140 {
        fill: #a8dce5;
      }

      .cls-141 {
        fill: #132326;
      }

      .cls-142 {
        fill: #020505;
      }

      .cls-143 {
        fill: #2c6e78;
      }

      .cls-144 {
        fill: #9dd9e3;
      }

      .cls-145 {
        fill: #193f45;
      }

      .cls-146 {
        fill: #a9dee6;
      }

      .cls-147 {
        fill: #0a1617;
      }

      .cls-148 {
        fill: #255e67;
      }

      .cls-149 {
        fill: #080e0f;
      }

      .cls-150 {
        fill: #b6d3d7;
      }

      .cls-151 {
        fill: #b2e8f1;
      }

      .cls-152 {
        fill: #bbd5d9;
      }

      .cls-153 {
        fill: #5aa7b3;
      }

      .cls-154 {
        fill: #75c9d7;
      }

      .cls-155 {
        fill: #5badba;
      }

      .cls-156 {
        fill: #2c3a3d;
      }

      .cls-157 {
        fill: #6cbac6;
      }

      .cls-158 {
        fill: #2d4e53;
      }

      .cls-159 {
        fill: #1d4950;
      }

      .cls-160 {
        fill: #2b4a4f;
      }

      .cls-161 {
        fill: #0d1719;
      }

      .cls-162 {
        fill: #aae4ed;
      }

      .cls-163 {
        fill: #080f10;
      }

      .cls-164 {
        fill: #78c9d6;
      }

      .cls-165 {
        fill: #8cb8bf;
      }

      .cls-166 {
        fill: #010203;
      }

      .cls-167 {
        fill: #5b9ca7;
      }

      .cls-168 {
        fill: #1f3639;
      }

      .cls-169 {
        fill: #4c9daa;
      }

      .cls-170 {
        fill: #5ea2ad;
      }

      .cls-171 {
        fill: #608085;
      }

      .cls-172 {
        fill: #263234;
      }

      .cls-173 {
        fill: #081213;
      }

      .cls-174 {
        fill: #386168;
      }

      .cls-175 {
        fill: #1f3538;
      }

      .cls-176 {
        fill: #172224;
      }

      .cls-177 {
        fill: #9ddbe5;
      }

      .cls-178 {
        fill: #34828e;
      }

      .cls-179 {
        fill: #020405;
      }

      .cls-180 {
        fill: #77c9d7;
      }

      .cls-181 {
        fill: #123034;
      }

      .cls-182 {
        fill: #10191b;
      }

      .cls-183 {
        fill: #528e98;
      }

      .cls-184 {
        fill: #2c707a;
      }

      .cls-185 {
        fill: #081416;
      }

      .cls-186 {
        fill: #76c9d7;
      }

      .cls-187 {
        fill: #020404;
      }

      .cls-188 {
        fill: #263134;
      }

      .cls-189 {
        fill: #1e4d55;
      }

      .cls-190 {
        fill: #5495a1;
      }

      .cls-191 {
        fill: #55929c;
      }

      .cls-192 {
        fill: #60b3c0;
      }

      .cls-193 {
        fill: #317984;
      }

      .cls-194 {
        fill: #20363a;
      }

      .cls-195 {
        fill: #010202;
      }

      .cls-196 {
        fill: #32565c;
      }

      .cls-197 {
        fill: #3c8a96;
      }

      .cls-198 {
        fill: #33818c;
      }

      .cls-199 {
        fill: #192c2f;
      }

      .cls-200 {
        fill: #29484c;
      }

      .cls-201 {
        fill: #74c8d6;
      }

      .cls-202 {
        fill: #375f65;
      }

      .cls-203 {
        fill: #030505;
      }

      .cls-204 {
        fill: #010303;
      }

      .cls-205 {
        fill: #21393d;
      }

      .cls-206 {
        fill: #0c1416;
      }

      .cls-207 {
        fill: #284449;
      }

      .cls-208 {
        fill: #315359;
      }

      .cls-209 {
        fill: #44767e;
      }

      .cls-210 {
        fill: #040b0c;
      }

      .cls-211 {
        fill: #0a181b;
      }

      .cls-212 {
        fill: #2f5257;
      }

      .cls-213 {
        fill: #286670;
      }

      .cls-214 {
        fill: #071113;
      }

      .cls-215 {
        fill: #010304;
      }

      .cls-216 {
        fill: #528c96;
      }

      .cls-217 {
        fill: #090f10;
      }

      .cls-218 {
        fill: #121c1e;
      }

      .cls-219 {
        fill: #76cad8;
      }
    </style>
  </defs>
  <polygon points="338.77 73.54 365.58 103.3 336.71 75.54 338.77 73.54 338.77 73.54"/>
  <g>
    <path class="cls-85" d="M930,.5v324.5H194.4c-.86-.18-1.69-.35-2.5-.5-3.76.17-7.59.34-11.49.5h-12.99c-1.03-.2-2.03-.36-3-.5-3.1.41-6.85.39-9.99,0-2.69.42-6.2.39-9,0-2.11.15-4.28.32-6.5.5H.5c.02-11.49.02-22.81,0-33.95C.18,194.3.08,97.41.21.38c309.96-.28,619.89-.24,929.79.12Z"/>
    <path class="cls-152" d="M0,291.55V0h930v.5L.41.53l.08,290.52v.5c-.14.44-.31.43-.5,0Z"/>
    <path class="cls-150" d="M.5,325h-.5v-22.47c.16-3.68.33-7.34.5-10.98v-.5c1.02-.54.36,11.06.26,12.23-.66,7.31-.04,14.55-.26,21.71Z"/>
    <path class="cls-12" d="M191.9,324.5c.44.14.43.31,0,.5h-11.49c-.06-.2.18-.48.52-.48h10.97Z"/>
    <path class="cls-97" d="M0,302.53v-10.98h.5l-.02,10.46c0,.34-.28.58-.48.52Z"/>
    <path class="cls-120" d="M164.41,324.5c.44.14.43.31,0,.5h-9.99c-.44-.14-.43-.31,0-.5h9.99Z"/>
    <path class="cls-52" d="M154.42,324.5v.5h-9c-.44-.14-.43-.31,0-.5h9Z"/>
    <path class="cls-169" d="M145.42,324.5v.5h-6.5c-.04-.39.45-.51.97-.51h5.52Z"/>
    <path class="cls-155" d="M167.41,325h-3v-.5c.99,0,2.36-.37,3,.5Z"/>
    <path class="cls-192" d="M194.4,325h-2.5v-.5c.83,0,2.02-.32,2.5.5Z"/>
    <path class="cls-58" d="M342.81,132.33l-.41,1.53c-9.31,7.38-11.29,16.68-10.32,27.8-8.19.79-13.41,6.45-17.71,12.85l-1.09-.2-1.1,1.13c-3.02.52-5.94,1.22-8.74,2.36-3.16,1.28-9.9,6.83-12.5,9.25-2.02,1.88-2.55,3.38-3.07,6.03-.88,4.47-1.27,9.09-1.19,13.62-.23,1.96-1.16,3.74-2.47,5.19-7,5.7-11.66,13.86-15.54,22.03-6.28,13.25-10.19,28.29-12.1,42.81-8.56,11.21-15.92,23.25-22.6,35.65l-1.48,1.32c-2.76-.08-5.48,0-8.15.28l-.48,1c-69.82.09-139.55.28-209.19.56-1.07.48-1.83.36-2.27-.34-.6-.65-.92-1.12-.92-2.24-.49.11-.7.03-.71-.35-.09-15.02-.17-30.36-.24-45.38l.99-.61.49-56.09C63.63,134.76,148.14,85.74,235.43,61.45c38.84-10.81,78.51-17.15,118.74-19.45l-5.16,24.01c-.7,3.27-3.14,6.52-3.11,9.84.07,6.22,1.54,12.3,2.05,18.42.91,10.82-7.77,19.1-6.84,24.98l1.85,11.73c.09.55.15,1-.16,1.36Z"/>
    <path class="cls-58" d="M824.02,312.99l-.48,1s-46.75.03-140.24.1l-.62-1c-2.62-.61-6.5-1.63-7.27-4.37.97,0,1.02-.49.67-1.23-1.21-.41-2.35-.96-3.34-1.76-16.88-13.66-33.88-27.23-53.14-36.78-5.22-.49-9.99-2.35-14.89-4.52-11.23-4.96-22.49-11.64-33.04-17.97-.79-3.44-1.64-6.84-2.56-10.21-1.05.8-1.42.63-1.48-.69l-.79-.11c-3.43-2.86-7.3-5.09-11.61-6.71-1.18,1.28-1.97,1.6-2.38.98-.5.11-1.05.12-1.34-.26-8.93-11.54-13.86-32.67-14.73-47.11-.03-.45.47-.82.89-1.1.6-1.15.59-1.78,0-2.93l-.95-1.01c-.85-7.96,1.1-16.47,3.66-23.99,2.28-.19,4.46-.69,6.54-1.5l6.99-6.03c8.27-4.8,13.07-8.23,17.19-17.29,2.2-4.83,3.45-15.59,3.8-21,.12-1.81-1.35-4.03-3.09-4.62l-.18-1.09c-1.29-.97-.48-2.07.99-1.38,4.32-6.25,5.36-14.44,4-21.84-.41-1.99-.06-3.2,1.06-3.63.31-.91.82-1.7.51-3.41,4.92,1.53,9.7,3.22,14.66,5.13l17.79,6.83c24.11,9.26,47.09,20.79,69.46,33.87,38.11,22.28,72.49,49.51,102.01,82.35,18.28,20.34,33.57,42.52,46.71,66.47,7.91,14.42,15.41,28.62,20.84,44.16-1.74.5-3.01-.37-4.56-.26l1.12,2.43-21.65.02c-.37.05-.78.17-.57.46Z"/>
    <path class="cls-58" d="M511.79,17.13c1.59.31,1.83,1.28.47,2.18,2.17,1.69,6.05,2.32,8.93,2.74,3.27.48,6.63.83,9.84-.17l1.14.58c1.62-1.03,3.48-.52,3.55,1.48l.92.44c2.04,3.64,3.53,7.48,4.47,11.53.63-3.76,1.46-4.63,2.5-2.62l1.23.78c2.44,5.9,1.06,16.74-.7,22.79-3.49,5.11-5.93,10.45-7.33,16.02.8.34,1.1,1.2.89,2.57.7.61.72,1.6.06,2.98.48,1.22.15,2.73-.98,4.52-.21,3,.13,6.16,1,9.45l-.57.44c2.02-.05,2.38,1.48,1.07,4.56l.76.87-4.19,11.54c-.11,1.19-.47,2.05-1.08,2.59,1.05,1.44,1.68,3.2,1.9,5.28,2.28-.49,2.41,1.12,2.46,2.91,1.25-.43,2.22,0,2.51,1.25,2.82-.99,4.65-3.41,5.48-7.26l1.56-1.21c.82-1.2,1.84-2.2,3.07-3.01.69-1.58,3.72-3.4,5.54-4.41,3.97-2.2,16.44-6.38,18.37,0,.52,1.74-1.03,12.53-1.49,14.98-.43,2.27-.87,4.55-1.83,6.67-.19.77-.86,1.04-1.65,1.12-.65.65-.83.33-.55-.96l-1.01-.12c-.28,3.1-9.89,12.73-12.55,11.61-.42-.18-.73-.4-.87-.85-1.21.05-2.05-.04-1.24-1.23,3.11-2.09,5.51-4.64,7.19-7.67.28-4.62.81-9.23,1.59-13.81,2.36-2.64,4.91-5.15,7.64-7.51l-.25-1.29c-5.9.74-14.58,6.29-15.43,13.42,1.81,6.81-.81,13.67-7.81,14.61l.95.65c-.59,2.49-.45,4.81.42,6.95,1.65-.82,1.81-.38,1.93,1.29.83-2.01,2.15-3.42,3.95-4.24,5-.68,9.23-3.37,12.68-8.08l.98-.14c.64-.73.91-.45.41.43,1.2,2.11-1.66,5.13-3.24,6.7-6.12,4.01-11.94,8.45-17.44,13.3-1.5.97-3.55,1.18-5.28.81-1.28-.28-3.2-.8-2.53-2.3l-1.11-1.6c1.64-5.26.55-7.07-3.27-5.42-.35,1.74-1.06,3.31-1.84,4.88-5.08,10.22-11.66,18.92-18.66,28.07l-1.1.52-.11.51c.92.46.92,1.34.02,2.62-3.1,3.77-6.44,7.32-10.03,10.64,5.14-2.97,9.97-6.4,14.5-10.31l1.01.58c.4,2.3.33,5.56.12,8.08-.01.13-.23.25-.5.36.24,5.32.47,10.72.69,16.23l.71-2.25c-.76-3.51.11-6.2,2.62-8.08l5.6-16.35c4.58-3.65,5.69-8.02,6.68-13.59l1.17-.43c.62-.49.68-.24.59.5.6.69.65,1.45.65,2.3-.1,14.25-.14,24.4,3.97,38.33,3.36,11.39,7.98,22.26,16.59,30.64l.21,1.08c1.32.41,3.35,1.16,4.31,2.15.19.19-.07.64-.34.96.71,1.51-.01,5.36-.66,7.02-1.03,2.64-2.28,3.98-4.37,6.02-5.39,5.27-11.53,9.66-17.73,13.76l-2.61,2.45c-3.32,5.52-5.7,11.59-7.13,18.21l-1.29.5-1.69-.18c-4.84-4.63-9.77-9.22-15.54-12.69-8.65-1.61-17.21-3.59-25.67-5.94l-.72-1.23c-4.39-2.93-8.59-7.08-12.17-11.02-3.05-3.36-17.82-20.73-17.47-23.53,2.05-4.25,3.65-8.64,4.81-13.17.16-1.23,1.61-9.9,3.25-10.09,2.33-.27,12.4,5.08,15.16,6.62,7.78,4.33,15.2,9.63,20.7,16.71,5.23,7.9,10.87,15.48,16.92,22.74l1.72.35c.53-.25.87.36.56.86.44.16.74.59.5,1h.5c-.4-.18-.63-.59-.5-1-.57-.53-.86-1.29-1.03-2.03-1.93-3.16-3.79-6.41-5.58-9.74l.1-.75-1.26-1.3-14.21-23.58c-.58-.08-1.08-.6-1.5-1.55-.31-.06-.47-.16-.41-.5-.44-.12-.45-.29-.03-.5l-1.09-1.02c-.36.02-.69,0-.89-.18-2.48-2.07-6.45-5.6-8.58-7.9-.18-.19-.15-.56-.06-.99-1.4-2.01-2.64-4.13-3.73-6.35l-3.78-4.1.1-1.3c.77-.84,1.8-1.32,3.1-1.44-.46-2.5-2.18-3.31-5.15-2.43-8.32,1.4-17.03,2.45-25.49,2.07-2.46-.11-8.58-.45-10.1-2-.82-.83-1.08-1.57.01-2.25l-.8-.32c-2.5-4.2-5.84-7.31-10.02-9.34-1.86-.32-3.38-.91-4.55-1.78l-3.97.45c-1.62-1.14-.15-6.89.83-8.1.41-.5.79-.77,1.44-.52,6.03,3.36,11.01.73,13.65-4.93l-.9.27-15.6-2.8c-2.4,1.05-2.69-4.5-.49-4.97.33-.98,1.17-1.31,2.52-1l8.35,1.03c6.73,1.9,11.73,2.58,18.41.49l.76.98c3.26.31,6.27.67,8.87,2.92,2.21,2.23,4.55,4.07,7.01,5.53.16-1.54-7.2-11.22-8.44-11.78-.26.86-.71,1.26-1.72,1.08-7.15-1.88-13.93-4.77-20.35-8.66-2.08-.71-4.28-.92-6.61-.65-2.57-.03-3.98-.82-4.22-2.39-.99.03-.6-.41.02-1-1.53-.95.69-4.31,1.97-2.51l.79.17c.03-1.05.42-1.6,1.17-1.67.13-1.25.91-1.34,2.04-1.07l.47,4.59c.4-.41.59-1,.55-1.77l.57-.22.39-2.97c4.62-.93,9.29-1.54,14.01-1.84,3.56.88,7.14,1.63,10.75,2.25,9.89,8.43,12.42,19.88,14.66,31.69l.4-4.63,1.08-.48c-.17-4.23-.42-8.5-.75-12.8l.35-.73-.53-1.5c-.4-.27-.35-.64-.09-1.04-1.51-2.6-2.97-5.27-4.39-8l-.55-.28c-2.54-5.32-4.65-10.81-6.32-16.47l-5.64-7.61c-.45-.37-.63-.36-.54.02,2.3,1.25,3.31,2.71,3.02,4.36l1.72,4.58c.32,4.15-4.4,4.23-7.65,4.17-2.63-7.06-11.57-8.37-17.98-5.97-4.97.61-14.21-.35-12.54-7.27l-.18-2.5c2.62-7.42,5.61-14.67,8.97-21.76,5.38-6.64,10.7-14.02,13.16-22.19-.4-.05-.97-.18-1.01-.48-.28-2.13-.27-6.95,2.03-7.48-.12-.84.48-1.45,1.79-1.85,1.57-1.06,2.78-2.47,3.62-4.23-.3-1.13-.09-2.35-.67-3.62-1.23-.04-2.25.67-3.43,1.18-.48-.2-.66-1.42-1.31-1.41l-10.02.12c5.52-10.96,12.81-20.64,20.27-30.31l6.56-8.48c.96-1.24,1.76-2.42,2.17-3.78l2.16-.72c10.42.61,20.73,1.11,30.92,1.51,3.68,1.8,7.52,3.08,11.53,3.84,2.38-.13,4.19.38,5.44,1.52Z"/>
    <path class="cls-85" d="M539.26,10.48l1.67-.32c6.63,3.02,10.72,8.12,14.31,14.17,2.16,3.65,11.23,19.38,11.2,21.36,0,.41-.08.81-.18,1.21.54,1.22.09,3.33,2.02,3.92l1.8-.47c.33-.03.62-.02.79.13,4.99,4.51,5.62,17.45,5.89,23.92s.05,11.53-1.34,17.68c-.62,2.76-1.53,6.01-2.79,8.34-.54.2-.77.89-.99,1.38l-1.16.8c-8.17-1.16-15.1,3.61-21.28,8.21-.2.85-.7,1.7-1.51,2.54-.92,2.36-1.96,4.83-3.21,7.21-.77,1.47-3.06,1.69-4.27,2.93l-.89-2.4c-.74.46-1.76,1.33-2.07.76l-.3-3.49c-.86.2-1.32.98-2.14.89-.3-5.67-1.56-3.28-1.03-6.87,1.04-2.21,2.14-5.05,3.3-8.54l5.27-12.04c-.96,1.29-1.89,2.98-2.79,5.06l-1.27.53c.16-1.66.54-3.62-1.07-4.56.54-2.21.3-4.52-.7-6.93.16-3.04,1.12-5.95,2.9-8.73l-1.64,1.25c.42-3.31-1.74-.44-.95-5.55,1.54-5.93,4.23-11.66,8.07-17.19-.11-.73-.13-1.45.05-2.18,1.54-6.28,2.39-14.15-.13-20.18l-1.18-.04c-.4-.12-.72-.11-.98,0-1.28.56-.72,2.98-1.51,2.61-.92-3.96-2.38-7.76-4.4-11.4l-.98-.57c-1.13-.51-2.25-1.51-3.55-1.48l-.36-.86c-2.19,2.29-18.56-.63-19.26-1.6-.14-.2-.23-.44-.3-.69,0-.69-.21-1.52-.47-2.18.11-.95.95-1.25,2.52-.92l-14.24-2.57-.34-1.12c-.61-.15-.63-.36-.03-.61-.44-.3-.39-.6.09-.88.02-.28.05-.49.08-.49,13.01-.27,26.47-.34,39.39-.06Z"/>
    <path d="M423.95,225.71c.34.08.31.34-.09.78l.48.8c-.74-.15-.74.3,0,1.37l1.63.79c11.66,19.08,34.96,29.57,55.48,37.3l2.81,1.89c2.57.79,5.53,1.19,8.15,2.31,5.73,2.45,12.33,1.57,17.9,3.98,6.7,2.9,12.2,8.93,17.57,13.76.39.01.78.05,1.15.15s.69.2.92.41c7.14,6.42,12.39,15.23,16.75,23.25l5.14-.14,1.25.86c.21-.45.42-.46.65-.02l.35-1,69.78.02c-5.08-6.55-10.01-13.46-12.88-21.3-.06-1.58,1.18-2.51,2.57-1.67,4.67,8.06,9.97,15.71,15.9,22.93l49.69-.08,3.53.99,141.34-.1,92.41.16c.78,0,1.3.11,1.33.62.02.31-.33.77-.85.77l-18.93.34-47.45.32-54.51.21-96.41.29-85.97.22-108.93.27-111.95.25-129.43.25-209.37.3c-3.9.5-8.15.79-11.99.01-4.55.41-9.78.4-14.49,0l-12.99.02c-1.56,0-1.9-1.05-2.1-1.81,1.41-.71,2.7-.76,4.73-.77l207.2-.45c2.52-.26,5.09-.35,7.71-.28l1.34-.74,27.65-.06,7.74-10.4h1.23c1.02-1.16,1.12-.82.3,1.03l.58,1-4.67,8.28c92.17.08,183.38-.15,275.69-.49-7.46-14.09-19.71-24.96-31.85-35.02-30.96-4.52-65.93-18.06-85.94-43.01-1.57-1.96-4.9-6.36-2.65-8.77.24-.26.84-.05,1.26.13.15-.98,1.52-1.02,1.23.04Z"/>
    <path class="cls-151" d="M348.35,140.28c1.69.02,2.25,1.47.95,2.53,1.8,1.18,1.98,1.99.54,2.43-.79.98-.03,1.32,2.28,1.03l.79.69c.71.43,1.46,1.07,1.89,1.71.79-1.32,1.57-1.53,2.34-.64l1.15-.26c.11-.55.5-1.13,1.07-1.02.16-.43.33-.41.48.03,1.22-.33,2.23.49,3.03,2.47,1.33.18,2.15.81,2.89,1.95l1.18.33c.89,1.46,1.53,3.01,1.92,4.65,1.82,1.16,1.99,3.9.17,5.23l.12.92.09.96c.48.85.17,1.1-.65.55-.79,1.01-1.94.6-2.29-.58-1.79-.61-3.35-.51-4.68.28-1.4,2.47-4.75,3.38-7.33,2.71-.79.15-1.29.45-1.52.91.23.49.07.74-.48.73-.63,1.08.54,1.37,3.51.86.37-1.12,1.02-1.13,1.39,0,1.11-.65,1.81-.62,2.1.1.74-.05,1.21.12,1.41.51l.96.96c-.73,4.68-.21,8.95,1.55,12.8,3.36-2.41,4.37-.95,4.61,2.64l.88,1.32c-2.33,12.24-7.21,21.26-16.73,29.39-1.05.9-4.87,4.05-5.9,4.09-.24,0-.49-.17-.74-.41l-.57.57c-.1.46-.25.45-.45,0l-1.27.24c1.26-2.26.8-3.23-1.38-2.91-2.29-2.34-.56-6.79.64-9.62-.74-.19-1.23-.61-1.48-1.26-.32.92-.81,1.62-1.48,2.09.09,1.11-.35,2.24-1.29,3.4l-5.81,7.52c-.45,2.23-1.3,4.46-3,5.99l-.46.5c.48,1.2-.03,2.41-1.51,3.63-.26,1.71-1.05,2.83-2.36,3.37.33,1.51.44,5.05-1.04,5.98-.59.23-1.26.35-1.99.38.03.47-.11.49-.4.09l-.82-1.14c.18-3.45-.53-6.84-2.11-10.18-1.97-1.9-3.45-4.01-4.47-6.35,2.75-6.95,5.84-13.75,9.27-20.39l2.52-2.83.12-.88c2.67-1.78,5.03-3.85,7.11-6.23l-.73-.36c-.51.14-.68-.05-.51-.55l-.52-.88c-.98,1.76-2.29,2.84-3.91,3.26-.96,1.87-2.32,3.43-4.09,4.66-2.39,1.86-2.06-3.02-.55-3.96.07-.37.16-.62.56-.57.3-.17.25-.34.06-.6-.13.42-.27.38-.41-.06-.19-.92-.83-.41-1.93,1.54-.71,2.97-1.72,5.82-3.04,8.53.36.35.29.53-.21.55-1.64,1.13-2.86-.63-2.5-2.63,1.07-5.9,5.11-15.24,7.9-20.72,1.68-3.3,3.58-6.85,5.88-9.75,2.86-.56,7.76-7.47,8.22-10.02-1.18-1.72-.05-11.8,1.12-12.49.38-.23,1.16-.16,1.4.23.04-.64.71-.64,2,0,1.19-.77,2.15-1.76,2.89-2.96l.61-.03c-.3-.28-.3-.62,0-1-1.29-.92-1.05-1.84.54-1.97-.71-1.56-.4-2.13.93-1.7-.14-1.22.19-1.45.99-.69.11-.73.33-.67.53.02.44-.07.44.05.04.35Z"/>
    <path class="cls-80" d="M566.25,46.9c-2.21-4.98-5.11-9.61-7.83-14.61-5.51-10.12-8.21-16.91-19.16-21.82-12.74-.3-26.11-.21-39.09.06-.13,0-.26.22-.38.49.17.05.18.21.24.31.18.3-.03.54-.33.58l.03.61c5.06,1.31,18.4,4.43,23.53,1.81,1.56,3.44-10.55,2.87-11.47,2.8-3.82-.31-7.94-.52-11.55-2.04l-5.62-2.36-14.88-.64c-6.17-.26-12.22-.26-17.99-1.12l-5.65-.84-189.24-.08-141.38-.14-87.92-.09-26.02-.81c5.91-.75,11.05-.76,17.01-.78l88.91-.35,234.4-.18,562.48-.09c1.15,0,2.08.67,2.28,1.31-.68,1.15-2.07,1.2-3.77,1.2h-370.05c2.53,2.32,5.55,3.23,7.68,5.58,3.84,4.24,6.44,9.19,9.17,14.22,1.45,2.67,10.49,18.5,9.75,19.47-.29.38-.64.58-1.14-.03l-2.01-2.46Z"/>
    <path class="cls-85" d="M435.35,61.23c.06,1.46,2.31.32,3.47,1.13,1.01.47,2.04.57,3.07.3l.88.68c-1.11.4-1.06,7.47-1.02,7.97-2.5,8.15-7.6,15.33-12.88,21.82-.53.75-1.02,1.53-1.38,2.38-2.26,5.29-4.37,10.64-6.46,15.98-1.98,5.04-3.24,9.54-3.53,14.92.33,1.15-4.43,6.59-4.94,6.58-.25,0-.5-.11-.75-.23-.6.5-.84.29-.62-.46l-.57-.38c1-3.44,1.83-6.92,2.49-10.45l.8-.65c.35-2.29.23-4.58-.17-6.84,0-.05.18.7-.43.84.88,2.5-1.96,17.19-3.17,17.82-.22.12-.49.15-.77.16-2.51-8.44-3.87-16.97-4.09-25.56.67-5.17,2.05-10.17,4.13-14.99.46-2.35,1.42-3.64,2.88-3.86.56-.29,1.23-.59,1.67-.11.98.02,1.01.2,0,.38-.31.76,0,.96.95.61l.42.62.94.98c-1.16,5.3-2.12,10.61-2.87,15.91l7.98-13.83,1.03-.57c.24-.72,1.2-.81,2.9-.26v-.72c-.87-.19-.88-.37,0-.57.18-.74.82-1.01,1.93-.82l.13-.67c-.84-1.45,1.75-3.92,2.96-4.98-.01-.51.16-1.02.52-1.55-.53-.47-2.28-2.57-2.09-2.88.13-.21.34-.36.57-.51l.84-.86,3.63,1.03c-1.06-.29-1.56-.86-1.52-1.71-.12-1.12.32-2.34,1.33-3.65.4-1.73,1.11-2.84,2.15-3.34,2.43-.45-2.08-1.76-3.32-2.07-1.99-.49-6.23-1.3-8.05-.47-1,.46-1.81,1.48-.15,1.05.3.26.7.59.65.94-.14,1.14-3.11,6.84-4.53,7.02,1.05.77-.64,1.67-1.53,1.48.15,1.34-.2,1.84-1.04,1.49.64,1.39.82,2.09-.94,2.46-.53,1.72-2.76,3.75-4.7,2.39,1.75-7.48,1.25-15.11.56-22.68,3.5-3.32,10.71-7.11,15.56-5.35.24.09.4.37.55.72.07-.35.14-.62.18-.62,2.1.18,9.3,1.15,6.4,3.96Z"/>
    <path class="cls-80" d="M921.33,313.81c0,.78-1.36,1.72-1.69,1.48s-.77-.93-.77-1.86l-.23-115.25V55.99s.49-48.5.49-48.5c2.18,3.83.69,7.56,1.35,11.56l.68,83.3.2,71.93-.03,139.54Z"/>
    <path class="cls-80" d="M364.51,202.55c.24.37.48.77.49,1.22.1,3.11-13.92,16.7-17.84,18.11-.52,4.21-1.45,8.29-2.77,12.24l.3.99c.43.66.15.89-.41.39-.39.9-.83.67-.91-.29-.29.83-.61,1.29-.96,1.38-1.29.61-2.37-.76-2.11-1.95-1.27.52-2.44-.18-3.49-2.08l-2.23-3.42c-1.75-.14-2.76,1.69-3.44,3.07-2.24,1.35-4.73,3.8-4.28,6.77l-1.01.66c.82,5.17,3.05,11.19,6.05,15.86l9.23-4.02,1.58.56.64-1.43c-1.08-2.21,6.16-5.69,5.95-2.51-.31.91-.03,1.14.84.69,5.34,1.12,11,6.47,13.15,11.28.39.6.55.44.46-.48-2.74-3.34-5.78-6.49-9.11-9.47-.1-2.18,3.02-1.28,3.61-.01,1.35.13,3.3.8,4.11,1.9,4.36,1.23,7.67,3.42,9.95,6.58.83-.94,2.66-.04,3.47.62.37-.15.78.06,1,.4q.06.42,0,0c-.44-.14-.43-.31,0-.5-.32-.65-.05-.84.44-.36,1.02-.54,2.23.68,2.7,1.57,2.49,4.68-1.56,4.08-4.17,1.46-4.12.47-6.94-.86-8.46-3.99-2.02-1-3.67-2.22-4.95-3.67-.36.04-.55.23-.55.58,2.72.47,7.89,8.1,8.03,10.67.24,4.45-3.15,2.67-4.11-.29l-3.27-2.02c-1.23-2.35-9.84-11.35-11.86-11.14-1.91.2-13.14,4.46-13.52,5.44-.15.39,6.95,2.9,7.87,2.84l2.48,1.97c3.43.91,5.82,5.02,2.31,6.94,3.13,4.28.34,10.88-2.88,4.01-3.39-1.91-6.23-4.23-8.52-6.97-.5.41-1.2-.45-1.51-1.03-.53-.35-.53-.18,0,.5.45-.06,1.05.5,1.05,1.01,2.55.49,4.65,6.65,4.77,9.15.33,7.1-3.67,1.52-5.17-1.59-1.42-1.34-2.59-2.88-3.52-4.61-1.82-2.94-4.08-5.25-6.77-6.94-12.57,5.28-24.86,11.15-36.87,17.6l-2.42.35c-1.27.73-2.73,1.14-1.11-.31-.07-1.51.94-2.75,3.03-3.74l5.03-3.2c2.86-8.96,5.54-18.03,8.04-27.22l1.41-.97c.52-.92.69-.49.68.5l.48,1.21c-1.3,8.13-3.32,16.16-6.05,24.09l13.32-6.39c1.24-3.34,2.07-6.81,2.47-10.42,3.7-8.67,3.71-17.53-2.98-24.6-2.54-4.68.49-7.23,2.96-2,1.63,1.38,2.89,2.92,3.77,4.63-.1,3.63.75,6.28,2.54,7.96.09-.05.32,0,.4-.09l1.99-.38c.24-2.07-.45-4.36,1.04-5.98,1.39-.91,2.4-2.34,3.02-4.28,1.46-1.96,11.6-10.88,13.62-11.22,4.12-.69,2.08,3.09-.62,3.5.15.5-.09.68-.59.5-.07.32-.14.54-.5.5-.28.47-.28.64,0,.5.07-.31.14-.52.5-.5.18-.45.64-.75,1.06-.47.36-1.21,1.83-1.98,2.93-1.49.14-.03.33.07.45,0l.57-.57c3.73-1.52,6.51-4.54,9.57-7.36,4.63-4.27,7.91-9.23,9.85-15.26,1.28-3.98,2.83-7.76,3.08-11.77-.86-3.91-1.34-7.96-1.44-12.13l-.53-3.38c-.7-1.52-.71-2.68-.04-3.48.65-1.86,1.58-2.83,2.79-2.91l.65-.55c1.97.75-.4,2.64-.45,3.84-.27,6.17,3.34,12.34.21,22.9-1.29,4.35-2.7,8.57-4.51,12.53Z"/>
    <path class="cls-9" d="M11.52,266.63l-.04,46.34c-.22.16-.52.68-.86.64-.25-.03-.56-.58-.56-1.11l-.51-43.47-.38-89.83-.03-166.59c0-1.15.19-1.63.62-2.09.31-.33,1.9-.86,1.91-.08l.11,55.03-.19,145.64-.06,55.53Z"/>
    <path class="cls-58" d="M344.39,234.12c-.52-.3-.63-.94-.38-1.64,1.92-5.36,1.18-10.65,2.68-11.47,6.36-3.5,14.98-12.23,17.81-18.45,1.92,1.34,2,4.44,3.72,6.17,5.07,3.59,11.93,4.02,18,3.41,2.88,3.48-3.85,6.2-6.29,9.81l-16.71,6.14c-6.35,2.33-12.56,4.27-18.85,6.03Z"/>
    <path class="cls-80" d="M443.31,201.59c2.35,1.51.9,6.7-.09,9.07-2.19,5.25-11.42,13.7-16.09,17.18-.91.68-1.65.85-2.8.81-.2-.35-.82-.47-.89-1.01-.06-.44,0-.87.42-1.16l.72-1.9c1.33-1.35,9.77-8.88,10.61-9.18.34-.12.7-.18,1.07-.21-.02-.34-.2-.53-.54-.58-.18.65-.66,1.13-1.43,1.45-4.11,1.13-19.6,8.58-16.51,13.66,5.2,8.53,12.91,15.41,20.58,21.79,1.44,1.59-.66,3.58-2.16,2.69-8.91-5.29-16.78-15.13-23-23.28-15.24,4.29-30.86,8.86-45.37,15.28,1.6,1.58,2.43,3.66,2.5,6.23,2.91.77,5.38,2.53,7.42,5.28l-.5,1.03c.16.37-.21.34-.44.36-.43.42-.87,0-1-.58l-.5.37c-.94-.46-1.92-.74-2.94-.85-.87.12-1.32-.5-1.34-1.85-2.85-1.39-5.6-2.89-8.26-4.48-.13.04-.25.07-.34.03-.82-.36-2.58-1.14-3.24-1.58-.08-.05-.03-.29.05-.58-2.11-.22-4.34-.62-5.92-2.28-1.7-1.79-8.56-9.15-8.97-10.63-.1-.37-.1-.77-.07-1.17-.17-.33.21-.35.41-.39,3.76,2.97,6.71,6.94,10.07,10.55,2.91.9,6.34-.77,9.29-1.81,15.33-5.42,30.38-10.82,46.1-14.78,2.78-.7,3.6-1.88,4.92-4.26,2.15-3.89,6.41-6.71,10.52-8.17l13.14-4.67c3.51-1.25,2.33-10.88,3.97-10.36-.1-.97.29-.97.6,0Z"/>
    <path class="cls-80" d="M428.39,56.46c.92.5,1.46.91.39,1.43-5.48-.56-10.92,1.04-15.24,4.95.8,7.51,1.03,14.69-.83,22.1,1.97-.23,2.76-1.58,4.1-2.12.83-.6,1.07-.27.44.55l.03.58c.28,1.33-.59,2.85-2.04,2.84l-.54.64c-.06.44-.2.43-.4,0-.48.48-1.16.8-2.05.96-1.73,2.51-2.46,5.7-3.65,8.78-5.5,14.23-.21,22.38.73,35.63-1.73-1.82-1.37-4.76-2.24-7.34-1.87-5.53-3.04-11.22-2.9-17.14.11-4.55,1.49-8.85,3.06-13.03l4.24-11.28c1.82-4.85.92-15.26.21-20.58-.57-4.24.52-7.67,2.43-11.26,4.51-8.47,8.82-16.71,14.29-24.58.7-1.01,13.85-19.98,14.78-15.68-12.28,13.02-21.7,29.34-29.66,45.29-.61,1.23-1.14,2.6-.28,3.88,6.15-4.68,8.46-6.67,15.13-4.64Z"/>
    <path class="cls-195" d="M353.92,130.9c.4.14.39.29-.02.45-.09.97-.8.75-1.09-.1-.79.53-2.5.34-3.08-.5-.32.82-1.02,1.31-2.11,1.46-2.13,1.4-4.12,3.44-5.88,5.3-7.08,7.45-8.86,12.47-7.93,22.82,3.43-.1,3.78,2.76.57,3.67-5.68-1.49-11.52,3.19-14.85,7.57-5.35,7.05-10.6,15.95-11.7,24.82-1.86,3.95-2.78,8.23-3.37,12.53l-1.18,1.21-.54,1.16c-.15,5.51-.12,10.97.09,16.36.22.44.03.59-.5.5-.31-.23-.6-.47-.84-.76-1.23-1.45-1.27-7.56-1.29-9.87-.06-9.72,3.21-28.53,8.08-37.09,1.18-2.09,3.14-4.89,5-6.11.55-.84,1.46-1.59,2.06-2.64,2.93-5.11,10.02-10.89,16.19-10.59l-.22-7.28c-.1-3.39.24-6.27,1.68-9.2,2.4-4.88,5.45-9.3,9.81-12.28,3.13-2.14,7.11-4.95,11.11-1.43Z"/>
    <path class="cls-73" d="M441.75,71.32c.59,6.67-11.1,19.95-12.51,22.55-4.12,7.63-6.77,15.85-9.44,23.9-.96,7.62,4.31,11.64,11.76,9.23,1.99.73,1.7,2.33.12,3.43,4.77,5.35-1.61,4.45-4.74,1.52-3.39,2.41-7.64,2.63-9.84-1.37-8.34,7.78-9.09,17.62-6.35,28.38l-.52,2.29c.42.42.45,1.05.06,1.5.51.67.35,1.43-.53.91-1.14-5.82-3.84-11.67-2.75-17.77l2.34-13.08c1.76-4.53,3.4-13.03,3.94-17.98.54-.14.79.24.75,1.13l-.14,4.86c.35,1.79-2.5,10.94-2.71,11.48.42.41.18.94-.39,1,.01.47.18.63.5.5-.29-.48-.08-1.07.51-1.04,8.36-7.15,1.99-7.52,8.7-22.16,2.34-5.09,4.23-10.19,6.23-15.39.69-1.81,2.13-3.13,3.41-4.45,2.08-2.15,3.28-4.73,4.9-7.18,2.45-3.69,4.5-7.37,5.85-11.67.14-.45.57-.69.85-.59Z"/>
    <path class="cls-195" d="M472.2,196.13c1.63-.44,2.15-.24,1.54.61l-.2,1.07-8.38,1.97c5.15.97,15.17,2.97,18.18,7.46.17.25.28.53.33.83,3.11,3.1,6.7,5.73,9.53,9.07l1.09,1.02.03.5c.09.3-.12.3-.63,0l-1.37.28c-9.93-10.9-22.29-16.48-37.21-16.32l-10.33-.04-1.48-.98h-.6c-.33-.64-1.09-.74-1.93-.88-4.2-.68-8.19-1.16-11.94-2.52-.15-.5.16-.7.94-.61l1.77-.79c7.94,1.48,15.86,1.86,23.77,1.16l16.01-2.7.89.86Z"/>
    <path class="cls-195" d="M577.68,74.95c-2.04,5.91,4.23,7.44-3.1,24.74-.21.5-.44.8-.77,1.04s-.84-.21-1.19-.31c-.34-.92-.22-1.92.16-3.01,4.17-12.21,3.39-18.73,2.29-31.23-.5-5.72-1.4-11.42-5-15.83-.07-.2.26-1.03.5-.92,4.78,4.55,6.65,10.55,6.82,16.91.08,3.02.78,5.8.29,8.6Z"/>
    <path class="cls-88" d="M361.78,137.72c-.15.42-.21.79.04,1.12.12.14.57.14.62.34.07.31-.05.66-.16.96-.63,1.71.82,2.81,1.33,4.13,1.57,4.11,4.92,2.35,5.53,11.68.36.43.27.5-.25.24-1.23-1.39-2.51-3.08-3.1-4.98-1.65-1.56-2.97-3.49-3.98-5.77-.38,1.38-1.02,1.83-1.94,1.35l-.48-.03c-.75.14-.67-.14-.13-.67-1.96-.33-.9-4.73.97-4.3l.16-.7c-1.12-.59-1.53-1.06-1.24-1.42-.7.16-1.39.19-1.01-.46-1.32.58-2.59.92-3.82,1.02.17.56-.33,1.08-1.5,1.56l-.5.5-.5.5q-.42.06,0,0l.5-.5.5-.5c.75-.76,1.55-.97,2.56-1.03.12-.43.26-.41.41.03.98-.32,1.75-.5,1.03.54-.58,1.15-1.68,2.09-3.32,2.83l-2.34,2.5c-1.19.31-2.01-.39-1.3-1.41.7-1.27-1.91-1.31-.54-2.43,1.28-3.01,4.96-5.49,8.21-6.37l-.24-1.13c-.48.39-1.45.15-1.53-.58-.56.64-1.45.88-2.67.72-1.14.65-2.09.74-2.83.27l-.44-.41c-1.39.34-1.64-.05-1.47-1.42-.54-.88.78-1.09,1.55-.63.9-.56,1.86-1.01,2.9-1.37.61-.56,1.07.18,1.03.89.41-.09.58-.26.5-.5-.85.17-1.02-.28-.41-.95-.04-.14.04-.31.02-.45,1.07.06,1.31,1.43,2.16,2.02,1.34.92,6.57,2.99,6.06,4.38-.05.14-.37.27-.37.41Z"/>
    <path class="cls-215" d="M414.28,178.11c.32.38.65.38.99.02-1.15-1.16.14-4.23,1-5.53,1.04-1.58,2.56-3.32,3.65-.93-5.25,10.84-2.23,21.25,9.5,24.84l.35,1.07c-.35.13-.69.32-.94.61-5.93-2.15-9.31-1.32-13.65-10.23-1.06-2.19-.52-4.45-.92-6.71s-1.92-4.34-2.37-6.66l-2.15-10.94c.22-.23.55-.56.53-.91.14-.44.31-.43.5,0l1.19,1.32c.69,2.21,3.16,11.68,2.83,13.17-.07.31-.28.6-.52.87Z"/>
    <path class="cls-179" d="M435.35,61.23c-.02-.62-.22-1.27-.52-1.77-.43-.71-1.8-.33-2.29-.72-1.52-1.21-2.53-.73-3.77-.86,0-.5-.11-1-.39-1.43,2.04.62,4.02,1.24,6.41.94,1.46-.18,1.92,1.53,2.75,2.22,1.12.93,2.7-.45,3.95.73-1.93,1.73-4.15,1.06-6.14.88Z"/>
    <path class="cls-63" d="M448.18,57.28c.72,2.74-3.9,5.56-5.41,6.07s-3.39.78-3.94-.99c8.27-1.22,7.49-4.36,8.65-5.27.17-.13.46.04.71.19Z"/>
    <path class="cls-19" d="M53.97,317c-.32.91-1.56.37-2.49.5-8.41,1.22-3.61.01-9.51.01-.44-.14-.43-.31,0-.5h11.99Z"/>
    <path class="cls-76" d="M369.17,162.33c-.51-.05-.88-.37-.89-.86-.02-.61.58-.69,1.1-1.28.7-.8.31-3.12-.49-4.01.14-.02.31-.06.25-.24,1.08.76,1.76,1.84,1.8,3.1.04,1.4-.85,2.37-1.76,3.29Z"/>
    <path class="cls-92" d="M41.98,317.01v.5h-13.97c-.35,0-.59-.32-.53-.51h14.49Z"/>
    <path class="cls-86" d="M791.89,321.51c-1.31.82-2.82.82-4.16-.02,1.36-.78,2.54-.85,4.16.02Z"/>
    <path class="cls-55" d="M361.78,137.72c0,.32,0,.79.04,1.12-.81.07-1.61,0-2.04-.95l2-.17Z"/>
    <path class="cls-85" d="M313.29,174.32c-.54.84-.84,2.26-1.6,3.12-4.83,5.49-5.95,11.9-7.53,18.75-2.46,10.65-4.2,21.37-1.82,31.96.75.87.95,2.05.59,3.53l.55.32.29,5.3c.54.96.7,1.74.48,2.33.56.29.47,1.07.02,1.5.86-.58.96.18.56,1,.86-.15.69.63,0,1,.23.64.14,1.83-.55,2-1.24,3.18-1.76,6.59-2.83,10.08l-5.76,18.73c-2.99,2.1-6.49,3.74-8.92,6.32-.85,1.25-2.09,2.37-3.7,3.34-4.55,5.98-8.74,12.26-12.57,18.85l-.5.08-8.36,11.39-37.31.09c-.21-.3.2-.41.56-.41l7.37-.12c7-12.96,14.31-25.37,23.41-37.08.78-9.21,3.19-17.73,5.89-26.59,2.45-8.02,5.26-15.51,9.74-22.6,3.08-6.27,5.44-10.06,10.81-14.65,2.45-2.09,3.88-4.49,3.61-7.87-.29-3.7.6-7.3,1.04-10.92.4-3.34,1.42-6,4.19-7.96,8.26-5.86,8.17-9.44,22.33-11.47Z"/>
    <path class="cls-49" d="M38.98,193.7c-.16.2-.32.2-.5,0,1.23-1.28,2.01-2.83,3.6-3.38-.32,2.11-2.24,2.29-3.1,3.38Z"/>
    <path class="cls-155" d="M38.98,193.7c-.62.78-.84,1.75-2.05,1.43.41-.75,1.01-1.07,1.55-1.43h.5Z"/>
    <path class="cls-85" d="M555.24,228.74c4.36,1.97,8.64,4.1,12.4,6.82.52.13,1.09.29,1.48.69,4.34,12.15,2.52,24.57-7.82,33.3,6.31-5.28,10.81-11.77,10.33-20.15.51-1.46.97-2.19,2.4-1.26,7.13,4.27,14.34,8.54,21.78,12.26,7.58,3.79,15.54,7.66,23.86,8.56,20.21,10.21,38.29,24.8,55.42,38.76.14.21.46.13.98-.23.44.41.37,1.06.28,1.76l6.32,3.83-53.83.09c-5.97-7.24-11.03-14.7-15.49-22.72-.26-.47-.72-.63-.97-.57-.29.07-.57.73-.36,1.24,3.33,8.07,8.18,14.93,13.92,22.1l-72.21-.02c-3.83-6.84-8.52-13.16-14.07-18.94-1.48-2.17-1.54-4.18-.57-6.55,3.24-7.91,9.9-16.31,17.59-20.2,9.25-5.6,13.54-23.84,2.65-29.32l-.14-.58c-1.79-1.1-3.36-2.53-4.74-4.27-1.39-1.29-1.92-2.49-1.6-3.61.39.33.39-.12.44-.56.1-.79.29-1.36.97-1.2.37.09.67.65.97.78Z"/>
    <path class="cls-80" d="M571.64,101.8c2.77.62,4.56,3.62,4.07,6.56-2.01,11.9-.2,16.26-7.11,26.73-5.01,7.6-8.38,6.74-16.68,13.41-4.24,3.4-3.6,5.39-10.97,5.49-3.99,13.2-3.3,12.63-3.28,24.33,1.09.72,1.1,1.7,0,2.93.03,12.91,6.81,39.09,15.18,48.47,1.29,1.45,2.09,3.53,3.8,4.95,1.06.88,2.31,1.65,2.54,2.93-.02.53-.52.53-1.51,0-6.94-6.08-11.5-14.28-14.84-23.1-6.71-17.75-7.93-30.64-6.57-49.26-.33-.77,0-1.83.5-2.5l-.58-1.63,2.19-6.88-4.4-3.98c-1.45,3.29-16.9,27.49-19.83,28.25-1.22.32-1.26-.76-.94-1.77,2.32-3.82,5.11-7.37,7.97-11.05,3.39-4.37,10.45-15.1,12.15-20.22.32-.97.81-1.7,1.48-2.2,1.24-.71,1.55,0,.94,2.12,1.43,1.55,2.58,3.19,3.44,4.9,2.4,2.05,6.51,2.06,8.95-.52,9.33-9.86,15.77-8.6,19.54-17.98.32-1.04,1.01-2.66,1.99-3.06,3.25-5.94,2.72-13.38,4.01-18.86.38-1.61.63-3.12-.34-4.32-3.4-4.21-13.42-.79-17.31,1.58l-5.3,3.23c-.81.98-2.41,2.15-1.55.47,5-5.98,14.31-10.83,22.44-9.01Z"/>
    <path class="cls-80" d="M676.07,307.49c.02.26.1.6.06.81-.08.43-1.06.5-1.5.15l-19.48-15.39c-9.14-7.22-18.57-13.44-28.66-19.27-2.4-1.39-4.49-3.38-7-4.28-1.47-.52-3.52.01-5.27-.48-7.9-2.24-14.95-5.5-22.1-9.49-6.57-3.66-13.04-6.79-19.46-11.16-.16,4.45-.24,8.23-2.24,11.86-2.28,4.14-5.46,7.53-9.04,10.54-.84.71-2,.84-2.73-.12,8.65-8.23,12.77-13.67,11.41-25.94-.33-2.95-1.54-8.46-.95-8.47,2.3,2.42,2.35,6.22,3.28,9.61,6.59,4.36,13.35,7.63,20.3,11.34,7.97,4.26,15.79,8.51,24.61,10.7,2.11.52,3.51.46,5.47,1.66,7.72,4.74,15.5,8.78,23,14.01,10.69,7.45,20.97,15.18,30.31,23.94Z"/>
    <path class="cls-63" d="M567.63,235.56c-.46.4-1.23.49-1.86-.02-3-2.42-6.25-4.1-9.76-5.7-.57-.26-1.1-.64-.78-1.11,3.34.52,11.03,3.4,12.4,6.82Z"/>
    <path class="cls-197" d="M537.68,181.24v-2.93c.59.27,1.17.49,1.9,1.11-.55.72-1.2,1.31-1.9,1.81Z"/>
    <path class="cls-85" d="M493.7,218.66c.37.06.61.11.53.5.8.32,1.68,1.24,1.5,2.05l.83.43c5.57,7.69,10.14,15.9,14.67,24.06.16.28.11.59-.02.87h.5s5.51,10.04,5.51,10.04c.46.24.46.5-.06.64-.28.33-.57.71-.9.72-.4,0-1.27-.05-1.62-.44-5.74-6.46-10.36-13.36-15.26-20.51-8.42-12.27-22.91-20-36.53-25.45-.53,1.85-1.42,3.29-1.65,5.01-.83,6.22-2.7,11.85-5.69,17.45,4.92,8.14,10.25,15.41,16.6,22.19,4.08,4.36,8.45,8.04,12.13,12.43-17.67-5.42-34.13-14.02-48.57-25.85-4.95-4.06-8.28-8.89-11.34-14.13l-.27-1.38c1.54.81,2.19.03,3.07-.79,4.26-3.98,8.67-7.51,12.53-11.93,3.13-3.59,4.41-8.53,3.65-12.97,14.86-.2,30.84-.59,43.57,10.89,2.41,2.17,4.26,4.58,6.83,6.18Z"/>
    <path class="cls-85" d="M456.24,122.25c1.31-.46,2.45,1.78,2.98,2.89,1.58,3.3,1.78,5.16.24,8.52.85-1.12,1.82-2.29,2.61-.85.95,3.52,2.23,6.86,3.84,10.03,2.03,2.08,4.37,5.37,4.23,8.43l.32.13c.79,5.43,1.19,10.4,1.22,14.9-.45,2.78.08,5.94-1.8,8.6l-3.3-15.37c-1.61-7.51-6.26-13.55-11.55-18.99l-7.4-1.73c-5.15-1.2-10.85,1.08-16.43,1.15l-.8,2.32-.59-.39c.24,1.16.06,1.95-.53,2.38-.95-.71-.4-2.14-.47-3.61-.65-.27-1.41.07-2.04.09l-.67-.91c.04,1.44-.39,2.24-1.29,2.41-1.22.11-1.39,1.58-1.97,2.51-.32.59-.86,1.11-1.63,1.54.32,2.21-3.7,2.94-5.52,1.9,2.46,3.02,3.17,6.01,2.14,8.98l.41,1.05c-.3,1.72-1.01,3.8.49,4.97,4.48.91,8.97,1.78,13.48,2.63l3.03-.1c2.2-.33-2.78,5.51-2.89,5.59-3.29,2.57-7.87,2.25-11.32.02-.92,2.36-1.73,4.62-1.48,7.05,1.32.55,2.58.26,3.73.44-.04,1.26-2.44,1.12-3.5.89-.1.88.82.81,1.5.61,2.8-1.73,7.19.25,9.77,2.12,2.72,2.52,5.25,5.13,7.6,7.82.13,1.06.84,2.16,2.32,2.38,11.6,1.67,9.54.52,19.24.66,4.51.07,16.57-2.96,18.31-1.8,1.32.88,1.78,2.95,2.19,4.3-1.81.38-3.07.36-4.42.52-.71-.47-.15-.9.45-.97.25-.03-3.52,1.14-4.53.78l-15.91,2.69c-8.98,1.52-17.76-.18-26.52-1.22-1.76-.21-3.2-1.36-4.81-2-1.8-.72-2.81-1.08-3.94-2.69-1.89-2.72-4.33-5.25-4.65-8.8-.41-4.53,1.28-8.53,2.8-13.07-2.65,1.61-3.04,4.63-3.9,7.11-.05.81-.82.79-.99-.02-.87-5.19-2.9-10.16-3.5-15.36-.17-.4-.35-.9-.56-1.5-.89-3.82-1.49-7.79-1.81-11.95-.66-8.72,2.94-14.21,8.79-20.29,1.14,1.5,1.82,2.79,2.87,3.31,2.28,1.13,7.02-.74,6.09-1.83.78-.14,6.88,4.8,6.32,2.43-.31-1.35-1.99-1.51-2.87-2.68,1.17-.57,2.64-.69,2.34-2.45-3.3,1.18-7.24,1.27-9.74-.56-3.87-2.84-3.52-6.15-2.42-9.46-.4,3.4,2.98,5.34,6.02,6.06,3.64.87,6.3.43,9.71-.63,4.29-1.34,14.59,1.27,15.2,7.12,2.35-.36,4.4-.68,6.29-1.55.1-2.4-.43-4.44-.76-6.51Z"/>
    <path class="cls-85" d="M484.23,79.15c-1.61-.68-3.16-1.5-4.63-2.46-7.89-3.34-11.13.04-14.06,7.32-.03.06.24.24.59.46.35.24.76.35,1.18.4.12,2.06-3.42,3.65-4.97,4.33-.21.32-.91.54-.98,1.03-.1.68.35,1.26.51,2.09.22,1.11-1.69,3.56-2.97,2.95-1.85-.89-2.21-3.52-3.63-4.83-1.07-.99-1.17-2.13-1.58-3.15-.29-2.96.19-5.56,1.43-7.8l.59-.08c.25-.56.1-.75-.44-.56-.09.42-.25.4-.47,0,.19-1.28,1.28-2.24,1.76-3.6l5.16-14.42c.75.43,1.01,1.28.79,2.52l.45,1.65c1.97,2.94,2.07,2.58.28-1.09-.05-2.12-.4-3.98-1.06-5.58.59-1.46,2.31-1.55,4.35-2.14,1.06,2.62,4.91-1.08,6.25,1.58.92,1.81,2.53.4,3.56.86,1.38.63,3.18.01,4.32.43,4.21,1.56,7.81,3.78,12.23,4.66,2.1.42,3.01,2.86,4.44,4.04,5.24,4.32,5.89,7.8,8.84,14.19.46.99.65,2.43.05,3.3-1.68,2.47,2.32,1.83-1.58,9.25-4.99-2.87-7.61-7.68-11.42-11.72-2.58-1.72-6.19-2.57-9.01-3.62Z"/>
    <path class="cls-85" d="M553.08,313.21c-2.11.28-4.42.25-6.81.09l-5.65-9.27c-3.43-5.63-7.88-10.98-12.74-15.35,2.4-5.5,2.95-13.61,7.65-19.34,2.35-2.87,5.74-4.47,8.81-6.72,5.29-3.87,10.58-7.99,14.74-13.01,1.79-2.69,1.27-6.31,2.59-8.89,1.1-.6,1.84.24,2.29,1.24,5.98,13.38-2.86,24.17-14.09,30.07-4.48,4.46-14.56,15.57-10.22,22.16,3.73,5.67,8.11,11.27,12.64,16.28.91,1.02,1.17,1.93.8,2.74Z"/>
    <path class="cls-85" d="M536.78,162.75c-.31.88-.67,1.55-1.09,2-1.22,3.77-1.31,8.71-4,11.45l-2.98,3.03-5.63,16.42-3.12,3.2c-1,1.02-.02,3.02-.32,4.34-1.24-.45-1.2-4-.4-4.99-.57-5.93-.57-11.75,0-17.47-.51-.07-.41-1.16,0-1.5.32-.74.45-1.7-.5-1.5.35.86.41,2.35-.12,3.04-3.42,1.74-9.57,8.84-16.56,11.21-.5.17-.95.19-1.26-.2-.26-.33,0-.72.41-1.1,3.93-3.63,7.87-7.07,11.1-11.36.57-.79.48-1.85.93-2.58-.08.32-.05.91.35,1,1.07.25,11.31-14.63,12.87-16.79,2.92-4.05,5.28-8.01,7.3-12.81,1.65,2.57,3.32,4.37,5.88,5.55-1.22,3.19-2.01,6.11-2.84,9.07Z"/>
    <path d="M421.21,146.31c.1-.54,1.18-.94,1.61-.53,6.13,3.38,6.33-1.02,14.31,3.66,5.76,3.38,11.47,6,17.85,7.23-.17-.92-.59-1.81.43-2.19,1.16,1.44,11.85,13.27,8.76,13.69h-.71c-2.21-2.62-4.6-5.03-7.18-7.23-2.6-.56-5.26-.97-7.98-1.22-3.46-.05-6.12,1.83-10.39,1.54-4.84-1.41-14.65-3.35-19.66-3.04-.59.04-2.26-.46-1.77-1.26,1.29-2.09,1.41-3.65-.15-5.73-2.78-3.7-3.64-8.73-.53-12.54,1.39.66-2.71,8.36,1.45,9,1.54.24,2.88-.89,3.96-1.39Z"/>
    <path class="cls-85" d="M554.7,138.39c0,.43-.13.85-.53,1.05-2.42,1.19-3.21,1.73-4.49,4.36-.45-.19-.65-.99-1.01-.74-.21.15-1.06.93-1.23.73-2.23-2.7-1.26-5.95-1.06-8.88l.43-.5c6.46.12,10.1-8.63,7.37-14.09-.77-5.12,10.99-13.87,14.79-13.75.22,0,.43.14.65.31.46.35,1.17.32,1.82,1.02-2.32,2.77-5.02,4.72-7.54,7.1-1.42,1.34-1.1,3.49-1.38,5.25-1.54,9.39,2.24,9.38-8.78,17.89.33.24.7.13.96.25Z"/>
    <path class="cls-85" d="M494.1,97.88c.77,0,.04,1.23.56,1.77,2.1-.8,4.18-1.76,5.91-.22l7.72,6.84c-.31,2.03-1.01,3.63-1.72,5.35l-2.17-.22c-.57,1.11-.55,2.35-1.5,3.3-3.3-2.3-5.72-5.3-8.64-7.88-.9-.8-.91-1.69-.84-2.74-4.35-3.11-9.08-6.45-12.12-10.76l-.03-.75-4.09-.11-.46-1.07c-2.53-1.19-1.6-3.01,1.06-2.82.4-1.1,3.96.18,4.54.62,3.16,3.8,6.9,7.6,11.77,8.69Z"/>
    <path class="cls-80" d="M559.19,237.6c5.77,2.48,4.73,2.25,6.1,6.89,2.92,9.87-.98,20.03-10.12,25.06-3.55,1.96-6.14,4.09-8.43,7.62-2.57,3.96-5.52,7.65-7.23,12.15-.79,2.07-.04,3.42,1.37,4.99,2.67,2.96,14.34,15.62,12.85,18.89-.21,0-.44-.01-.65.02-.63-1.38-1.9-2.33-2.99-3.59-3.76-4.34-7.01-8.86-10.35-13.56-2.45-3.45-2.89-7.51-.67-11.4,2.56-4.48,5.61-9.02,9.41-12.77,3.11-3.06,20.82-8.89,15.61-28.14-.49-1.8-1.73-1.94-2.44-3.04-1.07-1.65-2.58-1.89-3.97-3.11.45.1,1.07-.19,1.51,0Z"/>
    <path class="cls-9" d="M466.27,142.23c.56,1.24.44,1.44-.36.61-2-2.94-3.72-5.72-4.53-10.2-2.28,4.02-5.67,5.72-10.18,5.52-10.25-.46-5.26-5.84-11.2-6.75-2.13-.33-4.47-.62-6.41-2.49,4-2.62,13.79-2.4,13.94,2.7.04,1.39-1.03,2.33-2.28,2.95,3.09,1.3,6.29,1.83,9.45,1.22,3.89-.75,5.38-4.31,4.64-7.92-.48-2.35-2.13-3.77-3.09-5.61-.82-1.59-1.79-2.95-3.02-4.36.17-.4.35-.41.54-.02,9.29,5.55,7.55,15.59,12.51,24.37Z"/>
    <path class="cls-195" d="M494.1,97.88c-.33.8-1.16.39-1.91.06-4.21-1.85-7.9-4.31-10.13-8.36-1.7-.15-2.98-.55-4.28-1.01-2.32.43-3.03,1.43-1.06,2.82,1.67.38,3.48.05,5.35.58.66.19.62.95.14,1.06-.32.07-.6.27-.91.29-9.86.55-9.64-.94-17.98-3.46.07-.43-.11-.65-.55-.64l-.44-.02c-.04-.66,4.12-4.06,4.97-4.33,3.18-.98,13.29,2.32,15.73,4.24,3.12,2.45,4.88,6.19,9.18,7.32.63.17,1.17,1.45,1.88,1.45Z"/>
    <path class="cls-85" d="M476.28,196.32c2.49,2.47,5.07,4.62,6.23,8.25.39,1.22,1.48,2.25,1.18,3.5-.97-.96-2.85-1.91-4.19-2.69-6.06-3.56-12.73-4.39-19.91-5.31l14.16-3.33c-.09-1.01,2.01-1.26,2.53-.41Z"/>
    <path class="cls-187" d="M519.22,198.2c.34,1.35.35,3.7.4,4.99.4,9.86,1.76,19.59,4.07,29.42l3.18,13.48c.11.46-.17,1.11-.35,1.36-.15.22-.89-.2-1.02-.64-4.71-15.94-7.85-32.22-7.48-48.9l.19-8.71.6.13c.07,2.95.21,5.91.4,8.86Z"/>
    <path class="cls-166" d="M536.81,72.87c-2.05-2.86,4.3-11.84,5.97-15.39,3.15-6.66,2.67-17.49.83-24.2.11-.66.7-1.03,1.32-.93,2.93.45,2.39,13.2,2.14,15.99-.19,2.11-1.59,4.03-1.37,5.98.12.99.41,1.44-.23,2.45-2.9,4.55-5.82,9.08-7.73,14.2-.29.78.11,2.04-.94,1.91Z"/>
    <path class="cls-119" d="M569.63,106.88c-6.15,3.14-12.78,5.57-14.66,13.38,2.33,4.37,1.06,8.81-2.05,12.27-1.75,1.94-4.08,3.28-6.53,2.38.18-2.55,1.76.8,5.55-4.22,2.41-3.2,1.73-6.27,1.48-10.03-.28-4.17,3.27-8.17,6.5-10.42,1.01-.71,9.81-6.24,9.71-3.36Z"/>
    <path class="cls-204" d="M537.21,92.83c-.45-3.56-2.49-6.9-1.18-9.81.68-1.51,1.03-3.28,1.73-4.6,3.05-5.73,5.46-11.75,8.91-17.49.43-.72,1.53-1.2,2.16-.45l-11.22,22.16c-.94,1.86-.13,3.6.52,5.3.6,1.58-.1,3.27.37,4.87-.57.09-.9,0-1.3.02Z"/>
    <path class="cls-203" d="M525.21,279.6l-.94.46c-3.2-3.43-6.71-6.43-10.54-9-7.86-.19-6.22-.17-12.48-5.11,2.17-3.41,4.92,2.38,8.05,3.43,2.29.77,4.85-.72,7.29-.1,3.96,2.88,7.67,6.39,10.9,10.19.03.69-1.62.82-2.28.14Z"/>
    <path class="cls-179" d="M569.14,127.76c.24,1.28-.76,2.95-1.84,3.59-2.2,2.67-4.7,5.19-7.65,7.3-1.69,1.21-3.78,1.46-5.78,1.84s-2.53,2.67-4.18,3.31c-.05-2.57,2.26-5.31,5.02-5.41,2.5-.09,4.2-1.03,6.3-2.78,4.78-3.99,7.63-9.5,7.73-15.81,3-1.54.46,7.82.41,7.96Z"/>
    <path class="cls-178" d="M464.23,94.48c1.02,1.38,2.37,2.43,4.06,3.15l.52,1.94c3.61,1.41,7.26,2.51,10.94,3.31.23.12,1.03.24,1.15.58-.03,1.37-.48,2.56-1.37,4.08-6.73-2.17-13.08-5.84-16.99-11.87-.5-.77,1.17-1.36,1.69-1.2Z"/>
    <path class="cls-187" d="M533.77,112.38c.13-.86-.07-1.75.3-2.81l4.21-12.18c.74-2.15,2.1-4.2,3.09-6.38.22-.49,1.47-.46,1.8-.3s.29,1.03.04,1.61c-2.94,6.69-5.96,13.09-8.42,19.96-.16.45-.87.21-1.02.1Z"/>
    <path class="cls-203" d="M511.71,245.59c.42,1.22.26,1.55-.5.98l-9.27-15.22c-2.14-3.51-3.95-7.05-6.21-10.14-.19-.52-.02-.69.5-.5,1.47,1.51,3.09,3.07,4.35,5.06,4.12,6.51,7.72,13.14,11.12,19.82Z"/>
    <path class="cls-90" d="M468.67,96.87c.66-.11,1.36.23,2.1,1,4.73,2.04,10.18,2.09,8.54,3.47-.66.18-.66.36.02.52l.43,1.02c.05,1.74-11.54-2.01-12.29-2.97,1.88-2.55-3.15-2.15-3.23-5.44.14.04.4-.04.56-.01,1.41.58,2.83,1.27,3.89,2.41Z"/>
    <path class="cls-179" d="M532.18,22.46c-5.68,2.21-14.37.33-20.28-1.76-.53-.19.36-1.05.36-1.4,6.71.5,15.35,4.95,21.76-.05.17,1.29-.89,2.83-1.84,3.2Z"/>
    <path class="cls-88" d="M484.23,79.15c-1.07-.4-2.3.31-3.85-.67-2.53-1.6-7.06-2.91-9.87-1.41-2.05,2-2.7,5.3-4.38,7.4-4.73,2.39,3.37-8,3.81-8.87,4.91-2.31,11.25-.52,14.29,3.55Z"/>
    <path class="cls-187" d="M438.64,190.27c-.53-.03-1.47.14-1.97-.47-4.53-5.5-7.85-9.45-15.4-9.47-.92.24-1.94.49-1.5-.61,1.06-.27,2.45-.81,3.5-.89,4.96.07,9.3,2.43,12.34,6.58,1.18,1.61,2.81,2.99,3.03,4.86Z"/>
    <path class="cls-198" d="M464.16,168.18c.07,2.48-6.48-3.81-7.64-4.75-2.5-2.02-5.53-2.52-8.24-3.7,2.61.04,6.01-1.19,8.73.5,3.03,1.88,4.97,5.3,7.15,7.95Z"/>
    <path class="cls-46" d="M525.21,279.6c-.69.09-.74,1.17-1.4,1.62-3.87-3.02-7.38-6.43-10.08-10.16,1.27-1.95,10.72,7.74,11.48,8.54Z"/>
    <path class="cls-178" d="M539.2,150.28c-1.11-.95-2.33-1.73-3.44-3.08-2.48-3.03.36-2.71-.94-3.93.32-.25-.02-1.46.95-1.49s3.07-.04,3.61.83c1.15,1.84-.99,6.21-.18,7.68Z"/>
    <path class="cls-24" d="M435.23,165.73c-.54.9-2.24,1.19-3.51.94l-10.34-2.02c-1.19-.23-1.96-.91-2.66-1.45,5.59-.2,11.13.99,16.5,2.53Z"/>
    <path class="cls-215" d="M461.72,60.81c.21-.81.15-1.69.47-2.49,3.45-1.31-.47,5.01,4.45,9.12-.53.7-1.62.84-2.35.41-2.56-1.5-3.23-4.47-2.56-7.04Z"/>
    <path class="cls-64" d="M541.12,35.9c-.24.17-.67.11-.88-.38-1.11-4.15-2.88-7.83-4.5-11.59,1.97-2.93,6.67,10.66,5.38,11.96Z"/>
    <path class="cls-149" d="M465.12,183.66c-4.22,3.75-9.28,7.2-15.2,7.23,5.07-2.5,9.81-4.02,13.76-7.69.19-.18.73-.06.81-.22.1-.19.83.5.63.68Z"/>
    <path class="cls-11" d="M470.75,151.27l.53,1.5c.62,4.48,1.13,9.07.4,13.54-.23.16-.45.04-.57-.08-.38-.38-.1-11.5-.97-14.95-.23-1.13-.06-1.47.52-1.04.04.33.1.71.09,1.04Z"/>
    <path class="cls-122" d="M438.64,91.89c-3.93,5.32-3.14,7.12-5.88,12.45-.17.28-.34.11-.5-.5.88-2.9,1.98-5.81,3.14-8.82.6-1.56,2.04-2.43,2.87-3.56l.37.42Z"/>
    <path class="cls-173" d="M426.76,140.76c0-.2-.53,4.07-1.71,4.02-.18,0-.42.08-.53-.32l.28-2.21,1.68-7.43c1.12,2.09.27,4.05.27,5.93Z"/>
    <path class="cls-211" d="M455.72,79.39c-2.49,4.15,0,7.17-2.02,7.89-.98-2.48-1.17-5.24.55-7.39l.56-1.07c.16-.06.31,0,.47,0,.72-.31.93-.05.44.56Z"/>
    <path class="cls-65" d="M517.19,256.08l.03.53c-.67-.23-.91-.96-1.3-1.66l-4.71-8.38c.31-.23.45-.6.5-.98,1.78,3.49,4.17,6.75,5.49,10.49Z"/>
    <path class="cls-17" d="M519.22,198.2c-1.28-5.03.34-7.12-1-8.99.09-4.13.25-5.02.38-8.44.17-.46.37-.47.62-.05v17.47Z"/>
    <path class="cls-147" d="M470.66,150.23c-.49-.01-.39.71-.52,1.04-.73-2.88-2.56-5.98-4.23-8.43.49.3.32-.41.36-.61,1.47,2.6,3.98,4.84,4.39,8Z"/>
    <path class="cls-130" d="M430.39,142.28c-.17.49.07,1.11-.12,1.73-.11.35-.6.31-1,.27.24-2.7-.56-5.35.42-8.42,1.31,2.3.26,4.42.7,6.43Z"/>
    <path class="cls-6" d="M444.33,84.37c-.51.18-.7,0-.56-.52.93-1.49.93-3.82,3.27-4.71-.25,2.23-1.81,3.58-2.71,5.23Z"/>
    <path class="cls-121" d="M569.69,128.72c-.58,1.07-1.23,2.18-1.99,3.06l-.41-.43c.73-.89,1.4-2.52,1.84-3.59.11.36.27.71.55.96Z"/>
    <path class="cls-25" d="M444.33,84.37c-.57,1.05-1.57,1.9-2.07,3-.15.26-.32.25-.5,0,.28-1.34,1.31-2.4,2.01-3.52.15.21.35.38.56.52Z"/>
    <path class="cls-168" d="M440.76,89.36c-.57.97-1.47,1.64-2.12,2.52l-.37-.42c.65-.88,1.21-1.8,1.99-2.6l.5.5Z"/>
    <path class="cls-62" d="M547.68,113.35c.5-1.29.69-1.55,1.51-2.54.03,1.03.12.41,1.55-.47-.65,1.33-2.13,1.91-3.07,3.01Z"/>
    <path class="cls-141" d="M496.24,220.71c-.22.11-.39.29-.5.5l-1.5-2.05c.15-.24.32-.24.5,0,.83.17,1.02,1.05,1.5,1.55Z"/>
    <path class="cls-111" d="M470.77,97.87c-.75-.32-1.39-.6-2.1-1-1.14-1.04-2.43-1.85-3.89-2.41.32-2.31,5.82,2.95,5.99,3.41Z"/>
    <path class="cls-200" d="M442.26,87.37c-.35.78-1.09,1.29-1.5,2l-.5-.5c.46-.47.79-1.28,1.5-1.5h.5Z"/>
    <path class="cls-32" d="M536.28,165.25c-.19-.18-.38-.34-.59-.5.24-.74.22-1.67,1.09-2-.2.7-.13,1.88-.5,2.5Z"/>
    <path class="cls-75" d="M422.82,145.78c-.45.39-1.11.3-1.61.53-.19.02-.48-.14-.38-.37l2.01-1.17c-.16.25.1.73-.02,1Z"/>
    <path class="cls-139" d="M432.77,104.84l-.5,2c-.44.23-.59.04-.5-.5.12-.52,0-1.13.5-1.5.14-.44.31-.43.5,0Z"/>
    <path class="cls-104" d="M518.22,258.1c-.15.37-.31.36-.5,0l-.56-.86.06-.64-.03-.53c.21.61,1.25,1.15,1.03,2.03Z"/>
    <path class="cls-212" d="M432.27,106.84c-.07.29-.27.55-.5.78-.46.44-.51-.12-.54-.54-.02-.31.48-.47.54-.74.15.18.32.35.5.5Z"/>
    <path class="cls-147" d="M471.28,152.76c-.6-.27-.55-.94-.53-1.5.64.24.46.96.53,1.5Z"/>
    <path class="cls-47" d="M518.22,259.1c.14-.43.31-.43.5,0,.26-.05.59.1.51.71-.06.43-.5.2-.76-.2-.09-.14-.14-.28-.26-.51Z"/>
    <path class="cls-85" d="M463.33,89.85l-.55-.64c.14-.23.12-.36.28-.37.27-.03.66.08.7.27.08.36-.01.81-.44.73Z"/>
    <path class="cls-13" d="M518.72,259.1h-.5l-.5-1h.5c.16.28.49.63.5,1Z"/>
    <path class="cls-113" d="M432.77,104.34c.02.15.04.35,0,.5h-.5c.07-.31-.09-.69,0-1,.23.06.46.25.5.5Z"/>
    <path class="cls-78" d="M494.73,219.16h-.5c-.12-.14-.37-.4-.53-.5.19.04.46-.08.63,0,.18.09.27.35.41.5Z"/>
    <path class="cls-74" d="M453.76,117.87c-.16-.09-.38-.04-.54.02-.37.19-.54-.24-.43-.36.31-.33.57-.29.72-.2.17.1.43.31.25.54Z"/>
    <path class="cls-41" d="M454.24,79.89c-.17-.46.51-.75.56-1.07.04.47-.3.74-.56,1.07Z"/>
    <path class="cls-174" d="M479.31,101.35l.02.52c-.24-.01-.55.07-.83-.02-.4-.14-.22-.5.02-.5h.79Z"/>
    <circle class="cls-34" cx="519.97" cy="261.6" r=".32"/>
    <path class="cls-78" d="M494.3,218.16c-.61-.07-.76-.64-1.09-1.02.5.17.87.55,1.09,1.02Z"/>
    <path class="cls-142" d="M547.07,106.72c-1.28,3.88-5.35,12.05-7.68,14.02-.28.24-.64-.04-.89-.4-.15-.22.04-.5.29-.91,2.48-4.02,4.43-8.15,6.51-12.44.34-.69,1.97-.85,1.78-.27Z"/>
    <path class="cls-159" d="M539.26,10.48l-39.47.55c-1.84-1.37-9.44.19-12.11-.95l50.97-.12c.41.16.84.23.61.52Z"/>
    <path class="cls-124" d="M539.93,108.87c1.18.58-3.27,10.4-4.21,9.21-.64-.81,2.87-8.32,4.21-9.21Z"/>
    <path class="cls-189" d="M499.7,11.92l.03.61c-.22-.06-.44,0-.73-.05-.24-.04-.42-.33-.02-.49.23-.09.51-.05.72-.07Z"/>
    <path class="cls-85" d="M435.72,214.62c.78-.31,1.04-.11.54.58-3.63,4.21-8.13,7.71-12.4,11.29l.09-.78c.09-1.15-.89-.97-1.23-.04-1.25.75-1.13,3.53,0,5.11,6.58,9.24,14.91,16.74,24.69,22.67,7.26,4.4,14.25,8.48,22.03,11.86,13.18,5.72,26.79,8.79,40.99,11.1,12.21,9.74,25.79,22.35,33.33,36.91l-138.88.43-14.18.03-126.35.04,5.95-10.28c-.03-.38-.02-.74.15-1.01,3.54-5.79,7.23-11.53,10.97-17.16,1.71-2.11,3.95-3.86,6.46-4.82,13.35-8.64,25.1-11.89,38.22-18.67,1.4-.72,2.49.12,3.4,1.01,2.72,2.63,5.14,5.28,6.65,8.61,2.66,1.73,3.28,4.62,5.37,7.12,1.16-2.27-2.19-10.77-3.66-12.03-.78-.68-.48-.99.47-.47,2.63,1.23,4.77,3.47,7.44,4.98,1.78,1.01,2.77,1.92,3.46,4.59,3.07-4.29-2.58-7.41-1.65-9.31.96.67,1.4,1.56,2.57,1.71.81-1.95-.23-4.06-2.16-4.61-1.6-.46-2.31-1.71-3.54-2.46-.85-.52-2.14-.19-3.35-.75l-6.81-3.14c5.43-2.52,10.81-4.78,16.36-6.21,5.39,2.5,8.95,6.53,12.25,11.1.92,1.28,2.91,1.28,3.8,2.68.61.96.63,2.38,2.32,2.41-.05-2.71-1.36-5.05-3.1-7.13-1.52-1.82-2.47-3.91-4.12-5.32-.7-.74-.39-1.05.55-.58,8.78,3.51,5.18,4.18,7.96,5.93,1.68,1.05,3.95.23,5.77.8,1.44.45,2.1,2.05,3.66,2.31.26-2.21-1.7-3.09-2.52-4.4-.66-1.06-1.42-1.62-2.5-2.61s-1.62-2.3-3.54-2.4c-4.25-.22.41-5.42-6-7.82,3.51-1.54,6.83-3.03,10.59-4.28l25.06-8.32,12.93-3.58c6.19,9.56,13.94,17.07,22.83,23.6.37.27,1.29-.17,1.3-.41s-.12-.64-.51-.96c-7.44-5.98-14.21-12.44-19.65-20.26-1.64-2.36-1.93-4.75.16-6.94,3.36-3.52,7.42-6.24,12.03-7.99,2.04-.78,3.85-1.71,5.79-2.13Z"/>
    <path class="cls-26" d="M287.89,280.56c-3.85,2.49-7.04,5.89-9.44,10.11-2.58,4.54-5.63,8.55-8.14,12.88.06-.15.04-.43.06-.77,0-.15.03-.5-.36-.25l11.07-17.72c1.43-2.29,4.14-2.88,5.7-4.55-.38.31-.02.65.17.6.43-.12.77-.21.94-.3Z"/>
    <path class="cls-80" d="M423.95,225.71c-.13-.29-.32-.59-.68-.37l-.55.33c-.26-.32,0-.84.28-.99.24-.13.97-.08,1.22.18.2.2.15.75-.28.86Z"/>
    <path class="cls-58" d="M349.73,130.75c.87.55,1.89.93,3.05,1.15-.35.63-1,1.15-1.69,1.74-.51.45-1.03-.06-1.21-.38-.99-.44-1.55-.15-2.1.63.73.62.4.72-.47.92.42.43.08.87-.49.97-.18.41-.05.55.5.5,1.35-.89.99,2.47.46,3.62-.13.42-.77.43-.99.69-.45-.77-1.08-1.32-1.91-1.65.3,1.19.15,1.36-1.07,1.19-.23.7-1,1.06-2.3,1.08l-1.66,1.01c.47.12.67.22.36.66.57,1.18.54,2.93-.92,3.39.2,1.07-1.27.56-1.21.5s1.45.18,1.6.5c.77.25,1.02.73.13.97-1.37.1-1.08,1.54-1.3,2.7-.63,3.32-1.25,6.41-.26,9.67-1.73,3.97-3.8,7.26-6.87,10.15-.37.35-1.38.11-1.64.47-6.75,9.58-10.42,19.89-13.81,31.08l1.86,1.33.33,1.62c-2.39,4.13-4.39,8.42-6.02,12.87l-1.27,1c-.9.35-1.2-.46-.47-.98-.21-2.05-.56-2.89-1.05-2.51l.83,3.55-.4.44,1.1.54c-.45,1.3-1.11,2.57-1.98,3.81-.32,2.48-1.99,11.05-3.46,12.38-.14.13-.35.2-.57.24-.14.44-.31.43-.5,0l-.65-.18c-.06-2.51-.17-4.95-.35-7.31-.76-.12-.66-1.16,0-1.5-.97-5.16-.83-10.87-.6-16.25.02-.5.17-.92.55-1.27.64-4.71,1.41-9.45,3.59-14,.73-7.65,4.49-13.96,8.61-20.26,2.95-4.51,5.63-9.25,10.86-11.48,8.49-3.63,6.8-.84,8.14-1.41.47-.2,1.09-.27,1.33-1.41l-3.31-.39c1.05-7.76-1.08-12.06,3.46-18.22,2.57-3.49,9.67-12.29,13.78-12.2Z"/>
    <path class="cls-58" d="M325.86,199.2c-3.81,7.63-7.6,15.27-10.87,23.28.9,1.97,2.24,3.35,3.71,4.78,1.05,1.02,1.07,2.57,1.65,3.84,1.37,2.99,1.73,5.96,1.11,9-2.75,2.37-3.18-5.78-3.51-7.74s-3.52-2.64-5.38-7.41c-1.59,3.91,2.62,5.43,3.45,7.85.87,2.55,2.56,6.14,2.83,9.03.45,4.88-2.51,9.76-3.14,14.78-.35,2.77-.97,6.27-2.34,8.61l-15.72,7.64c2.8-9.54,5.89-18.09,7.29-27.24-.42-.61-.23-1.61.37-2-.38-.61-.03-1.51.5-2-.16-.51-.05-.99.5-1,.07-.72.24-1.22.52-1.5-.03-1.22-.16-2.41-.38-3.58,2.8-11.14,7.53-24.89,14.48-34.05.98-1.3,3.34-3.2,4.91-2.31Z"/>
    <path class="cls-195" d="M325.86,199.2c-1.82,1.21-3.36,1.51-4.8,3.9-6.73,11.21-12.24,23.19-14.21,36.03-.41.19-.57,0-.52-.5h-1c1.07-.21-.12,3.61-1.06,2.5-.31-.43-.53-1.1-.02-1.5-.24-1.05-.05-1.55.58-1.5-.31-.43-.43-1.11,0-1.5,0-1.61,1.84-6.36,2.33-8.12.57-2.05.06-4.39,1.47-6.2.56-.72,1.57-1.64,1.1-2.66-.03-.98.34-1.15,1.09-.5,1.25-5.56,4.55-10.35,6.96-15.49.08-.16.19-.37.21-.55,1.34-2.75,2.38-5.65,3.13-8.72.38-.83.8-1.31,1.6-.67.23.16.24.34.03.53-.32,1.38-1.26,3.62.55,3.96.69-.85,1.18-1.03,1.48-.54l2.05-1.01c-.42-1.36.81-2.32,1.98-1.46,1.11-1.45,2.28-2.61,3.53-3.49.46-.47,1.3-1.03,1.71-1.82l6.86-13.26c.13,4.39-2.44,7.77-4.22,11.4-2.37,4.83-6.52,8.28-10.85,11.16Z"/>
    <path class="cls-219" d="M344.31,220.7c-.87.68-1.9,1.11-2.93,1.49-.71.3-.95.1-.47-.53.57-1.01,1.51-1.52,2.59-2.48-1.82-2.22-12.89,9.05-14.26,10.42-.57.57-1.62.61-1.66,1.74-.06,1.68-1.29,2.3-2.69,2.33,2-2.17.29-2.2,3.88-7l1.07-.51c.34-1.07.91-2.18,1.7-3.34l.63-2.57c3.25-3.2,5.74-6.99,7.76-11.05.12-.69.41-1.37.88-2.03.97.1,1.98-.24,3.09.35-1.79,3.12-2.68,6.33-2.23,9.64l3.68.31-1.68,3.14c.38.07.57.1.63.1Z"/>
    <path class="cls-12" d="M365.83,166.75c1.9,3.86,2.27,14.69,2,19-.83-.24-.31-1.66-.82-2.21-1.15-1.26-2.59-.23-3.72.9-3.68-2.08-2.69-11.57-2.58-15.08.1-.3.46-.52,1.1-.65-.04-.24-.06-.47,0-.68.05-.17,2.66-1.36,2.92-1.28.64-.43,1-.43,1.08,0Z"/>
    <path class="cls-219" d="M359.81,140.78l.41,1c-.72,1.31-1.24,2.91-.97,4.3-.1.33-.26.35-.47.06-.45.13-.68.36-.47.63.44.14.43.31,0,.5-.42.31-.42.48,0,.5-.92.88-2.27.78-3.5.9-.68-.55-1.31-1.12-1.89-1.71-1.15.92-3.85-.18-3.65-.94.07-.27.21-.61.58-.78.07.25-.26.63.29,1.15,1.67-2.49,3.88-4.24,6.68-5.06.15-1.02,2.31-1.43,3-.54Z"/>
    <path class="cls-154" d="M355.74,134.74c.21.68.93.83,1.53.58.86.33,1.91.4,2.58,1.4-3.59.76-6.46,2.34-8.65,4.96-.57.68-1.1,1.22-1.91,1.14-.08-.85-.55-1.77-.95-2.53.34-.63.5-1.28.49-1.97-.44-.15-.44-.34-.02-.56-.34-.88.5-2.02,1.42-2.02,1.66-1.26,3.53-1.73,5.5-.99Z"/>
    <path class="cls-31" d="M339.94,209.18c1.36,1.25-5.63,10.41-7.14,11.41-.41,2.35-1.29,4.39-2.96,5.55h-.6c-.09-1.64,1.88-2.8,1.92-4.51.04-2.1,1.07-2.64,2.28-3.87,2.49-2.51,3.94-5.81,5.91-8.52.18-.29.36-.33.6-.06Z"/>
    <path class="cls-186" d="M331.84,191.18c-.58,1.45-1.58,2.79-3.01,4.03-.66.51-1.24,1.03-1.98,1.46l-2.05,1.01c-.5-.06-1,.48-1.48.54l3.58-5.46c3.91-.64,3.85-5.92,6.64-4.62l-1.69,3.03Z"/>
    <path class="cls-180" d="M366.32,163.25c-.05.28-.4.61-1.05.97.08,1-.65,1.62-2.2,1.87-.59.91-1.01,1.78-1.25,2.61-.35.19-.63.6-1.1.65-.56.05-.94-.39-1.41-.51-.14-.52.06-.92.54-1.21-.22-.77-1.03-.89-2.43-.37l-.61-.51c-.86.65-1.36.65-1.5,0-.37.29-.71.38-1,0-.44-.14-.43-.31,0-.5,1.42-.16,4.18.07,5.18-1.09,1.11-2.31,2.03-3.69,4.97-3.16.41.07,1.32-.33,1.65.2.16.26.2.69.2,1.05Z"/>
    <path class="cls-18" d="M365.78,151.2c-5.59-1.97-1.91.16-5.92-4.42.86-1.07,1.31-2.19,1.64-4.03,1.48,2.93,3.34,5.4,4.29,8.45Z"/>
    <path class="cls-164" d="M322.97,193.04c.3.34.19.61-.24.69-2.79,1.35-.63,6.54-4.73,9.38.29-2.35,2.39-11.58,4.92-11.39.25.02.46.41.31.8-.06.16-.12.28-.26.51Z"/>
    <path class="cls-172" d="M352.31,167.89c.74-.4,1.57-.28,2.5.36.45-.52.86-.1,1.01.5-1.5,1.65-4.77,1.18-6.13-.99,1-.41,1.95-.06,2.63.13Z"/>
    <path class="cls-76" d="M359.85,167.63c-.38.56-1.26.93-2.64,1.11-.46-.07-.93.03-1.39,0-.46-.3-.65-.8,0-1-.6-.37-.26-.71,1-1,1.43-.43,2.83-.77,4.36-1.41-.07,1.48-1.05,1.61-1.32,2.29Z"/>
    <path class="cls-105" d="M345.86,142.31c-.34.59-.43,1.32-.54,1.97-.2.28-.53.45-1,.5,0,.48-.34.44-.62,0-1.31.48-1.46-.26-.32-1l-1.05-.6c-1.05-.09-1.52-.41-1.41-.94.36-1.17,1.68-1.6,3.97-1.28.69-1.02,1.55.21.98,1.35Z"/>
    <path class="cls-10" d="M366.32,163.25c.8,0,1.66.06,2.29.58-.59,1.25-1.57,2.26-2.79,2.91h-1.08s-.4-1.01-.4-1.01c1.33-.75,1.63-1.25.91-1.52.09-.55.45-1.08,1.05-.97Z"/>
    <path class="cls-16" d="M354.31,166.24v.5c-.16.25-.49.38-1,.4-.16.38-.34.39-.52.02-.8-1.32-2.12-3.16-.72-4.6,1.08,1.6.66,3.49,2.24,3.69Z"/>
    <path class="cls-157" d="M349.8,135.32c-.64.78-.96,1.59-.98,2.43l.02.56c.66.61.29,1.45-.53,1.62-.19.24-.37.26-.53-.02-.31-1.15.53-2.7-.46-3.62.39-1.11.39-1.6,0-1.47.15-.31.27-.64.47-.92.16-.44.35-.43.55,0,.57.38,1.18.77,1.47,1.42Z"/>
    <path class="cls-54" d="M345.31,145.28c-.94,1.19-1.91,2.99-3.5,3-1.17-.11-1.67-.44-1.5-1-.11-.75,1.14-.53,1.5,0h.5c.52-.79,1.18-1.45,2-2-.42-.13-.41-.3,0-.5.09-.87,1.19-.25,1,.5Z"/>
    <path class="cls-84" d="M354.81,148.68c-.49.05-1.23-.04-1.59-.48-.24-.29-.19-.85-.31-1.23.76-.09,1.88.42,2.49.82.16.38-.43.69-.6.9Z"/>
    <path class="cls-59" d="M346.78,140.61c-.35.53-.61,1.15-.93,1.7.02-.69-.29-1.24-.98-1.35-.85.69-1.52.27-1.07-.81.15-.56.53-.99,1.07-1.19.89-.1,1.62.91,1.91,1.65Z"/>
    <path class="cls-14" d="M332.36,191.73c-.78,1.54-2.2,2.46-3.53,3.49.95-1.38,1.72-2.95,3.01-4.03.15.2.32.39.51.55Z"/>
    <path class="cls-12" d="M359.85,167.63c-.04.21.74.64.56.96-.17.3-.91.16-1.1.25-.66-.18-1.42,0-2.1-.1.61-.82,1.66-1.04,2.64-1.11Z"/>
    <path class="cls-182" d="M348.35,140.28c-.05-.09-.03-.24-.04-.35-.1-.6-.01-1.26.53-1.62.32.4,1.09.81,1.02,1.25-.13.85-.96.95-1.5.72Z"/>
    <path class="cls-21" d="M353.81,167.24c.48.07.81.24,1,.5.44.14.43.31,0,.5-.92.26-1.68-.13-2.5-.36.18-.23.34-.47.48-.73.17-.08.34-.06.52-.02.2-.17.36-.13.5.1Z"/>
    <path class="cls-102" d="M339.94,209.18l-.6.06c.49-.68.47-1.83,1.48-2.09.06.79-.14,1.65-.88,2.03Z"/>
    <path class="cls-2" d="M341.82,148.27h-2c.03-.3-.21-.67-.13-.97.26-.36.43-.45.64-.03l1.5,1Z"/>
    <path class="cls-188" d="M359.38,146.75c.11.58-.72.69-1.07,1.02-.44-.14-.43-.31,0-.5v-.5c-.13-.39.05-.6.47-.63.09-.16.33-.15.47-.06l.13.67Z"/>
    <path class="cls-58" d="M323.86,239.63c-.1.88-1.44.45-1.99.38.53-.53,1.3-.42,1.99-.38Z"/>
    <path class="cls-33" d="M345.31,144.28c-.02.12.2.33.29.5.14.28-.13.31-.29.5-.11-.45-.6-.5-1-.5-.05-.2-.06-.85.23-.94.2-.07.53.5.77.44Z"/>
    <path class="cls-156" d="M323.33,193.7c-.15.23-.34.41-.56.57.02-.17-.09-.37-.03-.53l.24-.69c.13.04.29.01.41.06.23.22.21.42-.06.6Z"/>
    <path class="cls-107" d="M329.84,226.14c-.33.23-.59.57-1.07.51.14-.18.31-.33.46-.5h.6Z"/>
    <circle class="cls-135" cx="366.55" cy="159.75" r=".32"/>
    <path class="cls-219" d="M344.76,220.71c.12-.23.32-.47.57-.57-.13.23-.32.46-.57.57Z"/>
    <path class="cls-164" d="M323.33,193.7l.06-.6c.5.2.49.63-.06.6Z"/>
    <path class="cls-12" d="M435.73,70.91c.57.23-2.86,7.75-3.48,6.99-1.37.73-2.98.84-4.82.31-2.63.27-5,0-7.1-.82l3.88-7.96c-.44-.53-.31-.78.2-1.09,1.8-1.1,8.61.52,10.68,1.36.45.18.62.69.65,1.21Z"/>
    <path class="cls-12" d="M419.84,91.79c.58-.65,2.71-.54,2.54.6.09,1.03-.53,1.9-1.16,2.87-3.02,4.63-5.42,9.39-8.22,14.21-2.23-4.62,2.06-12.56,2.3-19.57,1.36-2.63,4.26-.8,4.54,1.89Z"/>
    <path class="cls-204" d="M432.24,77.89c.97.19,2.86,1.14,3.35,2,1.3,2.27-4.58-.29-6.3-.46-.38.94.12,2.07,1.51,3.38.28.16.57.35.72.53.31.38.25.74-.17.82l-1.06.2c-.54,1.03-1.61,1.35-3.2.98l-3.27-.51c-3.37-1.83-4.33-1.27-2.89,1.68l-.73.85c-.73,3.11-4.75-1.27-2.4-2.99l-.56-1c-.17-.13-.2-.47-.44-.55.23-.85.57-1.67.94-2.46.56-.87,1.04-.56.77.45-.22.14-.26.3-.09.49-.3-1.72,2.95-2.27,2.75-.08l1.09-.35c-.96-.31-1.34-.69-1.14-1.14-1.51.62-3.36,1.35-2.34-.87.44-.5,1.21-.82,1.53-1.48,3.97-.47,7.99-.27,11.92.5Z"/>
    <path class="cls-1" d="M430.3,84.36c.02,2.1-1.8,3.35-2.96,4.98,0,.24-.03.47-.14.65-.16.26-5.76-.28-5.41-1.52-1.25,0-1.78-.38-1.58-1.13-.72-1.65-1.27-3.44-.39-5.35,3.28,2.15,6.89,2.54,10.47,2.36Z"/>
    <path class="cls-43" d="M435.73,70.91c-2.91-1.39-5.85-1.74-8.83-2.26-1.39-.24-1.87.14-2.7.78-2.71,2.09-3.12,7.44-5.54,5.96,1.51-2.76,2.56-6.21,5.43-7.75,3.74-.72,12.52.12,14.72,3.95-1.31.69-2.26-.16-3.08-.68Z"/>
    <path class="cls-87" d="M417.81,84.37c.22,1.56.32,2.4,1.41,3.21.29.21.64-.24.99-.22.66.04,1.32.56,1.58,1.13-.05,1.1-.21,1.12-1.12.83l-.46.54c.52.2.4.57-.34,1.13.95.25.93.65-.04.81-.98-.09-1.31-1.38-2.01-2.03-.65-.16-1.82.13-2.53.13-.43-.48-.89-.89-1.37-1.23.3-.17.41-.32,0-.38-.38-.16-.26-.45.38-.85.12-.04.27.02.4,0l.54-.64c.51-1.08.99-2.2,2.04-2.84l.52.42Z"/>
    <path class="cls-100" d="M421.79,88.48l5.55.86c.35.07,1.26,1.02.75,1.27-.83.41-2.03.18-2.82.22-1.12-.18-2.29-.17-3.5.05.32,1.01-1.05.84-1.46.1.4-.85.37-1.22-.09-1.12-.35-.47-.16-.95.18-1.08.54-.21,1.04-.34,1.4-.28Z"/>
    <path class="cls-103" d="M429.3,79.43c.24,1.91,2.31,1,1.51,3.38l-3.08-.08c.37-.55.94-.75,1.06-1.18.41-1.46-4.23-1.3-1.87-2.3.77-.32,1.65.09,2.38.17Z"/>
    <path class="cls-57" d="M421.77,90.88c1.06-.53,2.72-.2,3.5.53.35.04.81.34,1.08.6,1.65,1.63-3.86.4-3.97.38-.85-.17-1.66-.51-2.54-.6l.04-.81c.09-.44.23-.43.43,0l1.46-.1Z"/>
    <path class="cls-184" d="M422.27,80.88l-1.09.35c-.44-.17-.83-.38-1.64-.65-.44-.14-.43.91-1.11.72-.26-.11-.23-.28.09-.49-.22-.2-.47-.39-.77-.45.24-.51.66-1.07,1.04-1.49.07.26-.09.6.15.98.9-.63,2.06-1.57,3.11-.81.2.45-.06,1.44.23,1.84Z"/>
    <path class="cls-42" d="M413.88,120.81c-.4-2.04.44-4.12-.6-5.99-.32-1.06.13-2.62.11-4.04,1.24-.75,1.13,11.02.49,10.03Z"/>
    <path class="cls-66" d="M415.3,89.9c-1.14,0-1.88,1.45-3.29.85.51-.97,1.37-1.44,1.91-2.07.21-.25.62-.48.87-.62.44-.25.9.27.84.56-.1.5-.32.86-.34,1.28Z"/>
    <path class="cls-81" d="M425.27,90.83v.57c-1.18-.13-2.3-.6-3.5-.53.8-1.15,2.41-.39,3.5-.05Z"/>
    <path class="cls-55" d="M411.79,132.76l-.51,1.04c-.44.23-.59.04-.5-.5l.39-1c.2.17.41.32.62.46Z"/>
    <path class="cls-66" d="M413.92,88.29c-.53.14-1.13.03-1.67.11.44-.64,1.38-.71,2.05-.96.07.23-.17.75-.38.85Z"/>
    <path class="cls-85" d="M342.41,236.59c.86.43,1.75,1.61,1.91,2.57,2.47,2.22,5.09,5.26,6.02,8.43.28,1.38-.12,1.59-1.02.51-.44-1.44-4.75,1.01-5.95,2.51.16.61.05,1.33-.64,1.43-3.62,1.01-6.94,2.85-10.6,4.37-2.13.88-6.06-11.66-6.84-13.73-.49-1.32-.35-2.25.57-3.04,4.48-2.04,10.55-3.97,14.44-4.99.66.29,1.83,1.25,2.11,1.95Z"/>
    <path class="cls-12" d="M340.3,234.64c.04.14.05.33.18.48.22.25-.3.36-.66.48l-13.31,4.6c-.22.08-.66.13-.69,0-.03-.14.03-.47.03-.58.07-6.88,1.17-3.07,2.87-7.18.19-.46,1.61-.38,1.85-1.16.57-1.83,2.66-3.44,4.45-3.36,1.36,2.25,3.56,5.95,5.28,6.71Z"/>
    <path class="cls-109" d="M324.92,257.02c-5.63,4.29-.41,4.15-8.97,7.08,1.25-6.4,2.9-12.42,5.06-19.13,1.71,3.94,3.05,7.75,3.91,12.05Z"/>
    <path class="cls-201" d="M329.24,255.1l.63.53c.4,1.07,1.47,1.53,2.45,2-.18.73-.18,1.38,0,1.96.1-.41.71-.33,1,0,.89.18,1.24.51,1.05,1.01l11.96,7.91c.63.8.28.99-1.05.57-2-.94-3.6-2.56-5.67-3.73l-8.24-4.66c-.4-.02-.57.12-.48.47.58.24.58.99.92,1.34.24.2.21.38-.06.54-2.74-1.21-4.27-3.64-5.29-6.6l-4.47-13c-.46-1.33.77-2.31,1.72-2.13,1.54,4.82,2.62,9.82,5.54,13.79Z"/>
    <path class="cls-35" d="M344.28,235.51c3.15,4.06,6.51,8.17,10.46,11.75,1.24,1.13,3.23,1.5,4.5,2.33.48,1-.1.92-.97.51-.13-.14-3.47-1.17-2.76-.23,1.64,2.16,8,6.9,8.26,9.72.21.51.06.67-.46.48-3.08-4.17-6.87-8.05-11.91-10.08-1.83-.74-3.55.77-5.58.55,1.1-1.03,2.37-1.72,3.51-2.43.3-.18.82-.2,1.02-.51l-.05-.94c-1.92-2.69-3.75-5.34-5.47-7.97-1.21-.24-2.62-2.33-1.45-3.47.24,0,.76.1.91.29Z"/>
    <path class="cls-186" d="M341.78,223.72l.91.66c-.23,2.6-.2,5.18.12,7.72-.16.56-.35,1.34-.79.98-2.71-2.27-5.87-4.4-5.16-6.51.21-.63,4.12-2.78,4.92-2.84Z"/>
    <path class="cls-146" d="M342.81,232.1c-1.61-.1-1.23-7.19-1.03-8.38.64-.58,1.14-.87,1.73-.89.43,3.27.15,6.33-.71,9.27Z"/>
    <path class="cls-112" d="M372.36,258.05c.43.2.42.38-.04.53-1.91.07-2.18-1.81-3.62-2.83-2.02-1.43-4.49-2.18-6.33-3.75-.15-.43-.01-.52.39-.28l9.43,3.88c-.15,1.1-.07,1.74.16,2.45Z"/>
    <path class="cls-77" d="M375.8,258.53c.22.28.35.44,0,.68-1.13.65-2.56-.65-3.47-.62-.03-.16.09-.38.04-.53,1.17-1.05,2.32-.4,3.44.48Z"/>
    <path class="cls-23" d="M335.23,259.05c.69.67.43.93-.46.5-.35.79-.82.56-1.46.05l-1-.5q-.06-.42,0,0c.44.14.43.31,0,.5-.61-.25-1.06-.76-1.54-1.35.75-.33,1.15-.37,1.54-.61l2.91,1.41Z"/>
    <path class="cls-39" d="M362.77,251.72l-.39.28c-1.12-.96-3.07-.76-4.11-1.9.37-.06.74-.21.97-.51,1.05.69,2.62,1.29,3.53,2.13Z"/>
    <path class="cls-136" d="M324.43,260.4c-.22,0-.34-.17-.37-.53.67-.69,1.17-1.4,2.16-1.36.12,1.41-1.09,1.39-1.8,1.89Z"/>
    <path class="cls-114" d="M344.82,238.68c.58.71.3.96-.49.48-.6-.88-1.48-1.48-1.91-2.57.31-.45.27-1.39.96-1.38-.54,1.18.51,2.54,1.45,3.47Z"/>
    <path class="cls-60" d="M338.42,260.62c.69.51.54.67-.45.47-1.02-.41-2.07-.77-3.14-.99-.45-.12-.46-.31-.04-.55l.46-.5c1.12.54,2.23.78,3.18,1.57Z"/>
    <path class="cls-61" d="M336.82,268.59c-.14.38-.31.37-.5,0-.5-1.16-2-1.59-2-3-.23-.15-.22-.32,0-.5.75,1.24,2.32,1.94,2.5,3.49Z"/>
    <path class="cls-108" d="M340.7,261.59c.39.33.25.47-.42.43l-2.32-.94.45-.47c.54.45,1.82.27,2.28.97Z"/>
    <path class="cls-110" d="M334.32,265.09v.5c-1.05-.61-1.91-1.53-2.57-2.55l.06-.54c.96.75,1.87,1.53,2.5,2.59Z"/>
    <path class="cls-106" d="M347.81,269.59c.3.15.29.32,0,.5-.82-.24-1.78-.65-2.53-1,.44.05.92-.1,1.05-.57.48.32,1.4.29,1.49,1.07Z"/>
    <path class="cls-195" d="M305.34,243.63c.03.74-.27,1.35-.37,2l-.68-.5c.24-.62.09-1.45.55-2,.44-.23.59-.04.5.5Z"/>
    <path class="cls-145" d="M362.36,254.11c-.22.16-.41.35-.55.58-.69-.59-1.49-1.06-2.06-2.04,1.39-.24,1.74,1.11,2.61,1.46Z"/>
    <path class="cls-144" d="M342.32,262.1c.23.44.04.59-.5.5-.56-.13-1.01-.36-1.53-.57-.13-.33.17-.4.42-.43.29.31,1.18.28,1.62.5Z"/>
    <path class="cls-127" d="M341.82,262.6c.18-.15.35-.32.5-.5l1.37.69c.24.12-.55.94-.92.65-.24-.19-.61-.77-.95-.84Z"/>
    <path class="cls-143" d="M345.94,265c.79.52-.22.62-.67.86-.43.23-1.12-.37-1.5-.57.64-.37.98-.1,2.18-.29Z"/>
    <path class="cls-148" d="M338.33,266.13c-.22.08-.39.25-.47.47-.36-.31-1.05-.42-1.05-1.01-.33-.15-.33-.31,0-.5.66.03,1.01.8,1.51,1.03Z"/>
    <path class="cls-36" d="M342.72,252.03c-.17-.67.3-1,.64-1.43.14.38.64.86.45,1.26-.25.51-.83.09-1.09.16Z"/>
    <path class="cls-22" d="M336.82,269.59c-.2-.42,0-.57.5-.5.36.38.72.79,1.02,1.43-1.01.31-1.25-.42-1.52-.93Z"/>
    <path class="cls-3" d="M363.3,260.07c.21-.1.37-.27.46-.48.26.25.62.5.57.77-.05.29.02.67-.28.75s-.67.01-.75-.26.04-.58,0-.77Z"/>
    <path class="cls-101" d="M331.37,260.7l-.48.47c-.5-.21-.63-1.03-1.15-1.43,1.24-.64,1.14.69,1.62.96Z"/>
    <path class="cls-79" d="M334.78,259.55l.04.55c-.16.16-.31.33-.45.51-.41-.27-.88-.48-1.05-1.01.48.04.97-.04,1.46-.05Z"/>
    <path class="cls-138" d="M345.92,266.88c.22-.5.54.16.68.22.26.11.38.91-.01.93-.23,0-.94-.52-.66-1.15Z"/>
    <path class="cls-132" d="M338.04,271.25c.06-.94,1.23.58,1.23.58-.09.4-.6.37-.7.24-.12-.15-.57-.27-.53-.82Z"/>
    <path class="cls-27" d="M336.82,265.09v.5c-.32.06-.59-.31-.78-.52-.44-.47.43-.72.55-.47l.23.49Z"/>
    <path class="cls-134" d="M341.38,222.18c-.35.13-.64.49-1.06.47v-.5c.16-.18.48-.3.59-.5,0,.27.22.45.47.53Z"/>
    <path class="cls-194" d="M347.31,264.59c-.44-.14-.43-.31,0-.5.45,0,.95.53.94.79,0,.2-.57.34-.7.21-.15-.15-.29-.33-.24-.5Z"/>
    <path class="cls-96" d="M339.82,223.16c.11.15-.08.36-.23.49-.12.11-.54.04-.73-.19s1.16-.95.96-.8v.5Z"/>
    <path class="cls-216" d="M337.32,269.09c-.15.18-.32.35-.5.5-.17-.33-.35-.66-.5-1h.5c.17.16.34.33.5.5Z"/>
    <path class="cls-28" d="M376.8,259.1v.5c-.38.12-.73-.23-1-.4v-.68c.29.23.58.57,1,.58Z"/>
    <path class="cls-209" d="M340.32,222.66l-.5.5v-.5c.18-.13.35-.33.5-.5v.5Z"/>
    <path class="cls-30" d="M346.31,264.09c-.35-.38-.36-.51-.27-.48s.26.22.27.48Z"/>
    <path class="cls-82" d="M347.31,264.09v.5c-.64.09-1.07-.01-1-.5h1Z"/>
    <path class="cls-160" d="M347.81,270.08v-.5c.15.09.45.11.51.26.07.19.04.6-.25.73-.2.09-.21-.34-.25-.49Z"/>
    <path class="cls-117" d="M324.43,260.4c-.64.41-.73-.17-.37-.53.45-.39.36.33.37.53Z"/>
    <path class="cls-29" d="M376.8,259.6c.1.34.09.43.05.39s-.08-.21-.05-.39Z"/>
    <path class="cls-85" d="M329.87,255.64c-.19-.18-.47-.31-.63-.53.15.19.54.3.63.53Z"/>
    <path class="cls-83" d="M367.77,251.86c-2.12-.35-3.89-1.65-5.92-2.78,2.25-.28,5.19-.41,5.92,2.78Z"/>
    <path class="cls-183" d="M365.3,247.12c.64.2.74.85,0,1-2.38-1.38-5,.41-7-1,.35-.26.85-.42,1.5-.5,2.12-.15,3.79.82,5.5.5Z"/>
    <path class="cls-213" d="M436.26,215.2c-.16-.21-.34-.4-.54-.58.31-.07.45-.53.78-.49.4.05.93.02.56.54-.18.25-.61.3-.8.53Z"/>
    <path class="cls-167" d="M366.3,247.62c.33.15.32.31,0,.5-.28-.1-.75.15-1,0v-1c.71-.13.85.35,1,.5Z"/>
    <path class="cls-68" d="M359.81,246.62c-.34.13-.75.68-1.5.5-.21.07-.53-.02-.48-.46.84-.11,1.39-.03,1.98-.04Z"/>
    <path class="cls-8" d="M366.3,248.12v-.5c.14.1.43,0,.51.25.08.24.03.54-.25.72-.14.09-.33-.22-.27-.48Z"/>
    <path class="cls-190" d="M417.81,84.37c-.25-.01-.46-.17-.52-.42l-.03-.58c.35.25.5.57.56,1Z"/>
    <path class="cls-66" d="M414.7,87.44l.54-.64c-.12.26-.32.47-.54.64Z"/>
    <circle class="cls-181" cx="412.53" cy="86.62" r=".25"/>
    <path class="cls-85" d="M303.34,227.65c-.14.44-.31.43-.5,0,.1-.76-.47-1.56-.47-2.52v-13.89c0-.56.57-1.21.92-1.11-.53,3.91-.8,8.01-.09,12.14.33,1.89.05,3.67.14,5.38Z"/>
    <path class="cls-140" d="M352.81,131.25c.86.03.85.44-.03.66-1.03.31-2.05.17-3.32-.23,0-.4.19-.65.27-.93,1.06.02,2.1.01,3.08.5Z"/>
    <path class="cls-179" d="M303.34,229.15c.56.68.46,2.39-.41,2.53-.18-1.17-.33-2.37-.59-3.53.17-.16.34-.32.5-.5h.5c.02.42-.19,1.13,0,1.5Z"/>
    <path class="cls-171" d="M353.9,131.35c.09.33.26.64.41.95.08.35-.1.5-.5.5-.49-.05-.73-.54-1.03-.89l.03-.66c.31.15.77-.02,1.09.1Z"/>
    <path class="cls-45" d="M422.52,129.43c.76.64-.58,2.31-1.11,2.02-1.36-1.14-2.51-3.15-2.65-5.15l3.76,3.13Z"/>
    <path class="cls-98" d="M411.28,133.79c-.13.26-.26.59-.51.79-.54.41-.48-.23-.53-.55-.05-.43.44-.51.54-.73.15.18.32.35.5.5Z"/>
    <path class="cls-85" d="M410.78,162.75h-.5c-.02-.48.05-1.03-.06-1.5.78.07.49.97.56,1.5Z"/>
    <path class="cls-91" d="M476.28,196.32c-.85.1-1.73,0-2.53.41-.19-.59-.99-.7-1.54-.61,1.48-.61,3.13-.98,5.06-.89-.34.55-.81.64-.99,1.08Z"/>
    <path class="cls-72" d="M359.14,139.66c-.71.85-1.83,1.23-3.36,1.12l-.41-.03c-.96.51-1.82.49-1.06-.53,1.24-.61,2.45-1.61,4.03-1.75.53-.05.61.9.8,1.19Z"/>
    <path class="cls-37" d="M359.14,139.66c.33.52,1.26.74,2.17.65-.16.79-.83,1-1.09,1.47l-.41-1c-1.04-.11-2.02.25-3,.54-.1-.48-.61-.51-1.03-.54.93-.76,2.24-.77,3.36-1.12Z"/>
    <path class="cls-191" d="M355.37,140.75c-.52.79-1.7.76-2.56,1.03.34-.62.84-1.24,1.5-1.56.06.53.63.5,1.06.53Z"/>
    <path class="cls-56" d="M357.28,135.32c.14.58-.68.57-1.13.46-.37-.09-1.19-.77-.4-1.04l1.53.58Z"/>
    <path class="cls-67" d="M349.88,133.27c-.6-.07-1.23.09-1.55.63h-.55c-.05-.58.05-1.19.77-1.16.47.02,1.05.06,1.33.53Z"/>
    <path class="cls-162" d="M353.81,132.8c.15-.18.32-.35.5-.5.24-.08.56.14.48.27-.21.33-.74.25-.98.23Z"/>
    <path class="cls-195" d="M350.24,135.73c-.73.88-1.24.49-.44-.41.36-.31.81.01.44.41Z"/>
    <path class="cls-69" d="M352.31,142.28c.17-.03.41-.35.5-.5-.06.19-.48.31-.5.5Z"/>
    <path class="cls-174" d="M351.81,142.78c-.1-.39.23-.45.5-.5-.03.31-.12.58-.5.5Z"/>
    <path class="cls-199" d="M351.81,142.78c-.34.1-.43.09-.39.05s.21-.08.39-.05Z"/>
    <path class="cls-70" d="M415.27,178.13c-.11.31.25.93-.25,1.09-.32.11-.66,0-.74-.26-.08-.28.04-.6,0-.85l.99.02Z"/>
    <path class="cls-95" d="M304.34,236.64c.18.46.35.95.5,1.5,0,.65-.07,1.11-.58,1.5.53-.67-.58-.79-.73-1.19-.86-2.23-.5-4.58-.6-6.76-.03-.74.87-1.63.41-2.53.37.02.53.45.57.98l.43,6.5Z"/>
    <path class="cls-50" d="M305.34,243.63c-.15-.18-.32-.35-.5-.5,0-.25.09-.75,0-1-.16-.63-.08-.86.5-.5.14-.44.31-.43.5,0,.45.73-.52,1.46-.5,2Z"/>
    <path class="cls-116" d="M306.34,238.63c.16.18.34.34.52.5-.09.56-.06,1.12-.52,1.5-.2-.23-.53.1-1,1-.07.22-.33.36-.5.5-.12-.34-.35-.71-.56-1,1.27-.2.99-1.52,1.06-2.5.3-1.05.72-1.08,1,0Z"/>
    <path class="cls-166" d="M552.7,276.11c-2.76,4.14-6.15,8.07-7.69,13.11-.08,1.96,2.01,4.11,3.38,5.55l13.41,14.14c.46.49.75.82.88,1.3.09.35-.66,1.48-.93,1.24-5.59-5.22-10.95-10.65-15.79-16.54-2.08-2.54-2.98-5.67-1.53-8.68,1.93-4.01,4.43-7.97,7.71-10.69.66-.53,1.42-.1.56.56Z"/>
    <path class="cls-204" d="M570.14,267.41c-3.4,4.12-16.3,19.81-22.05,19.29,3.98-2.89,7.16-5.66,10.23-9.01l9.79-10.69c.27-.3.66-.39.85-.45.3-.09.89.28,1.18.86Z"/>
    <path class="cls-36" d="M552.7,276.11c.09-.38-.2-.61-.56-.56-.12-.54.52-.51,1.1-.48.68.03.58.81.24,1.01-.16.1-.56-.05-.78.04Z"/>
    <path class="cls-51" d="M421.27,180.33c-.65.56-1.57.33-2.44.89-.27-.9.4-1.36.94-1.49.27.54.95.61,1.5.61Z"/>
    <path class="cls-195" d="M503.45,82.63c.3.65-1.45.85-1.82.22-2.35-3.98-4.62-7.78-7.42-11.52-4.42-.7-8.52-1.74-12.65-3.28-8.94-3.32-16.93,2.31-15.74-6,1.26.1,1.03,1.88,2.08,2.15,1.85.49,3.63.92,5.47.91,4.86,0,19.29,2.64,22.61,6.01s5.53,7.28,7.48,11.5Z"/>
    <path class="cls-41" d="M455.72,79.39c.13-.34-.13-.53-.44-.56-.11-.47.46-.61.74-.44s.35.42.25.73c-.07.2-.26.44-.54.27Z"/>
    <path class="cls-20" d="M519.22,179.22c-.2-.39-.37-.89-.5-1.5.02-.65-.19-1.39.83-1.99.2,1.03.61,2.68-.33,3.49Z"/>
    <path class="cls-93" d="M519.22,179.22v1.5c-.18.06-.45-.04-.62.05l.12-3.04c.64.2.5.96.5,1.5Z"/>
    <path class="cls-26" d="M505.76,105.24c-4.3-.57-8.84-1.92-11.73-5.28,4.07,1.83,8.01,2.72,11.73,5.28Z"/>
    <path class="cls-7" d="M477.79,88.56c-.24.59-.96.75-1.8,1.22-.08.68.61,1.04.74,1.6-.53-.12-1.65.16-1.88-.47-.14-.37.29-.94.22-1.23-.25-1.15-3.55-.74-3.23-2.78,2.17.37,4.08,1,5.95,1.67Z"/>
    <path class="cls-214" d="M501.51,107.45c-2,.08-3.65-1.7-4.44-3.64,2.13.22,3.32,1.73,4.44,3.64Z"/>
    <path class="cls-193" d="M468.76,86.77c-.59.52-.93,1.32-1.02,2.42l-.55.13c-1.02-.14-1.79-.34-1.93-1.01,1.22-1.5,2.17-2.48,3.98-2.36,0,.42-.42.57-.48.82Z"/>
    <path class="cls-153" d="M468.76,86.77c-.3,1.19-.47,1.95-.58,3.11-.47-.19-.66-.47-.98-.56-.02-.33,1.23-4.21,1.57-2.55Z"/>
    <path class="cls-178" d="M468.67,96.87c-1.32-.74-3.02-1.03-3.89-2.41,1.68-.25,3.21.9,3.89,2.41Z"/>
    <path class="cls-53" d="M438.64,91.89c-.21.15-.33.11-.37-.42.1.05.23.16.37.42Z"/>
    <path class="cls-149" d="M440.76,89.36l-.5-.5.5.5Z"/>
    <path class="cls-195" d="M490.26,275.02c6.19,1.64,12.06,3.02,17.77,5.32,9.2,3.7,21.09,16.04,27.89,23.44.37.4.3.97.27,1.35-.02.3-.42.31-.69.17-.36-.18-10.79-10.69-13.5-12.97-15.18-12.79-14.14-10.08-32.75-16.76-.9-.6-.56-.78,1.01-.55Z"/>
    <path class="cls-17" d="M298.88,284.13c-.6.09-.93.13-.96-.52,10.15-4.4,19.83-9.76,29.85-14.91.89-.46,1.87-1.1,2.67.08-10.47,5.66-20.64,11.47-31.56,15.35Z"/>
    <path class="cls-40" d="M347.74,279.3c-5.27,5.13-8.63,11.4-14.16,16.44,3.33-6.94,8.62-12.73,14.15-17.75-1.45,1.32,11.09-4.86,10.48-3.21-2.44,1.69-5.2,2.8-7.91,3.57-1.06.3-1.51-.07-2.56.95Z"/>
    <path class="cls-40" d="M303.6,303.47c-.07.61-.2.62-.29.77-.15.24-1.08.65-1.24.15-.76-2.34-4.48-16.41-3.34-17.02.44-.24.98.15,1.13.76l3.74,15.35Z"/>
    <path class="cls-50" d="M324.96,298.29c-5.63,3.53,12.28-19.6,12.62-18.39l-12.62,18.39Z"/>
    <path class="cls-40" d="M382.45,261.51c-.65.07-.99.15-1.31.07-.4-.1-.54-.76-.35-1.13.64-1.25,11.99-2.01,13.11-1.3.21.13.53,1.04.08,1.09l-11.53,1.27Z"/>
    <path class="cls-126" d="M366.29,278.41c2.97-5.77,6.91-10.87,11.89-15.04-3.5,5.36-7.24,10.43-11.89,15.04Z"/>
    <path class="cls-210" d="M363.71,267.39c-4.12,1.46-8.22,1.82-12.67,2.35,3.87-2.28,8.19-3,12.67-2.35Z"/>
    <path class="cls-185" d="M372.31,249.76c-1.23-.91,14.25-7.41,14.73-6.51l-14.73,6.51Z"/>
    <path class="cls-100" d="M297.93,283.6c.29.22.62.38.96.52-3.41,1.21-6.84,2.26-10.79,1.14.31-1.16,1.03-.15,1.57-.3,2.83-.94,5.53-1.08,8.26-1.36Z"/>
    <path class="cls-137" d="M365.2,268.45c1.94-2.52,1.11,3.27-3.86,5.03l3.86-5.03Z"/>
    <path class="cls-4" d="M490.26,275.02c-.33.13-1.06.03-1.01.55-2.28-1.11-4.76-.87-6.84-2.7,2.98.07,5.31,1.48,7.84,2.15Z"/>
    <path class="cls-206" d="M310.36,218.18c-.65-.2-1-1.04-1.05-2.51.31-3.6.1-7.81,2.86-10.85-.63,4.94-2.29,8.97-1.81,13.36Z"/>
    <path class="cls-123" d="M340.76,143.32c.75.57,1.13.55,2.05.45.17-.33.35-.32.55,0l.32,1c.37.18.24.51-.38,1,.04.56-.54.85-1,.5-.36.89-1.8.92-2,0-.63.62-.97.63-1.03.03.13-1.18.06-2.5.92-3.39.46-.53.75-.3.55.41Z"/>
    <path class="cls-128" d="M343.81,140.15c.43.06.72.7,1.07.81,1.03,1.08-2.77.67-3.97,1.28-.14.78-.56.5-1.06,0,.02-1.78,2.4-2.32,3.97-2.1Z"/>
    <path class="cls-133" d="M339.29,146.3c.19-.17.79,0,1.03-.03.76.35.55.69-.64,1.03-.58.31-1.39.38-1.99.15-.52-.2-.64-1.5.03-1.51.74-.01,1.12.75,1.56.35Z"/>
    <path class="cls-37" d="M310.36,218.18c.22.19,0,.89.47.98-.11.5-.65.56-1.09.5-.55-1.21-.55-2.63-.43-3.99.87.6.26,1.84,1.05,2.51Z"/>
    <path class="cls-176" d="M346.78,140.61c-.91.01-1.55-.88-1.91-1.65.53-.2,1.44-.49,1.7.14.19.48.58,1.09.21,1.51Z"/>
    <path class="cls-129" d="M347.31,136.29c-.67.42-.91.18-.5-.5.09-.36.33-.65.49-.97.25-.02.52-.18,1.04.14-.32.55-.98.72-1.03,1.33Z"/>
    <path class="cls-115" d="M304.84,238.13c-.66-.21-.46-.96-.5-1.5h.5v1.5Z"/>
    <path class="cls-158" d="M347.31,136.29c-.25.2-.56.61-.77.48-.23-.14-.38-.52-.24-.72.12-.17.25-.33.51-.26-.08.33.18.57.5.5Z"/>
    <path class="cls-175" d="M340.9,142.24c.82.58,2.13.5,2.47,1.54h-.55c-.72.24-1.64.18-2.05-.45-.16-.16-.41-.24-.55-.41-.14-.16-.37-.44-.36-.66.31-.1.77.14,1.06,0Z"/>
    <path class="cls-203" d="M312.44,235.64c-1.92,10.13-4.87,19.5-7.27,29.24-.12.47-.72.77-1.01.7-.16-.03-.12-.37-.3-.46-1.22-.84-.44-2.5.47-3.53-.19-.29-.3-.25-.5.02.29.58.07.8-.51.47,2.36-9.18,4.84-17.94,8.02-26.41.72-.74,1.09-.75,1.09-.05Z"/>
    <path class="cls-15" d="M303.86,265.12c-.34-.16-.81-.74-.98-.25-.16.46-.2.96-.55,1.21-.22-1.72.68-2.8.99-4,.21-.11.43-.23.51-.47.11-.26.28-.25.5-.02-.23,1.18-.71,2.32-.47,3.53Z"/>
    <path class="cls-161" d="M312.44,235.64l-1.09.05c.41-.69.95-1.26,1.22-2.1.77.96-.04,1.51-.14,2.05Z"/>
    <path class="cls-89" d="M306.34,240.63c-.22.18-.2.84-.5,1h-.5c.27-.83.34-1.71.75-2.53.51.64.17,1.13.25,1.53Z"/>
    <path class="cls-202" d="M301.84,269.09c-.15.43-.59.72-.63,1.54-.67-.34-.52-1.05.13-1.54.14-.44.31-.43.5,0Z"/>
    <path class="cls-205" d="M301.84,267.59c.17-.34-.15-1.01.5-1.5.06.44,0,.96-.5,1.5Z"/>
    <path class="cls-160" d="M301.84,269.09h-.5c-.05-.48.07-.89.5-1.5-.11.46.16,1.05,0,1.5Z"/>
    <path class="cls-5" d="M306.34,238.63h-1c.06-.84.49-1.71.76-2.55.53,1.03.13,1.8.24,2.55Z"/>
    <path class="cls-207" d="M326.85,196.67c-.66.38-.95,1.14-2.05,1.01.06-.93,1.29-1.03,2.05-1.01Z"/>
    <path class="cls-217" d="M364.75,166.74c-.54.59-.24,1.38-.72,1.61-.74.35-1.77.22-2.21.36-.45.05-.87.5-1.4-.4,3.73-4.45-.64-1.91,4.85-4.09.24-.12.95-.59,1.06-.02.26,1.36-.96,1.87-1.58,2.54Z"/>
    <circle class="cls-71" cx="365.05" cy="169.49" r=".25"/>
    <path class="cls-218" d="M358.31,147.27v.5c-.52-.05-1.17.25-1.54-.32.7-.36,1.13-.12,1.54-.18Z"/>
    <path class="cls-177" d="M358.78,146.14c-.13.23-.26.47-.47.63-.4.06-.67-.25-.26-.5.1-.06.23-.25.51-.48.09-.07.31.12.23.35Z"/>
    <path class="cls-131" d="M360.22,141.78c-.55.05-.45-.6-.41-1,.25.03.45.03.5.27.05.23.04.6-.09.73Z"/>
    <path class="cls-48" d="M350.24,135.73c-.62.47-.88,1.47-1.42,2.02-.55-.33-.69-.9-.27-1.43.3-.38.79-.68,1.25-1,0,.44.08.74.44.41Z"/>
    <path class="cls-16" d="M356.81,166.74l-1,1c.02.79-.54.57-1,0-.39-.03-.74-.21-1-.5.44-.18.94-.35,1.5-.5.47-.07,1.04.14,1.5,0Z"/>
    <path class="cls-76" d="M354.31,166.74c.33,0,.68.05,1,0-.23.61-.96.52-1.5.5l-.5-.1c.22-.36.62-.39,1-.4Z"/>
    <path class="cls-44" d="M355.81,167.74c.06.34.3.7,0,1-.52.29-.52-.57-1.01-.5v-.5h1Z"/>
    <path class="cls-99" d="M344.31,144.78c.03.12.01.37,0,.5-.35.49-.68.66-1,.5.05-.36.15-.71.38-1h.62Z"/>
    <path class="cls-38" d="M342.32,146.27c.29.15.28.32,0,.5-.07.3-.16.5-.5.5h-1.5l-.64.03c.11-.38.45-.69.64-1.03.65.17,1.43.52,2,0Z"/>
    <path class="cls-33" d="M342.32,147.27v-.5c.29-.19.26-.3,0-.5.3-.27.62-.39,1-.5.35-.1.65-.38,1-.5-.43.83-1.15,1.57-2,2Z"/>
    <path class="cls-151" d="M342.32,147.27c-.13.06-.35,0-.5,0l.5-.5v.5Z"/>
    <path class="cls-94" d="M422.27,80.88c.13.18.06,1-.23.94-.33-.07-.64-.5-.86-.59-.24-.22.06-.75.34-.8.21-.04.52.46.75.45Z"/>
    <path class="cls-80" d="M418.43,81.3c-.83.11-.72-.63.09-.49.39.15.14.3-.09.49Z"/>
    <path class="cls-118" d="M420.31,90.97h-.43c.02-.39.19-.76.34-1.12h.79c1.08.03-.89.97-.7,1.12Z"/>
    <path class="cls-163" d="M350.34,247.59c-2.14-2.69-4.08-5.58-6.02-8.43.12-.2.29-.37.49-.48,1.58,1.57,6.17,6.56,6.19,8.62,0,.35-.57.12-.67.28Z"/>
    <path class="cls-125" d="M333.32,259.6c-.3-.02-.72.11-1,0v-.5c.2.02.56-.06.74,0,.15.05.21.32.26.5Z"/>
    <path class="cls-168" d="M332.32,259.1c-.1-.34-.09-.43-.05-.39s.08.21.05.39Z"/>
    <path class="cls-170" d="M342.82,143.78c-.28.42-.76.57-1.25.56-.58-.01-.84-.47-.81-1.01.72-.05,1.45.04,2.05.45Z"/>
    <path class="cls-196" d="M304.34,261.6c-.17,0-.33,0-.5.02,0-.57.5-.64.5-.02Z"/>
    <circle class="cls-208" cx="304.59" cy="259.85" r=".25"/>
    <path class="cls-165" d="M342.32,146.77v-.5c.57-.03.61.51,0,.5Z"/>
  </g>
</svg>