<?xml version="1.0" encoding="UTF-8"?>
<svg id="Ebene_10" xmlns="http://www.w3.org/2000/svg" version="1.1" viewBox="0 0 930 2181.6">
  <!-- Generator: Adobe Illustrator 30.1.0, SVG Export Plug-In . SVG Version: 2.1.1 Build 136)  -->
  <defs>
    <style>
      .st0 {
        fill: #4a5b85;
      }

      .st1 {
        fill: #859cd2;
      }

      .st2 {
        fill: #3c4f7c;
      }

      .st3 {
        fill: #fdfdfe;
      }

      .st4 {
        fill: #e5e8ef;
      }

      .st5 {
        fill: #394a73;
      }

      .st6 {
        fill: #36466f;
      }

      .st7 {
        fill: #010101;
      }

      .st8 {
        fill: #1a2130;
      }

      .st9 {
        fill: #445b8e;
      }

      .st10 {
        fill: #06070b;
      }

      .st11 {
        fill: #455c8f;
      }

      .st12 {
        fill: #202a43;
      }

      .st13 {
        fill: #405585;
      }

      .st14 {
        fill: #020203;
      }

      .st15 {
        fill: #8ea3d7;
      }

      .st16 {
        fill: #7288ba;
      }

      .st17 {
        fill: #0c101a;
      }

      .st18 {
        fill: #465d90;
      }

      .st19 {
        fill: #191e2c;
      }

      .st20 {
        fill: #8499cc;
      }

      .st21 {
        fill: #384971;
      }

      .st22 {
        fill: #1a2236;
      }

      .st23 {
        fill: #374972;
      }

      .st24 {
        fill: #7e94c9;
      }

      .st25 {
        fill: #384a75;
      }

      .st26 {
        fill: #3f5383;
      }

      .st27 {
        fill: #6477a2;
      }

      .st28 {
        fill: #3b4f7c;
      }

      .st29 {
        fill: #384a74;
      }

      .st30 {
        fill: #6e82b4;
      }

      .st31 {
        fill: #8a9cd0;
      }

      .st32 {
        fill: #33436a;
      }

      .st33 {
        fill: #05070b;
      }

      .st34 {
        fill: #89a0d6;
      }

      .st35 {
        fill: #dce1ee;
      }

      .st36 {
        fill: #030406;
      }

      .st37 {
        fill: #010102;
      }

      .st38 {
        fill: #0d111b;
      }

      .st39 {
        fill: #4c5d87;
      }

      .st40 {
        fill: #1a2237;
      }

      .st41 {
        fill: #a2b4df;
      }

      .st42 {
        fill: #fefeff;
      }

      .st43 {
        fill: #000001;
      }

      .st44 {
        fill: #dce0e8;
      }

      .st45 {
        fill: #445a8d;
      }

      .st46 {
        fill: #4e5f8a;
      }

      .st47 {
        fill: #020304;
      }

      .st48 {
        fill: #f9fafc;
      }

      .st49 {
        fill: #040609;
      }

      .st50 {
        fill: #020204;
      }

      .st51 {
        fill: #43598b;
      }

      .st52 {
        fill: #0a0d15;
      }

      .st53 {
        fill: #869cd2;
      }

      .st54 {
        fill: #fcfdfe;
      }

      .st55 {
        fill: #3e5382;
      }

      .st56 {
        fill: #6075a5;
      }

      .st57 {
        fill: #889ed4;
      }

      .st58 {
        fill: #869dd3;
      }

      .st59 {
        fill: #fff;
      }

      .st60 {
        fill: #8da3d7;
      }

      .st61 {
        fill: #f1f3f8;
      }

      .st62 {
        fill: #090c12;
      }

      .st63 {
        fill: #2d2e31;
      }

      .st64 {
        fill: #314065;
      }

      .st65 {
        fill: #2e3c5f;
      }

      .st66 {
        fill: #455c90;
      }

      .st67 {
        fill: #3d4e74;
      }

      .st68 {
        fill: #465c90;
      }

      .st69 {
        fill: #07090d;
      }

      .st70 {
        fill: #040508;
      }

      .st71 {
        fill: #020305;
      }

      .st72 {
        fill: #06080c;
      }

      .st73 {
        fill: #889fd6;
      }

      .st74 {
        fill: #8aa0d6;
      }

      .st75 {
        fill: #364770;
      }

      .st76 {
        fill: #0a0e16;
      }

      .st77 {
        fill: #33446b;
      }

      .st78 {
        fill: #3c507d;
      }

      .st79 {
        fill: #3a4d79;
      }

      .st80 {
        fill: #070a10;
      }

      .st81 {
        fill: #fefefe;
      }

      .st82 {
        fill: #080b11;
      }

      .st83 {
        fill: #b7b9bd;
      }

      .st84 {
        fill: #4d5e88;
      }

      .st85 {
        fill: #f8f9fc;
      }

      .st86 {
        fill: #405586;
      }

      .st87 {
        fill: #6b7faf;
      }

      .st88 {
        fill: #7f93c3;
      }

      .st89 {
        fill: #ecedf1;
      }

      .st90 {
        fill: #090c13;
      }

      .st91 {
        fill: #192033;
      }

      .st92 {
        fill: #07080b;
      }

      .st93 {
        fill: #89a0d7;
      }

      .st94 {
        fill: #4a5a84;
      }

      .st95 {
        fill: #111624;
      }

      .st96 {
        fill: #010203;
      }

      .st97 {
        fill: #42598b;
      }

      .st98 {
        fill: #676768;
      }

      .st99 {
        fill: #4a5c85;
      }

      .st100 {
        fill: #8197cc;
      }

      .st101 {
        fill: #06080d;
      }

      .st102 {
        fill: #455b8f;
      }

      .st103 {
        fill: #07090c;
      }

      .st104 {
        fill: #b3c2e5;
      }

      .st105 {
        fill: #8ba0d3;
      }

      .st106 {
        fill: #6276a4;
      }

      .st107 {
        fill: #07090e;
      }

      .st108 {
        fill: #425889;
      }

      .st109 {
        fill: #687cac;
      }

      .st110 {
        fill: #feffff;
      }

      .st111 {
        fill: #010202;
      }

      .st112 {
        fill: #879dd4;
      }

      .st113 {
        fill: #070a0f;
      }

      .st114 {
        fill: #161922;
      }

      .st115 {
        fill: #3a4d78;
      }

      .st116 {
        fill: #b9c2d4;
      }

      .st117 {
        fill: #3e5281;
      }

      .st118 {
        fill: #505c79;
      }

      .st119 {
        fill: #fcfcfe;
      }

      .st120 {
        fill: #1b2438;
      }

      .st121 {
        fill: #bec2cc;
      }

      .st122 {
        fill: #1e2430;
      }
    </style>
  </defs>
  <rect class="st31" x=".5" y="1206" width="929.1" height="975.8"/>
  <g>
    <path class="st66" d="M930,0c.9,585.6.2,1403.8-.7,1989.6-.9,3-2.1,1.5-3-1.1v-154.9c0,0-35.9.6-35.9.6-10.1-2.6-9.1-11.1,0-14.9l35.6-3.1v-20.4c-54.1-2.3-108.9-2.4-164.5-.3-29.7-.4-59.3-.4-88.9,0l-5.9-1.1c-2.2-.4-2.5-1-1-1.8l3.4-2.2,26.7-4.1,42.9,1.1,4.8-1.1c2.6-2,5.3-3.3,8.2-3.9,58.2,2.6,116.3,3.3,174.5,1.5.7-5,.4-9.8-.9-14.4,0-1.1,1-2,2.8-2.7l-1.9-1.2c.5-7.8.5-15.5-.3-23.2l1.4-1.6c-1.3-.8-1.2-1.7-.8-2.9-4.5.5-6.5-.5-6.2-3,.5-1.8,2.5-2.7,6-2.5-.1-35.3-.2-70.4-.3-105.4l1.2-2.3-1.4-2.3c3.1-10.3-1.7-17-9.2-23.6-3-5.6-5-11.8-6.2-18.4-1.8-5.8-6-10-11.2-12.9-16-8.8-29.5-2.3-44.1,6.3-7.1-3.4-16.3-5.7-23.3-1.1h-2.6c-3,2.5-6.1,4.7-9.4,6.5-5.9-4.6-12.4-7.3-19.4-8.2l-2-2.1-1-2.1c9.6-18-6.2-29-21.7-34.5l-.2-2.6-2.2-1.4c-4.1-14.2-2.2-26.4,5.5-36.7,35.4,1.5,62.6-15.9,74.7-48.6,13,1.9,26.4-.5,33.8-12.2l2-1.1c.3-.8.9-1.5,2-2,.3-.8.8-1.4,1.6-1.6,11.8-2.2,16.9-13.7,17.3-24.9l2.4-1.4c3.2-.3,5.8-1.6,7.8-4.2,2-1,2.9,1,.9.7,6.3-18.4,0-25.2-17.5-31.2l-.4-2.6c5.8-16.3-4.3-36.5-23.1-35.5-2-.4-2.9-1.4-3.1-3.4,1-13.7-6.5-19.3-18.9-22.4.7-23.7-27-28.1-44.5-20.4-4.1-7.6-9.7-13.4-16.7-17.5-2-8.6-5.9-15.7-11.9-21.3l-.8-2.5c-2.6,0-5.2-1.1-7.7-3.2-6-2.5-12.3-2.7-19-.7l-2.1-1.8c-3.6,1-5-2.1-2-4l-.5-1.3c-1.8-.7-2.9-1.8-.8-2.7-2-1.6-3-3.3-3.1-5.1-.8-.3-.7-.7,0-1l1-2c-.9-.4-.8-.7,0-1,.9-.8.9-2.1,0-3-2.7-.1-2.6-1-.2-2l-.9-2c-.9-.1-.9-.5,0-1-.4-1.2-.9-2.2-1.9-3-2.9.5-3.2-.9-1-2.9l-2-2.1c-.9-.3-.9-.6,0-1-1.8-2.2-4.1-3.8-6.8-4.8-.3.9-.7.8-1,0l-2-1c-.3.9-.6.9-1,0-1.5-.5-1.8-1.8-1.2-3.1-.9-.3-.8-.7,0-1,1.2-4.4.9-10.5,0-15-.9-.3-.9-.6,0-1l8.8-9c-.9-.4-.8-.7,0-1,1.6-1.7,2.9-3.7,3.9-6-.8-.4-.8-.7,0-1l2.9-8c-2.6-.5-2.4-1.4.2-2,1.2-5.7,1.2-13.2,0-19-.9-.2-.9-.6,0-1,0-1.8-.4-3.4-1-5-.9-.1-.9-.5,0-1-.3-1.8-.9-3.5-1.9-5-3,.9-3.7-1.3-1-2.9l-2-2.1c-.9-.2-.9-.5,0-1-5-9.9-14.4-15.6-23.3-20.6l.4-1.4c-.9-.3-.8-.7,0-1l.9-2c-.9-.3-.9-.6,0-1l.9-2c-.9-.3-.9-.6,0-1l.9-2c-.9-.3-.8-.7,0-1,.6-1.1.9-2.5.9-4-1.8-.7-1.7-1.6.2-2,1-2.6,1-5.4,0-8-.9-.1-.9-.5,0-1l-1-2c-3.3,1.4-5-4.6-3-6.9-5.1-7.1-10.7-13.9-17.9-18.9-1.5,2.6-5.7,1.1-4.9-2l-2-.9c-.4.9-.7.9-1,0l-2-.9c-.4.9-.7.8-1,0l-3-.9c-.4.9-.7.8-1,0l-4-.9c-.3.9-.7.8-1,0,1-2.8,2.3-5.5,3.8-8.1-.9-.4-.9-.7,0-1,1-1.5,1.7-3.2,1.9-5-.9-.4-.8-.7,0-1,.6-1.5.7-3.2.2-5.1-1.6-2.1-2.3-5.1-2.1-8.8-2.2-6.7-7.2-11.5-15.3-14.3-.2-21.9-12.1-31.8-30.4-40.8,6.1-21.6-1-57.1-30.5-46.5-4,.6-6.5-.2-7.7-2.3-2.4,1.1-2.9.2-1.9-2.2-13.2-14.9-45.6-3.6-48.9,15.1,3,.5,4.9,9.2,3.6,11.3s-3.1,2.2-4.8.8c-.8,2.8-3.2,4.7-7.3,5.4-5.6-4.4-11.5-8.2-17.8-11.4-2-2.6-2.2-2.9-.4-5s-6.1-10-9.5-8.9l-1.7,2c-6.8.9-13.2,3.5-19.2,7.8-5.5-4.1-11.3-6.8-17.3-8.4-8.9-.1-17.2,2.5-25,7.9-2.6-.3-3.2-1.4-1.7-3.4l-2.3-.6c-4.6-11.7-21.6-22.7-33.2-14.8l-2.3-.6c-1.6,1.1-3.9.9-7-.6l-5.8.4c-12.2-12.9-29.7-8.9-41.1,2.8l-5.4,1.5c-14.4-12.6-44.2-4.7-44.9,16.2l-1.8,1.6c2.4,1,2.7,3.1,1.1,6.3-5.1,7.2-10.3,15.6-8,24.8,2.6.3,4.3,5.8,2.9,7.9.9.3.8.6,0,1,.9,2.9,2.3,5.6,4.2,8.1.9.2.9.6,0,1,3.5,5.7,8.1,10.6,13.8,14.8.4-.9.7-.8,1,0l3.1,2.1c.3-.9.6-.8.9.1,2,1,1.1,3-2.8,6l-2.1,3.1c3.1,4.8-.3,7.1-10.2,6.8-7.4.9-12.3,5.4-17.2,10.6-.9.3-12.4-2-12.5-4.3l-1,1.1c-14.3,3.3-30.9,7.6-32.8,24.6l-2.4,1.3c-.1.5-.3,1-.6,1.4-.8.9-9.5-4-11.1-5.2,0-1.3-1-2.1-3.2-2.4-.8,2.2-6.9,5.8-8.9,3.9l-2.9,1.2c-3.8-5.4-8.2-8.6-14.9-9.5,0-1.2-.7-2-2.3-2.4-.8,2.8-4.7,2.5-5.9-.1h-2.5c-2.3-4.5-5.6-7.7-9.8-9.5l-.6-2.3-1.7,1.6c-22.4-.2-49.4,13.9-45.3,40.1-16,11.2-22.5,24.5-15.1,43.3-1.9,5.8-3.3,11.7-4.3,17.7-.2,5.6.6,10.9,2.4,16,1.1-.7,2.6,1.8,2,3.1h2.5c7,6.5,17.1,10.3,26.6,8.4,2.6,1.6,2.2,4.4-1.1,8.3-.8,1.4-1.2,2.9-1.4,4.4,2.9.6,1.3,5.3-1.5,4.9-1,3.9-1,7.5,0,11,.9.2.9.5,0,1l1,3c.9.2.9.5,0,1,2.9,7.9,7.3,14.5,14.8,18.8.3-.8.7-.8,1,0l2,.9c.3-.9.7-.8,1,0,3.6,2.4,6.4,5.8,8.5,10.4l4.1,4.6-4.3,7.2c.9.3.8.7,0,1l-5.9,7c.8.4.8.7,0,1-3.3,2.6-5.1,5.6-5.4,9,0,2.7-6.5,10.5-8.6,10.9s-6.2-1.5-5.2-3.9c-2.4,1.5-3.4.7-3.1-2-1.1.8-2.5,1-4.3.4-11.2-5.5-30.1,1.4-34.6,13.3l-4.4,2.2c-21.6-1.2-27.4,20.3-28.6,37.8l2.4.9c2.5,8.8,8.7,15.1,18.6,18.7,1.9,1,2.7,2.3,2.4,4.4-7.6,20,6.3,34.3,23,42.6,4.3.6,5.7,2.2,4.3,5-6.8,7.1-5.4,15.2.3,22.5-9.3,8.8-17.1,16.3-23.9,27.4s8.7,24.7,17.3,28.9l1.6,2.3c-6.9,8.6-9.7,17.6-5.6,28.3l-1.3,2.3.7,2.1-38.9,38.2-3,.8c-23-21.9-45.7-44.2-68.2-66.9l-1.5-4.3L0,0h930Z"/>
    <path class="st65" d="M686.6,1008.7c1.4,1.2,2.1,3.5.9,5.1,0,.3,0,.7,0,1-.3,1.9-.9,3.5-1.9,5,0,.3,0,.7,0,1-1.6,2.7-2.8,5.4-3.8,8.1h1c1.5.1,2.8.4,4,1,.3,0,.7.1,1,0l3,.9c.3,0,.7,0,1,0l2,.9c.3,0,.7.1,1,0l2,.9c1.3,1.2,3.5,1.2,4.9,2,7.2,5,12.8,11.8,17.9,18.9,1.2,2.1,1.5,4.9,3,6.9l1,2c0,.3,0,.7,0,1,1.1,2.6,1.1,5.4,0,8,0,.6,0,1.5-.2,2,0,1.5-.3,2.9-.9,4v1c0,0-1,2-1,2,0,.3-.1.7,0,1l-.9,2c0,.3-.1.7,0,1l-.9,2v1s-.2,2.1-.2,2.1c9.5,3.9,18.1,10.6,23.1,19.9,0,.3,0,.7,0,1l2,2.1c.2.8.3,2.4,1,2.9,1.1,1.4,1.5,3.2,1.9,5,0,.3,0,.7,0,1,.6,1.5.9,3.2,1,5v1c1.2,6.1,1.3,12.9.1,19l-.2,2-2.9,8v1c-1.1,2.3-2.4,4.3-4,6-.2.2,0,.7,0,1l-8.8,9v1c.8,4.8,1,10.2,0,15v1c-.4,1.7-.3,2.2,1.1,3.1.3,0,.7.1,1,0l2,1h1c2.6,1,5,2.7,6.8,4.9.1.3,0,.7,0,1l2,2.1c.1,1,.5,2,1,2.9l1.9,3c0,.3,0,.7,0,1l.9,2,.2,2c.8.7.9,2.2,0,3,0,.3,0,.7,0,1l-1,2c0,.3,0,.8,0,1,0,1.8,1.1,3.5,3.1,5.1.3.9.3,1.9.8,2.7,0,.6-.4.5-.8,0-.2.8-.9,1.8-1.5,1.6-24.9-17.2-51.1.8-55.4,28,.5,4.8-.8,7.1-3.9,6.9-8.1-4-15.6-2.6-23.5,1.2-10.8-.2-12.6-8.7-14.1-17.5-4.9-13.6-18.4-24.4-33.2-22.8l-3.8-1.6c-8.9-12.1-20.1-20.8-34.7-24.7-4.5-16.2-15.9-20.9-31.5-18l-1.2,2.1c-6.6,2.2-12.2,6.4-16.9,12.6-3.6.9-10.7,2.3-12.8-.8-3.2.3-5.4-.3-6.7-2-16.8-12.7-45.1-4.7-60.3,10.3l-.8,3.3c-20.6,17.9-24.3,43.2-18.4,68.7l-1.2,5.7c-6.7,1.8-13.5,3.2-20.4,4.3-20.9,6.2-24.6,27.4-24.9,46.7-22.6,6.5-20.9,29.2-15.2,47.6,1.6,1.8,2.1,3.4,1.3,4.9.5.2.9.3,1.3.6,2,1.8-5.2,7.5-7.2,8.7-20.9,11.2-38.9,29.5-32.9,54.9-9.6,5.6-11.9,8.3-15.6,19.5-2.2,6.6-3.3,12-3.2,19s2.1,20.2,5.8,22.7,8.8-1.5,9.3-2.1c11-28.6,39.5-45.3,67.6-28.1,6.5-7.6,15.1-15.3,25.1-18.1,9.9-24.8,33.9-53,63.1-47.7,5-8.8,13-22.6,22.8-26.3s16-.4,22.5,4.3c6.7-7.8,14-15.1,21.7-21.9,2.8-.6,4.6-1.8,5.3-3.7-.8-1.8,0-2.7,1.8-3.3-10.6-8.2-27.7-2.8-32.6,9.4l-2.4.9c-2.3,5.6-16-2.1-11.8-6.9v-2.8c-13.3-10.2-31.7-5.5-41.3,7.4-14.8-2.8-25.5,1.8-37.5,10.4l-3.2-.2-1,1c-.3.9-.6.9-1,0-2.6.4-3.2-5.5-3.1-7.6.6-11.1,14-28.2,26-28.5,6.2-7.4,13.2-14.2,21-20.4l8.3-2.5c10.8-33.5,58.7-31.3,68.8,2.4,10.1,0,19.9,1.9,29.4,5-4-20.9-18.9-39.9-38.7-48.2-3.9-2.7-.2-8.4,1.9-11.6,15.4-23.4,44.1-29.1,66.7-12,8.2-12,31.7-12,42.3-3.8s11.3,18.4,8.7,27.8c-9.5,3.9-17.3,7.8-19.7,18.8,13.5-11.1,32.2-18.8,49.7-20,4.1-.3,7.9.5,11.7,2.2,13.5-20.2,34.5-29,56.4-14.7,4.4,3.4,9,5.6,13.8,6.6,17.8-4.5,34.4,3.2,40.6,20.8,23.2-8.9,51.1,8.7,50.8,34,16.9,3.9,28.2,15.7,28.7,33.5,4,3.8,7.3,8.1,10.1,13.1,5,1.9,23.3,10,18.5,17.7s-.7.4-1.4.5c-.1,1.2.2,3.2-1.2,4.2-2.3,1.7-4.9,1.5-7.6,2.3,2.2,11.4-11.4,29.2-20.3,25.6-.4,1-1.1,1.7-2,2,.2,1.6-.4,3-1.6,4.4-8.3,9.6-20.5,13.8-33.4,10.4-1.6,7-5.6,12.2-8.9,18-5,8.6-11.1,14.9-19.7,19.9-14.1,8.2-29.5,11.9-46.1,11-9.5,12.2-5.4,24-4,36.3-2,2.4-4.9,4.1-9,5l-7.3,4.1c8.5,3.4,14.2,11.5,16.7,20l2.8,21.1c2.6.2,5.4-1.6,8.3-5.4l8.4-5.9,2.9.4c8,0,15.3,3.1,21.6,8.6,1.5-1.4,9.8-7.8,9.2-4.8,1,2.4,0,5.1-3,7.9-9.3,9.3-14.6,19.6-12.1,33.3,10.8-1.1,21.5-1.2,32-.3,18.2-13.5,37.3-27.3,55.5-7.4,8.8,4.3,16.9,9.8,24.8,15.6l.9,2.9c.9,1.6,1.1,3.7,1.1,6l-.4,28.9c0,2.2.1,3.9.1,6.2l.2,68.8-8,.3-.7,2-66.5-.5c.5.8,1.2,1.7,2.1,2.7,23.8.6,47.5.4,70.9-.4l1.2,2c1.9,1.2,1,23.5.8,26.1-3.6,1.8-7.9,2.6-12.8,2.5-.5,0,10.1-1.8,10,.3.6,0,2-.1,3,.5.2,5.2.2,10.2-.2,15.9l-88.6,1.4-86.7-2.8c-4.5-.1-4.7,2-7.8,3.4-6.5,3-15.1,1.2-22.2,1.1s-16.7.2-25.1-.6-4.4.5-7.1,1.2c-8.3,1.9-16.8,2.7-24.9,3.2-.1.5-.3.9-.4.9-20,1.3-41.8,1.5-61.8,1.1-.2,0-.5-.4-.7-1-1.6.9-1.9,1.5-1,2,1.5-.5,3-1,4.5-1,19.6-.6,40.1-1.1,59-1.1.6,0,1.1.4,1.4.8,31.5-1.2,62.7-1.7,94.9-.8,25.1-1.2,48.8-2.5,74-1.9l92.6,2.2c.4,8.3.5,16,0,24.2l-36.3,3.1c-3.8.3-6.6,3.7-6.5,7.3,1.5,2.7,4.1,4,7.1,3.9,12-.4,23.6-.9,35.9-.7v157.5c.2.4.9.4,1.1.4.9,24.5.9,51.2,0,76,.9,2.4.8,6.5,0,9,.9,34.2.9,71.4,0,106-125.1.3-250.3.7-375.6,1h-6c-1.9,0-1.9-.7,0-1.2,0-1.8,1.1-2.4,3.2-1.8-1-9.1-.5-18.1,1.5-27,.4-8.9-.8-17.8-3.8-26.7-2-7-2.6-13.7-1.8-20.3l-.6-.8,6.8-33.6c4.1-15.3,15.5-31.6,28.2-41.2s40.6-14.5,60.2-11.2c2.4,5.6,5.8,6.2,11.4,6.6,15.5,11.4,35.5.2,36.1-18.5l6.6.6c6.8-.3,23.1-14.3,28.5-19,23.4-20.4,43.9-40.9,64.5-63.3l2-.2c1.4,2.6,2.1,5.6,2.3,9,11,25.5,22.5,50.5,34.5,75,12,2.6,30.6-7.4,37.2-17.5l-24.8-58c-4.3-9.1-9.2-18.3-18.2-23.5-1.5-5.7-2-11.6-1.5-17.5-2.7-4.3-3.8-8.9-3.4-13.6-3.5-2.5-6.3-5.8-8.3-9.8l-.8.6c-5,4.7-16.1,13.1-23.3,10.6s-.8-1.7-.8-2.7c.2-1.3,1.9-1.3,3.1-1l12.3-8.2c.8-13.6-19.7-6.6-20.6,2l-5.9,1-.4,1.2c-4.9,1.1-6.7,5.9-5.4,14.3-2.8,10.5-13.8,19.3-22.2,25.9-19.7,12.3-37.4,27-53.2,43.9-3.2,2.6-5.4,2.9-6.6.8l-1.4-.3c-2.6-10.7-7.4-13.1-17.6-7.6-4.5-1.6-9.3-1.7-14.5-.3-3.9-1-7.7-2.4-11.4-4.4-16.1-2.3-32-7-45-17-8.2-5.7-16.9-9.1-26.2-10.2-6.4-4.8-14-7.8-22.7-8.9-11.9-1.8-23.9-3.2-35.8-4.1l-33.9-15.1c.6-5-.4-8.8-3.2-13.3-.4-12.1-1.1-24.2-2.2-36.2l2.1-1.5c.3-.9.7-.9,1.1,0,2,1.1,2.8,4.2,1,5.8,1.7,1.1,3.4,1.4,5.2.9,1.9-1.8,3.8-3.3,5.7-4.7.1-.8.4-1.9.9-2,4.9-.5,12.4-.1,13.6,5.6,82.2-2.8,164.3-4.7,246.3-5.8,10.3.3,20.6.6,30.8,1.1l.6-.9c12.5-.2,24.9-.6,37.3-1.1,9-1.6,18.4-2.2,28.1-1.9l.6-2,34.8-2.1c0-2.3-.3-4.4-1-6.4l-36.9,2.9c2.1,6.1.5,8.2-4.6,6.4,0,.6-.2,1-.4,1-7.7.9-15.9,1.1-23.6,1-16.3,2.4-32.9,2.8-49.9,1.2-.1.6-.3,1.1-.4,1.1-4.5.2-10.2-.1-14.8-.4-31.8-3-63.2-5.6-95.8-6.4-54.8-1.3-109.4.9-163.4,5.4l-1.3-1.9c-.9-.3-2.1-.9-2.1-1.7,1.1-6.8.1-12.9-2.8-18.2-1.4-.4-2.6-.9-3.7-1.6l-1.8-18.6c-2.2-25.2-26.5-46.8-51.4-37l-1.2-.8c-1-1.2-.8-1.4.5-1.7s-9.1.3-10.3,2.7c-1.2,2.2-3.6,3.6-7,4.3l-8.5,5.1c-2,2.6-4.1,3.8-6.4,3.4-1.9,2.4-5.8.6-8.5-.7-10.7-.8-21.4-.9-32.2-.3s-.9.2-.8,1.1c.6.8,1.1,1.8.6,2.4-1.5,1.7-11.6,3.6-14.5,4-42.5-.3-85,0-127.6,1.2,2.4,5,2.4,8.6,0,10.8-44.6.4-89.5,2.1-134.7,5-3.6,1.8-33.2.7-35-5.5s9.8-15.6,14.4-13.8c9.3-.1,18.5-.9,27.6-2.4-23.9.7-47.9,2.2-72.1,4.5-3.7.7-6.7,0-9.1-2.1v-48c1.1-.9,2.2-1.7,3.4-2.4s2.3-1.4,3.6-1.7c23.8-7,46.5-13.3,70.1-19.2,17.3-1,34.4-.6,51.4,1.3,14.4-.9,28.6-3.4,42.8-7.6,6.4,0,11.9,3,16.7,8.6,5.3,1.5,11.1,1.1,17.5-1.2,23.5-10,51.6-7.4,73.6,5.5,4.8.5,8.5,2.5,11.1,5.8,4.8-3.1,9.4-6.6,13.7-10.6-2.4-.7-4.5-1.7-6.5-3.1-2.2-6.3-4.7-7.3-11-8.7-4.4-1-8.9-1.5-13.4-2-18.5-1.9-36.7-.8-55,.6-7.5-1.6-14.8-4.5-21.9-8.8-1.1-1.9-1.8-4.1-1.9-6.5-23-6-45.5-5-67.1,4.2-3.2,2.3-12.7-1.6-11.1-5s15.2-12,20.4-14.9c18-9.8,45.8-10.2,65.3-4.9s9.4,2.6,11,8.3c26-3.1,53.5-4.2,78.9,1.6,2.3-6.5,5.9-11.9,10.9-16.4-4.3-.8-23.2-8.2-24.5-10.7s-.7-3.8.6-5.5c8-10,23.1-20.9,35-25.7,11.6-3.1,23.1-6.4,34.5-9.8,18.1-11.6,38.1-16.1,59.7-13.2.2,0,2.4-3.2,2.4-3.6.3-1.4-25.9-3.9-28.2-2.5-10.2,4.6-19.8,4.6-28.9-.1-17.7-10.8-34.4-18.6-55.4-19.3s-17.7,3.9-23.9,6.8c3.9,2.7,3.4,20,1.9,23.2s-2.1,2.2-4.5,1.2c-6.4-3.5-13-6.7-19.8-9.5-9.8-5.4-18.8-6-27.1-1.8l-2.3-.6-2.5.6c-6.8-3.5-17.4-10.4-16.5-18.4,1.5-15.1,13.1-20.8,26.8-21.5-4.8-14.2-14.5-23.9-29.9-17-5.4-.6-10.8-.8-16.2-.4-12.1-2.3-27-7.5-34.4-17.9-8.5-3-16.6-6.6-24.5-10.8-3.4-6.1-7-12-11-17.7l.3-2.8c-3.7-10.3,2.7-27.8,14.6-32.2-1.9-2.6-4.2-5.1-6.9-7.4-6.2,3.1-8.1.7-7-5.7,1.9-10.5,13.6-25.3,23.2-30.2s10.9-5.6,17.9-.8c3.5-.8,6.9-1.1,10.2-.9.8,3,3.5,3.9,8,2.5,3-20.8,20.4-45.9,43.9-41.5l3.1-.8c5.4-20.1,26.9-25.4,45.4-23.5l-2.9-3.7c-9.3-1-13.2-14.3-13.9-22.5-2.4-27.9,13.9-40.2,38.6-48.4-1.7-4.7-6-5.5-12.9-2.6l-13.4,4.7c-6.4,2-6.2-4.4-5.5-8.9,2.1-14.4,18.1-35.8,28.2-46.5,14.5-15.4,24.1-16.2,44-14.7,9.8.3,11.7-1.9,5.9-6.6-.8-2.5-.5-3.4,1.8-4.7,8.9-4.9,28.4-4.8,38.7-4.2l-4-2.9c-15.4-3.7-31.3-5.8-47.7-6.5-3.2-3.5-6.7-5.8-10.6-7.1-9-1-30.2,1.4-37.9,5.4s-15.5,10.6-21.2,18.8c-15.8,13.7-22.4,34-28.4,53.7-5.1,1.8-22.4,4.8-24.9-.8,1.1-5.2,2-10.3,2.7-15.5-9-.6-22,5.5-29.3,10.5l-4.9-.8c-1.8,2.3-6.4,1.2-6.9-1.9l-1.4-1c.8-3.1,2.6-5.8,5.4-8.1.1-.3,0-.8,0-1l5.9-7v-1c0,0,4.5-7.1,4.5-7.1-.2-1-10.6-14.3-12.6-15.1h-1c0,0-2-1-2-1-.3,0-.7,0-1,0-7.4-4.2-11.9-10.9-14.8-18.8,0-.3,0-.7,0-1l-1-3c0-.3,0-.7,0-1-1-3.5-1-7.2,0-11l1.5-4.9.4-1,.9-1.1c.3-3,1.7-6,4.4-9.3.7-10.8,5.7-24.2,11.1-33.7,6.3-11.1,14.2-23.6,21.3-34.3s36.9-21,48.2-5.7c7-2.1,12.1-1,15.2,3.3l-1.1,2.6-.3,2.4c-4.7,2.7-8.3,7.1-9.5,12.4l-2.2,1c5.5,1.2,5.4,2.2-.2,3.1l-1.5,2.4c-12.6,3-20.3,10.9-24,23l-2.4,1.8c.6,2.2,8.1-.2,9.5-1,12.7-12.9,34.6-22.5,52.5-17.7,1.5-3,2.7-6.3,3.7-9.7l2.3-.6c0-1.4,1-2.2,2.8-2.6l-4.7-2.7c-3.8-.5-6.4-1.7-8-3.7-2.3-.8-2.5-1-1.1-2.8-1.1-6,3.3-15.8,6.2-21.4,9.7-19.1,23.3-37.8,44.5-43.8,3-.7,9.5-15.8,9.4-16.8-.9,0-1.5-.7-1.8-2,.3-2.3,1.7-4.6,4.3-6.6l-.5-2.5c-.3,0-.6-.2-.9-.1l-3.1-2.1c-.3-.1-.7,0-1,0-5.7-4.2-10.3-9.1-13.8-14.8v-1c-2-2.5-3.4-5.2-4.3-8.1,0-.3,0-.7,0-1-.2-2.9.4-4.9,2-5.9,1.6-15.5,15.8-27.3,29.5-32.6,4.8-4.2,7.3-5.8,13.8-6,15.2-.6,34.1,9.8,46.4,18.2,7,.6,14.3-1.3,21.8-5.5,18-5.8,23.6-1.5,32.7,14.9,4.1,7.2,7.9,17.2.6,23.6.4,4,3,5.1,8,3.4,8.7,0,17.1,1.6,25.4,4.8,4.3-.2,8.7-1.2,13-3.1l-10.3-3c-7.2-2.7,2.4-12.9,6.9-14.1,12.9-3.4,31.3-6.4,42.4,1.9,4.7,2.8,9.2,5.9,13.4,9.3,3,.8,15.4-.7,16.8-5.1-9.3,2.4-22.7,1.1-11.1-10.6,9.2-9.3,22.4-6.8,33.8-4.6,27.9-5.8,47,18.4,57,41.4,9.6,2.6,18.8,8.7,23.5,17.7l15.8,7.4c2.1,1,3.3,2.3,3.2,4.7Z"/>
    <path class="st65" d="M198.1,1982.8c2.4-2.1,10.1,0,11.8,2.6h.8c-.7-3.1-.2-4.7,1.4-4.8l3.7.9c2,1.6,3.7,2.6,5.3,3,1.5.1,2.4,1.3,2.7,3.6l1.2-.5,1.5-1.3s4.2,1.1,12.6,3.2c0-1.8.3-3.1,1-4,3-1.2,3.2,1.3,3.1,3.9,15.1-2.1,35.4,3,48.1,11.3s2.1,1.8,2.6,3.6c3.9,2,7.8,3.3,11.6,4l-13.2-15.6c-2-4.4-.5-8.8,4.2-10.3,27.2,19.3,54,47,73.7,73.8,3.7,5,20.7,29.7,18.4,34.3s-7.2,3.4-10,.9l-13.4-18,25.8,47.9c.9,4.5-3.5,5.5-6.8,4.1-1.1-.6-2.2-1.2-3.2-1.9s-2-1.5-2.7-2.4c-10.5-13.9-20.6-29.4-27.2-45.4-.5,0-.9-.1-1.1-.4-2.5-2.6-.8-2.8.2.4s0,.7-.4,1.1c3.9,5.7,7.6,11.7,10.8,17.9,13.7,20.8,27.4,41.1,42.2,60,3.9.9,9,9.9,3.1,11.7-8.9,2.8-34.3-10.1-38.3-19.6-8-14.7-15.1-29.8-21.2-45.1v22.3c.2,5.8-3.3,6.6-10.4,2.6l-1.4-4.2c2.4-19.7-.5-39.6-6-58.5l.4-2.3c.2-1.3-.2-2.3-1.2-3-1.2.8-1.5-1.7-1.5-1.5,13.9,37.6,9.6,73.8-4.3,110.5,0,3.6,1.2,6.9,3.7,10l-.8,2.7c-106.1,1.1-218.1,1-324.5.2v-103c0-.8.4-2,.9-2,8.6-.3,19.8.3,28.4.9s.5.6.7,1.3c27.7.2,55.4.5,83.1,2l.8.9c2.6-.6,3.3-.9,2-1l-61.1-2-.8-1c-17.6.3-35.3,0-52.9-1l-1.1-2v-97c.9-1.3.9-2.3,0-3v-53c4.7-2.1,10.1-2.8,16.1-2.2,24.1-2.7,48.1-5.7,71.8-9.1l1.1-1.6c-29.6.4-58.9,1.5-88,3.1l-1-2.2v-37l1.1-2.2c8.2-.5,11.6-3,15.9-9.8l-15.4,1-1.6-1.9v-20l4.1-2c20.2-3.8,39.8-6.5,58.8-8.1,2.4-1.9,4.4,5.5,3.2,6-7.1,3.1-5.9,7.5-3,13.5,6.9,14,15.4,22.2,29.9,28.9,10.5,7.3,19.6,16.4,27.4,27.2,17.2,24,34.6,47,55,68.7,4.8,5.1,13,9.2,20,7.6.4,3.6,1.1,4.4,2.2,2.4Z"/>
    <path class="st93" d="M.3,1726.7v-44l2.4-2.6c12.3-3.5,23.9-8.8,34.8-16,1.2-.8,2.5-.2,3.6.7.8.4,1.7,1.2,1.4,1.9-1.1,1.2-7,17.2-5.3,17.3s3.4-3.7,4.1-4.5c9.9-16.2,13.9-21.4,34.6-18.3,6.3.9,12.5,3,18.5,5.1,3,2.2,6.3,1.5,9.9-2,3-8.3,7.9-14.9,14.8-19.8-5.9-3.8-14.4-3.8-18.7,2.3l-2.4-.2c-5.2-.2-10.4-1-15.7-2.5-2.7.8-5.3,1-7.7.7,0-2.1.3-4.1.7-6.1-.8-2.6,1.2-2.9,3.5-3.2,6.5.8,11.1-1.5,16.4-4.9l29.4-.9,1.5,2c2,0,8-2.1,8.6-3.2,0-8.7,2.5-15.9,7.6-21.5l17-4.1c1.6.1,3,1.1,4.1,2.9,5.8-2.1,10.7-5.6,14.9-10.4,7.9-2.9,16.4-4.1,25.6-3.5,2-.8,3,.6,3.8,2.3,3.5-.4,7-.3,10.4.2-.2-2.5.3-5.1,1.7-8,1.4-2.5,2.2-5,2.5-7.6,8.7-9.2,25.8-1.6,35.8,3.1s11,4.1,16,8.2c.7-7,.8-12.7.7-19.2s-2.4-3-3.2-4.9c1.9-4.1,22.6-8.5,25.5-8.6,7-.2,13.7,2.5,20.6,2.9,14.7.8,32.6,17.9,48.1,20.5,8.1-.5,16.2-5.8,24.9-4.4s19.7.7,23,4.9c-1.7,1.3-3,2.7-4.1,5.8-12-2.1-23.6-.6-35.4,1.4-10.1,1.7-17.1,8.5-25.9,11.8-14.6,5.5-30.7,6.1-44.3,14.5-8.9,5.5-15.9,13.2-23.6,20s-1.1,3.3.1,3.8c7,2.9,13.5,6.7,20.7,9s5.1-2.2,7.6-.4c-14.9,12-11.4,14.1-15.4,20.1s-5.2-.3-7.4-.6c-24.9-3.3-49.6-3.5-74.7.2-.8-4-2.5-6.2-5.9-7.4-15.9-5.4-45.6-6.3-61.4.4s-18.4,9.8-26.5,16.7c2.5,3.3,5.9,3.7,9.1,2.7l18-5.9c14-4.6,36.7-1.2,51.3,1.4l1.3,7.2c7.1,1.5,13.6,8.6,20.8,8.2l24-1.5c6.6-.4,52.1-.3,55.2,8.3s.5,3.9,3.7,5.1,6.1,2.2,10.5,1.3c-1.3,2.9-4.2,2.3-6.3,3.7-5.8,3.9-13.8,14.4-16.7,9.7s-7.6-3.2-11-5.2c-11.8-7-23.6-10.1-37.4-10.6-8.3-.3-15.6-1-23.5,2.3s-16,4.8-24.4,5.7-9.5-13.1-24.8-9c-13.2,3.5-26.4,7.7-40.2,6.8l-32-2.1c-9.3-.6-18.1.5-27.1,3l-33.7,9.4c-11.7,3.3-22.9,6.4-34.1,9.7Z"/>
    <path class="st11" d="M111.2,1468.9c2.4-.6,3.6,1.6,3.1,3.8,13.9,17.2,6.5,17.6,17.9,22.2l17.6,7.1c3.7,1.5,4.7,7.2,9.4,9.1l18,7.6c4.9,2.1,9.1.9,14,.9s8.2,1.8,12.6-.1c14.9-6.3,24.8,8.5,29.1,21.5-11.2,1.6-23.2,1.5-26.5,16.1s-2.7,6.3-.5,9.1c4.5,5.4,11.4,8.4,16.3,12.5l2.6,2.2c-3.1,4.2-4.3,9.1-5.8,14.7-4,.2-8,.4-12,.2-1.1-.9-2.7-3-3.1-4.1l-2.4-.3c-6-9.6-19.7-6.4-28.6-3.2l-1.8-1.4-1.9-1.1c-.5-9.1-4.2-15.7-11-19.6,7.4-20.9-3-35.6-23.8-39.2-7.3.8-10.3-.9-9.2-5.1-.9-.1-.9-.4,0-.9l-1.1-1.2c-10.2-7.4-22.4-15.9-34.6-7.8l-1.2,2.6c-10.9,5.5-18.8,14.8-23.6,27.7-.9,1.1-2,.6-3.2-.4-1.1,1.1-2.6,1.8-4.1,2.1-.2,2.4-5.4,7-7.8,5.9l-2.7,9.1c-3.9,3-8,6-12.2,8.8l.7,3c-5.1,10.5-5,22.7,0,33.2l-.8,2.9,11.5,10.2c-1.1,15.8,7.5,25.7,23.3,26,1-1.4,1.8-1.7,3.1-.9-.1-2.7.3-4.9,3.1-3.3-.1,1.5-.3,3,.1,4.8,2.6,0,4.9-1.7,7.4-1.2l13.2,2.6c1.2.2,2.1,1,2,1.8l1.2,1.9c0,1.9-2.7,14.1-6.1,11.8-18.1-8.7-34.4-6-49.8,5.7l-2.3-1.2c-4.2,1.4-7.7,3.6-11.7,6.2-9,5.9-19,9.3-29.1,11.7v-243.9l70.4,69.8,40.4-39.7Z"/>
    <path class="st66" d="M350.7,1770.6c-.4-.4-.7-.7-.6-.7,1.6-1.4,19.5-.8,22.6-.5s.8,1-.7,1.4l-.8,2c-8.4,5.2-17.4,8.6-27.1,10.1-19.3,1.7-38.6,3.7-58,6.1,15.7-.1,31.3.3,47,1.3l7.2,2.4c8.7-2,36-2.7,42.4,2.2s1.2,1.7,1.4,2.7c1,2.9,1.3,8-2.9,8-16.5-.5-32.4,1.4-47.6,5.5-4.8,0-6-3.2-7.1-7.2-53-4.1-109.6.4-159.4,20-13.9,1.6-27.7,2.8-41.7,3.5-1.6-1.2-3.2-2.5-4.6-3.7-4.5-1.7-3.1-5-.3-8.7,0-6.3-13.3-16.2-18.7-17.5-2,1-3.9,2.1-5.6,3.4-.8,2.2-2,5-4.4,5.3-.7,2.3-2.4.4-3.1-1.4-1.4-.7-2.8-1.1-4.3-1.2-3.8,3.7-7.8,7.5-11.9,11.4,0,3.2-.9,4.7-2.9,4.7-3.5,2.7-5,5.1-6.1,8.9,0,.5.3,1.1,0,1.6s-1,.8-1.9.9c-20.8,1.8-40.9,4.2-61,7.7v-64c14.4.8,28.9-2,43.9-2.8,7.8-.4,15.2-.3,23-1.2s24.1-.7,25,.3-1.2,1.7-1.6,1.5c-3.1-1.5-7.5,1.6-10.4,2.3-10.2,2.3-20.6,0-30.2,2.8-3.6,2.1-5.7,6.7-9.2,10.5,5.1,1.4,10.1,4.4,15.4,4.4,22.3,0,43.7-3,66.1-3.5l87.5-2.1-3.5-10.7,27.4-.9c11.3-.4,21.2-.3,32.4-.4h70.5c.9,0,14.6-2.8,14.1-4.4Z"/>
    <path class="st66" d="M.3,1920.6v-12c2.8.6,5.7.2,9.1,0,30.3-1.6,60-3.6,90-3-4,2-7.9,1.5-10.3,5.4l-58.2,8.2c-10.4,1.5-20.6,1.6-30.6,1.5Z"/>
    <path class="st65" d="M349,2180.6c-.3.9-2.3.7-3,0-4.9.3-9.9.6-15,1h-1c-.9-.3-.9-.6,0-1.1-4.8-2.3-8.2-7.8-7.7-13.6s2-7.2,4.8-6.3c1.9-.6,3.6.8,5.3,4.3,4.3,2.2,9.7,2.8,16.2,1.8,10.3-1.1,56.9-4.7,62.3,2.9s-3.5,7-7.7,7.7c-18.1.7-36.1,1.8-54.2,3.4Z"/>
    <path class="st118" d="M929.3,2180.6c.7.3.6.6,0,1h-375.6c0-.8.7-1,2.2-1h373.4Z"/>
    <path class="st118" d="M324.9,2180.4c1.7.2,1.8.6.1,1.2H.3v-1l324.5-.2Z"/>
    <path class="st11" d="M.3,1871.6v-13l21.9-1.7c-12.3,13.6-5.3,11.7-21.9,14.7Z"/>
    <path class="st27" d="M349,2180.6l11.2-1.4c58.5-.8,116.9-1,175.2-.8l1.2,2c1.7.2,1.8.6.1,1.2h-190.8c-.9-.3-.9-.6,0-1h3Z"/>
    <path class="st45" d="M54.3,2076.6l-1,1.2s-7.6,0-22.9,0l-30-.2v-4l38.1,2.2c5.5.3,10.7,1.5,15.9.8Z"/>
    <path class="st13" d="M.3,1976.6v-3l19.4-1.6c4.9-.4,9.6-.8,14.7,0l-34,4.5Z"/>
    <path class="st118" d="M346,2180.6v1h-15c0-.8.9-1,1.9-1h13Z"/>
    <path class="st118" d="M547.8,2180.4v1.2h-11.1v-1.2c1.8-3,9-2.7,11.1,0Z"/>
    <path class="st63" d="M329.9,2180.4v1.1c0,0-4.9,0-4.9,0v-1.2c.8-2.9,3.7-2.5,4.9,0Z"/>
    <path class="st93" d="M752.4,1228.6l1.3,1.3c.1,1.5.6,3.2,2,4-1.4,2-2.7,4.2-3.9,6.6-1.7,8.6-.5,11.2,3.5,7.9,5.4-7.9,11.2-15.7,20.7-7.4,3.3-2,6.2-2.5,8.5-1.3,6.5,1.7,12.7,15.2,14.1,22.6,7.4,3.3,12.4,9.4,15.8,17.2,9.4-5.4,18.6-4.9,28.3-2,12,3.6,17.6,10.3,17,22.9,6.7.9,13.6,3.9,17.1,9.9s2,9.7,2.6,14.8c6,1.2,13,.7,17.7,5.3s8.4,12,10,18.7-1.3,9.9-1.8,15.4c6,2.1,12.8,4.1,17.3,9.2s3.1,18.7-.7,24.4l-1.4-2.2c.5-4.4-1.9-8.4-5.7-10.3l-12.7-6.3c-3.6-4.3-5.7-9.9-10.5-13.6l-2.3-11.6c-2.3-11.5-14.9-18-26.2-21.9-.9-9.5-3.6-18.9-11-24.9-14.5-11.7-21.7-12.6-39.4-8-3.1-5.9-5.5-11.9-10.6-15.9-7.5-6-17.4-7.5-26.6-5.5s-6.9-.2-10.3-2.5c-6.1-4.2-13.4-7.1-20.2-9.7-9.7-3.5-18.6-.5-26.3,5.3s-11.4,8.9-15.1,16.1c-5.3-3.3-10.6-3.7-16.3-2.4-28.2,6.5-23.3,4.2-49.3,22.4,1.7-8.1,5.7-17.9,13.2-21.2l9.2-4.1c-.9-14.2-2-21.4-14-27.6s-6.5-1.9-10.7-1.8c-13.2.2-13.1-2.7-25.4,9.7-17.1-13.5-40.1-15.4-56.6,1-3.8,3.8-7.7,6.6-10,12.1-.7,1.7-3.8,4.8-1.1,6.2l9.5,5.1,8.3,5.7c4.4,3.1,25.6,31.9,21.2,41.9-10.7-4-21.1-6.7-32.4-5.3-.7-5.9-4.3-9.5-7.2-14-12.6-19.6-40-13.3-50.1-4.6-4.6,4-5.4,10.4-8.8,15.1l-8.4,2.7-8.4,7.8c-4.4,4.1-9.8,6.8-11.6,13.1-14.3-1.9-26.7,21.4-26,26.2l1.1,7.8-.5,2.9c-15.3,9-16.9,23-17.9,39.3-.6,2-2.1,2.1-4,1.7-4.5-2.4-9.5-4.6-14-1.1-6,4.7-10.3,24.6-8,31.3s1.8.2,2.2,0c2-5.3,4-10.7,6.4-15.8,4.4-9.3,5.9-11.2,16.3-11.3,2.9-3.1,6.2-5.4,9.9-7.1,6.1-23.3,27.6-41.1,51.4-43.4,6,.5,11.1-2.4,15.3-8.9,7.7-3.1,16.1-4.6,25.1-4.6l1.9,1.3c1.8,5.3,6.4,7.4,11.8,6.9,1.6,1.8,2.3,4.2,2.4,7.2,5.1-2.1,9.4-5.4,12.9-9.9,4.8-2.7,10.1-4.6,16-5.6l1.9,1.3c.4.6,1.2.9,1.6,1.8-16.2,8.6-15.7,15.6-28.7,26.4-8.3-7.6-19.9-8.7-27.8-1.4-4.9,4.6-14,16.5-16.2,23.1-6.2-2.2-11.9-2.4-17.9,0-26.4,10.8-32.5,22.1-45.1,46.7-10.8,3.3-17.2,10.3-26.1,18.5-18.8-10.1-38.3-9.1-53.7,6.9s-8.3,14.1-12.8,20.9c-3.2,2.2-8.1,2-12.1,3.1-1.8-5-4.8-9.2-5.5-14.5-2.5-17.7,0-26.1,7-41.2s7.3-5.9,11.1-8.4c-1.4-8-2.5-15.9.8-23.4,5-11.5,13.7-21.1,24.4-27.7,4.1-2.5,15.1-8.4,15.2-12.7.6-1.1,1.5-2,3-2.7-7.2-18.2-.9-40.9,19.4-45.7,4.3-.9,3.2-2.5-3.4-4.7-2.1-3.9.8-11.4,2.6-15.8,4.4-10.9,10.2-18.6,21.1-23,7.7-1.7,15.1-4.4,22.1-8.2,2.4-10.8,3.2-21.8,2.2-33,2.4-25.2,26.5-56.8,53.9-54.8,5,.4,15.8,1.2,13.8,7.2-3.5,3.5-5.5,7.5-6.1,12,11.4-9.7,20.9-14.1,36.1-13.7,7.1-.8,8.1-2.4,3.1-4.7-.3-.4-.6-.9-.7-1.3-1.4-8.7,22.4-7.1,27.4-5.4,1.1,0,2.2-.5,3.1-1.2,1.6-1.1-14.7-7.6-18.1-6.5l-2-2c4.2-.7,9.1-3,14-2.4,9.6,1.2,16.6,9.7,18.6,19.1,14.2,3.2,25.3,11.7,33.6,23.2s8.8,1.9,12.6,2.7c10,2.1,17.8,9.1,23.3,17.2s4.2,12.3,5.5,18.1c1.6,2,7.3,5.9,9.9,4.7,18.7-8.8,22.7,1.6,25.8-1.7-1.7,1.8-.6-14.4,6.5-23s9.6-11.3,15.6-14.9c16-9.4,33.1,3.3,36.3,4Z"/>
    <path class="st93" d="M114.3,1472.7c-1-1.3-2.5-2-3.1-3.8-4.1-10.6-4.1-22,5.5-30.6-10.7-5.2-25.9-20-19.2-32.1s14.4-19.1,24.2-26.7c-8.6-6.7-5.9-19,.7-24.4-6.2-.4-9.4-3.8-13.8-6.6-9.5-6.1-17.2-15.6-17.1-27.5s2-8.6,2.3-13c-15.1-8.8-17.1-7.4-21.6-22.2,0-11.4,11.3-30.8,22.5-34.4s6.9.1,8,4.5c2.8-1.8,5.1-4.6,6.8-8.5,10.4-12.4,20.5-15.8,34.5-15.4,1.4.4,2,1.2,3.1,2,.9,1.5.6,3.3-.9,5.5,0,2.3-.7,3.7-2.2,4.4l-1.8,1.9c-13.3.1-26.4,12.9-25.3,26.5-3.5,8.3-6.3,16.8-8.6,25.4-.2,9.1,6,11.8,18.8,8l3.5.6c-3-5.2-5.1-10.6-6.6-16.3,3.2-12.3,15.6-28.1,28.8-30.6-.2-4,1.9-7.4,6.1-10.1l-1.5-2.4c-2.8-.9-4.9-2.1-6.3-3.8-1.4-5.3,6.3-8.7,11-9.2,4,1,7.6.9,11-.3-2.9-1.2-4.3-2.8-4.2-4.7,1.9.5,3.4-.6,5.1-1.8,9.5-6.5,20.2-9.5,31.8-10.1-.2,2.9-3.5,17.5-3.7,17.2,2,3.3,16.9.8,21.9.2,3.1-13.7,8.6-26.5,15.4-38.8s6.9-8.9,11.1-13.1,7.7-10.7,13.3-14.6c6.9-4.8,14.6-10.2,23.2-10.8l23.8-1.5c6.6-.4,9.9,4.4,13.4,7.3,10.8,1.1,21.6,1,32.4,3.4,3.1.7,20.1.5,21.9,10.2-15.1-2.3-29.1-.2-42.8,4.1,1.3,3,3.6,4.2,4.6,6.7s-1.2,2.7-2.7,3.1c-20.9,5-32.8-9.2-55.3,20.1l-13.8,18c-4.1,5.3-13,23.2-9.3,30.3,8.6-3.3,17.2-7,26.5-7.3,2.7,1.2,4.5,5,6,7.1l-10.9,4.2c-9.3,3.6-18.3,9.2-24.1,17.6-4.3,6.1-4.2,14.3-4.7,21.5s1.9,14.6,5.9,21,4.9-2.3,12.2,10.8c-6.3,1.7-11.9-.2-18,.4-9.3,1-17.5,5.7-24.1,11.8s-2.8,8.2-4.8,10.8c-4.3,4-11.1,0-16,1.5s-13.3,6.4-17.1,11.2-1.9,2.6-3.4,4c-6.7,6.9-8.4,16.9-11.1,25.9-3.3,1.3-6.8,1.3-9.9,1.4-.2-1.6.2-2.8-.3-3.8-4.1,0-8,2.6-11.1.9l-5.3-2.9c-16.9,5.3-23.2,13.4-30.6,29s-2.2,5.9-1.4,9l5.4-2.2,9.7,9.5c-5.3,6-11.1,3.3-14.2,15.3s-3.6,8.2-3,12.8,1.1,3.8-.6,4.4Z"/>
    <path class="st93" d="M449.8,907c0,1.9-.7,4-2.5,6.4,13.3-8.6,25.8-12,40.2-3,4.2,1.2,8.4.3,12.6-2.5,6.5-2.3,13.3-1.9,20.4,1.2-1.4-2.2-3.3-4.1-5.8-5.7v-2.5c2.1,0,4.4-.7,6.5.9,3.5,2.5,2.7,11,5.2,12,6.3,2.5,11,6.3,16.1,10.8,2.6-1.6,4.7-2.9,7-3.7l2,.9c-.7,3,2.8.9,4.5-.3,4.5-20.3,18.4-27,37.9-24.1l2.9-.6c1.7-1.3,3.2-1.6,4.6-.9l8.4.3c11.1-5,21.4-1.2,27.6,8.8s7,13.3,6.1,21.8-.1,11.4-2.4,17.1c20.3,9.6,29.3,16.5,30.4,40.5,12.7,5,17.4,10.8,15.9,24.1-.3.8-.7.8-1.1,0-5.9-4.7-12.7-7.7-20.2-10.6-5-9.1-13.5-14.6-23.4-17.7l-7.8-14.8c-4.2-8-12.1-14-18.8-20.3-8-7.6-18.6-6.2-28.7-5.8s-26.3-9.3-37.7,10.3c8.8,5.7,16.2-2.6,22.4,1-18.1,8.1.7,7.4-25.1,8.9-4.4-3.5-20.2-14.4-24.8-14.4-10.9,0-21.6,1.3-32.2,3.7-2.3,3.1-4.8,5.3-6.9,8.9,5.1,2,10,3.1,15.6,4.2-.3,3.9-4.5,3.4-7.2,4.6-4.7,2.2-8.8,2.9-13.8.9-9.2-3.7-18.9-4.8-28.5-2.7-1.4-2.6-2-4.6-3-7.4,5.9-3.4,5.4-9,3.3-14.4s-5.8-12.8-10.8-18.1c-4-4.3-8-6.8-14.4-5.4s-14.5,4.7-22,7.8-8.2,1.4-10.3-.4c-4.9-4.4-9.8-6.1-15.4-8.9-10.5-5.2-21.8-10-34-8.3-3.5.5-5.9,4.6-9.1,5.8-14.8,5.3-24.1,16.6-29.6,30.5l-2.1-1.7c-.3-10.7,4.9-19.4,15.5-26.1,1-1.2-2.4-.3-3.2.2-7.6,4.3-13.5,15.2-13.2,23.9l-1.9,1.7c-5.4-12.9,8.5-23,6.9-31.1l2.2-1.3c6.3-14.4,28-23.6,42.3-16.5,5.8.5,11.3-1.4,16.6-5.7,8.5-4,20.1-5.3,28,.3-1.1,3.2-2.1,5.9-3,8,8.8-5.7,13.8-5.1,22.9-1.2-2.2-1.8-3.2-3.5-3-5.4,10.6-11,34,1.7,37.8,16Z"/>
    <path class="st93" d="M264.2,1074.8c0,1.9-1.7,3-5,3.4-11,4.9-11.6,8.9,1.8,2.4,4-.9,12-1.6,13.1,3.2l-3.3,9.9c-.5,1.5-1.4,2.1-2.6,2.7s-6.5-6.9-36.1,5.5c-5.9,2.5-9.6,6.6-14,10.7-3.2,2.7-9.1,2-12.7,3.9-.7-1.9.3-2.6.7-3.7,9.3-12.6,20.4-24.2,38.1-21.9l-4.3-2.9c-2.8-.2-4.8-1-5.9-2.4.6-.9,1.8-.4,3.2-1.5-1.1-.6-2.6-.3-3.1-1.6.9-1.1,2.3-2,4.2-2.5,4.1-4.9,8.9-7.9,14.5-9,11.3,1.9,3.6-2.8-1.8-3.4-2.2.7-3.9.3-4.9-.9-1.1-3.8-4.5-6-8.9-4.6s-4.1,1.2-6.1.4-1.5-2.9-3.1-3.9c-8.1-5.1-19-6.1-28.1-2.1s-12.1,7-15.3,12.5c-5.6,9.7-10.9,18.7-17.3,27.9s-6.9,15.1-10.6,22.5-2.7,10.3-3.3,15.7c-1.3,3.1-5.3,5.5-6.2,8.7l-.9,1.1c0,.3-.3.8-.4,1-.8-3.7,1.8-7,3.1-11.1-10.8,3.7-26.3-4.7-29.8-10-.1-1.1-.4-2.5-.8-4.1-10.8-16.9,3-33.7,15.8-45.1-11.1,7.9-17.5,11.1-13.6-6.9,1.9-8.9,7-17,14.1-22.7-1.6-13.2,5.6-26.1,16.5-33.4s10.7-5.6,11.9-2.2c0,5,1.7,4.9,4.9-.3,4.8-1.9,9.1-4.3,13.2-7.1,8.9,3,8.6,6.7,13,11.8l-.3,2.2c-8.7,2.1-12.4,6-11.4,15.2,2.9-7.9,7-11.5,14.8-14.2,3.8-3.7,3.2-.3,2.9-.4-.9-.1-.7-1.7,0-2.7,5.6,1,11.9,2.2,15.8,7.1s2.2,3.9,4.3,3.7c.4,1.4-.3,2.8-2.1,3.9-1.5,4.5,0,3.5,4.4-2.9l6.2-2.9.3-2.1c9,.1,11.8,7.1,15,6.2,1.5.4,2.3,1.6,2.3,3.5.5-6.9,2.9-12.8,7-17.5,8.9-4.9,17.9-9.2,27-13,3.9.3,7.8.9,12,2.6,6.3-9.4,15.7-12,26.4-11.2.9-1.7,1.2-3.1,1.5-4.5.4-1,.7-1.1,1.1,0,1.6,0,3.2-.2,5.2.9-3.4,4.9-5.3,9.7-7.2,14.9-3.2,9-13.3,1.6-32.1,23.1s-15,20.3-19.4,32.7c-1.9,5.2-4.3,9.9-3.5,15.2Z"/>
    <path class="st93" d="M927.3,1624.6c-6.8-3.9-12.8-9.7-20.2-13.3s-7.7-3.7-11.3-7.2-12.2-7.9-18.8-5.7c-11.3,3.7-21,10.1-30.3,17-13.6-2.3-20.3,1.2-34.7.4-1.8-28.4,7.4-26.5,17.3-43.1,3.8-6.3,19.7-5.5,25.7-.7,5.7-3.6,11.2-6.4,16.8-8.8,12.9-5.4,36.5.4,40.8,17.4l3.2,12.6c2.2,8.8,17.5,10.3,11.4,31.4Z"/>
    <path class="st93" d="M775.6,1529.7c2.5,1.8,5.3,2.9,8.6,4.2,8.4,3.3,16.2,9.7,17.9,19.1,1,5.6-.8,11.7-3.6,15.9-4.5,3.2-9.4,6.1-13.6,10.2s-2.5,3.1-3.9,3.1-4.2-.3-4.2-1.4c.2-5.4-1.7-10-2.2-15.2l-.6-6.5c-.2-2.4-7.6-19.7-21-19.3,7.5-4.5,14.7-8.6,22.5-10Z"/>
    <path class="st42" d="M181.1,1003.1c.5.7.7,1.4.4,1.9-.6.8-1.3,1.6-2.2,2l-9.6,4.4c-2.5,1.1-3,4.9-6,6.1-1.8-1.9-1.8-4.4-2.9-7.6-2.9,2.7-7,3.1-10.2,5.4-8.3,5.9-14.4,17.6-14.4,28.2.3.8,1.9,1.7,1.5,2.7-11.3,8-17.2,21.3-15.9,34.8,6.3-2.2,10.9-11.1,15.8-5.6-14.7,13.4-26.5,25.2-19.2,45.3,1,1.7.4,2.2-1.2,1-2.3-3.5-3.9-7.2-3.8-12s-.7-10.5,1.7-14.9,2.7-6.9,1.1-11.1c-6.6-17.4,2.2-30.3,16.4-39.8-4.6-20.8,15.9-36.9,33.5-39.7s9.9-3.1,15.1-1.3Z"/>
    <path class="st110" d="M412,891c2.7,1.4,4.7,4,6.6,6.7-9.1,3.3-10.8-6.8-20.8-.6s-5.4,3.2-8.8,2.7c.4-3.8,2.6-6.5,4.7-9.5-10.1-3.9-20.7-2.9-29.6,3-13.6,9.1-17.2.2-24.2,1s-13.8,3.2-20,6.7c-11.2,6.4-8.5,16.1-14,11.9-.9-4.4.5-8.9,3.3-13.1,8-11.7,23.2-15,36.6-11.1s5.3,2.3,7.3,4.6c2.7,0,5.9-3.2,8-5,10.6-9.3,28.8-11,38.4.8,4.8-1.8,8.6,0,12.3,1.9Z"/>
    <path class="st110" d="M144,1231.8c2.5,3.3-11.9.9-20,5.5-18.9,10.8-13.6,20.8-23.4,20.5.1-13.6-18,3-21.9,12.3l-6.6,15.4c-3.6-11.8,4.1-38.6,24.1-39.6s7.1.7,9-4.8,7.1-7.8,11.9-9.3,7.7-3.7,12.1-3.9c5.5-.3,10.1,2.5,14.8,3.9Z"/>
    <path class="st73" d="M920.3,1734.9c1.8,1.6,4.4.3,7.3.9s.8,4.1-.4,4.9l-43.8,1c-9.9.2-19.3.2-28.9-.7l-4.4-4.1-26.7-.5c-1.6,0-3.4.2-3.9-2.1l100.8.7Z"/>
    <path class="st59" d="M599.7,893.8c.9.5,1.5,1.3,1.9,2.2-6.8,7.7-17.2-.9-30.1,5.7s-10.8,12.1-13.2,20-5.9,3.6-8,4.3c-.9-2.2-.6-3.6-.7-5,1.4-.5,2.9-1.5,4-2.7-1.9-3.3-2.4-6.3-2.9-9.4,3.7-19,35.3-29.5,48.9-15.1Z"/>
    <path class="st42" d="M514.7,901c3.4,2.4,6.6,5,9.4,9.2-4,2.2-7.7.2-11.5-1.2-6.7-2.4-12.9,1.4-19.1,3.7s-9.5-1.9-13.6-3.7c-9.3-4.1-19.8-1.7-27.7,4.3s-4.9,2.7-7.9,1.9c.7-3.5,2.8-6.4,5.4-8.2.4.7.9,1.6,1.6,1.7s14.4-11.9,30.1-7.2,8.2,5.9,13.3,7.8c5.4-5.8,12.8-8.3,20-8.2Z"/>
    <path class="st42" d="M784.4,1239.6c-2.9.2-5.7,3.5-9,3.2-2.7-1.5-4.7-4.1-8.4-3.3-8.2,1.7-6.1,12.2-17.2,12.8-1.2-5.5-1.4-17.9,5.8-18.4s17.1-5.6,28.8,5.7Z"/>
    <path class="st54" d="M280.2,1001.1c.3,2.2-1.9,2.4-3.5,3.3l-21.6,10.9c-7.5,3.8-5.6,23-8.9,20.4s-2.7-5.6-2.3-7.5c4.3-17.7,7.5-17.8,20.4-23.7,5.4-2.5,10.3-3.6,15.8-3.2Z"/>
    <path class="st3" d="M160.9,1226.8c-.5-1.8,0-1.8,1.4,0,2.1.8,4.9.8,6.9,1.9s5.2,2.3,8.1,4.3c-10.3,9.4-14.6-4.9-26,9.9.4,3.8-9.9,6-7.2.9-.7-3.7.7-7.1,3.1-9.9,1.2.9,3.2,1.1,5,2.1,3-2.4,6.1-9.2,8.8-9.2Z"/>
    <path class="st119" d="M304,946l.6,5.5c-1,.4-1.8.3-2.6.3-1.8-2.1-2.7-5.1-2.9-7.9-1.7-16.8,15-30.8,18.6-28.2s2.7,2.3,1.7,3.3c-10,9.7-17,11.3-15.4,26.9Z"/>
    <path class="st74" d="M599.7,893.8c-18.4-10.4-41-3.8-48.9,15.1-2.3-13.7,19.3-21.5,29.9-23.8s16.5,1.9,19.1,8.7Z"/>
    <path class="st54" d="M200,1015c.4.6,1.3,1.1,1.9,1.5-2.9,4.3-8.1,4.7-11.9,7.3s-4,9.2-8.4,13.5c-2.5-6.1-1.3-17.2,4.4-19.3l8.1-3.1c1.6-.1,4.2-.1,5.9.1Z"/>
    <path class="st86" d="M665.6,1792.7l1,1.8-19.5.7c-15.3.6-30.4.5-45.4.5-2.1-1.1-.9-1.5,1-2l50.8-.4,12.1-.6Z"/>
    <path class="st85" d="M229,1021.9c.7.9,2,1,2.9,1.5-2,3.7-7,3-8.9,5.7l-6,8.2c-2.2-1.8-1.2-4.7-1.1-6.9s2.2-3.3,4.2-4.6c2.9-1.9,5.3-4,8.9-3.9Z"/>
    <path class="st24" d="M928.1,1766.8c-.1,1.4-1,2.5-2.8,2.7l-10.9,1.1c-1.1.1-2.1-.5-2.5-.9s-.7-1.4-.2-1.4l16.3-1.5Z"/>
    <path class="st11" d="M748.5,1146.8c.5-6.3.3-12.7,0-19,.9-.2,1.2.8,1.2,1.9v15.1c0,1.1-.3,2.1-1.1,1.9Z"/>
    <path class="st11" d="M732.4,1189.8c.3-5,0-10,0-15,.4-.1,1,.3,1,1v12.9c0,.8-.7,1.2-1.1,1Z"/>
    <path class="st11" d="M144.3,1161.8c-2.7-1.1-.8-8.5,0-11-.1,3.7-.2,7.3,0,11Z"/>
    <path class="st11" d="M321.2,988.1h-1.1c1.6-6,5.7-4.5,4.9-9.1.9,0,3.1.5,2.9,1.6-3,2.4-5.8,4.4-6.6,7.5Z"/>
    <path class="st11" d="M719.4,1053.9l-13-14.9c-1.5-1.7-4.2-2-4.9-4.1,7.4,4.3,13.8,11.4,17.9,18.9Z"/>
    <path class="st11" d="M723.5,1071.8c.1-2.7.1-5.3,0-8,2,1.7,1.9,6.2,0,8Z"/>
    <path class="st35" d="M119.2,1124.9l-2-3.1c.4-.3.8-.6,1.2-1,.3.7,1.3,1.3,1.5,2s.8,2.1-.6,2.1Z"/>
    <path class="st56" d="M891.4,1427.8c.4.8,1.4,2,.4,2h-2.4c0-.4,0-1,0-1.4.2-.7,1.3-.8,1.9-.5Z"/>
    <path class="st11" d="M748.3,1126.8c-1.1-1.4-.9-3.3-1-5,2,.7,1,3.3,1,5Z"/>
    <path class="st11" d="M687.5,1013.9c.3-1.8,0-3.6-.9-5.1h1.1c-.2,1.5,2.5,4-.2,5.1Z"/>
    <path class="st11" d="M733.6,1193.9c-.6,0-1.7.1-2-.6s0-2,.8-2.5c.3,1.1.7,2.1,1.2,3.1Z"/>
    <path class="st11" d="M722.4,1077.8c0-1.4.1-2.8.9-4,.2,1.3.9,3.7-.9,4Z"/>
    <path class="st11" d="M742.3,1109.8c-3.5-5.3-7.5-9.8-12.9-13.8-9.1-6.7-13-3.9-10-8.2-.1,2.2,1.8,2.7,3.8,3.4,6.1,2.2,17.5,12.3,19.2,18.5Z"/>
    <path class="st11" d="M686.6,1030c-1.4,0-2.9,0-4-.9,1.3-.2,3.7-.9,4,.9Z"/>
    <path class="st11" d="M172.4,1208.8c.2-2.6,2.8-4.3,3.9-7.1-6.3-5.8-7.7-12.6-12.1-15,5.8.4,4.6,7.3,13.1,15-1.5,2.9-2.8,5.5-4.9,7.2Z"/>
    <path class="st11" d="M160.2,1185.6c-7.5-3.3-12.8-10.9-14.8-18.8,6.5,11.5,4,9.8,14.8,18.8Z"/>
    <path class="st11" d="M145.3,1165.8c-1.5,0-1.1-1.9-1-3,1,.6.9,1.9,1,3Z"/>
    <path class="st11" d="M745.4,1156.8c.2-2.7,1.3-5.6,2.9-8-.2,2.8-.5,6.3-2.9,8Z"/>
    <path class="st11" d="M690.6,1031c-1.1,0-2.4.1-3-.9,1.1-.2,2.9-.6,3,.9Z"/>
    <path class="st11" d="M750.4,1216.8c0-1,.1-2,0-3,1.1-.2,1.1.7,1.1,1.5s-.1,1.7-1.2,1.5Z"/>
    <path class="st11" d="M747.3,1120.8c-1.2-1.4-1.3-3.3-1.9-5,1.7,1.2,2.4,3,1.9,5Z"/>
    <path class="st11" d="M685.5,1019.9c.6-1.7.7-3.7,1.9-5,.3,1.9,0,4.1-1.9,5Z"/>
    <path class="st11" d="M681.6,1029c-1-3,2.7-5.5,3.8-8.1.2,3.3-2.8,4.8-3.8,8.1Z"/>
    <path class="st11" d="M306.2,960.9c-2.4-1.6-4.7-5.2-4.2-8.1,1.4,2.7,4,5.4,4.2,8.1Z"/>
    <path class="st11" d="M752.4,1225.9c-1.5-1.4-4.8-3-3.1-5.1.3,2.1,2.5,3.1,3.1,5.1Z"/>
    <path class="st11" d="M162.2,1226.9c-.4-.1-1,0-1.4,0-2.8-1.1,4.5-9.3,5.4-9-2.1,4-6.9,6.4-4.1,9Z"/>
    <path class="st11" d="M749.4,1219.8c.1-.8.2-1.6,1-2,0,.4,0,.8,0,1.4s-.4.7-.9.6Z"/>
    <path class="st11" d="M693.6,1032c-.8,0-1.6-.2-2-.9.4,0,.8,0,1.4,0s.7.4.6.9Z"/>
    <path class="st11" d="M166.4,1216.8c1.7-2.5,3.1-5.7,5.9-7-1.9,2.4-3.2,5.4-5.9,7Z"/>
    <path class="st11" d="M741.4,1163.8c1.5-1.9,1.8-4.8,3.9-6-.2,2.3-1.5,5.1-3.9,6Z"/>
    <path class="st11" d="M750.3,1211.8c-.7-.4-.9-1.2-.9-2,.6,0,.8.2.9.6s0,1,0,1.4Z"/>
    <path class="st11" d="M749.3,1208.8c-.9-.8-1.4-1.9-1.9-3,1.5.2,2.3,1.6,1.9,3Z"/>
    <path class="st11" d="M696.6,1033c-.8,0-1.6-.3-2-.9.9-.2,1.4.4,2,.9Z"/>
    <path class="st11" d="M320,976.6c-5.2-4.1-13.4-8.7-13.8-14.8,1.7.7,2.2,2.7,3.6,4.2l10.2,10.6Z"/>
    <path class="st11" d="M744.3,1199.8l-6.8-4.8c2.8.2,5.7,2.2,6.8,4.8Z"/>
    <path class="st11" d="M719.4,1086.8c0-.8.2-1.6.9-2,.1.8.2,2-.9,2Z"/>
    <path class="st11" d="M720.4,1083.8c0-.8.2-1.6.9-2,.1.8.2,2-.9,2Z"/>
    <path class="st11" d="M736.5,1195c-.8,0-1.6-.2-2-1,.8-.1,2-.1,2,1Z"/>
    <path class="st11" d="M163.2,1186.6c-.4,0-.8,0-1.4,0s-.7-.4-.6-.9c.8,0,1.6.2,2,.9Z"/>
    <path class="st11" d="M721.4,1080.8c0-.8.2-1.6.9-2,0,.4,0,.8,0,1.4s-.4.7-.9.6Z"/>
    <path class="st11" d="M753.7,1229.8c-.5-.4-.9-.8-1.3-1.3.3,0,.6,0,.8,0,.7.3.8.8.5,1.3Z"/>
    <path class="st11" d="M723.4,1062.8c-.7-.4-.9-1.2-1-2,.5.6,1.2,1.1,1,2Z"/>
    <path class="st11" d="M324.1,978.8c-1.4.1-2.8-.6-3.1-2.1,1.1.6,2.4,1,3.1,2.1Z"/>
    <path class="st11" d="M732.5,1173.8c2.5-3.3,5.7-6.2,8.8-9-2.2,3.5-5.5,6.5-8.8,9Z"/>
    <path class="st11" d="M746.4,1202.9c-.9-.4-1.5-1.2-2-2.1,1.1.2,1.8,1,2,2.1Z"/>
    <path class="st11" d="M744.4,1112.9c-.9-.4-1.5-1.2-2-2.1,1.1.2,1.7,1,2,2.1Z"/>
    <path class="st93" d="M475.9,1588.7c1.4-.4,2.9.3,4.4,1.9,2.9-11.1,8.4-19.3,16.9-27.1,13.6-12.4,22-10.4,37.8-3.4,4.5-1.4,7.8-3.9,9.7-7.5,13,5.1,24.5,1.8,27.4,3.7s4.9,7.2,7.8,10.4c4.2,4.8,10.7.2,28,10.9,6.3,3.9,13.1,6.7,17.6,12.7-10.6,0-21.7.6-30.8,6.3s-16.9,13.9-16.5,18.8c18.5,3.1,11.2-7,36.6,3-5.7,3.8-11.7,5.2-17.7,7.7-16.3,6.9-27.5,21.1-32.3,38,10.7,8.2,25,11.8,32.6,23.6-15.9,4.9-24.1,9.4-39.6,5.8l-45.2-10.7c-19.3-4.5-38.1-5.2-57.7-2.1-13.4,2.1-26.3,4.2-40.8,2.6,26.5-20,29.9-15.3,60.4-22.3.9-1.1.2-2.8,1-4l15,11.8.9-16c1.4.2,2.2.7,3.3.5l.8-13.7h7.8c.5-4.4.8-8.6.2-12.8l-28.4-7c-6.3-1.5-10.3-11.1-9.5-17.3,1-7.7,11.8-10.4,10.2-13.9Z"/>
    <path class="st93" d="M807.6,1868.7c1.7.5,3.2,2.2,4.4,5.3l4.7,4c-.4,4.4.4,8.6,2.6,12.8l-1.1,1.1c-1.5,3.8-4.5,6.6-8.9,8.5-7,2.5-13.8,5.1-20.6,7.9l-2.3-.7c.9,1.1.3,1.5-1,1l-4.2,6.7c-19.2,18.8-38.8,37.4-58.3,55.7-4.5,4.3-22.5,17.3-27.9,18.2s-3.7.2-4.3-3.6c-.5,0-1,0-1.4-.3-.9-.5-3-18.2-3.2-20.5s.1-1.4.8-2c-1.9-3.5-1.4-5.3,1.5-5.2l3.1-1.8c16.1-17.2,34.3-32.2,54.5-44.9,11.9-9.7,23.2-18.8,21-35,2.9-7.3,12.9-4.2,16.5.9,5.1,4,16.9-3.7,21.6-8.5s2,.7,2.5.5Z"/>
    <path class="st59" d="M550.7,1181.7c8.5-.4,16.6,3.2,24.4,8-2.5,1.6-4.9,3.6-7.4,3.6-8-.8-20.6-4.4-25.9,3.1l6.4,4.1c-7.8,7.1-25.2,3.2-31.3,7.5l-16.1,11.6c-3.5-6.9,2.9-12.3,6.4-17.6-24.4-8.8-41.4,3.4-54.4,22.7-19,28.3-4.9,35-13.3,61.5-17.8,11.8-26.3,3.1-38.9,22.8s-5.8,14-7.8,21.4c4,1.4,6.9,2.2,9.6,4.8-11.5,7.8-18.7,4-24.6,19.6s-3.4,19.2.8,28.1c-1,1.4-4.1,3.2-5.3,2.1-7.6-6.3-6.9-25.7-6-35.2s9.9-15.6,18.5-18.3c.2-10.2,0-20.4,4.9-29.6,4.3-8.2,12.2-16.5,21.1-18.1l19.6-3.6c.8-2.2.5-4.5,0-7-1.7-10.6-3.5-21.6-1.2-32.4s11.6-27.7,22.7-37c10.9-10.3,25.9-17.4,41-16.1,2.2.3,4.2,1.1,6,2.1.3-.8.7-.7,1,0l4,1.9c.3-.9.7-.8,1,0,4.5,2,9.2,3.2,14,3.6,3.9-1,8.3.7,12.4-1.2,4.8-6,10.9-12.4,18.4-12.7Z"/>
    <path class="st43" d="M471.7,1834.5c1.5-1.3,1.9-.7,1.1,1.1,2,0,1.5.8,0,2-.3,3.1.4,6.4,1,9.9,1.5,9.1-.9,18.4,1.2,27.3s5.4,8,2.2,13.1c11,3.2,19.7,8.5,29.8,12.6s15.8,2.2,23.9,2.9,19.4,3.8,29.1,6c4,.9,6.2,3.8,9.5,5.5s5.3,0,7.9,1.1c10.8,4.5,20.8,9.8,29.8,17.2,10.9,4.5,21.7,6.9,33.2,9.1s8.6,5.7,13.4,4.3,7.8-.5,12.2.9c2.6.2,6-3.8,8.9-3.4,6.8.8,9.2,6.7,10,12.6l2.1.7c-.7,2-.7,3.8,0,5.4,1.1,1.3,1.3,3.2,1.6,5.2l2.3,17.6c0,1.3.7,2,2.2,2.1v15.6c4.2.7,8.6-2.2,12-5,29.3-23.9,58-49.1,81.7-78.5,1.6-3.3,3.6-6.3,6-8.8,1.9,0,3.4.8,4.5,2.8,7-2.3,13.8-5.2,20.3-8.5-1.5-4-2.3-9.9.8-13.2-.7-4.3-5.4-7.7-2.6-13.4-5.1-1.9-6.2-5.9-8-9.8,0-.2-1.1-1.9-.2-2,3.1-.3,4.7,5.5,6.2,6.7,2.6,1.9,5.3,3.5,4.6,7.3s1.7,6.1,3.3,9.1-1,6.6-.2,9.9,1.8,5.4,1.7,8.2c10.9,4.5,18.8,23.8,23.4,34.8l19.9,46.9c1.1,2.6-3,6.1-4.6,7.5-8,6.8-17.3,10.9-27.6,13.5-2.4.6-7.6.5-8.8-2l-19.2-40.5c-5-10.5-9.6-20.6-14.1-31.2s-2.1-7.1-1.9-11.7c-5.2,4-8.7,9.2-13.3,13.9l-23.1,23.9c-11,11.4-22.6,21.3-35.2,30.8s-18.4,16.8-28.5,13.1c0,8.8-4.1,14.8-9.9,19.3s-14.6,6.6-21.4,3.3c-4.2-2-7.4-5.5-12.8-3.6l-5.7-6.9c-4.2,1.4-8.2-1.7-12.6-1.2-12.5,1.5-26.5,1.8-37.9,8.2s-25.7,22.2-32.3,36.9-6.7,33-10.5,41.7c-1,.4-1.5,0-1.4-1-.4-1.2-.7-2.4-.9-3.6s-.3-2.4-.2-3.5c1.6-10.3,3.4-20.7,5.6-30.9s1.9-5.9,4.6-6.1c-.7-1.1-.3-2.2,1-1.9,12-35.1,47.1-51.2,82-44,2.7-.6,5.2-1.8,7.5-3.7l2.5.5c2.3-2,2.8-1.5,1,1l.4,2.5c-5.3,4.6-3.7,6.9,4.7,6.7,18.6,11.9,35-2.7,31.8-23.5l2-2.3-2-1.3c-.5-12.8-1.6-26.3-6.6-38.2l1.2-2-5.2-3.9h-2.6c-4.8,3-8.9,3.2-12.5.6-1.1,1.2-1.9,1-3.2-.3-1.2,4.1-8.4,2-11.9.9-5.4-3.1-11.4-4.6-17.9-4.6-15.9-5-31-12-45.3-21-4.9-2-9.9-3.6-15.1-4.7-4.9-4-10.7-6.4-17.4-7.4l-1.4-2.4-4.2-.9c0,1-.4,1-.9,0-10.5.1-20.9-.3-31.2-1.3l-.4-1.6c-6.5-2.5-12.6-5.6-18.3-9.3l-3,.9c-6.5-2.2-12.3-5.3-17.4-9.4.9-4.3.4-10.1-4.2-12.2l-.2-2.2c-5-2.2-10-4.4-15.1-6.7l-.9-2.3c-1.6-1.2-.9-1.6,2.2-1,2.1-1.6,4.8-1.4,8.3.8l5.6,2.9.3-9.8c-1.5,1.5-2.7,2-4.2,0-1,.6-1.4,0-1.1-1-.9-2-.6-4.3.9-6.9.4-3.5,1.5-6.2,3.2-8.1v-2.8c-3.7-3,1.8-10.3,4.6-5.3Z"/>
    <path class="st93" d="M372.9,1738.7c.9.3.9.6,0,1-14.1,1.3-28.2,2.2-42.7,4.3-1.5,2-1.7,3.9-2.8,6.7-12.4.5-24.8,2.6-37.4,1l-23.9-2.9c-14.1-1.7-27.3-.8-41.3.1s-25.6-.2-38.6,2c-15,2.5-34.8,0-43.6,4.1l-20.5,9.7c-3.8.3-6.9-3.8-9.9-5-3-.4-3.8-2.5-2.3-6.5l-1.4-2.3c-1.5.7-4.8.9-4.2-1.2,7.5-1.7,16.6-1.5,23.7-5.4,3.8-2.1,6.1-1.8,9.9-2.7,6.5-1.5,12.3-5,19.3-6.2,18-3.1,35.7-3.6,54-3.9,12.3-.2,23.7,1.5,36,1.4l30.8-.2,19.6,7.5c8.1,3.1,18.6,3.8,27.4,2.3l23.9-4.2c8.2-1.5,16.3-1.6,24.2.5Z"/>
    <path class="st66" d="M762.5,1836.9c4.8.3,9.6.5,14.4.8l.6,1-55.9,1.6-113.9,1.6-108.4,3.5c-1.3-1.9-1.4-3.8-3-5.2l-10.4-.5c-2.7-1.4-2.2-5,1-5.1l62-4.6,76.9-.8c23.7-.2,46.4-.3,70,1.8l66.9,5.9Z"/>
    <path class="st59" d="M513.9,1366.9c-4,2.7-21.7,0-26.3,5.5l-4.2,4.9c-1.8,2.1-6.1,3.5-8.8,4.4-13.7-4.3-42.1,16.9-45.8,25.8l-6.5,15.6c-1,2.3-4.8,2-6.1,3.8-7.6,10.9-12.3-.6-18,10.4s-5.9,13.1-8.7,20.4-5.5,1.8-5.8-.5c-1.2-9.7.6-32.9,13-35.4s8.2,1.3,12.9,3.5c2.3-23.3,1.2-28.9,20.4-42.6.3,0,.7.1,1,0l1-1c4.4-3.2,9.4-5.7,14.3-8.7,8-4.9,16.7-4.7,25.7-3.1,3.4-4.9,8-9.2,14-11,14.8-4.2,17.5-3.4,31.4,5-.6,1.9-2.3,2.2-3.4,3Z"/>
    <path class="st59" d="M544.7,1552.7c.7.9,1.6,1.4,2.2,2.9-4.2,2.3-7.4,5.6-12,6.5-8.1-3.1-20.1-8.7-28.2-3.4-9.5,6.2-19,16.1-22.1,25.5l-2.6,7.8c-.8,2.3-5.7-1.1-6.1-3.3-.9-5.2.4-10.4,2.7-15.4,4.5-9.8,14.3-29.1,26-30.9,14.7-2.2,26.6,4.9,40.1,10.2Z"/>
    <path class="st37" d="M486.8,1834.6c-.8,1.4-.6,3.5-1,5.1-.8,3.9-3.4,7.2-8.1,6.7s-2.6.3-2.7-.5v-2.4c-.1,0,.6-2.2.6-2.2,3.9.1,5.7-3.3,5.4-10.4,1.1-12.8.2-11.3-2.7,4.5-1.1,2-2.2,3.3-4.4,2.2h-1.1c0-.6,0-1.4,0-2-.8-1.4-.2-1.9,1.1-.9.7-2.5.3-4.2-1.2-5.2.3-10.8.3-21.5,0-32.3-1.5-17.6-10.1-31.8-27.2-37.3l-2.6-2.3-1.3,1.9-7.3-1.1c-7.5,1.4-16.8,3.9-24.2,6.4-22.7,7.7-23.4,42.2-16.2,61.6,2.5.5,4.1,1.7,5,3.5-.4,7.6,1.1,14.3,4.4,20.2,2.9.1,8.4,2.6,8.6,5.5,2.2-2.9,11.7-.8,9.7,3.9-1.1,5.9-14.7,4.1-14.8-1.8-1.7-1.6-5.5-1.9-7.6-1.1-2-2.5-2.9-5.8-2.4-10.1-4.9,1.7-5.2-5.8-5.2-9.6-3.3-4.3-8.3-11-4.9-16.2-2.6.6-2.6.2-1-1.9-1.5-.5-1.7-1.7-.7-3.7v-4.5c-2.3-.5-3.1-2.6-2.4-6.3,1.5-1.5,2.2-3.8,2.2-6.7-2.3-1.8-2.7-4.8-1.1-8.9.7-3.8,2.4-11.2,6.1-12.2-2.4-1.8-.8-6.5,2.2-6.1,5.7-6.1,13.5-11.2,21.8-12.8,1.2-3.1,7.8-3.1,9.8-1,1.4-.5,3-2.2,4.6-2.5,8.1-1.7,17.6-.5,25.3,3.2,20.8,9.9,26,33.9,26.1,54.9,9.5,3.6,5.5,14.8,7.1,22.4Z"/>
    <path class="st66" d="M539.2,1896.5c-8,1.9-16.3.2-24.3.7l-5-3c4.4-.5,8.6-.7,13.5-2l-4.6-12.6,39.9.3c6.8,0,13.2.6,19.5,2-11.4,3.1-21.4,4.3-31.6,7.7s-4.8,5.1-7.4,7Z"/>
    <path class="st42" d="M558.9,1366.8c-6.7,3.5-12.8,1-18.4,7.6s-8.4,7.8-14.6,9.3c.4-3.5-1.1-7.1-.2-9.9,2.6-8.3,9.5-13.2,15.9-15s15.8-.7,23,4.6c-1.6,1.7-3.9,2.1-5.7,3.4Z"/>
    <path class="st66" d="M843.5,1834.8c-2.3.5-6.5,1.1-7.1-1.2.9,0,4,.1,3.7-1.2l-1.8-7,42.9-3.4c-1.3,3.9-.9,6.4,1.2,10.4l-38.9,2.3Z"/>
    <path class="st47" d="M772.4,1870.5l4.2-.5c1.6-1.2,2.4-1.1,2.6.3,2.7-1.7,4.3.9,2.3,3.3,1.5.6,3.2.9,4.9.7v1.3c-.8.2-1.8,1.5-3,1-2.3,0-4.5-1.8-6.5-3.4s-7.3-.3-7.9,1.8c-1.6,5.6.6,12-3.1,17.1-19.9,27.4-41.9,29.4-70.1,60.8-2.6,2.9-5.1,5.1-9.1,6.3-.8.4,0,2.9,0,3.5-1.4-1.6-1.9-3.9-2.2-6,2.4.5,4.9-.2,6.7-2.3,30.1-35.4,50.6-35.3,72-62.9,4.1-5.3-.4-16.4,3.3-19.2s3.8-1.9,5.9-1.7Z"/>
    <path class="st7" d="M546.9,2104.6c.1,20.8,11.8,32.2,6.5,52.6-2,7.6,0,15.6-.5,23.3-2,.5-3.7-.3-5.1,0l-2-1.1c-2.4-11.7-.3-23.4,2.1-34.9-2.2-13-3.8-26-4.5-39.1l2.1-1.7c.4.4.9.7,1.4,1Z"/>
    <path class="st81" d="M234,1085.7c5.4-1.2,11,2.1,13.6,6.5-3.9,2.1-7.2,0-10.5.5-6.3,1.1-12.4,3.7-17.4,7.5s-8.5,14.2-13.5,12.7c2.1-6.1,4.1-13,9.2-17.9,5.1-4.8,12.2-7.9,18.7-9.3Z"/>
    <path class="st3" d="M234.2,1082.6c.9-6.8,5.8-12.8,12-15.9s12.9.2,16.1,5.5c-3.4,2.4-6.8.4-10,.9-9.4,1.5-11.5,11.8-18.1,9.4Z"/>
    <path class="st119" d="M264.2,1074.8c6.8.5,12.9,2.6,16.7,7.7-2.4,1.4-4.7,1.2-6.8,1.3-13.7-5.3-15.4,2.5-25.7,2.8-.9-6.9,11.2-11.2,15.8-11.8Z"/>
    <path class="st105" d="M513.1,1193.6l-.3.9-7-2.5h-1c0,0-4-2-4-2-.3,0-.7,0-1,0-1.7-1.1-3.7-1.8-6-2.1-17.4.8-27.2,7-41,16.1,12.8-16.7,34.9-19,54.9-16.2-1.1-.2,7.9,4.1,5.3,5.9Z"/>
    <path class="st53" d="M475,1843.5c-1.1-1.2-2-4.2-1-5.8s2.6-1.9,3-4c1.3-6.2,2.6-12.1,3-18.7,5.4,1.2,3.3,21.6,1.3,26.3s-4.5,1.8-6.2,2.3Z"/>
    <path class="st103" d="M786.6,1875.7c-1.3-1.7-3.9-.2-5.1-2.1,1.5-1.5,3.8-2.4,6.9-2.7l5.8-3.9,2.4.5c-1.2-3.1-2.2-5-5.2-6.8l-.5,2.2c-5,1.1-8.4,3.7-11.6,7.2-2.3.3-4.5.4-6.8.2.7-1.1,2.5-.6,4.1-.9s.9-3.2,1.9-4.2c3.2-3.7,15.8-10,19.4-5s2.6,4.8,4,7.5c-4.9,3.9-9.7,6.8-15.2,7.9Z"/>
    <path class="st51" d="M112.1,1759.7h-24.9c-1.8-.4-2.7-.8-1-2,3,0,23-.4,22.9-3.2s-.6-1.8-.8-2.7c-.9-.2-.9-.5,0-.9,1.1.1,2.1-.3,3.8.2-2.3,3-1.4,5.8,0,8.6Z"/>
    <path class="st97" d="M392.1,1770.5l-2.2,6.1c-2.1,1.5-4.1.4-6.2-3.3-2.6-1.9-5.9-2-9.9-.6l-1.9-1.9c4.3-1.7-24.2-1.5-21.3-.1-12-3.5,47.4-2,41.4-.1Z"/>
    <path class="st32" d="M812.5,1835.6c1.2.2,2.2.5,3,1-8.6.5-29.3,2.5-38,2s-5.4-1.9-9.1-1-4.7.4-5.8-.8l42.9-.3,7.1-.9Z"/>
    <path class="st100" d="M74.2,1755.6c1.6-.3,2.3,0,1.9,1.1-5.7,2.7-11.1,3.7-16.8,4.1-3.6.6-5.3.2-5-1.2,7.1-1.4,13.4-3.2,19.9-4.1Z"/>
    <path class="st78" d="M836.4,1833.6c1.9,1.4,4.7,1.3,7.1,1.2.4.7-.4.5-1.2.6l-12.9.4-14,.8c-1.1,0-2.5.2-3-1l24-2Z"/>
    <path class="st117" d="M671.4,2160c-3.7,1.2-7.2-.2-10.8,1.7-3.3-1.4-6.4-1.4-9.9-1-3.3-1.7-6.5-.6-10.1-1.6,4.8-1.2,9.9-.5,15,.5,5.5.2,10.6-.6,15.9.4Z"/>
    <path class="st108" d="M423.7,1756.7c-3.3,1.1-6.6.5-9.8,1,.3-1.4.5-3.1,2.1-4.2,3.5,0,6.5.2,10.1,1.1-.5,1.5-1.7,1.3-2.3,2.1Z"/>
    <path class="st26" d="M729.7,1765.7l-31.2-.4,23.8-.9c2.7-.1,5.3-1.4,7.3,1.3Z"/>
    <path class="st94" d="M474.8,1742.7c1.5.3,2.8.6,4,1-5.3,2.5-11.5.2-17.2,1.1-2.3.9-3.4.4-1.8-1.9,4.9-.5,10.1-.1,15-.2Z"/>
    <path class="st24" d="M459.8,1742.9c.5.7,1.1,1.3,1.8,1.9-2.5,2.6-7.7,1.4-10.5-1.3,2.9-1,5.9-.3,8.7-.6Z"/>
    <path class="st25" d="M602.7,1793.7l-1,2h-10.1c-.9,0-1.7-1.1-1.9-1.9h13Z"/>
    <path class="st60" d="M513.1,1193.6c2.3.5,4.6,1.1,6.7,2-6.2,1.6-5.1.5-14-3.6l7.3,1.6Z"/>
    <path class="st6" d="M760.6,1765.4c-3.1.4-5.5.5-8-.1,2.8-1.6,5.9-3.2,8,.1Z"/>
    <path class="st16" d="M54.3,1759.7c1,1.7,3.3.9,5,1.2-3.5.2-6.8,2-10.1.2,2.1-.7,3.6-1.1,5.1-1.4Z"/>
    <path class="st0" d="M104.2,1749.7c.8,1.5,2.8,1.1,4.2,1.2,0,.3,0,.6,0,.9-2.6-.6-5.7,1-8.3-1.5,1.3-1.3,2.9-.3,4.2-.6Z"/>
    <path class="st75" d="M86.2,1757.7l1,2c-1.7,0-3.5.4-5.5-.7,1.3-2.1,3.2-1.3,4.5-1.3Z"/>
    <path class="st30" d="M76,1756.8c-.5-.5-1.2-.9-1.9-1.1,2.5-.8,4.4-1.8,7.2-1.9-1.3,2.3-3.5,2.1-5.3,3Z"/>
    <path class="st30" d="M669.4,1251.9c.2-.6,1-.4,1.2-.3.6.1,1.3.9.5,1.4s-.6.9-1,.8c-.5-.1-1.1-1-.8-1.9Z"/>
    <path class="st87" d="M478.8,1743.7c-1.4,0-3.3.5-4-1,1,.3,4.4-1.1,4,1Z"/>
    <path class="st109" d="M372.9,1739.7v-1c1.6.4,3.5-.8,5.1.6-2,.9-3.6.3-5.1.4Z"/>
    <path class="st46" d="M245.5,1540.1c.1-1.9,2.5,1.2,2.5,1.2-.2.8-1.2.7-1.4.5s-1.1-.5-1.1-1.6Z"/>
    <path class="st106" d="M220,1144.6c-.7.6-1.1-.7-.8-1.3s.7-.7,1.5-1.5c.9.6.8,1.5-.7,2.8Z"/>
    <path class="st84" d="M646.8,1001.1c.5-.6,1.6-.2,1.7.3s-.8.8-1,1.1c-.6.9-1.5-.3-.8-1.4Z"/>
    <circle class="st99" cx="609.2" cy="1162.8" r=".6"/>
    <circle class="st39" cx="686.6" cy="1251.3" r=".6"/>
    <path class="st11" d="M146.2,1144.9c.1-.5.1-1.3.9-1.1-.1.4-.2,1.5-.9,1.1Z"/>
    <path class="st93" d="M430.8,1382.6c-.5-.9.7-.7,1-1-.2.4-.6.8-1,1Z"/>
    <path class="st66" d="M467.9,1874.7c5.5,1.6,7.9,7.9,6,13.7,6.1,4.2,12.6,6.5,18.9,9.2,6.4,3.7,12.9,7.2,19.7,10.3l-1.3,1.7c-7.1,3.4-22.7,11-25.9,18.2,7.5-4.2,14.8-8.8,21.9-13.8,10-4.9,24.6-5.2,35.6-4.3.3,0,.7,0,.9,0l4.2.9c26.5,6.1,11,6.4,23.9,9s21.1,9.1,30.7,15,3.8.9,5.7,1.8c7.1,3.4,14.4,7.3,22.4,8s8.5.4,12.6,3,9.3,2.9,13.7,2.2l1.7-.6c2.3,3.6,4.9,5.4,7.9,5.4,2.7-4.5,10.9-5.7,13.9-1.2,5.1,8.4,7.6,31.8,7.5,41.5l-.8,2.2c-5.3,1.1-10.5,1.9-15.8,2.5-1.1-1-.9-2.3.5-4-.7-2.1-1.9-1.1-3.7,3.1h-1.4c-1.2,3.4-8.2,4.4-7.8.1-.8-1.4-.7-3.2.5-5.4-.7,4.1-2.2,6.5-4.7,7.3.2,1.2-.9,1.8-1.9,2.1-8.2,2.4-24,.8-32.3-1.3l-1.6-2.7c-13.4-2.1-28.8-4.1-42.3-2s-1.4-.3-1.9-1c-.5,1.9-1.7,2.4-3.9,1.7-1.9,2.9-20.9,21.7-22.5,21.7-2.8,0-4.2-.2-3.4-3.2,10.3-23.1,19.4-47.1,24.3-71.9.3-1.7.5-3.3.5-5s-1.1-2.1-1.9-1.2c.4,3.9-.2,9.6-3.1,12.1-2.9,21.2-13.7,41.7-24.5,60.2-25.7,39.3-52.3,77.4-80.1,114.3-.3.4,0,.8.9,1.4,7.6-5.2,14.4-11.5,20.3-19,15.7-19,31.3-38.3,46.7-57.9,2.2-2.4,30.6-21,32.6-21.2,3.4-.4,4,.2,2.1,3.1l.9,1c-21.4,25.4-43,50.6-64.8,75.6,5.4-1,10.5-3.5,15.3-7.7,8.1-7.2,15.5-15.1,22.3-23.6,5.1-.4,3.6,4,1.6,7.2l3,6c-1.2,12.2-3.3,24.3-6.3,36.4l1.3,3.4c4.7,6.1,7.3,12.6,7.7,19.4-3.9,5.2-8.2,10.1-12.8,14.7,3.9,4.8,6.4,10,7.5,15.7l-1.8,1.8-187.7.2c14.8-5.9,40-3,53.8-5.4s5.1-1.8,7.9-3c-1.3-2-3.8-2.5-6.2-3.1-24.7-6.3-42.8.9-69.6-.7-3.8-.2-6.1-5.5-7.8-7.9-.3-5.7.8-11.4,3.2-17.2.8-6.2,2.7-11.7,5.7-16.6.7-.6.9-1.5,1.5-2.8,1.8,1.8,3.5,3.4,6.9,3.8.2-9.7.7-19.1-.4-28.9s1.4-.9,1.9-1.3,1.1.5,1.5,1.6l9.7,22.2c4.5,10.3,8.7,21.2,16.4,29.8,7.2,8.1,29.6,16.3,33.3,12.7s-3.2-5.3-3.9-9.1c-6.7-8.1-14.2-18-19.6-27.1-.3-.6.4-1.6.9-2.2.7-1.9,3.4-1.2,5.6-2.1l-30.9-57.3c5.3-.3,21.4,24.7,21.8,24.9,1.9,1.2,4.7,0,6.4-1-1.9-8.2-14.1-27.2-19-33.1l-17.9-21.4c-15.9-19.1-33.5-36.7-53.8-51.2-2.5,1.6-3.9,5.7-2.4,7.5l13.2,15.7c.8.9,0,4.1-1.2,4.1-6.7-4.1-14.1-2.6-14.5-8.4-17.7-8.3-29.6-14.3-50.2-11.3-.4-2.6.3-5.1-1.3-6.1-2-13.2-1.8-28.4,2.8-41.1.5-2.5,3.1-11.5,4.5-13s29.2-7.4,30.7-6.9,1.2.6,1.7.9c7.5-1.7,14.1,1.2,19.8,8.9,5.2,7.1,10.3,14.2,15.3,21.4,1.8,1.6,2.6,2.2,2.3-.2-1-8.9-12.8-24-19.4-29.9l4.3-4.3c-1.3-3.8,6.3-5.7,7.8-1.9,1.9,1,5.6,1,4.5-1.7,1.5-1.1,2.4-1.1,3.5.7,10.3-5.7,21.9-8.6,34.6-8.7,9.3,1.3,17.6-.3,25.1-4.6l14.4-10.3,1.7.6c21.1-10.4,46.3-16.5,69.5-10.2,3.6,2.6,6.3,2.9,8.4.9h-1.7c-16.3-15.6-41.9-14.1-60.5-3.5l-1.4-.3c-1.8,2.6-5.8,6.8-8.8,4.9-4.3-1.9-.5-9.5,2.2-12.4s4.7-4.7,6.5-2.5c1.1,1,2.5,1,3.9.7,18.5-9.3,37.9-8.8,56.2,1.3Z"/>
    <path class="st66" d="M242,1927.6c.3-.2.6-.4.7-.4.9.6,4.7,2.9,5,3.1s.5.8.5,1.3c-2.3,4-4.3,8-6,12.1-2.9,15.1-3.9,30.4-3.1,45.9,1.9,4.1-13.8-.8-14.1-2-.7,0-1.3-.3-1.5-.7-5.3-8.5-3.6-30.3-.2-39.3-.6-2.9,0-4.9,1.9-6-2.4.3-3.2-.4-2.2-2-4.8,3.6-7.9,10.3-9.3,20-.5,4.7-1.3,9-2.5,12.9.1,4.5-.3,8.7-1.2,12.8-4.1.2-8-1.2-11.8-2.6-.9-.5-1.6-1.2-2-2.2s3.2-17.9,4-20.8c2.5-9.4,7.2-23.2,13-30.9s9.7-7.4,15.6-2c6.7-3.5,11.1-3.2,13.3.7Z"/>
    <path class="st96" d="M69.3,1819.6c.9.2.9.5,0,.9,1,1.7.5,3.6-1.5,5.4,3,6.7,6.5,13.7,10.6,21.1-.7,7.6-5.4,3.2-8.1-1.5l-4.5-7.3-2.4.3c3.3,9,8.3,17.3,14.9,24.7,7.7,5.5,15.7,10.5,24.1,15.2,7.9,8.1,15.5,16.7,22.9,25.8,15.9,21.5,31.9,42.9,49.7,62.8s10.2,9.7,17.5,10.9c1.7-11.7,5.3-22.8,10.9-33.3l-1.5-2c2.8-5,5.2-10,7.3-15-1.3-1.2-.9-1.8.8-1,7.2-7.9,13.5-9.1,19.1-3.6,4.2-2.3,12.5-4.2,15,1.1s-.2,1.8-1,2.4c.3,1,0,1.4-1,1-9-5.3-11.1,4.8-16.2-.7s-3.2-2.6-5-2.2-3,1.3-4.1,2.6c-10.9,13.2-18.9,38.7-18.7,55.4s-1.8,7.4,1,12,1,5.2,3.2,6.4,5,1,8,2.1c-1.7,3.1-5.6,1.4-8.5.4-4.5-1.6-7.7-16.1-6.7-22-8.3.8-14.4-2.3-20.1-7.8-15.3-14.8-27.8-31.2-40.5-48.4s-16.6-24.9-27.6-35.3l-8.3-7.8c-6.8-6.4-16.6-9.2-23.7-15.1s-16.4-23-15.6-26.8,5.9-5.7,5.8-7.9-1.2-2.7-1.9-3.9c-1.3-2.1-.7-4.1.7-5.6s3.1-3.3,5.4-3.3Z"/>
    <path class="st7" d="M327.8,2058.7c1.3.2,1.7,1.8,1.2,3,7.3,20.9,10.6,43.1,7,65-1.9,11.5-5.1,22.8-8.9,33.8-8.1,13.3,2.5,13.9,2.8,20-1.7.2-3.4,0-5,0-2.3-4.3-6.4-9.1-4.5-14.6,14.4-41.3,17.2-65.7,5.1-109,2-.6,1.6,1.3,2.3,1.9Z"/>
    <path class="st96" d="M384.1,2125.3c.8,1.1,18.2,26.6,18.8,29.3-1.6.1-3-.5-4.2-2.1l-23-31.7c-10.2-14.1-18.9-28.7-25.9-44.2-.9-1.8-.3-2.3,1.3-1.1,9.8,17.3,20.8,34.1,33.1,49.7Z"/>
    <path class="st9" d="M225.1,1941.7c-1,1.2-2,2.1-3,2.9l.4,2.7c-2,9.1-2.7,18.2-2.1,27.3,1.2,3.7,1.4,7,.7,9.8,0,.6.1,2.8-.8,2.2l-5.6-3.5c-.8-.5-2.2.2-2.4-.5s-.3-1.6-.3-2.1c-1.6.1-1.5-2.7,0-3-.5-9.7,2.3-30.9,9.3-37.7s.8-.3,1.5-.2c.8.6,2,.8,2.2,2Z"/>
    <path class="st71" d="M288,2021.9c2.4,2,1.7,2.2-2,.6-6.1-3.5-12.2-6.1-17.9-9.8-4.7-3.1-9.5-3.1-15-3.7s-7.3-4.9-10.4-7.1c-7.4-5.2-8.6,7.8-29.6,0-1.7.3-1.8-1.6-.2-1.4l2.1-.7h1c1.1-.2,1.9,0,2.4.5,3.4,1,6.8,3.3,10.2,1.8s6.9-5.3,11.2-4.4,7.7,6.9,12.2,7.8l11.7,2.3c9.3,1.8,16.3,9.6,24.2,14Z"/>
    <path class="st79" d="M116.2,2079.6c-.4.4-1,.7-2,1-3.9.4-7.8-.6-12.1-.7l-24.4-.7-46.3-.7c-.7,0-1.2,0-1.1-.7,8,0,16.3.5,24-1.2s9.3.6,13.9.9c6.7.5,13-.4,19.5.6,9.3,1.4,23.5-.8,28.5,1.5Z"/>
    <path class="st49" d="M223.2,1947.7c-2.5,19.7-3.3,22,1.7,39.9.5,2,2.4,4.2.2,6.3-1.7-3.6-3.1-6.5-4.1-9.5-5.7-17.3.7-32.4,1-39.9,1.4-1.6,1.8-.6,1.1,3.1Z"/>
    <path class="st33" d="M299,2010.6c1.2,1.7.5,2-2,1l-25.3-9c-4.2-1.5-7.8-3.6-12.7-2.8s-2.6-.8-3.2-1.4-1.1-2.5,0-2.5c15.4,3.5,29.2,9.6,43.2,14.7Z"/>
    <path class="st72" d="M242.9,1944.5c-2.4,13.6-3.3,27.3-2.8,41.1,0,1.5.2,3-1,4-1.5-5.3-.8-11-1-17-.4-10.3,0-20.1,4.1-28.9.8-.4,1.1-.1.8.8Z"/>
    <path class="st55" d="M116.2,2079.6h32.9c0,0,12.1,1.8,12.1,1.8-11.1.2-22.3.7-33.7-.1s-9-1.1-13.3-.6c.2-.9,1.2-1,2-1Z"/>
    <path class="st107" d="M308.9,2034.8c.2.8,0,1-.8.6-8.1-4-14.9-8.8-22.1-12.9.3,0,.8,0,1.5,0s1,0,.5-.7c7.6,4.2,14.3,8.2,20.9,12.9Z"/>
    <path class="st52" d="M218.5,2000.3c-.6-.2-1.4.1-2.4-.5.4-.5,1,.2,2-.6-1.6-.5-3.2-2.5-5.1-2.4s-2.4,3.5-4.1,4.7c-1.1-1.6,0-5.4,1.6-6.4,3.1-.3,6.2,1.6,9.5,2.3-.3,1.7-1.1,2.2-1.5,2.9Z"/>
    <path class="st38" d="M320.7,2043.5c1.4,1.3.9,1.8-.8.8-4.8-1.9-7.8-6.9-11.8-8.9l.8-.6,11.9,8.6Z"/>
    <path class="st120" d="M212.1,1977.6v3c-.9.8-1.2,2.3-1,4,.3,1.8-.7,2.6-1.2.7.6-1.6-.6-14,1.2-12.8.6,1.2.9,2.8,1,5Z"/>
    <path class="st17" d="M297,2011.6c.8,0,1.7-.2,2-1,3.2,1.1,5.6,2.1,8.1,3.8-4.1.5-7.3-1.1-10.1-2.8Z"/>
    <path class="st90" d="M351.1,2075.6c-.4.3-.9.7-1.3,1.1-1.3-2.8-4.3-5.2-3.7-9.2,2.1,2.7,3.4,5.4,5,8.1Z"/>
    <path class="st91" d="M319.9,2044.3l.8-.8c1.7,1.3,3.8,1.7,3.1,4.2-1.9-.5-2.6-2.8-4-3.4Z"/>
    <path class="st40" d="M329,2061.7c-.3-1-1.5-1.7-1.2-3,.9-.2,2.5,0,2.2,1.2s-.7,1.1-1,1.7Z"/>
    <path class="st52" d="M215.1,1999.8c0,1.1-1.4.7-2.1.7.7-1,1.5-.7,2.1-.7Z"/>
    <path class="st65" d="M163,1592.7c.9.2.9.6,0,1l-.9,1.1-2.5,1.5c-5.7-1.1-11.5-1.2-17.1.4-14.2,3.9-15,8.9-15.4,22.5.8,4.8.4,8.9-1,12.5l-30.8.9c-11.3,8.6-13.5,2.7-19.9,6.1-1.3.7-1.5,2.1-.5,4.6-2,1.7-3.9.2-5.8-.4-7.7.9-23-6.3-15.6-16s17.5-17.7,27.9-15.3c-1.7-15.1,18-26.9,31.2-26.9,9.3-10.7,29.6-24.9,42.6-13.3,1,0,2.4.1,3.2.7,1.5,1.1,6.2,16,6,18l-1.4,2.5Z"/>
    <path class="st59" d="M203.9,1591.7c.7,5.5-10.5-.4-22.7,4.2s-6.3,8.6-18.9,12.2l-2.2-3.5-16.2,3.9c-5.6,1.3-6.9,16.9-7.3,21.5-4.1,1.5-8.8,5.6-10.5,1.7-1.5-7.7-1.1-15.9,0-24,.6-4.9,4.1-7.4,7.8-9.5,9-5.2,18.6-5.7,28.3-3.4l.9-1.1v-1c-.6-3.3,5.4-8.8,8-6,10-4.1,27.6-7.3,32.8,5Z"/>
    <path class="st59" d="M41.1,1664.8c9.3-3.2,20.3-20.5,53.8-5.8,1.2-4.8.9-9,3.1-12.3,1.1-1.2,2.7-3.6,4.4-4.5,6.5-3.8,14.7-2.5,20.2,2.6-21.9,14.2-6.8,19.9-26.3,25.7-1-1.9-2.7-2.4-4.9-3.1-10.9-3.7-22.8-6.6-34.4-3.7-6.2,1.6-12.5,18.9-20.7,23.6-3.9-5.9,2.9-17.1,4.8-22.4Z"/>
    <path class="st93" d="M171,1586.7c-3.2,1.3-5.2,4-8,6l-4.8-18c-.4-1.5-3.7-1-4.3-1.9-1.8-2.9-3.9-2.9-6.7-3.3-6.3-1.1-10.9.2-16.1,3.4-6.3,3.8-12.6,7.2-17.6,13.5-9.9-.2-17.2,5-24.4,11.1-4.6,3.9-7,8.7-4.9,15-3.8,2.9-9-.3-12.5,1.5-6.5,3.5-11.6,9.4-16.8,14.3s-1.4,4.7-1,6.1c.9,3.3,12.1,7.5,15.1,8.5,0,.4.2.9.6,1.1-9,.7-18-2.2-22.7-10-2.9-4.9-3-10.3-2.8-16.2-5.6-2.2-7.6-6.9-10-11.1l2.5-.5c1.4,2.5,4,1.3,5.9,0-10.8-11.5-9.8-26.8,3.5-35.7,5.3,2,6.2,1.5,11.1-1.8l.5-10.7c3.5-4.5,8.4-7.7,14.7-9.6.9-24.4,23.1-31.6,43.9-24.9,3.5-2.4,6.4-3,8.6-1.7,1.3.5,1.9,2.6,3.2,3.5,7-3.3,25.1,6.8,28.1,10.3,7.3,8.4,7.5,19.6,3.2,29.9,5.8,1.8,8.2,5.5,9.2,10.6s2.7,7.1,2.3,10.7Z"/>
    <path class="st59" d="M124,1519.6l1.1,1.2v.9c0,0-8.3,3.8-8.3,3.8-6.8-1.4-13.9-3.4-21.3-2.1s-12.6,4.6-16.2,9.3-3.5,11.2-5.3,16.8l-12,6.1c-4.1,2.1-2.7,9.3-3.1,13.9-2.7,1.9-6.6,5.2-8.9,4.1l-3.3-1.6c-4.7,3.9-9.4,10-9.6,16.7s4.4,12.5,8.5,17.8c-2,1.7-4.7,3.1-7.3,3s-2.7-2.4-4-2.9c-6.4-11.7-6.7-27.1.2-39,3-3.4,6.7-4.2,11-4.4.7-4.5,2-9,3.9-13.5,2.2-2.6,4.3-4.9,7.8-5.9l4.1-2.1c2.6-.7,3-3.3,4.3-5.8,6.1-12.2,11-19.8,23.7-24.2,11.7-8,25,.5,34.6,7.8Z"/>
    <path class="st34" d="M124,1519.6l-12.6-6c-6.9-3.3-15-4.3-22-1.8,10.2-11.5,25.5-2.4,34.6,7.8Z"/>
    <path class="st15" d="M34.5,1567.7c2.5-4.4,5.8-7.4,11.2-9.8,1-2.5,2-6.1,3.7-8.2-.8,4.8-2,9.5-1.7,15.3-4.8.6-9.1,1-13.2,2.7Z"/>
    <path class="st20" d="M61.3,1541.7c0,2.3-2.3,2.3-4.1,2.1,1.2-.3,2.2-2.8,4.1-2.1Z"/>
    <path class="st93" d="M125.1,1520.8l-1.1-1.2,1.1,1.2Z"/>
    <path class="st65" d="M385.1,1810.7c.1,4.3-.4,7-2.3,9.9l.7,1.2c-1.8,9.4-.6,18.9,3.6,28.4,2,1.7,4.5,1.8,7.6.4-.9-1.8-.2-2.3,1.4-.9,2.5,3.9,2.8,7.2.9,10l-25.8-.5,25.8.5c.5,0,.9,0,1.4,0,1,.3,5.3,17.8.5,19.3-2,3.6-1.5,7.4-.4,11.2-.5,1.9-27.6,21.2-33.1,19.8-15.8,0-33.5.2-47.4,8.7-2.6.5-5.7,4.1-7.9,1,1.7-3.8-4.8-2-7.1-.9-3.2,3.4-9.5,4.8-13.9,4s-.6-.6-.9-1.2l-2.1,1.5c-13.2,2.2-26.2,5-39.1,8.2-2.1-1.5-3.3-3.1-3.8-4.7-3.5-7.9-12.7-1.3-14.3-1.4s-2.1-2-3.4-2.7c-8.3-4.8-11.9,8.8-15.4,4.2-4.7-.7-9-2.2-12.9-4.6-18.3-19-37.4-37.5-57.4-55.3l-12.5-9.1-1-21.1c-.6-.1-1.1-.3-1.3-.7-1-1.7-4.2-8.9-5-10.9s.2-.8.7-1.3c1.6-1.8,3.3,1.8,4.8,1.7,13.9-.2,27.1-2.4,41-3.5,14.8-6.6,29.6-10.6,45.6-13.6,33.1-6.2,82.2-11,115.2-6.1,1.9,2,1.9,5.1,3.7,6.5s5.3-1,7.8-1.4c15.1-2.6,29.9-3.7,45.1-3.6.5-2.3.2-4.2.2-6,.4-.8.7-.8,1,0,.3,4.3-.9,8.7.2,13Z"/>
    <path class="st65" d="M389.9,1776.5c-2.5,6.9-5.4,13.7-5,21.1-.3,0-.7,0-1,0-6.8-3-15-3.7-23.1-4.7s-13.4,1-19.8,1.7-5.5-1.8-8.5-2.4c-12.7-2.6-47.4,1-50.2-2.2s1-2.7,2.1-2.8l13.5-1.4c8.7-.9,17.3-2.4,26.1-3.1l18.8-1.6c5.1-.4,10.8-2.2,15.6-3.6s8.1-6.7,13.5-6.6c4.2,0,8.6-2.8,12.6.5s3,4.5,5.4,5.3Z"/>
    <path class="st62" d="M120.6,1823.7c1.1,1.9,1.6,4.3,3.3,6.3s2.1,4.4,2.3,6.6c-.4,3.7-.4,7.6,0,11.5l-1.3.6c-2,.3-3-.8-2.9-3.5.4-7-1.5-13.7-5.7-20.1l-3.3.7v2.1c2,15.4-14.5,2.4-16.8-6.2h-2.3c-2.3-4.6-4.6-9.1-6.8-13.6l1.1-2.2c-.7-.3-.6-.7,0-1,.7.8,2.2.9,3.1,1.4,1.9-.7,2,0,.7,1.5,2.4-1,2.6-.2,1.1,1.9l2.4.6c1.3,3,6.1,13.5,8.7,14.5s10.9-4.7,11.7-6.1l-.9-2.9c-2.4-2-3.8-3.9-4-5.9-1.5-.5-2.1-1.3-1.9-2.3-3.4,0-7.7-4.5-7.3-7.9-1.5,1.9-3.2,2.7-5,2.3-1.8,2.2-2.8,1.1-1.2-1,1.4-1.4,3.1-6,6.2-5,8.2,2.7,25.2,15.5,18.9,21.4s-1.7,4.2-.4,6.4Z"/>
    <path class="st69" d="M84.1,1803.6c1.5-.7,2-.3,1,1.1,1.3,2.5-1.4,5.5-4,4.1-.2,1.8-.5,2.5-1.8,1.1l-.3,2.7c-1.9,1-3.2,2.5-3.7,4.3,2.2,5.8,3.8,11.6,5,17.4-5.9,5.7-10.1-8.6-11-13.7,0-.3,0-.7,0-.9l1.8-6.3c0,.1,11.7-9.6,13-9.7Z"/>
    <path class="st19" d="M97.1,1801.9c1.7,1.8-3,6.4-4.8,5.8,0-.5-.3-1.3-.7-1.5,1.4-1.8,2.9-3.7,4.4-5.3-1,1,.4,1.5,1.2,1Z"/>
    <path class="st8" d="M88.4,1804.8v1c-2.1,1.7-2.8,1.5-3.4-1.1l-1-1.1c.8-.1,1.3-1.5,2.5-.9s1.2,1.4,1.9,2.1Z"/>
    <path class="st65" d="M574.5,1995.7l1.2.8,37.8,1.8c2.5-1,4.2-.9,5.2.4,6.6,2.5,14.3,3.4,21.9,2.8l14-1c2-.5,1.5,1.3.1,2.3-1.5,2.7-3.9,6.3-6.9,7.6-1.9,1.7-5.8,4.1-8.2,4.9-5.2,1.2-9.9-2-15.1-1.5-9.8,1-20.1,1-29.4,4.5-16,6-27.3,19.4-35.7,33.8-1.3,2.2-2.1,4.2-3.6,5.5-.9-1.2-1.3-.6-1,1.9-.3,2.2-2.2,4.1-2.7,6.6-2.6,12.7-4.9,25.1-6.6,37.5s1.5,23.7,3.3,30.9,1.7,12.4-.4,18.6c-3.6,10.8-.2,20.8-.6,27.2-3.7.5-7.4,0-11.2,0-1-12.1-8.1-13.1-7.5-18.1s10.5-11.8,12-13.5c4.2-4.9-7.1-16.7-8.3-22.7s8.5-32.6,6-37.5l-2.5-4.7c-1-1.9,2.2-4.4,2-7.3-11.6,12.2-14.5,20.3-30.4,29.2s-7,3.8-9.1,1.3v-1.1c22.2-24.6,44.2-49.6,66-75.2l-2.1-.3c.1-.2,0-1,0-1.3s-.8-.3-1.2,0l-27.1,17c-3.3,2-6.9,5.4-9.1,8.6-7.1,10.2-14.8,18.9-22.6,28.6s-36.4,47.6-41.7,42.1l-.9-1c20.9-29.3,41.9-58.5,62.9-87.8,17.3-25.5,33.7-52.4,41.3-82.4l1.4-1.8c1.1-5,1.8-10,2-15,.2-.9,1-1.4,1.4-1s1.7,1.8,1.6,2.6c-1.4,10.2-5,19.8-7.2,30.2-3.7,17.4-10.5,33-17.8,49.1l21.6-19.5c1.3-1.2,1.2-3.4,3.1-3.6s3.1.6,4.1.3Z"/>
    <path class="st65" d="M580.2,1215.2c-14.6-9.4-29.5,2.6-37.7,13.4-2.6-1.1-6.4-2.6-7.9-5-2.3-10.6,17.8-20.7,26.1-26.1,7,.7,12.7,3.6,18.7,6.5.5,4,1.4,7.7.8,11.2Z"/>
    <path class="st59" d="M712.7,1247.2c-2.3,2.4-1.8,5.8-2.2,8.6s-6,4.8-7.5,2.6c-2.5-3.6-2.4-10.9-.3-15,3.5-7,10.1-12.9,17.4-15.9,10.6-4.4,22.2-.4,30.6,7-2.7,2.6-5.3,3.1-8.3,4.3-15.2-6.3-20.6-1-29.6,8.4Z"/>
    <path class="st65" d="M144,1243.8c.5,3.1,5.1-1,7.2-.9,4.8.2,9.6,1.9,9.6,6.8l-6.4,7.1c.3,1.8,1.7,2.6,1.8,4.7-11.5-2.4-22.1,13.6-28,22.2s-2.5,7.7-.4,11.6,2.8,7.9,6.2,11.4c-2.4,3.1-5.4.2-7.8.9-4.4,1.3-8.1,1.3-12.3.8s-6.4-2.4-7.1-6.2c-2.2-10.9,4.6-18.5,7.6-27.9s-.4-9.6,3.3-15.2c5.9-9.1,14.9-16.6,26.4-15.4Z"/>
    <circle class="st67" cx="216.6" cy="1301.8" r=".6"/>
    <path class="st21" d="M785.4,1908.5l1-1c3.3-2.1,4.2,2.3,1.4,3.7s-4.5-.7-2.4-2.7Z"/>
    <path class="st60" d="M499.8,1190c-2-1-4.5-.5-6-2.1,2.2,0,4.9,0,6,2.1Z"/>
    <path class="st60" d="M504.8,1192c-1.5,0-3-.7-4-1.9,1.6-.1,3.3.4,4,1.9Z"/>
    <path class="st93" d="M824.5,1913.8c-.6,2.4.9,4.9,4.3,7.7,2.9,4.1,5.3,8.4,7.1,13.1-.8.7-.3.7,1.4,0l23.6,51.7c1.5,3.4,1.4,6.8-1.8,9.2-8.8,6.6-19.1,11-30.5,12.5l-11.3-25.3c1.1-1,2.1-1.2,2.8,0l6,12.6,1.3-1.7c-.8-2.4-.4-3,1.1-1.9,1-.4,1.6-.3,1.8.6-8.3-19-17.3-37.6-26.8-55.7-1,2.2-1.7,2.5-2.1,1-1.4,0-2.7.3-3.8,1.1-2-4.8-7.2-12.2-.8-17s14.4-6.3,21.2-9.6,5.5.2,6.5,1.6Z"/>
    <path class="st65" d="M473.9,1834.7c-1.7.3-.6-4.2-.5-4s-.4,4.4-1.7,3.8c-.8,0-1.6,0-2.2.2-2.9,1-1,6.2-2.5,7.8-1.7.7-1.7-2.9-1-3.1,1-.4-2.1,22.2-10,12.4-2.1,2.1-5,3-8.5,2.9-.7,3.4-1.7,4.5-3,3.3-2-.6-7,.5-8.4,1.6-1.4,1.4-3.2,1.1-5.3-.7-2.3-1.1-3.2-.9-2.8.7-1.5,2.1-4.8,2.3-6.2,0-3-3.8-4.7-2.3-9.7-3.9-6.1-8.5-9.1-12.8-9.1-12.8-5.4-12.6,5-11.7,9.1-1.7,4.5-.7,6.5.2,5.8,2.6,1.9,2.9,7.5,1.1,10-.1.2-4,5.6-2.5,5.8.9,3.2-.8,6.8-.5,10.9,1,3.5.3,13-.7,10.2-5,2.3-15.3,3.8-30.8,4.4-46.6,0-11.6-4.7-21.4-14.3-29.3-2.8-2.5-3.4-4.9-1.9-7,11.6.9,24.7,12.5,28.6,24.3,2.3,7,3.7,14,3.3,21.6s1.1,21.2-1,31.1Z"/>
    <path class="st65" d="M648.8,2011.4c1.3-2.9,3.8-5.9,6.4-7.7-.3-2.1,1.4-5.7,3.5-5,2.1,1.7,5.2,0,7.8,0l1.3.9c.8-3.2,2.1-4.6,3.8-4.2,0,.7-1,1.1-.9,2.3l17-3c-.1,5.7,0,11.5-1.3,17.6-2,9.3-16.7,18.9-27.5,12.6s-9.8,2-16.4-8c3.3-1.6,4.4-3.9,6.2-5.7Z"/>
    <path class="st111" d="M406.9,1857.8c-1.1,1.2-2.6,1.6-4.5,1.1l2.1,9c5.5-3,11.3-5.1,17.4-6.4,3.2,0,5.1-.5,6-1.9-1.2-.8-2.9-.7-3.8-2.4,4.5-1.5,8.5.3,11.9,2.5,0-.9.4-.8.8,0l2.2,1.8c2.4-2.8,10.5-.2,14,1.1s1,1.1,1,2c-.7.2-2.1,0-2.2,1l-3,1.4c-12.8-2.1-26.2-.2-37.7,6l-3.3-.4c-5,3.1-10.7,8.2-8.6,14.9,2,.2,2.6.8,1.6,1.9.7.5,1.3,1.6.9,1.9-2.5,1.7-5.1,3-7.8,4.3-1.9,1.7-4.9,2.8-6.9,4.8-18.2,18.5-33.7,5.8-61.7,16.4-2.8,1.1-4.9,1.4-7.4,1.8.8-7.5,27.3-9.6,33.9-10.6s8,.6,12,.6c7.3.2,13.6-5.8,19.4-9.7l13.8-9.3c-2-5.7-1.1-11,2.8-15.4l-2.8-14.8c-.6-3.2-.9-6.7-.9-10-2.2-1.7-1.8-2.6.8-3,.7.6,1,1.5,1,2.8,0,9,9.6,5.3,9.1,8.4Z"/>
    <path class="st65" d="M542.8,1909.7l-19.6,2.4c-5.4.7-11,1-15.7,4.1l-18.7,12.3c-1.9,1.3-4.5,2.1-6.6,0,7.2-10.4,17.3-16.2,29-21-5.4-3.1-17.8-6.2-18.5-10,3.4,1.5,6.9,2.6,10.3,4.8,15.5,10,26.3,1.5,39.7,7.3Z"/>
    <path class="st48" d="M801.4,1937.6c2.8,4.1,4.8,8.4,6.1,13,6.2,10.7,11.2,22.6,16,34,.8.2.9.5.3,1.1,2.1,1.6,3.7,5.2,3.7,8-.6-1.1,4.2,9.6,3.2,10-4.4,1.9-8.6-17.3-13.4-21s-17.6-38.6-19.8-44c-.1-1.3-.3-3.8,2.1-3.9s1.6,2,1.8,2.7Z"/>
    <path class="st65" d="M451.8,1865.7c5.8,1.3,11.6,5.6,16,9-3.6,1.6-6.4-1.8-10-2.8-34-9.5-39.2,5.1-49.4,3.5s-1.1-1.7-.7-2.7c12.7-7.8,29.3-10.3,44-7Z"/>
    <path class="st58" d="M454,1864.7c-4.8-1.4-9.7-3.5-14.9-3.2-.5-.4-.5-.7,0-.9-.9-.5-1.3-1.2-1-2.1,2.8,0,5.5-.4,8-1.1,0,1.7.5,2.4,1.7,2.2,0-2.3,1.7-2.5,4.8-.5,3-1.1,5.4-1.2,7.2-.3.2-2.8.7-2.7,1.9-.3l2.3.2c2.4-.3,3.6-3,6.4-4,0,6.1.1,11.4-1.1,17.3-5.6-4-10.2-5.8-15.3-7.3Z"/>
    <path class="st51" d="M467,1842.6c0,5.3-1.5,10.4-4.1,15.1.8,1,0,1.4-1.1.8-.6.2-1.4,0-1.9.3-2.9-2.5-11-1.6-12,.8-2.6,2.7,0-1.4-6.3-1s-2.3.3-2.4,2c-.7.5-1.4.3-2.3-.9-.2,0-.6,0-.8,0-.1-.7-1.1-1.4-.4-2.2,3.6-.4,7.3.7,10.1-.4.2-1.2-1.1-3.3-.5-3.7s2.7-.6,3.4-.4c3.5.9,4.4-1.3,6.3-2.7s4.1,1.6,6.2,2.6l4.2-14.4c2.2,1.1,1.4,2.8,1.7,4Z"/>
    <path class="st65" d="M680.3,1953.3c-13.1-2.5-10.9,2.8-13.5,3.1s-4.4.2-5.7-1.4l-4.2-5.2c1.4-.2,2.4-3.1,5-.9,4.8,4,7.8-3.5,15-1,2.6.9,2.3,3.5,3.5,5.5Z"/>
    <path class="st61" d="M824.5,1913.8c3.8,5.5,8.8,6.7,12,18.7l.9,1.1c0,.3,0,.6,0,.9,0,.6.1,1.6-.7,2s-2-.4-2.4-1.5c-3.3-7.6-7.6-14.1-13.5-20,1.1-1.6,2.5-1.3,3.8-1.2Z"/>
    <path class="st82" d="M655.3,2003.7c-1.9,2.7-4.1,5.4-6.4,7.7.6-.9-.2-1.5-1-1,2.4-2.2,4.2-5.4,6.9-7.6.7-.4.9-.1.6.8Z"/>
    <path class="st115" d="M555.8,2057.6c0,.6-.9,1.2-1,1.9-2.6,1.7.6-11.2,2.9-11.1-.2,3.7-2,6.2-1.9,9.2Z"/>
    <path class="st28" d="M473.9,1834.7c-.1.4-.8.6-1.1.9,0-.5-.8-.9-1.1-1.1.4-1.6.9-3.3,1.6-4.9,1.1,2.3.3,3.7.6,5.1Z"/>
    <path class="st65" d="M547.8,1910.6c-1.4,0-3.5.6-4.2-.9,1.6-.8,2.9.6,4.2.9Z"/>
    <path class="st122" d="M464,1858.7c-.2.2-.5.7-.9.7-.6,0-1.1-.5-1.4-.9.3-.3.9-.5,1.1-.8.3.4.7.8,1.1,1Z"/>
    <path class="st66" d="M690.6,1985.4c0,9,30.8-15.9,32.5-17.3,11-9.9,21.2-19.7,31.7-30.2s20.4-19.8,30.6-29.4c0,.9.8,1.4,1.6,1.1s.7-.9.5-1.5-.6-.7-1.1-.6c4.9-4.7,19.7-5.6,26.9-12.2s3.2-2.8,5-3.5c.7,4.1-1.2,8.4,1.3,13s-22.6,9.7-25.9,12.8c.3-2.1,2.1-3.8-.4-5.5-2.9,5.4-5.5,10.3-9.6,14.6-14.3,15.2-28,30.3-43.5,44.4s-23.5,21.1-36.5,30.4-8.6,4.9-12.9,3.1c0-6.9.7-13.1-.1-19.2Z"/>
    <path class="st93" d="M837.4,1933.6c-.4-.3-.8-.6-.9-1.1.6-.3.8.6.9,1.1Z"/>
    <path class="st66" d="M443,1757.7c1.5,5.8,13.9,15.4,15.9,21.6,3.4,10.6,2.4,22.3,1.2,33.3l-2.3,21.9c-.3,2.7-1,4.9-3,6.1.4,3.3-3.5,3.7-6.3,3.9s-6-.2-8.8-1.1c-1.6.8-2.9.6-3.8-.9-1.5-1.1-2.7.5-2.2,1.1.8.3.8.5,0,.8-1.4-.5-4.4-1.8-5.8-.9-.3.9-.6.9-.9-.1l-3.2-.9c.2,3-5.1,4-6,1.1-1.5-1.9-4.6.3-6.3-.6-3-1.4-3.1-5.9-5.8-7.6s-2.8.7-2.9,1.5c-.3,2,5.4,11.1,7.6,13.1s2.5,1.5,2.4,2.9-.3,1.8-.7,2.6c-8.1-2.5-3.2-3.6-9.8-3.5-9-11.5-.3-25.8-9.2-22.7-4.5-12.6-7.2-26.6-3.4-40.2,1.7-5.9,3.4-12.3,6.8-17.4s10.3-8.3,15.7-9.6c6-1.4,10.8-2.5,16.2-5s10.1,0,14.7.3Z"/>
    <path class="st112" d="M386.7,1820.8c1.9,14.1,7.6,12.6,7,18s1,6.1,3.1,7.8c.3,1.1-.8,2.1-.8,3-.3.4-1.1.5-1.4.9-3.1,1.7-6.2,1.7-8.1-1.5s-6.1-23.9-2.7-27.9,2.2-1.7,2.9-.3Z"/>
    <path class="st1" d="M406.9,1857.8c3.7,2.6,10.5,5.5,14.8,1.8,2.1-.2,4.1,0,6.2,0,.7.5,3.7.7,2.4,2.2-10.1,1.4-18.8,4-27.1,9.1-1.6-5.4-2.5-9.3-3.3-14.1,2.4,0,5.2-.3,6.9.9Z"/>
    <path class="st10" d="M385.7,1818.9c.2.7.9,1.2,1,1.9-7,0-.2,23.9,1.7,28.4,2.4,1,4.3.8,6.2,1.4-1,2-3.1,2.8-5.2,2.7-5.4-.2-5.8-9.4-6.9-13.2-1.9-6.6-2.6-13.6.2-19.5-.4-2.3,1.3-3.4,3-1.7Z"/>
    <path class="st2" d="M385.7,1818.9c-1.1.3-2.2.9-3,1.7-.6-.7-1-1.6-.8-2.3s.9-1.3,1.6-2.1c1.6-1.8-.4-4.5,1.5-5.6.7,2.7,1.3,5.5.6,8.2Z"/>
    <path class="st57" d="M791.3,1860.8c2.7.8,4.7,4.2,5.2,6.8-4.9,4.4-8.5,6.8-15.1,6-.7-1.1-1.2-2.5-2.3-3.3-1.7-5.2,8.7-8.5,12.1-9.4Z"/>
    <path class="st89" d="M796.5,1867.6c-1.5,1.3-4.7-5.7-5.2-6.8,2-.5,4.1.3,5.2,2.3s1.7,3,0,4.4Z"/>
    <path class="st7" d="M565.7,1952.6c-2.1,12.2-6.2,23.8-11.8,35.5-9,18.6-19.2,35.8-31.2,52.6l-27.5,38.4-34.2,46.6c-.6.3-1.3,1.1-1.7.7s-1.3-2-.6-3l57.9-81c12.2-17.1,22.7-34,32.3-52.5,6.9-13.2,11.7-26.5,15.7-40.2,2.1-.8,1.7,1.1,1.1,2.9Z"/>
    <path class="st65" d="M471.6,1886.4c.9,1.5-2.4,2.3-3.7,2l-14.2-2.7c-21.2-4.1-42.5,6-60,10l6.9-6.2v-1.1c3-1.8,6.1-3.3,9.2-4.6,1.8-3.4,8.4-5.4,12.5-6.5,15.7-4.3,34.2-3.5,46.4,8.4l2.7.7Z"/>
    <path class="st37" d="M498.8,2107.2c-1.1-1.3,0-3.2,1.2-4.6l62.7-72,18.1-19.5c.6-.6,2.2.2,2.5.6s0,1.3-.6,2c-11.7,11.9-21.4,24.6-32.5,37.3l-46.2,52.7c-1.6,1.8-3.1,3.1-5.1,3.6Z"/>
    <path class="st65" d="M279.8,1925.6c-.5-2.9,6.2-3.9,6.3-1.2,2.8-2.5,6.1-2.1,9.5-1.4,2.3-1.1,4.5-1.6,6.5-1.4-.5,1.5-1.5,2.5-2.8,3.9,8,5.4,12.7,12.9,16.4,21.4s4.7,8.3,3.6,13.5c-13.8-4.5-8.3-16.2-29.9-32.3-3-2.3-5.5-3.8-9.5-2.5Z"/>
    <path class="st96" d="M471.6,1886.4c-.8,0-2.4,1.2-3.5.8-14.5-14.5-44.5-11.8-58.2-3.4-3.7,2.2-5.6,2.9-2-1.1,18.6-12.4,48.4-14.9,63.6,3.7Z"/>
    <path class="st50" d="M618.7,1998.7c-1.5,0-3.3,1.8-5.2,1.6-13-1.3-25.5-2.1-38.8-2.1-1.1,0-.2-2.1-.2-2.6,1.5-.5,2.8-1.5,5-1.6,13.4-.5,26.8.3,39.7,2.6.2.9-.2,1.6-.4,2Z"/>
    <path class="st36" d="M288.1,1921.6c1.3,1.6-.2,2.4-2,2.8-2.3-1.2-4.2.7-6.3,1.2-7.1,1.7-14.1,4-21.8,5.2-3.5.5-8-.5-9.8,3l-5.4,10.7-.8-.8c1.6-3.4.5-8.7,4.5-12-2.3-1.8-3-3.2-4.6-4.1.4-.3.8-.6,1-1,1.7,3.8,6.3,2.8,9.4,1.7,6.7-2.4,13.4-3.1,20.3-4.8s10.3-1.5,15.3-1.9Z"/>
    <path class="st33" d="M658.7,1998.7l-3.5,5c-.7.3-.5-.4-.6-.8v-2.3c8.2-11,3.2-31.2,7.9-41.8,2.3,5.6.2,10.6.5,15.9.6,8.6-1.9,16.4-4.4,24.1Z"/>
    <path class="st70" d="M671.6,1995.5c-2.7,3.3-6.7,17.8-12.8,18,2.3-6.4,7.1-9.4,7.7-14.8s1.7-2.3,1.6-4.1c-.2-2.6.1-17.9,3.4-13.3s1.2,10.7.1,14.2Z"/>
    <path class="st47" d="M309.9,1919.6c-2.6-.2-5.8,0-7.8,1.9s-6,4.4-10.2,2.7-4.2,1-5.7.2c.4-1.1,1.2-2,2-2.8,1.7-.1,3.5-1.8,6-1s4.5-1,6.3-2.4c4.8-4,11.3-3.7,14.7,1.2-2,.3-3.6.3-5.2.2Z"/>
    <path class="st64" d="M554.6,1964.2c-5.2,2-10.7,1.2-17.2,2.2-.7-6.9,9.9-3.5,17.2-2.2Z"/>
    <path class="st76" d="M565.7,1952.6c.2-1-.6-2.1-1.1-2.9,1.2-4,2.4-8,3.1-12.1,2.9-.8-.9,15-2,15Z"/>
    <path class="st38" d="M410,1883.8l-9.2,5.7c-.7-.5-1.3-1.1-1.6-1.9,3.7.2,5.9-3,8.8-4.9l-1.1,2.2c1.5.1,2.2-.8,3.1-1.1Z"/>
    <path class="st29" d="M578.6,1962.7c-.7,1.7-.9,2.5-1,3.8-.6.2-1.1-.7-1.4-.9-.6-.3,1-4,1-4,.5-.2,1.8,0,1.3,1.1Z"/>
    <path class="st113" d="M222.9,1939.7c-7.3,9.7-9.6,26.1-10.8,38-1.4-1.3-1.1-3.3-1-5,.3-8.7,3.1-28.5,9.8-33.6s1.3,0,2,.6Z"/>
    <path class="st22" d="M225.1,1941.7c-.4,1.9-1.6,4.1-1.9,6,0-1.1,0-2.6-1.1-3.1,0-.7,0-1.4.5-2s1.6-1,2.5-.9Z"/>
    <path class="st93" d="M88.4,1805.8l8,15.8c.8,3.2,3,5.8,5.2,8.1,4,4.4,19.1,18.2,12,3.2-1.1-2.9-1.2-5.3-.4-7.2,1.1-1.4,1.8-3,4.2-4.1,1.4,4.8,4.1,8.6,5.9,13.1s-.2,9.7,1.7,13.9l1.3.8c-.2,3.4.4,6.5,1.6,9.1,24.5,18.9,47.3,39.9,68.7,63.1,3.6,2.4,7.7,4.1,12.3,5l.3,1c4.9,2.8-2.6,6.3-5.8,17l-5.5,11.6c-2.5,3.9-6.5,9.6-11.7,7.5s-13.8-10-17.4-13.8c-16.6-17.8-32.4-36.5-47.1-55.7l-5.2-5.2c-3.2-1.7-5.2-3.8-6.1-6.3-1-.2-1.1-.6-.4-1.3l-2.6-.5c-7.3-8.1-16.4-14.3-27.4-18.6-7.8-6.9-13.3-14.8-16.6-23.6.9-1,.9-3.2,2.8-3.8,2.9,4.9,5,9.8,8.5,14.3s2.6-.1,1.9-1.4c-3.9-7.5-8.1-14.2-10.9-21.8,1-2.2,2.7-3.6,3.7-5.3,2.9-1.1,4.4,12.4,9.1,14,.4-6.5-4.3-11-5-17.1s3.6-5.7,5.9-7.6c.6.4,1.2,0,1.8-1.1,1.3-1.4,2.4-3,4-4.1,1.2.2,2.3.5,3.3,1.1Z"/>
    <path class="st66" d="M109.9,1881.4c-.8,1.1-.6,1.6.4,1.3,7.8,3.8,13.1,10.1,18.5,17.3,12.8,17.2,26.9,32.7,41.3,48.5,5.3,5.8,11.7,9.7,18,14.2,7.8-2.7,10.4-14.2,15.2-18.1-3.5,11.7-7.6,23-8.4,35.7-12.5-1.5-16.8-6.8-25.3-16.1-24.8-27.3-38.9-52.8-60.9-76.1l-7.6-8.1-22.2-13.2c-2.5-1.5-19.7-23.9-15.7-28.3,4.3,7.1,11.7,15.2,17.8,22.1,10.7,5.7,23.4,10.5,28.8,20.7Z"/>
    <path class="st37" d="M209.9,1926.7c-.1.4-.4.8-.8,1-4.6-1.2-10.9-1.3-14.8-5.3-19.6-20.4-39.2-39.9-61.2-57.7s-8.4-2.3-8.2-16l.2-10c0-.9.3-2.4,1-2.1l2.4,20c13,8.1,23.8,18.1,34.6,28.9l35.9,35.9c2.9,2.9,8.4,2.2,10.8,5.3Z"/>
    <path class="st93" d="M162.2,1594.8c.3-.4.6-.8.9-1.1,0,.7-.3,1.1-.9,1.1Z"/>
    <path class="st65" d="M134.2,1565c-20-6.8-14.4-11.9-36.3,2.3-6.9-2.6-13.6-5.5-20.3-9.3,9.8-10,33.7-32.7,46.8-18.4l8.3-6.5c3-2.3,10,.2,11.9,3.9,2.3,4.5,2.4,9.7,4,14.9-3.3.3-6.4-1-8.5,1.5s-3.6,8-5.9,11.5Z"/>
    <path class="st102" d="M396.9,1859.6l-50.9,2.8c-5.7.1-11.2-2.8-17.1-2.5-4.9-1.9-9.7-1.9-14.1-4.2,28-.6,55.1.6,82.1,3.8Z"/>
    <path class="st45" d="M294.2,1849.7l-16.4-5.8c7.4-.9,14.5-1.6,21.8-1.2-1.7,2.7-3.3,4.4-5.4,6.9Z"/>
    <path class="st68" d="M109.3,1807.5c-.1.9-.5,1-1.1.3,1,2.2,3,4.3,6,6.4-.8,2.6-.2,4,1.9,4.4-2.5,3.4-7.8,8.3-12.4,7.8-5.3-4.2-7.8-11.2-10.4-16.8-.3-.6-.5-1-.3-1.2,2.3-3,6.1-6.6,9-8.8,2.7,2.4,5.3,4.9,7.3,7.9Z"/>
    <path class="st18" d="M113.1,1825.8l4.9,13.9c.5,1.5-4.5,2.8-5.8,1.9-4.6-2.9-19.7-16.9-15.9-20,4.8,4.2,6.1,9.8,15.1,11.9,1-2.5-.8-4.5,0-6.9s1.1-.6,1.7-.8Z"/>
    <path class="st4" d="M111.2,1809.7l7,5.8c-.8,1.3-1.4,2.2-2.1,3-1.9.7-3.4,2.9-6.2,2-.5-2.5,1.9-3.2,2.9-5.2-1.2-2.8-7.5-5.9-4.6-7.5l3,1.9Z"/>
    <path class="st44" d="M102,1799.6c0,3.6-6.7,7.1-8.6,10-.3-.6-1-1.1-1.1-1.9,2-1.6,3.2-3.9,4.8-5.8s3.6-3.5,5-2.3Z"/>
    <path class="st121" d="M118.1,1810.5v.9c-3.9-1.7-5.8-5.2-8.5-7.6-1.6-1.1-1-1.7.8-.9,3.6,1.7,6.1,4.4,7.7,7.6Z"/>
    <path class="st23" d="M110.4,1803l-.8.9c-1.8-1.6-3.5-2.3-4.1-3.9h.9c2.3.3,3.1,2.1,4.1,3Z"/>
    <path class="st77" d="M108.8,1827.9c.4-.3.4,1.3.9,1.8,1.1.9-.5,1-1,1-1,0-1.3-.3-2-1.1s.8-.9,2.1-1.8Z"/>
    <path class="st116" d="M111.2,1809.7c-1.1-.3-3.2-.5-3-1.9.3-.2.8-.2,1.1-.3.4.6,1.5,1.6,1.9,2.3Z"/>
    <path class="st12" d="M106.3,1800h-.9c-1.2-.8-2.1-1.1-2.2-2.3,1.6.3,2.1,1.8,3,2.3Z"/>
    <path class="st83" d="M119.2,1811.7c.5.3.5.6,0,1-.7-.5-.8-1.1-1.1-1.2v-.9c.5.7,1,.8,1.1,1.1Z"/>
    <path class="st98" d="M119.2,1812.7v-1c1.8.2.8,3,0,1Z"/>
    <path class="st114" d="M79.3,1809.9c.5-.4,1.4-.6,1.8-1.1-.8,3,8.3,16.3,4.7,15.9-4-4.5-5.1-9.8-6.5-14.8Z"/>
    <path class="st54" d="M828.5,1991.7c-2.5-.8-3.6-5.5-4-8.1-6.7-10.1-11.9-22.6-16-34-2.4-2.9-4.4-6.4-6-10.4-.6-1.2-.2-1.9,1-2.6.6-.3,2.4-.9,2.9.3,10.2,21.9,20.6,43.2,29.8,66.1-5.1-2.4-5.7-7.4-7.7-11.4Z"/>
    <path class="st104" d="M808.5,1949.6c.4.8,0,1.1-1,1-1.5-3.4-5.3-9.5-6.1-13l2.1-1c-.5.6-.8,1.4-.4,2.3l5.4,10.7Z"/>
    <path class="st41" d="M828.5,1991.7c-.6.5-.9,1.2-1.1,1.9-1.3-2.6-2.7-5.2-3.7-8l.7-2.1,4,8.1Z"/>
    <path class="st14" d="M433.7,1844.6c0-.3,0-.6,0-.8-.3-1.3,1.2-2.1,2.2-1.1,1.3-.2,2.9-1.5,4.6-1,5,1.6,9.9,1.4,14.2-1s1.7-.3,2.3-.1c4,1.1-4.4,10.7-17.7,5.9s-4.1-.1-5.7-1.8Z"/>
    <path class="st80" d="M423.8,1842.7l3.2.9c.3,0,.7.2.9.1,1.4,3.5-9,3.8-9.6,3.4s-1-2.1-.4-3.3c2.1,0,4-.8,6-1.1Z"/>
    <path class="st65" d="M439.2,1860.6c.3.3.2.6,0,.9-1,0-2-.9-2.2-1.8.8.3,1.5.6,2.3.9Z"/>
    <path class="st41" d="M824.5,1983.6c-.3.9-.6,1.2-1,1-6.2-10.8-10.9-22.6-16-34,.3-.4.6-.7,1-1,4.6,9.2,11.1,24.1,16,34Z"/>
    <path class="st88" d="M823.7,1985.7c-.1-.3-.1-.8-.3-1.1-.1-.7.4-1.1,1-1-.1.6.2,1,.2,1.3s-.4,1.2-.9.8Z"/>
    <path class="st92" d="M459.8,1858.7c-10,5.9-10-1.3-12,.8-.9.3-1.3-1-1.1-1.6,1.5-3.5,16.8-3.8,13.1.8Z"/>
    <path class="st65" d="M437.7,1796.9l-1.4,15.4c-2.9-.1-4.7-2.5-4.7-5.5v-6.2c0-.7-.2-1.5-.5-1.8s-.8-.1-1.2-.1c-.7-.8-.5-2.1.6-3.9-1.5,5-6.7,8.8-11.4,10.6s-.7-.3-1.2-.8c-1.7,1.8-3.7,1.5-3.8-1,1.8-2.2,4.8-1.5,7.5-3.1,7.9-11.8,1.9-17.4,11.5-20.5,7.3,2,6.5,10,3.6,15.7l1,1.3Z"/>
    <path class="st101" d="M437.7,1796.9c-8.7,3.3,6.3-7.2-4.6-16.9,4.9-1.6,8.7,5.5,7.1,9.9l-2.5,7.1Z"/>
    <path class="st101" d="M429.9,1798.7c-2.3,4.3-9.2,8.1-13.7,8.9-2.5-2.2-1.4-3.4,1.7-3,5.1-2.4,10.1-5.4,12.4-11,1.8,2.1.4,3.7-.3,5.1Z"/>
    <path class="st107" d="M422.9,1778.6c-5.2,6.2-.7,12.1-4.9,12.7-2.1-4.5-1.5-10.2,2.5-13.7s2.5.3,2.4,1Z"/>
    <path class="st95" d="M414.1,1803.6l3.8,1c-1,.5-1.4,2.1-1.7,3-1.7-.2-4.2-2.5-7.2-.4,0-4,3.9-2.1,5.1-3.6Z"/>
    <path class="st65" d="M427,1843.6c-1,0-2.8.4-3.2-.9,1-.1,3.1-.4,3.2.9Z"/>
    <path class="st65" d="M436,1842.7c-.8.1-1.9,0-2.2,1.1-1.4.2-.7-.9-.3-1.2.6-.6,1.2-1.3,1.9-.9s.9.5.6,1Z"/>
    <path class="st5" d="M109.9,1881.4c.2.4.2.9.4,1.3-.2.4-.4.8-.8.9-.7.2-1.9-.6-1.3-1.5s1-1.3,1.7-.8Z"/>
  </g>
</svg>