<?xml version="1.0" encoding="UTF-8"?>
<svg id="Ebene_10" xmlns="http://www.w3.org/2000/svg" version="1.1" viewBox="0 0 930 325">
  <!-- Generator: Adobe Illustrator 30.1.0, SVG Export Plug-In . SVG Version: 2.1.1 Build 136)  -->
  <defs>
    <style>
      .st0 {
        fill: #040507;
      }

      .st1 {
        fill: #222d46;
      }

      .st2 {
        fill: #4a587a;
      }

      .st3 {
        fill: #445378;
      }

      .st4 {
        fill: #314166;
      }

      .st5 {
        fill: #849ad0;
      }

      .st6 {
        fill: #394b76;
      }

      .st7 {
        fill: #36466f;
      }

      .st8 {
        fill: #010101;
      }

      .st9 {
        fill: #798fc2;
      }

      .st10 {
        fill: #0d111a;
      }

      .st11 {
        fill: #465c8f;
      }

      .st12 {
        fill: #455c8f;
      }

      .st13 {
        fill: #405585;
      }

      .st14 {
        fill: #020203;
      }

      .st15 {
        fill: #8399ce;
      }

      .st16 {
        fill: #0f121a;
      }

      .st17 {
        fill: #586b97;
      }

      .st18 {
        fill: #697fb2;
      }

      .st19 {
        fill: #4d6396;
      }

      .st20 {
        fill: #778cbe;
      }

      .st21 {
        fill: #889fd5;
      }

      .st22 {
        fill: #6f85b8;
      }

      .st23 {
        fill: #080a10;
      }

      .st24 {
        fill: #3f5383;
      }

      .st25 {
        fill: #151922;
      }

      .st26 {
        fill: #050609;
      }

      .st27 {
        fill: #60739f;
      }

      .st28 {
        fill: #3e5180;
      }

      .st29 {
        fill: #0b0e17;
      }

      .st30 {
        fill: #2b3a5c;
      }

      .st31 {
        fill: #3a4c78;
      }

      .st32 {
        fill: #0b0f18;
      }

      .st33 {
        fill: #7589b8;
      }

      .st34 {
        fill: #121826;
      }

      .st35 {
        fill: #35466d;
      }

      .st36 {
        fill: #2b3858;
      }

      .st37 {
        fill: #8a9cd0;
      }

      .st38 {
        fill: #05070b;
      }

      .st39 {
        fill: #3a4c77;
      }

      .st40 {
        fill: #7990c5;
      }

      .st41 {
        fill: #374056;
      }

      .st42 {
        fill: #405484;
      }

      .st43 {
        fill: #030406;
      }

      .st44 {
        fill: #010102;
      }

      .st45 {
        fill: #0d111b;
      }

      .st46 {
        fill: #879ed5;
      }

      .st47 {
        fill: #181f32;
      }

      .st48 {
        fill: #374872;
      }

      .st49 {
        fill: #222a3e;
      }

      .st50 {
        fill: #000101;
      }

      .st51 {
        fill: #000001;
      }

      .st52 {
        fill: #445a8d;
      }

      .st53 {
        fill: #455b8e;
      }

      .st54 {
        fill: #30394c;
      }

      .st55 {
        fill: #020304;
      }

      .st56 {
        fill: #eaedf2;
      }

      .st57 {
        fill: #06090e;
      }

      .st58 {
        fill: #394d78;
      }

      .st59 {
        fill: #2e384e;
      }

      .st60 {
        fill: #101522;
      }

      .st61 {
        fill: #1f283f;
      }

      .st62 {
        fill: #040609;
      }

      .st63 {
        fill: #6677a0;
      }

      .st64 {
        fill: #0d121c;
      }

      .st65 {
        fill: #020204;
      }

      .st66 {
        fill: #384259;
      }

      .st67 {
        fill: #26324f;
      }

      .st68 {
        fill: #131927;
      }

      .st69 {
        fill: #2a3552;
      }

      .st70 {
        fill: #2f3e62;
      }

      .st71 {
        fill: #7388ba;
      }

      .st72 {
        fill: #5e719c;
      }

      .st73 {
        fill: #030305;
      }

      .st74 {
        fill: #7184b2;
      }

      .st75 {
        fill: #0f141f;
      }

      .st76 {
        fill: #2e3c5f;
      }

      .st77 {
        fill: #455c90;
      }

      .st78 {
        fill: #445b8d;
      }

      .st79 {
        fill: #556998;
      }

      .st80 {
        fill: #2e3c5e;
      }

      .st81 {
        fill: #040508;
      }

      .st82 {
        fill: #55658a;
      }

      .st83 {
        fill: #0b0d13;
      }

      .st84 {
        fill: #3f5382;
      }

      .st85 {
        fill: #020305;
      }

      .st86 {
        fill: #788fc5;
      }

      .st87 {
        fill: #111623;
      }

      .st88 {
        fill: #35466e;
      }

      .st89 {
        fill: #06080c;
      }

      .st90 {
        fill: #05070a;
      }

      .st91 {
        fill: #2d3b5e;
      }

      .st92 {
        fill: #3d517f;
      }

      .st93 {
        fill: #889fd6;
      }

      .st94 {
        fill: #364770;
      }

      .st95 {
        fill: #1f2940;
      }

      .st96 {
        fill: #0c0e14;
      }

      .st97 {
        fill: #3b4e7a;
      }

      .st98 {
        fill: #4e5c7b;
      }

      .st99 {
        fill: #080b11;
      }

      .st100 {
        fill: #1a2235;
      }

      .st101 {
        fill: #2c3a5c;
      }

      .st102 {
        fill: #405586;
      }

      .st103 {
        fill: #040406;
      }

      .st104 {
        fill: #5e72a1;
      }

      .st105 {
        fill: #0e131e;
      }

      .st106 {
        fill: #14171f;
      }

      .st107 {
        fill: #6b7fad;
      }

      .st108 {
        fill: #7e94c8;
      }

      .st109 {
        fill: #090c13;
      }

      .st110 {
        fill: #89a0d7;
      }

      .st111 {
        fill: #010203;
      }

      .st112 {
        fill: #425789;
      }

      .st113 {
        fill: #778ec4;
      }

      .st114 {
        fill: #0f131c;
      }

      .st115 {
        fill: #030407;
      }

      .st116 {
        fill: #3f5483;
      }

      .st117 {
        fill: #657aab;
      }

      .st118 {
        fill: #10131d;
      }

      .st119 {
        fill: #151b2b;
      }

      .st120 {
        fill: #06070a;
      }

      .st121 {
        fill: #0b0e15;
      }

      .st122 {
        fill: #06080d;
      }

      .st123 {
        fill: #151c2c;
      }

      .st124 {
        fill: #45516d;
      }

      .st125 {
        fill: #5a6fa0;
      }

      .st126 {
        fill: #2e3d60;
      }

      .st127 {
        fill: #6e82b0;
      }

      .st128 {
        fill: #415788;
      }

      .st129 {
        fill: #3b4d79;
      }

      .st130 {
        fill: #222c46;
      }

      .st131 {
        fill: #05060a;
      }

      .st132 {
        fill: #222939;
      }

      .st133 {
        fill: #07090e;
      }

      .st134 {
        fill: #0b0e16;
      }

      .st135 {
        fill: #202b44;
      }

      .st136 {
        fill: #0e1118;
      }

      .st137 {
        fill: #010202;
      }

      .st138 {
        fill: #2c3b5c;
      }

      .st139 {
        fill: #879dd4;
      }

      .st140 {
        fill: #6178ac;
      }

      .st141 {
        fill: #6a7daa;
      }

      .st142 {
        fill: #070a0f;
      }

      .st143 {
        fill: #0c0f19;
      }

      .st144 {
        fill: #39435a;
      }

      .st145 {
        fill: #3e5281;
      }

      .st146 {
        fill: #364871;
      }

      .st147 {
        fill: #040509;
      }

      .st148 {
        fill: #040506;
      }

      .st149 {
        fill: #748abe;
      }
    </style>
  </defs>
  <rect class="st37" x=".5" y="-.5" width="929.1" height="325.5"/>
  <g>
    <path class="st77" d="M929.5.5c.4,106.4.4,217.9,0,324.5H0V.5C305.2,0,624.2,0,929.5.5Z"/>
    <rect class="st56" x="929.5" width=".5" height=".5"/>
    <path class="st76" d="M95.4,13.4c4.9.5,10.1.4,15,0l.4-1c114.7.7,229.5,1.1,344.3,1.2.4.5.7,1,1.2,1.4l1,.5c.3,84.2.6,168.2.9,251.9l-.9.7c-1-.7-.3-2.1-.6-3.5-3,2.3-2.1,3.7-4.9,2.4l.3-1.1c-11.6-5.5-22.8-12-33.4-19.3-4-3.1-15.6-12.5-16.9-16.6s-.2-.9-.3-1.4c-.2-1.2-1-2.3-2.1-2.9l-1.6-.3c-1.8-3-2.8-3.7-2.9-2.1-3,3.6-6.3,6.5-10.6,9.7-.6-2.7-2.6-5.6-2.2-8.3.9-6.9,3.4-13.4,4.9-20,2.3,1.3.4-1.2-.6-2.2s-2.9-2.4-4.4-3.4c1.1.5,1.5,1,1.1,1.7l-7.9-1.3c-.2.6-.1.9-.2,1.3-.3-.2-.6-.4-.8-.6-1.4-1.4-2.3-16.5-2.5-19.8s-.6-12.3,1.5-13.5,4-.7,4.9-.1l.7-.8c12.7-3.7,23.3-16.5,22.8-30.1s-1.8-10.4-7.5-13.3c-.5-1.4-.9-1.6-1-.7-4.9-.9-9,0-12.6,3.5,0,.9-1.3,2-2.2,1.9-.4.6-.7.6-.8,0-1.2-.5-.9-1.5.8-3,2.6-5.3,5-10.6,7.2-16.1-.2-.6-.3-.7-.5-.4-1.9,7.3-4.8,14.1-9.3,19.9h-1.2c0-.8-.3-.5-.9.8l-.6-.3c-.6-.7-1.1-.7-1.6,0-1.1.4-1.6-.2-1.5-1.7-.5,0-.9-.3-1.3-.9l-1-.5c-.9-3.1-2.4-5.1-4.8-6.2l-.6-2.5c-1.9-.2-2.8-.8-2.7-1.9l-1,.3-1.1-.5-.9-7.2c-2.7.9-4.1.6-6.5-.6s-.3-.8-.1-1.3c.6-.7.7-1.5.3-2.2l.8-.8.4-4c-.7-.6-.9-1.7-.8-3.2l-.3.2c-.7.2-1.2.1-1.2-.6l.2-11.8-1,.8c-.3,1.7-3.9,1.6-4.9.6s-1.1-6,.6-6.1h.8s.1-4.7.1-4.7c.8-3.2.6-4-.5-2.2-1.9.4-1.7-3.6-1.4-5.1-.6.6-2.6-.5-2.7-1-.6-3,6.9-14,9.3-16.5.4-1,.2-1.1-.5-.5-3.8,5.4-6.8,11.2-9.2,17.4l-1.1.3c-.3,1-.8.9-.9,0,.7-2.6.7-5.1,0-7.5l-.5-1-.6-.3c2.2-5,1.3-4.7-2.7.8h-.7c-2,2.4-6.2.2-3.9-2.9l.3-1.4c-.7,1.1-1.5,1.5-2.4,1.4-1-.1-1-.7-.9-1.5-1.8.1-3.3-.3-4.6-1.4-1.2.5-2.1.3-2.5-.6l-.4-1c-2.1.6-4.2,1.2-6.3,1.8-.9-1.7-1.7-2.1-2.3-1.2l-3,2.7c.3,2.1-4.3,1.9-5.5.5-1.1.3-1.9.2-2.4-.4l-.3-.9c-1.5,1-3.2,1.5-5.1,1.6-.5,1.4-1.2,1.9-2.1,1.7.1,1.7-1.7,3.3-3.4,3-.6-.9-.9-.8-1.7,0-.8,1.1-3.6.8-3.8-.8-1.2.5-2.4,1-3.6,1.6-1.2-1.2-2.3-1-3.2.5l-1.3-.2c-1,1.1-2,1.5-3,1.4-.3-.7-.9-.4-1.9,1.1-.4.3-4.3.9-4.1,0,.3.8-.1,1.1-.9,1.5h-1.2c-.3-.9-1.1-1.2-2.4-1.1-.6-.5-1-1.5-.9-2.8l-1.3-1.3c.3-1.4.8-2.5,1.4-3.4,0-1-.1-1.3-.6-1,.2,1.2,0,2.5-.5,3.8.8,1.7-1.1,2.4-2.5,2.9-8.6,10.6-15.7,24.1-19.4,37.1.2.4.2.4.5.1.4-1.7,1.1-2.9,2.1-3.6l1.6-1.3,12.8-2.6c2,.7,2.5,2.1,2.1,4.1,1.5.1,1.4,2.1,0,2.4-1.4,3.3-6.9,4-10.3,4.2-4.2,0-7.7,0-10.4,3.7s-.3.6.3,1c-.4,2.3-.5,4.6-.5,7l.8,2.8c1.1,1.3,1.6,2.6,1.5,3.8.5,1.1.7,2.2.6,3.3.8.9,1.5,2.1,2.2,3.4-7.9,8.2-7,19.6-2.4,29.2-.3,1.9-.9,3.7-1.6,5.5,2,.5,3.3,1.5,3.7,3.1,2.1-1.2,3.2.2,3.2,4,.8,2.8,2,5.5,3.4,8.1,2.4,2.5,3.7,5.3,3.9,8.3-3.8,13.3,8.3,21.8,19.7,25.2l-.2,1.2c2.2,2.4,2,9.5-1.4,10.5-3.1,9.6,3,15.3,12.1,17.6l.7,1.2c-.4.2-.9-.2-1.1.4,2,.7,3.4,2,5.3,2.4,5.4,1.3,10.7,1.1,16.3.9,8-.2,15.6.2,23.5-.7,10.4-1,20.3-2.5,30-5.5,0,.5-.1,1.1-.5,1.5-2,2-10.8,4.9-13.9,5.8-10.4,3.3-21.2,5.3-31.9,7.1,5-.7,9.9-1.6,14.8-2.6,11.5-2.3,23-5.2,33.4-11.2h2.3c0-.1,1.2,5.5,1.2,5.5-4,3.6-8.9,6.5-14.4,7.4l-34.1,5.5-16.5,1.1c-2.2.1-4.9-.3-6.7.3-4,1.3-8.1,2.9-11.7,5-9.7,5.7-17.5,13.3-25.9,20.7s-17.6,16.6-25,26.7h77.9c.7,1.2.2,1.6-1,1.5h-153.4c-.4-.3-1.1-.7-1.2-.9-.6-1.5,8.2-14.8,9.9-17.3,13.2-18.9,31-30.2,52.5-38.6,13.1-4.8,25.7-10.6,37.6-17.4,2.8-2.1,5.5-4.1,8.2-6.1l1.1.4c.6-5.4,3.6-10.7,6.7-14.8,0-.3-.2-.5-.5-.5-2.6,4.6-4.8,9.5-6.6,14.4h-1.3c-6.4,7.2-16.3,11.8-25.2,15.6-14.5,5.5-28.9,11.5-42.8,18.7-18.4,9.6-31.8,27.4-40.8,45.8-1.1,1.1-3.8,1.4-4.1-.4-.6-.4-1.4-.4-2,0l-.3,1c-80.7.3-121,.5-121,.5l-.6-1c-1.7-.6-3.7-.8-4.5,0l-.6,1c-.9,0-7.2,0-7.6-.1s-.7-.3-1-.8l.6-92.9,1-.6c.6-4.7.5-9.7,0-14.5l-1-.5c.6-63.6,1-127.3,1.1-191.1l1.3-1.3c28,0,56.1.2,84.2.6l1.8,1Z"/>
    <path class="st76" d="M921.5,159.3c-.9,1.3-.7,4.2,0,5,.4.1,1,.3,1,.6.1,1.3.4,11.2,0,11.7s-.6.6-1,.7c-.4.6-.5,1.4,0,2,1.6,1,1.7,4,0,5-.2,1-.6,1.5-1.1,1.5l-1.8-.6c-4.8-5.4-10.4-10.6-17-13.3-1-2.6-2.2-4.9-3.7-6.9-5.2-3.3-11.1-5.5-17.8-6.6l-8-14.4c-1-1.6-1.6-3.3-1.6-5.1-2.5-1.2-.2-4.4,1.3-6,9.5-8.9,17.4-20.8,18.9-34s-1.5-25.2-10.8-23.7l-.8-.7c-.8-1.3-.2-1.3,1.1-1.1l.5-.9-.4-.7c5.3-11.1,5.6-24.4,2.9-36.3l-6.6-23.4c-.2-.6-.2-1.1,0-1.7,8.3.1,16.6,0,24.8-.2l.4-1c5.9.1,11.8.1,17.6-.1.3-.5.5-1.2,1-1.5l1,.5.9,150.5-1,.7Z"/>
    <path d="M919.6,9c-.3.5-.6,1.1-1.6,1.1h-16.5c-7.8.2-15.7.3-23.8.2-.8,1.2-1.6,1.1-2.4,0h-111.2c0,0-1.1.2-1.1.2-1.8.3-3.7.3-5.6.2l-.4.8c-26.2,0-52.3,0-78.4.1l-3.7-1-.4,1-187-.2c0-.9-.3-1.1-1-1l-13.7.6-.3-.5c0,3.5-.3,6.9-.6,10.5l1,.4c-1,96.6-2.4,192.9-4,289l-1,.7c.2,1,.5,1.9,1,2.5l.4-1c30.8.2,61.5.5,92.1.9l.3.8,4.7.3c0-.4.2-1,.5-1,80.4.5,164.1,1.3,243.7,2.4l.6,1,1.7-1,10.7.2,1.7.9.6-1c2,.2,4.1.3,6.1.1.7-2.2,1.6-4.3,2.9-6.3,0-1.4.3-2.6.8-3.7l26-22.5c18.6-17.9,31.5-42.3,35.8-67.6,1.2-7.3,1.6-15-1.5-21.9-8.4-16.7-17.1-33.3-26-49.9-1.2-1.9-1.4-3.4-.4-4.5,0-.6,0-.9.4-1,2.7,6.5,6.7,12.4,10.2,18.8,5.2,1.1,10,2.2,14.7,4.4,6.6,3.1,5.6,8.5,7.2,9.3,7.4,3.3,12.9,8.5,17.9,14.5.5-.2.9-.7,1.1-1.5.2-1.7.1-3.3,0-5-.4-.5-.4-1.4,0-2v-13c-.9-1.4-.9-3.6,0-5l-.2-13.2-.2-28.3-.2-32.2-.2-39.6V7.5c.9,0,1.8,0,2.7.6l.9,75,.5,53.1.5,74.3v102.7c.1,1.3,0,2.3-.8,3-1-1.8-.7-3.8-.7-5.7l-.4-13.9-1.4-91.8c0-4.9.3-9.2-.4-13.9-2.1-2.4-4.2-4.6-5.9-7.1s-2.6-2.4-3.6-3.6c-2.6-1.6-5.1-3.6-7.4-6-.4-.4-.6-1-1.3-1.2-4.1,6.5-2.6-5.7-9.6-9s-7.1-3.3-11.5-3.8l15.7,28.6c4,7.2,5.5,14.8,4.3,23.2-1.4,10-3.9,19.7-7.7,29.2-6.7,16.4-18.3,34.9-31.9,46.4l-22.7,19.3c-1.3,1.1-5.3,9.7-5.4,9.8,0,.2.5.6,1,.6l73.4,1.1c2.2,0,13.9-.3,13.4,1.4s-3.2.6-4.3.6l-38.7-.2-44.8-.2-37.3-.3-32.2-.2-31.1-.3-28.9-.2-28.3-.2-28.2-.3-27.2-.2-26.8-.2-26.7-.3-26.3-.3-25.2-.2-24.3-.2-21.4-.2-4.6-.3c-.3-1.8.9-2.9,1-4.5v-32s.3-37.1.3-37.1l.2-29.7.3-26.8.2-24.7.2-23.2.2-22.3.3-21.7.2-20.8.2-20.2.2-19.3.3-27.6c1.4-.2,2,.6,3.4.6l188.2.2,126.1.2,77.7.2h43.5c0,.1,7.5.3,7.5.3,1.2,0,2.2.1,3.1.6Z"/>
    <path d="M455.1,13.7c0,.5-.7.8-1.4.8l-8.8.2h-35.5c0,0-62.2-.2-62.2-.2h-19.1s-60.1-.3-60.1-.3l-51.8-.2-47.2-.3-43.2-.3h-15.5c-4.9.4-10.1.4-15,0-3.3,0-6.7,0-10.2-.3h-38.7c0-.1-37.4-.3-37.4-.3v41.6c-.1,0-.3,53.6-.3,53.6l-.3,46.7-.2,38.3-.2,11.6c.5,4.8.6,9.7,0,14.5l-.3,42.6-.5,50.6h8.3c.9-1,3.2-.3,4.5,0l53.7-.2,68.2-.3c.4-.5,1.5-.4,2,0,.8,0,2.7.6,3.3-.2,3.2-6.6,6.8-12.5,10.8-18.6,7.2-11,20.1-22.3,31.7-28.3,9.8-5.1,19.7-9.5,30-13.5,14.4-5.6,25.5-9.5,37.1-19.3.8-.7,1.1-.4.6.5-7.1,8.2-21.4,14.5-31.7,18.7s-21.6,8.9-32.2,14.4c-6.6,3.4-12.4,7.1-17.8,12.1-11.2,8.8-19,21.5-25.9,34h78s76.4,0,76.4,0c.4,0,.7-.2.6-.4h25.1s121.2,0,121.2,0c1.7,0,3.2-.1,4.4,1.1-2.3.7-4.5.7-6.8.7l-21,.2-40.7.2-57.8.3-66.6.3-71.2.3-78.2.3-78.2.3-28,.2c-.1.8-.4,1.2-.6,1.4s-.5-.1-.6-.4-.3-.4-.3-.9l.2-92.9.3-59.2v-46.4c-.2-30.9-.2-61.7,0-92.5.6-6.6,1-13.2,1.1-19.7.6.2,1,0,1.3.2,1.6.8,0,3.9,1,5.1h42.6c0,.1,55.5.4,55.5.4l50.9.2,46.5.3,42.4.2,40,.3,36.9.2,34.7.2,60.8.5,32.8.4c1,0,1.9.3,2.5,1Z"/>
    <path d="M374.8,200.7c.8,3.1,2.2,5.2.9,8.8s-2.1,5.7-4.7,7.9c-4.5,3.8-9.5,6.9-15,9.4-10,4.6-20,8.6-30.6,11.9s-29.4,4.7-43.6,2.4c-4-.6-8.3-2.9-11.3-5.6-4.6-4.1-3.3-12.8-2.2-14s.7,0,1.3-.2c1.7-3,1.1-6.3.8-9.5.5-1.3.9-1.1.9.3,1.9-.7,2.6,2.4,2.8,4,.5,4.7-2.3,10.1-4.8,13.6.8.2.8,1.3.6,2.1h.7c1.2,1.2,2.4,2.5,3.5,3.8l1.3-.2c13,6,30.1,4.4,44.1,1.6l6.2-.7.3-1.2c10.7-3.6,21.6-7.3,31.7-12.6,5.7-3,13.3-7.1,15.2-13.6-1.7-6.2-2.5-12.5-3.3-18.9s-.9-11.8.5-16.2l-.9-.8.8-4.5-1.9-1c-1.3-.6-1.8-1.4-1.5-2.6-.4.3-.8.6-1.1,1,.3.2.8.6.7.9-.7,1.6-6.5,13.1-7.2,13.4s-1.5,0-2-.7c-1-1.2,3.7-9.9,4.7-11.5l-.4-.6c2.4-4.8,4.7-9.7,6.6-14.8,2.5-2.3,3.3,1.2,2.4,3.5-3.4,6.9-2.2,9.8,6.1,8.5,12.8-2,23.3-16,22.9-28.7-.3-9.5-6.7-15.2-15.9-10.9l-1.3-.4c-.9,1.2-1.5,1.5-2,.9,2.3-4.1,7.4-5.4,12.2-4.2,1.8-6.1.5-27.1-1.4-32.6-3.7-10.5-10-19.4-16.5-28.4s-.5-1-.4-1.2.6-.6.9-.4.3.6.6.9c7.2,8,12.6,16.9,16.7,26.8.8,1.8.8,3.1,1.1,5.1,1.2,10.8,2.9,19.1.8,30.3,2.4,1.8,5.1,3.1,6.2,5.9,5.5,14.5-3.3,29.6-15.7,37-1.8,1.1-3.7,1.3-5.6,2-1.2,1.9-3.6,14.9-4.6,14.5-1.9-.7,2.1-11.7,2.8-13.9-1.3-.1-3.5-.1-4.2.7-1.4,4.4-1.1,8.9-.6,13.4.7,6.6.6,13.2,2.2,19.4Z"/>
    <path class="st51" d="M457.3,268.1v-9.1c-.1,0-.3-33.7-.3-33.7l-.2-62.7-.3-120.5-.2-27.2c0-2.2,0-3.9.2-5.9.3-.2,2.5-.1,2.5.5l.2,37.9v100.2c.1,0,.2,37.5.2,37.5l-.2,74.8-.2,42.4c0,3.7.2,7.2-.7,11-.9-5.8-.6-11-.7-16.7l-.3-28.7Z"/>
    <path class="st51" d="M399.3,225.6c1.1.6,1.9,1.7,2.1,2.9,10.3,12.9,24.2,23,39.2,30.3s8.2,3.9,12.1,6.3.8,1.2.6,1.7-1.1,0-1.5.1l-12.8-6.1c-14.9-7.1-37.7-24.2-44.2-37.7l-2.8-5.7c-.4-.8.2-2,.8-1.8,1.9,3.6,3.9,7.1,6.6,9.9Z"/>
    <path class="st50" d="M360.2,239.2c-6.8,3.7-13.5,6.8-21,8.8-12.2,3.2-44.6,10.8-56,5.4,6.6.2,12.7.8,19.2-.2,14.4-2.1,41.9-6.9,53.5-14.6,2.3-.1,7.8-5.6,8.2-2.8l-3.9,3.3Z"/>
    <path class="st8" d="M843.4,314.5c.1.7.5,1,0,1.3-3.8,2.8.8-8.2.8-10.1,6.1-3,20-14.8,24.6-19.7,6.9-7.2,12.4-15.2,18.3-23.2s.8-.6,1-.8,1.3.2,1.1.5c-5.1,7.9-10.6,15.4-16.7,22.5s-19.5,18.3-26.9,22l-2.2,7.3Z"/>
    <path class="st76" d="M6.1,116.8l-.3-35.2-.7-15.3V24s1.4-5.6,1.4-5.6V5c0-.4.4-.7.6-.4l-.3,32.2-.7,80Z"/>
    <path class="st111" d="M386.7,204.7c-1-1.8-2.3-3.1-3.9-3.9-1.1-1.4-3-1.5-3.4-3.5,2.8,1,4.9,2.9,7.2,4.6s2.3,3,3.1,4.9c2.2,5.9,1.3,12.2-3,16.9-1,1.1-1.7,2.6-3.3,3.1-.5-1.5.7-2.4,1.5-3.4,4.7-6.1,5.7-11.8,1.9-18.6Z"/>
    <path class="st91" d="M911.9,180.2c-2.3,1-5.9-4.1-7.4-6,2.9,1.4,5.3,3.6,7.4,6Z"/>
    <path class="st6" d="M273,280.5c.6-1.2,1.6-2,2.8-3-.2,1.5-1,2.2-2.8,3Z"/>
    <path class="st110" d="M327.3,54.9l.5.4c.6-.7,1.1-.8,1.6-.4.5.8,0,1.8.5,2.7,1.2.5,2.4-.3,3.3.2.4.5,1,0,1.9-1.5,1-.3,1.5.3,1.5,1.8,2.2,1.7,2.5,4.2,1,7.4l.3.3c.3,0,.6.1.9,0,1,.5,2,.4,3.2,0l.9.4c1.5,1.3.5,3.5,1.4,5.1.3.2.7.5.7.9,0,1.4-.2,5.3-1.2,6,0,1.9-.5,3.8.4,5.9l4-.4.9.6c-.4,6.6-.4,13.5,1.3,20l-.7.9c.3.6.9.2,1.4.5,2.8,1.9.7.9,6.2.3l.9,8.8.9.7c-.3,1.3,0,2.2.6,2.7.7-.5,1.6-1.1,1.8,0,1.2.7,2.3,1.9,3.2,3.4.7,2.5,1.9,3.8,3.6,4.1.6-.1,1.3-.2,2.1-.2.5,1,0,2.1.8,2.7l.6.3c0,1.8,0,3.6-.2,5.4,1.7-2.2,3.2-4.5,4.5-6.9h1.2c.3,0,.6-.2.8,0,.9.1-.1,1.8-.8,2-.1.6-.2,1.1.5,1,.2-2.4,1.7-4.3,4.5-5.9,4.4-2.9,9.7-3,13.9.6s3.4,3.4,3.8,6.2.9,6.7.2,10c-2.2,9.5-8.4,17.7-17,22.3s-6,1.8-9.3,2.3-6.2-1.4-6.3-4,3.9-8.3,1.7-9.6c-1.3,3.8-5.3,13.1-7.3,15.5-2.9,5.3-5.3,10.9-7.1,16.8-.6.7.6,4.4.9,4.4,2.8,0,12.2-12.4,13.3-15.8,1-1.1,1.6-.8,1.3.6l.3,11.6c.2,8,1.7,15.5,3.5,23.4-1.3,12.2-37.9,24.1-48.2,27.4-4.3,1-8.3.5-12.6-.3s-13.1-3-17.8-5.6-1.4-.8-1.6-1.9c1.7-6,.3-9.3-3.6-13.9-5.9-7-11.7-10.3-21.1-9.8-10.8,1.2-17.8-14.4-7.7-19.5,3.4-.6,6.5-2,9.2-3.9-.2-1,.1-1.3,1-1.5-4.7,1.4-9.4,1.8-14.2,1.2l-.8-1.2c-3.2-1.5-.3-5.3,2.5-5.5.5-.9,1.6-1.3,3.3-1,6.3-1.5,12.4-3.6,18.4-6.2l1.3.7c.1-.9.3-1,.6-.1,1.7-.4,2.3,0,2,1.2,3.9,1.2,7.6,2.9,11,5,1-2.2,2.3-3.7,4-4.3l1.2.7,2.5-4h1.2s-.4-.6-.4-.6c1.3-4.1-.6-7.6-3.3-10.6l.2-.7c-.6-.4-1.1-.7-1.7,0-3.3-1.3-6.3-3.3-9-5.8l-.3-1.2c-1.4,1.1-5.5,0-5.5-2-1.5-2.4-2.7-4.9-3.7-7.8-1.3-2.4-2.7-2.6-5.4-1.8l-1.3-.4-.5.7c1.2.5,1.8,1.1,1.6,1.9.8.9,3.1,3.7,2.7,4.8-.9,2.5-6.2,2.5-8.4,1.8-3-1.6-6.1-2.9-9.4-3.9-2.4.3-4.8.8-7.2,1.6-2.2.3-8.7-.1-7.4-3.1-.9-1-.3-1.8.3-2.7,3.3-4.6,6.4-9.2,9.2-14.1-.2-.2-.3-.3-.2-.4.8-1.3,2.7-3.7,3.7-4.7.2-.9.7-1.7,1.5-2.4l.4-.6c-.4-.1-.4-.3,0-.4v-1.1s-.6,0-.6,0c-1.6-2.1-3.8-3.5-6.6-4.3l-.3-1.1c-2.1-.5-5.1-2.8-2.9-4.4,0-1.4,1.2-2.3,3.9-2.4.8-.8,1.5-1.7,2.1-2.6,0-.7.2-1.8,0-2.4l-.2-2.4c3.3-9.4,6.6-18.7,11.8-27.2l1.2-.2c-1.2-1.2,1.2-3.9,2.5-3.7.6-.9,2.1-1.6,3-1.4,1.4.1,2.5.5,3.2,1.2,1.3-1.5,3-2.6,4.9-3.2,1.2.5,2.6,0,3.8.8h1.7c1.1-1.1,2.2-2,3.4-2.9l.6.2c1.6-2,4.5-2.8,6.9-2.6.5-.4,1.4-.4,2-.8.9-.6,1.1,1.1,2.1,1.1s3,0,3.9-.4c1.1-1.6,3-2.1,5.6-1.4l5.6-1.9.8.8,3.1-.5c1.4,2.7,4.4.4,4.9,1.8s.1,1.5,0,2.2Z"/>
    <path class="st77" d="M264.9,64.4l1.2.6c1.4-1.5,2.9-1.3,3.2.5l-6.1,11.7-6.6,18.1c-.3-1-1-2.5-2.1-3.1-4.7,1.5-9.6,2.2-14.3,2.9-.2-.5-.2-1.3,0-2.3-.2-1.1,0-2.2.5-3.2,3.5-8.3,7.9-15.8,12.8-23.3.3-.4.7-.8,1.2-1.1s.9-.6,1.4-.9c1.2-1,2.7-1.1,4.5-.5-.2-1.2,0-1.4.9-.5.5-.7,1.2-1.1,2.1-.8s1.1,1.2,1.5,1.9Z"/>
    <path class="st51" d="M240.8,122.8c-.2.6-.1,1.1.6,1,0-.8.2-1.5.7-2.3.5-6,3.9-10.8,10.4-9.7,1.5.3,4.4,1.2,3.4,3,.6.7.4,1-.5.6-.3.7-1.2.9-2.9.4,3.7.3,3.5,5,0,4,0,.9-2.2.8-3,.6-.7.6-1.3.4-1-.5-1.8.8-2.7-2.2-1-2.9-.1-.5-.3-.7-.6-.5-.2,2.1-.6,4.2-1.3,6.3-.4,1.5-1.2,2-2.2,1.6.3.4.2,1.1-.3,1.3v1.6c-6.8,7.4-7.7,17.2-4.1,26.1l-.6,1c.7.4,1.3.2,2.1-.5-.5-1.2,4.6-5.3,5.2-5.4s1,0,1.4.3c.6-.5.8.1.6.8,1.6,1.7-1.5,3.3-3.2,3.3.7.6.4.8-.5.6l.3,1.1c-3.4,2.1-4.1,4.4-2.3,6.8,2.5.8,3.9,2.2,4.1,4.2-1.1,1.9-.8,3.9,1,5.9l-.4,1.3c.5,0,.9,0,1.3.3.9.7,5.1,9.9,5.1,11.7-1.8,9.7.4,13.5,8.4,19s7.3,4.1,11.3,5.3c1.2,1.3.5,3.3-1.3,3-.2-.2-.7-.1-.9-.3-.4-.7-1.1-.9-2-1.1-8.9-2.6-17-8.3-19-17.9s2.6-7.9-1-12-5.6-9.9-6.2-15.5c-1,.2-1.5.8-2,.7s-.9-.8-1-1.3c-.3-1.6-1.6-1.2-2.6-1.6-2.9-1.4,1.7-4.7.4-7.4-4.2-8.6-5.4-21.2,2.8-28.4-1.6-1-1.5-2.1-1.4-3.4,0-1.1-.2-2.2-.6-3.3-3.7-3.6-4.6-9.2-1.8-13.6.7-.8,1.3-.7,1.6.3-.6,4.7-.1,8.6,3.3,12,.7,1.3,1.4,2.7-.1,3.6Z"/>
    <path class="st44" d="M260.4,56c-.2.9-.2,1.8-.7,3,2.2.7,1.9,2.7,1.6,4.4-.2.3-.7.3-.9.5l-2.2-1.3c-.2,1-1,1.6-2.3,1.7-6.3,8.9-11.5,18.5-15.9,28.5,0,1.9-1.3,4.5-2.6,5.9-.6-1-.3-2.3.2-3.6,4.1-12.4,10.3-23.8,18.3-34,.5-.6,1.8-.4,2.2-1,1-1.6,1-3.5,1.7-5.1.7-.7.9-.4.6,1Z"/>
    <path class="st44" d="M295.8,27.3c-13.1,2.8-27.2,12.1-35.1,23-1.4,2-1.5,4.5-3.9,6.3.5-5.1,3.6-9.3,7.1-13,7.6-7.9,17.1-13.6,27.6-16.8s6-1.3,8.8.2c-1.5,1-3,0-4.6.3Z"/>
    <path class="st44" d="M318.3,27.5c-1.1-.2-1.4-.5-1-1,3.8.1,7.3,0,10.8.8,12.3,2.9,25.6,6.7,34.1,16.1s.4,1,.4,1.2-1.1.3-1.3.1c-9-8.6-17-10.7-28.4-14.4-4.9-1.6-9.7-2.7-14.7-2.8Z"/>
    <path class="st44" d="M368.4,125.8c-.4,0-.9,1-1.4.8-2.2-.9-2.1-3.5-3.5-5s-2-2.4-1.8-3.3c-.5-.4-1.1-.4-1.8,0-.3.3-.3.8-1.2,1-.5-1.4-.7-3.1-.3-4.4.8-3,5.3-22.1,7.3-22.7s.7.2.7.4c0-3.5-6.3,22.1-6,22.6,1.2.3,2.1.2,2.6.9s.2,1.6.5,2.3c1.9.4,3.1,1.7,3.7,3.7s1.7,2.3,1.5,3.7Z"/>
    <path class="st14" d="M350.2,95.4c.4,1.6.6,3.2.6,5,.3.5.4,1.2,0,2,.1.8.7,1.5.4,2.7s-1.2.1-1.5.2c-1.9-4.4-2.1-17.3-1.6-21.5.8-6.1,1.8-12.3,5-18-.9,6.6-3.3,12.1-3.1,18.6s-.5,10.4.1,11Z"/>
    <path class="st14" d="M385.3,108.3c-1.6,5.8-3.9,11-6.2,16.3s-1.8,1.6-1.8,2.7c-.9.9-5.1,9.2-6.2,8.3s-.1-5,0-7.3.1-3.3,1.7-4.1c.6,1.6-.2,2.8-.1,4.1.4.1.9,0,1.5-.5l3.2-4.8c.4-.6,1.3-.6,1.6-1.4,1.9-4.7,3.6-9.3,5.7-13.7.6-.7.8-.5.5.4Z"/>
    <path class="st111" d="M265.2,218.3l-4.1,8.1c-1.7,3.3-2.3,7.4-.9,11s7,7.7,6.6,9c-.8,2.9-6.9-5.3-7.6-6.6-1.4-2.2-1.2-4.8-1.9-7.1s-.3-.5-.6-.5c1.2-1,1.5-1.8,2-3.6,1.1-4,3.9-7.3,6-10.7.4-.2.5,0,.5.5Z"/>
    <path class="st111" d="M256.4,97.8c.9,1.5-1.1,3.9-2.9,3.9s-2.4.3-3.1,1.2c-.2.9-.9,1.2-2.2.8-4,.3-7.7,1.3-11.1,3.2h-1.2c-.5,0-1.1.5-1.9-.2,5.2-9.1,11.3-3.4,19-7.2l3.3-1.7Z"/>
    <path class="st111" d="M380.9,86.4c-3.7,10.8-5.8,19.8-9.4,30-.2.5-.7.6-.9.6s-.5-.8-.4-1.2l5.5-18.1c1.3-4.2,2.7-8.1,4.6-11.8.8-.6,1.1-.3.6.5Z"/>
    <path class="st55" d="M368.3,111.6c-.2.7-.7.7-.9.8-.3,0-.7-.5-.5-1l3.7-12.7c1.8-6.4,3.7-12.5,6.8-18.7.1,3.5-1.7,6.2-2.6,9.5l-6.5,22.1Z"/>
    <path class="st65" d="M370.4,56c-8.5-.8-15,16.8-16.3,15.7-1.9-1.6,11-21.5,16.3-15.7Z"/>
    <path class="st73" d="M343.8,78.3c.1-2.4-.2-4.9.5-6.9,1.5-4.5,3-8.7,5.5-13,1.4,2.1-.4,3.8-1.2,5.6-1.9,4.5-3.4,9.2-3.1,14.2s.6,2.3-.6,3l-1-2.9Z"/>
    <path class="st55" d="M271.7,61.9l-2.5,3.7c0,.1-.3.3-.5.2s-.4-.5-.7-.8c-.9-.2-1.2,1.4-2.1,1.4s-.7-1.5-1-1.9c-.4-3.8.5-8.6,4-11.3-.8,3.8-3.1,6.4-2.2,10.1.4-1.3,2-.9,2.9-1.2s.9-2.3,2.4-1.8c.2.6-.3,1.2-.3,1.7Z"/>
    <path class="st85" d="M329.4,55c-.5.6-1.5.9-2.1,2-.9-.8-.1-1.4,0-2,5.5-5.2,10.8-11.4,18.3-14.6-5.2,5.6-11.7,9-16.2,14.6Z"/>
    <path class="st55" d="M349.5,48.8c-3.2,5.2-6.7,10.3-8.6,16.3,1.3.1,1.5.9,2,1.3-1,.6-2.2,1-3.5,1.2s-.7-1.2-.7-1.6c.6-4.4,7.4-14.3,10.3-17.7,1-1.1,1.8-.5.5.5Z"/>
    <path class="st0" d="M319.3,51.5c-2.2.4-4.4,1.9-6.7,2s-3.5-.7-5.4.4c-.3-1.1,2.7-4.5,4.3-4.3s.8,1.1,1.3,2c2.8-1.4,5.4-2.4,8.5-2.1-.3,1.2-1.5,1.3-2,2Z"/>
    <path class="st120" d="M337.3,57.4c.5,0,.5.6.5,1,2,0,.9,6.5,0,7.5-.3.8-.6.2-.5-.6,0-1.6,1.5-4.2.1-5.4s-2.1-1-1.6-3c-1.7,1-1.5,2.4-2,4.1-.7-.7-.9-2.5-.5-3.2,1-1.7,3.4-6.3,5.6-5.2s.3.9,0,1.4l-1.6,3.3Z"/>
    <path class="st103" d="M282.9,58.5c0,.5.2,1.3-.3,1.7s-1.1-.3-1.5,0c-1.3.7-1.8,2.3-3.3,2.7s-.9-1.1-1.2-1.4c-1.3.8-1.7,2.4-2.9,3-1.9-.6,1.2-3.2,1.2-4,.9-.6,1.6-1.8,2.7-2.4s1.3.7,1.8,1.2c1.1-1.5,2.3-1.4,3.6-.9Z"/>
    <path class="st115" d="M354.3,100.9c-1.9,1.5-2.1-4.2-1.5-6,1.2-3.7,2.6-7.8,6.3-10.2-2.5,5.6-6,9.3-4.8,16.3Z"/>
    <path class="st147" d="M354.3,100.9c3.9-5.4,5.4-11.4,10-16.3l-11.2,20.9c-.8-2.1,1.5-3,1.2-4.7Z"/>
    <path class="st81" d="M314.9,26.8c.3,1.9-13,1.1-14.3-.5,4.8-.9,9.1.2,13.7-.2s.6.5.6.7Z"/>
    <path class="st0" d="M288.3,59.4c-.3.4-.4.9-1,1.3-.4-.5-.5-1-.7-1.4.9-4.8,3.4-9.3,6.6-13.2.4,0,1.2.3.9.7-2,2.9-6,9.4-5.8,12.6Z"/>
    <path class="st43" d="M299.3,53.9c-1,1-1.8,1.2-3.3,1.3s-4.7,3.8-4.2,1.1c1.1-.8.3-2.6,2.6-2.8,6.1-.4,5.5-4,8.3-3.8-.7,1.9-2.5,2.7-3.4,4.2Z"/>
    <path class="st85" d="M363.5,45.1c3-.5,11.9,9,10.1,10.7s-1,0-1.2-.5c-2-4.3-5.6-6.7-8.9-10.2Z"/>
    <path class="st43" d="M366.7,78.3c-.2.5-1.1,1-1.5.5,1.6-4.9,3.3-10.4,7.9-13.4-2.3,4.5-4.9,8.3-6.4,12.9Z"/>
    <path class="st131" d="M365.6,51.9c.3.6-10.3,12.4-9.4,10.1s-.2-.6,0-.8c3.1-3.1,5.4-6.7,9.4-9.3Z"/>
    <path class="st35" d="M8,219.2v-14.5c1.2,0-.1,5.3,1.1,7.9-1.3,2.2,0,6.7-1.1,6.6Z"/>
    <path class="st97" d="M110.4,13.4c0,.4-.4.6-1,.6h-13c-.5,0-1.1-.1-1-.6h15Z"/>
    <path class="st42" d="M456.5,249.2c-.4-3.6-.4-7.2,0-11.1.4,3.6.4,7.2,0,11.1Z"/>
    <path class="st17" d="M240,95.2c-.9,1.1-1,2.7-2.1,3.6-.2.3-.3.2-.5-.1l2.6-5.9c.5.3.4,1.8,0,2.3Z"/>
    <path class="st83" d="M377.8,130.3c-.8.9-.8-.1-.5-1l.8-2c.3-.8,1.4-1.4,2.2-1.9.7.2,1.4-.5,2-.9-.7,1.7-3.3,2.3-4.5,5.9Z"/>
    <path class="st109" d="M385.3,108.3l-.5-.4c.7-1.5,1-3.2,2.1-5,1,2.3-1.2,3.7-1.6,5.4Z"/>
    <path class="st2" d="M351.3,98.3c0,.8-.2,1.4-.5,2-.4,0-.5-.5-.5-1v-4c0-1-.3-2.1.4-3.1,0,2.3,0,4.1.6,6.1Z"/>
    <path class="st88" d="M439.5,198.7c-.3-2-1.2-3.8-.5-6.1.6,1.9,1.2,3.8.5,6.1Z"/>
    <path class="st58" d="M20,312.5h-4.5c-.8-1.9,4.3-.8,4.5,0Z"/>
    <path class="st92" d="M401.3,228.6c-.7-.9-1.3-2.2-2.1-2.9,1.2.2,2.5,1.7,2.1,2.9Z"/>
    <path class="st145" d="M238.4,123.7c0-1-1.5-2.2-.6-3.3.9.9,1.6,2.2.6,3.3Z"/>
    <path class="st24" d="M243.8,193.1c-.7-.2-1.1-1-1.7-1.6.5-.4.8-.5,1.1-.6.7-.2.5.4.6,2.1Z"/>
    <path class="st45" d="M349.5,48.8c.5-.4,0-1.1-.5-.5.5-.6,1-1.6,2.1-.9-.4.8-1.3.8-1.7,1.4Z"/>
    <path class="st60" d="M265.2,218.3c-.2-.1-.3-.3-.5-.5.3-.4,1-1.4,1.5-.7s.8,1.9.3,2.5c-.6-.7-.2-1.2-.3-1.7s-.7.2-1.1.3Z"/>
    <path class="st31" d="M59.4,266.7c-.8.8-1.6,1.1-2.9,1.5.3-1,1.7-2.5,2.9-1.5Z"/>
    <path class="st99" d="M260.4,56c0-.4-.2-.9-.6-1,.3-.7.1-1.7,1.3-2.2.6,1.3-.5,2.2-.7,3.2Z"/>
    <path class="st10" d="M317.3,26.5l1,1h-3c.4-1.2,1.2-1,2-1Z"/>
    <path class="st107" d="M374.3,127.8c-.4.6-.5,1.6-1.4,2-.3-.5-.1-.8-.1-1.5.6-.2.9-.7,1.2-1.6.5.3.3.7.3,1.1Z"/>
    <path class="st82" d="M350.9,102.3c0-.7,0-1.3,0-2s-.3-1.7.5-2c.3,1.2.1,3-.4,4Z"/>
    <path class="st134" d="M380.9,86.4c-.2-.2-.4-.4-.6-.5.5-.6.4-1.3,1.1-1.7,1.2,1-.2,1.5-.5,2.3Z"/>
    <path class="st92" d="M143.9,312.1h-2c0-.5.4-.5.8-.6.5,0,1.3,0,1.2.6Z"/>
    <path class="st39" d="M58.7,301.2c0-.4.7-.1,1-.2s.4.3,0,.5-.4.5-.5.5-.5-.3-.6-.8Z"/>
    <path class="st84" d="M452.9,15.1c.2-.3.8-.1.9.1s-.4.4-.5.5c-.3.5-.8-.2-.4-.7Z"/>
    <path class="st33" d="M337.8,58.4c-.4,0-.7-.7-.5-1,.2,0,.8-.2.8.2s-.2.6-.3.8Z"/>
    <path class="st129" d="M373.9,114.6c.2-.5.6.2.7.3.3.2,0,.5,0,.5-.3,0-.9,0-.6-.7Z"/>
    <path class="st72" d="M237.4,98.7c.1.1.3.2.5.1,0,.7-.7.4-.5-.1Z"/>
    <path class="st77" d="M880.6,72.5c.3.2,1,1.2.6,1.3-1,.3-2.1-.1-2.2.6-.3.7-.8,1.2-1.5,1.5-6.8,3.2-12.5,6.7-18.5,11.1-.8,1.3-1.9,2.4-3.3,3.3.3.5,0,1.2-.7,1.1.3,1.5-.5,2.1-1.9,1.4-.3-.5-.6-1.1-.6-1-1.4,3.5-2.1,13-1.8,17,0-.8.7-.2.9.5,0,.8-.3,1.6-1.2,2.5l-2,5.3c-.7,1.1-1.3,1.6-2.3.7-.7-1.3-2.6.5-1,1.1.7,1.7-.5,2.4-3.5,2.1-1.4.7-2.5.7-3.3.2l-.8-1.2c-1.1-5.6-2.2-11.2-3.3-16.8-2.3,1.5-3.8.2-4.5-3.9-.9-3.2-1.6-6.3-2.1-9.4-.6-.8-.8-.6-.5.5.5.6,3,9.2,2.7,9.6s-.3.3-.6.5c-1.1,1.1-1.4.5-2-.6-1.2-5.1-2.7-10.2-4.3-15.2-1.5-1.5-1.8-2.7-.8-3.6l-.4-1.1,2.6-2.7c-5.2,5.5-4.4-.2-3.3-4.4.6-2.1.2-2.8-1.3-2.1-2,1.5-3.2,1.6-3.7,0,0,1-.7,1.7-1.7,2.1,0,.5-.2.4-.4,0-.8,1.1-1.7,1.3-1,0l-.7-.9c1.9-2.4,1.6-3.6-.8-3.5l-.5-1.1c-.4-.6-.4-1.2-.3-1.9,2.6-11.5,4.3-19.6-.8-31.1v-1c-.5-.3-.6,0-.4,1.1.3.1.6.3.7.5,4.2,11.6,4.2,19,.5,30.7s-.6.9-1.2,1.2c-.1.4-.3.7-.7.9-2.1,1.3-.8-7.1.2-8-3.3-.1-4.9-1.6-4.7-4.4-.3-1.6,0-2.6,1.1-3l1.1-.5c.2-14-4.3-26.9-15.1-36.2v-.6c-.7-.1-1.6-.2-.9.5.7-.3,1,0,.5.6-.6,1.3-2.3,1.7-3.1.4-.9-.8-2.1-1.1-3.3-1.4-8-1.9-15.5-1.9-23.4-1l-.7-1c-4.2.9-5.5-2.9-.7-2.3l4.2-.3c0-.3.2-.3.6-.3h111.6c.7.6,1,1.5,1,2.8l5.7,21.8c2.4,13.6,3.5,23.9-2.2,36.8s0,.6.4.8Z"/>
    <path class="st8" d="M879,74.4c4.9-1.8,8.9,3.4,9.9,7.5,3.6,13.5,3.5,17.8-1.3,30.5-2.7,7-7.4,12.6-12.5,17.9s-3.9,3.7-5.2,6.1c.8.3,1.7.1,2,.5s.1,1-.2,1.2c-.4-.5-.5-1.1-.8-1.1-.6,0-.5,1.4-.5,1.6-.1.3-.4.6-.4,1-.6.2-.7,0-.6-.6.2,5.4-2.4,9.8-7.4,12.1s-6.7,2.6-8.3,1c-.1.5-.6.6-1.1.3-1.6,2.3-6.3.5-7.3-1.9-1.9-4.3,1.6-4.7,4-1.5,1.3.5,2.6.9,3.9,1.1.3-1.5,4.1-2.1,5.1-1.1,2-1.2,4-2.5,5.8-3.8,1.5-3.8,3-7.7,4.7-11.5,0,0,4.3-4.7,12.9-14.1v-1.8s3.2-5.6,3.2-5.6c.8-2.7,1.9-5.1,3.4-7.2l-.8-.9c1.4-3.2,1.9-6.5,1.6-9.6l.7-1c-.8-1.2-.7-2.6-.5-4-.7-.3-1.2-1.1-1.4-2.4-.5-3.6-2.9-12.4-8.1-10.3-6.6,2.6-12.2,6-17.9,10.1l-1.1-.4c-2,1.3-2.6,1.4-1.6.2,5.6-5.6,12.6-9.8,20-12.6Z"/>
    <path class="st50" d="M901.5,10.1c0,.2-.2.4-.5.4h-23.7s6.1,21.5,6.1,21.5c3,10.5,3.4,21,.7,31.6-.5,3.3-2,6.1-3.5,8.8-.2.4-1.6.4-1.6,0,5.9-10,5-27.7,2.2-38.6l-5.4-20.6c-.3-1-.1-1.8-.2-2.7h-112s-.5,0-.5,0c0-.4.4-.5,1.1-.5h137.3Z"/>
    <path class="st146" d="M921.5,159.3c0,1.6,0,3.4,0,5-.3,0-1,.1-1-.5,0-1.6-.5-5.3,1-4.5Z"/>
    <path class="st48" d="M881.6,131.3c.8-1.2,1.7-2,2.9-2.9-.6,1.2-.9,2.7-2.9,2.9Z"/>
    <path class="st84" d="M920.4,185.7c.2-.6.6-1.1,1.1-1.5-.1,1,.2,2-.3,3-.4-.8-.5-1.2-.9-1.5Z"/>
    <path class="st102" d="M921.5,179.2c-.5,0-.5-.5-.6-.8,0-.5,0-1.3.6-1.2,0,.7,0,1.3,0,2Z"/>
    <path class="st76" d="M675,10.6c.5,0,.5.2,0,.5,1.7.6,2.6,3.5.5,4h-.8c-3.9,4.8-7,11.1-9.1,16.9-4.3,12.1-7.7,25.1-10.2,37.7l-.5.3-.4,1c.8,0,.7.6,0,1,.2.5.2,1.1,0,1.6.6.8.4,1.1-.6,1l.4.5c-2,4.4-3.1,9.6-2.5,14.4,1.1.8,1.3,3.9-.4,4,.4,2,1.3,3.8,2.6,5.5.6,1.3.9,2.5.9,3.6,1.7,2.1,3.4,4.3,5,6.5s.2.8-.2,1.2c0,1.1.6,2.1,1.6,2.7,1.3-.6,4.4,2.9,3.5,3.9,2-.2,2.8,4.9,1,5.4l-.6,1.6c-.5,6.7-1.2,16.6.3,22.9s1.5,3.7,2.4,5.3l11.2,16.5-.3,1c-.3.8.2,1.5.5,1.6l.8.3c.2,1,.7,1.8,1.4,2.2l.9.7c-.3,5.6-.8,11.2-1.4,16.7,0,5,.8,8.6,5.8,10.9l.5,1.2.6.9c.3,5.4,4.8,9.4,9.2,11.9l.2,1.1c.9.7,1.1,1.9.6,3.7,0,2.4,1.5,4,4.4,4.8v1c0,.5-.2.6-.7.4-.1.8-.6.8-1.4.6.5,1.2.2,1.5-1,1-.4.5-1.1.9-1.6.4l-.3.5c-23.4,8.2-46.7,16.3-70,24.4-.7-.8-1.4-1.2-2.1-1.2-3.9,2.9-8,5.3-12.6,7.2l-4.6,3.3c-14.6,15.1-28.9,30.4-43,45.9l-.4,1.7c.2.8-.2,1.4-1.1,2,1.5,0,2.4.5,2.7,1.5l-12.5-.2-85-.8c-.5-.6-.9-1.4-1-2.5l.2-11.5,1-59.8,1.3-92.4.2-19.7,1.3-106.7c.3-2.9.4-5.7.5-8.6l.6-.4c-1,0-.9-.6,0-1l13.6-.6h130.4s57.9.2,57.9.2Z"/>
    <path class="st77" d="M853,150.4c-2.1.4-4.5.6-5.8-1.8s-1.6-.8-1.6-.3c-.1,1.8,1.4,3.2,2.4,3.8s3.2.3,4.6.5c.4,0,.7-.1,1.1-.3,3.9-.5,8.3-1.3,11.4-4.1s3.1-6.5,4.1-9.8c.8,0,.8.8.8,1.4.1,1.8.9,3.4,1.9,5.2l18.6,35.2,6.5,13c4.5,9,2.7,20.1.6,29.5-5.2,23.2-19.3,48.4-37.4,64l-23.9,20.5c1,3.6-3.1,6-3.1,9.9-2.9.6-5.3-.3-7.7,0-1-.2-1.1-.6-.9-1.5,3.2-10.9,5.8-21.9,7.8-33.2,1.2-4.9,2.5-10.1,4.7-14.6s3.1-4.3,4.9-5.9c14-10.8,27.5-21.3,36.6-36.8,1.2-2,5.9-10.9,5.7-12.3-4.8-15.5-11.5-30-20.3-43.4l-1.7-4.3c-3.4,2.1-6.9,4.2-10.6,6.3-2.4,15.4-8.1,30.6-19.5,41.7-13.5,13.1-26.8,26.5-39.8,40.1,1.8,6.6,2.6,13.5,2.4,20.5l.7,4.4c4.3,7.8,8.5,15.8,12.6,23.9l3.5,12.2-.5,2.7-19.5-.2-225.2-2.3c-1.4,0-3.1-1.1-5-.4.9-1.5,2.1-2.5,3.4-3.1v-1.1c4.6-3.1,8.9-7,12.8-11.7l29.8-32.4c3.6-3.7,8.1-6.6,12.7-8.7,25.8-9.5,51.7-18.7,77.6-27.6l.4.3c0-.4.2-.5.5,0l.5-.5c-.4-.2-.4-.4,0-.5.2-.5.6-.7,1-1,.4,0,.7,0,.9.2,6.1,5.6,7.1,13.4,7.4,21,2.9,10.6,24.4,11.2,33,10.9.3.4.6.6,1.1.8,1-.6,2-.4,2.2.9.9,4.7-2.8,11.4-5.6,15-4.8,11.2-5,25.2.9,36-2.3-6-4.9-14.9-3.6-21.4l1.1-1.5c.6-1.2.7-2.1.2-2.7l-.8-1.2c1.3-5.6,3.5-10.9,6.6-15.9.8-3,1.3-6.1,1.5-9.2,6.6-1.6,12.8-3.9,17.8-8.6l1.7-.2,1.5-1,.2-1.4c5.8-5,11.9-9.7,18.3-14-8.3,5.5-16.3,11.5-23.9,17.9-2.8,1.9-10.3,6.6-13.4,6.5s-1.2-.2-1.7-.6c-2,.4-4,.7-6,.8-3.7.2-15.8-.9-19.1-1.9s-11.6-5.4-12.3-10.5c.3-7.7-2-14-7.1-19.8l.4-.6c.2-.1.4-.3.6-.4,1.1-.6,2.6-.6,4.4.2,5.1,1.2,10.3,1.9,15.5,2.1l.9.9c1.3-.1,5,4.6,5.2,5.5s-1.2,8.9-1.5,9.9c5.3.8,10.6,2.4,15.8,4.9,5.5.3,10.8-1.2,16.1-4.5,13-9.6,27.1-17.8,42.1-23.6,8-7.6,16-15.3,23.7-23.1l1.1.5c0,.7,0,1.5-.3,2.1-1.3,2.7-5.7,7.3-8,9.6s-.7.3-1.1.3c-1.9,2.9-4.5,6.5-8,6.9-.2.5,0,.7.6.6.7-.8,1.7-1.5,2.9-2.2.8-.9,1.6-1.5,2.4-1.7.2-.2.3-.2.5,0l2.6-2.6v-1.1c16.2-16.4,26.5-39.5,25.5-62.7l-.4,8.4-1.1,1.4c-.4,0-1-.1-1-.4-.5-4.4-.8-20.9,1.2-23.2s7.5,0,7.6,2.2c.3,4.9,1.5,9.4,3.6,13.5Z"/>
    <path class="st110" d="M825.6,317c-4.7.4-9.4,0-14.1-.1-1.2-6.6-2.8-13.1-6.1-19.1l-9.8-17.7c-3-5.4-.3-19.2-4.1-27l12.1-13c3.6-3.9,7.5-7,11.3-10.7l17-17c11.9-11.9,16.3-25.2,19.4-41.5,4-2.6,8.1-4.7,11.7-7.7l2.1,5.6c-.5-1.3,9.6,13.2,16.3,32.1l4.2,11.9c-3.1,9.4-8.2,17.6-14.7,25s-8.8,10-14.4,14.1-8.8,6.7-13.1,10.4-5.2,5.2-6.5,9c-2.5,7.1-4.1,14.2-5.4,21.6s-3.1,14.1-5.3,21.1-.6,2-.6,3Z"/>
    <path class="st76" d="M763.1,10.5h.5c-1.9,0-4.1,1.1-6.4.4.1,2,1.5,2.3,2.9,2.2l-1.7,1.4c-7.2,1.7-14.2,4.4-20.8,7.6,0,.4-.3.7-.9,1-1.7,2.7-2.8-2.5-2-4l-.7-.6c-3.2,1.2-21.4,6.9-24,5.5s-2.4-1.9-2.9-2.8c1.6-.6-1.4-.4-2-.1-.5.5-1.1.7-1.7.6-4-1-8-2-11.8-3.5v1c-4.7,1-10.5-1.5-15-3.6.5-1.8,0-3.2-1.5-4.3v-.5c0,0,88-.1,88-.1Z"/>
    <path class="st52" d="M486.7,10.4c5.5,0-19.2.8-13.5,1.5-.8.3-1-.9-.5-1.5h14Z"/>
    <path class="st39" d="M473.2,12c-.9,3,0,8.4-1.1,9v-9.5c0-.5,0-1,.6-1-.1.6.2,1.1.5,1.5Z"/>
    <path class="st112" d="M469.2,313.6c-.7,0-1-.2-1-.8v-1.7c.8.6.8,1.6,1,2.5Z"/>
    <path class="st77" d="M252.8,172.3c.9-.2,1.8,0,2.9.8,1.8,0,3,.3,3.6,1.2-1.3,1-4.1,3.9-2.5,5.5l-.7.8c4.4,1.2,8.9,1.1,13.6-.2l1.1.8c-.8,3.9-7.9,3.8-10.6,5.6s-2.9,4.3-2.6,6.3,1.8,7,4,8.5c4.2,2.4,9.5,2,14.1,2.4,10.5.9,20.4,15.3,19.9,18.7l-.9,6.2c10,4.4,20.4,7.1,31,7.3-12.6,4.1-25.9,5-39.4,3.2s-8.9-1.1-12.3-3.9c-2.1-1.6-3.3-3.5-3.7-5.8-.5.6-.8.3-1.1-.1,0-.8-.5-1.1.2-2.2,2.8-4.2,5.6-11.5,1.8-15.4l1.2-2.1c-7.2-1.5-21.7-10.2-21.2-17.7l.5-7.5c.2-2.2-3.9-8.7-5.4-12,.6-2.1,4.8-1.6,6.4-.4Z"/>
    <path class="st77" d="M370.3,173.7c0-.6-.4-.7-.5,0-3.5,6.8-8,12.6-14.6,16.8-3.2-5.8-1.1-6.3-.1-9.4s2.9-7.7,5-11.5,1.3-1.2,1.7-1.8c.3,1.3-6.2,11.9-3.1,11.4l6.9-13.5,1.1-1c1.2,1.4,2.7,2.4,4.6,2.8l-1.1,6.2Z"/>
    <path class="st80" d="M274.2,235.5c-1.4-1.2-3.6-1.6-4.2-3.8-.2-1,0-1.7.5-2,1.8,1.5,2.5,3.9,3.7,5.8Z"/>
    <path class="st27" d="M270.5,229.7c-.1.7,0,1.5-.5,2-.2-.7-.6-1.3-.6-2.1.1-.1.3-.2.5-.3.3-.1.4.3.6.4Z"/>
    <path class="st71" d="M366.8,164.7c0,.3,0,.6-.3,1s-.5.4-.8,0c0-.4.2-.8.5-1.2s.5-.5.6.2Z"/>
    <path class="st76" d="M273.9,148.4l.7-.2c4.3,1.9,9,3,14.1,3.2,5.4,1.5,9.3,6,9,11.8,1.4,1.8-2.6,2.8-3.4,1.1l-1-3.5-1.7.9c-2-.7-2,.7,0,4.2l-.5,1c1.7,3.9-4,3.3-6.3,2-.8-.2-1.6-1.5-2.6-1,0-1,.9-1.7,2.5-2.1,5-2-7.8-2.5-7.6-.4-2.5.8-5.2,1-8.1.5-2.6.8-4.1.3-4.4-1.5-2.8-.3-5.7-.1-8.6.6-1.3-.4-1.8-1-1.3-2.3-1.1,2-3.1,3.2-5.9,3.4,1.4,1.8,2.8,3.6,4.3,5.3l-.4,1.1c-2.1.1-4.3-.2-6.4.4-.8-1.6-2.4-3.4-2.3-5.5s1.4-1.8.5-2.9-1.3-1.3-2.8-1.8-2.5-3.1-2.1-4.5c.7-2.1,2.7-3.3,4-4.6,1.2-.1,1.3-.3.5-.6.9-1.3,2.7-1.8,3.2-3.3,0-.4,0-.4.3,0,3.9-2.2,8.9-1.9,13.3-1.4,4.1-.7,8.5-.5,12.7.4Z"/>
    <path class="st77" d="M285.8,102.3c6.7-.5,14.7-.3,21.1,2.1.5-1.9,4.8,1.1,5.8,2l.2,1.1c1.6-.2,2.7.3,3.3,1.4,1,.5,2.1.9,3.2,1.1.8.4,1.8.3,2.9.6.3.8.2,1.6.7,2.3,1.3.8,3.8.3,4.8,1.7s.8,4.4.6,6.2c-1.5.3-9.1.5-10-.5s-.1-2,1-2.3l-3.5.8c1.5.7,2.4,1.5,2.6,2.6,1,1.3,1.7,1.5,2,.5.6-1.4,4.7-1.3,5.5,0-1.3.6-1.5,1.7-1.2,3.7-4.9-.5-10.3-2.1-13.3-6.3-.4-.7,1.6-1.7,2-2l-4-3.5c-.8-.7.9-1.7,1.9-2.2-1.6-1.6-3.8-2.4-6.2-2.9-4.7-1-21.7-4.6-21.1,3.9-1.8-1.7-4.5-2.3-5.5-4.2l-3.5-6.4,1-.7c2.9.4,6,.5,9.2,0l.7,1.1Z"/>
    <path d="M282.3,167.8c-3,.7-5.5,2.2-8.3,3.1l-8.6,2.9c-2.1.7-4.1.6-6.1.5-2.7.1-5.1,0-6.5-2s-4.5-5.5-4.7-5.5c-.4,0-.9.4-1.7.1,1.1-2.3,3.6-2.3,5.8-2.8s2.2-4.8,4.7-3.4c-.4,1.2-1.4,2-1.3,3.2,12.8-2.4,9.3.3,10.7,1.2s.8-.1,1.6-.3c2.9-.4,5.8.5,8.7-.1-1.3-2.4,9.5-2,10.4-.8,1.3,2-4.6,3.7-4.8,3.8Z"/>
    <path class="st77" d="M250.4,102.9c.1,1.9,1.6,3.1,2.9,4.4l-.5.8c3,.8,5.5,2.3,7.4,4.4l-.2.8c.7.9-.1,3.3-1.5,3l-.6.2c0-.6-.3-1-1-1.2-.6.6-1,.3-1.1-.5-1.8-2.3-5.3-2.5-8.1-1.4-5.7,2.2-3.1,9.6-6.3,10.4-.8,1-1.1,0-.6-1,0-1.3-.2-2.6-1.2-3.7-5.9-6.5-1.4-12.5-3.6-12.3,2.1-3.5,13.8-4,12-4.1l2.4.2Z"/>
    <path class="st77" d="M290.3,147.2c2,.6,4.9,4.5,6.5,4.8s3.1,1,4.5,2.2l-.5.5c3.5,3.1,3.8,7.1,4,11.4l-3.2,5c-.6.9-1.8-.9-2.3-.9l-2.9,4.5c-.4.6-2-.3-2.5-.7-4.8-3.6-7-3.1-9-5.3,3-.5,6,1.1,6.3-2,1.2-.3,2.1.5,2.6,2.3-1-1.4-1.2-2.6-.6-3.4-1-1.2-.3-1.3,1-1.5,1.3-.2,2.7.1,3.4-1.1-.3-1-.3-2.2,0-3.5-.4-3.3-2.3-5.9-5.8-7.9-4-1.1-8.3-1.7-12.8-1.9-4.3-.9-6.7-2.8-1.2-4.4.7-1.2,1.3-2.3,1.9-3.3.2-.4.3-.4.6,0l.7.2c1.5,4,5.4,6.2,9.2,4.8Z"/>
    <path class="st76" d="M318.3,105.9c-.4,1.1-4,1-5.3.7-3.5-2.6-7.1-4.8-10.9-6.7-2.8-1-5.6-.9-8.5.5-6.2,0-12.3,0-18.2,0-1-.8-1.8-.9-2.4-.6-.9-1.1-.8-1.9.2-3.5s2-.7,2.7-1.6l.9-1.2c.2-.3.8.4,1.3.6,6.7,2.2,15.8-.4,19.3-.1,6.4.6,12,5.9,18.4,9s2.3,1.6,2.6,2.9Z"/>
    <path class="st77" d="M278.9,141.7c1.2.7,0,3.3-1.4,3.4-.4.8-1.2,1.4-2.4,1.9-1.2-.2-1.6.2-1.2,1.4-2.7-.2-5.5.2-8.5.3h-11.5c-2.2,0-4.1,1.6-6,.8-.9-1.5-2-2.9-3.3-4.2-.9-1.8-1.1-5.7,1.3-6,0,.6.5,1.1,1.3,1.4,9.7,2.5,9-2.3,14.9-.6s8.7,6.5,15.4,2.5l-2-4.5c1.5-1,3.8,2.1,3.4,3.8Z"/>
    <path class="st8" d="M318.3,105.9c0,.4.9.6.5,1.2s-.7.2-.9.3c-1.1,0-1.9.2-2.5.6-.7-.5-1.6-.6-2.6-.6-2.2-.5-3.7-2.8-5.9-3-3.1-1.3-6.3-2.2-9.6-2.9-3.1.7-6.3.9-9.6.5l-1.8.3c-5.2-.5-6.7,1.4-10.9-.4-.8-.5-1.5-1.2-2.1-2,0-.4-.2-.9.1-1.5,1.2,0,3,1.9,4,1.3s1.9-.2,3.4-.2h13.7c6.3-4.4,14.4,3.1,19.3,6.4,1.4.9,3.5-.1,4.8,0Z"/>
    <path class="st77" d="M388.3,128.8c.6.4,1.5.4,2.7.2,1.6.5,2.2.4,1.8-.2,1.2-1.1,3.3,1.3,2.5,2.5-5,1.4-6.8,6.7-5.1,11.6s-1.4,5.7-3.3,6.8l-.4-1c3.9-5.7.9-11.7-6.2-10.4.5.5,0,.9-.6,1,0,.4-.2.5-.4,0-1.1.3-1.4-.3-.6-1.1-.1-.3-.1-.6-.3-.9,0-1,.5-2.5,1.5-2.7,1.2-2.9,4.4-5.1,7.3-6.4s.8.2,1.1.5Z"/>
    <path class="st12" d="M385.3,150.7c-3.6,5.4-6.7,2.3-9.5,3l-.4-1c1.1-1.4,2.3-2.7,3.6-3.7l-.3-.7c1.5-1.7,1.8-3.5,1.1-5.2l.5-.9c.3-.7-.2-1.5-.5-1.5-1.3.3-1.5-.6-.5-1.4h.4c.4-.4.9-.6,1.6-.5.6-1.1,2.7-.6,3.9,0,5.3,2.1,2.4,9.1.1,12.1Z"/>
    <path class="st14" d="M305.9,115.8c-2.2-.5-4.3-1.4-6.4-2.5-1.2-.2-2.3-.3-3.5-.5-.1.5,0,.8.4,1.1,1.5-2.1,4.4,1.4,1.7,1.9-.7.5-1.4.9-2.2,1.2,0,1.5-2.3,1.3-2.5-.1-.7.3-1.4.3-1.1-.5-1,.4-1.6-.2-1.6-1.8-1.6,1.8-3.7,4-6.2,3.1-.8-1.4,1.8-1.6,2.3-2.9,5.8-7.6,14.6-5.2,21.2,0,.9.7,2.3.8,2.8,2.1-1.4.6-3.7,0-4.9-1Z"/>
    <path class="st12" d="M287.3,121.2c.2-.8,1.3-1.4,2-.8.1-.5.4-.5.6-.1.8-1.2,2.2-1.6,4.4-1.3,2.4.4,4.8.4,7-.1,2.6,2.6,2.4,3,2.1,7.1-6.4-1.6-13.6,1.1-17.1-3.6,0-.4.7-1,.9-1.1Z"/>
    <path class="st73" d="M258.8,117.3l-4.8,8.7c-2.8,5.1-6.6,8.8-8.2,13.2-3.3,7.3,2.5,6.2,2,10.2,0,0-.2,0-.3,0l-.6-.8c-1,.8-2.8-1-3.5-1.9-2.7-3.6-1.1-7.5,1-11,2.9-3.8,5.6-7.8,8.2-11.9l1.6-1c-.2-.2-.2-.4.1-.5,0-.3-.1-.3-.5,0-.6,1.2-7,1.8-7.8,1.4-1.2-.7-.3-3.6,1.3-2.2.6-.8,1-.9,1,0l.5-.5c.1-.4.3-.4.5,0,1.3-.8,3.5-.5,5.1,0,.5-1,1.2-2.1,2.1-3.5.9-.5,1.5-.7,1.9-.6.8-.4.9,0,.3.6Z"/>
    <path class="st0" d="M392.9,150.8c-.4.5-.4.7,0,.5.2,0,.7.1.8.5-1.6,1.7-8.9,6.9-11.2,3.9,11.3-.2,11.4-18.5,14-17.7s-2.8,11.4-3.6,12.9Z"/>
    <path class="st85" d="M328.3,120.8c0,.9-1.7,1-2.4,1.1-1.4.2-4,.3-5.5,0-1,.6-1.7.5-2-.5-.9,0-5.9-3.4-4.2-3.5,6.5-.5,11.3-4.3,11.5-2.3s-6.1,3.2-7.3,3.7c2.9,1.6,8.4-.2,9.9,1.5Z"/>
    <path class="st73" d="M256.9,179.8c9.6,2.3,16.3-3.6,17.3.3-1.3.4-2.4.6-3.4,1.1-5.9.9-11.1,2.5-16.8-.6s-1.7-1.3-1.1-2.3c1.4.7,2.6,1.2,3.9,1.6Z"/>
    <path class="st103" d="M395.3,131.3c-.6-.9-1.5-2.1-2.5-2.5-1.1.4-3.4.4-4.5,0-3.4.9-5.9,3.5-8.5,5.8-.6.7-.9.5-.5-.4,3.3-6.3,12.4-10.1,16.1-5.5s3.1,5.5,2.1,8.3c-1.4-1.9-1.1-4.1-2.2-5.7Z"/>
    <path class="st90" d="M378.6,138.2c.1.4.6.7.6,1.1s.4.9.5,1.4c.5.2.7,1,.5,1.5,1.2,2,.9,4.1-.9,6,1.4.5,3,.4,3.3,1.9-4.8-.9-4,.8-6.9,3.7-1.6.4-2.5.2-3.4-1-.6-1.8.6-1.9,2.1-1.6l.8-.5c-1,0-1.6-.5-1.6-1.4.6-.3.9-.8,1.9-.8,1.8,0,4.2-1.8,3.7-3.8s-2.1-3.9-1.8-6.2c.2-.2.8-.2,1-.2Z"/>
    <path class="st53" d="M284.8,145.3l-1.1.5c-2.1-1.7-3.3-4.2-3.7-7.4l-.6.4c.2.9.2,1-.6.4-.3.1-.5.2-.7.1-.4-.2-3.9-2.9-3.9-3.2s0-.5.1-.8c1.2-.5,3.2-1.5,4.8-.7,3.5,1.8,4.9,7.4,5.7,10.7Z"/>
    <path class="st81" d="M284.8,145.3c1.7,1,3.6,1.4,5.5,2-.2.4-.4,1.2-1.1,1.3-4.3.7-8.1-2.2-8.8-6.2-.2-.3-.4-.8-.5-1.5-.3-.5-.7-1.4-.4-2-.2-.9-.6-1.9-.1-3.1,3.2,5.2.8,6.9,5.5,9.7Z"/>
    <path class="st53" d="M292.2,116.3c.2.3.2.7.1,1.1.5.9,0,1.5-1.7,1.8l-.7,1c-.2,0-.4,0-.6.1-1.2.3-2.2.3-3,0-.3-1.2-.5-2.7-1.9-2.6l2.6-1.2c1.9-.9,2.8-3.1,4.8-4-.1,1.6-.4,2.9.4,3.9Z"/>
    <path class="st73" d="M295.8,116.9c.9.8,4.2.6,5.5,1.9,0,3-5.2.3-11.4,1.4-.1-.4-.6-1.4,0-1.7l2.4-1.1c-.2-.6.1-.8,1-.6h2.5Z"/>
    <path class="st115" d="M386.8,149.7c-.5.3-.9.8-1.5,1.1-2.4-.8,5.5-5.6.5-10.7s-2.9-1.3-4.5-1.2c-.8.6-1.5.5-1-.5,1.7-1.1,4.3-.9,6.2.4,3.7,2.6,2.7,7.6.3,11Z"/>
    <path class="st81" d="M301.3,154.2c3.5,2.8,6,8,3.5,12-2.6,0,1-5.4-5-11.4s.5-1,.7-.9.6.3.8.4Z"/>
    <path class="st12" d="M305.9,115.8c-.6-.5-1.3.3-2.1.4-2.1.4-3.9-.6-5.8-.5.3-.5.3-1.1,0-1.3-.6-.4-1.1-.5-1.6-.6-.6,0-.7-.7-.4-1.1,1.7-2.5,8,1.4,9.9,3Z"/>
    <path class="st26" d="M253.2,107.3c2,.7,7.5,2.9,7.6,5.5.2.5,0,.5-.4.5,0,.4-.1.4-.4,0-2.1-3.5-10-4.1-9.1-6s1.8-.2,2.4,0Z"/>
    <path class="st89" d="M274.4,135.3c1.4,1.6,3.5,1.7,4.5,3.9.7,0,1,1.1.5,1.6.4.5.2,1.2-.5.9-.6-1.8-1.9-2.7-3.4-3.8s-3.9-2.1-6.9-2.5c2.1-1.8,4-.3,5.8-.2Z"/>
    <path class="st78" d="M372.4,152.8c-1-1.4-.2-2.8,1.3-3.5l3,.6c-.3,1.6-1.5,2.7-3.2,2.2s-.6,0-.8,0c-.4,0-.3.5-.3.8Z"/>
    <path class="st16" d="M317.9,107.4c-.5.5-1.3.6-2.1.4-.3.2-.3.4,0,.6,1.2.4,2.6.6,3.5,1.6-1.7.8-3.6-.2-4.4-2l-2-.5c1.7-.1,3.4-.3,5.1,0Z"/>
    <path class="st49" d="M260.8,113.8c0,.1,0,.3,0,.4l-.4.6c0,1-.7,1.8-1.5,2.4l-.3-.6c-.5,0-.5-.1,0-.4.9-.7,1.6-1.8,1.5-3,.1,0,.3,0,.4,0,.6-.2.8,0,.5.6Z"/>
    <path class="st149" d="M289.3,120.3c-.6.2-1.4.5-2,.8-.3-.2-.9-.5-1-.9,1,.2,1.9-.3,2.8-1.3.4.3.2.9.2,1.4Z"/>
    <path class="st69" d="M361.6,118.3h-1.8c.4-.4.7-1.4,1.5-1.3.4.1.4,1,.3,1.3Z"/>
    <path class="st118" d="M379.8,134.6c-.7.7-.6,2.1-1.5,2.7-.8-1.4.4-2.2.9-3.2l.5.4Z"/>
    <path class="st41" d="M377.8,130.3c-.1.4-.4.8-.9,1-.4-1.1.2-1.5.4-2.1,0,.4,0,.9.5,1Z"/>
    <path class="st144" d="M363.8,185.7c.2-.2.3-.2.5,0,.7,0,.7.8.2,1,0,0-1.1-.8-.7-1Z"/>
    <path class="st98" d="M392.9,151.3c0,.2-.2.6-.4.5-.3-.2-.3-.6-.3-.7s.5,0,.6-.3v.5Z"/>
    <path class="st77" d="M260.3,114.9c0-.2,0-.9.4-.6-.1.2-.3.4-.4.6Z"/>
    <path class="st77" d="M260.8,113.8c.1-.3-.1-.6-.5-.6-.3-.4.1-.6.4-.5,0,.2.4.4.3.7s-.2.2-.3.3Z"/>
    <path class="st77" d="M315.8,108.4c-.6,0-.7-.7,0-.6v.6Z"/>
    <path class="st66" d="M364.3,185.7h-.5c.3-.7.6-.4.5,0Z"/>
    <path class="st101" d="M260.4,63.9c-1.1,1.6-2.5.1-4.5.5.7-.9,1.4-1.8,2-2.6,1.5.5,2.6.6,2.5,2.1Z"/>
    <path class="st77" d="M247.4,116.9c-.2,1.1.2,2.1,1,2.9.4.6-.4,1.3-1,1.6-.3.5-1.3.5-1,1.5,2.7-.3,5.1-.9,7.5-.7l.4.6c-2.2,4.4-5.2,8.3-8.3,12.4s-4.3,8.4-1.6,11l2.5,2.4c-2.4,1.4-4.2,3.5-6.5,5.1-.9,1-1.6,1.2-2.1.5-.7-1.6-1.7-4.9-2.1-6.9-1.7-8.3,1.2-16,6.8-21.8.3-.3.4-.7.3-1.3,2.9-3.3,1.2-6.5,3.5-7.9.7-.5.9-.3.6.5Z"/>
    <path class="st15" d="M255.3,115.3c.5-.5,1.4.3,1.1.9.4.2.6,0,.5-.5-.4-.2-.4-.3,0-.5.4-.2.6-.2.9,0,.4.3.7.7.8,1.1s0,.3,0,.4c-1.5.8-3.3,5.7-4.1,4.1-1.3,0-2-.4-2.1-1,1.1-.3,2.2-1.2,1.6-2.5-.7-.4-1.7-.2-2.4-.7s-.1-1.3.2-1.6,1-.4,1.5-.2l1.9.5Z"/>
    <path class="st63" d="M252.4,119.8c.6.5,1.4.6,2.1,1h-5.1c-.4-.1-.4-.3,0-.5l3-.6Z"/>
    <path class="st116" d="M243.8,153.4c.2-.2.4-.4.5-.6.8-.1,1.6,0,2,.9-1,.2-2,.3-2.6-.2Z"/>
    <path class="st138" d="M241.4,123.8c-.4.3-.5,1-1.2,1.1-.1-.7,0-1.7.6-2.2,0,.4.1,1.1.6,1Z"/>
    <path class="st5" d="M249.4,120.3v.5c-.2,0-.3,0-.5,0l-.5.5h-1c.3-.5.4-1.2,1-1.5.2.3.7.3,1,.5Z"/>
    <path class="st36" d="M240.4,153.7c-.5.3-.6,1.5-1.5,1.6s-.4-.8-.5-1c.7-.1,1.4-.3,2.1-.5Z"/>
    <path class="st61" d="M238.5,159.8c.2-.2,1,1.1.5,1.3s-.7,0-.8-.3-.1-.6.3-1Z"/>
    <path class="st106" d="M256.9,115.3c0,.2,0,.3,0,.5.5.7.2,1-.5.5-.5,0-.7-.8-1.1-.9l.5-.6c.4,0,.8.2,1.1.5Z"/>
    <path class="st18" d="M243.1,125.5c-.2-.5,0-.9.3-1.3.5-.2.5.7.5,1.3s-.4.4-.8,0Z"/>
    <path class="st70" d="M247.4,116.9c-.2-.2-.4-.4-.6-.5.2-.1.3-.7.5-.8.5-.4.6.1.5.6s-.4.4-.5.8Z"/>
    <path class="st110" d="M787.5,16.5c.9-.1,2.1-.6,3.1-.4.2-.2.5-.3.7-.2,1.6.4,8.1,9.7,9.1,11.5,4,7,5.4,16.3,5.5,24.3l-.9.8c-.2,1.8-.3,3.8.3,5.7,1.6.5,3.1.3,4.5,1.2-.8,2.5-1.7,4.7-1.7,7.1s.9.4,1,.6c.9-.8,1.2-.7,1.5.5,1.2.2,2.6.4,4,1.1-.3,1.7-1.5,3-2,4.4-.1.9.5.6,1,0,.1,0,.3,0,.4,0,.6.3,1,.7,1.3,1.2,2.5-3,4.2-3.4,5.1-1.1-.4,2.1-.6,4.2-.7,6.3.4.8,1.1,1.3,2.1,1.7.7,3,1.5,1.1,2.9,6.6l3.1,11.8c.2.6.7.9,1.1.9h.7c.7,2.1,1.7,3.9,3,5.5,1-.5,1.7-.1,2,.9l2.4,13.8.9.6c5.1-2.6,5.1.2,6.8-2.3-.8-1.1-.1-1.8,1-1.1,3.1-.9,1.9-7,5.5-8.4h-.7c-.5-5.1,0-11.1,1.3-16s.5-.4,1-.5c.7-.3,1.2-1,1.9-1.4.3-.3.7-.5,1.1-.6.7-1.8,2.2-3.1,4.5-3.9l6-4c4-2.7,8.1-5.1,12.7-6.6,7.4-2.4,9.2,9.4,9.8,13.7.1,1-.1,1.4-.6,1.4-1.5-.3-3.1-3.6-3.6-5.1s-.3-1.5,0-2.4c-1.3-.2-2-.7-2.3-1.5-2.1-.4-3.4-.4-5.3.7-3,1.7-5.5,4.2-7.7,6.9v1c-5.3,6.2-9.1,12.9-6.1,21l.2,2.5c.2,1.5-.1,2.3-1.1,2.4-1.2,3.4-3.6,6.1-7,8.1-1.8,1.6-4.5,6.5-4,8.8s.7,3,2.4,1.6c1-1.5,2-2.1,3.1-1.9,1-4,3.9-6.5,8.2-5.8,2.3-.9,4.1-2.6,5.5-5.2,2.9-1.8,5.2-4.1,6.9-6.9h.7c-1.1-.3,1.1-4.6,2.1-6s.5,0,1,0c.2-.9.6-1.4,1.1-1.5.5-.6.8-1.4.9-2.4l.7-.2c.7-.7,1.1-.4,1.6.3.8-.7,1.4-1.1,2.3-.3-1,5.4-3.4,10-6.5,14.5l-7.1,7.4c-2.6,3.5-5.6,6.5-9,9-.3,1.4-.8,2.5-1.6,3.2.6,4.2-1.9,8.1-5.7,9.9-1.7.8-3.3.7-5.1,1.1-2.8,1.5-4.4-11.9-4.7-13.9-1.8-.9-3.7-1.2-6-1.2-1.2,5.2-1.1,10.7-1,16.1l.2,6.9c.2.3.4.6.6,1,1.2,2.8-3.8,17.9-5.2,21.5s-6.6,16.1-9.8,18-.8.4-1.2.5c-1.6.9-2.5,2.6-4,4l-20.4,19.5c-5.6,2-10.5,4.6-15.8,7.2-8.2,4-15.6,8.6-22.8,14.2-4.1,3.1-9,5-13.8,6.6-4.4,1.5-8.4,0-12.2-1.9s-7.1-1.9-10.6-3.1c-.1-3.6.5-7,1.3-10.2-1.8-1.9-3.1-3.8-4.3-5.7,0-.4.2-.9.6-1.1.9-.6,5.6-2.8,7-3.3s.4,0,.6.2c0-1.9,4.1-3.4,5.9-3.7,6.3-.8,13,2.3,16.9,7.2.3.3,2,1.6,2.1,1.5.3-.3,2.2-5.8,2.3-6.4s-3.1-3.2-4.2-3.3l-7.3-2.6-.9.9c-5.9-1.2-11.9-1-18.1.6l-8.1.5-.7-1-1-.8c-.5-2.9-.8-5.8-1-8.7,8.9-2.1,15-8.7,19.6-16.1l2.2,1.3c5.3,6.9,11.4,12.7,18.3,17.5,3.2,3,5.7,6.6,7.3,11,1.9-1.2,3.4-3.8,2.2-6.2.3-1.9-.2-3.8-1.5-5.7-.7-11.4-4.6-21.9-11.5-31.1-3.4-6-7.5-13.6-6.8-20.6,2.9-1.2,5.9-2,9.1-2.7,0-1.2,1.4-1.6,2-.6.9-2.2,1.6-4.6,2.1-7.3l1.3-1.1c-.6.4-1.2,0-1.1-.8-3.9.1-7.7,1.1-11.4,2.3-.6.1-1.6.3-2.2.2s-5.9-6.2-6.6-7.3l.3-1.2c.2-.5.6-.8,1.2-.9,3.5-.7,6-1.4,9.4-2.4s1-.2,1.4.3c-.2-.9.2-1.3,1.1-1.3,4.4,1.8,8.9,3.4,13.4,4.9,4.3,1.2,12.8,2.3,16.9.6v-2.1c3.7-9.2-1.4-20.7-9.5-25.9l-5.9-7.9c-4.7-5.3-7.8-6.2-14.9-6-12,2.1-24.3,2.3-36.4,2.3-1.3,0-2.2-.9-3.1-1.8-1.7,0-3-.9-3.9-3.1l-2.2,3.5c-.4,1.5-1,2.8-1.9,3.9,1,.1.9.8,0,1-.3,1.7-3,1.4-3.9,0l-.4-13.3c-2.6-1.5-6.5-1.7-9.2-.8l-.8,8.4c-1.6,2.2-4.4.4-4.6-2.1,4.6-25.2,9.3-50.3,15.2-75.2l1.1-.4c3,.8,6.5,1.3,9.8.8,6.5-1.1,13.1-2.9,19.5-5l1.3.3c1.6,1.2,0,4.6,2,4,.2-.4.4-.8.7-.9,15.7-7.3,33.4-12.4,50.2-5.6Z"/>
    <path class="st14" d="M787.5,16.5c-12-3.4-27.5-2.6-39.4,2.1s-7.6,3.3-11.4,4.5c.1-.3-.1-1.3.5-1.6,7.3-3.7,15.2-6.9,22.9-8.4l8-.5c6.2-.4,12.1.3,17.9,2.5.8.3,1.3.7,1.5,1.4Z"/>
    <path class="st65" d="M791.1,15c3.5,2.2,8.6,9.5,10.9,13s3.4,7,4,11,2.2,17.1.4,17.2-.4-3.5-1.3-3.9l-1.1-12.2c-.6-6-3-11.1-6.6-15.9s-3.8-6.3-6.7-8.2-.3-.6-.5-.6c-.9-.8,0-.8,1-.5Z"/>
    <path class="st14" d="M821.9,81c-.9.3-1.7.5-2.2,0-2.3-2,.2-5.6-.2-8.7-1.8.3-2.5,2.2-4,3s-1.7-1.6-1.4-2.4c1.8-4.8,2.6-9.5,3.5-14.4s.2-.8.6-.8c1.3,0-1.6,11.9-1.6,13.6,1.5-1,3-2.3,4.8-1.6s-.8,7.3-.6,9.1c1.1-.2,4.7-5.4,5.7-3.7s-3.9,5-4.5,5.9Z"/>
    <path class="st85" d="M838.2,121.1c-.3.2-.6.8-.9.9-1.4.4-3.1-13.9-3.5-15.7-2.4,2.5-4.6-5.8-4.7-6l-2.1-10.1c-.6-.8-.3-1,.5-.5,1.3,3.3,2.6,10.1,4.4,13.4.6-.3.9-1,1.4-1.2s1.5,0,1.7.8c1.5,6.1,2.5,12.2,3.2,18.3Z"/>
    <path class="st55" d="M810.6,67.4c-.5,0-1.2.2-1.5-.5,4-15.7,4.1-17.4,0-32.4-.5-1.4-.3-1.7.5-1.1,5.4,13,5.7,20.5,1,34Z"/>
    <path class="st0" d="M853.1,92.8c-.5,1.9-3,15.5-1.6,16.5-.3,0-1,.2-1.2,0-.4-.3-.2-1-.2-1.6-.2-9.4,1.3-18.3,5.2-26.8s.8-.6,1.1-.5.4.7.2,1.2c-1.7,3.7-2.5,7.4-3.4,11Z"/>
    <path class="st43" d="M853.5,69.5c-2.4-1.1-3.1,8-10.1,7.8,8.5-5.2,6.4-12.2,10.1-11.5.9.5.9,3.4,0,3.7Z"/>
    <path class="st81" d="M860.6,70.9c-2.4.8.5-1.3-4.8,1.7s-.6-.2-.5-.5c1-2,3.2-2.5,4.9-3.5s1.9-2.9,4-2c-.6,1.5-1.7,3.7-3.5,4.4Z"/>
    <path class="st75" d="M846,117.8c-.4.1-.8.7-1,1.1-.7.3-1.4.7-2.2.5s-1.1-.6-1.2-1.5c3.3.6,3.3-3.6,5.3-2,.1.7-.9,1.3-.9,2Z"/>
    <path class="st114" d="M860.6,86.8c-1.6,1-3.1,2.6-4.5,3.9-.7.6-.9.3-.5-.5.5-1.6,2.3-2.2,3.3-3.3-.6,1.2,1.1-.2,1.6-.2Z"/>
    <path class="st123" d="M791.1,15c-.4,0-.9,0-1,.5-.8,0-1.3.1-2.1-.1.8-1.5,2.1-1,3.1-.4Z"/>
    <path class="st143" d="M827.5,89.8c-.2,0-.4.3-.5.5-.2-.3-1.3-1.3-.8-1.7.9-.7,1.1.8,1.3,1.2Z"/>
    <path class="st34" d="M809.6,33.4c-.5.1-.6.6-.5,1.1-.2-.9-1.6-1.6-.6-2.8.8.5,1,1.2,1.2,1.7Z"/>
    <path class="st59" d="M856.1,90.8c0,.2,0,.8-.4,1s-.6-.2-.8-.4c-.1-.5.6-.8.7-1.1l.5.5Z"/>
    <path class="st113" d="M813.6,72.9c-.4.4-.3,1.3-1,1.5s-.5-.5-.6-.8c0-.4.3-.6.6-.8-.1.4.2.6.5.4s.3-.2.5-.3Z"/>
    <path class="st77" d="M888.5,91.3c.4.6.8,1.5,1.1,2.6,1.5,4.1-.8,7.7-1.5,11.5-.9.3-1.5,1-2.6,1.6-.7-.5-.8-1.4-1.4-1.7l-.7-.8.4-5.3-.8.7h-1.2c-.8-1.6-1.5-3.2-2.2-4.7l-2.4,4.2-1.2.4-.8.7c-2.7-.2-5.4,0-8,.3-.6.5-.3.8.9.7,1.3-1.1,6.3-2,7-.1l1.6,1.1c.8-.5,1.4,0,2,1.4.5,1.6.8,1.9,1,.7,2.7-1,3,3,1.9,4.9.8-1.2-4.2,8.5-3.1,5.9l-.9.4c-1.7,2.7-4,5-6.9,6.9-1.1,2.3-2.3,3.3-3.5,2.9l-.5.5c.7.6.6,1.1-.3,1.4-4.8,0-8,1-9.3,6-1.4,1.7-2.8,3.3-5,4.5-.4-1.8-2.1-3.9-1.4-5.9,3.1-9.3,7.7-8.4,12-15,.2.2.4.3.6.4,1.3.5-.3-9.6-.7-10.7l.5-.7c.8-.9.9-2.3.5-3.5-.5-.4-.5-.7-.3-1.2,3.8-8.8,10-14.8,18.8-18.6-.2-.2,0-.3.5-.2,1,.2,2.3-.1,3.5.7l-.5,2.3c1,2.1,2.2,3.9,2.9,5.9Z"/>
    <path class="st77" d="M858.1,149.3c1.9-2.3,4.5-4.6,4.8-7.9s-.7-2.6,1-3.3c-.2-4.2,3.6-3.4,6.7-7.8s6.7-7.7,10.9-10.5c-2.6,3.7-5.1,7.4-8.8,10.7-3.2,2.9-5.2,6.6-6.1,10.8-1.6,7.5-5.8,6.8-8.5,7.9Z"/>
    <path class="st86" d="M889.6,93.9c-.9-.6-.8-1.7-1.1-2.6.4-.4.6-.9.6-1.4.2,1.1,0,2.9.5,4Z"/>
    <path class="st125" d="M853.6,152.3c.1.2,0,.4,0,.7s-.3.3-.6.2-.3-.4-.4-.5c.1-.5.7-.3,1.1-.3Z"/>
    <path class="st77" d="M691.7,19c.1-.2.2-.4.4-.5.5-.3,10.7,2.8,12.2,3.3s.1.9-.2,1.2l-8.2,37.1-6.3,34.7c-.3,1.6-1.3,3.2-.6,4.8s1.7,1.2,2.4,1.2l.9-9.9c3.9-.2,7.7-.6,11,1.4l.3,13.7c.3.8,2.3.2,3,.3,1.1.9,1.1-.4,0-1,.6-1.8-.5-2.7,3.9-9,1.4,1.1,1.8,2.5,2.8,3.7.6,0,1.3-.1,2-.2,1.3,2.7,3.6,1.8,5.8,1.8h11.9c3.4,0,6.7-.2,9.9-.7l10.6-1.4c14.1-1.9,17.8,9.3,21.9,13.9s4.9,3.7,6.8,6.3,3.5,7.8,4.4,12.2.5,5.8-1,8.4.4,3-.8,3.3c-6.2.9-13,1.1-18.8-1.2l-10.3-4.1c-1.1-.4-1.7-.3-2.6,0-.7-.2-1.2-.5-1.5-1-.9,0-1.4,0-.9-.9-.6,0-1,0-1.1-.6-2.2.6-5.9-5.5-2.4-5l1.1-.6c3,2.4,6.1,4.7,9.3,6.8-.8-.3-1.1-.8-1-1.7l1-.8c3.5,1.1,17,2.7,5.8-.2-6.7-2.8-12.7-6.8-18.5-11-.6,1.8-1.7,2.7-3.2,2.6l-1,.8c-2.9-.5-5.9-.3-8.6.9,1.3.3,1.7,1.5,1.1,3.5,0,4.4,4.4,5.6,7.3,2.7-.4-.7-.4-1.2.3-1.8,3.1-7.1,9.1,3.3,2.2,5.1-1.3,2.3-5.1,2.6-7.3,1.2-1.2,0-2.5-.6-3.8-1.9h-.8c0,0-.2.4-.2.4,2.2,2.7,5.6,3.3,9.4,3.9s.7.4.9.8l6.2,7.3c.6.7,1.6,1,2.3,1.1h.6c-1,1.7-5.6,2.2-7.6,2s-.3-.3-.4-.6c-1.4,0-4-.5-4-2-1.8-.9-2.1-.7-1.1.6,1.1,0,3.6.8,3.5,2,7-.4,13.9-1.6,20.7-3.8l.8.3-1.6,6.8c-.3,1.1-1,1.4-1.8,1.6-.8-.8-2.1-.8-4.1,0,.8-.2,1.5,0,2.1.6-2.5,1.5-5.3,2.1-8.5,3.2.4,2.6.2,5.4,1.4,7.9,2.2,4.4,3.8,9.3,6.7,13.4,6.6,9.3,9.4,17.5,10.3,28.8s2.5,3.5,1.8,6.1,2.7,2.3-3.1,8.6c-2.7-2.6-3-6.3-5.1-9s-6.2-4.9-9.1-7.3c-4.4-3.6-9.1-10.3-13.6-14.4-1.4,4.2-4.3,6.9-7.3,9.8-3.4,3.3-6.9,5.4-11.7,6.1.7,3.6,1.5,6.2,1.4,9l-.9,1c-9.2,1.6-18.6-1.4-25.6-7.3s-4.5-3.9-3-5.2c-1.3-2.9-.8-3.9,1.5-3.1.9-.8,2.2-1.1,3.9-.9,3.6-1.1,7.1-2.8,10.5-4.9,5.7-2.9,11.4-2.4,17.3-.9,9.6,1,15.6-7.7,12.1-16.2l.4-1.1c-.8-1.3-.6-1.6.5-.5,1-.5,1.9-.2,2.8.9l11.1,14.9c3.5,2.7,6.9,5.5,10.1,8.5,3.5,4.7,2.8,3.8-2-2.6-6.7-4.6-12.2-10.5-16.4-17.8-3.3-4.7-8.4-7.6-13.6-9.8l6.4,7.6c1.4,2.3,1.7,4.3,1.1,6.9-2.6,10.1-11,9-19,7.7-6.5.4-12.7,2.6-18.6,6.6-7.9,2.5-16.9-1.6-16.9-10.7.8-7.7,1.3-15.5,1.7-23.3-1.1-11.2,2.1-21,7.5-30.6,3.3-6.9,3.9-14.2,2.6-21.5-.6-.2-1.1-.9-1.5-1.9.8.9,1.1,1.9.9,2.9.3.2.6.4.7.6,1.9,7.9-.8,16.3-4.3,23.3-4,6.4-5.9,13.8-6.1,21.3l-.9.6-.2,8.4c-.7.9-1.3,0-1.9-2.5-4.8-6.9-9.3-14-13.6-21.3l-.9-3.3c-.5-7.3-.4-14.6.3-22l.5-.7c0-1.7-.1-3.7-1-5.4l.3-1c-3.1-3.7-5.9-7.7-8.7-11.6s-.3-.6.1-1c-.8-.7-.5-1,.4-.5,1-.7,2.3-.7,4,0h1.9c-.6-.6-1.4-.9-2.4-1-.2.4-.6.6-1,.7-2.4.7-8.3-6.5-8-9.2.5-1.2-.3-2.8.4-4-.4-3.5,0-7.1,1.1-10.7.9-1.8,1.3-3.2,1-4.2,0-.4.2-.7.6-1,0-.6.2-1.3,1-2.1-.2-1.7,0-3.3.5-5,3.7-16.3,8.5-36.2,17.6-50.1s.5-.5.8-.7.7-.4,1.1-.6c.8-1.4-.3-2.5-.5-4,2.4-.4.9,1.2,3.3,1.2-.5,1-1,1.6-1.2,2.6,4.9,1.8,9.6,3.2,14.5,4.1Z"/>
    <path class="st51" d="M736.5,180.1c-.9-.3-1.6-1-2.2-1.8-1.3-.8-1.3-.7,0,.4.8.1,1.5,1,1.6,1.9,3.9,4.5.7,14.2-5.3,17.4s-8.4.7-12.6,0c-6-1.1-11.6,1.5-16.6,4.5s-6.5,2.8-9.8,2.2c-.8-.2-1.5,0-2.2.3l-.4-1.1c-.7,1.1-1,.5-1.3-.6-12.1-3.9-5.2-19.5-5.9-29.5-.9-.6-.9-1.5,0-2.6v-7.3c-.3-4.7,2-15.8,4.9-19.8,1.8-2.5,2.8-5.3,3.9-8.2,2.2-5.8,3.1-11.9,1.9-17.9-.2-1,0-1.3.6-1,1.3,2.4,1.2,4.8,1.3,7.4.5,8.3-3.7,15.4-6.8,22s-4,13.1-3.9,19.9c.1,7.6-.3,14.5-1.1,22s-1.1,6.8.6,9.4,6.9,5.2,10.7,5.4,6.1-1.9,8.8-3.5c12.9-7.8,20-1.6,25.6-3.5s5.1-3.9,6.2-6.8.5-5.8-1.6-8-7.6-8.4-6.6-8.2.9-.3,1.2-.2c13.3,5.8,13,7.9,21.3,19.1,8,10.9,8,3,16.4,18.4s-.4,1.3-.9,1.4c-3.2-3.4-4.3-7.8-8.6-10.2s-5.8-4.1-7.9-7.1l-8.8-12.2c-.7-1-1.9-1.5-2.6-2.2Z"/>
    <path d="M698.1,229.1c.9-.3,1.1,0,.5.7-1.8.6-3.4,2.1-5.4,2.5s-2.7.2-4.2.8l-39.1,14.4-25.1,9.3c-1.9.7-3.5.9-5.3,1.9-4.1,2.2-7.8,4.6-11.1,7.9s-8.1,8.6-12.2,13.3c-9,10.1-17.9,19.8-27.7,29.1s-2.2,1.6-3.4,2.1c-.7,0-.9-1.7-.3-2.4l31.6-34.1c7.5-8.1,12.3-14.5,22.6-18.4,4.1-1.5,6.3-6.8,9-2.9l25.8-9.3,40.4-14c1.4-.5,2.5-.8,3.7-.9Z"/>
    <path class="st8" d="M689,203.8c.6.2.7.6.5,1.3l.7,2.6c1.3,4.7,12.5,10.4,17.6,11.6s8.1.1,11.9,0l6.5-.3c4.1-.2,7.8-1.1,11.9-1.6s6.5.8,9.5.9l7.2,2.5c4.9,2.4,5.7,4.9-.3,3.9-4.3-2.1-8.7-3.3-13.3-3.8-9.5,1-19.1,1.5-28.6,1.6-2.8,0-10.6-.8-12.4-2.7s-.4-.9-.5-1.5c-.7.9-1.4.5-1.9-1.1-1.8-.3-3.1-1.9-4.6-3-3.6-2.7-5.5-6.6-5.4-10.9.3,0,.8.6,1.3.6Z"/>
    <path class="st44" d="M702,227c2.2,3.2,4.4,3.4,5.3,8.4,3.4,4.7,1,12.6,3.7,15.2s7.8,6.3,12.6,6.7l14.8,1.4c2.7.3,5.1.5,7.6.2,1.1,1.4-1.8,1.7-3,1.2-1.1,0-1.2.1,0,.2-.9-.6-1.9.2-2.9.2-6-.2-11.8-.3-17.7-1.4-4.2-.7-7.7-3-11.1-5.3-5.7-4-2.7-12.2-4.2-15.7s-4.5-7.1-6.4-10.6c.2-.2.1-.8.6-.8s.5,0,.7.1Z"/>
    <path class="st8" d="M675.6,15c-3.8,6.6-7.4,13.1-9.9,20.6-4,11.9-7.3,23.7-10.1,35.8-.4,1.2-1.4,2.2-1,.5v-1l.4-1c0-6.8,6.9-30.2,9.6-37.9s7.5-18,10.6-17.8.2.7.3.9Z"/>
    <path class="st44" d="M682,163.7c.3,3.2.4,6.4-.2,10-.4.2-.5.8-1.2,1-.5-1.5-.7-2.4-1-3.4-.5-.2-.8-1.1-.5-1.6l-10-14.5c-2.2-3.2-4.3-6.6-4.7-10.6-.8-6.8,0-13.5.3-20.4s.5-1.7,1.3-1.9c0,2.4,0,4.6,0,7.1l-.2,10.8c0,4.6,1,8.4,3.6,12.2l10.1,14.8c1.1,1.6,1.4,3.2,1.8,5,.8-3.1-.4-5.9.6-8.6Z"/>
    <path class="st14" d="M699.6,218.2l.5.9c-.5.8-.6,2.6.1,3.3,2.6,2.4,13.3,3.8,17.1,4.3,5.9.6,8.1-.2,13.4-2.7,1.4.1,1.9.5.8,1.6-2.5,1.5-5.2,3.6-8.2,4.3s-17-1.9-20.9-3.1c-.5-.3-1.1-1-1.9-1.1-4.9-.9-2.1-6.9-3-8.4.9.1,1.2.6,1.9,1.1Z"/>
    <path class="st137" d="M660.6,101.8c.7.3,1.5.4,2.2.2l.2.8c-1.3,1.4-4,.7-5.9,0-.5,0-.6,0-.4.5l10,13c-.1.6-1.2.6-1.6.6-.8-1.5-2.6-2.5-3.5-3.9-1-.5-1.6-1.6-1.6-2.7-1.6-3-4.4-5.5-5.9-8.8s-.9-3.4-2.1-4.8-.7-2.3-.3-3.3c2.5,3.6,4,7.5,9,8.4Z"/>
    <path class="st43" d="M652,89.3c-2.9,0,.4-13.4,2.1-14.9.2,0,.5,0,.8,0s.2.8,0,1.2c-2.5,6.4-1.7,11.3-2.9,13.6Z"/>
    <path class="st84" d="M493,114.3c-.7-2.2-1.1-4.9,1.1-6.9l-1.1,6.9Z"/>
    <path class="st28" d="M560.2,38.9c.4.1.4.3,0,.5-3.7-.2-7.3.4-11-.3,3.9-.5,7.5-.2,11-.2Z"/>
    <path class="st94" d="M560.2,39.4v-.5c2.8,0,5.7-.2,8.5.2-3,.6-5.8,0-8.5.3Z"/>
    <path class="st94" d="M661.6,113c-1.1.2-2.3-1.8-1.6-2.7.5.9,1.1,1.8,1.6,2.7Z"/>
    <path class="st84" d="M689.4,225c.2-.4,1.5.7,1.1.9s-.5.3-.7.3c-.5,0-.8-.3-.4-1.2Z"/>
    <path class="st105" d="M654.7,73.5c-.4,0-.5-.4-.5-.8s.2-.6.5-.8c0,.5.3.6.5.2s.4-.5.5-.7c-.2.7-.2,1.6-1,2.1Z"/>
    <path class="st3" d="M679.7,171.3c-.4.9-.7-.3-.8-.6-.2-.4-.3-1,.3-1l.5,1.6Z"/>
    <path class="st34" d="M699.7,228.6c0,.2,0,.4,0,.5l-.5.5c-.1,0-.3,0-.5,0l-.5-.7c.5,0,1-.7,1.6-.4Z"/>
    <path class="st105" d="M654.6,70.9c0-.4,0-.9.4-1,0,.4.1,1-.4,1Z"/>
    <path class="st51" d="M766.6,250.6v.7c-.3-.3-.9-.2-1.5.3-5.1,4.9-11.5,8.3-18.9,9.4.2,14.4-6.2,12.1-7.9,25.8.4.7.3,1.6-.2,2.7-.6,7,0,14.2,3,20.9s1.2,2.6-.6,3.6c-6.5-10.4-6.5-25.1-2.5-36.3s5.8-5.8,6.5-16.2-1.1-.8-1.4-1c-4.3.5,5.1-1.9,3.1-1.4,5.5-1.3,10.6-3.5,15.2-7.2l12.2-9.8c9.7-7.8,13.3-8.4,22.8-14.6s.8,0,1,0c3.6-.3-9.2,7.3-9.6,7.4-11.3,6.4-14,10.9-21.2,15.7Z"/>
    <path class="st8" d="M817.6,212.2l-2.6,2.6h-.5s-.1-.6-.1-.6l2.2-3c3.5-3.7,6.5-7.9,9.4-11.9,5.8-7.9,9.8-16.8,12.6-26.5s2.6-9.6,3-14.5.6-7.1.5-11.1,1.3-.4,1.5-.1.4.7.5,1.3c.8,8.5-.8,16.7-3.2,24.9s-6.9,19.1-13,27.4-6.9,7.8-10.3,11.6Z"/>
    <path class="st44" d="M766.6,250.6c.5,1,1.8,1.3,2.1,2.8-.8.3-.4-.9-1.2-.8-1.3,18.2,10.5,18.1,10.7,38.5s.9,8.6-1.3,7.9-.7-.5-.7-1.1l-1-10.5c-1.4-15.7-11.9-18.9-8.7-36.3-.5.2-.9.4-1.4.5.5-.5.9-.6,1.5-1Z"/>
    <path class="st81" d="M724.6,239.4c-.8,1.2-4.4-3.5-11.8-2,2-3.8,13.3-.2,11.8,2Z"/>
    <path class="st133" d="M814.5,214.8c-1.1,2-3.4,3-5.4,3.9-.5.1-.7,0-.6-.6,3.2-1.6,5.6-4.3,8-6.9-.1,1.5-1.4,2.3-2.1,3.6Z"/>
    <path class="st105" d="M809.1,218.7c-1.3.6-2.4,1.6-4.1,2,.9-1.4,2.3-1.9,3.6-2.6.2.2.4.4.6.6Z"/>
    <path class="st79" d="M738,289.6c0-.9,0-1.8.2-2.7.2,0,.5-.4.7-.3.4.2-.5,3.1-.9,3Z"/>
    <path class="st133" d="M815.1,214.7c.6-1.1,1.5-2,2.6-2.6-.8.9-1.5,1.9-2.6,2.6Z"/>
    <path class="st76" d="M699.1,229.6c.1-.2.3-.4.5-.5-.1.2-.3.4-.5.5Z"/>
    <path class="st14" d="M705.1,21c.7-.3,1.6-.6,2,.1.9.3,1.9.2,2.9.7-2.9,4.4,22.2-3.4,23.6-3.8s1.1.1,1.3.3,0,.5-.2.7c-5.6,1.8-11.2,3.7-17.1,5s-13,2.2-13.5-1-9.2-2.6-12.4-4l-5.6-2.5c-.3-.1.4-1.8.8-1.2s.8,0,1.2.1c5.6,2.6,11.1,4.8,17,5.5Z"/>
    <path class="st128" d="M754,11.2l-15.5,4.3c-.6-1.7-1.5-2.8-2.4-4.5l17.9.2Z"/>
    <path class="st12" d="M734.6,11c.4.2.4.3,0,.5-6.6,2.2-13.1,3.4-20,3.2,1.4-.7,3-.8,4.4-1.8l-.6-2h16.2Z"/>
    <path class="st13" d="M698.7,11.2c-1.9.4-3.9.4-6.1,0,1.9-.4,3.9-.4,6.1,0Z"/>
    <path class="st24" d="M707.1,21.1c-.6-.2-1.4,0-2-.1.5-.8,1.8-.6,3-.4-.3.4-.7.3-1,.5Z"/>
    <path class="st128" d="M734.6,11.5v-.5c1.2-.1,1.1.6,0,.5Z"/>
    <path class="st111" d="M292.5,223.1c0,.4-.8.8-1.1,1-1.4.8-1.8-10.2-12.4-13.2s-4.4,1.2-5.6-.5-.3-.6.2-.9.9.2,1.1,0c2.8-1,5-.2,7.5.7,5.6,2.2,10,6.5,10.3,12.9Z"/>
    <path class="st8" d="M277.5,145.1c1.1-.8,1.6-.5.5.5-.8.5-1.3,1.5-2.6,1.9,1.7,2.2,10.2,1.8,15.1,2.6,2,.4,3.1,1.9,4.6,2.9,3.4,2.4,4.8,6.6,2.7,10.1-1.5-.9-.9-2.8-1.6-4.5-1-2.4-3.7-5-6.2-5.9-5.1-1.9-11.8-.3-16.1-4.4s-9.5-2.3-10.7-1.8c-1.2.7-1.9,1.2-3.6.5s-3.5-1.5-2.5-3c1.9-2.7,5.3-1.6,7.6-.2s10,3.4,12.7,1.3Z"/>
    <path class="st111" d="M294.4,164.2c-.8.3-1.2.6-1,1.5.7,1.2,3.4,5.8.6,6.3-.7-1.9-1.4-3.8-2.7-5.2s-2.5-5.6-2.4-5.8c.6-1.1,2.5,0,3.4-.6s0-1.4.6-1.4c1.3.3,2,2.1,2.4,3.3s-.5,1.6-.8,1.9Z"/>
    <path class="st80" d="M306.9,104.4l-21.1-2.1c.3-1.9,9-.2,11.3-1.8,3.5.3,7.1,1.6,9.8,3.8Z"/>
    <path class="st142" d="M320.4,121.9c0,1,1.3.6,2,1.4-.7,1.6-3.7.2-4-.4s-.2-1.1,0-1.6c.6,0,2.1-.4,2,.5Z"/>
    <path class="st32" d="M320.8,111.4c.2.5-1.9.8-2,0s1.5-1,2,0Z"/>
    <path class="st83" d="M269.1,169.2c-.8.9-2.2.9-3,0,.9-.7,1.8-.8,3,0Z"/>
    <path class="st119" d="M251.2,167.3c-.3-.5-1.4-.5-1.4-1,0-.9.8-.7,1-.3s.8.5.3,1.3Z"/>
    <path class="st130" d="M258.5,166.1c0-.5.8-.7,1.4-.9.5,0,.3.4.2.5-.4.4-.6.7-1.6.4Z"/>
    <path class="st87" d="M253.8,166.6c-.3.3-.6-.4-.4-.6s.3-.3.8-.8c.5.3.4.8-.3,1.4Z"/>
    <path class="st64" d="M279.8,142.3c0,1.5-.7,2.6-1.9,3.3.4-.5,0-.9-.5-.5,1-.9,1.7-2,1.4-3.4,0-.3.5-.6.5-.9,0-.4.3-.4.5,0,.3.4.4,1.2,0,1.5Z"/>
    <path class="st67" d="M294.4,164.2c-.4.4-1.1.8-1,1.5-.2-.4-1-.4-1-.8s0-1.2.2-1.1c.7.4,1.3.5,1.8.4Z"/>
    <path class="st30" d="M280.4,142.3h-.6c0-.4-.1-1.1,0-1.5.7.2.4,1,.5,1.5Z"/>
    <path class="st62" d="M249.7,148.4c-.2-2.4-1-3.8-3.6-4.9,1.5-1.1,3.7-.6,4.8.7s.7,3.2-1.2,4.2Z"/>
    <path class="st108" d="M392.8,128.8c0,.3.5.5.4,1.1-1.9-.6-3.5-.6-5.7,0-.5-.9.6-.6.8-1.2,1.4-.4,3.1-.5,4.5,0Z"/>
    <path class="st100" d="M381.3,138.8c-.1.3-.3.4-.6.7s-.7.3-1-.2c0-.5.2-.8.6-1,.1.4.6.5,1,.5Z"/>
    <path class="st117" d="M380.3,142.2c-.3-.5-.4-1-.5-1.5.3-.8.6,0,.7.3.2.5.7,1.4-.2,1.3Z"/>
    <path class="st20" d="M293.3,116.8c-.2.4-.7.5-1,.6-.2,0-.8,0-1-.3s.7-.8.8-.8l1.1.5Z"/>
    <path class="st141" d="M296.3,113.9c-.2,0-.6,0-.7,0-.3-.1-.3-.4-.3-.7s.4-.3.6-.3c.5,0,.3.8.4,1.1Z"/>
    <path class="st38" d="M301.5,123.7c1.7,1.5-14.2.2-11.1-1.4,2.8.3,9.6,0,11.1,1.4Z"/>
    <path class="st124" d="M254.4,122.3c-.2.4-.4.3-.5,0,.1-.2.1-.4.3-.4s.7,0,.7.3-.3.4-.5.3Z"/>
    <path class="st77" d="M248.4,121.3c0-.2.3-.4.5-.5,0,.2-.3.4-.5.5Z"/>
    <path class="st127" d="M254.2,122.9c-.4.2-.4-.3-.4-.6.2,0,.3.1.5,0,0,.2,0,.4-.1.5Z"/>
    <path class="st88" d="M279.8,140.8c-.2,0-.3,0-.5,0,0-.6-.3-1.1-.5-1.6l.6-.4c.1.7.7,1.2.4,2Z"/>
    <path class="st133" d="M252.6,124.4c-1.9.7-3.6,1.4-5.6,1.1-1-1.2,6.2-2.8,5.6-1.1Z"/>
    <path class="st54" d="M256.4,116.3c.4,0,.6-.1.5-.5.5-.2.7.4.5.8s-.4.3-.7.3-.4-.3-.3-.6Z"/>
    <path class="st77" d="M747.5,218.2c1.5,0,2.7.7,4.4,1.1,3.2.7,6.3,1.8,8,4.7-.9,2.7-1.6,5.2-2.7,7.9-5.8-2.7-6.3-7.7-13-8.4s-4.9-2.6-12.5,2c.4-2.1-5.4,2-8.3,2.3-4.1.5-8.1-.7-12.2-1.3s-7.9-1-11.3-3.3-1.3-4.1-.3-5.1c3.9,2.6,8.6,3.3,13.5,3.2l12-.2c10.1-.2,11.7-2.4,20.4-.8s11.7,5.5,12.4,2.9c-3.3-2.4-7-3.4-10.4-5.1Z"/>
    <path class="st65" d="M882,82.6c-.1,1.3-1.5,1.4-2.7,2-4.4,2.5-8.4,5.8-11.7,9.8s-3.1,5.3-4.1,8c.2.4.2.8,0,1l-.5,1c.8.2.7,1.2,0,1.5,1.2,4.4,2.2,8.8,1,13.4-2.8,10-9.2,3-9.3,13.7-2.7-3.3,0-7.5,3.3-8.6s3.9-4.5,4.6-7.6c1.8-8.3-6.5-10.9,7-26.9,2.5-2.8,7.9-8.7,11.9-7.7s.5.1.6.4Z"/>
    <path class="st21" d="M883,99.9c1.3,1.8.5,6-.5,8-.3.6-.7,1-1.1,1.5.7-1.9-.2-4-1.9-4.9-.7-.2-1.3-.8-1.8-1.9-1.2-.8-1.7-1.7-1.7-2.7.8-2.5,2.6-4.6,3.7-7,1.6,2.6,1.7,5.1,3.3,7Z"/>
    <path class="st148" d="M775.2,87.5c-.3.8-.7.9-1.1.6s-.6-.7-.4-1.3l8.3-21.5c.1-.4.8-.6,1.1-.7s.7.5.4,1.2c-2.5,7.3-5.3,14.3-8.3,21.7Z"/>
    <path class="st81" d="M878.4,115.2c-1.3,3.2-3.9,5.2-6.7,7.3s-2.5,4.4-5,5.4-3.8-.2-5.5.7-2.9,3.1-4.2,4.6c-.6-1,0-1.9.6-2.9,3.1-6,7.6-2.1,9-4.5l.5-.5c1.6-.7,2-3,3.5-4,2.5-1.7,5-3.1,6.4-6.2s.9-.5,1.2-.4.3,0,.2.4Z"/>
    <path class="st81" d="M731,136.2c1.5.5,2.9,1.4,4.1,2.6,2.3.2,4.6,0,7-.3.5.4,1.2.7,2,.7,1.8-.8,4.6-2,6.5-2.4s.6,0,.9.3c.3,0,.9-.3,1.1,0,.5.3.5.7.4,1.1-3.9,1.5-7.8,2.9-12,3.1s-7.9-1.3-10.6-4.5c-.5-.6,0-1,.6-.6Z"/>
    <path class="st131" d="M758.7,156.7c-.7.2-1.3.5-2,.6-2.4.4-4.9.5-7.6.5-3.8-.4-8-.7-11-3.9,6.5,2.3,12.8,2.8,19.5,1.4s1,.2,1.3.5.2.6-.2,1Z"/>
    <path class="st90" d="M884.1,105.3c0,.9-.3,1.9-.8,2.8s-.7,0-.7-.2c-.1-2.7.5-5.3.5-8,0-6.6,1.2-7.6-5-11.9,9,.5,6.5,11.9,6,17.3Z"/>
    <path class="st147" d="M762.1,148.2c-2.6,1.4-19.7,5.5-21.5,3.5-.5-.9,0-1.1,1.5-.6,2.8.2,5.4-.8,8-1.4,3.3-1.7,7.2-2.1,10.9-2.4.3.1,1.2.4,1.1.8Z"/>
    <path class="st11" d="M882.6,82.3l-.5.2c-2-1.6-12.8,7.8-12.5,7.3,1.7-3.5,4.9-6.6,8.6-8.4s3.4.6,4.4.8Z"/>
    <path class="st133" d="M706.6,106.3c0-.3,0-.7,0-1,1.9-2.8.3,1.6,4.1,6.1s-1.1.9-1.5.5c-1.7-1.4-2.6-3.6-2.6-5.7Z"/>
    <path class="st19" d="M761,147.4c-3.6,1.1-7.2,1.7-10.9,2.4h-.6c2.8-2.1,8.6-3.3,11.4-2.4Z"/>
    <path class="st38" d="M876,99.8c1.7,1.2,3,2.8,3.5,4.6s.6,2.8-.4,3.5c-.8-2.3-.9-4.3-2.5-5.6l-1.6-1.1c-2.4-.8-4.7-.2-7,.1-.9.3-1.2.3-.9-.7,2-.8,6.6-1.4,8.8-.9Z"/>
    <path class="st40" d="M863,105.8c-.1-.5,0-1,0-1.5l.5-1c0-.3-.1-.7,0-1,1,1.2.4,3.1.3,4.5-.5-.6-.5-.9-.8-1Z"/>
    <path class="st34" d="M868.1,101.4c-.7.1-1.3,1.7-2,.2s.8-.7,1.1-.9c.2.3.5.5.9.7Z"/>
    <path class="st104" d="M876.6,102.3c-.7,0-1.4-.3-1.6-1.1.8.3.9.6,1.6,1.1Z"/>
    <path class="st22" d="M866.6,125.8c.1-.2.3-.4.5-.5,0,.2-.4.3-.5.5Z"/>
    <path class="st110" d="M694.7,193.7c-.7,0-.5-.7,0-1.1-.1-11.5,3.2-23.3,2.9-34.9-.3-.2-.6-.4-.6-.6,0-1.7,2-6.7,2.8-8.5s.4-.3.7-.3c.2-.7.3-1.3.5-2.2l2.4-10.8c1.8,1.6,2.2,3.5,2.8,5.5,1.4,5.1,3.9,9.6,5.9,14.5,2.9,6.9,3,15.6,10.2,21.4s3.8,2.8,4.2,4.8c-1.3,3-4.8,4.8-7.8,5.5l-9.8,2.3c-4.2,1-9.5,7.6-14.3,4.5Z"/>
    <path class="st8" d="M741.7,125.8l1.2-.7c4.8,2.2,9.3,5.1,13.4,8.8l.2,1.3c7,4.1,6.3,1,13.6,2.5-3.7,1.6-7.8,1.9-11.4.8s-7.9-6.2-11.7-7.8c-.8.4-1.7,0-2.7-1-1.7-2.2-9.1.2-4.2,1.1l.5,1.1c.2.6.7,1.2.7,1.8,0,1.6-4.6,4.2-7.8,1.3s-1.8-4.1-1-6.7c-2.9.5-5.9,10.6-11.4,5.9,6.6-.2,5.2-4.4,9.7-7s7.3-2.1,10.9-1.3Z"/>
    <path class="st93" d="M756.6,135.2c-5-2.9-8.9-8.1-14.9-9.4,1.1-1.1,2-2,2.7-4.2,6.4,4.7,12.8,9.1,20.3,12.1s4.5.7,5.8,3.2c-7.3-.1-7.3.1-13.9-1.6Z"/>
    <path class="st44" d="M674.6,115.2c1.5-1.2,5.6.9,7.3,1.9s4,3.7,3.7,5.2l.5.6v.4c1.2,1.6,2.6,3.2,3.5,5,.2.5,0,.7-.5.5-.5-.4-1-.9-1.5-1.5l-1,.3c-2-3-4.4-5.4-7.2-7.1v1.4c2.2-.2,5.1,1.8,2.2,2.9-1.4,1.4-3.4,1.9-5.4,1.2s-2.5-2.5-2.8-4.5,1.3-2.4,2.4-3.6c-1.2-1.1-2.6-.6-3.9-.3-3.7.7-1.6,4.5-3.5,4.6s-1.2-.4-1.2-1.3c0-2,.8-3.7,2.2-4.6s3.6-1.4,5.2-1Z"/>
    <path class="st111" d="M719.6,112.4c-1.2.4-2.1.4-2.1-1-.3-.8-.8-1.7-.1-2.4.3,2.5,13.7,2.3,15.1,2.2,3.9-.5,7.4,1.3,11,.9l13-1.4c.4,0,15.3,2.5,13.6,4.1s-.7.3-1.1.2l-12.8-2.5c-4-.8-8.3,1.6-12.6,1.1-5.2-.7-10.2-1-15.5-.5s-5.8,0-8.5-.5Z"/>
    <path class="st93" d="M687.7,127.3c.2,2.5-1.5,4.6-2.6,7l-2.4,5.6c-1.4-1.7-1.3-3.9-2.7-5.3-.6-.2-1.8-.2-1.8-1s0-.9.4-1.3l.8-.7c-1.4,0-2.2-.4-2.3-1.3-.2-.5-.3-.9-.4-1.4l.2-.6c2.3.6,4.5.6,6.6.2.4-.6-.2-.6-.8-.6-.9.2-1.3-.1-.3-.7l-.6-2.3c-.1-.4.4-1,0-1.4-.7-.9-3.3.5-3.4-1.8s.1-2.2.8-2.1c1.9.2,3.3,1.7,4.4,3l4.1,4.9Z"/>
    <path class="st111" d="M663,102.8c-.8-.3-1.7-.5-2.4-1,.6,0,1.3.2,2.1,0s.6-1.3,1.1-1.8c3.9.2,7.2,3,10.8,4.4s8.7,1.9,12.4,4.6c6,4.3-15-3.2-13.3-2.3l-9.6-5c-.4,0-.7.9-1,1.2Z"/>
    <path class="st139" d="M747.1,130.7c-.4.3-.8.8-.7,1.3.2.9,2.7,2.6,3.1,3.7.5.4.3.7-.4.5-.9.7-2.8,1.5-3.5.5l-1,.5c0,.4-.3.4-.5,0l-1.5.5c.3.4.5.7.5,1,.6-.4,1.3-.3,1,.5-3,.5-6.1.6-9-.5-.6-.7-.4-.7.5-.6,3.9.9,8.1-1.1,9.8-4.9,0-1-1.2-3-2.2-2.9s-1.7,1.7-2.6,1.5-2.7-.1-3.1-1.1,1.2-2.7,2.5-2.9c2.5-.4,5.3,1.1,6.9,2.9Z"/>
    <path class="st43" d="M727.2,117.9c-.9.3-1.1.1-.5-.6,9.3-4,20.3-1.9,28.8,3.1,0,.8-1,1-1.7.7-9-4.2-17.2-5.7-26.6-3.2Z"/>
    <path class="st85" d="M712.5,139.8c-4.5-2.4-2-12.5-.3-16-1-1-5.1-3.6-4.5-4.6s3.1,1.8,5.1,2.7,1.5.4,1.7,1.1c.4,1-.3,1.3-.7,2.1-2.3,4.5-2.9,9.6-1.3,14.7Z"/>
    <path class="st46" d="M686.1,123.3v-.4s-.5-.6-.5-.6c-1.5-1.7-2.8-3.8-5.1-4.7s-3.9-1.8-5.9-2.3c.2-.9.1-2.6,1.2-3.2s3.2.3,4.1,1.4l4.5,5.1c1.1,1.3,2.6,3.3,1.6,4.8Z"/>
    <path class="st121" d="M700.6,148.3c-.9,3.2-2.5,6.2-3,9.4s-.7,1.7-.8,3.1l-.3,11c-1.4,0-.6-13.7-.6-13.9.8-3.8,2.4-7.3,4-10.9.5-.2,1,.9.7,1.3Z"/>
    <path class="st131" d="M679.5,111.9c-3.8-2.3-7.6-1.6-11.3.7,3.2-6.4,13.7-3.2,16.3,1.4-2.1.2-3.5-1.3-5-2.1Z"/>
    <path class="st131" d="M677,130.3c2.2.7,4.6.5,6.8,1.8-1.8.5-3.8.6-5.2.3-2.9-.6-6-1.4-7.4-4-.9,0-1.7-2.2-1.5-3,0-.6-.4-1.3.5-2,2.9,4.9,1.7,5.5,6.8,7.1Z"/>
    <path class="st43" d="M738.1,149.2c.7,1,0,1-1.1.6-3.2-2.7-6.2-6-8.8-9.5,4.5,2,7.6,5.5,9.9,9Z"/>
    <path class="st131" d="M717.6,111.4c.9,0,1.4.8,2.1,1-1.6,1.2-3,1.2-5,.4s-5.3-3.8-2.9-6.8c.3,3.6,2.9,5.6,5.8,5.4Z"/>
    <path class="st38" d="M775,136.3c-.1-.7.2-.7.6,0,3.1-.2,5.4-3.4,9.2-3.2-4.1,3.3-9.2,4.7-14.3,5.7.9-2.1,3.2-1.3,4.5-2.5Z"/>
    <path class="st38" d="M703.6,206.2c1,0,5,13.6,3.3,11.7s-3.7-8.6-3.3-11.7Z"/>
    <path class="st131" d="M775.3,140.5c-2.5-1.9,9-2.9,9.3-2.9.4,0,.8.3.8.5.5,1.1-8.2,2.2-10.1,2.4Z"/>
    <path class="st89" d="M731.1,119.9c0,.4-5.1,2.8-6.7,8.8-2.1-5.3,7.3-11.6,6.7-8.8Z"/>
    <path class="st23" d="M700.5,205.4c3,2,.8,10.1.2,8.4s-.6-.4-.5-.7l.4-7.7Z"/>
    <path class="st57" d="M674.9,141.9c-3.2-1.7-4.5-5.5-6.5-8.3s.6-1.4.7-1.2l5.8,9.5Z"/>
    <path class="st136" d="M683.4,128.4c.3,1.4-6.1.6-6.8.5s-1.9-1.2-2.5-2c-.2-.5,0-.7.5-.5,2.3,2,5.7,1.6,8.8,2Z"/>
    <path class="st122" d="M669.1,125.7c.8.4,1.6,2.2,1.4,3.1.2.8.2,1.9.3,2.9s-.7.3-.9.2c-.5,0-3.2-7.3-.8-6.3Z"/>
    <path class="st74" d="M751.5,137.2c-2.4.9-4.9,1.6-7.4,2.1-.2-.4-.6-.5-1-.5-.5-.9.8-.9,1.5-.5,1-1.2,3.4-1.5,5-1.5-.2-.8.3-.7,1-.4.3.2.7.5.9.9Z"/>
    <path class="st29" d="M693.1,116.9c-.3.3-.5.6-.6,1-.4-2-2.1-3.3-2.9-5,2.1.4,2.6,2.5,3.5,4Z"/>
    <path class="st67" d="M691.7,204.7c-.4,0-.8,0-1.4.1,0,1.1,0,2,0,3-.8-1.1-1.9-2.6-1.2-3.9.8,0,1.6.7,2.7.8Z"/>
    <path class="st9" d="M735.6,138.2l-.5.6c-1.5-.6-2.8-1.6-4.1-2.6,0-.3,0-.7.4-.8,1.4,1.1,2.7,2.5,4.2,2.8Z"/>
    <path class="st32" d="M742.1,151.2c-.5,0-1.2,0-1.5.6-.8-.9-2.5-1.1-3.5-2,.4,0,.9-.1,1.1-.6.8,1.2,2.9,1.2,4,2Z"/>
    <path class="st4" d="M736.5,180.1c-.4-.4-1,0-.5.5l-1.6-1.9v-.4c.9.4,1.3,1,2.2,1.8Z"/>
    <path class="st126" d="M671.2,128.3c-.2.2-.4.4-.6.6-.7-.9-1-2-1.4-3.1.2-.1.4-.3.5-.5l1.5,3Z"/>
    <path class="st45" d="M727.2,117.9c-1,.3-1.7,1.4-3.1,1.5.6-1.2,1.6-1.5,2.5-2.1.2.2.3.4.5.6Z"/>
    <path class="st135" d="M657.2,102.9c-.2,0-.5.2-.4.5-.3-.4-1.5-.4-1-1.5.7.1,1,.9,1.4,1Z"/>
    <path class="st140" d="M775.6,136.3h-.6c-.2-.2-.6-.6-.4-.8.3-.4.9-.3,1,0s.2.5,0,.7Z"/>
    <path class="st132" d="M750.6,136.4c-.3.1-.7.3-1,.4-.7.1-.9.1-.5-.5,0-.2,0-.7.4-.5.5,0,.7.4,1.1.6Z"/>
    <path class="st47" d="M689.1,128.7c.2,0,.4-.2.5-.5.1.3.7.2.6.8s0,.9-.5.6-.3-.7-.5-.9Z"/>
    <path class="st68" d="M674.6,126.4c-.2,0-.4.3-.5.5-.2-.3-.8-.1-.6-.8s0-.9.5-.5.3.7.5.8Z"/>
    <path class="st7" d="M694.7,192.6v1.1c-.1,0-.9,0-1-.2.3.5.6-2.4,1-.9Z"/>
    <path class="st1" d="M734.3,178.3v.4c-.3-.4-1.5-.5-1.7-1.4,1.1-.7,1,.7,1.7,1Z"/>
    <path class="st77" d="M863,104.3c0-.4,0-.9.5-1,0,.4,0,.9-.5,1Z"/>
    <path class="st95" d="M734.7,128.8c0,1.2-.6,1.2-.7,0,.1-.6.6-.6.7,0Z"/>
    <path class="st77" d="M686.1,122.9c-.2-.2-.3-.4-.5-.6l.5.6Z"/>
    <path class="st25" d="M749.1,136.3c.3,0,.5.2.5.5-1.6.8-3.3,1.1-5,1.5-.4,0-.6-.2-.5-.5-.4-.1-.4-.3,0-.5.2,0,.3,0,.5,0l1-.5c1.2.1,2.3-.5,3.5-.5Z"/>
    <path class="st96" d="M744.1,137.8c.2,0,.4.2.5.5-.5.1-1.3-.2-1.5.5-.3,0-.4-.3-.7-.5s-.3-.5.2-.5c.4-.3,1.1-.4,1.5,0Z"/>
    <path class="st74" d="M744.1,137.3v.5h-1.5c.2-.7,1-.5,1.5-.5Z"/>
    <path class="st74" d="M745.6,136.8c-.1.4-.6.5-1,.5,0-.4.6-.5,1-.5Z"/>
  </g>
</svg>