<?xml version="1.0" encoding="UTF-8"?>
<svg id="Ebene_10" xmlns="http://www.w3.org/2000/svg" version="1.1" viewBox="0 0 930 325">
  <!-- Generator: Adobe Illustrator 30.1.0, SVG Export Plug-In . SVG Version: 2.1.1 Build 136)  -->
  <defs>
    <style>
      .st0 {
        fill: #040507;
      }

      .st1 {
        fill: #788fc6;
      }

      .st2 {
        fill: #485e90;
      }

      .st3 {
        fill: #232837;
      }

      .st4 {
        fill: #1b1f2a;
      }

      .st5 {
        fill: #3c4f7c;
      }

      .st6 {
        fill: #495573;
      }

      .st7 {
        fill: #394b76;
      }

      .st8 {
        fill: #7e94c7;
      }

      .st9 {
        fill: #1f2941;
      }

      .st10 {
        fill: #010101;
      }

      .st11 {
        fill: #304065;
      }

      .st12 {
        fill: #272e3e;
      }

      .st13 {
        fill: #8196ca;
      }

      .st14 {
        fill: #304064;
      }

      .st15 {
        fill: #25304c;
      }

      .st16 {
        fill: #465c8f;
      }

      .st17 {
        fill: #455c8f;
      }

      .st18 {
        fill: #2c3345;
      }

      .st19 {
        fill: #405585;
      }

      .st20 {
        fill: #020203;
      }

      .st21 {
        fill: #2d3c5e;
      }

      .st22 {
        fill: #415687;
      }

      .st23 {
        fill: #758cc0;
      }

      .st24 {
        fill: #232f4a;
      }

      .st25 {
        fill: #6d85ba;
      }

      .st26 {
        fill: #445989;
      }

      .st27 {
        fill: #050508;
      }

      .st28 {
        fill: #5b6e9c;
      }

      .st29 {
        fill: #2b3755;
      }

      .st30 {
        fill: #889fd5;
      }

      .st31 {
        fill: #090a0f;
      }

      .st32 {
        fill: #384a75;
      }

      .st33 {
        fill: #080a10;
      }

      .st34 {
        fill: #3f5383;
      }

      .st35 {
        fill: #3b4f7c;
      }

      .st36 {
        fill: #384a74;
      }

      .st37 {
        fill: #7d93c7;
      }

      .st38 {
        fill: #7186b8;
      }

      .st39 {
        fill: #3a4c78;
      }

      .st40 {
        fill: #3f517b;
      }

      .st41 {
        fill: #121826;
      }

      .st42 {
        fill: #1c2439;
      }

      .st43 {
        fill: #8a9cd0;
      }

      .st44 {
        fill: #374871;
      }

      .st45 {
        fill: #3f5484;
      }

      .st46 {
        fill: #394c76;
      }

      .st47 {
        fill: #44506b;
      }

      .st48 {
        fill: #44506c;
      }

      .st49 {
        fill: #161a23;
      }

      .st50 {
        fill: #030406;
      }

      .st51 {
        fill: #010102;
      }

      .st52 {
        fill: #0d111b;
      }

      .st53 {
        fill: #090b10;
      }

      .st54 {
        fill: #0e121d;
      }

      .st55 {
        fill: #879ed5;
      }

      .st56 {
        fill: #6379af;
      }

      .st57 {
        fill: #181f32;
      }

      .st58 {
        fill: #53648e;
      }

      .st59 {
        fill: #6e82b3;
      }

      .st60 {
        fill: #5b6b8f;
      }

      .st61 {
        fill: #000101;
      }

      .st62 {
        fill: #000001;
      }

      .st63 {
        fill: #445a8d;
      }

      .st64 {
        fill: #6a7dad;
      }

      .st65 {
        fill: #6276a3;
      }

      .st66 {
        fill: #42588b;
      }

      .st67 {
        fill: #020304;
      }

      .st68 {
        fill: #0b0f17;
      }

      .st69 {
        fill: #394c77;
      }

      .st70 {
        fill: #7083b0;
      }

      .st71 {
        fill: #181f30;
      }

      .st72 {
        fill: #141820;
      }

      .st73 {
        fill: #040609;
      }

      .st74 {
        fill: #08090c;
      }

      .st75 {
        fill: #0a0d16;
      }

      .st76 {
        fill: #8399cd;
      }

      .st77 {
        fill: #020204;
      }

      .st78 {
        fill: #43598b;
      }

      .st79 {
        fill: #0a0d15;
      }

      .st80 {
        fill: #60729c;
      }

      .st81 {
        fill: #869cd2;
      }

      .st82 {
        fill: #3e5280;
      }

      .st83 {
        fill: #6d81b1;
      }

      .st84 {
        fill: #8399cf;
      }

      .st85 {
        fill: #131927;
      }

      .st86 {
        fill: #5b6c94;
      }

      .st87 {
        fill: #768ab9;
      }

      .st88 {
        fill: #1d222e;
      }

      .st89 {
        fill: #415789;
      }

      .st90 {
        fill: #384b75;
      }

      .st91 {
        fill: #849bd1;
      }

      .st92 {
        fill: #030305;
      }

      .st93 {
        fill: #3e527f;
      }

      .st94 {
        fill: #758abc;
      }

      .st95 {
        fill: #1b202b;
      }

      .st96 {
        fill: #324369;
      }

      .st97 {
        fill: #536182;
      }

      .st98 {
        fill: #2e3c5f;
      }

      .st99 {
        fill: #455c90;
      }

      .st100 {
        fill: #2e3d5f;
      }

      .st101 {
        fill: #040508;
      }

      .st102 {
        fill: #475d8f;
      }

      .st103 {
        fill: #4d6293;
      }

      .st104 {
        fill: #020305;
      }

      .st105 {
        fill: #2d3b5e;
      }

      .st106 {
        fill: #3d517f;
      }

      .st107 {
        fill: #25314d;
      }

      .st108 {
        fill: #6277a8;
      }

      .st109 {
        fill: #7a91c8;
      }

      .st110 {
        fill: #889fd6;
      }

      .st111 {
        fill: #101319;
      }

      .st112 {
        fill: #54658d;
      }

      .st113 {
        fill: #3b4e7a;
      }

      .st114 {
        fill: #3c507d;
      }

      .st115 {
        fill: #222836;
      }

      .st116 {
        fill: #7488b8;
      }

      .st117 {
        fill: #141a2a;
      }

      .st118 {
        fill: #3a4c76;
      }

      .st119 {
        fill: #465b8c;
      }

      .st120 {
        fill: #3a4d7a;
      }

      .st121 {
        fill: #0e131e;
      }

      .st122 {
        fill: #06080b;
      }

      .st123 {
        fill: #5e709b;
      }

      .st124 {
        fill: #6c80b0;
      }

      .st125 {
        fill: #89a0d7;
      }

      .st126 {
        fill: #161c2a;
      }

      .st127 {
        fill: #010203;
      }

      .st128 {
        fill: #7388b9;
      }

      .st129 {
        fill: #030407;
      }

      .st130 {
        fill: #7f95c8;
      }

      .st131 {
        fill: #232938;
      }

      .st132 {
        fill: #324268;
      }

      .st133 {
        fill: #24304b;
      }

      .st134 {
        fill: #2b3344;
      }

      .st135 {
        fill: #06070a;
      }

      .st136 {
        fill: #45516e;
      }

      .st137 {
        fill: #455b8f;
      }

      .st138 {
        fill: #2e3d60;
      }

      .st139 {
        fill: #415788;
      }

      .st140 {
        fill: #050608;
      }

      .st141 {
        fill: #212b45;
      }

      .st142 {
        fill: #05060a;
      }

      .st143 {
        fill: #07090e;
      }

      .st144 {
        fill: #425889;
      }

      .st145 {
        fill: #5e719e;
      }

      .st146 {
        fill: #171e2e;
      }

      .st147 {
        fill: #030405;
      }

      .st148 {
        fill: #010202;
      }

      .st149 {
        fill: #35466f;
      }

      .st150 {
        fill: #090b12;
      }

      .st151 {
        fill: #566ca1;
      }

      .st152 {
        fill: #1a1e29;
      }

      .st153 {
        fill: #3e5281;
      }

      .st154 {
        fill: #7589b9;
      }

      .st155 {
        fill: #030507;
      }

      .st156 {
        fill: #192133;
      }

      .st157 {
        fill: #364870;
      }

      .st158 {
        fill: #374a73;
      }
    </style>
  </defs>
  <rect class="st43" width="929.1" height="325.5"/>
  <g>
    <path class="st99" d="M.3,0h929.5v324.5c-309.8.3-619.7.4-929.8.2C0,216.4,0,108.2.3,0Z"/>
    <path class="st98" d="M454.6,14.5c.5.9.2,2.6,1.5,2.5l1,.3c.4,58.6.5,117.2.5,175.7l-1,.6-.4,1c-41-.3-82-.9-123.1-1.7-15.3-.1-30.5.5-45.7,1.9-3.9,0-6.6,1.3-8.1,4.2l-1.3.9c-19.8.9-39.4,2-58.9,3.2-4.2,1.5-4.2,2.3,0,2.6l63.6.8,1.1.4c.1,1.2.6,1.9,1.4,2,13.7-.8,27.4-.8,41.1,0l1.6.7c-3.6,1.7-7.5,2.4-11.9,2.2-38.6,0-77.4.3-116.2.7l-4.7-.6-.3-1.5c2.8-7.9,4.9-16,6.1-24.3l.6-.6h.4c0-.1.4-.2.4-.2-.4-.2-.4-.4,0-.5,0-1.3.4-2.7,1-4.2l1.5-9.7c1.8-3.6,3.1-7.5,3.9-11.7l6.3-15.4c2.9-9.3,4.3-22-3.6-29s-.2-.8.2-1.2c-.4,0-.5-.2,0-.4.4-.8,0-1.7-1.1-2.7.7-7,1.3-14.1,1.8-21.3-.4-1.3-.4-2.5-.2-3.6.6-.9.9.2.5.1s-1-1.7.1-1.6c-.1-3.4-1.1-7.8-2.1-11.6l.8-.9c-.2-1.2,0-1.6.6-1.5l.8-.4c0-17.7-5.7-34.3-17.4-47.5-1-2.8-2.4-5.3-4.2-7.4-.5-1.3-.5-2,1.2-2.2,87.5.3,174.7.5,261.6.8l.4.7Z"/>
    <path class="st125" d="M901.4,10.4c2.1,0,4.2.4,6.5.5l8.4.3c.6,0,2-1.4,2.5-.6.4,1.7,1.1,3.6,1.1,5.4,0,10.2,0,20.1.5,29.9,1.1,2.1,1.6,4.5,1.3,7.1l-.3,24.4,2.1,175-1,.7-8.5-10.6-12.4-12.6c-6-6-12.9-10.4-20.2-14.7s-10.5-6.2-16.2-8.7c-10.9-4.8-20.5-12-28.4-15.2l-16-6.4c-4.5-1.8-8.9-3.9-13.1-6.4l-4.3-2.6c-2.1-1.3-11.5-22.2-13.1-26l-5.2-12.8c-1.7-4.3-3.6-8.4-4.5-13.1l14.5-25.6-5-4.4c.3-.3.6-.2.8-.3l2.7-.7,12.9.4-8.2-.2-.7-1c-.7,0-.7-.2,0-.4-.2-.9.4-1.4,1.8-1.5l-12.3,1.5c-5.9-.5-11.6-.3-17.3.7l-1.3-.6c-.8.5-8.5-2.1-8.8-2.4-4.2-3.9-7.9-6.3-6.2-13,8.6-4.7,13.5-3.2,22.6-1.5-1-1.4-2.7-1.2-3.6-2.2-.3-.7.2-1,1.4-.8l2,.2v-.9c-6.1-1.3-11.8-3.5-17.1-6.6l-.6-1.1c-3.8-3.2-8.1-5.5-11.3-10,8.3-5.4,23.8,2.1,31,7.2,9.8.5,14.9,3.6,25.5,4.9.1-.4.3-.4.5,0l1.1.5c0-.4.1-.4.4,0,.5-.5,1-.7,1.4-.8-1.7-5-4-9.5-6.9-13.4-6.7-3.5-13.3-7.2-19.9-11-8.9-4.4-18.2-8-27.7-10.5-5.2-3.7-5.2-14.7-1.5-19.4,4.2-.3,8.5-.5,12.7-.6l.5-1c45.6,0,91.2,0,136.8,0l.6,1Z"/>
    <path class="st125" d="M747.5,88.9l1,.6c1.8,5.7,2,9.8.7,15.6s.2.7.7.7c2-2,.6,16.3.4,18,1.2-.6.7-2,2.3-2.5,1.6,4.6,3.5,9.1,4.8,13.9,2.3,8.6,3.3,30.3,5.5,34.6l3.5,6.8c0,1-1.3.5-2,0-.4-.2-.8-.3-1,0,3.6.7,9.9,2.8,12.4,5.5v1.5c3.1,3.1,5.2,6.7,7.6,10.5s4.1,7.2,3.4,11.4-.9,2.4-.3,4c-7.3.3-14-.5-20.6-2.7-9.1,1.1-17.3,4.1-25.3,8.4s-17.5,7.3-23.1,6.2c-2.8-9.2-.9-20-2.3-31.1l-4.6-37.1c-.7-5.4,2-10.8,3.5-15.8l2.9-9c1-3.1,2.4-5.4,4-8.2,3.7-6.6,6.9-13.7,7.9-21.5s.2-18-1-26.8-3.6-7.2-5.3-11.3c3.4-.8,6.8-1.3,10.2-1.8,5,4.5,7.6,10.5,9.8,16.8l4,10.9c.3.8,0,1.9.8,2.3Z"/>
    <path d="M234.7,11c7.3-.7,14.8-1,22.3-.9,31.3,0,62.5.5,93.7,1.4l39.9.6,29.1.2,33.9.5c.6,0,1.1.6,1.4.9s-.2.5-.4.7l-11.5.3h-33.7c0,0-81.2-.3-81.2-.3l-60.2-.2-51.7-.2c-8.5,0-16.2-.3-24.8,0,3.6,2.2,3.5,6,5.3,8.4,13.2,17.4,16,25.4,17.3,47.3s-.4,1.3-.7,1.5-.9-.4-1.1-.9c-1-1.1-1.3-2.6-1-4.6l-.7-.8c-1.6-13.6-5.3-26.3-13.2-37.8-.9-.2-1.8-.4-2.8-.7l-3.3-8.2c-1.1-1.6-2.3-3.1-3.7-4.5-1.1.8-2.7.4-4,0l-.5,1-20.9-.4c-.4-1.2-2.5-1.1-3.2,0-.3.5-.7,1-1.2,1.3-3,1.3-12.7,2.1-16.3,2.1-5.4,0-10.8-1.1-15.7-3.5h-40.1s-.6-1-.6-1c-7.6-.2-15.2-.3-22.9-.2l-4.6.8c-16.1-.2-32-.1-47.9.2l-.8,178c.3,1.9,0,3-.9,3.3.1,3.1,0,6.2-.3,9.2.4,8.3.4,17.1,0,25.5,1.4,1.9,1.2,6.1.8,8.6s-.3,1.7-.8,2.4c.9.3.2.4.2.4,1.5-1.9,2.1-3.6,2.9-5.9-.4,0-.4-.2,0-.5,0-.8.2-1.4.5-2-.4-.1-.4-.3,0-.5l.4-1.5c-1.3-.3-1.2-.7,0-1l.4-1.5c-1.4-.6-1.2-3.8,0-4.5,0-1.9.2-3.8,1-5.5-.4-.1-.4-.3,0-.5l.5-1.5c-.4-.2-.4-.4,0-.5,1.7-4.1,4.3-6.6,7.9-7.4.1-.4.3-.4.5,0l1.5-.4c.6-1.4,2.2-1.3,3-.1l1-2c-.4-.1-.4-.3,0-.5l-.5-1.1c.9-2,1.5-4.2,1.8-6.4l1.1-.5c-1.1-1.5-.1-4.7,1.5-5.5.2-3.4.9-7.2,2-10.5-.3-1.6-.2-4.2.6-5.5.2-.8,0-1.5-.8-2v-8.9c.7-.5,1-1.2.8-2.1-2.1-5.6,2.5-7.7,2.7.2.8,2.8.6,5.3-.4,7.3l1,1.1c.2,18-6,35.2-12.7,51.2,1.3,4.5,7,10.6,10.7,13.5,11.3,8.9,22.2,15.7,34.6,23.1s1.8,1.5,2.5,2.4c13.4,4.3,26.8,8.3,40.2,12,8,1.5,16,2.6,24,3.3l1.4.6c4.1,4.5,8.1,9.2,12.2,13.9,3.6,6.4,7.2,12.8,10.8,19.1,1.5.2,2.5,0,2.8-.6-.9-9.4.4-20.6,3.6-29.5s1.4-2.8,2.4-4c4.9-3.9,8.1-8.7,9.5-14.2l1.2-.5c0-2.4.6-4.9,1.5-7-.4-.6-.2-1.6.7-1.4,2.3.5,1.2,6.4.8,8.2-1.7,8.3-4.7,12.9-10.8,18.6-4.1,9.6-4.7,20.3-4.9,30.5l157.1-.4-3.2-3.3c-7.1-10.2-16.2-16.7-28.3-20.2-30.5-10.4-60.6-20.6-90.4-33.7s-6.5-3-9.8-4.6-2.2-1.2-1.8-2.7c-1.2-.5-.3-2.1,1.1-1.7l10.3,4.1,1.1,1.5c2.3.4,5.3,1.3,7.1,2.6l.7-.8,35.2,13.5,2,1.7c.2-.3.4-.2.5,0l1,.5c1.4,0,2.9.3,4.4.7l28.9,10.2.2,1.1c4.2.3,8.4,1.4,12.5,3.2l.4,1.2c6.3,1.3,12.1,3.9,17.5,8,5.8,6.1,11.4,12.2,16.9,18.5h121.2c1.6,0,4,.7,2.3,2.4-1.9.2-3.9.4-6,.4l-21.4.2-40.7.2-54.3.2-70.1.3-71.2.2-78.2.3-78.2.3-28,.2c-.1.8-.4,1.2-.6,1.4s-.5-.1-.6-.3-.3-.4-.3-.9l.2-92.9.2-59.2.2-46.7.2-41.1.3-38.7.2-31.7c0-.5,1.1-.4,1.4-.3,1.4.7.3,2.9.8,5.1l43.2.2,55,.3,50.9.2,46.1.3h30.3Z"/>
    <path d="M753.9,7.6l33.7.2,77.7.2,44.8.2,8.2.3c.5,0,.9.5,1,.8.8,2-17.8,0-18,1.1h-137.9c0,0-11.6.4-11.6.4l-1.6.7h-42.6c-.9,3.3-1.6,6.6-2,10l-1.3,1.4c.8,1.6.7,2.1-.5,3.7-3.1,2.8-5.1,6.1-6,9.9.3.1.3.3,0,.5,3.6,7.8.7,7.1,8.8,14.7s10.3,21.9,12.7,33.2c1.9,9,1.6,17.8-.8,26.7-2.6,9.8-6.3,18.8-10.2,28.2s-3.4,14.4-3.5,22c0,10.9.3,21.5,2.2,32.2l3.2,17.9c2.5,13.8.2,16.6,9.7,22s7.4,4.3,10.8,7.3c5.1-2.8,15.9-8.4,21.7-7s10.8,2.9,12.7,6.7,1.5,2.9,3.1,4.7c.9-.2,1.3.1,1.8.7,1.5,1.5,4.4,6.8,5.5,9s2.6,5.5,1.7,7.1c1.1.6,1.4,1.6.9,3.1,1.5,2.6,3.7,4.7,6.7,6.3l.4,1.4c.2-.3.7-.3,1.1,0,.1-1.6,1.4-2,2.5-.9,0-.6.6-.7,1-.4l.8-1.2c9.3-2.4,18.7-4.3,28.2-5.9l6-2.2c1.2-.1,2,.1,2.4.8.2-.3.2-.7,0-1-1.4.8-3.9,0-5.3-.7-4.7-2.3-2.1-4.5,1.4-2.2l1.8-.6c15.3,4.1,29.3,11.5,41.9,20.3.5,2,0,3.8-2.3,3.7s-9.6-4.9-10.8-5.6l-.2-1.2c-3.4-.7-6.6-2.1-9.7-4.1-8-4.3-16.2-5.8-24.5-1.5-3.4.7-6.9,1.1-10.5,1.4l-1.3-.7-3.5,1.6-.5-.5-.2,1.1c-5.9.9-11.7,1.9-17.4,3.1l-1.3,1c-3.6-.9-9.5-5.6-11.1-9,0-7.7-3.8-15.3-8.5-21.3-9.4-12.1-21.4-9-33.2-2.4-2.5.5-4.8-.3-6.9-2.5-5-2.8-9.6-6-13.8-9.8l-1.6-2.4c-2.1-10.4-4.1-20.9-5.9-31.5-2.2-12.9-3.6-26.7-2.8-39.8.7-13.3,4.7-23.6,10-35.8,4.7-11.7,6.5-22.1,5-34.4-1-8.8-3.8-23.3-8.9-30.4-5.1-5.6-10.4-11.5-12.1-18.9-1.8-2.3-1.9-4.4-.3-6.4,1.2-2.3,3.5-6.1,6.1-6.3,0-.7.4-1.4,1.1-1.4.2-1,0-1.7-.7-2l1.4-10.6c-76.2-.6-152.7-.7-229.7-.4-1.1,100.7-2.3,201.7-4,300.9l-1,.6c1,0,1.7.2,2,.5,0-1.4,2.1-1.3,2.8-.6,76.5.3,153.8.9,231.6,1.9l.9.8,11.1.3.5-1c11,0,21.9,0,32.9.1l.6,1,19.8.2c2.6-.9,5.2-.8,7.7.3l.4-1c18.3.2,36.6.3,55,.5l.6,1c1.3,0,2.5,0,3.6-.5l.9.9v-1.4s-1.3-.3-1.3-.3c-2.7-8.2-5.2-11.2-12.8-15.5s-12.8-6.1-20-7.5c-6.1-1.8-3.6-15.4-1.4-19.1l1.4-.7c-.4-1.2,1.2-1.8,2.2-1.5l.8.9c-1.7,4.8-2.6,9.3-2.4,14.4,2.6-2.3,5.4-4.3,8.3-6.1,2.3-1,6-2.2,4.5,1.6l-9.5,6.6c9.8,1.2,19.1,6.9,27.2,12.5,2.7,4.8,5,9.8,7,15l28,.4,8.9,1.2c0-.4.2-1,.5-1,3.4-.2,8.9-.2,12.3.1l.7,1c.1.5.8.4,1.5.4,9.1.1,17.8-.4,26.8.3s1.1.7,1,1-.8.5-1.1.5l-15.7.2c-1.2.5-2.3.5-3.5,0l-22.3-.2-46.1-.3-36.3-.2-32.7-.3-30.2-.2-29.3-.3-28.3-.2-28.2-.3-27.2-.2-26.8-.2-26.7-.2-26.8-.3-25.1-.2-23.8-.3-21.4-.2-4.6-.3c-.5-1.5.7-2.4.7-3.6.5-8.2,0-16.1,0-24.4l.3-45.4c-.2-25.4-.2-50.9.1-76.3l.8-13.6.3-14.6.2-22.3.3-21.7.2-20.8.2-20.2.2-19.3.3-27.6c1.6,0,2.3.6,3.9.6h187.2c0,.1,93,.2,93,.2Z"/>
    <path class="st125" d="M875.2,270.2c.5-.1.9-.2,1.2,0,10.4,5.9,20.6,19.5,26.7,29.7l.2,2.1c1.6,8.4,3.5,4.6,3.1,16h-13.5c0,.1-13.5,0-13.5,0-9.3-.1-17.9-4.6-25.1-10.4-8-7.5-16.6-14.1-26-19.9-.4-.3-.7-.7-1-1.1-.6-1,4.4-6.3,5.4-7.1,1.8-1.5,3-2.2,5.3-2.8s11.3-1.8,13-1.7l2.9.6,11.5,6.1c.6.3,1.5-2.2.6-2.7l-16.6-9.9c-3.6-2.2-7.3-3.4-11.2-4.9s-9.8-4-14.9-5c-1.9-.4-3.6-1.2-5.3-2.2l-24.3,5.6c-5.3,1.4-10.6,1.7-15.8,1.1l-.7-1.5c-1.2-2.2-1.4-5-2.9-7.3s-3.7-6.8-6.1-9.4c1.2-1,3-2.8,5-2.8,10.3.1,20.3-.5,30.5-2s6.3-.7,9.4-2.1c3.8,1.7,7.7,2.7,11.2,4.8l8.2,4.9c6.7,4,16.2,10,23.3,12.7s11.7,5.8,17.5,8.8,1.2.4,1.7.4Z"/>
    <path class="st98" d="M457.1,285c.4,0,.9.1.9.4.1,8.4.2,17,0,25.6l-.6,1.4c-.5.5-1,.2-1.6-.2-.3-.1-.7.5-.9.6.1-1.1-1.2-1.4-2.5-1.4h-121.6c0,0-10.8-12.4-10.8-12.4-2.2-2.5-4.3-5.4-7.3-7.2-5.1-3-10.2-6.1-15.7-7.9l.5-1c51.7,2.3,107.2,2.7,158.8,1l.6,1Z"/>
    <path d="M922.4,253.1l-.3-18.8-.2-19.2-.2-20.8-.2-22.6-.2-25.3-.2-28.2-.6-39.4c-.2-11.2.8-22.1,0-32.9V7.9c-.1-.7,2.7-.4,2.7.3l1,75,.5,53.1.5,74.3v103.1c.1,1.1-.1,2.3-1,2.6-.8-2.9-.5-5.4-.6-8.2l-.9-40.5v-14.4Z"/>
    <path class="st125" d="M909.8,307.5l-1.8-1c-6.5-11.2-14.2-21.2-23.2-30.1l-4.8-3.9c-2-1.1-3.7-2.4-5-3.9-1-.5-2.9-1.2-2.7-2.5l11.7-9.3c5.2,2,9.4,5.3,12.9,9.4,6.1,7.2,15.4,17,17.2,26.3l3.4,18.3-7.5-3.2Z"/>
    <path class="st98" d="M754.5,42.9c-2.1,1.3-10.5,1-12.1-.2s-.6-.5-.8-.8c-3.3-.7-6.7-1-10.1-1l-.5.6c-2.5-.5-5-.9-7.5-1,0,.2-.1.4-.2.5-.7.4-13,1.4-13.6,1.1s-.8-.6-1.1-1.1l-5.6-1.6-.5.4c-1-1.1-1.8-1.5-2.4-1.3-.6-.6-.9-1.2-1.5-2h-.6c-2.8-1.5,3.2-8.4,4.9-10.1s1.4-2.4,1.5-3.4c1,.3,1.2.3.4-.1,2.2-1.9,3.6-1.5,5.9,0,8.3,2.1,16.7,3.5,25.3,4.4,4.4-.4,8.8-.4,13.1,0,2.7,2.4,3.5,4.8,2.3,7.1,1.1,2.2,1.1,4.3.7,6.7,2,.2,2.8.9,2.3,1.9Z"/>
    <path class="st62" d="M457.5,312.5c.2-5.3,0-10.6-.1-16.1l-.3-11.4c-1.4-1.4-1.2-5.6-.9-7.7l.9-1.2c-1.3-.6-1.3-3.9,0-4.5-1.7,0-1.1-2.8,0-3.5,0-1.4-.4-2.2-1-2.6v-29.6c.3-.1.7-.3.7-.5.3-3.4.1-7-.1-10.4-1.4-.8-1.4-2.1,0-3-1-.4-1-1,0-1.4l-1-.5c0-8.7,0-17.3,0-26l1-.6v-31s-.3-120.5-.3-120.5l-.2-25.2.2-7.9c.4-.2,2.5-.1,2.5.5l.2,37.9.2,117.7v27.6s-.1,67.3-.1,67.3l-.2,42.8c0,3.4-.4,6.7-.2,10-.2.3-1.1-.1-1.1-.4Z"/>
    <path d="M758.9,95.8c1.4-.9,2.8-1.2,3.9-2-.4-.8.1-1,1.6-.6,1-.5,3.2-.7,4-1.3,6.5-2.6,13.9-.5,20.6-1.3l12.8-1.6c.6,0,1.1,0,1.3.4s.3.8,0,.9l-5.6,1.6c-.7.2-.7.3,0,.4l10.3.3c.7,0,1.1.3,1.5.6s.4,1.3,0,1.3c-6.4.2-12.5.1-18.5-.6s-9.2-2.1-13.7-.6-12,9.9-14.7,14c2,4.9,5.8,8.4,10.4,11.2-2,5.5,6.4,21.4,8.9,27.3-3,3.1-10.1-18.6-10.1-18.8l-1.4-7.7c-5-3.2-8.5-8.1-10.4-13.8l-3.5-3.7c-1.4,1.5-2.5,2.4-4.3,2.2s-1.6,1.3-2.3,1.9-1.6,1.1-2.4.7c3.8-8.2.2-11.3,0-17.7s0-14.8,1.6-21.9.6-.8.8-.8.3,0,.3.2c.3,2.3-1.8,12.4.6,26.5s-.1,4.4,1.2,6.4c2.4-1.2,4.9-2.1,6.9-3.4Z"/>
    <path class="st62" d="M764.4,176.6c.9,0,1.5,0,2,0,5.7,1.5,10.2,4.5,14.8,7.7s12.2,8.8,17.3,14.8c7.6,8.9,15.5,17,25,23.8l18.1,13c.8.6.5,2.2-.4,2.5-18.7-12.1-29.8-19.1-44.4-36.6s-9.7-9.9-15.3-14.2-3.4-3.1-5.5-4c-3.6-3.6-8.3-4.9-12.5-7,0-.4.6-.3,1,0Z"/>
    <path class="st62" d="M731.4,40.9c3.4,0,6.7.3,10.1,1,4.3.7,8.6.7,12.9,1,3.4-1.6,8.7.3,12.4,1.6,12,5.7,24.1,11.4,36.5,16.2,1.7,1,4,4.1,2.1,5.5-.1,0-.3,0-.4,0l-1.1-.5c-.2,0-.3,0-.5,0-2.9-1.8-6.3-2.9-9.7-4.2-7.6-2.9-14.6-6.1-21.7-10.1-13.7-7.6-24.2-4.6-40.9-9.2s-4.4-1.4-6.6-1.3c-1.2.2-1.6,0-1-.6,2.7-.5,5.3,0,8,.4Z"/>
    <path d="M741.3,227.8l-1.5-.2c-.2,0-.2-.4-.2-.6,0,0,9.8-3.5,11.7-4.6,5.6-3.2,11.5-5.6,18.2-4.6s11.8,8,21.7,4.3,6.6-11.4,7.6-12.2,1.2-.5,2.4-.5c.8,2.5.2,5.2-.6,8-3.1,10.5-17.5,10.6-21.8,8.6l-8.5-4c-7.5-3.5-25.3,6.5-28.9,5.9Z"/>
    <path class="st98" d="M350.7,11.5l-64.7-.2-51.3-.3c.8-.9,2.1-.9,3.6-1,20.6-1.4,40.7-1.4,61.4-.7l33,1.2c2.1,0,4,.3,6.1.3l11.4.3c.4,0,.8.1.6.4Z"/>
    <path class="st61" d="M851.9,203.3c2.9,1.9,5.4,3.8,8.4,5.6,7.1,4.1,14.3,7.5,22,10.6s10.9,5.7,15.5,10.1,11.3,12.2,16.4,18.8,1.1,2.3-.2,3.2c-10-11.8-18.7-24-33.4-30s-23-11.3-29.6-17.9c-1.2-1.3-.2-.9,1-.3Z"/>
    <path class="st61" d="M758.3,63.7c5.2,2.8,10.9,4.7,16.9,6.4s1.9.6,2.6,1.4c-.5.6-1.2.6-1.9.7-2.2.1-4-.2-5.4-.9-7-2.2-13.9-4.5-20.2-8.9l-7-4.9c-7.5-5.3-15.7-8.9-24.8-10.1s-1-.4-.9-.8.3-.8,1-.8c6.1-.4,11.7,1.1,17.1,3.9s9.7,5.4,13.9,9,5.9,3.4,8.7,5Z"/>
    <path class="st148" d="M909.8,307.5c-.1.9.3,1.9-1,2.7l-5.5-8.2c-8.6-12.8-14.6-22.8-28.1-31.8-.3-.2-.5-.6-.8-1s0-.7.5-.6c16,7.9,25.3,24.4,34.9,38.9Z"/>
    <path class="st98" d="M467.2,243.1l-.2-27.5-.4-7.5c-1.1-18.5-1-37,1.6-54.9l-.2,33.2-.3,55.7c0,.6,0,1.1-.4,1Z"/>
    <path class="st67" d="M702.9,39.4l5.6,1.6c3.1.2,6.1-.3,9.4-.6s3.8.5,5.5.1c0,.4.7.6,1,.6-9.1,2.1-17.1,4.9-24.5-2.6,0-.1,0-.5,0-.6.2-.2.7-.1,1,.1l2,1.4Z"/>
    <path class="st52" d="M851.9,203.3c-.2,0-.4,0-.8,0s-.5,0-.2.4c-1.2-.6-2.4-1.3-2.6-2.6,1.7.4,2.6,1.6,3.6,2.3Z"/>
    <path class="st94" d="M775.9,72.3c-1.1.3-2.6-.3-3.4.6l-2.6-1.2c0-.5.4-.4.6-.3,1.8.6,3.8,0,5.4.9Z"/>
    <path class="st128" d="M764.4,93.2c-.3.1-1.1.2-1.6.6-.5,0-.5-.5-.4-1.3.5-.3,1.4.4,2,.7Z"/>
    <path class="st151" d="M905.4,320.5c-.7.9-2.8.9-3.5,0,1.2,0,2.3,0,3.5,0Z"/>
    <path class="st25" d="M753.9,7.6c.6,0,.7,0,.6,0s-.4,0-.6,0Z"/>
    <path class="st83" d="M698.5,36.4c0,.3-.2.5-.5.6,0-.2-.3-.3,0-.5,0-.6.6-.7.6,0Z"/>
    <path class="st1" d="M758.9,95.8c0-.1,0-.2,0-.2s0,0,0,.2Z"/>
    <path class="st99" d="M456.6,193.7v27s-2.4.7-2.4.7c-35.4,2-70.9-.1-105.1-3.5l-65.4.2c-30.1.6-60.3.8-90.5.8l-1.3-1.2c-.2-2.4,1.2-4.8,3.4-5.6,32.9-.8,65.6-1.5,98.8-.9s22.5.2,33.6-1.3c-15-.8-27.6-.6-42.2,0-.7,0-1.6-.5-2.1-.8s0-.9,0-1.6l-45.6-.5-16.1-.3c-2.2,0-5,.3-6.8-1.1-.1-1.8,2.4-3.4,4.3-3.5l17-1.1,41.8-2.1c1.4-1,1.8-3.1,3.2-3.8,6.4-3.1,49.8-3.4,59.4-3.2l64.5,1.2,51.5.4Z"/>
    <path class="st99" d="M211.3,88.4c1.5.3,1.4,1.4,0,2-.3,1.5-.4,3-.5,4.5l1,.9c-.4,4.3-.8,8.6-1,12.9-.8,1.2-.4,2.5,1.2,3.8l-.3,1v.4c0,0-.3.9-.3.9,9,7.5,5.8,21.4,2.4,31.2-2.3,5.3-4.5,10.7-6.5,16l-1.1.3c-.7,2-1.2,2.2-1.5.6-1-.4-1.6-1.4-1.9-3-3.6-4.5-8.4-7.8-13.4-10.7l-.4-.9c-.8-.6-1.5-.7-2.1-.2l-.3-1.2c-.2-1.2.5-2.3,2.1-3.5,3.1-5.3,4.9-1.1,5.1,3.2.5-3.1-1-5.3-3.2-7.2,0-2.1-.3-4.1-.9-6.1l-8.6-19.7-2-7.3.6-1.4c-.4-1.6-.5-3.1-.2-4.6,2.4-2,9.4-6.8,12.6-5.4s.9,3.4-.9,2.9c-.7,1.3-1.8,2.5-3.3,3.4l-1.2,3.1-1.1.4-.4.7c6.3,0,12.7,0,19.1-.2.7,1.4.7,1,0-1.1l.8-.8c.9-3.3,2.1-6.4,3.5-9.2-2.5-.8-4.9-2.1-7.1-3.9-3.3-.8-6.9-.5-10.5.8,2.4-.6,6.6,1,3.2,2.5-.2.4-.4.4-.5,0-1-.4-2.1-.4-3,0,0,1.4-1.1,1.4-1.5,0-.4,0-.8,0-1,.4-.1.4-.3.4-.5,0l-1,.5c-.1.5-.3.5-.5,0-1,.3-1.8.7-2.5,1.5-.1.5-.3.5-.5,0l-3.7,3.3v-5.9c-1.3-.2-1.2-.6.1-1l.4-1c-.5-.1-.4-.3,0-.5,1-1.3,1.8-2.7,2.5-4.2,1.7.2,3.2,0,4.6-.3.1-.4.3-.5.5,0,.9-1.4,1.9-2.2,3.7-2.1,2.8,1.1,5.2.8,7.2-1.6,4.5,1.2,8.6,3.5,12.6,5.8Z"/>
    <path class="st99" d="M181.7,24c2.3,1.2,4.8,2.2,7.3,2.8l.2.7c1,.3,1.8,1.3,2.3,2.8,11.1,13.6,16.9,31,20.6,47.7s.2,1.3,0,1.8c.8,1.6,1.1,3.2.8,4.6,0,.6.2,1.1.3,2l-1-.5c-1.3.1-2.6-.4-3.9-1.5-3.3-1.9-6.7-3.3-10.3-4.1-2.3,1.8-5.2,2.5-8.8,2.1l-1.3.7c-3.2,4-6,2-8.1-1.7-1.8-1-.1-2.9,1.6-2.9l3.2-2.7c7.4-1.3,7.8-2.1,6.8-9.6s-2.1-10-4.3-15c-3.6-8.3-7.8-17.1-12.3-24.8-1-.8-1.8-1.5-2.6-2.4,1.2-1.2,3-1.6,5.3-1.3,2-.3,3.4,0,4.2,1.3Z"/>
    <path d="M211.8,113.8c.1.9,1.6.9,2.2,1.8,3.5,4.8,4.9,11,4.5,17.2-.9,14.5-8.9,22.7-10.4,34.1s-1.7,2.9-2.1,4.4c-.8,2.9-1.1,13.3-3.4,13.7-1,1.1-3-.5-3.4-1.7-1.5-.3-2.1-3.6-1-4.6-.5-.2-.8.1-1.1.4-.6,1.8-2.7.7-3.8-.5-1.4-5.2-5.9-5.6-9.3-1.6l-1.3-.3-.8,1.4c-9.3,3.6-20.2,4.1-29.5.1l-.7-1.5c-7.6-2.3-14.3-2.1-20.9,2.5h-1.5c-1,1.5-2.1,2-3.2,1.6-.5.2-.7,0-.5-.5-.5-2.7,2.9-6,4.9-7.8s2.5-2.2,5.3-1.7c3.7-2.3,7.2-2.5,11.4-1.8,4.6-.8,9.3-1.4,14-1.5l1.8.7c.7-1.2,1.6-2.1,2.7-2.7.9.7,7.4,1.6,7.7,1.3.6-.7-.3-9.6-1.9-10.7,0-2,1.3-2.4,3-1.5s3.9,6.6,1.9,7.8c.8.7,1.2,1.6,1.2,2.6l5.6.8.4,1.1c.8,0,1.4.4,1.9,1,.8-1,2.1-1.1,4.1-.2,2.2.8,4.1,2,5.8,3.8,3.1,1,5.2,2.8,6.1,5.5.5-4.3,1-12.2-.8-16.1s-6.9-6.7-9.3-8.4c-3.7-1.4-7.6-6.3-2-4,5.3,2.7,10.4,6,14.3,10.7s1,2.8,1.3,3.9c.8.5,1.2.1,1.5-.6,1.2-7.2,15.4-26.8,7.5-43.9-.8-1.7-2.9-2.2-3.6-4,.4-.5,1.1-.4,1.6-.5Z"/>
    <path d="M202.6,185v.5s-.4,0-.4,0h-.4q.4-.5,0,.1c.3,4.5-1.2,8.7-2.2,13.3s-1.9,9.1-4.2,13.1-2.3,3.8-3.4,5.6l.3,1.3-5.7,5.9c-.3,2.4-.7,4.7-1.1,7,4.8,4.3,6.8,10.6,5.8,16.7l1.1,1.3c0,5.2-1.8,14.7-5,18.9s-4.6,1.1-3.7-2.6c3.7-8.8,5-18.9,1.4-27.9l-2.3,16-1.1.8c.3,1.8-.3,4.6-1.5,6,.7,2.3-2.5,1.3-2.7-.7-.4-5.6,2.8-22,4.3-28.7l1.1-.5c-.4-.1-.4-.3,0-.5-.5-.9-.6-1.9-.4-3-5.1,3.3-10.5,4.9-16.1,4.6-4-1.2-8.1-1.7-12.1-1.3-7.1,1.9-12.4,1.6-19.2-.7-7.8-2.6-22.3-8.6-27.6-14.6s-.5-1.3-.6-1.9c0-1.3.3-1.5,1.4-.9h1.3c10.8,6.6,22.2,12.9,34.9,15.1,5.1,0,10.2-.4,15.3-1.1,15.1,5.2,28.8-6.1,34.1-19.8l4.6-17.6,1.7-2.1c0-.8,0-1.4,0-1.9-1.2,2-3.1-1.5-.9-2l3.4,1.7Z"/>
    <path class="st61" d="M212.2,85.9c3.4,2.9-1.4,20-.7,24.9l1.4,1.4c.4.4.2,1.1-.2,1.4s-.7,0-1,0c-.9-1.2-2.1-2.2-2.8-3.8l1.3-1.3c-.6-5.3.8-9.3.6-13.4,0-1.5.2-3,.5-4.5,0-.7.1-1.3,0-2-3.9-2.4-8-4.5-12.4-5.8-2.3,2.5-4.5,2.7-7.6,1.6-1.6,0-2.7.9-3.5,2.2h-.5c-1.6.3-3.1.5-4.7.8l-.9-1.2c-2,0-3.8-3.5-1.8-4.5.8-1.2,3.6,4.8,5.9,2.5s2.9-2.9,5.7-2.7c7.3.7,4.3-3.4,9.1-1.5s8.5,3.3,11.8,6.2Z"/>
    <path class="st61" d="M192.3,27v.7c9.4,11.1,17.1,25.4,18.4,39.7,1,.5,1.1,3.1,1,4.5l1.8,9.7c.2,1.1.8,2.4-.5,2.7-.4-1.5-1.2-2.8-1.8-4.3s.6-1.3.4-2l-1.8-5.5c-1-2.9-1.5-5.7-2.3-8.7-3.2-11.7-8.4-22.5-15.9-32s-1.9-2.8-2.2-4.3c-.6-.9-.1-1.3.9-1.4.6-1.7,3.4-.4,2.2.9Z"/>
    <path class="st15" d="M212.3,70.5c-.4.4-.6.9-.6,1.5l-1-4.5c0-.8.2-1.3.6-1.5.2,1.5.4,3.1,1,4.6Z"/>
    <path class="st123" d="M202.2,185.6c0-.3.2-.3.4,0,0,.6.5,1.3,0,2.2-.6-.6-.2-1.4-.4-2.2Z"/>
    <path class="st139" d="M453.1,15.3c-.5.4-1.1.3-2,0,.3-.6.9-.5,2,0Z"/>
    <path class="st99" d="M763.5,10.5c-3.5,0-7.5.9-11.5.6-4,2.9-2.8,13.6-1.4,16.7s4.2,2.4,6.2,2.8c4.3.9,7.7,2.9,11.7,4.4s16,6.7,19.9,9.5c15.6,11,10.3,0,19.8,21.8-1.4.8-2.1.5-2.9,0,0-1.4-1-3.9-2.5-4.6-4.1-1.9-8-3.4-12.1-5-6.4-2.5-12.4-5.4-18.5-8.6s-11.6-4.7-17.8-5.1c-.6-.8-1.9-.5-3.2-.5-.4-2.1.9-4.6-.3-6.6-1.9-3.2,2.9-2.2-2.2-7.8-4.3-.7-9,.1-13.3,0s-7.8-1.5-11.8-1.8-6.6-.4-9.9-1.6-3.7-.6-5.3-2-4.3,2.9-4.2.2c.7-4,1.2-8,2.3-12.3l56.8-.2Z"/>
    <path class="st48" d="M797.6,91.8c.3,0,.3.2,0,.4-.5,0-1,.5-1.7,0,.5-.5,1.1-.2,1.7-.3Z"/>
    <path class="st99" d="M804.9,66.4c-.4,0-.9,0-1.1-.5.3.1,1.2,0,1.1.5Z"/>
    <path class="st18" d="M764.4,176.6c-.2,0-.5.2-1,0-.5,0-.6-.4,0-.6.6,0,1.1,0,1.1.5Z"/>
    <path class="st125" d="M117.9,17.9c.5.1,1.2.6,1,1.2,7.2,2.1,14.7,4.4,22.4,4.9s20.3,0,30.1-.9l.8.9c4.1-1.1,8.4,11.3,10.1,15,6.2,13.1,9.4,16.8,10.6,32.7-2.6,7.4-6,1.5-10.9,7.5-.3.3-1.3.2-1.7.5s-.5,1-.6,1.6c-.3,1.8,1,3.1,1.8,4.5.3.1.3.3,0,.5,0,.7-.4,1.3-1.3,1.7-3.1,3.5-2.9,8.9-2.7,13.3l-.9,1c-.4,4.3-.2,8.4.7,12.4,3.6,7.2,7.4,14.4,11.2,21.5,1.1,2.9-1.1,4.1-3.5,5.3s-11.2,1.7-13.7,1.2l-1.6-1.1c-3.6-5.9-10.1-4.9-15.9-3.2-4.1,2.5-6.5,2.1-7.3-1-1.1-.6-.9-1.4-.5-2.4-3.3,4.9-7.7,8.8-13.1,11.8-1.3,2.2-2.8,4.5-4.3,6.7h-1.1c-4.2,6.5-11,6.7-17.3,3.5-1.5-.2-3-.4-4.4-.7-3.6,7.4,8.2,8.7,13.2,8.5l.5,1c.5,0,.5.2,0,.5l-.5.6c1.4.5.5,3.1-.9,2.9l-.5,1c-.1,2.3-.7,3.2-1.9,2.7-1.8-2-3.9-3.7-6.2-5-1.5,1.2-2.1,2.4-1.8,3.7.9.7,1.2,1.6.9,2.6l.8.5c4.4,9.1,9.6,18,17.2,24.9l.8,1.5c.3-1.3.6-2,1.1-2,1.3.7,2.6,1.2,4,1.7,4.3,1.3,4.6.6,1.8-3.2-1.8-1.7-11-14-10-15.2l1.7-.8c4.8-.9,9.5-1.4,14.2-1.6,2-4.6,6.9-5.7,11.2-3.8,8.6,4.7,21.9,4,31,0,2.4-1.2,5.4,3.7,5.2,5.9s-2.7,4.8-5.2,4.1c-.2.3-.5.6-.8.7-9.1,2.5-20,4.6-28.6-.2-.5.1-1,.1-1.6.1v1.1c-3.9,2.4-.5,3.7,2.4,4.6,8.7,2.8,18,3.3,27.2,3.5.3,4.4-.5,9.8-1.6,14.2s-2.8,8.5-6.1,11.5-3.7,3.2-7.1.9c-4.2-.5-8.2.4-12.1,2.9-3.3,1.4-7,1.6-10.5.8-11.9-2.6-23.2-8.4-34-13.9l-1.5-.2c-.4.4-.9.7-1.4.9-.7,1.6-1.4,3.3-2.2,5.1,15.4,8.9,32.1,17,49.7,18.8,1.9.8,4.8,3.7,5.4,5.7.8,2.7-3,14.4-4.4,17.3s-6.7,11.3-7.8,12.2-1.8,1.4-3.4.3c-7.9-3.1-15.8-6-23.8-8.6-9.2.8-18.5,1-27.9.6-6.7-.1-13.2-1.1-19.6-2.9-13-6.5-24.9-14.8-36.5-23.8-5.4-4.1-9.6-8.8-12.2-15.1l6.7-17.5c3.5-9.1,6.5-25.7,6-34.8l1.3-.4c7.2,2.5,10.1,5.6,12.2,12.6,3.9,4.7,7.1,10,9.7,15.7,4.4,7.3,9.3,14.6,17.1,18.3s5.9,1.7,9.5-1.2c-3.7-1.9-3.3-4.6-2.3-8.1-7.5-7.1-14.3-15.1-20.3-23.3l.3-1.8-1.1-.2c-3.3-9.4-5.9-19-7.9-28.9-.9,4.3-2.3,4.2-6.3,2.9s-7.2-4.4-9.2-7.9l-8.6-17c-3.4-9.3-4.4-25.3-.7-34.7s4.3-5.7,8.9-5.6c13.8.3,16.4,11,14.2,22.6l.4.8c1.2-1.5,3.8,1.1,2.8,2.6.6.3,1,.9,1.5,1.7,1.4-2.9,3-5,5.9-6.7,1.5-5.3,3.1-10.5,4.8-15.7l.9-.7c.2-.4.4-.4.5,0,1.4-.3,2-1.2,1.8-2.6,0-7.1,0-14.2,0-21.1-1.9-.3-2.6-2.9-.8-3.8-1.3-.7-.2-3.8,1.1-4.1.2-.8.9-1.3,2.1-1.4,1.6-1.1,2.9-1.2,3.7-.5l.2-1.1c4.4-.9,3.8-1.7-1.8-2.5-.8-.6-1.2-1.2-.6-2,2.4-.8,4.7-1.9,6.8-3.3-.7-1.3-.7-2.3,0-3-1-2.4,2.3-4.6,4.7-3.7l-2.6-2.8.5-1.1c-.1-1.5.3-2.1,1.2-1.9,2.4,1.6,4.8,2.1,7.2,1.6l.9.7c1.6-.7,2-1.4,1.8-3.3.4-1,1-1.7,1.7-2.3l.7-1.2c6.3-1.9,10.3-7.4,12.5-13.3l.8-.3.4-5.6c1.3-1.5,5.6-2,5.3.5Z"/>
    <path class="st98" d="M456.6,220.7c0,.5,0,1,0,1.4l-.5,1-122.1,3.3c-19.1.7-38.2,2.2-57.1,4.7-2.2,1.8-.8,1.9,1.3,2l29.2-1c49.8.3,99.1,1.2,148.1,2.7v-8.9c0,0,1.1-.7,1.1-.7.8-.7.3,7.9.3,9v33.9c-.8.4-1.3-.1-1.5-1.5-39.3-2.2-79.5-4.4-120.9-3.5-28,1.3-56,2-83.7,2.1-.4.8-.9,1.2-1.7,1.3.4.1.4.3,0,.5-5.5-1.7-10.7-4-16.3-6.1l-21.5-8.3c-.5-.4-.5-.6-.1-.4-2.3-1-4.7-1.7-7-2.2-3.8-1.4-7.8-2.6-11.6-4.7s-.6,0-.7.2,0,.5-.2.6c.7,1.1.8,1.9-.5,2.5-.3.2-.4-.2-.4-.6,0-6-2-11.6-6.3-15.8.7-2.6,0-5.6,1.1-7.8,1.9-2.4,4.7-4.3,6.3-6.7,4,.6,8,.5,12.4.4l79.4-1,65.5-.2,33.6,2.9c24.8,2.1,49.3,1.2,73.9.9Z"/>
    <path class="st99" d="M14.3,234.7c-.1-.9.3-.9,1.1,0,4.6,8.6,13.4,17.5,21.4,23,.9.1,1.7.7,2.5,1.8.5.3.7.3.4,0-1.2-.6-2-1.4-2.3-2.3-7.4-8.9-18.7-15.9-22.3-29.1s-.2-5.4,1-8c2.7-5.9,3.5-8.4,10.1-10.2,1.6,2.7-5.1.8-5.9,8.3s.5,5.6,2,8.2c2.9,5.2,6.2,9.7,11.1,13.5,10.6,8.1,21.2,15.9,33.1,22.1,6,3.1,12,5.4,18.2,7.9s12,3.5,18.1,5.5c11.4,3.7,22.9,5.5,34.9,6,1.4,3.4,3.2,6,5.6,8.6,7,7.8,8,13.3,13.4,22.1l-7.8.2-75.6.2-66.1.2.7-66.4c2-.6,3.5-1.8,4.5-3.7,1.5-2.4,1.8-5.1,2.1-7.7Z"/>
    <path class="st99" d="M191.2,248.7c0-.8,0-1.8.5-2.5.6.8,1.5,1.4,2.5,2,8.4,4.2,16.7,7.6,25.4,11l30.9,12.1,40.9,14c7.1,2.4,14.1,5,20.2,9.3s7.9,8.7,11.9,12.9,2.7,2.3,3.6,4l-92.5.2-67.8.2c.6-1.7.3-3.2.4-5,.3-8.9,1.4-18,4.7-26.4,1.4-3.1,5-4.8,6.8-7.6,4.6-7.2,5.7-19.2,4-18.5s-.3.4-.4.6c-.2.9-.5.9-.7,0l2.8-19.8c2.5,3.4,3.1,7.5,3.5,11.6.7,6.4-.6,12.4-3,18.5s-1.2,3.4.2,4.7c2.2-2.5,3-5.5,4.1-8.5,1.6-4.3,2.3-8.6,1.9-13Z"/>
    <path class="st98" d="M85.3,13.4v.7c-8.1.4-16.3.5-24.6.4-4.3,2.6-8.2,6.1-11.2,10.3h-1.2c-.5.4-.6.6-.5,1.2,0,2-.7,3.9-2.2,5.9-2.5,4.9-4.6,9.9-6.3,15,.4.7,0,1.9-.5,2.4l-.5,1.8c.4.7.5,1.4,0,1.9l-.9,1-.8,8-1.1.6c-.8.7-1.3,1.7-1.5,2.8h-.6s0,1.1,0,1.1c-6.8,14-11.2,28.5-11.9,44.1-.1,3,.1,4.4,1.5,6.7-1.2,13-1,26.6,7.4,37.2-9.4-13.1-8-30.3-6.6-45.7-1.3-2.4,2.6-1.2,3.1.5l1,1.3c-.1,7.5,0,15,3.5,21.8,3,6.4,6.3,12.7,9.9,18.8v1.5s.6.9.6.9c-.9,2.1-4.1,8-6,4.8-2.8-1.7-1.8,6.5-1.8,6.1s0-1.2.4-1.3c.5,4.3.5,8.7,0,13-.6.3-.4-1.1-.4-1.1.1,1.4,0,4.1-.7,5.1-.4,4.1-.9,8-1.5,12-.4,1.9-1,3.7-1.5,5.5l-.4,1-20.4-2c-.2,2.2-.2,4.5-.1,6.8l17.7,1.4.7.9c0,.2,0,.4,0,.5l-1,2c-1,.2-2,0-3,.1l-1.5.4c-.2,0-.3,0-.5,0-3.6.9-6.2,3.3-7.9,7.4,0,.2,0,.3,0,.5l-.5,1.5c0,.1,0,.4,0,.5-.7,1.7-1,3.6-1,5.5.3,1.5,0,3,0,4.5l-.4,1.5c0,.3,0,.7,0,1l-.4,1.5c0,.2,0,.3,0,.5l-.5,2c0,.2,0,.3,0,.5l-1.8,4.5c-.4.9-.8,1.3-1.3,1-.3-3.7,0-7.3,0-11,.5-8.3.4-17.1,0-25.5l.2-12.5.2-38.5.4-62.3v-37c.1,0,.2-41.5.2-41.5h37.4c0,.1,38,.2,38,.2.5,0,1,0,1,.4Z"/>
    <path class="st99" d="M85.3,13.4h40.9c11.4,5.3,21.7,3.5,33,1.1,4.2-2.4,4.8.9.5,3.2-.3,1.2-.9,1.9-1.6,2.3l-18.6,1.3-1.7.8c-.4.2-.8.4-1.2.6s-.8.3-1.2.2c-5.2-.5-11.4-1.4-15.6-4.3-.8.3-1.3-.1-1.9-.6-1.2-1.1-4.7-1-4.9,1.1s-.4,2.9-.7,4l-.7-.3c.1-1.9.2-3.8.2-5.7h-.8c-1.3,2-2.7,3.9-4.3,5.8-4.6,2.3-8.6,5.6-12.1,9.8-1.3.6-2.7.9-4.3,1.1-1.5.6-6,4.5-4.3,6.2l-1.1.7c.4.2.4.4,0,.5,0,1-.4,1-.7,0-.4.8-1.5,1-3.2.6-2.6,2.3-4.9,4.8-7,7.6h-1.8s-1.5.4-1.5.4c-9.7-6.7-4.8-2.4.7,1.2l.3,1.3c2.6,1.1,3.5,2.2,2.8,3.3-1.1,1.8-2.3,2.5-3.8,2.2-2.1,1.2-6-1.2-8.1-2.5s-1.6-1-2.2-1.7v1.3c1.4,1.2-.1,2.9-1.5,1.5-1.5-.4-1.3.4.8,2.4,1.5.9,2.1,1.9,2,3,2.8,3.1,6,5.4,9.6,7-.4,1.4.5,2.6.8,3.8-.1,6.4-.3,12.8-.6,19.3-.9.8-1.7,1.7-2.6,2.6-1.7,9-4.2,16.7-11,22.9h-1.2c-.7-.9-1.7-2-2.8-2.5l-.5-.6c2.4-10.1.5-21.8-11.9-22.6l-.4-1.1c-1.3-1.2-1.8-1.2-1.5-.2l-.5,1.1c-2.8,0-5.7.5-7.4,3-2.6,3.9-3.4,9.8-4,14.4l-1,.7c-1.8.5-2.9-2.1-3.1-.5.3,0,.3.2,0,.4-.8,1.3-1.4,1-.9-.4-.4-.7-.9-1.4-.9-2.3-.5-10.9,6.1-29.3,11-39.2s.5-.6.9-.8c0-1,.4-1.5.9-1.5h.6c0,1.5.2,3,.4,4.4,1,1,1.6,2.4,1.7,4.3,1.5,7.1,6.9,10.9,12.7,14.2.6,0,.8-.3.6-.6-8.3-2.3-12.8-8.6-13.8-17.1s-.3-15.8.6-16.8.4-.3.7-.4c-.6-.6-1.4-1.4-.9-2.6s.3-1.4,1.3-1.1c.3-.8.7-1.4,1.2-1.9.3-4.6,2.8-9.9,4.9-14.2,3.8-7.6,8.6-14.3,15.9-18.8,0-.7.7-1,1.6-1h23Z"/>
    <path class="st99" d="M182.9,230.6c-.6-.3-.3.1,0,.5l-2.7,15.4c-.8,4.6-1.6,9.1-1.7,13.7s.7,1.1,1,1.3.4-.4.7-.4c.9-1.1.8,0,.6,1.1-.9,2.8-1.5,6-3.4,8.5-3.2,4.2-7.9,6.5-9.2,12.3-2.6,11.2-4.3,17-2.9,28.9-1.5.2-2.9.2-4.5,0-5.7-7.6-8.1-17.5-14.9-23.9s-4.8-9.9-14-10.3-15.9-1.6-23.8-3.9l-20.3-6c-5.4-1.6-10.2-3.4-14.9-5.7,7.6.7,15.1,2,23,2h19c2.1,0,4.3-1.2,6.4-.5,8.5,2.8,16.5,5.9,25,9.2l7.8-11.8c.3-.5,6-15.8,4.6-17.8-4.4-6.5-5.5-4.5-10.4-5.4-12.9-2.4-12.3-3.5-23.9-7.8-7.6-2.8-14.5-6.8-21.3-11,3.8-5,.2-3.7,3.8-5.3,5.8,5.8,13.3,9.7,21.2,12.7,8.1,3.2,13.9,6.3,22.6,4.2,15.7-3.8,13.5,6.8,33-4.8-.1,1.7,0,3.4-.7,4.9Z"/>
    <path class="st98" d="M457.1,271.6c.4,1.5-.2,3,0,4.5,0,.4,0,1-.3,1-42.8,1.9-85.8,2.3-128.6,2.7-14.7.3-29.3.2-43.9-.2l-28.1-9.9c-2-.7-3.8-1.2-5.4-2.1l-1-.5c-.2,0-.4,0-.5,0,0-.2,0-.4,0-.5l1.2-.7c11.3,1.1,23.3,1.7,35.8,1.8,54.8-.8,109.8.2,164.8,3.1l6.2,1Z"/>
    <path class="st99" d="M457.1,276.1c.3,3,0,6,0,9l-41,.9c-28.3.6-56,.3-84.3-.7l-34.6-1.3-12.8-4.4c.4-.4,1.1-.6,1.9-.6l42-.2,62-.7,66.9-1.9Z"/>
    <path class="st99" d="M64.3,182.7c.9,2.7,7.2,9.6,9.6,12.4,3.5,4.3,7.1,8.4,11.3,12.2.2,1.9-1,3.9-.4,5.5.6,1.5,2.6,1.8,3.7,3.6-2.3.8-4.7,2.9-7.2,3.1-3.6-.9-7.7-2.8-10.5-5.3-7.2-6.6-11.9-14.8-16-23.4s-3.7-4.6-5.3-7.2-1.9-6-3.9-8c-2.6-2.1-6.1-3-8.8-4.8-.2-3.9-.5-7.9-1.5-12.2-1.3,1.5-1,3.3-.9,4.7-.2.4.2,1-.4,1.6-.7-3.6-1.5-5.3,1.1-8,1,.8,1.6,1.6,2.6,1.9l3.6-5.9,1.1-.3c3.7,3.1,7.9,6,13,5.5,1.4,6.2,3.1,12.3,5.1,18.3l2.9,6.9,1-.5Z"/>
    <path class="st98" d="M183.7,13.9c1.5.6,2.8.6,4,0,1,0,1.6.3,2.4,1.1,5.4,5.6,3.9,14.4,6.9,9.8,4.7,7.2,8.8,14.9,11.3,23.3s2.1,11.8,2.9,17.7c0,.6,0,1.3-.6,1.5l-3.1-10.3c-2.5-8.2-6.2-15.7-11.2-22.7s-4-4.5-5.5-7.6c.4,0,.9.2,1.4.2l.5-1c-5.9-3-12.6-4.5-19.2-4.1-11.3,1.2-22.7,2-34.1,1.3s-.5-.2-.8-.4-.5-.5-.8-.7c.3-.5.7-1.7,1.6-1.7l19-1.3c-.3-2.7,2.6-2.6,3.7-4.8-1.2-.6-2.1.1-2.9.3,0-.2-.1-.6,0-.7.2-.2.5-.3,1-.3l8.8.3,14.7.2Z"/>
    <path class="st99" d="M30.3,197.7c-.7,2.6-.8,5.7-2.5,8-.4,0-.9.2-1.5.2l-17.9-1.4v-8.9c0,0,21.9,2.2,21.9,2.2Z"/>
    <path class="st98" d="M7.8,230.1v-25.5c.2,0,.5.2.5.5v24.4c0,.4-.3.6-.5.5Z"/>
    <path class="st107" d="M149.8,13.5c.4.1.4.3,0,.5-1.4.1-2.4.4-3.5.5-4.5-.1-9-.1-13.5,0-1.2,0-2.5,0-3.6-.9h20.6Z"/>
    <path class="st99" d="M146.3,14.5l-7.5.5c-2.1.1-4-.8-6-.5,0-.4.5-.5,1-.5h11.5c.5,0,1,.1,1,.5Z"/>
    <path class="st36" d="M33.8,181.7c-.4,3.5-1.3,7-2,10.5-.3.2-.7-.5-.5-.9,1.1-3.7,1.2-7.4,2-11,.2.3.4.8.5,1.5Z"/>
    <path class="st157" d="M182.3,255.1c-.3,2.4-.8,4.8-1.5,7,0-.4,0-1.2-.6-1.1.5-1.9,1.2-4,1.5-6h.7Z"/>
    <path class="st90" d="M211.3,252.6l-7.1-2.6c-.1-.2.2-.5.5-.4l6.7,2.3c.4.2.4.7,0,.7Z"/>
    <path class="st34" d="M34.4,176.2l-.6,5.5c-.6-.2-.5-1-.5-1.5.4-1.7,0-3.6.7-5.5.5.4.2,1,.4,1.5Z"/>
    <path class="st69" d="M23.1,219c-.7-1.3-.2-2.9,1.1-3.9.3,1.4-.2,1.9-1.1,3.9Z"/>
    <path class="st98" d="M21.8,208.8c-5.3,2.2-4.4,2.9-7.9,7.4.4-2.4,2.6-4.2,4.1-6.2s2.1-1.6,3.7-1.2Z"/>
    <path class="st54" d="M39.7,259.4h-.4c-1.1-.3-1.7-1.3-2.5-1.9.2-.1.4-.3.5-.5.7.8,1.9,1.3,2.3,2.3Z"/>
    <path class="st63" d="M187.7,13.9c.2,1.8-4.4.3-4,0,1.3,0,2.7,0,4,0Z"/>
    <path class="st98" d="M12.5,224.2c-.4-2-.4-3.9,1-5.5-.4,1.8-.3,3.8-1,5.5Z"/>
    <path class="st98" d="M10.9,235.1c0-.7-.4-1.8.5-2,0,.7.2,1.6-.5,2Z"/>
    <path class="st96" d="M15.4,234.6h-1.1c0-.5-.3-1.1.3-1.5.1.9.5,1.1.7,1.5Z"/>
    <path class="st24" d="M149.8,14v-.5c.8,0,1.3-.2,1.5.4-.7.3-1.1.1-1.5.1Z"/>
    <path class="st98" d="M23.8,208.3c-.3.5-1,.4-1.5.4,0-.8,1-.4,1.5-.4Z"/>
    <path class="st98" d="M7.8,241.1c1.9-.5,2.1-5.2,3.1-5.5-.2,2.4-1.5,4.5-2.9,6.5-.4-.5-.2-.8-.2-1Z"/>
    <path class="st98" d="M11.9,230.1c0-.5-.3-1.4.4-1.5,0,.5.1,1.2-.4,1.5Z"/>
    <path class="st98" d="M13.4,218.2c0-.5-.3-1.5.5-1.5,0,.5,0,1.2-.5,1.5Z"/>
    <path class="st98" d="M11.4,232.6c0-.5-.3-1.4.4-1.5,0,.5,0,1.2-.4,1.5Z"/>
    <path class="st98" d="M250.7,267.6c-.3-.2-.9,0-1-.5.4,0,.8.1,1,.5Z"/>
    <path class="st98" d="M26.8,208.2c0-.8.3-1.6,1-2-.2.6-.3,1.8-1,2Z"/>
    <path class="st98" d="M702.1,24.5c-.9,0-1.1,1.1-1.1,1.4-2.7,2.6-4.9,5.9-6.6,9.4,1.2,1.6,2,3.1,2.3,4.9s1.4,3,2.1,4.4c1.7,3.7,4,6.4,6.8,9.3,8,8,9,20.5,11.1,30.9s1.6,18-.9,26.9-5.5,16.7-9,24.9c-6,13.8-4.8,31.3-3.8,46.2s1.6,12.2,2.7,18.4l4.9,26.9c1,5.4,13.2,10.7,17.6,14.5s3,1.2,4.7.4c6.2-3,15-7.6,21.5-5s6.1,2.1,8.4,4.1c5.7,5,13,17.5,12.3,25.6,2.8,3.6,5.9,6.5,10,8.5-.1-2.4,10.2-2.8,12.4-3.2l6.7-1.3c1,0,.9.5.5,1.4-1.8,3.8-2.6,7.6-2.8,12-.6,9.9,5.8,5.5,16.4,10.9,5,2.6,10.6,4.8,14.6,8.9s3.8,7.8,5.8,11.3c0,.3,0,.8,0,1.4-1.5.5-3.2-.4-4.5-.4q1.5-.4,0,0l-55.9-.5-4.3-1-.3-1.1-1-.8c-.9-7-6.9-12.1-12-16.4v-1.3c-1.6-1.5-3.5-2.5-5.5-3.1l-.8.7c-15.2-8.4-31-16-47.1-22.8-11.3-5.9-22.6-12.2-33.8-18.9l-.8-1.2-4-3-1.2-.3c-.2-7.2-4-13.5-10.9-15.9l-.3-.8-3-1.1-1.1-.6c-.8-3.7-.7-7.1.3-10.4,1.9-2,3.1-4.2,3.6-6.6,7.1-3.9,13.2-9.2,17-16.7l1.5-.8c.5-.4.7-.7.6-1.4l-.6-1.1c3.4-6.6,3-13.7-4.6-16.6l-.3-1.2c-.4-.5-.6-.8,0-1.2-.3-.8-.6-.8-.9,0-2.5-.3-4.4,0-5.5,1.2,0,1.3-2.7,3.2-4,2.9-.7,1-1.6.7-1.9-.5l-.9-.5-4.8,7.9-.9.6c-1.4-1.3-2.2-3.2-2.5-5.8l-.5.3c-1.2,1.2-2.2-.8-1.9-2.1-1-.5-1.4-1.6-1.3-3.4-.9-1.9-2.6-3.1-5.1-3.9-2.3-5.4-.7-11.8.7-17.3s.3-.3.6-.4c.2-1.6,0-1.9-.6-1l.2.8c-1.1,3.9-1.8,7.9-2.1,11.9l-1,1.3c-1.7,1.1-2.9-2.5-1.5-3.5-1-2.4-1.1-4.5,0-6.1.7-3.1.5-3.8-.4-1.9-.1,1.2-.5,1.1-1,0-1.5-1.4-2.3-3.4-2.2-6.1-.3-7.6-.4-2.7-.3,1.6l-.9,1.1c-.2,0-.5.2-.7.1-1.8-.2-1.3-4.9-1-6.3-.8-.3-1.2-.8-1.2-1.4-.4-.9-.6-2.1-.6-3.4-.1-2.2.4-4.5,1.5-6.8l-1,.3c-.5-.6-1.1-1.1-1.7-1.6-1.8-.3-2.9-.9-3.3-1.9-.3-1.6.1-3.2,1.3-4.9l-1.5.6c-.5,1.2-1.7,1.6-2.5.4-.7-.2,1.8-3.4,1.7-3.2-.6,1.1-1.7,2.8-2.6,3.3-.8-.2-1.3-1.1-1.6-2.5v-.6c4.5-4.5,4.4-4.3-.5.4.4-.2.3,0,0,.6.4.3.7.9.5,1.2-1.3,1.7-2.6-1.4-3-2.5-1.4.5-4.1.4-2.3-1.3.3-.3.3-.4,0-.4-.9-.7-.9-1.8,0-3.3l-4.4-.5-.6-1.1-.3-.8c-1.4,1.1-2.8,1.9-4.2,2.3-.4,1.4-2.6,1.5-3.5.5,0-.6-.7-.6-2,0-1,.3-2.4.7-3.5.6-.2-1.3-.8-.8-1.9,1.4h-.6c.3,1.6-2.3,2.4-3,1.1-1.9.3-.3-1.3.7-1.9l-6.2,4.9c-1.7.5-3.4.8-5.2,1-.9,0-1.9,0-2.8.1,0,.9-.6,1.4-2.1,1.7,0,.5-.2.5-.6,0h-.6c-.7-.7-1.3-.7-1.9,0,.3,2.3-1.3,1.8-2.8.5,0,1.1-.6,1.6-1.5,1.5l-1-.3c-.1-1.1-.5-1.4-1.1-1.1-.9,0-1.5-.8-1.7-2.2-.6-1.4-1.2-1.2-1.6.7h-1.1c-1.2,0-.4-.5-.2-.2.5.7-1.5,1.4-1.8.1l-.5-.8c1.1-2.7,1.9-5.3,2.5-8,0-.7,0-1.4.3-1.9,14-18.7,49.2-20.8,69.6-13.1s.7.5.9.9c1.2.1,1.5,0,1.1-.6h-1.1c-25-8.3-61.8-6.6-74.9,19.6l.4.9c.5-.2.7,0,.6.5,1.2,0,.9,1.3-.2,1.3-.1.2-.3.2-.4,0-.2-.1-.3.4,0,.7-.3,1-1.4,1.9-2.3,2.4-5.2,8.9-9.4,18.3-12.7,28-1.4,2.3-2.4,4.7-3,7.2l-.5.3c.4,3.8,1.1,7.7,2,11.5,1.9,1,1,5.4.5,7.3-3.7,7.4-2.3,14.9,1.5,22l-1.1,6c.5-4.8,3.4-9.4,8-11.1v-.6c-.5-1.3.2-1.7,1.5-1.1.3-.7.8-1.3,1.5-1.5.8-1.3,3.6-1.4,5-1,1.9-.4,4-.2,6.2.4,5,2.4,10.2,4.2,15.6,5.3,3.4.9,7.3,2.3,9.4,5.3s2.1,3.2.5,4c-.7.9-4.5,2.5-3.5.7l-.6.9h-8.3c-3.2,2-10.2,2.8-13.3.2-3.8,1.1-5.3-1.3-6.4-4.4-.8,1-1.5,2.2-2,3.6-1.4,1.9-3.4,2.2-5.9,1-1,.9-1.2.8-1.1-.5-.4-.2-.4-.3,0-.5.6-.2.5-.5-.5-.9-.8,1.5-2.3,1.1-2-.6l-.5-.5c-.6.6-.4,1.5.4,2.5l-.4,1.1.6.3c2.1,4.7,3.8,9.6,5,14.6-.7,10.6,4.4,17.2,14.8,19.2,1,.9.3,2-2,3.3l-1.9,1.8c-2.8,3.7-4.4,8-5,12.9-2.2,3.8-7.2,8.6-11.8,9.7l-1.2-.6c-.8-.2-1.5.2-1.5.6-2.2,3.1-7.2,5.3-10.9,4.8-2.9.6-6,1.6-9.5,3.1v1.1c-17.3,4.8-34.4,12.4-45.1,27.9,9-12.2,22.6-20.2,36.8-25.1,12.4-3.1,23.9-8.1,35.3-13.7,3.4-1.7,5.7-4.3,7.7-7.4l1.3.9c.6,2.3,1.7,4.1,3.3,5.6-3.4-4.9-3.9-11.5-1.2-16.8s6.1-8.1,7.9-7.2,1.5,9.5,1.1,9.7c-1.2.7-1.1.7,0,.1-1,8.7,8.3,12.6,15.5,13.8,22.1,3.7,50.4-4.7,66.9-19.9h1c.4.1,1,.4.9.7-.6,3.1-10.9,11.5-13.9,13.3-15.5,9.2-30.6,11.1-48.2,12.7s-.6.8-.3,1c1.7.9,3.3,1,5.2,1.1,16.5.6,35.2-3.3,50.5-9.3l.7.9-.8,1.7c-8.5,6.7-22.1,11.1-32.4,14.2,12.6-2.7,24.5-8.4,34.8-14.8.7-1.3,2.6-.3,2.8,1,.5,3.5-11.1,13.3-14.8,14.5,2.3,1.1,4.5,2.3,6.6,3.7.2,1.5-.6,2.7-2.3,3.6l-3.4,3.5c5.4.9,10.8,1.2,16.4,1.1,11.6,1.2,23.2,1.5,34.7,1,5.1-.1,9.4.8,14.2,2.8s7.9,3.2,10.9,5-.3,5.2-2.9,5.8l6.7.6.9,1c-5.2.2-10-.2-15.6-.2l-186.7-1.8-16.6-.2-27.5-.3-2-.5.2-18.5,1.1-55.2,1-71.4,1.8-157.5h144.4c0,.1,87.5.2,87.5.2l-1.9,13.9Z"/>
    <path class="st99" d="M670.7,250c19.9,13.2,41.8,24.5,64.5,33.7l24.4,13.3c3,1,13.1,12.7,12.3,15.5s-.5.7-.9.9c.3,1,.4,2,.5,2.8l-21.1-.2h-33.9c-3.6-.2-7.5-1.2-11.7-.6,1.2-1.6,7.5-3.3,7.3-4.8s-.3-1.2-1-1.5c-4.8-2-9.2-4.5-14.1-6.2-7.8-2.7-24-.5-33.2-1.4s-14.1-1.3-21.3-1.3-6.4-.9-9.7-1.1c2.1-1.7,3.8-2.5,5-4.5s2.4-1.3,2.6-2.9l-8-4.2c6.8-3.2,12.6-7.8,16-14.2s-1.5-.9-1.9-1.3c-1.1.8-1.6,0-1.6-1.1-1.4,0-2.7.7-4.2,1.4-10.1,4.6-30.4,7.5-41.7,7.8s-12.7.9-11.6-2.9,1.3-1.1,2.5-1.1c6.3,0,12.3-1.2,18.5-2.2s11-3.1,16.6-4.9,8.7-3.3,12.7-6.3,12.8-9.7,12.3-12.4l-.2-.8c2.3-2.6,4.4-5.7,5-9.1-1.2-.8-1.9-2.3-2-4.4-.2-1-1.2-5-.3-5.3,2-.8,7.6,2.3,9.2,3.8,6.2,5.6,5,11.2,3.4,18.4s2.2-4.1,1.8-4.7c.7-1.9,3.7.2,3.7,1.7Z"/>
    <path class="st99" d="M853.9,275.6l-12.8,1.8c-1.7.2-3.9.1-5.4,1.2s-4.2,2.8-5.4,4.6-.8,2-2.4,3.2c6.3,3.9,12.3,7.6,17.7,12.4,12.2,10.9,14.3,13,29.7,18.8s3.2-.8,4.1.4c-2.5,0-4.9-.2-7.6-.2l-30-.4c-2.1-5.5-4.1-10.4-6.9-15.3-6.8-4.9-14-8.8-22-11.4s-4.4-.4-6.6-1.4c1.2-1.4,12.1-8,11.4-8.4-2.6-1.7-10.5,5.6-13.2,7.7-.9-1.3-.2-2.7-.3-4-.3-7.3,1.3-7.4,2.4-13.1.1-.4.6-.7,1.2-.9,2.1-.6,4.5-.9,7-.9s6-1.4,9.1-2.5c10.6-3.8,22.9,4.7,29.9,8.4Z"/>
    <path class="st99" d="M823.4,259.1c-1-.2-2.4-.9-3.2.3,2.5,1.4,4.9,1.8,7.1,2.7.8.5,1,.8,0,1-3.1-.3-5.7,2-8.7,2.5-6.4,1-12.5,1.7-18.8,3.9s-6.8,1.3-9.9,2.2c-.5-.2-.8,0-1,.4-.8.3-1.7.5-2.5.9-.3-.2-.9-.3-1.1,0-11.9-7.5-6.7-8.4-7.9-10.8,2.1,2,13.4,0,16.5-.7l24.5-5.7,5,3.2Z"/>
    <path class="st63" d="M773.4,314.5c1.6.5,3.4,1,4.6,2.1-9.2,0-18.5.2-27.5-.4h20.6c-.1-1.1-.2-1.9,0-2.7.7-.2,1.3.2,1.6,1.1h.8Z"/>
    <path class="st158" d="M807.9,270.5c-.3.3-.7.8-1.2.9-.8.2-1.8.7-2.2,1.5-.2-.4-.4-.9-.5-1.4l4-1.1Z"/>
    <path class="st139" d="M702.1,24.5c-.1.9-.6.9-1.1,1.4-1.4.6.7-2.7.8-3,.4.7.1,1.2.3,1.6Z"/>
    <path class="st45" d="M470.1,313.6c-.6,0-1.9.3-2-.5l1.9-.5c.2.5,0,.8,0,1.1Z"/>
    <path class="st157" d="M827.3,263.1v-1s2.1.8,2.1.8c-.8.4-1.5.3-2.1.2Z"/>
    <path class="st90" d="M838.4,317.5c-.2-.2-.3-.5-.4-.8s-.1-.7.4-.6c.2.3.4.5.5.7.2.6-.1.6-.5.7Z"/>
    <path class="st108" d="M790,271.7c0,.5-.7.3-1,.4,0-.2,0-.5,0-.8s.3-.4.6-.2.3.4.4.5Z"/>
    <path class="st64" d="M786.5,273c-.3.1-.8,0-1.1,0-.2-.3,0-.4.3-.4s.9,0,.8.4Z"/>
    <path class="st32" d="M741.5,42c-1.8-.3-3.6,0-5.7-.4l-4.4-.6c0-.3.5-.6,1-.6l8.5,1.1c.6-.3,1.4.2.6.5Z"/>
    <path class="st153" d="M708.5,41c-2-.2-3.9-.4-5.6-1.6,1.9-.6,4,.6,5.6,1.6Z"/>
    <path class="st99" d="M456.6,222.1c0,1,0,2,0,3v10.6c-.1,0-104.5-2.5-104.5-2.5-23.8-.6-47.1-.5-70.7.6s-4.9.7-7.2-.9c.7-.8,1.3-2.5,2.5-2.8,5.2-1.7,49.2-4.5,57.3-4.7l122.6-3.3Z"/>
    <path class="st99" d="M457.1,268.1c.5,1.1-.3,2.5,0,3.5-51.7-2.7-103.3-3.6-155.3-3-15,.2-29.3-.4-44-1.1-3.1-.2-5.9-.2-8.6-1,.1-.7.4-1.5.9-1.9s1.3-.5,2.2-.5c16.6.1,32.8.2,49.5-.7,34.1-1.7,67.7-2.3,101.8-.5l52.9,2.8c0,1.1.4,1.7.7,2.4Z"/>
    <path class="st76" d="M768.9,94.4c1.4.2,1.4.8,0,1.9-1,1.3-1.9,2.2-3.1,3.1l-2-2.9c1.4-1.8,3.2-2.1,5.1-2.1Z"/>
    <path class="st26" d="M770.9,93.8c.5-.1.7,0,.5.5-.5,1.2-1.8,1.3-2.4,1.9.2-.6.2-1.3,0-1.9.7,0,1.4-.9,1.9-.5Z"/>
    <path class="st14" d="M771.4,94.4c-.1-.2-.3-.4-.5-.5.4-.4.7-.5,1.3-.5s.2.4-.2.8-.5,0-.6.3Z"/>
    <circle class="st54" cx="761.9" cy="103.3" r=".6"/>
    <path class="st98" d="M186.8,146.8c.9.2,1.6,1,2.4,1.4-.6-.2-1.5-.9-2.1.3,5.6,3.2,10.5,6.7,14.4,11.7,1.8,6.9,1.8,13.9.2,21.1-2.7-10.8-3.5-5.2-9.3-11.1s-4.8-2-7-2.4c-.5-.6-1.2-1-1.9-1-2.1-.5-4.5-1.3-6.8-.7-.3-1.4-.1-2.6-.3-3.8.9-.4,2-.4,2.9.1.8,0,1,.4,1.2,1,0-1.2.3-2,.8-2.6h1.1c1.3,1.6,3.2,1.8,5.5.4h1.9c-2.5-3.5-4.9-7.1-7.1-10.8l.3-1.5c-.5-1.6,3.3-4.2,4-2Z"/>
    <path class="st61" d="M181.6,86.4c.5,0,1,.1,1.5.5-1.2,1.2-2.2,2.5-3,4,0,.1,0,.4,0,.5l-.4,1c0,.3-.1.7,0,1l-.4.5c-.3,2-.4,4-.2,6,.7,0,.9.3.7.9-.4,1.6-.5,2.3,0,4.1,1.1,3.2,1.5,6.7,3,10l7.5,16.9c1,2.3,1.6,4.5,1.3,7.2,5.6,3.9,3,11.2,1.9,10.1s-.1-5.7-2.3-7.7c-1.1,2.4-2.8,3.9-4.5,5.5-1.7-.4-2.6,1.5-4,2,0,.5-.3,1-.7,1.3-1.5,1.4-13.2,1.6-13.8-.3s-.4-2.2,1.3-2.3c6.4.5,12.1-1.2,16.2-6.4,2.2-.8,2.7-1.6,3.2-3.8-1.5,0-1.4-.5-.2-1.2l-8.6-18.2c-2.3-5-3.8-10.2-3.3-15.7-.6-3.8-.6-15,4.8-16Z"/>
    <path class="st10" d="M190.7,93.4c.9-.5,2-.5,3,0,.2,0,.4,0,.5,0,2.2-1.3,6.2,1.8,8,3.4s4.5,4.6,3,6.5c.7,2.3.7,4.7,2.4,7.1s-1,.8-1.2.6c-1.4-1.6-1.5-.9-2.4-5-3.9.6-7.8.3-11.8.3s-7.4.4-11.1-1.2c1.5-.6,3.1-.4,4.6-.4l.9-1h4.2c-1-2.5-.8-4.5.6-6,0-.5,1.2-1.5.6-2.1-4.9.2-9,2.8-12.3,6,0,1.1.4,2.4.2,3.2-.8-2.2-1.8-8.8-.5-11,.1,1.8.4,3.6.7,5.2l3.3-3.1c.1,0,.4,0,.5,0,.7-.7,1.5-1.2,2.5-1.5.2,0,.3,0,.5,0l1-.5h.5s1-.5,1-.5h1.5Z"/>
    <path class="st125" d="M205.3,103.3c-1.5-5.1-6-8.3-11-10-.1-.5.6-1.2.2-1.5l-8.3.2c1.4-2,3.4-1.8,5.4-2.2,3.3-.6,7.2-2.2,10.4-.6s3.9,3.4,6.9,3.8,1.3,1,1.2,1.5-.9.5-1.1,1c-1.7,3.1-1.9,7.8-3.8,7.8Z"/>
    <path class="st110" d="M197.1,121.8c.6-.7,1.3-.5,2.1.7v-1.5c1.6.1,3,0,4.5-1.2,3.8,12.6,4,13.1.6,25.1s-2.2,4-4.5,3.6c5.2-17.1,3.2-12.3-2.9-25.7-.1-.4-.5-1.1.1-1Z"/>
    <path class="st110" d="M196.8,118.3c0,.4-.2.5-.5,0l-.6-.5c-.4,1.6-3.3-.7-3-1.9-1-3.2-2.6-5.2-3.1-9h10.1c.9,4.3-.3,8.2-2.9,11.4Z"/>
    <path class="st50" d="M192.7,115.9c1,.2,1.8,1.9,3,1.9l.6.5h.5c.2.4.5.9,1,1.1,1.2.6,3.6-2.6,5.1-2.5.3,2.7-4.2,3.4-3.5,3.9,2.6,3.1,1.7,4.6,1.2,4.2l-3.4-3.3-1.6-1.7c-2.5-2.7-6.2-4.1-8.5-7.3,2.6.5,3.5,2.5,5.6,3.1Z"/>
    <path class="st91" d="M185.7,104.8c1.5-5.6,2-4.6,5.6-7-.3,2.3-.3,4.6,1,6.8-2.5.4-4.5.3-6.5.2Z"/>
    <path class="st99" d="M211.3,88.4c-4-1.7-8-4.6-12.5-5.5-6.8,6.4-5.5-2.1-11,3.4,2.3-5.5,7.2.9,11-4.1,2.8.9,11.3,4.6,12.5,6.2Z"/>
    <path class="st99" d="M183.2,96c-1.1,1.4-2.5,2.6-3.9,4v-6.1c0-.2.1-.3.3-.5.3,1.7,0,3.5.2,5.6,1.4-1,2-2.4,3.4-3Z"/>
    <path class="st100" d="M204.8,162.9c.6.4,1.1-.2,1.5-.6l-.8,4.6c-.7-1.3-.4-2.7-.7-3.9Z"/>
    <path class="st99" d="M187.2,86.3c.2,1.2-3.4,0-4.2.8s-1.6,2.9-2.8,3.7c.4-2.1,3.3-3.5,1.5-4.5v-.5c1.7.8,3.7.6,5.6.4Z"/>
    <path class="st99" d="M210.8,94.9c0-1.5-.6-3.4.5-4.5,0,1.2.3,4.6-.5,4.5Z"/>
    <path class="st99" d="M193.7,93.4c-1,0-2,0-3,0,.6-.9,2.4-.9,3,0Z"/>
    <path class="st99" d="M187.7,93.9c-.2.4-.6.5-1,.5,0-.6.6-.5,1-.5Z"/>
    <path class="st99" d="M186.2,94.5c-.7.7-1.7.9-2.5,1.5.3-1,1.4-1.5,2.5-1.5Z"/>
    <path class="st99" d="M189.2,93.5c-.3,0-.6.4-1,.4,0-.2.1-.5.3-.5.3,0,.5,0,.7,0Z"/>
    <path class="st99" d="M179.7,92.4c0-.4,0-.8.4-1,0,.4,0,1-.4,1Z"/>
    <path class="st61" d="M119.8,18.5c5.9,1.9,11.9,3,18,3.5,9.3.8,22.1.5,31.6-.8s16.6,0,23.8,4.1.5,1.6.2,1.8-.8-.2-1.2-.2c-.2-1-1.4-.7-2.2-.9-2.6.9-5.9-.8-8.4-2.1-3.2-.5-6.4-.2-9.5,0l-10,.9c-5.2.4-10.3.3-15.5.4-7.6,0-22.2-2.3-27.8-6.2-.6-.8-.3-1,.9-.6Z"/>
    <path class="st105" d="M190.1,26.1c.1.6-.3,1.2-.9,1.4-2.8-.5-5.8-1.1-7.5-3.5,2.9.4,5.6,1.3,8.4,2.1Z"/>
    <path class="st99" d="M188.7,136.3c.2,1.3,1.2,4-.5,4.9-1.6.5-2.3,1.1-3.5,2.6-3.9,4.5-10.3,5.2-16.1,4.8.8,1.7,2.7,1.3,4.2,1.5,3.6.5,6.9,0,10-1.3,2.7,5.5,5.4,8.1,9,13.2h-3.5c-1.5.1-2.3,1.4-4,1s-2.4-1.1-3.1-2.3c-.4,1-1.1,1.6-2,1.6-.3.3-.9.6-1.2.6-.7.1-1.2-.4-1.6-.8-.2-1.4-.7-8.5-4.2-7,2.8,3.8,2.2,7.6,2.3,11.8-.9,1.2-3.2.1-4.5.2s-3,.3-4.1-1.1l-2.5,3.3c-4.2-2.5-3.4,0-9.9-.5s-5,1.4-7.5,1c-8.7-1.5-7.9,3.4-12.4,1.5-3.3,2.6-6,5.5-7.8,8.9.2.5-.4.9-.8,1.1-1.2.5,0-.9,1.3-.5,1.1-.9,2-1.9,3.1-3.1,1.8,1.2,2.5,0,3.8-.9,5.9-3.7,12.8-3.3,18.7-.1-3.4-.8-9.1.2-10.4,4.6-2.1.8-4.4,0-6.5.5-3.2.8-6,1.3-9.6,1.4,3.1,4.7,5.6,9.3,9.4,13.3s2.4,4.4,3.7,6.7c-2.2.3-8.6-1.2-9.8-2.8-.3.7-.4,1.1-.8,1.4-.8-1-1-1.8-.5-2.4-1.2-1.3-2.2-2.7-2.9-4-.1.3-.3.3-.5,0-2.5-3.2-5-6.4-7.5-9.6-.8-.2-1.4-.6-1.9-1.3-2-3.4-3.9-6.9-5.3-10.5.3.5.4.8-.2.9-.5-1.1-2.6-2.1-2-3.9s1.7-2.8,2.9-3.7c2.9,1.4,4.8,3.7,7,5.8,1-1,.4-2.6,1.5-3.2l.8.9c-.4,1.2-.4,2.4,0,3.6.3-7.8,7.1-15.6,14.7-17l.8.9c4.9-5.9,10.8-9.3,17.7-10.2-.8-.4-.6-.8.6-1.1-.3-.1-.2-.3,0-.5-3.4.1-5.5-2.1-6.6-5.2s-1.2-3.3.4-3.8c1,.5,1.5,1.6,2.9,1.8,5.4-2.7,11.2-4.2,17-2.2s3.3,3.8,5.2,4.8c3.5,0,6.9-.4,10.4-.2,1.4-.2,8.4-3.3,6.5-5.3Z"/>
    <path class="st99" d="M197.2,179.2c.3-.9.5-1.3,1.1-.4.6,1.4.7,3,1,4.6s-.2,1,0,1.6.4.5.8.5c.1.5.2,1.1,0,1.9-1.5,5.2-2.8,10.3-4.1,16-2.4,10.8-10.1,19.8-19.9,24.3s-9.6,1.9-14.6.6-12.3,3-23.2-.4-6.4-2.5-9.7-3.7c-10-3.8-11.8-5.9-20.3-11.1.4-.4,1.1-.8,1.9-.4,7,3.6,14.1,6.5,21.4,9.6s7,2.6,10.9,3.6c13.2,3.2,13.8-5.1,23.9-3.5s2.3,1.5,3.8,1.6c9-6.2,9.1-16.2,10.7-26.6-8.1.6-15.3-.2-22.8-2.1s-6.9-1.4-9.2-4c-.1-1.4,1.5-3.3,2.9-3.7.6-.3,1-.2,1,.5,6.5,2,11.9,2.6,18.8,1.9s8.1-1.5,11.2-3c1.1-1.1,3.8-1.4,4.1-3.3.5-2.9-1.9-5.4-4.1-6.7,1.5-.7,2.9-2.8,4.6-3.2,3.6-.8,6.2,1.5,7,4.7.3.9,2.1.9,2.9,1Z"/>
    <path class="st67" d="M125.6,180.3c.1.2.3.4.5.5-.9.7-4.9,5.5-7.3,4s-1.1-5.6-.2-7.3c.3,1.9.5,3.5,2.3,3.9.9-.6,1.5-1.6,2.6-1.7.7.6,1.5,1.1,2,.6Z"/>
    <path class="st132" d="M198.3,178.8c-.3,0-.8.5-1.1.4v-3c1.6.4.7,1.7,1.1,2.5Z"/>
    <path class="st106" d="M185.2,167.8c-.7-.1-1.4-.5-1.9-1,.3-.1.8-.4,1.1-.3.6.2.7.8.8,1.3Z"/>
    <path class="st85" d="M171.2,170c-.2.4-1.9.5-1.9-.2,0-1,1.6-.7,1.9.2Z"/>
    <circle class="st117" cx="176.2" cy="169" r=".3"/>
    <path class="st86" d="M200.2,187.2c-.7-.3-.5-1.4,0-1.9.8,0,.8.4.5.9s-.3.6-.4,1Z"/>
    <path class="st109" d="M182.9,230.6c0,.1,0,.4,0,.5-.3,0-.6,0-.6-.3,0-.5-.1-1.3.3-1.1.4.2,0,.8.3.9Z"/>
    <path class="st6" d="M201.7,185.7c.2-.4.3-.5.3-.5s0,.2-.3.5Z"/>
    <path class="st99" d="M160.7,67.9c1.5,2-1.5,4.7-3,6.2.7-.4,1.2-.6,1.9,0l3.1,6.9c-4.2,4.9-3.2,12.4-5.8,18.6l-2,1.7,1.9,4.9c-3.1-.3-6.2-.8-8.5-2.6-.8-.5-1.6-1.2-2.2-2.1-.8.8-1.6.2-2.5-1.9-.4-.3-.7-.6-.9-1.1-.5-.8-.1-1.9,1-2.1,1.7-.3,1.6-.9,0-1.9v-1.2c-1.8-1.3-1.9-3.7-1.5-5.9l-.4-1.1c-.1.8-.5.8-.6,0,0-.7-.5-1.3-1.1-1.5-2.5-.9-25.7,8.7-29.9,10.6s-4,1.3-4.9-.4c1-2.9,3.4-5,5.4-6.9l.6-.2c0-.4.7-.6,1.1-.5,2.6-2.8,6.3-3.9,10-4.7,4.6-2.9,9.4-4.4,14.9-4l5.4-2c5.4,1.5,13.3-.9,12.4-7.8l.7-.9c1,.4,1.9-.6,2.7-1.6,1.2,0,1.4,1.2,2.3,1.5Z"/>
    <path class="st62" d="M39.8,90.1c0-1.3,1.1-.7,1.5.2,1.8.5,3.8.4,5.8,1.3,9.3,4.1,9.5,14.8,6.9,23-2.6,1.5.8-5.5-1.7-14.3s-4.4-6.6-8.6-7.4-6.6-1.5-9.5.3c-4.7,2.9-4.9,17.1-4.9,22.1s.9,9.8,2.4,14.6,1.8,3.7,2.8,5.6l6,12c2.4,4.9,7.3,8.2,12.7,8.8,1-1.6,1-3.1,1.9-4.9,1.5.8,1.5,2.7,1.8,4.2.9,5.7,2.5,10.9,4.2,16.3l3.4,10.6c0,.8-.2,2-1.4,2-4.1-8.3-6.8-17.2-8.1-26.3-3.7,2.1-12.2-4.1-13.6-5.7-2.6-3-4.3-6.9-6.1-10.6l-4.1-8.1c-4.7-9.4-4.1-14.6-4.2-24.7s1.7-14.3,5.7-17.3,4.9-1.5,7.2-1.9Z"/>
    <path class="st99" d="M155.1,67.5c.2,2.3-.5,6.6-3.7,5.9-1.6,1.8-3.6,3.9-5.7,1.8-5.7,1.9-11.6,3.1-17.7,3.6-5.6,2.4-11,5.3-16.2,8.4,0,.5-.4.4-.7,0-.5-.1-2-.3-2.2-1,.3-5.4,15.5-14,20.1-16,8-3.5,12.8-1.3,17.3-2.3s2.5.2,3.7.6,4.4-3.1,5-1.1Z"/>
    <path class="st99" d="M49.8,113.8c.2,2.5.4,5,.6,7.4l.4-.4c-.4-.8-.3-1.8.5-1-.2,1.3,0,1.9-.6,3.1-.8,1.1-1.6,1.6-2.4,1.5l-1-.6c-.1-2.9-1.7-2.5-4.8,1.3l-1.2-.3c-2.2,0-1.9-4.5-1-6.1,1.2-2.3,8.1-4.3,7.7-4.2s-.8.3-1-.2c0-4.1-3-8-6.3-10.7l-3.8,6.7c-.6,1.1-2.1,1.3-3,1.9l-.9-1.2c.7-6.2.7-6.6,0-1.3,0,3-.3,5.8-.9,8.5h-.7c0,.1-.3-12.8-.3-12.8,0-3,1-7.4,3.6-9l7.8,2.1c5.9,2.7,7.2,8.1,8.1,14.1l-.8,1.1Z"/>
    <path class="st99" d="M123.4,118.8c3,1.3,3.9,1.3,3,0l3.5-1.1,2.6-3.3,15-8c1.4,2.3,2.2,4.2,3.1,6.3-3.2,4.4-8.2,6.6-12.8,9.5s-2.6,2.5-5.1,2.6c-4,.2-8.2-.3-11.9-2,1-1.6,1.6-2.9,2.5-4.1Z"/>
    <path class="st10" d="M140.3,92.4c.8-1.6,2.9-.7,3.4.9,1.2.9,2.5,1.9,3.4,3.4-1.1.4-2.4.2-3.3-.3l-.9.5c0,1.2-.4,2.1-1,2.9,1.2,1.2-.2,3.1-1.6,2.1-2.4,0-1-3.3.1-4-.7-.6-1.1-1.4-1.3-2.4-.8-.4-1.2.1-1.3,1.4,4.1,1.4-.2,6.8-3.1,4.4-1.8-3.8-1.9-3.5-.4.9,0,1.9-1.1,2.6-2.2,1.4-2.2.1-3.4-6-1.1-6.5-.2-.9-.2-1.5-.1-2.1-5.2.8-10,3.8-14,7.2,1.6,0,2.5.3,2.6,1.3,1.7-.9,5.2-.8,6.5.6h7.2c1.8-1,5.1-2,7.2-1.1.5-1.3,1.7-1.1,2.9-.9-.7-.9-.8-1.7-.3-2.5-.5-.3-.5-.6,0-.9,1.6-.4,1.9,2.1,3.4,2.9l2.2,2.5c0,.5,0,1-.4,1.2s-1.4.6-1.8.3c-2.8-1.6-5.7-.6-8.6,0-6.9,1.4-17.6.5-24.3-1.5-.9.5-1.1.2-.5-.6,3.4-5,9-8.4,14.5-10.9l4.5-1.5c2.4-.4,7.4-.7,8.6,1.5Z"/>
    <path class="st10" d="M146.7,137.4c-.3,3,1.3,5.7,3.7,7.8s2.5,0,2.5,1.2l-.6.5c-.6.6-1.7.3-2.5,0-.1.4-.3.4-.5,0-1.4.3-2.6-.5-3.7-2.2l-1.7-2.7c-2.9,2.3-5.8,4.4-8.9,6.4-1.9,2.9-3.9,5.7-5.9,8.4h-.8c0,.6-.4,1.2-1.5,1.7-1.1,1.1-2.3,2.1-3.5,3l-1.6,1c-2.1,3.7-9,.6-11.8-1.4s-5.1-5.5,0-3.9c2.9,1,5.9,1.9,8.9,2.7,3.5-.7,6.5-2.8,8.9-6.4.8-1.5,2.3-2.8,3-4.6,2-5.7,8.7-4.3,14.6-14.2s3.4-6.4,7-8c-1.7,4.4-5.1,6.2-5.6,10.9Z"/>
    <path class="st10" d="M155.8,68c.7,2.1.3,4.4-.8,6.2s-3.2,2.4-5.2,3.3-3.4.9-5.7.2-4.9,2.1-7.3,2c-4.4-.2-8.4.4-12.2,2.9s-4.3,1.6-6.6,2.1-3.7,2.3-5.6,2.6l-.5-.2c2.2-3.2,8.9-5.8,12.3-7.8s7.8-2.4,12.1-2.5,9.3-3.1,9.9-2.8.9,1.2,1.3,1.1c2-.5,2.9-2.5,4.4-3.6,1.6,3.7,1.7-3.5,3.2-4.1.2.2.4.4.6.6Z"/>
    <path class="st51" d="M72.2,72.2c.6,2.2,1.8,20.6.5,24.1-.2.7-1.9-.3-2.3-.4-.3-.5-.5-.5-.5,0,.4,1.7-1.1,2.9-1.5,4.4-.9,4.1-1.5,8-3.1,11.8s-1.1,1.4-2.2,2.1c-3.6,2.1-3.6,8.1-6.1,5s0-1.5-.2-1.9c1.4-2.8,4.4-4.6,6-7.4,2.4-4.3,3.8-9.4,4.7-14.2s1-3.4,3-4l.7-17.7c0-.8.1-2,.9-1.7Z"/>
    <path class="st98" d="M78.3,62.4l-1-.7c-4.7,1.6-10,1.4-14.3-1s-4.6-2.7-3.9-4.7c.8.1,1.3-.8,1.5-1.5l1-.5c3,1.9,6.7,4,10.2,4.9l-.8-.4v-1.1c1.4-.7,2.4-2.1,3.5-3.3-1.1-.8-2-1.3-2.5-2.2l1.1-.6c2.9,1.2,6.2.7,8.8-1.1l1.2.3,1.4,3.2c-2.4,2.1-5.1,2.9-8,4l6.6,1.4c-.5,2.9-3,2.6-4.6,3.3Z"/>
    <path class="st51" d="M149.8,147.3c.8-.5,2.4-.5,2.5.5-.1.7-.8.7-1.5.8-12.2,2.8-15.8,14.1-17.3,9.3-3.2.7-5.9,3.2-8.4,5.6-5.8,5.4-4.1,11.1-5.5,11.6s-1.3.4-1.4,0c-.5-1.8-.3-3.7.2-5.4l.9-2.9.5-.6c0-.2,0-.3,0-.5-.4-1.4.5-2.5,2.5-3.4,0-.5.6-.8,1.1-.6,1-1.5,2.3-2.8,4-3.5.1-.6.9-1.1,1.5-1v-.7c2.3-1.2,4.6-2.2,7.1-3.2,3.4-2.9,7.1-5.1,11.2-6.6l1.6.6c.2-.5.8-.5,1.1,0Z"/>
    <path class="st51" d="M72.3,49c1.6-.2,3.2-.2,5,0,2.7-1,6.3-2.8,5.4-6.1.4-1,.9-1.6,1.7-2h.7c1.7-.4,1.9.3.5,2.1.7,1.7,3.7,2.9,2.9,4.4s-1.6.4-2.2.3c-1.9-.2-2.3,2.1-3.3,2.9-3,2.6-7.5,3.2-11.1,1.4s-9.5-6.5-10.4-12.6c3.1,4.5,6.4,7.8,10.9,9.7Z"/>
    <path class="st17" d="M188.7,136.3c-3.8-4.2-6-9.5-8.9-14.6s-5.1-9.1-4-14.3,1.3-3.3,1.1-5c.8,5.1,1.9,10.4,4.2,15.3l6.7,14.2c.7,1.5.8,3.1,1,4.4Z"/>
    <path class="st99" d="M110.4,156.8c0,.3-.2.3-.5.2-.6-.2-2-.1-2.1.8,3.3,3.4,9.6,6.6,13.9,4.4h.5c-.6,1.3-1.5,2.4-2.5,3.4-4.7-.2-13.2,0-15.4-6s.5-4,1.4-4.6c1.7-.3,3.6,1.3,4.8,1.7Z"/>
    <path class="st20" d="M51.3,119.8c-.5-.1-.4.7-.5,1h-.6c0-2.3-.2-4.6-.5-7-.5-3.2-.9-6.7-2.6-9.8-4-7.3-12.4-4.4-12.5-7.6,5.7-2.2,12.3,1.6,15,7.1s2.3,10.8,1.6,16.2Z"/>
    <path class="st67" d="M33.9,112.3c-.5,5-.4,9.5.4,14.1s6.2,7,9.1,12.4c.6.7.4,1-.5.5l-7-6.4c-2.1-1.9-3.3-4.1-3.6-6.9l-.8-7.6c.7-1.5-.3-17.1,3.7-15-.8,3-1,6.1-1.3,9Z"/>
    <path class="st127" d="M112.2,23c-1.8,7.1-6.8,13.2-14,14.9-.4.4-.7.6-1.1.6-3.2,2.3-8.7,1.1-4.6-2.8,10-1.5,17.6-7.7,18-18.3.4-.6.7-.9,1.2-.4.8,1.9.4,4,.4,6Z"/>
    <path class="st67" d="M41.3,124.8c1,0,1.7.8,2.2,2.1l.9,1c2.2.8,3.1,1.7,2.8,2.9.5-.2.8.2,1.1,1,.5.5.9,1.3,1,2,.3,0,.4.4.5,1,.4.2.6.7.5,1.5,1.3.2,2.3,1.7,1.4,3-3.8.9-3.1-6-5.5-6.9-5.4-2-8.8-7.5-7.1-13.3s4.4-3.6,7.7-4.8,1.4-.5,1.7.3l-6.2,3.3c-2.3,1.3-1.9,4.8-1.1,6.9Z"/>
    <path class="st148" d="M59,56c4.2,5.6,12.2,7.2,18.9,4.4.7.5.4,1.4.4,2-1.9.7-3.7,2-5.9,1.9-1,1.6-4.3.8-6,.2s-3.3-1.4-4.6-3.2c-3.3-2.2-6.4-5.8-6.1-10.2,1.2,1.8,2.2,3.3,3.3,4.8Z"/>
    <path class="st67" d="M182.8,186.7c1.2,2-5.5,2.8-8.1,3.4-7.5,1.8-15.2.9-21.9-2.3-.4-.7-.2-.9.5-.6,6.2,2,12.6,2.7,19.1,1.3l8.2-1.8c.8-.2,1.5-.2,2.1,0Z"/>
    <path class="st147" d="M116.3,185.6c2.6,3.2,5.1,6.6,7.5,10.1,1.3.8,2.4,2,3.4,3.5.2.8.9,1.5.5,2.4-8.8-6.3-14.3-16.9-18.8-26.9,0-.4-.4-1.1.5-1.4,2,4.4,4.3,8.4,6.9,12.2Z"/>
    <path class="st137" d="M109.9,157l.5-.2c9.6.7,8.4,3.3,17.3-3.5-1.5,2.9-3.7,6.6-7.5,7.3s-7.4-1.8-10.3-3.6Z"/>
    <path class="st67" d="M123.4,118.8c1-.2,2,0,3,0,1.5.2,3.2.7,4.7-.2,2.5-1.4,9.5-7.1,9.9-5.7s-6.8,6.5-8.6,7.4c-2.8,1.5-9.1,0-9.1-1.7Z"/>
    <path class="st99" d="M140.8,87.8c.1-.3.3-.6.4-.6,1.9.2.4,4.4-1,5.1-4.3-1.2-8.7-.6-13,0,3.8-3,8.8-4.1,13.6-4.6Z"/>
    <path class="st98" d="M72.4,64.3c0,1.4-.7,2.7-1.1,4.1-.2,0-.6.8-.9.8-3.7-1.6-7-4.2-8.7-7.8,3.1,2.1,7,2.9,10.6,2.9Z"/>
    <path class="st27" d="M50.7,122.9c-4.6,8.6,7.7,14.9,2,14.9-1,0-2.1-1.5-1.8-2.5-.5.3-.8,0-1.1-1-.3-.1-.2-.3,0-.5-.7-.6-1.2-1.4-1.5-2.5-.5-.1-.8-.6-.4-1-1.9-.5-1.7-6,.4-5.9.4-.9,1.5-1.6,2.4-1.5Z"/>
    <path class="st0" d="M95.2,42.9c.2.2,0,.4-.5.6-6.5,2.3-8-3.5-9.3-.5-.2-.6.2-1.6-.5-2,0-.1,0-.4,0-.5.2-3.1,3.5-1.3,5.3-.1l3,.5.3.7c1.1,0,2.5.3,1.5,1.3Z"/>
    <path class="st74" d="M110.7,105.5c.5,0,.5.5,0,1.3-2.5,3.8-10.7,3.3-12.6,1,3.7,0,6.9,1,9.8-.9s1.8-1.5,2.8-1.5Z"/>
    <path class="st140" d="M159.6,74c-.8.8-2.6,1.6-3.7,1.1-.3-1.8,4-2.9,4.8-7.2,2.4-.8,1,4-1.1,6.1Z"/>
    <path class="st84" d="M142.1,87.4c.7,1.9,1.3,3.9,1.6,5.9-.8-.6-2.4-.7-3.4-.9-1.6-1.3,3.3-4.1.6-4.6.3-.5,0-1.1.3-1.5s.4,0,.6,0l.4,1.1Z"/>
    <path class="st111" d="M108,105.2c-2.9,1.1-6.1.5-9-1,3-.4,5.7-.2,9,1Z"/>
    <path class="st2" d="M98.3,37.9c-1.5,1.4,0,4.2-1.5,5.3s-1.4,0-2.1.3l.5-.6c.7-1,0-1.4-2.1-1.4l-.4-.6c1-1.1,2.4-1.9,4.4-2.4.2-.4.7-.5,1.1-.6Z"/>
    <path class="st8" d="M52.7,137.8c-.5.4-.3,1.2-1,1.5.1-2.1-.2-.7-1.4-3-.3-.9-.4-1.6.6-1,.5.9,1.4,1.5,1.8,2.5Z"/>
    <path class="st152" d="M113.3,103.9c-.8,1-1.9,1.8-2.6,2.9v-1.3c.7-.6,1.6-1.4,2.1-2.2.2.2.3.6.5.6Z"/>
    <path class="st145" d="M148.4,103.4v.5c-1-.6-2-1.4-2.2-2.5,1.2.1,1.5,1.5,2.2,2.1Z"/>
    <path class="st126" d="M119.8,18.5c-.4,0-.7.2-.9.6-.5-.3-1.1-.5-1-1.2.7-.4,1.3.4,1.9.6Z"/>
    <path class="st95" d="M42.8,139.2c.2-.1.4-.3.5-.5.4.8,1.4,1,.9,2.1-.8-.3-.9-1.1-1.4-1.6Z"/>
    <path class="st72" d="M153.3,187.1c-.2.2-.4.4-.5.6-.3-.2-.7-.3-1-.5.2,0,.4-.6.8-.6s.5.4.8.5Z"/>
    <path class="st118" d="M70.3,95.9h-.5c0-.2,0-.5,0-.8s.5-.4.5,0v.8Z"/>
    <path class="st29" d="M111.3,87.9c0,.3-.5.7-.6.2.2-.2.2-.6.5-.8.6-.1.6.2,0,.6Z"/>
    <path class="st99" d="M119.3,166.8c0-.2.1-.8.5-.6,0,.2-.2.8-.5.6Z"/>
    <path class="st10" d="M151.4,308.8c-.5,1.3-2.1.6-2.8,0-3.9-7.8-8.9-14.6-15.7-20.4l-32.5-3.5c-.5,0-1-.4-1-.9l30.4,1.6c3.3.2,5.7.6,8,3,5.7,5.7,10.7,12.1,13.6,20.2Z"/>
    <path class="st133" d="M39.3,259.4c.1-.3.2,0,.4,0,.4.3.9.5,1.2,1-1.2.7-1.2-1-1.6-1.1Z"/>
    <path class="st148" d="M170.1,309.3c-.7.2-.9-.9-.7-1.8.4-8.6,2-16.8,4.4-24.9s4.8-7.3,7.3-5.8c-.4,2.2-2.9,2.9-3.7,4.7-4.2,8.6-5.8,17.9-7.3,27.7Z"/>
    <path class="st61" d="M33.9,66.4c-5.7,13.7-10.8,27.3-11,42.3,0,.6.4.8.9.4,0-.1,0-.3,0-.4.3-.1.6.1.6.6-.4,11.5-1.7,22.6,1.6,34.2s9,13.8,5.7,14.7c-2.8-4.6-6.3-8.8-8-14-2.7-8.8-2.6-18-1.7-27-.1-1-1.3-1.6-1.3-2.6-.2-9.7.7-19.2,3.9-28.3s4.9-14.7,8.9-21.2c1.2-1.3,1-.2.4,1Z"/>
    <path class="st51" d="M60.7,14.4c.2.2.4.5.2.6-2.5,3.3-5.6,2.6-12.8,14.1s-7,13.5-8.3,18.3c-.7.6-.7.4-.6-.5,1.1-7.6,4.7-14.3,8.5-21-.2-.5,0-1.1.5-1.2.9-2.1,10.3-12.1,12.4-10.4Z"/>
    <path class="st127" d="M38.3,53c-.4,8-2.3,20.3,3.5,27.4s5.8,5.1,9.1,6.9c.2.5,0,.7-.6.6-8.8-3-13.8-9.1-14.4-18.5-.4-2.1-.5-4.3-.2-6.4-.5,0-.5-.2,0-.4l1-8.5c0-.5.3-.9.6-1.1.4-.3.8-.1,1.2,0Z"/>
    <path class="st127" d="M32.8,148.7c.8,0,1.9,2.1,2.5,3.1s0,.2,0,.4c.3,1,1.2,2.1,0,3.3-5.5-6.8-11.8-17-8.7-26,.6,7.1,2.1,13.6,6.3,19.1Z"/>
    <path class="st129" d="M35.7,151.8c-1.3-.4-2.3-2.8-2.4-4.1,0-.7-.4-1.5.4-2.3,1.4,2.4,2.5,4.6,4.8,6.3s.6,1.9-.1,1.8c-1.1-.1-2.1-1.1-2.6-1.7Z"/>
    <path class="st15" d="M35.7,151.8l-.4.4c-1.3-1-1.6-2.5-2.5-3.5.3-.2.5-.6.5-1,1,1.2,1.3,2.9,2.4,4.1Z"/>
    <path class="st33" d="M35.6,62.6c0,.1,0,.3,0,.4,0,1-.3,1.7-.8,2-.2.5-.4,1.1-.9,1.5,0-.2,0-.5,0-.8s0-.5-.4-.3c.6-1,.5-2.8,2.1-2.8Z"/>
    <path class="st121" d="M39.9,47.4c-.2.6,0,2.3-1.2,1.9-.4-.9.4-1.6.5-2.4.2.2.4.3.6.5Z"/>
    <path class="st90" d="M48.3,24.8c-.1.4-.3.8-.5,1.2-.3-.2-.4-.6-.2-1s.4-.5.8-.2Z"/>
    <path class="st98" d="M111.8,17c-.1,0-.5.2-.5.6.2,7.3-4.1,13.8-10.7,16.8s-8.7,1.5-8.5,3.6,3.5.3,5.1.6c-.6,1.3-2.2,1.5-3.5,2.4s2.3,0,2.1,1.3,0,.7-.6.7c.7-2.2-3.4.2-6.8-2.5s-2.4-.7-3.4,0c.6-.6-.9-1.7-.5-2.3,1.2-2,3.2-4.1,5.1-5.3s3.5,0,4.7-1.4c3.1-3.2,8-8.8,11.8-9.6.8-.8,4.3-6.6,5.5-5.5s0,.4,0,.6Z"/>
    <path class="st98" d="M84.3,40.9c0,3.2-1.7,1-.2,4.7-4.5,3.3-5.5,5.9-11.8,3.3,1.6-.7,3-2.1,3.7-3.9,6.6-7,4.7-4.2,8.3-4.1Z"/>
    <path class="st20" d="M48.9,47.9c-.8,7,1.2,13.8,6.5,18.8s4.2,4.2,6.9,5.7,1.3,1.9.4,2.3c-11.6-6.4-17.6-15-14.4-28.3.8-.6,1,.8.6,1.5Z"/>
    <path class="st77" d="M70.8,57.4c1.4.9,2.9.9,4.2,1.9-.9,3.5-13.4-3.7-14.6-4.8-3.1-3-4.8-7.3-4.8-11.2,4,8.9,6.1,11.1,15.2,14Z"/>
    <path class="st155" d="M42.3,65.9c3.4,6.1,7.5,12.4,14.1,15.4-1.6.9-2.9-.1-4.1-.9-4.8-3.2-8.3-7.8-10.9-12.9s-.1-.9,0-1.1.3-.4,1-.3Z"/>
    <path class="st77" d="M60.3,33.7c-4,.1.5-15.6,3.6-14.6s.2,1,0,1.4c-1.8,4.3-3.7,8.5-3.7,13.2Z"/>
    <path class="st101" d="M52.4,72.3c-1.6-1.1,12.1,8.3,5.4,5.6s-12.3-7-9.9-11c1.3,2.3,2.4,4.1,4.5,5.4Z"/>
    <path class="st142" d="M41.3,90.3c-.4-.1-1.1-.3-1.5-.2-3.8-2.4-5-9.6-4.1-10.7s.8-.5,1.2-.3c.8,2.9.8,6.4,2.9,8.9s1.8,1.2,1.6,2.3Z"/>
    <path class="st57" d="M23.8,109.2c-.6,1.7-.5,3.4-1.2,5.1-.2-2.1-.6-4.1.3-5.6,0,.2.1.4.3.4.3,0,.5,0,.6,0Z"/>
    <path class="st98" d="M35.8,69.4c-1.2-1,.2-3.3-1.1-4.4,0-.5.4-1.8.8-2,.5,2.1.1,4.3.2,6.4Z"/>
    <path class="st41" d="M50.3,87.9c.2-.2.4-.3.6-.6.5.3,1.3.1,1.5.9-1,.6-1.5-.2-2.1-.4Z"/>
    <path class="st41" d="M48.9,47.9c0-.5,0-1.2-.6-1.5.2-1,1.3-.5,1,.4,0,.6,0,1.2-.4,1.1Z"/>
    <path class="st125" d="M607,115.4l6,.5c.1,1.7-.9,2.9-1,4.4.5,0,.5.2,0,.4-.7,1.4,1.9-.1,2.8.4,1.4.9,1.2,4.8,2.1,2.1-.4-.6-.1-.8.5-.4.7,0,1.3.2,1.4.8l.2,1.7h.9c.8-.4,1.6-.4,2.5-.4,1,0,1,.5,0,.8l-.5.6.6.3c-.4,1-.4,1.9,0,2.7,1.7.2,6,1,5,3.5l.6.3c-1.1,3-1.7,6.1-1.7,9.2l.6.5c.1-.5.3-.5.6,0,4.7.3,0,3.7,2.9,7.6h.7c.5,4,1.9,7.4,4,10.3l.3,1.1c.5,1.2.5,2.7,1.5,3.5h.7c.4,2.9,1.2,5.5,2.5,7.8,1.8-.8,3.2.3,4.3,3.3l1.1.9c1.2.2,1,1.6,1.9,2.1l.7.4c1,7,2.7,7.4,5,1.4l1.3-.3c1.1-1.4,2-1.4,2.5,0h.7c2.7-4.9,6.6-7,12-5.2,15,5.1,1.3,25.4-6.3,31.7s-13.6,8.2-18,4.5-.6-3.7.7-4.4c0-.6.1-1.1-.5-1.1-.6,3.8-2.2,7.4-4.8,10.7l-1.8,3.4.7.4c.6-.5,1.3-.8,2.2-1,2.5-2.9,6-3.7,6.3,1,.6-1.8,2.8-1.2,3.5.4s.2,7.9,0,8.8l-1,.7c.3,1,.2,1.8-.2,2.4,0,.7-.5,1.4-.6.5.2,3.6-1.3,7-3.4,9.8-9.5,12.9-18.4,17.3-33.7,21.2-8.7,2.2-14.4,2.9-22.5-2-2.8-1.7-9.5-11.1-10.3-14.2s0-2.6,1.5-3.2c-.6-2.4-1.4-3.5-3.9-3.6-8.1,1.5-15.7.6-22.7-2.6v-2.7c-1.8-3.3-2-6.4-.5-9.2,3.8.5,7.7.6,11.6,0-.5-.7-.7-1.2.2-1.9l-1.1-.6c-2.4.9-10.6,2.3-12-.3s0-.4,0-.6c-1.9-.4-1.6-3.5.1-4l1.3-.9c5.1.6,9.9-1,14.5-3.1l1.5.4,8.7-1.8,2.4,1.7c4.4,2,6,1.3,4.9-2-1.8.2-1.9-2.8,0-2.4.7-.3,1.1-1,1.3-2,2,.4,2.1-.6.5-2.9l-3-3.4.2-1.2c-1.1-.7,0-.7,1-.5.8-.8,1.9-.7,3.1.3,1.5,1.1,2.8,2.4,3.9,3.9,1.9,1,3.4,1.4,4-.7-1.5-3.6-3.6-5.5-7.5-6.7-6.8-.7-11.2-3.3-14.5-9.2-.8,1.8-1.7.3-2.3-1l-1.7-1.1-.6.6c1.3,1.1,1.5,2.1.7,2.9-.4,6.2-7.8,3.3-11.1.6l-1.2-.4c-3.8,1.2-13.8,3.9-13.7-2.2-.5-.5-.5-1-.1-1.6,4.2-5.6,8-11.3,11.5-17.3,0-1.4.5-2.5,1.1-3.1-1.9-3.1-3.7-6.2-5.6-9.3-.2-.9,0-1.4.5-1.7,1-2.2-1.7-4.6-3.7-5.7,2.3-6.3,5-12.4,8.3-18.3.7-1.9,1.9-3.2,3.5-3.8,0-.4.2-.4.5,0,1.7-.5,3.2.2,4.2,2.2l1.4-.7c-.1-1.5,3.1-2.3,4.4-2-.6-.8-.2-1.1.6-.4-.1-.6.6-.6,1.1-.6.5-1,1.5-1.3,3.1-.8l2.4-.3c0-1.1,1.1-1.6,3.2-1.5,1.5-.6,2.9-1.6,4-3.1.8-1,1.5-1.1,2.2-.3l3-1c.4-.6.9-.9,1.6-.3.9-1.2,3.7-2.4,4.4-.9,1.9-.2,3.7-.3,5.4-.5.8-1.2,3.2-3.3,4.5-2.3Z"/>
    <path d="M544.1,211.6l1.3.5c3.4,5.7,5.7,12.1,5.5,18.8,2.2,13.7,17.8,14.5,28.8,12.5,1.9.7,2,3.2-.1,3.2l-1,.5c-.1.4-.3.4-.5,0-.6.3-1.2.5-2,.5,0,1.4-.4,1.3-1,0-2.1.5-4.4.5-6.5,0-.2.4-.3.4-.5,0,.3,1.4.3,2.7,0,4.1,1.4.5,1.1.8,0,1.5-.3,2.4-.2,5.8,0,7.5.4.1.4.3,0,.5l1.5,2c1.3-.5,1.4-.2,1,1,2.5,2,5.3,3.5,8.5,4.5.1-.4.3-.4.5,0l1.5.5c0-.4.2-.4.5,0l2,.4c.1-1.3.7-1.3,1,0,1.1,0,2.1.2,3,.4.1-.4.7-.3,1,0,0-.4.3-.4.5,0,22.4-.4,47.4-7.2,63-24.5-.4-.2-.4-.3,0-.5.6-1.2,1.3-2.4,1.9-3.5-.8-1.3-.4-1.5.9-1,0,.5.8.8.4,1.7-1.2,3.3-3.1,5.9-5.3,8.2s-6,5.8-9.9,8.2c-15.7,9.5-34,14.4-52.5,13.4-9-.5-22.9-3.8-21.9-15.2-.2,2.3.2-11.6-.8-9.2-8.5,4.5-10.7,16.1-4.5,23.5-2.5,2.8-5.2-3.6-6-6.3-1.7,3.8-4.6,6.2-8.3,8.1-10.1,5.4-20.3,9.5-31.4,12.5s-31.1,13.6-39.6,25.9-1.7,1.3-2.4.6c3.8-9.3,22.3-22.2,30.5-24.9l16.4-5.5c3.1-1.4,6.3-2.4,9.5-3.1,3.8-1.3,7.5-2.9,10.9-4.8.2-.6.9-.9,1.5-.6,2.1-.9,4.3-1.7,6.5-3.2,11.5-7.7,1.2-13.9,15.6-23.3-7.8-1.2-14.1-5.4-15.4-13.5.3-5.8-1.1-11.2-3.7-16.3s-1.4-3.5-1.4-5.1c-.3-1.5.6-1.6,1-.2Z"/>
    <path class="st10" d="M667,173.7c1.4-.1,2.2,0,2.5.6,4.3,1.5,8,4.9,8,9.8s-1.4,6.2-2.5,9.1c.3.5-.1,1.1-.6,1.4-7.6,14.6-17.6,17.5-17.7,17.9s0,.6,0,1.1c-.4,2.7-3.6,4.6-4.1,7s.1,6.3.5,9.1c1,.2,2,.6,3,1.1,7.2,2.1,12.3,8.5,12,16.2,2,1,3.3,2.3,4.5,3.8-.3.4-1,.2-1.8-.7-.5-.8-1.7-1.3-2.5-2-.9,1.6-1.1,5.6-2.5,5.9s-1.6.3-2-.3c2-4.3,2.7-9.3.7-13.9s-6.4-7.7-11.3-8.4c.2,3.5,1.3,6.3,1.8,9.2-.2.3-.7.6-.9,1l-1.4-1.1c-1.5-3-2.2-6.3-2-9.9v-9.3c0-.9-2.1-.6-2.5-.6-.9-1.8-1.1-3.5-.7-5.1l1.2-.4c1.4-1.8,3.4,1.2,1.1,1.9.7.5,1.3.5,2,.5-.8-1.4,0-2.1,1.4-1.9-.3-.8-.9-1.5-2-2-.9,1.6-1.9,1-3.1,0-.4.9-1.4.9-3,.2-1.3,2.6-2.9,4.9-4.7,6.9h-.6c-5.1,3.1,2.5-8,3.1-8.9,1.2-1.9,1.5-4.1,2.7-5.6,1-1,.9,0,.5,1.1,0,1-1.4,3.4,0,3.9,3.8,1.5,8.7.4,12.3-1.7,8.4-4.9,14.2-13.1,16.8-22.3s-2.3-10.3-7.5-11.1-6.8,2.5-10.2,5.5c-.3-.3-.3-.6-.4-.8-1.3-1,.4-4,2-3.5,1.1-1.2,2.6-2.2,4-2.9.1-.5.3-.5.5,0l1.5-.5c0-.9,1.7-.8,2,0Z"/>
    <path class="st62" d="M672.5,250.7c4.4,2.8,8.9,5.2,13.7,7.8l21.3,11.5,30.7,13.8,16.8,9.2c2,.6,3.8,1.6,5.5,3.1,5.1,4,13.2,11.4,13,18.4,0,.4-.3,1.5-.8,1.4-.8-.3-1.5-1.6-1.6-2.4-.2-2.5-1.7-4.6-3.2-6.8-2.8-4.1-6.2-7.4-10.6-9.8l-19.4-10.6c-6.5-3.6-13.2-6-20.1-8.9s-15.9-7.4-23.6-11.9l-17.8-10.6c-2.3-1.3-4.4-2.7-5.7-4.8.6,0,1.3.4,1.8.7Z"/>
    <path d="M587.2,209.2c2.3.5.8,1.6-.6,2.5-.7.5-.1,1.8,0,2.4,1.5,3,.1,4-2.8,2.8-.1-2.3-.9-3.7-2.3-4.3-3.6,1-7.2,2.2-10.8,3.5-6.1,2.8-10.7,4.4-17.4,3.5-3.7,1.1-2.7-3.4-2-5.6l-.6-.3c-3.3-.1-4.4-1-3.4-2.6-.8-1.8,2.2.9,4.3-.7s1.5-3.9,3.1-4.8,2.2,2.3,2.5,3.4c3.9,2.6,3.7-.2,5.5,1.4s3.9,1,6,.8,4.3.6,5.5-1.8c-.3.5,11.3,0,9.5.4,1.3-.4,2.5-1.6,3.7-.8Z"/>
    <path class="st10" d="M553.2,127.7c-.2,2.3-1,4.5-2.5,6.6-4.6,11.3-6.8,17-6.8,17l-1.3.9c.2.2.4.4.5.6.5.8-3.6,7.4-4.4,8.7s-.3.2-.7.2c0,.9,0,1.2.5,1,.2-3.7,4.9-6.6,8.3-7.4s4.1-1,4.6.8c.6-.2,1.3.4,1.2,1-.1,2-5.4,2.3-7.2,2.2.2,1.3-2.7,3.1-4,2.9.1.9-.3,1.7-1.4,2.3,1.2,5.6,2.2,11.5.8,17.1-2.8,6.4-2.9,12.1.2,18.5,1.6-1.5,3.5-2.5,5.5-3.1l1,.8c3.5,1-5.9,1.6-7.2,11.9s-.8,1-1.2.9c-1.9-.2.4-5.6.4-6.8-3.7-7.7-5.2-14-1.5-21.9s.4-5.3.5-7.7c-.9-3.8-1.6-7.7-2-11.5-.4-2.6,1.3-4.8,2.3-7.2l5.9-15.4c1.9-4.9,4.4-9.3,7.9-12.9,1.3-1,1.5-.8.5.5Z"/>
    <path class="st99" d="M558.6,125.4c2.6.4,3.4,1.2,2.5,2.5-4.4,6.7-7.3,14.4-11,22.1,1.9.2,4.8,4.8,4.3,5.3s-.9.4-1.3.5c-.1.4-.3.4-.4,0-1-1-1.9-2.2-2.8-3.4-2.1.1-4.1.4-6.2,1l-1-1c.7-2.9,1.9-5.6,3-8.5,2.1-5.7,4.6-11,7.6-16,.2-1.1,1.2-2.3,2.3-2.4-.2-1.4.6-1.4,1,0,.7,0,1.2-.4,1.8-.9.2.4.2.7.2,1Z"/>
    <path class="st99" d="M545.1,169.2c1.3.7,1.3,2.1.1,4.1,1.2,0,2.8.4,2.8,1.8,0,.5-.7.3-.6.3,1.4,0,4.6.5,3.6,2.2.9,1-.9,3.1-2,2.5-1,.3-2.1.2-3.5-.1-1.3.9-3.6,6.9-3.3,8.8s.8,5.5,2.8,5.4c1.2-1.1,6,.7,4,2.4-.4.3-.9.8-1.3,1.1-2.7.4-4.8,2-6.8,4.3-8.7-20,3.8-13.5-1.7-37.1s1.9-1.9,2.3-2.8c1,.4,1.7,1.4,2.2,3,1.3,1.4,1.7,2.7,1.4,3.9Z"/>
    <path class="st61" d="M630.5,101.8c1.1,1.2.2.9-1.1.6-15.1-5-33.1-5.2-48.8-.9-9.2,2.5-16.3,7.8-22,15.1.6.7,0,1.8-.9,1.3-.5,1.6-1.4,3.6-2.7,4.5-.4,0-1,.3-1.5-.2,3.1-8.6,12.8-17.6,21.3-20.7,17-6.1,39.4-7.3,55.7.4Z"/>
    <path class="st148" d="M558.1,166.7c1.7,5.3-8.4,14.1-12.5,22-.4,2.6,1.8,3.4,4,3.8,1.2.8,2.1,1.5,1,2.8,0,.4.2,1.3-.3,1.6s-1-.3-1.3-.2c-.2-1.9-3-1.3-4-2.4-1.5.8-2.5-3-2.5-4.1,0-2.4,3.7-8.1,5.3-9.9h1.2c.5-1,1.4-1.7,2-2.6-.6-.6-.6-1-.2-1.6-1.2,0-2.1-.3-2.8-1-1,0-2.1-1.3-3.3-.6s-.7.9-1.1,1-1.4,0-1.4-.6c0-2.2,2.7.2,2.8-5.7-.8-2.2,4.7-3.1,6.3-2.9s1.4.3,1.7,1c1.1-.8,1.9-.4,2,1,.4-.2.8,0,1,.5.3-.7.3-1.2-.6-1-4-4.4,1.4-5.9,2.7-1.1Z"/>
    <path class="st61" d="M646.6,272.2c2.5,1-13.7,8.6-14.7,9.1-9.6,4.4-19.7,7.4-30.3,8.1s-8.5.6-12.5-1.7c18.4,2.5,41.2-6.7,55.9-16.6.8,0,1.1.6,1.6,1.1Z"/>
    <path class="st10" d="M669.4,173.1c-.2.8-.6.8-.9,0-.9-9.7-2.9-24.8-6.9-34s-3.8-8.1-6-11.9-4.2-3.3-5.3-5.8-1.6-3.3-3-5c2.5-.4,3.7,1.4,4.5,3.1,1.3,2.6,4,4,5.5,6.4,2.2,3.5,3.7,7.3,5.5,11,3.5,7.3,4.8,15.1,5.8,23.2s1.6,8.8.8,12.9Z"/>
    <path class="st51" d="M571.5,187.2c2.4.7,4.9,5.4,2,6.4.8,1.1.3,2.1-1.4,3.1,3.2.4,5.9,1.3,8.3,2.9,1-.2,2.3.9,3.1,1.5.7-.2,2.1.2,2.1,1,2.1,2,4.6,4.3,5,7.5s-1.8.8-2.4.9c-.6,0-.9,1.3-1.6,1.1,1.3-.8.7-1.5.6-2.5-.3-4-4.4-6.7-8.4-7.8l-10.9-3.1c-2.7-.8-5.1-2.7-8-3s-3.3,0-4.4-1c-.6-2.9,3-3.1,5.4-2.4,3.6,2.2,9.9,4.9,10.6-1.2-.7-2.1-2.1-3.3-4.2-4.7,2-.9,2.9.7,4.1,1.3Z"/>
    <path class="st51" d="M634,153.7c.6.1.8.9.9,1.5s-.8-1.3.1-1.5c1-5.5,3.6-10.7,7.1-15.4s1,.2,1.1.4c.3.9-5.6,8.3-7.2,17s1.7,4.8-.4,6c-3.3-.4-4.9-9.1-5-11.5-.3-5.9-.1-12,3.5-17.2-2,7.2-1.9,13.9,0,20.6Z"/>
    <path class="st99" d="M571.6,190.7c.5,1.5,0,2.5-1,3.6s-2.9,1.5-4.4.8l-5.6-2.3c-2.3-1-3.8,0-5,1.5s-3.6,1.2-5,1c-1.1-3.4-3.5-1.2-5.1-3.7s-.4-1.9.1-2.9c-.2.9.4,1.4,1.3,1.8,3.6,1.6,7.3,1,10.9-.4s6.4,5.5,12,2.8,1.3-.3,1.5-.7.2-1,.3-1.5Z"/>
    <path class="st67" d="M640.6,152.3c-1.2,5.5-2.4,11.6-.7,17.1.7.1,1.3.2,2.1.8l2.1,1.4c1.5,1,1.3,3.8,1.5,5.6-.4.1-1.2.6-1.6,0-.9-1.1-1.4-3-2.4-3.9-3.6,3.4-4.5-7.3-4.5-8.1,0-4.8,1.5-9.4,2.9-14,.7-.7.9-.3.6,1Z"/>
    <path class="st92" d="M657.1,176.7c.7,1.5-.9,3.7-2.5,4.1-1.1,1.7-2,3.1-2.8,4.8s-2,1.4-2.4.5c-1-2.3-1.4-4.6-1.8-6.8s-.7-2.1.4-2.5l2.4,7.5c2.6-4.6,5.2-9.5,8.7-13.4,2.5.7-1.5,4.3-1.9,5.8Z"/>
    <path class="st127" d="M612.1,120.7c0-.1,0-.3,0-.4,4.5-6.5,10.7-11.6,18.9-13.1s1.1,0,1.4,0,.9,1.1.4,1.2c-7.3,1.7-13.5,5.5-18.4,11.1s-1.3,1.4-2.3,1.1Z"/>
    <path class="st20" d="M622.6,129.3c-.3,0-1,0-1-.5,0-1,.3-1.8.4-2.5l.5-.6c0-.3,0-.6,0-.8,3-4.8,6.6-9.3,11.8-12.2s1.2-.4,1.6,0,.2,1-.5,1.4c-5.8,3.7-10.5,8.8-12.8,15.1Z"/>
    <path class="st67" d="M588,120.4c-1.6.7-2.6,2.2-3.9,3.5s-3.8.8-5.5,1.4c-.8.1-4.2.6-4.2,0s0-.5.2-.8c.4-.2.7-1,1-1.4.6-.6,1.1.5,1.7.3,1.6-.4,4.1-.2,5.5-1.2s6.9-7,7.8-4-3.9,3-2.5,2.3Z"/>
    <path class="st77" d="M647,114.5c-.8,2.1-6.6-1.6-6.9-5.7-1.6-1.4-3.9-1.5-5-3.7,10,1.4,5.4,5.8,11.1,8s.9,1,.8,1.3Z"/>
    <path class="st67" d="M554.7,293.3c0,.2-1.1,0-1.3,0-1.3,0,.8-11.7,1-13.3s.6-.6.8-.5.6.4.6.9l-1.1,12.8Z"/>
    <path class="st135" d="M627,139.3c.3,1.1.2,2.3,0,3.5-.2,0-.5,0-.7,0-1.3-.8.9-8.9,1.3-9.9.6-1.4,3.9-7.8,5.7-8.4s.8.5.6.8c-3.5,4.2-5.5,9-6.8,14.1Z"/>
    <path class="st0" d="M569.4,126.3c.5-1.5,2.4,0,2.1,1.1-.8,1.1-3.1,1.5-4.4,2-1.2,1.3-3.1,0-2-1,.8-2.6.9-5.6,3.4-7.9.6,1.2-2.8,7.2,0,6.4s.4-.4.8-.5Z"/>
    <path class="st101" d="M563,126.8c2,1,.2,1.6-1.5.9-.1,0-.3,0-.5,0-1-2.3-2.4.1-2.5-2.5,1-1.6,1-3.7,2.4-5.4.7,7,.6.8,2,6.9Z"/>
    <path class="st129" d="M593.6,117.9c.2.3-.1.7-.9,1.3-.5.4-1.1.9-1.6.3,0-1.7,6.3-11,7.3-6.8-2,1.4-3.8,3-4.7,5.2Z"/>
    <path class="st73" d="M617.5,122.9c-.1.2-.4.2-.5.4-.4.2-.6-.5-.4-.9,2.3-2.4,4.7-5.6,8.5-6-2.5,2.7-5.6,4-7.6,6.5Z"/>
    <path class="st101" d="M556.6,125.3h-1c-.7.4-.7,0-.1-1.1l.2-1.3-.3-.3c1-1.5,1.8-3.1,2.4-4.7.3-.4.6-.9.9-1.3l1.1.4c-1.4,2.9-2.3,5.6-3.1,8.4Z"/>
    <path class="st0" d="M599,117.4c.2.9-.5,1.2-1.9.9-1.2-.2-1.2-.5,0-1,1-1.5,2.4-3.1,4.4-3.3s.9.4,1.2.9c.5.9-3.9,2.2-3.6,2.5Z"/>
    <path class="st143" d="M607,115.4l-4.5,2.3c-1.3.1-1.3-.4,0-.8.5-.7,6.5-5.8,6.5-3.3s-1.6,1.2-2,1.8Z"/>
    <path class="st143" d="M543.1,208.2l.5.5c.5.5,1.3.6,2,.6.6.1,1,.4.5.9v.5c0,1.2-.9,1.6-1.9.9-.3,0-.8-.2-1,.2-.8-.9-2.3-3.6-.8-3.8s.5.1.8.2Z"/>
    <path class="st144" d="M659,177.2c-.8,1-1.4,2.4-2,3.5-.8,0-1.6,0-2.5,0,.8-1.2,1.3-2.7,2.5-4.1.6.1,1.5,0,1.9.5Z"/>
    <path class="st114" d="M538.6,174.2c-.3-.2-3.7-12.1-2-11.5.8,3.9,2.1,7.5,2,11.5Z"/>
    <path class="st137" d="M565.1,128.3c0,.5.3,1.2.6,1.3s1-.1,1.3-.3c-.4.2-1.1,1.4-1.6,1.1-1.3-1.3-2.6-1.9-4-2.6.3,0,.7,0,1.2-.1s.3-.4.3-.8,0-1.4.5-1.5c1.3.6,1.6,1.9,1.7,3Z"/>
    <path class="st68" d="M620,125.3c-.3.7-.8.9-.9,0,0,.6,3.1-7.2,4.4-4.4l-3.5,4.4Z"/>
    <path class="st36" d="M529.1,278.5c-3.2,1.1-6.2,2.6-9.5,3.1-2.6.9,10.9-5.3,9.5-3.1Z"/>
    <path class="st102" d="M602.5,116.9v.8c-.5,2.2-5.7.5-5.4.5.8,0,1.3-.8,1.9-.9,1.1-.3,2.4,0,3.5-.5Z"/>
    <path class="st71" d="M578.6,125.3c-1.8.6-3.6.6-5.5,1.1-.3.1-.5.2-.6-.2.3-1,1.3-1.2,2.1-1.7.9,1.2,2.7.8,4.1.9Z"/>
    <path class="st99" d="M668.5,173.1c.8.9-.6,1-1.5.6h-2l-1.5.5c-.1,0-.4,0-.5,0-.5-2.5,4.4-1.5,5.5-1.2Z"/>
    <path class="st93" d="M597,117.3c0,.2.2.7,0,1-1.5-.2-3.3,0-4.4.9,0-.6.7-.8.9-1.3,1.1-.6,2.4-1.5,3.5-.6Z"/>
    <path class="st32" d="M760.4,296.1l-5.5-3.1c2.4-.4,3.9,1.8,5.5,3.1Z"/>
    <path class="st45" d="M571.9,126.2c.7,0,.6.3.1.7-.2,0-.4.3-.6.4-.5-.6-1.2-1.3-2.1-1.1-.6.1-.4-.4-.2-.7s.2-.6.6-.7c1-.2,1.6.8,2.1,1.3Z"/>
    <path class="st9" d="M555.6,122.8c-.2-.2-.4-.3-.6-.5.7-1.6,1.7-3.1,2.7-4.5,1.2-.7-1.9,5-2.1,5Z"/>
    <path class="st79" d="M629.4,102.3c.4,0,.9,0,1.1-.6,1.4.7,2.8,1.5,3.9,2.5-2.3,0-3.5-1.4-5-1.9Z"/>
    <path class="st75" d="M555.6,125.3c-.7.8-1.8,1.4-2.3,2.4.4-.4,0-.9-.5-.5.7-.8,1.2-1.8,2.3-2.4-.4-.2-.3-.4,0-.7.1-.3.3-.3.4,0v1.2Z"/>
    <path class="st35" d="M656,230.7c-1-.4-2.7.4-3-1.1.9-1.2,2.1.8,3,1.1Z"/>
    <path class="st58" d="M627.6,142.7c-.2,0-.4,0-.6,0-.6-1.2-.3-2.3,0-3.5,1,.8.4,2.3.6,3.4Z"/>
    <path class="st150" d="M640.6,152.3c0-.4-.2-.9-.6-1,.3-.9,1.1-1.6,1.3-2.6.9,1.6-.4,2.5-.7,3.6Z"/>
    <path class="st90" d="M669.4,173.1c.2.2.5.5.5.8s-.2.4-.4.4c-.8-.3-1.9.2-2.5-.6.6,0,1.2-.1,1.5-.6.3,0,.6,0,.9,0Z"/>
    <path class="st113" d="M762.3,253.1c-1,0-2-.8-1.8-2,.8.5,1.3.9,1.8,2Z"/>
    <path class="st46" d="M538.2,243.7c.2-.3.8,0,1.1-.1s.4.4.3.7-.6.2-.8.3c-.5.2-1.1-.3-.6-.9Z"/>
    <path class="st141" d="M635,153.7c-.1.6.3,1.2-.2,2.1-.4-.7-.6-1.4-.8-2.1h1Z"/>
    <path class="st19" d="M833.9,317.1c1-.5,1.8-.9,2.5-.3l-2.5.3Z"/>
    <path class="st44" d="M541.5,273.1c-.5.2-1.1.4-1.5.6-1-.5.2-.7.5-.9s1.1-.4,1,.3Z"/>
    <path class="st7" d="M486.7,34.1c.3-.3.8,0,.9.1s0,.4,0,1-.3.4-.5,0-.8-.7-.4-1.2Z"/>
    <path class="st35" d="M674.4,194.7c.2-.4.2-1,.6-1.4.4.2.5.7.3.9s-.6.4-.9.4Z"/>
    <circle class="st39" cx="673.5" cy="155.8" r=".6"/>
    <path class="st5" d="M546,210.2l-.5-.9c.3,0,.7-.2,1,0s.8.6.3.8-.7,0-.8,0Z"/>
    <path class="st156" d="M572.5,126.1l.6.2c-.3,0-.7.6-1.1.6-.3-.1-.1-.5-.1-.7h.6Z"/>
    <path class="st22" d="M555,124.2v.7c-.2.3-.4-.1-.5-.3s0-.5.1-.7.3-.1.3.3Z"/>
    <circle class="st82" cx="565" cy="210.9" r=".3"/>
    <path class="st112" d="M543.5,208.7c-.2-.1-.6-.1-.5-.5.2,0,.4.3.5.5Z"/>
    <path class="st127" d="M733.6,304.5l-11.8,10.4c-.3.3-1,.5-1.2.3s-.3-1.3,0-1.7c3.4-3.7,7.3-6.9,10.9-10.5s7.6-3.3,13.1-2.1c-1.8,2.5-6-.9-11,3.5Z"/>
    <path class="st101" d="M643.8,289.7c-.4,1.4-1.1,2.4-2.4,2.8.1-1.3,3-12.2,4-10.6s.3.5.2.9l-1.8,6.9Z"/>
    <path class="st101" d="M181.1,160.7c.5,1.6.7,3.2-1.1,4.2-.7-.6-.9-1.7-.9-2.6.3-.3.1-1.2.6-1.5s1-.2,1.4,0Z"/>
    <path class="st63" d="M198.7,100.9c.9-.9,1.6-.2,2,.8h.5c.4,1.3.7,1.6,1,1.1.6,0,.5.8.5,1.2,0,0-6.3,1.5-8.6-.5s-1.3-8,.4-7.5-.6,2.9.8,5.9,1.6,1.5,2.4,1.1.9-1.3,1-2.1Z"/>
    <path class="st154" d="M200.7,101.7c-.7,0-1.3-.5-2-.8s-1-2-.3-2.1c1.7-.2,2.5,1.6,2.3,2.9Z"/>
    <path class="st37" d="M202.2,102.8c0,.2.1.8,0,.9-.6.2-.8-.4-1.1-.8s0-.8.2-1.1c.3-.6.6,0,.7.2s.2.6.3.8Z"/>
    <path class="st99" d="M196.3,118.3c-.2-.1-.4-.3-.6-.5.2,0,.4.4.6.5Z"/>
    <path class="st104" d="M166.8,145.8c-.2-1.9-.8-3.4-1.7-4.2-2.1-1.7-6.7-1.1-8.1.6s-.4,2.3-.8,3.9c-1.8-1.8-1.2-4.8.5-6.3s3.9-1.3,6.1-1.4c4.1-.2,6.3,3.5,6,5.1s-.6,2.1-1.9,2.3Z"/>
    <path class="st59" d="M123.8,195.2c.3.1.3.3,0,.5-2.9-3.1-5.2-6.6-7.5-10.1,0-.5.4-.4.7-.1l6.8,9.7Z"/>
    <path class="st143" d="M169,160.4c1.3-.9,3.1,6.2,1.3,6.3-1-1.9-2-4.3-1.3-6.3Z"/>
    <path class="st28" d="M127.2,199.2c-1.4-.9-2.3-2.4-3.4-3.5l.5-.5c1.1,1.3,2.4,2.4,2.9,4Z"/>
    <path class="st136" d="M152.3,146.8h.6c-.1.4-.6.7-.6,1-.7-.5-1.6-.6-2.5-.5-.9,0-1-.3,0-.6.8,0,1.7,0,2.5,0Z"/>
    <path class="st23" d="M123.8,195.7v-.5h.5c0,.3-.2.6-.5.5Z"/>
    <path class="st51" d="M152.8,146.8h-.6c.2-.2.4-.4.6-.5,0,.1,0,.3,0,.5Z"/>
    <path class="st116" d="M143.7,96.4c0,.8-.4,1.5-1,2.1,0,.3,0,.6,0,.9.4,1.3,0,1.4-.9.4.5-1.4.2-2.8-.4-4.5,1-.2,1.5.7,2.3,1.1Z"/>
    <path class="st146" d="M112.4,87.3c-.3,0-.6.6-1.1.5v-.6c.1,0,.4,0,.6,0s.3.1.5.2Z"/>
    <path class="st99" d="M142.1,87.4c-.5,0-.3-.8-.4-1.1.2,0,.5.1.5.4s-.2.6-.1.8Z"/>
    <path class="st30" d="M48.3,124.4c-.8,1.9-.7,3.9-.4,5.9.2.9,0,1.1-.7.5-1.3-2-3.6-.2-5.9-6,2.2-1.4,1.5-3,5.8-4.3.9,1.2,1.3,2.6,1.2,3.9Z"/>
    <path class="st27" d="M50.8,120.8c-.1.5.5,1.5-.8,1.8l-.2-8.8c1.3.4-.2,7.2,1,7Z"/>
    <path class="st30" d="M130.8,96.9c-.5,2.3,0,4.5,1.1,6.5v.5c-2.1.2-4.2.2-6.2,0-2.2.3-4.4-.2-6.5-.6-.1-.5-.2-1,0-1.5,1.1-2,8.8-6,11.2-7,.6.2.7.8.3,2Z"/>
    <path class="st17" d="M130.8,96.9c0-.2,0-.5-.3-1.3-3.9,2.4-8.2,4.4-11.2,7.8-1.4-.3-2.8-.2-4.6-.8,3-3.3,12.3-9.4,17.2-8.7.1,1.2-.8,2.1-1.1,3Z"/>
    <path class="st63" d="M137.8,96.8c.8-1.8,2.3-.6,2.5,1,.2,1.4-1,2.7-.1,4,1.4.2,1.3.6,0,1-4.5,1.7-9.7,2-14.4,1.1,2-.2,4.3.3,6.2-.5.3.2.7.4.9.1s.6-.7.4-1.2c-1.3-2.9-1.6-7.3,1.8-9-.7,2.7-1.6,5.5.4,7.3s2.4-.6,2.9-1.4.3-1.8-.7-2.5Z"/>
    <path class="st13" d="M140.2,102.8c0-.3.2-.7,0-1,.9-.4,1.2-1.3,1.6-2.1l.9-.4c.6,1,1.4,2,1.6,3.4-1.6.5-3-.4-4.2,0Z"/>
    <path class="st130" d="M140.3,97.8c-.7-.6-1.6-1-2.5-1-.5-.3-1.4-1.6-.8-2.1s2.3-.6,2.8,0c.8.9.4,2.2.5,3.1Z"/>
    <path class="st99" d="M149.3,146.7c-.4.2-.6.5-.6.6-4,1.1-7.4,3-10.6,5.8s-6.3,2.9-9.3,4.2c-.8.5-1.1.3-.5-.5,8.7-14.4,2.7-5.5,16.2-16.7.8,3.1,2.7,4.9,4.8,6.7Z"/>
    <path class="st42" d="M126.8,158.3c.1-.3.3-.3.5,0-1.3,1.2-2.6,2.4-4,3.5-.4-.1-.4-.3,0-.5.9-1.2,2-2.8,3.5-3Z"/>
    <path class="st149" d="M128.8,157.2c-.3.5-1.2.7-1.5,1h-.5c.1-.7,1.2-1,1.5-1.6.1.2.3.4.5.5Z"/>
    <path class="st157" d="M123.3,161.3v.5c-.3.2-.7.4-1.1.6-.1,0-.4,0-.5,0,.4-.3.9-1.1,1.6-1Z"/>
    <path class="st38" d="M149.3,146.7c.2,0,.3,0,.5,0v.6c-.3,0-.8,0-1.1,0-.6,0-.4-.5-.1-.5.4,0,.6,0,.8,0Z"/>
    <path class="st12" d="M49.8,133.8c-.1.4-.3.4-.5,0-.6-.5-1-1.2-1-2-.2-.1-.2-.3,0-.5.8.6,1,1.6,1.5,2.5Z"/>
    <path class="st60" d="M50.9,135.3c-.5,0-.6.6-.6,1-.3-.5-.7-.9-.5-1.5v-.5c.5.2.8.6,1.1,1Z"/>
    <path class="st97" d="M48.3,131.3c0,.2,0,.3,0,.5-.5-.2-.8-.6-1.1-1,.2-.2.5-.3.7-.5,0,.3.5.6.4,1Z"/>
    <path class="st47" d="M49.8,134.3c0,.2,0,.3,0,.5-.4-.1-.3-.8-.5-1h.5c0,.1,0,.4,0,.5Z"/>
    <path class="st99" d="M546,210.7c.4,0,.7.4,1.1.5.4,1.8,2.5,1.2,4,1.7,3.2,1.2-2.2,5,2.1,6.8-.2,1.3-.6,2.8-.1,4,.6,1.2,1.5,1.8,3.3,2,3,.3,6-.4,8.9-1.2l.8.7c.2.7.9,1.4,1.1,2.6-4,1.1-8,.7-12.4,0-1.6,6.6,2.6,6.8.8,10.8,6.1,2.7,12.5,3,19.1,2.3s4.2-.5,5.6.4,1.7,3,2.9,4.3l-2.8,1.1c0,2,7.4,12.9,8.1,13.5,3,2.6,7.2,4.2,11.1,5.1s6.4-.7,9.5-1.1,7-1.4,10.5-2.6c12.9-4.5,15.4-6.3,24.6-16.8s4.8-11.2,5.2-11.6.6-.1,1-.1c.2,3.4,1.3,6.2,3.4,8.3-.3,1.3-.9,2.6-1.6,3.7,0,.2,0,.3,0,.5-15.3,17.1-40.5,24.1-63,24.5-.2,0-.3,0-.5,0l-1-.5c-.9.4-1.9.4-3,.1-.2-.1-.7,0-1,0l-2-.4c-.2,0-.3,0-.5,0l-1.5-.5c-.1,0-.4,0-.5,0-3.2-1-6-2.5-8.5-4.5-.4-.2-.8-.7-1-1l-1.5-2c0-.2,0-.3,0-.5-.3-2.5-.3-5,0-7.5,0-.5,0-1,0-1.5.3-1.3.3-2.7,0-4.1h.5c1.9.6,4.5.5,6.5,0,.3,0,.7,0,1,0,.7,0,1.4-.2,2-.5.1,0,.4-.1.5,0l1-.5c.7-.1.8-2.3,0-2.3-9.6.9-9.8,2.1-19.6-1.1-5.8-1.9-9.9-7-10.1-13.2-.4-10.5-1.9-9.3-5.7-18.4.5-.5,1.2-.9,1.9-.9Z"/>
    <path class="st98" d="M605,163.7c-1.4.9-2,.9-2,0l-2.3-.5c-5.6-4.5-11.5-7.8-17.8-10l-2.9-.4c-2.7,0-5.3,0-7.9,0-.5,1.1-1.3.7-2.4-1,.3-1.3.9-2.7,1.9-4,2.9-.8,6.1-2.5,9.5-1.8s5.5,1.6,7.8,2.9c3.7,2.2,15,10.8,16.1,14.8Z"/>
    <path class="st99" d="M673.4,185.6c-.6.6-1.2,1.3-1.5,2-.2.7-.5,1.6-1.4,1.1.3-1.2-.5-3.4-1.9-3.5-2.8-.1-6.1.9-6.6,3.4l-.2.7c1.5,2.5,2.8,6.9-.9,7.9l.6.8c-.5,1.1-2,.2-3.1.4-2,.5-2.9,3.1-5,3.4s-1.1-2.2-.4-2.9l.2-.6c2.3-1.5,3.6-3.3,3.9-5.5-3.7-6.2,2.8-12.1,8.7-13.3s8.3.5,7.7,5.8Z"/>
    <path class="st99" d="M572.1,152.8c4.3-.4,8.6,0,12.7,1,6,3,11.7,6.5,17.2,10.4l1-.4c.5.4,1.5,0,2,0-.6.8-1.8.7-1.5,1.8s.4,1.2.9,2.1c-4,1.3-14-6.2-17.8-8.8s-7.6-1.7-10.8-.2-1.7,2.5-3.4,3.2c-2.7-2.6-1.5-9.2-2.8-10,.9.1,1.6.8,2.4,1Z"/>
    <path class="st99" d="M575.5,189.3c1.4,2.4,3.2,4.5,5.3,6.2,3.7,1.9,7.6,3.4,11.7,4.5,1.8,1.7,3.6,3.4,5.1,5.3l.9,2.4c-8.5.7-4-3.2-11.9-5.9-1.1,0-2.3-.3-3-1-.8.1-2.2-.7-2.6-1.5-.2,0-.4.1-.5,0-2.7-1-5.8-3.1-6.8-5.7.7-2.3-.3-4.8-2-6.4.7.3,1.9-.2,2.5,1.2s1,.9,1.5.9Z"/>
    <path class="st67" d="M590.5,167.2c.1.5,0,.7-.6.6-2.2-.5-4.2-2.1-5.4-.1s0,.7.5,1.1c1.9.9,2.6,2.2,0,2.1-.8.9,2.1.8,3,.3-.7-1-.4-1.4.9-1.3.4-.3.9.2,1.3,1.4,1.3,0,2.6.1,3.9.4.2.3.5,1.2-.2,1.3-5.4.7-10.7,1.1-16.4.4.2-1,1.2-.8,2-1.3-.6-.9-.8-1.9-1.2-2.9-1.2.7-1.5,1.8-2.8,2.2-1.3-3.6,6.2-6.9,10-6.7s3.5,1.7,5,2.4Z"/>
    <path class="st99" d="M552.6,155.6c.1,0,.3,0,.4,0,0,1.7,6.5,10,5.1,11-1-.8-1.9-2.3-3.7-1.8.9,1.4,2.7,2.7,1.6,3.9l-1-.5c-.7,0-1.4-.6-2-1-.9-.5-1.8-1-2.7-1.8l-3.3-4.1c-.9-.6-1.4-1.3-1.5-2.1,5.4-3,7.3-.3,6-3.1-1.6-1.1.5-2.4,1.1-.6Z"/>
    <path class="st92" d="M673.4,185.6c-1.3.3-.5-3.8-1.6-4.3-4.5-1.9-9.3-.1-12.8,2.9-7,5.8,4.8,8.4-6.1,14.9-1.6-.6,3.7-3.5,3.2-5.9-1.8-3.2-1.6-5.5.4-8.2,7.4-9.7,16-6.1,16.9-4s1,3.5,0,4.7Z"/>
    <path class="st20" d="M597.6,205.2c-3.2,1.8-.9-4.3-9.8-5.8s-10.8-4.6-12.3-10.2c2.4.2,2.6,6.4,12.2,7.7s7.6,2.2,9.7,5.6.8,1.9.2,2.6Z"/>
    <path class="st17" d="M586.5,214.1c.7.9,1,2.1,1.6,3.9-4-.4-6.7.2-9.1-2.7-2.9.9-5.7.9-8.5.9,2.3-1.1,9.3-6,12.1-4.1s1.6,3.3,2,4.9c.7,0,1.5-.4,1.8-.8.4-.6.2-1.5,0-2.1Z"/>
    <path class="st17" d="M647.9,213.7c1.7.3,2.4,1.1.6,1.5-.7,1.8-.5,3.7-.5,5.5-.7-.2-.3-1.5-.8-1.9s-2.8-.5-3.3.2c-1.2,1.6-2.5,2.6-4.3,1.7l5.1-8.5c1.3.7,2.2,1.3,3.2,1.4Z"/>
    <path class="st135" d="M671.9,187.7c0,5.3-3,10.6-6.7,14.7s-3.8,2.1-5.8,1.8c-.2-.6.5-1,2-1.1,1.4-.4,2.6-1.1,3.5-2.5,2.5-3.8,4.6-7.7,5.5-11.9s1-.8,1.4-1.1Z"/>
    <path class="st101" d="M566.1,225.2c-3.4,1.3-10.5,2.7-13.1-.1s0-.9,0-1.4c3.5,2.4,8.8.5,12.7-.3.7,0,.2,1.3.3,1.8Z"/>
    <path class="st16" d="M608.5,172.3l.5,1.4c-1,.5-.5.8,1.5.9l.6.5c-.6,2.3-11.4-.7-13.3-1.6.1-.9.5-1.3.7-1.9l.7-.5c2.9.5,5.9.6,8.8.4l.6.6Z"/>
    <path class="st31" d="M608.5,172.3c-3.4.4-6.8.6-10-.5s-3.6-1.7-5.4-2.5c-.6-.7-.3-1,.5-.6,4.3,1.6,8.5,2.9,13.5,2.1s1.1.2,1.3.4,0,.8.2,1.1Z"/>
    <path class="st78" d="M592.6,175.8c.9.5,1.9,1.3,1.6,2.6-5,0-9.8-.2-14.5-.7-.3-.7.1-1.5.4-1.9,4.5.5,8.7.5,12.6,0Z"/>
    <path class="st122" d="M662.1,188.7c1.3,2,2.2,4.1,1.9,6.5s-1.4,2.4-2.5,3c-1.2-.1-2.6.4-3.4-.1-1.4-2.4,2.2-.8,3.6-1.9s.1-5.8-1.4-8c.6-.3,1.4.1,1.7.6Z"/>
    <path class="st53" d="M592.6,175.8c1.6,2.1-11.9.9-12.6,0-.5-.4-.5-.9,0-.9,3.6.8,10.8,0,12.6.9Z"/>
    <path class="st143" d="M609,173.7c.8,0,2.3.5,2.1,1.5-2.3-.1-4.9,0-7-1.5,1.9-.7,3.4,0,4.9,0Z"/>
    <path class="st119" d="M588.9,169.9c-.2.4-.4,1.1-.9,1.3-1,.4-2.7.7-3-.3.2-.2.8-.5.8-.9s-.5-1-.8-1.3l3.9,1.2Z"/>
    <path class="st3" d="M594.1,171.7h-5s.3-1.2.3-1.2c0-.2-.1-.5-.5-.6.3-1,1.2-.9,1.1.2-.4,2.5,3.1.1,4.1,1.6Z"/>
    <path class="st103" d="M569.7,151.8c-1-.6-.3-.9.2-1.7s.7-2,1.7-2.3c-.3,1.5-1.2,2.7-1.9,4Z"/>
    <path class="st99" d="M654,241.6c-.7,1.2-.6,2.8-1.9,3.5l1.4-3.5c-2.3-1-3.2-7.2-3.1-8.5l.2-2.4c1,2.1-.4,5.8,2.2,9.7s1.6.5,1.2,1.3Z"/>
    <path class="st124" d="M586.6,201.7c-.3,0-1.1,0-1,.5-.4-.4-1.5-.8-2.1-1-.3-.1-.3-.3,0-.5.9.2,2.1.7,3,1Z"/>
    <path class="st49" d="M661.5,203.1c-.7.2-1.4.7-2,1.1-.5,0-1-.3-1.5-.5-.2-.4,0-.6.5-.5h3Z"/>
    <path class="st4" d="M602.2,169.5c-1.1.1-2.1-.3-2.8-1.1,1.1-.3,2.1-.1,2.8,1.1Z"/>
    <path class="st134" d="M593.6,168.7c-.2.2-.4.4-.5.6-.6-.3-1.4-.7-2-1.1-.2-.4,0-.6.5-.5.7.2,1.4.7,2,.9Z"/>
    <path class="st131" d="M646,207.3c0-.4,0-.9-.5-1.1.3-.3.3-.9,1.3-1.1.5.8-.7,1.6-.7,2.2Z"/>
    <path class="st88" d="M591.5,167.7c-.1.2-.3.4-.5.5-.2-.2-.8-.4-1.1-.5.2-.2.4-.4.6-.6.3.2.6.5,1,.6Z"/>
    <path class="st115" d="M658.5,203.2c-.2.1-.4.3-.5.5-.3-.1-.5-.2-.8-.5-.4-.4.1-.6.5-.5s.5.4.7.5Z"/>
    <path class="st98" d="M622,126.3c0-.2.1-.8.5-.6,0,.2-.1.8-.5.6Z"/>
    <path class="st99" d="M589,270.1c0-.2.2-.5.5-.5,16.6,0,38-5.3,51-14.8l6.4-4.7c1.3-1,2.8-1.4,3.6-3s.9-1.2,1.6-1.5c-8.3,13.9-39.9,24.4-54.5,24.5h-8.6Z"/>
    <path class="st99" d="M567.9,260.6c-.6,1.8-.6-9.2,0-7.5.2,2.5.2,5,0,7.5Z"/>
    <path class="st99" d="M575,247.6c1.7.8-8.3.8-6.5,0,2.2.1,4.3,0,6.5,0Z"/>
    <path class="st99" d="M568,247.5c.2,1.4,1.2,3.1,0,4.1.2-1.3,0-2.6-.6-4.1.1-.5.6-.6.6,0Z"/>
    <path class="st99" d="M587.5,269.6c.4.1.4.3,0,.5-1,0-2.1.2-3-.4,1-.1,2-.1,3-.1Z"/>
    <path class="st99" d="M583.5,269.6c-.7-.1-1.6.2-2-.4.7,0,1.8-.4,2,.4Z"/>
    <path class="st99" d="M578,247c-.2.9-1.3.6-2,.5.6-.4,1.3-.5,2-.5Z"/>
    <path class="st99" d="M579,268.7c-3-.7-6.7-2.1-8.5-4.5,3.6,2.8,5.6,2.5,8.5,4.5Z"/>
    <path class="st99" d="M581,269.2c-.5,0-1.2,0-1.5-.5.5,0,1.4-.3,1.5.5Z"/>
    <path class="st56" d="M588.5,270.1h-1v-.5c.4,0,.9,0,1,.5Z"/>
    <path class="st99" d="M579.5,246.5c-.3,0-.4.9-1,.5.2-.3.6-.4,1-.5Z"/>
    <path class="st99" d="M569.5,263.1c-.6-.6-1.5-1-1.5-2,.7.5,1.2,1.2,1.5,2Z"/>
    <path class="st21" d="M651,213.7c1,0,1.6.6,2,2-.4.7-.9,1.3-1.4,1.9-.5.3-1.4-.1-2-.5,0-.4.1-.8,0-1.2s-.8-.6-1.2-.7c.4-.6,0-1.2-.6-1.5,1,0,2.1,0,3.1,0Z"/>
    <path class="st89" d="M653,215.7c-1.1.6-1.6-1.1-2-2,1.1,0,2.1-.6,3.4-.4-.3,1.1-1,1.6-1.4,2.4Z"/>
    <path class="st120" d="M651.6,217.6c-.4.4-.5.8-1.1.4s-.9-.3-.9-.9c.6,0,1.6-.2,2,.5Z"/>
    <path class="st98" d="M665,173.7c-.5.2-.9.7-1.5.5.2-.6,1-.5,1.5-.5Z"/>
    <path class="st138" d="M554.8,209.3c.3-.2.5,1.2,0,1.4s-.4-.4-.5-.5c-.4-.2,0-.6.5-.9Z"/>
    <path class="st98" d="M552.6,155.6c-.2-.1-.5,0-.8,0s-.5.1-.3.5c-5.2-.9-10.1,2.2-12.9,6.6-.7,0-.6-.4-.5-1,0-2.1,4-7.3,4.5-9.5,3.9.1,7.9-3.3,9.4,1.1s1.3,1.5.6,2.2Z"/>
    <path class="st110" d="M553.1,167.3c-2.8,0-5.8,0-8,1.9-1.6-2.1-3.1-4.3-3.6-6.9.9-1.6,2.4-2.1,4-2.9,2.3,0,4.1,5.1,7.8,7.3.3.3.2.7-.2.7Z"/>
    <path class="st66" d="M538.6,162.8c0,.1,0,.4-.3.5-.5.3-.8-.3-.8-.7s.5-.4.5-.8c.4.2.5.6.5,1Z"/>
    <path class="st55" d="M549,180.2c-3.2,5.4-8,9.2-4,14.1-.4.4-1.5,1-2,.4s-.4-2.1-.9-3.1c-2.5-4.8.5-7.9,2.8-12.4,1.1-.3,3.4,0,4.1,1Z"/>
    <path class="st84" d="M551,177.7c-1.1-.9-2.2-1.7-4.1-2,.2-.8.8-.4,1.1-.6h4.8s-1.8,2.6-1.8,2.6Z"/>
    <path class="st87" d="M548.6,173.2c-.3.7-1.8.8-1.8.2,0-1.6.2-2.8,1.1-3.7,0,1.2,0,2.1.7,3.5Z"/>
    <path class="st70" d="M554.6,172.3c-.3,0-.5-.5-.6-1.5-.3,0-.6-.1-.9-.3s-.8-.9,0-1,1.8.2,2.3.8-.4,1.4-.7,2Z"/>
    <path class="st11" d="M553.1,172.7c.4.2.4.4,0,.5-1.2.1-2.6-.2-3-1.5l.5-.5c.6.9,1.4,1.8,2.5,1.5Z"/>
    <path class="st40" d="M554.6,172.3l-.5,1.1c-.2.3-.6-.1-1-.1v-.5c.7-.4,1-1.2.9-2,.8.1.4,1,.6,1.5Z"/>
    <path class="st65" d="M556,168.8c-.2,0-.5,0-.7,0s-.3-.3-.3-.5l.4-.4c.2-.2.5,0,.6.3s0,.5,0,.7Z"/>
    <path class="st99" d="M550.5,171.2c-.1.2-.3.4-.5.5-.1-.5,0-1.2.1-2,.8.3.1,1.1.4,1.5Z"/>
    <path class="st81" d="M580.9,199.2c.7.5.6.7-.5.4-3.2-1.1-6.7-1.2-10.7-2.2,1.2-1.4,3.3-2.1,3.8-3.9,2.2.7,3.5,3.4,7.4,5.6Z"/>
    <path class="st80" d="M583.5,200.7v.5c-1-.4-2.1-1.2-3.1-1.5l.5-.4c.7.4,1.9,1.3,2.6,1.5Z"/>
    <path class="st127" d="M603,163.7c0,.4.3,1.4-.2,1.6s-1.1-.2-1.4-.4c-5.1-3.1-9.8-6.5-15-9.3s-8.4-2.1-12.8-2-1.3-.3-1.4-.8c6.5-2.1,13.2-.9,19,3s8.1,5.1,11.9,8Z"/>
    <path class="st114" d="M585,170.9c1,.3,2,.7,3,.3,0,.6-5.8,1.4-7.1-.4s-1-1.8-.3-2.8.8-.6,1-.5c.4.1-.6,2.2,1,3.4s1.7-.2,2.4,0Z"/>
  </g>
</svg>