<?xml version="1.0" encoding="UTF-8"?>
<svg id="Ebene_10" xmlns="http://www.w3.org/2000/svg" version="1.1" viewBox="0 0 930 325">
  <!-- Generator: Adobe Illustrator 30.1.0, SVG Export Plug-In . SVG Version: 2.1.1 Build 136)  -->
  <defs>
    <style>
      .st0 {
        fill: #040507;
      }

      .st1 {
        fill: #151b2a;
      }

      .st2 {
        fill: #314166;
      }

      .st3 {
        fill: #394b76;
      }

      .st4 {
        fill: #010101;
      }

      .st5 {
        fill: #3c4f7d;
      }

      .st6 {
        fill: #304064;
      }

      .st7 {
        fill: #445b8e;
      }

      .st8 {
        fill: #465c8f;
      }

      .st9 {
        fill: #0a0c14;
      }

      .st10 {
        fill: #455c8f;
      }

      .st11 {
        fill: #020203;
      }

      .st12 {
        fill: #435a8d;
      }

      .st13 {
        fill: #0c101a;
      }

      .st14 {
        fill: #2d3c5e;
      }

      .st15 {
        fill: #263250;
      }

      .st16 {
        fill: #1a2236;
      }

      .st17 {
        fill: #0d111c;
      }

      .st18 {
        fill: #080a10;
      }

      .st19 {
        fill: #34466d;
      }

      .st20 {
        fill: #384a74;
      }

      .st21 {
        fill: #526082;
      }

      .st22 {
        fill: #0b0e17;
      }

      .st23 {
        fill: #283554;
      }

      .st24 {
        fill: #3a4c78;
      }

      .st25 {
        fill: #687aa4;
      }

      .st26 {
        fill: #1e283e;
      }

      .st27 {
        fill: #34456d;
      }

      .st28 {
        fill: #121826;
      }

      .st29 {
        fill: #1c253a;
      }

      .st30 {
        fill: #8a9cd0;
      }

      .st31 {
        fill: #35476e;
      }

      .st32 {
        fill: #05070b;
      }

      .st33 {
        fill: #3a4c77;
      }

      .st34 {
        fill: #2b3959;
      }

      .st35 {
        fill: #05070c;
      }

      .st36 {
        fill: #030406;
      }

      .st37 {
        fill: #010102;
      }

      .st38 {
        fill: #0d111b;
      }

      .st39 {
        fill: #0e121d;
      }

      .st40 {
        fill: #2b395a;
      }

      .st41 {
        fill: #394c78;
      }

      .st42 {
        fill: #455b8c;
      }

      .st43 {
        fill: #000101;
      }

      .st44 {
        fill: #000001;
      }

      .st45 {
        fill: #3c507e;
      }

      .st46 {
        fill: #445a8d;
      }

      .st47 {
        fill: #080b12;
      }

      .st48 {
        fill: #2e3c60;
      }

      .st49 {
        fill: #0c1019;
      }

      .st50 {
        fill: #010204;
      }

      .st51 {
        fill: #020304;
      }

      .st52 {
        fill: #0b0f17;
      }

      .st53 {
        fill: #06090e;
      }

      .st54 {
        fill: #394c77;
      }

      .st55 {
        fill: #171f30;
      }

      .st56 {
        fill: #1d263b;
      }

      .st57 {
        fill: #42588a;
      }

      .st58 {
        fill: #121725;
      }

      .st59 {
        fill: #040609;
      }

      .st60 {
        fill: #020204;
      }

      .st61 {
        fill: #2b3859;
      }

      .st62 {
        fill: #0a0d15;
      }

      .st63 {
        fill: #2f3e61;
      }

      .st64 {
        fill: #3e5280;
      }

      .st65 {
        fill: #0f1520;
      }

      .st66 {
        fill: #303f63;
      }

      .st67 {
        fill: #415789;
      }

      .st68 {
        fill: #121927;
      }

      .st69 {
        fill: #080a0d;
      }

      .st70 {
        fill: #030305;
      }

      .st71 {
        fill: #141a29;
      }

      .st72 {
        fill: #090c12;
      }

      .st73 {
        fill: #283654;
      }

      .st74 {
        fill: #0f141f;
      }

      .st75 {
        fill: #34446b;
      }

      .st76 {
        fill: #5e73a4;
      }

      .st77 {
        fill: #2e3c5f;
      }

      .st78 {
        fill: #455c90;
      }

      .st79 {
        fill: #465c8e;
      }

      .st80 {
        fill: #2e3c5e;
      }

      .st81 {
        fill: #040508;
      }

      .st82 {
        fill: #445b8f;
      }

      .st83 {
        fill: #020305;
      }

      .st84 {
        fill: #111623;
      }

      .st85 {
        fill: #2d3b5d;
      }

      .st86 {
        fill: #07090f;
      }

      .st87 {
        fill: #35456d;
      }

      .st88 {
        fill: #05070a;
      }

      .st89 {
        fill: #2d3b5e;
      }

      .st90 {
        fill: #36476f;
      }

      .st91 {
        fill: #364770;
      }

      .st92 {
        fill: #0a0e16;
      }

      .st93 {
        fill: #3d5180;
      }

      .st94 {
        fill: #33446b;
      }

      .st95 {
        fill: #3b4e7a;
      }

      .st96 {
        fill: #283452;
      }

      .st97 {
        fill: #3c507d;
      }

      .st98 {
        fill: #3a4d79;
      }

      .st99 {
        fill: #33456b;
      }

      .st100 {
        fill: #2c3a5c;
      }

      .st101 {
        fill: #283655;
      }

      .st102 {
        fill: #0f1420;
      }

      .st103 {
        fill: #2d3a5c;
      }

      .st104 {
        fill: #1c253b;
      }

      .st105 {
        fill: #31394d;
      }

      .st106 {
        fill: #090c13;
      }

      .st107 {
        fill: #89a0d7;
      }

      .st108 {
        fill: #010203;
      }

      .st109 {
        fill: #2e3b5e;
      }

      .st110 {
        fill: #202b43;
      }

      .st111 {
        fill: #030407;
      }

      .st112 {
        fill: #324268;
      }

      .st113 {
        fill: #151b2b;
      }

      .st114 {
        fill: #242e4a;
      }

      .st115 {
        fill: #0c0f18;
      }

      .st116 {
        fill: #06080d;
      }

      .st117 {
        fill: #151c2c;
      }

      .st118 {
        fill: #2f3d61;
      }

      .st119 {
        fill: #2c395b;
      }

      .st120 {
        fill: #314267;
      }

      .st121 {
        fill: #212d47;
      }

      .st122 {
        fill: #2f3d60;
      }

      .st123 {
        fill: #697ba6;
      }

      .st124 {
        fill: #05060a;
      }

      .st125 {
        fill: #07090e;
      }

      .st126 {
        fill: #0b0e16;
      }

      .st127 {
        fill: #202a42;
      }

      .st128 {
        fill: #3e517d;
      }

      .st129 {
        fill: #090b12;
      }

      .st130 {
        fill: #39435a;
      }

      .st131 {
        fill: #3e5281;
      }

      .st132 {
        fill: #445a8b;
      }

      .st133 {
        fill: #43598c;
      }

      .st134 {
        fill: #7c91c2;
      }

      .st135 {
        fill: #171e31;
      }

      .st136 {
        fill: #3e5381;
      }

      .st137 {
        fill: #293655;
      }
    </style>
  </defs>
  <rect class="st30" x=".5" y="-.5" width="929.1" height="325.5"/>
  <g>
    <path class="st78" d="M929.5,0c.2,108.2.2,216.4,0,324.5-67.8.4-139,.4-206.9,0-1.1-.6-1.3-.6-2,0-236.6.4-483.9.4-720.6,0V0h929.5Z"/>
    <path d="M176.4,300.5l-.4-2.2c.7-.7,3.8-9.4,2.6-9.8s-5.3,1-5.4,1.2c.2,1.2-.2,2-1.2,2.3l-9.5,2.5c-7,1.9-13.7,3-21.1,2.6l-22.5-1.2c-6.2-.3-12.1-.8-17.9-2.9-1.5.8-1.7,2.6-2.9,3.6-1.7,1.5-4.5.7-6.7.9l-16.5.9c-4.9.3-9.7.3-14.4-1.2-1.4-2.5-1.3-5.5-1.7-8.3-.6-4.9,3.4-2.2,2.1-9.9l-52.9,10.4-.4,24.7c0,.4-.2.7-.3.8-.2.4-.4.2-.5,0-.2-.2-.7-.7-.7-1.2v-42c0,0,2.5-262.7,2.5-262.7.6-.6,1.9-1,2.4-.6.5.9,0,2.1.3,3.6,1.7-.7,3.4-.7,5.6-.7l71.9-.3,224.8-.2h339.3c0,0,7.7-1,7.7-1l1.7.6c6-.1,11.9,0,17.7.3h237.7c1.6,0,2,.4,2.5,1.5,0-1.8-.2-3.4.8-5,.9.5,1.1,1.4,1.1,2.4v31.1s-.3,67.3-.3,67.3l-.2,53.9-.3,55.4-.2,46v51.1c-.9.3-1.8.6-2.3.3s-.4-1-1-1.7l-124.3-.2h-75.8c-1.1,0-1.6,0-2.7,0l-90.4-.2-211.8-.3-130-.2-227.8-.5-44.1-.3c-.7,0-.8-.4-.6-.6.3-.4.8-.7,1.3-.8l47.3-.4,119.4-.2c-2.7-1.8-2.3-6.9-1.9-9Z"/>
    <path class="st80" d="M176.4,300.5c-.5-2-2.6-3.5-2.9-5.6s0-2.4-1.6-2.9c.2-1,0-2,.4-3.1l7.2-1.6c.8,8.1-2.1,7.9-3.1,13.2Z"/>
    <path class="st103" d="M680.2,11h-27.1c2.4-.9,5-1.2,7.7-1.8.5,0,.9,1.2,1.4,1.2h17.3c.4,0,.8.2.6.5Z"/>
    <path class="st78" d="M794.7,309.8l11.1-110.7c.1-1.4.8-2,.3-3.5l16.1-159.9,2.1-21.7h95.9s-1.8,294.9-1.8,294.9c0,.9-.1,1.1-.8.8h-123Z"/>
    <path class="st77" d="M265.4,66.9c-.4.7-.4,1.8,0,2.5.2,3.8-2.8,15.9-4,20.5-6.2,22.7-17.7,80.6-19.9,103.3l-6.2,64.1c-3.1,1-.2,4.5-7.9,5.7-11.4,1.8-22.8,2.6-34.4,2-5.7-.3-10.8-2-15-5.4,0-1.6,0-3.3,0-5.1l.2-45.9c0-1-.6-2.1.2-2.5.3-.1.4-.6.6-1.5-.6-2.7-.4-5.1-.2-8l3.1-36.5c.9-10.7,6.8-44.5,13-52l7.2-8.7c2.2-2.7,1.4-6.8,1.5-10.1s5.1-2.3,2.4-8.6c10.2-1,18.1-2.6,27.6-4.4-3-1-5.8,0-8.7.3l-15.3,1.3c-.4-1.8-.4-3.1-.4-4.8,3.3,1.1,6.4,1.6,9.8,1,1-3.1-10-3.5-15.8-5.6s-18.8-15.5-23.6-19.7l-19.5-17-19.7-17.9h103.9c2.4,3.1,3.9,6.3,5.4,9.7l9.2,21.2c1.2,2.8,6.6,20.6,6.5,21.9Z"/>
    <path class="st77" d="M587.1,24l.6.5c7-.2,14-.2,21,0v.8c.2,1.5.2,3.1,0,4.7.9.2,1,.4.5.6,3.2.1,6.4.1,9.6,0l.3.7c1,.5,1.6,2.8,1,3.7-.1.7-.5,1-1.2.8l-12.3,27.5c59.9.6,120,.9,180.2,1l1.7-.4c.5-.9,1.6-1.3,3.3-1.1,1.2-.5,2.1-.5,2.7,0l.9.6c-1.5,6-2.9,12-4.4,18l-1.1.3c-.9,1-2.5.9-3.4,0-63-1.5-125.6-2.7-187.9-3.7l.4,1.3-19.6,43.4c-1.4,1.9-3.6.1-1.4.9s.7.4,1.1.7c.3.2.6.2.9,0v-.7c20.8,1.1,41.4,2.2,62.1,3.3,2-.2,3.3.2,3.9,1.2-2.5.7.9.5,2.5,0,0-.4.2-1,.4-1,41.7,1.8,84.9,4.1,126.5,6.4l.9.6,1.6.4c.4.1.9.4.9.7-.3,1.9-3,14.6-3.6,15.2l-1,.4-96.1-5.7-.6-1-1.5-.8c-3.9-.2-7.7-.3-11.5-.2l-.8,1c-29.8-1.8-59.6-3.6-89.4-5.5-2.6-.5-3.5,0-2.9,1.5l-15.5,34.7c-16.7,2.9-33.8,5.7-50.7,8-.2.9-.4,1-.6.2-.5-.5.3,13.4.5,14.1s.5,1.4.9,1.6c11.4,1.4,22.8,2.8,34.3,4.2l.3.7c.6,0,1,.2,1.4.5.4,0,.4.2,0,.4-.8,2.8-1.8,5.5-3.1,8.3h-.9c.1.5.2,1.1,0,1.2-22.3,6.3-45.5,12.7-68,18.3-2.1.7-4.3,1.1-6.3,1.2-.9.3-1.6-.2-1.8-1.1l6.1-11.9.7-.5,53.1-103.7,51.9-102.4h12.5s-.2,9-.2,9c0,.7.6,1,1.1,1Z"/>
    <path class="st77" d="M100.9,14.4c.3.3.7.3.7,0,2.2-1,4.6-.2,7,0s1.8-.6,2.9-.6h27.3c0,.1,10.1,10.1,10.1,10.1,6.3,6.2,12.2,12.2,18.9,18.1s12.2,11,18.2,16.8c4.5,4.4,9,8.1,14,12s4,1.7,5.7,3.3.8,3.4.1,4.2l-2.3.8c-1.4.5.1,3.3.3,4.5-.9,1.7-3.2,2.9-3.8,5,2.9,10.1-3.3,10.6-7.5,17.9s-10.8,31.7-11.8,42.2l-3.5,35.8c-.5,0-1,.2-1.5.5l-2.4,3c-5.7,7-27.4,51.6-34.6,62.8s-3,2-4.6,2.4c-7.6,1.7-14.9,1.2-22.5,0s-10.4-1.6-15.5-3.6l-14.8-5.7c-.6-1.2-1-2.4-1.4-3.6,2.2-6.7,5.2-12.7,8.9-18.8l13.9-23.1c5.8-9.6,11.3-18.9,16.6-28.8l11.3-21.1,17.3-32.1c1.9-3.5,5.2-5.8,8.8-6.6,1-1.9.7-3.8.3-5.8,1-1.5,2.6-2.4,3.7-3.8s1.6-4.9-.4-6.6-2.3-2.6-3.3-4.1c.2-.7-.9-2.5-2-3.1l-10.5-14.5c-3.8-5.2-7.7-10-10.9-15.4-.2-1.5-1.6-3.4-2.7-4.5l-9.9-16.9c-.7-1.3-2.2-1.9-3-3-3-4.3-6.6-7.6-10.6-11s-5-5-7.8-7c0-.3.4-.5.6-.5s.4.4.7.4Z"/>
    <path class="st78" d="M471.8,182.8c-.7.8-1.7,1.2-3.1,1.2-2.3,1.7-5.6,1.6-4.4-1.7,2.8-.4,6.6.5,7.7-.5s-1.1-1.1-1.2-1.1l-7.1-.7c1.3-4.6-.7-9.1-4.5-12.2,4.5-7.9,2.2-19.4-2.1-26.4.2-3.3,5.6-13.3,0-14.6-2.1-.6-4.1,0-6.1.5-.3-12.4-.3-24.7,0-37V14s109.3,0,109.3,0l-59,112.4-29.7,56.4Z"/>
    <path class="st78" d="M60,19c.5,2.5.7,5.2.5,8,.4,4.8.6,9.6.5,14.5,2.5,52.3,4.5,104.6,6,156.9l-.9.6-55.7,6.6-1-.8L11.3,13.9h48.5c.3,1.9.2,3.5.2,5Z"/>
    <path class="st78" d="M529.7,235.1l4.8-.8c25.8,1.2,51.5,2.5,77.1,3.7l.6,1c0,.4,0,.7-.2.8-1.8,1.3-4.2,2.6-6.2,3.2-19.3,11.1-39,22-59,32.9h-1c0,0-60.4,33-60.4,33l-171.9.3c-.9,0-1.3-.2-1.1-.7v-1.1c25.7-8.9,51.5-17.6,77.4-26.1l1.2.4.5-.6,6.4-.2c.3-1.1,1.5-1.9,3.5-2.4,2.6-2.3,5.7-3.7,9.4-4.2l1,.7c6.6-1.6,13.1-2.9,19.7-3.9-1-1-1.2-1.8-.6-2.6-.4-.7,0-.9.6-1.2l84.7-28.3h1c0-.2,0-.3,0-.4,3.7-1.4,8.1-3,12-4.1s.3.2.5.5Z"/>
    <path class="st77" d="M285.3,107.3c1.4,2.6,2.6,5.3,3.5,8.4-.5.2-.3.3.5.2.2-.4.3-.4.5,0-.5,2.2,1.6,3.7,2.2,5.6s1.6,4,2.7,6c1.8,3,3.3,10.7,6.2,11.9,1.5,4.1,3.6,7.7,6.3,11s2.1,1.5,3.2,2.3c2.1,1.5,3.6,3.7,5.9,4.6.8.2,1.4.2,2-.1-.2-.4,0-.5.4-.3.3-.1.5-.2.7-.1,1.1.5,6.2,3.6,6.5,4.2s0,.5,0,.7c2.1.3,3.9,1.7,5.1,3.5.4.2.5,0,.3-.3-.2,0-.3,0-.4,0-1.1-.8-3.1-2.3-3.4-3.4-1.4.5-3.7-2.3-2-3.1s7.3,0,7.6.3.3.4.3.7c1.9.2,3.8.4,5.5.7l-.5,1.1c7.9,0,15.8.5,23.6,1.3,4.8-.3,9.6-.8,14.4-1.6-.6,0-.4-.2.5-.4l-.9-.3c-2.1.3-3.3-.2-3.7-1.6.2-1.2,1.3-1.5,3.5-.8,3.9-1.5,7.9-2.7,12-3.4l1.4.9c.3,1.4.8,1.5,1.3.4,1.7-.4,3.6-.1,5.5.8l-.2-.9c-.3-.4,0-.6,1.1-.5,5.8-2.4,11.7-5.5,16.8-9.7,9.8-8.2,9.8-7.1,21.5-12,3.3.8,6.7,3.2,10.1,2.1s9.6-8.3,11.9-6.3.4,3.2.2,4.4c-.4,0-.8-.2-.9,0-2.3,3.1-4.2,8.4-3.6,12,.6-.5,1.3-.9,2.1-.9.5.5,1.1-.1,1.8-.5,6.8,17.7-.7,22.7-1.2,28.8s-2.7,3.8-3.7,5.6l-1.2.4c-2.2-1-4.5-1.8-6.9-2.5-.1,1.9-1.8,2.8-5,2.9,1,2.7.2,7.5-2.9,5.2l-1.3-.7c-1-2.8-2.5-5.5-4.3-7.8-.6-.4-.9-.2-.5.4,2.2,1.4,4.1,4.5,4.7,7.2s.4,3.7-.5,4.1c0,2.2-.9,4.3-2.6,6.3-1.7,3-3.1,6.2-4.4,9.4,0,1.5-3.5,10.4-4.6,11.2s-2.6.7-3.6.2c-3.2,7.3-11.7,12.5-19.6,13.6-1,.6-1.8.7-2.4.1-.9-.9-.4-1.6.2-2.5,6.2-5.5,10.9-13,12.6-21.1-.3,2.4-1.2,3.9-2.8,4.7-1.7-.4-3.3-.9-4.8-1.6-2.5,3.7-5.3,7.3-8.3,10.6-1.3.8-2.8.8-4.6,0-1.7.8-3.5.6-5.3-.6-1.3-.1-2.1-.6-2.4-1.5l-.8-.9c.4-2.9.4-8.4-.9-10.9-3.4-6.2-7.2-11.1-11.9-16.4-.3,0-.5.1-.5.5,6.6,5.5,15.5,16.4,13.5,25.7s-2.8,8-3.1,8.3-.7.6-1.4.4l-2.6-.6c-2.5,2.4-5,4.9-7.4,7.4-2.8.6-5.6,0-8.4-1.7v-1.2c1.4-1.8-1.2-3.3-2.8-4.2-2.3-1.3-5-1.9-7.7-1.4l-1-.8c-.6-1.3-1.8-2-3.5-2.3-2.4-1.6-4.5-3.6-6.2-6-5-3.9-9-8.4-12-13.7-.8-3.2-1.6-4.1-2.3-2.9-1.5,1.9-3.6-4.5-2.1-5.5l-.4-1.3c.7-2.1,1.3-4.1-1.1-5-.2-2.7-.2-5.5,0-8.3l.7-.9c.2-.4.4-.6.5-.7,2.4,0,6.3.9,7.8,2.6,1,.3,1.3.3.9,0-3-1.5-6.2-2.4-9.6-2.6l-.3-.7c-.5-.2-.9-.4-1-1-.7-.2-1.2-.5-1.5-.9l-7.7-3.4c-3-.7-6-1.5-9-2.3.2,1.4,0,2.4-.9,3-1.2.1-2.5,0-4-.7l-6.9-6.7c-1.2-.7-1-1.4.4-1.5.6-.3,1.2,0,1.8.9-2.3-1.9-4.2-3.9-5.7-6.2.5-1.3.2-2.6-1-4l.4-.6c-.7-.7-.5-1,.5-.7-.8-.8-1.9-1.7-3.4-2.6-.8-.8-1-1.5-.8-2.2-1.5-.2-1.6-.8-.3-1.5h1c-1.3-1.2-2.4-2.4-3.3-3.8l.3-.7c-.8-.8-.7-1.1.1-.9l.6-.5c-.9-1.1-1.9-2-3.1-2.9-.4-1-.6-2.9.3-3.6l.6-.3c-1.1-.8-1.6-1.5-1.5-2.3-1.3-.4-1.2-1.7,0-2.3.5-.4.2-1.3-1-2.5-.9,0-1-.3,0-.7.2-.7-.2-1.7-1-2.8-1-1.8-1.3-3.5-.9-5.1-.6-.7-.4-1,.5-.6h1c-.8-1.6-.8-2.8,0-3.5.4-.3.9-.1,1.5.6.8-.2.9-1.1,0-2.7.9-1.1,2.3-.8,4.3.8v-.7c.5-.4.9-.5,1.5-.3,1.3,1,2.3,2.4,3.5,4,1.4-.9,0-1.9,0-2.8.2-2.1.2-4,.2-5.9,1.6-2,2.1,3.5.9,4.5Z"/>
    <path class="st78" d="M695.7,242.4l2.5-.8,34.1,1.6c2-.4,3.9-.6,5.9-.6,5.6,2.9,11.3,5.7,17,8.5l1.2,1.5c.5,0,.8.9.1,1.1l-.5,1.5c.7,0,.6.7,0,1l.4.6c6.5.7,13.1,1.2,19.6,1.5l1.5-.6c-.3-1.5.9-1.7.8-.2l.8.2c-.3-.1-.3-.3,0-.5l1.6-1c5.4.2,10.8.3,16,.4l.9.7-5.2,52.6h-72.4c0-.1,14.7-21.9,14.7-21.9,4.6-6.9,9.2-13.9,14.3-20.4.1-.3,0-.5-.3-.4-4.4,7.2-9.2,14-14.5,20.4l-16.5,22.3-107.3-.2,45.3-36.1v-.6c9.4-7.5,18.6-14.6,28-21.5,3.4-3.2,7.5-6.5,11.4-9.3s.3,0,.6.3Z"/>
    <path class="st78" d="M396.8,154.7c-.3.1-.6.6-1.1.5-.9.6-2.1.6-3.7-.1-1.3.5-2.2.4-2.9-.1-4.5.3-8.6,2-12.9,3.5s-2.8-.7-3.9,0l-.5,1c-9.6-.3-19.2-.6-28.8-.9l-.6-.8c-1.8-.9,0-2.9,1.4-1.5.9,1.1,1.2-1.6,1.1-2.8-.9-3-.4-3.9,1.4-2.7.4.2.7.2,1,0-.2-.3,0-.4.5-.4,1.1-.8,1.6-1.8,1.5-3-3.2-10.1-6.6-20.1-10.3-30,0-1.6.5-1.6,2.1-1.4,3.7,3.3,17.5,5.1,11.8-2.6-1.8-1.4-3.4-2.9-4.8-4.6l.2-.9c-1.5-3.5-3.4-6.8-5.9-9.9-5.8-7.3-16.8-7.8-18.3-12.8l-3.5-10.9-12.2-31.1c5.9-.2,11.2.2,16.7.7s2.8-.4,4.4-.5l16.5-1.4c4.9,7.9,7.5,16.4,10.4,25.2,6,18.9,1.7,22,5.9,35.5l3.1,10c1,3.3,3,6.2,3.7,9.5s4.6,15,7.4,17.5,3.6,1.3,5.1.5c1.3,2.6,4.2,4.6,7.3,3.9s1.4-1.1,2-1.6c.5-1.2.9-1.5,1.3-.8,4.2.8,7.8-1.2,9.7-5.3s.2-3.9,1.1-5.6,3.6-4,4.3-6.5,1.1-6.8,1.5-10.2-.6-6.1-1.4-9.1-6.1-23.1-6.3-23.5c-2.5-4.3-5.6-8.4-9.7-11.6-1-2.5-.9-5.6-1.6-8.7l-4.2-22.3,52.2-4.5.2,62.2v35.8c-2.2-.5-3.2-2.2-4.3-4.1-1.8-3-5.6-5.8-9.2-4s-6.4,11.6-6.4,14.8c-6.7,6.3-14.2,11.2-22.1,15.5.4.5.8.3,1,.4Z"/>
    <path class="st78" d="M614.7,239l.4-1c26,1.2,51.9,2.3,77.9,3.5l.6,1c.2.3.3.5.2.6-3.2,2.8-6.9,5.5-10.4,7.8-8.8,7.4-17.9,14.7-27.4,21.9h-.7c0,0-44.1,34.1-44.1,34.1-1.1.8-1.9,1.4-2.7,2.7l-120-.4,58.3-32.8c0-.2-.2-.4-.1-.4,19.5-10.9,39.9-22.2,59.5-32.5,2.3-1.8,5.5-4,8.6-4.6Z"/>
    <path class="st77" d="M777.1,252.6c0,1.8-.2,3.7-.5,5.5-4,0-16.2-.2-19.2-1.3s-.4-.4-.6-.8c-.2-.7.2-2.7.8-3v-1.3c11.1-70.6,26.1-140.9,43.4-210.9l1.1-.4c1.1-3.2,2-7.1,2-10.6l-.9-.7.9-4.8c-.1,1.2-.6,1.9-1.5,2l-6.8,1.1-.9-.6-2-.4-62.2,1.4-.7-1c-2.6-.2-6-.6-8.6-.2s.5-.1.6.3c.2.5.1.9-.2,1.2-37.8.9-75.3,1.7-112.8,2.3.4-1.7.6-3.5.1-5.2l12.7-1.3c-11.2.2-22.4.3-33.8.4l-1-.5c1-3.1,0-6.4.3-10h224.5s-30.5,206.4-30.5,206.4l-4.3,32.2Z"/>
    <path class="st78" d="M96.3,14.8c-.2,1.2-.9,1.1-1.8.6.3,1.3.3,2.8,0,4l.4.2c0,5.7,0,11.3,0,16.8l.2,27.4,2.3,114.8c.1,6.4,0,12,.6,18.2s-.4,2.1.7,2.3c.3.1.3.3,0,.5-.6.4-1.3.3-2.3.5l-20,3.6c-1.9.3-2.3-.4-1.1-2l-1-.7-.2-4.2-7.7-181.9.3-1.2h29.3c.7,0,.9.7.3,1.1Z"/>
    <path class="st78" d="M316.4,170.8c-1,.6-4.3,1.2-5-.1-.8.2-1-.1-.6-1-.8.2-1.6.2-2.5,0v.6c.5.3.1.7-1,1l.6.5,5.7-.2.2.7c.7-.2,1.2-.2,1,.6,1.1.6,2.6.9,4.3.8l.3.7c1.2,1.7-.6,7.8.3,8.8s1.4.2,1.6.8c.6,2,0,4.5-1,5.9-1.4-.5-.2,3.4.2,4.3s1.6,3.2,1.9,1.2c-.4-.5-.7-1.2-.5-2.1,1.3,0,2.4.7,2.8,1.9,3.1,10,10.1,12,15.8,19.6s7.4,1.9,6,5.6c0,.6,0,1-.4,1.2,4.8-.4,8.6.6,11.9,4.1v1.1c1.8,1.2,4.8,2.3,7.2,2.4,2.9-.7,6.5-8.4,8.9-7.8s2.4.3,2.3,1.6c.6,1.8-.7,5.3-2.5,6.4-.5,0-1.1.3-1.5,1,.1.3.2.7,0,1-3.6,4.8-15,6.3-20.9,6.4-1.7.7-3,.7-4,0-1.3,1.2-1.1,1.8-.3,3.2l-.7,1.8.7,1.2c-.6,1.5-.7,3.2-.3,5,1.5,4.9,3.8,9.5,6.8,13.9,2.3,6.3-.5,18.7-8.9,13.9-1,1.4-2.9.1-2.3-1.5-.7-.4-1.1-1-1.4-1.8-3.8-10.3-8.3-19.8-13.4-29.3-2.4-6.5-1-11.9,4.7-16.1-2.7,1.6-5.1,3.9-5.8,7l-1.1.6c-.3,2.4-2,4.7-3,1.6-.4-.2-.9-.5-.8-.7.2-.9,2.6-7.5,3-7.7s.5-.1.7,0c.5-1.4.9-2.8,1.2-4.3.7-.1.7-.7-.1-1.6,0,.4-.2.4-.4,0-.2,1.3-.9,1.2-2.1-.2-3.1-1.6-6.1-3.3-9-5.3l.7,4c.9-.6,1.9-.3,2.8.9,1.5-1.4,4.2-.9,4.9.9,1.3-1,3.8,2,1.5,2.4.4.7.2,1.3,0,2-2.9,7.8-6.3,14.5-11.1,21.3-4,6.9-7.9,14.1-3.9,21.6.6-2.7,2.2-2.2,4-.8s4,6,1.4,6.9c-1,2.2-3.1,3.2-6.4,2.9-5.5-1.1-12.3.4-14-1.8l-4-16.6c-1-4-1.3-7.7-.1-11.7,5-16.6.8-17.9,2.3-22.1l4-11c.4-1,.2-2.6.9-3.5,1.6-2.1-.4-3.6-.5-5.1s-.7-4.2-.3-5.9l1.3-5c1-3.6,5.7-4.4,3.6-7.7l3.7-3.1c.6-.5,1-1.2.8-2s-.8-1-1.3-1.7c.8-.6,1.7-.4,2.5-1.1-1.5-.8-3.2-.5-4.3.4,0,1.1.8,1.7,1.3,2.6s-.4,1-.7,1.2-.8-.5-1.4-.4l-58.5,8.2c0-1.6.1-2.9.6-4.5l53.5-7.6c.8-.9,3.2-.8,4.5-.5,1.2-.3-.6-1-1.5-.5-.8.5-2.6.7-3.5.4-.9.3-2.2,0-3.6,0l4.9-2.3c.5-.8.3-1.7.8-2.9,2.5,1.6,5,3.1,7.8,3.5,1.2,0,1.6-.2,1-.6-2.9-.7-5.4-2.5-8.1-3.8-.9-.5-1.2-1.4-1-2.7-.6,0-.7,0-.4-.5-1.3-1-1.4-1.8-.4-2.3-.9,0-1-.4,0-.7,0-1.3-.5-2.6-.2-4,1.8-.2,3,1.2,4.4,1.2,3.1,0,11.6,2.7,13.3,5.6Z"/>
    <path class="st78" d="M113.4,175.1c-1,.7-1.5.2-1.5-1l.3-48.3c-.8-19.7-1-39.8-.5-60.1-.8-11.9-1.5-23.7-2.2-35.6l1-2.1c1.8,1.6,4.3,3,5.7,5.4l11.3,19.4c8,13.7,20.8,27.3,30.1,40.4-.2,1.3,1.2,3,1.1,4.2-.2,2.4-3.4,3.6-5,5.2-.4,1.7.5,3.3.6,5.1-3.8,1.1-6.9,3.5-8.8,7.1l-7.1,13.4-15.3,29.5-9.6,17.4Z"/>
    <path class="st107" d="M399.8,113.9c-.8,2.8,1.1,11,1,14.7-1.1.8-2.2,1-3.1,2.1,1.1.9,2.1.1,3.6,0-2,3.6-1.4,6.3-6,8.4l-1.1.5c-.1,0-.3,0-.5,0l-.6-1.8c.7-4.5,1.6-13.6-.5-17.7l-1.4-.9c-.1-.4-.4-1.1-.8-1.1-2.7.1-.3,11.3,0,13.5l-3.3,2.2c.6.8,1.7.5,2.6,1.2-.3,1.9-.3,3.8-1,5.4s-2.3.8-3.3.6l-1.2-1.7-1.3-11.8c0-1.3-.5-2.5-1.3-3.4-.2-.3-.7-1.9-1.1-1.3-1.6,2-.8,4.6-.8,6.9s-1.9,2.4-3.5,2.1c0,1.6,1.7,1.7,2.8,1.7,1.5.2,1.4,2.8.6,3.9-2.6,1.3-5.1-3.7-5.9-6l-2.8-8.5c-.5-1.6.1-3-.6-4.9-2.8-7.9-6.5-16.1-6.8-24.6-.4-9.7-1.3-18.6-4.6-27.8-2.3-6.5-4.1-12.9-7.2-19.1s-4.8-9.4-7.2-14.3l-2.5-5.1c-2.2-4.4-4.4-8.6-6.3-13l32-.3,1,1.3c2.2,13.6,5.6,27.2,10.2,39.9.9,9.4,2.7,18.7,9.2,25.8l5.3,9.3c2.1,7.2,4.6,14.3,7.4,21.2.4.8,0,1.5-1.1,2.1Z"/>
    <path class="st77" d="M383.8,240.1c1.4.7.6,3.5-1,3.4-.8.3-.7.7,0,1.1.4,1,.6,1.9.6,3-.3,7.8-1.4,16.2-3.1,23.7-.3,3.9,1.7,5,5.3,5.9l3.9,1.7.3,1.1c.8.5.6.8-.4.5.3,1.2-1,1.5-1.5.3-1.8,0-3.6-.6-5.2-1.7l-11.6.8c-19.8,3.6-39.7,5.6-59.7,6.2-5,.4-11.3.9-16.1,1.8s1.1.8,1.4,1c2,.6,3.3,1.6,3.8,3,.7,0,1.1.2,1.2.6,2.1.5,5,4,5.8,6s-2.2,3.3-3.4,1.5c-3.7-3.9-9.9-5.8-15.4-7.2-8.7-2.2-17.1-4.5-25.2-8.3-7.4-3.4-14.3-6.9-20.8-12.2l46.3-11c1.6,6,2.2,12,4.4,17.5,2.1,2.7,7,2.5,10.1,2.8s6.5,1.2,9.6-.2,1.1-.9.8-1.1c-.5-.4-2.4-.3-4.8-.8,3-1.8,2.8-.2,6.4-2.9,1,.4.9,1,.6,1.8,1.8-5.5.3-9.8-6-10.4-2.4-2.6-.9-12.2,2.2-13.2s.7-.2,1,.2c5.9-1.4,11.7-2.7,17.5-4,5,7.3,8.1,15.6,11.1,23.7l.7.5c.5.7,1.5,1.2,2.3,1.5,2.1,1.3,5.1,1.8,6.8-.3,6.1-7.4,1.8-16.2-3.1-22.9l.5-1.3c0-1.6-.4-3.2-1.2-4.5-1,0-1.1-.4-.2-.9,11.7-2.5,23.4-5.2,35.1-8,1.2,0,1.9,0,1.1,1.3Z"/>
    <path class="st78" d="M20.5,225.7c-.8.7-1.9.9-3.5.5-.5.9-2.5.7-3.5.5-.3.2-.2.4.5.5,1-.5,2.2-.6,3.5-.5,1-.4,2.1-.6,3.5-.5l67.3-8.9c-3.9,6.6-7.4,12.8-9.7,19.9-.8,2.2-1.2,4.3.9,6.2l-3.2,6.7-67.5,11.6.3-40.7,83.4-11.4c-.6,2.2-2,3.8-3.1,5.8l-68.8,10.3Z"/>
    <path class="st78" d="M267.7,52.8l7.3,11,6.9,9.7.8,33c-1.5-.6-2.3-1.9-3.8-2-.6,1.4.8,2.3,1.8,3.1-.1.2-.2.5-.4.5-.4.1-.7-.1-1-.2l-.4.5c-1.8-1.5-3.2-1.8-4-.9.6,1.5.6,2.5,0,2.9-.3.3-.7.5-.9.1s-.6-.5-.6-.7c-.5.2-.8-.1-.7-.4s.6,4-.3,4c-.2.2-.3.5-.5.6-.4,1.5,0,3.1.8,4.8.8,1.2,1.2,2.2,1.1,3,0,.2,0,.5,0,.7,1.1,1,1.4,1.9,1,2.5.2.7.3,1.7,0,2.3l.3,1.1c.8.5,1,1,.6,1.5.4,1.3.9,2.7-.3,3.6,1,.7,1.8,1.6,2.7,2.4s.2.7-.2,1v.9c-.2.4-.3.4-.5,0h-.5c1,1.3,2.1,2.5,3.3,3.8l-.3.7c0,.5.1,1,.3,1.5.2,1.2.8,2.6,2,4.1l-.2.6c1.1.9,1.4,1.6.8,2.3.6.6.6,1,0,1.1,1.8.6,2.6,3.5,2,5.1.2,5.7.2,11.3,0,16.7.4,1.5,1.1,4.4-1.1,4.5-.2,0-.8.1-.8.4.9,1.8,2.7,2.3,4.3,2.6.4.2.4.3,0,.6l-42.4,5.5c.4-2.8.5-5.4,1.3-7.9l36.5-4.5c.4,0,.7-.4.8-.6s0-.4,0-.5c-.3,0-.7-.3-1.1-.2l-35.9,3.8,11.6-60.8,8-33c2.4-10.1,3.4-20.1-.6-29.6l-.4-1c0-.2,0-.3,0-.5.7-1.8,1.8-.7,2.8.3Z"/>
    <path class="st77" d="M796.6,218.8l.2,1.1c-5.9,12.5-11.8,24.9-17.9,37.3l.2.4c0,.2-.3.5-.5.7s-.5-.3-.6-.7c-.2-.6-.4-.5-.5,0-1.2,0-.8-3,0-3.5l22.9-150.8,13.3-89.3h9.4c0,0-11.3,104.2-11.3,104.2,0,.8-1.3.8-1.4,1.6l-7.3,48.3c0,.4-1.5.4-1.4,1s.6.8,1.2,1.2l-6.1,44.9c-.2,1.5-.3,2.5-.1,3.7Z"/>
    <path class="st107" d="M348.7,110.7c1.4-.7,5.6,3.7,5.4,5s-3.1,2.4-3.9,1c-4.9-1.1-9.3-3.5-13.4-7.2-1.2-.2-2.5,0-3.9.5-2.3-1.4-4.6-2.8-6.9-4-2,.4-3.2-.2-3.3-1.8-6.7,0-10.4,1.3-10.4,8.8,0,13.1,3.8,23.3,12.9,32.2.1.6.8,1.5.1,2-2.5,2-5.8-3.2-8.6-6.5-14.7-17.1-9.2-34.6-16.9-47.5l-3.9-6.5c-3.2-5.3-7.1-9.7-11-14.5-8.8-10.9-15.9-22.6-22.5-35-4-7.6-8.2-14.8-11-22.7l27.3-.3,1.1.3c10.4,24.7,23.1,48.8,37.9,71.6,4.2,6.5,10.5,9.9,17.5,12.2,3.3,2.1,6.2,4.9,8.6,8.3l4.9,4Z"/>
    <path class="st78" d="M464.3,182.3c2.1,4.6,1.6-.2,7.5.5l-15.5,30.9c-1.5,4.4-3.8,8.8-6.5,12.5,0,1.7-1.2,3.9-2.5,5.1.5.2.8.6,1,1,4.3,0,9.6.2,14,.8l1.6,1.1c1.1-.5,3.1-1.4,3.9-.5l1.6-.5c.1-.5.3-.4.5,0,7.3-.8,14.7-1.2,22-1,11.2.2,22.7,1,33.8,1.8v1.2c.2.3.2.6.2.6-2.9,1.2-6.6,2.4-9.5,2.8v.4s-84.5,28.2-84.5,28.2l-.9-.7-1.1.4c-.1.4-.3.5-.5,0h-1.3c-.9-.7-5.3-6.7-4.8-7.5s6.4-2,6.7,0l1-.6c10.5,5.3,16-4.2,9.7-13.4-5.5-7.3-11.2-14.2-17.2-20.9-1.2-.7-1-1.5-.5-2.6l-.2-1.4c5.9-9,10.6-18.5,14.1-28.4,1-1,2.6-1.4,2.7.1l1,2.1c1.1,1.3,2,2.5,2.8,3.7.3.2.9,3.1,6.5,0,.6-.5.9-.5,1,0,.2.6.7,1,1.2.9,4.9-1.4,1.2-9.6.3-12.8l5.6.5c1.8.1,3.2-2.7,4.1-4.1s1.7-.2,2.4-.3Z"/>
    <path class="st78" d="M290.8,232.6c.6,1.6-.6,1.3-1.4.6l-1.5.5c-.2.4-.3.4-.5,0-.6.2-1.3.3-2,.5,0,.7-.9.8-1,0l-1.5.5c-.7.8-5.1,1.8-6.1,1.5s-.3-.3-.4-.6l-1.5.5c0,.6-.6.4-1,0-.4.2-.9.3-1.5.5,0,.2-.1.4-.3.6-.5.5-5.1.8-6.2.8-.2.2-.3.2-.5,0-.8,1-3.1,1.2-4.5,1l-22.7,4.1,2.5-20.4c0-.5.9-.6,1.2-.6.7-.5.7-.7,0-.6-.3,0-.7-.2-.8-.4s-.1-.5,0-1l2.9-24.7,56.4-7.9c.2,1.6.6,2.8.5,4-1.5,1.9-3.7,3.5-4.5,5.9s.4,2.5-.7,3.5-.2,3-.5,4.2c-1.4,6.2,2.1,2.1,0,11.3s-6.7,12.1-4.2,16.2Z"/>
    <path class="st77" d="M96.3,14.8c.4,0,.5.2.5.7.2,1.6,1.8,2.3,3.1,3.4l10.5,9c0,17.2,3,29.1,2.1,47.4-.4,8.3-.3,16.2,0,24.5l.7,26-.3,48.4c0,.5.4.8.6.9-3,5.4-5.9,11.1-9.5,16-1.3,0-2.2-1.2-2.9-3.4v5.3c0,0-1.1.7-1.1.7-.3.2-.5-.2-.5-.5v-15.1c0,0-3.4-128.1-3.4-128.1-.1-5.1.1-9.5-.4-14.4s-.3-5.9-.2-8.7l-.5-.5v-9c-.2-.6-.4-1.2-.5-2,.1-.7,1.3-.7,1.8-.6Z"/>
    <path class="st77" d="M468.3,219.1v.9c-2.3,4.2-4.3,8.5-6,12.9-4.4-.1-8.7-.5-13.1-1l-1,.3h-1.2c-.7-.1,0-.6.2-1,1.1-1.2,1.9-2.5,2.5-4.1h.5c0-1.1.3-2.1,1-3.1,1.5-3,3.2-6.4,4.9-9.3s.3-.1.5-.1l64.7-122.1,41.4-78.4c2.8-.1,5.4-.3,8.4,0l-57,112.7-15.8,31.3-30.3,61.1Z"/>
    <path class="st78" d="M66.3,254.6c-3.9.8-3.4,7.7-3.6,10.3l-1.3,12.3-53,10.2.2-24.1,66.7-11.8c-.4,1.4-2.7,5.6-4,5.6s-1.9-3.1-4.9-2.5Z"/>
    <path class="st78" d="M387.8,280.9v.7c-25.4,8.9-51.2,17.7-77.1,26.1.4,0,.9.2,1.6.9.2.2.4.3,1.1.4h171.9s-178.4.6-178.4.6c-.3-3.7-1.3-6.7-3-9.5.9-.2,2,.3,2.9-.5-2-2.5-3.4-5-5.3-7-.2-.3-.6-.5-1.2-.6-2.7-1.3-5.4-2.4-8-4.7l17.1-1.9c5.5-.6,10.7-.2,16.4-.7,13.5-1.1,26.6-2.7,39.9-5.1,5.7-1,11.2-.8,16.9-1.4,1.6.7,4,1.5,5.1,2.7Z"/>
    <path class="st77" d="M237.4,249.2l2.5-1c16.9-1.3,33.4-3.9,49.7-7.7l.8.9c0,2.5-1.4,4.6-1.2,6.9.3,4.1-2.3,3.6-.8,12l-47.3,11-6.1-4.7c-1.6.7-2.7,1.8-4.6,2.2-.5-1.2-.9-2.5-.6-3.8,3.5-.6,5.7-2.6,6.2-5.9l1.5-9.8Z"/>
    <path class="st78" d="M307.8,51.9c.9,0,1,.2.9,1s-.9-1.1.6-.5l8.9,22.5c-.6.1-.4.8.6,1.9v.6c.6-.1.8.5.5,1.1l1.8,4.6c.3.7-.1,1.4-.1,2.2,3,4,7,6.9,11.7,8.7,7.8,3.1,10.2,9.8,14.3,14,1.6.7,2.3,1.6,1.8,2.6-5.8-1.5-8.1-7-11.4-9.8-4.4-3.8-13.7-2.1-23-18.1-3.4-5.9-7.5-11.1-10.5-17.3s-6.1-11.6-9.5-17.4l-6.7-13.3-9-20.3-27.3.2,43.7-.6c.8,2.1,1.4,3.7,2.1,5.7l6.2,19c-.9.1-1.3.3-1.3.6.2,1.7,2.2,0,3,3s1.6,3.3,1.8,5.2.2,3.2.9,4.4Z"/>
    <path class="st78" d="M448.9,123.3c.3,1.5.3,3,.1,4.5.9.3.8.6.4,1.3-.8,1.4-4.9,4.7-6.7,4.2-.7-.4-2,.2-2.6-1.1V14.1s8.2,0,8.2,0l.3,59.3.2,49.9Z"/>
    <path class="st78" d="M393.3,76.5c-.5-.9-.3-1.2.5-.5,8,9.2,4.3,6.3,6.3,13l5.6,17.8c1.4,4.4,2,9.9.5,13.9l-1,2.6c-.4,1.2-1.5,2.9-2,4-.1.4-.3.4-.5,0l-1.5-13.9c-.3-.4-1.4.3-1.5.5.2-.8.4-1.2,0-2.2l-4.7-12.2c-1.3-3.4-1.5-7-3.4-10.2s-4.4-8.1-7.3-11.6-2.1-2.3-2.7-4.4c-1.6-5.8-3.5-11.5-3.7-17.6l-2.9-8.6c-3.6-10.6-5.4-21.4-7.5-32.6h-31.7c0,.1,43.2-.5,43.2-.5,1.7,20.2,5.3,37.6,9.9,56.7-.3-1.3,3.3,9.5,4.5,8.4.6-1.1.2-2-.2-2.6Z"/>
    <path class="st78" d="M75.4,201.7c0,.9.2,1.8,1.1,2-1.1.2-3.1.8-4.1-.4-2.1-.5-4.5-4.5-5.1-6.6-2.3-52.7-4.2-105.1-5.8-157.3-.3-.2-.5-.4-.5-.6-.3-4.6-.3-9.4,0-13.9-.6-1.2-.7-3.9-.7-5.5s0-.3.2-.5c-.5-1.5.5-3.4,0-4.9,1.9-.4,3.8-.5,5.9-.3,2.7,61,5.2,122.5,7.5,184.4-.2,2.1.3,3.3,1.5,3.6Z"/>
    <path class="st77" d="M177.9,259.6c-1,2.8,4.4,4.1,6.1,6.6-2.4.6-3.5,1.3-3.9,3.2-1.7,7.2,1.9,9.6-.6,15.9-2.2,1.2-5.1,1.4-7.6,2-.6-1.9-3-2.8-4-4.2-6.7-9-6.8-3.5-22.5-8.5-6.2-2-12.5-4-17.5-8.5l48.7-9.6.7,3.1c.3-1.7.8-3.3.6-5.1,0,1.5.6,3.4,0,5.1Z"/>
    <path class="st78" d="M72,203.6c.2,1.2,1.5,1.9,3,1.7l22.3-3.1c-1.1,2.1-2.1,3.7-3.5,5.4l-84.7,11.3v-13.7c.7-.5,1.1-.3,1.5.3l56.9-6.5c1.2.3,2.2,1.4,2.9,3.3l1.6,1.4Z"/>
    <path class="st77" d="M138,254.2l1.8-.7c12-1.4,24-2.1,36.1-2.1-.9-.3-.7-3.1.6-3.2.7-.9.4,6.2.1,6.9l-50.5,9.7c-2.5-1.6-7.1-7.3-9.8-6s-4.5,2.8-7.7,2.1c-8-1.6-5.2-4.9-22.6-3.7-4,.3-7.8.8-11.6.2,2.1-4.3,4.3-8,5.6-12.5,12.4,5.6,17.3,8.1,30.7,10.4s20.5,2.5,27.3-1.3Z"/>
    <path class="st78" d="M176.5,248.1c0,1.2,0,2.4-.2,3.9-12.3.5-24.2,1.2-36.4,2.4-.8,0-1.4,0-1.9-.3,1.3-.6,1.6-2,2.3-3.2,2.5-4.1,5.1-7.9,7.3-12.2l6.4-1.2c0-.2,0-.5,0-.5,1.9-.8,6.3-1,8.4-1,0-1,2.1-.7,3-.5.1-.3.2-.5.4-.6,2-.5,4.5-.8,6.6-.9.6-.8,2.2-.6,3-.4,1.3-2.1,1,14.6,1.1,14.4Z"/>
    <polygon class="st78" points="437.6 31.9 385.3 36.6 383.9 27 437.6 21.5 437.6 31.9"/>
    <path class="st78" d="M174.9,233.1c-.4.8-2.5.7-3.5.6-2.2,1-4.7,1.5-7.5,1.5-.8.5-1.8.6-3,.4-2.7,1-5.5,1.5-8.6,1.6-1,.4-2.5,0-3.9.3l17.3-30.9,10.2-1.5.3,25.7c0,.6.1,1.4-.2,1.9s-.6.6-1.1.6Z"/>
    <path class="st107" d="M325.8,110.3l1.1.2c.8,1.7,2.4,2.8,4.7,3.1l.3,1.1,1.9,1.2c3.7,10.2,8.3,20,13.8,29.2,1.4,2.2,1,4.7-2.1,4.5-.9,1.1-1.5.4-1-.9-2.2-4.9-4.8-9.7-7.7-14.5l-1.2-.4c-1.1-2.5-2.2-4.9-3-7.4l-.7-.2c-.3,1.3-.9,3.1-2.3,3.1,3.7,5.7,7.3,11.5,10.8,17.4,1.7-.8,3.5,3.1,4.1,4.7s1.2,4.1-.6,4.8c-.7.3-1.6.6-1.4,1.5-.2,1-.8,1-1.1,0-.5,0-.7-.3-.6-.6-1.2-.7-2.3-1.7-3.4-2.8-1.6-3.3-3.4-6.5-5.4-9.5l.4-1.1c-1.5-3.8-3.2-7.7-5.1-11.4l-1.1-.4c.3-2,0-3.4-.8-4.2-.7.2-3,2.7-3,3,0,.5,4.2,7.2,4.8,8.2,1.1,1.8,2.4,3.5,3.6,5.2.4,0,.9.2,1.1.6,1.2,1.6,4.9,7.3,4.3,8.7-2,4.5-7.4-1-8.3-3.6-.8-.8-.2-1.9-.2-3,0-2.4-1.8-4.1-2.9-6l-3.8-6.2c-1.2-2-1.7-3.8-2-5.9-1.3-.4-1.9-.7-1.8-2.3,1.8-3.7,3-7.7,3.5-11.9.8-1.7,3.9-7.4,5.2-4.4Z"/>
    <path class="st77" d="M803.5,200.2l-4.4,42c-.3-.1-.5-.2-.5-.2-.7,1.8-.6,4.9,0,6.7,0,2.9-.6,5.7-.9,8.6-2.4,1.1-5,.2-7.6,0s-7.4-.2-10.8,0c1.1-3.3,3-7.2,4.8-10.5s.3,0,.6,0c.6,1.1.8.8.5-.9-.3-.2-.5-.3-.4-.4,3.8-8.2,7.9-17.2,12-25.1s.3-.4.5-.5c.8-1.8,1.2-4.1.9-6,.9-4.8,1.3-9.7,2.6-14.5.7-1,2.8.7,2,1s-.4-.8.9,0Z"/>
    <path class="st78" d="M437.5,19.5l-53.9,5.6c-.6-3.6-1-7.1-1.1-11h55c.2,1.8.2,3.1,0,5.5Z"/>
    <path class="st78" d="M289.8,115.9h-.5s-.6-.2-.6-.2c-.8-2.9-2-5.7-3.4-8.4-.8-.5,0-5.2-.9-4.5l-.4-26.7c3.9,3.7,6.5,7.8,9.1,12.1l3.2,5.2.5,31.6c-1.9-.7-2.3-2.5-3-4.2,0,.3-3.6-7.4-4-4.9Z"/>
    <path class="st77" d="M331.3,31c-.3-.3-.6-.3-1,0-.4.2-1.8.1-1.9,1l-.8,10.3-20.8-3-5.7-16.3,37.1,6.8c-2.2.6-4.6,1-7,1.1Z"/>
    <path class="st43" d="M72.3,203.3c-.2,0-.3.1-.4.3l-1.7-.3c-1.2-.2-1.2-2.2-2.1-3.4l-58.2,6.6c-.6-.4-.6-.9-.9-1.3v-.5c0,0,57.1-6.8,57.1-6.8l-4.8-137.4c-.2-6.8-.7-12.8-.5-19.1-.5-.8-.5-2.4.5-2,0,1.5.3,2.9.4,4.5l.3,9.1,6.2,144.1c1.4,2.3,2.6,4.3,4.1,6.1Z"/>
    <path class="st78" d="M334.7,27.4l-1.4-.9c-3.5-.3-7-.6-10.5-.9l-22.2-4.4-2.4-7h34.3c0,0,6.5,13.7,6.5,13.7-1.8.5-3-.2-4.3-.4Z"/>
    <path class="st78" d="M290.8,240.2c0,.5-.5.8-.5,1.1l-21.4,4.4-13.9,2.2c-6,.9-11.8,1.3-17.6,1.4,0-.3,0-.4,0-.5l.3-2c.2-.9-.2-2.1.8-2.2l23.3-4.7c.9-1,3.1-1.2,4.5-1,0-.5.6-.4,1-.1,2-1.2,5.1-1.7,7.5-1.5l.6-.6c3.6-.8,7.3-1.4,10.9-1.9.3-.4.7-.4,1,0,0-.5,2.9-1.3,3.1-1.2,1,.4.7,5.5.3,6.7Z"/>
    <path class="st78" d="M350.2,116.7c0,.3,0,.5,0,.7-.8,2.8-10.3-2.7-11.7-3.6-4.3-.6-8.3-1.9-12-3.8l-.8.2c-1-.6-1.5.5-2.1,1.3-4.7,5.8-1.1,7.1-5.4,14.5s.5,1.9.7,2.7c-.5-.3-2.9-.1-2.4.8,2.2,4.5,4.7,8.7,7.1,13s1.5,1.6,1.7,2.7c-3.1,0-10.4-12.1-10.9-13.7-2.2-7.2-3.8-14.9-2.7-22.4s10.7-6.4,11.7-5.6.3,1,.6,1.9c4.6-1.4,5.8,2.9,9.4,3.9,1.7-.8,3.1-1.4,4.7,0,3.8,3,7.9,5.7,12.1,7.6Z"/>
    <path class="st4" d="M96.9,15.5c0-.2-.5-.4-.5-.7,0-.2,0-.9-.4-.9h-28.9c-.3,3,0,5.4.2,8.4l7.9,174.4c0,1.9.3,3.3.2,4.9-.5.4-.6,1.3-1.7,1.7-1.1-3.9-.7-7.5-.9-11.7l-5.8-153.1-.6-18.1c0-2.1-.9-4.2-.3-6.5-2.2-.2-3.8,0-5.6,0-.2-.3,0-.6.5-.6h35.8c.3.8,0,1.4,0,2Z"/>
    <path class="st44" d="M435.8,184.2c.5,0,1.1,0,1.1.4-.3,3.5.5,4.8,2.1,4.1,3.7-1.7,10-2.5,4.6,2.4-2.5.9-3,1.9-1.4,3.1,1.3,1,1.8,2,1.5,3-.2,0-1-.1-1,.2s.5.6.5.8c-4.4-2.6-3.5-5.9-4.7-5.8-2.2.1-1.5,5.1-5.2,11.3s-3,6.4-5.1,9.3-3.2,6.4-5.4,9c.3,1.8-.2,2.7-1.5,2.9,0,.4.1.8,0,1.3-.1,2-6.4,11.3-8.1,13.6l-2,1.3c1.1,1,.5,1.5-.9,1.5,1.4.3-1.3,4.9-1.7,5.2s-.8.6-1.4.4v2c-2.9,4.8-5.6,9.8-7.9,14.9l-1.6,1.3c1.9,2.2-2.2,8.7-4.5,5.1s3.6-13,4.8-15.2l1.1-.2c2.5-7.6,7.2-13.8,12.1-20l-.5-.4c4.5-7.8,9.3-15.7,14.3-23.6,3.7-5.9,6.6-12.1,8.6-18.6,0-2.1,0-4.2,0-6.3-.7-1.6-.3-3.1-.5-4.8-.4-2.5-2.5-4.4-3.7-6.4-.8-1.4-.6-1.6.5-.4,2.6,2.3,4.5,5.3,5.6,8.6Z"/>
    <path class="st77" d="M305.8,144.2c-.3.4-.6.2-1-.4-1.5-3.9-2.9-7.7-4-11.9s-.6-.9-.9-1-.3.7-1.1,1l-.9-36.1c2.6,3.4,3.7,7.4,4.5,11.6l2.3,12.7,2.5,8.8c1.3,4.7,0,10,.4,14.6-.9.2-1.6,0-1.7.6Z"/>
    <path class="st78" d="M327.5,150.4h.7c2.3,4.2,4.8,5.5,7.7,3.9l1.5-.2c1,1.2,2.2,2.2,3.4,3.1.1.2.5.4.6.6,0,.4,0,.7-.3.7-5.1,0-10.3-.2-15.4-.2-3.3,1.5-6.5-1.3-8.6-3.8-.3,1-.6,1.3-1,.9-3.1-2-5.4-5.2-7.3-8.6l.3-14.6c3,5.8,6.8,10.7,11.2,15.3,4.1,4.3,5.9.5,7.3,2.9Z"/>
    <path class="st78" d="M451.8,178.2c-3.4,6-8,6-6.2,9,1.6-.2,2.8-1.6,4.4-2.2.5,1.5,1.5,3.2,1.8,5.1.5,2.9-1.2,5.2-3.6,6.7s-3.2,1.5-4.4.4-3.3-3.1-3.9-5.2c2.1-1.1,4.3-1.8,5.2-4.1-3.2.7-5.6,2.2-8.2,2-1.2-1.9-.5-4.1-1-5.7.7-.3,2.2-.4,2.3-1.5.2-1.7-.7-3.2-.3-4.9l4.7-.4c.3-.9,0-1.7.6-2.7,3.1,1.4,6.3,1.7,8.7,3.4Z"/>
    <path class="st4" d="M348.3,107.8c1.7,2.7,5.8,4.1,7,7.3s-2.4,4.9-4.8,4.9c-3.9,0-7.2-1.7-10.7-3.6,3.1,11.4,8.2,19.3,10.4,30.9s-.3,1.9-.6,2.5-1.1.6-1.7.7l-2.2.2c-1.5.6-1.4-1.3,0-.9,2.8.8,3.1-2.9,2-4.8-.6.2-.6.2,0-.2l-1.9-2.6c-3.5-8.6-6.7-17.3-9.5-26-1.7.8-3.2,0-4.5-1.4-1.6-.6-5.5-1-6-4.5,0-.3,0-1.4.5-1.4,2.3.7,4.1,2.5,6.6,2.8s6.7,1,9.5,3.2,6,2.8,7.8,1.9,4.1-.5,2.7-1.9l-4.2-4.1c-.7-.7-1.1-1.9-1.8-2.6.3.1.6.3,1,.5s.4-.4.4-.8Z"/>
    <path class="st77" d="M222.2,273.7c-9.2,1.7-13.6-5.8-21.7-4s-10.3,1.8-15.5.8l.9-4.3c12.3,3.1,28.7,1.4,40.8-.4l1,4.9c-1.8.8-3.4,2.5-5.4,2.9Z"/>
    <path class="st78" d="M288.4,159.3c0,.5-.2,1-.4,1.5,2.4,2.2,4.7,4.5,6.9,6.9.3,1.3,1.3,2.5,3,3.5v.7c1.4.2,1.3.5,0,1-.3,1.3-.2,2.7-.2,4.4-3.7,2.2-8.6,3-12.3,1l-.5-.3c.2-1.4.4-2.8.4-4.2-.4-5.6-.6-11.4-.6-17.2.9-1.6,3.5,1.4,3.6,2.7Z"/>
    <path class="st78" d="M329.8,41.5c.5-3,.8-5.9.6-8.8l1.9-.8,8.3-.6,4.6,9-15.4,1.8c-.2-.3-.2-.5-.2-.7Z"/>
    <path class="st36" d="M605.7,243.1c.8-.4.9-.2.4.5l-59.3,32.9c0-.6-.7-.4-1.1-.4l60-32.9Z"/>
    <path class="st7" d="M808.1,153.3l-4.1,42.4c0,.8-3,.5-2.9-.5l6.5-42.9c.7-1,.8,0,.5,1Z"/>
    <path class="st80" d="M433.9,132.2c-5.1,1.5-9.4,3.1-14.3,5.7,1.5-4.3,2.9-8.4,5.8-11.7s4.8.8,5.6,2.2c1.1,1.5,1.7,2.7,3,3.8Z"/>
    <path class="st7" d="M460.7,173.1c3.7,3.6,1,7.3-1.3,10.8l-4.8-4.7c.7-1.7,1.4-3.1,1.8-4.6,1-2.4,2.3-4.5,4.3-1.5Z"/>
    <path class="st83" d="M797.1,219.2c.4.1.4.3,0,.5.2.4.4,1,.1,1.6l-12.2,24.4c.4.8.4,1.1-.5.9l-5.5,10.5c0,.2,0,.3,0,.5-.3.1-.5,0-.5-.3s0-.6.1-1l17.8-37.5c0,.2.2.4.5.4Z"/>
    <path class="st10" d="M393.8,139.7c-.5.2-1,.3-1.5.6s-.4.7,0,1.2c-.5.2-1,.4-1.3.8,2.4-8.9,1.3-14,.5-23,.6,0,1-.4,1.9-1,2.1,6.9,2.4,14.4.6,21.4Z"/>
    <path class="st0" d="M332.3,143.7l4.5,7.4c.8,1.3,1.1,2.7,2.3,3.8s1.3,1.4,1.6,2.2c-1.7.8-2.6-1.4-3.6-2.1-1.8.2-4,1.9-6,.2s-2.9-3.6-3.7-4.9c.4.4.8-.2.5-.5,2.2.8,3.8,6.1,6.7,4s-3-5.7-3.9-9.7c-.5-.4-1-1-.4-1.4-.3-.3-.2-.4.3-.4,1.1-.5,1.5.2,1.6,1.3Z"/>
    <path class="st7" d="M457.3,133.3c-.9,4.8-2.7,6.8-2.4,11s-1.5,1.8-2.8,2.4c-1.5-1,.7-8.8.9-9.3l3-5.3c.1-.2,1-.2,1.1,0s.2.9.2,1.1Z"/>
    <path class="st32" d="M683.7,251.4l-28,22c.3-.4,0-.7-.5-.5l28.1-22c1.4-.9,1.8-.5.4.5Z"/>
    <path class="st111" d="M468.7,220.1c-1.9,3.8-3.5,7.8-5.8,11.6s.7,1.6.8,1.9c.5,0,.5.3,0,.5-5.2-.2-10.4-1.6-15.5-1.9,0-.3.4-.7,1-.7l12.5.7c1.9-4.8,4.4-8.9,6.5-13.2,0,.4.2.7.4,1Z"/>
    <path class="st100" d="M457.3,126.8c-6-1.5-10.7,8.6-14.6,6.5.8.8,5.7-3.9,5.9-4.6.5-1.7.3-3.8.3-5.4.9,1.2.3,2.8.4,4.8.7.2,1.2-.4,1.5-.8.5-.6.1-1.4.1-2v-34.4c0-.4.1-.6.4-.6v36.4c1.8-1.3,5.6,0,6.1,0Z"/>
    <path class="st12" d="M176.2,203c-3.1.4-5.8,1.2-8.8,1,3.6-6.5,1.8-4.7,8.9-5.8.1,1.7.1,2.8,0,4.8Z"/>
    <path class="st59" d="M777.6,254.1c-.2,1-.4,2.6,0,3.5s-.3,1.6-1,1.5l-21.1-1.8c-.4,0,.4-1.3.6-1.2,0-.8.4-.8.7,0,6.2,1.4,12.7.7,19.4,1.3.7-1.9-.1-3.5.9-4.8,0,.5-.1,1.3.5,1.5Z"/>
    <path class="st40" d="M267.7,52.8c-.9-.2-1.9-.2-2.8-.3-2.4-4-3.8-8.7-5.6-13-.2-.7-.2-.9.5-.5l7.8,13.8Z"/>
    <path class="st116" d="M749,267.5c-4.4,7-9.1,14-14.3,20.4-.1-.2-.3-.3-.5-.4,4.9-6.7,9.2-14,14.5-20.4.4-.1.5,0,.3.4Z"/>
    <path class="st79" d="M385.7,141.2c-1.8-.3-2.2-1.5-2.4-3.5-.5-4.6-.5-9.1-1.4-13.3,3.2-.5,2.7,15.4,3.8,16.8Z"/>
    <path class="st46" d="M103.9,191.2c-.5.7-.2,2-1.4,2.4s-1.8.8-2.5.1v-10.1c0,0,3.9,7.6,3.9,7.6Z"/>
    <path class="st57" d="M176.5,196.1c-1.7.8-3.4.8-5,.8,1.9-3.5,3.8-6.3,5.2-9.7l-.2,8.9Z"/>
    <path class="st32" d="M456.7,214.6l-6.4,12.4c-.7.3-.8,0-.5-.9,2-4.2,4.4-8.3,6.5-12.5,0,.3.2.7.4,1Z"/>
    <path class="st85" d="M457.3,185.2l-6.1-.5c0-1.9,1.3-2.8,2.5-3.9,1.3,1.7,2.5,2.5,3.7,4.4Z"/>
    <path class="st48" d="M334.7,27.4c-4-.6-8.1-.7-11.9-1.9h9.5c1.5-.2,2.2.7,2.4,1.9Z"/>
    <path class="st49" d="M95.4,27c-.6,3.1-.5,6.2-.5,9.5-.2,0-.5-.2-.5-.5v-16.4c.1-.7.3-1.4.5-2,.5,2.9,1,6.5.5,9.5Z"/>
    <path class="st40" d="M460.7,173.1c-.7-.2-1.8-.8-2.6-.1s-.9,1.5-1.7,1.6c.3-2.1.6-3.8,2.3-5.2.8,1,1.7,2.3,2,3.7Z"/>
    <path class="st57" d="M799.2,242.1c.1,2.2-.6,4.3-.6,6.5-1-1.2-1.5-3.4-1-5l1.2-4c.4,1,.3,1.8.4,2.6Z"/>
    <path class="st118" d="M332.4,32l-1.3.9c.1.8.9,2,.4,2.7-2.4,3.7-.1,4.2-1.6,5.9v-9.3s2.5-.2,2.5-.2Z"/>
    <path class="st106" d="M160.9,235.5c1.3-.3,1.8-.1,1.5.6l-8.5,1.5c-.2-.6-1.1-.3-1.6-.5,2.7-1,5.7-1.1,8.6-1.6Z"/>
    <path class="st28" d="M299.7,171.7c1.5.8,2.9,1.4,4.7,1.8-1,1.2-5.9-1.6-3.7.9-.6-.3-1.1-.5-1.4-1.1q.4-.1,0,0c-.2,0-.4,0-.5,0l-.5-.5h-.4c0-.3,0-.7,0-1,0-.8,1.1-.4,1.8-.1Z"/>
    <path class="st60" d="M290.8,240.2v-6c-1.3-.1-2.1.4-3.5.5-.4-.1-.4-.3,0-.5-.4-.1-.4-.3,0-.5.2,0,.3,0,.5,0l1.5-.5c.4-.2,1.1,0,1.4-.6.9,1.5.8,7.7,0,7.6Z"/>
    <path class="st117" d="M61,25l-.5,2c-.4,0-.5-.5-.5-1v-7h.5c.7,1.9.6,3.9.5,6Z"/>
    <path class="st27" d="M808.1,153.3c0-.4,0-.9-.5-1,.4-2.6.8-5.3,1-8,.1-.4.3-.4.5,0,.1-.8-.5,10.7-1,9Z"/>
    <path class="st128" d="M379.9,137.7c.1-1.3-.2-2.6-.6-3.9.3,0,.7-.7,1-.8.5,0,1.8,3.7-.4,4.7Z"/>
    <path class="st64" d="M803.5,200.2c-.3.2-.6.5-.8.8-.7-.9-1.3-1.5-2.1-1.8.3-1.2.6-.8,1.8-.6s1.2.6,1.1,1.5Z"/>
    <path class="st37" d="M265.3,238.1c.5.1.9.3,1,.7-1.4.6-3,.7-4.5,1-.2-.4-.6-.6-1-.6,1.4-.3,3-1.1,4.5-1Z"/>
    <path class="st5" d="M312.8,41.4c.4.1.4.3,0,.5-6,.5-6.3-1.2-4.5-1l4.5.5Z"/>
    <path class="st94" d="M450.7,198.2h-1c.9-1.1,2-2,2.5-3.3,0-.7.4-.7.5,0,0,.6.3,1.6-.3,2.1s-1.3.5-1.7,1.2Z"/>
    <path class="st70" d="M301.3,180.2c.8-.4,1.8-.5,1.5.5l-4.5.5-.5-.6c1.1-.4,2.3-.6,3.5-.4Z"/>
    <path class="st87" d="M133.6,56.9c-.7-1.2-1.6-2.2-2.1-3.5l-.6-.5v-.5c1.6,0,1.7,2.6,3,3.6,0,.4,0,1-.3.9Z"/>
    <path class="st91" d="M797.1,219.7c0-.1,0-.4,0-.5s0-.3,0-.5l.5-1c0-1.3.3-2.7.5-4,1.2-1.1-.2,7.3-.9,6Z"/>
    <path class="st29" d="M259.9,39c-.2.1-.4.3-.5.5-.5-1.2-1.3-2.2-1.5-3.5-.1-.4,0-.5.5-.5.8,1,.9,2.5,1.5,3.5Z"/>
    <path class="st99" d="M318.7,156.9c-.1,0-.3.2-.4.3-.3,1-1.4.4-1.4-.4-.4-.3-.5-1.1-.9-1.3.3-.3.5-1.2,1-.9.4.8,1.1,1.4,1.9,1.8l-.2.6Z"/>
    <path class="st108" d="M20.5,225.7c.1.2.3.4.5.5-.9,1.2-2.8,0-3.5.5-.4.2-.6,0-.5-.5,1.4-.2,2.4-.3,3.5-.5Z"/>
    <path class="st104" d="M318.3,75c.2.6,1,1.2,1,1.9.2.5,0,.7-.5.6-.8-.7-1.4-1.8-1.1-2.8.3.3.5.3.6.3Z"/>
    <path class="st68" d="M285.4,178.2h-1.6c1.7-.8.9-2.9,1.1-4.5.1-.4.3-.4.5,0,0,1.5.6,3,0,4.5Z"/>
    <path class="st11" d="M174.9,233.1c.2.2.3.4.5.7-.7.9-2.1,0-3,.4-1,.3-1.3,0-1-.5,1.2-.2,2.3-.7,3.5-.6Z"/>
    <path class="st19" d="M156.9,89.9l-2-3.1c-.6-2,3.9,3.7,2,3.1Z"/>
    <path class="st58" d="M809.6,140.8c-.1.4-.3.4-.5,0-.2-1.2.5-2.5.7-4,1.2,1.4-.2,2.9-.2,4Z"/>
    <path class="st96" d="M248.3,15.4c.2.8,0,1.1-.5.9l-1.3-2.1c.7-.3,1.4-.3,1.5.2l.3.9Z"/>
    <path class="st56" d="M265.9,290.1c.1-.2.3-.2.5,0,1.2.2,2.4.6,3.6,1.4-1.8.3-3-.5-4.1-1.4Z"/>
    <path class="st115" d="M307.8,178.8c.4,0,.9-.2,1-.6.7.2,1.5.2,2.5.8-1.2.9-2.5,0-3.6-.2Z"/>
    <path class="st126" d="M258.4,35.4c-.2.1-.4.3-.5.5-.2-1.1-1.6-2-1.5-3.6,1.3.6,1.2,2.2,2,3.1Z"/>
    <path class="st137" d="M809.1,144.3h-.5c.1-1.2.7-2.2.5-3.5h.5c0,1.3-.3,2.4-.5,3.5Z"/>
    <path class="st136" d="M178.3,206.2c-.1-.5,0-1.5.6-1.5.3,1.4,0,2.9,0,4.6-.7-1-.2-2-.5-3Z"/>
    <path class="st84" d="M247.8,16.4c.3-.3.4-.6.5-.9.4,1.3,1,2.3,1.4,3.5-1.1-.7-1.3-1.8-2-2.6Z"/>
    <path class="st71" d="M241.9,222.2v-.6c.5-.6,1.5-.6,2.5-.2-.7.5-1.8.8-2.5.8Z"/>
    <path class="st67" d="M177,184.8c0,.6-1.2.5-1.5.5.5-.6.4-1.6,1.4-2.1.3.7,0,1.2.2,1.6Z"/>
    <path class="st49" d="M305.8,144.2l.9,2.6c-1.2-.8-1.5-1.9-1.9-3,.3,0,.8.1,1,.4Z"/>
    <path class="st60" d="M318.3,157.1c.2.5.2,1.2-.6,1.1s-.9-.8-1.3-1c.2-.2.4-.4.6-.6.4.4.9.5,1.4.4Z"/>
    <path class="st39" d="M218.9,298.8c-1.1.3-2.2.4-3.5,0,.9-.5,1.9-.5,3.5,0Z"/>
    <path class="st55" d="M100.4,197.7c-.4.8-.9,1.4-1.7,2,0-.2,0-.3,0-.5.1-.7.5-1.2,1.2-1.4.1-.4.3-.4.5,0Z"/>
    <path class="st15" d="M303.4,309.7c-1.5-.2-1.9-.5-.6-.9,1-.9,1.6.2.6.9Z"/>
    <path class="st113" d="M309.4,52.4c-.4.2-.6.6-.8,1-.3-.8-.4-1.1-.7-1.6.4.1.8-.3,1.3-.4s.2.7.3.9Z"/>
    <path class="st14" d="M100.4,197.7h-.5c0-.3-.2-1.6.5-1.5,1.1,0,.2,1.1,0,1.5Z"/>
    <path class="st1" d="M67.6,262.2c.3-.3.8-.1.9.1s0,.4,0,1-.3.4-.5,0-.8-.7-.4-1.1Z"/>
    <path class="st102" d="M266.4,290.1c-.2,0-.3,0-.5,0-.4-.3-1.4,0-1.5-1,1-.2,1.5.5,2,1Z"/>
    <path class="st71" d="M319.3,78.5c-.1-.3-.5-.7-.6-1.1.2-.2.4-.3.5-.6,0,.2.7.4.5.8s0,.9-.5.9Z"/>
    <path class="st23" d="M393.8,76c-.3,0-.5.2-.5.5l-1-1.5c1.1-.4,1.1.6,1.5,1Z"/>
    <path class="st9" d="M94.4,293.3c.4-.5.9-.3,1.1,0s0,.8-.7.8-1.1,0-.4-.8Z"/>
    <path class="st3" d="M265.4,69.4c-.6,0-.6-.8-.6-1.2s0-1.2.5-1.2c0,.8,0,1.7,0,2.5Z"/>
    <path class="st6" d="M312.8,41.9v-.5c.8,0,1.7-.2,2.5.3-1,.5-1.8.1-2.5.2Z"/>
    <path class="st77" d="M237.4,248.7c-.4-1,.2-1.6.3-2,0,.6.4,1.7-.3,2Z"/>
    <path class="st73" d="M287.3,181.8v-.6c.7.1,1.4-.3,2,.3-.8.5-1.5.2-2,.3Z"/>
    <path class="st16" d="M66.3,292c-.4.7-.4,1.4-.8.8,0-.8,0-1.1.3-1.2s.9,0,.6.4Z"/>
    <path class="st95" d="M101.6,14.4c.2.2.4.4.2.4-.6.1-.8.5-1,.3s-.6-.8,0-.7c.2,0,.5,0,.7,0Z"/>
    <path class="st136" d="M331.3,31h-1c0,0,.4-.4.4-.4.2-.3.7,0,.6.4Z"/>
    <path class="st77" d="M797.1,218.7c0-.4,0-.9.5-1,0,.4,0,.9-.5,1Z"/>
    <path class="st110" d="M452.7,194.9c-.2.3-.3.3-.5,0,0-.2,0-.5,0-.9s.5-.3.5,0,0,.7,0,.9Z"/>
    <path class="st40" d="M265.4,53.9c-.1-.3-.5-.6-.4-1,.5,0,.4.6.4,1Z"/>
    <path class="st63" d="M402.8,127.3h.5c0,.2.2.4,0,.8s-.3.4-.5,0,0-.6,0-.8Z"/>
    <path class="st10" d="M395.3,139.3c-.3.2-.6.6-1.1.5,0-.6.7-.3,1.1-.5Z"/>
    <circle class="st135" cx="82.5" cy="279.8" r=".3"/>
    <path class="st125" d="M298.8,173.3c-.2,0-.3-.3-.5-.5.3,0,.4.2.5.5Z"/>
    <path class="st77" d="M131.4,53.4c-.2-.1-.4-.3-.6-.5.2.2.5.3.6.5Z"/>
    <path class="st78" d="M786.7,81.7c1-.5,2.5-.3,3.4,0l.9.6c-3.9,17.3-7.8,34.6-11.7,52l-1.1.4c-.4.3-.6,1.1-1.1.8s-.7-.8-.5-1.1l-1-.8c-65.6-3.1-130.7-6.4-195.4-10.1l-.3-1.2c6.6-14.9,13.3-29.7,20.3-44.3l184.5,3.9c.9-.4,1.6-.5,2.1,0Z"/>
    <path class="st78" d="M802.7,26.5c.2.7.3,1.4.3,2.1s0,1.3,0,2c-1.7,9.7-4,19.3-6.4,28.8s-.5,1.2-.8,1.8-.7,1.2-1.1,1.8c-1.7,1.1-4,1.1-6.1,1-.9.6-2.1.6-3.6,0-59.1,0-118.3-.2-177.5-.7l-.3-1.3,12-26.7,1-.2c-.9-1-1.3-2.3-1-3.7v-.7c58.5-1.5,116.7-2.9,174.8-4.3l1.1.5c1.6-1,3.4-.7,5.6-1l1.4-.2c.3,0,.7.2.8.8Z"/>
    <path d="M804.1,30c0,3.5-.9,7.3-2,10.6l-20,85.7-10.3,49.6-10.1,56.2-4,21c-.8,1-1.1-.7-.5-1.5-.4,0-1-.3-.9-.5,1.8-12.8,4.3-26,6.7-38.8.3-6.2,1.4-12.1,3.1-17.9l.6-.3-.4-1.7c.7-7.4,1.6-15.1,3.3-22.4s.4-1,.6-1.5.6-1,1-1.4l-.7-1.3,2.8-12.7c-63.8-4-127.4-8-190.8-12-.4-.8-1-.9-1.5,0l-7.4-.4-15,33.3c.2.8,16.1,2.3,16.8,1.8l1.7-15.7c.8-1.3,1.3-1.9,2.2-.4l1,.5-.6,15.9,183.2,16.2c1.9,0,2.9.6,2.9,1.9.9,1.8-1.4,2.5-3.1,2.3l-171.2-15.8-.5-1.1c-3,0-6-.1-9-.6-.8,1-1,1-1-.3-.7.3-1.4.4-2.1,0l-.6,1c-7.2-1-14.5-1.8-21.7-2.5l-41.7,6.2c-2,.2-3.9.1-5.8-.1-2.8-.1-3.9,1.6-3.3,5.1l.2,1.9,1,1.1.7,6.2c83,9.5,167.5,19.6,251,29.9,2.7,1.6,1.6,3.8-1.3,4.1l-213.2-26.2-.5-1.1-.5.9c.4.1.4.3,0,.5-1,.7-1,0-.6-1,0-.1,0-.3,0-.4l-1.4-.5-34.3-4.3c-.8-.1-1.5-.5-1.8-.9s-.3-1.3-.3-1.9v-13.8s51-8.5,51-8.5l15.5-34.9-33.6-2.4c-.2-.3-.7-.5-.6-.6s.6-.3,1-.3l36.8,1.8,83.5,5c2.5.1,4.5.5,6.6.3,3.8-.2,7.7,0,11.5.5l.5.5c.1-.7.5-.5,1,0l5.6.2,91.5,5.6,3.3-15.3,11.9-52.9,4.6-18.9c2.9-12.1,6.1-24.2,8.1-36.5.2-1.2.5-3,1.3-3.2,2.2-.6.7,3.3,0,6.7Z"/>
    <path d="M786.7,81.7c-.8.4-1.1,1.4-2.7,1l-183.4-4.1-20.1,44.4,46.7,2.3,148.8,7.4c.5.5.9.6,1,1s-.4.5-.5.7c-.5.3-1,.5-2,.4l-125.8-6.5c-.7.3-1.9.6-2.5,0l-66-3.9c-.3.2-.6.2-.9,0-3.6,0-7.2-.1-11-.4l-28.8-1.7c-.2,0-.7-.5-.6-.7s.6-.2,1-.2l38.7,1.6,20-44.3-34.9-1.2c3.3-1.8,7-.6,10.7-.5h21s12.5.3,12.5.3l15.6.3,161.6,3.2c.9,0,1.9.5,1.8,1Z"/>
    <path class="st44" d="M620.1,35.1l-12.2,27.7h103.2c0,0,73.9.2,73.9.2,1.5,0,2.5.9,3.5.9-.4.9-1.1,1.5-2.5,1.5l-141.4-.8-53.4-.5-25.1-.2c.9-1.2,2.2-1,3.6-1h35.9c0-.1,12.9-28.1,12.9-28.1.3-.3,1.4.3,1.6.2Z"/>
    <path class="st44" d="M609.2,25.3c-.1.4-.3.4-.6,0-.2-.4-.8-.5-1.5-.5h-20.3c-.2-.3.1-.6.3-.8,5.1.1,10.1-.2,15.6-.3l71.4-1.7,121.8-2.5c.8,0,1.5.4,1.6.8s-.4,1-1.3,1.1c-62.5,1.8-124.9,1.7-187.1,4Z"/>
    <path class="st44" d="M722.1,27.1c2.5-.7,5.4-.5,8,0l10.3-.2,52.6-1.3c.7,0,1.4.2,1.7.5s.2.6.2.9c-1.2.8-2.8.5-4.5.6l-71.1,1.7-100.3,2.2h-9.4c-.4,0-1.1-.4-1.1-.7s0-.4.1-.6c0-1.7.1-3.2.5-4.7.9,1.4.4,3.2.2,4.9l29.7-1,80.3-2c1.1,0,2.1.6,2.6-.2Z"/>
    <path class="st4" d="M538.2,213.1c1-1,1.5-.9,1.5.2,2.1-1.2,2.3,1.2-.2,2.5l-63,16.7c-2.3.4-4.5.7-6.8.8-.1,0-.3,0-.5,0l-1.6.5c-1.3.2-2.6.6-3.9.5v-.5c1.9-.7,3.8-1.3,6.1-1.9l68.3-18.6Z"/>
    <path class="st88" d="M564.1,76.2c-.5-4.4.2-8.6,1.1-13.2.6,4.4,1,8.8-1.1,13.2Z"/>
    <path class="st44" d="M537.2,128.8c-.1,2.1,1,4.3-.2,6.7-1.3-3.4-.7-6.9-.3-10.2,1.3-.6.8,2.4.5,3.5Z"/>
    <path class="st75" d="M677.6,144.3c-.3,0-.7,0-1,0l-.5-.5c-2.4-.1-4.9.2-7.5,0s-2.7-.5-4-.4c2.1-1.3,4.9-.3,7.5,0s5.3-.6,5.5,1Z"/>
    <path class="st72" d="M542.8,205.7c.5,1.2.1,2.7-1.1,4.4-.3,1.6-.9,2.6-1.9,3.1-.5,0-1.1-.3-1.5-.2,1,0,2.8-7.2,4-8.4,0,.4.2.9.6,1Z"/>
    <path class="st126" d="M537.2,128.8c0-1.1.4-2.7-.5-3.5.2-1.3.3-2.8,1-4.4,1-2.5-.3,11.2-.5,7.9Z"/>
    <path d="M608.7,30.1c-1.1-1.6.3-2.5,0-4.7.2,0,.4,0,.6,0-.3,1.6.5,3.4-.5,4.7Z"/>
    <path class="st33" d="M646.2,128.2h2.5c-.8,1.1-2.5.6-4,.5.4-.6,1-.3,1.5-.5Z"/>
    <path class="st72" d="M542.1,204.3c-.5,0-1.1,0-1.4-.5.2,0,.5,0,.8-.1s.8,0,.6.6Z"/>
    <path class="st93" d="M580.1,124.3c-.1.2-.3.4-.5.3s-.3-.3-.4-.3h.9Z"/>
    <path class="st4" d="M170.7,110.3c-1.2-2.8,4.5-1.8,6.7-2.6-1.8-1.2-11.8-7.8-13-8.4s-.7-1.2-.5-1.7c1-1.8,15.2,7.7,17.2,9.1s-.5,2.2-1.3,2.5c-3,1.1-6.2,1.2-9.1,1.1Z"/>
    <path class="st36" d="M61.5,39.4c-.8.3-.5,1.3-.5,2-.2,0-.5-.2-.5-.5v-14c0-.7-.3-1.7.5-2-.2,4.6.6,8,.5,14.5Z"/>
    <path class="st77" d="M578.6,178.7c.4.5,1.5.3,2.1,0,.4,0,.7.2,1,.3,3,.5,6,.7,9,.6l42,3.9,129.8,11.9c1.6.1,2.4-.2,3-1.3.1-1.3.6-1.3,1,0l-9.4,57.4c-.2.5-.4.8-.6.9-6.1-2.1-11.5-5.7-17.5-8.7s-4.7.4-6.8.3l-27.5-1.2-8.9-.6c.7-.9,0-.9-2.2.2l-78.8-3.6c-1,.4-1.9.4-2.6,0l-82.5-4c-.4-.5-.1-.8.6-.9-1.6.8-3.1,1.1-4.6,1-.3-.2-.8-.5-1.5-.6l-32.4-1.5-17.1.3c-1.8,0-3.4.4-4.9-.3l69.6-18.4c.5-.1,1-.6,1.1-.8s-.6-.5-.7-.7c.3-2.7,1.8-5.1,3-7.6,0-.2,0-.3,0-.5l.5-.9,214,26.3c.7,0,1.7-.8,1.7-1.2s-.7-1.1-1.6-1.2l-171.2-20.6-79.9-9.2c-.3-3.1-.7-5.6-.6-8.2l-.2-6.3c.5,0,1.1.2,1.8.6l.2-.5c1.2.2,1.6.1,1.3-.4-.4-.2-.4-.3,0-.5l47.5-7.1,18.5,2c1.4.1,2.7.6,3.9.6Z"/>
    <path d="M396.7,228.1c.5,1.5-.3,2.9-2.5,4.3-1.7,1.6-3.2,2-4.4,1.2-1.4.4-2,1.6-1.8,3.4l-1.3.5.6,1.2c-1.5,6.5-2.4,13.1-2.9,19.8-1,4.5-1.8,9.1-2.6,13.7.4,1.9,2.2,3,5.4,3.1l4,2c2.2-.6,3.9-.2,5.2,1.1,4.8-1,4.1-5.3,2.7-9.2-.9-1.2-1.2-2.2-.7-3.2-.4-2.2,2.3-2.2,2.1,0,.4-.2.6,0,.5.5.5.4.8.7,1.5.2,1.5,2.2,2.2,4.7,2.2,7.5l23.1-7.8,1.2.7c.2,0,.4,0,.5,0l1.1-.4,85.3-28c.8-.2,1.1,0,.9.6l-86.3,29.4c-.2.3-.5.7-.7,1s-.5.5-.9.6c-5.7,2-11.6,3.7-17.5,4.9-2.2,1-6.2.9-8,2.8s-3.5,2.4-5.9,3.2c-3.2.7-5.9.4-8.1-1-2.1-.6-4-2-6.5-2.5s-3.9-2.6-4-4.4c-.2-3.1,1.6-5.5,1.8-8.4.3-6.9.7-13.5,1.8-20.1-1.3-.4-1.3-.8,0-1.1.5-.9.7-2.5,1-3.4l.2-1.1c-.8-.1-1.2-.4-1.2-.8,0-1.2,1-1.8,2.1-1.6-.1-.2-.2-.4-.2-.5.5-.7,1.5-.2,0,0s-.6,0-.9-.2c-.4,1.1-1.4,1.5-3.1,1.2-1.9,0-5.8-.1-6.9-1.5l-3.8-.2c-.8.5-1.5.5-2.1.2l-.5,1.4c-4.2,2.5-9.4,2.9-14.1,3-2.6.4-3.4,1.9-4.3,4.2l-1.2.4-.2,1.4c.7.5.7.8,0,.8,0,.2.2.6.2.9.9,1.3,1.2,3,1.2,4.5,1.7,3.8,4.8,6.9,6.1,11.2s0,9.9-2.8,13.6-9,1.4-7.5-.3c.5-1.3,4.3,1.9,5.8-.3,2.4-3.3,3.7-8,2.5-12.1s-9.9-11.5-6.7-21.5l.4-2.1c-.7-1.5-.9-2.2.6-3,7.7-2.9,8.9.9,21.8-5.2,1.3-.6,1.8-2.1,3.1-2.3,1.3-1.7,2.6-1.9,1.2.4.9.4.8.9.2,1.6,4.7,1.1,9.9,2.2,13.8-1.1,4.1-.6,6.2-2.5,6.2-5.6,5.4-3.9,9.1-9.3,11.7-15.4l1.4-.8c2.1-4.8,3.3-9.4,2.8-15.3,2.6,5,1.4,10.1-.2,14.9s-5.4,12.1-10.5,16.3-1.4,2-2.1,3.1Z"/>
    <path class="st4" d="M390.9,281.8l-78.5,26.8c-.6.2-1.6.3-2.2.3s-.9-1.8-.3-2l78-26,1.5-.3c.9-.3,2.3.3,1.5,1.2Z"/>
    <path class="st80" d="M430.8,268.6c.6,1,1.7,1.5,2.2,3.3l-14.4,2.6c-2.4.4-4.7.7-7,.6,6.1-2.8,12.7-4.3,19.1-6.5Z"/>
    <path class="st32" d="M529.7,235.1l-12.5,4c-.3-.2-.6-.4-.9-.6l9.5-3.4c8.3-3,16.6-6,25.7-8l-21.7,7.9Z"/>
    <path class="st61" d="M397.8,281c-2.3.8-4.5,1.3-6.9.8-.3-.6-.9-1-1.5-1.2l.4-.5c2.6.7,5.5.4,8.1,1Z"/>
    <path class="st92" d="M614.7,239l-8.6,4.6-.4-.5c2.2-1.2,4.3-2.8,6.4-4s1.7-.1,2.6,0Z"/>
    <path class="st38" d="M444,286.1c.4-.4,1,.1,1.3.3.4.3.3.8,0,1-.6.4-1.1.9-1.3.5-.3-.6-.5-1.5,0-1.9Z"/>
    <path class="st34" d="M594.7,241.6c-.5.6-1.2,1.5-2.2,1.3.5-1.3,1.6-.9,2.2-1.3Z"/>
    <path class="st101" d="M595.7,241.1c.2-.6,1-1.5,1.3-.8s-.9.8-1.3.8Z"/>
    <path class="st121" d="M595.7,241.1c-.3.1-.7.5-1,.5.3-.2.6-.5,1-.5Z"/>
    <path class="st78" d="M411.3,236.1c-5,6.2-9.6,12.5-12.1,20-.4,1.9-5,10.4-5,15.5,2.5.4,2.6-2.4,3.6-5.2.3-.6.6-.7.8-.4,2.5,3.4,3.6,7.5,1.8,11.6-1.4.6-2.7,1.6-4.2,1.8-2.6-3.2-3.6-.3-5.8-1.6s-3.6-2.1-5.9-2.2-3.9-1.7-3.6-4,.6-5.1,1.4-7.6c2.2-7.7,1.7-20.1,4.4-26.6.3-.5.7-.9,1.2-1.1,0-1.5.6-2.5,1.8-2.8,2.8-.8,5.4-2.9,6.8-5.5.8-.8,2-1.2,3.3-1.3,6.7-.8,15.3-6.8,18.2-13.2,1.3,0,2.1.2,3.4-.1.3-2.3,2.4-4,2.9-6.1.8-3.3,1.6-6.3,3.3-9.3s2.4-5.2,4.2-7.6.8-2.5,1.8-3.2c3,6.6-1.2,12.2-3.4,17.1s-4.5,8.6-7.1,12.8l-11.9,19Z"/>
    <path class="st78" d="M406.8,209.2c-2.7,6.4-6.1,12.5-12.3,16.6.6,4.9-4.2,4.8-6.9,6.2s-2.5,2-4.4,2c-3.7,0-7.4-.1-11-1.4l1.2-2.1c.2-1,.6-1.8,1.3-2.2,1.8-2.2,3.2-4.6,4.2-7.3.4-2.3,1.2-3.9,2.5-5,2,0,3.8,1,5.7,1.9,2.8-2.3,4.1,1.5,6.2-.7,3-3.3,5.3-6.9,8.1-10.4.6-.3,6.1,1.3,5.3,2.4Z"/>
    <path class="st60" d="M341.4,157.8c.4,0,.7,0,1.1,0l29.9.6c.8,0,1.8.8,3,.4l-1.1,1c1,.1,2.1-.2,2.6.5-1.4.5-5.1,1.7-6,.5-7.4-.3-14.9-.6-22.5-1-5,0-10-.2-15-.6-2.6,0-5.2-.8-8-.2,1,.7,1.4,2,2.1,2.4,1.1,1.3.6,1.4-1.6.3l-5.2-3.2c-1.1-.7-1.5-.8-2-1.7s-2.3-1.1-1.7-2.4c1.6.8,3,2,4.7,3.2l19.7.2Z"/>
    <path class="st37" d="M381.5,216c-3.2,13.1-6.2,11.4-8,14.5,0-.4.2-.8.2-1.4-.5.4-.9.9-1.5,1,0-1.1,1.4-1.7,2.2-2.2.2-1.6.7-3.7,1.8-5.3s1.7-4.8,2.7-7.3,1.3-2.1,1.3-3.7c0-2.4-.3-4.5-1.2-6.7-2.8-6.5-7.4-11.5-11.7-16.7-.6-.7-.4-1,.5-.5,5.2,4.4,9.6,9.7,12.7,16s.5,3.3.7,4.9c.3,2.6.9,4.9.3,7.3Z"/>
    <path class="st37" d="M338.8,159.9c0-.1,0-.3,0-.3.3-.3,7.8,0,8.5.7.2-.2.3-.2.5,0,.1-.4,1.2-.4,1.5,0,2,.2,4,.3,6,.5.4-.3.9-.5,1.3-.5,4.7,0,9.5.1,14.2.5,2,0,4-1,6-.5.2,0,.2.9-.2.9-15.3,2.9-13.2,2.4-28.4.7s-20.3,1.4-20.1-1.7c3.9-.7,7.4.7,10.7-.4Z"/>
    <path class="st36" d="M280.2,143.8c.4,1,4.7,3.9,4.5,4.5s-.3.1-.4.2c-.4,0-.6.3-.5.7l3,4.1c-.4-.1-1.8,0-1.6.4,2.3,3.5,5.4,5.9,8.2,8.7-2.4,0-3.6-2.1-5.1-3.2s-1.6-2-3-2.8v17.3h-.6c.2-2-.1-3.9-.4-6.1-.5-4.3.3-8.7-.5-13s-1.5-1.8-1.1-2.8c.4-.1.4-.5,0-1.1-.4-.6-4.9-6.6-2.7-6.9Z"/>
    <path class="st108" d="M357.8,226.6c-2.3-1.4-4.3-4.1-7.1-4.1l-6.4-.2c0-1.4,1.2-1.9,2.2-2.2,7.4-2,13.3,4.3,13.1,5.1s-.9,1.4-1.7,1.3Z"/>
    <path class="st83" d="M395.8,155.2c1.3.8,2.9.6,3.6,2.3-2.5-.2-4.8-.9-7.2-1.7s-1.4,1.2-2,1.2c-2,.1-3.2.7-4.9,1.3l-5.8,1.8c-.8-4.4,9.8-3.5,9.7-5.2,2.1-1.4,4.5,0,6.6.3Z"/>
    <path class="st36" d="M320.3,189.8l1,4c.2.8.3,1.5,1.1,1.4,1.2.8.2,1.9-.5,3.1l2.2.5c-.4,1.4-3,2.5-3.9,1.2s.3-2.6,1.1-3.5c-2.3-2.1-2.7-5.5-2.3-8.4,1.3.3,1.2,1.1,1.3,1.7Z"/>
    <path class="st125" d="M298.8,168.1c0,.2,0,.5,0,.7-.5.6-.3,1.4.4,2.3l.4.5c-.5,0-1.3.4-1.8.1-2.3-1.4-3.9-3.4-5.5-5.7s-4-3-4.5-5.3c2,0,7.2,7.3,10.9,7.4Z"/>
    <path class="st32" d="M318.8,172.8c3.5.4,7.4.8,9.9,3.3-.1.4-.5.3-.9,0-2.6-1-5.5-1.9-8.4-1.9s-6.9,0-4.6-1.5c.7-.9,3.2-.8,4,0Z"/>
    <path class="st32" d="M279.3,107.8c.8.5,1.6,1.4,1.7,2.5l-5.2-2.8c-.2,1.5,1.2,2.2.8,3.4s-1.5,0-1.8-.5c-.1-1.6-1.8-3.2.1-4.2s1.3-.4,2,0l2.4,1.6Z"/>
    <path class="st81" d="M289.3,115.9c-.4,4-5-9.3-4-8.5,1.5-1.3,4.2,7.6,4,8.5Z"/>
    <path class="st36" d="M362.5,176.5c.4,2.8.2,5.2.8,7.9-3.1-1.3-3.9-5.9-.8-7.9Z"/>
    <path class="st47" d="M311.4,170.7h5c.5.2,1.3.3,1.5,1l-.2.5h-3.8c-.7-.4-8.5.9-6.5-1,1.1-.7,3.2-1.1,4.1-.5Z"/>
    <path class="st86" d="M273.8,121.8c-1.2-.9-4.2-7.9-1.9-7.9.8,3,1.6,6,3.8,8.3-1,.4-1.7-.2-1.9-.4Z"/>
    <path class="st116" d="M277.8,137.8c1.6,2.3,3.8,3.7,5.1,6.2-1.4,0-2.3-.9-3-1.7-1.5-1.4-3.1-2.6-3-4.4.2-.3.3-.3.5,0,0-.1.3,0,.4,0Z"/>
    <path class="st124" d="M273.3,109.8c.1,2.4,1.8,4.5,1.3,7.2-1.2-1.2-1.8-2.5-2.2-3.7s-.4-3.3-.2-4.6c.5-.6,1.1.6,1.1,1.1Z"/>
    <path class="st31" d="M348.3,159.8c-.1.3-.3.3-.5,0l-.5.5c-2.7,0-7.7-.6-8.5-.4-.8-.4-6,.4-5.5-.7h14c.5,0,1,.1,1,.6Z"/>
    <path class="st18" d="M277.9,136.8c-.5-1.3-2.3-1.9-2.5-3.4,2.1.3,3.9,2.4,4.8,4.3-1.2,0-1.7-.7-2.3-.8Z"/>
    <path class="st129" d="M274.9,127.3c1.4,1.6,3.6,2.7,4.3,5.2-1.5-.5-2.4-1.7-3.4-2.7l-1.2-1.2c-.3-.3-.6-.6-.5-.9s.6-.2.8-.4Z"/>
    <path class="st124" d="M274.8,124.9c-.4-.8-1.2-1.5-1-2.5,1.7.8,3,2.4,4.2,4-1.5,0-2.1-1.2-3.3-1.5Z"/>
    <path class="st53" d="M331.2,164.9c.2.4,0,.5-.3.3-1.7-1.3-3.3-2.3-5.1-3.5.5,0,1.6.4,1.6-.3,1.6.9,2.6,2.2,3.8,3.5Z"/>
    <path class="st112" d="M317.8,171.7c.3,0,.7,0,.9.3s.1.5.1.7c-1.3-.1-2.7,0-4,0-.3-.3-.6-.5-1-.6,1.2-.9,2.7-.3,4-.5Z"/>
    <path class="st17" d="M330.9,165.2l.3-.3c1,1,2.5,1.7,2.9,3.3-1.8-.5-2.2-2.2-3.2-3Z"/>
    <path class="st62" d="M430.1,175.6c-.4-.4-1,0-.5.4-.6-1.2-2.3-1.8-2.8-3.5,1.6.4,2.3,2.1,3.3,3.1Z"/>
    <path class="st129" d="M367.8,187.8l-.5.5c-.8-1-2.4-1.5-3-3.3,1.6.4,2.4,1.9,3.5,2.8Z"/>
    <path class="st114" d="M284.3,148.6c-.2.2-.3.5-.5.7-.3-.5-1.3-.6-1.5-1.5,1-.2,1.5.4,2,.8Z"/>
    <path class="st102" d="M328.7,176.1c.5,0,.8.4.3.7-.8,0-1-.3-1.2-.6.3-.1.6-.3.9,0Z"/>
    <path class="st129" d="M695.7,242.4l-12,9.1c.4-.4,0-1.1-.4-.5l10.3-8.4c5-4.1,10.1-8.1,15.5-11.4l-13.3,11.2Z"/>
    <path class="st74" d="M749,267.5l-.3-.4c1.9-2.3,3.1-5.3,5.7-7.7-.8,3.3-3.8,5.4-5.5,8.1Z"/>
    <path class="st115" d="M757.6,253.1c-.2,1-.4,2.1-.8,3-.2,0-.5,0-.7,0v-1c0,0,.6-1.5.6-1.5v-1.1c-.2-.4,0-.9.5-.9,0,.5,0,1.3.5,1.5Z"/>
    <path class="st77" d="M756.1,255.1c0-.5-.1-1.3.5-1.5,0,.5.1,1.3-.5,1.5Z"/>
    <path class="st11" d="M336.8,134.3c2.8,4.7,5.3,9.6,7.7,14.5.7.9,2.6.9,3.2-.2s0-2.5,0-3.4c-.4-.2-.4-.3,0-.5-.3-1.1,2.1,3,.4,4.6s-1.7.1-2.8.6c.7.7,1.8,0,2.6.4-.1.2-.4.2-.5.4-.3.3-.6.2-1,0-.2-.2-1.2,0-1,.4,1.5,4.4-.8,6.5-1.5,5.8s0-.6,0-.7c1.2-2.8-1.8-7.6-3.5-9.5-4.3-5.7-7.4-11.9-9.5-18.6l1-1.9c.2-.2.5-.8.8-.8s1.1.8,1.2,1.2c.5,2.9,2.1,5.1,2.9,7.5Z"/>
    <path class="st76" d="M347.3,150.8c-.2.2-.3.6-.6.4l-.4-.4h1Z"/>
    <path class="st20" d="M802.1,40.5l2-10.6c1.5-1-1.1,9.7-1.6,10.5.1.5-.5.6-.4,0Z"/>
    <path class="st98" d="M730.1,27c-2.7,0-5.3,0-8,0s-1.6,0-2.5-.5c0-.1,11.7-.5,10.5.4Z"/>
    <path class="st83" d="M94.9,17.5c0,.7,0,1.5-.5,2,0-1.3-.2-2.7,0-4,.7.3.3,1.4.4,2Z"/>
    <path class="st44" d="M342.4,275.2c-1.5,2.3-3.6-5.4-4.2-7-2.2-5.8-5.1-10.8-8.1-16.4l-18.1,4.2c-2.1,3.1-3.1,7.9-1.4,11.4,1.9.5,4.2.7,5.4,2,2.3,2.5,2.5,11-1.3,11.5,0-1.6.4-2.9.6-4.1.5-2.9-.8-6.1-4.1-7.3-.6,1.3-.2,2.7-2.1,3.2-.3-3.2-2.6-6.7-2-10,1.2-7.5,5.5-14,9.6-20.2s5.9-11.1,8.2-16.9c2.3-1.4,1.3,1.7.4,3.1l-2.9,8.5.7,1c-3.1,4.9-6,9.8-8.7,14.9,4.6-.9,9.1-2,13.5-3.3l-2.4-4.8c-1.3-3.4-2-6.1,0-9.4,1-5.8,6.2-8.6,11.4-11.1-.5,2.1-2.2,3.1-3.8,4.2-5,3.5-7,9.7-4.2,15.3l5.1,10c3.5,6.9,6.8,13.7,8.5,21Z"/>
    <path class="st77" d="M322.4,237.2c.5.4,1.9.6,2.3,0s0-1.5.7-1.5c-1.1,6.2.9,9.3,4.1,15l-16.7,3.9c.8-3.8,9-15.2,9.7-17.3Z"/>
    <path class="st108" d="M323.9,222.6c.1.3,0,.5-.6.6-1,.3-1.9-.7-3-.8s-1.3.9-1.8.9-1.3-.6-1.8-1.5c-.5.3-1.1,1-1.9.7-1-4.3-1.7-9.1-.6-13.7,1.6,2.5.6,5.9,1.6,8.5,1.3,0,2.5,1.5,3.3,1.9,1.9.9,4.4,1,4.7,3.5Z"/>
    <path class="st60" d="M333.5,219.3c.3.7,11.2,1.5,8.5,4.4s-1.5.7-1.9.3c-1.4-1.3-2.8-.5-4.2-.7s-2.5-.9-3.7.1c-1.9-2.3-1-6.2.6-8.6.8,0,1.1.3,1.1.7l-.2,1.5c-.1.8-.4,1.7,0,2.3Z"/>
    <path class="st51" d="M326.7,211.2c-.2.9-.2,1.8,0,2.5l-.5.5c.3.9.7,1.7,1.1,2.4l-.9.6c-1.8,4.2-2.5-6.9-2.2-7.7-.5,0-1.8.4-2.2-.1-1.4-2-1.2-4.9.1-7.2,1.4,1.7.2,3.3.9,5,1.2-.3,2.6-.8,4,0-.2,1.4,0,2.8-.4,4.1Z"/>
    <path class="st111" d="M310.6,219.9c.1.5-.6.8-.7.9-.3.2-.7-.5-1.1-.6-2-.7-5.3,0-4.6.3-1.2-.7-.8-6.2-.6-7.5.3-.1.7,0,.9,0,1.1.9-1.2,3.2,2.4,4.3s3.3.8,3.8,2.6Z"/>
    <path class="st35" d="M326.4,217.2c-.2-1,0-2-.1-3,.7-.8,1,1,.7,1.2s-.3-2,.4-1.7c.3-.8.6-1.8,1.8-1.4-1.8,4.8,1.6,8.1.4,9.4s-1.9-4.7-3.2-4.5Z"/>
    <path class="st122" d="M325.9,222.8c0,.5.2.5.4,0,.4,0,.9.1,1.6.5-.7,1.9-1.3,4-2.6,5.4.4-1,.9-2.9-.4-3.1,0-.4.1-1.1-.1-1.5s-.9-1-1.4-.9c0-.4.2-.7.6-.6l2.1.2Z"/>
    <path class="st62" d="M310.8,169.7c.5,1-2,1.2-2.5.5-2-.7-4.5-.5-6.2-2.6l8.7,2.2Z"/>
    <path class="st109" d="M347.3,237.6c-.3.4-.5.9-.5,1.3,0,.9,1,.8,1.8.9l-2.3,2.9c0-1.3-.7-2.5-1-4,.6-.6,1.4-.8,2-1.1Z"/>
    <path class="st137" d="M298.9,168.8c.3.7.4,1.5.4,2.3-1.6-.6-2.8-1.8-4.4-3.3,1.3.4,2.6,1,4,.9Z"/>
    <path class="st92" d="M350.3,226.6c-1.5,0-2.3-1.5-2.5-2.7,1.4,0,2.4.8,2.5,2.7Z"/>
    <path class="st41" d="M327.4,213.7c-.2.5.3,1.2-.3,2-.4-.5-.3-1.2-.8-1.5-.2-1.1.2-2,.4-3,.2.8-.3,2.1.7,2.5Z"/>
    <path class="st66" d="M311.4,170.7c-1.4,0-2.7.3-4.1.5l1.1-1c.8,0,2.1.4,2.5-.5.4.1.7.6.6,1Z"/>
    <path class="st49" d="M326.4,222.8c.2.4.4,1.2,0,1.4-.3.1-.5-.4-.7-.8s-.1-.4.3-.6c.1,0,.3,0,.4,0Z"/>
    <path class="st26" d="M302.8,180.7c-.2-.6-1-.5-1.5-.5.3-.3.8-.6,1.2-.6s1,.4,1.3.9c-.5.2-.8,0-1,.1Z"/>
    <path class="st69" d="M365.3,65.3c.9,1.2.2,6.9,3,10.9-.9.4-1.6,0-2-.7-3.8-5.8-1.9-11.5-1-10.2Z"/>
    <path class="st111" d="M382.8,238.3c.4.3,1.3.2,1.5.6.4.7-.4.9-.5,1.2,0-.2.2-.5-.1-1.1l-34.3,8.1c-.8.2-1.4-.1-1.8-.4-.2-.8-.5-1.7.3-2.1l1,.4,33.1-7.5.8.8Z"/>
    <path class="st118" d="M301.5,292.6c-.5.2-.9-.5-1.2-.6,2.9-.6,6.4,0,9.3,1.2s3.2,3.3,4.5,4.7c-3.6-1.2-10.7-6.1-12.6-5.3Z"/>
    <path class="st10" d="M382.7,243.5c-.2.3,0,.8,0,1.1-1.2.5-2.9.7-3.7-.8,1.2-.6,2.7-.8,3.8-.4Z"/>
    <path class="st2" d="M348.9,252.2c-.6-1.4-1.1-3-1.2-4.5,1.5.7,1.8,3.2,1.2,4.5Z"/>
    <path class="st111" d="M17,226.2c.1.2.3.4.5.5-1.2,1-2.4.1-3.5.5-.4.2-.5,0-.5-.5l3.5-.5Z"/>
    <path class="st126" d="M13.5,226.7c.1.2.3.4.5.5-1.3.6-2.5.8-4,.3,1-1,2.5-.7,3.5-.8Z"/>
    <path class="st20" d="M282.8,151.9c.1-.3,0-.8,0-1.1.2.3.6.3.8.5s.4.8,0,1-.6-.3-.8-.4Z"/>
    <path class="st77" d="M277.4,137.8c-.1.2-.2.3-.5,0-.2-.7.6-.8.5,0Z"/>
    <path class="st134" d="M265.9,30c-.1.4-.3.4-.5,0-.6-1.8-1.8-3.5-1.8-5.6,1.4,1.9,1.6,3.9,2.3,5.6Z"/>
    <path class="st21" d="M267.9,34.9c0,.4-.3.6-.5.5-1-1-1.1-2.7-1.5-4,.1-.4.3-.4.5,0,.6,1.1.8,2.4,1.5,3.5Z"/>
    <path class="st21" d="M268.9,38.4c-.1.4-.3.4-.5,0,0-.7-.7-1.8-1-2.5.1-.4.3-.4.5,0,.9.5.9,1.6,1,2.5Z"/>
    <path class="st123" d="M268.4,38.4h.5c.1.3,1,1,.3,1.3s-.8-.9-.8-1.3Z"/>
    <path class="st25" d="M266.4,31.5h-.5l-.5-1.5h.5c.2.5.3,1,.5,1.5Z"/>
    <circle class="st105" cx="256.6" cy="22.5" r=".3"/>
    <path class="st130" d="M267.9,35.9h-.5v-.5c0-.3.2-.5.5-.5v1Z"/>
    <path class="st77" d="M422.2,249.7l1.1-.3c3.2,2.6,5.6,5.7,7.1,9.3l-.7,1c-1.8-.9-4.2.1-6.2.3l5.6,7.2-25.4,8.6c.1-3.6-.2-6.9-2.6-9.1.2-.3,0-.4-.5-.5-.5-.1-.9-.6-1.4-.7s-.6.4-.7.7l-.8.4c2.3-6.4,6.2-12.3,9.5-18.3,3.7-1.8,7.6-2.4,10.4,1.4,1.2,0,2.4-.2,3.5-.6l1,.7Z"/>
    <path class="st4" d="M429.8,259.6l-1.6-4c-1.1-2.6-4-4.1-6-6h-1.5c-2.5-4.4-5-5.5-9.9-5.9l-.5-1.1c.2-.4.7-1,.9-1.5,4-2.5,7.8.8,10.7,3.6l8.5,10c1.7.8,2.5,1.7,3.2,3.4,1.2-1.4,2.8-1.5,4.7-.3-.2-1.3.6-2.3,2.4-3-2.7-1.9-3-3.4-.7-4.3,1.3,0,.8-1.2-1.3-3.7l.4-1.3c-2.4-2.2-4.4-4.8-6-7.9l-1.6-.3-10.3-12.3c.6-1.1.7-1.9,1.5-2.9-.8.9,5.6,7.4,6.5,8.4,5.3,5.2,9.9,10.7,13.6,17.3s1.4,10.2-2.7,12.7-7.5.6-10.5-.9Z"/>
    <path class="st65" d="M443.7,224.3c-5,1.7-9.7,3.3-15.2,3.5,5-1.7,10-2.8,15.2-3.5Z"/>
    <path class="st13" d="M450.3,227.1c-.7,1.4-1.3,2.9-2.5,4.2-.2.4-.6.5-.5,0l2.5-5.1c0,.4.3.7.5.9Z"/>
    <path class="st77" d="M469.3,233.1c-.1.7-1.1.4-1.6.5.2-.6,1.1-.4,1.6-.5Z"/>
    <path class="st77" d="M430.9,266.6c0,.5-.8.3-1.1.4,0-.6.8-.3,1.1-.4Z"/>
    <path class="st106" d="M285.3,234.1h.5l.5.5c-3.5,1.3-7.4,1.7-11.5,2.5-.5,0-.8-.2-1-.5-.4-.1-.4-.3,0-.5h1l1.5-.5c2.2.2,4.3-.6,6.5-1l1.5-.5h1Z"/>
    <path class="st129" d="M272.4,236.6c.4-.4,1.1-.4,1.5,0,.4,0,.9,0,1,.5-2.4.5-4.7,1.1-7.5,1.5-.7,0-1.2-.3-1.5-.6,2.1-.8,4.4-.8,6.5-1.4Z"/>
    <path class="st78" d="M287.3,233.6v.5c-.1.5-1,.3-1.5,0h-.5c.3-.8,1.3-.5,2-.5Z"/>
    <path class="st37" d="M267.4,238.6c-.2,0-.5,0-1,.1-.4,0-.8-.3-1-.7.2,0,.4,0,.5,0,.5.1,1.4,0,1.5.6Z"/>
    <path class="st78" d="M273.9,236.1v.5c-.5,0-1-.1-1.5,0,.2-.6,1-.5,1.5-.5Z"/>
    <path class="st78" d="M276.4,235.6c-.2.6-1,.5-1.5.5.2-.6,1-.5,1.5-.5Z"/>
    <path class="st78" d="M284.3,234.1c-.4.5-1,.5-1.5.5.2-.7.9-.6,1.5-.5Z"/>
    <path class="st78" d="M289.3,233.1c-.5.3-.9.7-1.5.5.2-.6,1-.5,1.5-.5Z"/>
    <path class="st52" d="M171.4,233.6c.2.4.6.5,1,.5-2.2.8-4.6,1.1-7,1.5-.7,0-1.2-.2-1.5-.5,2.3-.9,5-1.1,7.5-1.5Z"/>
    <path class="st22" d="M163.9,235.1c.5.2,1.3-.2,1.5.5l-3,.5c-.3-.6-.9-.6-1.5-.6,1-.1,1.9-.8,3-.4Z"/>
    <path class="st78" d="M347.6,144.7c0,.1-.1.3,0,.5-1.2-.3-2.4-.9-2.7-2.4-4.2-7.8-7.9-15.6-11-23.8s-1-3-2-4.1c1.5.6,3.1.6,5,.6,2,3.9,2.6,8.1,4.3,12.1,2.5,5.8,4.7,11.4,6.5,17.2Z"/>
    <path class="st8" d="M340.3,146.8c-4.7-5-7.8-11.3-11.7-17.3,1.2-1.4,2.1-2.2,3.1-3.2-.8,4.1,6.9,16.5,8.6,20.5Z"/>
    <path class="st81" d="M327.2,132.3c1.7,3,3,6.1,3.9,9.4l-.5.7-.3.4c-.4,0-.7,0-.9-.2-2.7-3-6.1-9.1-6.5-12.9l2.3-1.8c.5-.1,1.1-.7,1.4-.1,1.3,2.3-.4,0,.5,4.7Z"/>
    <path class="st8" d="M325.3,127.7c-.2.7-1.8,1.6-1.4,2.6,1.5,4.6,3.6,8.9,6.6,12.4s.3,1,.4,1.4c-1-.2-1.4-1-2-1.9l-7.7-11.6c1-1.7,2.6-2.7,4.2-3Z"/>
    <path class="st42" d="M344.4,148.8c-3.2-4.4-5.9-9.4-7.7-14.5,2.5,3.3,4.5,7,6.9,10.6s.9,2.7.8,3.9Z"/>
    <path class="st132" d="M332.3,143.7c-.4-.4-1.4-.7-1.6-1.3-.9-3.4-2.8-6.6-3.4-10.1,1.6,1.9,6.1,8.8,5.1,11.4Z"/>
    <path class="st133" d="M784.6,246.6c.2-.3.3-.6.5-.9.6.3,1.2,1.9.6,2.2s-1.3-.2-1.2-.4,0-.7.1-.9Z"/>
    <path class="st50" d="M287.3,234.1v.5c-.3,0-.7-.1-1,0-.2-.1-.4-.3-.5-.5h1.5Z"/>
    <path class="st78" d="M433.2,237.7c1.6,3,3.6,5.6,6,7.9,1,2,3.3,3.6,2.8,6.1-.9-.2-1.5-.3-2,0-2,1.2,1.8,1.6,1.9,2.7.2,2.1-2.2,1.9-2.5,2.5s.4.7.5,1.1-.8.7-1.2.9c-.7.3-1.4,0-2-.7-1.2-1.4-1.9,1.2-3.2.9s-1-.5-1.1-1.2c-.3-1.6-2-1.7-2.8-2.7l-7.8-9.2c-4.3-5.1-5.5-4.3-10.5-4.9,3.3-5.4,7.1-10.5,10-16.1,1.2-1.8,3.9,3.9,6.3,6.3s3.8,4.3,5.6,6.4Z"/>
    <path class="st82" d="M422.2,249.7c-1.6.6-4.4,1.6-5.5.5l-2.2-2.2c-.8-.8-7.8,1.5-7.2.3l3.1-5.6,5.7,1.1c2.8.5,4.2,4.1,6.1,5.9Z"/>
    <path class="st77" d="M399.2,256.1c.6-2.8,1-5.9,2.6-8.5,2.7-4.3,6-8.1,9.5-11.5l-8.2,13.4c-1.4,2.3-2.2,4.8-3.9,6.6Z"/>
    <path class="st78" d="M299.3,173.3c.3-.1.4-.1.4-.1s-.2,0-.4.1Z"/>
    <path class="st78" d="M771,167.2c-1.9,8.8-3,18-4.5,27h-1c-1-.7-2-.8-3.5-.9l-94-8.4-89.6-7.9.7-17.3c.4-1.1,2.5-1.8,3.5-1.2,61.7,2.5,123.5,5.4,185.4,8.6,1.3-.5,2.3-.5,3,0Z"/>
    <path class="st78" d="M771,167.2c-.7.2-1.4,0-2.3-.5-61.4-2.8-122.6-5.6-183.7-8.3-2.4.5-3.6.2-3.8-1,0-4.4,0-4.2-.4.8-.7.5-1.3,1-1.8,1.5-.3,0-.8,0-1,.2-.4.3-.3.8-.4,1.3l-1.7,15.8-19.3-1.7,16.1-35.6,56.9,3.6,144.6,9-3.3,15Z"/>
    <path class="st90" d="M590.7,179.7c-.6,1.5-3.9-.5-7.6,0s-1.2-.3-1.4-.7c-.6-.6,8.2.6,9,.6Z"/>
    <path class="st127" d="M508.7,183.2v.5c-.3.9-2.3.2-2.2.1.4,0,1.1.2.7.7-.5,0-.8,0-1.5-.4.1,2.3,0,4.1,0,6-.9-2.1-.1-4.5-.4-6.9h3.5Z"/>
    <path class="st54" d="M580.7,178.7c0,.5-.6.5-1.2.5s-1.8.2-1-.5c.7,0,1.4,0,2.1,0Z"/>
    <path class="st72" d="M542.8,205.2c0-.2-.1-.4,0-.6.1-.5.3-.3.6-.3,0,.4-.2.7-.5.9Z"/>
    <path class="st77" d="M676.6,144.3c-.2,0-.4-.3-.5-.5.2,0,.4.3.5.5Z"/>
    <path d="M508.7,183.7l75.5,7.9,176.9,19.3c.5,0,1.3.7,1.2,1s-.9,1.3-1.6,1.2l-210.3-23.5c-.7.5-1,.7-1.4.8s-.5-1-1-1l-40.8-4.8c0-.4-.5-.2-1-.7.8-.4,1.7-.3,2.5-.2Z"/>
    <path class="st77" d="M373.8,235.7c3.3-.1,6.7,1,10,.3.6,0,1.1,0,1.1.7-.3,1-1.1,1.4-2.1,1.6l-34.8,7.9c-.2-.7,0-1.2-.1-1.6,3.6-10.2,7.2-1.9,20.1-8.9.6.3,1.4.2,2.4-.3l3.6.4Z"/>
    <path class="st131" d="M373.8,235.7c-1.9,0-4.1,1.1-6.5.7.2-.2.5-.4.6-.7,3.9-2.1.2-1.3,5.9,0Z"/>
    <path class="st119" d="M389.9,233.6c-1.4.6-1.2,2.2-.7,3.8h-2.3c2-4.8.9-3.2,3-3.8Z"/>
    <path class="st120" d="M384.9,236.7c-.5,0-1-.1-1.1-.7.6-.1,1.2-.6,1.9-.9.6,1-.7,1.1-.8,1.5Z"/>
    <path class="st24" d="M401.3,266.6c-.2-.2-.4-.3-.5-.5.2,0,.5-.6.8-.5.5.3,1.1.8.6,1.5-.2,0-.5-.5-.8-.5Z"/>
    <path class="st39" d="M385.4,265.9c.2.8-.9,1.2-1.4,1s-1.2-1-.7-1.9,1.9.2,2,.8Z"/>
    <path class="st45" d="M370.8,160.8c-5.2.2-10.3,0-15.5,0-2-.2-4-.4-6-.5h-1.5c-.3-.2-.2-.3,0-.5.2,0,.3,0,.5,0,7.1,0,14.2,0,21.5.5s1,.1,1,.5Z"/>
    <path class="st97" d="M355.3,160.8h-5.1c-.5,0-1,0-1-.5.4,0,7.1-.2,6,.5Z"/>
    <path class="st97" d="M347.8,160.3h-.5c0-.2.3-.4.5-.5v.5Z"/>
    <path class="st89" d="M439.2,245.5c-2.7.5-5-5.7-6-7.9,2.1,2.5,4.5,4.9,6,7.9Z"/>
    <path class="st36" d="M428.9,252.9c.4-3.1,4.8.9,6-3.2s.8-1.8,1.8-1.8c.7,2,.5,4.1-.6,6.1-2.3.5-5.1.6-7.3-1.2Z"/>
    <path class="st116" d="M418.7,241.8c.8-1.2,1.9-.9,3.1-.6.7-.7.2-1.8,1.1-2.5,1,.8,1.4,3,.2,3.9s-3.3,0-4.5-.8Z"/>
    <path class="st44" d="M771,167.2c-1,.3-1.6,1.1-3,1l-106.7-5.2-76.2-4.1c-2.3-.1-4.1.7-6.1.8-.2-.3,0-.6-.1-.8-.3-.5,1.1-.7,1.1-1l.8-16c0-.5.1-.8.5-.8s.6.2.6.8l.3,16.2c4.6-.3,9,0,13.9.2l57,2.3,115.7,5.3c1.2,0,1.8.8,2.1,1.5Z"/>
  </g>
</svg>