<?xml version="1.0" encoding="UTF-8"?>
<svg id="Ebene_10" xmlns="http://www.w3.org/2000/svg" version="1.1" viewBox="0 0 930 325">
  <!-- Generator: Adobe Illustrator 30.1.0, SVG Export Plug-In . SVG Version: 2.1.1 Build 136)  -->
  <defs>
    <style>
      .st0 {
        fill: #7d93c5;
      }

      .st1 {
        fill: #758ab9;
      }

      .st2 {
        fill: #aac0e7;
      }

      .st3 {
        fill: #bdd1f2;
      }

      .st4 {
        fill: #a1b5d8;
      }

      .st5 {
        fill: #7587ab;
      }

      .st6 {
        fill: #7789ac;
      }

      .st7 {
        fill: #7c91bd;
      }

      .st8 {
        fill: #060607;
      }

      .st9 {
        fill: #7d90b4;
      }

      .st10 {
        fill: #1b1f2a;
      }

      .st11 {
        fill: #7e94c5;
      }

      .st12 {
        fill: #bfd5fa;
      }

      .st13 {
        fill: #7e93c4;
      }

      .st14 {
        fill: #0b0c11;
      }

      .st15 {
        fill: #7e94c7;
      }

      .st16 {
        fill: #97aaca;
      }

      .st17 {
        fill: #282c34;
      }

      .st18 {
        fill: #010101;
      }

      .st19 {
        fill: #bbd0f2;
      }

      .st20 {
        fill: #7b90c0;
      }

      .st21 {
        fill: #a2b8df;
      }

      .st22 {
        fill: #b6cdf6;
      }

      .st23 {
        fill: #adc2e8;
      }

      .st24 {
        fill: #030304;
      }

      .st25 {
        fill: #96acdb;
      }

      .st26 {
        fill: #bbd0f4;
      }

      .st27 {
        fill: #f0f2f5;
      }

      .st28 {
        fill: #a6bbe1;
      }

      .st29 {
        fill: #e7f0ff;
      }

      .st30 {
        fill: #13161e;
      }

      .st31 {
        fill: #92a7ce;
      }

      .st32 {
        fill: #adc2ea;
      }

      .st33 {
        fill: #020203;
      }

      .st34 {
        fill: #14171e;
      }

      .st35 {
        fill: #bdd0f0;
      }

      .st36 {
        fill: #6e81ac;
      }

      .st37 {
        fill: #97aedc;
      }

      .st38 {
        fill: #727272;
      }

      .st39 {
        fill: #bdd2f5;
      }

      .st40 {
        fill: #b6ccf2;
      }

      .st41 {
        fill: #bcd1f6;
      }

      .st42 {
        fill: #040405;
      }

      .st43 {
        fill: #8696b0;
      }

      .st44 {
        fill: #6a7ea8;
      }

      .st45 {
        fill: #7b90c1;
      }

      .st46 {
        fill: #a1b7da;
      }

      .st47 {
        fill: #abc0e6;
      }

      .st48 {
        fill: #5b6c91;
      }

      .st49 {
        fill: #c0d7fc;
      }

      .st50 {
        fill: #7e91be;
      }

      .st51 {
        fill: #030303;
      }

      .st52 {
        fill: #b8cdf0;
      }

      .st53 {
        fill: #c1d8fe;
      }

      .st54 {
        fill: #12151c;
      }

      .st55 {
        fill: #454545;
      }

      .st56 {
        fill: #b9cef2;
      }

      .st57 {
        fill: #151820;
      }

      .st58 {
        fill: #979797;
      }

      .st59 {
        fill: #738097;
      }

      .st60 {
        fill: #c1d8fd;
      }

      .st61 {
        fill: #7c91c1;
      }

      .st62 {
        fill: #8294b6;
      }

      .st63 {
        fill: #b1c6ea;
      }

      .st64 {
        fill: #131518;
      }

      .st65 {
        fill: #515b6b;
      }

      .st66 {
        fill: #aec3ea;
      }

      .st67 {
        fill: #8c9dba;
      }

      .st68 {
        fill: #abc0e4;
      }

      .st69 {
        fill: #e9f1ff;
      }

      .st70 {
        fill: #c4dafe;
      }

      .st71 {
        fill: #7788a9;
      }

      .st72 {
        fill: #b7cdf3;
      }

      .st73 {
        fill: #8a9cd0;
      }

      .st74 {
        fill: #404854;
      }

      .st75 {
        fill: #a9c0ea;
      }

      .st76 {
        fill: #bacff0;
      }

      .st77 {
        fill: #5f6a7d;
      }

      .st78 {
        fill: #c0d6fa;
      }

      .st79 {
        fill: #3c434f;
      }

      .st80 {
        fill: #e9edf4;
      }

      .st81 {
        fill: #fafbfc;
      }

      .st82 {
        fill: #010102;
      }

      .st83 {
        fill: #bccff0;
      }

      .st84 {
        fill: #a1b6da;
      }

      .st85 {
        fill: #7285ae;
      }

      .st86 {
        fill: #262b35;
      }

      .st87 {
        fill: #5c5c5c;
      }

      .st88 {
        fill: #b0c7ee;
      }

      .st89 {
        fill: #7d92c2;
      }

      .st90 {
        fill: #a9bde0;
      }

      .st91 {
        fill: #a5b9da;
      }

      .st92 {
        fill: #000101;
      }

      .st93 {
        fill: #000001;
      }

      .st94 {
        fill: #c1d7fa;
      }

      .st95 {
        fill: #7082ad;
      }

      .st96 {
        fill: #9cafcf;
      }

      .st97 {
        fill: #7e92bb;
      }

      .st98 {
        fill: #bbd1f5;
      }

      .st99 {
        fill: #5a6d98;
      }

      .st100 {
        fill: #7c91c0;
      }

      .st101 {
        fill: #c0d6fc;
      }

      .st102 {
        fill: #f7f9fd;
      }

      .st103 {
        fill: #c5d8f8;
      }

      .st104 {
        fill: #c1d7fc;
      }

      .st105 {
        fill: #dde4f1;
      }

      .st106 {
        fill: #eaedf2;
      }

      .st107 {
        fill: #bed4f8;
      }

      .st108 {
        fill: #d6e5fe;
      }

      .st109 {
        fill: #8598bf;
      }

      .st110 {
        fill: #adc4ee;
      }

      .st111 {
        fill: #080a0c;
      }

      .st112 {
        fill: #060708;
      }

      .st113 {
        fill: #bbceed;
      }

      .st114 {
        fill: #9cafd1;
      }

      .st115 {
        fill: #eaf2fe;
      }

      .st116 {
        fill: #b4cbf2;
      }

      .st117 {
        fill: #dbdde5;
      }

      .st118 {
        fill: #bed3f6;
      }

      .st119 {
        fill: #a3b8dd;
      }

      .st120 {
        fill: #08090c;
      }

      .st121 {
        fill: #93a5c2;
      }

      .st122 {
        fill: #879cc3;
      }

      .st123 {
        fill: #131721;
      }

      .st124 {
        fill: #dbe8fe;
      }

      .st125 {
        fill: #c2c5cd;
      }

      .st126 {
        fill: #bad1f6;
      }

      .st127 {
        fill: #020202;
      }

      .st128 {
        fill: #b0c6ec;
      }

      .st129 {
        fill: #070809;
      }

      .st130 {
        fill: #3b424d;
      }

      .st131 {
        fill: #272c35;
      }

      .st132 {
        fill: #b8cef5;
      }

      .st133 {
        fill: #889bbc;
      }

      .st134 {
        fill: #485573;
      }

      .st135 {
        fill: #a4b7d8;
      }

      .st136 {
        fill: #bbd0f3;
      }

      .st137 {
        fill: #8fa3cb;
      }

      .st138 {
        fill: #5a6c96;
      }

      .st139 {
        fill: #eef0f5;
      }

      .st140 {
        fill: #fff;
      }

      .st141 {
        fill: #f2f4f6;
      }

      .st142 {
        fill: #b8ccf1;
      }

      .st143 {
        fill: #a1b6df;
      }

      .st144 {
        fill: #2a3038;
      }

      .st145 {
        fill: #7e94c6;
      }

      .st146 {
        fill: #9caecc;
      }

      .st147 {
        fill: #a8bcde;
      }

      .st148 {
        fill: #c1d5f7;
      }

      .st149 {
        fill: #7084ae;
      }

      .st150 {
        fill: #e1ecff;
      }

      .st151 {
        fill: #98add6;
      }

      .st152 {
        fill: #9db0cf;
      }

      .st153 {
        fill: #060709;
      }

      .st154 {
        fill: #39404b;
      }

      .st155 {
        fill: #a5bbe0;
      }

      .st156 {
        fill: #7b90c2;
      }

      .st157 {
        fill: #bcd2f6;
      }

      .st158 {
        fill: #aec5ee;
      }

      .st159 {
        fill: #f8f8fa;
      }

      .st160 {
        fill: #9ab0d9;
      }

      .st161 {
        fill: #4a5775;
      }

      .st162 {
        fill: #9cb1d7;
      }

      .st163 {
        fill: #8c9fc4;
      }

      .st164 {
        fill: #8499c9;
      }

      .st165 {
        fill: #c0d7fd;
      }

      .st166 {
        fill: #657185;
      }

      .st167 {
        fill: #262a30;
      }

      .st168 {
        fill: #7f93bf;
      }

      .st169 {
        fill: #0d0f13;
      }

      .st170 {
        fill: #eeeeef;
      }

      .st171 {
        fill: #060609;
      }

      .st172 {
        fill: #d5d5d5;
      }

      .st173 {
        fill: #a6bce5;
      }

      .st174 {
        fill: #a7bce0;
      }

      .st175 {
        fill: #9fb5e0;
      }

      .st176 {
        fill: #040406;
      }

      .st177 {
        fill: #030404;
      }

      .st178 {
        fill: #d0d8e4;
      }

      .st179 {
        fill: #cadefe;
      }

      .st180 {
        fill: #0d0e10;
      }

      .st181 {
        fill: #7a8fc0;
      }

      .st182 {
        fill: #c3d9fe;
      }

      .st183 {
        fill: #6779a3;
      }

      .st184 {
        fill: #7185b4;
      }

      .st185 {
        fill: #c6dbfe;
      }

      .st186 {
        fill: #a4b9de;
      }

      .st187 {
        fill: #a9bee4;
      }

      .st188 {
        fill: #b6ccf1;
      }

      .st189 {
        fill: #dee1e7;
      }

      .st190 {
        fill: #07080b;
      }

      .st191 {
        fill: #bdd3f7;
      }

      .st192 {
        fill: #67779b;
      }

      .st193 {
        fill: #adc3ea;
      }

      .st194 {
        fill: #5e6f95;
      }

      .st195 {
        fill: #0c0e12;
      }

      .st196 {
        fill: #e0e4ea;
      }

      .st197 {
        fill: #728097;
      }

      .st198 {
        fill: #9bb1da;
      }

      .st199 {
        fill: #a6bce3;
      }

      .st200 {
        fill: #a8bee3;
      }

      .st201 {
        fill: #aabfe5;
      }

      .st202 {
        fill: #7285af;
      }

      .st203 {
        fill: #b9ccee;
      }

      .st204 {
        fill: #fcfcfc;
      }

      .st205 {
        fill: #bbd1f6;
      }

      .st206 {
        fill: #879dce;
      }

      .st207 {
        fill: #b0c6eb;
      }

      .st208 {
        fill: #090a0c;
      }

      .st209 {
        fill: #5e697c;
      }

      .st210 {
        fill: #fafbfd;
      }

      .st211 {
        fill: #a1b6db;
      }

      .st212 {
        fill: #9cb0d5;
      }

      .st213 {
        fill: #a4bae7;
      }

      .st214 {
        fill: #b3c8ec;
      }

      .st215 {
        fill: #7a8ebc;
      }

      .st216 {
        fill: #f5f8ff;
      }

      .st217 {
        fill: #2f3236;
      }

      .st218 {
        fill: #3e4655;
      }

      .st219 {
        fill: #a1b1c9;
      }

      .st220 {
        fill: #606b7e;
      }

      .st221 {
        fill: #8796af;
      }

      .st222 {
        fill: #b5cbf0;
      }

      .st223 {
        fill: #8598ba;
      }

      .st224 {
        fill: #bec1c8;
      }

      .st225 {
        fill: #2f374e;
      }

      .st226 {
        fill: #b5c8e6;
      }

      .st227 {
        fill: #9fb4df;
      }

      .st228 {
        fill: #3a414d;
      }

      .st229 {
        fill: #f9fafb;
      }

      .st230 {
        fill: #050608;
      }

      .st231 {
        fill: #90a3c4;
      }

      .st232 {
        fill: #101218;
      }

      .st233 {
        fill: #c1d7fd;
      }

      .st234 {
        fill: #232937;
      }

      .st235 {
        fill: #f7f8fb;
      }

      .st236 {
        fill: #5c6e98;
      }

      .st237 {
        fill: #a2b7df;
      }

      .st238 {
        fill: #d6e5ff;
      }

      .st239 {
        fill: #252a31;
      }

      .st240 {
        fill: #abc1e6;
      }

      .st241 {
        fill: #030405;
      }

      .st242 {
        fill: #93a6c5;
      }

      .st243 {
        fill: #c0d6fb;
      }

      .st244 {
        fill: #3f4b6a;
      }

      .st245 {
        fill: #010202;
      }

      .st246 {
        fill: #bcd1f5;
      }

      .st247 {
        fill: #4c5978;
      }

      .st248 {
        fill: #fdfefe;
      }

      .st249 {
        fill: #ebeff5;
      }

      .st250 {
        fill: #9aafd8;
      }

      .st251 {
        fill: #9fb4dd;
      }

      .st252 {
        fill: #b8cff4;
      }

      .st253 {
        fill: #5d697c;
      }

      .st254 {
        fill: #0c0d0f;
      }

      .st255 {
        fill: #bcd1f4;
      }

      .st256 {
        fill: #d8dde6;
      }

      .st257 {
        fill: #99aed6;
      }

      .st258 {
        fill: #b7ccf0;
      }

      .st259 {
        fill: #1e2228;
      }

      .st260 {
        fill: #7c91c2;
      }

      .st261 {
        fill: #ececec;
      }

      .st262 {
        fill: #7f91b5;
      }

      .st263 {
        fill: #040506;
      }

      .st264 {
        fill: #b6cdf3;
      }
    </style>
  </defs>
  <rect class="st73" x=".5" y="-.5" width="929.1" height="325.5"/>
  <g>
    <path class="st53" d="M930,.5v324.5H.5C.2,216.9,0,108.7.2.4c310-.3,619.9-.2,929.8.1Z"/>
    <polygon class="st115" points=".5 325 0 325 0 0 930 0 930 .5 .4 .5 .5 325"/>
    <path class="st140" d="M14.9,8l2.4.3c3-.4,5.7-.1,8,.9,27.5,1.1,55.7,1.6,83.3,0,3-.8,5.6-.7,7.9.2,14.8-.9,29.4-.9,43.9-.6l.5-1c11.1,0,22.2,0,33.4.1l.6,1c1.9.2,3.7.4,5.5.5,2.4-.4,5.5-.4,8,0,4.9.3,9.7.6,14.6.9,15.3-.6,30.6-.8,45.8-.4l1.2-.5c15.8.5,31.6.5,47.3,0l.3-1c15.8,0,31.6,0,47.4,0l.6,1c13.8.3,27.6.5,41.5.4l13.3,1.1c6.8-.6,13.6-.9,20.3-.8,1.8.8,3.1.6,4.9-.2.5-.4,1.4-.3,2,0,3.6.3,8.8,2.5,10,6,.4,0,1,.2,1,.5.7,71.9,1,144.7,1.1,216l-1,.6c.2,5.1.2,10.3,0,15.4-.9,6.5-.8,12.8.4,19.1.4,0,.9.2.9.5.2,13.6.2,27.5.2,41.1l-.7.3-.4,1.1c-2.6,1-5.1,1.9-7.7,2.8-6.8-.4-13.5.1-20.3,1.5-33.9,1.1-67.7,1.1-102.1.5-6,.6-11.9.6-17.7,0-3.5.6-7.1.7-10.6.3,0,1.5-1.7,1.3-2,0-1.4-.3-2.5-1.3-3.2-2.8-1.5-1.5-2.2-3-1.9-4.3-1.6-.9-2.9-2.3-3.9-4.3-3.3-4.9-6.4-10-9.4-15.1.2-1.4-.3-2.4-1.4-3.1-12-7.1-24-14.3-36.2-21.5l-2.5-2c-4.3-1.1-8.3-3.5-11.2-7-5.1-1.3-9.7-3.4-13.8-6.3-.6.4-2.8-2-3.4-2.8s0-.4.3-.7c-1.2-2.6-3.3-4.7-6.1-5.6l-1,.7c-1.6-.7-3.3-1.1-5-1.2-1.2,1.7-1.2,0-1-1.5l-.7-1.3c.7-3.8,2.3-7.2,4.6-10.1l12,1.5c13.2,1.8,32.8-6.1,29-21.8l.6-1.1c-.5-1.2-.9-2.4-1-3.7s.2-5.1,1.5-5.8c0-1.2,2.4-2.7,3.5-2.5,1.4-1,1.7-4.3.8-5.5l2.1-7,1.2-.4.3-1.2c3.7-1.4,6.9-3.7,7.1-8l1.1-.8c0-2-1.2-3.5-3.4-2.9-1.9,0-3.3-.6-4.2-1.9-1.9.3-2.9-1.8-1.9-3.5,4.9-2.7,9.8-9.2,7.4-14.9l-4.2-6.5.7-1.1-1.1-1.5c-2.9-1.5-5.4-6.1-5.4-9.4-1.6-2.8-1.8-5.1-.7-6.9-1.4-1.2-1.2-5.8.6-6.6-.2-1.6,0-3.2.5-4.6-.4-2.4.4-3.7,2.1-3.9.5-1,2.1-2,3.1-1.2l.8-1c1.9-.5,1.4-2.5-1.5-6.1v-.5c-.2.1-.2-.1,0-.7-.8,0-1-.6-.5-1.6l-.5-1.3c-1.5,1.3-2.5-1.6-3-3-.8-.6-1.1-1.6-.8-3.1l-.7-1.2c-4.1-27.5-20.3-49.4-44.4-62.7l-1.5-2c-.3.8-.6.6-.9-.4-1.9.5-3.1.2-3.5-1-1.6-.5-3.1-1.2-4.5-2.3-2.1.3-3.5,0-4.4-1-.8.6-1.9.7-3.1.4-6.1.1-12.2.7-18.2,1.7l-.9-.4c-.3,1.3-5.1,1.1-6.1.6-1.5-.7-2.6-1.8-.8-2.5.2-1.1,1-1,1.4,0,.4,0,.5-.2.5-.6-7.3-.9-14.6-.3-22,1.9l-.9-.8c-4.3,1.1-8.6,2.1-12.9,2.9-1.6.5-3,1.3-4.1,2.5l-.4,1.2c-3.9,1.7-7.8,3.3-11.7,4.9l-2.7,2c-1.1,1.5-2.4,2.5-3.8,2.8-3.3,1.5-6.6,3-9.9,4.5l-.5,1.7c-27.7,28.1-17.8,69.6-5.4,102.4l3.9,13.7c.7-.5,1.4-.1,1.5.8.4-.9.8-.7,1.4.8,2.1-.8,3.4,3,3.1,5,.5.8,1,1.6,1,2.5-.1,9.7-.4,19.4-.8,29l-1.2,1.9c-.7,2.2-2,4.3-3.7,6.3l-3.4.7c-.2,1.5-1.8,2.1-2.9,1-2.4.7-3.4,2.1-4.5,4.4,1.3.7.8,1.5-.6,1.1-1.9,1.6-3.4,3.6-4.4,6l.5,1-7.2,10.3c.3,1.7.5,4.4-1.3,5,.2,1,.2,2.3-.3,3.1-2.4,2.6-4.9,5-7.6,7.3,0,.3,0,.7-.1,1-.5,1.8-8,6.4-10.2,7.3l-1.8-.2c-1.5.9-3.2,1.6-4.9,2l-3.5,3.4c.3.3.5.6.4,1l-28.1,22.4-1.2-.3-2.1,1.6c-.3-17.3-.4-35.2,0-52.5-1.5-.2-1.4-4.1,0-4.5.9-9.3,1.7-19.2,0-28.5l-1-.5c0-10.4,0-20.9,0-31.3l1-.6c0-38.7-3.4-78,.7-116.7l1-9.5c-.6-.5-1.3-1-1.3-2.1l.2-19.9c0-2.3,1.4-4.4,1.8-6.5.3-1,2.1-1,2.5,0Z"/>
    <path class="st140" d="M647.6,10.5c5.8.7,11.6.8,17.5.5,1.6.1,3.8,1.5,2.5,2.9,1-.1,1,.3,0,.6-7.2,12.8-14.1,25.7-20.7,38.8l-1.7,1.6c-1.4,3.5-3.1,6.8-5.2,10,1.1.5,1.7,1.1,1.7,2l1.1,1.5c-.5,4.9,0,7.9,2.2,12.1l4.2,6.7-.5,1.3c2.7,7.4,5.2,17,6.2,24.8s0,2.2-.1,3.3l.4,2c-2.6,7.5-2.4,15.3-.9,22.9l-.9,1c3.4,12,7.6,23.7,12.4,35l.8,4.9c.2,1.3.3,2.6,0,4l.9,1.5c-1.8,14.8,1.5,27.3,10.2,39.1,2.6,5,4.7,10.3,6.1,15.6l-.4.6.8.5c.4,2.5.9,5,1.4,7.6,1.5.2,2,3.5.4,3.9.9,2.3,1.1,4.6.6,6.9-1.5,3-1.1,3.7,1.2,2.3,2.1.1,4.2.9,6.2,2.4l1.1-.4c5.5,3.4,12.1,4.8,18.5,5.8l.4,1c5.1.5,10,1.7,14.5,3.7,2.1-1.6,3.8-1.9,5.1-.8,6.2,1,6.5,11.1,4,15.4.2.9,0,1.5-.5,2v1.2c-.8,1-3.9,3.7-5,2.9-1.8,1.6-2.2,2.2-1,4.5,1.7.1,1.7,2.5,0,2.9-.3.9-1,1.3-2.3,1.1.6,1.3,0,2.2-1.8,2.5-.7,1.8-4.6,2.9-5.9,1.5l-8,2c-10.3,1.2-20.3,2-30,2.4l-.3,1h-54c0,0-.6-.9-.6-.9l-43.4-.2c-22.3-2.9-44.1-2.8-66.5-1.6-10.6.5-20.7.8-31.1-.2s-5.1-.8-8-.2-6.2.9-9.1,2.3-1.4-6.8-1.4-7.7c-.4,0-.6,0-.6-.2,0-2-.5-15.9,0-16.5s.4-.3.7-.3l.8-7.7,1.7-1.3c0-8.5-.2-16.9-.2-25.4-.9-3.6-1.3-7.2-1.2-11-.4-12.9-.6-25.9-.7-38.9l-1-.3c0-26.8,0-53.6.1-80.4l1-.6.4-96.3c0-3.6.2-11.2,2.2-14.1s2.5-3,4.4-3.2c51.5.3,103.4.2,155.5-.2,0-.4.2-1,.4-1,2.8-.4,11.8-.3,14.7,0l.7,1Z"/>
    <path class="st99" d="M94.4,205.7c.2.3.4.3.5,0,1.7-.5,1.7,1.1,1.7,2.5-1.5,3.8-2.3,7.7-3,11.7l-1.2.6c-.2.4-.3.4-.5,0-2,.2-3-4.5-2-5.8l-1.1.4.5.5c2.7,14.4,13.1,25.6,23.4,35.4l15.1,15.8-.2,1.2c-.2.2,0,.4.2.5.2.2.3.4.5.2l1-.4c11.1,10.8,22.3,21.4,33.6,31.9v1.2c0,1,1.1,1.7,1.9,1.6l2,.4c2.7,2.6,5.5,5,8.5,7.2l.9-.7c1.2-.6,1.9.4,1.6,1.6-.4,2-2.6,2.9-4.4,2.8-2.3-.5-4-.3-5.1.7,0,.4-.2,1-.5,1-8.7.3-19.3.5-28,0-1.7.3-2.7,0-3.1-1-.2-.3-.3-.3-.5,0-.1.4-.3.4-.5,0-1.7-.2-3.4-.4-5-.5-2,.4-4.9.4-7,0-11.1-.6-22.3,0-33.5.5l-.5,1h-31.4s-.6-1-.6-1c-2.7-.4-5.4-.6-8.2-.5l-.3-.5c-2.2.8-6,.7-8.5.5s-.3-.2-.5-.5c-6.5.2-12.9.3-19.4.3l.4.8c0,.3,0,.5,0,.8-.1.6-9,.5-9.5.2s-.4-.3-.5-.6c1.2-1.2-.4-2.6-1.4-3.5,0-.8-.3-1.6-.6-2.5l-.7-.2c-.2-8.4-.3-16.8-.2-25.2l.9-.6c.2-.6.5-1.1,1.1-.9-.1-.7.2-1.2,1.1-1.6,14.1-11.5,29.1-22.3,45-32.4l12.3-9.4h1.8c.7-.3,1.6,0,1.9.8l1.1.6c1,4.2,2.5,8.2,4.5,12.1l18,34.8c.2,1.5,12.8,21.1,13.4,20s-.3-.9-.5-1.2c-14.8-23.4-26.6-47.8-38.2-72.8-.9-2.7-.4-5.2,1.5-7.3.3-2.4,1.1-3.1,2.2-2.3.4,0,.3-.2.1-.5l-.5-1.1c3.8-5.2,7.5-10.4,11.2-15.6,2.1-1.8,6.8-3.8,8.7-1.3Z"/>
    <path d="M922,317.1c-1.3-.9-1.3-2.7,0-3.6-.5-.4-.4-1.1,0-1.5-.4,0-1,0-1-.3-.5-28.3-.5-57.5-.4-86l-3.8-2c.3,4.7-.9,9-2.3,13.4-3.2,10-7.2,20-12.9,29-10.5,16.9-25.9,33.2-39.8,47.1l-1.1-.2c-.3.6-.3,1.1,0,1.4l.3-.9c15-.1,29.9-.2,45,0l.6,1c.7-.4,1.4-.4,2,0,0-.4.2-1,.5-1,1.8-.1,9.5,0,10.5.9s1.5,2.5,0,2.9c-2,.7-3.7.2-6.1.2l-103.9.3-9.7.5-.3-.5h-244.3s-61.5,0-61.5,0l-24.2-.3c-.2-.5,0-1.2.2-1.2s.9-.3,1.4-.3l40-.7,70.4-.3h45.9c.4,0,.7,0,.6-.3h54.9c8.5-.5,16.9-1,25.4-1.4l12.7-3.1c2-.3,4-1,5.9-1.5.9-.9,2-1.5,3.2-1.7-.4-1,0-1.7.8-1.9.2-.9.3-2,0-2.9-1.5-2.2-1.2-3.1,1-4.5,1.5-1.2,3.4-3.2,5-4.1-.6-1.1,1.3-1.6,2.1-1.1,3.1,1.8-.6,4.1-2.4,5.3-1.6,1.3-1.7,1.7-1.5,3.7-.8.1-1,.7-.8,1.8l1.1.7c0,3.3-.7,6.5-2.1,9.6,2.9.3,5.8.3,8.8,0,.4-2.6.9-5.2,2.2-7.5l-4.5-2-.4-1.1-4.2-2.1c-.8-2.6,1-3,5.3-1.3,1.7-7-.7-15-3.5-21.4l.5-1.1c-1.6-1.3-2.4-2.9-2.5-4.8l1-.8c.5-.7,1.6-.9,2.3-.5h1.2c3,7.1,6.7,15.9,6.2,23.6s-.6,4.8-1.8,5.4c.4.6.5,1.4.6,2l.8-.8c2,.3,5.5,1.4,6.8,2.8s1.7,2.1,1.4,3.5c1.1-.4,1.9.4,2.5,2.4,1.2,1.1,2.7,1.6,4.6,1.4.1-3.2.4-7.1,3.7-8.6,11.7-1.8,23.2-4.5,34.4-8.2h2.7c4-1.6,8-3.1,12.1-4.5l1.6-1.7c20.9-8.7,41.1-20,58.5-34.6l2.2-.6c0-.8,1-1.2,1.7-1.6,4-4.9,8.5-9.4,13.3-13.5l.5-.5c-.3-.1-.2-.2,0-.4v-1.1c1.3-1.4,2.5-3.1,3.3-5h1.2c1.1-2.8,1.3-4.8,1-7.8-2.5-2.9-4.3-6.3-5.4-10.3-2.7-6.2-4.2-12.6-4.5-19.2l.9-1c-1-3.3-1.8-6.6-2.4-10l-.6-.5c-.9,3.4-4.8-1.6-2.6-3.4l-1.2-1.8-.9-8.6c-.2-.4-.8-.6-1.8-.7,0,.6-.3.7-.7.2,0,2.3-3.8,2.8-5.8,2.9-4.3.2-11.6-2.7-15.3-4.9l-.3-1.2c-.8.4-.8-1.4-.4-2,.8-1.4,5.7.9,6.4,2,3.6,1.3,7.3,1.9,11.1,2,.7-1.2,1.9-2.2,3.8-2.9,4.2-3.4,8-7.2,11.6-11.4,5.7-4.8,10.9-10.1,15.5-15.7,1.2-2.1,2.3-4.3,3.2-6.6.7.2,1.2-.1,1.5-.9-.2-.3-.3-.5-.3-.8,0-1.6,1.9-5.3,2.8-6.7-.1-.5-.3-1-.6-1.5l1-.5c-1.3-.4-1.6-2.2,0-2.4-.7-1.3-.8-2.9-.4-4.7,0-6.6-.3-17.7-4.3-23.1-7.7-10.3-26.1,3.2-32.7,9.6l-1.7.4c-1.5,1.1-1.1.1-.3-1.1-.8-1.2.6-2.8,2-2.4l.5-.6.5-.5.5-.5.5-.5.5-.5.6-.5c.6-2.1,3.7-4.8,5.8-5.1.4-.8,1.6-1.8,2.5-1.5l.5-1.4c5-2.6,10.8-4.2,16.4-3s7,2,7.2,4.8c.4-.4,1.5.7,1.8,1.1.9,1.2,1.3,2.4,1.2,4,.4.1.4.3,0,.5l.5,1.1,1.4.7c4.2,15.4,1.2,32.3-7.1,46.1l-1.7,1.2-1,2.2c-1.9,14.1-4,28.2-6.5,42.1l-1.1.4.8,1.4c-.1,2.1-.9,6.2-2.3,7.7,0,3.1-.4,5.9-1.5,8.5.8.8,1.7,1.7,2.5,2.5,0-.5.3-1,.7-1,4.5-.2,9.2,1.4,11.2,5.6s1.3,3.3.2,3.9c.8-.4,1.2,0,1.4,1.3,2.9.3,5.3,1.4,7.1,3.2.5-1.4,1.6-.9,1.5.5,1,.1,2.2-.2,2.3-1.3v-52c-1-12.9-.9-25.6.3-38.2l-1-.4.2-116.9c-1.5.1-2.4-.2-2.7-1-1.4,1.6-4.7.8-6.6,0l-1.8.9h-8.9c0,.1-1.8-.9-1.8-.9,0,.4-.2.9-.6,1-1.3.5-7.1,0-8.3-1,0,.4-.2,1-.5,1-8.1.3-18.4.5-26.4,0-1.7.3-2.7,0-3.1-1-1.1.5-2.4.5-3.5,0l-.5,1h-29.3s-.9-.7-.9-.7c-38.7-.1-77.1,0-115.2.3-12.9.3-25.9.3-39,.2-1.1.3-2.2.6-3.3.8-1.7-.1-3.3-.4-5-.7-5.3.6-10.5.5-15.7-.3h-15.9c-52.1.6-103.9.6-155.5,0-1.8-.2-3.6-.4-5.4-.4v-.6c.7-.3,1.4-.4,2.5-.4l74.9-.8,106.1-.5,266.4-.8c1.1,1,1.9.8,3.3.7v87.3s-.3,154.6-.3,154.6v31.2c0,9.2.3,18.1,0,27.3s-.8,6.2-.5,9.6-1.2-.3-1.3-.5Z"/>
    <path d="M461.2,297c.6,2.8.9,6.3,0,9v12.9c-1.9.9-3.4.9-5.6.9l-231.5-1.2c-.4,1.4-.6,2.5-1.9,3.1l-1.5-3.1-152.2-1-58-.6c-.8,0-.4-1.2,0-1.2s.8-.1,1-.2c2.9-.7,8.8.7,10-.4,1.8-1.2,5.2-1.2,7,0,.7-.2,1.4-.2,2.2-.3,3.8-.2,8.2-.3,12.1-.3,1.8,0,4.2,0,5.9.1s.2.2.3.5l.7-.5c2.8,0,5.5.1,8.3.5h32.5c11.1-.3,16.7-.5,16.7-.5l.3.5c.2-.4.8-.4,1,0,.1-.4.3-.4.5,0,7.2-.4,14.9-.4,22,0,1.4-.4,3.5-.4,5,0h.5c.2-.3.3-.3.5,0h31.5c.1-.5.3-.4.5,0,10.8.3,21.7.3,32.6.1l.3-.6h-1c0,.9-1.4.9-1.6,0-.5.3-1,.1-1.4-.2-1.1-.7-1.9-5.4-1.9-6.9.3-3.7-.1-7.2-1.2-10.4-1.2.1-1.9-.7-2.4-2.4-.7.5-1.4.4-2.2-.3-.3,2-.7,3.9-1.2,5.9-.2.1-.5.3-.7.5-1.4,1-8.5,2.3-9.5.3-.9-.3-2.9-.5-3.2.5-2,0-8-1.6-8.7-3.5s.1-.9.4-1.4c-.6-.8-.3-1.1.5-.6,2.5-.7,6.5.3,8.4,2.1,1.2-.9,2.9-1,5-.4,1.5-.2,2.7.1,3.5,1-.5-1.6-.3-3.2.5-4.5,0-1.9.2-3.7.5-5.6-.9-.3-.9-.7,0-.9.1-4.5.4-9,.8-13.5l1.1-.6c.4-1.6.7-3.3.8-5.1.6-1.2,1.5-1.3,2.7-.4.4,0,.4.2,0,.4.8,2,1,4.1.6,6.1l-1.1.8c-.3,1-.2,1.5.5,1.5-.3-2.6,3.7-4.4,6-3.8.9-1.1,2.1-.2,2.9.8.8-1.3,2-.8,2.6.4l3.1.4,1.4,3.1c1.6.4,3.1,4,3.6,5.7,1.1,3.6,1.2,4.4-2.5,5.9,1.4,1.4,1.2,3.1-.4,3.7,4,6.1,7,12.5,9.2,19.2-1.7,2-1,2.5,2.1,1.6-.5-1.9-.3-3.4.6-4.5-1-6.1-2-12.3-3.1-18.4s-.5-.6-1-.6c-.1.4-.2.4-.4,0l-.6.4c.3,1.3-1.3,1.4-2.2.9-3.3-1.9.3-6.7,2.8-4.3,1.4-1.8,3.4-2.4,5.1,0s1.4,3,.4,3.8c.4.5.4.9,0,1.1.7.2.7,1.4.4,2,.6.9,1.2,1.9,1.4,2.9.9,5.4,1.7,11.8.7,17,1,0,1.2.1.7.5,1-.1,1.8,0,2.4.5,0-1.4,1.2-1.4,1.5,0,.2-.4,2.4-.5,3.2-.5,12.8,0,26.1,0,38.8.5,1.7-.4,4.2-.4,6,0,1.2-.4,3.2-.4,4.5,0,4.7-1.5,10.6-1.3,15.4,0,.9-1.6,1.8-1.1,3.1,0h2c3.6.5,7.3.4,10.9-.2l5.4.5c24.9-.5,49.8-.4,74.5.2,22.5-.5,45-.5,67.5,0l-.3-5.5,1-.9-.5-41.9c-1.1-6.3-1.3-12.8-.4-19.4.1-5,.1-10.1,0-15.1l-.4-66.7-.7-150.4c-1-1.5-1.3-3.2-1.1-5.1-3,0-6-.3-9-.9-10.4.1-20.9.3-31.4.6-16.8-.7-33.7-1.1-50.6-1.1h-48.4c-16.5.7-33,.6-49.5-.2-22.6.1-45.1,0-67.4-.3-1.6.5-3.8.4-5.5,0h-34.4c-14.4-.3-29.2-.3-43.7.5-1.1-.4-2.2-.6-3.3-.7l-8.8.8s-26.5-.1-79.5-.4c-2.4-.8-5-1.1-7.8-.7l-2.3-.3c-.8,0-1.7,0-2.5,0-.3,0-.5,0-.7-.1-.3-.1-.4-.5-.2-.7s.5-.4,1.1-.4l65.9-.4,156.3.2,105.9.3,113.8.3c2.1,0,3.6-.3,5.5-.7l.7,168.7.3,121.8Z"/>
    <path class="st99" d="M922,312c-.4.4-.4,1.1,0,1.5.1,1.2.1,2.4,0,3.6-.7.4-1.8.1-2.5.4,0-.8-.4-2.6-1.6-2.6l-9.4-.2c-.6-.4-1.4-.4-2,0h-45.9c-.5-.2-.5-.7,0-1.5l20.6-21.7c6.7-7,12.1-14.5,17.5-22.5s9.2-15.6,12-24.3,6.3-14.1,4.7-22.2c2.4.6,4.1,1.6,6,3.1l.3,64.1.3,22.6Z"/>
    <path class="st18" d="M10,162.8v32.4c1.6,9.4.9,19.2,0,28.5v4.5c-.3,17.2-.3,34.5-.2,51.9.4,1.5.3,2.6-.3,3.5v26c.5.7.7,2,0,2.5-.1,1,0,2.1-.4,3.1s-.7,0-.7-.2-.4-.6-.4-.9l-.2-10-.2-34.9c-.4-1-.4-2.1,0-3.1v-108.8c-.2,0-.4,0-.4-.2-.2-4.5-.2-9.5,0-14s.2-.2.5-.3c-.4-.3-.4-1.1,0-1.5-.8,0-.4-1,0-1.6l.2-132.6c0-1.1,2.3-1.5,2.4-.8.4,2.5,0,5.1,0,7.7v29.6s-.2,119.3-.2,119.3Z"/>
    <path class="st18" d="M470.8,9.5c.8,1.2,5.6-.2,5.5,1-1.6.9-3.5,1.3-5.7,1.1-.1,5.9-.4,11.7-.9,17.6l-.3,95.2v81.3c.4,25.2.6,50.6.5,76.2-.4,2.7-.8,5.4-1,8.2v16.9c-1,2.8-.1,5.8-.6,9-.8-.2-1-1.1-1-2,.3-4.8,0-9.2,0-14l-.2-39.6V60s.2-51.8.2-51.8c0-.7,1.1-.9,1.4-1,.6-.3.8.6.8,1.3s0,1,.1,1.3.9-.4,1.2-.3Z"/>
    <path class="st238" d="M7.5,141.3c-.4.4-.4,1.1,0,1.5v14.5c-1,.6,0,1.9-.9,3v-18.9c0-.7.5-1.6.9-1.7v1.6Z"/>
    <path class="st102" d="M809.6,318c-.2,1-1.6.4-2.5.5-1.5.2-8.6,1.6-7.5-.5h10Z"/>
    <path class="st80" d="M461.2,306v-9c1.1.4,1.7,8.8,0,9Z"/>
    <path class="st23" d="M10.1,312h-.6c.1-.8,0-1.7,0-2.5,1.1.5,1,1.7.6,2.5Z"/>
    <path class="st189" d="M7.5,269.1c-.8-.7-.8-2.4,0-3.1v3.1Z"/>
    <path class="st69" d="M924.7,14.5c-.4-.8-.4-1.7,0-2.5.4.7.4,1.3,0,2.5Z"/>
    <circle class="st216" cx="14" cy="6.2" r=".3"/>
    <path class="st53" d="M204,25.9c.6-.2,1.3-.2,1.9,0,2.6.6,11.4,7.5,14,9.6,17.1,13.9,26.7,31.9,29,54,1.2.6,1.3,3.4.6,4.4.3,1.6-.2,2-1.7,1.6-5-2.1-7.1-1.1-6.2,2.8.6,2.7,1.3,5.4,2.1,8.1-1.6,1.7-3.1,2.3-4.6,1.6-.7,0-1,.3-.6.9,1,1,1.5,2.3,1.4,4l1,.8c4.9,11.7,11.3,22.9,18.5,33.2.7,1.4,1.4,2.9-.4,3.3-2.7,5.8-9.5,6.1-14.7,3.8h-2.5c-4-1.6-8.3-1.1-12.9,1.6-1.8-.8-3.7-2.2-4.1-4.3-1.2-.4-.6-2.7.5-3,.2-.3,0-.4-.5,0-.1,1.3-.6,2.2-1.4,2.4-.9,2-.9,3.7,0,5h1.1c2.7,3.4,4,5,4,5l-.8,1.1c-5.2,2.1-8.5,7.6-10.9,12.4l-1.3.5c-3.8,4-10.6,5.2-15.9,4.4l-1.1,1.1.4,1.1c-4,3.5,4.2,8.3,7.5,8.1l.7.7c.6-2.1,1.4-1.2,2.4.1.6-.5,1.5-.7,2.7-.5,2-.4,3.8-1.4,5.4-3,2.9.2,5.5-.3,7.9-1.4,1.4-1.3,2.6-1.8,3.8-1.6.5-.2.9.1,1.1.9l1-.6c3.6.4,7.2.3,11-.1.9-1.6,1.8-2.2,2.9-1.7-.4-.8.1-1.3,1.6-1.5.5-2,5.2-2.4,6-.5l-2.3,7.6-.4,4.2c0,.8-.6,1.3-1.3,1.2-.5-.9-.6-2,0-3.5-.8,1-1.6,1.5-2.5,1.4-6.1,2.9-16,4.4-21.3-1-1.5,1.2-1.4,2.7.5,4.3.7,3.5,2.3,5.8,5,6.9l8.1.2.7,1c1.5,0,3,3.4,3.5,4.9s.9,3.3.5,5.3-1.9,5-3.4,4.5l-.8.7c-2.8-.3-5.5-.2-8.3.3-9.2,4-20.1,6.9-30,5l-1.6.5c-14.7-3.5-27.6-12.4-39.4-21.6l1.8,2.4c5.8,4.9,11.9,9.3,18.5,13.2v1.1c5.8,3.7,12,6.6,19,7.5.9-1.7,2.3-.5,2.1,1.4-6,11-8.1,23.8-7.3,36.2l-2.4,1c-4.4-1.5-4.9-1.5-1.5.1,2.5,0,3.5.5,3.2,1.7.2.6-1.7,1.1-1.8,1.1-.5-.4.6-1,.2.5-3.2-.5-2.7,6.8-3.5,5.4-.4-.1-.9-.4-.9-.8-.5-6.4-.7-7-8-8.7l-.5-1.1c.3-1.6-1-2.1-3.8-1.6-8.9-1.6-20.9-5.9-29.5-9.4s-7.7-3.2-11.3-5.3-.6-.5-.8-.9-.4-.7-.6-1.2c-8.8-5.4-16.8-11.4-24-18-1.3,0-2.2-.7-2.9-2.3-2.2-5.3-4.9-10.3-8-15.1,1-4.7,2-9.4,2-14.2-.3-11.2-.4-22.3-.3-33.4,2.6-.2,4.4-1.8,5.3-4.8h1.4c.3-.8.6-1.1.9-1.1,1.3-.7,2.3.7,1.5,2,2,9.2,8.1,17.4,15.1,23.7,1-1.5,4.5-5.4,6.1-2.6.9,5.7,3.4,9.9,7.6,12.8l2.3,4.7c2.2-1.5,4.4-3.2,6.4-5.1l-2.2-10.3c.7-.3.7-.9.7-1.6-1.4.1-1.4-.5-.4-1.4-1.2-3.4-2.2-6.9-2.1-10.5-.6.6-1.7-.5-1.9-1.4l-1.1-.4c.2-3,0-5.9-.5-8.7-.8,6.1-1.4,9.3-7.8,11.1s-9.5-.4-13.9-4.6-14.5-17.4-18.1-24.4c-4.7-9.1-4.7-20.6,5.5-25.6s6.3-2.6,7.6-.5c3.9,1.8,7.7,3.8,11.5,6,.3-.3.8-.6,1-.5,2.5,1.8,10,8.1,11.5,10.2s.2.8,0,1.2c.7-.1,1.4-.2,1.9-.1l.5,1,.8-.7c4.6-.9,9.2-2,13.6-3.3.2-2.2-.7-4.5-2.8-7-.5-.8-.6-1.6-.5-2.4-2.2.5-1.9-1.5-.5-2.5l-1-1.1c-.8-6-2.1-12-3.8-17.9-.4-2.3-.9-4.9-.1-7.2s3-5.4,4.5-4.2c.5-.2.9-.6,1-1.1-1.2-.4-1.1-1.3.4-2.5,3.2-2.9,6.5-5.6,10.1-8.1,2.2-3.8,4.8-6.2,8.5-8.5,2.3-2,5.1-4.4,4.1-7.7l.5-.5-.4-.4c-.1.5-.3.4-.6,0-1.5-.4-1.3-.8.5-1.2-1.5-.9-2.5-2.5-3.2-4.6l-3.5-5.3c-2.9-1.8-4-4-3.3-6.4,1.5-.5,2.8-1.2,4-2.1-.4-2.4,4.7-3.9,5.4-1.6l.2-.6c5.1-.2,9.7-1.4,13.8-3.7h1.1s.2-.7.2-.7c1.6-.3,3.2-.7,4.8-1.2l.5-.7c2.4,0,4.8-.2,7.1-.2,0-1,.8-1.7,1.8-1.1.9-1.2,2-.7,3.1,0Z"/>
    <path class="st15" d="M160.5,17c-.7,2.8,5.2,1.3,6.9,1.9.4.1.9.4.7.7s-.3-.4-.1-.4c1.2-.4,14.7-1.2,15.4-.8,1,.7.5,1.6-.2,2.3,4.4-.9,8.7-1,12.9-.4.2-.6,1-.5,2.4.1,1.7,0,3.1.7,4.5,1.5-1.7.6-2.5,1.5-2.5,2.8-.9,1.7-1.9,2.3-3,1.6q-.4-.6,0,0l-.2.7c-4.2,0-8.4.2-12.6.5l-.4.4c1.4,2.5-4.4,4.8-5.8,3-1.2-.4-2.9-.1-3.1.5v.7c-1.2.7-2.6,1.4-4.1,2.1-1.9-.6-4.1.4-5.4,1.6-.6,1-2.1,1.6-2.9.7-.5-.4-.7-.4-.5,0,.3.8-.2,1.6-1.7,2.2.5,3,2.3,5.6,5.2,7.9,1.5,3.1,3.4,5.6,5.8,7.7-.6.4-.6.7-.5,1.2.7.5.9,1.1,0,1.4-.4.1-.7.8-.9,2.1-.8.9-1.3,1.8-1.7,2.7.2,1.3-.7,2.4-2.5,3.3-2.3,1.3-4.4,2.8-6.4,4.4-1.1,1.1-2.1,2.1-3,2.9l-.6,1.8-11.7,10.6c.4,0,.5.4.4,1.3-2.2,2.3-3.3,5.1-2.6,8.3l4,19.8c.4.4,1,.6,1.9.6,0,.7-.2,2.3.5,2.5.3.8.4,1.6.4,2.6,3.1,5,3.1,6.6-3.3,7.1-2.9,1-5.6,2.2-8.2,3.6-.7,0-2-.4-2.4-.9l.2-.9c-3.5-3.9-7.6-8.3-11.5-11.9s-9.3-6.4-15.1-5.8l-1.2-.8c-.2-.4-.6-.4-1,0l-.6,1.3c-15.8,6.3-13.9,22-5.2,33.6l-.3,1.3c.5,1.8,1.3,3.5,2.3,5.1.7,1,.3,3.3-.2,4.5.7.6.5.9-.4.6l-2,2.5h-1.2c0-.9-.4-.9-1,0-1.3.5-3.3-2.4-3.5-3.9-.7.6-1-.8-1-1.6s.2.6-.3.7h-1.1c0,0-4.9-18.3-4.9-18.3-11.3-30.3-17.5-67.8,4.4-94.6,5.8-1,12.6-4.3,15.4-9.9l1.3.3c1.4-.3,2.8-1,4.2-1.8.3-.4.6-.8,1.1-1.2.2-.8.9-1.2,2.1-1.3,11.3-4.7,26.7-10.9,38.9-11.8,1,0,5-.2,5.3.4s.2.5.2.7Z"/>
    <path d="M105.9,156.8c-2.6,2.5-1.5,5.8-6.1,5.4l.7,27.5c.2,6.7-.3,13-2.1,19.4,5.6,6.5,4.5,11.1,10,17.5,7.5,6.8,15.6,12.8,24,18,7.6,4.7,16.2,7.8,24.9,10.6,5.3,1.7,10.2,3.5,15.6,4.9s5.8-1.3,6.4,1.7-.4.9-.9,1.2c-.7,1.4-4.4,1.3-6,1.2-4.3-.4-14.5-3.9-18.8-5.5-13.3-5.1-22.6-8.7-34.5-16.9-6.9-4.8-16.1-12.3-18.5-20.7l.3-1.8-1.2-.5c0-.4-1.4-5-1.6-4.8-1.1,1.2-2.1,6.9-2.2,8.7-.4.6-.9,1-1.8,1.2,1.8,3.6,4,6.9,6.6,9.9,24.2,25.6,50.1,51,75.7,75.1l-.2,1.2c0,.6.5,1.7-.5,2.3-4-2.8-7.4-6.2-10.8-9.2-.8,0-1.9-.8-2-1.6l-8.1-7.4-26.4-25.3c-.2.3-.4,0-.5-.2-.3-.1-.3-.3-.2-.5l-6.1-6.1c-4-4-7.4-8.4-11.6-12.3-8.9-8.4-18.9-20.1-21.2-32.4s-.2-1.5,0-2c.5-.8.8-.9,1.1-.4.3,2,.9,4.2,2,5.8.1.4.3.3.5,0,1-3.1,1-6.6,2.3-9.9s1.6-3.4.2-5c-.2.3-.4.2-.5,0-8.8-1.2-10,5.3-13.3,9.7l-6.1,8.2c.3.2.2.4-.1.5-1.3.3-.8,2.2-1.4,2.8-1.7,1.9-2.5,4.1-1.3,6.6l3,6.3c3.7,7.7,7,15.3,10.9,22.9l7.2,13.8c5,9.6,9.9,19,16,28,1,1.5,2.1,2.7,1,4.6-4.7-2.4-14.7-20.7-17.3-25.7l-10.3-19.9c-3-5.8-9.5-17.6-10-23.4-.5-.6-1.2-.8-1.9-.8-2.5,1.6-4.7,3.6-7.2,5.5-4.2,3.3-8.4,6.3-13,9-6.9,4-13.1,8.5-19.4,13.4l-18.9,14.7c-.6.5-1.2.7-1.7.7-1.7-.9-.5-3,1.4-3.6l12.1-9.8,16.9-13.2c2.1-2.6,4.9-4.4,8.4-5.4,4.3-2,8.7-4.7,12.1-8,2.5-2.3,5-4.5,7.6-6.7.1-1.2.3-2.5.3-3.8-.2-1.1,1-2.6.5-3.6-.6-1.5-.2-1.9.6-3l6.8-9.7c1-2.2,2.2-4.6,4.4-6,.2-.3.5-.7.6-1.1,1-2.1,2.1-4,4.5-4.4,1-.3,1.9-.7,2.9-1,1.8-.8,3.6-1,5.2-.8.3-2.2,1-4.3,1.9-6.3.5-4.5.4-9.1.6-14s.6-13.1.4-19.4c0-1.1-.1-2.2-.3-3.3l.6-.3c0-1-1.2-2.1-.7-3.2.8-2,2,2.5,2.9,3.3l.9-.5.6-.6c-.4-.1-.4-.3,0-.4l.5-.5c-.4-.1-.4-.3,0-.6.2-.1.2-.5.4-.6-.1-4.3,4.8-2.6,3.1.7Z"/>
    <path d="M248.9,193.2c-.7,1.4-2,2.1-3.5,2.5,0,.7-.7,1.2-1.9,1.5-.3,2.5.1,5.2,1.4,8.1,1.4,3.1,1.6,6.8,0,9.9s-1.7,3.8-3.1,5.3c-9.7,10.7-25,9.7-38.1,7-2.3,3.4-3.2,7-4.2,10.6.1.8.2,1.6.2,2.4-1.4,6.5-2.5,13.1-3.2,19.7,1.4.4,3.7,1.4,5,2.3,3.3,2.4,5.8,10.5,6.8,14.6l-.7,1c-.9-.3-.7-1.6-1.3-2.3-.9-1.1-2.6-.2-3.3-1.3.3-.6.6-1,.7-1.3l-6.1-6.8c-1.3,1.4-4.2,2.6-4.5.2-1.1-1.4-2.6.8-6.1-2.4s-.7-1.2,0-1.8,2.9,2.3,6,1.1c-1.6-10.9,1.6-25.9,6.7-35.5s.8-.9.5-1.3-.8-.3-1.2-.5c-7-.9-13.2-3.8-19.1-7.5-1.9-1.5-26.3-15.9-20.1-17.8,8.5,6.6,17.4,12.9,27.2,17.5,4.6,2.2,9.3,3,13.8,4.7,6.7,1.1,13.4,2.1,20.2,2.1,6.6,0,13.5-2.3,17.5-7.8l1.4-.4c1.5-2.5,3.2-4.4,2.5-8s-2.3-4.5-3.1-6.6c-2.1-.2-1.2-3.6-.8-5.2,1-3.2,2.3-5,5.8-5.1.7-.5,1.3-.9,2-1.1.7-1.4,1.9-2.6,3.3-3.3.4,2,0,3.8-.8,5.4Z"/>
    <path class="st93" d="M162.4,16.4c.3.7.1,1-.5.6-.4-.1-1,.1-1.4,0-8.3-2-33,6.9-41.9,10.6-1.7.7-3,1.6-4.7,1.3-.1.4-.3.4-.5,0l-.5.5c-.6.4-1.3.8-2,1,.1.8-1.4,1.7-2.3,1.5-1.5.6-1.4,2.5-2.5,3.7-1.9,1.9-9.2,6-10.3,6.2l-3,.4c-3,.4-14.5,22.7-14.4,40.7,0,9.6.1,19.2,2.7,28.3l3,10.5c1.5,5.2,3.4,10,4.8,15.2l4.7,17.5c1,.5,1.2,2.4,0,2.7-.5-.2-1.7.3-2.2-.2-1.3-3.6-2.5-7.2-3.3-11s-3.1-9.2-4.6-14c-6.2-19.6-8.3-27.5-8.6-48.4-.1-11.1,3-21.2,8.3-30.7,3-5.5,6.2-10.4,10.9-14.3,3.3-1.5,6.6-3,9.9-4.5,2.8-4.2,7-6.9,12.1-8.3s4.3-2,6.3-2.7c2-1.9,4.7-3,8-3.1,2.9-1,5.9-1.7,9-2.3l12-2.4c1.5-.3,9.9-.7,10.9,1.3Z"/>
    <path d="M240.9,112.3c.7-.8,1-.4.5.5,1.3.9,2.1,2.4,2.5,4.6,1.6,1.8,2.3,4.1,2.9,6.4l.6-.3c.9,1.3,1.5,2.9,2,4.8,1.8,3.1,3.4,6.4,5.4,9.4l1.1,1.5c1,3,4,5.2,4.9,8.6,1.5,5.2-4,13-8.5,14.7.3,1.3,1.3,1.9,1.6,2.7,1.4.8,2.1,2.2,2.2,4.1.2,3.7.6,4.4,1,2.1-1-4.5,2.2-6.6,4.5-2.3s.1.6-.2.9c-.4,6.2-3.4,7.9-8.5,10.1-2-.4-4-.2-6,.5-.8.4-1.3.7-1.6,1.5-.9.8-1.6,1.7-2.5,2.8-4.2-.8-8.4,1.9-12.4-.3-1.2-1.3-1.3-2.1-.5-2.5-1.1-1.5.7-4.1,2.2-5.2,3.5-2.6,10.5-2.5,14.2-.4l1.8-.2c1-.8,1.9-1,2.7-.7,0-.6.5-1.1,1.1-1.1l-.7-.9c0-3.5-.8-7-2.5-10.5-5.8-1.2-11.7-1.3-17.7-.4l-1.1-.6c-.4,1-1.6,1.1-2.4.7v1.1c-3,2.1-5.3,4.9-6.9,8.4-1.6,4.8-4.4,8.3-8.2,10.5-3.6,1.2-7.5,1.5-11.6.8,2.1,1.7,4.3,3.2,6.8,4.5.7,1,.8,1.4-.5,1.8-4.2,1.3-9.3-3.7-10.3-5.7s.8-3.3,1.7-4.3c.2-.5.6-.9,1-1.1,2.6,0,5.1.3,7.7.7,3.2-.4,6-2.1,8.3-5.1,1.2-3.6,7.4-13.3,12.5-14-2.4-1-3.5-3.1-4.6-5-.9-1.3-.9-3,0-5,.3-.9.3-2.3,1.4-2.4.2-.3.4-.3.5,0-.4,1-.4,2-.5,3,.7,1.4,1.3,2.8,1.6,4.3,1.7,1.9,4.1,2.8,7.1,2.7,1.7,0,3.3.2,4.9.6,2-.8,5-.5,7.1,0l.7-.9c6.5,2.4,8.1,0,10.9-5.1l1.8-2.5c.4-1.2-.1-2.5-1-3.6-2.6-3.4-4.7-6.8-6.8-10.5-4.4-7.6-8.7-15-11.3-23.2-.7-2.6,0-3,1.1-.5Z"/>
    <path class="st60" d="M459.8,309.5c0,2.4.6,4.8.3,7.4l-66.2-.5-10.6-.4-58.9-.2c-4.7,0-8.9.2-13.6,0s-9.9.6-10-.2c2.7.1,6,.5,8.7-.4,4-1.4,2.4,1.4,11.2.2s8.9-.7,13.6-.4l5.5.4c3.9.3,7.8.1,11.7,0,6.8-.4,13.7,0,20.5,0l18.7.3c3.8,0,7.3-1,11-1.1l18-.4c4.3,0,8.5.3,12.7-.5s7.8-1.6,11.8-1.4l5.4.2c3.6.2,6.7-2.5,10.1-3Z"/>
    <path class="st60" d="M160.4,8.9l-29.3.3c-5,0-9.8.6-14.8,1.2-2.2-2.8-5-.8-7.6-.4-6.4,1-12.7.5-19.3.9-16.1.8-31.8.6-47.9-.3-5.7-.3-11.1.2-16.6-.6-1.9-3.3-7-.1-10-2.1l43.6.4,68.4.2h32.9c.3,0,.6,0,.6.3Z"/>
    <path class="st245" d="M202.9,21.9c8,4.7,15.7,9.8,22.5,16.5,4.6,4.5,8.7,8.9,12,14.5,6.4,10.8,10.5,22.7,12.1,35,.3,1.5,0,2-.6,1.6-1.2-4.9-2.1-9.8-3.7-14.9-2.1-6.5-4.6-12.6-8-18.4-7-12.2-21.2-23.7-33.2-30.2-1.2-.6-2.1-1.1-3.1,0-.4.4-1,1-1.3,1.9-2.6.3-5.6,0-8.2.1-1.9.4-3.6,1-5,1.9-1,3-12.7,5-15.2,4.3-1.6-1.4,4.5-2.8,4.1-2.8.4-.9,2.2-.9,3.1-.5,1.8-.3,3.7-.7,5.3-1.8-.5-.7-.7-1.3-.5-1.7.4-.6.9-1,1.7-1h12.5c4.2-3.3.6-2.6,3.3-4.5s1.4-.6,2.2,0Z"/>
    <path class="st60" d="M293.7,308.4c0,1.4-.7,1.4-1.2.2l-1.6-.2c-4.4-5.5-8.5-11.2-12.3-17.1-6.1-6.5-13.2-11.9-21.3-16.2-9.6-5.4-19.3-10.6-29-15.4l-.8-.9c-.5,1.2-1.8,1-3.9-.7l-4.1-2.9c-1.3.8-2.7-1-1.6-2-1.3-1.2-2.1-2.5-2.4-3.9,4.9,1.6,8.7,3.9,14.3,5.5,2.9,3.4,6.7,5.8,11.1,7,4.2,3.6,8.9,6.1,13.7,8.9l24.2,14.1c1.7,1,2.9,2.3,2.6,4.2,1.7,3.3,3.7,6.3,5.8,9.3s4.2,7.1,6.5,10.3Z"/>
    <path class="st246" d="M317.4,9.5c-.5,1.1-2,.3-3.1.4-6.3,1-12.4,1.1-18.8.9l-15.7-.7c-3.8-.2-7.5-.1-11-.1-15-.4-30.2-.3-45.5.4-5-.3-10-.6-14.9-.9h-8c-.4-.1-.4-.3,0-.5h79.4c0,0,37.6.5,37.6.5Z"/>
    <path class="st26" d="M447.8,10c-.6,0-1.4,0-2,0-1.6.8-3.3,1.1-4.9.2l-18.6,1.8c-5.5.5-10.7-1.7-16.2-1.7l-39.7-.3c-.4,0-.8-.2-.6-.4h41.5c0,0,29.5.1,29.5.1h10c.5-.1.8.1,1,.4Z"/>
    <path class="st101" d="M200.3,239.6c.4.2.5.4,0,.7.9.3.9.6,0,.9,2.1,3,3.8,6.4,5.1,10l-.6,1c1,1.5-.1,1.2-1.1,0l-.9.7c-.7-.5-1.1-.6-1.5.3v1.1c-1.7,1.9-3.4,3.9-5,5.9-.9-7.2,1-14.9,3-22,0,.7.2,1.4,1,1.5Z"/>
    <path class="st24" d="M189.5,17.2c.8.2,1.3.5,1.6,1.1,2.3-.4,3.8,0,4.3,1.2l.6.5c.4,0,.4.2,0,.4-4.5.3-9.3,1-14.1,1.5-.8-.8.4-1.9,1.4-2.7l-15,.9c-.4,0-1.1-.1-1.3-.3s.2-.5.2-.8c.6-1.6,16.3-2.2,19-2.3s2.2.2,3.1.6Z"/>
    <path class="st107" d="M268.9,10h-25.4c-1.9.1-3.6.5-5.6.6l-14,.8c-2.5.1-4.9-.6-7.4-1s-8.6,0-8.1-.8h59.9c.4,0,.6.3.6.5Z"/>
    <path class="st104" d="M10,223.7v-28.5c1,1.1.7,2.9,1.1,4.5,1.6,6.9,1,13.6-.6,20.5s.7,2.9-.5,3.5Z"/>
    <path class="st112" d="M255.4,100.9c2.3.2,1.7,3.5-.4,4.2-.8.6-2,1.6-3.1,1.2-.7,0-1.3.4-1.7,1.2l-1-.7c-.4,1.8-4.5-.3-5.4-1.2s-2.2-3.8-.7-4.6c1.8,1.1,3.6,1.7,5.5,2,1.6-.4,2.6-.1,3.2.7.4-.7.9-1.3,1.6-1.4-.8-2,.2-3.3,2-1.5Z"/>
    <path class="st260" d="M261.4,170.2c-.8-.7-1.4-2.4-2.7-2.5-2.1-.1,1.8,4.6-3.3,7.6.4-3.8-.2-6.8-1.4-10,3.4,1.4,7.4.5,8.2,3s.2,1.5-.7,1.9Z"/>
    <path class="st76" d="M459.3,267.6c-1.3,0-2.1-8.6-2-9.5l1.3-9.6.3-15.4c.3,0,.4.2.4.6v16.9c0,0,0,17,0,17Z"/>
    <path class="st236" d="M206.3,240.1c2.8.9,4.9,2.9,6.1,5.6l3.1,3.5c1,1.1,1.7,2.5,2.4,3.9l-1.3.4c-2.2-2.6-4.7-5-7.3-7.3-3-2.2-6-4.2-8.9-5.9,0-.2,0-.4,0-.7,2.2-.8,4-.3,6,.5Z"/>
    <path class="st221" d="M12,279.1c-.5.4-1.1.8-1.6,1.3-.7.6.2,1.6.2,2.3,0,.6-.5,1-1.1.9v-54.8c0-.4.2-.7.4-.6v51.9c.9-.4,1.4-1.1,2.1-1Z"/>
    <path class="st104" d="M457.8,16c-.4-1-10.4-6.7-10-6,3.2-.3,6.4-.2,9.9,0v6.1Z"/>
    <path class="st180" d="M249.3,114.9c-.5,2.1-.3,4.4-.6,6.6-.3,1.3-.7,1.5-1.3.8-.4.8-.6,1-.9.2-1.4-2.2-1.4-3.8,0-4.5-1.3-.6-.9-3.2.4-3.5-1.1-.9-.7-1.3.5-1.7-.7-1.2,0-1.5.9-.5,1.1-.6,1.4.3,1,2.6Z"/>
    <path class="st188" d="M139.5,17.5l-12.9,4.1-4.1,1.4c-.5-1.3.6-1.7,1.6-2.3,4.3-2.8,3.1.3,9.7-2.2s3.9-.5,5.7-.8Z"/>
    <path class="st191" d="M245.3,195.7c0,3.2-.9,6.4-.5,9.6.3.6-5-6.8-1.8-9.1s1.5-.2,2.3-.4Z"/>
    <path class="st258" d="M61.6,242.6c2.4-2.3,3.9-5.5,6.6-7.7s1.5-1.7,1.4-2.7c.6,1.2.3,2.5.8,4-2.8,2.4-5.6,4.7-8.7,6.4Z"/>
    <path class="st157" d="M89.9,203.2c4.4-1.1,1.7-2.9,6.3-5.3s.2-1.6.8-1.7c-.2,2.4-.5,4.8-1.1,7.5-2.1-.6-4-.7-6-.4Z"/>
    <path class="st205" d="M293.7,308.4l5.1,7.1c-1,0-2,0-3.1,0l-1.2-.4c-.2-1.3-.6-2.5-1.3-3.7-1.4.4-2.1-2.3-.8-2.9l1.2-.2Z"/>
    <path class="st83" d="M198.4,20.5c-.8,0-1.6-.2-2.4-.1v-.4s-.6-.5-.6-.5c-1.4-.4-2.9,0-4.5-.3s-1.1-1.4-1.4-2c1.6.6,3.8-.8,5.3.3s2,2.6,3.6,3Z"/>
    <path class="st255" d="M49.5,250.6c-2.2,2.5-5.8,3.4-8.4,5.4,3.1-6.9,5.3-4,8.4-5.4Z"/>
    <path class="st50" d="M104,33.9c-1.5,1.7-4.1,2.7-6.3,3.8s-2.8-.3-3.7.7c2.8-2.4,6.1-4.1,9.9-4.5Z"/>
    <path class="st136" d="M255,105.1c.4-1.4,1.7-3.1.4-4.2-2.1,0-2.7-1.2-1.4-3.1-.4,0-.4,0,0-.3h.5c1.1,2.3,5,5.1,3.1,6.9s-1.9.3-2.6.7Z"/>
    <path class="st118" d="M251.9,106.3c-.7,0-.9.7-1.1,1.5l-1.5,7.1c0-1-.3-1.9-1-2.6-.6-.6-.6-1.4,0-2.6-.5-1.3-.9-2.7.9-2.8,1-.3,1.6-1,2.7-.6Z"/>
    <path class="st64" d="M254.3,96.8c0,.4,0,.7-.3.7,0,.1,0,.2,0,.3-1.2,6.2-5.9-.3-1.2-2.4-1-1-.8-1.3.5-1.5.5,0,1.1,0,1.6.4l-.6,2.5Z"/>
    <path class="st3" d="M249.4,128.4l-2.5-4.5c-.5-1.3-.4-1.9.5-1.6.5-.2,1-.4,1.3-.8-.3,2.3.5,4.6.7,6.9Z"/>
    <path class="st56" d="M98.3,159.2c0,1.2.1,2.5-.3,3.6-.5-2-1.2-3.9-3.1-5-.8-.6-1.2-2.2-.1-2.5l3.5,3.9Z"/>
    <path class="st35" d="M81.9,209.7c-1.3,2.1-2.4,4.5-4.4,6,0-2.7,1.7-5.5,4.4-6Z"/>
    <path class="st148" d="M212.4,245.7c-1.8-2.1-3.9-3.9-6.1-5.6-.6-.3,5.3-.2,6.1,5.6Z"/>
    <path class="st131" d="M250.3,90.9c1.3,1.8,1.5,3.1.5,4,1.4,2.9-3.7,1.4-1.3-1.1-.2-1.5-.3-3-.6-4.4.6-.3.4-1.1.6-1.6.1,1,.9,2,.8,3.1Z"/>
    <path class="st192" d="M87,204.2l-4.5,4.4c.3-1.3.5-3,1.7-4.1s2.1,0,2.8-.3Z"/>
    <path class="st118" d="M253.3,93.9c-.1.5-.4,1-.5,1.5-.8,1.5-2.3,1.3-1.9-.5-.3-1.3-.6-2.7-.5-4l3,3Z"/>
    <path class="st179" d="M339.4,70c-.2.8-.4,1.7-.9,1.9s-1.9-.6-1.5-1.2,1.4-.9,2-1.4c.6-.4.7,0,.4.8Z"/>
    <path class="st185" d="M445.8,10c-.7.7-1.6,1.5-2.7,1.5s-1.7-.7-2.2-1.3c1.6-.2,3.3-.3,4.9-.2Z"/>
    <path class="st105" d="M94.8,155.3c-.2.8-.1,1.7.1,2.5-.4-.2-.9-.6-1.4-.8.3-.8.1-1.8,0-2.7,0-.4-.2-.8,0-1.2.8.8.8,1.6,1.2,2Z"/>
    <path class="st29" d="M371.3,121.7l-1.2,3.7c-.6-1.1-.1-2.3.2-3.8,0-1.1,1.3-.9,1,.1Z"/>
    <path class="st108" d="M301.1,61.1c-1.5.7-2.3-.6-3.8-1,1.1-.5,2.7-.4,3.8,1Z"/>
    <path class="st107" d="M200.4,9v.5c-.5,0-6.5.2-5.5-.5h5.5Z"/>
    <path class="st185" d="M83.9,19.3c-.7.4-1.5.4-2.5,0,.5-.5,1.2-.5,2.5,0Z"/>
    <path class="st55" d="M161.9,17c.2-.2.4-.4.5-.6.1.3.8.2.5.8s-.2,1.1-.5.6l-.6-.8Z"/>
    <path class="st219" d="M255.9,139.3c-.9,0-.7-1-1.1-1.5.9,0,.9.9,1.1,1.5Z"/>
    <path class="st150" d="M280.4,238.7c0,1.2-.6,1.2-.7,0,.1-.6.6-.6.7,0Z"/>
    <path class="st15" d="M254.4,97.5c-.1.3-.3.2-.5,0,0-.3.3-.5.3-.7,0,.2,0,.5.2.7Z"/>
    <path class="st53" d="M664.1,101.3c-1.2-1.3.5-2.6,1.5-1.1h1.1c1.2,2.6,3.1,1,3.8-1.3l1.1-.5c.5-1.3,1.8-1.6,4-.9,1-1,1.7-2,2.1-3.2-1.3-.5-1-1.2.4-1.1-.3-1.3,0-1.3,1-.6-.3-.9.2-1.7,1.5-2.5-3.2-1-6.6-1.1-9.9-.8-.4.9-1.2,1.4-2.6,1.5-1.7,1-3,1.2-4.1.5-3.5,2-5.3,4.3-5.4,8.5.7.2.9.7.6,1.6,1.4-.7,2.1,1.3.5,2,2.6.4,5.2.8,7.9,1.3l8.3-.8c1,.1,1.2.8,1.3,1.7l-4.8,8.9c-4.7,14.2-8.3,30.3-9.7,45.2s-.4,8,3.3,10.6v1.3c1.7,3.2,1.2,7.1.6,10.5l-7.5-19.3c-2.3-5.8-3.9-11.5-5.6-17.5s-.2-2.1-.2-3.1h1.2c1.4,4.6,3,9.1,4.8,13.4-2.7-7.4-4.6-14.9-5.6-22.5l1-1.4c.5-3.5,1.1-7,1.1-10.5l-.7-1.2,1.6-5.6c1.4-2.7,2.1-5.1,2.1-7.1-.3.9-.8.9-1,0l-1-1.6c-.2-4.8-1.4-9.5-3.2-13.9l.3-1.9v-1.2c5-3.3,10.2-5.6,15.7-7.1l3.7.2c.3-1.1,1.4-.7,1.9,0-.5-2.2,1.6-5.8,3.9-5.4,2.6.3,4,4.4,4.8,6.8,1.7,5.8.3,16.8-5.2,20.2s-12.4,1.7-14,.6-1.8-1.8-.5-2.7Z"/>
    <path class="st18" d="M668.2,15l.6,1-3.4,6.4h-1.2c-.3,2.1-1.3,4-3,5.7l.7.8c-4.8,8.5-9.1,17.3-12.9,26.4l-1.5,1.2c-.2.6,0,.9.7,1.1l-2.6,7.9c-1.1,4.3-.2,5.3,2.5,3.3,4.9-1.4,9.9-2.2,15-2.6,1.7,1.1,4.4.2,3-1.7.7-5.4,5.5,2.6,5.4,4.3-.1,2.5-2,2.2-3.8,1.3-1.3,1.7-3.1,1.9-5.5.5-1.1,0-8.2,1-9.6,1.3s-6.4,2-6.9,2.9.4,2,.7,2.5l7.2,11.2v1.5c2.4,5.5,3.9,11.4,3.9,17.4.8-.1.5,1.1,0,1.5h.5c-.3-.6-.2-1.4.5-1.5,1.8-.4-.3,5.2-.6,6-1.2,2.7-1.7,5.4-2.4,8.1,0,3.5-.5,7-1.1,10.5.1,11.2,4.4,16.3,5.8,24.8,0,.4-.3,1.4-.5,1.5-1.8.6-5.7-14.4-6.6-15.8,0-2-.6-4-.9-6.2-.8-6.8,0-13.5,2.3-19.7.2-2.7-.1-5.4-.9-8.2-.6-6.9-2.1-13.6-5.1-19.9-1.2-3.1-3.9-5.5-5.1-8.7l-2-4.9c.3-2.7.3-5.3.1-7.9l-.8-.8c.9-3.9,2.6-7.5,4.4-11.1,2.5-6.6,6.1-12.5,9.6-18.8,4.1-7.5,7.8-14.9,12.8-21.6.8-.6,1.1-.3.6.5Z"/>
    <path class="st93" d="M688.6,235.7l.7,1.6c-.8,6.2-.9,13,2,18.7l-.5,1.2,1.3.2c4.9,10.4,19.7,11,29.9,11.2,4.2-.5,8.4-.5,12.5-.2,2.2-.7,4.3-1.2,6.7-1.3l.3-1.2c14.5-5.8,28.8-12.2,42.6-19.3l1.1.5c5-3.6,10.2-6.9,15.5-9.9,2.1-.4,3,1.9,1.2,3.6-5,3.8-10.2,7.2-15.6,10.3-14.4,7.1-29.3,13.4-44.8,19.1h-2.9c-.5,1-2.3,1-3.4.8.2.4.2,1,0,1-6.7,2.1-14.1,3-21,1-4.3-.3-16.1-3-20-6.4-4.6-1.8-7.3-6.9-8-11.6,0-1.3-.4-2.6-.4-3.9-1.4-4.1-1.4-7.7,0-11-1-.8-.9-2.4.5-2.5.2-.6,0-.9-.6-1.1.6-2.4,1-4.9,1-7.5,1.7-3.5,4.4.6,2.5,2.4,0,1.5,0,2.9-.4,4.3Z"/>
    <path class="st56" d="M476.2,10.5h54.4c0,0,11.7,0,11.7,0h89.4c-12.5,0-78.9.3-87,1s-12.6-.3-19.2-.3l-49.2-.3c-3.9,3.1-5.1,4.5-5.5,10.1s-1,5.6-1,8.6c-.2,31.7-.5,63.3-.6,94.7V27.1c0,0,.3-16.7.3-16.7,2.6.2,4.6.1,6.7.1Z"/>
    <path class="st165" d="M468.7,290.1v-63.4c0,0,0-20.5,0-20.5,0-.3.1-.6.4-.5,0,3.3.2,6.7.4,10.3l1.6,35.4c0,1.7,1,3,.9,4.8-.5,9.8.8,17,.2,26.1-3.5-1.8-2.4,8.2-3.5,7.9Z"/>
    <path class="st127" d="M668.6,189.2c.4,1.3.6,2.7.7,4.1s1,12.3.8,12.9-.3.6-.5.8l1.3,1.1c1.2,4.1,3.1,7.9,5.6,11.3v1.7c.1,0,1.3.4,1.3.4,1,1.8,1.8,3.7,2.4,5.6.8.2,1,1.6,1,2.4,2.2,1.4,3.5,5.5,2.8,8,1.5-.2,1.3,2,.6,2.9.8.6.1,4.1-1.1,2.5-.6-1.3-1.6-2.7-2-4.3-3.1-13.3-11.2-17.9-14.2-31.1s-.7-14.4-.7-21.4l.5-10.3.5-.3,1.1.7.8,11.9-1,.9Z"/>
    <path class="st49" d="M737.6,277.1c2.8,6.2,6.6,17.2,3.5,24l-5.6-2.1c.6,2.3,2.8,2.5,4,3.9l-.9.8c-1.5-.7-2.9-.9-4.2-.7-1.4-7.4,4.5-6.4,5-9.6-.4-.5-1.9-.3-2.4,0l-1-2c2.9-2.5,1.1-4.4,2.1-9.7.5-.2-4.4-6.7-4.6-5.8,1.1-2.4,3.2-1,4,1.1Z"/>
    <path class="st15" d="M735.1,271c.7-.1,1.1,0,1,.5,0,1.9.7,3.8,1.5,5.6-1.1-1.8-2.4-1.2-4-1.1s-3.2.5-4.6,2.2c-6.2-3.7-9.8-2.7-14.9-5.1,5.8.4,12,.3,17.9-1.2l3.2-.8Z"/>
    <path class="st60" d="M721.2,310.1c-4,1-8.1,3.6-12.5,4.1-8.6,1-17.1.3-25.5.3-1.9-.3,5.1-.8,5.3-.8,11.1-.9,22-2.1,32.8-3.6Z"/>
    <path class="st104" d="M654.7,116.4l-1.8-7.8-4.2-20.3c6.1,6.9,5.3,18.6,6.8,23.3s0,2.9-.7,4.7Z"/>
    <path class="st78" d="M710.6,10.5c.8-.4,2.2-.4,3,0-.5.3-1.1.5-1.7.7s-1.1.3-1.7.3c-12.8.4-25.7.8-38.4.3-.4.9-.9.9-1.7.2-.1-.4-.5-.4-1,0,.4.4.2,1.1-.5,1.1.3.7-.5,1.5-1.1.8-1.2-2.1-3.4-3.5-6-2.6s-6.9.7-10.5-.3-2.8.6-3.5-.5h63Z"/>
    <path class="st101" d="M694.1,266.6c-1.1,1.1-5.1-3.2-7.6-.6s-1.2-.4-1.5-.7c-.6-.6,0-1.5.2-2.1,1.2-2.7.7-5.5.8-8.2,2,4.3,4.4,8.4,8,11.6Z"/>
    <polygon class="st107" points="641.7 66.8 638.4 65.5 645.2 54.9 641.7 66.8"/>
    <path class="st94" d="M731.1,305c-.2.6.6,2.1-.3,2.7s-2.6.6-3.7.9c.4-.4,1.2-.7,1-1.3s-.7-1-1.1-1.9c1.5-.4,2.8-.4,4.1-.4Z"/>
    <path class="st135" d="M685.7,251.2c-.9-2.6-1.7-5.3-2.1-8.1,1.1-.2,1.1-1.5,1.1-2.5-.2-1.4,0-1.5,1-.4-.9,3.6-.1,7.3,0,11Z"/>
    <path class="st259" d="M667.1,172.7c.5.6.6,1.1.5,1.5,1.3.2,1.3,1.1,0,1.5l-1,10.5c.2-1.3-.1-2.7,0-4,.2-3.5.2-7-.4-10.5,1.3-.8,1.8-.3,1,1Z"/>
    <path class="st113" d="M731.1,302.1c-1-.9-1.7-2.1-2.5-3.4,1.3-.6,2.6-.5,3.5-1.2-.8,1.4-1.5,2.9-1,4.5Z"/>
    <path class="st167" d="M669.1,13.5c1.3.9.5,2-.9,1.5-.2-.2-.4-.4-.6-.5,0-.2,0-.5,0-.6.3-.3.8-.5,1.1-.8.5-.2.7,0,.5.5Z"/>
    <path class="st53" d="M100.9,219.2c-3.6,3.3-3.6,5.5-.6,9.7,9.3,12.7,21.3,23.2,33.5,32.8,5.2,3.4,10.8,6.1,16.4,8.7l22.3,20.6,3.7,1.9c4.9.4,3.5,4.3.2,5.2-2.9-.4-5.6-1.1-8.4-2.1-.6,0-.7.2-.5.6,1,3,7.9,4.2,11,4,.4,0,.8.1.5.4-.3.4-.6,1-.4,1.2,4.1,2.7,6.4,6.1,7.1,10.2,1.6.7,2.3,1.5,2.3,2.5-5.8.6-12.8.5-19,.1h-.5c-.9-3.8,4.3.8,7.9-2.6.4-.4.7-.6.7-1.2s-.2-.9-.7-1.3l-5.9-5.6-28-26.8c-8.9-8.5-17-17-25.6-25.9l-15.8-16.2c-1.8-1.8-8.4-10.5-8-12.5s1.9-.3,2-.7c-.2-4.4,1.4-6.2,2.7-10.7,2.2,2.4,2.2,5.2,3.2,7.6Z"/>
    <path class="st264" d="M40.5,314l-.4.6c-3.9,0-7.8.2-11.6.5-2.3,0-4.7.1-7,0l-5.4-.2c.5-3,21.4-.4,24.4-.9Z"/>
    <path class="st242" d="M123.9,314.5c-4.9.2-9.9.3-15,.5h-.5c-.4-.3-.6-.3-1,0h-17c-.2-1.1,5.3.1,7.5-1h25.4c.4,0,.6.3.5.5Z"/>
    <path class="st88" d="M49.5,314c1.1.5.5.7-.5,1h-20.5c3.2-1.4,6,.3,12-1s6.1.4,9,0Z"/>
    <path class="st96" d="M123.9,314.5h7c.4.1.4.3,0,.5h-22c0-.2.2-.5.5-.5h14.5Z"/>
    <path class="st5" d="M58,315h-9s.5-1,.5-1c.5,0,9.1.4,8.5,1Z"/>
    <path class="st9" d="M135.9,315h-5v-.5h4c.5,0,1,.1,1,.5Z"/>
    <path class="st262" d="M165,303.1c0,1.5-2.4-1.1-2.5-1.3s.4-.3.5-.3c.6.6,1.4,1.1,2,1.6Z"/>
    <path class="st225" d="M72.8,240.1c-.7,0-1.5-.2-1.9-.8.4-.3.6-.6,1.1-.6.8,0,.8.8.9,1.4Z"/>
    <path class="st123" d="M90,214.8c-.3.2-.7.3-1.1.4.3-.7.4-1.4.8-2,.5.7.2,1.2.2,1.6Z"/>
    <path class="st125" d="M74.9,224.1c0-.1,0-.4.1-.5.3-.1.3,0,.4.3s.1.5-.2.7-.2-.5-.3-.6Z"/>
    <path class="st244" d="M91.9,220.6h.5c0,.3.1.6,0,.8-.2.4-.4.2-.5,0-.2-.3,0-.6,0-.8Z"/>
    <path class="st119" d="M94.4,205.7h.5c0,.7-.6.5-.5,0Z"/>
    <path class="st62" d="M127.9,268.6c-.5,0-.8-.5-.2-.5.1.1,0,.4.2.5Z"/>
    <path class="st9" d="M136.9,315h-.5c0-.6.5-.6.5,0Z"/>
    <path class="st133" d="M127.9,268.6c.1,0,.4,0,.5.2,0,.6-.6.3-.5-.2Z"/>
    <path class="st53" d="M825.1,16c-.1.4-.3.4-.5,0-.2-.8-.4-1.6-.6-2.5-.1.8-.2,1.3-.5.5.2,8.4-.6,16.6-2.5,24.8.1.8.7,1.2,1.8,1.2l.6,1.1.3,8h.7c.5-1.9,1.3-2.3,2.3-1.4,1.1,2.7,2.1,5.3,3.1,7.9.6,3.9,0,7.8-1.9,11.7-.9,3.3-.2,6.8,1.3,9.9,2-2.2,4-3.1,6.2-2.7,1.5-1.7,3.6,1.4,1.5,2.4.2,0,.3,0,.4,0,.7.9,2.8,12.8,3.1,14.9l-.9.7.4,15.2c.6,5,1.7,11.9,4.5,16,2.5-2.4,4.3-2.9,5.4-1.7.8,0,1.2.6,1.2,1.6,2.9-2.2,5.8-4.5,8.6-6.9l1.2.3.5-.2.8-5.5.6-.2,1.7-5.1c.7-.8,1.2-.7,1.9.1h1.1c-.3-.5,0-1.1.6-1,.6-1.8,3.1-4.8,4.8-5.4,3.4-3.8,7.9-6.6,12.3-9.7,4.1-2.9,8.6-4.4,13.8-4.9s6.8,1.4,8.7,3.7c4.7,5.7,3.7,11.1,4.4,15.8s.8,8.8-.2,13l-.3.6c-.9,0-.8.6.3,1.8.1.8-.3,1.3-.4,2-1.5,2.6-2.6,5.4-3.5,8.7.1-1.2.5-1.5.9-1.1-1.6,3.4-2.9,7.5-5.7,10.4s-2.3,2.8-3.5,4c-5.6,5.1-11,9.8-15.9,15.6-2.9,3.3-6.4,6.3-10.4,7.5-3.8,0-7.5-.7-11.1-2-1.3-.5-2.3-.9-1.9-2.4,1-3,1.9-8.7-.4-11.3s-5.7-1.5-5.8-1.2c-.6,10.3-2.5,20.2-5.6,29.8-2.1,4.3-4,8.3-4.8,13,1.9.8-.3,4.1-2,4-1.1,1.4-2.3,2.6-3.5,3.7-4.6,7.8-8.9,15.7-13.1,23.7-8.9,5.1-17.9,9.9-27.1,14.5-4.7,2.6-9.1,5.4-13.2,8.5l-4.5,2.5c-4.2,2.4-33.6,15.1-39.4,17.4-2.2.4-4.5.4-6.8,0-1.1.7-2.1.8-2.8.4-9.3-6.4-21-9.7-32.2-10.8-2.5-.3-5,.2-7.4,1.1l-1.2-.6c-1.3-2.4-2.2-4.6-2.5-7.7-.5-4.7-.6-9.3.4-13.8.3-1.7.5-3.4.5-5.1,2.9-.2,5.8-.4,8.6-.5,1.3-1,6.6-1.6,8.2-1.2s.5.3.6.7c.2.2.4.6.5,1.1.4,0,.4.2,0,.5l.9,1c.2.1.2.3,0,.5.7-.7,1-.4.6.5.4.3.5.3.5,0-1-.3,0-1.9.6-1,1.5.2,3.4,2.4,3.4,3.9.4.3.5.6.3,1,0,.3-.2.5-.3.6s-.5-.2-.7-.3c-.4-.2,6.3,4.9,7.7,5.5l.4-.5c-3-2.7-6.1-5.9-9.5-9.6v-1c0,0,.8-.9.8-.9l4.5.9c-.5-1.5-.9-3,.9-3.5l16.7-1.1c3,.4,6,1,8.8,1.9.3,0,4-3.4,4-3.9,0-.6-5.5-9.9-6.2-10.8-1.2-1.6-9-11.2-10.4-12.1-.8.1-1.5,0-2.1-.4-1.3.6-5.7-1.5-5.2-3.1l-1.3-.8c.5-1.4-6.6-2.6-6.9-2.5-.6.2.8,4.1,1.3,4.8l-.6,1-.5.9-20.5-3c-1.8.4-3,.3-3.9-.4-2.4.4-2.4-.5,0-2.6v-1.4c-.1,0,4.3-3.9,4.3-3.9-.9-1.8-1.2-3.6-.7-5.3,10.6-2,21.5-1.8,32.2-1.4-.5-2.8.3-4.8,2.5-6,.6-1.5,2-2.1,4.2-1.8.6-1.8,1.3-2.4,2.3-1.7l1.1.3c-1.4-6.3-5-15.2-11-20l-.7,1c-2.8-.3-5.5-.8-8.3-1.3l.4,2.4c2.2,4.3,2,8.5-2.5,11.1-5.3-2.1-10.9-3.5-16.5-4.4-9.7-1.6-17.7.2-27.3,2.5-2.3,0-4.3-.5-6.1-1.5-.4,0-.8-.1-1.1-.4-1.8-1.6,6.3-42.5,8.7-47.2,2.1-5.8,5.4-11.1,9.2-15.8,6.8-10.6,3.3-20.2-4.4-29l.2-.9-.8-1.5c1-3.7,1.1-7.2.2-10.4-6-1.5-12.1-2.5-18.2-3.5s-7.8.5-10,2.2c-1.3.1-1.1-.8-.9-1.8,1.2-3.5,2.4-7.1,4.3-10.6l9.3-17.7c1.8-1.8,2.8-3.6,3-5.5l4-7.5c.2-.5.9-1,.9-1.5-.2-.4,0-.9.5-1-.2-.6,0-.8.5-.5.5,0,.6-.4,1.1-1.2,14.2.9,28.4-.3,42.3-.3,37.5-.3,75.2-.4,113.1-.3.2,1.6-.3,4.7-1.6,5.8Z"/>
    <path class="st15" d="M856.5,10c1.1.5,2.4.5,3.5,0h30c1.8.2,2.4.9,1.9,1.9l-1,.9c6.8,5.1,12.2,11.2,16.3,18.4l-.3,1.8c0,1.3.9,3.1,1.6,3.9,1.4-.3,1.5.1.4,1-.3.4-.4.7,0,1,.4.3.7.6,1,.9,1.4,1.7,4.5,17.1,4,19.3s-.3.8-.5,1.2l.4,9.5.8.7c-1.2,5.1-2.1,10.2-2.6,15.4l-.6.4c-.3.5-.8.6-1.5.4-7.2-6.3-16.3-4.7-24.1-.4-1.2,0-1.9.5-2.5,1.5-1.7,1.9-3.7,3.7-5.8,5.1l-.6.5-.5.5-.5.5-.5.5-.5.5-.5.6c-.5.9-1.2,1.7-2,2.4-1,2.2-3.2,4.5-5.1,6,.4.4,0,.9-.5,1,.2.6,0,.8-.6.5-2.3.2-2.2,4.6-3.5,5-.6-.2-.7-.8-.4-1.8-.2,2.8-.7,5.4-1.6,7.8l-9.7,7.9c-1.1.2-1.4-2-1.4-2.9.3-.4,1-.5,2-.2-.6-1.7-4-2.4-5.8-1.7-1.4-.3-2.2-.6-2-2.5-.9-13.4-3.6-26.6-6.4-39.7l-.7-1c.2-1.3-.6-2.1-1.5-2.4-.2-1.3-1.2-2.3-3.2-2.9l-.7-1.3c.2-5.9.4-11.9-.6-17.8.2,1.1,0,1.9-.9,2.5l-.2.6c-1.6,1.8-2.8-6.2-3.9-7.5-.7.2-1,.7-1.5,1l-.6-.8c-.2-3.5-.3-7-.2-10.6l-1.4-1.4c.8-7.5,1.3-14.9,1.3-22.3l.4-.3c.8.5.5,1.6.6,2.5.2.3.3.3.5,0,0-1.8,0-3.1,1.2-5.5h-112.7s-3,0-3,0c0-.4.4-.5,1.1-.5h144.8Z"/>
    <path class="st53" d="M882.5,178.8c.1,1.1.4,2.3,1,3.4s1.2.3,1.5,0l.6.5c.6,3.4,1.4,6.7,2.4,10,.2,2.4,1,4.9.9,7.5s0,2.8.7,4.5c2.3,6.4,4.6,12.6,7.4,18.6.4,2.7,0,5.3-1,7.8-1.3,2.1-2.3,4.9-4.5,6.2-4.8,4.8-9.6,9.6-14.4,14.3-.6.5-1,1.1-1.2,1.6-15.9,14.4-42.2,29.2-62.3,37-4.1,1.3-8.1,2.8-12.1,4.5-11.5,4.7-23.9,6.7-36.3,9-3.3.6-3.7,6.2-3.3,8.7-7.9.5-6.4-3.1-8.3-4.8-.9-1.2-.7-1.8.5-2.6-.2-2.4,0-4.6.9-6.5,1.4,0,2-1.1,1.6-3.2.6-1.6,1.6-3,3.1-4.1,7-4.2,14.2-8.2,21.4-12,1.9-2.1,3.7-4.2,5.4-6.5,23.9-23.2,48.2-47.5,68.6-73.8,3.4-6.2,7.2-12,11.6-17.5,3.8.6,7.3.5,10.6-.3l4.1-2.6,1.1.5Z"/>
    <path class="st15" d="M877.9,167.9c.3.4.6.4.7-.2.7-.6,1.4-1.2,2.4-1.4.7,4.3,1,8.4,1.4,12.5l-4.4,2.9c-3,1.9-7.2.7-11,.5-5,5.9-10.5,17.4-14.7,22.3l-18.9,21.6c-7.1,8.1-14.1,15.6-21.7,23.2l-24.2,23.8c-2.4,2.4-4,6.1-6.9,7.6l-18.3,9.7c-1.5.8-2.7,2.2-3.9,3.5s-.9,3.4-.4,5.1l-2.6.2-.3,5.9c0,.9-2,1.4-1.5,2.4-1.3-1.1-1.9-3.4-3.7-3.9l-5.3-1.6-.6-2c-.2-1.8.6-3.6.8-5.5.7-5.3-3.8-18.8-6.4-23.5-.9-.3-.7-.4,0-.9,7.6-2.7,15.3-5.2,22.9-8.7l23.6-10.9c6.1-2.8,11.4-7.3,16.9-11,.3-.5-.9-2.1-1.3-1.9-5.4,3-10.3,6.5-15.5,9.4.8-1.2,2-2.1,3.5-3,11.8-7.4,23.8-14.2,36.1-20.7,3.5-8.5,9-15.4,13.1-23.6,1.7-1,2.7-2.5,4.3-3.1v2.3s-9.8,16.4-9.8,16.4c.3,0,.8-.1,1-.4,10.4-13.4,19-31.2,21.1-48.1l1.1-1.9c.3-.9.5-1.3,1-.4,6.3,2.7,14.4,8,21.4,3.2Z"/>
    <path class="st140" d="M906,214.1c.3,1,1,1.9,1,3,1.8,5.5,2,11.7,1.9,17.4s-6.1,11.7-7.8,14c-10.4,13-19.9,26.7-29.2,40.5-6.3,8.4-14.7,17.1-23.7,22.6-3.1,1.9-5.8,3.5-9.2,2.3l-5.6.6h-.9c-11.2-.3-22.5-.4-33.9-.3-.6-.4-.9-1-.9-2-10.3,1.4-20.7,2.2-31.3,2.3-.5,0-1.7.2-2-.4-.4-1.6-.8-3.8-.2-5.4s2.3-2.4,3.4-2.5c10.5-1.5,20.4-3.6,30.6-6.9,33.6-10.9,70.8-31.3,94.2-58,2.6-3,4.2-6.3,6.5-9.5s4.9-8.7,5.3-13.3c-.5-.8-2.7-1.3-3.1-.6-.8,1.3,0,2.8-1.1,4.4-.7-2.3-1.7-4.6-2.2-6.9-2.7-7.2,4.8-4.1,8-1.1Z"/>
    <path class="st140" d="M921.5,128.2c-1.1,12.6-1.2,25.3-.3,38v52.3c0,2-.7,1.8-2.2,1.1l-1.5-.5c-1.5-.8-2.2-2.3-2-4.5-1.2.6-2.6.5-4-.4-1,1.1-1.9,1.2-2.5.3-.8-1.4-.8-3.3-1.8-4.8-2-3.1-7.8-3.8-10.3-3.7-1.3-.7-1.9-1.9-1.7-3.9.4-2.4.6-4.8.7-7.2.2-3.1,1.1-6,1.6-9.1.1-.9.4-1.1,1.2-.9l3.3-13.2c.9-9.5,1.9-18.9,3.1-28.4l1-2.2c2-3.8,4.1-7.6,5.8-11.7,3.3-8.1,4.3-16.6,3.7-25.3s-.6-7.5-2-11l-.5-1.1c0-.2,0-.4,0-.5l-.4-2.2c.7-2.3,1.2-4.5,1.4-6.8-.2-.2-.4-.5-.4-.6.3-1.2,1.6-4.3,2.3-5.3-.8-.5-1.1-1.5-1-3-.4-.4-.6-.9-.6-1.5.7-4.2.9-8.4.5-12.7l1-1.3c-1.6-9.5-2-18.8-1.2-28-1.5-.3-2.9-1.1-4-2.5-1,.9-1.9,1-2.7.5h-1.1c-.6-.5-4-5.5-3.9-5.9s.1-.8.5-1.1c-1.4-2.4-2.9-4.8-4.5-7.2-1-1.9-1-3.3,0-4.3,4.2,0,8.3-.3,12.5,0,1.7.3,3.1.9,4.3,2,.6-1.2,1.4-1.8,2.3-1.9,1.1.2,2.4-.8,3.7,0l-.2,118.2Z"/>
    <path class="st53" d="M833.5,314.5c.9-1.4,3,.7,6.2-2,.4.6.4,1.2.8,1.3s1.5.3,2.1,0c12.9-7.1,23.1-17.3,31.5-29.4,5.6-8.2,10.6-16.4,16.7-24.2s9.6-11.7,13.5-18.5,3.7-4.6,3.7-7.6c0-5.8-.7-11.5-1-17,2.2,3.3,3.6,7.1,5.2,11-.6,4.4-2.4,8.2-3.8,12.3-2.3,6.4-4.4,12.6-7.8,18.6-11,19.7-29.9,39.7-45.9,55.5h-21.2Z"/>
    <path class="st15" d="M899.5,151.3c-1.2,7.1-2.3,13.7-3.3,20.6l-3.2,22.4c-.4,1.4-.9,1.7-1.5.8-1.7-6.3-2.1-12.5-2.3-19.1-1.8,1.1-2.6,2.6-4.7,2.5l-2.2-13.6,7.8-8c2.2-2.2,3.9-4.9,6.6-6.5,1.5-.6,2.4-.3,2.6.9Z"/>
    <path class="st15" d="M862.5,164.8c-1.9,0-7.7-3.1-6,0-.4,0-.7.2-1,.4-1.1.2-.9-1.2-.9-1.1-1.1,9-4.2,18.9-8.4,27-.2.4-.5.7-.9,1s-.8.6-1.2.8c-.7-9.3,3.2-8,6.2-20.3s2.6-15.5,3.3-23.7c2.6.5,5.3.4,7.4,1.7,4.7,7.9-1.6,12.6,1.6,14.4Z"/>
    <path class="st248" d="M739.5,302.9c2.3.4,4.1,1.9,6.6,2.4-2,2.9-2.5,5.6-2.8,9.1-3.7.2-7.6.4-11.1,0,1.3-3.9,3-7.6,2.4-11.3.1-.5,0-1.2.4-1.7,1.8.6,3.2,1.3,4.7,1.5Z"/>
    <path class="st233" d="M897.5,186.1l4.4-26.9c.9-5.2,2.2-10.1,2.4-15.4s1.4-1.7,1.7-2.4l-3.1,30.8-3.4,13.7c-.2.7-1.7.2-2.1.2Z"/>
    <path class="st226" d="M919,219.7c.3-.2,2-.3,2-1.2v-52.3c0,0-.6-7.5-.6-7.5-.6-9.1-1.8-19,.6-27.5s-.5-2.5.5-3.1v92.8c-1.3.1-1.8-.9-2.6-1.3Z"/>
    <path class="st182" d="M832.6,314.5h-66.1c.4-.7,1.6-.6,2.5-.6,6.9.4,13.2-.6,20-1.5l9.7-1.3.5,2.9h32.8c.4.1.8.2.6.5Z"/>
    <path class="st165" d="M899,9.9c.9,8.1,4.9,6.3,4.5,11.5h-1.6c-2.9-3-6-5.6-9.3-8l-.6-1.5c-.7-.4-1.2-1.4-1.9-1.9h8.9Z"/>
    <path class="st159" d="M891.5,237.2c0,.1,0,.3,0,.4l-.5.5c-3.9,5-8.4,9.6-13.3,13.5h-.5c.9-1.6,2.4-2.8,3.5-4.4,3-4.1,6.6-7.6,10.9-10Z"/>
    <path class="st243" d="M917.5,219.2c-2.3-.8-4.7-1.7-7.3-2.3s-.9-1.7-1.2-2.3c1,0,1.8-1.5,2.7-1.3l2.5.8c.5.2,1.2-.8,2.2-1.3.3,2.5,0,4.6,1.1,6.3Z"/>
    <path class="st41" d="M906,214.1l-7.5-2.6c-.5,1.3-.7,2.6-.4,3.8-.9-1.8-1.3-3.8-2.1-6.2,4.4-.7,8.8,1,10.1,5Z"/>
    <path class="st12" d="M751.5,307.9c1.5,2.3,2.9,4.2,4,6.5-1.8.1-3.3.1-4.9.1-.4-.4-.4-1.1.2-1.9-1.3-.8-2.7-1.6-4.2-2.4v-1.3c.4-.7.2-1.3.6-1.6,1-1.5,3.2-.4,4.4.5Z"/>
    <path class="st229" d="M750.5,314.6c-1.8,0-3.2,0-4.9-.1,0-2,.2-3.8,1-5.4,1.9,2.1,4.5,1.4,5.3,3.8s-.9,1.1-1.4,1.7Z"/>
    <path class="st138" d="M728.1,311.1c.9-.3,1.8.4,1.5,1.4-.2.9.2,2-.5,2-.7-.2-1.3-.3-2,0-.7,0-1.1,0-1.5,0-.4-.4-.6-.3-1,0-2.3,0-4.1,0-6,0-.6,0-.5-.4,0-.6,2.1-.8,4.3-1.4,6.4-1.9q.2.3,0,0c1.2-.3,2-.9,3.1-.9Z"/>
    <path class="st39" d="M913,91.8l-3-5.1c-.1-.3.2-.5.5-.7s.7.1,1,.3c.4-.1.8,0,.6.2s-.4-2.5.8-2.7c.2-1.1.6-1.4,1.1-1.1,1.5,1-.5,7.5-1,9Z"/>
    <path class="st107" d="M896.9,206.2c-1.3,0-3.8-1.2-3.5-2.9s2-2.2,1.8-4,.6-2.9.7-4.2c.2,3.7-.1,7.5,1,11Z"/>
    <path class="st70" d="M918,10c-.4,1.2-1.1,2.3-2.1,3.7-1.4-1.8-3.1-2.5-4.5-3.7,2.2.2,4.4-.4,6.6,0Z"/>
    <path class="st20" d="M888,192.7c-1.5-3.3-2.8-6.8-3-10.5.3-.1.3-.9,1-.9.5,4,1.7,7.6,2,11.3Z"/>
    <path class="st170" d="M896,231.1c-.2-2.6,0-5.5,1-7.8,2.3,5.1,1,4.6-1,7.8Z"/>
    <path class="st141" d="M911.6,121.8c-.4,2.6-1.4,5.1-2.5,7.5-.6,0-.4.7-.9,1.1-.2-3.4,1.1-6,2.8-8.8,0-1.1.7-.8.7.1Z"/>
    <path class="st215" d="M873.6,166.7c-3.6,1.1-7.9-.3-11.1-2,3.8.2,7.4,1.4,11.1,2Z"/>
    <path class="st256" d="M813.6,290.1c-4,1.5-7.8,3.7-12.1,4.5.5-.9,11.1-4.8,12.1-4.5Z"/>
    <path class="st169" d="M873,99.4l-4.8,5.4c-.6.6-.9.3-.6-.5,1.4-2.2,3.3-4.1,5.1-6,0,.2,0,.4,0,.7s0,.5.4.3Z"/>
    <path class="st63" d="M899.5,151.3c0,0-4.3-.5-2.6-.9,1-1.2,1.9-2,3.1-2.6.3,1.4-.3,2.4-.5,3.5Z"/>
    <path class="st61" d="M751.5,307.9c-1.5.3-2.9-.3-4.4-.5.4-.8.9-2,1.9-1.8s1.9,1.5,2.5,2.4Z"/>
    <path class="st141" d="M912,117.3c-.1.7-.1,1.8,0,2.4-1.3.7-2.1-1.5-2.5-2.6,1.1-.3,1.7,0,2.5.1Z"/>
    <path class="st90" d="M891.9,197.2l-.4-1.5c0-.2,0-.4,0-.6l1.5-.8c-.2,1.6,0,2.9-.6,4.4-.8-.3-.2-1.1-.4-1.5Z"/>
    <path class="st183" d="M738.6,270.1c0,.3,0,.6,0,.9-.8.2-1.6.4-2.3.5-.3-.3-.7-.4-1-.5,1-.3,2.5-.5,3.4-.9Z"/>
    <path class="st40" d="M886,86.3c-.8.4-1.6,1.3-2.5,1.5-.6-.4.3-1,.6-1.4.4-.6,1.7-1,2-.1Z"/>
    <path class="st128" d="M729.6,312.5c-.6-.3-1.4-.6-1.5-1.4.7-.2,1.2-.5,1.7-.4s-.2,1.6-.2,1.8Z"/>
    <path class="st16" d="M860.6,314.5c-.4,0-.8.1-1.3-.2.3-.6,1-.8,1.4-1.2.5.3,0,1,0,1.4Z"/>
    <path class="st160" d="M860,10c-.8.9-2.8.9-3.5,0h3.5Z"/>
    <path class="st196" d="M877.6,251.6c-.5.4-1.2,1.1-1.7,1.6-.8-.1,0-.6,0-.9.2-.3.9-.4,1.1-.7h.5Z"/>
    <path class="st211" d="M744.6,302c-.9-.3-.5-1.2-.6-2,.3.2.6.5.8,1s.4,1-.3,1.1Z"/>
    <path class="st155" d="M729.1,314.5h-2c.3-.5,1-.4,1.8-1,.3.2.3.6.2,1Z"/>
    <path class="st154" d="M911,220.7h.5c.4.4,1.2,1,.6,1.7-.9-.5-.9-1.2-1.1-1.7Z"/>
    <path class="st198" d="M908.5,314.6c-.7,0-1.3,0-2,0,0-.5.4-.6.8-.6.5,0,1.3,0,1.2.6Z"/>
    <path class="st97" d="M922,313.5c-.5,0-.6-.3-.6-.7s0-.8.6-.7c0,.5,0,1,0,1.5Z"/>
    <path class="st28" d="M877.9,167.9c.2-.1.5,0,.7-.2.3-.2.6.2.4.3-.3.3-.5.8-.7.7-.3-.1-.8-.5-.4-.8Z"/>
    <path class="st15" d="M891.9,197.2c-.4-.6-.5-1-.4-1.5.7.2.5,1,.4,1.5Z"/>
    <path class="st137" d="M725.6,314.6h-1c0-.3,0-.5.3-.5.4-.2.8.1.7.5Z"/>
    <path class="st67" d="M718.6,314v.6c-1.2,0-1.1-.6,0-.6Z"/>
    <path class="st39" d="M913.5,93.4c-.1-.3-.5-.6-.5-1.1.5,0,.4.7.5,1.1Z"/>
    <path class="st253" d="M911.5,220.7h-.5c.3-.7.5-.3.5,0Z"/>
    <path class="st199" d="M876.5,93.9l.5-.5c-.2.1-.3.3-.5.5Z"/>
    <path class="st143" d="M877,93.4c.2-.2.4-.3.6-.5-.2.1-.4.3-.6.5Z"/>
    <path class="st47" d="M876,94.4l.5-.5-.5.5Z"/>
    <path class="st47" d="M875.5,94.9l.5-.5-.5.5Z"/>
    <path class="st201" d="M875,95.4l.5-.5c-.2.2-.4.3-.5.5Z"/>
    <path class="st237" d="M874.6,95.9c.1-.2.3-.4.5-.6-.1.2-.3.4-.5.6Z"/>
    <path class="st53" d="M891,238.2c.1-.2.3-.4.5-.5-.1.2-.3.3-.5.5Z"/>
    <path class="st99" d="M219.4,255.1c2.4.2,6.5,3.8,8,3.6,9.7,6.7,19.7,12.9,30.2,18.7,1.6.7,2.5,1.8,2.7,3.2.4.3.8.8,1,1.4.4-.3.7-.3,1.1,0,.4,0,.7-.1,1.1-.1,3.4,0,13,10,15.3,13.2,3.4,5.7,7.2,11,11.6,15.9,1.2,1.6,2.2,1.7,2.8.5,1.3.9,1.9,2.6,2.5,4.1-5.1.2-10.3,0-15.4,0-1.5-.2-3-.4-4.5-.5-1.7.4-4.2.4-6,0-7.3.4-14.6.3-22.1,0l-.4-.5c-4.9,0-9.7,0-14.5,0-.1.3-.3.3-.5,0,0,.8-1.3.7-1.5,0-.8.4-1.7.4-2.5,0,.4.6.3,1-.5,1h-1.5c-.5-.4-1.4-.6-2.7-.5l-.3-.5c-.6-6.7-1.1-13.3-2.1-20,.5-2.2.4-3.2-.4-3.1-.5-1-1.3-5.9-3.5-4.2s-1.3.3-1.9.3c-1.1-.8-1.4-2.5-.5-3.6.3-.9.8-1.7,1.5-2.6-1.9-9.2-5.4-17.6-10.6-25.3l-.4-2c-.1-.6-.3-1.3-.5-2.1-.3-.4-5.9-13.5-4.5-11,1.1-.2,2.1.2,2.9.9,2.1,1.5,4,3.2,5.8,5,12.9,12.2,24.3,27.9,33.6,43.1-4.9-12.6-14.4-24-23.6-33.7l.2-1.2Z"/>
    <path class="st140" d="M100.9,219.2c2.6,6.7,6.5,12.6,12.4,17s8.9,6.8,13.8,9.8c9.2,5.6,19,9.4,29.3,12.6l13.4,4.2c3.1,1,5.8,0,8.6.3s6.2,1.5,8.1,3.4,1.6,5.1,1.3,7.2c-.2.9-.9,1.1-2.2.8.8,4.4.9,8.8.3,13.3,0,.3,0,.6,0,.9-.4,3.3-.8,6.7-1,10.1-2.9.3-5.7-.2-8.5-.6.5-1.3,1.6-2.2,2.3-3.3-.8-.9-2.1-.6-2.9-1l-3.7-1.8-22.4-20.8c-8.7-4-17.1-8.1-24.1-14.7l-12.5-11.6c-5.9-5.5-11.2-11.2-15.3-18.2s-1-3.8.4-5.8.5-1.2.9-1.7,1.1-.3,1.7,0Z"/>
    <path class="st140" d="M214.9,284c.5,1,.9,2.5.5,3.6-.9,0-2.2.4-2.9,1.2s-.2,1.8.3,2.1,1.4.2,2,.1l.6-.4c.1,0,.3,0,.4,0l1,1.8c1.2,5.7,2.2,11.4,3,17.2.4,1.8.3,3.7.6,5.7-2.3.2-4.2.3-6.2-.1.6-1.2,1.7-1.8,2.1-3-2.4-6.7-5.9-12.5-9.2-18.7.3-.8,1.2-1.3,1.5-2.2-.6-.4-1.2-.8-1.3-1.4-.1-1.5,3.7-1.5,3.5-3.1-.6-3.2-2.5-5.8-3.4-8.6l-3.2-9.8c-2.3-7.2-7.5-5.3-7.8-8.1-1.1-1.2,4.1-6.7,5-7l1.7.3c6,7.8,9.8,16.7,11.5,26.8.9,1.6,1,2.9.3,3.8Z"/>
    <path class="st140" d="M192.5,294.6l1.3,1.9,3.1,17.5-.9.8c-2.4.7-5.7.5-8.1,0l-2.5-1.3c-1.4-.7-.7-3.1-1.5-4.4-2.1-3.2-5.2-5.4-8-8,1.1-.1,2.1-.2,3-.2,3.2.1,6.4,0,9.5-1.4l1-7c1,.8,2.2,1.2,3,2.1Z"/>
    <path class="st204" d="M202.8,274.5c-1.1,0-1.9-.3-2.6-.4-1.1-.6-2-1.3-2.9-2.1-1,0-1.6-1-1.5-1.9-.6-.4-.8-.4-.5,0,.3.1.3.3,0,.5.7.1,1.1.6.4,1.1-1.5,2.7-5,.7-4.2-2.5l-.3-.6c0-.2,0-.4,0-.4-.4-.5-1-.3-1.2-1,.4-.6,2.1-.9,2.7-.5,1.8,1.1,3.1,0,4.4-1.6,3.3,3,6,6.2,8.6,9.6-1.5.4-2.2-.1-3.1,0Z"/>
    <path class="st104" d="M199.3,314.5c.2,1.2-2.5.9-3.3.4l-1.1-7.4c-.7-4.5-1.7-8.7-2.4-12.9.7.8,1.4,1.8,2.7,1.2,3.4,3.3-.3,14.1,4.1,18.6Z"/>
    <path class="st98" d="M195.8,271.7c.6-.3,1.2.2,1.1.9l.5-.6c.8-.3,1.5-.4,2,.4s.7,1.1.9,1.7c-3.7-.9-6.7.3-8.9,2.9-.9,1.2-.8-.5-.5-1.5.3-2.6.7-4.7.5-6.9,1,.2.2,1.8.7,2.4s2.8,1.1,3.7.7Z"/>
    <path class="st114" d="M230.9,314.5h1.5l.5.5.6-.4c4.6,0,9.3-.1,13.9-.1,2.2-.5,4.6.4,7,.4h15.5c.4.2.4.4,0,.6h-42c0-.4,0-1,.5-1,.8.4,1.7.4,2.5,0Z"/>
    <path class="st19" d="M219.9,309.6c-1.5-6.3-2.9-12.6-4-19,.3-.5.6-1.2,1.4-1.4,1.6,6.5,2,13.9,2.6,20.4Z"/>
    <path class="st103" d="M187.9,273.5l-1.5,11.5c-.1.9.3,2.1-.4,2.5,0-4.6-.2-9.2-1.6-14,1.3-.6,2.4-.1,3.5,0Z"/>
    <path class="st220" d="M200.9,314.5h1c.4,0,.9.4,1,1h-33.4c-.4,0-.7-.2-.5-.5h19c2.7-.2,5.4.2,8.1-.1s2.5.6,3.3-.4c.4.2,1.1.4,1.6,0Z"/>
    <path class="st103" d="M184.9,298.6c.3-1.4-1.1-1.9-2.4-2.8.8-.4,1.7-.3,2.1-.8,1.6-2,0-6.2,1.3-6.5-.2,3.4,0,6.9-1,10.1Z"/>
    <path class="st6" d="M221.3,294.5c0-.6-.7-1.2-.4-2,.3-.3.3-.6,0-1.1,0-.5.4-.6.8-.4s.4,4.2-.4,3.5Z"/>
    <path class="st252" d="M226.4,315.5c-.7,0-1.5.1-2.5,0s-.5-.7-.5-1h2.1c.4,0,.8,0,1,.3s0,.5,0,.7Z"/>
    <path class="st122" d="M275.9,315c.4.1.4.3,0,.5h-6v-.5h6Z"/>
    <path class="st44" d="M280.3,315.6h-4.5v-.5h3.5c.6,0,1,.1,1,.5Z"/>
    <path class="st77" d="M191.4,277c-.3.3-.3.9-.8,1.1-.8-1.2.3-1.9.3-2.6,0,.5-.2,1.5.5,1.5Z"/>
    <path class="st17" d="M168,296c-.2.2-.4.4-.5.6-.5-.4-1.1-.7-1.6-1.4,1.1-.4,1.5.6,2.1.8Z"/>
    <path class="st121" d="M201.9,314.5c-.2,0-.4.4-.6.3s-.3-.2-.4-.3c0-.4.3-.6.5-.3s.4.2.5.3Z"/>
    <circle class="st197" cx="202" cy="279.6" r=".5"/>
    <path class="st96" d="M108.4,315h-1c0-.3,0-.4.3-.5.4-.1.8.1.7.5Z"/>
    <path class="st46" d="M220.9,292.5c.1-.3,0-.8,0-1.1,0,.2.3.3.4.5.2.3,0,.7-.4.6Z"/>
    <path class="st19" d="M214.8,291c-.2-.3.4-.3.6-.4.2.5-.4.3-.6.4Z"/>
    <path class="st149" d="M896.9,295.9c-.3.3-.6-.4-.4-.6s.3-.3.8-.8c.5.3.4.8-.3,1.4Z"/>
    <path class="st53" d="M7.5,142.8c-.5,0-.5-.4-.5-.7,0-.3,0-.8.5-.7v1.5Z"/>
    <path class="st15" d="M251.9,174.7c-.2,0-1,.3-1.1,1.1-1.7,2.1-4.7,2.6-7.2,1s-3.5-1.3-5.5-.4-5.5-1.3-8.3,5.9c-.7,0-1.4-.1-2-.5-.3.7-1,1.1-1.9,1.1-2.2,2.5-5.5,2.4-8.6,2.3.1,3.3-7.7,5.8-8.1,4.4s1-.2,0,.6c-1-.3-1.4-.4-2.4-.1,1.6-1.4-5.5-2.7-8-6.8,2.6-1.2,4.8-.3,7.5-.1,3.9.3,8.8-2.2,10.5-5.8s6.1-12.9,10.5-14.5c1.1.3,1.8.2,2.4-.7,1.4-.8,2.8-.4,4.5-.5,5.2-.5,10.2-.9,15.3.9.6,3.8,4,8.6,2.2,12.1Z"/>
    <path class="st15" d="M120.9,169.6c.3.7.5.7.5,0l1.3-.6c4.9,1.6,10.2.2,14-3.3.8-.4,1.5-.1,2.1.5,1,4.6,2.6,9,4.7,13.2l.9-.3,2.7,12.5-7.4,6.1c-2-1.4-1.9-4.2-3.4-5.7s-3.4-1.9-4.4-4.1-2.5-6.1-3.5-9.6c-2,.9-3.1,2.7-5.2,3.9-7.3-5.6-12.3-13.5-15.4-22s.3-1.8.5-2.6h1.2c3.3,3.9,6.8,7.9,11.2,10.7v1.2Z"/>
    <path class="st92" d="M107.9,110.4c6.3-1.1,12.5,1.7,17.3,6.3s5,5.5,8,7.9,5.1,5.4,2.2,5.2c-1.4-1.8-3.5-3-5.3-4.6l-7.1-6.3c-3.7-2.2-7.6-4.2-11.5-6-8.9-.6-15.8,6.9-15.2,16s7.8,16.8,12.9,24.1,9.5,12.4,14.4,14.1,6.6,0,9.2-1.2c5.7-2.8,2.6-7.7,5.3-11.7,3.3,6.2.6,6.4,1.8,11.7l1.3,1.1c.7,3.7,1.7,7.3,2.8,10.8.1.5.3.9.4,1.4-1.4,6.9-6.6-12-6.6-13.1-4.7,4.4-10.8,5.7-16.3,3.5-.2.4-.3.4-.5,0-4-2-9.9-8.3-12.5-11.8s-1.2-1.4-1.5-2c-.6-1.2-1.3-1.7-2.1-1.6-1-.9-1.3-1.9-1-2.9-1.1-.3-2.6-2.4-2.3-3.5l-.4-.6c-.2,0-.3-.1-.2-.6-4.3-6.2-9.2-15.3-6.9-23.2s6.9-10.7,13-13c.2-.6.9-.8,1,0Z"/>
    <path class="st15" d="M231.9,95.8c.3.2.5.3.4.4-.4,1.6-1.3,5.5-2.9,5.6,0,.4-.2.7-.6.6-2.1,1.6-4.5,2.9-7.1,3.8l-.9-.9c-.4-.2-.7-.2-1,0-.6.5-1.5.8-2.5.8-11,3-20.9,7.8-30,14.2-1.5,1.8-3.2,2.9-5.1,3.5,1-.9-.4-2.5-.4-3.7,2.8-5,6.6-10.1,11.7-13l7.1-4c6.4-3.6,11.6-4.2,18.8-2.4,1.7-1.2-.7-6.8,1.6-5.6s2.2-.3,3.4-.5c2.8-.6,6.6,2.1,7.3,1.2Z"/>
    <path class="st15" d="M115.8,124.8c.6.7,1.2,1.1,1.7,1.1.6,0,1.3,0,1.8.4,3,2.1,6.1,8.1,7.6,11.5-1.4,4-1.7,8.6,1.6,11.7v1.3c-1.9-.5-3.7,3.2-5.5,3.4-5.5.2-6.9-12.4-8-16.6s-4.2-4.4-6.3-4-4.5,4.2-5.2,3.3c-1.3-1.6-.5-3-2.4-5.3,2.6-2.9,5.2-5.7,7.8-8.6l1.2.4c1.5-.9,4.7,0,5.8,1.3Z"/>
    <path class="st15" d="M220.9,128.7c-1.1-.5-2.1-1.1-2.9-2-.2-1.2-.7-2.7-2.1-2.4-.5-1.1.3-3,1.1-3.9.2-.5.5-.9.9-1.1.7,0,1.4,0,2,.3-.8-1-1.3-2.2-1.3-3.7,0-1.6-.6-3.1-1.8-4.7-7.6,3-14.7,6.3-21.6,10.3s-4.8,3.5-7.8,4.4-2.7-.3-3.8-.2v-1.5c5-6,15.2-10.8,22.4-13.7,4.5-1.8,10.2-3.7,14.9-3.4,1.1-.4,1.9-.3,2.5.2q0,.4,0,0c-.5-1.5,2.1-2.8,3.4-1.9.5.6.8.7,1.2.3,1-1.1,1.8-2.4,2.4-3.7l1.1-.2c-.2,1,.9,2.3.4,3.5-1.7,3.9-4.8,7.1-5.6,11.4s-1,8.4-4.5,7.9c.4,1.6,1.3,2.6,1.5,4.2-.9.5-1.8-.1-2.4,0Z"/>
    <path class="st82" d="M172.3,55.9c2.7,6.2-6.5,10.5-9.1,12.9s-1.8,3.7-3.9,5.1-11.6,8.5-10.4,9.4c.4.5,0,.8-1,1.1-1.7,1.4-3.7,3.4-3.9,6-.4,7,4.6,16.5,4.3,24.4-.5.8-1.3.9-1.9.7-1-.3-1-1.2-1.2-2.1l-3.8-18.5c-.7-3.5,0-6.8,2.7-9-.1-.5-.5-1-.5-1.3,3.8-4.7,8.7-8.2,13.1-12.1,1-.9,2-1.9,3-2.9.4-3.3,4.5-3.3,8.9-7.7,1-1.5,1.9-3.1,2.6-4.8,0-.5,0-1,0-1.4.2,0,.4,0,.6,0l.4.4Z"/>
    <path class="st15" d="M239.9,217.1c-3.8,6.5-11.8,9.2-19.4,9.1s-13.4-.7-19.6-3.1c2.1.4,4.3,0,6.6-.6,8.1-.1,15.7-2.1,23-5.4,1.8-.3,8.6-1.1,9.4,0Z"/>
    <path class="st15" d="M249.5,93.9c0,.5.4,1,.4,2,.6-.1.7-.6.9-.9.5.5,1.3.5,1.9.5-.4,1.3-1.3,2.5-1.1,4.3,1.3-.2,1.4-1.5,2.3-1.8,0,1.2.5,2.3,1.4,3.1-.4-.3-1.1-.3-1.4.2l-.6,1.2c-.2,0-.8.4-1.6,1.4-2.9.6-6,.7-8.5-2-1.6,3.3,5.8,5.2,6,5.1-1.1,2.9,1.5,1.3-1,5.4l-.9.5c-.1.4-.3.7-.5.7-1.5.4-4.9.9-5.4-.7-.2,0-.3-.4-.5-.5-1.5-1.3-2.1-2.8-1.9-4.3,1.3-.3,2.3-1.3,3.8-2l-2.1-6.6c-.5-1.6-.6-5.3,1.1-5.8,2.5-.6,5.1,1.1,7.4,1,.2-.2.2-.5.3-.8Z"/>
    <path class="st18" d="M127.9,140.2c-1,3.3.3,6,1.9,8.9,1.2,1.6,3.6.7,5.4,2.4-1.8.5-5,.4-6.7-.8-3.9-2.9-4.4-8.4-2.5-12.9-2.1-4.7-5-8.6-8.5-12-.7,0-1.2-.5-1.6-1.6-1.2-.3-2.4-.8-3.6-1.4-.8.6-1.5.8-2.2.6-4.8,3.3-5.8,8.8-9,8.2,1.3-4.7,4.9-8.8,8.8-12s4.3-1.3,6.2.2c5.1,4,9,9.3,12.4,14.8s.6,3.6-.5,5.5Z"/>
    <path class="st15" d="M246.3,191.2c-1.5,3.3-3.3,1-4.7,2.5s-3.3,6-2.4,8.8l-8.6-.2c-1.5,0-3.9-1.7-4.3-3l-1.6-4.2c-.4-1-2.1-2.3-1.8-3.5s1.7-3.1,2.4-2.5l3.4,2.6c1.9,1.5,13.8.9,15.7-.5s1.4-.3,1.8,0Z"/>
    <path class="st15" d="M245.5,158.8c-.5-.3-.8-.6-1.1-1-1.3.4-2.7.4-4,0-.9.7-2.2,1-3.9.8.9-.2,1.5,0,1.9.3-3.5.7-7.7.8-11.2-1s-2.6-4.4-2.4-6.5l4.1,3.4c10.6-5.3,12.5-1.5,13.5-1.7,3.8-.8,2.7,2.2,11.3.9,1.9-1.3,3.7-2.3,5.2-3.8-.7,1.9-1,4.3-2.5,6.1-4.7,5.8-8.9,2.5-10.9,2.4Z"/>
    <path class="st82" d="M231.4,101.8c-.3,1.2-1.5,4.2-3.5,4-.5.5-1,.5-1.2-.3-.8.6-2.4,1.3-3.4,1.9-1.9,1.2-3.9.6-6,.7s-4.8,1.6-7.2,2.2c-8.8,2.2-21,8.7-26.7,15.4-.5,0-1.3.8-1.9.4-.4-.7.2-1.8.7-2.3,8.6-9.5,20.3-13.8,32.4-17.8,1.8-.6,3.4-1.8,5.2-.7h1c4.9-.8,5.7-4.5,7.9-3,.3.1.5,0,.6-.6l2.5-6c.1-.2.2-.4.2-.5,0-.3.9-.6,1.1-.3l-1.8,6.8Z"/>
    <path class="st24" d="M137.8,130.7c-1.8-1.2,5.7-3.6,7.4-4.4s3.7-.2,5.4-1.3c-1-3.3-3.8-5.2-1.7-7.6,1.1.3.9,1.1,1.5,2.1,1,1.8,2.5,3.4,3,5.5s-.3,2.8-1.9,3.2c-4.6,1.1-9.2,2.3-13.7,2.6Z"/>
    <path class="st24" d="M227.9,181.7c1.3-.2,1.8.9,1.4,2.1-3.7,3.2-5.8,4.1-11.4,3.8-2.3,2.4-5.4,3.4-8.4,2.6-.3-.3-.9-.9-.4-1.3,5.1.7,5.9-.8,7.9-4.7,10.5.6,6-2.9,11.1-2.4Z"/>
    <path class="st42" d="M217.9,119.3c-.6,0-.9.4-.9,1.1.5,1.4,0,3-1.1,3.9-.6.1-1.6.8-2.3.2-1-.9-.8-2.3-.6-3.3-1.1-.1-1.9-.4-2.5-1l-8,2.5-1.6.5c-.1,0-.3,0-.4,0-1,.6-.7-.6,0-1,5.9-2.6,12.1-4.2,18.1-6.5s1,.4,1.5.5-.5.9-.3,1.3c.3.8,1.2,1.3,1.1,2s-1,1.5-1.8,1.1-.8-1-1.2-1.4Z"/>
    <path class="st177" d="M165.8,35.9c.4,2.1-3.3,1.7-3.4,3-.2,2.5,2.3,3.4,3.5,5,2.6,3.2,4.4,6.9,5.8,10.5-3.1,1.4-4.6-5.5-7.6-8.2s-4.6-4-4.4-7.4,2-1.4,2.6-2.1c0-.4.2-.4.5,0,1-.3,1.9-.5,2.9-.7Z"/>
    <path class="st0" d="M198.4,180.2c.4-.5.1-1.7,1.5-1.6,4.2.5,8.1-.8,11.9-2.5s2.8-.5,3.6-1.4c-1.3,4-6.7,7.8-11.3,5.2-.8-.5-2.2.4-3.1,0s-2-.7-2.6.3Z"/>
    <path class="st249" d="M132.4,244.7c-.9-.5-2.1-.7-3.2-1.4l-11.4-7.9c-3.7-2.6-6.7-5.5-9.4-8.7,0-.5.4-.5.7-.2,6.8,7.6,15.5,11.7,23.8,18,.2.2-.2.2-.4.2Z"/>
    <path class="st129" d="M220.9,128.7c-4.2,1.2-8.6,2.2-13.1,1.2s-1-.5-1-.9c0-1.6,4.8,0,11.2-2.3s1.7,0,2.4.4.6,1,.6,1.6Z"/>
    <path class="st208" d="M236.7,91.9c1.5,1.2,3,15,0,15.1s-.8-.9-.8-1.6l.8-13.5Z"/>
    <path class="st11" d="M198.9,226.2c-7.4.6-13.5-3.3-19.1-7.5l7.2,3.3c3.9,1.8,8.1,2.5,11.9,4.2Z"/>
    <path class="st13" d="M143.9,177.8c-2.1-3.6-3.2-7.8-4-11.9.8.3,1.7.4,2.7.9.4,3.8.6,7.4,1.3,11Z"/>
    <path class="st20" d="M123,118.8c-2.7-1.1-10.2-3.4-11.5-6,4.6.3,8.1,3.1,11.5,6Z"/>
    <path class="st128" d="M106.9,155.8c-.1.5-.6.7-.9,1,.3-.8.4-2.7-.9-2.6s-1.5,1.6-2.2,1.9c-.8-1.5-.8-3.1.2-4.5,0-.5.2-.6.7-.3,1.3,1.4,2.2,2.8,3.1,4.5Z"/>
    <path class="st27" d="M212.9,121.3c-.7.5-.7,1.8-1.9,2.2s-1.1-1.1-1.3-1.7.3-1.1.7-1.6l2.5-.6c.3.7,0,1.1,0,1.6Z"/>
    <path class="st7" d="M129.8,149.1c-.3-.4-1.1-.5-1.4-1.4-.8-2.4-1.7-5.3-.4-7.5-.6,8.3,2.3,5,1.9,8.9Z"/>
    <path class="st36" d="M191.4,28c-1.4,1.2-3.2,1.7-5,1.9,0-.5-.1-1,0-1.6,1.8-.2,3.4-.2,4.9-.3Z"/>
    <path class="st34" d="M240.9,112.3c-.4-.1-.4-.4-.8-1.1-.5.4-.2,1.1-.3,1.6-.4-1.3-1.5-2.5-1.4-4-.5-.7-.2-1.4.6-.9l1.9,4.3Z"/>
    <path class="st207" d="M229.9,182.3c-.1.8.4,1.7.5,2.5-.3-.2-.9-.6-1.1-.9-.4-.7-.9-1.4-1.4-2.1.4-.2.9-.4,1.3-.5.7,0,.8.4.8,1Z"/>
    <path class="st85" d="M223.4,155.7c-.4-.3-1.5-.6-1.4-1.4.2-1.3,1-2.5,1.4-3.6-.1,1.7-.4,3.3,0,5Z"/>
    <path class="st43" d="M246.9,180.7c-.5.5-1,1.1-1.6,1.5-.1-.6-.6-.9-1.5-1.3.9-.7,2.1,0,3-.2Z"/>
    <path class="st65" d="M239,108c-.5,0-.6.5-.6.9-.5.2-.5-.4-.5-.8s0-.9.8-.7.3.6.4.7Z"/>
    <path class="st74" d="M147.9,84.4l1-1.1c.3.1.6.5.5.8-.3.6-1.2,0-1.5.3Z"/>
    <path class="st228" d="M200.4,123.3c-.1.2-.1.5-.3.5-.3,0-.7-.1-.7-.3-.1-.7.5-1,1.1-1.2-.2,0-.2.5-.3.5-.4.2-.1.6.2.5Z"/>
    <path class="st228" d="M202.4,122.8c-.5.1-.9.8-1.6.5.1-.7,1.1-.5,1.6-.5Z"/>
    <path class="st178" d="M204,25.9c-1-.3-2.2-.7-3.1,0,.5-.6.6-1.3,1.7-1s.9.7,1.4.9Z"/>
    <path class="st79" d="M225.3,148.4h-.5c0-.3.2-.5.3-.6s.7,0,.7.3-.2.5-.5.3Z"/>
    <path class="st15" d="M172.3,55.9c-.2,0-.7,0-.4-.4.4,0,.3.2.4.4Z"/>
    <path class="st174" d="M171.4,56.9c.5,2.2-1.3,3.5-2.6,4.8-.4.1-.3-.5-.2-.8,1.2-1.3,1.9-2.6,2-4.4.4.1.6.3.8.4Z"/>
    <path class="st186" d="M101,147.2l.4.6c.8,1.1,1.4,2.5,2.3,3.5-.2.1-.4.2-.7.3-1.3-1.6-3-3.1-2.3-5.1.1.2.1.4.2.6Z"/>
    <path class="st117" d="M112.8,30.1c-.8.9-3.9,3.3-4.2,1.8.8-.4,1.4-1.2,2.3-1.5.8-.6,1.5-.7,1.9-.4Z"/>
    <path class="st163" d="M159.8,69.4c-.2,1.6-1.9,2-3,2.9-.6.1-.5-.4,0-.5,1.1-.9,1.8-2,3-2.4Z"/>
    <path class="st4" d="M102.4,156.7v.6s-.5.5-.5.5c0,.1,0,.3,0,.4l-.6.6c-.2.2,0,.7-.3.8-.4.3-.5-.2-.6-.4-.1-1.2.8-2.3,2-2.5Z"/>
    <path class="st32" d="M178.4,31l-3.1.5c-.4,0-.5-.4,0-.7,1-.6,2.5-.7,3.2.2Z"/>
    <path class="st173" d="M107.9,110.4c-.3,0-.7-.1-1,0-.6-.4.2-.6.4-.9s1-.8,1-.2-.5.8-.5,1.1Z"/>
    <path class="st224" d="M112.8,30.1c-.7,0-1.3.2-1.9.4.6-.2,1.1-1.3,2-1l.5-.5c.2,0,.3,0,.5,0,0,.2,0,.5-.1.7-.2.4-.8.3-1,.5Z"/>
    <path class="st158" d="M162.9,36.6c-.1,0-.3,0-.5,0-.2,0-.6,0-1-.3,0-.3.7-.3,1.2-.3s.4.3.3.6Z"/>
    <path class="st227" d="M197.4,26.4c-.3-.3-.3-.5-.3-.4s.2.2.3.4Z"/>
    <path class="st15" d="M101.4,158.8c0-.3.2-.6.6-.6l-.6.6Z"/>
    <path class="st15" d="M102,157.7c0-.2.3-.4.5-.5,0,.2-.3.4-.5.5Z"/>
    <path class="st15" d="M112.9,29.5c.1-.2.3-.4.5-.5l-.5.5Z"/>
    <path class="st52" d="M247.3,112.8c.1.6-.4,1.2-.5,1.7l-1,.9c-1.6-.2-.4,2,.6,2.6,0,0-.6,5.3.9,4.3-.3.5-.5,1-.5,1.6-2-3.5-4.3-7.1-5.4-11.1,2,.3,3.9.1,5.9,0Z"/>
    <path class="st231" d="M240.4,157.8c1.3.4,2.7.4,4,0-.1,0,2.7,1,1.1,1-2.4-.1-4.8,0-7.1,0s-1.2,0-2-.4c1.3-.2,2.7-.7,4-.7Z"/>
    <path class="st68" d="M229.9,162.2c0,.5-.1,1.2-.8,1.3s-1.3,0-1.6-.6c.7-.3,1.8-.4,2.4-.7Z"/>
    <path class="st151" d="M251.9,174.7c-.3.5-.7.7-1.1,1.1-.8,0-.2-.6,0-.8s.8-1.2,1-.3Z"/>
    <path class="st93" d="M292.4,308.6l.8,2.9c.2.9.5,1.9.4,3-6.8-3.8-10.1-10.5-14.1-16.6-4.5-6.8-10.6-11.9-17.2-15.9-.5,0-.7-.2-.5-.5-.6.1-1.4-.3-1.6-.9-2.9-2.4-6.2-4.3-9.7-6.3-7.3-4.2-14.5-8.1-21.5-12.9s-1.7-1.6-1.7-2.7c1.4-.2,2.5.5,3.8,1.2l18.9,10.1c8.2,4.3,15.9,9,23.1,14.7s11.1,16.1,19.2,24Z"/>
    <path class="st18" d="M217.8,253c.4.7,1,1.4,1.6,2l7.2,7.8c3.6,3.9,18.6,25,17.1,27.5s-1.2,1.3-1.4.9c-5.2-8.3-9.7-16.6-16.1-23.9l-10.5-12c-4.7-5.4-9.4-10.4-15.3-14.3-.1-.2,0-.6,0-.9.8,0,1.6,0,2.6.4,5.2,2.9,9.7,6.7,13.6,11.4s.9.8,1.3,1Z"/>
    <path class="st127" d="M203.8,252.1c1.2.6,1.7,1.2,1.6,2,4.5,5.4,7.8,11.7,9.6,18.7l2.3,8.7c-.4,1.3-1.2,2.4-2.4,2.5-2.8-5.4-3.3-20.4-13.5-30.9-.4-.4-.4-1.4-1-1.9,1.6-.6,2.4.4,3.5.9Z"/>
    <path class="st84" d="M204.9,252.1l.8,1c.3.3.4,1-.3,1.1-.5-.7-1.1-1.3-1.6-2,.1,0,.4.1.5.3.3.3.6.1.5-.4Z"/>
    <path class="st15" d="M196,19.9c-.2-.1-.4-.3-.6-.5.2,0,.4.3.6.5Z"/>
    <path class="st200" d="M253.4,102.4l-.2,1.1c-.1.7-1,.2-1.5.3-.6-.6.2-1.1.9-1.8.4-1,.8-.4.7.4Z"/>
    <path class="st235" d="M246.8,114.4c.1,1.2-.1,2.4-.4,3.5-.2,0-1,.6-1.3.2-.9-1-1.1-2.4-1.2-4,1.1-.1,2,.2,3,.2Z"/>
    <path class="st15" d="M677.2,71.4c-.9.6-2-1-2.1-2l-.5.5c1,.3,2.5,1.9,1.8,2.9,0,.9.4,1.7,1.1,1.7,1.1-.6,2.3,1,1.4,1.8l-3.1,3.5c0,.3.7,1,.6,1.2-.2.5-1,.4-1.4.7-1.9-1.2-3.8-1.8-5.9-1.8,2.3-.1,3.6.5,3.9,1.8-4.7-.6-15.2,5.5-19.5,8-2.4-2.8-3.9-6.2-6.1-9.5s-3.3-4-2.5-6.2c2-1.5,5.2-3.1,7.8-3.4l9.5-1.2,3,1c.8.3,1.3-1.4,2.2-1.5s2.1,1.3,3.3.3c-1.1-2.2-1.8-4.4-3.4-6.2-.8,1.5.5,2.1.7,3.4-1.2.2-2.3.8-3.3,1.7-1.7-1.7-3.5-1.3-5.4-.6-3.7,1.3-7.1-.6-14.7,4-.7-3.2-.3-6.1.7-8.9l2.2-6.3c-.2,2.8,2.1-1.5,6.6-1.1s3.3-.5,5-.2c6,1,11.9,2,18,3.5,1.4.7,1.4,3.8,1.2,5.2l-1.1,7.6Z"/>
    <path d="M677.2,71.4c1.2,1.7,2.6,3.2,4,4.9,6.6,8,6.4,19,0,27.1s-9.6,17.2-11.5,27.2c-1.4,7.3-6.2,28.4-5,34.2.9.4,1.6,1.2,2.1,2.4,2.9,3.4,6,4.6,9.1,3.5,10-8.4,20.6-6.5,31.8-2.2,6.6,1.3,13.4,1.7,14.3-6.6,2.6-3.4,5.4-2.2,4.9,2.5-1.7,16.4-22.5,10.8-32.5,6.4-5.6-.9-11,.5-16.1,4.3-1.5,1-2.5,1.1-3.2.1-.2,2.2-5.4.4-6.7-.4l-.2-1.1c-.5.4-.9-.4-1.1-1-.3-.4-.5-.7-1-1-7.6-4.6-3.8-13-3.1-21.7s2.9-15.1,4.6-22.7.9-5.2,1.8-7.7l2-5.5,5-9.4c-6.1,1.2-12.2,1.7-16.8-1.4,1-1.1.8-1.7-.5-2-.3-.2-.9-.2-.8-.7l.2-.9c0-4,1.9-6.6,5.4-8.5,2.3-.9,4.2-1.9,6.6-2,2.8-.6,5.2-.2,7.4,1.1,1.2.6,1.5,1.4,1,2.2-.3.2-.7.4-1,.6-1.3.7-5.4.5-7,.2l-.8-1c-.8-.3-.8-.2,0,.5,2.5,0,.5,2.3-1.4,1.9.7,1.1,1,2.1.9,3,.7-.6,1.8-.4,1.9.6-.2,1.7-1.4,4-3.5,4.2s-2.1-1.5-2.6-2.3c-2.2.1-2.6-5.1-.5-5.4.3-.5.3-.8,0-.9-.2.5-.3.5-.4,0l-.5.4.3.6c-1.2,1.5-1.5,2.8-.9,4.1.8.8,1,1.5.6,2.2,0,4.7,10.5,1.1,14,1.2,6.9-7.2,7.3-18.6.9-26.2s-.8-1.3-1.4-1.8c-.7.2-1.1-1-1.1-1.7-.7-.9-1.2-2-1.8-2.9-.7-.7-.4-1,.5-.5.6.7,1.6,1.2,2.1,2Z"/>
    <path class="st0" d="M678.1,93.3l-.4,1.1c.2.2.3.5.2.6-.5,1.2-6.6,2.8-8.2,2.8-.9-.7-1.8-2-2-3.5s4,.7,2.5-1.4c-.4-.2-.4-.3,0-.5,2.6,0,5.3,0,7.8.8Z"/>
    <path class="st153" d="M675.1,81.8c-.5.5-1.3.3-1.9,0-3.6-1.3-8.7-1.4-11.4,1.6l-.6.7c-.4.4-.7.1-.8-.1-1.6-3.5,12.7-7.9,14.8-2.2Z"/>
    <path class="st145" d="M679.1,92.7c-3-3.3-5-2.3-8.4-3.3.7,0,3.3-2.5,11.7.3-1,1.5-2.2,2.2-3.3,3Z"/>
    <path class="st210" d="M671.6,98.4c-.7.2-1.4-.3-1.9-.6-.5-1.1,6.4-2.3,8-3.5,2,0-1,3.5-1.6,4.3-1.6-.4-3.1-.6-4.5-.2Z"/>
    <path class="st254" d="M672.2,109.3c-3,0-6.6.7-9.4-1.6-1-.9,12.5-.2,9.4,1.6Z"/>
    <path class="st156" d="M665.1,94.9c-.6,1.8-.4,3.7.5,5.4-.7,0-1.3.4-1.5,1.1-1-.9-1.8-1.9-2-3.3s.9-2.6,1.9-3.7l.5-.4c.1.1.3.1.4,0,.5,0,.4.6,0,.9Z"/>
    <path class="st45" d="M664.1,91.4c-2.6,2.4-4.4,5.2-5.4,8.5.3-1.3-.6-2.8-.2-4.2.8-2.6,3.4-3.5,5.6-4.3Z"/>
    <path class="st139" d="M654.6,131.8c0-3.6,0-7,1.1-10.5,1.3-.8-.4,11-1.1,10.5Z"/>
    <path class="st95" d="M659.7,103.4c.2-.7.2-1.5-.5-2,.4-.2.7-.4,1.2-.9.5.6,1.1,1.3,1.4,2.2-.8.1-1.5.3-2.1.6Z"/>
    <path class="st146" d="M658.7,107.3c0,.5-.3,1.1-.5,1.5-.1.4-.3.4-.5,0v-1.5c.3,0,.8,0,1,0Z"/>
    <path class="st106" d="M661.2,28c1-1.9,2-3.6,3-5.5,2.6.2-3.8,6.8-3,5.5Z"/>
    <path class="st59" d="M657.6,108.8h.5c0,.2.1.5,0,.7s-.4.3-.5,0,0-.5,0-.7Z"/>
    <path class="st15" d="M683,198.2c.8.4.7.6-.4.6.5,1,0,1.9-1.7,2.6-.9,1.3-1.7,2.6-3.4,3-3.1-1,.6,7.5,1.2,8.8.6.5,1.2.9,1.8,1.4.7.9.3,1.2-.4,1.7.2,1.6.8,2.8,1.6,3.6,7.8,0,15.7-.4,23.5-1.4l7.1.9c1.4-.5,7-2.7,7.3-4.2s-4.4-1.3-5.1-1.1l-.9-1c.5-.6,1.1-1.1,1.8-1.3,2.2-.7,10.4-2.7,12.2-2.6,2.9.1,7,4.7,8.6,7-1.4-5-4.2-9.4-8.3-13.2l.3-1.1,2.2-1,6.9,8.2c1.9,2.3,4,4,5.5,6.7l5.5,9.9c-1.9,1.6-3.4,3.1-5.2,4.4-3.5-.5-6.8-2.1-10.4-1.8l-15.7,1.1c.1,1.8.8,2.5.7,3.9l-6.4-1.4c-.5.4-1.1,0-1.9-1.1l-.4.5c.3.7,0,1.8-.9,1.6v-.5s-1-1-1-1c0-.1,0-.3,0-.5-.3-.4-.4-.8,0-1.1l-.6-.7c-3.1.2-6.3.3-9.4.5l.6.8c-2.5,1.4-5.7,1-8.6,1.4,0,1.7.5,3.3-.5,4.2,0,.2.5-5.9-.3-7-1.5-1.8-.2,4.6-2.1,9-.6-.2-1.3-.2-2.1,0-1-2.6-1.7-5.4-2.8-8l-.7-3.5c-1.1-1.2-1.9-2.7-2.5-4.5l-1.3-.5c-3.4-3.9-5.7-9-7.1-14.1.3-.7.8-1,1.5-.9,1.4-4.4,6.5-7.6,10.8-8.9l1.1.8Z"/>
    <path class="st15" d="M741.1,267.1c-9.9,3.9-4.5,1.4-13.5,2.2-9.9.9-19.8,0-29-3.7-3.9-1.6-6.2-5.1-7.9-8.4,3-1.3,6.2-2,9.7-1.4,13.8,2.4,20.1,3.2,32.1,11.2,1.7-2.4,5.8.3,8.6,0Z"/>
    <path class="st126" d="M686.2,237.7c-.3.7-.3,1.7-.5,2.5-.3.1-.7.3-1,.4-.5-.9-.3-2-.6-2.9,0-.8.2-1,.8-1,1-.1,1.5,0,1.3,1Z"/>
    <circle class="st209" cx="471" cy="11.2" r=".2"/>
    <path class="st53" d="M675.1,175.2c1.2.3,1.8,1.5,1.9,3.5.6,1.6,1.7,2.8,3.3,3.8,1.8-1.4,3.1-1.5,3.9-.4,0,4.1.1,8.1.5,12,1.3-.3,2.3.9,1.4,2,.6.3,1.1.6,1.6,1,1-1,2-1.3,2.9-1-.3.4-.6.9-.7,1.3-.3.8,0,1.3.8,1.3.4,1.4-.7,1.7-1.5.5-2,.3-4.4-.4-6.2-1.1-4.8.7-8.6,4.5-11.9,8.1l-.7-.2c-.4-5.6-1-11.2-1.9-16.8,0-2.5-.5-11-.9-13.5,0-.4-.1-1,0-1.5-.3-.8-.1-1.1.6-.5,2,.7,4.6,2,6.9,1.5Z"/>
    <path class="st81" d="M671.1,206.2c-.3.3-.3.7-.6,1s-.5,0-.9-.1c-1.5-5.8-.9-12-1.1-17.9,2,2.6,2.7,13.5,2.5,17Z"/>
    <path class="st72" d="M680.5,226.1c.4,1,.3,1.4-.2,1.1-1.3-1.9-2.9-3.8-3.6-6,.6-.2,1.1-.7,2-1.1.8,2.1,1.2,4.1,1.8,6.1Z"/>
    <path class="st212" d="M681.3,229.7l-1-2.4c.6.1.2-.8.2-1.1.3,1.1,1.5,2.3.7,3.5Z"/>
    <path class="st239" d="M669.6,12.5c.3.5-.5.7-.5,1,0-.2-.3-.4-.5-.5.2-.3.3-.7.5-1.1.7-.5.9-.3.5.5Z"/>
    <path class="st130" d="M670.2,12c.1.3-.3.4-.5.5-.1-.2,0-.6-.5-.5.2-.2.2-.5.5-.8.5-.4.2-.3.6.8Z"/>
    <path class="st43" d="M668.2,173.7c-.2.2-.4.3-.6.5-.4-.4-.5-.9-.5-1.5.3.3.9.6,1.1,1Z"/>
    <path class="st15" d="M745.2,80.2c-.8-1.2-2.8-1.6-4.8-1.9-4.5-.6-6.9-.6-11.3.6s.5-.2.9.5c-2.3,2.9-5.5,5-8.2,7.7.7.5,1.5.4,2.1,1-.6,1.2-1.4,2-1.7,3.1h.5c1.2-.7,2.6-1,3.9-1.3l.6.9c-1.6,1.6-3,3.3-4.2,5.1,1.9,0,3.1,3.2,1.7,4.5.3,1.4-1.1,2.3-2.4,2,.8,1.7-2.2,2.5-3,1.4-.2-2.5-2.7-6.3-1.1-8.4l-4.6,3.2-2.2-5c-1,4-2.7,13.4-1.3,16.8-.3.9-1.8,1.9-3.1,2.2-2-3.5-2.6-7.4-3.3-11.2l.9-.4c-1.3-3.2-2.1-6.7-.6-10h-.8c-3.6-16.2,1.4-9.6,2.9-23.6-.9,0-1.8.8-2.3.2s-.2-1.6-.6-2.1c.5-.7,1.2-.9,2.3-.9l1-1.8c6.9.5,7.5.3,1.9-.4l-3.1-1.8c.3,5.3-3.9,3.2-3.6,1s.2-.4.5-.6c-.3-2.4-.7-4.8-1.1-7-.2-.7-.4-1.6-.4-2.2,0-3.6,20.9.5,24.2,1.3,2.5.6,4.4-.1,6.8-.2l14.1-.3c1.9,0,3.3-.6,5.3-.2l10.2,2.2c3.4.7,5.3,3.8,7.6,6.3,1,1,2.9.6,4.2,1.4l8.2,10.7,8.3,11.4-10.3,8.9c-1.3-.7-2-1.5-3.2-1.8,0,.9.4,1.4.3,2s-.7,1.1-1.4,1.1l-2.9-6.3c-3.7,3.8-4.1,1.1-9.2.2-3.3-.6-5.6-2.3-8.3-4.1s-2.8-.9-4.1-1.9-3.5-2.1-5.4-2.2Z"/>
    <path class="st15" d="M725.6,154.9c4.6,3.6,9.2,12,10.3,17.8l-.5,1.9c-1,.2-.8,1.8-1.6,2.4s-2.3,0-3.5.4c-.1,1.8-2.3,2.3-2.8,3.2-.5,1,.8,4.2-1,4.4-10.7-.5-21.2-.2-31.8,1.1.2,1.9.9,3.4,1.4,5-1.9,1.8-3.9,3.2-5.4,5-.8.8-2.3,1.4-3.4,2.3-.9-.8-.8-1.6-1.2-2.2,1.3-.7,2.2-1.7,2.7-2.9-1.5.9-2.4,1.2-3.1-.7.2.8-.1,1.3-.9,1.7-1.1,0,0-2.8-1.2-7.4s.3-3.1-.2-4.8c-1.4.4-1.7,1.6-3.1,1.7-4.4-3.6-3.6-2.9-5.1-8.5,5.7-1.3,10.9-8.8,21.5-4.8s19.6,7.3,26,.8,3.7-6.3,3.3-9.7-2.5-.5-2.9.2c-.8,1.8-.5,4.1-2,5.6s-5.2,3.1-7.9,2.9c-11.3-.9-10.5-4.1-21.5-4.6-9.4-.5-13.4,6.2-17.5,6.6s-5.2-2.1-7.2-3.6-2-2.3-2.3-3.9c2-.7,4.4.9,6.5.5,6.6-1.3,13-3.3,20-3.2s18.8,2.6,23.3,5.3c6.3-5.8,1-6.9,1.2-13.8,3.6,0,6.8,1.8,10,1.4Z"/>
    <path d="M715.5,201.2l.8-.9,4.6.9c-4-2.5,0-5.7,2.1-2.5,1.5,1.2,3.8,1.7,5.2,3.1,2.2,2.2,12.2,13.4,8.2,16.8-.8-2.7-7-9.2-9.8-8.3-4.4,1.3-8.7,2.2-13,2.9l-1.1,1.1-8.6.9c-7.5-.8-14.9-.6-22.3.3l-.9-.8c-3.7.9-2.3-2-5.5-8.4s.3-2.5,1-2.5c1.8-.1,2.7-.7,3.6-2.3s2.2-1.5,2.9-2.5c2.1,0,4.3.2,6.6.4.4,0,1.1-.4,1.5-.5,1-.2,2.7-.8,4-.6l20.9,3.1Z"/>
    <path class="st15" d="M898,120.8c.2.9.7,1.7.6,3.1-.3,3.1.8,5.9,1.2,8.9l-6.7,5.9c-1.6-1.8-1.4-3.6-2.7-5.9-3.1,6.2-7.6,11-12.7,15.8s-3.8,4.8-7.3,4.9c-2.7-8.6-2-6,2.3-12.5s2.2-3.1,2.8-4.6v-1.4c4.5-4,5.4-8.6,2.3-13.8l.8-.9c-.1-1.4-.5-2.9-1.1-4.5-1.7-2.2,2.2-3.7,4-4.1,13.8-3.4,17.1,10.6,13.6,21.1,1.6-3.4,2.1-7.2,1.9-10.9l1-1.1Z"/>
    <path class="st15" d="M747.6,97.8c.9.2,1.2,0,.9-.5-1.6-.7-4.4-2.8-5.7-4.2l-.2-1.3c1,.4,2.6,0,3.6.9,11,8.4,22.2,5.6,27.6,8.9s11.9,8.7,12.2,11.1c-6.4.5-12.4.5-18.5-.8-1.1-.2-2,.2-2.9.5-3.7-2.2-7.6-4.7-11-7.6s-1.5-1.5-2.5-1.5c-1.8-.3-3.6-.4-5.4-.3v-.7c-2.3-.1-5.8-2.3-6.1-4.5-.4,0-.4-.3,0-.5l-.4-.6c-1.4-.2-1.8-1.7-.7-2.6-1.3-.7-2.1-1.6-.4-2.3.9-.8,2.2-.5,3.7.8,2,1.1,5.2,3.1,5.8,5Z"/>
    <path class="st18" d="M898.5,94.8l-.6,1.2c-6.7,2.7-12.2,8-16.1,14l-1.3.3c-.2.4,0,.6.6.5.5-1.2,1.7-1.7,3.6-1.6,2.3-.2,6.6-.5,7.3,2.1,3.5,1.8,5.2,5.7,6,9.4.3,4.7-.2,9.5-2.8,13.9-3.5-1.5,2.6-7.2-.9-16.5s-3.1-4.9-6.1-5.5-9.2-.8-10.7,3.1c.6,1.5.9,3,1.1,4.5.7,2.9,5.8,8-3.1,16.1-.1,0-.3,0-.4,0l-.5.4c-.6.1-4.5,1.6-4.6.3s.2-.5.8-.6c5-1.2,8.8-6.3,7.1-11.4s-5.4-6.7-1.2-13.7c.9-3.6,2.8-6.8,5.7-9.5,2.4-3.3,5.3-5.6,8.7-6.9,2.8-.6,11.6-6.4,13.6-1.9l-6.1,1.9Z"/>
    <path class="st15" d="M898.5,94.8c0,.3-.4.5-.4.7,3.1,1,6,.7,9.2,2.4-3,2.7-5.7,5.4-8.9,7.6-1.3.5-3.4-.4-4.7.7s-2.3,3.5-1.7,5.1c-3.4-1.8-7.3-1.2-10.9-.5-.5.2-.7,0-.6-.5,3.4-6.1,11.1-13.4,18-15.5Z"/>
    <path class="st18" d="M855.5,165.1c-1.1,18-11.2,36.3-21.4,50.5s-2.8,1.2-3.2.2c3.7-6.6,8-12.6,11.1-19.1s2-2.5,2-4c5-9.2,8.2-19,9.6-29.3s1.2-6.9,1.4-10.5-.9-.8-.3-1.3.7-.5.9-.1.6.5.6.9l-.8,12.8Z"/>
    <path class="st82" d="M742.6,91.8c2.2,1.4,4.4,3.5,5.9,5.5.5,1,0,1-.9.5-2.4-1.4-6.7-4.8-9.6-5.9-.4,1.1-1.5.7-2.4.3-1.2.5-1.6.8-2,2.1,1.2.7,2.4,1.5,3.7,2.3l-.3,1.2c0,2.8-3.1,5.6-6,3.6s-3.3-3.7-1.6-4.6c-2.1-.3-.9-5.3,1.1-4.9,0-.7-.4-.8-1-.5-.4,1-1,2.1-1.8,3.2-.2,1.5-.6,2.7-1.2,3.7,1.7-.9,2.9,4.8.5,4.5-1.6,1.1-4.2-.9-2.5-2.4-.5-1.3-.4-2.8-1.4-3.8-.5.5-.7,1.1-.9,1.1s-.5-.1-.6-.3c-.9-2,4-6.2,4.8-7.5,2.3-.6,4.4-2,7.1-1.5s6.3,1.8,8.9,3.4Z"/>
    <path class="st127" d="M852,121.7c-1.5-.4-2.9-.5-4.2-.3-2.3,2.2-3.9,2.1-4.8,0-2.3-9.3-3.4-18.9-3.3-28.9l-2.5-15.6c.2,0,.5-.1.7,0,.3.1.4.5.6.9,3.9,13.6,6,27.4,7,41.5,5.6-1.3,3.2.5,8.3,1.5-.4,1.1-1.1,1-1.6,1.1Z"/>
    <path class="st42" d="M824,13.5l.2,11.5c0,3.7-.3,7.5-1,11,.2.5,1.4.7,1.5,1.4,0,4,.3,7.8,0,11.5-2,4.3-2-7.9-2-8.3-.8.1-1.4.2-1.7-.2-.4-.6-.9-1.2-.7-2,1.1-4,1.8-7.8,2.1-12l.8-12c0-.4,0-.8.2-1s.4,0,.7,0Z"/>
    <path class="st8" d="M680.5,155.9c0,.5-.5.9-.7.9-.5-.1.5-29.7.8-32.8l2.6-8.6c.3-1.1.9-2.4,2.3-2l-2.7,9.5-2.3,33Z"/>
    <path class="st51" d="M751,103.4c-5.5,3-21.3,4.3-26.6,2.1s-6.5,1.2-5.3-1.7c1.1-.3,2.1-.7,3-1.4,1.3-1.3,3.4.2,3.9,1.4,1.8-.8,3.8-.9,6.1-.5l8.1-.6c1.9-.7,3.7-.8,5.3-.3-1,.3,4.1-.9,4.9-.2s.4.7.6,1.2Z"/>
    <path class="st15" d="M891,94.9c-5.8,4.7-10.7,10.1-14.5,16.5-1.2-8.7,5.7-16.9,14.5-16.5Z"/>
    <path class="st15" d="M852,121.7c-.6,0-1.4.3-2,.2s-.7-.7-1.2-.5c-1,.4-3.7,3.7-4.6,3.2-1.6-.9-1.7-3.4-2.3-5.1-4.3-13.3-3.1-13.1-2.3-27.1,1.3,8.3,2.3,16.7,2.8,25.4s.9,3.7,2.5,4.4c4-2.1,2.3-1.9,7.1-.5Z"/>
    <path class="st145" d="M835.6,74.4c-2.9-.2-4.4,4.2-7,3.8-3-7.7-2.3-10.4,1.3-17.9s0-3.3.1-4.7.2-.4.2-.6c1,.3,1.5,1.4,1.4,3.1-.4,4.3-.5,8.6-.3,12.8.5,1.5,1.9,2.3,4,2.4l.4,1.1Z"/>
    <path class="st24" d="M730.6,109.3c18.6-.8,16.2,3.5,14.1,3.4l-18.1-1.3c-1,0-2.6-1.1-1.9-1.9,1.8-.6,3.9,0,5.9-.2Z"/>
    <path class="st145" d="M723.1,198.7c-.8-.6-2.6-.3-3.3,0,1,1.6,2.7,1.7,4,3.1-2.9,1-5.6-.2-8.2-.6-1.1-2-2.1-4.2-1.8-7.1l8.5,1.8.8,2.7Z"/>
    <path class="st263" d="M735.4,174.6c-1.7-5.8-4-11.5-7.7-16.5s-2-2-2.2-3.2c1.3-.2,2.2.6,3.2,1.7,4.5,5,7,11.2,8.7,17.7s.7,2.7-.8,3.3c-.6-1.1-1-2.1-1.3-3Z"/>
    <path class="st241" d="M702.2,60.9c.3.9.7,2,1.9,2.5,0-1.8-.5-3.4,1.2-4.3,3.9,4.6,8.7,1.2,8.6,4.6-2.2.9-4.7,0-6.9-.2-.4,1-.5,1.9-1.4,2.1s-1.6,0-2.4-.1c-2.2-3.1-4-7.5-2.5-11,1.1,1.9,1.7,4,1.6,6.5Z"/>
    <path class="st153" d="M703.6,101.3c-1.4-3.7-1.9-7.1-.4-10.4,1.3-1.8,2.2-3.6,3.8-4.9.6.8,0,1.6-.5,2.1-5,6.2-1.3,11.5,1.7,18.2s-.9.9-1.2.7-.5-.4-.7-.8l-2.6-5Z"/>
    <path class="st190" d="M745.2,80.2c-4.4-.4-8.1-2.6-15.2-.8s-3.5,1.5-5.3,2.9c.6-2.3,2.6-3.4,4.7-4.2,5.1-1.9,10.8-1.5,15.8.6s0,1.2,0,1.4Z"/>
    <path class="st111" d="M711.2,231.7c3.3,4.4,7.9,7.8,12.1,11.7s.7.7.5.9c-.8.9-3.9-1.7-3.7-1.5-2.2-1.1-5-2.6-5.5-5.1l-1.5-1.6c-1.3-1.1-2.4-2.5-3.4-3.9-.8.5-1.1.2-.7-1.1-.2-.3-.5-.4-.6-.6-.1-.3,0-.6.2-.7.7-.3,2.3,1.6,2.6,1.9Z"/>
    <path class="st195" d="M707.2,229.6c-.2.6-.4.6-.6,0-2.9,0-5.9.5-8.9.5s-2.1,0-3.4-.2c0-.6.6-1.2,1.4-1.2l10.9-.5c.5,0,.9.3,1,.7s-.3.4-.4.7Z"/>
    <path class="st232" d="M863,110.9c0,2.2-1.4,4.4-.8,7-.8-.2-1.1-.6-1.1-1,.5-4.6.8-9.3,2.6-13.8.7,3-.6,5.3-.7,7.9Z"/>
    <path class="st11" d="M713.4,237c.3-.2.7,0,1.2.7,1.9,1.6,3.7,3.3,5.5,5.1-2.9.2-6.8-3.5-8.4-5.9.7,0,1.4,0,1.7.2Z"/>
    <path class="st206" d="M730.6,235.4c2.7-1.3,9.7.9,6.4,1.4s-3.8-1-6.4-1.4Z"/>
    <path class="st240" d="M702.2,60.9c-.8-2.1-1-4.3-1.6-6.5l.5-.5c.8,2.3,1.8,4.7,1.1,7Z"/>
    <path class="st164" d="M709.7,232.1c-.3,0-.5,0-.5.3s0,.5,0,.7c-.1.3-.3.3-.5,0l-.6-.5c.6-.3.6-1,.9-1.6l.7,1.1Z"/>
    <path class="st213" d="M722.7,91.3c-.6.4-1.1,1.6-2.1,1.4.6-.8,1.1-1.1,1.6-1.4h.5Z"/>
    <path class="st110" d="M824.6,16h.5c0,.7.2,1.4-.3,2-.4-.8-.2-1.5-.2-2Z"/>
    <path class="st86" d="M868.1,104.8c-.2.3-.4.7-.6,1-.4.2-.6,0-.5-.5,0-.4.3-.7.5-1,.2.2.3.4.6.5Z"/>
    <path class="st218" d="M867.5,105.8c-.1.2,0,.5-.3.5-.4.1-.8-.1-.8-.5.2-.2.4-.4.6-.5.1.2.3.4.5.5Z"/>
    <path class="st37" d="M708.6,233.1h.5c0,.1.4.1.5.2s0,.6-.2.7-1-1.2-.8-1Z"/>
    <path class="st223" d="M714.6,237.7c-.3-.3-.9-.4-1.2-.7-.2-.3-.2-.6-.3-1,.6.4,1.2.9,1.5,1.6Z"/>
    <path class="st164" d="M707.1,230.6c-.4-.2-.5-.6-.5-1.1h.6c-.1.3,0,.7,0,1.1Z"/>
    <path class="st164" d="M708,232.1c-.4-.2-.8-.6-.9-1,.5.1.9.5.9,1Z"/>
    <path class="st15" d="M874.5,136.8c-.2-.3.3-.3.5-.4,0,.3-.3.3-.5.4Z"/>
    <path class="st18" d="M891.9,11.9c4.4,2.5,7.7,6.3,11.5,9.5l4.6,7c.5,0,1,0,1.4.3,3.3,2.2,6.4,24.7,6.5,29.7,0,5.2.4,10.4-.9,15.5.5,1.3.1,3.1-1,4,1.1.3,1.2,1.1.6,2.6l-1.6,3.4c0,6.3-1.8,2.1-1.4,2.5-.6-2.6.4-5,1.1-7.6-.7,2.5,1.5-9.4,1.4-8.9l-.4-9.5c-1.2-7.2-2.4-14.5-4.5-21.5-.4-.2-.5-.7,0-1,0-.4-.4-.7-.4-1-.7-1-1.6-2.6-1.6-3.9-2.8-6.7-8-12-13.7-16.9s-3.2-1.9-3.7-3.8c.2-.7,1.8-.6,2.3-.5Z"/>
    <path class="st24" d="M857,85.5c-1.4-1.9-2.1-4.2-3.1-6.3-3.7-7.6-8.2,5.5-8.8-35.3s.1-1.8,1.2-1.9c.2,9.5.9,18.9,2.7,28.3s3.2-.9,8.3,11.7,1.2,2.2-.2,3.5Z"/>
    <path class="st33" d="M835.6,74.4l-3.2-.8c-2.1-.6-2.5-3.8-2.4-6.1l.6-7.9c.1-1.8-.4-3.2-.4-4.6-.2-12.3-2.2-12.6-2.2-13.2s.2-.4.4-.4c2.2,0,3.4,9,3.8,11.1.8,5.6,1.1,10.9.5,16.5s2.5,1.8,3.6,4.1.3,1.5-.6,1.5Z"/>
    <path class="st33" d="M886.3,81.5c-3.2-1.5-1-7.1-2.5-10.7-1.4,3.1-4,9.3-7,10.6s-.8-.3-.7-.7.8-.3,1.1-.7c4.2-5.2,5.2-12.2,6.9-12.8,3.2-1.2,1.8,6.3,2.7,9.2,2.8-2.6,1.8-3.8,5-5.7s-5.1,10.3-5.5,10.8Z"/>
    <path class="st171" d="M908.6,79.5c-1.7-.7-2.2-2.2-3.3-3.6-1.1,1.3-3.8,5.2-5.7,2.7,4.9-1.7,3.4-5.5,6.1-5.6s1,2.7,3.9,4.8.8.7.6,1.2c-.2.6-.8,1-1.7.6Z"/>
    <path class="st109" d="M914,69.9c-.9,1-.4-9-.4-9.5l.5,3c.4,2.4.3,4.3-.1,6.5Z"/>
    <path class="st31" d="M908.6,36.9c-.1.2.1.6-.4,1,0-1.2-2.7-5.7-1.2-4.9.5,1.3,1.3,2.5,1.6,3.9Z"/>
    <path class="st175" d="M909.1,39c-.4.2-.7-.4-.6-.7s.2-.4.5-.3c0,.3,0,.7,0,1Z"/>
    <circle class="st25" cx="851.1" cy="226.7" r=".5"/>
    <path class="st233" d="M915.9,58.5c-1.9-7.5-3.2-23-7.9-30,.9-.4,1.6-1.3,2.6-1.9l3,2.7c.5.4,1.3-.5,1.8-.3.7,2.3-.3,4.4-.4,6.6-.2,6.5,1,12.9.9,19.4v3.6Z"/>
    <path class="st142" d="M916,76.9c.2,2.2-.7,4.1-2,5.9s-.8.7-1.1,1.1c0-4.5,1.1-1.7,1.1-6,.4-1.3.9-2.2,2-1Z"/>
    <path class="st89" d="M916,76.9l-2,1c0-1.4,0-2.9,1-4,1.6.2.9,1.9,1,3Z"/>
    <path class="st124" d="M909.9,15.3c-.2.4-1.1.2-1.4,0s-.9-.8-.3-1.2c.6.6,1.7.6,1.7,1.3Z"/>
    <path class="st202" d="M725.1,312c.2.2.2.3.2.3s-.1-.1-.2-.3Z"/>
    <path class="st132" d="M247.4,314.5c-4.7,1.1-9.6.2-14.5.5-.2-.2-.2-.3,0-.5,3.8-1.4,10.5.2,14.5,0Z"/>
    <path class="st71" d="M261.9,281.5c0,.3,0,.5-.5.5,0,0-2.7-2-1-1.4.4.3,1.4.3,1.6.9Z"/>
    <path class="st251" d="M230.9,314.5c-.4.8-2.1.8-2.5,0h2.5Z"/>
    <path class="st66" d="M262.5,282c-.3,0-.8.1-1.1,0,.2-.2.3-.4.5-.5,0,.2.4.4.5.5Z"/>
    <path class="st251" d="M232.9,315c-.2,0-.5-.3-.5-.5.2,0,.4,0,.5,0v.5Z"/>
    <path class="st172" d="M109.9,237.1c-.2-.4,0-.6.5-.5.9.7,2.1,1.3,2.4,2.6-1.6-.5-2-1.5-2.9-2.1Z"/>
    <path class="st261" d="M110.4,236.6c-.2.2-.4.3-.5.5-.5-.8-1.4-1.2-1.3-2.1,1.2.2,1.3,1.2,1.8,1.6Z"/>
    <path class="st38" d="M197.4,272l-.5.6c-.4-.2-.9-.5-1.1-.9l-.4-1.1.5-.5c.5.6,1.1,1.2,1.5,1.9Z"/>
    <path class="st58" d="M195.9,270.1c-.1.3-.3.3-.5,0-.5-.3-1.3-.5-.9-1.5.8.4,1,1,1.4,1.5Z"/>
    <path class="st87" d="M195.4,270.6c0-.1,0-.4,0-.5h.5c0,.3-.2.6-.5.5Z"/>
    <path class="st217" d="M196.9,272.6c0-.3.2-.5.5-.6.1.7-.3,1.5-.5.6Z"/>
    <path class="st75" d="M247,176.7c.5.3.3.5-.3.6-1.2,0-1-.7.3-.6Z"/>
    <path class="st250" d="M121.4,169.6c0,.3.3.5.5.9s-.6.3-.7.2c-.2-.1-.5-.4-.5-.7s.1-.2.2-.4c.2,0,.4,0,.5,0Z"/>
    <path class="st15" d="M101.4,147.8c-.2-.2-.3-.4-.4-.6l.4.6Z"/>
    <path class="st116" d="M220.9,105.3h-1c.2-.2.4-.4.6-.3s.3.2.4.3Z"/>
    <path class="st2" d="M228.8,102.4l.6-.6c.2.7-.3,1.4-.6.6Z"/>
    <path class="st14" d="M119.3,135.6c-1.8,4.3,0,6.6-.9,8.4-1.8,3.5-2.8-10.5,1.2-9.8s.5.2.6.6-.8.4-.9.7Z"/>
    <path class="st222" d="M115.9,124.3v.5c-2-.4-4.1-.3-5.8-1.3.7-.5,1-1.7,2.4-1.6s2.6,1.4,3.5,2.4Z"/>
    <path class="st162" d="M117.5,125.9c0,.7-.8.6-1,.1s-.4-.8-.6-1.2v-.5c0,0,1.7,1.6,1.7,1.6Z"/>
    <path class="st147" d="M217.9,119.3c0,.3,0,1-.2,1.3s-.4,0-.7-.2c-.2-.5-.9-.8-.9-1.6s.8-.5,1.1-.5.5.7.8.9Z"/>
    <path class="st187" d="M227.9,105.8c0,.2,0,.5,0,.8-.1.5-.8.5-.9,0s-.2-.8-.1-1.1c.3-.2,1.2-.2,1.2.3Z"/>
    <path class="st193" d="M223.4,107.4c.1.3,0,.4,0,.4s0-.2,0-.4Z"/>
    <path class="st54" d="M244.7,155.3c1.1,2.6-7.9.9-11.3,3.3-1.1-4.7,9.5-3.9,11.3-3.3Z"/>
    <path class="st22" d="M244.4,157.8c-1,.9-3,.9-4,0h4Z"/>
    <path class="st234" d="M675.2,69.4c-.2.1-.4.3-.5.5-.3-.5-1-.7-1.3-1.3,1-.4,1.4.3,1.8.8Z"/>
    <path class="st257" d="M677.6,74.6c-.3.8-1,.1-1.1-.3s-.6-1.2,0-1.4c.4.5.7,1.3,1.1,1.7Z"/>
    <path class="st30" d="M670.3,92.5v.5c-.3,0-.6,0-.9,0s-.4-.3-.3-.7.4-.4.7-.3.3.5.4.6Z"/>
    <path class="st161" d="M665.1,94.9c0-.3-.3-.6,0-.9.3-.9.7-.5.7.4,0,.4-.3.7-.6.5Z"/>
    <path class="st161" d="M664.1,94.4c.1-.2.3-.3.5-.4.1.4-.4.3-.5.4Z"/>
    <path class="st53" d="M713.6,213.1c2.6-.2,5.2.3,7.8,1.7-6,6.3-4,2.6-9,5.8-7.6-2.7-16.8.6-27.4.7s-2.7-.9-4,0c-1-1.4-1.7-3.3-1.9-5.1,0-.8,1.2-1.1,1.4-1.6,4-1,12.3-1.4,16.6-.8,6.1.8,11-.2,16.4-.7Z"/>
    <path class="st168" d="M689.2,199.2c-1.4,1.4-4.8-.3-6.6-.4l.4-.6c2.1-.3,4.2.7,6.2,1.1Z"/>
    <path class="st176" d="M686.1,196.2c-.3-.7-1.2-1.3-1.4-2-.2-1.8.2-3.7.2-5.7l.2-11.8c2.3,5.3,1.3,10.8,1.5,16.6l3.3-1.8c.9,1.3-1.4,4.8-2.6,5.1s-.9,0-1.2-.3Z"/>
    <path class="st82" d="M716.6,61c-.4-.7-.2-.9.5-.5,2.3,2.7,6,3.2,8.8,1.1s2.5-1.4,4.5-.9c10.9,2.6,5.9-2.8,12-.9s6.4.6,9.6,1.3c6.8,1.5,12.9,4.3,18.8,8s.9,1.3.6,1.6c-1.3,1.5-12.8-6-19.8-7.2l-11.5-2c-1.2,1.1-2.4,2.4-4.1,2.2l-7.7-.8c-4.1,2-9.8,2.9-11.9-1.8Z"/>
    <path class="st214" d="M727.1,102.8c.5.6.1.9-1,1-1.4-.2-2.5-1.1-3.9-1.4.6-.9,1.4-1.6,2.4-2,.4,1.2,1.2,2.6,2.5,2.4Z"/>
    <path class="st57" d="M717.1,60.5c-.2.1-.4.3-.5.5-.5-.4-.5-.7-.5-1.3s.5-.2.7.2,0,.4.3.6Z"/>
    <path class="st247" d="M683.6,204.5c-.7.6-.4,1.1-.7,1.2s-.6,0-.8-.3,0-.6.4-.9c.3-.5,1-.5,1.1,0Z"/>
    <path class="st144" d="M696.1,203.7c.7.2,1.1.5.5,1-.4,0-.9.2-1.4-.1s-.1-.8.1-.9.5,0,.8,0Z"/>
    <path class="st166" d="M697.6,204.2c0,.4,0,.5-.5.5-.2,0-.3,0-.5,0l-.5-1c.6,0,1.2,0,1.5.5Z"/>
    <path class="st91" d="M697.6,204.7c.2-.3.3-.2.5,0,0,.2,0,.5,0,.7s-.2.3-.7.3c-.8,0,.1-.5.2-1Z"/>
    <path class="st152" d="M698.1,204.7h-1c.1-.2.3-.4.5-.5.1.2.7,0,.5.5Z"/>
    <path class="st21" d="M878.5,120.3c-.4-1.6-1.7-2.8-1.1-4.5,1,1.1,1.3,2.8,1.6,4.4-.2.2-.4.2-.5,0Z"/>
    <path class="st165" d="M729.5,96.8c.2,1.2,1.6,4.4,3.8,4.3s2.7-3,3.8-3.4c.2-1.7,1.8-1.3,2.5,0,2,1.5,4.2,2.8,6,4.5-6.1,2.1-13,2.3-19.5,1.4.2-.4.7-.7,1-1,.9-1-.6-4.5-.5-4.5-.3-1.6,2.1-3.1,2.9-1.5Z"/>
    <path class="st230" d="M776.1,106.7c-2.1,1-4.5.5-6.5-.4-.1.4-.7.3-1,0-.4.2-1.2-.1-1.5-.5-3-1-6.7-1.4-8.4-4.8,5.2,2.5,10.1,3.6,15.5,4.2s2,.6,1.9,1.5Z"/>
    <path class="st120" d="M767.1,106.4c.4-.4,1.2,0,1.5.5.1-.4.7-.4,1,0,1.1,0,3.8,0,4.5,1.1,3.7,3.2-7.4,1-9-.4.6-1.1,1.4-1.1,2-1.1Z"/>
    <path class="st81" d="M738.4,94.2c.3.8.6,1.7.7,2.6l.4.6c0,.1,0,.3,0,.5-.8.2-1.7-.3-2.5,0-1-1.8-3.6-.9-3.4-3.4-.3-.8-.3-.9.4-.4,1.5-1.3,3.5-1.9,4.3.3Z"/>
    <path class="st203" d="M738,92c0,.8,0,1.5.4,2.3-1.4-.4-2.9-1-4.3-.3-.9-.8-.4-1.4,1.5-1.7,1-1,1.5-.6,2.4-.3Z"/>
    <path class="st184" d="M776.1,106.7c-.3.9-1.6.4-2,1.2l-4.5-1.1c-.4-.1-.4-.3,0-.5,2.2.5,4.3.7,6.5.4Z"/>
    <path class="st10" d="M747.6,97.8c.4,0,.7-.2.9-.5.3.2,1.6.7,1,1.3s-1.4-.5-1.8-.7Z"/>
    <path class="st48" d="M768.6,106.3c.4.1.4.3,0,.5-.5,0-1-.5-1.5-.5v-.6c.5.2,1.1,0,1.5.5Z"/>
    <path class="st165" d="M739.5,97.4c-.4.2-.4-.3-.4-.6.4-.2.4.4.4.6Z"/>
    <path class="st134" d="M881.1,110.8c-.3,0-.5.6-.8.5s-1,0-.6-.5.6-.4.8-.5c.2.2.3.4.6.5Z"/>
    <path class="st181" d="M729.6,91.4c.9-.4,1.7-.4,1,.5-.9,1.4-1.4,3.2-1.1,4.9-1.1.2-2,.9-2.9,1.5-1.1-2.3,1.1-7.1,3-6.9Z"/>
    <path class="st100" d="M735.6,92.2c-.4.6-1.2,1-1.5,1.7-.2,0-.3.3-.4.4-.1-.4-1.1-1.2-.6-2,.6-.6,1.8,0,2.5,0Z"/>
    <path class="st194" d="M730.6,91.9c0-.5-.6-.5-1-.5.4-.5,1.1-.7,2.1-.4-.1.6-.8.6-1,.9Z"/>
    <path class="st1" d="M769.6,106.3v.5c-.3,0-.7,0-1,0v-.5c.3,0,.7,0,1,0Z"/>
  </g>
</svg>