<?xml version="1.0" encoding="UTF-8"?>
<svg id="Ebene_10" xmlns="http://www.w3.org/2000/svg" version="1.1" viewBox="0 0 930 325">
  <!-- Generator: Adobe Illustrator 30.1.0, SVG Export Plug-In . SVG Version: 2.1.1 Build 136)  -->
  <defs>
    <style>
      .st0 {
        fill: #0b0d12;
      }

      .st1 {
        fill: #040507;
      }

      .st2 {
        fill: #314165;
      }

      .st3 {
        fill: #0c1017;
      }

      .st4 {
        fill: #eff2f9;
      }

      .st5 {
        fill: #485e90;
      }

      .st6 {
        fill: #0c0e13;
      }

      .st7 {
        fill: #2d3a58;
      }

      .st8 {
        fill: #3c4f7c;
      }

      .st9 {
        fill: #2e3e61;
      }

      .st10 {
        fill: #010101;
      }

      .st11 {
        fill: #7b92c8;
      }

      .st12 {
        fill: #aeb7cd;
      }

      .st13 {
        fill: #212b44;
      }

      .st14 {
        fill: #0a0d14;
      }

      .st15 {
        fill: #445b8e;
      }

      .st16 {
        fill: #455c8f;
      }

      .st17 {
        fill: #020203;
      }

      .st18 {
        fill: #6275a3;
      }

      .st19 {
        fill: #435a8d;
      }

      .st20 {
        fill: #596d9c;
      }

      .st21 {
        fill: #424d68;
      }

      .st22 {
        fill: #465d90;
      }

      .st23 {
        fill: #0b0f16;
      }

      .st24 {
        fill: #5f73a5;
      }

      .st25 {
        fill: #536694;
      }

      .st26 {
        fill: #f9f9fa;
      }

      .st27 {
        fill: #687dad;
      }

      .st28 {
        fill: #314167;
      }

      .st29 {
        fill: #2b3a5b;
      }

      .st30 {
        fill: #4b5f8d;
      }

      .st31 {
        fill: #252a39;
      }

      .st32 {
        fill: #454545;
      }

      .st33 {
        fill: #6f85ba;
      }

      .st34 {
        fill: #384a75;
      }

      .st35 {
        fill: #3f5383;
      }

      .st36 {
        fill: #7187b9;
      }

      .st37 {
        fill: #475e91;
      }

      .st38 {
        fill: #0e121c;
      }

      .st39 {
        fill: #3a4c78;
      }

      .st40 {
        fill: #0b0e14;
      }

      .st41 {
        fill: #1e283e;
      }

      .st42 {
        fill: #f5f7fc;
      }

      .st43 {
        fill: #34456d;
      }

      .st44 {
        fill: #677db1;
      }

      .st45 {
        fill: #fcfcfd;
      }

      .st46 {
        fill: #4e566c;
      }

      .st47 {
        fill: #8a9cd0;
      }

      .st48 {
        fill: #1e273e;
      }

      .st49 {
        fill: #0b0e13;
      }

      .st50 {
        fill: #5a6d9b;
      }

      .st51 {
        fill: #374871;
      }

      .st52 {
        fill: #3f5484;
      }

      .st53 {
        fill: #89a0d6;
      }

      .st54 {
        fill: #141415;
      }

      .st55 {
        fill: #8ba1d8;
      }

      .st56 {
        fill: #7286b4;
      }

      .st57 {
        fill: #030406;
      }

      .st58 {
        fill: #010102;
      }

      .st59 {
        fill: #7d92c4;
      }

      .st60 {
        fill: #2c3a5b;
      }

      .st61 {
        fill: #879dd3;
      }

      .st62 {
        fill: #455b8c;
      }

      .st63 {
        fill: #000101;
      }

      .st64 {
        fill: #000001;
      }

      .st65 {
        fill: #394b75;
      }

      .st66 {
        fill: #dfe5f4;
      }

      .st67 {
        fill: #e1e3e9;
      }

      .st68 {
        fill: #eaedf2;
      }

      .st69 {
        fill: #344264;
      }

      .st70 {
        fill: #7083b0;
      }

      .st71 {
        fill: #141820;
      }

      .st72 {
        fill: #1d263b;
      }

      .st73 {
        fill: #171b24;
      }

      .st74 {
        fill: #8998bb;
      }

      .st75 {
        fill: #445a8c;
      }

      .st76 {
        fill: #020204;
      }

      .st77 {
        fill: #455a8c;
      }

      .st78 {
        fill: #232d48;
      }

      .st79 {
        fill: #1b253a;
      }

      .st80 {
        fill: #2f3e61;
      }

      .st81 {
        fill: #303f64;
      }

      .st82 {
        fill: #111520;
      }

      .st83 {
        fill: #3c4f7b;
      }

      .st84 {
        fill: #abbbe3;
      }

      .st85 {
        fill: #b8becd;
      }

      .st86 {
        fill: #33405f;
      }

      .st87 {
        fill: #182032;
      }

      .st88 {
        fill: #fff;
      }

      .st89 {
        fill: #08090d;
      }

      .st90 {
        fill: #314065;
      }

      .st91 {
        fill: #6376a2;
      }

      .st92 {
        fill: #0f141f;
      }

      .st93 {
        fill: #dee4f4;
      }

      .st94 {
        fill: #2e3c5f;
      }

      .st95 {
        fill: #455c90;
      }

      .st96 {
        fill: #07090d;
      }

      .st97 {
        fill: #495a84;
      }

      .st98 {
        fill: #465c8e;
      }

      .st99 {
        fill: #2e3c5e;
      }

      .st100 {
        fill: #475d8f;
      }

      .st101 {
        fill: #0e121e;
      }

      .st102 {
        fill: #445b8f;
      }

      .st103 {
        fill: #3f5382;
      }

      .st104 {
        fill: #020305;
      }

      .st105 {
        fill: #35456b;
      }

      .st106 {
        fill: #2d3b5d;
      }

      .st107 {
        fill: #24304c;
      }

      .st108 {
        fill: #596b96;
      }

      .st109 {
        fill: #151619;
      }

      .st110 {
        fill: #36476f;
      }

      .st111 {
        fill: #3d517f;
      }

      .st112 {
        fill: #0a0b0d;
      }

      .st113 {
        fill: #25314d;
      }

      .st114 {
        fill: #1b202d;
      }

      .st115 {
        fill: #07080c;
      }

      .st116 {
        fill: #889fd6;
      }

      .st117 {
        fill: #566a98;
      }

      .st118 {
        fill: #415686;
      }

      .st119 {
        fill: #3c507d;
      }

      .st120 {
        fill: #282828;
      }

      .st121 {
        fill: #3a4d79;
      }

      .st122 {
        fill: #fefefe;
      }

      .st123 {
        fill: #050607;
      }

      .st124 {
        fill: #060609;
      }

      .st125 {
        fill: #405586;
      }

      .st126 {
        fill: #232e49;
      }

      .st127 {
        fill: #1c202b;
      }

      .st128 {
        fill: #0f1420;
      }

      .st129 {
        fill: #2d3a5d;
      }

      .st130 {
        fill: #7c91c4;
      }

      .st131 {
        fill: #465d91;
      }

      .st132 {
        fill: #07080b;
      }

      .st133 {
        fill: #89a0d7;
      }

      .st134 {
        fill: #273451;
      }

      .st135 {
        fill: #010203;
      }

      .st136 {
        fill: #425789;
      }

      .st137 {
        fill: #5c6c91;
      }

      .st138 {
        fill: #405483;
      }

      .st139 {
        fill: #030407;
      }

      .st140 {
        fill: #324268;
      }

      .st141 {
        fill: #798ebf;
      }

      .st142 {
        fill: #d6def1;
      }

      .st143 {
        fill: #7286b5;
      }

      .st144 {
        fill: #06080d;
      }

      .st145 {
        fill: #879ed4;
      }

      .st146 {
        fill: #323a4f;
      }

      .st147 {
        fill: #455b8d;
      }

      .st148 {
        fill: #2f3d61;
      }

      .st149 {
        fill: #2e3d60;
      }

      .st150 {
        fill: #2f3d60;
      }

      .st151 {
        fill: #050608;
      }

      .st152 {
        fill: #313131;
      }

      .st153 {
        fill: #12141c;
      }

      .st154 {
        fill: #6179ad;
      }

      .st155 {
        fill: #07090e;
      }

      .st156 {
        fill: #485f92;
      }

      .st157 {
        fill: #273452;
      }

      .st158 {
        fill: #030405;
      }

      .st159 {
        fill: #010202;
      }

      .st160 {
        fill: #39435a;
      }

      .st161 {
        fill: #43598c;
      }

      .st162 {
        fill: #151923;
      }

      .st163 {
        fill: #7386b5;
      }

      .st164 {
        fill: #3e5381;
      }

      .st165 {
        fill: #293655;
      }

      .st166 {
        fill: #161b29;
      }
    </style>
  </defs>
  <rect class="st47" x=".5" y="-.5" width="929.1" height="325.5"/>
  <g>
    <path class="st95" d="M539.2,0c1.6.4,3.4.4,5,0h385.3c.4,106.4.4,217.9,0,324.5-305.2.4-624.2.4-929.5,0V0h539.2Z"/>
    <path class="st155" d="M544.2,0c-1.3.9-3.7.9-5,0h5Z"/>
    <rect class="st68" x="929.5" y="324.5" width=".5" height=".5"/>
    <path class="st94" d="M918,89.9l-1,10.5c.3,0,.5,0,.5.1,0,1.6.3,9,0,10.1s-.2.5-.5.7c.3.4.5.8.5,1.3.4,7,.1,14.5-.4,21.4-33.3-4.5-66.6-8.3-100-11.5-25.1,3.5-50.4,3.4-75.6,2.2-48.7-2.6-96.9-4.8-144.5-6.4,71.6,5.8,142.2,11.8,214.4,18.7,29.1,3.1,57.9,7.3,86.5,13.2s15.7,3.8,19.6,6.8l.5,20.7c-9.4,1.7-18.9,2-28.7.8l28.4,3.9c.4,2.9.7,5.9.8,8.9.4.1,1,.3,1,.6.2,2,.2,6.4,0,8.4.3,1.6,0,2.6-1,3q-1.2,1.3,0,0l1,.4c.6,32.6.9,65.3,1,98.1l-1.1,1.3c-.3.2-.4-.2-.4-.6v-9.4c-.2-.3-1.3-.1-1.5.2-.9,1.5.5,15.7.8,18.3l-.5,1c-59.6,0-119.2,0-178.7-.4-9-15.9-17.7-32-26.1-48.3-.9-2.1-1.5-4.4-1.6-6.9-10.7-30.3-29.7-57.6-57.5-74.8-30.6-8.8-57.9-25.9-82-45.3l.2-1.2-3.5-2.5-1.2-.5c-.8-4-1.6-8-2.2-12l-2-3.4c-6.3-4.5-6.8-11.8-6.6-19.1,3.1-4.5,5.6-9.2,7.4-14.3.7-3.1.5-6.2-.4-9.3,2.5-7.1,1.6-14.8,0-22-1.4-4.7-2.6-9.3-3.6-13.8-.7.4-1.3-.9-1-1.5-.6-.8-1.2-2.2-.4-2.9.1-.4.3-.4.4,0,28.6.5,57.3.5,86.1-.1l.3.5c1.9.3,3.8.4,5.8.2,2.5,0,3-.3,1.7-.7-3.5.2-7.6.3-11.1,0s-.3-.2-.4-.5h-1.5c-2.2-.2-4.3-.3-6.5-.5l-.2.4c-25.5-1-50.9-2.6-76.3-4.9.7-.4.6-.4-.5,0l-1.4-.5c-.5-.7-5-16.6-4.7-17.4s.5-1.2,1.4-1.4l27.6.2.6,1,29.4,3.3,43.7,4.2,45.2,4.3c16.8,1.6,33.2,2.3,50.2,2.6,38.5.8,76.4,3,114.9,6.1l54,4.4V10c0-.4.3-.6.5-.5.4,0,.5.1.5.5.4,26.3.6,52.9.5,79.3l-1,.6Z"/>
    <path class="st94" d="M428.8,31.9l.8,1.6-1.3,23.8c.4,3.2.8,6.4,1.4,9.5.2.3.4.6.6,1,.4.7,0,1.6-.9,2.6.8.2,1,.7.8,1.5-5.5,12.7,0,22.2,8.1,31.5,0,.4-.2.7-.6.8,0,1.6.7,3.7,1.6,5,.7.9,1.1,2.1,1.1,3.7,2.2,7.4,5,14.7,8.3,21.8v2c-.6-.1-.4.8.7,2.8l1.3,5.4c.5-.5,1.3-.2,1.5.8,0,.4,0,1-.2,1-5.9,1.3-15.6,3.2-21.5,3.1-8.7-2.1-13.9.9-20.8,6.1-2.1,1.1-4.3,1.6-6.6,1.4s-6-.6-6.8-2.6c-.2-.8-1.7-1-2.6-1h-1.8c-9-5.7-20.7-9.7-31.4-9.3-13.2,1.9-26.3,2.7-39.4,2.3-4.7-1.2-9.2-2.6-13.8-4.3-6.1-2-12.5-2.7-18.9-1.9l-1.6-.8c-2-.2-4.8-.2-6.5.5-.1.4-.3.7-.7.8-3.5.3-7.9-1.3-10.9-3.2-3-2.4-6.2-4.3-9.6-5.6l-13.9-.8c-4.8.5-9.2-.2-13.3-2.2-10.6-13.8-25-16.7-41.3-13.9-2.5-.2-4.9-.6-7.2-1-.3,1.2-1.4,1.6-3.5,1.1l-1.1,1c-10.2,1.5-20.7,4.6-30.6,7.8s-3.2,1.1-4.7,1.7c-19.2,7.6-6.1,31.1,1.4,43.2-3.6,15.9-4.8,33.3,4.8,47.4l-.2,1.6c1.1,2.1,2.6,3.7,4.6,4.5,1.2-.3,2.5.1,3.9,1.3,6.3,2.6,13.1,2.7,20.3.3,1.8-.9,3.4-1.1,4.8-.7.2.5.5.6.9.3v1.2c-.6.4-.9.9-.9,1.4-.6.5-.5.5.5,0l.4-.6c5.9-.9,11.7-2.3,17.5-4.1,2.6,2,5.4,3.7,8.3,5.1,2.5.6,4.9,0,7.4-1.6,3.1-1.5,6.2-2.2,9.2-1.9,5.5,3.5,10.7,7.5,15.5,12,8,3.5,15.4,8,22.2,13.2,1,.8.7,1.1-.1,1.8-1.4,1.2-4.8,3.2-6.4,2.5l-1.1.6.2.7c-11.1,6.3-22.3,12.5-33.6,18.5l-1-.3c-.8.4-1.8,1.1-1.5,2v1.8c-6.6,9.7-7.8,22-3.7,32.9.3,1.1-.2,1.6-1.1,2.1-67.7,0-135,0-202.1.1l-.5-.5c-.5-.1-1.2-.5-1.5-.9.2-1,.3-1.2.5-.5,0-103,0-154.6,0-154.6l1-.6.8-1,4.8-.2c4.1-2,8.6-2.9,13.6-2.8l-16.9.6-2.3-.8c-.4,0-1-.1-1-.4-.4-45.1-.4-91.9,0-136.7l1-.7c.4-1.2,1.2-.8,1.4.5v9.4c16.1,1.4,32.1,2.5,47.9,3.3.7-1.1,1.9-1.7,3.2-1.7l11.8,2c15,1,29.9,1.3,44.7,1.1l3.6.8c64.3,1.5,128.4,2.3,192.3,2.5,37.1.7,74.1,1.2,110.9,1.5Z"/>
    <path d="M568.7,133.3c1.2.7,2.3,1.5,3.5,2.5,2.5,3.1,27.3,20.1,32.6,23.4,7.4,4.8,15.1,8.1,23.1,12s17.1,7.8,26.5,10.2c12.5,8.1,23.5,17.6,32.9,29.2,10.4,12.7,17.5,27.8,24.1,42.8,1.2,2.8,1.3,5.6,1.7,8.6l12.4,23.3,14.1,26.1,178.8.2c.1.9,2,2.1.7,2.9-11.1.2-22.3.6-33.6,1-17.1-.2-34.1-.5-50.9-1l-116.8-.3h-74.4c-.8.1-1.8.8-2.3,1.1-1.7,1.1-2.2-.7-3.1-.9-3.1-.7-6.4-.3-9.6-.3s-1.2,1.3-1.9,1-1.2-.5-2.1-1.1l-163.4-.5c-1.7,1.3-3.3,1.5-4.8,0h-65.2c0-.1-14.6,0-14.6,0l-36-.2h-31.7c-3.7.1-6.9,0-10.7,0l-78.5-.4,2.1,5.1c.3.8.1,1-.6.5-1.5-.9-2-2.7-3.1-4-.7-.2-1.2-.4-1.6-.8-65.5.3-130.6-.2-195.3-1.7h-8.9c-.2,0-.1-1.1.2-1s.5,0,.8,0c3,.4,5.9-.2,9.2-.2l60.8-.3h133.1c-4.9-12.5-3.1-25.8,4.3-35.9-.5-.6.7-1.8,1.5-2,.8-1.1,2.3-1.7,3.6-2.4l30.9-16.5,1.1-.6c2.2-.9,4.2-2,6.5-3.3-5.1-3.6-9.7-7.3-15.3-9.7s-8.2-3.7-11.4-7.2-6-4.7-8.9-7-3.1-2.3-5.5-1.4-5.2,1.5-7.7,2.8c-5.1,2.8-9.5-1.4-13.9-4.6-5.1,1.3-13,4.4-17.8,3.8h-.5s-2.8-1.1-2.8-1.1c1.3-.5,2.6-.3,3.8-.3.5-.3,1.2-.4,2-.4,1.2-1.1,3.3-1.5,4.9-1.6l.2-1.1c8-2.6,15.5-5.5,21.1-12.2-5.8-1-11.4-2.4-16.9-4.1l-.8-.9c-2.5.5-4.2,0-5-1.6-1,.4-2.5.3-3-.6-2.3,0-4.7-.5-7.2-1.3l-.4-1.2c-.1.3-.3.3-.5,0l-1-.5c-1.5.3-5-.7-6-2l-1.2-.2c-.8.7-1.7.3-2.7-1.2-.5,1-2-.3-2.7-.9h-1.8c-1.9-.7-6.9-3.9-8.2-5.4s-.5-1.1-.5-1.8c-1.2.3-2.4-.3-3.6-2-2.3-3.2-4-6.8-5.1-11-2.7,14.3-1.3,31.5,9.3,42.7l.4,1.7c1.1,1,2.1,1.6,3.3,1.8l.2.7.6.5c.1-.4.3-.5.5,0l1-.5c11.3,3.2,23.9-3.2,32.8-10.1,2.4-1.4,5.4.6,3.1,3.1s-9.4,7.6-13,8.7-.7,0-1.1-.1c-4.4,2.2-10,2.8-14.9,3.4-5.4.6-10.1-1.3-14.1-4.2-1.9-.9-3.4-2.4-4.6-4.5-2.7-4.5-5.4-8.9-6.6-14.3-3-13.8-1.6-21,1.1-34.6l-5.3-9c-3.7-6.2-5.8-13.9-6.1-21.2s5.4-11.8,11-14.1,9.8-3,14.8-4.5,5.4-2,8.4-2.6c4.6-.9,8.9-2.5,13.4-2.4,3.1,0,6.1.4,9.3.8l.2.6c1.1-.3,2.9,0,4,.4,7.4,2.2,17.2,6.6,24.3,10,15.4,8.5,30.9,17.5,46.5,26.9,9.3,5.6,19,10.2,29,14,10.4,2.6,20.5,6,30.3,10.4,13.8,4.7,30.1,3.9,44.3,2.9,5.5,1.5,11,2.7,16.6,3.5,13.2-2.5,17.9,9.6,8.3,18.2h2.5c1.7-.5,3-.5,4,.2.2-.3.4-.2.5,0-.2-.8.3-.9,1.5-.5,0-.5.5-.8,1-.6,2.2-1,4.6-1.9,6.9-2.6l-.2-1c9.9-5.8,20-11.5,30.2-17,6.2-5.4,16.6-12.4,25.2-10.6s3.9,1.3,3.8,2.9h1.3s4.4,4.9,4.4,4.9c1.2,1.1,1.5,2.1.9,3.1,2.1,3.2,3.1,7.7,3.4,11.5l1,.5c-.6,5.6.3,10.9,1.5,16.4.2,1.9,1.3,13.5.6,14.2-1.1,1.2-2.4,1-2.1-.6l-1.1-1.5-1.7-12.3.8-1.7c-.6-3.3-1.8-6.3-3.6-9-1,.2-2.1-.3-3.3-1.3-2.5-.5-4.3-1.7-5.3-3.3l.7-.9c.4-1.4,1.7-1.7,4-.9l3,1c-.3-2.4-.9-4.7-1.9-7l.7-1-1.5-2.1c-.4-.2-.4-.3,0-.5.4-.4.9-.2,1.5.7.4,0,.4.2,0,.4l1,1.5c1.4-.5,2,2.3,1.9,3.5.5.2.6-.2.4-1.1-1.1-1.9-2.3-3.9-3.5-6l-3.6-4.1-.3-1.8-1.3.2c-2.3-2-4.7-2.1-7.6-1.4-6.1,1.3-11.7,4.7-16.6,8.2,2,4.3-1.3,11-3,3.3l-27.9,15.2c-10.7,5.9-20.5,7.8-31,1.2-13.6-6.4-27.1-.6-39.2,6.5.9.3,1.3.9,1.1,1.6h1.9c.9.1,10,5,10.4,5.5s.3.9.2,1.4h1.6c5,4.1,9.2,9.1,12.6,14.9l-.5,1.2c1.5.8,2.7,2.2,3.6,4.2,5.4,5.8,16.1,25.7,8.4,32.5s-13.6.3-17.4-4.4c-2.9-3.8-5.8-7.6-8.7-11.4l-.3-1.3-2.5-2.5c-.7-.2-1.1-.5-1-.9-.8-.1-1.4-1.1-1.5-1.9-1-.5-2.1-1.5-2.1-2.7-.4-.1-.6,0-.5.5.9.5,1.9,1.6,2.2,2.6.7,0,1.3,1.3,1.4,2h.5c0,1,.6,1.8,1.4,2.4.4.1.4.3,0,.5l1.1,1c.2-.1.5-.2.7-.2.4,0,5.5,6.2,4.2,7.2.6.9.6,1.4,0,1.5-1.4,0-2.6-.7-3.6-2.1-4.3-5.4-8.6-10.7-13-16-3.7-3.1-7.5-5.9-11.5-8.6l-.3-1.6c-.9-1-.5-1.7.7-2.1,2.1-.7,3.7,1.5,4.5,3s.4.5.7.6c1-.2,2,.2,3.2,1.3,5.3,2.2,8.6,4.9,12.8,9.2s9.9,10.5,14,16.2c2.2,2.8,5,5.1,8.6,5.7l.8,1.1c1.4-.8,2.6-1.9,3.7-3.1,1.8-2.1-1.1-10.9-1.7-11.1-.9,1.8-5.9,6.5-7.5,4s-.8-1.3-.1-2.1c3.4-1.6,5.4-4,6-7-4.8-6.7-9.3-13.6-13.4-20.8-2.6-4-6.1-7.2-10.2-9.6l-16-9.1c-2.5-.7-3.2-1.5-2.2-2.6-1.2-.2-1.8-1.5-.5-1.1.9-1.8,3.2-.2,3.9,1.3-.1-.7,0-.8.5-.3-.3-1.1.6-2.1,2.7-3.2-1-1.6-1.6-3.1-1.7-4.7-.8.8-2-1.2-2-1.8,0-2.5,1.8-2.9,2.4-.9h1.1s3.2,5.4,3.2,5.4c6.6-3.8,13.8-6.6,21.3-7.8,0-4.5,4.5-5,3.8.1,6.8.5,13.8,2.3,19.6,6,2.2-1.4,3.8-3.2,4.9-5.6h1.2c0-.1-.5-.6-.5-.6,2-6.2-3.1-6.7-7.9-6.1-5.9-.9-11.8-2.1-17.7-3.4-13.8,1.8-27.9,1.9-41.6-2.1-11.6-3.7-23.4-7.3-35.3-10.6-20.6-8.7-39.5-21-58.1-33.3-5.9-3.6-12.2-6.3-18.6-9-6.5-3-14.6-6.5-21.3-8.7s-10.5-3.6-18.7-1.8-14.4,3.3-21.3,5.9c-3.3,1.6-6.6,2.5-9.9,2.8-6.8,6.1-7.9,8.8-5.3,18.1s1.8,5.8,3.1,8.5c5.1,8.2,9.4,16.8,12.9,25.6,5.2,8,16,12,24.8,14.7,22.1,6.7,44.2,11.7,67.1,14.8,2.1.4,3.2,1.3,3.4,2.8,1,.8,1.3,1.2.1,2-10.6-.5-21.1-2-31.6-4.4-3.1,4.5-6.2,8.8-11.4,11-.1.1-.2.2-.1.4.2.6,5.9,2.2,6.9,1.2,4.7-2.8,15.1-5.9,20-3.2s2.6,1.9,1.4,4.1c3.4,3.4,7.2,6.5,11.2,9.3,6.9,3.1,14.2,6.4,19.8,11.7l.7,1.9c1.6.3,1.5,2.6,0,3,.2.4.4.9.1,1.1-.7.6-7.6,4.9-8,4.9l-1.1-.5.2.7c-9.6,5.8-19.4,11.5-29.4,16.9-2.5,1.8-4.3,4.4-5.9,7l-1.3.3c-3.8,9.1-4.2,19.6-1.2,29l11.8.7h73.3c2.6-.5,5.1-1.4,7.5-2.6l1.8-1.7c6.3-2.4,12.5-5,18.3-8.3-1.3-.7-1.7-1.5-1.4-2.5-1.1.8-1.6.3-1.3-1.1-.9.5-1.8.2-2.9-.8,0-.5,0-1-.1-1.3l-1.8-.2-4.7-4c-9.9-7-19-15.3-25.6-25.5-5-.8-1.8-5.8,1.2-2.6.2-1.3,1-1.1,2-.5s8.3,10.6,8.5,11.3c-.5.6-.4,1.2,0,1.7h1.2c5.1,4.7,10.8,9.2,16.9,13.4,2.8,2,5.2,4.2,7.1,6.6,2.7,1,4.6,2.6,5.7,4.8,1.5.3,3,.3,4.5,0,.2.6.5.8,1,.6-.1-1,.7-1.7,2.6-2.2,2.1-2.1,3.4-5.5,3.7-8.3-1.7,0-4.1-2.2-5.5-3.5-8.5-8-16.6-16.3-24.1-25.3-3-3.2-7.8-8-12.1-8.3-4.7-2.3.4-5.3,2.6-2.3-.1-1.9,0-3.8.5-5.5,2.2-.8,3.1.8,2.6,4.5,5.3,3.9,10.5,8.2,15.7,13l.3,1.9,1-.3c8.9,8.5,18,16.8,27.3,24.7l.2,1.2c1.7-.4,3.3-.9,5.1-1.6-.9-1-.1-1.1,1-.9-.4-.8-.1-1.6.7-2.4.5-1.9,1.2-2.9,2.3-2.9,0-1.5.3-2.4.9-2.6.9-.3,1.5.2,1.8,1.4,8.4-2.6,17.4-6.8,24.8-11.4,6.7-4.2,9.7-13.7,11.3-21.1,1.4-5.1,3.8-9.5,7.2-13.2,11.6-8.2,24.1-15,36.7-21.5l-2.3-2.5c-1.5-1.5-2-3-1.5-4.3-1.1-1.4-1.6-2.6-1.5-3.6-2.9-.5-2.7-7.5,1-4.9,2.2,3.5,4.6,6.8,7.1,10.1v1.3c1.2.2,2.3.8,3.2,1.8l1.6.7,5.4-2.6c2.4-1.3,3.9-1.3,4.7.1l.8.4c.5-.5.8,1.4.7,1.8-.6,4.2-10.3,5.2-13.9,5.1-13.2,6.3-26.5,13.7-38.5,22s-3.3,4.3-4,6.6c-1.6,7.5-4.4,14.5-8,21.3s-2.6,3.7-4.3,4.9c-9.8,6.7-20.9,11-31.8,14.3-.6,2-1.5,3.1-2.8,3.2.5,1.6-2.4,3.1-3.8,3.6s-4.1.7-5.8-.3l-1.5.7c-.7,1.1-2.3,2.3-3.4,2.9,1.1,1.5-.5,3.4-1.8,4.6s-3.7,3.2-5.3,2.3c-2.6.2-3.1,1-1.5,2.6l1.4.7c.7,2.1,1.4,4.1,2.2,6.1h37.5c.6.2,1.2.5,1.8,1.1l.4-1,70.4.2,1.1-8.6-10.4-30.8c-9.5-1.3-15.9-11-8-18.6,2.1-2,11.4-8.7,13-8.7s.7,0,1.1.2c.8-.4,1.1-.3,1,.3.4.7.5,1.3-.1,1.8l-12,9.1c-4.5,4.1-3.8,8.6,1.8,11.1l.2,1.1,1.1-.7c6.7,1,14.6-.1,19.8-4.7l2-.7c11.4.9,22.6,0,33.6-2.8,3.1,1.9,1,3.9-1.8,4.3l-.3.6c1,.2,1.7,1.2,2.2,2.7l4.7,6.3-.4,1.1c1.4.7,5.6,5.8,5.4,7.1s-.2.4-.4.6c.7.2,1.2.9,1.1,1.7,1.4.3,2.3,1.4,2.6,3.5l.7,3.1c2-.6,3.5-.4,4.6.4.7-.7,1.7-.9,3-.6,0-1.5,1.3-1.6,2-.4,2-.7,1.8.4,0,1l-1.4,1.5c-15.6,3.3-31.5,5-47.6,4.9-4.3.9-11,2.5-12.5,7.1-.2,2.9-.7,5.6-1.5,8,28.2,0,56.2-.1,83.9-.3l3.7.6c10.9.1,21.6,0,32.2-.2v-.6c-.4.3-1,0-1.5-.2-6.9-7.2-13.7-14.8-20.4-22.9-5-7.1-10.1-13.9-15.3-20.5-1.6-1.2-3.3-2.3-5.1-3.5-6.2-8.7-13-17-20.8-24.4s-9.9-7-15.2-6.3c-14.1,2.7-28.1,5.8-42,9.3l-2.1-.3-1,.6c-.1.4-.3.4-.5,0-1.7,1.6-2.8,1-.9-.6l.7-1.6c3.8-2.6,7.8-4.2,12-4.9-1-4.6-1.6-9.2-1.8-13.9l.9-2.1c-.3-1.1-.7-3.5.5-3.5l.6.3.3,4.2c.7,0,.8.7.1,1l.5,3.1c1.3,1.7,1.7,4.4,1.9,6.8-.4-2-.1-3.7,1-4.9-1.1,0-1.1-.7,0-1,0-1.3.4-2.2,1.1-2.5.8.1,1.2.8,1.2,2l.8,8.8c1.1-.6,1.8-.4,2,.6l.4-1c.4,0,.9.2,1.6.5,0-.4-.1-1,.1-1,5.3-1.5,18.8-5,23.8-4.8s10.8,2.9,14.9,5.8c9.1,6.5,18,18.1,23.8,27.5l11,11.3c6,8.6,12.7,16.6,19.9,24.1,2.1,1.6,3.6,3.5,4.4,5.5,1-.4,2,.3,3.3,2.2l2.3,1c2.4,2.1,5,3.7,7.7,4.8l25.5.4-19.2-13v-1.2c0,0-.5-.2-.5-.2l-1.1-1c-1.8-.1-3.3-1-4.7-1.9-7.6-4.7-16-11.4-23-17-2.9-2.3.6-4.8,3.4-2.5,8.3,5.3,16.6,10.7,24.9,16.3.9.6,1.4,1.3,1.5,2.2l1.2-.4,28,19c3.6,0,7-.1,10.3-.5-1.9-18-4.2-36.1-7.1-54.4-.5-2.2-.4-4.1.3-5.8.3-2.4.3-4.6,0-6.8-.3,0-.5-.1-.5-.2,0-.7.1-6.6.3-6.8s.3,0,.6.2l1.3.6c2,11.5,4.2,22.9,6.7,34.5l4.9,39.3h71.2s1.4,1,1.4,1l.3-1h17.6c-7.7-14.7-15.2-29.9-22.3-45.6-4.3-11.5-9.4-22.6-15.2-33.4-9.9-18.5-24.9-34-41.5-46.8-.5.4-1.1.8-1.8.9-1.3.2-23.2-8.8-24.7-9.5-17.8-8.3-33.7-19.5-49.6-31-2.2-1.7-4.4-3.1-6.7-4-4.1,1-5.3-.2-6.9-3.7s-1.3-3.7-.4-4.7c-.3-.9-.7-1.2-1.1-1,.8.7.5,1.4-.7,2.1l-4,7.2-1.7,1.1c-1.7,5.4-6.9,11-11.3,14.8-11.1,9.8-29.6,13.1-43.9,14.3,1.6,2.4,2.6,5.8-.8,6.3l-.5,1.1c1,0,.9.7,0,.9l-.4,1.1c.3.1.2.4-.1,1,.9.8-1.1,6-1.7,6s-.5,0-.7,0c-.2,1.2-.5,2.8-1.5,3.4-.2.9-.4,1.7.2,2.5l-2.4,11.2-1.3,1.3c0,1.1-1.5,1.2-2.3.8-2.2-1.2-2.5-5.5-1.6-7.7-1.3-1.7-2.7-6.3-.6-7.5l-1-1.5c-.2-4.2-1.2-8.3-2.4-12.3l.5-1.7c-1.2-1.3-2.2-3-2.8-5.1-2,0-3.9-.3-5.8-.8l-.5-1.1-1.6-.5c-.1.4-.3.5-.5,0-.9.9-2.2.3-2.3-1-2.5,1.5-6.4-2-8.1-4-3.1-4.8-5.9-9.8-8.5-15-3.9,1.6-8,2.6-12.4,3.2l-.9-.9c-2,0-3.6.5-4.8,1.3-4.8-.2-9.4-.4-14.1-.6-4.1,2.1-8.1,4.7-11.9,7.7-8.3,3.7-17.5-1.6-24.4-6.1l-.4-1.3-.7.8c-6.2-2.5-12.6-4.3-19.1-5.4-15.7,1.1-31.3,1.9-47,2.6-5.9-1.9-11.8-3.7-17.7-5.5-5.8-.9-11.7-1-17.6-.4l-.7-1.1c-.8-.2-1.4,0-1.7.6-2.3-.5-4.6-.8-6.9-1.1-1.5.8-3.2.7-5.3-.5-3.1-1.4-5.9-3.2-8.5-5.4l-2.6-.9c-7.1-.4-14.2-1.1-21.4-2.2-.9,3.8-3.8,1.8-6.1,0-4.6-5.7-10.1-10.3-16.3-13.7-6.8-2.1-13.8-3-21.1-2.5-1.2,0-2.1-.4-2.7-1-2.7,0-5.3-.4-7.9-1.2l.9-.8c2.5-.6,5.2.3,8,0,9.9-.8,15.7-2.2,25.6,1.7s10.9,7.5,15.6,12.4c3.4,2.4,8.7,1.7,12.7,1.9l12.7.7c6.3.3,8.7,6,17.5,8.6s3.4.3,4.9.5c1.7-.8,4.5-.6,6.5-.5,12.8-1.7,18.9,1.1,30.8,5.1s9.7,1.4,14.6.9,9.8-.1,14.8-.8,12.7-1.9,19.2-1.6,7.6,2,11.5,2.9c6.1,1.3,11.1,4,16,7.5.9,0,2.1.2,2.6,1,8.9,2.9,11.2,2.1,18.5-3.4s12.5-1.4,19.9-2.7l17.5-3,1-1.5c-2.1-2-3.7-4.2-4.8-6.7l.2-.7c-3.4-5.3-5.3-11-7-17.1s-3.4-6.6-2.5-10.4c-.7-1-1.5-2.9-1-4l-.5-.5c-.3-.1-.3-.3,0-.5-.3-3.8-16.6-11.8-8.2-33.2-.6,0-1,.5-1.8.2.5-1.5,1.6-2.3,2.5-3.4-.5-.7.3-1.4,1.1-1l.2-1.2c2-.5,3.7.4,2.1,2.3.2,1.3,0,1.5-1.2,1v.5c.9-1.4,2.3-.3,2.2,1.4-6.2,5.7-4.7,19.5.7,25.5v1.6c2,1.4,3.5,3.1,4,5.5.8,0,1.3,0,1.4.8,1.1-2.2,2.3-3,3.7-2.5.6-.6,1-.7.9.2,1.3-.6,1.6,0,1.5,1.3-1.2,2.4-2.3,4.8-3.2,7.2.2,2.8.3,5.6.3,8.5l.9.5c-.3.9-.4,1.7,0,2.4.9.5.5.8-.3,1.1l1.5,1.3c1.8,4.7,4.5,9.1,7.6,13.1l.3,1.9,7.7,5.6c4.8,3.2,10.4,3.7,16,3.2,2.4.9,2.3,2.9,0,3.9-5.2,2.1-11.7,0-16.4-2.4,2.1,3.1,3.8,6.3,5.2,9.8,2.6,3.1,6.4,5,11.5,5.7l1,1.3c.8-.3,2-.1,2.5.6,3-1.5,5.2,2.1,6.6,4.6s1.9,3.9,1.3,5.8c.9-.2.9.7.6,1.5l1.4,1,1.7,7c2.4-4.1,3.8-8.3,4.4-12.7-1.2-2.8-1.6-6,1.9-7.1l7.7-.6,1.4-1.2c6.2-1.3,12.2-3,18.1-5l.9.8c4.5-2.5,8.8-5.1,13.1-7.8,8.3-7.4,15-16.1,20.2-26.3-.8-1.2-1.4-2.7-2-4.3l.7-1c-1.5-1.1-2.5-2.8-2.8-5.1l-1.2-8.5-1.1-1.6c-.3-1.9-.8-9.5-.1-10.6s.4-.6.7-.8c-.3-.2-.3-.3,0-.5l-.9-1,.3-4.4c-1.8,1.5-3.7,3-5.8,4.1s-2.8,1.4-3.8,1.5-.4,0-.5-.3c.8,3.9-3.2,20.4-6.3,21.5s-2.6,0-2.6-1.9c1.1-3.7,2.5-7.2,4.1-10.7l-.6-1c1.2-5.7,2-11.4,2.4-17.3,1-2.6,4.4-1.5,2.6.3-.2.7-.2,1.3-.2,2,0,3.7.4,4.2,3.6,2.2l2.5-1c.5-1.6,3-3.8,4.7-4.2v-1.9c4.9-9.4,6.6-20.1,3.8-30.4l.7-1.1c-.6-1.4-1.3-2.8-2-4.1l-1.2.5c-9.1-2.8-12.3,2.2-13,10.3s-.4.7-.8.8c-.6,2.6-2.1,2.1-2.9-.5-1.2-3.9.4-8.9,3.2-11.8s5.8-4.6,7.7-2.8l1.5-.2c.9-.8,1.4-.7,1.5.1.9-1.5,3.8-.2,5.1.5s2.9,1.8,2.5,3.6c.8.1.8,1.2.5,2,.6.6.8.1.5-1.5-.5.1-.7-.4-.5-1.5-1.6-.4-2.5-5.1-1.1-6-.8-1.8-.6-2.3.6-1.4,4.1,8.8,8.5,26.1,4.5,35.9l.6,2.4c1.9,7.6-3.5,14.5-7.6,21.4,0,4.3.4,11,2.8,14.8s6.8,3.9,6.8,12.8.8,4.9,1.4,7Z"/>
    <path d="M580.2,10.9l-28.7-.3,2.2,7.8c1,3.7,1.3,7.3,3,10.5,1.7-.3,2.9,4.4,2.1,5.6.5.8.2,2,.4,2.9l-.6.2c-.7-1.2-1.3-2.5-1.9-3.7-.2.2-.4,0-.6-.5-.9-.4-1.6-1.1-2-2.2-.7,3.9-2.2,7.4-4.5,10.3-1.4,1.3-3.5,2.4-3.7-.2,2.7-4.6,3.7-9.5,3.5-14.7.3-.9.8-1.7,1.6-2.4.2-.9-2.1-10.4-2.6-9.9-2.5,2.4-3.4.2-4.1-2.4-.4-.3-8.7-.6-10-.6-4.9,0-7.9,1.3-12.2,3.4-1.1.4-2,.5-2.9.2v.6c1.7-1.3,7.6-1.1,5,1.5-.2,1.3-1.1,1.7-2,.6l-.6,1c-2.6.2-11.5.4-9.7-4.1s2.1-2.4,2.9-1.2c.6-.6,0-1.2-1.6-1.8-.7,1-2,1.1-4,.5h-41.7s-.6-1-.6-1c-9.3.8-18.8.7-28,.5l-.2,2.3c-4.8,8.7-7,18.6-7.4,28.5l-.9,2.1c1.5.2,1.4,2.4,0,2.5l.8,2.1c-.5,4.7-.5,9.4,0,14.1l-.7,2.1c.5,1,.8,2-.5,1.5-3.1-5.4-2.6-11.6-1.9-18s0-11.5,1-17c-1.1-2.6-.2-6.6,2-8.4l-.5-1.7,4.4-9.7h-215s-.5-.8-.5-.8H63.9s-1-.3-1-.3l-.3,1H14.1c0-.1-1.1.4-1.1.4v10.7c0,0,0,127.1,0,127.1,1.5-.2,1.5,3.9,0,4.1l-.3,117.7-.3,37c0,.5,0,.8-.3,1s-.5,0-.7,0l-.3-20.4-.4-37-.2-75.9V12.6c0-1.9,1.5-2.9,3.1-2.9l57.8-.7,52.5-.3,174.4-.6h87.4c0,0,52.5-.2,52.5-.2h3.6s58.9-.1,58.9-.1h5.7c0,0,198.7-.1,198.7-.1h209.1c1.3,0,2.1,2.4,1.2,2.9l-335.3.3Z"/>
    <path d="M919.5,303.1c.3-3.6,0-7.1-.1-11.1l-.5-80.2-.4-8.5v-12c-.3-2.5-.4-5-.3-7.6-.5-.2-.6-.5-.7-.9-.2-1.7-.3-4.5.5-5.9-.7-22-.8-43.7-.5-65.3l.5-.6h-.5c-.2-5.3,0-10.4.5-15.5-.2,0-.4-.2-.4-.2,0-1.7.1-3.5.4-5.3v-54.4c-.1,0,0-26,0-26,.3,0,.6,0,.8,0,.4.1.2.5.2,1l.8,25.7.9,68.4,1.3,127,.7,76.9c0,1.3-.4,3.3-1.8,3.4-1.3-.4-1.4-3-1.4-4.3v-4.5Z"/>
    <path class="st94" d="M217.8,314.5l-61.3.4c-4.4,0-8.3-.2-12.6-.5-12.9,0-55.5.9-65.9.3l-34.6-2-21.8-.2c-.4,0-.8-.2-.6-.5h28.1c0,.1,167.2.9,167.2.9,1.3,0,1.1,1.1,1.5,1.6Z"/>
    <path class="st99" d="M919,314.5c-5.9,1.2-12.1,0-18.4.6s-10.7,1.6-16.2,1.4l-27.4-1c-2.8-.1-5.3-.4-8-.4l-14-.2c-.4,0-.8-.1-.6-.4h84.5Z"/>
    <path class="st148" d="M553.3,317.3c-2.7.3-5.4.5-8.2.2s-.4-2.6.3-2.7c2.6.4,5.5,1.3,7.9,2.5Z"/>
    <path class="st157" d="M9.8,13.5c-.7-1.8-1.1-3.2-.6-5.1,1,1.6,1.1,3.4.6,5.1Z"/>
    <path class="st101" d="M220.9,318.5c.2-.2.4-.3.6-.5.1.3.6.4.5.8s0,.9-.5.6-.3-.7-.5-.8Z"/>
    <path class="st95" d="M918.6,191.2c-1.1.9-.2-6.6-.8-7.9l-43.3-5.9c10.1-.7,19.6.5,29.5.8s8.8-.9,13.5-1.1l-.7-19.5c-6.6-3.3-13-5.1-20.1-6.6-18-4-35.8-6.6-54.2-9.2-18.9-2.7-37.3-4.5-56.3-6.2l-98.1-8.7-94.1-7.8c-1.1,0-1.7-1-2.2-1.8h14c0,0,98.8,4.6,98.8,4.6,38.7,1.8,73.3,5.1,112.5-.3,33.5,2.9,66.4,7,99.7,11.8.5-7.7.3-14.9.3-22,.2-.9.4-1.3,1-.5v20c.1,0,.6,60.3.6,60.3Z"/>
    <path class="st95" d="M917.5,84.2c-13.6-1.7-26.8-2.7-40.4-4l-22.4-2-48.1-4.3-54.4-5.2c-24.3-2.3-48.1-5-72.4-7l-26.6-2.2c-1-.8-2-1.4-2.4-2.7l54.4,1c34.2,3.7,68,7.5,102.4,8.3l44,1,24,.8h41.9c0,.1,0,16.4,0,16.4Z"/>
    <path class="st16" d="M633.7,33.4c2.2.2,4.3.4,6.5.5h1.5c-8.7.8-17.4,1.1-26.2.9-18.8.2-37.5.1-56.3-.3h-.4c-1.1-1.6-1.2-3.9-2.1-5.6,0-.2-.2-.5.2-.9l68.2,4.7,8.6.6Z"/>
    <path class="st95" d="M918.5,203.2v7.9c0,0-18.9,0-18.9,0l-8.8-7.6c-2.4-2.1-6-1.7-8.8-3.2l36.5,2.9Z"/>
    <path class="st136" d="M653.1,34.4c0,.3-.1.5-.3.6-1.3.6-5.6.1-7.2,0h-85.8c-.5,0-.8,0-.6-.4,27.5.4,55.1.6,82.4-.6s6.4.5,11.5.5Z"/>
    <path class="st111" d="M645.7,34.9c2.6,0,5.1.3,7.5-.5s13.6,1,16,1.2c-2.4.9-4.9,0-7.5-.1h-15.5c-.4-.1-.6-.4-.5-.6Z"/>
    <path class="st118" d="M918,110.8l-1,.5v-11c.2-1.7.4-3.4.4-5.1h.6v15.6Z"/>
    <path class="st8" d="M572.2,135.8c-1.7,0-3-.9-3.5-2.5,1-2.2,5.2,4.6,3.5,2.5Z"/>
    <path class="st51" d="M918,95.4c-1.2-.1.2,4.3-1,5-.2-.9.3-10.6,1-10.5v5.5Z"/>
    <path class="st136" d="M640.2,33.9h-5.5c-.5,0-1-.1-1-.5h5.5c.5,0,1,0,1,.5Z"/>
    <path class="st76" d="M559.2,37.4c.5.2.8,1.1,1,1.5-.7,0-.6.9-.6,1.4-.5,0-1.1-.2-1.4-.6-1-.9-1.5-4.5-1.5-5.9,1.4.8,1,3,2.5,3.5Z"/>
    <path class="st95" d="M62.9,11c52.4.1,104.9.3,157.3.6-.2,2.1-.6,4.2-1.1,6.3,50.2.2,100.6,1.2,151.2,3l59.7.3c1.1-.1,1.4.6.9,2.3-.9,2.7-1.5,5.6-2,8.4-.3.3-.7,1.2-1.6,1.2l-109.3-1.7-22.6-.2h-27c0,0-43-.6-43-.6l-40-.3-59.9-1.4-3.1-.8-29.4-.2c-9,0-17.5-.8-26.2-2.8-1.7-.4-3.1-.2-3.9,1.5l-31.2-1.9c-6.1-.4-12-.6-18.2-1.4v-10.3c-.1-.4-.3-.8-.5-.6,0-.4-.3-1.6.5-1.6l49.4.2Z"/>
    <path class="st95" d="M174.3,99.2l-44.3,2.7-25,.2-53.9,2.3c-5,.2-9.5-.5-14.4.2s-1.7,1.9-1.9,3.7l-21.2-.3v-11.2s26.8.2,26.8.2l2.3,3.4c.4.5.7.9,1.2.9s1.7-.2,1.6-.7c-.3-1.5-1.9-1.9-2-3.8l99.9.9c10.6,0,20.6.8,31,1.6Z"/>
    <path class="st94" d="M164.9,195.4c3.4,2.2,4.2,2.7,2.3,1.5l.4-.6,3.9,1.5c0,.2,0,.4,0,.5.2.3,6.5,2.2,7.4,1.9l7.5,2.4c.9.6.5.7-.5.7l-.6.9-11.3-1.5c5.7,1.9,11.4,2.7,17.2,2.5.9-1,1.9-.9,3.2-.5,6.2,1.9,12.6,2.8,19.4,4.2-.6,2-2.5,2.8-3.8,4.2s-1.5,2-2.8,2.8c-2.6,1.5-5,3.1-7.8,4.2l-8.5,3.1c-2.1.4-4.3.8-6.5,1.2.9-.1,1.4,0,1.6.4-.7.2-1.1.5-2,.4-.3-.2-.7-.4-1.2-.6s0-.5.2-.9c5-2.5,9.7-6.1,14-9.9.4-.5-1.1-1.3-1.5-1.3s-1,.2-1.6.7c-4.4,3.3-8.9,6.3-14.1,8.2s-16,4.2-19.7,1.2c-1.2-1-2.5-2.5-3-3.9,0-2.4,4-3.1,6.1-3.3,2.9.5,5.8,0,8.7-1.6.8-.3,1.2-1,1-2.1l1-.9c5.1.8,9.9.3,14.3-1.5-13.6,1.5-23.7,1.5-31.5-11.2s0-1.2,0-.2-.3.3-.7.4c-1.9,0-4.4-6.1-4.3-7.5s1.3-2.3,2.7-2.5c3.2,2.9,6.8,5,10.5,7.2Z"/>
    <path class="st102" d="M13.1,154.3v-4.1c6.5-.8,13.1-.6,20-.9s.3,1.2.1,1.5-.8.7-1.5.7c-18,.6-6.1,3.1-18.6,2.8Z"/>
    <path class="st19" d="M448.7,136.8c1.7,2.7,3.4,5.2,6.2,7.4-1,.9-1.8,1.3-2.7,1.5-.5,0-1.8.2-2.3-.2-1-3-1.6-6-2.2-9.1.6,0,.7.3,1,.3Z"/>
    <path class="st15" d="M23.8,75.2c-3.4.6-6.7.3-10.2.5-.2-1-.2-1.8,0-2.8l10,.7c.5,0,.7,1.6.2,1.7Z"/>
    <path class="st60" d="M190.4,116.3c0,.4-.4.6-1,.6-3-.9-7.5-.9-9.5-1.4,1.4,0,2.7-.1,3.5-1.1-1.7,1.6,7.8,1.1,7,2Z"/>
    <path class="st65" d="M153.9,222.8c-2.8.3-3.6-2.9-4.6-4.5,1.6,1.5,2.8,3.3,4.6,4.5Z"/>
    <path class="st121" d="M286.8,139.8c-2.1.3-4.3.8-6.5.5l-.5-1h6.5c.3,0,.6.3.5.5Z"/>
    <path class="st34" d="M437.8,104.8l.5.5c.3,1.2,1.1,2.8,1,4-1.1,1.2-2.6-6.1-1.6-5v.5Z"/>
    <path class="st121" d="M221.8,272.5l-1.5,2c-.4,0-.8.9-.9.2.6-1.6,1.3-2.5,2.4-2.2Z"/>
    <path class="st143" d="M431.3,66.9c-.3.3-.8.7-1.1,1-.2-.1-.5.4-.6.3-.3-.3-.4-.8,0-1.3.7-.2.6-.9.5-1.5,1.1-.9,2,.4,1.1,1.5Z"/>
    <path class="st110" d="M396.4,154.8c-1.1-.3-1.7-.4-2.6-1-.2-1,2.7,0,3,.7s-.2.3-.4.3Z"/>
    <path class="st103" d="M182.9,226.5c.2,0,.3,0,.5,0-.4.6-1.4.9-2,.4.7-.4,1.1-.2,1.5-.4Z"/>
    <path class="st46" d="M257.4,253.1c0,.5-.7.5-1.1.6.2,0,.2-.6.5-.8s.4,0,.6.2Z"/>
    <path class="st95" d="M636.2,198.6v1.8c-3.1,5.3-6.2,10.6-7.8,16.7,2.4-5.8,5.4-11.4,9.1-16.7l1.2-.6c1.1-.9,2.4-.7,4,.7,5,3.3,9.8,6.9,14.3,11,3.3,5,7.2,9.5,11.7,13.5,8.8,10.2,17.1,20.6,25.1,31,2.7,6.1,4.2,12.4,4.3,19,1.5,5.5,3.6,10.8,6.2,15.9,3.5,5.5,7,11,10.4,16.7s.5,1.1.6,1.7.2,1.3.3,1.9h-73.5s-1.9-15.5-1.9-15.5c-1.5-11.7-2-23-5.1-34.3s-2.5-19.7-4.8-25.4h-.5c-.2,2.2-.3,4.4-.4,6.6l-.6.3-1-.7c.9-1.8-2.3-9-3.4-8.8s-.3.1-.4.3c-4.7,5.4-4.2,21.5-3.7,28.5-.1,1-.6,1.2-1.5.7-.4.2-1,.3-1.1,0-3-7.2-6.7-14-11-20.3,5.9,11.7,10.9,23.8,15.1,36.1v2.1c0,0,1.6,6.3,1.6,6.3.4,2.4.9,6.9-2.5,4.2-6.1-7.1-12.7-13.4-19.7-19.1-2.7,2.6-5.4,4.8-8.2,6.7,2,4.3,4,8.6,5.8,12.9-.4.5-.9.5-1.6,0l-16.6-10.9c-.7-.5-14.1-10.3-13.2-6.8s.3.8.6,1c9.1,6.7,17.8,13.7,27.1,19.7l1.1,1,.6.2c.3,1-.2,1.3-1.2,1.1-2.8-1.2-5.6-2.1-8.4-2.7l-8.2,6.9-1.9.4c-3.4-2.8-6.2-6.1-9.5-9.4-5.2-5.3-9.2-11.1-13.5-17s-8.7-8.9-12.8-13.6-2-3.9-3.4-5.6c-4.6-5.9-9.4-11.4-14.6-16.8s-10-8.4-16.3-10.2-5.8-.6-9.1.1l-18.7,4.2c-1.8.8-2.1-2.4-1-3.4.5-1.2.3-2.1-.4-2.9-.1.4-.3.4-.6,0l-.6-.6c-.5,0-.6,0-.4-.5l.5-.9c.5.4.9.4,1.1,0-.5-1.2.2-1.7,1.4-1.1.3.2.6.4.8.4.4,0,.7-.5.6-1l-.8-11.9c-.3-4.1-1.9-7.8-1.8-11.7l.2-6.3c-.5-1.8-.3-2.8.5-3l.8-.7c2.6,0,5.1.1,7.7.2l.5,1.4c0,2.5,0,5.1,1.6,7.3-.7,2.3-.4,4.7.5,6.7.6.5,1.9.3,2.5.4,2.7-.9,2.4,3-.6,3-1,.8-1.3,1.4-1,2,2.3.8,4.5.8,6.6,0-.5-1.3.2-1.6,1.1-.6l.6-1.5,4.4-2.9,7-18.9c11-5.2,21.9-10.7,32.9-16.5-.5-.6-1.4-1.2-2.9-1.5-1.1-.5-1.6-.9-.7-1.9v-1.1c10-6.1,1.7-2.1-2.8.2l-1.1-.6c-1.2.4-2.4.7-3.5,1-6.6,2.2-13.1,4.7-19.5,7.5.4,1.4-5.4,2.4-6.1,2.2s-.7-.3-.9-.7c0,.8-.4,1.3-1.2,1.6-1.4,1.3-2.7,2.9-3.8,4.6l-1.1-.2c0-.3,0-.6.1-1l.4-1.1c0-.3,0-.6,0-.9l.5-1.1c.1-.8,1.4-1.4,1.4-2.3-.2-1.9-1.5-3.1-2-5.1,6.4.3,12.1-.9,18.2-2.4,20.1-4.9,26.4-8.7,38.4-25.7.2,0,.5-.2.7-.2,1.8.1-.8,7.1-1.4,8.3,3.4,2,6.9,3.8,10.6,5.5,1.3-.2,2.4-.1,3.4.1l16.5,16.5c5,6.4,12.2,10.7,19.4,14.3,9.3,3.7,18.7,7,28.2,9.9,1.7.4,2.3,1.2,2,2.3Z"/>
    <path class="st133" d="M393.8,195.7c-.5.5-1.1.6-1.9.2-7.2-.4-16-1.9-22.9-4s-2.1-.9-3.1-1.6c-6.7,2.9-13.7,5.1-21,6.6-2.1.4-4.5.1-5.7-1.6-1.5-.7-3.3,0-4.3.9.3.3.6.6.5,1-.3,1.9-2.1,8-3,9.4-.9-.2-.9.4-.6,1.1.5,0,1,.2,1.5.5.2,1.4,1.6,1.2,2.6,1.8l15.4,8.7c5.6,3.1,9.7,7.3,12.7,12.9,2.8,5,5.7,9.6,9.1,14.3s3.2,3.4,3,5.2c-.5,3.5-3.8,5.6-6.6,7.2,1.8,3.4,6.4-2.9,7.7-5.1.8,3.6,2.6,6.9,3,10.4s-2.4,6.5-5.3,6.3c0-1.3-1.1-2.3-2.9-3l-2.1-1.9c-8.3-13.8-20.6-23.7-33.9-32.1l-.4-1.6-.9.5-6.4-4.7-1.5.7c-.8,0-.8.4,0,1.5.9.3,1.6,1.2,2,2.7,1,1,1.3,2,1,2.9,4.2,3.7,9.6,6.2,13.5,10.4s9.2,12.8,15,18c1.5.7,3.4,3.9,2.5,5.5-.6.9-1.3,2.1-2.1,3.8-3.1,2.9-1.8,2.7,0,0s1.3-2.3,1.5-3.6l.7-.3c.3-.4.8-.6,1-.3.7,1,5.1,7.8,5.2,8.3l-.3,2.6c-.9,1.9-1.3,4-3,5.4-4.1.5-5.6.7-9.2-2.1s-2.6-2.3-3.8-3.4c-6.1-5.9-12.3-12-18.4-18.1s-1.9-2.4-2.6-3.7c-.3.3-.8.6-1,.4-5.6-4.5-11.2-10.2-16.2-15.4-.6-.2-1.2-.6-1.7-1.1-.6,2.2-.8,4.3-.7,6.6l-3.8-.2c.6,2.5,3.6,1.3,4.9,2.4,3.2,2.6,6.8,5.1,9.6,8.3,7.8,9.1,15.5,17.9,24.7,25.7s3.1,1.9,3.7,3.3c0,4.6-6.9,8.9-11.3,7s-3-1.4-2.1-2.8c.4-1.1,1.3-2.1,2.9-2.9,1-1.2,2-2.1,3-2.7l.5-.6c-.4-.1-.4-.3,0-.4.3-.4.4-.6,0-1-.2.5-.4.7-.6.5l-.5.6c.1.2.2.4.1.6-.4,1.2-5.3,6.3-6.6,4.4l-.6.4c0,.4-.2.5-.5,0l-1.1.4c-5.7-5.1-11.4-10.2-17.1-15.2l.2-1.1c0-.6-.2-1-1-1.5-1,2-6.2-1.7-5.1-3.5l-1.1.2c-3.4-4.6-7.3-8.7-11.7-12.3.2,1.5-.2,2.4-1.1,2.6-.8.1-2-.2-2.8,0-.6,1.7,1.8,1.1,2.3,1.9,6.2,9.3,13.9,17,23,23.4s5.7,4.7,8.5,7c1.8,1.1.9,1.9-.6,2.8s-3.5,1.3-5.2.8l-20.6-10.4v-1.2c.3-1-.2-1.6-1.6-1.6-2.5,1.5-4.1.5-6-1.2-5.6-6.1-11.1-12.1-17-18-2.9-10.1-4.5-21.5-4-31.7-1.4-.3-1.2-.8,0-1.4-1.3-3.4-2.1-6.9-2.4-10.7l-1.7-6.7c-.7-2.9-2.2-6.1-5.6-5.6l-32-10.3c-18.3-2.2-35.3-7-52.6-13.7s-15.7-11.3-20.4-16.8-18.7-22.5-18.4-30.2,2.4-5.6,4.6-7.4c11.2-4.7,23.1-8.5,35.4-10.4,6.1-1,12,1.4,17.3,3.6l15.6,6.4c8.3,3.4,16.4,6.7,24,11.6s18.7,12.5,28.6,18.1,16.3,8.9,24.8,12.8,9.2,2.7,14,4.2l20.7,6.5c11.6,3.7,25.6,5.3,37.7,3.7s6.2-1.3,9.4-.2,7.1,1.7,10.9,2,4.3,1.3,6.5.9,4.6.2,6,1.9,1,3.9,0,5.7Z"/>
    <path class="st133" d="M513.2,11.5c1.6.4,2.1,1,1.6,1.8-.9.2-2.7,1.8-2.2,2.8,2.8,2.1,6.5,1.3,9.7,1.5,1.4.1,1.3,1.3-.4,3.6.9.1,1.4.5,1.4,1.3.4.2.4.3,0,.6.8.5.6,1.3-.7,2.4.5.7.7,1.4.7,2.1.6-.4,1.3-.2,1.1.6.7.4,1,1.1,1,2.3,1.1.3,1.8.8,2,1.6-1.1,4.9-1.4,9.9-.7,15.1.9.6,1.3,1.3,1.2,2,1.2-.4,1.5-.1,1,.9,1-.6,1.4.2,1.8,1.1-.2,6.2,1.5,11.8,3.4,17.7,1-1.6,2.4-1.7,4.2-.3,1.5-1.1,3.1-2.2,4.7-3.2,4.4,2,5.2,6.1,2.5,10.1.6.9.5,1.6-.2,2.1,3.1.7,5.4,0,7.2-2.7l1.2.2c3.1-8.3,3.7-17.1.6-25.5l.5-.8c-9-1.6-11.7,6.7-9.9,14.3-.7,1.3-1.6,1.6-2,.1-1.9,1.5-2.7-3.5-1.1-4.5-.5-4.4.5-9.1,4.5-11.4s7.2-2.1,10.5-.2c.8,1.3,1.4,2.7,2,4.1,2.2,5.5,2.1,17.5-.2,23.4s-2.6,6.9-4.3,10c-.6.8-1.2,1.1-1.8.8-1.8,1.9-3.2,3.3-5.8,3.7-3.2,4.9-3.7-.2-3-3.5,0-.4,0-.6-.3-.8-.6-.3-1.2,0-1.3.7l-1.2,11.8c-.2,2.2-.4,4.6-1.5,6.3-2.9,5.6-5.2,11.4-7.1,17.4,6.1.6,9-1.8,11.5-7.1,1.5-1.3,1.7-.9,2.4.7s1.7,9.6,1.9,11.5c.7,7.1-.7,10.5-4.7,16.7s-9.6,13.9-16.1,18.4l-6.5,2c-4.7,1.5-9.2,3-13.9,3.4-3.4.8-6.6.7-9.5-.3-3.6-2.2-2.7-3.6,2.9-4.4,9.1-2.8,17.7-5.8,22.7-14.4-.7-.6-1.2-1.2-1.4-2l1.3-2.3v-1.6c-.1,0-11,8.4-11,8.4-2.7,2.1-13.3,7.4-16.1,6.2s-.6-.3-.9-.6c-2.9.4-5.8.3-8.5,0-.3.4-1.5.3-2,0l-1-.6c-.1.4-.3.4-.5,0l-3-.9c.4-.5,1.1-.8,2.1-.9l1.2-1.2c7.5-1.1,13.8-4.8,20-8.6,0-.8.2-1.4.7-1.7v-1.3c2.1-1.7,4-3.7,5.4-5.9l-5.6,4.5-1.2-.3c-7.4,3.4-17.7,8-25.9,5.7l-.7-1.1c-.9-.7-1.2-1.9-1-3.8-.2-1.3-.6-3.1-.5-1.1.7,1.8.5,3.1-.5,3.8-.4.5-1.1.7-2.2.6-1.4,1.7-3.1,2.7-5.1,3-4.6-.4-8.8-2.4-12.6-6-4-4.7-7.4-10.3-9.5-16.3.3-.5,1-.7,1.8-.6.1-.2.5-.2,1,0-.8-.9-.8-1,.5-1,.4-1,1.3-1.8,2.8-2.2,3.2-3,6.2-6.3,9-9.8h1.2c.2-1.2.6-1.1,1.1,0,3,1.4,8.1,1.4,11.6.8,3.8-1.8,7.1-1.9,10-.1v1.2c-.2.4-.3.7-.4,1-1.5,3-14,7.3-18.4,6.5,4.3.9,8.7,0,12.8-1.4l1.3.6c1.3-.5,1.9.4,1.7,2.6,4.5-.5,9-2.1,12.2-5.2,1.9,0,3.7,0,5.5,0-1.4-.5-1-1.5.4-1.4,1.3-3.3,1-6.3-.9-8.9-.5,0-.8-.2-1-.6-1.4-3.1-2.7-5.6-5.1-8.2v-.7c-1-.2-1.3-.6-1-1.2-3.3-2.5-6.5-5.1-9.5-7.9v-1.4c.1,0-.9-.6-.9-.6-.3-3.1-2.7-5.5-5.2-7.1-5.4-3.7-.9.3,1.4,2.1,1.5,1.7,4.4,5.3,1.3,6.2-.2.7-.9.8-2,.5-1.2,1.6-2.4,1.8-3.6,0-.2,0-.5.1-.7,0-.8-.3-2.8-1.4-2.8-2.1-3-.8-4.7,0-6.6,2.3-3.3,1.3-6.7,1.7-10.3,1.2l-1.1.4c1.5.7,1.3,3.6-.4,3.7-3.7.2-1.5-13.1-.4-14.8,2.6-6.3,4.1-10.8,4.2-17.6s.2-.9.7-1.2c-.3-.8-.6-1.9,0-2.5,0-1.8-.2-4.1-2.2-4.6l.2-1.3c-1.7-.9.5-3.1,1.8-2,.1-1.2.8-2.1,1.9-2.5-.9-3.8-3.7-6.9-7.6-4.1l-3.4-.8c-4,.6-8,1.2-12,2-1.1,2.3-2.2,3.1-3.3,2.4-.1-11.6,2.6-22.9,8.5-32.9,9.3.2,18.8.2,28-.5h42.4s4,.5,4,.5Z"/>
    <path class="st95" d="M190.4,116.3h10c14.4,0,20.1,4.8,29.6,15.2s3.2,2.7,5.2,3.2c.2-1-.1-1.7,0-2.8,5.1,1.3,10.3,1.5,15.7,1.9l6.5.5c1.8.1,3.6.8,4.9,1.9,3.6,3,7.6,5.1,12.1,5.9,1.5-.6,2.2.7,1.9,3.7-.7.3-.8.9-.3,1.9.4,0,.7.1,1,.2s.6.2.7.5c1.5,2.1,2.8,4.4,4.1,6.6-.1-1,0-1.7.6-2.3-.7-1.4-.2-1.9,1.2-1.2.8,1.5,4.4,2.7,5.7,1.7s-6.9-8.1-8.2-9c-1.2-1.9.1-1.8,1.8-1.6,3.1.9,10.6-2.3,24,2,11.3,3.6,8,4.7,20.3,3.9l30-2c5.2-.3,10.1-1.1,15.1.6l13.4,4.5c.8.4,1.2.9,1.1,1.5l-2.6,6.3c3.7,4.1,8.9,8.8,15.1,9.5s11.7.5,15.3-1.6c3.8-5,7.4-7.9,13.6-8.9,4.1-.2,8.3-.6,12.4-1.2-1.6-1.7-2.9-3.5-4-5.5.3-.7,1.1-.9,2.4-.7l2.4-.4,7.1-1.4c2.5-.5,4.2-1.1,6.6-2.9,1.3,3.9,3.9,6.6,5.3,10.2,2.1,5.1,5.7,9.2,11,10.6,1,1.6-.9,6.5-3,6.4-1.1-.4-2.4-1.4-3.7-1.8-4.8-1.3-14.4,2.3-18,5.1l-6.2,4.8c-4.9,3.9-10.9,5.9-16.4,9.1l-14.9,8.6c-2.5,1.1-5,1.8-7.4,2.1v.4c-1,.3-1.2.5-.5.7-.4.3-.9.6-1.5.5-.2-.3-.3-.3-.5,0-2.6,1-5.6,1.4-8.5.4,4.7-4.6,7.2-7.1,5.5-13.2-1.4-4.9-5.9-4.6-9.9-4.5-5.8.2-11.5-2-16.9-3.2s-6.2,0-9.7.3c-9.7.9-27.8-.5-37-3.7s-13.6-6.1-20.9-7.9-10.2-2.4-15.4-4.7c-14.3-6.6-27.6-14.2-41.1-22.4s-7.4-4.6-11.3-6.7l-16.2-9.1c-3.1-1.7-25.1-10.6-28.4-11.6,0-.5.6-.6,1-.6Z"/>
    <path class="st95" d="M468.6,206.7c.4.2.4.3,0,.5-.3.4-.2,1.1,0,1.5,1.5.1,1.5,3.6,0,3.9.6,2.5.5,4.9-.1,7-.9-1.3-.3-3-.9-4.5-1.1-.1-.9,2.5-.5,3.5.2,5.4,1,10.7,1.6,16.4-5.1,1.2-9.3,3.5-13.4,6-.8,1.2-1.4,2.1-3.2,2.2-3.2,1.7-6.2,3.7-9.2,6.1s-5.6,3.6-6.9,6.7,0,6.7,2,9.3,4.9,3.4,8.7,3.8l10.7,31.9-1.1,9.6-71.7-.2-1.7-.7c-6.4-7-12.5-14.3-18.3-21.8v-1.9c0,0,2.3-3.9,2.3-3.9l11.8-4.1c6.8-2.3,12.8-5.9,18.9-9.5s4.1-3.2,5.4-5.7c3-5.8,5.6-11.8,7.1-18.2s2-7.4,5.3-9.8c11.7-8.4,25.5-15.2,38.5-21.9l5-.3c3-.2,6.5-1.3,8.7-4s-.6-1.7-1.1-1.9c.1-.5.8-.7.7-.6-.3.9-1.5,0,.3-.9,1.4-.5,1.7.5.8,1.5Z"/>
    <path class="st133" d="M580.1,310v.5c-10.7.3-21.6.4-32.5.2-1-.4-2-.6-3.1-.6-13-.1-26.4-.2-39.4.5-15,.2-29.9.1-44.9-.2-.9-.7-.2-1.9,0-3.1.6-6.9.6-8,7-11s5-2,8-2.1c14.4-.5,34.8-1.1,48-5.3.8-.3,1.2-.8,1.6-1.6h-1.6c0-.1-7.9-7.6-7.9-7.6-4.7-1.4-7.8-3.6-11-7.2l-4.8-6.4c-.8-1.1-1.5-2.6-1.7-3.7v-.5c3.6-1.4,5.4-2.1,5.4-2.1-1.6-2.7-3.7-4-6.3-3.9l-7.9,1c-8.9.5-17.7.7-26.4.7-5.1,2.5-10.4,4.8-15.7,7-1.2.8-2.4,1.5-3.6,1.9-3.8-1.1-7-4.5-5.7-9.2s2.4-3.4,3.9-4.5l8.7-6.7c1.1-.9,2.5-1.4,3.1-2.6.7-.8,1.7-1.4,3-1.8h.5s1-.6,1-.6c5.5-2.1,11.2-3.3,17.3-4.3s15.3-3,22.9-4.9,7.6-1.4,11.7.5,6.4,3.5,9.1,6.2c6.9,6.9,13.3,14.4,18.9,22.4s2,2.3,4.1,3.2,3.4,4,4.9,5.8,4.1,4.3,5.8,6.9c4.9,7.7,10.4,14.5,16.7,21.2l11,11.8Z"/>
    <path class="st94" d="M564.3,132.3c1.2,2.4.9,6.1,3.7,7.6s3.5-.8,5,.1c5.1,3.1,9.6,6.5,14.5,10,9.7,6.9,19.2,13.3,29.6,19.2s12.8,6.3,19.6,9l15.8,6.1c.6-.2,1.2-.7,1.9-1.2,15.9,11.8,33.9,30.6,42.8,48.5l10.5,21.1c1.6,3.3,2.3,6.5,3.7,9.8,4.2,10.5,9.3,20.4,14.4,30.5l9.3,18.2h-19.6c-3.5-6.3-7.4-12.3-11.4-18.5s-4-7.9-5.4-12.2-1.9-4.7-2-7.3.3-4.2-.4-6.3l-3.5-10.4-12.1-15.4c-5.5-6.9-10.5-13.9-17.3-19.6s-3.9-5.7-6.3-8.3c-3.7-4.2-8.5-7.2-13-10.4s-3.5-2.6-5.5-2.9c-.4-1.2.2-2.5,1.8-3.9,2.5-2.4,1.5-1.4-3.1,3.1l-1.2-.3c-1.6-1.4-4-2-6.3-2.6-4.1-1-7.7-2.5-11.5-4s-10.1-3.2-14.9-5.8-7.9-4.6-11.6-7.3-4.2-4.3-6.4-6.6l-16.5-16.5c-1,.7-1.9.8-2.9.3l-11.3-5.6c.7-2.1,3.2-7.4,2-8.9,1.4-2.9,3.1-5.7,4.8-8.7s1.4-.9,1.6-1.7c.6-.5.9-.2,1.1,1Z"/>
    <path class="st133" d="M268.4,251.7l1.2,1c.5,5.3,1.7,10.3,3.7,15,6.7,6.1,13.1,12.4,19.2,18.9l17.4,8.7c6.4,4.2,14.3,8,19.5,0l1.3-.2,3.3,2.9c-7.5,3.4-14.6,7.2-22.1,9.6-2.4,1.2-4.9,2.1-7.5,2.6-17.8.1-35.5,0-53.1-.3l-1.1-.3c-.9-3.1-2.3-5.8-4.2-8.2.1,2.5,0,5.1-.3,7.6l-1,.9c-6.5.4-13.3.8-19.8-.2-.2-1.2.5-2.2,2.3-2.8l41.8-23-10.1-12.4.2-.3c-12.7,4.7-24.8,10.8-35.8,18.8-1,.5-1.4.2-1.5-.9-1.3.6-1.6,0-1-1.5l-.5-1.5c2.5-6.4,8.1-10.8,13.9-14.1l21.4-11.1c.4-2.3.8-4.1,1.1-5.4l9-5.5c1-2.5,2,0,2.5,1.6Z"/>
    <path class="st95" d="M142.9,128.8c-1.2,2.5-4,5.2-3.6,8.4,1,9,19.8,31.4,24.4,35.2l8.1,6.9c2.6,2.2,5.4,2.9,8.4,4.2,11.8,4.7,23.7,8.4,36.3,10.5s10.3,1,15.4,2.7l30.1,9.7c1.1.4,3.9-1.8,6.5,7.5s2.3,10.9,2.8,16.3c-1.5.6-2.7-2-3.1-3.6-1.5.3-1.7-1.2-1.5-2.4-1.3.6-2.5-.8-1.9-2-.4-.2-.4-.3,0-.5.1-.6,0-.9-.6-1l-.6.4c-1.8-.7-3.5-1.8-5.1-3.5-1.7-.2-2.6-.9-2.7-1.9l-1-.5c0,.5-.2.4-.4,0-.3,2.4-5.7-.2-5.6-2-1.3-.6-2.4-1.7-4.2-1.9-11.2-1.4-21.8-3.8-33-5.9s-24.8-5.5-37-10c-4.3-1.6-8.6-2.6-12.4-5.2s-6.1-4.4-8.5-7.2-2.4-5.1-3.4-7.6c-2.2-5.8-5.7-10.4-8.7-15.9-3.3-6-5.7-12.8-6.4-19.7s3.8-9.4,7.7-11Z"/>
    <path class="st133" d="M445.3,203.8c1.4,2.6,3,5,5.6,7.1l-17.9,9.5-17,10.5c-2.8,1.7-5.1,4-6.5,6.9s-3.1,6.3-3.8,9.8c-1.1,5.6-3.3,10.7-6.5,15.3s-4.9,4.7-8.1,6.5c-7.5,4-14.9,7.8-22.9,10.3.4-1.5-.6-2.2-.9-3.1h-.6c-3.3-4.8-6.2-9.8-8.8-15l-4.9-7-1.1-1c0-.1,0-.3,0-.5-.9-.6-1.4-1.5-1.2-2.5l3.3,3c3.3,3.5,6.2,7.3,9.2,11.3,3.1,4.3,9.5,8.6,14.9,6.2s2.5-17.8-.7-23-6.5-9-8.9-14l1.2-1.5c2.5-1.2,16.5-7.2,17.8-6.9s.6.2.9.4c1.2.8,1.5.8,1.1-.3l.4-.8c16.8-7.7,33.9-15.6,51.2-23.7l1.8-.2c.3-.2.6-.3.6-.3.7.8,1.4,1.9,1.9,2.9Z"/>
    <path class="st88" d="M457.7,176.8c.8-.1.8.7,0,1v.5l-.5,1.5c.5,0,.4.2,0,.5l-.9,1.4c-1.7.4-9.5,4.5-9.2,6.1,1,6.3,4,12.2,7.1,17.8.3,2.2-.9,2.5-2.5,1.1-5-4.7-6.7-11.7-8.9-11-.3,1.7.4,3.3.9,4.6.3,1.3.4,1.8-1,1-7.6,4.2-15.4,7.7-23.4,11.4l-26.7,12.3c-1.1.5-2,1-2.9.2-2.3-1.3-1.9-6.6-.9-8.9.3-.7.3-2-.5-1.5-.3,3.8,0,6.7.5,10.4s-.2.8-.5,1.1c-6.3,1.9-13.4,5.8-19.9,7.9-.9-1.9-2.7-3.7-3.9-5.7-2.4-4.3-6.1-7.5-9.8-10.3.4-2.8,4.5-4.5,7-5.6,6.5-2.6,13.7-2.4,20.4-.6-9.6-10.4-26.4-7-37.7-.5l-2.2-.2c-.7-.4-2.7-.8-2.4-2,5.8-4.2,12.6-6.4,19.2-8.7s5.9-1.6,9.3-1.3c14.3,1.3,18.2,7.7,25.4,7.2s14.8-4.2,21.7-7.9l24.2-13.3c1,1.5.3,3,1.7,4.3,1-2.2-.3-4.4.9-6.2,2.3-1.6,5.3-3.6,7.8-4.9s4.5-2.2,6.9-2.7.6.7.8,1.2Z"/>
    <path class="st94" d="M628.7,242.6c.5,1,.9,1,1.1,0,.4,0,.5.5.4,1-.3,7.1.3,13.7,1.8,20.6,2.4,11.1,2.8,22.1,4.2,33.3l1.7,13.3h-11.8c0,.1-28.9-19.4-28.9-19.4.2,0,.5,0,.8-.2-2.3-4.1-4.4-8.1-6-12.9l9.1-7.9c1.7.9,2.9,2.1,4.3,3.4,6,5.8,11.7,11.5,17.4,17.7l-1-11.1,1.4,1c1.8,3.8,3.3,7.7,4.7,11.7.6,1,1.4.4,1.1-.6-2.6-8.9-6-17.5-9.6-26-.5-1.3-.6-2.7-.7-4.1.5-.3.6-1.1.6-1.9-1-9.2-.5-21.6,4.8-29.4,4.2,4.9,4.6,5.5,4.7,11.4Z"/>
    <path class="st88" d="M256.9,255.6c.2,0,.6,0,.8.2l-.9,5.7c-2.3,1.8-5.1,2.6-7.7,4l-11.7,6.1c-7.1,3.7-14.1,8.4-16.5,16-.2.8.2,1.3,1,1.5.3,0,.5.4,1,0,11.2-8,23.1-14.4,36.4-18.8l11.3,13.9-41.2,22.6c-1.7.9-3.2,1.7-4.4,2.9-.6.7-2.1.3-2.7-.6-5.1-8.2-6.4-19.9-1.9-28.7,2-3.5,4.2-6.9,8-9l28.5-16Z"/>
    <path class="st95" d="M502.3,138.2c0,.4-.2.7-.3,1.1-1.5,3.1-13.1,6.8-17,7.7,6.3-.6,12.1-2.6,17.6-6.2l1.1.6c0,.7.6,1.1,1,1.8l-8.2,4.8c-4.6,2.7-9.7,4-14.7,4.9-1.6.7-2.7,1.1-4.5.4v.6c-1.6.4-3,.6-4.5.8l-.4,1,1.4-.5c.1-.4.3-.4.5,0,.8,0,1.4-.2,2-.5,0-.4.2-.4.5,0l1.9-.3c.7-.8,2.1-.7,4.1.3.2,0,.3,0,.5,0l1,.6h2c.4.1.4.3,0,.5l-.9.9c-2.8,0-6.3.2-9,.8s1.3,0,1.7,0c6.5.1,12.9.2,19.4-.6,9-2.1,16.9-8.3,23.8-14.2h1.5c.3.3.5.7.4,1.1s-.8.9-.7,1.4l2,2c-9.4,11.4-9.8,10-22.7,14.9s-3.7,1.1-6,1.3c3.1,3.6,7,2.6,11,2.9-2.3.2-4.9,1.2-7.4,1.6s-2.5,2.9-1.7,4.4.8,3,.2,4.6c-1.5,4.5-3,8.9-5.8,13-.3-4-1.2-7.6-2.4-11.1.3-1.4-.3-2.7-.6-1.5-1.8-3.7-2.7-9.3-7.9-10.4-.3-.7-1.7-.8-2.5-.6-3.3-.9-6.8-1.8-10.1-3.4s-3.9-4.3-4.9-7-3.3-5.2-4.9-8.4c3.8,1.3,7.3,3.6,11.5,4.2s5-.5,7.4-.8.5-1,.5-1.3c.6-2.5-11.8,4.5-24.4-10.4,4.3.9,5.5,4.6,11.4,5s4.2-4.6,8.5-2.5c1-.3,1.5.3,2,1.1,3.4.4,7.3,1.3,10.8.2l15.8-4.8Z"/>
    <path class="st94" d="M248.9,213.3l4.4,2.1c.3.1,1.1-.9,1.2-.2,3,3.5,6.5,5.8,10.4,6.9.7.6,1.3,1.3,1.9,2,.9,7.2,1.5,14.4,1.9,21.7l-1,.7c-.5,1.1-2.1,1.2-1.4,0l-.4.6c-5.2-4.5-10.8-8.5-17.4-11.1s-9-6.7-15.8-11.5c.6-.3,1.7-2.4.9-3-3.3-1.9-7.1-1.6-10.5-1-11.2,1.9-8.5,7.3-19.6,1.4,3.2-1.6,5.7-3,8.4-5,.8-3.4,4.8-3.9,4.5-7.5,4.3,1.4,31.8,5.9,32.5,4.9s.1-.7,0-1Z"/>
    <path class="st95" d="M556.1,33.5c-.1.8-.6,1-1.3.9l-.9,4.5c-.8,2.5-1.5,4.4-4.2,4.4-3.4.5-6.4,2.5-8.1,4.9-2.4,3.4-2.3,7.4-1.4,11.1l1.6-.9c.2,1.6.1,4.6,1.1,4.5,1.5,1.7-.6,2.1-2.2,2.1-2.1,1.7-4.2,2.1-6.2,1.3-1.5-4.8-2.4-9.8-2.9-14.8-.4-.9-1.3-1.4-2.6-1.6-.3-.3-.9-.4-1-.9.5-1,.4-2.1-.4-3.1-.2-2.2,0-4.4.5-6.6-1.5-3.4-1-5.9.4-9.2.2-1.3.3-2.5.4-3.7-.9.7-1.3.3-.5-.5-.6-.6-.6-1.3,0-2.1-.9-1-.8-2,.2-2.8l-4.2,2.4-1.1-.5v-.6c-.9-.9-.8-1,.5-.9v-1.6c-.2-.9-.1-1.9.5-2.9-.2-.2,0-.8-.2-1-.8-.7-2.3,0-4.7-.5-.9,0-.9-.4,0-.6l8.1-3.6c5.3-2.3,11.8,0,17.7-.5.5,1.8.7,3,1.9,3.9,1.3-1.1,0-2.6.9-4.2,2.9,4.5,3.4,9.8,4.3,14.5-1.5.4-2,1.4-1.9,2.8.3,5.2-1.1,9.7-3.8,14.4,5.1-1.5,6.8-9.9,7-14.3,1.2,1.8,2.4,3.5,2.7,5.4Z"/>
    <path class="st95" d="M554.8,94.4c-.3.2-.3.3,0,.5-.2,4.3.3,8.6.5,12.9l1.1,12.8c1.4-.7,2.4-.4,2.9.8l2.2,5.5c-8.9,15.5-16.6,28.5-34.2,34,6.7-7.4,13.3-14.7,18.1-23.8s.2-15.1-.3-23.7c-4.9,8.1-4.6,8.2-14.2,8.4,1-6,3.7-10.9,6.8-15.8l1.6-2.6c.5,2.5-4.2,10.9-2.9,11.9s1.3-.3,1.6-.7c3.4-6.3,5-13.3,5.4-20.6,4.6-.8,8.1-3.9,11.8-7,.3,2.7-.2,5.1-.3,7.4Z"/>
    <path class="st94" d="M384.7,310.5h-40.4c-.6-2.9-1.3-5.5-2.5-7.9l-1.5-2,3-.6c.8-1.2,4.8-1.1,7.1-6.9,1.5-1.3,3.3-2.4,5.2-3.3-.8.7-1.4.8-1.8.4,3.3-3.6,3.4,2.3,11-4,4.9,9.2,14.3,15.7,19.9,24.3Z"/>
    <path class="st94" d="M441.3,150.7c-1,.2-2.1,1-4,.6,1.2,2.5,3.3,3.9,5.1,6.7-12.9,2.8-17.7-1.7-26.4,9.3-1.1,1.4-2.5,2.2-4.3,2.3-3.1.3-13.3.8-15.7-.2-5-2-9.2-5.7-12.9-9.6.2-2.1,3.7-7.4,2.6-8.1,4,1.4,9.1,8,22,7.6,6-2.1,11.6-9.9,17.1-9.1s11.1,1,16.6.5Z"/>
    <path class="st95" d="M478.2,92.4c2.1-.1,11.9,1.1,12.7,2.8s0,.3,0,.6c3.4,2.5,6.5,7.4,6.4,12s-1.2,3.2-3.3.9l-2.4-.9c-3.6-4.3-8.6-5.2-13.6-3.5-1.7-1.2-2.8-1.3-3.3-.2-2.1.3-4.1-.4-6-2l-2.5,2.3c.3,2.5-1.6,3.3-5.7,2.4-1.2-1.9-3-1.8-5.2.2-3.2,0-5.7.9-7.4,3.1.1,1.5-.3,2.9-1.3,4.4l-1.3,4-1.2.4c-.5-2.5-1.6-5-1.4-7.9.3-4.2,4.9-7.7,2.8-9.1,2.1-3,4-6.2,5.4-9.8l1-1.1c3.5,1.8,7.4,2.3,10.8-.3,2.4-3.4,4.5-4.2,6.4-2.4,2-.6,4.1,0,6.2,1.8,1.6.4,2.6,1.1,3.1,2.2Z"/>
    <path class="st94" d="M539.7,166.8c.5,1.4,3.9,1.5,5.7,3.2-5.1,3.6-10.7,6.1-16.4,8.8l-17.8,8.5-7,19.2-5.8,3.5-1.1-.6c1-5.9,2.1-11.9,3.3-17.9l-.3-.7c-1.8,5.8-3.4,11.7-4.9,17.6-1,1.1-3.1,1.7-3.8.1.5-.4,1.5-.5,1.5-1.2s-.3-1.5-.9-1.7c1.1-5,1.7-10.2,3.4-15,.8,0,1.3-2.3,1.5-3.4,1-1.9,1-4.4,2.4-6s3.2-5.4,6.1-6c1.5,1.3,4.4.8,6.3.5,9.1-1.6,18.1-5.4,26.3-9.3l1.3.4Z"/>
    <path class="st95" d="M154.4,188.2c0,.9-.8,1.4-1.8,1.9.6,3,2.1,5.6,3.4,8.1l.9.2c2.7,4.8,6.3,8.3,10.8,10.8,2.2.5,3.9,1.3,5.2,2.5.2.8,1.2.3,2.1.7-3.6,3.3-1.3,1.5-7.8,4.1s-3.5-2.1-10.2,2.1c.3.9.9,1.9,1.8,2.8-1.2-.1-2.3-.7-3.4-1.8-12.4-11.1-13.6-31.9-10.3-47.9,1.5,2.8,2.9,5.9,3.7,9,.9,3.5,3.2,5.3,5.6,7.4Z"/>
    <path class="st133" d="M435.8,67.9c1.9.2,3.3,3.3,2.4,4.9l.5,1.1c.4.1.4.3,0,.5.6,2.7,7.7,3,9-.3,1.7-.9,2-.4,1.5,1.3.4,1.6.2,3.4-.6,5.5-.6,4.1-.4,8.2.7,12.3-.1,1.7-2.8,8.2-5,8.5-1.7.7-2.5,2.8-3.8,4.4-1-.4-.7-2-1.2-2.7-.6-2.4-1.9-4-3.9-5.5-6.3-6.8-6.5-14.3-4.7-23.1s1.2-3.4,3.1-4.2c-.3-.9-1-1.1-1.5-1.1-.4-.2-.4-.3,0-.5.4-.4.7-.7,1.2-1l.3-.8c-.7-2,1.9-1.2,2,.8Z"/>
    <path class="st94" d="M596.8,295.7l22.5,15.1-28.4-.3c-3.6-.3-6.6-4-9.6-5.5-2.4-.3-2.9-2.4-4.2-3.5,3-2.8,6.1-5.8,9.7-8.2,2.8-.7,8.7,3.5,10,2.5Z"/>
    <path class="st95" d="M298.4,282.5c0,.6.5,1.2,1.5,1.6l20,10.2c3.7,1.9,7.9-1.8,6.4-2.3.9.7,2.2,1.2,3,2.1.7,1.4-2.9,4.2-4.1,4.8-3.4,1.6-6.3.6-9.6-.8-6.9-4-14.2-7.5-21.5-10.6-3-2-5.6-4.6-7.8-7.8-4.9-4-9.4-8.4-13.6-13-2.1-7.2-4.3-17-3.9-24.5l1-.7v-8.9c.1-.7.7-1.1,1.5-1.2l1.1,9.2c.9,7.4,1.1,14.9,3.7,22.1,2.1,2.8,5.5,5.1,7.9,7.9l7.5,8.5c1.6,1.8,4.9,4.1,6.7,3.2Z"/>
    <path class="st122" d="M467.7,176.3c1,1.6,1.1,2.4-.8,3.2-2.7-1.4-4-1.2-4.1.6-.9,4.4.3,8.6,3.5,12.5l-.5,1.1c.6.9.4,1.8,1.9,2.2,2.3.6,4.6,1.7,6,3.4,1.8,2.7,3,5.7,3.6,9,.6,5.2,1.9,10.3,2,15.5-.4.4-.8.9-1.4,1.1-.9-.3-1.5,0-1.6.9.1.2.3.4.4.5v.6c.4,0,.6,0,.6,0,.2,1,.7,5.4.7,6.3s-.3.3-.7.4c-.9-.1-1.9.7-3,.4l-1-11.8c-.6.3-.9,1.1-1.1,2.5v1c-.4,1.2-.8,1.7-1.4,1.3-1.4-4.5-2.1-9.3-2-14.3v-3.9c-.4-.4-.5-1.1-.2-1.5,0-.2,0-.4,0-.5.7-4.3-.9-8.3-5.5-9.5-3.8-4.7-6.3-11.2-5.3-17.3s.3-.4.6-.6c.3-.9,0-1.9-.6-2.5-3.6-1.6-12.1,4.9-15.5,6.4-.5-1.7,2.9-1.5,5.1-3.5s5.9-3.3,8.8-4.7c4.4-2.2,8.5-1.9,11.7,1.2Z"/>
    <path class="st133" d="M467.8,205.2c0,.4,0,.9,0,1.3,0,.9-.6.4-1.1.2-2.3-1-7.5,2.8-10,3.4-2.1-.1-3.7-2.3-4.9-3.5.2.3,1.1.3,1.5,0s0-.8-.2-1.4c-3.2-5.5-5.8-11.2-6.8-17.6,1.2-3.9,8-6.2,11.1-7.5l.4.6c-.9,9.2,4.3,15.6,10.5,21.5.6,1.2,1.1,2.5-.4,2.9Z"/>
    <path class="st95" d="M393.8,195.7c-1.3,2.6-2.8,5.3-6.2,6.7-6.2-3.6-13.3-5.7-20.5-6-.4-1.5.4-2.5,0-3.7-1.8.3-1.8,1.7-1.6,3.4-8,1.4-15.5,4.1-22.7,8.4l-4-6.8c-.9-.2-1.2-.6-.9-1.1-1.5.8-2.5.7-3-.3.2-.3.1-.8.5-1.2-.4.4,3-1.6,4.4-.3,2.3,2.1,4.6,1.4,7.3.7,4.7-1.2,9.2-2.4,13.8-4.1s3.8-.8,5.3-2.5c1,1.5,2.3,2,3.9,2.3l8.4,1.9c2.3.5,4.4,1.1,6.8,1.3l4.1.4c1.7.2,3.3-.1,4.5.9Z"/>
    <path class="st95" d="M497.8,262.6c-1.7-1.1,1.2-1,2.4-2.3s0-1.9-.4-1.7c-5.8,1.8-11.4,2.9-17.5,3s-8.3.3-12.4,0c-8.3-.9-3.3,3.4-16.9,5.4-3.7.5-6.4.6-9.6-.3.2-2.8,9.2-4.7,13.9-7.5s5.2-3,8.6-2.7c6.5.5,23.6,0,30-1.2s5.9,1.5,9.4,5.5l-7.4,1.9Z"/>
    <path class="st64" d="M491.7,95.4c2.5,2.7,5.2,5.8,6.1,9.5,2.3,2.8,1.9,5.7.9,8.9l-.4,1.4c-2.5.9-4.5-.4-5.9-3.8-2.9-2.7-7.3-4-11.2-4-5.8,2-12.4,3.6-18.5,2.6s-.6-.4-.8-.7c-.3,0-.8.1-1.1,0l-1,.6c-1.4-.6-2.9-.3-4.6.7-6-1.4-7.8,4.8-6.8,9.5l-.6,1c-.1.3-.2.8-.5,1-.9-.3-1.8-.4-2.5-.4-.5-.6-1.1-2.2-.8-3,.8-2.5,1.3-5.3,3.1-7.5,0-.4-.9-1-.6-1.4,5.2-6.5,6-1.3,10.6-5.5s2.1.3,2.5-.6l1.1,2.1c1.4-.3,2.7.2,3.9.1s.1-1.6.4-2.1c.8-1.2,2.2-2.1,3.2-3.2,2,.7,3.4,2.4,5.6,2.5s.9-1.4,1.3-1.4c1,0,1.9,1.3,3.4,1.5s1-1.1,1.3-.9c1,.7,2.4-.3,3.2-.3l4.8,1.3c2.3.6,3.3,3.7,5.8,4.1s1.9,1,2.6,2.3c.2-2.9.2-6.3-1.6-8.8l-3.7-5.3c-.5-1.2,0-.9.9-.3Z"/>
    <path class="st133" d="M354.7,218c-.6-.4-1.5-1-2.3-1.4l-10.2-5.4c7.6-2.9,10.1-6.1,19.6-6.6s13.1.6,22.3,7.2.4.9.4,1.2-.7.4-1.2.2c-10.4-3.1-20.5-2.3-28.5,4.8Z"/>
    <path class="st53" d="M492.9,272.5c1.3-1.2,3,0,2.4,1.5.1.4-.2.6-1,.6-.5.5-1.3.6-2.5.5-.3.4-1.4.8-1.5,0l-3,.5-1,.8-22.2,2.9-.3.6c0,.5-.3.5-.9.1-1.3,0-1.3.3-.1,1l-.4,1.1c2.1,1.7,7.6,6.8,7.9,9.5l-.8.8c-1.6.5-3.1,1.5-5.2,2l-5.7-12.1c-.3-.6-.6-.6-1-.4-1.3.7,4.3,11.3,5.4,13.1l-3.6,3c-1.1-2.8-2.5-5.3-3-7.9l-4.6-14.1c.3-3.3,4.4-2.7,4.6,0l.7.4c10.4-2.9,22.9-6.1,33.7-5.9s2.3,1.1,2.2,2Z"/>
    <path class="st10" d="M454.3,54.9c.4.1.3.3,0,.5.2.8.4,1.6.6,2.5,1.8,9.3-4,15.5-5.2,24.9s-.8,5.5.8,8c.7-.9.2-2.3.4-3.1.2-.4.7-.8,1.1-.7,4.1,2.8,7.8,3.4,11.3-.5,1.3-2.5,2.5-4,5.6-2.8,1.5.3,2.9.2,3.4,2,1.2,1.3,3.6,2.1,4.4-.2l1.2-.3c2.1-5.6-9.2-8.6-6.6-11.2,4.5,1.3,10.4,5.9,10.1,10.7.7,1.5,0,3-1.8,4.5,1.8.6,2.4,1.4,2,2.5v.6c0,0-3.2-.2-3.2-.2-2.7-.6-4.8-2-7.3-3.5-3.3,1.4-2.5-.3-4-.6-2.2-.4-1.1,3.3-7.9,5.1-2.6.7-4.8.4-7.2-1.5-.9,2.5-4.2,9.7-6.6,10.1l-.9-.2c0-.5,1-1,1.2-1.6l2.8-7.1c.3-.8-3.3-7.4.8-17.6v-.7c-1.1-.6,0-3.1,1.4-2.8l-.5-1.3c1.1-3.1,2.1-6.2,3.2-9.2-1.1-.5-1.4-1.9-1-4-.3-1.4,0-2.2,1-2.5l-.5-1c-.4-.1-.4-.3,0-.5-.5-2.9,1.1-.3,1.5,1.5Z"/>
    <path class="st95" d="M505.6,281c-1.3.3-2.6,0-4.1-.9l-5.3-1.2c-1.5.2-2.7,0-3.5-.9l.3-1.1,7-1.6c0,0-.3-.5-1.3-1.2-1,0-2,0-3.1.4l-.3-.5c-.6-.3-1.6-1.7-2.4-1.5l-.4-.6c.2,0,1.2-2.3.6-2.3-11.9.9-23.7,2.9-35.2,6.5h-1.6c-.7-.8-1.9-1.1-2.8-1.6-1.4,1.3-.6,2.7-.2,4.1,1.2,3.9,2.3,7.7,3.1,11.4-2.4-5.5-4.7-11.2-6.6-17,14.1-6.7,31.4-8,46.5-8.5,3.3,7.1,5.8,8.4,9.4,16.5Z"/>
    <path class="st10" d="M268.3,226.6c.8,1.3,1.3,2.6,1.4,3.9.1,3.7.2,7.4.1,11.1-.3,3.2,1.8,21.4,4,25.4l8,7.5c3.2,3,6.7,5.6,9.1,9.3s4.5,3.6,7.6,4.7c4.3,1.5,8.4,3.7,12.5,5.9s7.7,5,12.1,4.2,4.4-3.1,6.2-4.5c.4.4.8.7,1.3,1.1-3,5.3-8.9,7.6-14.5,4.5s-2.7-.8-3.8-1.6c-2.4-1.9-5.2-2.9-7.9-4.3l-11.7-6.2c-3.7-1.9-5.6-6-8.8-8.8-14.1-12.2-12.6-9.2-15.7-27.2-1.6-1.9-1.8-3.6-.6-5.1l-1.5-20.5c0-.8.2-1.6.6-1.9.6.8,1,1.6,1.5,2.4Z"/>
    <path class="st133" d="M432.8,47.4c.9-.2,1,.2.1.6.5.8,1,1.3,1.5,1.5,3.8-.6,7.5-1.1,11.4-1.4,2.7,1.8,5,4,6.9,6.7.3-.4.5-.4.6,0v6.5c0,.9-.4,1.4-.8,1.7-1.1.6-2.1.3-1.7-1.1-.9.4-3.3.1-3.5-1.1-.6.4-.8.1-.5-.5-3.7-.6-4.2-4.7.4-4.6s2.1,0,2,1.2c.6.5,1.6.9,2,.4-.5-.1-.4-.3,0-.4l-1-1-.6.4c-6.6-1.5-12.9,1-14.5,8.1,1.1.8,2.2,2.7.7,3.5-.1-.4-.4-1-.8-1.2-.9-.4-.9.9-1.4,1.2.3-.5,0-1.4-.6-1.4s-1.3,0-1.6.4l-1.1-1.5c-.9-6.1-.7-12.3,0-18.4.6-1.6,2.6-1.3,2.5.4Z"/>
    <path class="st95" d="M374.8,269.7c-7.7-.7-10.4-7-14.6-11.9-4.8-5.6-9.7-10.9-15.2-15.8s-9.3-4.3-9.7-5.8c-2.1-1.1-1.8-4,0-5,2.4,1.8,4.7,3.6,7.5,5.1s5.6,4.2,8.5,6.4c7.2,5.5,13,12.1,17.8,19.7s8.9,4.7,5.7,7.4Z"/>
    <path class="st95" d="M314.4,272.6l1,1.5,18,16c-.2.6.5,1,2,1.2,2.3,3,6.7,3.2,9.4.3s4.4-2.8,4-4.5c1.1,2.6-.6,6-2.2,8.3s-2.9,1.5-4.2,2.2c-.8.3-1.9.3-2.1-.7-1.1.7-2.3.6-3.5,0-2.6-1.6-4.9-3.4-7.4-5.5-6.4-5.6-13-10.6-19.9-15.5-1.4-1-2.7-2.6-3.6-3.8-2-2.6,1.3-3.2,3.4-3,1.3,1.6,3.2,3.2,5.1,3.5Z"/>
    <path class="st95" d="M498.7,288.5c1.1-.6,3.6.6,3.1,2-9.4.7-18.8,1.2-28.5,1.1s-2.8.4-3.9.8c-.5-3.1-5.3-6.8-7.1-10.2.7-.6,1.7-.5,2.9.4,7.4,2.7,14.5,3,21.3.9,4.2,1.3,8.2,3,12.2,5Z"/>
    <path class="st94" d="M473.6,168.3c1.5.8,2.9,1.7,4.3,2.8v1.2c-.1,0-1.3.7-1.3.7-3.8-1.7-3-1.1,2.4,1.9,1.4,3.7,3,7.2,4.9,10.6-.9-3.9-2.1-7.7-3.6-11.5l.3-1.1c.6-1.5,1.7-.4,2.5.6.9,2.4,1.4,3.2,1.6,2.3,1.6,5.1,3,10.2,2.9,15.5-1.2-1.4-7.8.2-9-.9l-.6.2c-.7-3.2-1.8-6.2-3.3-8.8-1.5-3-4.6-5.3-6.5-8,1.4-1.9,2-4.3,3-6.4.8.2,1.7.3,2.3,1Z"/>
    <path class="st116" d="M496.2,264.5c0,.4,0,.8-.3.9s-.6.2-1.1.2c-13.8.2-31.7,2-44,8-.4,0-.8-.6-1.1-.7-.4-1.2-1.6-2.2-1.3-4,7.8-1.6,12.3-.7,18.5-6.4,7.6,2.3,20.5,1.5,28.4-.1s.8,1.5,1,2Z"/>
    <path class="st133" d="M492.7,278c4.7-.5,8.9.6,12.9,3,1.3,2.9,4.1,5.3,3.9,9-2.6.8-5.4.3-7.8.5-.9-.8-2.4-.9-3.1-2h-.7c-2.9-2.2-6-4-9.5-5.4-.3-1.9,2.4-7.7,4.2-5.1Z"/>
    <path class="st53" d="M475.1,188.1c.3.8.2,1.1-.4,1.1-.6-1.2-1-2.5-1.9-3.5l-1-1.5v-.4c-1.6-1.1-2.8-2.5-3.5-4.1l-.3.6c.9.3,2.1,1.8,2.3,2.8,0,.2,0,.4,0,.5l1.5,2.1c.9,3,2.6,6,2.1,9.5-2.7-1.2-5.4-2.4-8-1.6l-3-5c-1.7-2.9-2-7.4-.2-10.6s3.4.1,4.3.6c1-.5.9-1.5.9-2.3,3.3,3.3,6.5,7.1,7.4,11.9Z"/>
    <path class="st99" d="M343.3,300c-.5.7-1.3.6-2.4.7.7.6.6,1.3.9,1.9-6.3-5.5-.7,5-1.2,7.9l-25.8-.2,17-7.8,5.6-3c2.1.6,4.1.6,6,.4Z"/>
    <path class="st95" d="M363.3,284.5c-.3.2-.7.7-1,.9-1.7.8-3.4,1.4-5.1,1.6-1.4-.5-2.3-1.3-3.6-2.4s-25.3-23.6-23.5-21.4l-1.5-1.7c-.9-1.4-.7-3.4.5-4.4,6.6,6,12.9,12.2,19.3,18.7s5.2,5.2,8.2,7.3,4.7.2,6.5,1.4Z"/>
    <path class="st116" d="M225,309.8c6.6.6,13.2.2,19.8.2.6-1.6,5.7-1.5,6.5,0h53c0,0,7.5-2.3,7.5-2.3-1.9.8-4.1,2.8-6.6,2.8h-79.8c-2.5,0-4.5,0-6.8-.2-4-8.7-2.9-21.9,1.7-29.7-3.6,10.4-2,18.1,2.8,28.2.5,1.1.8.9,1.8,1Z"/>
    <path class="st95" d="M524.8,287.5c0,.5-.5.7-1.6.6-.5.3-1.4.1-2,.4-1.3-.2-2.3,0-3,.6-1.8.3-3.6.7-5.5.6-.3-2.9-1.1-5.4-2.4-7.6.1-.7-.4-1.5-1.1-1.7l-5-7.8c2.4.3,3.7,3,6,4l5.5,2.4,9,8.4Z"/>
    <path class="st94" d="M329.3,257.1c.7,1.4-.4,2.9-.5,4.4-4.6-5.4-11.1-9.6-16.9-14.3-.1-1.8.3-3.2-.3-4.7-1.8,0-.4,5.2-1.8,5.1-1.2-2.5-.7-5.7,0-8.3,3.4,2.2,5.4,4.9,8.1,7.4l11.5,10.4Z"/>
    <path class="st94" d="M282.9,142.7c-.5.1-1.1-.1-1.6.4,3.9,3.4,7.5,6.6,10,11-6.7.3-4.7,1.1-8.7-2.2-.2.3-.2.6-.2.8h-1.2s-2.3-3.5-2.3-3.5c-1-1.6-2-2.1-3-1.5-1.5-1.9.1-5.1-1.5-5.6.1-1.8,7.5.2,8.5.5Z"/>
    <path class="st62" d="M580.1,310c1,.2.7,1.4-.4,1h-74.2c-15.4-.2-30.5.5-45.3-.5h44.9c.8-.3,1.3-.8,2.1-.9l35.9-.2c1.8,0,3.2-.2,4.5,1.1h31.4c.5,0,.8-.4,1-.6Z"/>
    <path class="st150" d="M309.3,269.1c-.4,1.7-4.7.5-3.4,3l-8-11.1c-.7-1-1.4-1.6-2.5-1.4,0-1.4-.1-2.9.5-4.4,3.1,2,5.6,4.6,7.9,7.3l5.5,6.5Z"/>
    <path class="st159" d="M185.9,203.3c1.1,0,2.3,0,3.5-.1,1.8.2,3.4,1.1,5,1.6-1.3-.7-1.9,1.1-2.9,1.4-3.5.9-7.3-.1-10.8-.9s-12.8-2.2-10.7-4.4c2.1.9,4.3.8,6.7,1.1l9.3,1.3Z"/>
    <path class="st149" d="M338.7,197.6c-.5-.3-1.2-.6-1.8,0l1.4,2.8c.4,2.2.1,4.5-.8,7-.5.4-.6.7-.2.9-1.7,1.2-.7-.4-4.5-1-.4-.2-.8,0-1.1.6-.4-.4-.6-.7-.3-1.5l2.1-5.6c.6-1.6.4-3.2,1.3-4.4,1.1,0,2.1-.6,3.6-.4s.2,1.4.3,1.8Z"/>
    <path class="st150" d="M335.3,231.1c.2,1.8-1.4,3.8,0,5-1.2,0-3.4-3.2-4.9-2.7s-1,.6-1.1,1.2c-1.6-1.4-2.7-3.5-3-5.5-.7-.5-.9-1.3,0-1.5.3-.6.4-1.3,1-2.3l7.9,5.8Z"/>
    <path class="st15" d="M556.7,33.9c.7,2.3,1.8,4.4,2.9,6.5l1.1,6c.3,1.1,0,1.4-.6,1-1.5-2.7-4.6-3.7-7.6-4.2-.7-.7.5-3.5,1.6-3.2.5-.1.9-.2,1.5-.2-.1-1.8-.3-3.7-.5-5.7l.9-.7c.3,0,.4.4.6.5Z"/>
    <path class="st15" d="M474.2,168.2l1.6.5c2.2.2,4.3,1.2,6.8.7,1.3,1.9,1.6,4.1,2.3,6.2-.1.2.1.6-.3,1.1-.7-1-2.7-4.1-3.8-4-.9,1.4-2.7,1.1-2.9-.5l-4.1-3.4c-.3-.2-.4-.5,0-.5.2,0,.4,0,.5,0Z"/>
    <path class="st130" d="M472.2,225.7c-.2,2.9.1,5.8.2,9-1.4-.2-1.8-1.5-1.9-2.7l-1.1-8.3-.5-3.1c.1-.3-.2-.7-.1-1,.3-2.3.2-4.7.1-7,1,1.2.2,12.1,2.5,13.7.2-.2.6-.6.9-.7Z"/>
    <path class="st76" d="M556.1,33.5l.4,3c.2,1.3.2,2.7-.8,3.4-.5,0-1,.1-1.5.2l-1.6,3.2c-.9-.1-2.1,0-2.9.1-.1-.7,1.5,0,1.7-.4,1.7-2.9,1.9-6.4,2.7-9.7.8-.1,1.5.1,2.1.2Z"/>
    <path class="st94" d="M559.2,121.4c-1-.8-2,.1-3.7.6-.7-4.9,0-9.6-.2-14.2,1.1,4.5,2.2,9.2,4,13.6Z"/>
    <path class="st6" d="M367.2,276.5c-.5.8-.5,1.7-.9,2.6.2-4.3-2.1-3.4-4.1-8.5s-1.2-1.6-1.8-2.1c-.9-1.7-1-4.2-2.5-5.5.3-.4,0-1,0-1.5,1.3,1.8,2.6,3.2,3.8,5.4l3.7,6.6c.6,1.1,1.6,1.9,1.9,3Z"/>
    <path class="st161" d="M337.3,208.1c-2.2,2.1.8-8.1.9-7.9,1.2,1.5,2.4,3.1,2.9,5.1l-3.8,2.7Z"/>
    <path class="st103" d="M343.4,279c-.2-.4-.1-.5.3-.3,1.6,1.6,9.3,7.5,9.4,8.1s-1,.8-1.4.8c-3-4.5-7.1-4.8-8.3-8.5Z"/>
    <path class="st52" d="M560.7,87.4c-.6,2.9-1.8,5.1-3.2,7.3-1-5.5.7-4.4,2.6-8.4.8-.7,1-.3.6,1Z"/>
    <path class="st147" d="M546.6,88.9l2.6-.9.3.6c-1.8,1.3-3.2,3.2-6,3.4,0-2.3-.9-4.8.1-6.6v4.9c1.1-.6,1.9-1.3,3-1.4Z"/>
    <path class="st56" d="M474.7,189.2c.2-.3.3-.7.4-1.1,1.5,2.6,1.9,5.9,1.7,9-2.2,1.5-.8-5.5-2.1-7.9Z"/>
    <path class="st83" d="M478.8,190.3c-.5.8-.5,2-.5,3-1.1-3.7-1.6-7.9-3.4-11.5,1.3-1.2,2.7,7.1,3.9,8.6Z"/>
    <path class="st140" d="M343.7,278.7l-.3.3c-2.7-2.2-4.9-4.5-7-6.9-.7-.8-.5-1.1.4-.4,2.6,2,4.5,4.7,6.9,7Z"/>
    <path class="st5" d="M554.3,84.3c-1,1.9-3,3-4.7,4.2-1,0-1.9.2-2.9.3.2-.7,1.5-.3,2.1-.9l3.5-3.9c.6,0,1.5.9,2,.3Z"/>
    <path class="st118" d="M630.2,235.8c-.4.2-.5.7-.5,1.3v5.5c.1,2.4.3,4.8-.3,7.5.2-2.4-1.4-5.1-.7-7.5s.5-5,.5-8c.8.2.9.7,1.1,1.1Z"/>
    <path class="st43" d="M563.2,70.9c-.8,0-1-.8-.5-2.6.5-2.1-.2-4.3.1-6.4-.1-1.4.2-2,.9-2,.2,3.7.2,7.3-.5,11Z"/>
    <path class="st35" d="M171.4,197.7l6,2,1,.5c.2,0,.3,0,.5,0,1.5,1.7-9.5-2-9.3-2.2.7-.6,1.4-.2,1.9-.3Z"/>
    <path class="st109" d="M477.8,226.8c1,0,.6,2.1.4,2.9.1,1,.2,2.1.2,3.3.3.1.7.1.8.1-.7.2-1.1.6-2,.4,0-1.3-.3-2.6-.7-4l.2-2.8h.5c0,0,.6,0,.6,0Z"/>
    <path class="st138" d="M267.7,246.6c.1,1.7.3,3.4.6,5.1-.5-.7-1.5-2.2-2.5-1.6,0-1,.4-2,0-3s0-.4-.3-.7c.7-.1,1.5,0,2.2.1Z"/>
    <path class="st125" d="M350.4,293c.6-1.6,1.4-2.5,3.4-2.9s1.3,0,1.8-.4c-2.2,1.7-3,3.1-5.1,4-.1-.2,0-.5-.1-.7Z"/>
    <path class="st150" d="M342.4,297.5c-1.8,1-3.9.5-5.6-.6,1.5.4,2.6-.9,4.1-2,.3,1.2.2,2.7,1.4,2.6Z"/>
    <path class="st119" d="M560.2,79.4c-.8,1.9-1.2,4.1-2.4,6.1-.8-2.8.9-4.9,1.9-7,.6-.5.8-.2.6.9Z"/>
    <path class="st18" d="M409.2,199.6c-2.1,1.2-4.5,2.2-6.9,2.6-.4.2-.6,0-.5-.5,2.1-.1,6-2.7,7.4-2.1Z"/>
    <path class="st74" d="M477.2,208.2c-.9-.9-.9-2.4-1.3-3.7-.6-2-1.9-3.5-2.3-5.3,2.5,1.5,3.3,6.4,3.6,9Z"/>
    <path class="st69" d="M439.3,103.4c-1.4-1.8-2.4-3.9-3.9-5.5,1.2.5,2.3,1.4,3.5,2.3.4,1.1.4,2.2.4,3.2Z"/>
    <path class="st87" d="M560.7,49.4c0-.7.2-1.2.5-1.5.7,2.3,1.5,4.8,1.4,7.6-.9-2-1.2-4.1-1.9-6.1Z"/>
    <path class="st34" d="M190.8,223.2c-1.6.6-3.2,1.1-4.9,1.6-.6-.2-1.2.2-2-.4l6.5-1.7c.3,0,.6.3.4.5Z"/>
    <path class="st78" d="M563.2,70.9c-.3,1.5-1.1,3-1.5,4.5-.4.2-.6,0-.5-.5l1.5-6.6c0,.9-.4,2.1.5,2.6Z"/>
    <path class="st90" d="M495.7,190.7c.4-1.2.9-2.3,1.5-3.4,1.1-.8-1.3,4.8-1.2,5.5-.6-.9-.2-1.5-.3-2Z"/>
    <path class="st60" d="M362.3,285.5c-1.3,1.5-3.3,2.3-5.1,1.6,2.8.2,1.6-2.9,5.1-1.6Z"/>
    <path class="st39" d="M167.5,196.3c0,.6.6.7.9,1.4-1.6-.2-3.1-1-3.5-2.3l2.7.9Z"/>
    <path class="st120" d="M473.3,222.2c-.1.8-.8,1.8-1.1,2.5.1-1.9-.1-3.9.1-6.1,1.2.7,1.1,2.4.9,3.6Z"/>
    <path class="st73" d="M471.7,183.8c-.4-.4-1-.5-1.5-.7-1.1-.6-1.6-1.9-2.3-2.8l.3-.6c1.3,1.2,2.5,2.6,3.5,4.1Z"/>
    <path class="st128" d="M467.7,215.2c-.8.8-.6,2.3-.5,3.5-.7,1.2-.6-5.8-.2-5.7,1.5.5.5,1.6.8,2.2Z"/>
    <path class="st80" d="M561.7,75.4c-.4,1.4-.9,2.7-1.5,4-.1-.3-.3-.7-.6-.9.5-1.2,1.3-2.3,1.5-3.6.2.1.4.3.5.5Z"/>
    <path class="st12" d="M445.3,203.8l-2.5-2.6c.4-.2.7-.7,1-1,.5,1.2,1.5,2.3,1.5,3.6Z"/>
    <path class="st92" d="M346.8,245.6c.2.4,0,.6-.5.5-.7-1.3-2.3-2-2.8-3.5,1.7.7,2.6,1.9,3.3,3Z"/>
    <path class="st82" d="M456.3,241.7c-.5,1.2-2,1.3-3,1.8-.3-.2-.7-.3-1-.3,1-.5,2.1-1.6,3.2-2.2,0,.2-.5.5-.6.8-.1.7,1.5-.2,1.5-.2Z"/>
    <path class="st165" d="M336.8,271.7c-.3-.2-.4.2-.4.4-1-1.2-2.6-1.7-3-3-.2-.2-.2-.3,0-.5,1.5,1,2.3,2.2,3.5,3.1Z"/>
    <path class="st113" d="M564.3,132.3c-.4-.3-.7-.6-1.1-1,.2-.8.4-1.8,1.3-2.5l-.2,3.4Z"/>
    <path class="st38" d="M563,121.8c-1.1-.8-1.5-2.2-1.6-3.7,1.3,1,1.8,1.9,1.6,3.7Z"/>
    <path class="st7" d="M348.9,248.3c.5.7.3.9-.4.4-.6-.9-1.6-1.6-2.2-2.6.1-.2.3-.4.5-.5.6,1,1.3,1.8,2.1,2.7Z"/>
    <path class="st79" d="M563.7,59.9c-.4.5-.7,1.3-.9,2-.1-1.4-.4-2.8,0-4.6.3.8.8,1.7.8,2.6Z"/>
    <path class="st164" d="M160,222.6c-.2,0-.4.1-.5,0l-.6-.5c-1.6-.3-2.4-1.6-3.5-2.5l3,1.6c0-1.4-2.5-1.6-1.3-2.6.7,1.6,2.5,2.3,3,3.9Z"/>
    <path class="st9" d="M585.2,309.6c.6.5.9.7,1.3,1-.6.2-1.1.2-1.5-.2s-.4-.5-.5-.9v-.4c0,0,.3,0,.3,0l.5.5Z"/>
    <path class="st25" d="M481.2,166.8c-.9-.2-1.7-.3-2.5-.6.4-1,1.6-.4,2.8,0,1.1,0,.6.6-.3.6Z"/>
    <path class="st113" d="M189.4,203.2c-.8,1.3-2.4.3-3.5.1l.5-.7c1,.3,2,.4,3,.6Z"/>
    <path class="st50" d="M521.2,288.5c-.9.5-2,.5-3,.6-.3-.9.5-1.2,1.2-1.1s1.4-.2,1.8.5Z"/>
    <path class="st97" d="M558.7,50.9c-1.3-1-1.4-2.7-2-4.1,1.6.9,1.5,2.6,2,4.1Z"/>
    <path class="st91" d="M350.4,250.2c.7.6.4.8-.4.5-.8-.6-.9-1.2-1.4-2l.4-.4c.5.6,1,1.4,1.5,1.9Z"/>
    <path class="st81" d="M560.7,87.4c0-.4-.1-.9-.6-1l1.4-2.6c.6,1.6-.5,2.5-.8,3.6Z"/>
    <path class="st43" d="M561.2,47.9c0,.5.1,1.3-.5,1.5-.2-.6-.2-1.4-.5-2,.4-.1.6-.6.6-1l.5,1.5Z"/>
    <path class="st36" d="M489.7,178.7c-.2-.5-.3-1.1-.6-1.5l.2-1c.6.3,1,.7.9,1.3s0,1.2-.5,1.2Z"/>
    <path class="st163" d="M353.9,253.6c-1.2-.5-1.7-1.7-3.1-2.6-.3,1.2.8,1.4,1,2.1-1.3,0-1.1-1.9-1.8-2.4l.4-.5c1.5.7,2.4,2.2,3.5,3.4Z"/>
    <path class="st72" d="M333.3,268.6v.5c-.9-.6-1.5-1.1-2.1-1.9,1.4-.5,1.4,1,2.1,1.4Z"/>
    <path class="st117" d="M510.3,282.1c-.3-.5-.7-1.2-1.1-1.7.2-.8.8.2,1,.4s.8,1.3,0,1.3Z"/>
    <path class="st166" d="M332.9,207.1c-.5,0-.7.3-.3.5s.7.4.7.6c-.7.1-1.1,0-1.5-.5,0-.3,0-.7.3-1s.6.3.8.4Z"/>
    <path class="st95" d="M469.2,223.7c-.1-.9-1-1.9-.5-3.1,1,.7.4,2.1.5,3.1Z"/>
    <path class="st114" d="M524.8,287.5c.5.5.7.8.1,1s-1.2.4-1.7.5c0-.3,1.7-.8.8-1s-.6,0-.8,0c.5-.3.9-.8,1.6-.6Z"/>
    <path class="st162" d="M446.3,122.3c-.5.5-1.2.7-1.8.6,0-.4.2-.7.3-1.1.4-.6,1.2,0,1.5.5Z"/>
    <path class="st20" d="M402.3,202.2c-.2.3-.7.4-1,.6-.4-.1-.8.1-1-.4.8-.2,1.2-.3,1.5-.7.1.2.3.4.5.5Z"/>
    <path class="st137" d="M432.4,69.4c-.4.3-1.1,1.1-1.8.7.4-1.2,1.4-.7,1.8-1.2v.5Z"/>
    <path class="st126" d="M492.5,192.1c-.4.7-.4,1.4-.8.8,0-.8,0-1.1.3-1.2s.9,0,.6.4Z"/>
    <path class="st94" d="M475.8,168.7c-.5,0-1.5.2-1.6-.5.5,0,1.4-.1,1.6.5Z"/>
    <path class="st48" d="M584.4,309.2c.2.1.3.3,0,.4-.9-1.5-.2-.9,0-.4Z"/>
    <path class="st94" d="M500.2,178.3c-.1-.5.5-.7.5-1.1-.1.3,0,1.1-.5,1.1Z"/>
    <path class="st82" d="M457.8,241.1c0,.5-.7.6-1,.6,0-.6.7-.4,1-.6Z"/>
    <path class="st94" d="M499.8,180.3c0-.3-.1-1.1.4-1.1,0,.3.1,1.2-.4,1.1Z"/>
    <path class="st73" d="M471.7,185.8c-.9-.4-1.1-1.3-1.5-2.1.8.3,1.2,1.3,1.5,2.1Z"/>
    <path class="st73" d="M472.8,185.7c-.4-.5-1-.8-1-1.5.7.2,1,.8,1,1.5Z"/>
    <path class="st94" d="M178.4,200.2c-.4,0-.9,0-1-.5.3.1.8,0,1,.5Z"/>
    <path class="st20" d="M399.8,203.3h-.5c.1-.7.6-.6.5,0Z"/>
    <path class="st94" d="M159.5,222.6c-.2,0-.8-.1-.6-.5.2,0,.8.1.6.5Z"/>
    <path class="st94" d="M438.3,105.3c-.2-.1-.5-.3-.5-.5.1.2.5.3.5.5Z"/>
    <path class="st163" d="M352.9,254.6c-.5-.1-.9-.6-1.1-1,.5.2.8.6,1.1,1Z"/>
    <path class="st33" d="M554.7,94.9c-.6,0-.6-.6,0-.5v.5Z"/>
    <path class="st94" d="M596.2,295.5c-.5-.2-1-.5-1.1-1,.4.3.9.5,1.1,1Z"/>
    <path class="st48" d="M585.2,309.6c-.2-.1-.4-.3-.5-.5.3.2.3.4.5.5Z"/>
    <path class="st94" d="M430.8,23.5c0-.1,0-1.3-.6-1.3l-60-.3-76.4-2.2-61.9-1-14,.3,1.5-7.5H63.6c-.5-.2-.9-.2-.7-.5h155s218.4,0,218.4,0c-1.9,4.3-4.2,8.3-5.5,12.5Z"/>
    <path class="st95" d="M454.6,47.4c-1.1-.9-2.8-1-4.9-.2-5.3-2.7-10-2-15.5.6l-1.5-.4c-.7-.5-1.7-.4-2.5-.4,0-.8,0-1.7,0-2.5,1.4-.4,1.7-2.9,3.1-3.4,3.8-1.5,8.5-.6,11.8-1.9s3.1,1.3,4.4.5,2.4-1.7,4.2-.5,5.5,5.3,3,6.7-1.6.9-2.3,1.5Z"/>
    <path class="st105" d="M466.8,11l-4.6.6c-6.4.8-17.7,1.5-23.5,0,.3-.5.6-.6,1.5-.6h26.5Z"/>
    <path class="st49" d="M524.2,17c.3.4.7.9.5,1.6s-.5.9-.9,1.3c0,.5,0,1-.1,1.6-.2.3-.2.7-.5.9-.8,0-2,0-2.3-.8-.7-1.6,2.3-2.9,1.3-4,.6,0,1.3-.8,2-.6Z"/>
    <path class="st30" d="M514.8,13.3c-.4-.7-1.1-1.2-1.6-1.8,1.9.2,3.9.5,6.4.2-1.5.9-3.1,1.2-4.8,1.6Z"/>
    <path class="st51" d="M519.2,14.9v.6c-.5-.1-1.1.2-1.5-.3.6-.4,1.2-.1,1.5-.3Z"/>
    <path class="st107" d="M21,13.5c-1,0-1.8.5-2.2-.7.9-.4,1.6.4,2.2.7Z"/>
    <path class="st107" d="M22,14c-.6,0-.9,0-1-.5.7,0,1.1,0,1,.5Z"/>
    <path class="st29" d="M22,14c.1.3,0,.4,0,.4s0-.2,0-.4Z"/>
    <path class="st10" d="M172.9,211.6c-8.5-1.3-12.9-6.1-16.9-13.4,0-.6-.3-1.2.1-2l5.6,6.6c6.1,7.2,16.2,6.5,25.1,5.3s2,.3,2.8.9c-1.9,3.7-13.3,3.2-16.9,2.7Z"/>
    <path class="st64" d="M618.6,262.5c4.4,9.8,8.1,19.5,11.2,29.6.3,1.1-.3,2.3-.8,3.4-.5-.6-2-1.1-2.2-2.1-1.3-4.6-3.6-8.6-5.1-12.9-4.7-13.4-10.5-25.9-16.3-38.6-.2-.4,1.2-.8,1.6-.7,2.2.7,10.2,18.3,11.7,21.3Z"/>
    <path class="st63" d="M539.7,166.8c-4.6,2.9-26.5,11.8-33.1,10s-1.1-.4-1.1-.8.2-.6.3-.8l6.9-1.5c1.2-.6,2.4-1,3.5-1,6.6-2.3,13.1-4.9,19.5-7.5l8.7-4.2c.6-.3,1.7,1.8.9,2.2l-5.7,3.5Z"/>
    <path class="st58" d="M498.4,210.1l-1.1.6c-2,.9-4.2.9-6.6,0-.9-.3-2.1,0-2.9-.8.9-1.6,2.6-1.1,3.9-1.2s2.4,0,2.9-.6l4.1-16.3c.3-1,1-1.9,1.8-2.3,1.1,1,1.2,2.4.9,3.8-.9,4.2-1.5,8.2-2.7,12.3s-.7,3-.4,4.4Z"/>
    <path class="st58" d="M638.7,199.7c-3.8,5.7-6.6,11.5-9.1,17.7s-1.1.5-1.4.9-1,0-1-.6c1.6-7.1,5.4-13.1,9-19.1,2-1.6,6-7.8,9.2-4.6-4.5,2-3.7,2-6.7,5.7Z"/>
    <path class="st54" d="M477.8,224.8c.4.5.2.8,0,.8-.6.1-1.3,0-1.5,0-1.6-2.2-3.2-11.5-2.3-14.2,2,3,1.6,11.1,3.9,13.3Z"/>
    <path class="st106" d="M532.2,166.2c-5.1,2.6-10.4,4.7-16,6.5-.9.9-2.4.8-3.5,1,3.9-2.8,14.6-6.4,19.5-7.5Z"/>
    <path class="st140" d="M593.7,250.8c-2.5,1.8-5.4-2.7-7.2-5.3,2.5,1.4,4.8,3.2,7.2,5.3Z"/>
    <path class="st28" d="M497.3,210.6c-.9.4-2.1,1.7-3.1,1.3l-3.5-1.2c2.2,0,4.4.4,6.6,0Z"/>
    <path class="st27" d="M478.2,229.7l-.4-2.9c.1-.3.4-.4.6-.4,1.2.2-.2,4.5-.2,3.3Z"/>
    <path class="st129" d="M535.8,165.2c-6.3,3-12.8,5.5-19.5,7.5,1.6-1.4,10.9-3.6,16-6.5s2.2-1.2,3.5-1Z"/>
    <polygon class="st27" points="477.3 226.8 476.8 226.7 476.7 226.2 477.3 226.8"/>
    <path class="st1" d="M333.3,257.1c-.7,0-1.1-1-1.1-1.3,0-1,7.1-1.9,7.9-8.9s.8-.6,1-.5c1.8.4.3,9.7-7.8,10.7Z"/>
    <path class="st94" d="M271.4,230.2c0,.5,0,1,0,1.4.6.7-.8,1.1-.9,1.6,0,2.9-.5,5.7-.7,8.4l-1.5-15c.5,1,1.3,1.9,2.5,2,.3.4,0,1.6.6,1.5Z"/>
    <path class="st132" d="M360.3,268.6c-.5,4.8-4,8.4-8.4,8s-1-.9-.9-1.2c.3-.6,6.6-.5,8-6.7s1-.1,1.3-.2Z"/>
    <path class="st96" d="M341.8,284.5c0,.1,0,.3,0,.4l-.5.6c-1.2,2.5-3.5,4.3-5.9,5.6s-2.7,1-4.1.5c.6-1,1.4-1.2,2-1.6s.3,0,.5,0l.6-.4c2.8-.6,4.5-3,6.4-5l.5-.6c.1-.3.2-.5.6-.5.3.3.4.7,0,1Z"/>
    <path class="st0" d="M356.3,238.4l-1.3.6c-.4.2-1.1-.3-1.2-1,2.8-1.8,7.7-3.9,5.7-7.8,1.7-.2,2,1.3,1.8,2.5-.4,2.7-2.4,4.7-5,5.8Z"/>
    <path class="st115" d="M299.9,284.1c-1.5.4-2.7,1.7-4.3.4.9-.9,1.9-1.6,2.7-2,2-1,3.3-2.3,4.5-4s3.9,0-3,5.6Z"/>
    <path class="st6" d="M315.4,274c-.3-.1-.8.1-1.2,0s0-1.2.3-1.4c3.3-.5,5-3.3,7.7-6.2.2,4-3.6,6.3-6.8,7.7Z"/>
    <path class="st71" d="M326.5,227.7c-.1.3.2,1.1,0,1.5-.7,1-4.8-5.9-3.2-6.1,1.5,1.6,1.9,3.5,3.3,4.6Z"/>
    <path class="st141" d="M318.4,226.4c.2-.5.6.2.7.3.3.2,0,.5,0,.5-.4,0-.9,0-.6-.7Z"/>
    <path class="st31" d="M341.8,284.5v-1c.4,0,.6.3.5.7s-.2.3-.5.3Z"/>
    <path class="st31" d="M340.8,284.6c.1-.1.4-.4.5-.6-.1.2-.3.4-.5.6Z"/>
    <path class="st31" d="M341.3,285.6c.1-.2.2-.8.5-.6,0,.2-.2.8-.5.6Z"/>
    <path class="st95" d="M333.8,290c-.2-.4.3-.4.6-.4.2.4-.4.3-.6.4Z"/>
    <path class="st95" d="M506.2,49.4c-.1.3-.3.3-.5,0-.8,0-1.2-.5-1.1-1.8-2.9-2.7-10-6.7-14-7.1s-11.2.2-14.5.8c-2,1.4-3.8,1.8-5.2,1.2-.8-1.4-1.6-2.8-2.2-4.3,0-2.4.3-5.6,2.2-7.1,1.9.3,3.4,2.1,4.3,3.6,2.4-.4,2.5-3.4,3.7-3.4s1.5,2.4,3.8,3c2-2.1,4.6-1.5,7-.7,6.1,2,10.9,5.2,14.7,10.5s2.3,3.1,1.8,5.2Z"/>
    <path class="st10" d="M554.7,48.5c0,1.5-.1,2-1,.6l-.4,1.1c-4.5.2-7.1,3.4-6.7,7.8l5.4,1.6c.2.6.5,1.2.9,1.9,1.6.8.3,2.4-1.1,1.5l-.7.8c-3.3-1.3-4.3-1.3-3,0-.4,1.2,0,2.3,1.1,3.3.9,1.6.8,2.8-.3,3.6-.3.6,0,.7.5,0-.3-2.1.6-2.7,2-.9,0-.4.1-.4.3,0,1.7,2.8-3.7,8.5-6.3,7.4,0-.7-1-1.4-.8-2.3.3-1.6,1.9-2.9,1.7-4.7s-1.8-3.4-3.2-4.4c-1.6,1.2-2.6,2.6-4.4,3.3s-1.8-.6-2.5-1.3c-.8.6-1.2,1.6-2.5,2-1.3-1.8-1.2-4-2-6-3.6-10.1-.4-11.5-2.8-14,.3-1,1.6-.6,2.4-.2s1.2,1.1,1.3,2c.6,4.8,1.3,9.4,2.5,14.1,1.9.5,3.3-.7,4.9-1.6s2.8.2,2.8-1.3c.3,0,1.1,0,1.2-.3-.9-3.7-1.1-7.7.9-11.1s9.7-5.2,9.8-3Z"/>
    <path class="st95" d="M498.2,115.2c-1.5,1.3-4.1.3-5.7,1.2-1.2,2.6-10.9,5.6-13.3,4.9,0-1.4.6-3-.5-3.5l.5-1.3c6.2-2.8,7.5-4.6,4.1-5.4-5.6-4.6-7.8,2.8-19.2-.4s-1.5.3-1.9-.1-.4-.7-.5-1.2c6.4.5,12.8-.6,19.1-2.9,4.3-.1,8.6,1.3,11.9,4.1s2.4,5.5,5.3,4.6Z"/>
    <path class="st58" d="M522.7,142.8c-7.6,6.7-19.1,15.7-29.8,15.7h-12.2c-3.1,0-5.9.1-8.9-1s-.9-.2-1-.5.3-1,.9-.9c6.1,1.3,7.9-.9,14.5-.3,2.8-.2,5.7-.4,8.5-.5,6.8-.8,13-3.7,18.2-7.8l9.4-7.4c.5-.4.9-.7,1.3-.5s1.2.5.8,1c-.6.9-1.5,1.4-1.8,2.2Z"/>
    <path class="st58" d="M528.3,26c0,.4,0,.6.5.5.5,0,1-.2,1.6.5-1.1.9-.9,1.9-1,2.9-.2,2-2,4.3-1.4,6.4s1.2,2,.9,3.7-.9,3.9-.5,5.7,1.1,1.5.7,2.4-.6,1.1-1.3,1c-4.1-1.8-1.6-3.5-2.6-10.1s.9-4.9,1.2-7.2c-.8-.2-1.8-.4-2-1.1s-.3-1.8,0-2.6c0-.7-.5-.9-1.1-.6-.9-.3-2-1.5-1.5-2.6s1.3-1.2,1.6-1.9l8.2-4.8c.4-.3.9-.2,1.4-.2,2.4.3-4.4,3.8-4.4,4.6l1.2.7c-.4,1-.8,1.9-1.3,2.7Z"/>
    <path class="st10" d="M505.7,49.4c0,.4-.7.4-1,0-.2,0-.3,0-.5,0l-2.1-.4c-7.3-5.4-15.3-6.8-23.9-4.7h-2.9c-2.6,1.5-6.1,1.7-6.2-2-.6-1.3-.6-2.7-.6-4,1.9-1.4,1.8,6.1,5,3.1s3.7-.9,5.5-1.2c2.5-.5,4.5-.6,7-.6s5.7-.6,8.5.8,7.4,3.7,10.7,6.4.3,1.9.4,2.6Z"/>
    <path class="st95" d="M504.3,49.5c-.9,0-2.3.6-3.3.2l-5.1-2.4c-4.9-2.3-10.1-3.8-15.5-2.6s-3,6.9-4,7.3c-1.6.7-3.3.3-5.4.5-1.7-6.7-2.7-3.8-1.7-10.1.7,1.5,3,2.7,4.5,1.6s3.2-.4,4.9-.6c2.9-.4,5.2-.9,8.1-.4s4.3-.6,6.3.3c4,1.8,7.8,3.9,11.2,6.3Z"/>
    <path class="st159" d="M493.8,56.5c2.6,1.9.7,2.2-1.5,2.4s-10.8.7-11.2.4c-1-.8.6-2.4,1.4-2.8-.3.3-.3,0,.2-.6-.1-.6-.1-1.2-.6-2-2.2,1.1-3,4.8-4.3,4.1s1.6-5.8,4.7-7.4c7.8-4,13.8,3.2,17.9,4s2.7,0,3.6,1.4c-3.3,1.2-6.4.2-9.2-1.7s-5.7-3.1-7-1.5-.7,1.3,0,1.3,1.7-.3,1.9,0l.5,1.3,3.7.8Z"/>
    <path class="st95" d="M460.7,109.4l-6.6,7.7c-1.9,2.2-3.7,3.5-6.3,4.2-1.8-2.8-.2-12.2,5.2-11.6s3.2.3,4.4-1.3c1.3.2,2.3.6,3.4,1Z"/>
    <path class="st135" d="M503.7,141.4l-6.7,3.5c-4.7,2.5-9.8,3.6-15.4,3,1.4-1.6,3.3-1.8,5.1-2.3,5.8-1.5,11.1-3.9,15.6-7.4s7.4-6.8,7.8-5.1c.7,3-4.6,6-6.4,8.3Z"/>
    <path class="st159" d="M478.8,117.9c-5.9,2.2-12.5,3.4-18.5.3,4.5-.9,8.4,0,12.4-1.5s7.5-3.3,10.8-5.5c.7-.4,1.1-.7,1.9-.7.4.5,1.6,2.5.6,3.2-2.2,1.6-4.7,3.4-7.2,4.3Z"/>
    <path class="st158" d="M509.8,101.8c0,.1,0,.3,0,.4l-.5,1.1c-1.1,5-2.7,9.9-4.6,14.9s-4.2,8.3-7.6,11.3-1.9-.8-1.6-1.1c3.8-4.5,6.8-9.4,8.9-15l4.3-11.6c.6-.9,1.6-1.4,1.1,0Z"/>
    <path class="st135" d="M454.6,47.4c-.6.6-1.7,1-1.8,2l-.3.8c-2,.7-4.1,0-6.4-2-3.1-.3-6.3,0-9.5,1-2.4.7-3.6.3-3.6-1.3,0-.2-.1-.4-.1-.6,2.8-1.6,6.1-2.4,9.5-2.9s4.8.9,7.3,1.7,3.2-1.1,4.9-.3.3.9.2,1.6Z"/>
    <path class="st95" d="M468.8,83.8c-1.6-.2-3.2.5-4,2.1-2.2,4.3-7.2,5.7-11.4,3.2s-1.7-1.2-2.6-1.4c.1-.5.2-1.8.9-1.8,12.2,1.6,9.6-2.3,13.3-3.3s2.6.8,3.8,1.1Z"/>
    <path class="st16" d="M452.8,49.4c1.6,2.2,3.4,2.9,2,6-.1.4-.3.4-.5,0v-.5c-.4-1.3-1.4-4-1.5-1.5v.5c.3.3.3.8,0,.9-2.5.5-4.7-5.2-7-5.8l-12.8,1.5c-.3-1,0-1.8,0-2.5,2.3,2.4,8.6-2.4,13.1-.7s4.3,3.3,6.8,2.1Z"/>
    <path class="st151" d="M553.6,74.8c-2,.6-2-3,0-2.8l-.5-1.6c1.1-3.7,1.3-7.6,1.2-11.5l1-1.4-.4-2.1c-1.2-.6-2.3-4.3-1.1-5.4-.2,0-.3-.2-.1-.4-.4-.1-.4-.2,0-.3.4,0,1-.1,1-.6.2,2.8,5.5,11.1.4,24.3-.4,1.1-.9,1.4-1.5,2Z"/>
    <path class="st16" d="M490.6,94.2l-.4.4c-2.7-1-5.6-1.7-8.5-2.1l-.4-.5c-.8-1.2-2.3-1.1-4-2,1.9-1.5,3.1-3.1,3.9-5,3.5,4.2,7.1,5,9.4,9.3Z"/>
    <path class="st151" d="M503.8,95.4c-.2.6-.6.9-1.1.5,0-.3,0-.6,0-.9l.5-1.1c1.3-4.4,8.6-11.7,12.4-15s1.2-.7,1.5-.1.2.9-.3,1.4c-4.9,4.8-9.8,9.5-13.1,15.3Z"/>
    <path class="st57" d="M489.8,70.9c-2.1,1.1-7.5-.6-7.8-2.8s.4-1.6,1.8-1.1c1.5.7,2.9,2.2,4.9,1.9,6-.9,8.5-5.9,9.9-3.2s-4.8,4.8-8.8,5.2Z"/>
    <path class="st16" d="M553.5,72c-.3.9-.7,2.1,0,2.8l-2.9,3c-.5.5-5.1,1.1-5.5.2s0-.5,0-.8c2.9-1.5,5.8-4.2,6.3-7.4,1.3-1.2,1.9.9,2,2.1Z"/>
    <path class="st100" d="M493.8,56.5c1.1.2,2.5,1.1,2.3,2.6-2.4.5-4.5.4-6.9.3s-6.3.8-9.1.2c-.6-1.6,1-3.5,2.6-3.7,0,.1.4.2.4.4.3.8-1.9,1.1-1.7,2.5,2.5-1.1,15.4,1,12.4-2.4Z"/>
    <path class="st37" d="M483.8,66.9c-.1,0-.7-.1-.7,0-.6,1,1.3,4.5,6.8,3.9-2,2.7-15.4-3.4-11.1-6.2l5.1,2.3Z"/>
    <path class="st40" d="M506.7,58c1.8-1.1,6.4-.4,3.7,1.4-.4.1-1.1.2-1.1.7s.5.8.4,1.5c-.3.2-6.7-.7-5.1-1.6.6-.2.6-.4,0-.5-.6,0-1.2,0-1.7-.7,1.2-.6,2.5-.8,3.8-.8Z"/>
    <path class="st14" d="M490.6,94.2l1.1,1.2c-.3,0-1-.2-.9.3-.6-.9-2.9-1.5-4-1.4-2.2.1-3.8-.8-5.6-1.2l-3-.7c1.1.1,2.2,0,3.2-.4,2.3-1.1,9.4,2.4,9.3,2.3Z"/>
    <path class="st89" d="M475.7,142.8c-.4,0-.8.4-1.3.3s-.4-1.2-.8-1.4c0-2-1.2-4.3-.1-6.2,2.2-1.3,2.5,6.5,2.2,7.3Z"/>
    <path class="st156" d="M510.4,59.4c.2,0,.2-.3.1-.5-.3-.9-2.4-.8-3.8-.8,0-1.3,8.8-2.3,8.6.8-1.7.7-3.3.5-4.9.6Z"/>
    <path class="st98" d="M498.7,113.8c0-2.9-.3-6-.9-8.9,1.1.9,3.1,2.6,2.8,4.4s-1.5,3.1-1.9,4.5Z"/>
    <path class="st77" d="M477.7,85.4c-.4,1.2-1,2.4-2.5,2.7s-2.7-1.1-3-2.3c.3.4.8.7,1.3.6s.9-.6,1.4-1.1c.9-1,2-.3,2.9,0Z"/>
    <path class="st89" d="M460.8,29.3c.9.9.6,5.4.1,5.7s-1,.3-1.4,0-.6-5,1.3-5.7Z"/>
    <path class="st131" d="M494.8,155.3c-2.6.3-5.3.7-8.5.5v-.5h8.5Z"/>
    <path class="st131" d="M481.8,152.9c-.3.4-.9.2-1.6.7.9.5,1.8.6,2.5,1.2-.9.2-1.9-.5-3-.4s-2.1.7-3.1.3c0-.3,0-.6.2-.7,1.7-.6,1.7,1.1.4,0s0-.4,0-.7c1.3-.4,3.2-.2,4.5-.4Z"/>
    <path class="st86" d="M447.3,122.2c-.3.1-.7,0-1,0-.4-.1-1.2-.2-1.5-.5,0-.2,0-.5,0-.7-.7-2.3.9.9,2.5,1.2Z"/>
    <path class="st3" d="M454.8,57.9c-.7-.6-.6-1.6-.6-2.5h.5v2.5Z"/>
    <path class="st70" d="M524.3,28c-.3-.4-.7-.5-1.1-.6-.2-.3.1-.4.3-.4.4,0,.9-.2,1.2.2s-.3.6-.4.8Z"/>
    <path class="st127" d="M509.8,101.8c0-.4-.3-.6-.6-.3s-.4.2-.5.3c.2-.5.9-1.3,1.3-1.4.5.4,0,1.2-.3,1.4Z"/>
    <path class="st95" d="M505.7,49.4h.5c-.1.5-.2.6-.7.5s-.8,0-.7-.5h1Z"/>
    <path class="st71" d="M502.7,95.9l1.1-.5c0,.3,0,.8-.3,1s-.8,0-.8-.5Z"/>
    <path class="st21" d="M504.6,60v-.5c.2,0,.4-.1.8,0s.4.4,0,.5-.6,0-.8,0Z"/>
    <path class="st71" d="M502.7,94.9c0-.5.4-.7.5-1.1-.1.3,0,1.1-.5,1.1Z"/>
    <path class="st127" d="M509.3,103.4c0-.3,0-1.2.5-1.1-.1.3,0,1.1-.5,1.1Z"/>
    <path class="st131" d="M484.2,155.3c-.2,0-.4,0-.7,0s-.3-.2-.3-.5c.4,0,.8.2,1,.6Z"/>
    <path class="st104" d="M282.4,152.8c.4.5.5,1.6.6,2.4s-1.7,1.4-1.9.9c-1.6-2.9-3.2-5.8-5.2-8.2,0-.5-.2-1.7.3-1.9,3.3,1.3,4.4,4.4,6.1,6.9Z"/>
    <path class="st123" d="M458.3,179.3c-.6,6.1,1.3,12.1,5.3,17.2,3.8.8,5.9,3.9,6.2,7.8s-.2,2.2-1.2,2.5c-.2-.5-.5-1.1-.8-1.5.2-2.1-.9-3.3-2.5-4.6-5.9-4.9-9.4-13-8-20.4,0-.1,0-.3,0-.5l.5-1.5c0-.2,0-.3,0-.5,1-.6.9.7.6,1.5Z"/>
    <path class="st133" d="M468.7,208.7c-.5.2-.4-.5-.5-.8s0-.9.4-.7c0,.5,0,1,0,1.5Z"/>
    <path class="st124" d="M448.3,260.3c0,1.2-7.4,5.2-8.5,2.9,1.8-1.8,4.1-2.1,5.9-3.7s-1.6-7,.8-7.7c1,2.5,2.5,5.7,1.7,8.4Z"/>
    <path class="st45" d="M251.3,309.9h-6.5c0-2.6.6-5.3.3-8s-.9-1.3,0-1.5c3.1-1,5.4,7.2,6.4,9.6Z"/>
    <path class="st142" d="M221.9,289.1c-.6-.1-1.4.1-1.6.8s0,1-.7,1.7c-.2-1.5,1-2.8,1.3-4,0,.7.4,1.2,1,1.5Z"/>
    <path class="st17" d="M255.9,215.7c1,.6,2.5.5,3.6,1.3,1.7,1.3,3.1,2.9,4.9,3.7.6,0,.8.5.6,1v.5c-.2,3.6-10.6-4.4-10.4-6.9.1,0,.3,0,.4,0l1,.5Z"/>
    <path class="st24" d="M264.9,221.7c-.2-.3-.4-.6-.6-1,.3-.4.5-.4.8,0s.1.8-.2,1Z"/>
    <path class="st94" d="M255.9,215.7c-.4,0-1,0-1-.5.4,0,.7.3,1,.5Z"/>
    <path class="st112" d="M388.8,216.2c-.2,3-.1,6,.9,8.9,2.1,5.6,6.2,10.2,12.1,12.4-.7,1.1-1.6,1-2.6.6-5.1-2.3-8.9-6.7-11-11.9s-.7-7.9,0-11.5c.9-1,.9.6.5,1.5Z"/>
    <path class="st4" d="M418.8,224.6c-.5.2-.6,0-.5-.4,8.2-4.2,16-9.4,25.4-12.5-8,5-16.6,8.9-24.9,13Z"/>
    <path class="st42" d="M397.6,250.3c1,1-4,14.9-4.1,12.7,0,.1-.2.1-.3.2-1.6.5,3.5-12.9,4.4-12.9Z"/>
    <path class="st66" d="M418.8,224.6c-2.2,1.1-3.8,2.9-6,3.3,1.5-2.2,3.9-2.5,5.5-3.7.1.2.3.3.5.4Z"/>
    <path class="st55" d="M441.1,196.3c-2,.8-14.5,6-15.2,4.6s0-1.2.6-1.6l12.8-7.2c1.6.2,2.7,3.2,1.9,4.1Z"/>
    <path class="st32" d="M388.8,216.2c0-.5,0-1.3-.5-1.5,0-.5,0-.9.5-1.3s.9-.3.9,0c-.7,1.1-.1,2.2-.9,2.8Z"/>
    <path class="st152" d="M458.3,179.3c0-.6,0-1.3-.6-1.5v-1c0,0,.9-.5.9-.5.1,1.2.3,2.3-.3,3Z"/>
    <path class="st152" d="M457.2,179.8c0-.5-.1-1.3.5-1.5,0,.5.1,1.4-.5,1.5Z"/>
    <circle class="st84" cx="366.1" cy="226.9" r=".2"/>
    <path class="st93" d="M228.4,297c.5-.8,1.1-1.3,1.9-2,.1,1-.4,1.9-1.9,2Z"/>
    <path class="st11" d="M476.7,154.6c-.1,0-.3,0-.5,0-.5.3-1.2.5-2,.5-.1,0-.4,0-.5,0l-1.4.5c-2.8-2.7.6-1,4.9-2.4.4.5,1,.4,1.5.8-.9.4-1.6.1-2.1.5Z"/>
    <path class="st131" d="M476.2,154.6c0,1-1.3.6-2,.5.6-.4,1.3-.5,2-.5Z"/>
    <path class="st131" d="M473.7,155.2c0,.5-.4.6-.7.6s-.5,0-.7,0c.4-.4.9-.5,1.4-.5Z"/>
    <path class="st154" d="M471.8,148.5c-.2.4-.7.4-1.5.2,0-.5.4-.6,1.5-.2Z"/>
    <path class="st144" d="M539.7,33.4c-.5,1-.7,1.7-.5,2l.3.6c-1,.5-1.6,1.2-1.7,1.9-.3.2-.3.7-.7.5-.7-.5-.8-1.8.1-3.6,1.9-3.3,3-6.9,4.5-10.5s.7-.9,1.1-.7c1.2.6-2.4,8.1-3,9.6Z"/>
    <path class="st139" d="M537.7,37.9c-1.5-.4-.2-.7,1.5-2.5-.6-.4.3-1.6,1-1.6,2.7-2.2,3.4-5.5,5.2-6.6s1.2.2,1.1.5c-1.9,4.3-4.9,7.9-8.8,10.1Z"/>
    <path class="st2" d="M540.2,33.9c-.4.3-.6,1.1-1,1.6-.4,0-.5.6-1,.6-.2-1.4,1.1-1.8,1.5-2.6,0,.2.3.4.5.5Z"/>
    <path class="st108" d="M523.7,21.5c-.2-.2-.3-.5-.4-.9s.3-.5.5-.7c.5-.2.4.5.4.8,0,.4-.3.5-.5.8Z"/>
    <path class="st13" d="M528.8,26.5c-.2.5-1,.5-1.4,1-.6-1.2.6-1.1.9-1.6-.1.3.2.5.5.5Z"/>
    <path class="st17" d="M450.2,55.9l1,1c0,.1,0,.3,0,.4-.7.4-1.3,0-2-.4-1.4-.4-3.7-.8-4.4,1s3.3,1.2,2,2.5c-.1.5,0,.7.5.5,1.2,0,2.5.3,3.5,1.1,1.3,1.2-.1,1.8-4.3,1.8-2.7.5-5.3.9-7.9,1.1l-.7-.6-.6-.3c1-2.7.8-2.3-.4,1.3,1.2-.7,1.5,0,.5.9.4.2.4.3,0,.5l.5.6c1.1,0,2,.8,2.7,2.8,1.2,1.4,1.4,2.6.8,3.6,4.5,2.1-1.4,4.3-2.5.7,0-.2,0-.3,0-.5l-.5-1.1c-.8-1.7-1.5-3.4-2.4-4.9s.1-1.4-.4-2-1-.4-1.8-.9c3.1-4.8,1.8-8.2,9.3-9.6s5.2-1,7.4.5Z"/>
    <path class="st22" d="M450.6,72l-1.4,3.5c0-.4.2-.9-.2-1-1.2.6-1.5,2.1-2.6,2.6-3.1,1.3-9.7-.7-7.7-2.5.5.3.9.9,1.7,1.2s1.4,0,1.7-.6-.7-.9-.9-1.3c0-1.4,1.3-1.2,1.9-.2l.7.3c1.4-1,2.8-2.1,4.1-3.2l.7.3c1-1,1.9-.3,1.9,1.1Z"/>
    <path class="st22" d="M438.8,73.9c-.5,0-.4-.7-.5-1.1.2.3.6.6.5,1.1Z"/>
    <path class="st58" d="M492.7,278c-1,.1-1.5.2-2.1,1.5l-1.6,3.2c3.1.8,5.7,2.3,8.4,4s.9,1.2,1.2,1.8c.5,2.3-9.6-3.8-12-4.1-4.8,3.3-20,.5-24.4-2.3-.6-1.2-2.3-1.8-2.3-3.7,1.1.2,2,1,2.7,1.5,5.7,1.5,12.2,2.9,18.1,2.3s5-.8,5.8-2.3c-6.5,1.4-13,1.7-19.4.8l-.5-1.2c-.6-.9-.3-1.2.7-1.2,7.8-.6,15.5-1.4,23.2-2.4l1.5-.5c.2-.2.3-.2.5,0,.2-.8,1.7-.7,2.5-.5.6-.9,2.4-1.1,3.5-1,.6-.2,1.5,0,2,.1s.8,1.7.2,1.9l-8.2,1.9Z"/>
    <path class="st76" d="M492.9,272.5c-1,.2-1.7-1-2.6-1-7.8.2-15.3,1.9-23,3.1s-7.3,1.6-11,2.7-.4-1.2-.1-1.3c11.7-4.3,24.2-6.6,36.8-7.3s1.4,1.9,1.1,2.4-.9.8-1.3,1.4Z"/>
    <path class="st61" d="M462.7,280.1c.3,0,.6-.2.9-.1.1-1.4,2.3-.9,3.1-.2,5.2,1.8,15.8,0,21.9-.9-1.8,7.2-17.4,4.4-22.7,3.2s-2.3-1.1-3.2-1.9Z"/>
    <path class="st26" d="M491.7,275.1c.7-.4,1.5-.4,1,.5-.2,0-.3,0-.5,0l-1.5.5c-6.9,1.7-14,3.1-21.4,3s-1.8-.1-2.5.6-2.2.3-3.1.2c-.4-.6-1-.9-1.2-1.9,8.5,0,16.6-1.7,24.8-2.4l3-.5h1.5Z"/>
    <path class="st85" d="M498.7,274.1c-1.1.4-2.3.7-3.5,1-.5,0-.9-.2-1-.5.2-.3.6-.6,1-.6,1.6.2,3.6-1,3.5.1Z"/>
    <path class="st67" d="M494.2,274.6c.4,0,.9,0,1,.5-.8.2-1.6.5-2.5.5-.1-.5-.6-.5-1-.5.5-.9,1.7-.4,2.5-.5Z"/>
    <path class="st67" d="M490.2,275.1c-.8.9-2,.4-3,.5.7-.8,2-.4,3-.5Z"/>
    <path class="st116" d="M450.6,72c-.7-.2-1.3-.6-1.9-1.1-1.5.3-3,1.2-4.5,2.8-.3.3-.7.2-1-.1-.5.4-1.3.1-1.9.2l-3.5-6.4-.5-.6c0-.2,0-.4,0-.5,0-.3,0-.5,0-.6.7-1,11-2.1,12.8-2.2.7-.4,1.4-.8,2.2-.4.2-.6.4-1.3.9-1.7,0,3.6-1.3,7.2-2.7,10.6Z"/>
    <path class="st3" d="M454.3,54.9c-.5-.7-1-1.4-1.2-2.6-.6.2-.4.6-.4,1-.5-.5-1-1.4,0-2.3.9,1.3,1.5,2.5,1.5,3.8Z"/>
    <path class="st3" d="M453.3,54.9c-.2,0-.4-.1-.6,0v-.9c.6,0,.6.6.6,1Z"/>
    <path class="st100" d="M452.4,63.1c-.4,1.2-2,.8-3.3,1.1l-11.8,2.2-.5-.9c0-.7.2-1.4.9-1,4.1-.5,8-1.6,12.3-1.4s.7-.8.6-.9c.5.4,1.2.6,1.7,1.1Z"/>
    <path class="st146" d="M451.2,57.3c.6,1.4-1.9.2-2-.4.6.2,1.3.3,2,.4Z"/>
    <path class="st160" d="M447.3,60.9c-.2.2-.1.5-.3.5-.3,0-.6,0-.7-.3-.2-.5.2-.7.6-.8l.5.5Z"/>
    <path class="st146" d="M451.2,56.9c-.5-.2-.8-.5-1-1,.4.3.9.5,1,1Z"/>
    <path class="st58" d="M477.8,172.3c1,.3,1.9.6,2.9.5.8.6,1,1.7,1.3,2.8.9,3.4,4.3,9.7,2.4,11s-5.4-10.3-6.3-11.3c-1.6-1.6-4.9-1.6-6.5-3.9,2-1.1,4.2.3,6.2.9Z"/>
    <path class="st153" d="M468,180.3c-.4-.3,0-.6.3-.6,0,.4,0,.8-.3.6Z"/>
    <circle class="st95" cx="275.6" cy="142" r=".2"/>
    <path class="st134" d="M555.7,39.9c-.2.2-.2.6-.7.5s-.6-.1-.8-.4c.2-.3.1-.8.7-.6s.5.2.8.4Z"/>
    <path class="st16" d="M553.6,49.2c0,0,0,.2,0,.3-.3.2-.1.3.1.4.6,2.5,1.6,4.9,1.4,7.5l-.8.3c-.5,1.3-1,2.5-1.6,3.7-1.7-1.8-4.6-1.8-7-2.8-.9-1.7,0-5.2,1.4-6.8s4.2-2.4,6.5-2.7Z"/>
    <path class="st145" d="M555.2,57.4c.2,4.9,0,9.9-1.7,14.6-1.2,0-1-1.5-2-2.1h-.3c-1.5.3-2.4-1.9-2.4-3.4s1.2-3.4,2.8-3.6c.2-.4,1.4-.8,1.1-1.5-1-2,.8-4,1.8-6.1.2,1,0,1.6.6,2.1Z"/>
    <path class="st75" d="M551.6,62.9c.1.9-.7,1.4-1.3,2.1-1.1,1.5-.1,3.6.9,4.8-.4-.2-.9-.4-1.3,0s-.5.6-.7.9c-.2.4-.4.4-.5,0,.3-1.9-.5-3.8-2.4-4.9l.8-1.7c-.7-.9-1.5-1.8-1.1-2.9l5.6,1.8Z"/>
    <path class="st41" d="M549.2,70.8c.1-.2-.4,1.1-.7,1.1s-.4-.6-.2-.7.4-.3.5-.4h.5Z"/>
    <path class="st44" d="M553.7,49.9c-.5,0-.8-.5-.1-.4v.4Z"/>
    <path class="st59" d="M437.8,64.3c0,.4-.6.9-.9,1-.9-1.8,1.1-6,2.8-6.8-.2,1.3,1,2.5,1.5,3.4-1,1-3.4.7-3.4,2.4Z"/>
    <path class="st100" d="M437.8,67.4c-.3.2-.4-.4-.5-.6.4-.2.3.4.5.6Z"/>
    <path class="st23" d="M448.7,70.9c-1.5,1.5-3.1,3.3-5.5,3.9-.4,0-.2-1.1,0-1.3l3.7-3.1c.5-.4.9-.6,1.4-.3s.2.6.5.8Z"/>
    <path class="st67" d="M492.2,275.6c-.2.7-1,.4-1.5.5.1-.7,1-.5,1.5-.5Z"/>
  </g>
</svg>