<?xml version="1.0" encoding="utf-8"?>
<!-- Generator: Adobe Illustrator 26.4.1, SVG Export Plug-In . SVG Version: 6.00 Build 0)  -->
<svg version="1.1" xmlns="http://www.w3.org/2000/svg" xmlns:xlink="http://www.w3.org/1999/xlink" x="0px" y="0px"
	 viewBox="0 0 930 325" style="enable-background:new 0 0 930 325;" xml:space="preserve">
<style type="text/css">
	.st0{fill:#BFDAA7;}
</style>
<g id="Ebene_2">
</g>
<g id="Ebene_6">
</g>
<g id="Ebene_1">
</g>
<g id="Ebene_4">
</g>
<g id="Ebene_7">
</g>
<g id="Ebene_3">
</g>
<g id="Ebene_8">
</g>
<g id="Ebene_5">
</g>
<g id="Ebene_9">
</g>
<g id="Ebene_10">
	<rect y="0" class="st0" width="929.3" height="324"/>
	<g>
		<path d="M458.7,313.4c-74.3,0.1-262.6,0.4-334.3,0.4c-0.3-0.1-111.6-0.1-111.8-0.1c-0.2-0.1,0.3-149.8,0.2-150
			c0.3-0.3-0.6-150.2,0.2-150c0.4-0.1,445.9-0.1,446.2-0.2C459.6,13.8,458.3,313,458.7,313.4L458.7,313.4z M458.6,313.3
			c0,0.3-1-301.5,0-298.8c0,0-445.7-0.2-445.7-0.2c0.6-1.8,0,149.8,0.2,149.4c0-0.3,0.5,151.1-0.1,149.4c0,0,111.4-0.1,111.4-0.1
			C195.1,312.9,385.4,313.2,458.6,313.3L458.6,313.3z"/>
	</g>
	<g>
		<path d="M917,315.1c-74.3,0.1-262.6,0.4-334.3,0.4c-0.3-0.1-111.6-0.1-111.8-0.1c-0.2-0.1,0.3-149.8,0.2-150
			c0.3-0.3-0.6-150.2,0.2-150c0.4-0.1,445.9-0.1,446.2-0.2C918,15.4,916.7,314.7,917,315.1L917,315.1z M917,315
			c0,0.3-1-301.5,0-298.8c0,0-445.7-0.2-445.7-0.2c0.6-1.8,0,149.8,0.2,149.4c0-0.3,0.5,151.1-0.1,149.4c0,0,111.4-0.1,111.4-0.1
			C653.5,314.6,843.7,314.9,917,315L917,315z"/>
	</g>
</g>
</svg>
