<?xml version="1.0" encoding="utf-8"?>
<!-- Generator: Adobe Illustrator 26.4.1, SVG Export Plug-In . SVG Version: 6.00 Build 0)  -->
<svg version="1.1" xmlns="http://www.w3.org/2000/svg" xmlns:xlink="http://www.w3.org/1999/xlink" x="0px" y="0px"
	 viewBox="0 0 930 650" style="enable-background:new 0 0 930 650;" xml:space="preserve">
<style type="text/css">
	.st0{fill:#BFDAA7;}
</style>
<g id="Ebene_2">
</g>
<g id="Ebene_6">
</g>
<g id="Ebene_1">
</g>
<g id="Ebene_4">
</g>
<g id="Ebene_7">
</g>
<g id="Ebene_3">
</g>
<g id="Ebene_8">
</g>
<g id="Ebene_5">
</g>
<g id="Ebene_9">
</g>
<g id="Ebene_10">
	<rect y="0" class="st0" width="929.3" height="651.2"/>
	<g>
		<path d="M919.6,637.6c-226,0.1-680.7,0.5-906.7,0.3c0,0-0.3,0-0.3,0l0-0.3c0,0,0.2-311.8,0.2-311.8c0.3-0.3-0.6-312.4,0.2-312.1
			c0.3-0.2,906.8-0.1,907.1-0.2C920.1,13.8,919.5,637.2,919.6,637.6L919.6,637.6z M919.5,637.5c0,0.2-1.1-625.7,0-623.1
			c0,0-906.6-0.2-906.6-0.2c0.7-1.7-0.1,311.9,0.2,311.5c0,0,0.2,311.8,0.2,311.8s-0.3-0.3-0.3-0.3
			C238.8,637,693.6,637.4,919.5,637.5L919.5,637.5z"/>
	</g>
</g>
</svg>
