<?xml version="1.0" encoding="utf-8"?>
<!-- Generator: Adobe Illustrator 26.4.1, SVG Export Plug-In . SVG Version: 6.00 Build 0)  -->
<svg version="1.1" xmlns="http://www.w3.org/2000/svg" xmlns:xlink="http://www.w3.org/1999/xlink" x="0px" y="0px"
	 viewBox="0 0 930 325" style="enable-background:new 0 0 930 325;" xml:space="preserve">
<style type="text/css">
	.st0{fill:#BFDAA7;}
</style>
<g id="Ebene_2">
</g>
<g id="Ebene_6">
</g>
<g id="Ebene_1">
</g>
<g id="Ebene_4">
</g>
<g id="Ebene_7">
</g>
<g id="Ebene_3">
</g>
<g id="Ebene_8">
</g>
<g id="Ebene_5">
</g>
<g id="Ebene_9">
</g>
<g id="Ebene_10">
	<rect class="st0" width="929.3" height="324"/>
	<g>
		<path d="M919.6,313.4c0,0-453.2,0.4-453.2,0.4c-0.2-0.2-453.9,0.1-453.7-0.4c0-0.3-0.1-299.4-0.1-299.6
			c-0.1-0.1,453.6-0.1,453.6-0.2c0.4-0.1,453.4,0.2,453.7,0.1C920,13.9,919.4,313,919.6,313.4L919.6,313.4z M919.5,313.3
			c0,0.3-0.8-301,0-299c0,0-453.3,0.1-453.3,0.1S12.9,14.3,12.9,14.3c0.5-1.7,0.1,299.4,0.2,299.1c-1.1-0.5,453.1-0.2,453-0.4
			C466,313,919.5,313.3,919.5,313.3L919.5,313.3z"/>
	</g>
</g>
</svg>
