<?xml version="1.0" encoding="utf-8"?>
<!-- Generator: Adobe Illustrator 26.4.1, SVG Export Plug-In . SVG Version: 6.00 Build 0)  -->
<svg version="1.1" xmlns="http://www.w3.org/2000/svg" xmlns:xlink="http://www.w3.org/1999/xlink" x="0px" y="0px"
	 viewBox="0 0 930 650" style="enable-background:new 0 0 930 650;" xml:space="preserve">
<style type="text/css">
	.st0{fill:#BFDAA7;}
</style>
<g id="Ebene_2">
</g>
<g id="Ebene_6">
</g>
<g id="Ebene_1">
</g>
<g id="Ebene_4">
</g>
<g id="Ebene_7">
</g>
<g id="Ebene_3">
</g>
<g id="Ebene_8">
</g>
<g id="Ebene_5">
</g>
<g id="Ebene_9">
</g>
<g id="Ebene_10">
	<rect y="0" class="st0" width="929.3" height="651.2"/>
	<g>
		<path d="M460.5,637.6c-0.4,0.1-447.7,0.3-448.1,0.4c-0.3,0.1,0.4-312.2,0.2-312.2c0.3-0.3-0.6-312.4,0.2-312.1
			c0.5,0.5,448.6-1.1,448.1,0.3C460.8,169.4,460.8,482.2,460.5,637.6L460.5,637.6z M460.4,637.5c-0.3-155.4-0.4-468.2-0.4-623.5
			c3.3,0.8-448,0.2-447.1,0.3c0.7-1.7,0,311.9,0.2,311.5c-0.1-0.5,0.8,313.9-0.2,311.4C12.9,637.1,460.4,637.5,460.4,637.5
			L460.4,637.5z"/>
	</g>
	<g>
		<path d="M919.8,640c-0.4,0.1-447.7,0.3-448.1,0.4c-0.3,0.1,0.4-312.2,0.2-312.2c0.3-0.3-0.6-312.4,0.2-312.1
			c0.5,0.5,448.6-1.1,448.1,0.3C920.1,171.8,920.1,484.6,919.8,640L919.8,640z M919.8,639.9c-0.3-155.4-0.4-468.2-0.4-623.5
			c3.3,0.8-448,0.2-447.1,0.3c0.7-1.7,0,311.9,0.2,311.5c-0.1-0.5,0.8,313.9-0.2,311.4C472.2,639.5,919.8,639.9,919.8,639.9
			L919.8,639.9z"/>
	</g>
</g>
</svg>
