<?xml version="1.0" encoding="utf-8"?>
<!-- Generator: Adobe Illustrator 26.4.1, SVG Export Plug-In . SVG Version: 6.00 Build 0)  -->
<svg version="1.1" xmlns="http://www.w3.org/2000/svg" xmlns:xlink="http://www.w3.org/1999/xlink" x="0px" y="0px"
	 viewBox="0 0 929.3 324" style="enable-background:new 0 0 929.3 324;" xml:space="preserve">
<style type="text/css">
	.st0{fill:#BFDAA7;}
</style>
<g id="Ebene_2">
</g>
<g id="Ebene_6">
</g>
<g id="Ebene_1">
</g>
<g id="Ebene_4">
</g>
<g id="Ebene_7">
</g>
<g id="Ebene_3">
</g>
<g id="Ebene_8">
</g>
<g id="Ebene_5">
</g>
<g id="Ebene_9">
</g>
<g id="Ebene_10">
	<rect class="st0" width="929.3" height="324"/>
	<g>
		<path d="M304.7,313.4c-82.8-0.1-210,0.7-291.8,0.3c-1.1-49,0.2-176.8-0.2-224.9c0,0-0.1-74.8-0.1-74.8c0,0,0-0.3,0-0.3
			c0,0,0.3,0,0.3,0c72.7,0.4,220.6-1.2,292.3,0.3C305.4,97.6,304.7,228.8,304.7,313.4L304.7,313.4z M304.6,313.3
			c-0.4-84.9-0.3-215.4-0.5-299.3c-69.4,1.5-219.6-0.1-291.3,0.3c0.5-1.9,0.1,75.1,0.2,74.6C12.6,135.6,14,266.5,12.9,313
			C94.3,313,222.3,313,304.6,313.3L304.6,313.3z"/>
	</g>
	<g>
		<path d="M613.8,313.4c-82.8-0.1-210,0.7-291.8,0.3c-1.1-49,0.2-176.8-0.2-224.9c0,0-0.1-74.8-0.1-74.8s0-0.3,0-0.3l0.3,0
			c72.7,0.4,220.6-1.2,292.3,0.3C614.5,97.6,613.8,228.8,613.8,313.4L613.8,313.4z M613.7,313.3c-0.4-84.9-0.3-215.4-0.5-299.3
			c-69.4,1.5-219.6-0.1-291.3,0.3c0.5-1.9,0.1,75.1,0.2,74.6c-0.5,46.7,0.9,177.7-0.2,224.1C403.4,313,531.4,313,613.7,313.3
			L613.7,313.3z"/>
	</g>
	<g>
		<path d="M918,313.4c-82.8-0.1-210,0.7-291.8,0.3c-1.1-49,0.2-176.8-0.2-224.9c0,0-0.1-74.8-0.1-74.8l0-0.3l0.3,0
			c72.7,0.4,220.6-1.2,292.3,0.3C918.7,97.6,918.1,228.8,918,313.4L918,313.4z M918,313.3c-0.4-84.9-0.3-215.4-0.5-299.3
			c-69.4,1.5-219.6-0.1-291.3,0.3c0.5-1.9,0.1,75.1,0.2,74.6c-0.5,46.7,0.9,177.7-0.2,224.1C707.6,313,835.6,313,918,313.3
			L918,313.3z"/>
	</g>
</g>
</svg>
