<?xml version="1.0" encoding="UTF-8"?><svg xmlns="http://www.w3.org/2000/svg" viewBox="0 0 930 650"><defs><style>.cls-1{fill:#86c2c1;}.cls-2{fill:#1d1d1b;}</style></defs><g id="Ebene_2"><rect class="cls-1" x="1.41" y="-.67" width="931.86" height="652.6"/></g><g id="Ebene_10"><path class="cls-2" d="M16.31,633.25c-.68-116.77-.85-268.19-.72-385.24,.32-74.76,.46-157.11,.5-231.46,.22-.2,282.3-.41,282.57-.56,0,0,.87,0,.87,0,0,0,0,.88,0,.88,.3,144,.12,320.89-.43,464.65-.2,0,.03,66.78-.55,66.38,0,0-.35-66.38-.35-66.38-.5-143.68-.79-320.74-.43-464.65,5.75,1.75-284.05,.39-281.06,0-.1,74.11,.34,156.58,.5,231.15-.01,117,.28,268.9-.92,385.24h0Z"/><path class="cls-2" d="M917.65,318.17c-134.75,.43-318.93,.83-453.67,.74,0,0-151.4-.36-151.4-.36,0,0-.46,0-.46,0,0,0,0-.45,0-.45,.19-37.42,.06-112.59,.11-149.98,0,0-.21-149.98-.21-149.98,0,0,0-.55,0-.55,0,0,.55,0,.55,0l302.5-.46c75.76,.02,227.61-.03,303.38,.14,.79,.52-1.37,300.24-.81,300.91h0Zm-.14-.14c.07,.58-1.89-303.84,.07-299.03-75.48,.19-227.05,.14-302.5,.14,.4-.03-305.01,.2-301.95-1.01,0,0-.2,149.98-.2,149.98,.09,37.35-.05,112.63,.11,149.98-3.17-1,151.49-.59,150.64-.81,134.75-.09,319.09,.3,453.84,.74h0Z"/><path class="cls-2" d="M312.48,529.02c-.51-60.45-.98-129.28-.73-189.56,70.78,.25,157.34,.66,227.7,.44,108.59-.25,269.13-.68,378.13-.64,0,0,1.04,0,1.04,0,0,0,0,1.03,0,1.03,.03,11.48-.16,28.15-.31,39.8-.12,11.71-.32,28.25-.62,39.8,0,0-.2,0-.2,0-.13-6.63-.32-13.27-.39-19.9-.19-18.51-.57-41.3-.54-59.71,0,0,1.03,1.03,1.03,1.03-109.24,.08-269.34-.42-378.13-.64-69.93-.26-156.59,.23-226.88,.44,0,0,.83-.83,.83-.83,.01,15.73,.1,31.46,.05,47.18-.2,41.88,.02,100.06-.98,141.55h0Z"/></g></svg>