<?xml version="1.0" encoding="UTF-8"?>
<svg id="bellinghausen" xmlns="http://www.w3.org/2000/svg" viewBox="0 0 3720 2600">
  <defs>
    <style>
      .cls-1 {
        fill: none;
        stroke: #1d1d1b;
        stroke-width: 5px;
      }

      .cls-1, .cls-2 {
        stroke-miterlimit: 10;
      }

      .cls-2 {
        fill: #1d1d1b;
        stroke: #a5cfdb;
        stroke-width: 13px;
      }
    </style>
  </defs>
  <path class="cls-1" d="M1581.6,42.98c20.76,49.31,59.1,144.28,53.91,216.94-5.19,72.66-45.41,115.23-58.74,135.99-13.33,20.76-25.59,57.09,0,98.61,25.59,41.52,71.65,137.57,74.9,199.82,4.25,81.27-28.55,88.23-77.85,132.35-49.31,44.12-81.37,96.25-109.92,129.98-28.55,33.74-45.64,57-48.24,129.07-2.6,72.06-2.79,130.41-10.58,166.75-3.37,15.72,6.34,32.74,2.88,62.28-4.29,36.6-2.81,58.72,7.5,91.11,18.17,57.09,56.33,115.61,84.19,211.63,27.86,96.02,16.5,112.31,57.66,171.99,41.16,59.69,59.83,87.2,88.23,131.32,28.4,44.12,35.5,90.85,65.89,97.74,47.13,10.67,67.4-63.73,111.52-54.27,44.12,9.46,51.9,50.98,98.61,87.31,46.71,36.33,84.44,71.19,101.68,63.41,17.23-7.79-3.82-18.32,32.87-24.51,32.06-5.42,47.6-49.29,60.55-44.54,12.95,4.75-3.58,83.32-4.61,111.87-1.03,28.55-4.8,46.49,11.53,51.32,16.33,4.84,31.55-19.35,54.91-19.67,23.36-.33,62.59,2.92,83.2-18.17,20.61-21.09,20.7-33.76,33.73-55,13.03-21.24,67.28-21.34,66.89-10.96-.39,10.38-22.82,93.92-12.49,133.28,10.33,39.35,49.4,121.02,84.69,126.99,50.62,8.56,69.94,13.35,93.3,.38,23.36-12.98,85-50.9,110.95-40.52,25.95,10.38,22.42,25.53,51.08,25.53,35.75,0,16.15,21.91,90.72,24.35,62.33,2.04,82.95-13.96,106.31-29.53,23.36-15.57,19.45-43.41,72.84-36.92,55.36,6.73,131.9,34.6,205.28,133.78,31.63,42.75,83.98,103.96,134,155.51"/>
  <path class="cls-1" d="M2967.2,2608.74c-18.12-19.29,29.41-98.31,39.79-137.24,10.38-38.93,34.6-50.16,34.6-76.12,0-40.94-35.46-57.67-38.06-88.8-2.37-28.43,4.92-34.54,5.77-67.96,1.73-68.12,32.2-62.26,38.63-129.82,6.98-73.26,15.96-242.75-2.44-305.04-7.65-25.92-21.55-47.55-22.93-81.88-1.34-33.36-25.17-42.75-33.45-44.4-18.17-3.63-80.15,5.19-82.46-3.73-6.47-25,42.09-78.73,47.86-104.68,7.4-33.32-28.46-85.7-38.06-124.3-9.6-38.59,51.61-135.76,64.58-182.47,12.98-46.71,16.72-138.97-13.26-156.84-42.1-25.1-51.54-1.21-62.85-4.04-11.53-2.88-1.26-13.73-10.9-22.14-12.26-10.69-7.86-30.04-15.63-52.25-4.79-13.69-13.9-21.4-19.61-39.06-23.45-72.62-26.81-149.21-55.36-177.76-15.84-15.84-35.18-37.48-57.09-44.98-15.56-5.32-19.72-16.33-27.68-15.55-23.39,2.28-71.41,60.88-95.7,63.81-19.24,2.32-19.34-2.7-36.07-1.55-28.52,1.97-61.6,4.33-94.28,5.77-39.21,1.73-54.78-27.92-75.54-69.2-20.76-41.28-67.47-91.69-88.8-89.95-39.32,3.19-59.52,58.21-102.5,65.17-25.18,4.07-65.35,6.55-95.87-8.66-21.57-10.75-33.96-39.48-47.87-49.69-32.86-24.12-39.21-93.9-138.71-107.73-74.59-10.37-62.04-59.41-127.11-61.7-57.29-2.02-106.82-3.16-112.33-70.63-5.51-67.47,1.41-183.39-11.57-245.67-12.98-62.28-54.6-145.28-83.15-184.2"/>
  <polyline class="cls-2" points="1415.05 1137.94 1431.94 1186.54 1391.86 1182.84 1415.05 1137.94"/>
  <polyline class="cls-2" points="1703.87 270.97 1680.02 225.37 1720.2 223.14 1703.87 270.97"/>
  <polyline class="cls-2" points="2858.45 992.24 2828.42 950.46 2867.88 942.59 2858.45 992.24"/>
  <polyline class="cls-2" points="3008.19 2267.74 2990.64 2219.38 3030.75 2222.52 3008.19 2267.74"/>
  <polyline class="cls-2" points="2391.89 2323.79 2438.37 2345.87 2407.61 2371.82 2391.89 2323.79"/>
</svg>