<?xml version="1.0" encoding="UTF-8"?>
<svg id="borchgrevink" xmlns="http://www.w3.org/2000/svg" viewBox="0 0 3720 2600">
  <defs>
    <style>
      .cls-1 {
        fill: none;
        stroke: #1d1d1b;
        stroke-width: 5px;
      }

      .cls-1, .cls-2 {
        stroke-miterlimit: 10;
      }

      .cls-2 {
        fill: #1d1d1b;
        stroke: #a5cfdb;
        stroke-width: 13px;
      }
    </style>
  </defs>
  <path class="cls-1" d="M2049.08,214.26c13.02,11.89,51.78,29.03,74.57,47.72,22.79,18.69,39.31,37.6,50.7,71.58,11.39,33.98,22.49,67.34,25.35,94.2,2.86,26.86,12.21,122.34,31.33,173.32,19.13,50.98,56.71,164.82,48.5,198.81-8.21,33.98-26.14,42.27-28.56,84.99-.81,43.3,6.51,45,5.7,73.03-.81,28.04-9.5,63.72-16.55,77.31-7.05,13.59-15.19,39.93-13.56,50.13,1.63,10.2,23.55,18.01,45.93,20.54,53.63,6.05,51.9,16.66,79.58,21.62,27.67,4.97,47.21,13.41,53.7,19.9,5.29,5.29,3.33-8.9-9.69-13.28-13.02-4.38-4.91-6.75-43.26-20.97-38.35-14.21-62.62-14.74-73.27-22.12-10.66-7.38-9.06-16.16-19.22-24.94-10.16-8.78-24.9,.57-37.83,4.81-12.93,4.25,.81-8.18-12.21-10.04-13.02-1.86-.76-14.99-7.33-13.75-6.56,1.23-6.51-4.25,3.26-6.8,8.92-2.33,7.18-9.35-1.63-9.35-9.77,0-6.09-5.17,6.93-9.42,13.02-4.25,10.81-7.86,10.81-12.11s11.68-15.14,8.22-15.14c-7.85,0-18.3-8.66-6.92-7.64,12.97,1.16,14.03-.46,15.66-6.41,1.63-5.95,.23-29.32-.99-35.27-1.22-5.95-24.75-9.34-19.87-22.03,4.88-12.69,27.94-65.3,21.7-91.64-6.24-26.34-29.68-54.47-52.63-84.96-26.86-35.68-45.95-44.72-76.03-63.46-43.78-27.28-45.22-53.53-63.14-74.18-22.41-25.82-51.99-43.55-74.88-120.64-17.91-60.32-102.2-95.15-169.29-103.65-67.09-8.51-187.53-56.86-223.34-62.8"/>
  <polyline class="cls-2" points="1990 529.21 1953.89 492.56 1991.67 478.7 1990 529.21"/>
  <polyline class="cls-2" points="2199.14 419 2225.46 463.22 2185.47 467.65 2199.14 419"/>
</svg>