<?xml version="1.0" encoding="UTF-8"?>
<svg id="Cook" xmlns="http://www.w3.org/2000/svg" viewBox="0 0 3720 2600">
  <defs>
    <style>
      .cls-1 {
        fill: none;
        stroke: #1d1d1b;
        stroke-width: 5px;
      }

      .cls-1, .cls-2 {
        stroke-miterlimit: 10;
      }

      .cls-2 {
        fill: #1d1d1b;
        stroke: #a5cfdb;
        stroke-width: 13px;
      }
    </style>
  </defs>
  <path class="cls-1" d="M2000.76,2605.08c13.48-21.74,37.76-53.2,56.06-75.91,25.08-31.14,27.68-65.25,17.3-78.04-10.38-12.78-43.25-18.65-67.47-9.32-24.22,9.32-63.14,29.41-76.98,2.59s-13.84-48.44,6.05-70.06,62.28-53.63,74.39-62.28c12.11-8.65,44.98-1.53,55.36,3.56,10.38,5.09,15.57,23.25,55.36,24.12,39.79,.86,87.36,25.08,99.47,39.79,12.11,14.7,4.32,20.76-19.89,18.16-24.22-2.59-83.9-19.89-96.01-31.14-12.11-11.24-11.24-55.21-38.06-79.93-26.81-24.73-60.55-56.22-107.25-71.18-46.71-14.96-99.47-40.91-107.25-66.85-7.78-25.95,19.89-71.79,43.25-89.09,23.35-17.3,19.89-25.95,8.65-32-11.24-6.05-42.38-13.84-65.74-5.19-23.35,8.65-88.23,75.25-121.96,88.23-33.73,12.97-78.71,13.84-117.63,6.92-38.92-6.92-77.85-23.35-116.77-30.27-38.92-6.92-47.57-3.46-81.31-6.05-33.73-2.59-73.52-25.08-87.36-44.11s-10.38-49.3,0-72.66c10.38-23.35,6.05-65.74,13.84-100.33s13.84-60.55,12.97-88.23c-.86-27.68-20.76-36.33-20.76-65.74s36.33-100.33,39.79-133.2c3.46-32.87-1.73-105.07,0-118.7s28.54-31.8,34.6-36.12c6.05-4.32,68.33,9.51,74.39,6.05s36.38-12.11,37.65-17.3c1.27-5.19-25.54-57.95-24.68-64.87s2.59-124.55,7.78-139.26c5.19-14.7,40.65-80.44,45.84-104.66,5.19-24.22,25.95-103.79,45.84-144.45,19.89-40.65,54.49-74.39,77.85-82.17,23.35-7.78,37.19-14.7,49.3-38.06,12.11-23.35,32.87-37.19,51.03-37.19s35.46,6.05,46.71-39.79c11.24-45.84,37.19-150.5,48.44-213.64,11.24-63.14,53.63-172.92,74.39-224.42,20.76-51.5,73.52-91.78,84.77-106.67,11.24-14.89,15.74-25.76,13.92-45.41-1.81-19.65-6.14-50.79,29.32-91.44,35.46-40.65,78.71-67.47,98.6-66.6,19.89,.86,37.19,22.49,48.44,49.3s12.97,51.03,17.3,57.09,70.06,44.98,115.9,64.87c45.84,19.89,148.77,70.93,160.88,76.98,12.11,6.05,34.6,44.11,37.19,52.76s-26.81,140.99-19.03,188.56c7.78,47.57,57.09,147.04,72.66,185.1,15.57,38.06,27.68,128.01,34.6,158.29,6.92,30.27,28.54,12.97,42.38,12.11,13.84-.86,24.22-6.05,27.68,19.89,3.46,25.95,2.59,44.98,7.78,56.22s26.81,28.54,39.79,27.68c12.97-.86,32-29.41,41.52-39.79,9.51-10.38,50.17,2.59,64.87-40.65,14.7-43.25,37.19-149.64,58.82-175.59,21.62-25.95,70.93-10.38,85.63-6.05,14.7,4.32,78.71,46.71,155.69,61.41,76.98,14.7,124.55,38.92,146.18,94.28,21.62,55.36,17.3,62.28,12.11,75.25s-17.3,38.06-31.14,48.44c-13.84,10.38-113.31,1.73-128.01,7.78-14.7,6.05-19.89,36.33-13.84,46.71,6.05,10.38,21.62,20.76,19.03,32-2.59,11.24-35.46,20.76-49.3,32-13.84,11.24-48.98,64.01-55.2,73.52-6.21,9.51,11.09,37.19-4.48,50.17-15.57,12.97-75.25,0-96.87,12.11-21.62,12.11-88.23,57.95-104.66,76.12-16.43,18.16-28.54,32.87-24.22,41.52,4.32,8.65,55.36,12.97,96.01,12.11,40.65-.86,138.39,5.19,194.61,25.08,56.22,19.89,124.55,44.11,197.21,38.92,72.66-5.19,165.21-3.46,190.29-2.59,25.08,.86,94.28,5.19,94.28,5.19,51.77,1.47,96.78,8.53,131.66,16.6"/>
  <polyline class="cls-2" points="1855.75 527.28 1867.84 577.3 1828.32 569.73 1855.75 527.28"/>
  <polyline class="cls-2" points="3056.32 1152.28 3068.02 1102.17 3099.91 1126.71 3056.32 1152.28"/>
  <polyline class="cls-2" points="1578.62 2112.8 1628.41 2099.8 1621.56 2139.46 1578.62 2112.8"/>
</svg>