<?xml version="1.0" encoding="utf-8"?>
<!-- Generator: Adobe Illustrator 16.0.0, SVG Export Plug-In . SVG Version: 6.00 Build 0)  -->
<!DOCTYPE svg PUBLIC "-//W3C//DTD SVG 1.1//EN" "http://www.w3.org/Graphics/SVG/1.1/DTD/svg11.dtd">
<svg version="1.1" id="Ebene_1" xmlns="http://www.w3.org/2000/svg" xmlns:xlink="http://www.w3.org/1999/xlink" x="0px" y="0px"
	 width="595.28px" height="136px" viewBox="0 0 595.28 136" enable-background="new 0 0 595.28 136" xml:space="preserve">
<g id="Ebene_15">
	<g>
		<g>
			<g>
				<path fill="#0F4A53" d="M118.663,100.255V83.404c0-0.405,0.121-0.75,0.361-1.038c0.24-0.288,0.54-0.431,0.896-0.431h3.234
					c0.357,0,0.651,0.143,0.885,0.431c0.232,0.288,0.349,0.633,0.349,1.038v29.881c0,3.139,0.248,5.74,0.744,7.808
					c0.045,0.219,0.069,0.494,0.069,0.828c0,0.333-0.143,0.641-0.431,0.921c-0.288,0.279-0.655,0.418-1.105,0.418h-1.141
					c-0.915,0-1.528-0.373-1.839-1.119c-0.403-0.948-0.736-2.198-1-3.752c-1.194,2.532-3.205,4.219-6.028,5.058
					c-0.931,0.265-2.091,0.397-3.479,0.397c-1.387,0-2.77-0.357-4.143-1.072c-1.373-0.714-2.54-1.687-3.502-2.912
					c-1.971-2.548-2.957-5.719-2.957-9.509c0-3.915,0.954-7.163,2.863-9.743c2.063-2.812,4.818-4.219,8.262-4.219
					C114.149,96.389,116.802,97.677,118.663,100.255z M105.537,110.511c0,1.056,0.129,2.09,0.385,3.1
					c0.256,1.01,0.647,1.911,1.175,2.705c1.179,1.802,2.808,2.704,4.887,2.704c1.893,0,3.554-0.823,4.98-2.471
					c1.52-1.708,2.28-3.729,2.28-6.06c0-2.827-0.736-5.096-2.21-6.806c-1.413-1.632-3.149-2.447-5.213-2.447
					c-2.157,0-3.794,1.019-4.911,3.054C105.996,105.997,105.537,108.07,105.537,110.511z"/>
				<path fill="#0F4A53" d="M132.97,98.647c0-1.119,0.536-1.679,1.605-1.679h1.28c0.869,0,1.458,0.325,1.768,0.978
					c0.435,0.933,0.808,2.159,1.117,3.684c1.397-2.548,3.477-4.18,6.237-4.896c0.869-0.232,1.95-0.35,3.246-0.35
					s2.494,0.276,3.596,0.828c1.101,0.551,1.97,1.31,2.607,2.271c1.178,1.756,1.768,4.344,1.768,7.761v14.474
					c0,0.434-0.139,0.799-0.418,1.095s-0.69,0.442-1.234,0.442h-2.28c-0.589,0-1.024-0.146-1.304-0.442s-0.418-0.661-0.418-1.095
					v-14.498c0-3.978-1.458-5.966-4.375-5.966c-1.707,0-3.266,0.714-4.677,2.145c-1.504,1.538-2.258,3.325-2.258,5.361v12.96
					c0,0.434-0.131,0.799-0.395,1.095c-0.264,0.296-0.667,0.442-1.21,0.442h-2.397c-0.543,0-0.954-0.146-1.234-0.442
					s-0.419-0.661-0.419-1.095V107.41c0-3.124-0.101-5.303-0.301-6.539C133.071,99.638,132.97,98.896,132.97,98.647z"/>
				<path fill="#0F4A53" d="M186.124,122.023c0,0.824-0.403,1.236-1.21,1.236h-2.258c-0.605,0-0.97-0.121-1.093-0.361
					c-0.123-0.239-0.194-0.458-0.21-0.652s-0.045-0.431-0.093-0.71c-0.093-0.763-0.224-1.586-0.395-2.471
					c-1.21,2.223-3.111,3.69-5.703,4.405c-0.915,0.248-1.925,0.373-3.026,0.373c-1.102,0-2.203-0.183-3.304-0.548
					c-1.102-0.365-2.08-0.905-2.933-1.619c-1.925-1.615-2.885-3.736-2.885-6.363c0-2.876,1.055-5.074,3.165-6.596
					c1.738-1.229,3.973-1.842,6.703-1.842c2.73,0,5.042,0.8,6.935,2.401c0.045-0.528,0.069-1.189,0.069-1.98
					c0-0.792-0.155-1.586-0.466-2.378c-0.31-0.791-0.752-1.452-1.328-1.979c-1.179-1.042-2.823-1.562-4.935-1.562
					c-1.893,0-3.818,0.52-5.772,1.562c-0.373,0.202-0.698,0.304-0.978,0.304c-0.419,0-0.822-0.413-1.21-1.236
					c-0.419-0.84-0.629-1.445-0.629-1.818c0-0.685,0.512-1.343,1.536-1.979c1.955-1.213,4.57-1.818,7.844-1.818
					c2.979,0,5.447,0.816,7.401,2.447c2.312,1.958,3.468,4.725,3.468,8.298c0,1.586-0.256,3.582-0.768,5.99
					C185.372,116.881,186.063,119.849,186.124,122.023z M170.532,112.13c-0.637,0.475-1.089,0.945-1.361,1.411
					c-0.272,0.467-0.407,1.014-0.407,1.643c0,0.63,0.113,1.189,0.337,1.679c0.224,0.49,0.54,0.897,0.943,1.225
					c0.853,0.669,1.812,1.002,2.875,1.002s1.935-0.125,2.617-0.373s1.272-0.567,1.768-0.956c1.071-0.84,1.605-1.725,1.605-2.657
					c-0.093-1.165-0.736-2.081-1.931-2.75c-1.071-0.621-2.335-0.933-3.794-0.933C172.052,111.42,171.167,111.656,170.532,112.13z"/>
			</g>
			<g>
				<path fill="#0F4A53" d="M224.087,123.675c-1.536,0-2.855-0.232-3.963-0.698c-1.107-0.467-2-1.165-2.679-2.098
					s-1.183-2.042-1.508-3.325c-0.377-1.009-0.629-2.173-0.756-3.497c-0.127-1.323-0.188-2.662-0.188-4.023
					c0-1.386,0.062-2.738,0.188-4.063c0.127-1.323,0.365-2.476,0.719-3.458c0.351-1.334,0.893-2.463,1.623-3.382
					c0.73-0.918,1.661-1.61,2.792-2.077c1.133-0.466,2.467-0.698,4-0.698c1.183,0,2.352,0.208,3.51,0.623
					c1.157,0.415,2.201,1.04,3.133,1.871l-0.83,2.002c-0.905-0.831-1.832-1.417-2.774-1.756c-0.945-0.34-1.957-0.51-3.038-0.51
					c-1.71,0-3.07,0.385-4.076,1.152c-1.006,0.771-1.687,1.871-2.038,3.306c-0.252,0.681-0.433,1.431-0.548,2.249
					c-0.113,0.819-0.188,1.645-0.226,2.476c-0.038,0.832-0.058,1.588-0.058,2.267c0,0.681,0.02,1.429,0.058,2.248
					c0.038,0.817,0.113,1.643,0.226,2.475c0.113,0.831,0.295,1.611,0.548,2.341c0.351,1.336,1.012,2.401,1.98,3.193
					c0.968,0.793,2.258,1.19,3.868,1.19c1.081,0,2.024-0.163,2.829-0.492c0.806-0.325,1.458-0.717,1.963-1.171v-8.691h-3.209v-2.19
					h8.378v2.19h-2.945v9.939c-0.806,0.756-1.766,1.379-2.885,1.871C227.062,123.429,225.696,123.675,224.087,123.675z"/>
				<path fill="#0F4A53" d="M245.811,123.26V96.808h8.64c2.315,0,4.119,0.643,5.415,1.927c1.295,1.284,1.942,3.062,1.942,5.328
					c0,1.787-0.452,3.281-1.359,4.479c-0.905,1.196-2.176,1.982-3.812,2.361c-0.377,0.075-0.466,0.315-0.264,0.716l1.058,1.854
					l3.584,9.786h-2.566l-4.415-12.132h-5.81v12.132h-2.413V123.26z M248.226,109.051h6.113c1.635,0,2.905-0.427,3.812-1.284
					c0.907-0.856,1.359-2.065,1.359-3.627c0-1.688-0.452-2.98-1.359-3.873c-0.905-0.894-2.177-1.342-3.812-1.342h-6.113V109.051z"/>
				<path fill="#0F4A53" d="M272.299,123.26l7.735-26.452h3.548l7.697,26.452h-2.49l-6.34-22.106l-0.301-1.813
					c-0.026-0.202-0.127-0.31-0.302-0.321c-0.177-0.013-0.29,0.093-0.339,0.321l-0.339,1.813l-6.339,22.106H272.299z
					 M275.619,98.923v-2.115h5.018l-0.264,2.115H275.619z M276.184,115.815l0.681-2.117h9.848l0.603,2.117H276.184z"/>
				<path fill="#0F4A53" d="M302.984,123.26V96.808h8.793c2.188,0,3.912,0.655,5.168,1.965c1.258,1.31,1.887,3.073,1.887,5.29
					c0,1.462-0.283,2.72-0.85,3.777c-0.564,1.056-1.377,1.871-2.434,2.438c-1.057,0.565-2.316,0.849-3.773,0.849h-6.379v12.132
					h-2.412V123.26z M305.398,109.051h6.113c1.586,0,2.818-0.433,3.697-1.304c0.881-0.869,1.322-2.071,1.322-3.607
					c0-1.688-0.441-2.98-1.322-3.873c-0.881-0.894-2.113-1.342-3.697-1.342h-6.113V109.051z"/>
				<path fill="#0F4A53" d="M330.707,123.26V96.808h2.451v12.13h11.131v-12.13h2.453v26.452h-2.453v-12.132h-11.131v12.132H330.707z
					"/>
				<path fill="#0F4A53" d="M358.992,123.26v-2.154h4.756V98.961h-4.756v-2.155h11.998v2.155h-4.791v22.145h4.791v2.154H358.992z"/>
				<path fill="#0F4A53" d="M390.152,123.713c-1.459,0-2.742-0.244-3.85-0.736c-1.105-0.492-2.014-1.203-2.715-2.136
					c-0.705-0.933-1.207-2.041-1.51-3.327c-0.377-1.006-0.629-2.165-0.754-3.477c-0.127-1.31-0.188-2.643-0.188-4.004
					c0-1.386,0.061-2.727,0.188-4.024c0.127-1.296,0.379-2.448,0.754-3.457c0.227-0.956,0.566-1.825,1.02-2.606
					c0.453-0.78,1.012-1.436,1.678-1.965c0.668-0.53,1.453-0.933,2.359-1.208c0.904-0.276,1.926-0.415,3.057-0.415
					c1.08,0,2.164,0.208,3.244,0.623s2.092,1.025,3.021,1.833l-0.83,1.927c-0.857-0.756-1.717-1.304-2.586-1.643
					c-0.867-0.34-1.781-0.51-2.734-0.51c-1.611,0-2.902,0.391-3.871,1.173c-0.967,0.779-1.629,1.839-1.979,3.173
					c-0.252,0.731-0.441,1.512-0.566,2.343c-0.125,0.832-0.209,1.663-0.244,2.494c-0.039,0.832-0.057,1.588-0.057,2.267
					c0,0.681,0.02,1.429,0.057,2.248c0.037,0.817,0.119,1.643,0.244,2.475c0.125,0.831,0.314,1.625,0.566,2.381
					c0.35,1.335,0.998,2.398,1.941,3.192c0.943,0.792,2.193,1.19,3.754,1.19c0.854,0,1.615-0.106,2.283-0.321
					c0.664-0.214,1.264-0.498,1.791-0.849c0.529-0.354,1.006-0.771,1.434-1.246l0.795,2.077c-0.885,0.806-1.82,1.429-2.813,1.871
					C392.646,123.492,391.484,123.713,390.152,123.713z"/>
				<path fill="#0F4A53" d="M425.811,123.26V96.808h2.113l11.584,21.502c0.127,0.15,0.244,0.208,0.359,0.17
					c0.113-0.039,0.156-0.145,0.131-0.321l-0.379-2.569V96.81h2.34v26.452h-2.225L428.299,102.1
					c-0.102-0.177-0.215-0.252-0.34-0.226c-0.127,0.025-0.176,0.139-0.15,0.339l0.342,2.381v18.668h-2.34V123.26z"/>
				<path fill="#0F4A53" d="M463.951,123.713c-1.711,0-3.15-0.29-4.32-0.869c-1.17-0.58-2.131-1.423-2.889-2.532
					c-0.451-0.704-0.846-1.517-1.186-2.437c-0.342-0.919-0.586-2.022-0.736-3.306c-0.15-1.286-0.227-2.798-0.227-4.536
					c0-1.765,0.076-3.28,0.227-4.553c0.15-1.271,0.395-2.375,0.736-3.306c0.34-0.931,0.734-1.738,1.186-2.419
					c0.758-1.083,1.719-1.92,2.889-2.514c1.168-0.591,2.609-0.887,4.32-0.887c1.662,0,3.088,0.289,4.283,0.869
					c1.193,0.579,2.156,1.423,2.885,2.531c0.502,0.681,0.904,1.486,1.209,2.419c0.299,0.933,0.527,2.034,0.678,3.307
					c0.15,1.271,0.227,2.789,0.227,4.552c0,1.738-0.076,3.25-0.227,4.536c-0.15,1.283-0.379,2.387-0.678,3.306
					c-0.303,0.92-0.707,1.732-1.209,2.437c-0.73,1.109-1.691,1.954-2.885,2.532C467.039,123.421,465.611,123.713,463.951,123.713z
					 M463.951,121.521c1.309,0,2.416-0.258,3.32-0.775c0.904-0.516,1.596-1.165,2.076-1.946c0.377-0.604,0.678-1.334,0.904-2.193
					c0.225-0.854,0.377-1.831,0.453-2.927c0.074-1.097,0.1-2.312,0.074-3.646c0-1.334-0.043-2.556-0.131-3.665
					s-0.232-2.084-0.434-2.929c-0.203-0.844-0.49-1.568-0.867-2.173c-0.479-0.806-1.17-1.461-2.076-1.965
					c-0.904-0.504-2.014-0.756-3.32-0.756c-1.332,0-2.451,0.252-3.359,0.756c-0.904,0.504-1.596,1.159-2.074,1.965
					c-0.404,0.579-0.705,1.298-0.906,2.154c-0.201,0.857-0.338,1.838-0.414,2.947c-0.074,1.109-0.113,2.331-0.113,3.665
					c0,1.335,0.039,2.55,0.113,3.646c0.076,1.096,0.215,2.072,0.414,2.927c0.203,0.859,0.504,1.59,0.906,2.193
					c0.477,0.779,1.168,1.429,2.074,1.946S462.617,121.521,463.951,121.521z"/>
				<path fill="#0F4A53" d="M490.863,123.26l-7.547-26.452h2.49l6.225,21.992l0.264,1.889c0.025,0.177,0.107,0.264,0.246,0.264
					c0.137,0,0.219-0.087,0.244-0.264l0.264-1.889l6.225-21.992h2.492l-7.586,26.452H490.863z"/>
				<path fill="#0F4A53" d="M513.51,123.26V96.808h14.943v2.229h-12.678v9.938h12.037v2.117h-12.037v9.938h12.678v2.23H513.51z"/>
				<path fill="#0F4A53" d="M540.828,123.26V96.808h2.453v24.222h9.924v2.23H540.828z"/>
				<path fill="#0F4A53" d="M571.953,123.637c-1.459,0-2.881-0.226-4.264-0.681c-1.383-0.452-2.604-1.081-3.658-1.889l0.867-2.002
					c1.031,0.756,2.15,1.341,3.359,1.758c1.207,0.417,2.414,0.623,3.623,0.623c1.959,0,3.477-0.51,4.545-1.53
					c1.07-1.02,1.604-2.347,1.604-3.988c0-1.283-0.371-2.412-1.113-3.381s-1.941-1.567-3.604-1.794l-2.301-0.304
					c-1.41-0.174-2.611-0.541-3.604-1.095s-1.756-1.304-2.283-2.248c-0.527-0.945-0.791-2.084-0.791-3.419
					c0-1.411,0.346-2.659,1.037-3.742c0.691-1.084,1.684-1.939,2.98-2.57c1.295-0.629,2.811-0.944,4.547-0.944
					c0.754,0,1.514,0.075,2.281,0.229c0.768,0.152,1.508,0.365,2.227,0.643c0.719,0.278,1.377,0.605,1.98,0.982l-0.754,1.929
					c-0.881-0.554-1.813-0.95-2.789-1.19c-0.982-0.238-1.951-0.359-2.906-0.359c-1.258,0-2.354,0.214-3.283,0.643
					c-0.932,0.429-1.648,1.008-2.152,1.738s-0.754,1.573-0.754,2.532c0,1.008,0.195,1.833,0.584,2.477
					c0.389,0.641,0.926,1.127,1.604,1.454c0.678,0.325,1.473,0.554,2.377,0.681l2.264,0.302c1.484,0.177,2.729,0.593,3.734,1.248
					c1.006,0.654,1.775,1.506,2.303,2.55c0.529,1.046,0.793,2.236,0.793,3.569c0,1.538-0.334,2.892-1,4.064
					c-0.666,1.17-1.629,2.083-2.885,2.738C575.262,123.31,573.74,123.637,571.953,123.637z"/>
			</g>
		</g>
		<g>
			<path fill="#0F4A53" d="M80.553,14.977c-0.44-0.771-1.129-1.254-1.921-1.59c-0.917-0.389-1.865-0.5-2.873-0.406
				c-1.326,0.121-2.526,0.591-3.73,1.085c-1.645,0.673-3.175,1.579-4.788,2.317c-0.707,0.324-1.423,0.649-2.167,0.861
				c-0.895,0.254-1.824,0.304-2.762,0.188c-0.96-0.119-1.891-0.369-2.826-0.595c-0.772-0.187-1.524-0.463-2.302-0.611
				c-1.076-0.206-2.157-0.435-3.266-0.361c-1.232,0.083-2.451,0.23-3.637,0.604c-0.71,0.222-1.405,0.472-2.08,0.796
				c-1.043,0.502-1.996,1.141-2.883,1.875c-1.562,1.291-2.883,2.802-4.014,4.486c-1.098,1.629-1.905,3.391-2.459,5.268
				c-0.234,0.794-0.371,1.615-0.553,2.425c-0.183,0.808-0.363,1.617-0.558,2.425c-0.194,0.806-0.377,1.615-0.613,2.411
				c-0.28,0.94-0.569,1.881-0.931,2.792c-0.403,1.021-0.851,2.032-1.349,3.01c-0.661,1.298-1.455,2.521-2.363,3.663
				c-0.716,0.901-1.427,1.806-2.183,2.673c-0.867,0.994-1.762,1.969-2.832,2.754c-0.477,0.35-0.988,0.649-1.475,0.984
				c-0.75,0.519-1.54,0.979-2.222,1.592c-0.786,0.704-1.457,1.496-1.982,2.417c-0.812,1.418-1.242,2.958-1.478,4.56
				c-0.115,0.786-0.193,1.577-0.288,2.367c-0.06,0.492-0.21,0.946-0.442,1.391c-0.327,0.629-0.583,1.294-0.875,1.943
				c-0.474,1.054-0.839,2.145-1.113,3.266c-0.224,0.921-0.478,1.836-0.542,2.788c-0.062,0.885-0.171,1.78-0.173,2.673
				c-0.004,1.631,0.185,3.248,0.627,4.82c0.5,1.779,1.208,3.476,2.169,5.071c0.808,1.34,1.806,2.492,3.018,3.461
				c1.006,0.804,2.104,1.474,3.225,2.107c0.647,0.366,1.28,0.76,1.925,1.129c0.351,0.202,0.706,0.404,1.079,0.563
				c0.369,0.158,0.556,0.377,0.554,0.802c-0.002,0.543,0.03,1.089,0.052,1.633c-0.016,1.661-0.129,3.437-0.218,4.19l-0.034,0.282
				c-0.065,0.548-0.131,1.099-0.173,1.652c-0.034,0.431,0.038,0.886,0.22,1.431c0.006,0.021,0.016,0.042,0.026,0.06
				c0.373,0.663,1.125,1.067,2.014,1.086c0.02,0,0.042,0.002,0.062,0.002c0.688,0,1.266-0.25,1.518-0.657
				c0.385-0.623,0.347-1.115,0.313-1.548c-0.01-0.125-0.02-0.254-0.02-0.391c0.006-0.625-0.139-1.24-0.429-1.823l-0.06-0.121
				c-0.139-0.272-0.268-0.532-0.353-0.798c-0.157-0.5-0.216-1.584-0.198-2.558c0-0.01,0.006-0.012,0.006-0.022
				c0.002-0.067,0.002-0.137,0.002-0.204c0.012-0.353,0.034-0.685,0.067-0.956c0.065-0.183,0.187-0.28,0.357-0.312
				c0.036,0,0.066-0.014,0.1-0.021c0.099-0.002,0.208,0.015,0.333,0.048c1.546,0.433,3.098,0.84,4.693,1.056
				c0.453,0.062,0.903,0.131,1.355,0.194c1.332,0.188,2.673,0.153,4.004,0.063c0.699-0.047,1.391-0.17,2.083-0.297
				c0.925-0.159,1.264-0.084,1.465,0.345c0.202,0.435,0.565,1.147,0.682,1.769c0.157,0.829,0.076,1.648-0.252,2.5
				c-0.101,0.268-0.252,0.523-0.409,0.793l-0.058,0.1c-0.325,0.563-0.506,1.171-0.54,1.796c-0.038,0.723,0.008,1.315,0.147,1.867
				c0.424,1.7,0.399,3.454,0.333,5.107c-0.042,1.036-0.109,2.06-0.202,3.28c-0.034,0.444-0.089,0.889-0.143,1.331l-0.127,1.044
				c-0.042,0.317-0.081,0.633-0.109,0.95c-0.104,1.175-0.335,2.082-0.732,2.855c-0.494,0.958-1.161,1.562-2.038,1.846
				c-0.77,0.248-1.574,0.444-2.46,0.601c-1.028,0.185-2.058,0.431-3.054,0.669l-0.181,0.044c-0.306,0.073-0.582,0.204-0.85,0.331
				l-0.111,0.052c-0.365,0.171-0.633,0.467-0.776,0.857c-0.085,0.232-0.034,0.474,0.135,0.617c0.151,0.131,0.367,0.146,0.546,0.047
				c0.325-0.174,0.677-0.162,1.091-0.154c0.187,0.01,0.369,0.012,0.556,0l0.359-0.025c0.308-0.026,0.609-0.052,0.925-0.036
				c0.679,0.02,1.355,0.067,2.032,0.115l0.48,0.031c0.518,0.036,1.036,0.074,1.554,0.129c1.103,0.115,1.942,0.369,2.663,0.81
				c0.383,0.234,0.714,0.435,0.824,0.824c0.043,0.152,0.143,0.264,0.214,0.343c0.176,0.2,0.351,0.244,0.472,0.244
				c0.038,0,0.073-0.004,0.099-0.01c0.109-0.021,0.306-0.107,0.401-0.405c0.256-0.812,0.875-1.145,1.792-1.418
				c1.139-0.344,2.314-0.383,3.419-0.396c0.296-0.004,0.589-0.002,0.885-0.002c0.347,0.004,0.698,0.002,1.047-0.002
				c0.578-0.012,1.155-0.043,1.734-0.075c0.367-0.018,0.758,0.042,1.214,0.194c0.123,0.038,0.472,0.086,0.627-0.169
				c0.107-0.18,0.083-0.412,0.014-0.56c-0.212-0.46-0.599-0.785-1.119-0.95c-0.494-0.154-1.08-0.331-1.685-0.466
				c-1.252-0.282-2.385-0.53-3.536-0.742c-0.802-0.147-1.571-0.401-2.355-0.782c-0.532-0.258-0.938-0.671-1.244-1.262
				c-0.319-0.617-0.472-1.219-0.468-1.834c0.002-0.239-0.018-0.479-0.04-0.72c-0.022-0.248-0.043-0.492-0.036-0.738
				c0.036-1.044,0.107-2.085,0.181-3.125c0.045-0.659,0.107-1.317,0.168-1.975l0.06-0.641c0.139-1.517,0.284-3.086,0.615-4.59
				c0.097-0.435,0.276-0.875,0.448-1.302l0.052-0.127c0.214-0.531,0.312-0.984,0.306-1.415c-0.008-0.571-0.042-1.143-0.076-1.714
				l-0.014-0.229c-0.078-1.323-0.104-2.615,0.424-3.842c0.486-1.133,1.064-2.025,1.764-2.732c0.464-0.464,1.951-1.575,2.729-1.895
				l0.002-0.002c0.728-0.292,1.455-0.588,2.153-0.938c1.161-0.584,2.306-1.217,3.333-2.028c0.663-0.523,1.337-1.035,1.958-1.605
				c0.661-0.606,1.23-1.303,1.754-2.035c1.135-1.582,1.952-3.314,2.522-5.177c0.268-0.88,0.46-1.772,0.609-2.669
				c0.129-0.782,0.145-1.584,0.171-2.38c0.024-0.762,0.01-1.525-0.012-2.287c-0.03-1.036-0.214-2.054-0.435-3.063
				c-0.319-1.46-0.786-2.869-1.452-4.21c-0.234-0.469-0.44-0.951-0.661-1.427c-0.24-0.524-0.22-1.096-0.264-1.647
				c-0.073-0.915-0.244-1.81-0.393-2.71c-0.155-0.943-0.428-1.85-0.79-2.727c-0.756-1.836-1.937-3.324-3.651-4.357
				c-0.593-0.357-1.177-0.736-1.776-1.082c-0.624-0.358-1.06-0.898-1.443-1.476c-0.681-1.028-1.091-2.165-1.347-3.374
				c-0.284-1.333-0.403-2.677-0.379-4.033c0.023-1.296,0.216-2.563,0.771-3.751c0.49-1.046,1.197-1.91,2.118-2.617
				c1.109-0.849,2.313-1.523,3.599-2.056c0.671-0.277,1.345-0.558,2.04-0.756c0.712-0.204,1.446-0.363,2.181-0.45
				c0.98-0.117,1.964-0.03,2.911,0.27c1.288,0.407,2.566,0.846,3.848,1.272c1.25,0.416,2.498,0.845,3.754,1.246
				c0.498,0.158,1.014,0.273,1.548,0.244c0.256-0.015,0.321-0.09,0.222-0.316c-0.115-0.26-0.252-0.52-0.431-0.739
				c-0.582-0.721-1.298-1.274-2.123-1.697c-1.087-0.556-2.225-0.978-3.387-1.343c-1.225-0.388-2.445-0.79-3.655-1.227
				c-0.974-0.352-1.915-0.79-2.696-1.484c-0.298-0.266-0.566-0.589-0.768-0.933c-0.692-1.173-0.925-2.435-0.554-3.764
				c0.175-0.625,0.532-1.169,0.966-1.651c0.615-0.681,1.308-1.275,2.042-1.821c1.929-1.431,3.847-2.873,5.8-4.271
				c0.671-0.479,1.411-0.871,2.147-1.248c0.986-0.506,1.943-0.702,3.115-0.7c0.591-0.036,1.288,0.05,1.927,0.425
				c0.072,0.041,0.155,0.067,0.238,0.087c0.131,0.03,0.207-0.048,0.179-0.167C80.688,15.284,80.635,15.119,80.553,14.977z
				 M22.376,61.989c-0.274,0.272-0.46,0.302-0.742,0.067c-0.187-0.343-0.002-0.426,0.069-0.591c1.881-2.475,2.018-5.896,4.683-7.816
				c0.032-0.029,0.056-0.067,0.087-0.097c0.02-0.019,0.045-0.017,0.073-0.03c0.044-0.029,0.076-0.065,0.119-0.095
				c0.095,0.06,0.111,0.166,0.119,0.212C26.793,56.991,24.621,59.733,22.376,61.989z M58.304,53.657
				c0.333-0.029,0.732,0.519,1,0.744c1.931,2.532,3.282,5.274,4.56,8.233c0.021,0.162,0.093,0.56-0.437,0.623
				c-0.667-0.34-1.151-1.244-1.738-1.796c-0.615-0.651-1.268-1.321-1.76-2.09c-1.23-1.45-1.016-3.508-1.673-5.141
				C58.236,54.057,58.046,53.755,58.304,53.657z M55.683,20.884c-0.1,0.317-0.857,0.573-1.3,0.573c-0.528,0-0.903-0.192-1.08-0.306
				c-0.149-0.096-0.218-0.244-0.165-0.365c0.038-0.083,0.145-0.16,0.333-0.102c0.728,0.201,1.042,0.144,1.44,0.042
				c0.063-0.018,0.129-0.037,0.194-0.06c0.113-0.033,0.228-0.067,0.343-0.095c0.034-0.01,0.133-0.044,0.21,0.031
				C55.736,20.681,55.708,20.8,55.683,20.884z M53.288,19.479c0-0.296,0.252-0.823,0.758-0.823c0.278,0,0.609,0.109,0.609,0.631
				c0,0.5-0.411,0.77-0.798,0.77C53.506,20.056,53.288,19.834,53.288,19.479z M55.986,18.524c-0.043,0.058-0.153,0.131-0.383-0.021
				c-0.46-0.307-1.065-0.404-1.615-0.258c-0.688,0.187-1.28,0.742-1.707,1.607C52.236,19.947,52.141,20,52.031,20
				c-0.043,0-0.087-0.01-0.131-0.027c-0.161-0.063-0.24-0.218-0.194-0.379c0.095-0.331,0.278-0.675,0.54-1.02
				c0.53-0.699,1.411-1.115,1.958-1.115c0.556,0,1.04,0.054,1.776,0.754C56.042,18.274,56.058,18.437,55.986,18.524z M73.584,32.887
				c0.02,0.021,0.205,0.154,0.036,0.379c-0.145,0.104-0.196,0.069-0.264,0.077c-0.744-0.071-2.393-0.55-3.129-0.736
				c-3.48-1.096-7.651-1.917-10.211-4.685c-0.121-0.117-0.208-0.266-0.317-0.396c-0.185-0.226-0.385-0.432-0.548-0.685
				c-0.31-0.375-0.355-1.641,0.332-1.067C62.734,30.249,68.792,30.893,73.584,32.887z M75.142,14.246
				c-5.091,2.675-10.088,5.992-14.803,9.155c-0.075,0.032-0.196,0.143-0.45,0.018c-0.238-0.192-0.165-0.373-0.159-0.452
				c1.792-2.404,4.998-3.335,7.374-5.149c0.179-0.129-0.026-0.31-0.205-0.337c-0.198-0.067-0.98-0.006-0.589-0.409l0.27-0.125
				c0.266-0.125,0.8-0.385,1.062-0.518c0.175-0.06,0.337-0.264,0.565-0.025c0.014,0.035,0.04,0.063,0.04,0.063
				c-0.06,0.018,0.25-0.155,0.379-0.234c1.839-1.096,3.81-2.278,6.002-2.504c0.103-0.034,0.315-0.008,0.464,0.021
				C75.364,13.887,75.253,14.215,75.142,14.246z"/>
		</g>
	</g>
</g>
</svg>
