<?xml version="1.0" encoding="UTF-8"?><svg id="Ebene_3" xmlns="http://www.w3.org/2000/svg" viewBox="0 0 930 650"><defs><style>.cls-1{fill:#2e3b4b;}.cls-2{fill:#4e5e70;}</style></defs><rect class="cls-1" width="930" height="650"/><path class="cls-2" d="M0,63.5s205.3-1.4,350.4-22.1c145.1-20.7,156.1-44.2,281.9-1.4,125.7,42.8,297.7,53.9,297.7,53.9V0H0V63.5Z"/><polygon class="cls-2" points="687.5 396 930.5 384.2 930.5 399.4 687.5 396"/><polygon class="cls-2" points="461.2 645.6 0 648.4 0 632.5 461.2 645.6"/><path class="cls-2" d="M0,347.1s152.6,10.1,233.6,6.8C118.8,345.4,0,338.6,0,338.6v8.4Z"/><path class="cls-2" d="M0,332.7s53,5.1,98.6,5.1c-45.6,6.8-98.6,8.4-98.6,8.4v-13.5Z"/></svg>