<?xml version="1.0" encoding="UTF-8"?>
<svg id="deGerlach" xmlns="http://www.w3.org/2000/svg" viewBox="0 0 3720 2600">
  <defs>
    <style>
      .cls-1 {
        fill: none;
        stroke: #1d1d1b;
        stroke-width: 5px;
      }

      .cls-1, .cls-2 {
        stroke-miterlimit: 10;
      }

      .cls-2 {
        fill: #1d1d1b;
        stroke: #a5cfdb;
        stroke-width: 13px;
      }
    </style>
  </defs>
  <path class="cls-1" d="M3341.98,1838.94s10.4-19.03,24.24-39.79c13.84-20.76,50.17-38.06,57.09-70.93,6.92-32.87-43.25-84.77-57.09-147.04-13.84-62.28-60.55-124.55-103.79-178.18-43.25-53.63-126.28-69.2-177.32-64.47-51.03,4.73-97.74,24.68-121.96,35.06s-65.74,22.49-74.39,46.71-3.46,36.33-8.65,84.93c-5.19,48.6-19.03,55.2-19.03,81.14s31.14,29.41,55.84,41.98c24.7,12.57,11.63,13.38,34.12,26.35,22.49,12.97,64.01,89.09,76.12,127.15,12.11,38.06,8.65,91.69,3.46,133.2-5.19,41.52-17.3,22.49-15.57,58.82,1.73,36.33,17.3,32.87,46.71,34.6s72.66,1.73,95.18,0,51.86-24.22,76.08-25.95c24.22-1.73,41.98-30.64,87.38-41.02,17.16,44.42,44,53.37,76.81,89.16,32.81,35.79,108.6,105.17,133.4,166.58,40.04,99.16,25.01,135.47,36.32,306.13,2.02,30.52,5.74,60.51,9.64,90.31"/>
  <polyline class="cls-2" points="3097.33 2009.39 3143.8 1987.3 3144.5 2027.53 3097.33 2009.39"/>
  <polyline class="cls-2" points="3165.33 1344.58 3115.61 1357.86 3122.24 1318.16 3165.33 1344.58"/>
</svg>