<?xml version="1.0" encoding="utf-8"?>
<!-- Generator: Adobe Illustrator 26.4.1, SVG Export Plug-In . SVG Version: 6.00 Build 0)  -->
<svg version="1.1" id="Ebene_1" xmlns="http://www.w3.org/2000/svg" xmlns:xlink="http://www.w3.org/1999/xlink" x="0px" y="0px"
	 viewBox="0 0 100 100" style="enable-background:new 0 0 100 100;" xml:space="preserve">
<style type="text/css">
	.st0{fill:#000001;}
	.st1{fill:#236478;}
	.st2{fill:#246579;}
	.st3{fill:#FEFEFE;}
	.st4{fill:#25667A;}
	.st5{fill:#266072;}
	.st6{fill:#F2F2F2;}
	.st7{fill:#E7E7E7;}
	.st8{fill:#245868;}
	.st9{fill:#0B1216;}
	.st10{fill:#070809;}
	.st11{fill:#255364;}
	.st12{fill:#205A6A;}
	.st13{fill:#285969;}
	.st14{fill:#264754;}
	.st15{fill:#254B57;}
	.st16{fill:#246578;}
	.st17{fill:#FDFDFD;}
	.st18{fill:#256579;}
	.st19{fill:#266579;}
	.st20{fill:#FCFDFD;}
	.st21{fill:#FCFCFC;}
	.st22{fill:#256477;}
	.st23{fill:#FAFAFA;}
	.st24{fill:#266476;}
	.st25{fill:#255F71;}
	.st26{fill:#256072;}
	.st27{fill:#27687C;}
	.st28{fill:#296A7D;}
	.st29{fill:#286274;}
	.st30{fill:#EAEBEB;}
	.st31{fill:#266272;}
	.st32{fill:#255F70;}
	.st33{fill:#295867;}
	.st34{fill:#276072;}
	.st35{fill:#245B6C;}
	.st36{fill:#112A33;}
	.st37{fill:#295667;}
	.st38{fill:#183E4A;}
	.st39{fill:#1F3641;}
	.st40{fill:#1A4350;}
	.st41{fill:#1C3B46;}
	.st42{fill:#204D5B;}
	.st43{fill:#050709;}
	.st44{fill:#225463;}
	.st45{fill:#0E1C21;}
	.st46{fill:#070E11;}
	.st47{fill:#286577;}
	.st48{fill:#306477;}
	.st49{fill:#295868;}
	.st50{fill:#0C1216;}
	.st51{fill:#070D13;}
	.st52{fill:#1F4653;}
	.st53{fill:#215363;}
	.st54{fill:#286E82;}
	.st55{fill:#276479;}
	.st56{fill:#090B0D;}
	.st57{fill:#0C0F13;}
	.st58{fill:#2C4B55;}
	.st59{fill:#0F1317;}
	.st60{fill:#246275;}
	.st61{fill:#256376;}
	.st62{fill:#050A0C;}
	.st63{fill:#225768;}
	.st64{fill:#091014;}
	.st65{fill:#10171B;}
	.st66{fill:#132027;}
	.st67{fill:#1E4957;}
	.st68{fill:#295F72;}
	.st69{fill:#122026;}
	.st70{fill:#0A0C0F;}
	.st71{fill:#1A4452;}
	.st72{fill:#22424E;}
	.st73{fill:#162C35;}
	.st74{fill:#17262C;}
	.st75{fill:#182F3B;}
	.st76{fill:#1F3C44;}
	.st77{fill:#214856;}
	.st78{fill:#152D38;}
	.st79{fill:#0B1217;}
	.st80{fill:#0E1415;}
	.st81{fill:#0F1A20;}
	.st82{fill:#256578;}
	.st83{fill:#EDEDED;}
	.st84{fill:#111C23;}
	.st85{fill:#0E1E25;}
	.st86{fill:#0D1419;}
	.st87{fill:#080D0F;}
	.st88{fill:#204C5A;}
	.st89{fill:#25576A;}
	.st90{fill:#1B3E4A;}
	.st91{fill:#0C1217;}
	.st92{fill:#234653;}
	.st93{fill:#10181C;}
	.st94{fill:#0F181C;}
	.st95{fill:#0D151B;}
	.st96{fill:#122A36;}
	.st97{fill:#29586B;}
	.st98{fill:#286C80;}
	.st99{fill:#24464C;}
	.st100{fill:#091316;}
	.st101{fill:#06090B;}
	.st102{fill:#010101;}
	.st103{fill:#020202;}
	.st104{fill:#020304;}
	.st105{fill:#F6F7F8;}
	.st106{fill:#0C181E;}
	.st107{fill:#236376;}
	.st108{fill:#B2C3C7;}
	.st109{fill:#040608;}
	.st110{fill:#030507;}
	.st111{fill:#040406;}
	.st112{fill:#1F5B6E;}
	.st113{fill:#FBFBFB;}
	.st114{fill:#F6F7F7;}
	.st115{fill:#020405;}
	.st116{fill:#030608;}
</style>
<rect width="100" height="100"/>
<g>
	<path class="st0" d="M65.9,41.1C65.9,41.1,65.9,41.1,65.9,41.1c-0.3,0.4-0.1,0.8-0.3,1.1c0,0.2-0.1,0.4-0.1,0.6
		c0,0.3-0.2,0.6-0.2,1c-0.2,0.6-0.1,1.1-0.1,1.7c0,0.1,0,0.3-0.2,0.4c-0.2,0-0.3-0.1-0.3-0.2c0.1,0.3,0,0.7,0.2,1
		c0.2,0.2,0.1,0.5-0.2,0.6c-0.3,0.1-0.5-0.1-0.5-0.3C64,46.6,64,46.3,64,46.1c0-0.3-0.1-0.6-0.5-0.5c-0.5,0.1-0.8-0.1-1.2-0.3
		c-0.7-0.6-1.6-1-2.5-1.3c-0.2-0.1-0.2-0.3-0.2-0.5c0.1-0.6-0.3-0.7-0.8-0.8c-0.5-0.1-1-0.1-1.5,0c-1.9,0.1-3.8,0.1-5.7,0
		c-0.1,0-0.2,0-0.2-0.1c-0.2-0.1-0.1-0.2-0.2-0.4c-0.2,0.1-0.2,0.2-0.3,0.3c-0.4,0.2-0.5,0.5-0.6,0.9c-0.1,0.7-0.2,1.5-0.1,2.2
		c0,0.3,0.2,0.2,0.4,0.2c0.7,0,1.3-0.1,2,0.1c0.5,0.3,1.1,0.3,1.6,0c0.5-0.1,0.9-0.1,1.4-0.1c0.2,0,0.6,0,0.5,0.3
		c0,0.3-0.3,0.3-0.5,0.3c-1.5,0-3,0.3-4.6,0.3c-0.1,0-0.3,0-0.4,0c-0.3,0-0.8-0.1-0.8,0.4c0,0.7,0.2,1,0.8,1
		c1.2,0.1,2.3,0.2,3.5,0.1c0.1,0,0.2,0,0.3,0c0.3,0,0.6,0.1,0.6,0.4c0,0.3-0.3,0.4-0.6,0.4c-0.7,0.1-1.3,0-2,0c-0.9,0-1.8,0-2.8,0
		c-0.2,0-0.4,0-0.6,0.1c-0.2,0.1-0.3,0.3-0.2,0.5c0.1,0.2,0.3,0.3,0.5,0.3c0.8,0,1.6,0.2,2.4,0.2c2.2,0.1,4.5,0.3,6.7,0
		c0.3,0,0.5-0.1,0.8,0c0.3,0.4,0.1,0.9,0,1.3c-0.3,1-0.1,2-0.1,2.9c0,0.3,0.3,0.5,0.5,0.6c0.2,0.1,0.5,0.2,0.7,0.2
		c0.3-0.7,0.3-1.4,0.1-2.1c0-0.2-0.1-0.4,0-0.6c0.2-0.9-0.1-1.6-0.5-2.3c0.1-0.3,0.4-0.3,0.6-0.3c0.2,0,0.5,0,0.8-0.1
		c0-0.3-0.3-0.3-0.4-0.4c-0.4-0.3-0.6-0.7-0.7-1.1c-0.2-1-0.1-2,0-2.9c0.2-0.1,0.3,0,0.4,0.1c0.2,0.2,0.3,0.4,0.3,0.6
		c0,0.7,0.3,1.2,0.7,1.8c0.4,0.6,0.5,1.4,0.5,2.1c0.1,1.2,0.2,2.4,0.2,3.6c0,0.2,0,0.4-0.1,0.6c-0.1,0.3-0.3,0.1-0.5,0
		c0,0.3,0.4,0.4,0.5,0.6c0.1,0.2,0.1,0.3,0.1,0.5c0,2.3,0.3,4.6,0.1,6.8c0,0.1-0.3,0.3,0.1,0.4c0,0.1,0.1,0.2,0.1,0.3
		c0,1.9,0.3,3.8,0.1,5.8c0,0.1,0,0.2-0.1,0.3c-0.5,0.5-0.9,0.5-1.1-0.2c-0.1-0.4-0.3-0.6-0.8-0.5c-0.3,0.1-0.5,0.1-0.8-0.1
		c-0.1-0.2-0.1-0.3,0-0.5c0.1-0.2,0.3-0.3,0.5-0.4C58.8,67.9,57,68,55.3,69c-0.5,0.3-1,0.5-1.4,0.9c-0.1,0.1-0.3,0.2-0.5,0.2
		c-0.1,0-0.2-0.1-0.2-0.2c0.3-0.7,1-1,1.6-1.3c0.1-0.1,0.5-0.1,0.1-0.3c-0.2-0.1-0.4-0.1-0.4-0.4c0.1-0.1,0.2-0.2,0.3-0.2
		c0.5,0.1,0.7-0.2,0.9-0.6c0.6,0.1,1.1,0.3,1.7,0.3c0.6,0,1-0.2,1.4-0.6c0.2,0,0.2,0.2,0.3,0.3c0.4,0.2,0.8-0.1,0.8-0.5
		c0-0.2,0-0.3,0.1-0.5c0.1-0.1,0.2-0.1,0.2,0c0,0,0.1,0.1,0.1,0.1c0.2,0.2,0.4,0.1,0.6,0.1c0.1,0,0.4,0.1,0.4-0.1
		c0.1-0.2-0.3-0.1-0.3-0.3c0-0.1,0-0.2,0-0.3c0.3-0.2,0.2-0.4,0-0.6c-0.7-0.7-0.7-2-0.2-2.8c0.3-0.5,0.1-1-0.1-1.4
		c-0.1-0.2-0.2-0.3-0.2-0.5c0-0.3,0.2-0.6-0.2-0.7c-0.4-0.2-0.8-0.2-1.2,0.1c-0.1,0.1,0,0-0.1,0c-0.4-0.2-0.6,0.1-0.7,0.4
		c-0.1,0-0.1,0-0.2,0c-0.2-0.2-0.4-0.1-0.6-0.1c-0.2,0.1-0.4,0.1-0.6,0.1c-0.4-0.1-0.8-0.1-1.1,0.2c-0.2,0.2-0.4,0.2-0.6,0.1
		C55,60,54.6,60,54.2,60.1c-0.1,0-0.3,0-0.5,0c-0.2-0.1-0.3-0.2-0.4-0.4c-0.1-0.3,0.2-0.3,0.3-0.3c-0.2-0.1-0.6,0.4-0.6-0.3
		c0.4-0.2,0.7-0.1,1.1-0.1c1.7,0,3.4,0,5.1-0.4c1.3-0.3,1.4-0.4,0.7-1.5c-0.2-0.4-0.5-0.6-0.8-0.8c-0.8-0.3-1.2-1-1.2-1.9
		c0-0.9,0-1.7,0-2.6c0-0.4-0.1-0.5-0.5-0.5c-1.5,0.1-3,0.2-4.5,0.2c-0.5,0-0.8,0.2-0.8,0.7c0,0.2,0,0.5,0,0.7
		c-0.1,0.6-0.5,0.7-1,0.5c-0.2-0.1-0.5-0.3-0.7-0.5c-0.2-0.2-0.1-0.5-0.1-0.7c0,0.1,0,0.3-0.1,0.4c-0.1,0.2-0.3,0.2-0.4,0.3
		c-0.2,0-0.4,0.2-0.5,0.4c-0.1,0.1-0.2,0.1-0.3,0.2c0,0.1,0,0.3-0.2,0.3c-0.5-0.5-0.5-1.1,0.1-1.4c0.3-0.1,0.7-1,0.6-1.3
		C49.5,51,49.4,51,49.2,51c-0.3,0-0.7,0.1-1,0.1c-0.5,0.1-0.7-0.1-0.7-0.7c0-0.8-0.1-0.9-0.9-1c-0.7-0.1-1.3,0.1-1.7,0.6
		c-0.1,0.1-0.3,0.2-0.2,0.4c0.1,0.9-0.4,1.6-0.4,2.5c0,0.5-0.2,0.8-0.7,0.8c-0.2,0-0.4,0.2-0.6,0c-0.2-0.7,0.1-1.3,0.2-1.9
		c0.1-1,0.2-2,0.6-2.9c0.3-0.8,0.9-1.3,1.8-1.5c0.3-0.1,0.7-0.1,1-0.3c0.2-0.1,0.4-0.3,0.2-0.5c-0.1-0.2-0.3,0-0.5,0
		c-0.7,0.3-1.4,0.4-2,0.9c-0.4,0.3-0.7,0.7-0.8,1.2c-0.6,2.6-1.2,5.3-1.4,8c-0.2,2.4-0.6,4.9-0.9,7.3c0,0.3-0.1,0.6-0.4,0.5
		c-0.3,0-0.3-0.4-0.3-0.6c-0.1-1,0.2-1.9,0.3-2.8c0.4-3.1,0.7-6.2,1.2-9.2c0.2-1.2,0.3-2.5,0.5-3.7c0.2-1.2,0.9-2,2-2.4
		c0.4-0.2,0.7-0.4,0.9-0.7c0.1-0.1,0.1-0.4-0.1-0.4c-0.7,0.1-1.4-0.3-2,0.2c-0.2,0.1-0.3,0.2-0.5,0.3c-0.2,0.1-0.4,0.1-0.6-0.1
		c-0.4-0.8-0.1-1.2,0.8-1.2c0.7,0,1.5-0.1,2.2,0c0.2,0,0.4-0.1,0.6-0.3c0.4-0.3,0.6-0.1,0.8,0.3c0.2,0.5,0.3,0.9-0.1,1.4
		c0.6,0.1,1.1,0.3,1.5-0.2c0.2-0.2,0.4-0.2,0.6-0.1c0,0,0.1,0.1,0.1,0.1c0.1,0.1,0,0,0-0.1c0-0.1,0-0.3,0-0.4c0-0.2,0-0.3,0-0.5
		c0-0.1,0,0,0-0.1c0,0,0,0.1,0,0.1c0,0.2,0,0.4-0.2,0.5c-0.7,0-0.9-0.3-0.5-0.9c0.3-0.5,0.3-1,0.9-1.3c0.2-0.1,0.2-0.3-0.1-0.3
		c-0.4,0-0.7-0.1-1.1,0.1c-0.6,0.3-1.2,0.1-1.2-0.6c-0.1-0.9-0.2-1.9-0.1-2.8c0-0.1,0.1-0.1,0-0.2c0,0.1-0.1,0.1-0.1,0.1
		c-0.1,0-0.2,0-0.4,0c-0.3-0.2-0.6-0.1-0.9-0.3c-0.1-0.2,0-0.3,0.2-0.3c0.3-0.1,0.7,0,1-0.2c0.5,0,0.9,0,1.4,0c1.3,0,2.7,0,4,0
		c0.1,0,0.2,0,0.2,0c0.4,0.1,0.8,0.1,1.2,0.1c2.2-0.2,4.3,0.3,6.6,0.2c-1.1-0.8-3.4-1.6-4.7-1.8c-0.8-0.1-0.9-0.1-0.9-0.9
		c-0.2-2.3-1.7-3.7-4.1-3.8c-0.5,0-0.7,0.2-0.5,0.7c0.3,0.7,0.7,1.4,1.1,2c0.1,0.2,0.2,0.3,0.3,0.5c-0.4-0.7-0.9-1.3-1.2-2
		c-0.1-0.3-0.3-0.5-0.1-0.8c0.2-0.3,0.5-0.2,0.8-0.2c1.7,0.3,3.3,1.5,3.3,4c0,0.6,0.5,0.7,0.9,0.9c0,0.1,0,0.1-0.1,0.2
		c-0.1,0-0.1,0.1-0.2,0.1c-1,0.1-1.9-0.1-2.9,0c-1.2,0-2.4,0-3.6,0c-0.1,0,0,0-0.1,0c0,0,0,0,0,0c1.2,0,2.3,0,3.5,0c0.5,0,1,0,1.6,0
		c0.2,0,0.4,0,0.6,0.1c0.2,0.1,0.3,0.2,0.3,0.4c0,0.2-0.2,0.2-0.4,0.2c-0.3,0-0.6,0-0.8,0c-0.3-0.1-0.6-0.1-0.9-0.2
		c-0.2-0.4-0.5-0.2-0.8-0.3c0.2,0.2,0.6-0.2,0.6,0.3c-0.1,0-0.1,0.1-0.2,0.1c-1.2,0-2.3,0-3.5,0c-0.6,0-1.3-0.1-1.9,0.1
		c-0.1,0-0.2,0-0.3,0c-0.3,0-0.6,0.1-0.3,0.5c0,0.1,0,0.2-0.1,0.3c-0.5,0.2-0.7,0-0.7-0.5c0.1-0.4,0.3-0.7,0.8-0.8
		c0.3-0.1,0.6-0.2,0.6-0.6c0-0.4,0.4-0.5,0.7-0.5c0.8,0,1.6-0.2,2.4,0.3c0.5,0.3,0.9-0.1,1.3-0.4c0.1-0.1,0.1-0.3,0-0.3
		c-0.4-0.3-0.5-0.7-0.6-1.1c0-0.1-0.1-0.2-0.2-0.3c-0.8-0.2-0.8-0.9-0.9-1.5c0-0.3,0-0.6-0.1-1c-0.3-0.9,0.3-1.4,1.2-1.4
		c0.8,0,1.6,0,2.3,0.5c0.1,0.1,0.2,0.1,0.3,0.1c1.1,0.1,1.7,0.6,2,1.7c0.2,0.8,0.6,1.5,1,2.2c0.3,0.4,0.8,0.4,1.2,0.4
		c0.5,0,0.9,0,1,0.6c0.1,0.4,0.4,0.3,0.7,0.3c0.6,0,1.1,0,1.4,0.6c0.1,0.2,0.3,0.2,0.5,0.3c0.2,0,0.3,0.1,0.5,0.1
		c0.3,0.1,0.6,0.3,0.6,0.7c0,0.4-0.4,0.5-0.7,0.6c-0.3,0.1-0.8-0.1-1,0.4c-0.1,0.3,0,0.7,0,1c0,0.3,0,0.5,0,0.8
		c0,0.4,0.2,0.5,0.4,0.8c0.5,0.6,1.2,1,1.7,1.5c0.3,0.3,0.5,0.6,1,0.6c0.3,0.1,0.6,0.2,0.8,0.6c0.2,0.3,0.4,0.2,0.6,0
		c0.4-0.4,0.5-0.8,0.5-1.3c-0.1-0.6,0-1.1,0.1-1.7c0-0.3,0.1-0.5,0.3-0.8c0.5-0.6,0.7-1.2,0.5-2c-0.2-0.8,0.1-1.5,0.3-2.3
		c0-0.2,0.2-0.3,0.1-0.5c-0.3-0.5-0.1-1,0.2-1.4c0.1-0.2,0.2-0.5,0.2-0.7c-0.2-1.3,0.1-2.5,0.5-3.7c0-0.1,0.1-0.2,0.1-0.3
		c-0.4-1.6,0.6-3,0.4-4.6c-0.1-0.8,0.4-1.6,0.4-2.4c0-1,0.2-2,0.1-2.9c0-0.1,0-0.1,0-0.2c0-0.3,0-0.7,0.4-0.9
		c0.4-0.2,0.6,0.2,0.8,0.4c0.2,1.2,0,2.4-0.2,3.6c-0.5,3-0.8,6.1-1.3,9.1c-0.3,1.6-0.5,3.2-0.8,4.8c0,0.2-0.1,0.4-0.1,0.6
		c-0.2,0.7-0.2,1.4-0.4,2.1C66,40.2,65.9,40.6,65.9,41.1z"/>
	<path d="M60.1,68.3c0.2,0,0.4,0,0.5,0c0.7-0.2,1.1,0,1.2,0.8c0.1,0.5,0.5,0.1,0.8,0.1c0.3,0.2,0.3,0.5,0.3,0.8c0,1.8,0,3.7,0,5.5
		c0,0.5-0.1,1.1-0.4,1.6c-0.4,0.3-0.5,0.9-0.9,1.1c-0.3,0.2-0.6,0.4-1,0.5c0,0-0.1,0,0,0c0,0,0.1,0,0.1,0c0.4-0.2,0.9,0.2,1.2-0.1
		c0.3-0.3,0-0.8,0.2-1.2c0.4-0.3,0.5,0.1,0.5,0.3c0.1,0.3,0.1,0.7,0.1,1c0,0.2,0.2,0.3,0.2,0.5c0,0.3-0.2,0.8,0.1,0.9
		c0.3,0.1,0.5-0.4,0.7-0.6c0.8-1,1.2-2.2,1.2-3.6c0.1-3.6-0.3-7.2-0.3-10.8c0-1.9-0.1-3.7-0.1-5.6c0-1.8-0.2-3.7-0.4-5.5
		c0-0.5-0.2-1,0.1-1.5c0.9-0.1,1,0,1.1,0.9c0.2,1.3-0.1,2.6,0,3.8c0.1,1.7,0,3.4,0.1,5.1c0,1.9-0.1,3.8,0,5.7c0,1.9-0.3,3.8-0.1,5.8
		c0.1,1.8,0,3.5,0.2,5.3c0.1,0.5,0,1-0.7,0.8c-0.2-0.1-0.3,0.1-0.3,0.3c0,0.6-0.5,0.7-1,0.8c-0.7,0.1-1.2,0.9-0.9,1.6
		c0.5,1.2,0.6,2.5,0.7,3.8c0,0.4,0.1,0.7,0.6,0.8c0.6,0.1,0.6,0.5,0.6,0.8c0,0.7-0.1,1.4-0.1,2.1c0,0.2,0,0.4,0,0.5
		c0.1,0.9,0.2,0.9-0.7,1.2c-0.1,0-0.2,0.1-0.2,0.3c0,0.1-0.1,0.3-0.1,0.3c-0.7,0.1-1.1,0.7-1.6,1c-0.3,0.2-0.7,0.3-1.1,0.1
		c-0.3-0.1-0.7,0.1-1,0.1c-0.5,0-0.4,0.4-0.5,0.7c-0.2,0.4-0.7,0.4-1.1,0.4c-0.8-0.1-1.5,0.2-2.2,0c-1.2-0.3-2.4,0.2-3.5-0.3
		c-0.1,0-0.3,0-0.3,0c-0.4,0.4-0.9,0.2-1.4,0.2c-1.8-0.1-3.6-0.1-5.4,0.3c-0.4,0.1-0.6,0-0.6-0.5c-0.2-0.2-0.5-0.1-0.8-0.2
		c0,0-0.1-0.1-0.1,0c0.1,0,0.1,0.1,0.1,0.1c-0.3,0.3-0.9,0.3-1.1,0c-0.2-0.3,0-0.5,0.3-0.7c0.6-0.3,0.5-0.9,0.5-1.4
		c0.1-0.6,0.2-1.3-0.7-1.5c-0.5-0.1-0.3-0.7-0.3-1c0-0.3,0.2-0.4,0.5-0.4c0.5-0.1,0.7-0.3,0.6-0.8c0-0.2,0-0.5,0-0.7
		c0-0.4-0.2-0.6-0.6-0.5c-0.2,0-0.3,0.1-0.4,0c-0.3-0.2-0.8,0.1-0.9-0.3c-0.2-0.5-0.2-1-0.2-1.5c0-0.4,0.3-0.5,0.7-0.4
		c1.1,0.1,2.1-0.1,3.2,0c0.3,0,0.5-0.1,0.5-0.4c0-0.6,0.3-0.7,0.7-0.6c0.3,0,0.7,0,1,0c0.4,0,0.7-0.2,0.4-0.6
		c-0.2-0.3-0.3-0.5-0.4-0.8c-0.1-0.1-0.1-0.3,0-0.4c0.5-0.4,0.3-0.8,0.1-1.3c0-0.1,0-0.2,0-0.2c0.1-0.1,0.2,0,0.3,0.1
		c0.6,0.3,1.2,0.4,1.8,0.3c0.5,0,0.7-0.1,0.9-0.5c0-0.2,0.3-0.2,0.5-0.2c0.6,0.2,0.9-0.3,0.9-0.7c0.1-0.5,0.3-0.7,0.7-0.8
		c0.3-0.1,0.6-0.2,0.4-0.6c-0.1-0.3-0.3-0.4-0.7-0.3c-0.4,0.1-0.9,0-1.3-0.1c-0.6-0.2-0.3-0.7-0.4-1.1c0.6-0.3,1.2,0,1.7,0
		c1.1,0.1,2.2,0.1,3.3,0.1c0.3,0,0.8-0.1,0.8,0.3c0,0.4-0.5,0.4-0.8,0.4c-0.1,0-0.1,0-0.2,0.1c-0.2,0.1-0.4,0.1-0.5,0.2
		c0.1,0,0.1,0,0.1,0c0.2,0,0.3-0.1,0.5-0.2c1.7-0.1,3.1-0.8,4.1-2.2c0.7-0.8,0.4-1.9-0.2-2.8c-0.8-1.1-1.7-2-2.7-2.9
		c-0.1-0.1-0.3-0.3-0.4-0.4c-0.3-0.4-0.3-0.6,0.2-0.7c0.7-0.1,1.3-0.6,2-0.2c0.2,0.4,0,0.8-0.1,1.2c-0.2,0.6-0.1,1.1,0.4,1.6
		c0.2,0.1,0.3,0.3,0.4,0.5c0-0.3-0.1-0.6,0.3-0.8c1,0.8,1.5,1.9,1.8,3.1c0,0.2-0.1,0.5,0.3,0.4c0.3,0,0.5-0.2,0.5-0.5
		c0-1.2,0-2.4,0-3.7c0-0.3-0.2-0.3-0.4-0.4c-0.3,0-0.6-0.2-0.6-0.5c-0.2-0.6-0.5-0.5-0.9-0.3c-0.1,0.1-0.3,0.2-0.4,0
		C59.9,68.7,59.9,68.5,60.1,68.3z"/>
	<path d="M43.1,53.9c0.1-0.1,0.3-0.2,0.4-0.3c0.2,0.4,0.1,0.8,0.1,1.1c-0.1,0.5-0.1,1,0,1.5c0.1,0.2,0,0.6,0.3,0.6
		c0.3,0,0.8,0,1-0.3c0.6-1,1.7-1,2.6-1.3c0.4-0.1,0.9,0.1,1.4-0.1c0.1,0,0.2,0.1,0.2,0.2c0.1,0.8,0,1-0.7,1.3
		c-0.2,0.1-0.4,0.3-0.7,0.3C47.3,56.8,47,57,47,57.4c0,0.1-0.1,0.2-0.1,0.3c0,0,0,0,0,0s0,0,0,0c0-0.1,0.1-0.2,0.1-0.2
		c0.1-0.3,0.2-0.6,0.6-0.4c0.4,0.4,0,0.7-0.1,1c0.4-0.1,0.8,0.1,1.2,0.1c0.2,0,0.4,0.1,0.4,0.3c0,0.3-0.3,0.2-0.5,0.2
		c-0.1,0-0.2,0-0.3,0c-0.2-0.1-0.4-0.1-0.5-0.2c-0.2-0.1-0.4,0-0.6-0.2c0.2,0.2,0.4,0.1,0.6,0.2c0.1,0,0.3,0.1,0.4,0.1
		c1.2,0.1,2.5,0.3,3.7,0.2c0.4,0,0.8,0,1.1,0.3c0.3,0.2,0.6,0.1,0.9,0.1c0,0.2-0.5-0.1-0.4,0.3c0.1,0.4,0.4,0.3,0.6,0.3
		c0.5-0.1,0.9-0.2,1.3,0.2c0.2,0.2,0.4,0,0.5-0.1c0.3-0.4,0.5-0.5,1-0.2c0.3,0.2,0.7,0,1-0.1c0.5-0.3,0.4,0,0.4,0.3
		c-0.1,0.1-0.1,0.1-0.2,0.1c-1.1,0.1-2.1,0.4-3.2,0.2c-0.5-0.1-1,0-1.7-0.1c0.6,0.6,0.4,1.2,0.5,1.8c0.1,0.3-0.2,0.6-0.6,0.7
		c-0.3-0.2-0.3-0.4-0.2-0.7c0.1-0.4-0.1-0.8-0.3-1.1c-0.2-0.5-0.2-0.6-0.6-0.2c-0.3,0.1-0.4,0.5-0.8,0.4c-0.3-0.3-0.2-0.7,0-1.2
		c-0.8,0.2-1.5-0.3-2.3,0c-0.4,0.1-0.8-0.1-1.1-0.2c-0.3-0.2-0.5-0.1-0.8-0.1c-0.2-0.1-0.4-0.1-0.5-0.2c-0.1-0.2,0-0.4-0.1-0.5
		c-0.5,0.1-0.4,0.8-0.9,0.9c-0.2,0-0.3-0.1-0.3-0.3c0-0.4-0.2-0.5-0.5-0.7c-0.3-0.1-0.3-0.5-0.3-0.7c0-0.1-0.1-0.2-0.2-0.2
		c-0.1,0-0.1,0.1-0.1,0.2c-0.1,0.6-0.2,1.3-0.1,1.9c0.1,1.1-0.1,2.2-0.3,3.2c-0.1,0.3-0.1,0.5-0.5,0.8c0.5,0,0.9,0,1.1,0.3
		c0.1,0.2,0.3,0.1,0.4,0.1c0.4-0.1,0.8-0.2,1.1,0.2c0,0,0-0.1,0.1-0.2c0.2-0.3,0.2-0.6,0.2-1c0-0.2,0-0.5,0.3-0.5
		c0.4,0.3,0.6,0.8,0.5,1.3c-0.1,0.5,0.1,0.5,0.5,0.6c0.7,0.1,1.5,0,2.2,0.3c0.2,0.2,0.5,0.1,0.8,0.1c0.2,0,0.5-0.1,0.7,0
		c0.2,0.2,0,0.4-0.1,0.6C50.4,66.1,50,66,49.8,66c1.5,0.4,3.1,0.8,4.6,1.4c0.2,0.1,0.4,0.1,0.5,0.4c-0.1,0.1-0.2,0.2-0.3,0.2
		c-0.3,0.2-0.6,0.1-0.8,0c-2.6-0.9-5.4-1.4-8.1-2c-0.9-0.2-1.9-0.3-2.9-0.3c0.9,0.2,1.9,0.4,2.8,0.5c0.8,0.1,1.5,0.2,2.3,0.4
		c0.5,0.1,0.8,0.4,0.8,0.9c-0.1,0.8,0.1,1.6-0.1,2.4c-0.1,0-0.2,0.1-0.3,0.2C48.2,70,48.1,70.2,48,70c-0.1-0.1,0-0.3,0-0.3
		c-0.2-0.6,0.4-1.2,0-1.8c-0.3-0.5-0.7-0.7-1.3-0.6c-0.5,0.1-1,0.1-1.5,0c-0.3,0-0.5-0.1-0.7-0.3c-0.2-0.3-0.5-0.4-0.9-0.2
		c-0.1,0-0.2,0.1-0.2,0.1c-1,0.1-0.9,0.1-1,1c0,0.9,0.1,1.9,0,2.8c0,0.4-0.1,0.7-0.6,0.8c-0.4,0.1-0.5,0.3-0.4,0.7
		c0.1,0.8,0,1.5,0,2.3c0,1.5-0.1,2.9,0.1,4.4c0.1,0.6,0.7,0.9,1.2,0.5c0.2-0.1,0.4-0.3,0.6-0.1c0.8,0.5,1.7,0.6,2.6,0.5
		c0.4-0.1,0.7,0.1,0.9,0.5c0.2,0.4,0.4,0.8,0.1,1.2c-0.1,0.2-0.3,0.4-0.6,0.3c-0.1-0.1-0.3-0.1-0.4,0c-0.8,0.6-1.9,0.6-2.6,1.4
		c-0.2,0.2-0.4,0.3-0.7,0.4c-0.5,0.1-1.1-0.1-1.4,0.5c-0.2,0.3-0.7,0.1-0.9-0.2c-0.4-0.6-1-0.5-1.6-0.7c-0.1-0.1-0.3,0-0.3,0.3
		c0.1,0.6-0.4,0.6-0.7,0.6c-0.3,0-0.7-0.2-0.6-0.7c0.1-0.4-0.2-0.4-0.4-0.4c-0.6,0-0.5-0.3-0.4-0.8c0.2-0.8,0-1.5-0.5-2.1
		c-0.3-0.5-0.2-0.6,0.2-0.7c0.5-0.1,0.6-0.3,0.3-0.6c-0.5-0.7,0-1.3,0-2c0-0.3,0.2-0.6,0-1c-0.1-0.1,0-0.3,0.1-0.3
		c0.2-0.1,0.3,0.1,0.3,0.2c0.3,0.3,0.1,0.7,0.3,1.1c0-0.4,0-0.9,0-1.3c0-0.1,0-0.3-0.1-0.3c-0.3-0.1-0.6-0.1-0.6-0.5
		c0-0.6-0.5-1.1-0.1-1.8c0.1-0.1,0.1-0.3,0.2-0.3c0.9-0.3,0.7-1,0.7-1.6c0.1-1.2,0-2.5,0-3.7c0-0.3,0-0.6-0.1-0.8
		c-0.3-0.9,0-1.6,0.5-2.2c0.4-0.5,0.9-1.1,0.6-1.8c-0.1-0.4-0.4-0.8-0.7-1.2c-0.2-0.2-0.3-0.4,0-0.5c0.7-0.3,0.7-0.9,0.6-1.5
		c0-0.7,0.1-1.5,0.1-2.2c0-0.4,0.2-0.8,0.7-0.7c0.2,0,0.4-0.1,0.3-0.4c-0.3-1.1-0.1-2.2-0.1-3.4c-0.1-1.2,0.3-2.5,0-3.7
		c0-0.1,0-0.2-0.1-0.3c-0.8-0.8-0.8-1.1-0.8-2.3c-0.1-0.9,0-1.8,0-2.8c0-0.6-0.1-1.3,0.2-1.9c0.2-0.4-0.2-0.6-0.2-0.9
		c0-1.7-0.1-3.4-0.1-5.1c0-0.2-0.1-0.3-0.3-0.4c-0.4-0.1-0.5-0.4-0.6-0.8c-0.2-1.3,0-2.7-0.2-4c0-0.3,0.3-0.4,0.5-0.6
		c0.2,0.1,0.3,0.4,0.3,0.6c0.7,4,1.3,8,1.7,12c0,0.1,0,0.3,0,0.4c0,0.2,0,0.4,0,0.6c0,0.3,0.1,0.6,0.2,0.9c0.1,0.4,0.1,0.8,0,1.1
		c-0.3,0.9,0.3,1.6,0.6,2.4c0.3-0.4,0.3-1,0.9-1c0.1,0,0.1,0.1,0.1,0.1c-0.7,1.7-1,3.6-1.2,5.4c-0.2,2.2-0.8,4.3-1,6.5
		c-0.3,2.5-0.6,5-0.8,7.5c-0.2,1.7-0.3,3.5-0.6,5.2c-0.3,2.5-0.5,5.1-0.2,7.6c0.2,1.4,1,2.4,2.3,3.1c0.7,0.4,1.2,0.5,1.9,0
		c0.7-0.5,1.5-0.8,2.2-1c-0.9,0-1.8-0.2-2.7-0.4c-1.3-0.3-1.9-1-1.9-2.3c0-0.7-0.2-1.3,0.2-2c0.3,0.1,0.3,0.4,0.3,0.6
		c0,0.4,0,0.9,0.1,1.3c0.2,1.1,0.8,1.7,2,1.8c1.1,0.1,2.2,0.3,3.5,0.2c-1.1,0-2,0-3-0.2c-1.9-0.4-2.6-1.4-2.4-3.3
		c0.2-3,0.9-5.9,1.1-8.8c0.1-1.5,0.4-3.1,0.6-4.6c0.1-0.6,0.1-1.2,0.1-1.8c0-0.3-0.1-0.7,0.2-1c0-0.1,0.1-0.1,0.2-0.1
		c0.1,0,0.2,0,0.1,0.2c0.1,0,0.1,0,0.1-0.1c-0.1-0.4,0-0.8,0.1-1.2c0.1-0.2,0.1-0.4,0.2-0.6c-0.1,0.1,0,0.3-0.1,0.4
		c-0.3,0.3-0.3,0-0.4-0.2c0-1.6,0.2-3.2,0.5-4.7C43,54.5,43,54.3,43,54C43.1,54,43.1,53.9,43.1,53.9z"/>
	<path class="st1" d="M62.3,77.2c0.6-1.5,0.4-3.2,0.4-4.8c0-1.1,0.1-2.2-0.1-3.2c0.1-2.1-0.2-4.2-0.2-6.3c0-0.1-0.1-0.2-0.1-0.3l0,0
		c0-2.6-0.1-5.2-0.3-7.7c-0.1-0.1-0.1-0.3,0-0.4c0-1.9,0-3.8-0.4-5.7c0-0.1,0-0.2-0.1-0.3c-0.8-0.8-0.8-1.9-1.1-2.8
		c-0.1-0.2-0.5-0.5-0.2-0.8c0.2-0.3,0.5,0,0.8,0.1c0.1,0,0.2,0.1,0.3,0.1c-0.4-0.4-1.4-0.2-1.4-1.1c0-0.1,0-0.1,0.1-0.2
		c0.9,0.1,1.7,0.6,2.4,1.2c0.5,0.3,0.9,0.5,1.4,0.3c0.4-0.1,0.5,0,0.5,0.4c0,0.3,0,0.6,0,0.9c0,0.2,0.1,0.3,0.3,0.3
		c0.1,0,0.2,0,0.3-0.1c0.1-0.2-0.1-0.3-0.1-0.4c-0.3-0.5,0-1,0-1.6c0.4,0.2-0.1,0.6,0.3,0.7c0.2-0.7-0.3-1.4,0.2-2
		c0.4,0.1,0,0.5,0.2,0.6c0,0.4,0.1,0.9-0.1,1.3c-0.1,0.2,0,0.3,0.1,0.4c0.3,0.4,0.4,0.8,0.3,1.3c-0.2,0.2-0.4,0.5-0.7,0.7
		c-0.6,0.5-0.8,1.2-0.6,2c0.2,0.9,0,1.8,0.1,2.6c0.1,2.1,0.3,4.2,0.4,6.3c0,1,0,1.9,0,2.9c0,3.7,0.3,7.5,0.4,11.2
		c0,1.4,0.1,2.9-0.1,4.3c-0.2,1.2-0.9,2.2-1.7,3c-0.1,0.1-0.3,0.3-0.5,0.2c-0.3-0.1,0-0.3-0.1-0.5c-0.1-0.3,0-0.6,0.1-1
		c-0.2-0.1-0.1-0.3-0.2-0.4C62.6,78.2,62.9,77.6,62.3,77.2L62.3,77.2z"/>
	<path class="st2" d="M39.5,42.6c-0.4-3.2-0.8-6.5-1.3-9.7c-0.2-1-0.4-2-0.6-3c-0.1-1.3-0.4-2.6-0.5-3.9c-0.4-3.7-1.2-7.4-1-11.1
		c0.1-2.5,0.7-4.9,1.9-7.1c0.5-0.9,1.4-1.5,2.2-2.1c1.2-0.7,2.4-1.5,3.8-1.3c0.4,0.2,0.9,0,1.3,0.1c0.2,0,0.4,0,0.4,0.2
		c-0.1,0.1-0.2,0.2-0.3,0.2c-0.1,0-0.2,0-0.3,0c-0.6,0-1.1-0.1-1.7,0.1c-1.6,0.3-2.9,1.1-4.1,2.2C39.2,7.5,39,7.7,38.8,8
		c-0.9,1.9-1.6,3.8-1.8,5.9c-0.3,3.7,0.2,7.2,0.7,10.8c0.3,2.4,0.5,4.9,1,7.3c0.6,3.1,0.9,6.3,1.3,9.5c0,0.3,0,0.6,0,0.9
		C39.9,42.7,39.8,43,39.5,42.6z"/>
	<path class="st1" d="M55.5,77.5c0.4-0.1,0.7-0.3,1.1-0.4c-2,0-3.9-0.2-5.8-0.4c-0.2-0.1-0.4-0.1-0.5-0.1c-0.3,0.1-0.6,0.1-0.9-0.1
		c-0.1-0.1-0.2-0.2-0.1-0.4c0.5-0.2,1,0,1.6,0c1.2,0.2,2.4,0,3.5-0.2c0.3,0,0.6-0.1,0.8-0.1c-1.6,0.1-3.2,0.1-4.8,0
		c-0.2,0-0.3,0-0.5-0.2c-0.1-0.2-0.2-0.4,0-0.6c0.2-0.2,0.5-0.1,0.8,0c1,0.2,2,0.2,2.9,0c-0.3,0-0.7,0-1,0c-0.7-0.1-1-0.4-1-1.2
		c0-0.5,0.4-1,0.5-1.5c0.1-0.1,0.2-0.1,0.4-0.2c0.3,0,0.5,0,0.8,0.1c0.4,0.3,0.8,0.6,1.1,1c0.3,0.5,1,0.4,1.5,0.5
		c0.4,0.1,0.8,0.1,1.2,0.1c0.3,0.1,0.7,0.1,0.8,0.4c-0.2,0.5-0.3,0.5-1.2,1c0.3-0.1,0.6-0.1,0.8-0.2c0.2-0.1,0.5-0.2,0.7-0.4
		c0.3-0.2,0.6-0.2,0.9,0c0.4,0.2,0.6,0.4,0.2,0.8c0,0-0.1,0-0.1,0.1c0,0,0-0.1,0.1-0.1c0.2-0.1,0.3-0.4,0.6-0.5
		c0.1,0,0.2,0.1,0.2,0.2c-0.8,1.1-1.7,1.9-3.1,2.2c-0.4,0.1-0.7,0-1.1,0.1C55.6,77.7,55.5,77.8,55.5,77.5z"/>
	<path d="M49.3,76.4c0.3,0.1,0.6,0.1,0.9,0.2c-0.6,0.6-1.3,0.4-2,0.4c-0.8,0-0.9,0.2-0.6,0.9c0.1,0.3,0,0.5-0.2,0.6
		c-0.3,0.1-0.2-0.2-0.3-0.3c-0.3-0.5-0.5-1.1-1.1-1.4c-0.6-0.4-1.5-0.6-1.9-1.3c-0.2-0.2-0.7-0.1-0.6-0.4c0.2-0.4,0.1-1,0.5-1.3
		c0.4-0.3,0.9-0.6,0.9-1.2c0.4,0.2,0.2-0.2,0.4-0.3c0.2,0.5,0.5,0.6,1,0.4c0.4-0.2,0.9,0,1.3,0.1c0.3,0.1,0.7,0.1,1,0.1
		c0.8,0,1-0.3,1.2-1.3c0.1,0,0.1,0,0.2,0c0.3,0,0.5,0.6,0.8,0.3c0.5-0.4,1-0.7,1.3-1.2c0.2-0.4-0.1-0.6-0.4-0.8
		c-0.8-0.7-1.5-1.5-2.3-2.2c-0.1-0.1-0.4-0.3-0.1-0.5c0.2-0.1,0.4,0,0.5,0.1c1,0.6,1.8,1.3,2.5,2.1c0.2,0.3,0.5,0.5,0.8,0.6
		c0.1,0.1,0.1,0.1,0.2,0.2c0,0.2-0.1,0.4-0.3,0.5c-1.6,1.4-3.1,2.9-4.5,4.6c-0.3,0.4-0.6,0.7-0.8,1.1C48.3,76.2,48.9,76.1,49.3,76.4
		z"/>
	<path class="st3" d="M49.3,67.1c0.2,0.5,0.6,0.7,1,1.1c0.7,0.7,1.3,1.3,2,1.9c0.3,0.2,0.2,0.4,0,0.6c-0.5,0.4-0.9,0.8-1.4,1.3
		c-0.1,0.1-0.2,0.2-0.3,0c-0.2-0.2-0.4-0.4-0.6-0.5c-0.4-0.6-1-1-1.2-1.7c-0.2-0.8-0.2-1.7-0.1-2.5c0.1-0.2-0.1-0.7,0.5-0.5
		C49.2,66.9,49.3,66.9,49.3,67.1z"/>
	<path class="st4" d="M45.8,4.8c-0.5-0.3-1.2-0.1-1.7-0.4c3.2-0.1,6.5,0.2,9.7,0.7c2.3,0.3,4.7,0.5,7,0.9c2.6,0.5,4.8,1.5,6.5,3.6
		c0.3,0.4,0.6,0.7,0.7,1.2c0,0.2,0,0.2-0.2,0.2c-0.6-0.6-1-1.3-1.6-1.9c-1.5-1.5-3.4-2.3-5.5-2.5c-2.7-0.3-5.5-0.6-8.2-1
		c-2-0.2-3.9-0.4-5.9-0.5C46.2,5,45.9,5,45.8,4.8z"/>
	<path class="st4" d="M66.4,37.7c0.2-2.3,0.7-4.6,1-6.8c0.2-1.8,0.5-3.5,0.7-5.3c0.2-1.4,0.4-2.8,0.6-4.3c0.1-0.6,0.1-1.3,0.1-1.9
		c-0.1-1.1-0.1-2.2-0.1-3.3c0.1-0.3-0.2-0.7,0.3-0.9c0.4,3.5-0.1,6.9-0.5,10.4c-0.5,4.1-1.2,8.1-1.9,12.2c0,0.2-0.1,0.4-0.1,0.6
		C66.2,38.1,66.3,37.9,66.4,37.7z"/>
	<path class="st5" d="M67.7,11c0-0.1,0.1-0.1,0.1-0.2c0.6,1.1,1,2.4,1.1,3.7c0,0.2,0.1,0.4-0.1,0.5c-0.2-0.1-0.3-0.3-0.3-0.6
		c-0.1-1-0.4-1.9-0.8-2.9C67.6,11.3,67.5,11.1,67.7,11z"/>
	<path class="st6" d="M45.4,72.3c0,0.2,0.1,0.3,0,0.5c-0.1,0.1-0.2-0.1-0.4-0.1c-0.2-0.3-0.6-0.6-0.7-1c-0.1-0.1-0.1-0.3,0-0.4
		c0.2-0.1,0.3,0,0.4,0.1C44.9,71.6,45.2,71.9,45.4,72.3z"/>
	<path class="st7" d="M43.8,69.8c-0.2-0.4-0.3-0.7-0.3-1.1c0-0.2,0.2-0.3,0.3-0.3c0.2,0,0.1,0.2,0.1,0.4
		C44,69.1,44.3,69.5,43.8,69.8z"/>
	<path class="st8" d="M66.4,37.7c0,0.2-0.1,0.4,0.1,0.5c-0.1,0.5-0.2,1.1-0.4,1.6c0,0-0.1,0-0.1,0C66.1,39.1,66.2,38.4,66.4,37.7z"
		/>
	<path class="st9" d="M65.1,48c0.2-0.3,0.3-0.6,0.7-0.7c0.1,0.3-0.2,0.5-0.3,0.7C65.3,48.3,65.2,48,65.1,48z"/>
	<path class="st10" d="M43.8,94.3c-0.2-0.1-0.4-0.2-0.6-0.2c0,0,0-0.1,0-0.1c0.5,0.1,1,0.2,1.4,0.3c0,0,0,0,0,0c0,0-0.1,0.1-0.1,0.1
		C44.3,94.5,44.1,94.4,43.8,94.3z"/>
	<path class="st11" d="M66,39.8C66.1,39.8,66.1,39.8,66,39.8c0.1,0.4,0,0.8-0.2,1.2C65.7,40.6,65.8,40.2,66,39.8z"/>
	<path class="st12" d="M65.3,44.3c-0.2-0.2,0-0.5-0.2-0.6c0.1-0.3,0.2-0.6,0.3-0.9c0,0,0.1,0,0.1,0C65.4,43.2,65.4,43.8,65.3,44.3z"
		/>
	<path class="st13" d="M68.8,14.9c0.1-0.1,0.1-0.3,0.1-0.4c0.2,0.2,0.1,0.5,0.1,0.7c-0.2,0.3-0.1,0.6-0.1,0.9
		C68.4,15.7,68.5,15.3,68.8,14.9z"/>
	<path class="st14" d="M65.5,42.2c0.3-0.3-0.1-0.8,0.4-1.1c0,0.4-0.1,0.7-0.3,1.1C65.6,42.3,65.5,42.3,65.5,42.2z"/>
	<path class="st15" d="M65.5,42.2c0,0,0.1,0,0.1,0c0,0.2,0,0.4-0.1,0.5c0,0-0.1,0-0.1,0C65.4,42.6,65.4,42.4,65.5,42.2z"/>
	<path d="M68.8,14.9c0,0.4-0.1,0.8,0.1,1.2c0,0.9,0,1.7,0,2.6c0,0.2,0,0.5-0.1,0.7c-0.3,0.2-0.4-0.5-0.7-0.2c-0.3,0.3-0.3,0.6-0.2,1
		c0.2,1.4,0.1,2.8-0.2,4.1c-0.3,1.3-0.2,2.5-0.5,3.8c0,0.2-0.2,0.3-0.3,0.5c-0.2,0.2-0.2,0.5-0.1,0.7c0.4,0.9-0.1,1.6-0.3,2.5
		c-0.1,0.6-0.2,1.2-0.2,1.7c0.1,0.6,0.1,1.2-0.3,1.7c-0.1,0.1-0.2,0.3-0.2,0.4c0.5,0.9-0.2,1.7-0.4,2.5c-0.1,0.6,0.3,1,0.1,1.6
		c-0.2,0.6-0.3,1-0.7,1.5c-0.4,0.5-0.4,1.3-0.3,2c0.1,0.8-0.1,1.4-0.7,1.9c-0.3,0.2-0.5,0.2-0.6-0.1c-0.2-0.6-0.6-0.7-1.2-0.7
		c-0.3,0-0.5,0-0.5-0.4c0.1-0.5-0.4-0.7-0.6-0.6c-0.6,0.1-0.7-0.2-0.7-0.6c0-0.4-0.2-0.5-0.5-0.5c-0.2,0-0.4,0-0.4-0.2
		c0.1-0.9-0.3-1.7,0-2.6c0.1-0.3,0.2-0.5,0.5-0.4c0.1,0,0.1,0,0.2,0c0.4-0.1,0.9-0.1,0.9-0.5c0-0.5-0.5-0.6-0.8-0.6
		c-0.5,0-0.8-0.1-0.9-0.6c-0.2-0.6-0.7-0.2-1.1-0.2c-0.5,0-0.9,0-0.9-0.7c0-0.3-0.3-0.4-0.5-0.3c-0.4,0.2-0.8,0-1.2-0.1
		c-0.3,0-0.8-0.2-0.6-0.7c0-0.1,0-0.2,0-0.2c-0.8-0.4-0.7-1.3-0.9-2c-0.2-0.6-1.1-1.2-1.7-1.2c-0.3,0-0.5-0.1-0.8-0.3
		c-0.4-0.4-0.9-0.5-1.5-0.4c-0.1,0-0.3,0.1-0.4,0c-0.4-0.1-0.7-0.3-0.9,0.3c-0.1,0.4-0.3,0.6-0.1,1c0.3,0.6,0,1.2,0.3,1.8
		c0.1,0.2,0.2,0.4,0.4,0.4c0.5-0.1,0.5,0.2,0.5,0.5c0,0.4,0.1,0.8,0.5,0.9c0.2,0.1,0.3,0.2,0.3,0.4c0,0.2-0.2,0.2-0.4,0.3
		c-0.4,0.3-0.9,0.6-1.4,0.3c-0.7-0.6-1.5-0.3-2.3-0.3c-0.4,0-0.8-0.1-0.7,0.6c0.1,0.3-0.2,0.4-0.5,0.4c-0.5,0-0.8,0.2-0.9,0.7
		c-0.1,0.4,0.1,0.6,0.5,0.4c0.3-0.2,0.6-0.2,0.9,0c0.1,0,0.3,0,0.4,0c0,0,0.1,0,0.1,0c0.1,0.9,0.2,1.9,0.2,2.8
		c0,0.7,0.5,0.9,1.1,0.5c0.5-0.3,1.1-0.2,1.5,0c0.3,0.1,0,0.7-0.3,0.7c-0.8,0.2-0.4,1.1-1,1.4c-0.1,0.1,0.3,0.4,0.6,0.4
		c0.2,0.2,0.2,0.4,0,0.5c-0.1,0-0.3,0-0.3,0.1c-0.4,0.6-1,0.5-1.6,0.5c-0.2,0-0.4,0-0.5-0.2c-0.1-0.2,0.1-0.2,0.2-0.4
		c0.2-0.2,0.1-1.2-0.1-1.4c-0.2-0.1-0.4,0-0.4,0.1c-0.2,0.4-0.4,0.3-0.8,0.3c-0.8-0.2-1.6,0.1-2.5,0c-0.2,0-0.4,0.1-0.4,0.4
		c0,0.2,0,0.4,0,0.7c-0.9,0.4-1.3,0.2-1.6-0.7c-0.1-0.4-0.2-0.7-0.4-1.1c-0.2-0.3-0.3-0.7-0.3-1c-0.2-2.5-0.5-5.1-0.9-7.6
		c-0.5-3.2-1-6.4-1.4-9.6c-0.3-2.2-0.6-4.3-0.8-6.5c-0.1-2-0.2-4.1,0.1-6.1c0.3-1.8,0.8-3.5,1.8-4.9c1.1-1.6,2.7-2.6,4.8-2.9
		c0.6-0.1,1.1,0.1,1.7,0.1c0.2,0,0.4,0.1,0.8,0.1c-0.4-0.1-0.8,0.1-0.8-0.3c0.1,0,0.2,0,0.3,0c0.3,0.1,0.6,0,0.9,0.1
		c2.3,0,4.5,0.3,6.7,0.6c1.7,0.2,3.3,0.3,5,0.6c2,0.3,4,0.3,5.9,1.3c1.6,0.9,2.8,2,3.7,3.5C68.2,12.2,68.6,13.5,68.8,14.9z"/>
	<path class="st1" d="M39.9,42.4c0.4,0.8,0.9,1.6,1,2.5c0,0.3,0.2,0.3,0.4,0.3c0.3,0,0.6,0,0.9,0c0.2,0,0.4,0,0.7,0
		c0.3,0.2,0.2-0.2,0.3-0.3c0.4-0.2,0.8-0.6,1.4-0.2c0.2,0.2,0.5,0,0.7-0.1c0.2,0,0.4-0.2,0.5,0c0.1,0.2,0.1,0.4,0,0.6
		c-0.2,0.3-0.5,0.6-0.8,0.7c-1.6,0.5-2.2,1.8-2.3,3.3c-0.5,4.2-1.1,8.3-1.6,12.5c-0.1,0.9-0.3,1.9-0.2,2.9c0.3-0.3,0.3-0.3,0.5-1.5
		c0.6-3.4,0.7-6.9,1.4-10.3c0.2-1.4,0.6-2.7,0.9-4.1c0.3-1.1,1.3-1.5,2.2-1.8c0.3-0.1,0.5-0.1,0.8-0.3c0.2-0.1,0.5-0.4,0.6-0.2
		c0.1,0.3,0.3,0.7-0.2,1c-0.3,0.2-0.7,0.3-1,0.3c-1.2,0.1-1.8,0.7-2,1.8c-0.3,1.5-0.5,2.9-0.7,4.4c0,0,0,0.1,0,0.1
		c-0.1,0.2,0,0.5-0.1,0.7c-0.1,1-0.3,2.1-0.4,3.1c-0.1,0.6-0.1,1.2-0.2,1.7c-0.1,0.3,0.1,0.6,0.1,0.8c0,0.2,0,0.4-0.2,0.6
		c0,0.2-0.1,0.3-0.1,0.5c0.1,2.2-0.5,4.3-0.6,6.5c-0.2,3-1,6-1.1,9c0,0.1-0.1,0.2-0.1,0.3c-0.3-0.1-0.2-0.5-0.4-0.7
		c-0.2,0-0.1,0.2-0.2,0.3c-0.1,0.7-0.1,1.3,0,2c0.1,1.2,0.8,2,2.2,2.1c0.9,0.1,1.8,0.4,2.8,0.3c-0.1,0.3-0.3,0.3-0.5,0.4
		c-1,0.4-2,0.8-2.8,1.4c-0.2,0.1-0.3,0.1-0.5,0c-2.3-0.9-3.5-2.6-3.5-5.1c0-2.6,0.1-5.2,0.5-7.8c0.2-1.7,0.3-3.5,0.6-5.2
		c0.4-2.9,0.5-5.9,1.1-8.7c0.4-2,0.6-4,0.9-6c0.2-1.2,0.5-2.3,1.1-3.3c0,0,0-0.1,0-0.1c-0.1,0-0.1,0-0.1,0.1
		c-0.4,0.3-0.5,0.9-0.9,1.4c-0.2-0.9-0.9-1.5-0.8-2.4c0-0.1,0-0.2,0.1-0.3c0.2-0.3-0.1-0.7,0.2-1c0.4,0.3,0.5,0.8,0.4,1.2
		c-0.1,0.3-0.1,0.5,0,0.7c0.3-1.2-0.4-2.3-0.6-3.4c0-0.2-0.1-0.3-0.3-0.4c0-0.1,0-0.3,0-0.4C39.7,42.7,39.9,42.7,39.9,42.4z"/>
	<path class="st1" d="M60,43.9C60,44,60,44,60,43.9c-0.1,0.4,0.1,0.7,0.2,1c0,0.2,0.2,0.4,0.1,0.7c0.1,0.7,0.1,1.5,0,2.2
		c-0.1,0.8,0.3,1.5,1.1,1.9c0.2,0.1,0.4,0.1,0.3,0.4c-0.1,0.2-0.2,0.2-0.4,0.2c-0.4,0.1-0.9-0.1-1.3,0.1c-0.2,0.2-0.4,0.2-0.6,0
		c-1.2,0.1-2.3,0.2-3.5,0.2c-2.3,0-4.6-0.2-6.9-0.4c-0.3,0-0.4-0.1-0.4-0.4c0.1-0.4,0-0.9,0.6-0.9c1.4,0,2.9,0,4.3,0
		c0.4,0,0.9,0.1,1.3-0.2c-0.2-0.4-0.5-0.3-0.8-0.3c-1.5,0-2.9,0-4.5,0c0.3-0.7-0.1-1.1-0.1-1.5c0-0.5,0.1-0.5,0.5-0.5
		c1.9,0.1,3.7-0.2,5.6-0.3c0.1,0,0.3,0,0.4-0.3c-0.7,0-1.3,0-1.9,0c-0.5,0.2-1,0.2-1.4,0c-0.7,0-1.5,0-2.2,0c0-0.1,0.1-0.1,0.2-0.1
		c1.3,0,2.5,0,3.3,0c-0.9,0-2.3,0-3.7,0c-0.1,0-0.2,0-0.2-0.1c-0.1-0.8,0.1-1.7,0.2-2.5c0.1-0.5,0.2-0.9,0.8-0.9
		c0.1-0.1,0.2-0.1,0.4,0c0.8,0.2,1.6,0.1,2.3,0.1c1.3,0,2.7,0.1,4-0.1c0.6-0.1,1.2,0.1,1.7,0.1c0.4,0,0.5,0.4,0.4,0.7
		C59.8,43.5,59.7,43.7,60,43.9z"/>
	<path class="st1" d="M47.6,56.8c0.4,0,0.7-0.3,1.1-0.4c0.4-0.1,0.4-0.6,0.4-1c-0.2-0.4-0.2-0.9-0.1-1.3c0.1-0.2,0.3-0.2,0.5-0.3
		c0.1,0,0.1,0,0.2,0c0.2,0,0.4,0,0.5-0.2c0.1-0.3-0.2-0.4-0.4-0.5c0-0.1,0-0.1,0-0.2c0.2,0,0.4,0,0.5-0.2c0.2-0.1,0.2,0.1,0.3,0.2
		c0.2,0.2,0.5,0.2,0.7,0.5c0.1,0.2,0.3,0.2,0.5,0.2c0.2-0.1,0.2-0.3,0.2-0.5c0.1-1.6,0.1-1.6,1.7-1.6c1.4,0,2.8,0,4.2-0.2
		c0.3,0,0.4,0,0.3,0.3c0,1,0,2.1,0,3.1c0,0.8,0.3,1.4,1.1,1.6c0.4,0.1,0.6,0.4,0.8,0.7c0.1,0.2,0.2,0.4,0.3,0.6
		c0.6,0.7,0.6,0.9-0.3,1.1c-1.5,0.4-3,0.7-4.5,0.7c-0.9,0-1.7,0-2.6,0c-1.5-0.1-2.9,0-4.4-0.3c-0.2,0-0.4,0-0.6-0.1
		c0-0.2,0.1-0.2,0.3-0.2c0.2,0,0.5,0.1,0.8-0.1c-0.6-0.3-1.2-0.2-1.7-0.5c0-0.3,0.4-0.6,0.2-1C47.4,56.9,47.5,56.8,47.6,56.8z"/>
	<path d="M53.1,62.7c0.4-0.3,0.9-0.6,0.3-1.1c0,0,0-0.2,0-0.2c0.1-0.4,0.1-0.8-0.4-1c-0.1,0-0.2-0.1-0.1-0.2c0-0.1,0.2-0.2,0.3-0.2
		c0.7,0.2,1.5-0.1,2.2,0.2c0.1,0.1,0.3,0.1,0.4,0c0.8-0.6,1.8,0,2.6-0.4c0,0,0.1,0,0.1,0c0.4,0.2,0.5-0.2,0.7-0.4
		c0.3-0.4,0.8-0.3,1.2-0.2c0.2,0.1,0.3,0.3,0.3,0.5c-0.1,0.3,0,0.6,0.2,0.9c0.3,0.5,0.4,1-0.1,1.5c-0.4,0.4-0.2,1.9,0.1,2.4
		c0.2,0.3,0.5,0.5,0.2,0.9c0,0.1,0,0.2,0,0.3c-0.1,0.6-0.6,0.4-0.9,0.4c0,0,0-0.1,0-0.1c0.3-0.7,0-1.3-0.4-1.9
		c-0.2-0.8-0.5-1.5-0.6-2.4c0.1,1-0.1,1.9,0,2.9c0,0.4,0.4,0.5,0.5,0.7c0.1,0.1,0.1,0.3,0,0.4C59.5,66,59.3,66,59,65.9
		c-0.3,0-0.3,0.2-0.4,0.4c-0.2,0.8-0.4,1-1.3,1c-0.3,0-0.6-0.1-0.9-0.1c-0.4,0-0.6-0.3-0.6-0.7c0-0.3,0-0.6,0.1-0.8
		c0.1-0.5-0.1-0.8-0.6-0.8c-0.4-0.1-0.8-0.2-1.3-0.1c-0.2,0.1-0.4,0-0.5-0.2C53,64.3,52.8,63.3,53.1,62.7z"/>
	<path d="M48.9,55.2c-0.3,0.3-0.7,0.6-1.2,0.2c-0.1,0-0.2-0.1-0.2,0c-0.4,0.5-1.1,0.2-1.6,0.6c-0.2,0.1-0.4,0.1-0.5,0.3
		c-0.3,0.5-0.7,0.7-1.2,0.8c-0.6,0.2-0.6-0.1-0.7-0.5c-0.3-1,0-2,0-3c0.5,0.1,0.7-0.2,0.7-0.7c0-0.4-0.1-0.8,0.3-1.2
		c0.2-0.2,0.1-0.5,0.1-0.8c0-0.3-0.2-0.5,0-0.7c0.3-0.3,0.5-0.7,1-0.9c0.7-0.2,1.4-0.2,2.1,0.1c0.3,0.2,0.2,0.4,0.1,0.6
		c-0.1,0.8-0.1,0.8,0.6,0.7c0.3,0,0.6,0,0.9-0.1c0.4-0.1,0.6,0.2,0.4,0.5c-0.1,0.3-0.2,0.6-0.2,0.9c0,0.2-0.1,0.3-0.4,0.4
		c-0.7,0.2-0.8,0.6-0.3,1.2C49.1,54.2,49,54.7,48.9,55.2z"/>
	<path class="st16" d="M47.6,37.4c1.3-0.1,2.5-0.1,3.8,0c0.9,0.1,1.9,0,2.8,0.1c0.4,0,0.7-0.1,1.1-0.1c0,0-0.1,0-0.2,0
		c-0.2,0-0.4,0-0.6-0.1c-0.9-0.1-0.9-0.3-1-1.2c-0.1-1.2-0.6-2.3-1.7-3c-0.5-0.3-1.1-0.5-1.7-0.6c-0.2,0-0.5-0.1-0.6,0.1
		c-0.1,0.2,0,0.4,0.1,0.5c0.2,0.4,0.4,0.8,0.7,1.2c0.3,0.4,0.6,0.8,0.9,1.2c0.1,0.1,0.1,0.1,0,0.2c-0.1,0.1-0.2,0-0.3,0
		c-0.9-1-1.5-2.1-1.9-3.3c-0.1-0.4,0.3-0.4,0.6-0.5c1.6-0.2,3.5,0.9,4.1,2.5c0.2,0.6,0.5,1.2,0.4,1.8c0,0.3,0.1,0.3,0.3,0.3
		c1.3,0,2.5,0.6,3.7,0.9c0.3,0.1,0.5,0.1,0.7,0.4c0.2,0.2,0.4,0.4,0.7,0.4c0.2,0,0.4,0,0.4,0.2c0,0.2-0.3,0.3-0.4,0.3
		c-0.4,0-0.8,0-1.2,0c-1.7-0.2-3.5-0.2-5.2-0.3c-0.4-0.1-0.8,0-1.2-0.1l0,0l0,0c-0.1-0.1,0-0.1,0-0.2c0.2,0,0.4,0,0.5,0
		c0.3,0,0.6,0,0.8,0c0.1,0,0.3,0.1,0.4-0.1c0-0.2-0.2-0.2-0.3-0.3c-0.5-0.2-0.9-0.1-1.4-0.1c-0.2,0-0.5,0-0.7,0c-1-0.1-2,0-3-0.1
		C48,37.5,47.7,37.7,47.6,37.4z"/>
	<path class="st1" d="M53,38.7c1.7,0.1,3.4,0.2,5.1,0.2c0.3,0,0.4,0.1,0.4,0.4c0,0.5,0,1,0,1.5c-0.1,0.6-0.6,0.7-1.1,0.7
		c-1.8,0-3.5,0-5.3-0.1c-0.9,0-1.7-0.1-2.6,0c-0.7,0-1.2-0.2-1.3-0.9c-0.1-0.1-0.1-0.3,0.1-0.3c0.3,0.5,0.7,0.6,1.3,0.6
		c1.2,0,2.4,0,3.7,0c0.6,0,1-0.4,1.1-1c0.1-0.6-0.3-0.8-0.8-0.9c-0.2,0-0.4-0.1-0.6-0.2C53,38.8,52.9,38.7,53,38.7
		C53,38.7,53,38.7,53,38.7z"/>
	<path class="st17" d="M54.8,67.8c-1.4-0.6-2.9-0.9-4.4-1.4c-0.4-0.1-0.8-0.2-1.3-0.4c0.5-0.3,1-0.1,1.5-0.3
		c0.1-0.2,0.3-0.2,0.5-0.2c1-0.1,2.1-0.2,3.1-0.3c0.1,0,0.2,0,0.3,0c1.5,0,1.7,0.4,1.3,1.9c0,0.1,0,0.1,0,0.2c0,0.5-0.1,0.8-0.6,0.5
		C55,67.8,54.9,67.8,54.8,67.8z"/>
	<path class="st18" d="M49.1,66.9c-0.4-0.2-0.4,0.2-0.5,0.4c0-0.4-0.2-0.6-0.5-0.6c-1.6-0.2-3.3-0.5-4.9-0.8c-0.1,0-0.1,0-0.2,0
		c-0.2-0.1-0.7,0-0.6-0.4c0.1-0.4,0.4,0,0.7,0c4,0.3,7.8,1.4,11.6,2.5c0.3,0.1,0.6,0.3,0.9,0.4c-0.2,0.1-0.4,0.2-0.5,0.3
		c-1.6-0.6-3.3-1-5-1.4C49.7,67.1,49.4,67,49.1,66.9z"/>
	<path class="st19" d="M60,75.4c-0.1,0-0.1-0.1-0.2-0.1c0-0.1-0.1-0.2,0-0.3c0.4-1.1-0.1-1.9-0.8-2.7c-0.4-0.3-0.6-0.8-1.1-0.9
		c-0.7-0.9-1.4-1.9-2.6-2.3c-0.1,0-0.2-0.1-0.1-0.2c1.3-0.8,2.7-1.1,4.1-1.3c0.4-0.1,0.8-0.3,1.3-0.4c0.2,0,0.3-0.2,0.4,0.1
		c0.1,0.2-0.1,0.3-0.3,0.4c-0.2,0.1-0.4,0.1-0.5,0.3c-0.5,0.2-0.9,0.3-1.4,0.3c-0.6,0-1.1,0.2-1.7,0.3c-0.2,0-0.6,0-0.6,0.2
		c-0.1,0.2,0.2,0.4,0.4,0.5c1,1,2,2,2.8,3.1c0.5,0.7,1,1.5,0.6,2.5C60.3,75,60.2,75.3,60,75.4z"/>
	<path class="st20" d="M50,67.1c1.6,0.3,3.2,0.8,4.7,1.3c0.1,0,0.2,0.1,0.3,0.2c-0.7,0.3-1.2,0.7-1.7,1.2c-0.3,0.2-0.5,0-0.7-0.2
		c-0.8-0.9-1.7-1.7-2.7-2.4C49.8,67.1,49.8,67.1,50,67.1z"/>
	<path class="st21" d="M58.8,68.2c0.5-0.1,0.9-0.3,1.4-0.3c0,0.1-0.2,0.2-0.1,0.4c0,0.2,0,0.4,0,0.7c0.1,0.6,0.1,1.2-0.3,1.7
		c-0.2,0.3-0.1,0.7-0.3,1c-0.3-0.4-0.7-0.8-1-1.2c-0.1-0.2-0.1-0.3,0-0.5C58.6,69.3,58.7,68.8,58.8,68.2z"/>
	<path class="st22" d="M55.2,68.9c0.1,0,0.1,0.1,0.2,0.1c0,0.2-0.1,0.3-0.2,0.4c-0.6,0.3-1,0.9-1.6,1.4c-0.1,0.1-0.2,0.2-0.3,0.3
		c-0.3,0.2-0.5,0.4-0.7,0.6c-0.3,0.2-0.3,0.5,0,0.7c-0.2,0-0.3,0-0.5,0c-1.1,0.8-2.1,1.6-2.9,2.7c-0.2,0.1-0.4,0-0.5,0
		c0,0,0,0-0.1-0.1c1.4-1.6,2.8-3.2,4.5-4.5c0.1-0.1,0.3-0.3,0.4-0.4C54,69.7,54.6,69.2,55.2,68.9z"/>
	<path d="M59.3,50.5c0.2,0,0.4,0,0.6,0c0.7,0.3,0.9,1.1,0.8,1.6c-0.1,0.7,0,1.3,0.1,1.9c0.1,0.6-0.2,1.1-0.2,1.6
		c0,0.2-0.1,0.3-0.3,0.1c-0.2-0.3-0.6-0.2-0.9-0.4c-0.3-0.2-0.5-0.3-0.6-0.7C58.9,53.3,58.9,51.8,59.3,50.5z"/>
	<path d="M55.8,67.1c0-0.2,0-0.4,0-0.6c0-1.1,0-1.1-1.1-1.1c-0.2,0-0.3,0-0.5,0c-0.1-0.1-0.1-0.3,0-0.4c0.2-0.2,0.4-0.1,0.6-0.1
		c0.2,0,0.3,0.3,0.5,0.1c0.1-0.1,0.2-0.1,0.2-0.2c0.5,0.1,0.8,0.4,0.6,1C56,66,56,66.3,56,66.6c0,0.2,0,0.4,0.2,0.5
		c0.6,0.3,1.2,0.2,1.8,0c0.4-0.1,0.5-0.5,0.5-0.8c0-0.5,0.2-0.6,0.6-0.6c0.1,0.4,0.2,0.7-0.2,1c-0.1,0.4-0.4,0.6-0.8,0.7
		C57.3,67.6,56.5,67.5,55.8,67.1z"/>
	<path d="M61.1,65.6c0-0.2,0.1-0.4-0.1-0.6c-0.7-0.6-0.4-1.4-0.6-2.2c0-0.3,0.1-0.5,0.2-0.7c0.1-0.1,0.3-0.2,0.3-0.4
		c-0.1-0.7-0.3-1.4-0.5-2.1c-0.1-0.4-0.9-0.2-1.3,0.1l0,0l0,0c0.2-0.8,0.8-0.4,1.2-0.4c0.5,0,0.5,0.4,0.4,0.8
		c-0.2,0.5,0.4,0.7,0.4,1.2c0,0.4,0.1,0.8-0.3,1.1c-0.5,0.5-0.2,2,0.3,2.5C61.6,65.2,61.8,65.4,61.1,65.6z"/>
	<path class="st23" d="M58.9,66.7c0.2-0.3,0.1-0.7,0.2-1c0.2,0.1,0.4,0.1,0.6,0.1c0.2-0.1,0.3,0,0.4,0.1c0,0.1,0,0.3,0,0.4
		c0.3,0.7-0.2,0.8-0.7,0.9C59,67.4,58.8,67.2,58.9,66.7z"/>
	<path d="M47.7,47.8c0.1-0.4,0.1-0.8,0.2-1.2c0-0.2,0.1-0.3,0.3-0.3c0.2,0,0.3,0.1,0.3,0.3c0,0.5,0.3,0.9-0.1,1.4
		c-0.2,0.2-0.2,0.5-0.5,0.4C47.7,48.3,47.8,48,47.7,47.8z"/>
	<path d="M56.1,41.4c0.2,1.1-0.4,1-0.9,1c-0.5,0-0.9-0.2-1.4,0c-0.1,0-0.2,0-0.3-0.1c-0.1-0.2,0.1-0.2,0.2-0.3
		c0.3-0.1,0.5-0.3,0.9-0.2C55,42,55.6,42,56.1,41.4z"/>
	<path d="M60.2,45.6c-0.1-0.4-0.3-0.8-0.4-1.2c-0.1-0.2-0.1-0.3,0.2-0.4c0.1,0.4,0.3,0.6,0.7,0.7c0.4,0.1,0.9,0.2,1,0.8
		c-0.5-0.2-0.9-0.4-1.5-0.6c0.1,0.4,0.2,0.6,0.2,0.8C60.4,45.7,60.3,45.7,60.2,45.6z"/>
	<path class="st24" d="M51.8,38.1c0,0,0,0.1,0,0.1c-1.4,0-2.8,0-4.2,0c-0.1-0.1-0.1-0.1,0-0.2c1.2,0,2.5,0,3.7,0
		C51.5,38.1,51.7,38,51.8,38.1z"/>
	<path class="st25" d="M61.6,58.7c0,0.3,0,0.5,0,0.8c-0.2,0.3,0.1,0.7-0.1,0.9c-0.2-0.9-0.1-1.7-0.1-2.6c-0.1-0.3,0-0.6-0.1-0.9
		c0-0.5,0-0.9,0-1.4c-0.1-0.6,0-1.2,0-1.8c0-0.1,0-0.2,0.2-0.2c0,0.6,0,1.1,0,1.7c0.1,0.5,0.1,1.1,0.1,1.6c0,0.2,0,0.4,0,0.6
		C61.7,57.8,61.5,58.3,61.6,58.7z"/>
	<path d="M60.1,66c-0.1,0-0.3-0.1-0.4-0.1c0-0.1,0-0.3,0-0.4c0.2-0.4-0.1-0.8,0.3-1.2c0.7,0.6,0.8,1.4,0.3,1.8
		C60.2,66,60.1,66,60.1,66z"/>
	<path class="st26" d="M46.4,48.2c-0.8,0.5-1.7,0.8-2.2,1.6C44.3,48.7,45.1,48.1,46.4,48.2z"/>
	<path class="st27" d="M61.7,60c0.2,1.2,0.1,2.4,0.1,3.5c0,0.1,0.1,0.3-0.1,0.3c-0.1-1-0.1-2.1-0.1-3.2C61.7,60.5,61.5,60.2,61.7,60
		z"/>
	<path class="st28" d="M50,45.7c1.5,0,3,0,4.6,0c0,0,0,0.1,0,0.1c-0.8,0-1.6,0-2.4,0c-0.6,0-1.2-0.1-1.7,0.1
		C50.2,46,50,46.1,50,45.7z"/>
	<path class="st29" d="M47.6,37.4c0.9,0.3,1.8,0,2.7,0.1c0.3,0,0.6-0.1,0.9,0.1c-1.4,0-2.8,0-4.4,0C47.1,37.2,47.4,37.4,47.6,37.4z"
		/>
	<path class="st30" d="M59.2,59.6C59.1,59.6,59.1,59.6,59.2,59.6c0,0.3-0.1,0.5-0.1,0.8c-0.3,0-0.4-0.2-0.5-0.4c0-0.1,0-0.2,0-0.3
		c0-0.2,0-0.4,0.3-0.5C59.1,59.1,59,59.4,59.2,59.6z"/>
	<path d="M60.2,66.2c0.3-0.2,0.7,0,0.9-0.4c0.2,0.1,0.5-0.3,0.5,0.2c0,0.4-0.2,0.5-0.5,0.3C60.8,66.2,60.5,66.7,60.2,66.2z"/>
	<path class="st31" d="M48.1,39.5c-0.3,0.3,0,0.7-0.3,1.1c-0.2-0.7-0.1-1.3-0.1-1.9c0.4,0.1,0.2,0.3,0.3,0.5
		C48.2,39.3,48.3,39.4,48.1,39.5z"/>
	<path class="st32" d="M53.3,36.1c-0.4,0.2-0.6,0-0.9,0c-0.1,0-0.3,0-0.3-0.2c0-0.2,0.1-0.3,0.3-0.3c0.1-0.1,0.3-0.1,0.4,0.1
		C52.8,35.9,53,36,53.3,36.1z"/>
	<path class="st33" d="M47.6,38c0,0.1,0,0.1,0,0.2c-0.5,0-0.9,0-1.4,0.1c-0.2,0-0.4,0.2-0.5-0.1C46.3,38,47,38,47.6,38z"/>
	<path class="st34" d="M61.1,52.9c-0.2-0.5-0.1-1.1-0.2-1.6c0-0.1,0-0.2,0.1-0.2c0.2,0,0.2,0.1,0.2,0.3c0,0.3,0,0.6,0,0.9
		C61.1,52.4,61.3,52.7,61.1,52.9z"/>
	<path class="st35" d="M61.4,53.5c-0.3,0.7,0,1.3-0.1,2c-0.2-0.8-0.1-1.7-0.1-2.5c0,0,0.1-0.1,0.1-0.1C61.4,53,61.4,53.3,61.4,53.5z
		"/>
	<path class="st29" d="M54.5,37.5c-0.8,0-1.7,0-2.5,0c-0.2,0-0.4,0.1-0.5-0.1c1,0,2,0,3,0C54.5,37.4,54.5,37.4,54.5,37.5
		C54.5,37.4,54.5,37.5,54.5,37.5z"/>
	<path d="M62,54.5c0,0.1,0,0.3,0,0.4c-0.9,0-0.4-0.6-0.5-1.1C61.9,54.1,61.7,54.5,62,54.5z"/>
	<path class="st36" d="M48.7,45.2c0-0.2,0-0.3,0-0.5c0-0.2,0-0.4,0.1-0.5c0.2,0.1,0,0.4,0.1,0.5c0,0.4,0.1,0.7-0.1,1.2
		C48.6,45.7,48.7,45.4,48.7,45.2z"/>
	<path d="M52.6,46c0.5,0,1,0,1.4,0C53.7,46.4,53,46.4,52.6,46z"/>
	<path class="st37" d="M61.7,63.9c0.1-0.1,0.1-0.2,0.1-0.3c0.2,0.6,0,1.2,0.1,1.7C61.7,64.8,61.6,64.4,61.7,63.9z"/>
	<path class="st38" d="M48.9,55.2c0-0.5,0-1,0-1.4c0-0.2,0-0.3,0-0.5c0.4,0.1,0.4,0.4,0.2,0.7c-0.2,0.5,0,1-0.1,1.4
		C49,55.3,49,55.2,48.9,55.2z"/>
	<path class="st39" d="M48.1,39.5c0-0.1-0.1-0.2-0.1-0.4c0.2-0.1,0-0.4,0.3-0.5c0.2,0.1,0.1,0.3,0.1,0.5c-0.2,0.4-0.1,0.7,0,1.1
		c-0.1,0.1-0.1,0.2-0.1,0.3C48,40.2,48.2,39.9,48.1,39.5z"/>
	<path class="st40" d="M48.8,38.6c0.5-0.2,1.1-0.1,1.6,0c-0.5,0-1,0.1-1.5,0.1C48.9,38.7,48.8,38.7,48.8,38.6z"/>
	<path class="st41" d="M50.5,52.7c-0.1-0.1-0.2-0.1-0.3-0.2c0.1-0.3-0.1-0.6,0.3-1.1C50.5,52,50.5,52.3,50.5,52.7z"/>
	<path d="M61.5,56.1c0.3,0,0.6,0.1,0.5,0.4c-0.1,0.3-0.3,0-0.5,0.1C61.4,56.5,61.4,56.3,61.5,56.1z"/>
	<path class="st42" d="M49.6,53.7c-0.1,0-0.1,0-0.2,0c-0.3-0.1-0.2-0.3-0.1-0.5c0.1-0.2,0.2-0.4,0.4-0.5c0,0.1,0,0.1,0,0.2
		C49.8,53.2,49.8,53.5,49.6,53.7z"/>
	<path class="st43" d="M46,38.9c-0.3,0-0.6,0-0.9,0c0-0.1,0-0.2,0-0.3C45.4,38.7,45.8,38.4,46,38.9z"/>
	<path class="st44" d="M48.2,50.1c-0.4-0.4,0-0.7,0.2-1C48.4,49.4,48.2,49.7,48.2,50.1z"/>
	<path class="st45" d="M54.5,37.5c0,0,0-0.1,0-0.1c0,0,0.1,0,0.1,0c0.2-0.1,0.4,0,0.7-0.1c0.2,0,0.4,0,0.6,0.2
		C55.3,37.5,54.9,37.5,54.5,37.5z"/>
	<path d="M51.3,42.3c-0.1,0-0.2,0-0.4,0c0-0.2,0.1-0.4,0.3-0.4c0.1,0,0.3,0.1,0.3,0.2C51.5,42.3,51.4,42.3,51.3,42.3z"/>
	<path class="st46" d="M49.3,53.2c0,0.2,0,0.4,0.1,0.5c0,0.1-0.1,0.3-0.3,0.1c0-0.2-0.1-0.5-0.2-0.7C49,53,49.2,53.2,49.3,53.2z"/>
	<path class="st35" d="M61.5,56.1c0,0.2,0,0.4,0,0.5c0,0,0,0.1,0,0.1c-0.2-0.5-0.1-1.1-0.1-1.6C61.6,55.5,61.5,55.8,61.5,56.1z"/>
	<path d="M62.3,62.7c0,0.2,0,0.4-0.2,0.4c-0.2,0-0.2-0.2-0.2-0.3C62,62.5,62.2,62.6,62.3,62.7C62.3,62.7,62.3,62.7,62.3,62.7z"/>
	<path class="st47" d="M48.8,38.6c0,0,0.1,0.1,0.1,0.1c-0.2,0-0.4,0.2-0.5,0.4c-0.2-0.1-0.1-0.3-0.1-0.5
		C48.4,38.7,48.6,38.6,48.8,38.6z"/>
	<path class="st48" d="M53,38.7c0,0,0,0.1,0,0.1c-0.4,0-0.9,0-1.3,0c0,0-0.1,0,0-0.1c0,0,0,0,0,0C52.1,38.7,52.6,38.7,53,38.7z"/>
	<path class="st49" d="M48.9,44.7c-0.2-0.1-0.1-0.3-0.1-0.5c0-0.2,0-0.4,0.2-0.4C49,44.1,48.9,44.4,48.9,44.7z"/>
	<path class="st35" d="M61.6,58.7c-0.2-0.4-0.1-0.9-0.1-1.3C61.7,57.8,61.6,58.3,61.6,58.7z"/>
	<path class="st50" d="M49.7,34.2c-0.2-0.2-0.4-0.4-0.4-0.8C49.5,33.7,49.6,33.9,49.7,34.2z"/>
	<path class="st51" d="M43.2,45c0,0.1,0.3,0.1,0.2,0.3c-0.1,0.1-0.3,0.2-0.5,0.2c0-0.1,0-0.2,0.1-0.2C43,45.1,43.1,45,43.2,45z"/>
	<path d="M57.7,59.2c0.1,0,0.2,0,0.2,0.2c0,0.1-0.1,0.2-0.2,0.2c-0.1,0-0.1-0.1-0.1-0.2C57.5,59.2,57.6,59.2,57.7,59.2z"/>
	<path class="st52" d="M45.7,38.1c0.1,0.2,0.4,0.1,0.5,0.1c-0.3,0.2-0.6,0.1-0.9,0.1c-0.1-0.2,0.1-0.2,0.1-0.3
		C45.5,38.1,45.6,38.1,45.7,38.1z"/>
	<path d="M51.4,38c-0.2-0.2-0.5,0-0.8-0.2c0.3,0,0.7-0.3,0.9,0.2C51.5,38,51.5,38,51.4,38z"/>
	<path class="st53" d="M51.9,38.3c0.4,0,0.8-0.1,1.2,0.1C52.7,38.4,52.3,38.5,51.9,38.3z"/>
	<path class="st54" d="M61.7,60c-0.1,0.2,0.1,0.5-0.1,0.7c0-0.1,0-0.2,0-0.2c0.1-0.3-0.1-0.7,0.1-0.9C61.7,59.7,61.7,59.9,61.7,60z"
		/>
	<path class="st43" d="M45.4,38.1c0,0.1-0.1,0.2-0.1,0.3c0,0.1-0.1,0.2-0.1,0.3c-0.1,0-0.2,0.1-0.2,0C44.9,38.4,45.1,38.1,45.4,38.1
		z"/>
	<path class="st43" d="M46.6,38.9c0,0-0.1,0-0.1,0c0-0.2,0.2-0.3,0.3-0.2c0,0,0.1,0.1,0.1,0.1C46.8,39,46.7,38.9,46.6,38.9z"/>
	<path class="st53" d="M51.4,38c0,0,0.1,0,0.1,0c0.3,0.1,0.6,0,0.8,0.1c-0.2,0-0.4,0-0.6,0c-0.2,0-0.4,0.1-0.5-0.1
		C51.3,38,51.4,38,51.4,38z"/>
	<path class="st35" d="M61.3,56.9c0.2,0.3,0.1,0.6,0.1,0.9C61.2,57.6,61.3,57.2,61.3,56.9z"/>
	<path class="st55" d="M61.3,52.8c0,0-0.1,0.1-0.1,0.1c0,0,0-0.1,0-0.1c0-0.2-0.1-0.5,0.1-0.7C61.3,52.4,61.3,52.6,61.3,52.8z"/>
	<path d="M54.2,48.7c-0.1,0.1-0.1,0.1-0.1,0.1c-0.1,0-0.1,0-0.2-0.1c0-0.1,0-0.2,0.1-0.1C54,48.7,54.1,48.7,54.2,48.7z"/>
	<path class="st56" d="M47.4,49.2c-0.1,0-0.1-0.1-0.2-0.1c0-0.1,0.1-0.1,0.1-0.1c0,0,0.1,0.1,0.1,0.1C47.5,49.1,47.5,49.1,47.4,49.2
		z"/>
	<path class="st57" d="M55.2,37.2c-0.2,0.2-0.4,0.1-0.7,0.1c0,0,0-0.1,0-0.1C54.8,37.2,55,37.2,55.2,37.2z"/>
	<path class="st58" d="M51.7,38.7c0,0,0,0.1,0,0.1c-0.2,0-0.4,0.1-0.6-0.1C51.3,38.6,51.5,38.7,51.7,38.7z"/>
	<path class="st59" d="M57.9,41.8c0.1-0.1,0.2-0.2,0.3-0.2c0,0,0,0.1,0,0.1C58.2,41.8,58.1,41.8,57.9,41.8z"/>
	<path class="st1" d="M57.6,85.4c0.2-0.3,0-0.4-0.1-0.5c0.1-0.4,0.5-0.1,0.7-0.3c0.6-0.3,1.3-0.4,1.4-1.4c-1,1-2.1,0.8-3.2,0.6
		c-1.1-0.3-2.1-0.7-2.7-1.9c-0.1,0.6-0.1,1.1,0.3,1.5c0.2,0.2,0.2,0.3-0.1,0.4c-0.5,0.1-0.4,0.5-0.3,0.9c0.3,0.7,0.9,1.1,1.7,1.4
		c-3,0.4-6,0.1-8.9-0.1c0-0.5,0.3-0.6,0.8-0.6c0.3,0,0.6,0,0.9,0c0.4,0,0.3-0.2,0.1-0.4c0-0.3,0.2-0.1,0.4-0.1
		c0.4-0.1,0.9,0.3,1.1-0.4c0.2-0.4-0.1-0.7-0.3-0.9c-0.3-0.3-0.6-0.7-1.1-0.7c-0.1-0.3,0.2-0.1,0.3-0.2c0.6-0.1,0.3-0.3,0.1-0.5
		c0-0.3,0.3-0.2,0.4-0.2c0.9-0.2,1.9-0.1,2.9-0.1c0.8,0,1.3-0.4,1.9-0.7c-0.1-0.2-0.3-0.2-0.4-0.2c-0.2-0.1-0.5,0-0.3-0.4
		c0.2-0.3-0.3-0.3-0.3-0.6c0.4-0.1,0.8-0.2,1.3-0.4c-0.2-0.2-0.3-0.3-0.5-0.6c0.9-0.2,1.7-0.4,2.5-0.5c0.4-0.1,0.3,0.3,0.3,0.6
		c0.1,0.3-0.2,0.7,0.3,0.9c0,0,0.1,0,0.1,0c0.6,0,1.2-0.2,1.7,0.3c1.3,0.4,2.4,1.1,3.3,2.1c0.4,0.5,0.9,0.9,0,1.6
		c0.8-0.3,0.7-0.3,0.8,0.3c0,1,0.1,2,0.2,3.1c0.1,1.3-0.7,2-1.6,2.7c0.8-0.6,1.6-1.3,1.6-2.4c0-0.1,0.1-0.1,0.2-0.1
		c0.4,0.4,0.7,0.9,1,1.4c0.7,1.3,0,2.3-1.3,3.1c-1.9,1.2-4.1,1.8-6.3,2.1c-2.6,0.4-5.2,0.2-7.9,0.2c-1.2,0-2.5-0.2-3.7-0.6
		c-0.3-0.1-0.5-0.2-0.3-0.6c0.2-0.6,0.6-0.8,1.2-0.7c1.5,0.3,3.1,0.5,4.7,0.4c0.3,0,0.7,0.1,1.1-0.2c-0.5,0-1-0.1-1.4-0.1
		c-0.1,0-0.4,0.1-0.4-0.2c0-0.2,0.1-0.4,0.4-0.3c0.1,0,0.2,0,0.2-0.2c-1.7-0.2-3.4-0.4-5.1-0.8c0.8-0.1,0.7-0.6,0.6-1.1
		c0-0.6,0-1.3,0-1.9c0-0.3-0.1-0.6-0.5-0.8c-0.4,0.6-0.3,1.3-0.4,2c-0.1,0.4-0.1,0.7-0.1,1.1c0,0.6-0.2,0.8-0.7,0.4
		c0.6-0.2,0.6-0.6,0.5-1.1c-0.1-0.8,0-1.6-0.2-2.4c-0.2-0.7-0.3-0.8-0.9-0.4c-0.3,0.2-0.5-0.2-0.7-0.3c-0.3-0.1-0.3-0.4-0.3-0.7
		c0.1-0.3,0.3-0.1,0.5-0.1c2.8,0.6,5.6,0.8,8.4,0.9c2.1,0,4.2-0.1,6.3-0.5c1.3-0.3,2.6-0.6,3.6-1.7c-0.3-0.2-0.5-0.1-0.7,0.1
		c-0.3,0.2-0.6,0.3-0.8,0.5c-0.1,0.1-0.4,0.2-0.4,0.2c-0.7-0.6-1,0.4-1.6,0.3C57.6,85.6,57.6,85.5,57.6,85.4z"/>
	<path d="M59.8,70.7c0.1-0.6,0.2-1.1,0.3-1.7c0.2-0.2,0.4-0.4,0.7-0.5c0.3-0.1,0.6-0.1,0.6,0.3c0,0.5,0.3,0.7,0.7,0.6
		c0.4,0,0.5,0.2,0.5,0.6c0,1.2,0,2.4,0,3.7c0,0.3-0.7,0.9-1,0.8c-0.1,0-0.2-0.1-0.1-0.3c0.1-0.6-0.3-1.1-0.3-1.6
		C61,71.7,60.1,71.4,59.8,70.7z"/>
	<path class="st60" d="M56.5,79.7c0-0.3,0.1-0.4,0.4-0.4c1.2-0.2,2.5-0.1,3.8-0.1c0.3,0,0.6-0.2,0.8,0.1c-0.6,0.4-1.4,0.2-2,0.3
		c-0.3,0-0.6,0-0.8,0C57.9,79.8,57.2,79.8,56.5,79.7L56.5,79.7z"/>
	<path class="st61" d="M59.6,77.9c0.9-0.5,1.9-0.8,2.4-1.9c0.2,0.4,0,0.6-0.1,0.8c-0.4,0.8-1.2,1.3-2,1.6c-0.1,0.1-0.2,0-0.3-0.1
		C59.5,78.2,59.5,78.1,59.6,77.9z"/>
	<path class="st60" d="M60.5,78.7c0.8-0.3,1.3-0.9,1.8-1.4c0,0,0,0,0,0c0,0.4,0,0.9-0.1,1.3c0,0.2-0.1,0.4-0.4,0.3
		c-0.4-0.1-0.8,0-1.2,0C60.5,78.9,60.4,78.8,60.5,78.7z"/>
	<path class="st62" d="M62.8,87.4c0,1.1-0.9,2.2-2.2,2.8c0.9-0.8,1.9-1.7,2-3C62.7,87.2,62.8,87.3,62.8,87.4z"/>
	<path class="st63" d="M62.4,80.8c0.1,0.2,0,0.4-0.2,0.3c-0.4-0.1-0.2-0.5-0.3-0.8c0-0.2,0-0.5,0.2-0.4
		C62.5,80.1,62.2,80.6,62.4,80.8z"/>
	<path class="st64" d="M56.5,79.7c0.7-0.1,1.4-0.2,2.1-0.1c-0.1,0.1-0.3,0.2-0.3,0.4C57.8,79.7,57.1,80,56.5,79.7z"/>
	<path class="st65" d="M58.5,78.4c-0.6,0.3-1.2,0.5-1.9,0.6c0.5-0.3,1.1-0.5,1.7-0.6C58.4,78.4,58.5,78.4,58.5,78.4z"/>
	<path class="st66" d="M48.4,84.7c-0.1,0-0.3,0-0.4,0.1c-0.5-0.1-0.9-0.2-1.4-0.4C47.2,84.4,47.8,84.5,48.4,84.7z"/>
	<path class="st67" d="M57.6,85.4c0,0,0.1,0.1,0.1,0.1c-0.5,0.3-1,0.1-1.6,0.1c0-0.3,0.2-0.1,0.4-0.1C56.9,85.5,57.3,85.5,57.6,85.4
		z"/>
	<path class="st68" d="M58.1,84.6c-0.2,0.2-0.5,0-0.7,0.3c-0.2,0-0.4-0.1-0.6-0.1c0-0.1,0-0.2,0.1-0.1
		C57.3,84.6,57.7,84.6,58.1,84.6z"/>
	<path class="st69" d="M56.5,85.5c-0.1,0-0.3,0-0.4,0.1c-0.3,0-0.5-0.1-0.9-0.4C55.8,85.4,56.2,85.3,56.5,85.5z"/>
	<path class="st70" d="M56.3,84.6c-0.3,0-0.5-0.1-0.8-0.4c0.4,0,0.7,0.1,0.9,0.2C56.4,84.5,56.3,84.5,56.3,84.6z"/>
	<path class="st71" d="M61.5,79.3c-0.2-0.2-0.5-0.1-0.8-0.1c0.3-0.2,0.6-0.1,0.8-0.1C61.8,79.1,61.7,79.3,61.5,79.3z"/>
	<path class="st72" d="M48.9,81.8c-0.1,0-0.3,0-0.4,0.2c-0.1-0.1-0.3-0.1-0.4-0.2C48.4,81.7,48.7,81.6,48.9,81.8z"/>
	<path class="st73" d="M48.4,82.5c-0.1,0.1-0.2,0.2-0.3,0.2c-0.1,0-0.4,0-0.3-0.1C47.9,82.4,48.2,82.5,48.4,82.5z"/>
	<path class="st74" d="M58.5,78.4c0,0-0.1,0-0.1,0c0.3-0.1,0.5-0.2,0.8-0.4c0,0,0,0.1,0,0.1c0,0,0,0,0,0
		C59,78.4,58.8,78.4,58.5,78.4z"/>
	<path class="st75" d="M56.3,84.6c0,0,0.1-0.1,0.1-0.1c0.2,0,0.4,0,0.5,0.1c0,0-0.1,0.1-0.1,0.1C56.6,84.7,56.5,84.6,56.3,84.6z"/>
	<path class="st76" d="M55.5,77.5c0.1,0,0.2,0.1,0.3,0.1c-0.2,0.2-0.4,0.1-0.5,0.1c-0.1,0.1-0.3,0.1-0.2-0.1
		C55.2,77.6,55.3,77.6,55.5,77.5z"/>
	<path class="st77" d="M59.2,78.2c0,0,0-0.1,0-0.1c0.1,0,0.3-0.1,0.4-0.1c0.1,0.1,0,0.3,0,0.4C59.4,78.2,59.3,78.1,59.2,78.2z"/>
	<path class="st78" d="M60.5,78.7c0,0.1,0.1,0.1,0.1,0.2c-0.1,0.1-0.3,0.2-0.4,0C60.1,78.7,60.4,78.7,60.5,78.7z"/>
	<path class="st79" d="M55,77.6c0.1,0,0.2,0.1,0.2,0.1c-0.2,0.2-0.3,0.2-0.4,0C54.8,77.7,54.9,77.7,55,77.6z"/>
	<path class="st80" d="M51.8,81.4c-0.3,0-0.4,0-0.5,0C51.4,81.3,51.5,81.3,51.8,81.4z"/>
	<path class="st81" d="M62.8,78.7c0.2,0.1,0.1,0.2,0.2,0.4C62.6,79.1,62.8,78.9,62.8,78.7z"/>
	<path d="M46.4,59.5c0.2-0.1,0.3,0,0.4,0.2c0.1,0.2,0.1,0.5,0.4,0.6c0.2-0.2,0.1-0.5,0.4-0.7c0.4,0.1,0.8,0.3,1.1,0.2
		c0.8-0.3,1.5,0.2,2.2,0.1c0.3-0.1,0.6,0.1,0.2,0.4c-0.3,0.3-0.1,0.6,0,0.9c0.2,0.2,0,0.4,0,0.5c-0.5,1-1,2.1-1.6,3.1
		c-0.1,0.2-0.2,0.4-0.4,0.4c-0.8-0.2-1.6-0.2-2.4-0.3c-0.5,0-0.7-0.1-0.4-0.6c0.2-0.3,0-0.6-0.1-0.9C46.1,63.4,46,63.2,46,63
		c-0.2-0.2-0.2-0.5-0.2-0.7c0.1-0.8,0.2-1.5,0.3-2.3C46.2,59.8,46.3,59.6,46.4,59.5z"/>
	<path class="st17" d="M49.2,65.3c0.7-1.4,1.3-2.7,2-4.1c0.2-0.3,0.4-0.6,0.8-0.6c0.2,0,0.5,0,0.6,0.2c0.5,0.1,0.6,0.5,0.5,0.9
		c0,0.3-0.1,0.6,0,0.9c-0.1,0.7,0,1.3,0.4,1.8c0.1,0.1,0.2,0.3,0.4,0.2c0.5-0.3,1,0,1.5,0c0.1,0.1,0,0.2-0.1,0.3
		c-0.2,0.1-0.4,0-0.5,0c-0.2,0-0.4,0-0.7,0c-0.1,0-0.1,0.1-0.2,0.1c-1.1,0.1-2.2,0.3-3.2,0.2c-0.5,0-0.9,0.1-1.3,0.2
		C49.2,65.5,49.1,65.5,49.2,65.3z"/>
	<path d="M45.5,64.6c0.1,0.1,0.2,0.2,0.4,0.3c-0.3,0.2-0.5,0.1-0.6-0.1c-0.2-0.2-0.3-0.3-0.6-0.2c-0.4,0.1-0.9,0.5-1.1-0.3
		c0-0.2-0.4,0-0.5,0c-0.2,0-0.4-0.1-0.4-0.2c-0.1-0.2,0.1-0.2,0.2-0.3c0.5-0.2,0.5-0.8,0.5-1.1c0.1-1.1,0.4-2.2,0.1-3.4
		c-0.1-0.5,0.4-1,0.1-1.5c0-0.1,0.1-0.3,0.3-0.2c0.2,0.1,0.7,0,0.6,0.5c-0.1,0.5,0.1,0.7,0.5,0.7c0.2,0,0.3,0.1,0.2,0.3
		c-0.1,0.3,0.1,0.4,0.2,0.6c0.2,0.2,0.1,0.5,0.1,0.7c-0.2,0.9-0.1,1.9-0.2,2.8C45.2,63.8,45.5,64.2,45.5,64.6z"/>
	<path class="st17" d="M45.5,64.6c-0.4-0.3-0.5-0.7-0.5-1.1c0-1.2,0.1-2.5,0.3-3.7c0.1-0.3,0.2-0.5,0.4-0.8c0.1-0.2,0.2-0.4,0.5-0.3
		c0.3,0.1,0.1,0.4,0.1,0.5c0,0.1,0,0.2,0,0.3C46.2,60.7,46,61.9,46,63c-0.2,0.4-0.1,0.9-0.2,1.3C45.8,64.5,45.8,64.7,45.5,64.6z"/>
	<path class="st82" d="M40,76.5c0.3,0.2,0.2,0.6,0.4,0.8c0,0.4,0,0.7,0,1.1c0.1,1.2,1,1.7,2.5,2c0.9,0.2,1.9,0.1,2.8,0.2
		c0.2,0,0.5-0.1,0.4,0.2c0,0.2-0.3,0.1-0.4,0.2c-1.4,0.1-2.8-0.1-4.2-0.3c-1-0.2-1.4-0.9-1.5-1.8C40,78,39.8,77.2,40,76.5z"/>
	<path d="M50.8,65.3c1.1-0.2,2.3-0.3,3.4-0.3c0,0.1,0,0.3,0,0.4c-1.2,0.1-2.3,0.2-3.5,0.3C50.4,65.5,50.7,65.4,50.8,65.3z"/>
	<path class="st83" d="M47.6,59.7c0,0.1,0,0.3-0.1,0.4c-0.1,0.2,0.1,0.6-0.3,0.6c-0.3,0-0.5-0.3-0.5-0.7c0-0.1,0-0.2,0.1-0.2
		C47.1,59.7,47.3,59,47.6,59.7z"/>
	<path d="M37.7,82c0.2,0.1,0.5,0.1,0.5,0.4c0,0.3-0.3,0.3-0.5,0.4c-0.3,0.1-0.4-0.2-0.4-0.4C37.3,82.1,37.5,82.1,37.7,82z"/>
	<path class="st84" d="M42.4,60.3c0-0.3-0.1-0.6,0.1-0.8c0,0.1,0.1,0.1,0.1,0.2c0-0.1,0-0.1,0.1-0.2c0.2,0,0.2,0.1,0.1,0.3
		c0.1,0.5-0.2,0.9-0.2,1.4c0,0-0.1-0.1-0.1-0.1c0-0.1,0-0.1,0-0.2C42.3,60.8,42.5,60.5,42.4,60.3z"/>
	<path class="st85" d="M40,76.5c0,0.8,0,1.6,0,2.4c-0.2-0.4-0.1-0.8-0.1-1.3c0-0.2,0.1-0.5-0.1-0.7c0-0.2-0.1-0.3,0-0.5
		C39.9,76.2,40,76.3,40,76.5z"/>
	<path d="M52.6,60.9c-0.2,0-0.5,0.1-0.6-0.2c-0.1-0.2-0.1-0.3,0.1-0.3c0.2,0,0.4-0.1,0.5,0.1C52.8,60.6,52.8,60.7,52.6,60.9z"/>
	<path class="st86" d="M39.1,42c0.2,0.5,0,1,0.2,1.5c-0.1,0-0.1,0-0.2,0c-0.1-0.5-0.1-1-0.2-1.5C39,42.1,39.1,42.1,39.1,42z"/>
	<path d="M37,81.1c-0.2,0-0.2-0.2-0.2-0.2c0.1-0.2-0.4-0.4-0.1-0.7c0.1-0.1,0.2-0.1,0.2,0c0.2,0.2,0.1,0.5,0.1,0.7
		C37.1,80.9,37.1,81,37,81.1z"/>
	<path class="st87" d="M39.6,48.2c-0.3-0.5-0.4-0.9-0.4-1.4C39.4,47.3,39.6,47.7,39.6,48.2z"/>
	<path class="st88" d="M47.6,56.8c0,0.1-0.1,0.2-0.1,0.3c-0.4,0-0.3,0.4-0.5,0.5c-0.1,0-0.1-0.1-0.1-0.1C47,57,47.1,56.6,47.6,56.8z
		"/>
	<path class="st89" d="M40,44.8c-0.3,0.3,0,0.7-0.2,0.9c0-0.4,0-0.9,0-1.3c-0.1-0.1-0.1-0.3,0.1-0.3C40,44.3,40.1,44.6,40,44.8z"/>
	<path class="st87" d="M39.8,48.6c0.2,0.2,0.3,0.5,0.3,0.9C39.8,49.2,39.9,48.9,39.8,48.6z"/>
	<path class="st90" d="M39.5,43c0.2-0.1,0.3-0.1,0.4,0.2c-0.2,0.2,0.1,0.4-0.1,0.6c-0.1,0-0.2,0-0.2,0C39.5,43.4,39.5,43.2,39.5,43z
		"/>
	<path class="st91" d="M42.8,59.8c0-0.1,0-0.2-0.1-0.3c0.1-0.2,0.1-0.5,0.2-0.7C42.8,59.1,43,59.5,42.8,59.8z"/>
	<path class="st92" d="M39.5,43.6c0.1,0,0.1,0,0.2,0c0.2,0.1,0.3,0.3,0.1,0.5c0,0.1-0.1,0.2-0.1,0.3C39.6,44.2,39.6,43.9,39.5,43.6z
		"/>
	<path class="st86" d="M39.3,44.6c-0.1-0.2-0.2-0.4,0-0.6c0.2,0.1,0.1,0.4,0.2,0.6C39.4,44.6,39.4,44.6,39.3,44.6z"/>
	<path class="st93" d="M47.8,58.6c-0.2,0-0.4,0-0.6-0.2c0.2-0.1,0.4-0.1,0.5,0.1C47.8,58.5,47.8,58.5,47.8,58.6
		C47.8,58.6,47.8,58.6,47.8,58.6z"/>
	<path class="st94" d="M39.3,44.6c0,0,0.1,0,0.1,0c0,0.3,0,0.5,0,0.8c0,0-0.1,0-0.1,0C39.3,45.1,39.3,44.8,39.3,44.6z"/>
	<path class="st95" d="M38.9,40.4c0,0.2,0,0.3,0,0.6C38.8,40.7,38.8,40.5,38.9,40.4z"/>
	<path class="st96" d="M41.3,47.1c0.1-0.2,0.2-0.3,0.5-0.4c-0.1,0.2-0.2,0.4-0.3,0.4C41.4,47.1,41.4,47.1,41.3,47.1z"/>
	<path class="st97" d="M46.8,57.4c0,0,0.1,0.1,0.1,0.1c0,0.1,0,0.3-0.1,0.4c-0.1-0.1-0.1-0.2-0.1-0.2C46.8,57.6,46.8,57.5,46.8,57.4
		z"/>
	<path class="st98" d="M46.7,57.7c0,0.1,0.1,0.2,0.1,0.2c-0.1,0.1-0.1,0.1-0.2,0C46.6,57.9,46.7,57.8,46.7,57.7z"/>
	<path d="M42.4,60.3c0.2,0.2,0.1,0.4,0.1,0.6c0,0-0.1,0-0.1,0C42.4,60.8,42.4,60.5,42.4,60.3z"/>
	<path class="st99" d="M47.8,58.6c0,0,0-0.1,0-0.1c0.2,0,0.4,0,0.5,0.1c-0.1,0-0.2,0-0.3,0.2C47.9,58.7,47.8,58.6,47.8,58.6z"/>
	<path class="st0" d="M43,54.7c0-0.2,0-0.5,0.1-0.7C43.1,54.2,43.2,54.5,43,54.7z"/>
	<path class="st100" d="M62.2,45.9c0.4-0.1,0.6,0.1,0.8,0.5C62.7,46.2,62.5,46,62.2,45.9z"/>
	<path class="st101" d="M45.3,4.8C45.4,5.2,45.8,5,46,5.1c-0.8,0-1.7,0.2-2.5-0.2C44.1,4.6,44.7,4.8,45.3,4.8z"/>
	<path class="st101" d="M46.4,4.9c-0.3,0-0.6,0.1-0.9-0.1c0.1,0,0.2,0,0.3,0C46,4.8,46.3,4.7,46.4,4.9z"/>
	<path d="M53.2,71c0.1-0.1,0.2-0.2,0.3-0.3c0.5,0.2,0.8,0,1-0.4c0.2-0.3,0.3-0.7,0.6-1c0.1-0.1,0.2-0.2,0.3-0.3c0.1,0,0.2-0.1,0.3,0
		c1,0.6,1.8,1.3,2.4,2.3c0.1,0.2,0.1,0.3,0.1,0.5c-0.2,0.7-0.5,1.4-0.8,2c-0.1,0.1-0.2,0.3-0.3,0.3c-0.4,0.1-0.9-0.4-1.3,0
		c-0.4-0.6-1.4,0-1.6-0.9c-0.1-0.4-0.7-0.5-0.9-0.9C53.3,71.9,53.4,71.5,53.2,71z"/>
	<path class="st102" d="M49.1,75.1c0,0,0-0.1,0-0.1c0.8-1.1,1.7-2.1,3-2.6c0.2,0.1,0.2,0.3,0,0.4c-0.1,0.2-0.3,0.4-0.3,0.6
		c-0.3,0.9,0.1,1.4,1,1.4c0.5,0,0.9,0,1.5,0c-0.5,0.5-1.1,0.4-1.7,0.5c-0.9,0.1-1.8-0.2-2.7-0.2c-0.2,0.1-0.3,0.1-0.5,0.1
		C49.2,75.3,49.1,75.2,49.1,75.1z"/>
	<path class="st103" d="M59,72.1c1,0.8,1.3,2,0.8,3.1c-0.2,0.2-0.4,0.4-0.6,0.6c-0.1,0-0.2,0-0.2-0.2c0-0.2,0.4-0.3,0.2-0.5
		c-0.3-0.2-0.6-0.4-0.9-0.2c-0.6,0.4-1.3,0.7-2.2,0.7c0.6-0.5,1.2-0.7,1.7-1.2c0.1-0.2,0.3-0.3,0.4-0.5C58.7,73.5,59,72.9,59,72.1z"
		/>
	<path class="st104" d="M49.8,75.5c1.1,0.2,2.1,0.2,3.2,0.2c0.8,0,1.7,0,2.5,0c-0.7,0.4-1.5,0.5-2.2,0.6c-1.4,0.2-2.7,0-4.1-0.1
		c-0.2,0.1-0.3,0-0.5,0c-0.3,0-0.6,0-0.5-0.4c0.1-0.3,0.2-0.6,0.6-0.5C49.1,75.3,49.5,75.3,49.8,75.5z"/>
	<path class="st21" d="M59,72.1c0.3,0.5,0.1,0.9-0.2,1.2c-0.3,0.4-0.6,0.9-1.1,1.1c-0.3-0.1-0.5-0.2-0.8-0.4
		c0.4-0.9,0.8-1.8,1.1-2.8c0.3-0.2,0.4,0.2,0.6,0.3C58.8,71.8,58.8,72,59,72.1z"/>
	<path class="st105" d="M53.2,71c0.6,0.5,0.2,1-0.1,1.4c-0.2,0.1-0.4,0-0.6,0c-0.2,0-0.5-0.1-0.8-0.2C52.3,71.8,52.6,71.2,53.2,71z"
		/>
	<path class="st22" d="M49.8,75.5c-0.3,0-0.6,0-0.8-0.1c-0.4-0.2-0.6,0.1-0.7,0.4c-0.1,0.4,0.3,0.2,0.5,0.3c0.1,0.1,0.2,0.1,0.4,0.1
		c0,0.1,0.1,0.2,0.1,0.2c-0.6-0.1-1.2-0.3-1.8,0.2c0.2-0.6,0.6-1.1,1-1.6c0,0,0,0,0,0c0.2,0.1,0.5,0.3,0.8,0.1c0.2,0,0.4,0,0.5,0
		C49.8,75.3,50,75.4,49.8,75.5z"/>
	<path class="st106" d="M59,75.7c0.1,0.1,0.1,0.1,0.2,0.2C59.1,76,59,76.1,58.8,76C58.7,75.8,58.9,75.8,59,75.7z"/>
	<path class="st107" d="M45.6,74c1.1-0.3,2.2-0.3,3.3-0.3c-0.2,0.5-0.5,0.9-0.9,1.3c-0.1,0.1-0.2,0.1-0.3,0.1
		C47.1,74.8,46.3,74.5,45.6,74z"/>
	<path class="st26" d="M47.3,75.9c-0.8-0.1-1.6-0.1-2.2-0.7c-0.1-0.1-0.2-0.2-0.1-0.4c0.1-0.1,0.2-0.1,0.2,0
		C45.8,75.2,46.6,75.4,47.3,75.9z"/>
	<path class="st108" d="M50,67.1c0,0-0.1,0.1-0.1,0.1c-0.2-0.1-0.4-0.1-0.5-0.2c-0.1-0.1-0.2-0.1-0.3-0.2C49.4,66.9,49.7,67,50,67.1
		z"/>
	<path class="st109" d="M39.8,44.2c0-0.2-0.1-0.4-0.1-0.5c0-0.2-0.2-0.4,0.1-0.5c0.7,2.3,0.8,2.8,0.6,4c-0.4-0.2-0.6-0.7-0.4-0.9
		c0.4-0.5,0-0.9-0.1-1.4C39.9,44.6,39.9,44.4,39.8,44.2z"/>
	<path class="st110" d="M54.2,53.5c0,0.4-0.3,0.5-0.6,0.5c-0.3,0-0.5-0.2-0.5-0.5c0-0.3,0.2-0.6,0.5-0.6
		C53.9,52.9,54.1,53.1,54.2,53.5z"/>
	<path class="st111" d="M56.5,53.5c0-0.3,0-0.6,0.4-0.6c0.3,0,0.4,0.3,0.4,0.5c0,0.3-0.2,0.5-0.5,0.6C56.5,54,56.6,53.7,56.5,53.5z"
		/>
	<path class="st110" d="M49.6,53.7c0-0.3-0.1-0.6,0.1-0.9c0.5-0.1,0.6,0.3,0.6,0.6C50.2,53.8,49.9,54,49.6,53.7z"/>
	<path class="st112" d="M52.5,54.9c0.1,0.4,0.2,0.7,0,1.1C52.3,55.6,52.3,55.3,52.5,54.9z"/>
	<path class="st113" d="M60,64.3c0,0.3,0,0.6,0,0.9c0,0.3-0.2,0.2-0.3,0.2C59.1,65.4,59,65,59,64.5c0-1,0.1-1.9,0.2-3.1
		C59.5,62.5,59.7,63.4,60,64.3z"/>
	<path class="st104" d="M57.1,39.2c0.5,0,0.9,0.1,0.9,0.6c0,0.6-0.5,0.6-0.9,0.6c-0.4,0.1-0.8-0.1-0.7-0.6
		C56.4,39.4,56.6,39.1,57.1,39.2z"/>
	<path class="st114" d="M55.1,69.2c-0.1,0.7-0.5,1.2-1,1.7c-0.4,0.4-0.4-0.3-0.6-0.3C54,70.1,54.4,69.6,55.1,69.2z"/>
	<path class="st1" d="M49.3,75.2c-0.3,0.2-0.5,0.1-0.8-0.1c0.2,0,0.4,0,0.5,0.1C49.1,75.2,49.2,75.2,49.3,75.2z"/>
	<path d="M60.3,52.6c-0.1,0.6,0.1,1.3,0.2,1.9c0,0.3,0.1,0.8-0.4,0.8c-0.5,0.1-0.8-0.3-0.8-0.7c-0.1-0.6-0.3-1.1-0.2-1.7
		c0.1-0.5,0.2-1.1,0.4-1.6c0.1-0.3,0.2-0.5,0.5-0.4c0.3,0,0.4,0.3,0.4,0.5C60.4,51.8,60.3,52.2,60.3,52.6z"/>
	<path d="M54.8,65c0.2-0.1,0.4-0.1,0.5,0C55.2,65.4,55,65.4,54.8,65z"/>
	<path class="st115" d="M54.4,81c0.3-0.4,0.7-0.5,1.2-0.6c1-0.1,2,0.1,3,0.6c0.4,0.3,0.8,0.6,1,1.1c0.1,0.3,0.1,0.6-0.2,0.7
		c-0.3,0.1-0.2-0.3-0.3-0.5c-0.1-0.5-0.4-0.7-0.8-0.9c-1.1-0.7-2.3-0.9-3.5-0.5C54.6,81,54.5,81.1,54.4,81z"/>
	<path class="st116" d="M47.1,87.4c0.4,0.7,0.1,1.3,0.1,1.8c0,0.5-0.2,0.9-0.2,1.4c0,0.1-0.1,0.3-0.2,0.3c-0.2,0-0.2-0.2-0.2-0.3
		C46.6,89.6,46.8,88.6,47.1,87.4z"/>
</g>
</svg>
