<?xml version="1.0" encoding="UTF-8"?><svg id="Ebene_1_Kopie" xmlns="http://www.w3.org/2000/svg" viewBox="0 0 500 500"><defs><style>.cls-1{fill:#3a4f55;}.cls-2{fill:#374c52;}.cls-3{fill:#dfe2e3;}.cls-4{fill:#394d53;}.cls-5{fill:#3c5056;}.cls-6{fill:#394e54;}.cls-7{fill:#fefefe;}</style></defs><path class="cls-2" d="M492.66,234.51c-.92-11.17-2.12-22.28-4.39-33.27-3.04-14.73-7.39-29.05-13.05-42.99-4.87-12-10.84-23.43-17.51-34.52-9.03-15.02-19.73-28.76-31.75-41.47-7.02-7.42-14.59-14.28-22.46-20.81-6.72-5.78-13.94-10.87-21.38-15.66-.74-.67-1.78-.86-2.5-1.56h0c-1.39-.79-2.75-1.63-4.07-2.54-6.71-4.13-13.61-7.93-20.79-11.19-1.24,.04-2.27-.6-3.32-1.09-10.11-4.74-20.54-8.71-31.23-11.86-13.66-4.02-27.56-6.96-41.78-8.49-10.68-1.15-21.35-2.08-32.07-1.77-8.16,.24-16.32,.73-24.47,1.74-7.7,.96-15.34,2.13-22.91,3.76-5.68,1.22-11.31,2.67-16.96,4.02-.96-.43-1.69,.07-2.42,.58-6.65,2.35-13.37,4.48-19.92,7.11-3.73,1.5-7.27,3.46-11.18,4.5h0c-5.14,2.43-10.21,4.97-15.24,7.61-1.32,.7-2.64,1.41-3.97,2.11-2.9,2.13-5.96,4.01-9.19,5.6-.18,.14-.37,.29-.55,.43-.72,.7-1.8,.84-2.49,1.6-2.71,1.85-5.43,3.69-8.14,5.54-4.09,3.05-8.47,5.7-12.14,9.3-.29,.31-.54,.65-.86,.91-14.08,11.55-26.73,24.51-37.9,38.9-7.98,10.28-15.22,21.04-21.27,32.58-2.54,5.14-5.04,10.3-7.65,15.39-3.21,6.26-5.57,12.8-7.83,19.43-1.98,5.81-3.53,11.75-5.68,17.49-.23,.35-.52,.66-.64,1.08-1.54,5.34-2.4,10.83-3.53,16.26-.96,4.6-1.39,9.32-2.31,13.91-1.82,9.07-2.13,18.29-2.31,27.41-.25,12.44,.05,24.94,2.07,37.3,.64,3.91,1.12,7.83,1.79,11.74,.9,5.32,2.4,10.5,3.28,15.82,0,.52,.09,1.02,.25,1.5,2.43,7.35,4.31,14.89,7.11,22.11,2,5.17,3.72,10.47,6.38,15.37,3.15,6.24,6.06,12.61,9.45,18.74,7.25,13.12,15.77,25.36,25.1,37.07,4.03,5.24,8.63,9.98,13.19,14.76h0c.47,.88,1.18,1.53,2.01,2.05,.51,.84,1.18,1.53,2.03,2.03,.37,.65,.87,1.17,1.54,1.51,.68,.62,1.37,1.23,2.05,1.86,7.66,7.2,15.6,14.06,24.27,20.03,5.86,4.14,12.04,7.82,17.82,12.09,2.67,1.75,5.37,3.49,8.14,5.06,12.15,6.86,24.89,12.38,38.18,16.63,12.19,3.9,24.43,7.54,37.15,9.29,.84,.04,1.7-.03,2.52,.12,9.31,1.69,18.73,2.52,28.16,2.93,11.39,.5,22.77,.22,34.14-.9,10.32-1.01,20.54-2.52,30.63-4.9,4.17-.98,8.35-1.91,12.52-2.86,.77,.06,1.51-.14,2.24-.36,10.99-3.33,21.73-7.32,32.24-11.96,3-1.77,6.38-2.82,9.22-4.88,.49-.31,.96-.67,1.48-.93,19.8-10.18,37.75-22.98,54.09-38.06,3.15-2.91,6.28-5.84,9.42-8.76,.86-1,1.72-1.99,2.58-2.99,2.88-3.4,5.94-6.64,8.82-10.05,7.61-9.02,14.41-18.62,20.61-28.64,5.86-9.47,10.93-19.36,15.49-29.52,2.08-5.39,4.6-10.62,6.18-16.21,4.07-11.23,7.21-22.71,9.52-34.43,.69-2.34,.84-4.79,1.32-7.16,1.88-9.35,2.65-18.86,3.14-28.33,.46-8.99,.46-18.05-.28-27.09Zm-11.51,69.57c-4.52,19.07-11.22,37.32-20.22,54.72-3.94,6.07-7.14,12.58-11.09,18.65-7.76,11.95-16.42,23.17-26.03,33.69-3.99,4.36-8.29,8.4-12.36,12.67-5.43,5.14-11.16,9.93-17.11,14.46-4.54,3.46-9.08,6.91-14.03,9.78-7.62,4.55-15.07,9.4-23.07,13.28-12.32,5.98-24.86,11.41-38.03,15.38-12.57,3.79-25.41,6.24-38.33,8.28-4.98,.79-10.09,.81-15.12,1.31-6.74,.67-13.47,1.03-20.23,.88-6.33-.14-12.6-1.07-18.91-1.39-6.7-.33-13.24-1.53-19.8-2.66-8.82-1.52-17.57-3.44-26.13-6.09-1.46-.45-2.91-.88-4.41-1.17-7.6-2.19-15-4.93-22.31-7.98-12.66-5.27-24.3-12.35-35.87-19.57-10.18-6.8-19.85-14.23-28.88-22.51-7.03-6.45-13.78-13.16-20-20.39-1.08-1.39-2.49-2.51-3.33-4.1-3.51-4.79-7.28-9.4-10.76-14.21-.15-.17-.28-.36-.41-.55-.41-.82-1.09-1.44-1.7-2.1-4.29-5.63-7.78-11.77-11.36-17.85-.38-.65-.76-1.3-1.18-1.93-1.41-3.34-3.54-6.34-4.78-9.77-2.13-5.41-4.75-10.59-6.95-15.97-4.64-11.32-8.33-22.93-10.9-34.9,.08-1.36-.31-2.64-.64-3.93-.08-.23-.14-.46-.19-.69-.14-.81-.19-1.66-.66-2.38-.6-1.53-.88-3.12-1.04-4.74-.02-.96,.09-1.92-.16-2.86-.07-.22-.13-.45-.17-.69-.15-.91-.11-1.86-.42-2.74-.07-.22-.11-.45-.15-.68-.11-.91-.03-1.85-.33-2.74-.07-.22-.11-.45-.15-.68-.1-.8-.07-1.63-.36-2.41-.08-.23-.13-.47-.18-.71-.22-1.34,.04-2.73-.43-4.05-.1-.38-.16-.77-.19-1.16-.15-1.85,.19-3.73-.26-5.57-.09-.26-.14-.53-.19-.81-.29-2.08,.2-4.22-.46-6.27-.15-.74-.16-1.5-.18-2.25,0-6.34-.02-12.68,0-19.03,.01-.6,.03-1.21,.16-1.8,.72-2.19,.15-4.48,.47-6.7,.03-.27,.09-.54,.17-.8,.53-1.83,.09-3.72,.32-5.57,.02-.26,.07-.51,.14-.77,.55-1.45,.2-2.98,.43-4.46,.03-.24,.09-.47,.16-.71,.29-.78,.29-1.6,.38-2.41,.03-.23,.08-.46,.14-.68,.27-.78,.26-1.6,.36-2.4,.03-.24,.08-.47,.14-.7,.33-.93,.21-1.91,.35-2.86,.03-.25,.08-.49,.14-.74,.34-.99,.21-2.02,.24-3.03,.35-2.53,.72-5.06,1.57-7.49,.65-1.3,.98-2.68,.96-4.14,.79-6.33,3-12.3,4.71-18.4,.34-.56,.54-1.17,.63-1.82,7.33-21.5,17.32-41.68,30.28-60.36,.58-.83,1.14-1.67,1.63-2.56,3.37-5.35,7.32-10.28,11.4-15.09,7.9-9.32,16.16-18.3,25.68-26.02,1.06-.47,1.74-1.41,2.61-2.12,.17-.15,.35-.29,.55-.42,1.75-1.32,3.48-2.67,5.07-4.19,.18-.16,.37-.3,.58-.43,11.07-8.13,22.28-16.05,34.38-22.63,3.18-1.73,6.54-3.12,9.62-5.05,4.55-2.21,9.1-4.43,13.9-6.07,7.22-3.08,14.64-5.55,22.14-7.82,8.14-2.47,16.39-4.46,24.76-6.01,5.62-.86,11.22-1.82,16.86-2.55,2.15-.28,4.35-.37,6.49-.47,3.59-.16,7.16-.89,10.77-.66,2.4,.04,4.79-.07,7.17-.44,1.5-.1,3-.09,4.5-.01,2.33,.37,4.68,.49,7.04,.46,.73,0,1.47-.02,2.2,.06,2.43,.46,4.88,.47,7.34,.45,.43,0,.85,0,1.27,.06,1.61,.56,3.28,.44,4.95,.44,.55,.01,1.11-.02,1.65,.12,1.16,.64,2.42,.3,3.64,.4,7.83,1.42,15.72,2.55,23.48,4.38,11.58,2.73,22.88,6.33,34.02,10.45,6.68,3,13.46,5.78,19.97,9.16,5.75,2.99,11.35,6.25,17.05,9.31,4.25,1.9,7.92,4.74,11.7,7.37,8.36,5.81,16.34,12.09,23.79,19.05,7.92,6.96,15.08,14.66,21.9,22.67,2.07,2.43,4.13,4.87,5.92,7.52,6.98,9.31,13.56,18.89,19.26,29.04,2.13,3.8,4.07,7.71,6.1,11.57,3.39,5.86,5.83,12.16,8.34,18.42,5.36,13.34,9.27,27.11,12.02,41.22,1.3,6.7,2.34,13.45,3.07,20.25,.95,8.98,1.3,17.99,1.26,27.02-.08,18.03-2.19,35.82-6.35,53.37Z"/><path class="cls-2" d="M63.88,124.01c4.85-.43,8.32,1.62,10.16,5.57,2.07,4.44,.55,8.8-2.07,12.61-3.87,5.62-8.46,6.7-14.14,3.65-4.72-2.53-7.21-9.1-5.23-14.09,1.27-3.21,3.84-4.91,7.17-5.52,.36-.07,1.14,.31,1.05-.15-.73-3.69,2.21-1.44,3.05-2.06Z"/><path class="cls-2" d="M257.87,38.64c-5.37,.33-10.72-4.18-11.3-11.82-.38-4.97,2.19-7.79,6.5-10.43,3.86-2.36,6.79-1,9.91,.13,3.22,1.17,5.18,3.92,6.08,7.29,1.83,6.89-4.17,14.83-11.19,14.82Z"/><path class="cls-2" d="M260.69,465.62c-.04,5.33-5.79,11.27-10.79,11.17-5.34-.12-9.48-4.96-9.45-11.01,.01-2.48,.97-4.46,2.77-6.18,1.89-1.8,4.52-3.31,6.56-3.32,6.1-.03,10.8,3.14,10.91,9.35Z"/><path class="cls-2" d="M58.57,373.21c-6.51-.03-9.8-3.17-9.61-9.3,.04-1.33,.76-2.3,1.28-3.43,1.32-2.88,4.54-3.4,6.46-5.6,1.35-1.55,7.54,.31,9.16,2.47,2.12,2.82,3.12,6.05,1.29,9.4-1.82,3.33-3.67,6.81-8.59,6.46Z"/><path class="cls-2" d="M419.22,383.28c0-6.03,3.24-9.28,9.22-11.27,1.85-.61,3.18-1.23,5.01-.58,4.1,1.46,6.07,4.26,5.97,8.63-.12,5.25-6.4,12.34-11.5,12.97-4.55,.56-8.3-2.76-8.7-7.72-.05-.67,0-1.35-.01-2.03Z"/><path class="cls-2" d="M460.26,155.18c-.05,4.83-4.03,10.44-8.57,11.76-3.01,.88-5.78,.26-8.08-2.04-4.3-4.3-4.4-12.62-.21-16.61,.74-.71,1.53-1.29,2.55-1.46,.62-.1,1.39-.34,1.29-.94-.36-2.15,1.17-1.69,2.19-1.58,6.03,.69,10.87,3.89,10.83,10.87Z"/><path class="cls-2" d="M439.05,225.75c-1.07-9.28-2.58-18.46-4.97-27.47-7-26.44-19.05-50.35-36.51-71.46-22.65-27.4-50.77-46.96-84.38-58.58-11.1-3.84-22.5-6.62-34.12-8.13-8.14-1.06-16.38-1.54-22.21-1.2-16.11,.08-29.73,.65-43.22,3.52-11.65,2.48-23.01,5.6-34.01,10.27-12.53,5.31-24.69,11.19-36.01,18.79-13.84,9.29-26.07,20.34-37.28,32.65-10.2,11.2-18.71,23.48-25.54,36.96-5.55,10.95-9.99,22.32-13.38,34.12-3.64,12.68-6.05,25.62-6.62,38.75-.48,10.93-.59,21.92,.79,32.87,.99,7.92,2.16,15.78,4,23.55,6.64,28.1,18.77,53.56,36.68,76.25,11.02,13.96,23.81,26.06,38.34,36.26,14.41,10.11,30.11,17.75,46.73,23.49,18.49,6.4,37.56,9.73,57.1,10.25,5.13,.14,10.27,.09,15.43-.31,6.28-.48,12.51-1.16,18.74-2.09,11.89-1.79,23.44-4.85,34.71-8.96,24.24-8.86,45.76-22.15,64.64-39.75,21.02-19.6,37.14-42.59,48.14-69.15,7.97-19.23,12.43-39.31,13.73-60.02,.64-10.17,.41-20.4-.76-30.6Zm-4.67,40.99c-1.68,13.3-4.75,26.3-9.19,38.99-5.09,14.56-11.84,28.28-20.23,41.18-8.13,12.51-17.74,23.83-28.65,34.03-10.9,10.19-22.89,18.86-35.85,26.25-15.87,9.05-32.76,15.52-50.49,19.73-7.75,1.84-15.64,2.98-23.59,3.82-8.07,.84-16.13,1.15-24.19,.87-17.51-.59-34.62-3.63-51.16-9.48-39.65-14.03-71.17-38.7-94.75-73.4-13.91-20.48-22.99-43.07-27.63-67.4-1.63-8.52-2.65-17.09-3.11-25.78-1.77-33.43,5.13-65,20.27-94.76,7.77-15.27,17.45-29.31,29.23-41.8,12.98-13.75,27.46-25.72,44.01-34.91,14.56-8.09,30.16-13.72,46.4-17.51,8.01-1.87,16.04-3.58,24.22-4.49,2.85-.32,5.72-.49,8.58-.57,8.28-.22,16.56-.32,24.84-.02,9.67,.35,19.16,1.99,28.55,4.18,26.42,6.18,50.57,17.35,72.12,33.84,21.28,16.29,38.24,36.35,50.81,60.05,8.97,16.91,15.18,34.75,18.39,53.65,1.73,10.22,2.84,20.47,2.43,31.32,.49,7.12-.07,14.69-1.02,22.19Z"/><path class="cls-7" d="M63.61,128.47c3.97,.04,7.29,2.7,7.21,5.79-.12,4.91-3.76,9.56-7.44,9.5-3.77-.05-7.91-4.55-7.82-8.49,.08-3.46,4.08-6.84,8.05-6.79Z"/><path class="cls-7" d="M264.38,23.49c2.57,2.74,1.22,8.44-2.51,10.63-5.47,3.21-12.1-.96-12.41-7.81-.16-3.63,1.2-6.09,4.03-7.47,1.65-.81,2.98,.53,4.54,.61,2.66,.13,5.22,1.25,6.4,4.09-3.25,.22-6.55,.04-9.74,.92-.65,.18-1.33,.23-1.97,.43-.81,.26-1.75,.49-1.44,1.66,.27,1.03,1.13,1.15,2.03,1.02,3.98-.58,8.05-.93,11.08-4.09Z"/><path class="cls-7" d="M247.2,469.56c3.37-1.48,6.59-2.9,9.84-4.33,.31,3.52-2.79,7.51-6.16,8.06-3.41,.55-6.55-1.79-7.55-5.63-.96-3.68,.76-7.09,4.21-8.36,1.28-.47,7.16,1.54,8.06,2.7,.62,.79,.2,1.06-.52,1.13-1.63,.15-2.99,1.01-4.43,1.63-3.01,1.3-3.15,1.58-3.44,4.8Z"/><path class="cls-7" d="M62.33,359.83c-2.14,1.4-4.02,2.6-5.86,3.85-.48,.32-.86,.8-1.31,1.17-.63,.51-.71,1.05-.28,1.75,.59,.94,1.21,.31,1.7,.02,2.42-1.46,4.8-2.98,7.23-4.51,.66,2.73-.77,6.11-2.98,7.22-2.21,1.12-6.23,.31-7.89-1.58-1.49-1.7-1.46-4.73,.06-6.79,1.93-2.61,4.69-2.99,9.33-1.13Z"/><path class="cls-7" d="M435.47,379.65c.08,4.14-4.77,9.58-8.87,9.84-2,.13-3.02-1.39-3.83-2.86-2.52-4.56,.32-11.31,5.31-12.81,2.32-.7,7.34,3.26,7.39,5.82Z"/><path class="cls-7" d="M442.41,155.22c.06-.43,.09-1.46,.39-2.41,1.7-5.51,6.62-6.3,11.18-1.74,2.09,2.09,3.09,4.61,1.76,7.53-1.3,2.85-3.3,5.03-6.59,5.45-2.52,.32-3.97-1.39-5.26-3.24-1.05-1.51-1.45-3.2-1.48-5.59Z"/><path class="cls-4" d="M70.22,133.85c-1.8,2.73-9.2,5.58-11.9,4.83-.71-.2-.85-.77-1.12-1.23-.25-.41,.12-.76,.44-1.06,1.57-1.44,10.26-3.25,12.58-2.55Z"/><path class="cls-6" d="M264.38,23.49c-1.73,3.77-5.42,3.77-8.72,4.41-.97,.19-1.97,.3-2.96,.51-1.74,.37-2.1-.91-2.44-2.19-.4-1.49,.48-1.62,1.63-1.81,4.15-.69,8.22-2.41,12.53-.86,0,0-.05-.05-.05-.05Z"/><path class="cls-5" d="M431.44,381.26c-1.49,2.77-3.89,2.1-6.01,2.18-.84,.03-.92-.83-1.07-1.49-.18-.8,.35-1.04,.93-1.22,2.07-.64,4.08-.57,6.15,.53Z"/><path class="cls-1" d="M448.31,158.43c-1.5,.02-2.81,.34-3.1-1.35-.32-1.86,1.39-1.73,2.29-1.97,1.66-.45,3.43-.59,5.16-.6,.91,0,2.41,.2,2.48,1.17,.07,1.05-1.22,1.84-2.23,2.1-1.6,.41-3.29,.48-4.6,.65Z"/><path class="cls-3" d="M259.32,104.76c.53,.02,.7,.51,.87,.94,.05,.14-.14,.51-.28,.55-.6,.15-.91-.31-1.11-.74-.13-.29,.08-.62,.53-.75Z"/></svg>