<?xml version="1.0" encoding="UTF-8"?><svg id="Ebene_1" xmlns="http://www.w3.org/2000/svg" viewBox="0 0 500 500"><defs><style>.cls-1{fill:#3a4f55;}.cls-2{fill:#69777d;}.cls-3{fill:#384c52;}.cls-4{fill:#3d5257;}.cls-5{fill:#5c6d72;}.cls-6{fill:#dee1e2;}.cls-7{fill:#d2d7d8;}.cls-8{fill:#95a0a4;}.cls-9{fill:#40545a;}.cls-10{fill:#3b4f55;}.cls-11{fill:#fdfefe;}.cls-12{fill:#53656a;}.cls-13{fill:#f7f8f8;}.cls-14{fill:#b8bfc2;}.cls-15{fill:#374c52;}.cls-16{fill:#dfe2e3;}.cls-17{fill:#b8bec1;}.cls-18{fill:#3b5056;}.cls-19{fill:#5f6f74;}.cls-20{fill:#42565c;}.cls-21{fill:#738186;}.cls-22{fill:#b6bdbf;}.cls-23{fill:#c7ccce;}.cls-24{fill:#68787d;}.cls-25{fill:#5f6f75;}.cls-26{fill:#ebedee;}.cls-27{fill:#3d5157;}.cls-28{fill:#aab2b5;}.cls-29{fill:#617277;}.cls-30{fill:#fdfdfd;}.cls-31{fill:#5f7075;}.cls-32{fill:#5d6e73;}.cls-33{fill:#637378;}.cls-34{fill:#3e5258;}.cls-35{fill:#7e8b90;}.cls-36{fill:#738185;}.cls-37{fill:#3c5056;}.cls-38{fill:#3c5157;}.cls-39{fill:#e0e3e4;}.cls-40{fill:#e6e8e9;}.cls-41{fill:#657479;}.cls-42{fill:#5b6d72;}.cls-43{fill:#3f5359;}.cls-44{fill:#a7b0b3;}.cls-45{fill:#fefefe;}.cls-46{fill:#fcfcfc;}.cls-47{fill:#c1c7c9;}</style></defs><path class="cls-15" d="M90.22,172.24c4.97-9.91,10.3-19.61,16.89-28.56,29.56-40.16,68.8-65.22,118.15-72.37,61.79-8.96,114.94,9.64,158.09,54.87,26.56,27.85,41.69,61.48,46.58,99.67,1.01,7.9,1.35,15.84,1.21,23.81-.02,1.1-.41,2.61,.14,3.22,1.79,1.94,.19,3.37-.16,5.11-.59,2.97-.63,6.04-.99,9.06-5.48,46.36-25.65,85.03-60.77,115.86-8.61,7.56-18.02,13.99-27.83,19.87-.85,.51-1.75,.94-2.62,1.41-17.25,9.4-35.5,15.96-54.86,19.38-12.02,2.12-24.13,3-36.33,2.67-1.48-.04-2.82,.17-4.12,.82-2.5-.68-5-1.09-7.63-1.11-3.14-.03-6.27-.68-9.38-1.14-7.48-1.11-14.91-2.54-22.22-4.56-4.13-1.14-8.2-2.49-12.26-3.82-8.27-3.19-16.51-6.46-24.26-10.79-11.22-6.26-21.85-13.36-31.64-21.75-18.78-16.11-33.62-35.23-44.57-57.38-4.68-9.47-8.53-19.27-11.32-29.47-.09-.33-.17-.65-.12-.99-2.05-7.67-3.89-15.39-4.92-23.25-.91-6.92-1.46-13.88-1.69-20.87-.21-6.24-.05-12.5,.52-18.67,.77-8.37,1.93-16.73,3.79-24.97,2.81-12.46,6.69-24.53,12.32-36.02Z"/><path class="cls-40" d="M80.55,296.57c2.41,7.12,4.64,14.31,7.66,21.22,16.03,36.62,41.32,64.97,75.88,85.05,8.14,4.73,16.66,8.67,25.47,11.97,.78,.29,1.53,.69,2.29,1.04-.55,.54-1.13,.38-1.72,.09-4.21-.98-8.11-2.81-12.02-4.55-14.49-6.45-27.77-14.94-39.97-25-17.07-14.07-31.09-30.8-41.93-50.14-6.92-12.34-12.61-25.18-16.4-38.84-.14-.5-.4-.95,.09-1.38,.31,.06,.41,.38,.65,.53Z"/><path class="cls-6" d="M80.55,296.57c-.22-.18-.43-.35-.65-.53-1.35-3.19-1.85-6.61-2.78-9.91-1.23-4.33-1.64-8.84-2.37-13.26-.3-1.83-.75-3.9-.6-5.99,.17-2.31-.04-4.89-.52-7.08-.95-4.26,.26-8.44-.4-12.54-.78-4.82,.25-9.54,.44-14.25,.15-3.53,.88-7.3,1.39-10.91,.96-6.83,2.17-13.6,3.92-20.24,2.48-9.38,5.59-18.57,9.74-27.38,.38-.8,.53-1.82,1.5-2.25-2.67,6.93-5.65,13.73-7.85,20.84-4.63,14.92-7.37,30.15-8.15,45.76-.96,19.18,1.19,37.98,6.16,56.49,.11,.4,.12,.83,.18,1.24Z"/><path class="cls-40" d="M190.14,415.94c.57-.03,1.15-.06,1.72-.09,7.84,2.36,15.62,4.92,23.66,6.53,8.21,1.65,16.46,2.92,24.82,3.39,1.16,.07,2.65-.36,3.25,1.27-3.79,.24-7.45-1.09-11.13-1.14-3.06-.04-5.97-.78-8.97-1.01-3.22-.25-6.4-1.43-9.6-1.94-7.59-1.21-14.78-3.71-22.03-6.06-.62-.2-1.16-.64-1.73-.97Z"/><path class="cls-44" d="M338.91,404.18c.65-.88,1.5-1.39,2.62-1.41-.64,.91-1.5,1.39-2.62,1.41Z"/><path class="cls-45" d="M168.59,252.41c.98-33.32,15-59.57,42.66-78.44,7.75-2.26,14.58-6.8,22.42-8.88,8.98-2.38,18.08-3.93,27.37-3.54,15.19,.63,29.42,4.66,42.23,13.02,18.62,12.15,30.47,29.09,35.32,50.8,1.8,8.07,2.26,16.22,1.51,24.54-1.04,11.7-4.04,22.76-9.18,33.24-8.46,17.27-21.03,30.91-37.48,40.81-10.14,6.1-21.15,10.06-32.97,11.83-11.78,1.77-23.34,1.32-34.65-2.39-23.9-7.85-40.52-23.71-50.41-46.69-4.24-9.86-7.04-22.16-6.82-34.29Z"/><path class="cls-45" d="M141.32,136.81c9.13,24.41,17.75,48.72,27.42,72.82-1.53-.07-2.83-.76-4.06-1.43-16.98-9.26-33.93-18.59-50.95-27.79-1.85-1-2.03-1.84-1.17-3.61,3.76-7.73,7.55-15.53,12.94-22.2,4.9-6.07,9.97-12.07,15.82-17.79Z"/><path class="cls-45" d="M78.58,246.93c5.16,1.45,10.08,3.59,15.12,5.38,.63,.23,1,.39,.99,1.15-.05,4.88,.75,9.68,1.51,14.48,.2,1.23-.29,1.93-1.39,2.61-2.72,1.67-5.32,3.52-7.92,5.38-.54,.39-1.45,.84-1.03,1.77,.32,.71,.57,1.41,1.62,1.71,1.16,.33,2.29,.49,3.44,.4,2.8-.22,5.04,1.57,7.65,1.99,.66,.11,.55,.72,.69,1.19,1.41,4.66,2.8,9.33,4.3,13.97,.34,1.05,.21,1.59-.67,2.32-3.23,2.7-6.35,5.54-9.51,8.33-.43,.38-.98,.72-.71,1.46,.26,.71,.85,.76,1.45,.71,4.44-.37,8.92,.55,13.33-.34,.95-.19,1.14,.3,1.46,.93,2.18,4.28,4.36,8.56,6.59,12.81,.41,.78,.47,1.19-.23,1.92-2.76,2.9-4.78,6.55-8.63,8.33-.71,.33-.78,.87-.36,1.65,.51,.94,1.09,1,2.04,.83,4.2-.78,8.45-1.06,12.71-1.31,1.19-.07,1.86,.33,2.49,1.25,2.72,3.97,5.65,7.79,8.83,11.4,.83,.94,.77,1.61,.31,2.66-2.41,5.36-4.73,10.76-7.08,16.15-1.07,.92-1.42-.28-1.97-.72-.78-.62-1.42-1.4-2.07-2.16-.5-.53-1-1.06-1.5-1.59-.8-.73-1.32-1.69-2.04-2.48-.16-.19-.33-.38-.49-.57-2.54-3.08-5.02-6.21-7.24-9.54-1.4-1.6-2.3-3.55-3.64-5.2-2.51-4.18-5.34-8.18-7.45-12.59-1.16-2.23-2.31-4.46-3.47-6.69-2.99-6.1-5.65-12.35-7.91-18.76-.22-.63-.51-1.24-.52-1.94-4.65-13.61-7.31-27.63-8.52-41.93-.38-4.44-.54-8.9-.59-13.37,0-.54-.29-1.2,.38-1.6Z"/><path class="cls-45" d="M156.85,123.19c6.8-5.33,13.72-9.65,20.93-13.5,7.12-3.8,14.51-7.01,22.13-9.7,1.38-.49,1.97-.25,2.4,.98,6.38,18.44,13.36,36.65,20.19,54.92,.11,.29,.1,.63,.23,1.56-22.14-11.51-43.87-22.81-65.88-34.26Z"/><path class="cls-45" d="M364.31,355.34c-1.63-4.23-3.15-8.27-4.73-12.28-7.02-17.8-14.07-35.58-21.08-53.38-.26-.65-1.06-1.39-.42-2.05,.63-.66,1.42,.04,2.05,.34,6.02,2.77,11.58,6.37,17.32,9.63,11.29,6.39,22.52,12.89,33.8,19.31,1.04,.59,1.81,.94,.99,2.36-7.34,12.77-15.98,24.55-26.55,34.86-.35,.34-.74,.65-1.39,1.21Z"/><path class="cls-45" d="M227.57,161.26c7.02-17.79,13.85-35.12,20.76-52.65,2.44,2.74,4.61,5.53,7.27,7.86,2.39,2.08,3.51,2.16,5.7-.06,2.6-2.64,5.1-5.37,7.81-8.24,5.44,17.33,10.8,34.37,16.31,51.9-19.48-5.59-38.56-5.44-57.85,1.2Z"/><path class="cls-45" d="M347.07,215.05c8.5-3.14,16.79-6.22,25.1-9.26,9.27-3.4,18.57-6.72,27.82-10.18,1.83-.69,2.47-.41,3.13,1.55,3.39,10.15,5.91,20.47,7.03,31.14,.52,4.94,1.16,9.84,.87,15.16-21.31-9.5-42.32-19.22-63.94-28.41Z"/><path class="cls-45" d="M167.24,211.52c-6.49,2.09-12.98,4.21-19.48,6.28-15.44,4.9-30.88,9.78-46.33,14.66-2.84,.9-2.95,.88-2.73-2.04,.99-12.97,3.52-25.63,7.66-37.97,.35-1.05,.58-1.52,2.08-1.12,9.61,2.61,18.91,6.16,28.36,9.23,8.92,2.89,17.82,5.8,26.77,8.6,1.4,.44,2.45,1.35,3.66,2.36Z"/><path class="cls-45" d="M293.23,159.16c3.71-6.62,7.17-12.75,10.61-18.9,5.56-9.92,11.12-19.84,16.68-29.76q1.72-3.07,4.96-1.45c12.66,6.35,24.16,14.38,34.68,23.84,.94,.85,1.55,1.16-.33,1.84-21.24,7.71-42.63,15-63.67,23.26-.77,.3-1.54,.61-2.93,1.17Z"/><path class="cls-45" d="M289.81,157.2c-7.3-21.61-14.63-43.32-22.03-65.21,6.68,.57,13.1,1.65,19.44,3.07,7.84,1.75,15.49,4.18,23.03,7,1.53,.57,1.67,1.19,1.1,2.59-6.92,17-13.75,34.03-20.3,51.18-.18,.47-.2,1.25-1.24,1.36Z"/><path class="cls-45" d="M341.56,284.75c5.59-1.65,11.23-3.31,16.86-4.96,10.52-3.09,21.02-6.23,31.56-9.23,4.12-1.17,8.46-1.43,12.56-2.83,2.5-.85,4.4-3.13,7.41-3.03-1.08,8.83-3.08,17.44-5.68,25.92-1.39,4.54-3.15,8.94-4.82,13.38-.65,1.73-1.49,1.67-2.87,1.18-8.91-3.21-17.81-6.43-26.74-9.55-9.16-3.2-18.39-6.22-27.35-9.97-.3-.12-.86-.07-.93-.91Z"/><path class="cls-45" d="M164.9,278.04c-18.53,5.78-36.78,11.44-54.99,17.21-1.73,.55-2.27,.32-2.85-1.41-3.5-10.37-6.15-20.91-7.5-31.79-.26-2.07-.12-4.2-.75-6.25-.42-1.37,.29-1.54,1.52-1.09,6.34,2.36,12.69,4.68,19.06,6.97,13.8,4.97,27.61,9.91,41.4,14.9,1.29,.47,2.76,.46,4.12,1.46Z"/><path class="cls-45" d="M164.59,280.02c-9.68,21.1-19.35,42.18-29.13,63.51-5.38-6.14-9.84-12.57-13.93-19.26-2.69-4.39-5.08-8.95-7.49-13.5-.92-1.73-.43-2.52,1.04-3.34,8.14-4.55,16.25-9.13,24.38-13.69,8.2-4.61,16.4-9.23,24.61-13.83,.1-.06,.31,.06,.52,.12Z"/><path class="cls-45" d="M376.77,150.4c8.41,10.24,15.27,21.32,20.89,33.21,.94,1.99-.78,2.25-1.62,2.73-5.58,3.16-11.26,6.15-16.89,9.24-10.47,5.73-20.92,11.49-31.39,17.23-.65,.36-1.32,.66-2.63,1.3,10.7-21.56,21.14-42.57,31.63-63.7Z"/><path class="cls-45" d="M290.45,338.03c19.36,10.65,38.17,21,57.12,31.42-1.67,2.03-4.12,3.01-6.2,4.43-9.61,6.59-20.05,11.62-30.85,15.94-1.02,.41-1.66,.56-2.18-.93-5.82-16.75-11.75-33.46-17.89-50.87Z"/><path class="cls-45" d="M250.04,91.48c-1,2.64-1.67,5.36-3.06,7.64-.72,1.19-2.2,1.71-1.65,3.62,.54,1.89-.95,3.47-1.42,5.22-.46,1.67-1.29,3.24-1.9,4.88-3.9,10.59-7.79,21.19-11.66,31.79-1.49,4.09-2.91,8.21-4.63,13.08-.92-4.51-1.73-8.28-2.46-12.05-3.14-16.08-6.33-32.15-10.06-48.11-.33-1.4,.33-1.64,1.24-1.85,6.03-1.39,12.1-2.56,18.26-3.3,5.69-.68,11.37-1.22,17.34-.92Z"/><path class="cls-45" d="M287.46,338.86c1.41,9.2,2.69,17.66,3.99,26.11,1.27,8.21,2.65,16.41,3.81,24.64,.68,4.86,.53,4.85-4.26,6.05-7.03,1.76-14.16,2.82-21.37,3.65-3.4,.39-6.85-.3-10.7,1.03,9.51-20.6,19.25-40.56,28.52-61.48Z"/><path class="cls-45" d="M213.34,341.15c6.34,18.93,12.68,37.85,19.12,57.06-5.97-.92-11.61-2.11-17.19-3.63-6.01-1.63-11.91-3.6-17.71-5.88-1.55-.61-2.05-1.09-1.34-2.88,4.86-12.4,9.65-24.83,14.27-37.31,.88-2.37,1.39-4.89,2.85-7.36Z"/><path class="cls-45" d="M208.2,341.65c-3.76,6.53-7.57,13.04-11.25,19.61-3.83,6.84-8.72,13-12.66,19.76-.69,1.19-1.27,.98-2.2,.48-9.69-5.25-18.75-11.4-27.22-18.45-1.18-.98-.74-1.4,.33-1.8,10-3.78,20.02-7.53,30.02-11.35,7.5-2.86,14.97-5.81,22.46-8.72,.18,.15,.35,.31,.53,.46Z"/><path class="cls-45" d="M179.71,406.37c3.88-4.54,8.5-8.42,12.11-13.21,.66-.87,1.36-.98,2.36-.54,5.13,2.27,10.4,4.13,16.06,5.87-1.31,1.16-1.26,2.57-1.37,3.96-.26,3.61-.6,7.22-.91,10.83-.09,1.04,.23,1.81,1.33,2.07,1.09,.26,1.26-.7,1.55-1.31,2.09-4.4,5.5-7.93,7.84-12.16,.45-.81,1.18-.84,1.97-.69,4.17,.82,8.34,1.68,12.52,2.45,.71,.13,1.3,.17,1.58,.95,2.04,5.74,3.5,11.69,6.43,17.51-6.85-.32-13.1-1.24-19.34-2.29-8.69-1.46-17.12-3.91-25.53-6.47-5.67-1.46-10.98-3.87-16.33-6.17-.33-.14-.48-.44-.27-.81Z"/><path class="cls-45" d="M129.82,370.78c5.62-2.07,11.27-4.07,16.84-6.26,1.32-.52,2.06-.4,3.1,.51,2.73,2.39,5.61,4.61,8.4,6.93,.5,.41,1.53,.71,.56,1.72-3.05,3.16-3.14,7.44-4.19,11.35-.13,.47-.1,.98-.13,1.47-.03,.57-1.13,1.04-.21,1.67,.74,.5,1.69,.63,2.38,.07,3.29-2.6,7.1-4.33,10.74-6.34,1.12-.62,.93-1.61,1.17-2.6,4.04,2.3,7.89,4.51,11.77,6.66,1.07,.59,.98,1.41,.81,2.36-.74,3.97-1.31,7.99-2.28,11.9-.46,1.86-.05,3.65-.35,5.45-.88,.87-1.56-.02-2.24-.33-7.81-3.5-14.91-8.22-21.97-12.98-4.26-2.88-8.46-5.86-12.35-9.26-3.96-3.27-7.8-6.65-11.37-10.35-.51-.53-1.61-.93-.69-1.98Z"/><path class="cls-45" d="M95.21,173.23c9.33-19.75,22.07-37.01,37.91-52.03,1.53-1.45,2.18-1.6,2.85,.67,.88,2.95,2.08,5.81,3.22,8.67,.43,1.09,.3,1.88-.55,2.69-4.25,4.03-7.8,8.7-11.69,13.07-1.14,1.28-1.17,2.61-.64,4.31-1.71-2.98-4.69-1.83-6.92-2.7-.62-.24-1.3-.44-1.95-.42-.69,.03-1.28-1.17-1.99-.19-.53,.73-.65,1.57-.19,2.39,1.58,2.82,2.02,6.17,4.06,8.78,.52,.66,.22,1.15-.18,1.8-3.26,5.31-6.82,10.46-9.3,16.23-.54,1.25-1.29,1.76-3,1.38-3.09-.68-6.31-.8-9.48-1.04-1.1-.08-2.17-.18-3.19-.59-.03-1.13,.72-1.99,1.03-3Z"/><path class="cls-45" d="M248.73,422.51c1.02-3.53,2.92-6.4,4.13-9.57,.29-.77,.9-1.44,1.09-2.22,1.14-4.54,3.87-6.38,8.56-5.57,1.52,.26,3.12-.52,4.74-.45,1.64,.07,3.79-.77,4.78,0,.91,.7,1.21,2.78,1.75,4.27,1.01,2.8,2.13,5.54,3.73,8.07,.25,.39,.35,.75,.88,.56,.7-.25,1.55-.38,1.63-1.33,.32-4.08,2.18-7.82,2.61-11.88,.08-.79,.26-1.5,1.42-1.71,4.28-.78,8.53-1.7,12.77-2.68,.83-.19,1.43-.46,1.83,.52,1.67,4.08,4.47,7.48,6.88,11.1,1.53,2.31,1.52,2.47-1.23,3.32-18.01,5.53-36.43,8.01-55.57,7.6Z"/><path class="cls-45" d="M92.73,180.32c2.55,1,3.41,3.8,5.51,5.22,4.58,3.11,5.76,6.73,3.09,11.89-1.5,2.89-1.95,6.32-2.89,9.58-.61-.02-.92-1.12-1.74-.9-2.87,.78-5.88-.31-8.8,1.05-2.07,.97-1.7,1.63-.41,2.57,2.14,1.56,3.65,3.79,5.74,5.32,2.67,1.97,3.13,4.4,2.47,7.37-.73,3.28-1.1,6.61-.98,9.97,.06,1.61-.51,2.42-2.09,2.93-4.42,1.41-8.78,2.98-13.17,4.49-.65,0-.92-.44-.89-.97,.32-4.82,.3-9.66,1.26-14.41,.5-.77,1.05-.63,1.66-.11,.68,.6,1.21,1.39,2.3,1.79,.25-1.13,.22-2.24,.38-3.29-1.41-.67-2.77,1.25-4.04-.17,1.2-10.06,3.59-19.83,6.93-29.38,1.52-4.35,2.85-8.78,4.9-12.93,.25-.18,.5-.18,.76-.02Z"/><path class="cls-45" d="M365.38,378.9c2.73,.63,1.21,1.61,.18,2.47-13.55,11.41-28.42,20.68-44.77,27.52-3.43,1.43-6.94,2.67-10.41,4-1.5,.57-2.34,.99-2.15-1.56,.32-4.47,1.88-8.67,2.28-13.04,.25-2.73,1.69-3.24,3.69-4.02,4.07-1.59,8.05-3.4,12.02-5.21,1.01-.46,1.42-.45,2.1,.59,2.13,3.24,5.39,5.53,7.63,8.74,.85,1.21,2.27,.72,3.48,.26,.59-.95,1.43-1.57,2.41-2.13,6.15-3.53,11.88-7.62,17.29-12.21,2.1-1.78,4.16-3.61,6.25-5.4Z"/><path class="cls-45" d="M372.2,375.49c-1.83-4.55-3.53-8.79-5.22-13.02-.44-1.1-.29-1.93,.67-2.83,4.19-3.93,8.07-8.17,11.68-12.63,.76-.94,1.33-1.12,2.49-.53,2.66,1.36,5.36,2.65,8.28,3.46,2.39,.66,2.78,2.39,1.26,4.39-5.68,7.47-11.94,14.42-19.16,21.17Z"/><path class="cls-45" d="M365.38,378.9c-.4,2.31-2.47,3.32-3.98,4.53-6.94,5.61-14.04,11.02-21.97,15.21-.84-4.75-1.62-9.52-2.57-14.25-.19-.92,.17-1.12,.73-1.46,4.96-3.04,9.88-6.15,14.43-9.78,.9-.72,1.6-.58,2.5-.09,3.6,1.97,7.24,3.9,10.86,5.84Z"/><path class="cls-45" d="M296.88,79.79c-2.19,3.59-5.16,6.56-7.71,9.86-.62,.8-1.45,.38-2.11,.24-6.66-1.41-13.39-2.38-20.17-2.97-1.06-.09-1.21-.71-1.45-1.39-1.12-3.09-2.15-6.21-3.36-9.26-.68-1.73-.29-2.26,1.56-2.17,8.97,.47,17.8,1.83,26.58,3.66,2.22,.7,4.67,.61,6.67,2.03Z"/><path class="cls-45" d="M155.7,103.18c4.41-2.67,8.88-5.26,13.22-8.04,2.06-1.32,2.78-.28,2.87,1.45,.18,3.38,.04,6.77,.11,10.15,.03,1.17-.96,1.38-1.58,1.72-6.11,3.38-11.69,7.54-17.23,11.75-.5,.38-.81,.65-1.5,.28-3.63-1.93-7.3-3.79-11.07-5.73,4.41-4.02,9.22-7.04,13.58-10.63,.21-.17,.42-.18,.64-.02,.64,.94,.55,2.1,.91,3.12,.16,.45,.16,1.21,.81,1.05,.89-.22,1.7-.76,2.3-1.47,.41-.49,.01-.92-.36-1.3-.79-.8-1.93-1.03-2.78-1.71-.15-.23-.12-.43,.08-.62Z"/><path class="cls-45" d="M425.19,259.97c1.86-1.13,1.68,.19,1.61,1.34-.38,6.66-1.33,13.26-2.6,19.8-4.83,24.98-14.58,47.88-29.39,68.6-.37,.52-.79,1.01-1.33,1.7-.14-.63-.22-1.03-.31-1.44,1.94-3.45,4.26-6.67,6.47-9.95,1.61-2.4,2.92-4.92,4.14-7.51,1.87-3.95,4.22-7.65,6.3-11.49,.51-.8,.77-1.29-.21-2.23-2.47-2.36-4.35-5.25-6.04-8.23-.57-1.01-.61-2.1-.15-3.14,2.07-4.62,3.75-9.38,5.31-14.19,.19-.57,.22-1.24,1.02-1.2,1.47,.06-.2,.71,.18,1.1,.45,.47,1.01,.73,1.54,.7,2.81-.19,5.5-1.28,8.37-1.09,.21,.01,.47-.8,.7-1.23,0-.84-.04-1.67,.18-2.51,2.51-9.51,3.58-19.24,4.18-29.02Z"/><path class="cls-45" d="M353.99,106.11c.36,.24,.79,.5,1.2,.8,8.07,5.89,15.62,12.38,22.63,19.51,1.21,1.23,1.16,1.78-.55,2.18-1.13,.27-2.34,.53-3.31,1.12-4.65,2.81-8.17,1.78-11.74-2.27-3.33-3.77-7.62-6.63-11.74-9.59-1.12-.8-1.78-1.2-1.06-3.05,.96-2.48,1.66-5.05,3.07-7.35,.35-.57,.65-1.2,1.51-1.35Z"/><path class="cls-45" d="M410.08,321.02c-.19,2.37-1.6,4.25-2.67,6.22-3.85,7.08-7.44,14.32-12.33,20.79-.56,.74-.98,1.58-1.9,1.95-.98-4.4-3.2-8.27-5.21-12.22-.51-1-.29-1.65,.28-2.47,3.06-4.34,5.89-8.83,8.4-13.52,.57-1.07,1.28-1.32,2.4-1.35,3.7-.09,7.36,.36,11.03,.61Z"/><path class="cls-45" d="M427.25,250.56c-3.69-.99-6.85-3.04-10.32-4.32-1.08-.4-.82-1.54-.8-2.45,.11-7.58-.86-15.08-1.92-22.89,1.04,.53,1.92,.72,2.84,.03,.94-.69,2.06-1.14,3.07-1.74,4.1-2.39,4.49-2.18,5.21,2.46,1.48,9.53,2.15,19.11,1.93,28.89Z"/><path class="cls-45" d="M326.33,89.99c.34,.15,.73,.3,1.11,.48,8.11,3.78,15.83,8.26,23.23,13.29,.84,.57,1.44,1.02,.11,1.67-3.06,1.5-5.76,3.63-8.95,4.94-1.11,.46-1.83,.42-2.77-.14-4.36-2.57-8.7-5.19-13.36-7.24-.56-.24-1.18-.41-1.15-1.38,.1-3.55,.38-7.08,.97-10.58,.07-.42-.06-1.11,.8-1.05Z"/><path class="cls-45" d="M424.37,216.06c-3.44-1.2-6.33-2.7-9.37-3.12-2.64-.36-2.83-1.91-3.23-3.7-1.11-4.92-2.64-9.72-4.22-14.5-.21-.64-.75-1.29,.04-2.06,2.61-2.58,5.34-5.04,7.71-8.41,4.08,10.41,6.99,20.69,9.08,31.79Z"/><path class="cls-45" d="M256.63,73.71c-1.53,4.14-2.99,8.07-4.42,12.02-.34,.94-1.09,.64-1.69,.63-5.29-.08-10.56,.11-15.78,.96-.97,.16-1.16-.54-1.38-1.13-.89-2.44-1.72-4.9-2.56-7.36-.11-.32-.05-.74-.25-.97-2.82-3.38,.39-2.67,1.99-2.87,7.88-.98,15.8-1.39,24.08-1.29Z"/><path class="cls-45" d="M188.69,85.91c2-.71,3.99-1.42,5.99-2.12,2.14-.41,4-2.02,6.36-1.46-1.07,3.66-.36,7.5-1.15,11.2-.19,.91-.36,1.31-1.31,1.67-5.1,1.95-10.25,3.76-15.14,6.23-1.3,.65-2.72,1.44-2.94-1.41-.14-1.85-2.42-2.87-3.66-4.33-2.74-3.22-2.78-3.22,.99-4.97,2.9-1.35,5.84-2.62,8.76-3.93,.43-.11,.68,.12,.87,.47,.35,.93-.08,1.81-.14,2.72-.04,.65-.33,1.55,.44,1.79,1.15,.37,2.07-.54,2.93-1.12,.84-.58-.08-1.16-.37-1.68-.49-.88-1.33-1.51-1.79-2.42-.07-.25-.01-.46,.18-.64Z"/><path class="cls-45" d="M425.19,259.97c.87,.59,.68,1.5,.62,2.3-.79,9.65-1.83,19.27-4.58,28.61-.07,.23-.26,.42-.4,.63-2.19-2.59-4.13-5.46-6.66-7.67-2.15-1.88-1.65-3.62-1.19-5.81,.94-4.44,1.81-8.91,2.13-13.45,.07-.99,.2-1.76,1.38-2.08,2.92-.77,5.8-1.67,8.7-2.52Z"/><path class="cls-45" d="M401.54,158.02c-3.64,1.12-7.38,1.01-11.12,.96-.71,0-.94-.62-1.29-1.08-2.93-3.93-5.84-7.86-8.8-11.76-.61-.8-.9-1.48-.4-2.5,1.54-3.14,2.97-6.34,4.61-9.88,3.22,3.82,6.3,7.36,8.84,11.33,2.03,3.57,4.66,6.75,6.74,10.29,.51,.86,1.17,1.64,1.42,2.64Z"/><path class="cls-45" d="M212,91.06c-1.24,.68-1.66-.54-2.3-1.03-2.51-1.92-4.28-4.48-5.86-7.17-.66-1.13-.89-1.9,.92-2.39,7.01-1.91,14.09-3.44,21.25-4.67,1.52-.26,1.98,.04,1.46,1.72-.93,3-1.53,6.1-2.39,9.12-.25,.87-.4,1.97-1.66,2.21-3.83,.72-7.64,1.48-11.43,2.22Z"/><path class="cls-45" d="M402.81,159c4.31,7.13,7.89,14.4,11.12,21.86,.67,1.54,.05,2.01-1.35,2.02-2.79,.01-5.59-.05-8.38,0-1.01,.02-1.51-.38-1.91-1.27-2.05-4.54-4.23-9.02-6.79-13.3-.41-.69-.68-1.36,.03-2.05,2.38-2.36,4.36-5.11,7.29-7.27Z"/><path class="cls-45" d="M300.92,80.49c7.49,2.13,14.65,4.66,21.61,7.77,1.11,.49,.9,1.03,.13,1.63-3,2.31-6.04,4.59-8.55,7.45-.59,.68-1.07,.12-1.56-.05-3.67-1.23-7.32-2.54-11.01-3.71-.87-.28-1.21-.58-1.28-1.51-.24-3.11-.6-6.21-.9-9.32-.13-1.27-.07-2.42,1.56-2.26Z"/><path class="cls-45" d="M182.56,171.68c-3.19-3.25-6.39-6.51-9.58-9.76-.53-.54-1.08-1.07-1.57-1.65-.67-.79-.13-1.37,.41-1.95,.64-.69,1.03-.14,1.43,.27,4.85,5.05,9.7,10.1,14.55,15.16,.85,.89,.65,1.93,.14,2.82-.55,.96-1.6,.6-2.35,.35-4.52-1.55-9.01-3.19-13.51-4.8-.84-.3-1.69-.61-2.61-.77,3.57,3.25,7.21,6.37,10.53,9.83,.41,.43,.88,.81,1.22,1.28,.74,1.01,0,1.74-.57,2.46-.85,1.08-1.27,0-1.77-.41-4.85-4.09-9.22-8.69-13.68-13.18-.64-.65-1.25-1.38-1.7-2.17-.44-.77-.4-1.62,.33-2.3,.59-.55,1.09-.68,2-.42,4.47,1.26,8.68,3.21,13.02,4.8,1.02,.38,2.06,.71,3.1,1.06,.51,.1,1.01,.19,.64-.61Z"/><path class="cls-30" d="M332.13,161.45c-2.18,1.87-4.32,3.72-6.47,5.54-.58,.49-1.21,.92-1.8,1.4-.61,.5-1.25,1.02-1.99,.31-.97-.93,.01-1.59,.51-2.11,2.73-2.85,5.52-5.63,8.31-8.42,1.72-1.73,3.49-3.41,5.2-5.15,.61-.61,.98-1.82,2.12-.93,.9,.7,.94,1.64,.45,2.72-2.36,5.18-4.66,10.39-7.18,16.02,2-.9,3.16-2.32,4.37-3.49,2.66-2.58,5.35-5.12,8.37-7.29,.56-.4,1.11-1.65,2.05-.59,.81,.92,.5,1.89-.35,2.68-1.67,1.55-3.33,3.11-5.03,4.63-3.14,2.82-6.31,5.6-9.45,8.41-.95,.84-1.77,1.32-3.09,.4-1.44-1.01-1.12-2.01-.54-3.22,1.38-2.87,2.75-5.76,4.13-8.63,.32-.67,.91-1.26,.4-2.3Z"/><path class="cls-11" d="M364.33,244.81c3.91-.11,7.8-.13,11.62,1,2.24,.66,4.95,3.83,4.93,6.02-.05,3.91-1.45,5.87-4.77,6.7-3.55,.89-7.11,1.27-10.76,.58-1.13-.21-2.35,.05-3.52,.07-6.77,.08-10.49-3.29-8.93-10.27,.59-2.62,2.64-4.04,5.35-4.08,2.03-.03,4.06,0,6.09,0Z"/><path class="cls-30" d="M315.16,321.97c1.99,.18,3.61,1.2,4.97,2.35,3.78,3.19,7.38,6.59,11.05,9.92,2.57,2.33,2.13,5.78,0,8.11-1.88,2.05-5.27,3.32-8.33,.71-3.01-2.56-6.23-4.88-9.3-7.38-1.17-.95-2.36-1.99-3.19-3.22-1.18-1.75-1.82-3.68-.69-5.87,1.23-2.37,2.84-4.11,5.51-4.62Z"/><path class="cls-30" d="M247.75,377.33c-1.79,.12-3.15-.94-4.61-1.71-.7-.37-.88-.98-.6-1.72,.31-.81,.89-1.24,1.76-1.06,.4,.08,.77,.32,1.17,.47,2.49,.95,4.26,.53,4.97-1.19,.86-2.07-.35-4.65-2.72-5.35-1.72-.51-3.27-1.3-4.83-2.1-3.26-1.68-4.27-4.18-3.1-7.56,1.06-3.05,4.83-5.63,7.62-5.07,1.9,.38,3.72,.99,5.15,2.46,.75,.76,.58,1.36,.17,2.23-.61,1.27-1.35,.35-1.85,.15-1.7-.69-3.08-2.14-5.25-1.42-1.55,.51-2.8,1.34-3.08,2.86-.3,1.61,1.01,2.64,2.28,3.28,2.6,1.31,5.47,2.09,7.54,4.35,1.21,1.31,1.89,5.31,1.09,7.13-1.13,2.53-3.48,4.3-5.71,4.28Z"/><path class="cls-30" d="M344.05,323.44c-.02,2.75-3.46,6.52-6.09,7.01-1.11,.21-.99-.71-1.24-1.21-.37-.73-.79-1.63,.3-2.12,1.11-.49,2.05-1.15,2.84-2.06,1.06-1.22,1.81-2.58,.59-4.05-1.35-1.63-3.12-2.12-4.91-.77-1.49,1.13-2.95,2.21-4.72,2.87-4.26,1.58-7.12,.03-9.15-4.44-1.35-2.97,.41-7.77,3.91-8.74,.56-.16,1.12-.37,1.63-.64,1.38-.74,2.56-.46,2.99,1.01,.43,1.49-.91,1.34-1.88,1.62-2.71,.78-4.34,3.72-3.52,6.39,.35,1.13,1.11,2.11,2.57,1.83,2.22-.43,4.48-.76,6.37-2.19,2.06-1.56,4.23-1.81,6.53-.44,2.37,1.41,4.25,3.08,3.79,5.94Z"/><path class="cls-45" d="M172.72,317.71c-5.52,3.13-11.18,5.69-16.54,8.79-.9,.52-1.54,.59-1.93-.49-.29-.81-.84-1.48,.5-2.18,6.49-3.38,12.69-7.3,19.35-10.38,1.02-.47,2.23-1.3,3.2-.08,.87,1.09-.12,2.04-.65,2.94-3.57,6.02-6.98,12.14-11.03,17.86-.61,.86-.94,2.17-2.42,1.23-1.61-1.02-.16-1.98,.26-2.69,3.01-5.04,6.15-10.01,9.25-15Z"/><path class="cls-30" d="M179.5,335.76c.38-1.92-.89-3.58-1.3-5.46-.81-3.75,.7-7.08,3.68-7.77,4.06-.95,8.47,1.39,9.18,5.06,.16,.8,1.12,1.63,.26,2.56-1.1,1.21-2.68,.81-3.16-.91-.42-1.51-.98-2.93-2.43-3.61-2.16-1.02-4.33,.68-4.26,3.14,.09,2.97,1.66,5.63,1.62,8.64-.03,2.73-2.29,5.26-5.87,6.19-2.51,.65-4.54-.42-5.8-3.07-.21-.45-.4-.9-.58-1.36-.32-.82-1.1-1.82,.22-2.33,1.06-.41,2.08-.31,2.58,1.15,.44,1.27,1.11,2.46,2.88,2.31,1.36-.11,2.18-.8,2.74-1.92,.39-.78,.37-1.63,.21-2.61Z"/><path class="cls-30" d="M192.83,164.32c-2.56-5.25-5.12-10.5-7.69-15.74-.5-1.03-1.24-2.05,.36-2.8,1.58-.74,2.03,.59,2.47,1.52,1.96,4.19,3.84,8.41,5.72,12.63,1.09,2.45,2.05,4.97,3.2,7.39,.43,.9,.57,1.52-.25,2.19-.85,.69-1.41,.25-2.16-.29-5.95-4.22-11.97-8.35-17.9-12.59-.58-.41-2.09-.64-1.15-2.17,1.02-1.67,2.01-.99,3.01-.17,4.49,3.68,9.12,7.16,14.41,10.03Z"/><path class="cls-30" d="M151.67,246.12c-5.58-1.79-11.16-3.61-16.76-5.35-.67-.21-1.26-.39-1.7-.96-.58-.74-.23-1.51,.06-2.16,.42-.94,1.12-.3,1.7-.09,6.57,2.33,13.14,4.65,19.7,7.01,1.16,.42,2.72,.74,2.56,2.34-.14,1.42-1.74,1.52-2.77,1.78-6.78,1.66-13.59,3.19-20.41,4.72-.33,.07-1.04,.67-1.19-.2-.12-.69-.42-1.6,.58-1.96,.95-.34,1.93-.59,2.9-.83,5.11-1.26,10.23-2.5,15.34-3.75,0-.18,0-.36,0-.54Z"/><path class="cls-46" d="M356.22,172.21c0,1.41-.45,2.68-1.37,3.72-3.13,3.54-6.59,6.74-10.51,9.37-3.55,2.38-7.54,1.03-9.39-3.62-.55-1.39,.2-2.68,1.07-3.68,3.49-4.02,7.37-7.63,12.11-10.11,3.4-1.78,8.1,.85,8.09,4.33Z"/><path class="cls-12" d="M141.99,382.89c8.34,6.37,16.81,12.55,26.03,17.61,3.4,1.87,6.67,3.99,10.41,5.18,.28,.51,.78,.6,1.28,.7,4.58,2.48,9.53,4.06,14.35,5.96,.77,.3,1.5,.68,2.25,1.02-2.61,.77-4.67-.96-6.86-1.71-12.35-4.27-23.67-10.59-34.32-18.09-4.73-3.33-9.87-6.17-13.75-10.6,.18-.27,.39-.29,.62-.06Z"/><path class="cls-29" d="M92.18,180.34c-5.73,13.75-9.81,27.95-11.73,42.74,.28,.26,.28,.51,0,.76-1.03,4.92-1.37,9.92-1.56,14.93-.02,.44,.14,.81,.57,1.03-1.13,.82-1.53,.28-1.48-.86,.6-12.36,2.32-24.57,5.73-36.45,2.14-7.44,4.56-14.82,7.59-21.97,.19-.45,.55-.82,.84-1.23,.28,.34,.31,.68,.04,1.04Z"/><path class="cls-36" d="M78.58,246.93c.1,18.7,2.65,37.01,8.44,54.83,.26,.79,.4,1.63,.59,2.44-.18,.25-.35,.24-.51-.01-3.96-11.43-6.63-23.16-8.05-35.16-.8-6.77-1.36-13.59-1.16-20.43,.02-.62-.25-1.41,.69-1.68Z"/><path class="cls-5" d="M87.1,304.19c.17,0,.34,0,.51,.01,2.71,6.77,5.42,13.54,8.13,20.31-3.01-4.43-4.85-9.41-6.71-14.36-.73-1.95-1.92-3.78-1.93-5.97Z"/><path class="cls-25" d="M141.99,382.89c-.21,.02-.41,.04-.62,.06-2.37-1.31-4.24-3.24-6.23-5.02-1.94-1.74-3.54-3.85-5.72-5.36-1.08-.75-.66-1.38,.38-1.78-.2,1.17,.81,1.6,1.44,2.19,3.55,3.33,7.15,6.62,10.74,9.92Z"/><path class="cls-31" d="M99.21,331.22c2.9,3.97,5.16,8.33,7.7,12.52,.23,.26,.2,.49-.1,.68-2.98-3.73-5.11-8-7.65-12.02-.26-.4-.14-.8,.05-1.19Z"/><path class="cls-45" d="M401.54,158.02c-2.74-4.29-6.1-8.2-8.15-12.93,3.25,3.72,5.69,8,8.34,12.13,.19,.3,.22,.61-.19,.8Z"/><path class="cls-24" d="M110.45,348.85c2.41,3.2,5.18,6.14,7.1,9.7-3.1-2.46-5.19-5.71-7.16-9.06-.22-.24-.2-.45,.06-.64Z"/><path class="cls-41" d="M110.45,348.85c-.02,.21-.04,.42-.06,.64-1.59-1.41-2.65-3.19-3.57-5.06,.03-.23,.06-.45,.1-.68,1.38,1.56,2.51,3.3,3.54,5.11Z"/><path class="cls-14" d="M201.04,82.33c-2.25-.07-4.1,1.59-6.36,1.46,2.25-1.46,4.88-1.8,7.43-2.78,0,1-.79,.9-1.07,1.32Z"/><path class="cls-8" d="M296.88,79.79c-2.14-.96-4.6-.85-6.67-2.03,2.41-.16,4.6,.84,6.88,1.37,.35,.08,.89,.22,.48,.79-.06,.08-.45-.08-.69-.13Z"/><path class="cls-21" d="M121.57,363.19c1.77,.36,1.9,3.03,4.04,2.88-.18,.56-.46,1.33-1.12,.67-1.08-1.08-2.54-1.89-2.92-3.55Z"/><path class="cls-26" d="M174.28,196.62c.31,1.26-.5,2.05-.5,3.11q-1.71-1.39,.5-3.11Z"/><path class="cls-28" d="M95.21,173.23c.14,1.17-.65,2.01-1.03,3-.53,.39-.22,1.35-1.05,1.53l.04,.03c.1-1.78,.94-3.23,2.04-4.57Z"/><path class="cls-39" d="M171.02,216.59c-.31,.83-.57,1.51-.83,2.21-.84-.27-1.33-1.11-1.15-1.67,.19-.61,1.12-.74,1.98-.54Z"/><path class="cls-32" d="M118.03,359.11c1.05,.53,1.8,1.29,2.04,2.48-1.5-.15-1.73-1.35-2.04-2.48Z"/><path class="cls-47" d="M92.18,180.34c-.01-.35-.02-.69-.04-1.04,.34-.5,.69-1,1.04-1.51,0,0-.04-.03-.04-.03,.88,1.01,.25,1.79-.41,2.56-.18,0-.37,.01-.55,.02Z"/><path class="cls-19" d="M148.13,222.76c1.17-.4,1.92-1.05,3.28-.59-1.14,.41-1.89,1.03-3.28,.59Z"/><path class="cls-16" d="M259.32,104.76c.53,.02,.7,.51,.87,.94,.05,.14-.14,.51-.28,.55-.6,.15-.91-.31-1.11-.74-.13-.29,.08-.62,.53-.75Z"/><path class="cls-7" d="M276.57,405.64c-.99-.12-1.38-.54-1.67-1.24,1.08-.43,1.27,.33,1.67,1.24Z"/><path class="cls-35" d="M187.19,87.43c-.2-.21-.41-.42-.61-.64,.54-.68,1.28-.88,2.11-.88,.02,.13,.03,.27,.03,.4-.23,.76-.64,1.26-1.52,1.11Z"/><path class="cls-33" d="M182.56,171.68c.48,.41,.96,.82,1.63,1.39-1.08,.05-1.72-.24-2.27-.78l.64-.61Z"/><path class="cls-22" d="M295.34,90.68c.13,.2,.36,.43,.42,.7,.08,.37-.17,.65-.54,.54-.26-.08-.57-.36-.62-.6-.06-.32,.23-.56,.74-.63Z"/><path class="cls-13" d="M154.13,239.5c-.1,.14-.24,.47-.37,.47-.29,0-.69-.09-.85-.3-.2-.26,.16-.38,.38-.45,.3-.09,.63-.23,.84,.28Z"/><path class="cls-42" d="M135.14,289.15c.39-.03,.57,.14,.47,.4-.06,.17-.31,.32-.51,.37-.23,.06-.51-.05-.39-.36,.07-.18,.31-.3,.43-.41Z"/><path class="cls-23" d="M325.83,327.2c.47,.19,.51,.52,.47,.85-.03,.26-.22,.46-.49,.24-.18-.15-.36-.39-.37-.6,0-.16,.26-.33,.39-.48Z"/><path class="cls-16" d="M228.77,87.91c-.42,.02-.55-.25-.53-.59,.01-.22,.14-.44,.21-.66,.39,.15,.66,.41,.74,.84,.07,.36-.22,.34-.42,.42Z"/><path class="cls-2" d="M155.7,103.18c.07,.13,.06,.24-.04,.35,.02,1.01-.55,.94-1.23,.66l-.18,.06-.15-.12c.32-.68,.81-1.07,1.6-.95Z"/><path class="cls-17" d="M321.66,100.52c.22-.11,.42-.27,.65-.32,.35-.07,.41,.24,.39,.46-.03,.26,.16,.78-.43,.62-.18-.05-.29-.35-.6-.77Z"/><path class="cls-15" d="M309.98,247.11c-.4,19.56-8.34,35.93-22.17,49.65-8.66,8.59-18.87,14.55-30.98,16.4-16.79,2.56-31.3-2.39-42.93-14.9-7.92-8.52-12.11-18.84-14.13-30.23-2.43-13.67-.35-26.74,5.82-38.91,7.57-14.95,19.06-25.83,35.64-30.54,6.15-1.75,12.27-3.81,18.78-3.52,15.99,.71,29.22,6.82,39.35,19.61,7.57,9.56,10.35,20.43,10.63,32.43Z"/><path class="cls-27" d="M84.97,263.53c.2,1.27-.42,1.49-1.67,.95-1.13-.49-1.96-1.26-2.3-2.41-.28-.93,.59-1.25,1.2-1.66,1.59-1.08,1.53-1.07,1.99,.91,.16,.68,.97,1.16,.77,2.22Z"/><path class="cls-34" d="M102.16,323.99c-1.03,0-1.9,.15-2.68-.04-.83-.2-1.95-.23-2.21-1.31-.27-1.11,.75-1.59,1.41-2.19,.87-.79,1.63-.85,1.69,.59,.05,1.23,1.27,1.64,1.8,2.95Z"/><path class="cls-34" d="M115.89,351.4c-.64-.19-1.67,.55-1.96-.82-.22-1.07,.3-1.85,.95-2.46,.49-.45,1.43-.89,1.45,.5,0,.36-.1,.61,.36,.73,.72,.19,1.85,.35,1.65,1.19-.25,1.08-1.49,.79-2.45,.85Z"/><path class="cls-20" d="M89.17,290.23c-.67,.7-.26,1.38,.36,2.16,.27,.35,.19,.95-.29,1.34-.76,.61-1.41,.09-2.1-.15-1.78-.62-.48-1.81-.26-2.51,.24-.77,.64-1.99,1.98-1.72,.24,.05,.67,.24,.31,.89Z"/><path class="cls-15" d="M259.48,140.07c.99-4.84,.32-9.26,.57-13.67,.09-1.57,.72-2.18,2.29-1.9,1.31,.24,1.73,.59,1.72,2.25-.04,6.29-1.07,12.48-1.53,18.73-.05,.73,1.63,1.92-.29,2.29-1.43,.27-2.73,.14-3.69-1.4-2.68-4.33-5.51-8.57-8.52-13.2-.58,1.48-.43,2.69-.44,3.85-.01,3.64-.17,7.28,.07,10.91,.16,2.48-1.71,1.53-2.65,1.78-1.51,.4-.91-1.01-.96-1.68-.54-7.28,.68-14.48,.96-21.72,.04-1.17,.46-1.39,1.5-1.36,1.47,.05,2.79,.69,3.18,1.94,1.56,4.92,5.17,8.54,7.78,13.18Z"/><path class="cls-34" d="M224.45,413.45c1.08,.19,2.26,.39,2.19,1.48-.09,1.44-1.35,2.68-2.56,2.76-1.47,.09-1.68-1.75-1.84-2.85-.29-1.95,1.82-.37,2.21-1.38Z"/><path class="cls-1" d="M197.1,406.62c-.21,2.04-1.7,2.25-2.64,2.98-.52,.4-1.26,.44-1.84-.11-.72-.69-.52-1.59-.33-2.35,.18-.71,.91-.62,1.6-.74,1.18-.2,2,.91,3.21,.23Z"/><path class="cls-4" d="M169.56,394.97c-.8,1.9-2.16,2.31-3.4,2.46-.6,.07-1.56-.7-1.32-1.79,.23-1.04,.72-1.98,1.97-1.73,.95,.19,1.84,.7,2.75,1.06Z"/><path class="cls-43" d="M144.11,380.93c-.87-.2-2.04-.19-1.57-1.21,.36-.78-.28-2.53,1.17-2.27,1.23,.22,3.24,1.31,3.26,2.05,.04,1.57-2.17,.4-2.86,1.42Z"/><path class="cls-43" d="M124.45,133.58c.8,.38,1.83,.25,2.15,1.19,.32,.97-.32,1.28-1.17,1.45-.21,.04-.26,.62-.49,.8-.64,.51-.48,2.1-1.37,1.78-1.4-.5-1.47-2.11-1.41-3.41,.06-1.37,1.32-1.48,2.29-1.81Z"/><path class="cls-27" d="M105.94,162.83c-.67,.8-.33,2.63-1.66,2.65-1.18,.02-1.67-1.47-1.88-2.62-.18-.98,.52-1.35,1.38-1.31,.87,.04,1.94-.16,2.16,1.29Z"/><path class="cls-10" d="M260.25,416.19c2.16-1.03,4.48-.1,6.25-1.62,.5-.43,.96,0,.88,.65-.25,2.06-1.22,3.78-2.77,5.11-.63,.54-1.29,0-1.71-.54-.87-1.11-1.67-2.26-2.64-3.59Z"/><path class="cls-4" d="M294.8,412.73c.01,1.22-.21,2.31-1.88,2.28-1.59-.03-1.75-1.21-1.66-2.28,.15-1.83,2.28-.1,2.98-1.45,.13-.26,.86,.65,.56,1.45Z"/><path class="cls-10" d="M80.45,223.85c0-.25,0-.51,0-.76,1.37-.78,2.83-1.26,4.6-1.4-.4,1.95-.98,3.81,.25,5.95-2.49-.7-3.72-2.18-4.86-3.79Z"/><path class="cls-1" d="M91.62,192.06c-.44,1.64-.55,3.19-.49,4.76,.02,.49-.23,.94-.6,.98-.32,.04-.74-.32-1.03-.59-.92-.84-1.89-2.06-1.56-3.1,.43-1.37,2.05-1.76,3.68-2.06Z"/><path class="cls-4" d="M325.26,402.92c.22,1.33-.63,2.01-1.83,1.99-1.27-.02-3.03-.85-2.84-1.87,.3-1.63,2.58-.92,3.84-1.77,.49-.33,.85,.83,.83,1.65Z"/><path class="cls-10" d="M381.22,361.61c-1.35-.02-2.37,0-2.99-.94-.18-.27,2.37-3.2,2.73-3.12,1.43,.32,1.5,1.59,1.67,2.68,.21,1.37-.78,1.43-1.41,1.37Z"/><path class="cls-27" d="M353.23,386.39c-.27,.79,.63,2.28-1.23,2.11-1.05-.1-2.54-.29-2.38-1.54,.17-1.36,1.5-2.78,2.7-2.98,1.22-.2,.73,1.5,.91,2.41Z"/><path class="cls-37" d="M277.63,81.63c-.69,.31-2.33,1.47-2.06-1.01,.16-1.52,1.08-3.24,2.88-3.29,1.74-.04,1.36,1.86,1.54,2.9,.21,1.2-.68,1.76-2.36,1.4Z"/><path class="cls-37" d="M154.44,104.19c.49-.06,1-.1,1.23-.66,.17,.01,.35,0,.5,.04,1.62,.54,3.48,1.34,3.83,2.88,.33,1.44-2.08,1.13-2.87,2.19-.23,.31-.67,.47-1.21,.84-1.06-1.63-1.15-3.5-1.47-5.29Z"/><path class="cls-43" d="M412.72,307.25c-1.05-.08-2.04,0-2.38-1.16,1.66-.04,.36-2.6,2.03-2.47,1.31,.1,2.07,1.23,2.19,2.34,.13,1.2-1.02,1.31-1.85,1.29Z"/><path class="cls-18" d="M364.67,118.02c-.88,.92-.37,3.09-2.34,2.97-.9-.06-2.22-.48-2.09-2.02,.14-1.7,1.5-2.17,2.77-2.44,.42-.09,1.7,.25,1.66,1.49Z"/><path class="cls-37" d="M399.81,335.06c-.93-.24-2.52-.32-1.97-1.56,.43-.95,.24-2.93,1.94-2.8,1.38,.11,2.01,1.58,2.06,2.77,.04,.93-.66,1.94-2.02,1.59Z"/><path class="cls-37" d="M421.14,234.72c-2.02-.05-1.58-1.74-1.84-2.75-.27-1.06,.71-1.47,1.61-1.35,1.46,.18,3.35,.38,3.27,2.25-.06,1.52-1.93,1.45-3.04,1.85Z"/><path class="cls-38" d="M338.3,99.7c-.38,.94,.29,2.88-1.79,2.47-.93-.18-2.83,.3-2.58-1.65,.19-1.5,1.38-2.6,2.78-2.87,1.04-.2,1.82,.68,1.59,2.05Z"/><path class="cls-27" d="M415.74,198.58c1.15,.12,2.1,.35,1.9,1.44-.23,1.26-1.08,2.4-2.37,2.52-1.18,.11-1.76-1.3-1.71-2.1,.08-1.16,1.01-2.04,2.18-1.86Z"/><path class="cls-38" d="M242.66,79.17c-1.34,0-2.72,.58-2.68-1.22,.02-1.14,.31-2.62,1.74-2.65,1.61-.03,2.14,1.52,2.39,2.8,.3,1.55-.8,1.32-1.45,1.07Z"/><path class="cls-18" d="M187.19,87.43c.51-.37,1.02-.74,1.52-1.11,.42,.41,.93,.76,1.24,1.23,.72,1.11,2.22,1.97,2.04,3.28-.08,.57-1.81,.92-2.81,1.36-.73,.32-1.46,1.19-2.27,.58-.63-.47-.35-1.43-.28-2.16,.1-1.07,.36-2.13,.56-3.19Z"/><path class="cls-4" d="M420.73,272.18c1.16,.21,2.75,.75,2.69,1.75-.1,1.52-1.81,1.93-3.23,2.26-1.01,.23-.94-.69-1.32-1.14,1.27-.51-.19-2.79,1.86-2.86Z"/><path class="cls-27" d="M390.97,146.3c1.09,0,2.03-.12,1.81,1.07-.19,1.03-.15,2.6-1.53,2.57-1.04-.02-2.3-.96-2.35-2.22-.06-1.56,1.45-1.17,2.07-1.42Z"/><path class="cls-9" d="M220.09,81.33c-.37,1.63-2.07,.73-2.92,1.62-.27,.28-1.77-.72-1.56-1.87,.19-1.03,.03-2.83,1.39-2.69,1.42,.14,2.21,1.82,3.1,2.94Z"/><path class="cls-37" d="M405.96,170.19c.68,.05,2.21-.33,2.05,1.54-.12,1.38-1.27,2.49-2.46,2.41-1.29-.09-2.81-1.1-2.79-2.58,.02-1.51,1.57-1.42,3.2-1.37Z"/><path class="cls-37" d="M311.55,88.79c-.23,.74,.6,2.28-1.36,2.22-1.33-.04-2.77-.06-3.02-1.77-.16-1.05,2.2-3.4,3.15-3.35,1.19,.06,1.25,.21,1.23,2.89Z"/><path class="cls-15" d="M366.22,247.34c2.34,0,4.29-.05,6.24,.01,2.88,.09,4.84,1.72,5.15,4.19,.32,2.58-1.01,4.14-4.06,5.13-1.68,.55-3.36,.35-5.02,.28-3.03-.12-6.08-.25-9.05-.77-3.42-.61-4.54-2.13-4.22-4.79,.32-2.62,2.57-4.45,5.55-4.38,1.94,.04,3.88,.24,5.42,.35Z"/><path class="cls-15" d="M329.83,338.2c-.07,2.65-2.78,4.44-4.98,3.01-4.23-2.76-8.67-5.35-11.72-9.59-1.18-1.63-1.82-3.11-.08-4.88,1.69-1.72,3.54-1.76,5.16-.46,3.71,3,7.73,5.69,10.71,9.53,.59,.76,1.09,1.5,.91,2.39Z"/><path class="cls-15" d="M341.08,183.85c-2.44,0-3.86-1.93-3.03-4.21,.52-1.45,1.5-2.66,2.62-3.65,2.27-2,4.72-3.79,7.3-5.37,1.92-1.18,3.93-1,5.27,.61,1.18,1.41,.14,2.91-.94,4.21-2.61,3.14-5.91,5.46-9.07,7.96-.69,.55-1.45,.26-2.16,.44Z"/><path class="cls-45" d="M256.63,198.05c17.07-.05,29.19,6.22,38.42,17.96,5.09,6.48,8.18,13.83,9.01,22.3,1.3,13.41-1.67,25.75-7.67,37.54-5.69,11.17-14.14,19.74-25.09,25.76-6.25,3.44-12.93,5.6-20.14,6.2-15.69,1.29-27.61-5.54-37.04-17.26-9.22-11.46-12.46-24.99-11.18-39.41,1.58-17.78,9.26-32.61,23.46-43.69,3.54-2.76,7.8-4.43,12.11-5.85,6.52-2.15,13.12-3.74,18.13-3.56Z"/><path class="cls-15" d="M300.84,245.71c.05,23.94-15.37,47.15-36.57,55.44-22.11,8.65-44.44-1.17-53.28-23.42-2.81-7.07-4.41-14.44-3.98-22,.72-12.66,4.99-24.07,13.08-34.03,4.51-5.56,9.99-9.9,16.11-13.33,4.29-2.4,9.19-3.73,14.04-4.63,8.9-1.66,17.74-.9,26.01,2.82,13.69,6.15,21.63,16.91,24.01,31.73,.42,2.58,.63,5.19,.57,7.41Z"/><path class="cls-45" d="M298.01,246.72c-.44,15.87-6.22,29.81-17.87,41.21-7.34,7.18-16.18,11.9-26.29,13.1-14.1,1.68-25.86-3.36-34.6-14.75-5.54-7.22-8.41-15.44-8.95-24.54-1.28-21.37,7.07-38.23,24.2-50.64,4.54-3.29,10.32-4.72,15.88-5.75,12.37-2.31,23.76,.11,33.52,8.41,7.58,6.45,11.97,14.68,13.54,24.55,.43,2.7,.15,5.36,.58,8.41Z"/><path class="cls-3" d="M252.82,261.55c-3.67,.02-6.53-3.34-6.79-7.86-.3-5.3,7.45-10.72,12.07-8.28,1.22,.65,2.24,1.48,2.89,2.72,2.62,5.08-2.44,13.38-8.16,13.42Z"/><path class="cls-45" d="M249.02,252.96c.06-2.27,2.39-5.51,4.01-5.58,2.52-.11,5.75,2.21,5.7,4.09-.1,3.38-3.29,7.15-5.95,7.04-2.01-.09-3.83-2.77-3.76-5.55Z"/></svg>