<?xml version="1.0" encoding="UTF-8"?>
<svg id="ross" xmlns="http://www.w3.org/2000/svg" viewBox="0 0 3720 2600">
  <defs>
    <style>
      .cls-1 {
        letter-spacing: -.01em;
      }

      .cls-2 {
        letter-spacing: 0em;
      }

      .cls-3 {
        fill: none;
        stroke: #1d1d1b;
        stroke-width: 5px;
      }

      .cls-3, .cls-4 {
        stroke-miterlimit: 10;
      }

      .cls-5 {
        font-family: Neris-Light, Neris;
        font-size: 43.25px;
      }

      .cls-5, .cls-4 {
        fill: #1d1d1b;
      }

      .cls-4 {
        stroke: #a5cfdb;
        stroke-width: 13px;
      }
    </style>
  </defs>
  <path class="cls-3" d="M2346.7,1.87c24.14,46.12,53.17,93.72,72.04,122.02,23.35,35.03,90.81,123.25,115.47,155.68,24.65,32.43,73.95,103.79,96.01,162.17,22.06,58.38,40.22,116.76,40.22,175.14s-7.78,159.57-7.78,203.69,1.3,101.2-12.97,140.12c-14.27,38.92-54.49,98.28-76.54,114.65-22.06,16.38-54.49,13.78-72.65,15.08-18.16,1.3-35.03,5.19-28.54,20.76,6.49,15.57,16.87,28.54,32.43,6.49,15.57-22.05,16.87-38.92,16.87-76.54s7.78-64.87,60.98-89.52c53.19-24.65,147.9-60.98,180.33-60.98s108.98,7.78,176.44,70.06c67.46,62.27,149.2,181.63,193.31,280.23,44.11,98.6,110.28,278.93,107.68,333.42-2.6,54.49-41.11,103.79-43.26,134.93-2.15,31.14,7.34,83.03,0,121.95-7.34,38.92-14.72,88.09,2.59,108.91s65.31,59.74,76.99,77.91c11.68,18.16,18.16,40.22-12.97,45.41-31.14,5.19-80.44,9.08-146.6-14.27-66.17-23.35-133.63-51.9-151.79-77.84-18.16-25.95-7.79-66.17-10.38-80.44-2.59-14.27-27.45-6.49-33.19,5.19-5.73,11.68-1.84,33.6-9.63,46.64-7.78,13.04-22.05,.06-28.54,7.85-6.49,7.78,7.78,24.65-6.49,33.73-14.27,9.08-49.98,10.69-65.86,26.75-15.88,16.06-13.28,34.22-15.88,49.79-2.59,15.57-19.46,25.54-32.43,32.23-12.97,6.69-11.68,23.55-12.97,44.31-1.3,20.76-31.13,92.59-81.73,129.33-50.6,36.73-97.3,35.5-141.41,21.19-44.11-14.3-84.33-72.68-111.57-85.66s-45.06-31.14-49.13-32.43c-4.07-1.3,30.24-10.38,40.98-23.35,10.74-12.97,31.5-63.57,40.58-86.92,9.08-23.35,34.05-49.3,32.59-25.95-1.45,23.35-6.65,86.92-17.02,114.17-10.38,27.25-40.22,91.3-45.41,121.55-5.19,30.25-.72,97.71-17.23,123.66-16.51,25.95-78.77,90.82-128.08,127.14-26.84,19.77-73.67,49.54-119.35,84.92"/>
  <path class="cls-3" d="M1577.5,312.3c11.66,7.65,18.83,57.09,18.16,83.04-.67,25.95,9.51,56.22-14.7,127.15-24.22,70.93-27.68,147.04-15.57,205.86,12.11,58.82,44.98,107.25,91.69,129.74,46.71,22.49,112.44,24.22,186.83,17.3s211.05-12.11,270.73-8.65,116.77,7.86,131.47,18.63c14.7,10.77,47.57,64.4,47.57,90.35s-3.03,59.65-5.65,79.58c-3.87,29.41-7.33,41.52,18.62,57.95,25.95,16.43,63.14,17.3,77.85,20.76,14.7,3.46,39.79,9.51,42.38,12.11s2.59-32.87,0-54.49-4.32-24.22-23.35-60.55c-19.03-36.33-46.9-92.29-64.1-145.61-17.2-53.33-16.28-80.14-10.25-114.74,6.02-34.6,54.46-154.83,63.98-171.26,9.51-16.43,28.98-16.43,35.68-26.81,6.7-10.38,10.16-20.76-5.41-32s-74.39-29.41-124.55-49.3c-50.17-19.89-121.09-46.71-158.29-55.36-37.19-8.65-62.28-11.24-80.44-13.84s-42.42-14.7-63.59-18.16c-21.17-3.46-64.42-6.92-80.85-11.24-16.43-4.32-19.03-20.76-51.03-35.46-32-14.7-38.92-27.68-57.95-34.6-19.03-6.92-23.35-3.46-54.49-11.24s-67.43-12.48-90.82-11.24c-32.87,1.73-58.82,5.19-82.17,8.65"/>
  <polyline class="cls-4" points="1618.05 832.34 1573.4 806.77 1606.05 783.25 1618.05 832.34"/>
  <polyline class="cls-4" points="2104.41 428.8 2154.97 419.2 2145.44 458.3 2104.41 428.8"/>
  <polyline class="cls-4" points="2626.46 433.55 2587.78 399.61 2624.45 383.05 2626.46 433.55"/>
  <polyline class="cls-4" points="3115.03 2048.91 3165.73 2040.12 3155.59 2079.06 3115.03 2048.91"/>
  <text class="cls-5" transform="translate(1642.11 402.91)"><tspan x="0" y="0">1840-</tspan><tspan class="cls-1" x="112.53" y="0">4</tspan><tspan x="138" y="0">1</tspan></text>
  <text class="cls-5" transform="translate(2666.63 432.74)"><tspan x="0" y="0">18</tspan><tspan class="cls-1" x="40.26" y="0">4</tspan><tspan x="65.74" y="0">1-</tspan><tspan class="cls-2" x="98.56" y="0">4</tspan><tspan x="124.51" y="0">3</tspan></text>
</svg>