<?xml version="1.0" encoding="UTF-8"?>
<svg id="discovery" xmlns="http://www.w3.org/2000/svg" viewBox="0 0 3720 2600">
  <defs>
    <style>
      .cls-1, .cls-2, .cls-3, .cls-4, .cls-5 {
        fill: none;
        stroke: #1d1d1b;
      }

      .cls-1, .cls-2, .cls-6, .cls-5 {
        stroke-miterlimit: 10;
      }

      .cls-1, .cls-2, .cls-5 {
        stroke-width: 5px;
      }

      .cls-1, .cls-3, .cls-4, .cls-5 {
        stroke-linecap: round;
      }

      .cls-3 {
        stroke-dasharray: 0 0 12.2 12.2;
      }

      .cls-3, .cls-4 {
        stroke-linejoin: round;
        stroke-width: 4px;
      }

      .cls-6 {
        fill: #1d1d1b;
        stroke: #a5cfdb;
        stroke-width: 13px;
      }

      .cls-5 {
        stroke-dasharray: 0 0 12.79 12.79;
      }
    </style>
  </defs>
  <g>
    <path class="cls-1" d="M2237.17,1132.56c2.22,1.33,3.87,2.3,5.14,3.1"/>
    <path class="cls-5" d="M2248.4,1146.37c.25,.87,.54,1.84,.88,2.91,3.24,10.3,19.95,63.52,22,90.09"/>
    <path class="cls-1" d="M2271.46,1245.76c-.09,2.42-.4,4.42-.97,5.9"/>
  </g>
  <path class="cls-2" d="M2114.63,192.74c-7.37,23.77-14.26,93.83-7.34,150.91,6.92,57.09,25.5,208.24,37.61,242.84,12.11,34.6,77.85,105.52,101.2,145.31,23.35,39.79,24.42,62.28,18.7,74.39-5.73,12.11-11.92,43.11-17.83,84.77-5.92,41.66-8.22,89.96-6.05,120.23s-32.08,68.24-28.48,78.71c3.61,10.47,13.92,36.18,24.73,42.67"/>
  <path class="cls-2" d="M2160.59,126.33c-1.3,22.88-42.85,89.96-58.42,121.09-15.57,31.14-54.77,120.16-58.64,148.49-3.87,28.33-36.17,145.33-44.12,223.18-7.95,77.85-25.77,202.96-18.04,225.44,7.73,22.48,25.1,36.96,42.43,29.11,17.33-7.85,56.23-39.79,68.77-44.98,12.54-5.19,11.65,8.65,29.39,0,17.74-8.65,35.04-1.73,58.4-13.84,23.35-12.11,45.84-12.11,30.27,1.73-15.57,13.84-15.52,30.78-12.09,56.91,3.44,26.13,48.13,53.83,42.66,76.3"/>
  <g>
    <path class="cls-4" d="M2107.29,1188.49c1.35-1.52,2.79-2.91,4.3-4.18"/>
    <path class="cls-3" d="M2121.81,1177.69c8.89-4.4,18.12-6.2,23.96-7.37,17.3-3.46,19.54-7.65,40.3-25.08,7.59-6.37,27.8-5.65,41.51-6.27"/>
    <path class="cls-4" d="M2233.66,1138.53c2.5-.29,4.51-.71,5.81-1.36"/>
  </g>
  <polyline class="cls-6" points="1983.62 768.91 1966.18 720.49 2006.29 723.74 1983.62 768.91"/>
  <polyline class="cls-6" points="2125.47 483.92 2152.76 527.54 2112.87 532.86 2125.47 483.92"/>
</svg>