<?xml version="1.0" encoding="UTF-8"?><svg id="Ebene_3" xmlns="http://www.w3.org/2000/svg" viewBox="0 0 99.36 652.6"><defs><style>.cls-1{fill:#fff;}.cls-2{fill:none;stroke:#fff;stroke-miterlimit:10;stroke-width:2px;}</style></defs><rect class="cls-2" x="20.99" y="32.68" width="57.38" height="587.25" rx="28.69" ry="28.69"/><g><g><polygon class="cls-1" points="43.48 220 49.68 205.07 55.88 220 43.48 220"/><polygon class="cls-1" points="43.48 232.38 49.68 217.45 55.88 232.38 43.48 232.38"/></g><g><polygon class="cls-1" points="55.88 432.6 49.68 447.53 43.48 432.6 55.88 432.6"/><polygon class="cls-1" points="55.88 420.23 49.68 435.16 43.48 420.23 55.88 420.23"/></g></g><g><g><polygon class="cls-1" points="43.48 89.99 49.68 75.06 55.88 89.99 43.48 89.99"/><polygon class="cls-1" points="43.48 77.61 49.68 62.68 55.88 77.61 43.48 77.61"/><polygon class="cls-1" points="43.48 102.36 49.68 87.43 55.88 102.36 43.48 102.36"/></g><g><polygon class="cls-1" points="55.88 562.62 49.68 577.55 43.48 562.62 55.88 562.62"/><polygon class="cls-1" points="55.88 574.99 49.68 589.92 43.48 574.99 55.88 574.99"/><polygon class="cls-1" points="55.88 550.24 49.68 565.17 43.48 550.24 55.88 550.24"/></g></g></svg>