<?xml version="1.0" encoding="UTF-8"?>
<svg id="Sheckleton" xmlns="http://www.w3.org/2000/svg" viewBox="0 0 3720 2600">
  <defs>
    <style>
      .cls-1 {
        stroke-dasharray: 0 0 11.73 11.73;
      }

      .cls-1, .cls-2, .cls-3, .cls-4, .cls-5 {
        fill: none;
        stroke: #1d1d1b;
        stroke-width: 5px;
      }

      .cls-1, .cls-2, .cls-3, .cls-4, .cls-6 {
        stroke-miterlimit: 10;
      }

      .cls-1, .cls-2, .cls-4, .cls-5 {
        stroke-linecap: round;
      }

      .cls-7 {
        letter-spacing: 0em;
      }

      .cls-4 {
        stroke-dasharray: 0 0 11.82 11.82;
      }

      .cls-5 {
        stroke-linejoin: round;
      }

      .cls-8 {
        font-family: Neris-Light, Neris;
        font-size: 43.25px;
      }

      .cls-8, .cls-6, .cls-9 {
        fill: #1d1d1b;
      }

      .cls-10 {
        letter-spacing: 0em;
      }

      .cls-6 {
        stroke: #a5cfdb;
        stroke-width: 13px;
      }
    </style>
  </defs>
  <rect class="cls-9" x="2109.44" y="994.04" width="10.38" height="10.38" transform="translate(-87.2 1787.94) rotate(-45)"/>
  <g>
    <line class="cls-2" x1="2317.9" y1="1462.84" x2="2316.27" y2="1457.07"/>
    <path class="cls-4" d="M2313.08,1445.69l-9.88-35.17s-12.11-41.95-13.41-48.87c-1.3-6.92,0-16.43,0-16.43,0,0,1.3-7.35,4.32-10.81,3.03-3.46,6.92-6.92,6.92-9.08s-1.3-14.7-1.73-16.43c-.43-1.73,1.3-6.92,1.73-11.24,.43-4.32-1.73-15.14-2.59-18.6-.86-3.46-5.91-18.6-7.93-25.95-2.02-7.35-5.48-16.43-7.21-24.22-1.73-7.78-9.95-34.6-12.54-43.25-2.59-8.65-6.49-27.25-7.35-30.71-.86-3.46-1.73-13.41-5.62-16.43-1.1-.86-2.38-1.82-3.73-2.8"/>
    <path class="cls-2" d="M2249.17,1132.35c-1.9-1.22-3.73-2.27-5.23-2.94"/>
  </g>
  <path class="cls-3" d="M2139.8,164.11s32.43,94.71,49.3,141.41c16.87,46.7,84.33,210.17,93.41,259.47,9.08,49.3,36.33,221.85,35.39,280.71,0,0-9.95,119.36-10.81,121.96s-14.7,7.35-13.84,9.95c.86,2.59,73.52,152.66,76.12,153.96s48.44,9.95,51.46,10.38,4.32,10.81,7.35,10.81,19.03-2.16,19.46-3.89,0-13.41-3.03-16.87-34.6-20.76-36.76-21.19-24.22,5.62-28.54,7.78-18.6,5.19-22.06,6.92c-3.46,1.73-11.24-1.73-26.35-6.05-15.11-4.32-46.74-16-52.71-15.14-5.98,.86-32.08,5.62-37.27,9.08-5.19,3.46-3.75,2.16-1.15,14.7-8.07-4.61-13.12-17.73-13.12-17.73,0,0,9.08-18.16,15.14-41.52,6.05-23.35,26.81-75.25,31.14-92.55,4.32-17.3,8.65-45.41,11.68-67.9,3.03-22.49,12.11-70.49,12.11-70.49,5.26-66.64-1.22-153.56-14.2-219.73-12.97-66.17-23.35-138.82-48-216.66-24.65-77.84-49.3-125.84-68.76-167.36-12.81-27.32-27.24-83.03-27.24-83.03"/>
  <g>
    <path class="cls-2" d="M2114.63,999.23s2.12,.99,5.43,2.55"/>
    <path class="cls-1" d="M2130.67,1006.8c11.94,5.67,26.39,12.62,27.65,13.62,2.16,1.73,24.65,29.84,29.41,34.6s13.41,19.03,14.27,22.06,3.03,11.68,2.16,12.97c-.86,1.3-2.63,3.89,.2,6.05,2.83,2.16,4.99,7.78,6.29,9.95,1.3,2.16,.43,8.22,0,9.95s3.46,0,6.49,5.19c1.02,1.74,2.03,3,2.94,3.98"/>
    <path class="cls-2" d="M2223.18,1129.89v6l7.35-2.59,2.16,7.78,4.42-4.05"/>
    <polyline class="cls-2" points="2240.11 1136.21 2246.11 1135.89 2243.94 1129.41"/>
  </g>
  <line class="cls-5" x1="2239.76" y1="1128.11" x2="2243.94" y2="1129.41"/>
  <text class="cls-8" transform="translate(1845.15 973.94)"><tspan x="0" y="0" xml:space="preserve">         magn</tspan><tspan class="cls-7" x="190.33" y="0">e</tspan><tspan class="cls-10" x="211.78" y="0">t</tspan><tspan x="226.49" y="0">ischer </tspan><tspan x="108.55" y="51.9">Südpol</tspan></text>
  <polyline class="cls-6" points="2345.82 1089.24 2307.96 1054.4 2345.02 1038.71 2345.82 1089.24"/>
  <polyline class="cls-6" points="2296.52 730.15 2314.06 778.53 2273.94 775.36 2296.52 730.15"/>
</svg>