<svg xmlns="http://www.w3.org/2000/svg" viewBox="0 0 310 650"><defs><style>.cls-3{fill:#80bbba}.cls-7{fill:#72acad}.cls-8{fill:#72a8a9}.cls-39{fill:#67a3a5}.cls-42{fill:#387980}.cls-61{fill:#6ab1b5}.cls-84{fill:#689fa1}.cls-93{fill:#3e7b80}.cls-100{fill:#214b4d}.cls-102{fill:#589599}.cls-105{fill:#396365}.cls-109{fill:#24555c}</style></defs><g id="Ebene_2"><path d="M-1.78-.45h314.26v653.19H-1.78z" class="cls-100"/><path d="M306.44 634.7H14.46V15.63h287.92l4.06 619.07z"/><path d="M305.34 37c0-2.29 0-4.59.01-6.88 1.14 1.99.91 4.13.7 6.27-.04.37-.39.5-.71.61Z" style="fill:#699494"/><path d="M12.63 34.59c.13.46.12.92-.05 1.37-.83-.49-.8-.95.05-1.37Z" style="fill:#476d6f"/><path d="M301.95 208.44c.44.39.3.91.3 1.39.05 20.26.08 40.52.17 60.79.01 3.06.36 6.12.34 9.19 0 1.64-.36 3.02-1.22 4.44-2.24 3.69-4.33 7.46-6.12 11.4-4 8.85-8.15 17.63-12.18 26.47-2.03 4.45-3.77 9.03-5.85 13.47-2.8 5.95-6.35 11.46-9.53 17.19-3.3 5.96-6.84 11.76-11.23 17-1.7 2.03-3.61 3.9-5.36 5.89-1.11 1.26-2.73 1.74-4.26 2.78 1.74 1.14 3.06.39 4.25-.45 2.31-1.63 4.39-3.56 6.29-5.65 5.22-5.75 9.33-12.26 13.1-19.02.52-.94 1.15-1.82 1.75-2.72.18-.27.39-.55.79-.56.35.85-.09 1.64-.35 2.37-2.22 6.34-4.09 12.82-6.98 18.91-3.02 6.37-6.14 12.69-9.12 19.09-1.8 3.87-4.62 7.27-7.04 10.83-1.03 1.51-1.46 3.14-.73 3.53.47.25 2.72-.86 3.07-1.8 1.28-3.44 4.24-5.98 5.19-9.55 1.06-4.01 3.5-7.28 5.44-10.82 3.28-5.97 6.48-11.97 8.46-18.53.16-.54.26-1.14.72-1.56 1.22.11 1.48 1.09 1.85 2 .76 1.87.94 3.94 1.92 5.73 1.47 6.32 2.32 12.73 2.83 19.19-.46 2.47-.62 4.93 0 7.4.2 3.25-.57 6.44-.54 9.68.01 1.6-.99 2.56-2.49 3.04-2.21.71-4.42 1.44-6.64 2.1-3.03.89-3.33 1.33-3.35 4.58-.01 1.85.25 3.65.86 5.38.94 2.66 2.6 3.66 5.37 3.28 1.07-.15 2.14-.28 3.2-.5 1.69-.36 3.41-.6 4.12 1.57.66 2.02-.33 4.46-2.08 5.37-.52.27-1.07.45-1.65.54-3.75.59-7.39 1.96-11.3 1.29-1.12-.19-2.27.36-3.32.9-2.83 1.45-3.36 1.08-3.42-2.15-.07-3.22.28-6.46-.2-9.67-.05-4.89.2-9.78.31-14.66.05-2.42.43-4.74.69-7.1.48-.72 0-1.51.18-2.28-.24.28-.46.52-.71.73-.89 2.12-1.85 4.23-1.6 6.63.1 1-.1 1.99-.37 2.95-1.57 5.54-1.14 11.16-.78 16.79.61 9.49 2.19 18.93 1.7 28.48-.37.63-.12 1.32-.19 1.98 0 .34 0 .69-.06 1.03-.22.56-.18 1.16-.2 1.74-.04 1.91-.94 3.81-.06 5.73-.18 1.99-.35 3.98-.53 5.98-.21 1.74-.45 3.47-.4 5.23-.71 5.67-.52 11.45-1.98 17.03-.27 2.42-2.38 3.93-3.09 6.13-1.68 1.63-3.83 2.61-5.66 3.97-4.12 3.07-8.87 4.47-13.66 5.79-3.51.97-7.14 1.46-10.76 1.95-4.27.58-8.5 1.46-12.78 1.88-4.78.46-9.4 1.84-14.28 1.89-4.72.04-9.44.6-14.17.54-1.57-.02-3.15-.2-4.72-.29-.74-.04-1.53-.23-2.22-.06-2.17.53-4.28.28-6.4-.23-5.49-1.32-11.16-1.62-16.67-2.86-1.7-.38-3.4-.74-5.05-1.33-6.42-2.28-12.99-4.03-19.54-5.89-1.95 0-3.67-.43-4.64-2.35l-4.4-3.14c-.66-.47-1.43-.84-1.64-1.74-.46-2.2-1.75-4.08-2.4-6.21-.27-.88-.7-1.71-.46-2.64 1.24-4.77.95-9.68 1.29-14.53.7-9.98.76-20.01 2.29-29.93.39-2.52.74-5.08.7-7.66-.1-6.23.55-12.4 1.6-18.53.32-1.89.22-3.4-1.66-4.45-1.66-.92-1.41-3.13-2.68-4.37.36-8.07-1.86-15.78-3.34-23.59-.56-2.94-1-5.86-.34-8.88.29-1.34.07-2.81 0-4.22-.04-.78.02-1.33.96-1.32 1.44.01 1.65-.85 1.8-2.09.56-4.61 1.27-9.23 2.6-13.68 1.61-5.35 4.25-10.27 7.26-14.97.31-.49.69-.95.91-1.48.26-.63-.13-1.14-.62-1.48-.42-.29-.8 0-1.08.3-.68.73-1.44 1.41-1.97 2.24-3.93 6.03-6.85 12.52-8.52 19.52-.65 2.73-.53 5.58-.42 8.39-3.14.07-3.4.31-4.25 4.02-1.19-2.89-3.07-5.04-3.97-7.72-.9-2.67-1.7-5.38-2.48-8.09-.77-2.66-.18-5.55-1.18-8.66-1.65 1.83-2.53 3.5-2.2 5.48 1.04 6.35 2.54 12.54 6.83 17.64.16.19.29.4.46.59 1.32 1.44 1.46 2.78.35 4.6-2.09 3.44-2.62 7.49-3.86 11.27-.67 2.04-1.23 4.11-1.84 6.17-1.49 2.47-2.35 5.19-3.17 7.93-3.8 7.55-8.36 14.63-13.25 21.5-.89 1.26-1.99 2.41-2.49 4.08 1.8.62 3.05.19 4.14-1.24 1.4-1.86 2.42-3.95 3.7-5.87.17-.24.34-.25.53-.03-.29 1.29-.64 2.57-.86 3.86-.12.72-.18 1.58.89 1.71.87.1 1.65-.03 1.92-1.09.61-2.41 1.28-4.83.75-7.33-.27-1.24-.03-2.22.61-3.27 2.07-3.37 4.06-6.78 6.24-10.42 1.22 1.78 2.11 3.38 2.85 5.07.39 3.01.24 6.04.25 9.06-.03.62-.49 1.12-.5 1.75-.07.34-.18.66-.27.99-.13.3-.34.56-.48.86-.14.29-.27.59-.45.86l.03-.05c-.18.11-.22.27-.16.47-1.09 1.24-2.33 2.21-3.81 3.04-2 1.13-3.79 2.65-5.54 4.16-4.02 3.46-8.85 4.71-13.94 5.21-1.29.13-2.63-.3-3.94-.3-5.87 0-11.7-.71-17.53-1.23-.25-.27-.27-.83-.71-.78-.25.03-.12.56-.31.81-.24.04-.49.07-.73.11-3.04.55-3.18.5-4.07-2.58-1.56-5.39-2.33-10.82-1.09-16.44.82-3.72 1.18-7.53 1.76-11.29 1.09-7.15 3.87-13.69 7.83-19.73 2.16-3.3 3.44-6.91 4.64-10.65 2.28-7.09 4.44-14.22 7.16-21.18 3.07-7.86 7.51-14.95 11.64-22.22.99-1.74 2.28-3.25 3.81-4.55 3.39-2.25 7.12-4.09 9.23-7.87.64-1.15 1.78-1.93 2.74-2.81.7-.63 1.48-1.09 2.42-.4q.39 2.48 2.52 2.56c1.03.63.43 1.89 1.24 2.93 2.28-2.28 3.99-5 6.14-7.33 1.85-2 3.33-4.35 5.08-6.41 2.37-2.8 5.95-3.75 9.55-4.21 8.9-1.15 17.09-4.03 24.75-8.85 3.43-2.16 6.69-4.47 9.9-6.92.46-.35 1.02-.56 1.27-1.13 6.86-3.27 14.11-5.25 21.6-6.37 6.07-.9 12.2-1.17 18.33-1.46 1.74-.08 3.48-.1 5.21.22.62.11 1.32.29 2.03-.47-.7-1.18-1.93-1.28-3.09-1.4-8.64-.89-17.2-.65-25.65 1.65-5.75 1.57-11.58 2.87-17.07 5.28-.98.43-1.93.95-2.89 1.43-.9-.57-2.08-.69-2.73-1.68-.24-.49-.13-.96.1-1.42 1.63-1.68 2.65-4.03 5.2-4.7 5.34-4.18 11.09-7.63 17.74-9.19 8.16-1.92 16.4-2.25 24.63-.3.48.11.94.32 1.4.48 1 .88 2.15 1.27 3.48 1.03 5.34 1.47 6.76 5.8 7.53 10.54 2.58-.63 2.6-.63 1.97-2.86-.63-2.24-1.55-4.38-2.75-6.34-1.25-2.05-3.2-3.28-5.59-3.77-.72-.15-1.5-.09-2.15-.52-.05-.72.51-1.06.96-1.46 1.45.3 2.91.63 4.38.28.37-1.14-.62-1.92-.59-3.03.97-.65 2.05.13 3.23-.15.13-1.64-.91-2.87-1.66-4.37 1.24-.46 2.58-.61 3.55-1.54.25-1.06-1.13-1.13-1.22-2.09.55-.38 1.15-.78 1.84-1.25-.33-.92-1.17-1.2-1.76-1.72-.93-.82-.86-1.36.31-1.68 1.45-.39 2.85-.83 4.09-1.78-.14-1.02-1.12-1.17-1.66-1.74-.21-.43-1.28.02-.97-.94.38-.16.78-.29 1.15-.48 1.63-.85 1.64-.96.22-2.12-1.79-1.47-2.88-4.87-1.78-6.67 1.89-3.08 2.14-6.52 2.91-9.91 1.56-6.9-1.36-12.36-5-17.61-4.24-6.11-9.85-10.72-16.49-14.08-.17-.19-.22-.41-.17-.66.66-1.36 1.92-1.39 3.17-1.44 1.55-.07 3.09 0 4.63.03-2.36-.46-4.73-.45-7.11-.09-.82.13-1.63.3-2.08 1.13-.45.28-.9.4-1.33-.03-.5-5.08.41-10.06 1.18-15.04.8-5.2 2.7-10.07 4.8-14.84 1.42-3.23 3-6.45 5.28-9.24.59-.72 1.22-1.34 2.03-1.78.59.06 1.15.18 1.64.55 1.4 1.95 3.43 3.28 5.44 5.29-1.2-.18-1.98-.26-2.74-.42-3.41-.73-7.14 1.28-8.47 4.5-.96 2.33-1.29 4.78-1.64 7.24-.3 2.05-.53 4.1-.86 6.14-.37 2.26.01 4.43.5 6.62 1.97-.61 2.47-1.13 2.57-2.77.32-5.32 1.69-10.45 2.81-15.62.26-1.2.6-2.42 2.22-3.24-.05 3.43 1.87 6.13 2.53 9.23-.07.2-.33.45.14.49 2.01 3.2 3.83 6.53 6.46 9.3.16.56.54.91 1.06 1.13 2.29 1.92 4.71 3.63 7.37 4.99 1.73.72 3.37 1.61 5.01 2.53 1.22 3.07 2.95 5.94 3.64 9.22.27 1.31.74 2.67-.44 3.73-1.24 1.11-2.3.04-3.39-.48-.37-.18-.74-.39-1.37-.2.36 1.39 1.64 1.99 2.58 2.65 3.14 2.22 4.52 4.99 4.73 8.98.41 7.98-.31 15.85-1.04 23.76-.11 1.2-.22 2.43.22 3.62 1.13-4.74 1.89-9.55 2.22-14.37.74-10.82.59-21.57-4.54-31.57-.41-.8-.93-1.61-.5-2.59 1.02-1.09 1.55 0 2.15.52 1.34 1.16 2.15 2.89 3.86 3.68 2.77 3.46 6.22 6.25 9.34 9.37-.21 1.21 1.1 2.66-.56 3.64-.68-1.05-.28-2.48-1.17-3.48-.9.14-.71.84-.69 1.34.1 2.73.29 5.46.36 8.2.15 5.97.5 11.94.67 17.92.22 7.96.83 15.91 1.3 23.86.05.88-.06 1.85.81 2.6 1.44-.7 2.14-1.71 2.21-3.46.27-7.32-.25-14.6-.82-21.88-.11-1.38-.02-2.77-.02-4.12.37-.17.57.04.68.24 2.21 4.19 4.36 8.41 4.97 13.2.3 2.4.88 4.73 1.51 7.05.35 1.28.09 2.24-.86 3.13-4.62 4.33-8.13 9.63-12.35 14.31-1.85 2.05-3 4.56-4.5 6.84-.69.25-.95.88-1.29 1.44-1.05 1.75-2.15 3.46-3.07 5.28-.38.76-.86 1.37-1.63 1.75-3.06.24-6.04.26-9.03-.89-3.42-1.31-6.98-1.16-10.43.25-.44.18-1.07.26-.88.95.15.55.64.73 1.19.56.55-.17 1.1-.4 1.7-.26.19.16.39.39.61.41 3.19.28 4.83 2.54 6.33 4.96.68 1.1 1.26 1.82 2.89 1.52 1.82-.34 3.54.54 4.89 1.9.23.24-.09-.03.15.2 0-.06-.05-.09-.09-.16-.13-.18-.26-.34-.4-.5-.15-.17-.27-.35-.37-.55-.09-.21-.14-.43-.16-.66 0-.23.03-.45.11-.66.1-.2.26-.36.45-.48 1.84 1.24 2.95 3.11 4.21 4.86.66.91 1.07 2.04 2.12 2.79.54-1.65-.54-2.82-.78-4.17.37-1.16.52-2.52 2.12-2.66 1.61-.14 2.96.51 3.88 1.79.97 1.34 1.79 2.78 2.38 4.34.21.54.38 1.11.71 1.58.41.57.78 1.49 1.71.83.75-.53.59-1.33.12-1.99-1.58-2.23-3.38-4.28-5.18-6.33-.9-1.02-1.83-2.02-.79-3.48 3.48.77 6.57 2.53 9.99 4.01.14-1.79-.44-2.91-1.79-3.84-1.61-1.1-3.52-1.39-5.21-2.23-.03-1.16.85-1.76 1.55-2.43 5.17-4.97 8.43-11.2 11.58-17.51.76-1.53.43-2.24-1.32-2.52-1.33-.22-2.84.04-3.94-1.09 1.98-2.94 4.48-5.42 7.06-7.82.36.23.75.41 1.1.03 2.11-2.25 4.61-4.12 6.36-6.71 1.6-1.62 3.63-2.61 5.46-3.91.91-.17 1.77-.42 2.06-1.47 2.42-2.01 5.01-3.74 7.89-5.04.47.07.88.02 1.02-.54.18-.14.36-.28.54-.41.66-.74 1.59-.98 2.47-1.32-.98.38-1.93.86-3.04.69-2.83.87-5.38 2.33-8 3.67-.88.45-1.73 1.38-2.86.5l.1-.18-.18.1c-1.03-2.89 0-7.3 2.29-9.3 1.64-1.43 3.15-2.95 4.29-4.79.32-.52 1.3-1.04.36-1.86-1.01-.88-1.79-.85-2.78.12-1.82 1.81-3.64 3.62-5.46 5.42-.17.17-.38.31-.58.47-1.47-.61-1.03-2.12-1.51-3.2-2.07-4.69-3.91-9.46-5.6-14.29-1.33-3.78-4.22-6.23-7.36-8.39-1.15-.79-2.01-1.65-2.37-2.99 1.14-4.87 4.83-7.57 8.71-10.02 2.16-1.37 4.53-2.43 6.82-3.55 2.47-1.2 5.29-1.22 7.96-.21 2.55.97 5.03 2.09 7.24 3.73 2.32 2.79 5.49 4.67 7.78 7.55 3.3 4.14 5.5 8.99 8.9 13.04.39.52.57 1.28 1.41 1.32Z" class="cls-105"/><path d="M168.7 187.97c-3.14 1.02-6.29 2.04-9.43 3.07-6.59 2.16-12.23 5.85-17.22 10.61-2.79 2.67-4.5 5.9-5.31 9.65-.19.9-.34 1.78 0 2.69 1.04 2.79 1.92 5.65 4.06 7.9.91.95 1.68 2.08 2.31 3.24 1.23 2.27.76 3.46-.66 4.61-1.81 1.46-3.46 3.12-4.69 5.13-1.17 1.91-1.08 2.19 1.07 3 .62.23 1.27.39 1.91.53.63.14 1.31-.18 1.98.21.25 1.67-.31 3.27-.57 4.88-.46 2.86-.12 5.64.49 8.38.35 1.57.03 2.59-1.23 3.39-1.5.96-2.58 2.3-3.62 3.64.46 1.2 1.73.5 2.37 1.28-.17.33-.27.77-.54 1.05-1.33 1.44.05 3.1-.41 4.64-.18.6 1.04.27 1.27.87-1.56 2.48-1.39 2.9 1.57 3.78.31.09.62.21 1.11.39-.53 1.48-1.67 2.47-2.49 3.65-.61.88-.36 1.41.6 1.61.89.18 1.8.23 2.92.37-.67 1.44-.49 2.45 1.28 2.51.16 0 .44.07.45.16.61 2.95 3.14 1.3 4.7 1.98.22-.09.44-.12.67-.06.78.95.03 1.99.2 2.98-.02.23-.1.44-.24.62-.39.31-.81.74-1.3.65-1.99-.37-3.75.5-5.55 1.02-4.76 1.38-9.5 2.85-14.25 4.3-1.27.39-2.55.72-3.69 1.46-1.43.94-3.19.85-4.73 1.44-6.19 2.39-12.28 5.02-18.21 7.98-3.46 1.73-6.59 4.14-9.79 6.36-1.3.9-2.58 1.81-3.96 2.57-1.31.73-1.55.57-2.03-.8-.31-.89-.36-1.76-.37-2.67-.35-33.47-.68-66.94-1.05-100.41-.3-27.08-.66-54.15-1-81.23-.05-3.65-.18-7.29-.28-10.9-.33-.07-.54-.18-.64-.12-2.39 1.45-5 1.4-7.68 1.4-6.72-.01-13.45-.22-20.16-.37-12.11-.27-24.22-.6-36.34-.67-.58 0-1.16 0-1.74.03-.61.02-.85.38-.87.97-.02.6.21.94.83.97.5.02 1 .05 1.49.07l32.62 1.11c2.4.08 4.81 0 7.18.58 1.41.35 2.79-.26 4.19-.21 4.98.18 9.96.33 14.94.5.24 0 .49 0 .71.45-.3.75-1.07 1.26-1.7 1.88-3.5 3.44-7.58 6.19-11.18 9.51-1.22 1.12-2.39 2.32-3.7 3.33-1.02.79-1.49 2.63-3.37 1.96-1.07 1.24-2.5.87-3.84.85-6.89-.09-13.77-.69-20.67-.5-5.23.14-10.45.39-15.68.64-1.55.07-2.36 1.65-1.59 2.97.23.4.65.46 1.07.49 1.74.1 3.48.22 5.22.3 5.14.22 10.29.42 15.43.64 0 1.17-.82 1.61-1.74 1.96-5.97 1.3-12.02 1.33-18.07 1.01-2.45-.13-3.34-1.34-3.34-4V97.94c-.4-.88 1.16-1.6.22-2.54-.48-2.05-.16-4.13-.17-6.2-.04-8.8.02-17.61.02-26.41 0-10.78-.03-21.57-.08-32.35-.01-2.74-.17-5.47-.21-8.21-.05-3.95-.28-3.55 3.39-3.55h37.87c50.66 0 101.32-.15 151.98.1 14.28.07 28.56-.33 42.84-.15 6.14.08 12.29-.09 18.43-.12 7.29-.03 14.59.04 21.88-.09 2.1-.04 4.21.09 6.32-.23 1.6-.24 1.79-.04 1.8 1.46.07 9.22.19 18.43.11 27.65-.02 1.9.1 3.79.07 5.69-.22 13.44.61 26.87.35 40.31-.07 3.48.06 6.97.15 10.46.03 1.28-.17 1.85-1.76 1.87-4.55.05-9.09.39-13.64.65-7.02.39-14.02.91-20.99 1.85-.57.08-1.17.02-1.73.16-1.13.29-1.43-.41-1.72-1.25-.3-.87-.23-1.39.66-2.05 2.71-2 4.65-4.52 4.22-8.19-.34-2.95-2.13-4.96-4.35-6.68-.18-.14-.45-.22-.69-.25-4.94-.67-9.85 1.4-11.6 6.39-.72 2.05.09 4.04.95 5.74.97 1.92 1.29 3.89 1.6 5.91.54 3.52 1.2 7.01 2.16 10.45.21.7.54 1.63-.24 1.96-.87.37-1.57-.43-1.86-1.2-1.1-2.87-2.64-5.59-2.91-8.73-.2-.62-.26-1.32-1.24-1.16-1.21.2-2.43.32-3.65.47-2.03.26-4.03.71-6.09.73-1.84.27-3.7.08-5.55.15-.89.04-1.8-.07-2.44.76-3.13.26-6.28.12-9.4.59-.41.06-.82.12-1.22.2q-3.35.71-3.01 4c.05.49.08.99.07 1.49-.16 4.42.4 8.77 1.17 13.1.1.53-.12.75-.66.66-2.54-1.36-5.21-.51-7.81-.39-1.19.06-1.53 1.45-1.8 2.46-.32 1.17-.78 1.32-1.93.95-2.23-.73-4.83 1.29-4.87 3.72-.02 1.15 0 2.33.38 3.44.28.85.18 1.32-.84 1.62-5.81 1.68-10.82 4.67-14.88 9.23-3.64 4.09-6.97 8.42-10.42 12.66-1.68 2.07-2.26 4.58-3.03 7.01-1.14 3.63-2.02 7.34-3.25 10.94-.54 1.57-.6 3.03-.32 4.59.11.07.23.13.34.2-.12.06-.23.12-.35.18Z" class="cls-61"/><path d="M156.17 635.23c-.34.67-.98.5-1.53.5-15.65-.03-31.3-.08-46.96-.1-1.98 0-3.97.12-5.95.1-.77 0-1.67.36-2.31-.44 1.31-1.39 3.21-1.73 4.75-2.71.27.19.59.37.82.02.28-.42.12-.94.16-1.41-.03.42.12.9-.11 1.24-.57.84-.89 0-1.3-.27-.69-1.52-.58-3.11-.21-4.64 1.57-6.47 1.63-12.97.39-19.48-.87-4.59-.85-9.24-1.09-13.86-.16-3.05.36-6 4.21-6.91 1.38-.33 1.49-1.84 1.62-3.1.29-2.67-.46-5.28-.45-7.94.03-5.64 0-11.28 0-16.92v-50.77c0-3.33.31-6.61 1.34-9.8.24-.73.18-1.75 1.41-1.66 2.03 1.6 3.84 3.49 6.27 4.53.37.16.74.33 1.11.49 1.81.53 3.61 1.09 5 2.47 2.65 1.42 5.6 2.07 8.34 3.23 5.21 2.2 10.63 3.77 15.98 5.53 4.17 1.37 8.46 2.3 12.9 2.5 2.56.11 5.11.52 7.66.83 5.21.63 10.42.02 15.63.07 9.83.09 19.47-1.74 29.19-2.86 7.01-.81 13.9-2.16 20.65-4.25 2.78-.86 5.44-1.99 8.03-3.33 2.53-1.31 3.08-1 3.72 1.75.63 2.68.69 5.43.88 8.15.57 8.43 1.38 16.85 1.78 25.3.21 4.47.5 8.95.57 13.42.12 6.96-.14 13.93-.73 20.87-.28 3.31.12 6.64-.29 9.95-.93 7.41-2.41 14.73-3.9 22.04-1.09 5.35-2.29 10.68-3.65 15.96-1.82 2.17-2.07 4.8-2.21 7.47-.18.72-.38 1.43-.53 2.15-.49 2.39-.49 2.41-2.85 2.42-2.82.02-5.64 0-8.46 0-4.73 0-9.45.02-14.18 0-8.13-.04-16.26-.1-24.38-.14-2.6-.02-2.68 0-3.28-2.61-1.73-7.51-3.41-15.03-5.08-22.56-1.36-6.16-2.05-12.42-2.91-18.66-.16-1.15-.35-2.29-.53-3.43.23-.91.02-1.75-.46-2.54-.1-1.32-.19-2.63-.29-3.96 1.09-.33 1.72.27 2.39.9 3.02 2.86 6.26 5.42 9.82 7.61 2.77 1.7 5 4.09 7.32 6.36.5.5.9 1.21 1.86.93 1.75-.5 2.08-1.4.87-2.83-2.43-2.86-5.07-5.52-8.34-7.42-3.38-1.96-6.52-4.29-9.8-6.4-1.38-.88-1.97-2.66-3.81-3.09 5.79-.23 11.45.9 17.07-.25 5.5-1.13 11.16-1.7 16.32-4.17-.94-2.17-1.11-2.31-3.03-1.76-6.24 1.78-12.63 2.85-19.02 3.86-4.62.73-9.22.54-13.51-1.96-1.22-.71-2.87-.67-4.37-.38-1.06.2-2.13.33-3.18.57-6.67 1.55-12.81-.47-18.92-2.75-5.72-2.13-10.91-5.24-15.98-8.57-.49-.32-.95-.67-1.45-.96-.46-.27-.96-.87-1.41 0-.31.6-.63 1.22.12 1.76.27.19.54.39.82.56 5.03 3.08 10.01 6.21 15.41 8.65 7.3 3.3 14.84 4.61 22.8 3.49 3.36-.47 3.65-.19 3.18 3.21-.26 1.87-.1 3.82-.88 5.61-1.77 5.84-3.21 11.76-4.48 17.72-1.72 8.07-3.51 16.1-6 23.97-.43 1.37-1.24 2.51-1.8 3.79-.68 1.54-1.84 3.05-.82 4.9Z" class="cls-105"/><path d="M274.82 370c-1.2-1.25-1.49-2.9-2-4.45-.33-1.01-.65-2.03-.97-3.05.04-1.19.56-2.25.97-3.33 1.54-4.06 2.44-8.27 3.07-12.54.14-.92.33-1.78.78-2.6 4.85-8.91 8.3-18.46 12.72-27.56 3.3-6.79 6.15-13.78 9.16-20.7 1.05-2.41 2.42-4.69 3.66-7.06.86.44.48 1.09.51 1.59.06 1.08.02 2.16.02 3.24.06 17.44-.08 34.87.23 52.31.33 18.75.2 37.51.53 56.26.18 10.21 0 20.41.26 30.61.24 9.38-.07 18.77.18 28.14.47 17.42.2 34.86.56 52.28.22 11.12 0 22.24.26 33.35.28 12.12-.13 24.25.21 36.36.35 12.78.16 25.56.51 38.33.11 3.98.21 7.95.26 11.93-.86 1.36-2.27 1.17-3.57 1.24-5.97.31-11.91-.81-17.88-.47-13.48.75-26.99.8-40.48 1.06-1.12.02-2.36.31-3.23-.79-.14-2.19.35-4.24 1.09-6.31 1.65-4.61 2.65-9.42 3.66-14.2 1.36-6.4 3.06-12.76 3.98-19.22.74-5.23 2.09-10.43 1.74-15.8-.09-1.3.29-2.63.42-3.95.7-7.2.49-14.45.32-21.64-.15-6.44-1.06-12.9-1.21-19.36-.17-7.15-1.34-14.21-1.66-21.34-.08-1.89-.6-3.76-.43-5.68.1-1.4-.76-3.02.95-4.04 4.33-2.02 5.83-5.96 6.7-10.19.87-4.23 1.2-8.54 1.13-12.87-.07-4.06-.22-8.13.09-12.19.19-2.48.61-4.94.89-7.41.68-6.02 1.19-12.05.27-18.1 1.08-1.96 3.37-2.76 4.45-4.81.5-.96 1.05-2.08 2.1-2.71 3.1-1.26 6.46-1.45 9.68-2.19 3.22-.75 4.76-2.52 5.1-5.79.26-2.41.28-4.74.05-7.16-.73-7.67-1.25-15.34-.92-23.07.21-4.86-.41-9.75-1.35-14.55-.59-2.99-.61-6.07-1.45-9.03-.26-.93-.25-2-1.32-2.51Z" class="cls-61"/><path d="M56.58 368.55c.86-.29 1.65-.22 1.36.92-1.1 4.22-1.55 8.64-4.68 12.15-3.1 3.47-4.71 7.68-5.73 12.25-.94 4.2-2.5 8.25-3.82 12.36-1.16 3.61-1.49 7.3-1.09 11.06.18 1.73.32 3.47.42 5.21.15 2.64 1.24 5.01 2.27 7.34 2.59 5.88 1.03 4.95 7.61 5.63 3.55.36 7.07.94 10.62 1.33.13.13.16.26.11.38s-.1.17-.15.17c-2.32.16-2.34.16-2.34 2.6-.06 18.09-.06 36.18-.18 54.27-.29 45.06-.51 90.11-.49 135.17 0 1.66.07 3.32.11 4.97.02.91-.35 1.35-1.32 1.35-5.22 0-10.45.19-15.67-.03-.18-.18-.35-.17-.52.01-2.82.14-5.63.13-8.45 0-.34-.36-.68-.36-1.02 0l-3.93.09c-1.58.28-2.28-.58-2.55-1.98-.08-.41-.11-.83-.11-1.24.15-12.78-1.54-25.52-1.03-38.31.47-11.85.98-23.69 1.37-35.54.14-4.22-.5-8.44-1.03-12.63-.18-1.38-1.18-2.09-2.37-2.65-2.57-1.21-4.86-2.82-7.02-4.68-1.45-1.26-2.04-2.69-2.03-4.56.04-8.8.02-17.61.02-26.4v-.81c.03-.27.16-.48.39-.62.23-.1.47-.14.72-.12l.35.06c.22.05.43.15.63.26.19.1.36.23.52.37.23.19.43.41.61.65.11.13.2.29.26.45.06.15.14.29.22.42 0 0 .12.18.11.17 0-.01.09.16.08.13 0-.02.05.12.04.09s.02.06.02.05 0-.08-.02-.11c0-.02-.05-.14-.07-.16l-.11-.2a2.25 2.25 0 0 1-.34-.76c-.09-.19-.16-.39-.21-.59-.12-.61-.26-1.22-.43-1.83-.07-.21-.11-.42-.14-.63-.07-.63-.21-1.25-.38-1.87-.07-.31-.16-.62-.2-.94-.08-.5-.16-1-.3-1.5-.08-.37-.16-.75-.33-1.09-.18-.23-.31-.47-.42-.74-.06-.18-.12-.36-.19-.54-.06-.18-.12-.36-.19-.54-.04-.09-.07-.18-.11-.27-.05-.19-.13-.36-.23-.52-.35-2.48-.16-4.98-.15-7.46.03-17.44.13-34.88.08-52.33 0-2.4.5-3.97 2.76-5.16 2.94-1.55 5.51-3.7 7.75-6.19.77-.86 1.55-1.71 1.59-2.98-1.26-.62-2.08-.01-2.92.76-2.39 2.19-4.88 4.26-7.52 6.14-.38.27-.7.75-1.35.56-.43-.64-.24-1.39-.23-2.1.03-6.06.1-12.12.11-18.19 0-1.54.39-2.95.98-4.34 1.89-4.5 3.79-9 5.69-13.5.28-.66.37-1.36-.35-1.7-.68-.32-1.07.29-1.31.83-.88 1.97-1.71 3.97-2.58 5.94-.59 1.34-1.24 2.66-1.98 4.25-.59-.91-.42-1.58-.42-2.2-.02-7.48-.05-14.95 0-22.43.03-3.82.21-7.63.32-11.44.44-.38.91.15 1.36-.03.19-.04.37-.05.56-.05.35.06.67.39 1.05.12 1.5-.43 3.06-.65 4.48-1.42 1.1-.6 2.4-.56 3.66-.43 1.07.11 2.18.35 3.22.19 2.19-.33 4.17-.29 6.21.9 1.12.65 2.7.58 4.06.95 1 .27 1.58.75 1.8 1.77.22 1.03.56 2.04 1.23 2.86.85-.27.59-.76.52-1.24-.71-4.76-3.68-8.22-6.6-11.74-2.37-2.87-5.53-4.69-8.54-6.74-2.05-1.4-4.08-2.76-5.82-4.61-1.39-1.48-3.29-2.47-4.94-3.71-1.61-1.21-2.56-2.47-2.29-4.55.13-.97.02-1.97.02-3.39 1.39 1.15 2.02 2.41 2.82 3.49 1.2 1.63 2.59 3.04 4.3 4.09 2.83 1.75 5.41 3.81 7.93 5.97.3.26.71.63 1.04.6 1.71-.17 2.53.99 3.36 2.13.85 1.17 2.05 1.94 3.17 2.78 3.11 2.33 6.04 4.94 9.69 6.47 1.94.81 2.83.81 3.05-.1.36-1.48-1-1.72-1.84-2.26-1.74-1.11-3.54-2.13-4.86-3.72.13-.9.97-.26 1.16-.58 1.11-1.84 2.51-1.14 4.05-.71 3.18.87 6.39.66 9.56-.24.39-.11.74-.38 1.42-.17-.21 3.68.71 7.48-1.01 11.14-.49 1.03-.65 2.22-.85 3.36-.17.96-.63 1.25-1.55 1.04-1.13-.26-2.38-.25-3.39-.73-2.73-1.33-5.62-2.47-7.65-4.92-.57-.21-.71.02-.54.54 2.56 3.45 5.76 5.97 10.01 7 .12.12.26.17.42.13l.2-.11c.15-.18.21-.43.41-.57Z" class="cls-105"/><path d="M16.72 96.91c-.04 1.41-.1 2.81-.1 4.22-.02 12.67-.02 25.34-.03 38.01 0 3.15.99 4.13 4.21 4.15 5.8.04 11.58-.22 17.31-1.11 4.26-.91 8.57-.26 12.85-.46 2.67-.05 5.33.01 7.97.4.03 15.86.05 31.71.08 47.57.04 20.51 0 41.01.15 61.52.06 8.21.64 16.41.83 24.62.15 6.64.05 13.28.06 19.92-.6.25-.88-.13-1.14-.56-.3-2.25-2.28-3.32-3.5-4.93-.32-.94-.94-1.61-1.83-2.06-3.27-3.66-7.24-5.69-12.24-6.01-1.9-.12-3.93-.04-5.78-.81-.69-.44-1.5-.38-2.28-.49-4.75-1.58-9.61-1.97-14.54-1.31-1.25.17-2.27.26-3.01-.92.2-8.38.43-16.76.36-25.15-.01-1.39-.23-2.82 1.19-3.83.5-.35.57-1.21-.03-1.5-1.41-.68-1.14-1.88-1.14-3 0-4.07.04-8.14.05-12.21.02-25 .06-50 .05-75 0-19.51-.06-39.03-.08-58.54 0-1.05-.27-2.18.51-3.12.15.12.21.25.18.38-.03.14-.06.22-.1.22Z" class="cls-100"/><path d="M63.49 437.36c.01-.18.03-.37.04-.55 2.07-.56 4.14-.03 6.17.19 5.43.6 10.55-.39 15.53-2.45.38-.16.77-.31 1.16-.46.07-.02.16.01.46.05.05.81.15 1.67.16 2.53.23 13.11.44 26.22.66 39.34.16 9.63.3 19.25.47 28.88.33 18.92.68 37.84 1.02 56.76.13 6.97.25 13.94.4 20.91.29 13.36.59 26.71.93 40.07.09 3.56 0 7.13.35 10.69.22 2.26.1 2.3-2.02 2.31-7.8.01-15.61.02-23.41 0-1.87 0-1.91-.04-1.91-1.95.03-11.12.07-22.25.12-33.37.56-12.74 2.17-25.47.7-38.25-.13-1.16.07-2.32.03-3.48-1.23-36.27-.24-72.55-.58-108.83-.04-4.13.4-8.27-.29-12.38ZM62.13 162.07c.02-7.55.05-15.1.03-22.65 0-1.15.26-2 1.17-2.83 3.56-3.24 7.1-6.5 10.8-9.58 2.55-2.12 4.81-4.55 6.99-7.08.78.47.48 1.21.49 1.8.34 18.18.66 36.36.99 54.54.37 20.34.75 40.68 1.13 61.02.27 14.53.45 29.06.88 43.58.32 10.71.26 21.42.56 32.12.04 1.51-.31 2.66-1.28 3.82-4.28 5.17-8.44 10.44-11.78 16.29-2.59 4.54-4.9 9.23-7.1 13.97-.24.52-.32 1.13-.88 1.48-.68-.56-.54-1.35-.54-2.06-.05-9.88-.08-19.77-.12-29.65 0-1.57.91-3.08.46-4.66-.8-2.78-.41-5.61-.51-8.42-.02-.65.14-1.31.22-1.97.61-10.27.64-20.52-.65-30.75-.34-2.65.04-5.31.04-7.96.02-19.51.23-39.02-.07-58.52-.22-13.84-.78-27.68-.67-41.54 0-.34-.04-.66-.16-.98Z" class="cls-61"/><path d="M249.51 110.35c.44.3.95.4 1.14 1.13.55 2.1 1.82 3.93 2.27 6.1.17.8.57 1.65 1.28 2.23.54-.49.1-1.04.32-1.48 1.33 4.09 2.77 8.14 4.79 11.95-.13.22-.07.38.16.48.81 1.47 1.63 2.95 2.44 4.42-.38.63-.59 1.35-1.11 1.92-.88.96-1.78 1.48-2.99.52-.68-.54-1.41-.91-2.23-.24-.7.49-1.18 1.09-1.21 2-.14 3.3.58 6.36 2.63 9.01.78 1 1.86 1.59 3 2.09.83.36 1.64.76 2.46 1.13.04.42.22.78.49 1.09.55.82 1.18 1.59 1.63 2.46 1.39 2.67 3.89 3.08 6.48 3.17 1.74.06 3.08-.94 4.22-2.2.61-.1 1.02-.33.63-1.04 3.01-5.07 4.21-10.54 3.68-16.42-.23-2.57-.6-5.1-1.22-7.61-.47-1.92-1.59-3.43-2.91-4.84-1.54-1.65-3.37-2.17-5.39-1.18-1.38.68-1.97.11-2.46-1.02-.56-1.29-1.22-2.56-1.63-3.9-.97-3.15-1.73-6.37-3.07-9.71 4.82-.35 9.41-.68 14-1.01.36.27.7.25 1-.09 4.7-.29 9.4-.67 14.12-.67 2.23 0 4.45-.24 6.68-.34 2.65-.12 2.67-.1 2.68 2.48.02 5.88-.24 11.77.07 17.63.48 9.02.1 18.04.27 27.05.02.91-.03 1.82-.05 2.73-.27.65-.66 1.29 0 1.93.01 1.41 0 2.81.05 4.22.04 1.16-.49 1.63-1.63 1.64-3.22.04-6.41.68-9.65.53-5.48-.25-10.85.94-16.29 1.31-3.95.27-7.88.8-11.83 1.18-.89.09-1.87.21-2.31-.92-.68-1.89-2.26-3.2-3.19-4.94-1.05-2.79-2.2-5.52-3.84-8.04-.68-1.04-1.28-2.13-1.66-3.33-1.75-5.58-4.62-10.54-8.32-15.04-.56-2.82-2.37-5.01-3.73-7.43-.26-.45-.82-.52-1.32-.59-1.45-.89-2.66-.06-3.91.52-1 .17-2.01.21-3.01.39-2.17-.79-4.49-1.08-6.58-2.12-1.3-.64-2.39-.11-3.38.77-.76-.19-.43-1.25-1.16-1.46-.99-3.11-.72-6.4-1.29-9.57 1.04-.88.34-1.61-.15-2.42-.27-.44 1.2-1.88 2.03-1.93 1.49-.1 2.98-.14 4.47-.16 2.4-.03 4.8-.06 7.21-.02 3.99.08 7.91-.53 11.83-1.17.99-.16 1.96-.29 2.96-.17.36.21.69.18 1-.1.48-.36 1.21-.31 1.51-.95Z" class="cls-105"/><path d="M109.42 496.2c-.3-.38-.62-.54-.96-.04-.67.97-.91 2.13-1.37 3.19-2.69 6.36-4.47 12.95-5.26 19.84-.47 4.11-1.39 8.16-2.09 12.24-.39 2.29-.74 4.58-.78 6.91-.07 3.82-.91 7.57-1.22 11.37a59.58 59.58 0 0 0-.2 4.22c-.22 26.4-.43 52.81-.65 79.21 0 .42 0 .83-.01 1.25-.04 1.89-1.51 1.23-2.4 1.18-.95-.05-2.52.9-2.71-1.1-.07-.74-.02-1.49-.02-2.24.16-19.84.5-39.69.44-59.53-.06-21.5.18-43.02-.8-64.5-.52-11.35-1.16-22.71-1.84-34.06-.27-4.56-.37-9.08.24-13.66.5-3.77-.31-7.61-.56-11.41-.24-3.57-.4-7.14.2-10.68.36-2.1.94-4.16 1.47-6.22.43-1.71 2.02-2.47 3.1-3.65.12-.22.4-.34.37-.65 1.51-1.5 3.52-2.37 4.93-4.05 2.37-2.8 3.69-5.98 4.21-9.59.77-5.32-1.31-9.76-4.34-13.83-1.2-1.62-1.4-2.99-.51-4.71.76-1.48 1.19-3.08 1.51-4.71.59-2.94 1.93-5.63 2.75-8.49.29-.37.14-1.08.86-1.11.23.15.34.36.33.63-.03 2.95.58 5.83.88 8.39.16.67.54.13.26.31-.1.06-.17.02-.19-.15-.47-2.91-.97-5.81-.95-8.78-.04-.26-.09-.52-.14-.78.16-.94.14-1.9.4-2.83.41-.66-.2-2.3 1.58-1.67-.5 1.73-.33 3.43.11 5.15.32 1.28.62 2.61.65 3.92.09 4.34 1.02 8.56 1.79 12.8.31 1.73.51 3.44.45 5.19-.1 2.82-.09 5.64.42 8.44.18.98.19 1.97.11 2.98-.88 10.9-2.4 21.73-3.78 32.56-.89 7-1.78 13.98-1.36 21.03.37 6.19.63 12.42 2.44 18.43.53 1.75 1.05 3.48 1.97 5.09.65 1.15 1.11 2.4 1.66 3.61.24.26.21.57.14.88a.65.65 0 0 1-.52.29c-.34-.09-.44-.42-.63-.65ZM167.62 228.94c.26-.2.52-.39.9-.68-.96-.84-2.18-.77-3.2-1.14-4.75-1.73-9.42-3.66-13.97-5.88-3.55-1.73-6.48-4.33-9.3-7-2.46-2.33-2.57-4.86-.97-7.89 1.58-2.97 4.16-4.93 6.76-6.83 6.82-5.02 14.55-7.75 22.89-8.97 7.61-1.11 15.03-.51 22.31 1.98.39.13.75.34 1.13.51 2.75 1.73 5.09 4.16 8.38 5 2.48 2.18 5.41 3.9 7.08 6.9 2.41 3.99 4.78 8 5.97 12.56.77 1.92.38 3.72-.67 5.4-.78 1.25-1.65 2.45-2.46 3.69-.76 1.16-1.86 1.85-3.12 2.28-.81.28-.41.7-.2 1.12.63 1.74-.58 2.43-1.82 2.97-1.76.76-3.65 1.09-5.56 1.23-5.6.4-11.2 1.17-16.82.32-3.76-.57-7.6-.49-11.33-1.41-1.53-.38-3.05-.78-4.47-1.47-1.1-.53-2.04-1.21-1.52-2.69ZM254.47 188.6c0 .54-.31.94-.63 1.32-2.08 2.42-2.85 5.37-3.52 8.39-.46.19-.78-.13-1.03-.41-3.35-3.79-7.38-6.89-10.54-10.91-1.61-2.05-4.05-3.62-6.45-4.97-2.44-1.36-4.93-2.67-6.81-4.84-.27-.48-.59-.41-.94-.09-.94.68-1.79.55-2.72-.11-3.86-2.74-6.69-6.41-9.08-10.39-1.04-1.74-1.5-3.83-2.23-5.76-.44-.9.28-1.6.41-2.4.09-.23.24-.42.42-.59.44-.18.87-.47 1.38-.24 1.31.36 2.17 1.79 3.78 1.5.36-.07.56.55.76.91.88 1.59 1.76 3.16 1.95 5.06.14 1.44 2.2 2.53 3.58 2.06.57-.19.76-.66.51-1.19-1.23-2.61-2.1-5.33-3.7-7.83-2.27-3.55-5.05-6.45-8.14-9.26-2.37-2.16-4.44-4.69-6.75-6.96-.54-.53-.99-1.08-1.09-1.89-.16-1.35-.41-2.88 1-3.55 1.08-.51 2.38-.26 3.45.7 3.52 3.14 7.47 5.81 10.12 9.86.75 1.15 1.89 2.05 3.25 3.48.21-2.02.15-3.27-.84-4.56-3.02-3.94-6.8-7.02-10.75-9.93-.53-.39-1.51-.5-1.24-1.58.33-1.29 1.13-2.04 2.35-2.1 5.88-.27 10.28 2.41 13.78 6.91 1.99 2.55 4.11 4.99 5.85 7.73 1.76-1.4 1.89-1.65.75-3.4-2.45-3.77-5.27-7.25-8.65-10.23-.31-.27-.62-.56-.95-.8-.77-.56-1.18-1.3-.58-2.12.58-.8 1.37-1.65 2.5-1.05 1.48.79 3.12 1.1 4.65 1.75 2.59 1.1 4.3 3.08 5.55 5.48 1.26 2.44 2.67 4.78 4.3 6.99.27.37.51 1.03 1.1.72.58-.3 1.11-.86.85-1.62-.27-.78-.62-1.55-1.07-2.23-1.95-2.97-3.27-6.3-5.48-9.02.09-.2.1-.31.16-.34 2.8-1.77 2.81-1.78 4.24 1.12 1.96 3.96 4.47 7.58 7.03 11.14 1.65 2.29 2.55 4.83 3.34 7.44.65 2.16 1.55 4.19 2.52 6.2 1.33 2.76 2.57 5.57 3.91 8.32.33.67.32 1.13-.07 1.8-1.04 1.79-1.82 3.72-2.45 5.7-.37 1.17-.36 1.18.34 3.02 1.4-1.2 2.76-2.27 2.93-4.25.04-.48.3-.93.46-1.4 1.8-.13 2.06 1.15 1.95 2.41-.3 3.61-.83 7.19-1.02 10.81-.05.97-.68 1.65-1.32 2.31-.79.8-1.25 1.73-1.13 2.89Z" class="cls-61"/><path d="M60.48 342.22c0 1.66.03 3.31.03 4.97 0 1.96-.01 1.98-1.88 2.45-3.15.8-6.32 1.24-9.58.6-.72-.14-1.49-.05-2.23-.12-.57-.05-1.37.04-1.67-.3-2.06-2.3-5.13-2.55-7.68-3.81-2.75-1.36-4.81-3.45-6.92-5.47-1.29-1.24-2.44-2.69-3.61-4.09-1.11-1.33-2.46-2.2-4.21-2.37-.59.15-.86-.92-1.54-.4-.27-.19-.6-.33-.79-.58-.41-.52-.85-1.12-.5-1.8.37-.74 1.14-.55 1.78-.5.4.03.79.32 1.18.33.7.03 1.29-.34 1.63-.94.28-.51-.09-.93-.43-1.31-.43-.5-.83-1.03-1.26-1.54-1.75-2.12-2.57-4.36-1.12-7.01.31-.57.36-1.27.57-1.9.58-1.8.35-3.46-.89-4.9-1.3-1.51-1.05-3.13-.17-4.61 1.29-2.16 3.4-3.61 5.11-5.41.42-.44 1.02-.38 1.21.19.54 1.61 2.23 2.57 2.27 4.54.02 1.05.88 2.11 1.45 3.12.48.86 1.2.78 1.87.2.42-.37.64-.86-.03-1.16-1.4-.63-1.77-1.89-2.03-3.19-.35-1.73-1.02-3.35-1.99-4.75-.54-.79-.42-1.11.11-1.61 2.53-2.42 5.27-4.56 8.45-6.06 1.47-.69 2.86-1.66 4.6-1.7.29.84-.32 1.31-.59 1.85-.43.86-.83 1.9-.35 2.61 1.14 1.71.35 3.14-.24 4.66-.15.39-.28.79.15 1.21.96-.47 2.03-.7 2.7-1.81 1.02-1.71 1.09-1.76-.12-3.62-.59-.91-.46-4.53.26-5.23.27-.26.73-.44 1.12-.46 2.19-.09 4.43.21 6.18 1.45s2.86 3.18 3.02 5.47c.07 1.08.09 2.16.21 3.23.13 1.15.24 2.31 1.4 3.03.6.37.61 1.15.9 1.74.45.9.95 2.14 1.87 2.19 1.71.09 1.48 1.1 1.5 2.15.06 3.48.15 6.97.18 10.45.02 1.9-.01 1.94-1.86 2.05-1.35.08-2.64.23-3.71 1.17-.48.42-1.09.32-1.66.38-1.21-.58-2.06.77-3.2.6-2.11.42-3.12-1.22-4.24-2.43-1.57-1.71-2.58-3.83-3.49-5.34 1.53 2.25 2.73 5.43 5.68 7.33.78.51 1.43.76 2.27.32 1.73-.07 2.57 1.12 3 2.46.46 1.43-.35 2.4-1.57 3.26-1.11.78-1.66 2.26-2.68 2.49 2.13-1.77 5.2-3.51 4.2-7.6h.81c.44.21.88.17 1.32 0 1.52-.92 3.18-1.23 5.03-1.16.33 2.04.21 3.93-.79 5.78-1.17 2.18-2.11 4.49-3.9 6.28-.65.31-1.27.65-1.38 1.47-1.75 1.83-4.11 2.68-6.65 3.93 1.51.77 2.63.17 3.68-.18 1.38-.45 2.61-1.22 4.1-1.57 1.48-.35 2.52-1.81 3.25-3.24.59-1.16 1.06-2.38 1.91-3.56v6.51c-.25.41-.71.81 0 1.22Z" class="cls-105"/><path d="M19.66 509.08c.03.15.05.31.05.46.19.55-.09.65-.55.58h.02c-.14-.21-.33-.37-.51-.53h.01c-.16-.17-.33-.33-.48-.5h-.01c-.16-.15-.3-.31-.44-.47-.04-.15-.07-.29-.07-.45-.14-.24-.33-.43-.57-.57-.14 0-.29 0-.43-.04-.17-.16-.33-.32-.51-.47l.02.02c-.15-.19-.33-.33-.48-.52v-.02c-.26-.38-.36-.08-.48.11 0 8.88.02 17.76-.05 26.64-.01 1.71.45 2.9 1.86 4.02 2.81 2.22 5.52 4.52 9.04 5.57 1.19.35 1.31 1.42 1.46 2.39.22 1.39.35 2.81.41 4.2.16 3.96 1.17 7.9.33 11.89-.15.72-.08 1.49-.06 2.24.15 8.22-.57 16.39-.93 24.59-.33 7.69-.35 15.41.21 23.13.47 6.52.85 13.07.67 19.63-.03.91 0 1.83.07 2.74.07.97.41 1.78 1.47 2.07-.51.35-1.08.37-1.67.38-3.82.01-7.63.01-11.45.07-1.23.02-1.9-.4-1.86-1.7.02-.66-.02-1.33-.02-1.99 0-26.72.02-53.45.02-80.17 0-11.87.07-23.73-.03-35.6-.06-6.56.42-13.09.47-19.65.17-.2.35-.19.54-.01h-.02c.15.19.33.35.52.51l-.02-.02c.45.39 1.23.3 1.45 1.01l.06 1.44c.39.45.04 1.1.43 1.55.02.33.03.66.05.98.52.59-.05 1.43.47 2.02.02.16.03.33.03.49.53.58-.05 1.42.48 2.01.03.15.04.31.03.47.44.42.02 1.11.47 1.53Z" class="cls-100"/><path d="m109.97 496.63.52-.04c.14-.27.26-.27.36.02.04.16.09.32.13.48-1.12 2.09-1.46 4.35-1.52 6.68-.37 13.19.03 26.37-.03 39.56-.04 9.45.04 18.91 0 28.36-.01 3.82.2 7.62.47 11.43.14 1.98-.46 3.76-1.15 5.54-.37.93-.77 1.36-1.82.61-1.47-1.05-1.51-.96-2.17.65-.74 1.81-.89 3.67-.77 5.61.32 5.13.7 10.24 1.55 15.32.84 5.02.62 10.12-.28 15.09-.41 2.28-.92 4.5-.84 6.83l.02-.05c-.75 2.65-2.72 2.92-5.01 2.57-.24-7.04-.73-14.08-.44-21.12.33-7.78-.04-15.57.79-23.35.52-4.85.25-9.78-.12-14.66-.57-7.39-.21-14.74.91-22.06 1-6.55 1.86-13.11 2.22-19.74.22-3.98 1.15-7.86 1.67-11.8.7-5.33.9-10.74 2.37-15.95.9-3.17 1.39-6.46 2.67-9.52.05-.25.21-.4.46-.47Z" class="cls-61"/><path d="M170.78 185.57c.15-1.16.61-2.16 1.22-3.18 1.46-2.42 2.17-5.18 3.15-7.82.81-2.16 1.35-4.42 2.49-6.44.45-.18.85-.4.61-1 4.75-5.84 8.87-12.26 14.76-17.08 2.88-2.36 6.15-4.19 10.05-4.38.6 1.01 1.7.77 2.59 1.06.42.2.75.77.25.84-2.52.39-3.31 2.55-4.55 4.22-.94 1.25-1.61 2.7-2.55 3.96-2.8 3.76-4.88 7.9-6.22 12.35-1.95 6.44-3.2 13-2.09 19.78.07.4.15.82-.23 1.47-6.05-1.14-12.28-1.47-18.53-1.36-.82-.61-.52-1.66-.96-2.42Z" class="cls-105"/><path d="M173.63 587.87c1.26 4.32 1.82 8.77 2.39 13.21 1.41 11.03 3.31 21.98 5.41 32.89.09.48.28.96 0 1.56h-23.21c.82-2.34 1.57-4.57 2.37-6.77.28-.78.83-1.47 1.03-2.26 1.43-5.81 3.73-11.34 5.34-17.09.88-3.15.86-6.41 1.38-9.59.9-5.48 1.96-10.93 2.96-16.39 1.33-.14 1.29.92 1.48 1.73.21.93.25 1.91.85 2.72Z" class="cls-61"/><path d="M60.04 296.26v6.84c-.24.09-.41.23-.52.19q-3.04-.87-3.06-4.99c-.09-.54.17-.73.67-.65 1.44-.5 1.21-1.52.5-2.33-1.81-2.07-3.75-4.02-6.76-4.19a4.14 4.14 0 0 1-1.21-.25c-3.24-1.21-6.44-.64-9.5.46-4.41 1.58-8.37 4-11.79 7.26-1.56 1.49-3.11 2.99-4.71 4.44-2.74 2.47-4.96 5.35-6.86 8.49-.17.28-.31.58-.89.67-.28-.83-.14-1.69-.09-2.55.19-1.48.28-2.95-.04-4.42 0-.49.02-.98.02-1.47.65-.67.26-1.57.51-2.33.44-1.35-.77.71-.52-.25.03-5.52.07-11.03.09-16.55 0-1.23-.08-2.47-.13-3.7.91-1.57 2.62-1.38 3.99-1.54 3.81-.45 7.61.11 11.37.72 1.63.26 1.37 1.33.27 2.84 2.13-1.52 4.05-1.16 5.93-1.14 6.63.09 12.62 1.71 16.86 7.31 1.4 1.85 3.58 2.95 4.71 5.04.23.8.35 1.66 1.19 2.11Z" class="cls-105"/><path d="M111.98 408.46c1.39.21 2.63.52 2.44 2.4-.09.84.66 1.01 1.29 1.27 1.96.81 2.51 1.56 2.1 3.58-.87 4.32-1.29 8.69-1.67 13.07-.14 1.57-.39 3.15-.33 4.71.2 4.67-.36 9.29-1.07 13.87-.75 4.86-.93 9.74-1.23 14.62-.49 7.86-.79 15.74-1.17 23.6 0 .17.05.36-.02.49-1.63 3.07.15 5.71 1.03 8.47.23.73.95 1.5-.05 2.22-2.34-3.16-3.77-6.61-4.6-10.52-2.05-9.58-1.79-19.24-1.86-28.91-.03-3.74 1-7.38 1.26-11.1.59-8.34 2.14-16.58 2.84-24.91.36-4.29.81-8.57 1.03-12.87Z" class="cls-61"/><path d="M167.62 228.94c.25 1.04 1.11 1.34 1.96 1.7 3.47 1.47 7.17 1.95 10.87 2.29 2.63.24 5.26.41 7.88.8 2.24.33 4.44-.24 6.67-.22 3.64.02 7.26-.29 10.8-1.22 1.38-.36 2.71-.8 3.33-2.28.75.49 1.44.1 2.11-.18.83-.35 1.65-.76 2.53-1.17.59 1.25-.36 1.92-.9 2.65-.87 1.16-1.57 2.31-1.38 3.85.16 1.26-.7 1.96-1.68 2.48-2.73 1.45-5.52 2.35-8.72 2.46-4.3.15-8.58.28-12.88-.07-9.82-.79-19.32-2.6-28.06-7.5-3.53-1.98-7.28-3.59-10.65-5.87-2.06-1.4-4.11-2.81-5.27-5.14 1.1-.99 1.57.89 2.52.55 5.59 2.92 11.64 4.66 17.49 6.89 1.15.44 2.24.43 3.36 0Z" class="cls-105"/><path d="M247.43 205.06c.47-1.17-.44-2.56.56-3.64.75.74 1.16 1.85 2.34 2.13.68.16.79.82 1.01 1.32.85 1.94 2.13 3.55 3.67 4.96 1.07.98 1.9 2.15 2.3 3.5 1.48 5.07 4.33 9.26 8 12.95.23.24.44.49.68.72.95.9 2.14 1.75 2.76 2.75.59.96.09 2.57.14 3.89.06 1.38.15 2.78 1.8 3.61-3.42 2.26-6.63 4.55-9.68 7.5-.41-1.84-.92-3.27-1.02-4.73-.31-4.76-2.56-8.69-5.17-12.45-1.08-1.56-2.13-3.17-3.54-4.48-.89-.83-1.36-1.92-1.55-3.06-.81-4.98-1.55-9.98-2.31-14.97ZM157.29 283.26c.22.34.14.73-.14.89-1.93 1.1-3.03 3.02-4.52 4.55-.58.6-1.11 1.34-1.9 1.56-3.35.93-5.77 3.48-8.82 4.92-3.41 1.61-6.79 3.28-10.53 4.08-1.85.4-3.74.74-5.45 1.65-.76.4-1.63.31-2.45.25-3.66-.29-6.7 1.62-9.95 2.78-.35.13-.75.49-.87.83-.96 2.88-3.31 4.74-5.16 6.91-2.37 2.77-4.57 5.67-6.93 8.44-.21.25-.4.53-.99.51-.24-1.79-.91-3.56-.21-5.44.06-1.9.26-3.81-.09-5.68-.18-.94.16-1.34.85-1.79 5.88-3.91 12.01-7.3 18.59-9.97 8.08-3.29 16.41-5.8 24.64-8.61 4.76-1.62 9.47-3.47 13.94-5.86Z" class="cls-61"/><path d="M274.82 370c.22-.52.43-1.04.74-1.77 1.52 3.13 1.73 6.33 2.3 9.44.36 1.95.58 3.93 1 5.87 1.13 5.13 1.27 10.31 1.22 15.55-.06 7.03-.05 14.07 1.11 21.05.57 3.39-.21 6.76-.9 10.09-.15.75-.7 1.06-1.35 1.31-2.77 1.07-5.45 2.36-8.49 2.66-1.88.19-3.72.76-5.57 1.16-1.04.94-2.17 1.82-3.59 1.96-1.91.18-1.95 2.29-3.32 2.99-.76-1.49-1.02-3.1-1.02-4.75-.01-4.44.01-8.87.02-13.31.78 2.51.5 5.09.52 7.65.01 1.38 0 2.77 0 4.07.88.33 1.33-.11 1.76-.47 1.72-1.45 3.77-1.82 5.85-1.45 1.88.33 3.65-.03 5.41-.37 1.45-.28 2.89-.66 4.37-.81 2.25-.24 2.79-.82 3.06-3.13.07-.58.15-1.15.14-1.73 0-.81-.32-1.18-1.25-.93-1.68.44-3.39.79-5.1 1.08-2.97.5-4.96-.55-6.28-3.25-.74-1.51-1.01-3.14-1.11-4.81-.1-1.72.23-3.46-.34-5.18-.28-.83.2-1.42 1.12-1.56 3.54-.54 6.77-2.17 10.24-2.93 1.13-.25 1.73-.82 1.61-2.07-.28-3.15.38-6.27.35-9.42-.29-2.48-.34-4.97.03-7.45-.28-5.16-.79-10.29-1.74-15.37-.26-1.37-.53-2.73-.79-4.1Z"/><path d="M279.34 179.57c1.99-.04 3.97-.09 5.95-.32 3.36-.39 6.73-.84 10.13-.3 2.06.33 4.11-.21 6.11-.37.56.75.36 1.52.36 2.25.02 5.23.03 10.45.01 15.68 0 2.31.66 4.6.22 6.94-.93.2-1.12-.63-1.35-1.14-2.06-4.62-5.34-8.46-8.75-11.97-3.17-3.27-6.71-6.45-11.14-8.18-.7-.28-1.38-.55-1.95-1.04-.38-.39-.85-.8-.57-1.4.19-.4.62-.39.99-.13ZM268.97 135.23c0 .17.02.33 0 .5-.05 1.12-.26 2.32-1.42 2.67-1 .3-1.46-.89-2.06-1.48-1.2-1.17-1.86-2.74-2.57-4.23-1.55-3.28-3.04-6.6-4.56-9.9-2.53-5.5-3.34-11.43-4.41-17.29-.24-1.3.66-2.4.55-3.65-.05-.59.48-1.38-.47-1.71-.8-.27-1.03.55-1.49.99-1.14-3.23-.49-5.21 2.19-6.85.91-.55 1.72-1.23 2.87-1.39 2.63-.36 4.4.55 5.51 3.04.95 2.12.3 4.49-1.67 5.96-.37.28-.6.52-1.2.06-.92-.69-1.59-.38-1.7.65-.14 1.22-.36 2.46.02 3.68 1.33 8.04 3.8 15.65 8.32 22.51.52.57.87 1.25 1.3 1.89.11.19.21.38.31.57.3.7.06 1.48.36 2.18l.18.59c.05.31-.02.61-.05.91v.3ZM251.87 257.79c2.36-.88 4.56.11 6.79.6.92.2.78.94.47 1.59-.53 1.12-1.1 2.23-1.66 3.34-3.01 5.92-6.19 11.71-11.07 16.36-.72.68-1.35 1.48-2.41 1.66-1.7-.29-3.26-1.11-5.02-1.26-.97-.08-1.33-.88-.91-1.86.06-.15.14-.3.22-.44 3.87-7.11 8.09-13.99 13.59-20Z" class="cls-61"/><path d="M62.13 162.07c.44 3.13.2 6.29.34 9.44.25 5.89.13 11.8.56 17.68 2 27.3.57 54.64 1.16 81.95.2 9.38.36 18.77.03 28.15-.03.86.35 1.86-.58 2.53-.06-1.08-.2-2.15-.17-3.23.16-7.72-.41-15.42-.37-23.14 0-.66.09-1.49-.26-1.94-1.88-2.46-1.23-5.25-1.1-7.92.09-1.74.23-3.47.24-5.21.06-30.95.26-61.9-.02-92.85-.02-1.82-.21-3.65.18-5.46Z" class="cls-100"/><path d="M263.82 172.37c2.03-.26 3.64-.58 5.27-.66 5.05-.27 10.06-.97 15.1-1.46 3.62-.35 7.28-.4 10.92-.52 1.67-.05 3.3-.31 4.95-.45 1.51-.13 1.73.15 1.82 1.61.23 3.55.18 3.54-3.3 3.78-4.88.35-9.75.82-14.62 1.21-1.4.11-2.82.17-4.22.19-3.74.05-7.46.27-11.17.67-1.03.11-1.73-.03-2.31-.95-.65-1.05-1.43-2.02-2.43-3.42Z" class="cls-105"/><path d="M25.22 360.6c-2.79.68-5.7.68-8.48 1.45-.72.2-1.09-.2-1.1-.92 0-.91.02-1.81.02-2.72.03-4.94.05-9.89.07-14.83 2.4.68 3.74 2.84 5.71 4.14 1.78 1.17 3.35 2.69 5.15 3.87 2.32 1.54 3.97 3.47 4 6.42-.47 2.03-.75 2.34-2.56 2.51-.79.08-1.6.01-2.4 0-.15-.02-.37-.52-.42.06Z" class="cls-100"/><path d="M253.12 196.57c3.63 1.73 6.29 4.65 9.11 7.39.62.6.88 1.39 1.16 2.16 1.91 5.28 3.79 10.57 6.14 15.67.55 1.18.38 2.43.42 3.65-.24.65.01 1.94-1.37.62-.77-.74-1.57-1.42-2.15-2.31-.64-.97-1.32-1.85-2.37-2.46-1.83-1.07-1.99-3.19-2.59-4.89-.95-2.66-2.26-5.12-3.5-7.62-.04-.07-.06-.16-.12-.22-1.45-1.6-2.51-3.5-3.82-5.2-1.7-2.2-2.29-4.3-.93-6.8ZM266.91 155.25c-1.03-.88-1.45-2.15-2.35-3.4 1.51-.18 2.7-.62 2.71-2.4-.68-.3-1.36.14-2 .24-2.81.45-4.97-.78-6.94-2.5-1.24-1.08-1.5-2.72-1.91-4.2-.32-1.17-.17-2.44-.46-3.65-.18-.76.46-.67.96-.62 1.54.32 1.35 1.77 1.66 2.78.91 2.94 2.21 4.06 5.2 4.19-1.33.07-3.14-.18-3.15-1.6-.03-2.41-.64-5.2 1.75-7.1.24-.02.47.03.66.18 1.26 1.22 1.93 2.99 3.83 3.64 1.84.63 3.23.17 3.83-1.7.35-1.08.5-2.22.74-3.34 1.85-1.04 2.73.06 2.91 1.63.36 3.21.26 6.44.03 9.66-.06.88-.61 1.52-1.18 2.13-1.18 1.27-2.33 2.52-3.03 4.18-.55 1.31-1.85 1.81-3.27 1.87Z" class="cls-61"/><path d="M63.48 437.36c.98.76.58 1.84.58 2.77 0 14.77-.01 29.54-.04 44.31-.03 20.83-.25 41.66 0 62.49.07 5.56.29 11.24 1.49 16.76.41 1.87.5 3.77.59 5.68.41 8.67-.69 17.22-1.84 25.77-.23 1.72.04 3.5-.66 5.16-.28-1.82-.04-3.64-.04-5.46-.01-9.79-.01-19.58.03-29.37.02-3.89.34-7.79.25-11.67-.87-37.82-.03-75.64-.24-113.46 0-.99-.09-1.99-.13-2.98Z" style="fill:#31747d"/><path d="M155.68 274.24c.62-1.51 1.24-3.03 1.86-4.54.27-.64.27-1.38 1.25-1.62.75-.19.41-1.13.54-1.74.29-.33.27-.67.02-1.01.87-.33 1.73-.66 2.6-.99.7-.17 1.25-.6 1.81-1.01.58-.03 1.32.16 1.7-.13 2.32-1.76 5.35-1.34 7.78-2.68 1.14-.63 2.31-.79 3.58-.66 1.13.12 2.25.35 3.33-.45.38-.28 1.12-.08 1.69-.08.49 0 1.28.23 1.44 0 1.43-2 2.66-.16 3.93.16.53.14 1 .56 1.49.85.22.44.55.85.41 1.4-10.37-.68-19.38 3.09-27.82 8.61-1.39.91-2.52 2.12-3.56 3.41-.24.78-.56 1.47-1.57 1.36-.4-.16-.64-.41-.46-.87Z" class="cls-105"/><path d="M58.56 294.64c-.77-.99-1.71-1.79-2.68-2.57a38.685 38.685 0 0 1-3.82-3.54c-2.82-2.98-6.26-4.86-10.41-5.26-.58-.05-1.15-.14-1.73-.23-2.81-.45-5.58-.68-8.29.61-.8.38-1.71.68-2.65.48-.44-.09-.73-.37-.82-.82-.1-.52.23-.76.65-.89.93-.29 1.92-.44 3.29-1.42-3.28-.23-5.96-.8-8.73-.73-2.56.06-5.11.25-7.64.64v-2.26c2.14.48 4.21-.33 6.35-.34 4.16 0 8.14.7 12.09 1.86.51-.28.99-.35 1.36.24 2.2.27 4.38.64 6.59.79 5.15.34 9.31 2.45 12.4 6.62.82.38 1.54.86 1.65 1.87 1.29 1.6 3.04 2.89 3.38 5.11-.37.23-.71.25-.98-.16Z"/><path d="M266.91 155.25c1.29-.95 2.44-1.98 2.73-3.69.17-.98 1.08-1.46 1.75-2.04 1.49-1.28 2.18-2.77 2.05-4.78-.15-2.23-.09-4.48-.03-6.72.04-1.43-.49-2.22-1.97-2.24-.36-1.36-.42-2.83-1.43-4.03-.8.65-.49 1.29-.33 1.87.21.77-.1 1.25-.72 1.62l-.09.02c-.26-.29-.16-.74-.46-1.01a.615.615 0 0 1-.05-.4c-.51-.8.1-1.79-.44-2.58a.633.633 0 0 1-.07-.38c-.22-.39-.25-.76.05-1.13.71.65 1.35 1.44 2.37 1.6.49.08 1.06.06 1.32-.42.25-.45.12-.99-.2-1.39-.39-.51-1.19-.6-1.4-1.32.16-.32.18-.64-.05-.95 1.67-.85 2.04-.84 3.14.35 1.37 1.5 2.29 3.25 2.66 5.26.91 4.93 1.19 9.84-.1 14.77-.53 2.04-1.3 3.92-2.49 5.64-1.3 1.88-3.85 2.67-6.27 1.95ZM254.47 188.6c-1.56-1.73-1.62-1.8-.07-3.27 1.11-1.05 1.55-2.21 1.56-3.72 0-2.89.47-5.75.84-8.62.14-1.03.5-2.18-.82-2.82-.13-.6.13-1.08.46-1.54.11-.22.28-.38.52-.45 2.79 3.76 6.12 7.13 8.22 11.39.92 1.86.85 2.08-1.04 2.95-.52.24-1.08.4-1.63.58-3.24 1.01-5.87 2.93-8.04 5.5Z" class="cls-105"/><path d="M156.17 635.23c-1.77-.15-1.79-.16-1.51-1.54.36-1.79.78-3.56 2.2-4.89 1.02-.96 1.35-2.25 1.66-3.54 1.69-7.24 3.73-14.4 4.93-21.76.89-5.49 3.07-10.64 4.45-16 .25-.96.55-1.9.86-2.85.1-.31.35-.41.21-.11-.02.04.2.21.32.31-.1 2.75-.71 5.44-1.3 8.09-2.06 9.29-3.77 18.68-6.59 27.79-1.52 4.91-3.32 9.72-5.21 14.5Z" style="fill:#81bcbc"/><path d="M241.02 283.4c.12 1.31.93 2.18 1.8 3.07 1.84 1.9 3.59 3.88 5.11 6.05 1.42 2.03 1.38 2.28-.46 3.87-.31.27-.63.54-.97.76-.2.13-.45.17-.73.28-1.93-2.24-2.66-5.11-4.06-7.61-.62-1.12-1.33-1.79-2.53-2.09-1.54-.39-1.55-.42-1.88 1.3-.21 1.1-.76.49-1.25.29-.7-1.79-1.59-3.44-2.97-4.82-.47-.47-1.25-.93-.77-1.87.5-.98 1.37-.85 2.17-.69 2.19.44 4.36.97 6.54 1.46Z" class="cls-61"/><path d="M152.78 245.98c-.18.47-.37.94-.55 1.41.4 2.01.08 3.82-1.44 5.32-.79-.51-.54-1.33-.57-2.04-.09-1.89-.79-3.51-1.97-5.13-1.92 1.11-2.71 2.61-2.23 4.73.11.47.34 1.07-.35 1.24-.7.18-1.14-.37-1.22-.95-.27-2.22-.85-4.43-.54-6.68.34-2.48.32-4.97.46-7.46.47-.4.42-1.14.98-1.49.72.73.53 1.69.54 2.54.03 1.74.67 2.93 2.43 3.38 1.31-.03 1.9-.64 1.81-2-.05-.8.13-1.61.21-2.42.57-.08 1.12.22 1.16.66.29 2.98 2.51 5.69 1.27 8.89Z" class="cls-105"/><path d="M231.52 287.76c.59.99 1.2 1.98 1.76 2.99.22.4.14.81-.28 1.06-.35.21-.65-.02-.88-.24-.48-.46-1-.9-1.36-1.44-.89-1.36-2.23-1.89-3.7-2.27-1.69-.43-1.69-.45-2.3 1.39-.81-.06-1-.78-1.35-1.29-1.11-1.64-2.21-3.29-3.26-4.97-.49-.79-1.24-1.02-2.04-1.26-.96-.29-1.95-.58-2.02-1.85 1.91-.53 3.73-.17 5.5.55 2.81 1.15 5.47 2.56 7.86 4.46.52.41.84.94.98 1.58.05.13.12.25.21.35.09.17.22.3.38.39l.05.05c.13.18.27.35.44.5ZM96.84 312.62c-2.11.95-3.57 2.69-4.67 4.57-2.05 3.52-5.54 4.97-8.85 6.74-.3.16-.64.06-.87-.23 4-5.41 8.77-10.01 14.36-13.87.41 1.03.21 1.91.03 2.79Z" class="cls-61"/><path d="M152.78 245.98c-.65-2.63-1.31-5.26-1.94-7.9-.14-.56-.13-1.16-.49-1.65.17-1.62.69-3.21.41-4.92 2.5.7 3.87 2.24 4.14 4.45.09.72-.16 1.29-.57 1.82-.35.45-.77.86-1.11 1.33-.77 1.08-.58 1.53.77 1.82.64.14 1.31.16 1.95.32.94.24 1.12.78.36 1.28-1.42.92-2.32 2.32-3.51 3.45Z" class="cls-3"/><path d="M262.34 137.26c-.34 1.87-.6 3.76-1.06 5.61-.31 1.27.26 1.73 1.3 1.81 1.07.08 2.15-.06 3.22-.04.53.01 1.28-.19 1.37.65.07.65-.38 1.03-.99 1.25-3.55 1.25-7.16-.62-8.26-4.25-.36-1.18-.33-2.46-1.01-3.55.18-.18.36-.37.53-.55 1.03-.19 1.42.38 1.56 1.24.03-.04.05-.11.06-.14.67-1.4 1.13-3.07 3.26-2.03Z"/><path d="M266.88 128.79c-2.75-1.91-3.73-4.94-4.82-7.85-.69-1.85-1.26-3.74-2.31-5.44-.34-.54-.61-1.22-.64-1.85-.15-2.46-.67-4.9-.54-7.38 1.78 5.24 3.5 10.5 5.37 15.7.83 2.32 1.96 4.54 2.95 6.81Z" style="fill:#357980"/><path d="M30.6 358.01c-2.09-4.17-5.36-7.18-9.29-9.58-2.12-1.29-3.68-3.28-5.57-4.86.05-.94.62-.6.98-.33 1.64 1.24 3.53 2.25 4.94 3.67 2.07 2.09 4.46 3.64 6.84 5.26 3.09 2.1 3.16 2.26 2.1 5.83Z" class="cls-105"/><path d="M300.33 207.5c-2.38-2.28-3.87-5.17-5.49-7.96-2.02-3.48-4.54-6.51-7.7-9.04-1.34-1.08-2.75-2.18-3.29-3.96.35.2.71.41 1.06.61.13.13.28.24.44.33 3.22 2.26 5.88 5.08 8.07 8.33 2.49 3.7 5.2 7.26 7.42 11.15.22.56-.06.64-.52.54Z" style="fill:#78aeae"/><path d="M18.86 312.17c3.24 2.99 2.25 6.3 1.04 9.63-3.14-2.56-3.54-6.31-1.04-9.63Z" class="cls-105"/><path d="M257.97 440.3c-.14-2.71.66-3.73 3.29-4.22 1.21-.23 2.42-.48 3.63-.72-.64 1.72-1.73 3.18-2.8 4.63-.59.8-.97 2.08-2.43 1.08-.15-.1-.77.49-1.18.77-.17-.51-.33-1.02-.5-1.53Z" style="fill:#337880"/><path d="M40.2 363.37c-1.72.35-2.87-.34-3.8-1.25-.9-.88-1.86-1.64-3-2.11-.99-.4-1.15-.96-.84-1.9.26-.77.2-1.63.87-2.57 2.72 2.18 4.76 4.85 6.77 7.82Z" class="cls-105"/><path d="M252.41 493.08c.7-5.93 1.41-11.85 2.11-17.78 1.29 1.01.56 2.3.5 3.5.02 4.63.28 9.28-1.5 13.71-.21.53-.44 1.06-.66 1.59-.89-.02-.65-.53-.45-1.02Z" style="fill:#7eb4b4"/><path d="M50.17 326.2c.82-1.06 1.71-1.8 2.98-.58-1.11.34-.15.74-.03 1.11 1.33 2.99 1.1 3.21-1.08 5.54-1.16 1.25-2.59 2.23-3.57 3.65-.41.58-.95.91-1.69.81-.35-.04-.63-.2-.74-.55-.14-.46.26-.49.52-.66 2.14-1.37 3.71-3.37 5.59-5.03.75-.67.61-1.71-.07-2.48-.59-.67-1.1-1.45-1.96-1.85l.04.04Z"/><path d="M19.13 326.71c-.69-.26-1.41-.48-2.08-.79-.69-.33-1.29-.84-1.3-1.67-.03-2.19-.24-4.38.32-6.61.9 3.1 2.52 5.8 4.24 8.44-.04.87-.53.9-1.18.64Z" class="cls-105"/><path d="M215.58 217.5c-2.41-3.99-4.75-8.01-5.97-12.56 3.49 3.48 6.06 7.39 5.97 12.56Z" style="fill:#33777f"/><path d="M150.79 252.71c-.32-1.99.24-3.74 1.44-5.32l.06.03c.41.4 1.02.06 1.46.38 2.14.34 2.28.65 1.03 2.29-.45.59-1.05 1.09-1.36 1.74-.61 1.28-1.49 1.38-2.63.87Z" class="cls-3"/><path d="M237.99 128.73c.77-.62 1.54-.56 2.16.16 1.85 2.15 2.82 4.7 3.18 7.49.01.11-.19.25-.29.37-1.84-2.57-3.78-5.09-5.05-8.02Z" style="fill:#80b6b5"/><path d="M97.89 419.27c.04-.31.09-.62.13-.92.31-.47.02-1.08.36-1.55.02-3.15.05-6.29.53-9.41 1.02 4.01 2.11 8.02-.14 11.99-.08.2-.18.38-.31.55-.16.51-.41.92-1.01.98.02-.35.05-.7.07-1.05.13-.19.25-.38.36-.58Z" style="fill:#77adad"/><path d="M266.39 243.29c.57 1.04-.38 1.56-.88 2.06-2.31 2.35-4.71 4.61-7.23 7.04-.01-.93.75-1.6.64-2.43 2.45-2.27 4.66-4.8 7.46-6.67Z" style="fill:#7db4b4"/><path d="M51.13 142.14c-4.34 0-8.68.02-13.02.02.49-.3.99-.6 1.48-.9 5.71-.06 11.42-.19 17.11.36-1.79.87-3.75-.08-5.57.52Z" style="fill:#6a9798"/><path d="M202.53 198.04c-2.56.25-4.6-.75-6.26-2.64-.7-.79-1.41-1.57-2.11-2.36 3.38.69 5.79 2.98 8.38 5Z" style="fill:#35777f"/><path d="M259.05 141.15c-.37-1.08-.62-2.22-1.59-2.97-.41-.76-1.11-.88-1.88-.82.57-.84 1.38-.91 2.15-.47 1.41.79 2.28.29 2.98-.97.25-.45.69-.68 1.2-.75.45.63 1 1.2 1.14 2-.24.03-.47.06-.71.08-1.39-.24-2.12.46-2.43 1.73-.13.55-.26 1.1-.38 1.65.23.54-.05.59-.48.52Z" style="fill:#7bb0b0"/><path d="M17.68 332.63c-1.19-1.54-2.69-2.97-1.73-5.34 1.36.08 2.45.98 4.31 1.5-2.11.63-2.28 1.88-2.01 3.31.13.51-.1.65-.56.52Z" class="cls-105"/><path d="M151.26 284.72c-.01-.16-.01-.32 0-.48.09-1.62-.3-3.47 1.98-4q2.16.23 2.52 1.93c-1.45.94-2.81 2.03-4.49 2.56Z" style="fill:#7eb5b4"/><path d="M233.54 279.27c1.07-2.73 2.61-5.18 4.48-7.43.48-.06.82 0 .57.62-.82 2.16-2.2 4.04-3.18 6.12-.39.82-1.05.97-1.86.7Z" style="fill:#7db4b3"/><path d="M237.92 631.2c-1.13-3.7-.62-5.41 2.21-7.47-.49 2.56-1.13 5.08-2.21 7.47Z" style="fill:#7aafaf"/><path d="M230.54 111.31c-.09-1.17.49-1.6 1.62-1.6 2.15 0 4.25.42 6.37.69-2.57 1.17-5.31.74-7.99.91Z" style="fill:#33747c"/><path d="M56.41 303.4c3.65 1.44 3.96 1.95 3.52 5.08-2.11-.91-2.31-3.01-3.52-5.08Z" class="cls-105"/><path d="M238.66 192.05c-1-.04-1.58-.76-2.25-1.35-1.16-1.02-2.09-2.29-3.42-3.13-1.56.24-1.8-.82-1.93-1.98.06-.24.18-.44.35-.62.24-.11.44-.05.6.17l-.04-.04c.18.13.36.27.54.39 2.11 2.13 4.38 4.11 6.15 6.56Z" style="fill:#659798"/><path d="M104.43 380.98c-.04.14-.07.28-.07.43-.1.4-.24.42-.43.05-.57-.37-.04-1.08-.48-1.49.14-2.08 1.42-3.81 1.78-5.83.08-.43.48-.67.95-.53.4.11.37.47.34.8-.07.72.03 1.49-.53 2.09-1.37.06-.93 1.19-1.14 1.94-.47.8.12 1.77-.42 2.56Z" style="fill:#2d6d75"/><path d="M93.88 400.42c-.26-.37-.25-.76-.11-1.16.83-2.29 1.64-4.59 2.51-6.86.26-.67.56-.36.77.09-.66 2.8-1.77 5.42-3.17 7.93Z" style="fill:#679a9b"/><path d="M51.53 432.22c-.31-.11-.61-.26-.92-.34-1.12-.29-1.16-1.18-.88-1.96.34-.95 1.11-.37 1.67-.17 1.68.61 1.73.75 1.15 2.44-.34 0-.68.01-1.02.02Z" class="cls-61"/><path d="M256.85 163.16c.16-.28.51-.77.67-.44.83 1.75 2.5 3.07 2.64 5.16 0 .07-.08.14-.12.22-1.31-1.48-3.32-2.52-3.19-4.94Z" style="fill:#73a7a8"/><path d="m255.9 456.63.09-.88c.14-.34.27-.34.42 0 .18 1 .18 2 0 3-.5 1.18.1 2.48-.39 3.66l-.12 1.84c-1.21-.89-.85-2.21-.85-3.38 0-.88.28-1.76.44-2.64.41-.46.08-1.12.42-1.6Z" style="fill:#7aacac"/><path d="M173.63 587.87c-.88-.55-.83-1.56-1.15-2.39-.29-.75-.28-1.67-1.18-2.06-.19-1.04.38-1.97.44-2.97 1.38-.18.27 1.19.91 1.47.32 1.98.65 3.97.97 5.95Z" style="fill:#2e656b"/><path d="M279.34 179.57c-1.12.24-.38.99-.42 1.53-1.62-.27-3.11-.94-4.61-1.73 1.69.05 3.37-.75 5.04.2Z" style="fill:#36777e"/><path d="M153.24 280.23c-1.37.98-1.06 2.79-1.98 4-1.26-.98-.2-1.97 0-2.95.1-.66.68-1.2.54-1.93.27-.66.77-1 1.46-1.08.44.2.25.69.46 1l-.48.96Z"/><path d="M153.72 279.27c-.31-.26-.39-.63-.46-1v.02c.19-.15.34-.34.51-.51l-.03.02c.41-.58.86-1.13 1.19-1.76.33-.54.75-.97 1.35-1.2.48-.36.95-.73 1.43-1.09.21.21.42.41.62.62-1.54 1.63-3.07 3.27-4.61 4.9ZM123.36 504.59c-1.83-.49-3.47-1.37-5-2.47.33-.16.66-.32.98-.48 1.54.81 3.21 1.33 4.64 2.35-.21.2-.41.4-.62.6Z"/><path d="M255.02 478.8c-.31-1.15.23-2.42-.5-3.5-.18-1.76.28-3.42.83-5.07.08 2.86.46 5.74-.33 8.57Z" style="fill:#629091"/><path d="m252.41 493.08.45 1.02c-.55 1.79-1.6 3.26-2.97 4.52-.66-.82 0-1.42.42-1.94.89-1.1 1.51-2.34 2.1-3.6Z" style="fill:#6fa4a4"/><path d="M249.4 502.59c-.76 1.24-.17 2.8-.95 4.04-.05-.07-.11-.13-.15-.2q-1.49-2.37 1.1-3.84Z" style="fill:#316d75"/><path d="M230.13 185.19c-1.75-.49-3.2-1.52-4.61-2.62 1.02-.15 1.85.39 2.72.77.73.32 1.41.75 2.24.76.29.29.83.16 1.01.61l-.11-.08c.21.06.29.15.25.27-.04.13-.09.2-.15.2l.05-.06c-.43.42-.9.51-1.42.15Z" style="fill:#6ea1a1"/><path d="M212.72 157.59c-.38.19-.77.38-1.15.57-.15.08-.2.17-.16.27.04.1.09.15.13.15 0 .91-.87 1.41-1.04 2.24-.47-.46-.33-1.08-.39-1.64-.27-2.28.21-2.58 2.61-1.6Z" style="fill:#76abab"/><path d="M60.48 342.22c-.85.47-1.69.94-2.55 1.39-.1.05-.3-.07-.45-.1.5-1.56.52-1.57 3-2.5v1.22Z"/><path d="M170.78 185.57c.9.58 1.3 1.35.95 2.42-1.01.07-2.02.21-3.03-.02a.813.813 0 0 1 0-.38c1.41.06 1.81-.91 2.07-2.02Z" style="fill:#78abab"/><path d="M15.77 301.16c.58-.56.19-1.43.91-2.43v4.18c0 .58-.23.95-.9.84-.14-.86-.14-1.72 0-2.58Z" style="fill:#62989b"/><path d="M205.59 266.38c-1.48 1.06-2.5.76-3.48-1.03 1.22.13 2.42.36 3.48 1.03Z" style="fill:#71a4a4"/><path d="M257.45 398.93c.31-1.17.59-2.36 1.9-3.53-.32 2.04-.76 3.58-1.37 5.08-.09-.55-.1-1.12-.53-1.55ZM21.19 333.68q.79-1.7 2.95-1.17c-.24.89-1.09.52-1.59.82-.45.26.11.5.18.76-.57.07-1.09-.01-1.54-.4Z"/><path d="M205.56 261.96c.03.72-.15 1.29-.96 1.46-1.11-.15-1.28-1.03-1.51-1.98.97-.38 1.69.22 2.47.52Z" style="fill:#75a6a6"/><path d="M205.65 146.72c-.54.64-1.26.56-1.96.48-1.1-.13-.96-.8-.63-1.54 1.1-.23 1.95.16 2.59 1.06Z" style="fill:#77acac"/><path d="M51.13 142.14c1.8-.75 3.74-.04 5.57-.52.78 0 1.65-.42 2.24.49-2.6.47-5.2.1-7.81.04Z" style="fill:#80b7b6"/><path d="M22.28 336.67q-1.45.46-2.34-1.26c.94-.49 1.74.24 2.62.28.51.5-.13.67-.28.98Z" style="fill:#2d6b73"/><path d="M189.09 261.72c-.51-.36-1.52-.57-.41-1.4 1.25-.38 1.86.96 2.92 1.09l.36.18c-.12.05-.25.11-.37.16l-2.49-.03Z" style="fill:#6b9c9c"/><path d="M54.19 339.11c-.11-.94-1.33-1.19-1.38-2.29 1.17-.59 1.73 1.03 2.75.82-.32.62-.8 1.09-1.38 1.47ZM282.79 231.31c.86-.51 1.78-.8 2.87-.63-.61.68-1.36 1.12-2.3 1.26-.19-.21-.38-.42-.57-.62ZM215.11 241.95c.32.31.64.63.97.94-1-.04-2.02.15-3.23-.22.71-.93 1.49-.81 2.26-.73Z"/><path d="M273.91 237.92c.18 1.53-.31 1.88-2.06 1.47l.01-.02c.19-.11.34-.26.45-.45.47-.43.95-.85 1.59-1Z" style="fill:#6da0a1"/><path d="M38.12 349.33c-1.07-.23-1.45-.83-1.75-1.53q1.18.03 1.75 1.53Z" class="cls-109"/><path d="M146.76 222.05c-1.01.61-1.62-.66-2.52-.55-.14-.19-.34-.36-.41-.58-.1-.34.2-.44.42-.37.94.32 1.84.71 2.51 1.5Z" style="fill:#5a8586"/><path d="M15.75 305.21c.73 1.47.65 2.94.04 4.42-.22-1.47-.17-2.95-.04-4.42Z" style="fill:#638f8f"/><path d="M18.68 365.08c-.32.29-.7.42-1.13.37-.33-.19-.82.02-1.05-.43-.06-.21 0-.38.19-.5.44-.16.87-.35 1.31-.47 1.22-.33.58.6.68 1.03Z" style="fill:#25585e"/><path d="M196.13 190.54v.54c-.44-.02-.89-.05-1.33-.07-.36-.19-.8-.14-1.13-.41l-.42-.57c.33-.19.65-.38.98-.56 1.03-.33 1.68 0 1.91 1.08Z" style="fill:#275f66"/><path d="M45.53 362.1c-.58-.43-1.19-.85-1.29-1.84.98 0 1.47.55 1.84 1.3l-.54.54Z"/><path d="M301.69 160.15c-.4-.03-.94.06-1.05-.42-.2-.82.55-1.1 1.04-1.51.15.64.16 1.29 0 1.93Z" style="fill:#65989a"/><path d="M282.82 232.35c.61.6.6 1.2-.21 1.51-.98.38-.76-.46-.82-.97.27-.31.62-.48 1.02-.54Z" style="fill:#79aeae"/><path d="M219.95 126.83c1.15-.12.88.89 1.16 1.46-.51.58-.84.27-1.01-.27-.12-.37-.11-.79-.15-1.19Z" style="fill:#5e8e8f"/><path d="M191.59 261.76a.965.965 0 0 1 .01-.34c.86-.13 1.7-.1 2.5.5l-2.52-.15Z" style="fill:#3f5b5b"/><path d="M167.23 251.88c-.05.68 0 1.41-1.02 1.71-.07-.91.42-1.34 1.01-1.72ZM172.66 581.92c-.38-.44-.35-1.14-.91-1.47.14-.62.46-.99.82-.22.22.47.07 1.12.09 1.69Z"/><path d="M231.07 129.64c.96-.43 1.91-1 3.01-.39l-.07.04c-.14.13-.3.23-.47.31-.81.36-1.63.39-2.46.03Z" style="fill:#78b0b0"/><path d="M275.9 155.09c.51.12.93.38.67.96-.34.76-.83.5-1.3.08.21-.35.42-.69.63-1.04Z" style="fill:#7eb5b5"/><path d="M175.27 585.84c.4-.12.83-.19.91.34.12.77.18 1.57-.46 2.19-.04-.17-.08-.33-.13-.5-.29-.45 0-1.03-.33-1.46v-.57Z" style="fill:#669696"/><path d="M17.68 332.63c.19-.17.37-.35.56-.52.44.6.61 1.28.77 2.13-.9-.37-1.08-1.01-1.33-1.6Z"/><path d="M256 462.41c0-1.23-.32-2.5.39-3.66.07 1.24.12 2.48-.39 3.66Z" class="cls-8"/><path d="M224.53 177.09c.24-.43-.72-1.28.3-1.32.81-.04 1.02.66.64 1.42l-.94-.09Z" style="fill:#587e7e"/><path d="M22.28 336.67c.09-.33.18-.66.28-.98.47.02 1.16 0 1.02.63-.11.48-.83.3-1.3.35ZM57.13 297.65c-.22.22-.45.44-.67.65-.26-.51-.51-1.02-.77-1.54.93-.32 1.09.43 1.45.89Z"/><path d="M103.45 379.97c.47.39.54.92.48 1.49-.32.34-.64.67-.97 1.01-.17-.9.36-1.66.49-2.5Z" class="cls-39"/><path d="M16.72 96.91c-.03-.2-.05-.4-.08-.6v-.92c.4.04.83.08.91.57.1.62-.39.79-.84.95Z" style="fill:#42696d"/><path d="M58.56 294.64c.33.05.65.11.98.16.01.4.19.7.51.94 0 .18 0 .35-.01.53-.97-.1-1.4-.7-1.47-1.62Z" style="fill:#619597"/><path d="M155.21 276.23c-.3.7-.81 1.2-1.47 1.57.1-.79.44-1.46 1.02-2 .22.07.37.21.45.43Z"/><path d="M238.59 272.45c-.19-.21-.38-.41-.57-.62.38-.53.53-1.37 1.5-1.04-.23.6-.4 1.23-.94 1.66Z" style="fill:#669b9c"/><path d="M145.35 234.94c-.04.68-.19 1.3-.98 1.49-.07-.76.07-1.37.98-1.49Z" style="fill:#608f90"/><path d="M151.8 279.36c.92.95-.05 1.37-.54 1.93-.21-.04-.42-.07-.63-.11.39-.61.78-1.21 1.17-1.82Z" style="fill:#618e8e"/><path d="M19.13 326.71c.44-.13.89-.24 1.18-.64.34.24.79.68.52.95-.58.57-1.15-.03-1.7-.31Z"/><path d="M300.33 207.5c.17-.18.35-.36.52-.54.53.37.8.93 1.1 1.48-1.04.55-1.19-.43-1.62-.94Z" style="fill:#649a9b"/><path d="M155.21 276.23c-.15-.14-.3-.28-.45-.43.31-.52.61-1.05.92-1.57.2.2.4.4.61.6-.36.46-.71.93-1.07 1.39Z" class="cls-109"/><path d="M56.58 368.55c-.02.69.05 1.41-.58 1.92-.2-.18-.58-.22-.48-.63 0-.25.01-.49.02-.74.35-.18.69-.37 1.04-.55Z" style="fill:#265a61"/><path d="M16.68 364.53c.02.21.05.41.07.62.21.05.35.17.42.37-.75.69-1.02-.16-1.47-.46.15-.51.54-.55.97-.53Z" style="fill:#295e65"/><path d="M159.35 265.31c.32.13.93-.11.92.44-.01.45-.56.48-.94.57 0-.34.01-.67.02-1.01Z" style="fill:#71a7a8"/><path d="M267.91 129.75c-.02.38-.03.75-.05 1.13-.45-.64-.95-1.26-.99-2.09.5.16.72.61 1.04.97Z" class="cls-42"/><path d="M208.15 149.69c-.62.04-1.18-.11-1.64-.55 1.02-1.23 1.23-.03 1.64.55Z" style="fill:#6ca1a1"/><path d="M249.6 200.24c.38.18.77.37.78.86 0 .28-.2.42-.48.26-.37-.22-.6-.56-.71-.98 0-.01.26-.09.41-.14Z" style="fill:#4e7070"/><path d="M94.4 427.85c.3.18 1.02-.21.89.39-.12.57-.8.32-1.27.26 0-.29.12-.5.37-.65Z"/><path d="M230.44 286.46c-.5-.42-1.01-.83-.98-1.58.54.11.8.53 1.05.96-.02.2-.05.41-.07.61Z" class="cls-93"/><path d="M163.76 263.31c-.4.7-1.05.96-1.81 1.01.5-.52.87-1.28 1.81-1.01Z" style="fill:#548a8e"/><path d="M178.26 167.13c.35.67.45 1.19-.61 1 .2-.33.41-.67.61-1Z" style="fill:#558a8d"/><path d="M256.4 455.75h-.42c-.05-.7-.02-1.38.41-1.98v1.98Z" class="cls-8"/><path d="M86.52 418.86c-.18 0-.36.02-.53.03.04-.15.05-.34.14-.45.17-.21.31-.73.67-.38.25.24 0 .6-.28.81Z"/><path d="M277.91 109.33c-.05.36 0 .84-.55.79-.34-.03-.38-.42-.45-.7l1-.09Z" style="fill:#78acab"/><path d="M33.62 635.7c.06-.3.13-.62.5-.62.36 0 .45.32.51.62h-1.02Z" style="fill:#5c989c"/><path d="M25.22 360.6c-.24-.05-.5-.07-.72-.16-.21-.08-.2-.26.03-.31.44-.1.79.12 1.11.41-.14.05-.28.07-.42.06Z" style="fill:#2d636b"/><path d="M153.75 247.8c-.56.18-1.05.05-1.46-.38.54-.07 1.03.02 1.46.38Z" class="cls-105"/><path d="M25.06 337.35s-.14-.09-.14-.14c0-.2.1-.25.26-.13.05.04.08.14.06.19-.01.04-.12.05-.18.08Z"/><path d="M175.27 586.41c.35.43.43.93.33 1.47-.34-.44-.4-.94-.33-1.47Z" class="cls-105"/><path d="M262.95 152.7c-.51-.21-.89-.48-.49-1.09.55.19.52.64.49 1.09Z" style="fill:#699e9f"/><path d="M218.15 177.58c-.65-.1-1.01-.48-1.06-1.13.52.22.88.6 1.06 1.13Z" style="fill:#5b9092"/><path d="m217.49 131.35.66-.66c.23.3.49.64.07.93-.26.18-.56.03-.73-.27Z" style="fill:#4d6f6f"/><path d="M256.97 168.19c-.17.15-.35.3-.52.45 0-.35-.09-.81.52-.45Z" style="fill:#71a5a6"/><path d="M110.85 496.61c-.12 0-.24 0-.36-.02-.02-.3-.04-.6-.05-.9.31.23.51.51.42.92ZM109.97 496.63c-.15.16-.31.31-.46.47-.03-.3-.06-.6-.08-.9.18.14.36.28.54.43Z" class="cls-105"/><path d="M167.22 251.87c.04-.13.09-.27.13-.4.3.24-.07.28-.12.41ZM193.65 190.6c.42.01.81.13 1.13.41-.43 0-.81-.13-1.13-.41Z"/><path d="M248 111.3c-.28.57-.64.36-1 .1.33-.03.67-.07 1-.1Z" style="fill:#7fb5b4"/><path d="M210.63 167.15c-.13.03-.36.11-.37.1-.11-.26.06-.42.23-.59.05.16.09.33.14.49Z" style="fill:#74a8a8"/><path d="M231.5 184.71c-.42-.07-.78-.24-1.01-.61.42.06.77.26 1.01.61Z"/><path d="M269.97 127.28c.34.3.38.61.05.95-.16-.31-.17-.62-.05-.95Z" style="fill:#5d9193"/><path d="M259.47 130.75c-.73.07-.27-.26-.16-.48.05.16.11.32.16.48Z" style="fill:#5c9193"/><path d="M55.23 326.73c-.44.39-.88.37-1.31 0h1.31Z"/><path d="m272.32 238.92-.45.45c.02-.28.19-.42.45-.45Z" class="cls-105"/><path d="M98.46 419.93c.1-.18.2-.36.31-.55-.1.18-.2.36-.31.55Z" class="cls-84"/><path d="M231.5 185.1c-.06-.15-.1-.31-.11-.47.21.17.41.34.62.5-.17-.01-.34-.02-.51-.04Z"/><path d="M232.51 185.49c-.28 0-.47-.12-.54-.39l.54.39Z"/><path d="M285.36 187.48c-.15-.11-.29-.22-.44-.33.25-.03.39.1.44.33ZM233.53 129.61c.07-.24.23-.34.47-.31-.08.23-.22.35-.47.31Z" class="cls-105"/><path d="m153.77 277.78-.51.51.51-.51ZM15.7 497.11c-.18 0-.36 0-.54.01.02-.17.05-.35.07-.52.16.17.31.34.47.51Z"/><path d="M43.08 635.7c.17-.22.34-.23.52-.01-.17 0-.34 0-.52.01Z" class="cls-7"/><path d="M97.32 421.33c-.08-.2-.03-.36.16-.47-.05.16-.11.31-.16.47Z" class="cls-84"/><path d="m230.13 185.19 1.42-.15c-.09 1.16.89 1.72 1.44 2.52 1.69 3.24 2.99 6.63 4.12 10.11 1.17 3.59 1.74 7.2 1.91 10.97.43 9.52-.76 18.89-2.11 28.26-.08.58-.13 1.18-.59 1.6-.53.48-.95 1.37-1.77 1.1-.73-.24-.53-1.14-.57-1.77-.14-1.91-.03-3.82.19-5.72.5-4.28.69-8.59.99-12.89.27-3.91-.02-7.78-.02-11.67 0-1.63-.49-2.87-1.53-4.04-1.45-1.63-3.26-2.82-4.92-4.2-.51-.42-1.15-.77-1.48-1.31-.47-.76-.93-1.76-.35-2.56.54-.73 1.38-.03 2.06.16 1.6.43 2.9 1.52 4.55 2.53.03-3.17-1.07-5.68-2.06-8.2-.61-1.55-1.33-3.04-1.27-4.76ZM162.68 293.18c2.52.03 4.96.41 7.36.75 3.37.48 6.61-.18 9.9-.38 1.73-.11 3.48-.37 5.2-.33 6.44.16 12.69-1.13 18.98-2.22 2.2-.38 4.4-.8 6.61-1.14.5-.08 1.26-.43 1.44.44.13.65.05 1.41-.57 1.79-.55.34-1.22.51-1.85.69-4.15 1.2-8.46 1.64-12.7 2.38-4.74.82-9.53 1.25-14.32 1.47-5.48.25-10.93-.28-16.31-1.35-1.45-.29-2.74-.92-3.73-2.09ZM104.25 354.78c-2.18-1.06-2.9-2.62-3.2-4.34-.61-3.51-1.19-7.03-1.6-10.57-.51-4.39.16-8.61 2.37-12.5.27-.47.47-1.22 1.2-1.02.71.2.95.9.93 1.59-.02.57-.14 1.15-.28 1.71-1.05 4-.95 8.06-.57 12.12.22 2.4.47 4.8.35 7.2-.1 1.84.73 3.54.82 5.8ZM53.74 423.46c2.98 1.89 5.88 1.5 8.77.52 1.49-.5 2.96-1.05 4.41-1.64 1.24-.5 1.64.41 2.05 1.2.48.93-.41 1.1-.93 1.39-3.07 1.74-6.37 2.7-9.92 2.71-.92 0-1.8-.2-2.65-.53-1.94-.76-2.04-.95-1.73-3.66ZM196.13 190.54c-.68-.29-1.37-.54-1.91-1.08 0-.48-.13-1.07.51-1.25 3.58-.96 7.18-1.25 10.74.07.54.2 1.54.34 1.21 1.23-.28.75-.97 1.47-1.95 1.1-2.02-.76-4.1-.39-6.16-.47-.84-.03-1.65.16-2.44.4Z"/><path d="M277.35 389.46c.25 2.48.26 4.97-.03 7.45-.68-2.49-.74-4.97.03-7.45Z" style="fill:#448389"/><path d="M257.67 308.21c.07.74-.22 1.17-.5 1.62-.7-.23-.38-.63-.27-.94.1-.29.25-.58.77-.68Z" style="fill:#518f94"/><path d="M232.46 383.13c-.05.24-.18.46-.44.45-.4-.01-.51-.3-.47-.65.03-.24.16-.46.43-.45.39.02.51.29.48.64Z" class="cls-7"/><path d="M168 506.04c.31.1.68.21.7.56.02.32-.3.28-.51.19-.27-.13-.65-.2-.59-.62 0-.06.26-.09.4-.13Z" style="fill:#4f8d92"/><path d="M108.38 365.7c-.06.23-.17.46-.44.44-.27-.02-.37-.25-.3-.49.08-.29.2-.65.58-.56.23.05.23.37.17.62Z" style="fill:#69a4a6"/><path d="M220.54 407.36c-.12-.07-.24-.15-.36-.22.13-.06.27-.17.4-.17.12 0 .24.13.37.21-.13.06-.27.12-.4.18Z" class="cls-102"/><path d="M271.85 235.39c.06-.31.08-.64.2-.93.06-.13.29-.04.37.14.25.53-.04.74-.5.86l-.08-.08Z" style="fill:#74aeaf"/><path d="m62.27 422.55-.41.06c.01-.13.01-.27.05-.4 0-.03.15-.06.21-.04.19.06.24.2.15.38Z" style="fill:#69a5a6"/><path d="M255.9 456.63c.05.58-.02 1.14-.42 1.6-.03-.58.07-1.12.42-1.6Z" class="cls-8"/><path d="M98.38 416.8c.05.56 0 1.09-.36 1.55-.08-.56.04-1.08.36-1.55ZM97.89 419.27c-.12.19-.24.39-.36.58.12-.19.24-.39.36-.58Z" class="cls-84"/><path d="M231.52 287.76c-.15-.17-.29-.34-.44-.5l.44.5ZM231.04 287.2l-.39-.39.39.39Z" class="cls-93"/><path d="M115.9 30.54c-.35-.46-.13-.8.33-.87 1.09-.18 2.2-.21 3.34.29l-2.77.54c-.31-.21-.61-.23-.89.04Z" style="fill:#6c9c9d"/><path d="M285.32 29.42c-.12.06-.26.18-.36.16-.24-.06-.37-.26-.33-.51.05-.26.27-.36.49-.24.22.11.29.34.2.59Z" style="fill:#527d80"/><path d="M115.9 30.54c.28-.42.58-.39.89-.04-.3.01-.6.03-.89.04Z" style="fill:#4f7a7d"/><path d="M148.65 580.21c-.56.77-1.28.57-1.89.59-1.66.07-3.32.01-4.98.11-7.83.46-15.34-1.11-22.7-3.58-.62-.21-1.22-.52-1.79-.85-.53-.3-.52-.8-.27-1.29.26-.49.64-.68 1.22-.49 9.36 3.13 19.21 3.46 28.84 5.02.48.08 1.01-.03 1.56.47ZM226.62 568.02c3.02-1.87 5.95-3.86 8.67-6.17 2.29-1.94 3.98-4.16 4.53-7.17.07-.39.15-.82.81-1.11 1.18.88 1.55 2.1 1.13 3.57-.68 2.38-2.07 4.29-3.95 5.87-2.89 2.43-6.39 3.75-9.69 5.45-.56.05-1.3.71-1.5-.44Z"/><path d="M104.42 632.77c.71-1.13.22-2.53.86-3.7.2 1.96.49 3.92-.08 6.2-.99-.96-.65-1.81-.76-2.56l-.02.05Z" style="fill:#7eb7b7"/><path d="M226.62 568.02c.44.37.98.37 1.5.44-.43.42-.98.48-1.53.5-.29 0-.74.04-.66-.4.04-.21.45-.36.69-.54Z"/><path d="M29.18 523.15c-1.28-.42-1.87-1.06-1.89-1.91-.04-2.81-.74-5.69.79-8.41.35 3.33.71 6.67 1.09 10.32Z" style="fill:#7fb8b8"/><path d="M34.5 575.31v9c-1.16-1.6-1.19-6.02 0-9Z" style="fill:#4b898f"/><path d="M22.19 396.95c-.42 2.01-1.4 3.68-3.32 5.41.28-1.54 1.19-2.15 1.69-2.98.5-.84.61-1.94 1.58-2.48l.06.05Z"/><path d="M59.68 633.02c.61.34.48.91.4 1.45-.06.37-.36.63-.65.46-.46-.28-.39-.83-.33-1.31.04-.29.12-.65.58-.6Z" style="fill:#80b9b9"/><path d="M50.25 375.68c-.39-.06-.53-.25-.46-.5.1-.38.24-.78.63-.95.27-.12.46.08.45.35-.02.49-.23.89-.61 1.1Z"/><path d="M34.37 560.08c.4.55.35 1.06 0 1.62-.36-.55-.39-1.06 0-1.62Z" style="fill:#619da0"/><path d="M17.42 390.47c-.26-.09-.6-.05-.45-.37.06-.12.43-.13.65-.12.12 0 .24.16.36.24-.21.09-.41.18-.56.25ZM24.46 403.26c-.49-.47-.51-.96-.18-1.52.81.42.39.96.18 1.52ZM22.13 396.9c.09-.52-.06-1.13.72-1.59.08.76-.22 1.22-.66 1.63l-.06-.05ZM17.64 498.61c-.53-.27-1.08-.52-1.45-1.01.68.06 1.31.19 1.45 1.01ZM19.15 510.12l.55-.58c.25.33.59.73.16 1.05-.31.23-.55-.19-.72-.47ZM18.66 504.59c-.51-.59-.48-1.31-.47-2.02.48.6.49 1.3.47 2.02ZM19.16 507.09c-.51-.58-.48-1.3-.48-2.01.48.59.49 1.29.48 2.01ZM18.14 501.59c-.39-.44-.46-.98-.43-1.54.37.45.46.98.43 1.54ZM19.66 509.08c-.4-.43-.48-.97-.47-1.53.38.44.48.97.47 1.53ZM15.22 506.69c.03-.19-.03-.46.27-.45.07 0 .13.22.2.34-.16.01-.32.05-.47.11ZM55.52 369.84l.48.63c-.44 0-.97.07-.48-.63ZM17.18 365.51c-.14-.12-.28-.24-.42-.37.29.03.6 0 .79.31-.13-.01-.25 0-.37.06ZM18.19 509.09l.48.51-.48-.51Z"/><path d="M18.66 509.59c.17.17.34.35.51.52-.17-.17-.34-.35-.51-.52ZM16.21 497.62c-.17-.17-.35-.34-.52-.51.17.17.35.34.52.51ZM15.7 506.6c.16.17.32.35.48.52-.16-.17-.32-.35-.48-.52Z"/><path d="M16.16 507.1c.17.16.34.32.51.47-.17-.16-.34-.32-.51-.47ZM17.1 507.61l.57.57-.57-.57ZM17.74 508.62c.15.15.29.3.44.45-.15-.15-.29-.3-.44-.45Z"/><path d="M56.17 289.69c-.57-.61-1.27-1.1-1.65-1.87 1.39.09 1.69.42 1.65 1.87Z" style="fill:#2a5e65"/><path d="M35.53 280.41c-.45-.08-.9-.16-1.36-.24.16-.53.47-.88 1.06-.7.49.15.61.5.29.94Z" style="fill:#2e6870"/><path d="m67.39 599.56-.15.06.01-.15.14.09z" style="fill:#436161"/><path d="M253.69 140.66c-.2-.14-.28-.17-.32-.23-.28-.4-.5-.83-.18-1.3.06-.09.34-.17.41-.12.42.36.3.86.26 1.32 0 .07-.07.14-.16.33Z" style="fill:#7bb4b4"/><path d="M103.93 381.46c.14-.01.28-.03.43-.05.12 3.42 1.08 6.77.84 10.23a29.002 29.002 0 0 1-1.27-10.18ZM104.43 380.98c-.1-.89-.12-1.77.42-2.55.07.89.16 1.78-.42 2.55Z" class="cls-39"/><path d="M211.54 158.58c-.19.02-.32-.06-.32-.24s.15-.23.34-.17c-.08.13-.09.27-.03.42ZM33.25 319c-.04.74-.26 2.05-1.27 2.41-2.02.71-2.13 2.3-2.4 3.92-.1.57-.19 1.14-.34 1.7-.14.53-.21 1.36-.89 1.26-.69-.09-1.4-.52-1.53-1.41-.44-2.81 2.31-8.06 4.86-9.27 1.03-.49 1.52-.17 1.57 1.38ZM52.39 307.99c-.17.4-.42.73-.89.73-2.73-.02-5.15.98-7.46 2.3-.6.34-.95.07-1.19-.4-.41-.8-.94-1.66.08-2.41 2.3-1.68 4.79-2.55 7.64-1.56.47.16.9.4 1.36.58.36.14.49.4.46.76ZM50.13 326.15c-.4.9-1 1.31-1.93.7-1.1-.72-2.23-1.36-3.03-2.49-1.3-1.82-2.44-3.73-3.51-5.68-.64-1.16-.84-2.39-.56-3.9 2.25 4.6 4.42 9 9.08 11.4l-.04-.04ZM34.12 321.65q.33 2.62 2.54 2.36c-.59 1.21-1.22 2.36-2.57 2.3-1.39-.06-1.98.38-2.05 1.72-.02.42-.23.92-.68.91-.62 0-.77-.6-.73-1.09.23-2.46.96-4.66 3.49-6.2ZM42.4 342.63c-.51-1-.67-2.11-.07-2.83 1.24-1.51 1.31-3.31 1.74-5.04.1-.42-.06-1.12.72-.99.47.08.59.6.55.99-.17 1.55-.21 3.16-1.2 4.46-.78 1.03-1.58 2.02-1.74 3.41ZM45.25 315.11c.56-2.41 2.28-4.1 3.93-4.03.76.03 1.15.39.56 1.09-.37.44-.82.76-.72 1.44.04.24-.3.55-.46.46-1.37-.83-2.01.74-3.31 1.04ZM51.56 310.67c1.33-1.05 2.96-1.35 4.54-1.76.32-.08.67-.09.83.27.17.38-.1.66-.37.81-.72.38-1.47.73-2.3.8q-1.82 1.03-2.69-.12ZM30.63 332.81c.03-.17.02-.52.16-.8.29-.61.09-1.67 1.07-1.68.86-.01.41.9.61 1.37.35.82.33 1.57-.74 1.94-.71.25-1.1.16-1.09-.83Z"/><path d="M51.56 310.67c.87.68 1.8-.16 2.69.12-.98 2.12-1.79 2.32-2.99.7-.2-.27 0-.62.31-.82ZM55.88 335.4c.02.29-.07.53-.34.55-.55.03-.87-.34-1.08-.8-.11-.23-.06-.56.18-.61.69-.14.97.39 1.24.86Z"/><path d="M31.94 285.1c-.11.09-.25.27-.34.25-.29-.06-.35-.32-.23-.55.05-.09.31-.16.4-.11.1.06.12.26.17.41Z" style="fill:#48878d"/><path d="M277.3 411.5c.22 3.25.41 6.21.61 9.17.05.78-.21 1.19-1.06 1.33-2.44.42-4.92.56-7.32 1.22-.82.22-1.42-.26-1.75-1.04-.93-2.16-1.18-4.46-1.31-6.77-.03-.56.22-.99.82-1.05 3.4-.35 6.48-1.86 10.01-2.86Z" style="fill:#31767f"/><path d="M267.93 131.26c.62.78.46 1.69.44 2.58-.46-.81-.45-1.7-.44-2.58ZM268.42 134.24c.15.34.3.67.46 1.01-.3-.27-.46-.61-.46-1.01Z" class="cls-42"/><path d="M260.66 181.48c-.08.29-.29.38-.54.29-.25-.1-.39-.32-.26-.58.06-.11.27-.23.39-.22.26.03.41.24.41.52Z" class="cls-102"/><path d="M148.33 240.86c-.05.15-.11.3-.16.45-.33-.28.12-.3.15-.45Z" style="fill:#579397"/><path d="M259.05 141.15c.16-.17.32-.35.48-.52.39.49.46 1.03.31 1.65-.65-.19-.82-.59-.78-1.13Z" style="fill:#598080"/><path d="M31.35 320.13c.07.32-.12.48-.39.49-.13 0-.37-.12-.39-.22-.05-.27.11-.5.39-.52.12 0 .26.16.38.25ZM45.53 308.1c.61-.45 1.3-.57 2.23-.65-.33 1.04-1.24.81-1.75 1.19-.17-.17-.56-.14-.48-.53Z"/><path d="M45.53 308.1c.16.18.32.36.48.53-.39.01-.86.64-1.14-.03-.12-.29.38-.4.66-.51ZM271.49 414.5c1.22.37 2.49.33 3.66.82 1.13.46 1.55 1.2 1.19 2.34-.53 1.68-1.66 2.93-3.25 3.57-2.18.88-4.52-1.13-4.04-3.4.12-.57.21-1.13.32-1.7.22-1.17 1-1.65 2.12-1.63Z"/><path d="M274.01 417.49c-.67 1.28-1.25 2.12-2.56 1.67-.52-.18-1.04-.55-.85-1.27.16-.61.52-1.02 1.21-.9.63.11 1.25.28 2.19.49Z" style="fill:#2e6e76"/></g><g id="Ebene_1"><path d="M14.65 240.98c14.88-17.65 29.52-35.82 43.8-52.78-9.66 10.11-28.87 33.01-38.44 43.73-1.79 2.03-3.58 4.07-5.37 6.11v2.93ZM14.65 428.03v1.63c13.26-14.1 25.55-29.13 37.21-44.53-11.61 14.8-24.13 29.1-37.21 42.89Z" class="cls-61"/><path d="M14.65 176.89c7.11-10.11 15.36-22.15 21.65-31.37l-.16-.12-13.76 18.68c-2.55 3.51-5.13 6.99-7.73 10.47v2.33Z" class="cls-105"/><path d="M86.8 301.99c-3.86 5.25-7.68 10.53-11.57 15.75-5.39 7.21-12.27 16.19-17.79 23.3-13.78 17.56-28.1 34.71-42.78 51.55v2.93c17.6-19.61 33.72-40.61 49.54-61.61 7.64-10.25 15.45-21.34 22.76-31.8l-.16-.12Z" class="cls-61"/><path d="M55.02 212.69c-5.6 6.03-11.21 12.05-16.85 18.04-5.62 6.01-11.25 12-16.92 17.96-2.21 2.28-4.41 4.57-6.6 6.86v2.82c2.6-2.86 5.18-5.73 7.78-8.6 11.06-12.19 21.96-24.52 32.74-36.96l-.15-.13Z" class="cls-105"/><path d="M32.17 564.35c-6.04 7.63-11.91 15.45-17.51 23.42v2.13c6.72-7.82 12.86-16.18 18.79-24.59 5.68-7.85 16.97-23.67 22.55-31.6-.18-.67-23.71 30.79-23.83 30.65ZM51.06 435.24c-3.34 3.04-10.11 9.07-13.51 12.03-4.46 4.1-9.07 7.97-14.4 10.95l-.13-.15c3.94-4.66 8.62-8.44 13.51-12.03 3.56-2.76 10.78-8.26 14.4-10.95l.13.15ZM60.1 353.98l-15.01 19.13c-4.87 6.51-9.88 12.81-15.55 18.68l-.16-.12c3.92-7.18 9.08-13.48 14.47-19.57 3.93-4.61 12.02-13.77 16.1-18.24l.15.13Z" class="cls-61"/><path d="M14.65 309.21c18.53-22.66 35.7-47.01 52.34-70.94l-.16-.12-9.96 13.63c-9.76 13.11-20.54 27.54-30.7 40.23-3.8 4.73-7.65 9.41-11.52 14.08v3.12Z" class="cls-105"/><path d="M54.21 453.97c-8.06 7.51-19.4 18.17-27.14 25.8-4.22 4.04-8.39 8.13-12.41 12.37v2.84c4.58-4.62 9.09-9.32 13.55-14.09 7.55-7.88 18.39-18.87 26.15-26.79l-.14-.14ZM14.65 331.98c6.58-7.68 12.89-15.59 18.87-23.74l-.16-.12c-4.18 5.18-8.4 10.32-12.83 15.28-1.94 2.22-3.9 4.42-5.88 6.61v1.97Z" class="cls-61"/></g><g id="Ebene_9"><path d="m143.07 99.6 6.57 40.16-9.42-39.59 2.85-.57z"/><path d="M15.67 634.41c81.74-1.1 207.63-1.1 288.42-1.54l-1.68 1.68-.15-77.31c.26-175.09 2-366.41.71-541.16l1.11 1.11-144.28.6-144.28.31 2.02-2.02.13 77.11c.04 167.34-.99 373.6-2.01 541.21Zm-.29.29c-1.11-196.29-2.42-422.72-1.88-618.61v-2.03h2.02l144.28.31 144.28.6h1.12v1.11c-1.52 201.34 1.15 416.94.57 618.47v1.68h-1.68c-80.7.35-207.11-1.25-288.71-1.54Z"/></g></svg>