<?xml version="1.0" encoding="UTF-8"?><svg xmlns="http://www.w3.org/2000/svg" viewBox="0 0 310 650"><defs><style>.cls-1{fill:#31666b;}.cls-2{fill:#2a555c;}.cls-3{fill:#72acad;}.cls-4{fill:#79b1b1;}.cls-5{fill:#327179;}.cls-6{fill:#78adac;}.cls-7{fill:#80b8b7;}.cls-8{fill:#639596;}.cls-9{fill:#679999;}.cls-10{fill:#7cb2b2;}.cls-11{fill:#317078;}.cls-12{fill:#367a80;}.cls-13{fill:#456262;}.cls-14{fill:#5a8080;}.cls-15{fill:#7aadac;}.cls-16{fill:#5f8585;}.cls-17{fill:#73a8a9;}.cls-18{fill:#719f9f;}.cls-19{fill:#71a4a4;}.cls-20{fill:#74a5a5;}.cls-21{fill:#5d8788;}.cls-22{fill:#34777f;}.cls-23{fill:#6ea5a7;}.cls-24{fill:#669a9c;}.cls-25{fill:#659494;}.cls-26{fill:#32767f;}.cls-27{fill:#67999a;}.cls-28{fill:#33727a;}.cls-29{fill:#5e8c8d;}.cls-30{fill:#6b9796;}.cls-31{fill:#77a8a7;}.cls-32{fill:#537878;}.cls-33{fill:#689e9f;}.cls-34{fill:#307078;}.cls-35{fill:#6a9494;}.cls-36{fill:#699494;}.cls-37{fill:#466565;}.cls-38{fill:#5b989c;}.cls-39{fill:#317077;}.cls-40{fill:#6ea1a3;}.cls-41{fill:#78a9a8;}.cls-42{fill:#75acac;}.cls-43{fill:#72a2a2;}.cls-44{fill:#5e8787;}.cls-45{fill:#557b7b;}.cls-46{fill:#6ab1b5;}.cls-47{fill:#669190;}.cls-48{fill:#527575;}.cls-49{fill:#32767e;}.cls-50{fill:#589598;}.cls-51{fill:#589397;}.cls-52{fill:#2f585b;}.cls-53{fill:#67999b;}.cls-54{fill:#79aeae;}.cls-55{fill:#6d9b9b;}.cls-56{fill:#608786;}.cls-57{fill:#28575e;}.cls-58{fill:#337780;}.cls-59{fill:#709e9d;}.cls-60{fill:#5f8484;}.cls-61{fill:#6d9e9e;}.cls-62{fill:#2e666e;}.cls-63{fill:#6d9b9a;}.cls-64{fill:#658e8d;}.cls-65{fill:#679090;}.cls-66{fill:#2b595e;}.cls-67{fill:#7baead;}.cls-68{fill:#2e595d;}.cls-69{fill:#30727a;}.cls-70{fill:#33767f;}.cls-71{fill:#405d5c;}.cls-72{fill:#507373;}.cls-73{fill:#24575d;}.cls-74{fill:#709d9d;}.cls-75{fill:#2f6d75;}.cls-76{fill:#5f979a;}.cls-77{fill:#30717a;}.cls-78{fill:#4c7e80;}.cls-79{fill:#457477;}.cls-80{fill:#59807f;}.cls-81{fill:#4a6b6a;}.cls-82{fill:#456363;}.cls-83{fill:#214b4d;}.cls-84{fill:#415d5c;}.cls-85{fill:#33767e;}.cls-86{fill:#589599;}.cls-87{fill:#458084;}.cls-88{fill:#2a656c;}.cls-89{fill:#396365;}.cls-90{fill:#7fb6b5;}.cls-91{fill:#78afaf;}.cls-92{fill:#64999a;}.cls-93{fill:#4d898e;}</style></defs><g id="Ebene_2"><rect class="cls-83" x="-1.95" y="-2.56" width="314.26" height="654.6"/></g><g id="Ebene_6"><g><rect x="9.39" y="109.6" width="293.18" height="523.93"/><path class="cls-57" d="M7.03,537.64c.95,11.66,.34,23.33,.39,35-.61-1.91-.88-3.89-.89-5.87-.05-8.83-.03-17.66-.03-26.5,0-.91-.13-1.85,.53-2.63Z"/><path class="cls-62" d="M48.64,638.18c2.31,.03,4.61,.05,6.92,.08,.34,.18,.33,.34-.02,.49h-8.95c-.02-.08-.03-.17-.05-.25,.7-.1,1.4-.21,2.1-.31Z"/><path class="cls-2" d="M55.54,638.74c0-.16,.02-.32,.02-.49,2.5-.19,5.01-.09,7.51,0-1.36,.87-2.88,.4-4.33,.49-1.06,.06-2.13,0-3.2,0Z"/><path class="cls-75" d="M210.29,638.72c-1.84,1.13-3.77,.37-5.67,0,1.88,0,3.76,0,5.64,0,0,0,.03,.01,.03,.01Z"/><path class="cls-46" d="M301.6,16.88c-.17,1.41-.13,2.83-.13,4.25,0,14.18-.36,28.37,.07,42.54,.81,26.77-.04,53.54,.49,80.3,.38,19.27,.15,38.53,.23,57.79,.05,11.09,.33,22.18,.24,33.26-.21,24.02-.39,48.03-.17,72.05,.4,42.11,.06,84.23,.21,126.34,0,.74-.12,1.5,.16,2.23,0,23.26,0,46.51,0,69.77,0,27.68-.09,55.35,.04,83.03,.06,12.42,0,24.84-.02,37.25,.55,3.59-.78,5.87-4.38,6.98-1.18,.37-2.27,.85-3.54,.84-7.05-.02-14.11-.02-21.16,0-.82,0-1.66-.18-2.45,.18-9.25,.08-18.51,.05-27.76,.28-5.67,.14-11.33,.12-17,.19-1.93,.02-1.99,0-2.51-1.9-.82-2.99-2.14-5.78-3.43-8.56-.75-1.62-.71-3.62-2.37-4.84-.44-.32,.09-.9,.27-1.35,1.44-3.53,3.27-6.94,4.05-10.7,.59-2.83,1.04-5.72,1.28-8.6,.31-3.73,1.1-7.39,1.59-11.09,.38-2.89,.38-5.8,.67-8.69,.35-3.47,.62-6.95,1.09-10.4,.61-4.51,.22-8.98,.07-13.47-.12-3.5-.49-7-.45-10.49,.08-7.48-1.41-14.75-2.64-22.06-1.25-7.47-2.54-14.93-3.87-22.39-.75-4.18-1.47-8.36-1.28-12.64,.09-1.99,.22-3.98,.34-5.97,.02-.41,.09-.83,.06-1.24-.02-.37-.3-.63-.65-.63-.2,0-.51,.2-.57,.38-.31,.86-.68,1.72-.79,2.61-.33,2.81-.61,5.63-.79,8.46-.14,2.16,0,4.32,.56,6.45,1.41,5.24,1.92,10.65,2.87,15.97,1.35,7.63,2.28,15.32,3.34,23,.74,5.4,.5,10.82,.42,16.23-.02,1.34,.05,2.66,.3,3.98,.68,3.65,.38,7.34,.14,10.98-.62,9.65-1.08,19.34-3,28.83-1.12,5.52-2.07,11.13-4.09,16.44-1.54,4.03-3.65,7.65-7.33,10.19-1.29,.89-2.32,2.14-3.47,3.23-1.51-.03-1.99-1.05-2.08-2.31-.17-2.41-.22-4.81,.38-7.2,2.04-8.25,3.83-16.55,5.42-24.9,1.25-6.55,1.31-13.24,2.06-19.86,.85-7.44,1.42-14.92,1.85-22.38,.42-7.3,.37-14.64-.13-21.97-.31-4.64-.66-9.3-.71-13.96-.12-11.52-1.61-22.91-3.75-34.21-.73-3.85-1.39-4.34-5.33-5.09-2.46-.47-4.95-.7-7.4-1.19-3.37-.67-3.57-1.03-2.34-4.32,.12-.31,.23-.62,.38-.93,.18-.39,.43-.73,.73-1.02,2.31-1.6,5.14-2.35,7.19-4.38,1.17-.14,1.83,.68,2.5,1.41,2.97,3.26,6.75,5.4,10.51,7.55,2.68,1.54,5.47,1.1,7.84-1.06,2.35-2.14,4.28-4.65,6.14-7.21,.54-.74,.97-1.56,1.87-1.95,1.29-.05,2.29-.47,3.15-1.57,3.67-4.69,8.09-8.67,12.38-12.77,.78-.75,1.44-1.59,2.12-2.43,6.17-5.13,13.02-9.25,19.94-13.27,6.83-3.97,11.98-9.37,13.53-17.37,.99-5.11,1.16-10.33,1.4-15.54,.52-11.61-3.64-22.02-7.5-32.56-2.26-6.18-4.35-12.46-5.93-18.81-2.54-10.17-7.64-18.91-13.2-27.55-5.02-7.81-11.16-14.51-18.87-19.71-5.16-3.48-11.16-5.18-16.74-7.79-5.73-2.68-11.87-4.39-17.6-7.06-6.56-3.05-12.95-6.44-18.92-10.6-7.71-5.38-16.05-9.8-21.1-13.76,4.75,3.67,12.68,7.98,20.08,13.08,7.3,5.03,14.96,9.42,23.19,12.63,7.6,2.97,15.03,6.34,22.66,9.22,7.66,2.89,14.01,7.7,19.37,13.77,8.22,9.32,14.85,19.68,19.09,31.42,2.46,6.81,4.23,13.84,6.47,20.73,2.24,6.88,5.08,13.55,7.02,20.55,2.26,8.15,2.27,16.35,1.48,24.66-.42,4.4-.65,8.81-2.74,12.79-1.55,2.96-3.52,5.63-6.98,6.67-.57-.09-1-.37-1.24-.9-.29-2.13,1.36-3.28,2.47-4.65,3.03-3.75,3.94-8.3,3.22-12.66-1.25-7.62-3.23-15.14-7.08-22-.41-.73-.95-1.37-1.26-2.15-5.87-8.09-12.7-15.17-21.31-20.41-2.66-1.62-5.72-2.27-8.51-3.58-3.61-2.58-7.91-3.4-12.01-4.72-2.25-.73-2.51-1.29-1.09-3.19,4.37-.86,8.75-.76,13.08,.2,8.57,1.9,16.2,5.8,23.18,11.06,1.4,1.05,2.46,2.48,3.83,3.56,.63,.49,1.51,1.53,1.92-.25,1.65-4.8-.84-8.99-2.26-13.19-2.37-7.01-4.69-14.06-8.25-20.62-3.33-6.13-7.64-11.28-13.41-15.2-3.38-2.29-6.83-4.48-10.27-6.67-2.26-1.44-4.58-2.74-7.33-2.98-5.05-.45-9.13-3.5-13.7-5.24-2.93-1.12-5.41-1.36-8.31,0-4.05,1.91-8.42,3.16-11.65,6.58-1.33,1.4-3.07,.91-4.7,.34-5.15-1.77-5.47-2.96-2.13-7.22,1.82-2.32,4.31-3.9,6.28-6.05,.91-.99,1.1-1.6-.28-2.18-.69-.29-1.32-.73-2.02-.98-7.14-2.61-13.08-7.21-19.14-11.6-1.86-1.35-3.25-3.15-4.46-5-2.59-3.99-5.47-7.75-8.28-11.57-1.87-2.54-4.4-4.29-6.65-6.37-1.45-1.34-2.57-3.09-4.65-3.6-2.58-3.88-5.05-7.8-4.41-12.8,.11-.83-.05-1.72-.4-2.45-1.35-2.84-.62-5.92-1.16-8.85-.12-.65,.01-1.4,.41-1.93,1.31-1.74,.82-3.33-.4-4.77-2.49-2.94-3.72-6.06-2.85-10.08,.48-2.21-.59-4.58-.92-6.88-.2-1.41,.03-2.63,.89-3.77,3.86-5.13,4.22-10.86,2.87-16.88-.2-.89-.75-1.83-.39-2.68,1.01-2.36,2.36-4.63,1.04-7.32-.06-.12,.03-.38,.14-.46,2.66-1.88,1.28-4.68,1.6-7.08,.22-1.63-.35-2.62-2.19-2.4-.24,.14-.46,.31-.67,.5-.1,.16-.23,.3-.36,.44-.25,.33-.53,.63-.87,.87-.2,.11-.42,.16-.65,.14-.83-.26-.92-.95-.95-1.67-.02-.23-.04-.45-.05-.68,.02-.56,.15-1.1,.22-1.66,0-.23,.06-.45,.11-.67,.23-.76,.35-1.54,.4-2.34,.73-3.65,1.88-6.74,6.56-6.76,3.11-.02,5.26-2.23,7.33-4.31,1.5-1.5,1.73-5.01,.48-7.5-1.77-3.53-4.14-6.61-6.89-9.43-5.97-6.14-12.76-11.16-20.26-15.26-10-5.47-19.74-11.44-30.68-15.02-9.97-3.26-19.63-2.74-29.07,1.86-5.02,2.45-9.77,5.28-14.27,8.65-6.52,4.88-13.39,9.3-20.08,13.95-4.87,3.39-9.11,7.51-13.75,11.17-2.61,2.07-3.76,5.23-4.89,8.28-.56,1.04-2.22,1.74-1.57,3.11,.81,1.72,2.61,2.12,4.42,2.18,2.79,1.48,5.6,2.91,8.46,4.24,.62,.7,1.13,1.56,.73,2.42-1.14,2.47,.4,2.89,2.24,3.16,2.4,1.69,1.95,4.38,2.21,6.75,.15,1.38-1.59,2.44-3.34,2.21-1.48-.2-2.92-.6-4.18-1.52-.55-.41-1.3-1.07-1.96-.21-.59,.76,.02,1.36,.5,1.97,1.01,1.29,1.57,2.89,3.09,3.83,.83,.52,1.03,1.65,.46,2.47-1.45,2.08-1.03,4.68-2.1,6.85-.48,.97-.16,1.76,.84,2.27,1.37,.7,1.69,1.92,1.67,3.35-.06,5.17,.69,10.1,4.07,14.33,1.17,1.46,1,3.19-.13,4.64-2.55,3.28-3.72,7.22-5.38,10.93-.74,1.66-.44,3.45-.66,5.16-.22,1.68-.6,2.75-2.61,2.25-1.4-.34-1.35,.65-1.06,1.5,.49,1.45,.38,2.65-.56,3.97-.99,1.38,.11,2.69,.77,3.89,.63,1.15,1.52,2.02,3,1.75,.9-.16,1.8-.34,2.67-.62,1.06-.33,2.03-.25,2.55,.86,.52,1.08,0,1.97-.81,2.64-1.17,.96-2.56,1.53-3.97,2.06-.51,.19-1.26,.3-1.22,1.04,.03,.6,.68,.63,1.14,.77,1.65,.53,2.06,1.64,1.28,3.1-.61,1.14-.37,2.06,.35,2.99,.23,.42,.52,.82,.53,1.33,0,.17,.01,.35-.06,.49-.76,1.47-.66,3.68,.25,5,.52,.75,.29,1.59,.32,2.41,.04,1.1-.32,2.41,1.2,2.94,.38,.09,.73,.23,1.02,.51,.18,.22,.29,.46,.34,.74,.06,1.22-.66,1.8-1.72,2.1-4.4,1.25-8.59,3.07-12.9,4.57-3.34,1.17-3.99,.51-3.43-3.03,3.24-1.36,6.69-2.03,9.99-3.16,.75-.26,1.84-.17,2.13-1.06,.37-1.13-.04-2.32-.34-3.43-.2-.74-.93-.53-1.49-.43-3.2,.55-6.42,.96-9.57,1.74-.31,.08-.64,.09-.95,.13-.38-.97-.22-1.89-.23-2.8-.12-20.76-.21-41.52-.33-62.28-.15-25.51-.32-51.02-.5-76.53-.14-19.17-.3-38.35-.49-57.52-.1-10.42-.22-20.84-.48-31.25-.12-4.58-.29-9.15-.22-13.73,2.11-1,4.42-.74,6.6-.74,12.75,.03,25.51-.17,38.25-.4,12.66-.23,25.34-.03,37.98-.53,9.42-.38,18.82-.13,28.23-.39,10.07-.28,20.16-.28,30.23-.55,8.09-.22,20.89,1.88,28.97,1.55,13.65-.56,124.2-3.07,123.8,.25Z"/><path class="cls-89" d="M227.2,352.06c-.43,.43-1.38,1.18-.09,1.29,3.69,.3,6.74,2.27,10.07,3.47,1.23,.44,2.59,.67,3.59,1.64-.61,.96-1.47,.82-2.42,.62-3.86-.82-7.7-1.87-10.41-1.22,2.03-.34,5.31-.11,8.51,.97,.38,.29,.76,.59,1.3,.48,4.78,.43,8.54,3.12,12.25,5.73,7.07,4.99,13.61,10.62,19.06,17.39,.73,.9,1.18,.45,1.8,.09,.59,1.81,1.46,3.47,2.45,5.09,1.35,2.21,2.3,4.62,2.96,7.12,1.1,4.18,2.18,8.37,3.21,12.58,.63,2.57-1.4,10.78-3.1,12.8-1.23,1.47-2.45,2.94-3.68,4.41-.32,1.16-.92,2.21-1.31,3.34-2.97,2.84-6.64,4.7-10.06,6.86-7.04,4.44-14.1,8.82-20.66,13.96-1.78,1.39-3.24,3.11-4.88,4.65-1.08,1.02-2.19,1.94-3.75,1.22-1.62-.75-1.53-2.33-1.34-3.7,1.08-7.78,.85-15.61,.9-23.43,.04-7.97-2.45-15.42-4.79-22.86-1.69-5.37-3.3-10.79-6.38-15.67-3.89-6.17-8.76-11.29-14.8-15.3-1.01-.67-1.84-1.71-3.15-1.91-.5-.04-.99,.03-1.49,.04-2.01-.79-4.05-1.54-5.98-2.53-.55-.42-.58-1.25-1.25-1.58-.55-.37-1.24-.51-1.7-1.05-1.17-1.54-3.12-1.22-4.64-1.94-1.84-1.98-1.85-4.59-2.23-7.01-1.92-11.98,.65-23.32,5.02-34.4,1.46-3.69,3.44-7.15,4.89-10.86-1.06,.39-1.47,1.29-1.85,2.17-2.16,4.87-4.01,9.87-5.88,14.86-.86,2.28-.87,4.74-1.56,7.05-.22,.74-.55,1.58-1.41,1.52-.83-.05-1.16-.87-1.24-1.66-.81-7.38-1.3-14.75,.59-21.84-1.2,1.58-1.76,4-1.93,8.15-.21,4.94,.64,9.79,1.19,14.66,.62,5.53,1.46,11.04,1.65,16.61,.07,1.93,.42,3.8,.75,5.69,.18,1.01,.37,1.98-.34,2.86-2.34,1.29-4.25-.36-6.21-1.08-1.26-.46-2.41-.94-3.76-.71-2.68-1.07-5.05-2.74-7.72-3.86-4.03-1.68-8.13-2.73-12.52-2.35-1.29,.11-2.73-1.32-3.87,.35-.64,.44-1.33,.49-2.03,.21-.89-.36-.83,.43-1.06,.86-1.22,1.51-3.43,.5-4.72,1.85-.2,.09-.4,.19-.58,.31-.17,.13-.34,.26-.5,.4-.56,.53-.96,1.16-1.21,1.9-1.14,2.73-.64,5.34,.51,7.93,.99,2.24,.5,3.04-1.88,3.23-.25,.02-.51-.04-.74,.02-3.41,.89-4.29,.08-5.62-4.15-.97-3.09-1.93-6.16-3.4-9.04-.87-1.7-2.05-3.21-3.47-4.5-.55-1.32-.84-3.16-2.85-1.31-.17,.14-.33,.28-.49,.43-.14,.17-.28,.34-.41,.53-.14,.18-.31,.33-.5,.46-.39,.25-.82,.39-1.29,.35-.27,.05-.71-.08-.74,.28-.02,.25,.45,.34,.64,.59,.44,4.95,3.43,9.13,4.22,13.98-.37,1.09-1.47,1.79-1.66,2.99-1.13,.88-2.57,1.07-3.85,1.61-1.23,.52-1.84,1.17-1.82,2.58,.1,8.22,0,16.44,1.29,24.6,1.03,6.51,3.48,12.44,6.81,18.05,1.8,3.02,1.59,3.77-1.7,4.74-.4,.12-.79,.25-1.2,.35-4.91,1.21-7.59,4.04-7.94,8.37-.36,4.52,2.23,8.59,6.66,10.39,1.46,.6,2.97,1.08,4.57,1.22,.69,.06,1.28,.33,1.68,.93,.19,.98,.28,2.01,1.02,2.8,.16,.5,.13,.99-.05,1.47-1.59,4.26,.88,6.68,3.75,9.3,5.26,4.81,12.21,5.84,18.32,8.69,4.58,2.13,9.27,4.08,13.96,6,3.66,1.5,7.18,2.15,11.15,1.48,3.35-.57,6.78-.67,10.06-1.67,2.75-.84,5.25-2.05,7.24-4.22,.63-.68,1.24-1.68,2.49-1.2,.59,1.17-.32,1.62-1.02,2.21-.31,.26-.71,.56-.63,1.01,.1,.62,.7,.63,1.17,.7,3.62,.53,7.24,1.14,10.88,1.54,1.89,.21,3.02,.93,3.62,2.8,.97,3.03,1.39,6.17,1.95,9.28,1.3,7.3,1.73,14.71,2.5,22.07,.18,1.73-.05,3.5,.03,5.24,.26,5.32,.7,10.64,.86,15.96,.29,9.57,.45,19.15-.61,28.7-.5,4.55-.84,9.12-1.13,13.68-.81,12.91-2.56,25.66-5.76,38.21-.72,2.82-1.15,5.71-1.97,8.5-.6,2.04-.48,4.12-.29,6.2,.08,.83,.22,1.66,.98,2.21-2.88,2.77-6.02,5.23-9.17,7.68-1.02,.8-2.16,.74-3.33,.74-8.5,0-17.02-.26-25.51,.06-14.58,.54-29.16,.03-43.74,.31-13.34,.25-26.68-.14-40.01,.18-17.33,.42-34.66,.13-51.99,.54-5.41,.13-10.82,.07-16.23,.31-.83,.04-1.67-.04-2.5-.03-1.02,.01-1.54-.45-1.57-1.49-.03-1-.12-2-.13-3-.13-18.34-.2-36.68-.39-55.02-.15-14.34-.18-28.68-.15-43.01,.34-1.54,.43-3.07-.06-4.6-.03-2.83-.08-5.66-.1-8.49-.22-30.09-.45-60.18-.66-90.28-.14-20.67-.24-41.35-.36-62.02-.11-18.67-.23-37.34-.36-56.02-.09-12.84-.19-25.67-.31-38.51,0-.91-.21-1.83-.19-2.74,.02-.86-.45-1.85,.51-2.52-.02,.17-.04,.33-.05,.5-.09,2.42-.04,2.44,2.28,1.71,3.64-1.15,7.03-2.97,10.75-3.92,1.12-.29,2.19-.82,3.37-.85,1.06-.03,1.12-.76,1.22-1.52,.75-.26,1.24,.28,1.3,.79,.34,2.52,2.01,2.59,3.94,2.3,.37,.13,.65,.37,.87,.69,.61,2.14,1.3,4.1,3.16,5.72,1.41,1.23,1.19,3.57,1.25,5.45,.31,9.67,3.99,17.91,10.35,25.07,3.46,3.9,8.15,5.6,12.78,7.49,9.61,3.91,19.21,2.87,28.82,.17,10.2-2.87,19.6-7.54,28.29-13.48,12.64-8.64,21.94-20.08,27.03-34.64,1.03-2.94,2.23-5.9,2.36-9.1,0-.24,.25-.42,.47-.55,2.33,.55,3.58,2.64,5.45,3.85,3.25,2.11,5.76,5,7.96,8.17,2.13,3.08,4.46,6.02,6.46,9.21,1.59,2.54,3.53,4.84,6.28,6.31,1.92,1.03,3.62,2.4,5.23,3.84,1.84,1.65,3.98,2.71,6.19,3.7,3.19,1.43,6.37,2.91,9.54,4.37,.44,.2,.92,.38,1.18,1.14-2.29,1.81-4.58,3.73-6.67,5.85-1.34,1.36-2.7,2.72-3.96,4.16-1.01,1.16-.88,1.6,.46,2.24,.45,.22,.96,.31,1.39,.55,2.76,1.51,5.24,1.79,7.26-1.26,.64-.97,1.83-1.41,2.88-1.93,3.29-1.63,6.74-2.89,10.14-4.26,1.08-.44,2.06-.4,3.13,.06,3.68,1.58,7.48,2.85,10.98,4.83,2.02,1.15,4.31,1.25,6.51,1.66,1.67,.31,3.2,.84,4.63,1.76,4.06,2.62,8.17,5.17,12.22,7.82,5.92,3.87,10.33,9.1,13.66,15.32,4.59,8.57,7.42,17.82,10.49,26.98,.26,.79,.43,1.63,.79,2.37,.62,1.3,.9,2.48-.38,3.58-.5,.43-.29,1.08-.23,1.66-1.53,1.07-2.49-.26-3.44-.98-2.45-1.85-4.7-3.98-7.25-5.69-8.45-5.66-17.41-9.72-27.98-8.26-.59,.08-1.16-.02-1.7-.26-.48-.16-.91-.92-1.46-.08-.65,.87-1.66,.65-2.52,.81-5.88,1.07-10.58,4.41-15.2,7.88-1.05,.79-2.21,1.45-3.17,2.36-.73,.64-1.66,1.03-2.28,1.81,.64-.84,1.66-1.2,2.4-1.92,4.26-3,8.23-6.44,13.07-8.55,1.69-.73,3.47-1.09,5.23-1.55,.7-.18,1.32-.04,1.69,.67Z"/><path d="M302.72,435.63c-.34-.97-.2-1.98-.2-2.98-.05-15.51-.08-31.03-.15-46.54-.14-33.18-.28-66.36-.45-99.54-.14-27.69-.32-55.38-.49-83.07-.16-26.19-.33-52.38-.5-78.57-.16-24.27-.33-48.54-.49-72.81-.07-11.09-.13-22.18-.18-33.28,0-1.48,3.48-6.76,3.48-4.03,.01,10.01,.22,20.02-.04,30.03-.77,30.19-.21,60.37-.33,90.56-.15,38.12,.23,76.24-.22,114.36-.47,39.28-.11,78.56-.25,117.83-.08,21.52,0,43.04-.01,64.56,0,1.16,.15,2.34-.18,3.48Z"/><path d="M215.23,14.16c-.73,.57-1.59,.39-2.41,.4-9.5,.07-19-.03-28.49,.24-10.74,.3-21.48,.22-32.22,.51-9.66,.26-19.32,.18-28.97,.47-9.74,.3-19.48,.2-29.21,.51-8.99,.29-17.98,.16-26.97,.48-10.99,.39-21.98,.18-32.96,.54-8.83,.29-17.65,.04-26.47,.37,0-.9,.62-1.11,1.34-1.1,2.42,.05,4.8-.43,7.22-.42,12,.02,24.01,.19,36-.17,13.33-.4,26.66-.07,39.97-.5,13.49-.44,26.99-.07,40.47-.48,15.66-.47,31.32-.14,46.97-.57,11.08-.3,22.15-.26,33.23-.42,.83-.01,1.66,.09,2.49,.14Z"/><path class="cls-46" d="M207.22,630.31c3.39-2.79,6.33-6.04,9.54-9.68,.68,4.83,3.03,8.88,3.79,13.61h-11.84c-1.58-.9-2.61-2.01-1.48-3.93Z"/><path d="M271.2,633.69c.66-.5,1.43-.36,2.16-.36,6.89-.04,13.79-.1,20.68-.06,1.72,0,3.08-.38,4.02-1.9,.3-.49,.75-.89,1.13-1.33,.22-.25,.5-.52,.83-.31,.41,.26,.53,1.22,1.29,.53,.56-.5,.98-1.1,1.02-1.92,.04-.9-.15-1.84,.41-2.66,.25,1.89,.56,3.77,.52,5.7-.02,1.18-.38,1.66-1.68,1.91-3.8,.74-7.63,.39-11.44,.48-5.82,.14-11.65,.08-17.47,.09-.49,0-.99-.11-1.48-.16Z"/><path class="cls-26" d="M207.22,630.32c.49,1.31,.99,2.62,1.48,3.93h-6.35c-.05-.14-.09-.27-.14-.41,1.67-1.17,3.33-2.35,5-3.52Z"/><path class="cls-51" d="M11.46,528.59c.78,1.52,.87,3.05,.06,4.6-.21-1.53-.27-3.06-.06-4.6Z"/><path d="M148.21,253.85c-.31,1.27,.41,1.81,1.47,2.19,.43,.15,1.03,.37,.76,1.05-.34,.86-.91,.4-1.44,.2-.15-.06-.32-.04-.62-.07-.82,2.3-1.18,4.76-2.03,7.09-4.61,12.73-12.41,23.17-22.98,31.49-11.76,9.26-25.02,15.56-39.72,18.51-5.64,1.13-11.5,1.48-17.13,.07-5.07-1.27-10.01-3.15-14.52-5.9-3.03-1.85-5.22-4.62-7.39-7.37-4.43-5.6-6.47-12.15-7.54-19.07-.34-2.21-.34-4.47-.48-6.71-.05-.83,.11-1.74-1.24-1.56-.56,.07-.91-.39-1.13-.85-.74-1.58-1.66-3.12-1.16-4.98,.23-1.04,1.11-1.6,1.74-2.34,.37-.43,.59-.96,.91-1.36-.03,.05,0,0-.03,.04-.32,.45-.53,.9-.85,1.29-.68,.7-1.3,1.49-2.23,1.91-.19,.15-.38,.32-.58,.45-2.26,1.51-3.11,1.18-3.75-1.42-.21-.86-.03-1.83-.7-2.56,0,0-.05-.04-.05-.04-.34-.38-.68-.36-1.03-.02-1.8,.68-1.7,.66-2.05-.88-.39-1.72-.28-3.37,.39-5.12-.51-.04-.83-.11-1.15-.09-2.02,.07-1.99,.06-2.51-1.79-.31-1.1-.41-1.96,1.08-2.16,.94-.13,1.61-.81,2.26-1.46,.17-1.13-.49-.71-1.02-.55-1.3-.61-1.12-1.97-1.35-3.02-.25-1.14,1.59-1.35,1.62-2.81-.8,0-1.6-.01-2.39,0-.75,.02-1.2-.23-1.48-1.01-.65-1.76-.62-1.96,1.29-2.53,1.85-.55,3.49-1.55,5.24-2.33,.15-.07,.28-.18,.42-.27,.69-.41,.51-.96,.22-1.5-.38-.72-.78-.37-1.14,0-.44,.44-.98,.55-1.57,.65-4.26,.74-4.7,.53-6.57-3.34-.62-1.28-1.1-2.59-1.15-3.98,.72-.62,1.53-.02,2.52-.47-.62-1.28-1.2-2.6-1.49-4.01-.4-1.9-.04-2.16,1.89-1.93,.94,.11,1.25,1.06,2.12,1.17,.53-.89-.12-1.77,.09-2.69,.31-1.35-.27-3.06,.35-4.17,2-3.59,2.93-7.69,5.51-11,1.89-2.42,1.83-2.55,0-4.82-2.47-3.06-3.44-6.61-3.5-10.43-.03-1.91-.59-3.79-.15-5.67-.16-.14-.27-.32-.41-.34-3.84-.64-3.11-.44-2.16-3.65,.48-1.62,1.45-3.06,1-4.98-.24-1.01,1.31-1.6,1.82-2.59-.13-.71-.82-.67-1.28-.95-.43-.26-.97-.46-1.23-.84-1.01-1.48-1.57-3.25-3.08-4.41-.39-.3-.17-.95,.21-1.35,.68-.72,1.38-1.42,2.24-2.29,1.5,1.91,3.4,2.97,5.67,3.36,2,.34,2.81-.65,2.13-2.58-.08-.23-.28-.56-.2-.69,1.24-1.85-.41-2.85-1.18-4.1-1.37-.74-2.05-1.9-1.86-3.44,.12-.97-.2-1.59-1.06-1.96-3.1-.8-5.88-2.25-8.43-4.16-.52-.23-1.01-.51-1.5-.81-3.1-1.9-3.2-2.16-2.06-5.67,1.31-4.9,4.57-8.22,8.3-11.52,5.53-4.88,11.66-8.88,17.45-13.37,2.49-1.94,5.18-3.64,7.87-5.3,2.63-1.62,5.05-3.53,7.54-5.34,6.94-5.06,14.49-8.86,22.9-10.7,3.24-.71,6.53-.79,9.91-.37,9.29,1.14,17.61,4.77,25.73,9.13,5.43,2.92,10.93,5.7,16.23,8.85,8.36,4.98,16.05,10.74,22.16,18.42,1.57,1.97,2.76,4.17,3.91,6.37,1.05,2.01,.58,4.24,.51,6.39,0,.3-.18,.7-.41,.89-2.28,1.81-3.66,4.82-7.04,5.19-.97,.11-1.88,.66-2.83,.96-.99,.31-1.95-.15-3.13-.25-.28,1.95-.76,3.86-1.53,5.69-.59,.76,.11,1.76-.49,2.52-.09,.12-.11,.25-.07,.39-.33,.49,.02,1.15-.43,1.6h0c-.19,.75-.93,1.64,.49,2,.1-.1,.13-.23,.1-.36,.16-.37,.12-.81,.39-1.14h0c.51-.38,.03-1.12,.54-1.49,1.41-.88,2.83-.2,3.97,.38,1.12,.57,.85,2.04,.72,3.2-.12,1.11-1.21,2.27,.48,3.22,.65,.37,.18,1.23-.25,1.77-.87,1.1-1.77,2.18-2.64,3.24,.1,.23,.12,.44,.23,.52,2.42,1.91,2.51,1.99,.18,4.33-1.1,1.1-1.23,1.97-.81,3.45,1.85,6.54,1.52,12.86-2.74,18.5-.9,1.19-1.05,2.24-.72,3.65,.79,3.41,1.45,6.86,.64,10.37-.24,1.03,.17,1.73,.76,2.49,1.24,1.57,2.44,3.17,3.34,4.97,.62,1.24,.73,2.34-.37,3.39-.42,.39-1.01,.91-.79,1.48,1.02,2.67-.31,5.58,1.09,8.28,.82,1.57,1.22,3.5,.36,5.32-.39,.82-.04,1.48,.29,2.12,1.41,2.73,2.14,5.77,3.8,8.38Z"/><path d="M142.28,357.01c1.64-1.11,3.61-.94,5.43-1.39,1.7-1.56,3.43-.26,5.15-.07,.15,.05,.32,.09,.47,.14,.16,.05,.11,.05-.17-.04-.91-.27-1.9-.3-2.49-1.18-.81-1-.54-1.48,.71-1.48,5.48,0,10.88,.35,16.01,2.66,2.72,1.22,5.51,2.27,7.83,4.2,.22-.07,.43-.06,.64,.02,.32,.11,.64,.22,.93,.4,1.52,.79,3.03,1.63,4.36,2.71,1.44,1.17,2.54,1.15,3.48-.51-.94-5.42-.99-10.94-1.68-16.36-.85-6.69-1.67-13.38-2.22-20.09-.27-3.34,.25-6.64,.83-9.93,.29-1.66,1.26-2.87,2.25-4.11,.49-.61,1.08-.72,1.78-.47,.63,.23,1.06,.59,.64,1.3-3.6,6.07-2.6,12.72-2.39,19.26,.05,1.74,.28,3.47,.69,5.24,.18-.95,.45-1.9,.52-2.87,.18-2.44,.86-4.76,1.73-7.01,1.75-4.5,3.62-8.96,5.44-13.43,.48-1.17,1.17-2.2,1.93-3.2,.57-.75,1.26-1.03,2.18-.83,1.12,.24,1.37,.69,.85,1.71-.79,1.56-1.64,3.09-2.45,4.64-4.08,7.82-7.07,16.06-8.34,24.77-1.14,7.86-1.07,15.77,1.69,23.42,1.34,1.09,3.17,.71,4.6,1.53,.46,.27,.93,.55,1.39,.82-.01,.8,.6,1.17,1.11,1.62,2.13,.52,4.23,1.09,5.92,2.61,.62,.31,.8-.24,1.1-.56,3.31,1.09,6.01,3.19,8.58,5.41,5.81,5,10.43,10.95,13.61,17.96,.24,.53,.56,1.04,.71,1.59,1.57,5.69,3.68,11.2,5.28,16.89,2.31,8.23,2.64,16.54,2.36,24.98-.16,4.75-.42,9.47-.93,14.19-.08,.77-.47,1.84,.34,2.29,1.05,.59,1.87-.24,2.56-1,4.75-5.23,10.67-9.01,16.32-13.1,2.89-2.09,6.23-3.49,9.18-5.53,3.48-2.41,7.03-4.71,10.55-7.06,.63-1.21,1.76-1.71,2.97-2.1,4.6-3.12,7.27-7.46,8.01-12.95,.45-3.38,.88-6.78,1.09-10.19,.51-8.49-.71-16.76-3.35-24.84-1.32-4.04-2.87-7.99-4.29-11.99-1.47-4.15-3.07-8.26-4.15-12.55-2.03-8.01-4.76-15.81-8.6-23.13-3.45-6.57-7.79-12.59-12.6-18.28-3.98-4.71-8.61-8.57-13.74-11.89-.97-.63-2.01-1.21-3.08-1.64-7.35-2.94-14.68-5.9-21.87-9.21-2.41-1.11-5.1-1.51-7.46-2.81-7.73-4.26-15.65-8.2-22.7-13.61-1.45-1.11-3.04-2.03-4.76-2.73-1.55-.63-2.93-1.53-4.28-2.54-3.46-2.6-7-5.11-10.52-7.64-1.01-.73-2.05-1.43-3.07-2.15-.44-.31-.81-.63-.36-1.2,.48-.6,.87-.18,1.25,.12,8.07,6.37,17.3,11.01,25.61,17.01,9.18,6.62,19.43,10.86,29.94,14.71,3.44,1.26,6.79,2.76,10.16,4.18,1.54,.64,3.02,1.42,4.57,2.02,7.51,2.88,13.84,7.39,19.46,13.17,8.69,8.93,14.28,19.79,19.89,30.67,.49,.95,.78,2.02,1.06,3.06,2.6,9.74,5.96,19.25,8.87,28.89,.62,2.07,1.53,4.05,2.31,6.07,2.69,7.01,3.77,14.24,3.83,21.77,.04,5.21-.39,10.36-1.24,15.41-1.08,6.38-4.07,11.91-9.43,15.95-2.67,2.02-5.5,3.78-8.4,5.4-5.7,3.18-11.03,6.87-16.15,10.89-6.06,4.16-11.14,9.36-15.75,15.03-.62,.76-1.46,1.06-2.22,1.54-1.95,2.99-4.19,5.74-6.56,8.42-2.9,3.29-7.06,4.28-11.13,1.69-4.14-2.63-8.39-5.07-11.36-9.13-1.62-.45-2.89,.07-3.8,1.45-.77,1.16-2,1.89-2.78,3.04-.15,.19-.3,.38-.46,.57-3.28,4.74-8.11,6.62-13.55,7.56-2.96,.51-5.95,.64-8.92,1.11-2.66,.42-5.3-.32-7.78-1.41-6.93-3.05-13.65-6.57-20.91-8.87-2.76-.88-5.57-1.86-8.13-3.19-3.16-1.63-5.91-4.01-8.15-6.81-1.31-1.64-1.39-3.72-.91-5.74,.21-.89,.54-1.75,.82-2.62-.22-.7-.57-1.37-.49-2.15-1.88-.66-3.93-.39-5.82-1.21-4.5-1.95-7.73-4.9-8.26-10-.46-4.45,2.2-9.46,7.55-10.99,1.27-.36,2.61-.48,3.92-.71,1.02-.18,1.25-.72,.65-1.57-3.05-4.34-4.9-9.22-6.57-14.21-.81-2.4-1.13-4.87-1.42-7.33-.8-6.86-1.33-13.74-1.06-20.66,.03-.74-.1-1.49-.21-2.23-.32-2.16,.18-2.98,2.19-3.83,1.47-.63,3.12-.38,4.55-1.08,.09-.86,1.1-1.32,1-2.26-.56-2.17-1.34-4.28-2.34-6.27-1.3-2.58-2.1-5.21-1.85-8.11-.13-.16-.19-.34-.17-.55,.1-.29,.32-.5,.56-.68,.15-.12,.32-.23,.5-.32,.35,.07,.61-.04,.76-.38,.13-.24,.34-.38,.61-.43,.36-.15,.75-.22,1.13-.32,1.05-.12,2.11-.37,3.08,.33,.06,.12,.13,.24,.19,.35,1.53,.64,2.58,1.8,3.27,3.25,1.69,3.51,3.39,7.01,4.31,10.83,.04,.16,.07,.32,.12,.48,1,3.13,1.12,3.2,4.45,2.95,.74-.06,1.48-.07,2.57-.13-1.94-3.57-2.72-7.11-1.18-10.83,1.15-1.72,1.88-.69,2.42,.45,.32,.67,.06,1.47-.04,2.21-.6,4.57,1.99,7.75,6.59,8.07,1.16,.08,2.32,.07,3.48,.05,1.9-.04,3.61,.37,4.99,1.78,1.32,1.35,2.52,1.01,3.53-.37,1.53-2.08,2.68-4.36,3.62-6.76,.67-.63,1.38-.67,2.12-.14,.65,.75,.85,1.75,.59,2.57-.63,2,.15,2.53,2,2.5,1.51-.03,2.97,.46,4.28,1.18,1.05,.58,2.03,.63,3.08,.12,1.34-.86,2.91-1.19,4.16-1.72,.33-.28,.35-.45,.16-.55-4.23-2.19-7.73-5.41-11.53-8.21-1.82-1.34-3.87-2.25-5.93-3.12-1.17-.49-2.08-.5-2.16,1.2-.08,1.88-1.43,2.91-2.88,3.8-1.58,.97-3.12,.86-4.19-.66-2.51-3.59-5.73-4.52-9.75-2.95-2.51,.73-3.02,.46-3.02-1.57l-.08,.05c.15-.25,.36-.42,.63-.53Z"/><path d="M227.2,352.06c-3.22,.18-6.11,1.37-8.82,3-3.75,2.26-7.44,4.63-11.15,6.96-.54,.14-.69-.1-.59-.59,2.61-2.32,5.28-4.55,8.12-6.6,3.89-2.8,8.39-3.9,12.98-4.78,.46-.53,.98-.57,1.54-.16,1.16-.11,2.32-.16,3.47-.33,7.74-1.09,14.53,1.88,21.27,5.01,4.43,2.06,8.01,5.33,11.76,8.35,1.29,1.04,2.55,2.13,4.03,2.9,.32,.52,1.67,.54,.83,1.64-1.09,1.44-1.97,1.7-3.01,.84-1.03-.85-2.06-1.7-3-2.65-4.38-4.38-9.68-7.44-15.27-9.8-7.02-2.96-14.38-4.82-22.16-3.8Z"/><path d="M236.83,359.87c-4.03-1.29-8.17-1.72-12.41-1.55,2.87-.97,5.75-1.43,8.75-1.11,2.56,.28,5.07,.81,7.6,1.24,9.04,2.6,15.94,8.39,22.35,14.94,2.81,2.86,5.16,6.08,7.74,9.14-.22,.85,.29,1.79-.22,2.62-.88-.06-1.16-.75-1.58-1.21-2.33-2.6-4.85-5-7.24-7.54-4.13-4.39-8.99-7.86-13.84-11.33-3.25-2.32-6.79-4.14-10.73-5.07-.2,.17-.34,.14-.42-.12Z"/><path class="cls-58" d="M231.74,461.56c4.65-6.37,10.05-11.96,16.85-16.09,.35-.21,.75-.32,1.13-.48-1.35,1.81-3.14,3.18-4.83,4.62-2.61,2.23-4.81,4.81-7.06,7.37-1.1,1.25-2.27,2.42-3.41,3.63-.73,.78-1.58,1.19-2.68,.95Z"/><path class="cls-70" d="M196.12,467.03c.66-1.33,1.3-2.67,1.99-3.99,.58-1.11,1.72-1.61,2.77-2,1.14-.42,1.47,.66,1.81,1.49-.58,.42-.63,1.13-.86,1.72-.26,.68-.7,1.17-1.42,1.16-1.66-.03-2.92,.94-4.3,1.62Z"/><path class="cls-89" d="M24.54,156.89c1.17-.06,1.75,.48,1.96,1.65,.22,1.27,.64,2.5,.97,3.75-.99,.04-1.98,.1-2.97,.12-1.29,.03-1.53-.26-1.07-1.42,.36-.92,.82-1.81,1.25-2.7,.25-.52,.05-.96-.14-1.41Z"/><path class="cls-12" d="M12.55,146.25c-.24,2.43,.75,4.25,2.76,5.58,.32,.21,.53,.6,.8,.9-1.63,.01-3.02-.75-4.46-1.36-1.03-.43-1.39-1.15-.83-2.17,.54-1,.77-2.2,1.74-2.95Z"/><path class="cls-27" d="M273.73,425.03c-.77,1.01-1.89,1.53-2.97,2.1,.21-1.19,1.02-1.94,1.95-2.6,.34,.17,.68,.34,1.02,.5Z"/><path class="cls-36" d="M139.62,167.79c0,.64-.2,1.19-.93,1-.64-.17-.1-.63-.03-.95,.14-.68-.11-1.46,.47-2.04,.17,.67-.02,1.42,.49,2Z"/><path d="M23.5,251.83c.2-.13,.38-.29,.6-.38,.35-.13,.86-.47,1.07-.1,.27,.49-.19,.83-.65,1.02-.2-.44-.69-.34-1.02-.55Z"/><path class="cls-64" d="M26.5,263.87c.01-.08,0-.17,.04-.23,.2-.37,.26-1.04,.83-.84,.3,.1,.23,.7,.16,1.09-.34,0-.69-.01-1.03-.02Z"/><path class="cls-36" d="M139.64,163.79c-.06-.88-.05-1.75,.49-2.52,.13,.9,.14,1.77-.49,2.52Z"/><path class="cls-36" d="M140.66,164.8c.07,.58-.09,1.08-.54,1.47-.1-.59,.1-1.08,.54-1.47Z"/><path class="cls-36" d="M139.13,165.79c-.06-.59,.04-1.14,.43-1.6,.19,.63,.03,1.16-.43,1.6Z"/><path class="cls-36" d="M140.12,166.28c.04,.44-.02,.84-.39,1.14-.12-.47,.04-.84,.39-1.14Z"/><path d="M62.19,335.49c2.97,2.65,6.43,4.48,9.72,6.58,4.39,2.79,9.22,3.69,14.36,3.21,8.17-.77,14.77-4.53,20.65-10.14,4.34-4.14,8.45-8.52,12.87-12.58,2.46-2.26,4.6-4.82,6.74-7.39,.41-.49,.69-1.19,1.5-1.2,.43,0,.86,.07,1.16,.38,.37,.4,.08,.78-.18,1.09-.41,.52-.84,1.04-1.31,1.51-3.04,2.98-5.78,6.25-8.48,9.52-6.01,7.28-13.12,13.25-21.17,18.12-3.21,1.94-6.77,2.75-10.46,2.98-1.41,.09-2.82,.07-4.23,.3-1.57,.26-3.18,.14-4.7-.35-5.62-1.83-10.78-4.44-14.91-8.81-1.21-1.28-1.42-1.67-1.54-3.23Z"/><path class="cls-89" d="M165.11,365.55c.03,3.68-2.22,6.16-4.6,8.5-.97,.95-2.52,.75-3.27-.47-1.15-1.89-2.86-2.09-4.74-2.1-1.17,0-2.33,.11-3.5,.05-5.26-.27-8.36-4.06-7.62-9.27,.08-.57,.26-1.14,.38-1.71,.1-.47,.37-.99-.24-1.32-.56-.3-.93,.15-1.35,.37,.13-.99,.86-1.54,1.55-2.11-.1,.91,.28,1.41,1.22,1.22,.61-.12,1.18-.42,1.77-.64,1.23,.79,.98,1.98,.85,3.14-.31,2.67,.04,3.01,2.77,3.58,4.13,.86,8.23,.54,12.33-.15,1.62-.27,3.14-.28,4.45,.91Z"/><path class="cls-46" d="M175.62,360.14c-.15-.08-.28-.18-.4-.3,.61-.45,1.26-.31,1.91-.1,2.54,.8,5.09,1.56,7.5,2.72,.13,1.12,.64,2.2,.41,3.64-3.65-1.03-6.27-3.38-8.97-5.59-.07-.21-.23-.33-.44-.36Z"/><path class="cls-46" d="M153.66,356.08c-1.98-.23-3.93-.83-5.96-.46-.25-.03-.5-.04-.74-.09-.39-.07-.91-.02-.94-.58-.03-.62,.44-.83,.96-.93,1.28-.24,2.44,.48,3.69,.45,1.06,.16,2,.61,2.94,1.08,.13,.11,.18,.23,.15,.35-.03,.13-.07,.19-.11,.19Z"/><path class="cls-46" d="M192.69,366.03c-.57,.09-1.14,.18-1.71,.26-1.83,.28-2.03,.16-2.89-1.79,.14-.2,.32-.58,.41-.56,1.56,.36,3.2,.59,4.19,2.09Z"/><path d="M206.63,361.42c.2,.2,.4,.39,.59,.59-1.92,1.16-3.17,3.15-5.08,4.33,.56-1.81,1.94-3.24,4.48-4.92Z"/><path class="cls-46" d="M123.13,352.92c-.34,.01-.67,.02-1.01,.03-.14-.1-.19-.2-.13-.29,.05-.09,.11-.13,.16-.13l.02-.04c.12-.18,.26-.33,.44-.45,.59-.44,1.14-.93,1.93-1.01,1.41-.14,2.09,.5,2.08,2.02,0,0,0-.06,0-.06-1.16-.45-2.32-.32-3.49-.06Z"/><path class="cls-46" d="M120.86,353.49c-.11,.17-.23,.35-.34,.52-.11,.15-.21,.31-.3,.47-.08,.18-.16,.36-.24,.55-.14,.29-.26,.6-.43,.87-.48,.74-1.12,.64-1.64,.14-.54-.51-.26-1.06,.26-1.44,.8-.59,1.71-.94,2.7-1.11Z"/><path class="cls-91" d="M127.65,445.48c.54,.06,1.12-.09,1.61,.33-.08,.79-.66,1.26-1.11,1.81-.96-.2-1.56-.84-2.09-1.56,.42-.76,1.13-.28,1.6-.58Z"/><path class="cls-42" d="M229.27,349.89c-.51,.05-1.03,.11-1.54,.16-.34-.19-.89-.32-.98-.59-.19-.64,.46-.71,.89-.84,1.48-.44,1.81-.17,1.63,1.28Z"/><path class="cls-90" d="M124.17,369.4q.86,1.98-1,2.26c-.52-.21-.77-.53-.38-1.06,.37-.5,.73-1.02,1.38-1.2Z"/><path d="M32.61,267.46c.42-.88,1.07-1.57,1.84-2.15,.33,.04,.53,.23,.59,.55-.42,.91-1.2,1.47-1.97,2.06-.15-.15-.31-.31-.46-.46Z"/><path class="cls-9" d="M195.19,368.47c-.16,.03-.32,.09-.48,.08-.48,0-1.11,.11-1.35-.33-.35-.66,.32-.99,.72-1.37,.61,.37,1,.9,1.11,1.62Z"/><path d="M202.21,370.51c.11,.45,.22,.9,.37,1.52-.78,.04-1.11-.48-1.47-.95,.37-.19,.73-.38,1.1-.56Z"/><path class="cls-86" d="M107.92,359.1c.13,.08,.35,.13,.38,.24,.08,.29-.12,.46-.4,.46-.13,0-.34-.12-.37-.23-.08-.29,.12-.43,.39-.46Z"/><path class="cls-93" d="M236.83,359.87c.16-.01,.3,.02,.42,.12,.01,.22,.03,.45,.04,.67-.14,0-.32,.07-.42,0-.35-.23-.25-.52-.05-.8Z"/><path class="cls-50" d="M119.4,345.39c-.07-.02-.19-.03-.21-.07-.07-.19,.02-.29,.24-.24,.06,.01,.11,.11,.16,.17-.06,.05-.12,.1-.19,.14Z"/><path class="cls-89" d="M142.28,357.01c-.21,.18-.42,.36-.63,.53,.21-.18,.42-.36,.63-.53Z"/><path class="cls-24" d="M122.15,352.53c0,.14-.02,.28-.03,.42-.17,.05-.33,.11-.5,.16,.18-.19,.35-.39,.53-.58Z"/><path class="cls-24" d="M122.61,352.04c-.15,.15-.29,.3-.44,.45,.15-.15,.29-.3,.44-.45Z"/><path class="cls-89" d="M68.55,166.76c.84-.82,1.69-1.63,2.53-2.45,1.31-.41,2.75-.6,3.45-2.05,1.05-.8,2.14-1.55,3.14-2.41,.47-.4,1.06-.97,.37-1.67-.53-.54-1.14-1.01-1.96-.48-.14,.09-.29,.16-.42,.26-.71,.55-1.14,.58-1.76-.31-1.25-1.8-1.51-1.76-3.33-.52-.33,.23-.66,.73-1.05,.54-1.5-.72-2.45,.21-3.16,1.17-.96,1.3-2.31,.35-3.36,.84-1.04,.42-.47-.75-.91-.93-2.25-1.53-2.26-1.54-3.81,.38-.99,1.23-1.94,2.49-2.92,3.74-.63,.79-.97,2.04-2.47,1.36-.43-.19-.59,.43-.84,.74-1.88,2.31-3.97,4.38-6.93,5.22-1.55,.44-2.53,1.19-2.54,2.9,0,.52-.2,.93-.6,1.31-.61,.58-1.07,1.27-1.1,2.16,.68,.66,1.42,.18,2.13,.16,.5-.1,.68,.14,.62,.61-1.05,1.32-2.6,1.98-3.98,3.36-.35-2.86-.65-5.32-.97-7.78-.08-.61,.19-1.14,.34-1.7,.15-.56,.56-1.19,.42-1.67-.7-2.52,1.08-3.59,2.65-4.78,2.65-2.02,5.32-4.02,7.99-6.02,1.4-1.06,2.91-1.95,4.51-2.68,7.37-3.4,14.99-6.06,23-7.36,7.44-1.21,15-1.34,22.4,.13,10.6,2.11,19.97,6.86,27.7,14.56,.29,.29,.61,.61,.73,.98,1.75,5.39,2.35,10.87,1.2,16.47-.24,1.18-.69,2.38,.11,3.83,1.48-2.11,1.71-4.46,2.5-6.6,.68-.14,.83,.72,1.4,.77,1.09,.95,1.34,2.25,1.51,3.59-1.2,1.15-2.09,2.52-2.66,4.07-.49,1.34-.73,2.58,.44,3.87,1.17,1.29-.24,2.35-.75,3.45-1.4,2.85-7.01,4.99-10.19,3.9-1.49-.51-2.04-1.88-1.44-3.68,.54-1.65,1.66-3.05,2.15-5.02-2.55-.13-4.99-.12-7.43-.15-3.1-1.12-6.24-.47-9.3,.09-1.55,.28-3.14,.18-4.67,.63-1.17,.35-2.06-.3-2.84-1.15-.73-.8-1.52-1.53-2.09-2.11,.26,1.36,3.47,1.48,2.01,4.03-2.54,1.02-5.08-.24-7.62,0-.56,.05-1.15-.17-1.73-.07-.94-1.18-.93-2.57-.93-3.97,.6-.78,.51-1.75,.7-2.63,.22-.99,.74-1.77,1.62-2.08,2.12-.75,4.11-1.61,5.92-3.04,.87-.69,2.27-1.05,3.58-.65,.81,.36,.97,1.33,1.69,1.78,.29,.36,.51,.78,.85,1.1,.66,.6,1.52,.87,2.32,.69,2.92-.66,5.5,.41,8.11,1.41,2.2,1.03,4.73,.5,6.34,1.24-1.51-.63-3.87-.29-6-1.11-.65-.32-1.39-.37-2.04-.62-1.16-.44-1.58-1.28-.96-2.47,.22-.5,.35-1.04,.7-1.48,.56-.61,1.42-.87,1.9-1.57,.47-.38,.74-.9,.94-1.47,1.39-1.84,2.29-4.06,4.27-5.44,1.93-.39,2.53,1.58,3.89,2.29,.38-3.28-1.92-6.68-4.6-7.97-2.42-1.16-4.33-3.37-7.26-3.51-1.76-2.95-4.82-1.47-7.26-2.01-1.29-.28-2.58-.28-3.71-1.12-1.42-1.06-1.84-.35-1.88,1.12-.09,2.73,.33,5.49-.44,8.18-2.62,2.9-3.26,6.8-5.1,10.1-.38,.64-1.06,.5-1.64,.65-5.04,3.35-5.83,8.55-3.38,14.08,1.21,2.74,3.16,5.05,4.11,7.95,.88,2.68,.86,3.24-1.67,4.44-1.12,.53-2.11,1.15-2.79,2.35-1,1.75-2.83,2.53-4.71,3.03-2.89,.77-7.78-.37-9.47-4.18,1.76-1.19,3.86-.63,5.78-1.11,3.54-.88,4.17-1.86,2.7-5.18-.35-.79-.63-1.53-.24-2.37,2.41-1.25,3.11-.95,6.43,2.95-1.54-2.48-3.24-3.93-5.87-4.02-.48-.02-.96-.23-1.32-.62-.9-1.76-2.15-3.31-3.25-4.93-1.49-2.18-1.5-4.26-.45-6.51,.42-.9,.68-1.86,1.06-2.76,.19-.5,.41-1,.8-1.34-.02,.03,.12-.16,.11-.14s.09-.15,.09-.15c0,0-.1,.17-.11,.18-.12,.13-.24,.26-.36,.39-1.53,1.63-3.19,3.04-5.54,3.26-.37-.03-.73-.08-1.06-.24-.71-.72-1.34-.7-2.13,0-1.21,1.07-2.69,1.61-4.33,1.63-2.18,.03-4.29,.34-6.17,1.62-.55,.37-1.27,.37-1.94,.17-1.18-.91-2.42,.1-3.63-.1-1.09-.19-2.49,.32-3.07-1.09-.6-1.43-.02-2.59,1.13-3.5,.21-.14,.45-.22,.7-.27,.64-.05,1.28,.19,1.93-.2,2.07-1.27,4.36-1.95,6.72-2.44,.82-.17,1.62-.44,1.57-1.56-.04-1.23-.84-1.19-1.73-1.16-.9,.04-1.64-.28-1.92-1.23-.25-.86-.07-1.69,.56-2.3,.83-.8,1.71-1.63,2.92-1.77,.8-.09,1.38-.48,1.94-.96,.66-.41,1.41-.42,2.13-.41,1.75,.03,2.67-.84,2.99-2.48Z"/><path class="cls-46" d="M138.21,145.71c-5.15-5.69-11.44-9.86-18.15-13.45-1.38-.74-2.59-1.85-4.22-2.1-.33-.05-.77-.05-.8,.35-.01,.22,.38,.47,.59,.7,.19,.35,.71,.21,.87,.6l.07,.07c.21,.07,.36,.21,.44,.42l.07,.05c.2,.11,.38,.25,.54,.41h0c.25,.56-.12,.79-.52,1.01-.21,.08-.43,.12-.66,.14-.23,.02-.46,0-.68-.05-.23-.03-.45-.09-.67-.16-.33-.1-.64-.26-.96-.4-3.53-1.57-7.39-2.35-10.71-4.41-.89-.55-1.77-.15-2.65-.12-1.43,.06-2.77-.27-4.08-.8-.24-.12-.44-.28-.62-.47-.34-.43-.57-.9-.6-1.45,0-.25-.05-.56,.1-.72,2.62-2.9,1.97-6.46,2.03-9.88,.02-1.23-.25-2.29-1.39-2.96-.5-.36-1-.71-1.44-1.14-2.03-4.27-6.13-4.27-9.45-4.7,1.78,.69,4.43-.08,6.56,1.75,1.16,1,2.45,1.76,2.69,3.37,.14,.98,.85,1.12,1.53,1.4,.23,.14,.4,.32,.53,.55,.32,1.56,.85,3.08,.96,4.68,.15,2.28-.19,4.36-1.89,6.11-.9,.92-.08,2.9-1.89,3.39-1.78,.18-3.6,1.06-5.26-.35-.79-1.31-.16-2.32,.92-2.92,3.13-1.74,2.66-4.38,.89-6.99-.52-.77-1-1.52-1.25-2.41-.13-.47-.16-1.03-.71-1.23-2.48-.86-4.79-2.25-7.57-2.17-.96,.03-1.41,.29-1.96,1.06-1.19,1.65-2.96,2.81-3.39,5.06-.52,2.75,.77,6.46,3.06,7.95,.53,.34,1.09,.35,1.67,.23,1.11-.23,1.94,.2,2.57,1.11,.2,.36,.28,.74,.26,1.14-.03,.28-.12,.53-.27,.77-1.85,1.91-4.5,1.51-6.73,2.33-.88,.19-1.63-.06-2.27-.69-.16-.2-.29-.42-.37-.67-.11-.99-.58-1.58-1.59-1.95-1.35-.49-1.72-1.66-2.1-3.07-.85-3.19-.33-6.17,.49-9.21,.4-1.46,.87-2.75,2.25-3.71,1.62-1.12,3.19-2.4,4.29-4.12-1.6,1.69-3.06,3.54-5.14,4.69-.37,.2-.7,.61-.76,.96-.52,3.14-2.83,6.01-1.54,9.43,.38,1.02,.46,1.94-.49,2.7-.76,.49-1.58,.57-2.39,.24-4.89-2.04-9.52-.85-14.22,.88-6.41,2.37-11.95,6.21-17.38,10.15-3.12,2.27-5.59,5.45-7.59,8.83-1.21,2.04-2.85,2.64-5.05,2.15-1.22-.27-2.43-.57-3.64-.84-1.08-.24-2.11-.61-2.11-2.02,.45-2.7,2.05-4.67,3.98-6.47,6.09-5.72,12.8-10.66,19.63-15.43,4.71-3.29,9.65-6.24,14.18-9.79,6.82-5.34,14.56-8.68,22.93-10.57,3.07-.69,6.22-.74,9.43-.43,8.24,.8,15.6,4.03,22.81,7.73,6.15,3.16,12.28,6.35,18.25,9.85,8.12,4.75,15.58,10.29,21.57,17.61,1.48,1.8,2.72,3.78,3.59,5.97,.26,1.43-.3,2.51-1.56,1.24-2-2.02-3.7-.94-5.58-.17-2.4,.97-4.92,1.03-7.45,.9Z"/><path class="cls-89" d="M141.58,268.86c.04,.71-.39,1.27-.68,1.85-4,8.09-9.02,15.35-16.67,20.48-.83,.55-1.58,1.22-2.34,1.87-8.54,7.27-17.96,12.95-28.76,16.2-1.27,.38-2.5,.94-3.77,1.35-10.36,3.35-20.55,2.56-30.53-1.46-4.51-1.81-7.96-5.12-10.98-8.85-3.46-4.27-5.99-9.01-7.06-14.46-.08-.4-.12-.81-.19-1.32,1.01-.49,2.01-.13,2.93-.07,1.27,.08,2.44,.56,3.79-.05,1-.45,1.85,.44,2.55,1.19,1.94,2.08,4.26,3.73,6.45,5.53,3.84,3.17,8.51,3.98,13.21,4.84,12.56,2.28,24.52-.14,36.31-4.32,3.7-1.31,7.2-3.05,10.69-4.81,3.59,.25,6.82-.5,9.7-2.87,4.66-3.84,8.74-8.19,12.24-13.11,.71-.99,1.36-2.44,3.1-2.01Z"/><path class="cls-46" d="M51.36,181.67c-.19,.36-.42,.7-.57,1.08-.28,.73-1.09,1.51-.43,2.24,.58,.65,1.55,.23,2.34,.13,.97-.13,1.94-.28,2.91-.41,.86-.11,.89,.48,.91,1.08,.06,1.95-1.37,2.37-2.68,2.76,1.3,.06,2.26-1.22,3.62-1.42,3.96,.24,7.55-1.33,11.25-2.32,1.37-.37,1.59-2.51,3.35-2.49,1.95-.99,3.66-2.35,5.47-3.55,.2-.13,.38-.27,.53-.46h0c.18-.25,.34-.23,.47,.03,0,.32,0,.64,0,.95-.41,.44,0,1.11-.45,1.53-.55,1.57-1.11,3.14-1.65,4.71-.4,1.15-.43,2.12,.47,3.22,.99,1.2,1.51,2.76,2.65,3.91,.58,.58,.47,1.39,.51,2.13,.03,.72,1.06,1.13,.6,1.99,.5,1.48,1.74,2.61,1.96,4.25,.24,1.88,.05,2.79-1.6,3.44-2.85,1.11-5.81,1.9-8.92,.93-.39-.92-.28-2.5-1.42-2.52-1.1-.02-1.21,1.49-1.58,2.44-.06,.15-.08,.31-.11,.47-.61,.62-1.23,.53-1.84,0-.72-1.16-.64-2.33-.16-3.56,1.08-2.77,2.47-5.34,4.94-7.56-1.5-.33-2.48,.02-3.18,.84-1.94,2.28-3.79,4.64-4.22,7.73-.14,1.03-.69,1.63-1.4,2.21-.71,.25-1.37,.67-2.13,.69-2.37,.06-4.24,1.2-5.97,2.66h0c-.22,.35-.65,.25-.95,.44-2.19,.8-4.43,1.4-6.71,1.9-.85,.19-1.57,.26-2.35-.29-.83-.58-1.04-1.1-.48-2.03,.65-1.06,1.17-2.2,1.67-3.34,.86-1.95,.72-2.21-1.05-3.46-.71-.5-1.45-.71-2.5-.68,.91-1.99-.41-2.88-1.77-3.53-1.28-.6-1.89-1.41-1.88-2.81,.01-1.69-.89-2.78-2.63-3.37-.64,.58-.62,1.42-.74,2.2-.13,.86-.72,.74-1.32,.6-.71-.18-.97-.63-.71-1.3,.15-.38,.4-.73,.65-1.06,1-1.29,1.24-2.68,.65-4.21-.14-.4-.64-.24-.84-.55h-.03c1.12-1.69,2.67-.41,4.01-.6,.31-.02,.62-.04,.92-.06,.74-1.98,2.28-3.18,4.1-4.04,2.09-.98,4.17-2,6.39-2.66,1.73-.51,2.37,.13,1.91,1.71Z"/><path class="cls-89" d="M16.44,145.27c2.32,1.24,4.93,1.39,7.43,1.96,.94,.21,1.57-.24,2-1.09,1.83-3.62,4.73-6.38,7.44-9.3,.34-.36,.72-.69,1.13-.98,6.79-4.68,13.7-9.13,21.74-11.46,1.63-.47,3.24-.74,4.92-.45,.25,.04,.51,.18,.73,.14,2.06-.4,3.88,.08,5.54,1.32,.36,.27,.8,.05,1.2-.06,.98,2.04,3.35,2.56,4.66,4.24,.22,.22-1.49,.79,.14,.75,.24,.42,.29,1.12,.73,1.24,2.6,.67,4.26,3.33,7.18,3.35,.84,0,1.89,.03,2.08,1.27-.02,.84-.84,.72-1.28,1.07-4.91,.24-9.72,1.22-14.56,1.96-2.66-.66-5.03,.32-7.38,1.32-4.66,2-8.6,5.18-12.79,7.95-.95,.77-2.2,1.16-2.83,2.32-3.45,2.91-7.27,5.38-10.45,8.63-.8,.82-1.66,1.57-2.5,2.36-.91-.16-1.32,.78-2.09,.95-1.08-3.51-1.04-6.79,1.59-9.75,3.56-4,7.39-7.65,11.98-10.45,1.63-1,3.2-2.11,4.81-3.13,.73-.47,.71-1.04,.38-1.71-.37-.75-.95-.56-1.48-.29-3.2,1.6-6.45,3.09-9.18,5.5-3.88,3.43-7.5,7.09-10.35,11.44-.62,.95-1.25,1.31-2.2,.47,.08-.26,.06-.28-.08-.04-3.27-1.2-5.71-3.58-8.2-5.86-1.21-1.11-.8-2.38-.32-3.65Z"/><path class="cls-89" d="M118.51,282.9c-4.26,3.17-9.17,5-14.05,6.93-7.52,2.98-15.45,4.02-23.37,5.02-6.29,.79-12.47-.03-18.49-1.93-4.06-1.28-7.29-3.95-10.41-6.74-.43-.38-.75-.9-1.04-1.39-.97-1.61-.88-2.02,.66-3.02,.7-.45,1.4-.89,2.12-1.32,.13-.08,.31-.06,.59-.11,.7,1.02,.74,2.31,1.19,3.45,.49,1.23,1.11,1.43,2.03,.49,1.27-1.29,2.4-2.72,3.66-4.18,.86,.85,.8,1.94,1.21,2.81,.44,.94,1.01,1.01,1.74,.36,.25-.22,.47-.47,.68-.73,.57-.73,.99-1.12,1.98-.3,1.21,1,2.22,.8,3.54-.44,.94-.89,1.79-1.5,3.24-1.4,1.23,.09,2.38-.1,3.49,.75,.77,.58,1.81,.81,2.75,1.16,2.31,.87,4.18,.35,5.76-1.62,1.25-1.56,2.62-1.7,4.37-.73,3.03,1.68,5.9,1.46,8.44-.99,1.33-1.28,2.94-2.14,4.2-3.47q1.98,2.94,4.45,.2c.21-.24,.48-.42,.83-.72,.76,.59,1.18,1.47,1.99,1.91,.68,.36,1.78,.87,2.09,.45,1.6-2.18,4.65,.87,6.04-1.81,.61-1.18,2.29-1.9,1.45-3.65-.17-1.38,1.17-.35,1.49-.93,2.41-2.31,4.81-4.64,7.59-6.52,.4-.27,.77-.66,1.02-1.07,.62-1.04,1.45-.87,2.34-.51,.81,1.29-.04,2.22-.75,3.1-4.27,5.27-7.56,11.29-12.5,16.04-.24,.23-.28,.59-.33,.92Z"/><path class="cls-46" d="M89.03,190.3c.31-1.2,1.32-1.02,2.18-1.07,2.46-.16,4.86,.43,7.29,.61,1.2-.2,2.43,.12,3.62-.25,3.47,.68,7.02,.49,10.5,1.03,1.38,.21,2.77,.12,2.37-1.96,.02-.11,.05-.23,.07-.34,.14-.08,.28-.22,.43-.23,3.03-.38,6.11,.09,9.09-.97,.08,.17,.16,.35,.23,.52-.59,1.24-1.18,2.48-1.78,3.72-.39,.82-.82,1.63-1.18,2.47-.35,.82-1.09,1.72-.55,2.56,.66,1.01,1.82,.38,2.76,.32,.82-.05,1.63-.27,2.46-.37,1.92-.22,3.81-.48,4.96-2.34,.09-.14,.45-.1,.68-.15-.05,.95,.34,1.72,.91,2.45,3.26-2.68,3.87-5.1,1.93-7.38-.26-1.54,1.34-2.29,1.54-3.64,.77-.73,1.85-.99,2.61-2.06,.83,2.33,1.22,4.28,.56,6.52-.6,2.05-.68,4.26-.94,6.4-.1,.83-.26,1.63-.52,2.43-.76,2.36-1.69,3.05-4.14,2.83-1.23-.11-2.45-.39-3.68-.57-1.06-.16-2.03-.14-2.24,1.25-.15,.97-.62,1.5-1.69,1.26-.69-.15-1.32-.06-1.72,.65-.23,.4-.61,.55-1.06,.49-1.14-.15-2.24-.48-3.23,.6-.45,.5-1.27-.04-1.91-.14-1.21-.2-2.05,.12-2.69,1.25-.54,.98-.96,2.09-1.98,2.86-.55-2.35-.78-2.83-2.8-2.63-1.53,.15-3.24-.64-4.69,.62-.23,.2-.92-.14-1.4-.23-.6-.42-1.39,.05-1.98-.4h0c-3.54-.59-5.79-2.92-7.65-5.75-.82-1.25-1.51-2.58-2.36-3.81-1.41-2.13-3.22-4.02-4.03-6.51Z"/><path class="cls-89" d="M82.09,137.25c.34-.34,.67-.68,1.01-1.03,.48-.89,1.42-.77,2.19-.92,4.07-.76,7-3.1,9.23-6.45,.51-.76,.94-1.59,2.04-1.56,.91,.08,1.81,.16,2.72,.25,.49,.05,1.15,.35,1.45,.13,1.9-1.33,3.15,.21,4.61,.9,3.14,1.49,6.45,2.57,9.73,3.73,.19,.13,.38,.25,.57,.36,.14,.06,.28,.11,.42,.14,.22,.11,.39,.28,.58,.43h.01c1.28,.38,2.54,.82,3.61,1.67,1.15,.61,1.98,1.77,3.38,1.94,4.14,3.45,8.54,6.61,11.93,10.87,1.6,2.01,3.01,4.16,4.08,6.51-1.11,1.34-1.05,3.13-1.76,4.63-.56,.85-1.12,1.69-2.35,1.47-14.58-15.18-32.12-23.51-53.43-23.08Z"/><path class="cls-46" d="M106.5,229.89c.14,.86,.58,1.77-.73,2.23-.47,.17-.46,.87-.45,1.34,.02,1.91-.8,3.73-.66,5.65,.09,1.31-.59,1.98-1.87,2.17-.9,.13-1.78,.39-2.68,.58-.41,.09-.95,.08-1.11,.47-.84,2.02-2.74,1.89-4.39,2.27-.89,.2-1.8,.34-2.69,.55-.6,.14-1.19,.19-1.59-.36-.94-1.31-2.3-1.02-3.58-.95-1.14,.07-2.24,.51-3.29-.47-.48-.45-1.28-.03-1.93,.06-1.61,.22-3.12,.62-4.86,.17-1.22-.31-2.76-.38-4.15,.12-.75,.27-1.76,.5-2.23-.45-.59-1.18-1.53-.77-2.05-.33-1.46,1.23-3.05,1.3-4.84,1.3-1.54,0-3.09,.6-4.64,.9-.65,.13-1.31,.23-1.97,.23-.67,0-1.12-.31-.95-1.1,.41-1.98,.09-3.98,.11-5.96,.01-1.03-.09-1.81-1.32-1.95-1.09-.13-.73-.86-.56-1.49,.87-1.1,2-1.61,3.41-1.6,2.02,.01,3.97-.96,6.03-.45,2.79,.86,4.9,2.79,7.02,4.63,.91,.79,1.76,1.08,2.87,1.11,4.64,.1,9.26,1,13.93,.36,1.25-.17,2.43-.53,3.63-.83,.85-.21,1.49-.69,1.89-1.49,1.26-2.5,3.27-4.39,5.22-6.31,1.95-1.05,4.14-1.01,6.25-1.36,.87-.14,1.59,.31,2.17,.96Z"/><path class="cls-46" d="M91.04,176.85c-.7-.99,.17-1.71,.49-2.48,.74-1.81,2.08-3.38,2.14-5.48,.05-1.51,1.64-1.43,2.46-2.15,.63-.58,1.15-1.33,2.15-1.29,1.83,.13,3.65,.17,5.46-.23,2.33,.08,4.55,.62,6.71,1.51,1.6,.66,3.26,1.11,5.05,1.09,1.49-.02,2.83,.45,2.74,2.4-.88,2.21-2.02,4.24-4.05,5.62-1.08,.68-1.63-.21-2.33-.76-2.74-2.18-6.02-3.02-9.37-3.61-.37-.06-1.32-.39-1.05,.73,.25,.52,.67,.94,.79,1.51,.23,1.25-.33,2.43-.27,3.69,.05,1.15-.71,1.63-1.85,1-.83,.36-1.64,.75-2.56,.81-.7,.05-1.29,.33-1.6,.99-.53,1.09-1.48,1.5-2.58,1.65-2.21,.3-3.84,1.28-4.48,3.57-.1,.35-.52,.61-.79,.92-.88-3.2,.6-5.66,2.52-7.98,.09-.52,.78-.86,.42-1.5Z"/><path class="cls-46" d="M118.51,282.9c-.48-.14-.76-.44-.45-.9,.65-.97,1.35-1.9,2.04-2.84,3.99-5.44,7.99-10.88,11.98-16.32,0,0,0,0,0,0,.19-.12,.37-.27,.53-.43,1.32-1.5,2.77-2.91,3.5-4.81,1.06-2.77,1.7-5.56,.48-8.49-.22-.54-.73-1.18,.32-1.86,1.01-.66,1.46-.61,2.2,.22,.64,.73,.95,1.53,1.1,2.45,.89,5.61-.29,10.75-3.7,15.29-2.24,2.99-4.64,5.87-7.04,8.74-2.91,3.49-6.71,5.92-10.38,8.5-.15,.14-.32,.27-.49,.38l-.1,.06Z"/><path class="cls-46" d="M141.58,268.86c-1.06,.85-1.69,2.05-2.46,3.12-3.63,5.05-8.07,9.29-12.72,13.37-2.61,2.3-5.79,2.33-8.86,2.88-.95,.17-.92-.73-1-1.39,1.62-1.15,3.23-2.32,4.87-3.44,7.35-5.03,13.25-11.48,18.36-18.72,1.36-1.93,2.03-4.15,2.91-6.3,.58-.56-.14-1.44,.48-1.99h0c2.23,.62,1.03,2.23,.99,3.5-.21,3.17-1.26,6.1-2.57,8.96Z"/><path class="cls-89" d="M104.03,225.88c-1.76-.49-3.59-.82-5.27-1.5-4.84-1.96-9.47-1.19-14,.88-4.74,2.16-9.74,2.69-14.86,2.65-.86,0-1.65-.23-2.35-.71-1.07-.74-2.22-1.09-3.74-.62,.34-1.37,1.38-1.8,1.93-2.7q1.51,1.96,3.03,.33c.28-.3,.55-.61,.79-.86,1.02-.14,.75,1.81,1.88,1.09,.67-.43,1.11-1.21,1.57-1.73,.85,.2,.87,.77,1.08,1.19,.4,.82,.95,.89,1.55,.26,.68-.71,1.16-.84,1.64,.21,.33,.72,.92,.6,1.42,.12,.36-.34,.69-.73,1.03-1.08,.29-.3,.69-.67,1.04-.27,1.31,1.49,2,.25,2.73-.59,.64-.74,1.18-1.51,2.12-.35,.14,.17,.52,.36,.65,.29,1.76-.97,4.27,.08,5.57-2.01,1.17-1.88,2.7-1.65,4.55-1.25,2.25,.48,4.26,2.02,6.71,1.54,.9,1.37,2.5,1.46,3.78,2.15,.85,.46,.66,1.6-.33,2.05-.41,.18-.74,.3-.85,.75q-.27,.86-1.66,.15Z"/><path class="cls-89" d="M138.21,145.71c.4-.09,.82-.08,1.14-.4,1-1.02,1.92-2.18,3.49-.72,.46,.42,1.08-.09,1.6-.34,1.18-.59,2.42-1.08,3.54-1.77,1.17-.72,1.98-.49,2.73,.56,.34,.47,.71,.92,1.13,1.31,.97,.88,.69-.32,.96-.6,.39,1.52,.2,3.04-.04,4.55-2.86,1.25-5.4,3.14-8.39,4.15-.78,.26-1.51,.67-2.33,.84-1.01-2.66-2.41-5.13-3.84-7.58Z"/><path class="cls-89" d="M51.36,181.67c.21-1.05-.32-1.13-1.1-.81-2.51,1.01-5.08,1.9-7.45,3.23-1.35,.76-2.79,1.38-3.85,2.57,.24-1.3,.15-2.81,.82-3.82,.6-.89,2.16-.99,3.15-1.74,.51-.39,1.19-.56,1.8-.82,1.98-.82,2.13-1.11,1.76-3.31-.04-.23,.07-.48,.12-.72,1.54-1.73,3.16-3.26,5.77-2.28,.7,.99,.74,2.35,2.34,2.87,1.35,.44,1.4,2.36,.16,3.27-.97,.71-1.91,1.59-3.2,1.78-.11-.07-.21-.14-.32-.21Z"/><path class="cls-46" d="M30.56,193.3c0,.33-.07,.68,0,1,.73,3.31,2.25,3.94,5.04,2.13,.64,2.59-.84,5.76-3.12,6.73-.58,.24-.92-.04-1.3-.41-2.75-2.74-4.48-5.95-4.58-9.92,1.45-.93,2.88-1.73,3.96,.47Z"/><path class="cls-46" d="M52.58,174.32c-2.14,.17-3.92,1.46-5.96,1.92,.01-.32,.02-.64,.03-.96,.1-.17,.21-.32,.36-.46,.61-1.63,1.88-2.28,3.52-2.62,1.7-.35,3.33-.99,4.99-1.53,2.9-.95,5.69-2.22,8.81-2.52,1.44-.14,2.82-.92,4.22-1.4,.44,.88,1.93,1.35,1.64,2.31-.35,1.17-1.84,.77-2.84,.96-1.2,.23-2.46,.19-3.7,.27-2.65,.5-4.95,1.75-7.15,3.27-.74,.51-1.59,.9-2.52,1.06-.37,.03-.72-.1-1.07-.2-.12-.03-.23-.07-.35-.1Z"/><path class="cls-89" d="M63.52,232.82c-3.19,.49-6.21,1.76-9.45,2.05-.03-3.54,1.46-6.79,2.04-10.21,.12-.73,.8-1.08,1.47-1.17,.65-.09,.75,.55,.88,1,.23,.73,.59,1.04,1.44,1.01,.67-.03,1.58,1.53,1.45,2.2-.1,.5-.54,.57-.91,.73-.83,.37-1.69,.69-2.48,1.13-.62,.34-1.59,.64-1.3,1.56,.31,.95,1.17,1.34,2.22,1.15,1.43-.26,2.8,.23,4.2,.34,.15,.01,.3,.13,.45,.21Z"/><path class="cls-46" d="M46.97,148.25c2.4-1.89,4.71-3.91,7.21-5.65,3.12-2.17,6.39-4.08,10.33-4.51,1.31-.14,2.26,.05,3.01,1.11-2.52,1.06-5.17,1.74-7.67,2.91-4.23,1.97-8.22,4.37-12.23,6.72-.56,.18-.7-.1-.66-.59Z"/><path class="cls-89" d="M38.04,186.71c-1.31,.37-2.78-.31-4.01,.59-1.64-.18-3.28-.39-4.93-.52-1.03-.08-1.17-.72-1.15-1.54,.02-1.36,.72-2.48,1.69-3.2,1.03-.77,1.95-1.69,3.03-2.55,.7,1.25,.73,2.5,1.04,3.67,.5,1.93,1.36,3.39,3.68,3.25,.21-.01,.44,.2,.66,.3Z"/><path class="cls-46" d="M51.56,149.9c5.24-3.13,10.46-6.3,16.48-7.77,.8-.2,1.58-.47,2.42-.42,.77-.1,1.68-.77,2.1,.52-7.01,1.44-13.23,4.75-19.43,8.12-.33,.21-.8,.11-1.06,.48h.02c-.54,.27-.99,.36-1-.49l.04-.03c.09-.19,.24-.33,.43-.41Z"/><path class="cls-34" d="M51.09,150.34c.33,.16,.67,.32,1,.48-1.85,1.78-4.14,2.95-6.24,4.35-3.57,2.38-6.83,5.17-10.28,7.69-.78-.53-.09-1.11-.07-1.67,4.9-4.04,9.95-7.87,15.6-10.85Z"/><path class="cls-85" d="M93.06,196.81c1.09,.56,1.7,1.58,2.37,2.52,2.06,2.89,4.62,5.22,7.64,7.04-1.41,.62-2.77-.16-4.15-.19-.19,0-.48-.25-.55-.44-.52-1.46-1.71-2.18-2.99-2.82-.21-.1-.52-.32-.52-.48,.06-2.1-1.76-3.58-1.8-5.63Z"/><path class="cls-7" d="M142.05,153.29c.2-.58,.58-.98,1.13-1.26,2.75-1.39,5.49-2.78,8.22-4.19,.64-.33,1.1-.27,1.36,.46-1.16,1.15-2.3,2.33-3.49,3.45-.28,.26-.72,.46-1.11,.49-1.52,.12-2.88,.66-4.23,1.34-.61,.31-1.41,.73-1.89-.29Z"/><path class="cls-89" d="M30.56,193.3c-1.26-.65-2.72,.32-3.96-.47-.12-1.06-.27-2.11-.35-3.18-.05-.69,.13-1.32,.81-1.66,.64-.32,1.1,0,1.49,.49,.92,1.15,2.47,1.22,3.63,1.96-.33,1.18-.99,2.01-1.63,2.86Z"/><path class="cls-89" d="M55.01,208.79c.18-.54,.32-1.09,.55-1.61,.89-1.95,.91-1.94,3.15-1.86,1.47,.05,2.93,.08,4.4,.11-.79,1.18-2.13,1.74-3.12,2.68-1.51,1.45-3.13,1.92-4.99,.67Z"/><path class="cls-89" d="M104.03,225.88c.56-.01,1.14,.3,1.66-.15,.33,.27,.47,.63,.49,1.04v.02c.53,1-.11,2.11,.33,3.11-2.8,.21-5.59,.68-8.42,.4,1.15-2.04,3.27-2.02,5.18-2.44,.59-.13,1.47,.33,1.68-.57,.14-.62-.64-.9-.92-1.4Z"/><path d="M92.51,140.31c1.69-.1,3.23,.5,5.29,.84-.82,.25-.32,.08-.47,.38-.03,.07-.13,.16-.19,.15-5.55-.76-11.14-.11-16.7-.5-.03-.34,.12-.55,.45-.63,3.05-.19,6.1-.54,9.16-.03,.82-.08,1.67,.19,2.46-.21Z"/><path class="cls-46" d="M135.16,182.43c-1.41-.21-1.92-1.01-1.62-2.39,.09-.39,.07-.8,.11-1.2,2.04-.04,3.01,1.66,4.86,2.79-1.4,.33-2.37,.57-3.35,.8Z"/><path class="cls-30" d="M80.63,140.8c-.07,.12-.14,.25-.19,.38-2.69-.12-5.21,1-7.88,1.06-.6-.56-1.4-.34-2.1-.52,2.98-.91,6.05-1.22,9.13-1.41,.27,.32,.81,.07,1.04,.49Z"/><path class="cls-41" d="M80.63,140.8c-.35-.16-.69-.33-1.04-.49,3.66-.36,7.32-.8,10.98,0,.35,.15,.35,.3,0,.44-3.31,.02-6.63,.04-9.94,.06Z"/><path class="cls-18" d="M140.4,241.25c-1.63-1.89-3.62-2.9-3.78-5.86,1.87,1.76,4.01,2.6,3.78,5.86Z"/><path class="cls-59" d="M144.15,259.9c-.33-1.17,.48-2.66-.99-3.51-.03-1.74,.17-3.44,.78-5.11,1.03,2.85,1.06,5.72,.21,8.62Z"/><path class="cls-46" d="M35.49,161.19c.47,.54,0,1.12,.07,1.67-.95,1.23-2.21,2.09-3.44,2.99-.54,.11-.75-.1-.63-.63,1.02-1.65,2.36-2.99,4.01-4.03Z"/><path class="cls-54" d="M137.59,158.75c.19-1.04,.39-2.08,.58-3.12,.15-.83,.63-1.3,1.47-1.4,.28,1.93-.58,3.5-1.58,5.02-.38,.04-.63-.04-.46-.5Z"/><path class="cls-31" d="M22.43,234.44c-1.22-.46-1.74-1.35-2.33-2.33,.76-.38,1.45-.73,2.3-1.15,.43,1.2,.41,2.25,.03,3.47Z"/><path class="cls-47" d="M38.03,243.37c.59,1.65-.09,2.9-.03,4.17,.01,.28-.3,.38-.54,.37-.35-.02-.66-.24-.61-.62,.17-1.24-.15-2.62,1.18-3.92Z"/><path class="cls-28" d="M136.56,185.25c.68,1.72-.85,2.5-1.54,3.64-.76-.08-1.02-.5-.61-1.13,.6-.93,1.11-1.95,2.15-2.51Z"/><path class="cls-81" d="M124.74,214.82c.8,1.38,1.19,2.84,.69,4.65-1.13-1.42-.5-3.24-1.44-4.52,.21-.28,.46-.33,.75-.13Z"/><path class="cls-44" d="M35.04,265.87c-.2-.18-.39-.37-.59-.55,.69-1.15,1.38-2.3,2.07-3.44,.5-.08,.79,.06,.64,.64-.47,1.27-1.16,2.4-2.12,3.36Z"/><path class="cls-80" d="M123.28,250.79c1.21,1.24,2.13,2.19,1.1,4-.81-1.25-1.09-2.39-1.1-4Z"/><path class="cls-19" d="M120.06,135.33c-1.16-.67-2.45-1.12-3.43-2.08,.33-.16,.66-.33,.99-.49,1.13,.48,2.09,1.2,3,2.01,.11,.49-.03,.72-.56,.57Z"/><path class="cls-55" d="M137.59,158.75c.15,.17,.31,.34,.46,.5-.39,.81-.77,1.61-1.16,2.41-.88-.08-1.02-.82-1.37-1.34,.69-.53,1.38-1.06,2.07-1.58Z"/><path d="M74.54,162.26c.43,.87,.12,1.4-.76,1.7-.88,.3-1.79,.28-2.69,.35,1.23-.55,2.09-1.72,3.45-2.05Z"/><path class="cls-16" d="M124.74,214.82c-.25,.04-.5,.09-.75,.13-.4-.09-.89-.19-.71-.75,.24-.76,.61-1.48,1.35-2.24,.52,1.04-.15,1.99,.11,2.86Z"/><path class="cls-53" d="M120.06,135.33c.19-.19,.37-.38,.56-.57,1.16,.46,2.1,1.25,3,2.09-1.66,.6-2.42-.92-3.56-1.52Z"/><path class="cls-8" d="M46.97,148.25c.22,.2,.44,.39,.66,.59-.89,.88-2.02,1.39-3.11,1.97,.06-1.57,1.46-1.87,2.45-2.56Z"/><path d="M121.14,270.95c-.5,.31-1,.62-1.49,.93-.65-.73-1.4-1.42-.84-2.63,.98,.39,1.08,1.86,2.33,1.7Z"/><path d="M62.1,158.76c.3,.31,.61,.62,.91,.93-.88,.83-1.75,1.67-2.63,2.5-.07-1.56,1.73-1.99,1.72-3.43Z"/><path class="cls-67" d="M29.49,162.74c.24-1.33,.94-1.62,2.09-.95,0,0-.04,.06-.04,.06-.18,.11-.31,.27-.39,.47-.52,.28-.61,2.21-1.66,.42Z"/><path class="cls-52" d="M121.92,262.44c-.4-.93-.45-1.86-.07-2.8,.17,.93,1,1.8,.07,2.8Z"/><path d="M70.79,161.16c.74-1.01,1.41-1.38,2.58-1.81-.66,1.16-1.32,1.55-2.58,1.81Z"/><path class="cls-11" d="M67.14,205.78c.61,0,1.23,0,1.84,0,.08,.54,.43,1.3-.4,1.41-.87,.11-1.25-.64-1.45-1.41Z"/><path class="cls-66" d="M43.06,273.93c-.41,.85-1.03,1.41-2.02,1.47l.02,.04c.07-.95,.68-1.55,1.35-2.11,.39,.02,.48,.35,.64,.6Z"/><path class="cls-56" d="M31.49,165.22c.21,.21,.42,.42,.63,.63-.45,.59-.89,1.19-1.81,1.45-.35-1.18,.48-1.59,1.17-2.08Z"/><path class="cls-32" d="M119.97,221.98c-.59-.74-1.15-1.27-.63-2.06,.06-.09,.36-.16,.42-.1,.65,.56,.52,1.25,.2,2.16Z"/><path d="M91.68,234.38c-.03,.83-.46,1.32-1.41,1.57,.14-.94,.77-1.25,1.41-1.57Z"/><path class="cls-82" d="M46.54,261.88c.05,.61-.08,1.12-.85,1.42-.21-.89-.3-1.71,.26-2.49,.55,.16,.25,.8,.59,1.07Z"/><path d="M41.04,275.4c-1.44,1.08-1.52,.03-1.85-1.17,1.08,.07,1.06,1.28,1.87,1.21,0,0-.02-.04-.02-.04Z"/><path class="cls-45" d="M46.08,260.41c-.05-.52,.16-.89,.77-1.34,.25,.95,.49,1.7-.2,2.43-.53-.19-.22-.81-.56-1.09Z"/><path d="M69.54,210.08c.51-.55,.91-.73,1.4-.46,.1,.06,.22,.34,.17,.39-.42,.53-.93,.41-1.57,.07Z"/><path d="M93.47,214.88c.41,.04,.52,.35,.58,.68,.04,.24,.04,.6-.21,.62-.4,.04-.47-.38-.57-.68-.08-.24-.07-.49,.21-.63Z"/><path class="cls-84" d="M43.1,272.44c.21-.5,.2-1.12,.79-1.44,.33,.73,.38,1.4-.24,1.99-.35-.01-.46-.27-.55-.55Z"/><path d="M73.38,273.07c-.8-.66-.99-1.1-.57-1.69,.55,.32,.37,.86,.57,1.69Z"/><path d="M43.64,177.33c-.21-.2-.41-.41-.62-.61,.43-.33,.84-.73,1.5-.61,.13,.72-.47,.91-.87,1.22Z"/><path class="cls-14" d="M134.9,207.96c-.93-.52-.95-1.01-.59-1.6,.57,.28,.46,.82,.59,1.6Z"/><path d="M31.96,260.66c.11,.12,.28,.22,.28,.33,0,.13-.1,.35-.21,.39-.36,.15-.42-.12-.38-.38,.02-.12,.19-.22,.31-.35Z"/><path d="M91.04,176.85c.84,.58,.83,.64-.42,1.5-.2-.21-.4-.41-.59-.62,.34-.29,.68-.59,1.01-.88Z"/><path d="M82.89,273.74c.22,0,.42,.11,.51,.34,.1,.23,.09,.49-.17,.61-.35,.15-.62,.01-.68-.37-.04-.24,.05-.46,.34-.58Z"/><path class="cls-59" d="M143.16,256.4c-.02,.7,.61,1.55-.48,1.99-.03-.71-.06-1.42,.48-1.99Z"/><path class="cls-37" d="M37.16,262.51c-.21-.21-.43-.42-.64-.64,.14-.39,.5-.87,.8-.64,.46,.34,.06,.86-.16,1.28Z"/><path d="M68.81,162.55c.19-.07,.33,0,.31,.18-.02,.12-.14,.26-.25,.33-.17,.1-.33,.01-.31-.17,.01-.12,.16-.22,.25-.34Z"/><path class="cls-35" d="M43.1,272.44c.18,.18,.37,.36,.55,.55-.2,.32-.39,.63-.59,.95-.32-.09-.51-.31-.64-.6,.23-.3,.45-.59,.68-.89Z"/><path class="cls-46" d="M48.67,238.87c-.06,.37,.06,.97-.51,.88-.53-.08-.41-.56-.19-.94,.25-.21,.48-.19,.69,.06Z"/><path d="M113.2,223.17c-.14-.06-.27-.11-.41-.17,.06-.14,.09-.34,.2-.39,.09-.04,.26,.09,.4,.15-.06,.14-.12,.27-.18,.41Z"/><path d="M93.01,274.46c-.19,0-.32-.13-.26-.31,.04-.13,.2-.26,.34-.29,.18-.05,.32,.11,.26,.29-.05,.13-.22,.21-.33,.31Z"/><path d="M85.76,210.94c-.12,.15-.26,.17-.38,.04-.04-.04-.06-.17-.02-.21,.11-.16,.26-.18,.38-.04,.04,.04,.02,.14,.03,.22Z"/><path class="cls-48" d="M90.57,140.74c.01-.15,.01-.29,0-.44,.65,0,1.29,0,1.94,0-.52,.7-1.22,.61-1.94,.43Z"/><path d="M64.69,207.31c.07,.3-.08,.47-.35,.48-.12,0-.33-.14-.35-.25-.06-.26,.08-.49,.36-.5,.11,0,.23,.18,.35,.27Z"/><path class="cls-85" d="M103.07,206.37c.72-.15,1.4-.09,1.98,.4-.72,.16-1.38,.02-1.98-.4Z"/><path class="cls-15" d="M46.08,260.41c.39,.26,.46,.68,.56,1.09-.02,.13-.06,.26-.11,.38-.46-.21-.43-.69-.59-1.07,.02-.14,.06-.27,.14-.4Z"/><path class="cls-79" d="M48.67,238.87c-.23-.02-.46-.04-.69-.06,.04-.36,.24-.57,.6-.46,.25,.08,.31,.3,.09,.51Z"/><path class="cls-34" d="M52.07,150.82c.23-.42,.6-.54,1.06-.47-.25,.38-.61,.52-1.06,.47Z"/><path class="cls-89" d="M34.06,187.31c.46-.09,.69,.16,.84,.55-.4,0-.68-.19-.84-.55Z"/><path class="cls-89" d="M54.07,209.23c.21-.37,.53-.52,.95-.44-.23,.34-.53,.52-.95,.44Z"/><path class="cls-19" d="M116.51,131.81c-.4-.04-.67-.27-.87-.6,.46-.04,.7,.24,.87,.6Z"/><path class="cls-89" d="M47.01,174.83c-.01,.24-.12,.4-.36,.46-.05-.29,.08-.43,.36-.46Z"/><path class="cls-89" d="M118.62,282.84c.06-.25,.22-.39,.49-.38-.06,.26-.21,.4-.49,.38Z"/><path class="cls-34" d="M51.56,149.9c-.02,.27-.16,.41-.43,.41,.03-.26,.17-.39,.43-.41Z"/><path class="cls-89" d="M31.15,162.32c.13-.16,.26-.31,.39-.47,0,.27-.12,.43-.39,.47Z"/><path class="cls-60" d="M88.83,206.9l.16,.18c-.06,.05-.13,.15-.19,.14-.06,0-.11-.11-.16-.17,.06-.05,.13-.1,.19-.15Z"/><path class="cls-89" d="M132.61,262.41c-.07,.27-.24,.43-.53,.43,.06-.28,.25-.42,.53-.43Z"/><path class="cls-19" d="M117.02,132.3c-.15-.14-.3-.28-.44-.42,.25,.03,.39,.17,.44,.42Z"/><path class="cls-19" d="M117.63,132.75c-.26-.03-.44-.17-.54-.41,.29,0,.47,.13,.54,.41Z"/><path class="cls-46" d="M190.58,437.06c.05-.9,.13-1.8,.15-2.7,.01-.56,.05-1.22-.84-1.17-.62,.04-1.09,.23-1.21,.96-.28,1.69-.62,3.37-.91,5.06-.09,.5-.21,.96-.58,1.32-.97,1.72-2.59,.92-3.97,1.01-.16,.19-.31,.39-.47,.58-.45,.33-.96,.81-1.48,.47-.52-.33-.41-.97-.13-1.5-.19-.94,1.27-2.37-.3-2.71-.89-.2-.7,1.57-1.14,2.39-.47,.87-.43,1.94-1.05,2.76-1.87,2.28-4.06,3.25-7.18,2.85-5.27-.67-10.55-1.28-15.79-2.19-1.55-.27-3.15-.4-4.44-1.45-.91-.58-1.09-1.57-.74-2.38,.64-1.47,.1-3.1,.79-4.52-.06-.02-.12-.07-.18-.07-.08,0-.15,.05-.24,.1-.37,.22-.78,.26-1.17,.37-1.56,.82-1.27,2.5-1.72,3.81-.25,.74-.11,1.62-.97,2.08-2.8,.42-5.52,.08-8.13-.97-.9-.36-1.8-.87-1.8-2.08,.57-2.31,1.18-4.62-.4-6.94-.34,.97-.68,1.94-1.01,2.91-.5,1.5-1.23,2.89-2.38,3.98-1.18,1.11-2.66,1.29-4.17,.89-.88-.23-1.42-.84-1.08-1.87,.37-2.5,.42-4.98-.76-7.32-.3-.59-.58-1.21-.98-1.73-.43-.56-.94-1.6-1.63-1.23-1.02,.55,.16,1.24,.33,1.85,.73,2.7,1.24,5.37-.44,7.93-4.96-.62-7.95-5.25-6.42-9.96,2.5-2.47,5.91-2.86,9.04-3.86,.54-.17,1.34,.11,1.9,.4,2.94,1.55,6.11,1.57,9.26,1.27,2.43-.24,4.8-.13,7.2,.17,6.46,.81,12.96,.65,19.42,.26,3.71-.22,7.32,.25,10.9,.85,5.77,.95,11.5,1.75,17.34,.76,2.81,1.42,5.49,.35,8.24-.32,1.29-.32,2,.95,1.12,2.12-1.71,2.26-2.94,4.78-4.35,7.2-1.27,2.17-4.02,2.51-6.4,2.74-1.28,.13-1.57-.97-1.22-2.13Z"/><path class="cls-46" d="M181.79,397.58c3.65,0,7.12-1.23,10.73-1.53,2.46-.2,4.88-.69,7.22-1.54,.26-.31,.7-.19,.99-.41,.12-.07,.26-.11,.4-.11,1.87,.03,3.74-1.86,5.6,.02h0c.62,1.27-.13,2.7,.45,3.98,.09,.88,.18,1.75,.29,2.87-1.26-.79-2.3-1.44-3.52-2.21-.48,1.57,.46,2.44,1.27,3.24,2.09,2.05,2.64,4.73,3.23,7.41,.04,.2-.16,.46-.25,.69-2.14,4-6.05,6.28-9.14,9.36-.89,.89-2.2,1.31-3.44,.65-.99-.53-.73-1.54-.51-2.44,.08-1.59-.12-3.15-.48-4.7-.15-.63-.45-1.05-1.19-.99-.8,.07-.92,.62-.85,1.24,.15,1.32,.29,2.64,.05,3.97-.42,1.32-1.11,1.97-2.45,.99-.5-.42-.99-.43-1.48,.01-.8,.86-1.76,1.08-2.91,.84-1.36-.29-2.74-.51-4.1-.81-3.25-.7-3.52-1.12-3.07-4.53,.03-.74,.1-1.48,.08-2.21-.01-.44-.26-.77-.77-.78-.47,0-.76,.21-.87,.68-.3,1.28-.61,2.56-.92,3.84-.09,.14-.25,.38-.31,.36-2.32-.96-5.3,.47-7.22-1.94-1.07-.04-1.25,.93-1.76,1.51-.8,.91-1.47,2.02-2.87,2.12-1.03-.32-2.1-.07-3.16-.47-3.41-1.28-4.08-2.28-3.74-6.12-.18-2.58,.49-4.93,1.88-7.09,.62-.97,1.34-1.66,2.65-1.3,.54,.15,1.15,.07,1.73,.07,2.37,0,4.45-.47,5.42-3.03,.17-.44,.62-.76,.94-1.14,.35-.4,.85-.52,1.32-.69,.37-.08,.74-.08,1.12-.02,.47,.13,.9,.4,1.4,.48,2.74-.43,5.49-.36,8.25-.28Z"/><path class="cls-46" d="M155.6,398.14c-1.49-1.61-2.15-3.53-2.04-5.7,.2-3.98,1.27-7.48,4.85-9.86,2.23-1.48,4.48-2.85,7.03-3.71,2.2-.75,4.41-1.51,6.53-2.46,4.26-1.91,8.71-3.29,13.18-4.59,3.87-1.13,7.78-1.61,11.76-.14,3.25,1.2,4.87,3.72,5.64,6.79,.63,2.49,.53,5.12,.32,7.7-.11,1.38-.53,2.6-1.6,3.53-2.74,1.31-5.73,.68-8.59,1.08-.72,.1-1.52-.18-1.53-1.22,.56-1.82,1.09-3.64,.61-5.57-.06-.24-.09-.49-.12-.73-.11-.79-.53-1.2-1.34-1.04-.78,.15-.72,.73-.66,1.34,.26,2.4,.13,4.76-.93,7-.73,.56-1.44,1.2-2.37,.33-.46-.6-.25-1.23-.05-1.92-.47,1.23-.22,2.8-1.88,3.29-2.65,.94-5.36,1.64-8.14,2.05-1.17,.17-2.37,.37-2.68-1.27,.57-2.79,.13-5.42-1.18-7.93-.44-.85-.85-1.64-2.01-1.48-.49,.55-.09,1.09,.08,1.61,.9,2.77,.12,5.38-.71,7.98-.18,.56-.5,1.04-1.04,1.34-.58,.33-1.18,.63-1.82,.78-1.52,.37-2.29-.09-1.8-1.78,.42-1.82,.29-3.62-.13-5.43-.18-.74-.49-1.27-1.3-1.2-.91,.08-.96,.73-.79,1.46,.49,2.08-.04,4.12-.29,6.17-1.68,2.47-4.01,3.66-6.98,3.59Z"/><path class="cls-46" d="M135.66,453.55c-.14-1.55,.74-2.71,1.59-3.82,.6-.78,1.42-1.39,1.39-2.46,1.19,.23,1.99,.68,2.77,1.15,.94,.56,1.97,.91,3.04,1.09,7.22,1.17,14.39,2.67,21.69,3.37,2.49,.24,4.99,.29,7.48,.07,1.5-.13,2.93-.49,4.28-1.24,2.58-1.44,5.45-2.03,8.34-2.44,2.98-.42,6.51,1.98,7.13,4.92,.29,1.38,.99,2.42,1.91,3.38-.98,2.46-2.56,4.34-5.18,5.12-4.31,1.28-8.69,1.87-13.18,1.1-2.02,1.02-4.37,1.45-5.3,4.08-.44,1.23-1.96,1.19-3.07,.64-6.84-3.36-14.21-5.51-20.94-9.15-1.29-.69-2.49-1.4-1.98-3.19,.08-.34,.09-.74-.24-.86-.69-.25-1.01,.32-1.35,.78-2.53,1.24-6.41,.07-8.36-2.53Z"/><path class="cls-89" d="M155.18,401.57c.69,.26,1.46,.34,2.04,.92,.07,.76-.57,1.15-.91,1.68-1.09,1.72-1.86,3.56-1.98,5.6-.32,5.59-3.57,8.92-8.38,11.07-.95,.43-1.95,1.03-2.41-.78-.24-.94-1.12-.92-1.9,.08-1.63,2.11-3.76,2.81-6.34,2.85-1.99,.03-3.32-.83-4.33-2.42-.45-.7-.88-1.42-1.4-2.05-.27-.33-.78-.48-.93,.15-.22,.94-.68,.74-1.23,.35-.9-.64-1.63-1.46-2.09-2.45-2.57-5.51-5.2-11.03-5.83-17.18-.39-3.8-1.03-7.59-.76-11.43,1.42-1.05,2.37-.16,3.07,.9,2.46,3.68,5.58,6.93,7.23,11.14,.13,.68,.12,1.4,.53,2,.58,3.27,.87,6.57,1.14,9.87,.07,.91,.21,1.81,.33,2.71,.07,.52,.24,1.07,.84,1.05,.73-.03,.56-.67,.5-1.14-.29-2.65-.12-5.3-.17-7.95,.79-1.19,.06-2.36-.06-3.53-.74-2.5-.53-5.12-.8-7.67-.79-7.38-1.98-14.68-3.83-21.86-.1-.39-.27-.79-.05-1.25,.65-.4,1.39-.26,2.12-.17,2.55,5.88,4.64,11.9,5.68,18.25,.88,5.41,1.19,10.89,1.85,16.33,.22,1.82,.96,3.14,2.57,3.98,.24,1.36-.28,2.76,.17,4.17,1.59-.16,2.07-1.09,1.95-2.52-.06-.73-.06-1.46-.08-2.19,.59-.44,1.09-1.02,1.92-1.08,3.1-.21,4.84-2.29,6.36-4.67,1.74-2.72,2.69-3.22,5.19-2.74Z"/><path class="cls-46" d="M155.18,401.57c-2.18,.45-3.43,1.9-4.51,3.78-1.95,3.38-4.81,5.35-8.96,4.71-.16-3.4-.34-6.79-.47-10.19-.3-7.57-1.17-15.05-3.56-22.28-.39-1.19-.12-1.65,1.08-1.83,3.12-.48,6.27-.6,9.42-.74,1.49-.06,2.99,0,4.48,.02,.89,.41,1.82,.79,1.94,1.96,.02,1.24,0,2.49,.08,3.73,.12,1.86-.29,3.45-1.3,5.11-2.76,4.55-1.84,11.53,1.8,15.73Z"/><path class="cls-89" d="M208.28,385.51c1.05,2.72,2.48,5.26,3.69,7.9,1.21,2.62,2.14,5.47,2.58,8.31,.54,3.52,1.27,7.04,1.17,10.65-.15,5.17-.46,10.32-1.54,15.37-.5,2.36-.8,4.76-1.33,7.11-1.11,4.83-3.35,9.22-5.32,13.72-.97,2.21-2.18,4.31-3.32,6.44-.81,1.5-1.87,2.71-3.94,2.97,.42-2.72,1.51-5.05,2.31-7.46,2.06-6.25,4.47-12.4,5.79-18.86,.87-4.3,2.23-8.55,1.97-13.03-.02-.41,.17-1.07,0-1.19-1.92-1.24-.48-2.43,.06-3.55,1.45-3,1.88-5.9,.34-9.09-1.12-2.32-1.16-5.02-1.43-7.57-.26-2.4-.63-4.77-1.11-7.13,.12-.84-.24-1.56-.56-2.31-.39-.91-.3-1.73,.66-2.27Z"/><path class="cls-46" d="M165.11,365.55c-.46,.34-.64,1.63-1.53,.42-.33-.44-.84-.6-1.33-.45-1.6,.5-3.42,.16-4.86,.71-1.95,.75-3.73,.33-5.57,.18-2.05-.16-4.08-.63-6.13-.87-1.16-.14-1.47-.7-1.51-1.8-.07-1.93,.63-3.76,.55-5.67,4.44-1.98,8.06-.84,10.61,3.33,.86,1.4,1.19,1.48,2.48,.59,.41-.28,.78-.62,1.18-.92,1.78-1.34,1.86-1.6,1.15-3.76-.08-.24-.18-.47-.25-.71-.02-.07,.03-.16,.07-.31,1.04-.71,2.13-.41,3.25-.06,3.72,1.16,6.94,3.22,9.86,5.72,3.31,2.83,6.73,5.42,10.94,6.77,.21,.07,.37,.32,.67,.59-2.39,1.34-4.96,1.91-7.48,2.64-2.12-.46-3.8-1.54-4.72-3.57-.58-1.28-1.74-1.3-2.88-1.5-1.07-.18-2.41,.05-2.86-1.42-.57-.68-1.11-.38-1.64,.07Z"/><path class="cls-89" d="M190.58,437.06c.13,1.07,.49,1.78,1.74,1.14,.3-.15,.61-.28,.93-.36,2.49-.62,4.48-1.55,5.23-4.48,.55-2.11,2.3-3.76,3.78-5.51-2.06,.98-4.25,1.37-6.37,1.97-1.54,.43-1.76,.2-1.57-1.46,.13-1.1-.78-.59-1.13-.92,1.55-.65,3.23-.56,4.85-.82,2.31-.38,4.14-1.36,5.84-2.97,1.38-1.3,2.59-2.73,3.87-4.1h-.04c.4,3.97-.87,7.69-1.9,11.44-1.49,5.44-3.51,10.71-5.44,16.01-.73,2.02-1.44,4.05-2.16,6.08-.61,.45-1.2,.98-2.04,.49-.65-.83-1.29-1.67-1.94-2.5l.13-.19-.19,.13c-.47-.45-.93-.9-1.48-1.42,1.06-1.19,2.38-1.66,3.6-2.3,.52-.27,1.48-.38,1.01-1.32-.35-.7-1.01-1.13-1.87-.79-.46,.18-.89,.45-1.33,.68-1.64,.84-3.4,1.34-5.21,1.61-1.36,.2-1.84-.48-1.31-1.78,.53-1.31,1.12-2.59,1.76-3.85,.77-1.51,.47-3.28,1.21-4.78Z"/><path class="cls-89" d="M137.07,439.09c1.6,1.1,3.44,1.52,5.3,1.83,1.54,.25,3.11,.4,4.66,.59,.63,.06,1.27,0,1.89,.13,.21,.07,.41,.18,.58,.31,.52,.99,1.13,.15,1.71,.09,6.06,1.48,12.26,2.04,18.4,3.04,3.33,.54,6.13-.4,9.03-1.54-.09,1.87-1.04,3.57-1.05,5.47,0,.47-.38,.89-.94,.98-.34-.12-.7-.36-.93,.17-1.93,.68-3.93,.44-5.87,.23-3.36-.36-6.73-.55-10.1-.75-1.74-.1-3.43-.37-5.04-1.04-2.36-.4-4.64-1.31-7.09-1.05-4.62-1.25-9.23-2.57-14.16-2.9,1.98-1.45,2.66-3.59,3.62-5.54Z"/><path class="cls-89" d="M145.61,456.15c.04,1.42,1.28,1.57,2.19,2.05,5.52,2.88,11.42,4.88,17.1,7.41,1.81,.81,3.62,1.62,5.28,2.36,.94-.21,.57-.86,.72-1.27,.62-1.81,1.75-2.97,3.77-3.06,.66-.03,1.32-.08,1.98-.12,.22,.2,.25,.42,.08,.66l.02-.08c-.4,.25-.3,.76-.55,1.09-.98,1.74-1.93,3.49-2.95,5.2-1.49,2.49-3.51,3.16-6.34,2.32-3.6-1.06-7-2.65-10.46-4.07-3.68-1.51-7.44-2.9-10.96-4.82-1.11-.61-1.58-1.3-1.51-2.54,.1-1.87,.55-3.59,1.63-5.13Z"/><path class="cls-46" d="M139.67,410.6c-2.78,.43-3.17,.08-3.58-2.56-.85-5.51-1.04-11.09-1.84-16.61-.57-3.99-1.72-7.79-2.96-11.58-.62-1.9-1.25-3.79-1.9-5.68-.26-.75-.34-1.46,.18-2.12,1.45-.17,2.2-1.36,3.3-2.56,4.74,13.51,7.27,27.06,6.79,41.11Z"/><path class="cls-89" d="M176.74,464.17c-.03-.22-.05-.44-.08-.66,2.38-.92,4.91-.39,7.35-.77,1.72-.27,3.41-.59,5.1-.97,1.43-.33,2.68-.85,3.4-2.22,.59-1.13,1.85-1.32,2.76-1.99,.69,.28,1.2,.75,1.54,1.41,.06,.71-.17,1.45,.25,2.11-1.8,2.27-3.16,4.87-5.22,6.96-2.63,2.68-6,3.78-9.53,4.5-1.21,.25-1.5-.2-1.11-1.39,.34-1.02,.77-2.02,1.15-3.03,.2-.53,.52-1.05,.04-1.75-1.05,1.13-1.64,2.51-2.42,3.75-.98,1.56-2.34,2.57-4.14,2.95-.58,.12-1.22,.19-1.64-.3-.52-.62,.13-1.05,.4-1.52,1.1-1.95,2.28-3.87,3.31-5.86,.64-1.23-.09-1.46-1.16-1.21Z"/><path class="cls-46" d="M128.63,400.53c-2.4-3.92-5.37-7.44-7.89-11.27-.49-.75-1.1-1.23-2.01-1.29-.43-4.15-.12-8.29-.12-12.65,2.24,.22,4.27,.44,6.3,.62,.96,.09,1.15,.72,1.32,1.52,.61,2.77,.92,5.58,1.34,8.38,.53,3.53,1.08,7.06,1.63,10.6-.05,1.39,.99,2.93-.57,4.11Z"/><path class="cls-89" d="M178.63,413.59c.04,.24,.09,.49,.1,.73,.09,1.99,.08,2.05,1.94,2.37,2.68,.46,5.3,1.27,8.03,1.4-.24,2.29-.91,4.47-1.73,6.6-.15,.38-.3,.76-.78,.84-.82-.4-1.66-.29-2.5-.06-2.17,.19-4.28,.01-6.31-.84-.84-.35-1.74-.52-2.65-.58-.81-.05-1.6-.17-2.23-.75,.26-.86,1.08-1.05,1.62-1.52,2.26-1.93,4.05-4.11,4.19-7.27,.01-.31,.21-.61,.33-.92Z"/><path class="cls-89" d="M169.66,411.63c.89,.64,.39,1.71,.67,2.47,.24,.09,.39,.21,.53,.2,1.02-.14,1.63-1.36,2.6-1.28,1.07,.08,1.2,1.49,1.98,2.07,.16,.12,.47,.02,.71,.02-2.57,4.46-6.44,6.85-11.57,6.93-2.92,.05-6.29-2.6-7.12-5.43-.57-1.95-1.37-3.96-.38-6.04-.24,1.33,.94,2.27,.98,3.55,.02,.62,.69,.62,1.14,.78,1.66,.56,3.32,1.11,4.98,1.67,.67,1.1,1.4,1.25,2.35,.26,.87-.91,1.76-1.78,1.96-3.08,.14-.85,.44-1.59,1.16-2.11Z"/><path class="cls-89" d="M195.11,417.56c.32,2.11,.56,2.25,2.41,1.49,.79-.32,1.41-.85,2.01-1.42,2.27-2.16,4.55-4.32,6.83-6.48,.54-.51,1.02-1.1,1.84-1.16,.27,1.16-.39,2.06-.8,3.05-.88,2.15-2.05,4.16-3.18,6.18-.6,1.08-1.21,2.24-2.35,2.84-2.72,1.41-5.65,2.17-9.11,2.86,.87-2.73,1.61-5.05,2.35-7.36Z"/><path class="cls-46" d="M128.69,358.48c1.34,2.54,2.26,4.99,2.99,7.53,.44,1.53-.13,2.59-1.24,3.47-1.44,1.13-3.18,.79-3.97-.85-1.16-2.39-2.2-4.83-3.3-7.25-.37-.82-.17-1.43,.78-1.2,1.97,.49,3.57,.09,4.74-1.71Z"/><path class="cls-89" d="M166.74,365.48c.52,.19,.94,.45,1.62,.32,1.46-.28,2.92,0,4.31,.59,.56,.24,1.28,.63,1.09,1.17-.58,1.65,.75,1.96,1.62,2.54,.75,.51,1.65,.81,1.82,1.86-.47,.65-1.25,.76-1.9,1.08-.75,.37-1.07,.21-1.73-.5-1.26-1.35-3.2-1.5-5.02-1.65-.97-.08-1.96,.3-3-.15,.23-1.8,1.15-3.44,1.2-5.27Z"/><path class="cls-89" d="M173.59,393.02c.74,.67,1.53,.27,2.34,.16,2.94-.4,5.73-1.54,8.71-1.71,1.33,1.87,.02,3.17-.99,4.53-.66,.14-1.32,.29-1.98,.43-.94-.38-1.72,.05-2.58,.38-2.53,.98-5.19,1.23-7.89,1.11-.5,.05-1,.1-1.5,.15,.14-.29,.22-.76,.44-.84,1.99-.74,2.64-2.54,3.44-4.23Z"/><path class="cls-89" d="M135.66,453.55c1.49,.14,2.77,.92,4.15,1.4,1.38,.48,2.67,1.25,4.21,1.12-.68,1.21-1.32,2.4-1.49,3.85-.19,1.62-.54,1.75-2.51,1.78-.59-.87-1.6-.73-2.44-1.01-2.81-2.36-3.18-3.75-1.93-7.14Z"/><path class="cls-89" d="M118.14,427.61c.03,.57,.07,1.15,.09,1.72,.11,3.08,1.93,4.99,4.45,6.34,.87,.47,1.07,1.45,1.88,1.89-.07,.37-.37,.52-.65,.68-1.13,.65-1.83,2.39-3.56,1.54-2.13-1.04-4.08-2.3-4.22-5.01-.13-2.6,.27-5.08,2.01-7.17Z"/><path class="cls-89" d="M191.15,389.55c.5,.46,1.07,.31,1.63,.2,2.82-.55,5.65-.61,8.48-.07-2.01,2.09-4.02,4.03-7.3,4.03-1.59,0-3.18,.7-5.12,1.17,.85-1.96,1.58-3.65,2.31-5.33Z"/><path class="cls-70" d="M128.03,438.06c.16,.75,.64,1.06,1.39,1.09,1.65,.07,3.05-.49,4.17-1.69,.72-.77,1.38-1.6,2.06-2.4-.18,5.72-5.39,9.07-10.79,6.75,1.35-1.06,2.3-2.37,3.16-3.74Z"/><path class="cls-89" d="M158.16,379.49c-.3-.71,.16-1.04,.65-1.42,1.5-1.18,3.09-2.28,4.3-3.79,.33-.41,.69-.72,1.27-.59,1.52,.34,3.04,.67,5.09,1.13-3.26,2.33-6.63,3.21-9.67,4.72-.56,.3-1.11,.41-1.64-.06Z"/><path class="cls-49" d="M133.63,452.08c-.48,1.22-.97,2.43-1.47,3.7-1.75-.5-2.71-1.53-2.78-3.3-.08-2.14,.24-4.12,2.33-5.31,2.76,1.11,2.89,1.44,1.93,4.91Z"/><path class="cls-89" d="M149.3,423.4c2.11-1.44,3.9-2.85,5.35-4.84,1.66,1.55,2.37,3.63,4.2,4.85-3.11,.09-6.15,.94-9.55-.01Z"/><path class="cls-77" d="M183.22,441.54c1.25-.62,2.63-.73,3.97-1.01-.25,2.3-1.5,4.18-2.6,6.11-.16,.27-.44,.5-.71,.68-.36,.22-.79,.32-1.16,.05-.32-.23-.2-.6-.17-.92,.11-1.26,.73-2.37,1.08-3.56,.15-.51,.56-1.15-.41-1.34Z"/><path class="cls-69" d="M190.19,418.08c.98,.08,1.89-.03,2.45-.99-.25,2.38-1.11,4.6-1.83,6.85-.35,1.11-.47,1.08-2.41,1.01,.67-2.29,1.85-4.43,1.79-6.87Z"/><path d="M183.66,396.01c.33-1.51,.66-3.02,.99-4.53,.96-1.67,1.24-3.54,1.69-5.37,.11-.46,.13-1.14,.75-1.06,.83,.12,.56,.88,.46,1.39-.27,1.37-.61,2.73-.93,4.09,.78,1.88-.66,3.35-.92,5.04-.6,.51-1.32,.47-2.04,.44Z"/><path class="cls-10" d="M133.63,452.08c.03-1.9-.54-3.57-1.93-4.91,1.68-.82,3.12,.04,4.79,.6-.88,1.38-1.67,2.61-2.46,3.85-.12,.16-.26,.32-.4,.46h0Z"/><path class="cls-22" d="M155.6,398.14c.79-.59,1.49-1.33,2.57-1.43,1.74-.15,3.09-1.14,4.41-2.16-.52,2.55-2.54,3.53-4.65,4.38-.95,.39-1.79,.17-2.34-.79Z"/><path class="cls-5" d="M181.14,441.1c-.02,1.23,.76,1.18,1.62,1.03-.66,1.86-1.32,3.71-1.98,5.57-.14,.39-.34,.84-.83,.75-.72-.13-.53-.73-.4-1.18,.57-2.05,.73-4.2,1.59-6.17Z"/><path class="cls-89" d="M206.73,394c-1.87,.19-3.73,.8-5.6-.03,1.22-.57,1.82-1.88,2.99-2.51,.84,.03,1.69-.57,2.51,.06,.03,.83,.06,1.66,.1,2.48Z"/><path class="cls-34" d="M185.7,395.57c-.68-.15-.67-.6-.49-1.12,.47-1.31,.94-2.62,1.41-3.92,.69,.4,1.39-.03,2.08,.02-.28,2.11-1.58,3.61-3,5.03Z"/><path class="cls-39" d="M165.1,393.53c.16,.51,.13,1.16,.98,1.1,.88-.07,1.76-.06,2.65-.09-1.09,1.81-3.02,2.42-5.14,3.75,.61-1.91,1.07-3.33,1.52-4.75Z"/><path class="cls-20" d="M208.28,385.51c-.13,.99-.05,1.98,.19,2.95,.14,.59,.13,1.14-.29,1.63,0,0-.03-.04-.03-.04-.1-.16-.2-.33-.29-.5-.18-.37-.26-.88-.55-1.09-1-.71-.95-1.62-.72-2.64,.2-.88-.11-1.81,.29-2.83,.97,.62,1.05,1.66,1.41,2.53Z"/><path d="M181.79,397.58c-3.03,.58-6.07,1.06-9.14,1.38-.27-.33-.25-.68-.03-1.03,.57-.3,1.19-.41,1.83-.43,.38-.05,.75-.2,1.13-.23,1.38,.06,2.7-1.18,4.12-.18,.63,.47,1.4,.29,2.1,.48Z"/><path class="cls-78" d="M179.7,397.09c-1.49,.16-2.98,.32-4.48,.48-.12,.12-.27,.18-.43,.18-.64,.29-1.32,.37-2.02,.36-.24,.26-.43,.24-.58-.08-.32-.03-.65-.07-.97-.11,2.83-1.15,5.89-1.24,8.84-1.88,.57-.12,1.14,.05,1.63,.39-.66,.22-1.32,.43-1.98,.65Z"/><path class="cls-21" d="M142.66,373.52c-1.9,.22-3.81,.09-5.71,.02-.3-.01-.69-.05-.67-.53,.02-.45,.39-.54,.69-.52,1.89,.11,3.81-.08,5.66,.52,.34,.15,.35,.32,.03,.51Z"/><path class="cls-17" d="M147.61,447.54c.82-.78,1.82-.61,2.75-.39,1.48,.34,3.04,.5,4.34,1.44-.7-.04-1.41-.07-2.11-.11-.61-.33-1.33,.01-1.95-.3-1.05-.02-2.04-.35-3.03-.64Z"/><path class="cls-43" d="M206.63,391.52c-.85,.49-1.69,.76-2.51-.06,.47-.75,.94-1.5,1.43-2.24,.16-.23,.33-.64,.68-.16,.49,.57,.02,1.33,.38,1.92,0,.18,.02,.36,.03,.54Z"/><path d="M142.66,373.52c-.01-.17-.02-.34-.03-.51,2.39,0,4.78,0,7.17,0,0,.16,.02,.31,.03,.47-1.14,0-2.28,0-3.43,0-1.25,0-2.49,.03-3.74,.04Z"/><path class="cls-92" d="M128.63,400.53c.88-1.27,.1-2.77,.57-4.11,.48,1.84,.49,3.71,.37,5.59-.54-.35-.9-.81-.93-1.48Z"/><path class="cls-6" d="M197.06,461.08c-1.61-.71-1.63-.91-.25-2.11,1.55,.53,.8,1.33,.25,2.11Z"/><path class="cls-33" d="M132.14,403.01c.6,1.11,1.05,2.32,.94,3.57-.08,.83-.57,.02-.88-.03-.27-1.17-.16-2.35-.06-3.53Z"/><path class="cls-61" d="M196.19,453.58c.67-.22,1.23-.88,2.04-.49-.02,.73-.27,1.38-.71,1.98-.81-.17-1.11-.8-1.33-1.48Z"/><path class="cls-87" d="M137.59,460.68c1.62-.52,2.21-.27,2.44,1.01-.92-.07-1.81-.22-2.44-1.01Z"/><path class="cls-72" d="M122.63,373.53c.91-.32,1.79-.93,2.77-.21,.04,.03,.04,.18,0,.23-.81,.87-1.82,.38-2.76,.39-.36-.13-.36-.26,0-.4Z"/><path class="cls-13" d="M153.66,356.08c-.01-.18-.03-.36-.04-.54,.81,.07,1.56,.24,2.23,1.27-.98-.15-1.67-.13-2.19-.73Z"/><path class="cls-1" d="M154.59,377.01c-.43-.87-1.37-1.23-1.94-1.96,1.82,.05,1.85,.08,1.94,1.96Z"/><path class="cls-89" d="M207.17,397.99c-.63-1.28-.41-2.65-.45-3.99,.88,1.25,.5,2.64,.45,3.99Z"/><path class="cls-24" d="M123.13,352.92c1.18-.65,2.34-.67,3.49,.06-1.16-.02-2.33-.04-3.49-.06Z"/><path class="cls-71" d="M157.06,358.11c.13,.05,.32,.07,.39,.16,.25,.34,.3,.73,.14,1.12-.08,.2-.27,.22-.35,.02-.15-.36-.22-.76-.31-1.14,0-.04,.09-.11,.13-.16Z"/><path class="cls-29" d="M158.16,379.49c.55,.02,1.09,.04,1.64,.06-.21,.23-.39,.5-.64,.68-.24,.17-.64,.43-.8,.34-.4-.22-.25-.69-.2-1.08Z"/><path class="cls-76" d="M183.69,425.47c.85-.55,1.68-.57,2.5,.06-.84,.22-1.67,.15-2.5-.06Z"/><path d="M218.51,468.05c-.09,.1-.18,.19-.27,.29-.08-.11-.16-.21-.22-.33-.01-.03,.11-.17,.13-.16,.12,.05,.23,.13,.35,.2Z"/><path class="cls-89" d="M150.64,448.18c.69-.18,1.35-.15,1.95,.3-.69,.16-1.34,.03-1.95-.3Z"/><path class="cls-89" d="M206.6,390.98c-.43-.58-.41-1.25-.38-1.92,.51,.57,.48,1.24,.38,1.92Z"/><path class="cls-68" d="M207.76,419.56c-.07-.14-.16-.28-.22-.43-.1-.24-.06-.49,.15-.64,.08-.06,.25,0,.39,0-.01,.23,0,.47-.06,.68-.04,.14-.2,.25-.3,.37,0,0,.04,.01,.04,.01Z"/><path class="cls-74" d="M125.24,357.88c.35,.02,.62,.09,.48,.39-.07,.16-.36,.28-.56,.31-.24,.03-.51-.12-.4-.4,.06-.16,.35-.23,.47-.3Z"/><path d="M218.91,435.57c-.03-.13-.07-.27-.09-.4,0-.02,.11-.05,.18-.07,.03,.13,.07,.27,.09,.4,0,.02-.11,.05-.18,.07Z"/><path class="cls-40" d="M175.72,450.14c.11-1.16,.59-.29,.93-.17-.31,.06-.62,.11-.93,.17Z"/><path class="cls-89" d="M200.73,394.09c-.25,.34-.57,.5-.99,.41,.26-.31,.56-.51,.99-.41Z"/><path d="M122.63,373.53c0,.13,0,.27,0,.4-.23,.06-.53,.05-.54-.18,0-.23,.3-.26,.53-.22Z"/><path class="cls-89" d="M176.21,465.18c.04-.43,.2-.81,.55-1.09-.03,.44-.2,.81-.55,1.09Z"/><path class="cls-89" d="M175.62,360.14c.25,0,.39,.13,.44,.36-.27,.02-.42-.09-.44-.36Z"/><path class="cls-89" d="M120.22,354.48c0-.23,.09-.39,.3-.47,.05,.25-.06,.41-.3,.47Z"/><path class="cls-89" d="M207.85,389.55c.23,.09,.33,.25,.3,.5-.24-.08-.35-.24-.3-.5Z"/><path class="cls-49" d="M133.64,452.08c0-.27,.15-.41,.4-.47,.02,.28-.11,.44-.4,.47Z"/><path d="M98.08,166.32c-.64,.22-1.24,.6-1.96,.41-.11-2.9,.24-5.81-.13-8.72-.09-.72,.07-1.49,.21-2.22,.17-.87,.72-1.08,1.45-.56,.81,.58,1.59,1.21,2.4,1.79,.75,.53,1.47,1.56,2.34,.05,.23-.41,.75-.04,1.12,.14,.73,.35,1.28,1.08,2.17,1.12,1.06-2.17,1.73-2.25,3.3-.29,.57,.72,1.05,1.5,1.83,2.01,.66,.43,1.35,1.24,1.92-.14,.2-.49,.66-.38,1.05-.14,.8,.47,1.36,1.13,1.87,1.93,.61,.96,.96,2.63,2.91,1.5,.6-.35,1.53,.58,1.99,1.25,.69,1.02,1.6,2.14,1.68,3.27,.11,1.45,.8,2.48,1.45,3.6,.54,.92,.68,1.63-.47,2.23-1.48,.78-1.76,.78-2.66-.49-.71-1.01-1.27-2.15-2.32-2.88-.85-1.14-1.88-1.91-3.36-1.25-.7,.31-1.29,.03-1.91-.13-2.99-.76-5.71-2.46-8.89-2.58-2-.16-4.01-1.33-6,.06Z"/><path d="M100.58,172.86c-.48-.08-.99-.08-1.44-.25-.38-.14-.66-.5-.62-.98,.04-.54,.3-.95,.82-1.12,.97-.32,1.97-.26,2.95-.16,4.58,.47,8.63,2.13,11.9,5.48q.84,1.4-1.02,1.53c-1.88,.85-2.66-1.35-4.22-1.47-.02,1.47,1.69,1.79,2.08,2.99,.1,.49,1.09,.65,.52,1.4-1.79,.76-3.64,1.21-5.6,1.08-1.73,.2-3.48,.47-4.88-.96-.16-.03-.32-.04-.48-.08-1.35-.33-1.35-.33-.58-1.46,.08-.12,.07-.31,.1-.47,.3-.31,1.53,.06,.89-.88-1.05-1.54-.1-2.55,.64-3.68,.34-1.07-.74-.62-1.05-.98Z"/><path d="M53.55,173.79c2.74-1.44,5.42-3.02,8.52-3.66,.61-.13,1.1-.22,1.6,.18,.2,1.08-.6,.95-1.24,1.03-1.67,.2-3.06,.81-3.62,2.57-.28,.89,.07,1.31,.96,1,.88-.3,1.68-.72,2.58-.06,.75,.56,1.62,.95,.6,2.09-.89,.99,.64,1.05,.82,1.65-.1,.55-.55,.55-.94,.63-3.17,.68-6.39,1.14-9.28,2.75-.6,.33-1.26,.46-1.85-.08,.52-1.07,1.24-1.92,2.43-2.29,.71-.22,1.18-.67,.97-1.45-.21-.8-.79-.94-1.54-.65-.29,.11-.64,.15-.95,.1-1.56-.25-1.8-.83-.91-2.12,.28-.4,.6-.77,.9-1.15,0,0-.02,0-.02,0,.24-.34,.73-.22,.98-.54Z"/><path d="M57.51,188.23c-.82,.37-1.61,.92-2.47,1.09-2.79,.57-3.48,.07-3.88-2.49,.14-.04,.33-.17,.42-.12,2.3,1.35,2.32,1.35,4.95-.92,.71-.42,1.4-.86,2.12-1.25,1.29-.7,2.47-1.22,4.15-.96,2.13,.33,4.25-.36,5.78-2.19,.39-.47,.71-1.28,1.54-.97,.85,.31,.88,1.11,.89,1.87-1.18,3.25-4.21,3.43-6.9,3.95-2.29,.44-4.48,1.05-6.6,1.99Z"/><path d="M102.11,190.73c-1.33,.2-2.7,.58-3.61-.89-1.46-1.71-2.91-3.42-4.37-5.12-.32-.38-.75-.81-.2-1.26,.39-.32,.78,.02,1.07,.32,1.3,1.29,2.6,2.58,3.86,3.9,.82,.86,1.65,1.03,2.88,.84,3.45-.52,6.86-1.36,10.4-1.23,1.12,.04,2.16,.11,2.94,1.02,0,0,.02,.06,.02,.06,.38,2.33-1.42,2.03-2.66,2.01-3.45-.06-6.89,.04-10.33,.35Z"/><path d="M79.98,166.59c1.72-2.21,2.65-4.97,4.92-6.72,.34-.26,.42-.41,.33-.76-.12-.48-.36-.97-.34-1.44,.04-.75,.27-1.64,1.08-1.79,.82-.16,.98,.71,1.2,1.33,.77,2.15,.87,4.39,.83,6.64,0,.48-.22,.97-.4,1.42-.18,.45-.4,.98-1.04,.83-.53-.12-.46-.62-.49-1.01-.08-1.05-.05-2.12-.46-3.29-2.28,1.37-2.79,4.38-5.64,4.78Z"/><path d="M80.67,196.77q-1.81-.78-.6-1.99c3.56-.38,6,1.29,7.75,4.23,.25,.42,.46,.88,.64,1.34,.23,.58,.24,1.13-.42,1.49-.61,.33-1.08,.21-1.49-.36-.63-.87-1.32-1.7-1.93-2.58-.96-1.4-2.26-2.13-3.96-2.13Z"/><path class="cls-89" d="M57.51,188.23c2.09-1.72,4.34-3.02,7.18-2.9,2.62,.11,4.57-1.27,6.31-3.04,.36,0,.72,.01,1.07,.02-.48,.67-1.69,.88-1.25,2.14,.22,.63-.36,.8-.86,.94-4.12,1.1-8.14,2.61-12.46,2.84Z"/><path class="cls-46" d="M111.03,178.89c-.67-.02-1.34,.01-1.99-.07-.75-.09-1.37-.33-.72-1.27,.32-.46,.06-.79-.31-1.03-.42-.27-.87-.48-1.31-.73-.53-.31-.56-.74-.32-1.27,.28-.65,.71-.9,1.38-.66,2.06,.76,3.78,2.06,5.41,3.5,.39,.8,.32,1.36-.73,1.43-.47,.03-.93,.07-1.4,.1Z"/><path d="M105.5,180.37c2.02-.03,4.03-.06,6.05-.09-.32,.23-.64,.46-1,.72,.67,.92,1.95,.8,2.64,1.62,.26,.27,.24,.51-.07,.71-.08,.01-.17,.05-.24,.03-3.51-.97-7.09-1.22-10.71-1.04-.73,.04-.78-.41-.5-.97,1.15-.82,2.81,.31,3.84-.99Z"/><path d="M113.11,183.34c.02-.24,.05-.47,.07-.71,1.89,.19,3.81,.22,5.65,.74,1.6,.45,3.35,.74,4.3,2.63-3.35-.81-6.5-1.57-9.64-2.34-.14-.04-.26-.2-.38-.31Z"/><path d="M105.5,180.37c.32,.68-.03,.89-.63,.91-1.07,.04-2.14,.06-3.21,.08-.19-.32-.39-.64-.58-.96,1.48,.35,2.96,.5,4.43-.04Z"/><path class="cls-38" d="M78.54,178.33c-.16,0-.32-.01-.47-.04,.08-.52-.14-1.12,.34-1.54,.07-.06,.35-.02,.4,.06,.36,.57-.06,1.03-.27,1.52Z"/><path d="M125.92,174.6c0,.38-.21,.6-.56,.63-.24,.03-.49-.08-.5-.37-.01-.36,.2-.62,.55-.67,.25-.03,.45,.13,.51,.4Z"/><path class="cls-73" d="M118.02,177.06c.08,.1,.25,.22,.24,.31-.05,.27-.27,.35-.51,.27-.18-.06-.23-.24-.11-.38,.09-.1,.25-.13,.38-.2Z"/><path class="cls-38" d="M78.09,180.82c-.05-.57,.07-1.09,.45-1.53,.07,.57-.05,1.09-.45,1.53Z"/><path class="cls-38" d="M78.07,178.3c-.18,.16-.35,.31-.53,.46,.18-.16,.35-.31,.53-.46Z"/><path d="M82.63,128.73c0-.17-.04-.33-.13-.47-.11-.17-.22-.34-.34-.5-.38-.59-.71-.9-1.6-.65-2.29,.64-2.66,.45-3.79-1.54-.93-1.63-2.6-2.87-2.61-4.97-.03-3.02,.18-5.93,3.36-7.5,.57-.28,.49-.8,.63-1.26q.43-1.42,1.49-2.39c.59,.16,.52,.77,.76,1.17,.17,.28,.32,.73,.68,.53,2.05-1.15,3.79,.11,5.28,1.01,1.3,.79,2.01,.68,2.91-.43,.97,.8,1.03,1.74,.95,2.75-.07,1.02,.23,1.69,1.13,2.47,2.49,2.15,2.03,6.32-.64,8.2-.73,.51-1.74,.68-2.09,1.67,.14,1.65-.75,3.04-1.26,4.49-.57,1.63-2.16,1.78-3.31,.43-.73-.85-1.73-1.65-1.43-3.02Z"/><path d="M96.56,127.29c-.88,2.72-2.82,4.75-4.88,6.47-2.39,1.99-5.34,3-8.59,2.47-.68-.4-1.44-.31-2.17-.42-1.71-.25-3.46-.37-4.61-2-.53-.76-1.54-.45-2.31-.69-1.83-.56-1.97-.96-.84-2.76,.25-.4,.58-.4,.94-.18,.57,.47,1.24,.59,1.95,.59,1.19-.05,2.2,.22,3.23,.99,2.99,2.26,6.21,1.89,8.91-.72,1.69-1.63,3.86-2.59,5.81-3.84,.16-.28,.5-.76,.44-.82-1.12-1.12-.34-1.82,.47-2.59,1.41-1.35,1.89-3.04,1.66-4.95-.51-2.09,.09-4.27-.49-6.36,.09-.3,.25-.56,.48-.77,.59-.09,.92,.21,1.17,.7,.61,1.21,.99,2.48,.98,3.83-.02,1.91-.11,3.81-.17,5.71-.04,1.41-.49,2.61-1.81,3.33-.41,.22-.6,.55-.53,1.02,.21,.3,.13,.7,.37,.99h0Z"/><path d="M73.11,129.65c-.71-.49-1.57-.28-2.34-.52-1.97-.6-2.62-1.72-2.2-3.79,.43-.47,.15-.83-.09-1.31-1.01-2.01-1.64-4.04,.25-5.95,.31-.31,.49-.65,.29-1.11-.89-2.1,.21-3.62,1.72-4.73,1.84-1.34,3.34-2.97,4.83-4.64,.67-.75,1.39-1.44,2.37-1.77,.5-.17,1-.15,1.27,.42,.24,.51,.59,.99-.1,1.51-2.11,1.59-3.61,3.88-6.05,5.12-1.09,.56-1.71,1.62-1.69,2.87,.02,1.12-.24,2.11-.78,3.06-.47,.83-.62,1.7-.33,2.63,.1,.32,.2,.65,.19,.98-.1,2.53,.24,4.77,3.13,5.69,.61,.19,.54,.96,.44,1.55-.31,.48-.6,.38-.9-.01Z"/><path class="cls-89" d="M93.99,127.2c-.59,1.45-1.6,2.46-3.01,3.17-1.08,.54-2,1.21-2.78,2.33-.64,.93-2.26,1.27-3.5,1.7-1.52,.54-5.85-.92-6.65-2.34-.5-.9-1.4-.79-2.01-1.3,2.13-.88,4.34-1.51,6.58-2.04,1.08,.85,2.31,1.56,2.6,3.09,.04,.23,.31,.42,.57,.33,.2-.07,.38-.28,.52-.46,.09-.12,.17-.32,.15-.46-.33-1.99,1.05-3.14,2.17-4.41,1.75,.62,3.58,.13,5.36,.37Z"/><path d="M95.46,113.64c-1.2,.25-1.93-.09-2-1.45-.06-1.24-.68-1.96-1.85-2.63-1.5-.87-2.8-1.82-4.67-1.96-1.71-.12-3.43-.49-5.17-.5-.12-1.09,.71-1.23,1.28-1.21,2.4,.08,4.81,0,7.18,.48,2.56,.52,4.3,2.04,5.41,4.36,.28,.99,.87,2-.18,2.91Z"/><path d="M96.51,112.07c.02,2.26,.04,4.51,.05,6.77-1.03-1.61-.1-3.41-.49-5.09-.31-.68-.48-1.32,.43-1.68Z"/><path class="cls-65" d="M96.51,112.07c-.74,.41-.23,1.14-.43,1.68-.21-.04-.41-.07-.62-.11,.23-.96,.3-1.93,.18-2.91,.31,.33,.61,.65,.92,.98,0,.12-.01,.24-.04,.36Z"/><path class="cls-25" d="M73.11,129.65c.3,0,.6,0,.9,.01,.03,.17,.06,.34,.08,.52-.31,.06-.63,.12-.94,.18-.19-.11-.38-.22-.57-.32,.17-.13,.35-.26,.52-.38Z"/><path class="cls-89" d="M96.55,127.28c-.33-.25-.48-.57-.37-.99,.31,.26,.47,.58,.37,.99Z"/><path class="cls-89" d="M82.16,127.76c.28,.05,.41,.21,.34,.5-.25-.08-.36-.25-.34-.5Z"/><path class="cls-19" d="M116.62,133.24c-.19-.14-.38-.29-.58-.43,.19,.14,.38,.29,.58,.43Z"/><path class="cls-19" d="M115.63,132.66c-.19-.12-.38-.24-.57-.36,.19,.12,.38,.24,.57,.36Z"/><path class="cls-4" d="M24.96,154.78c.11-.31,.27-.57,.65-.54,.06,0,.17,.1,.16,.15-.06,.44-.49,.27-.73,.43,0,0-.08-.04-.08-.04Z"/><path class="cls-89" d="M102.11,190.73c3.54-.73,7.1-1.27,10.71-1.44,.85-.04,1.89,.3,2.27-.93,.28,.41,.59,.8,.84,1.22,1.11,1.84,.99,2.1-1.25,2.24-.9,.06-1.86,.11-2.72-.1-3.25-.79-6.53-1.11-9.86-.99Z"/><path d="M130.36,200.36c-.07-.11-.22-.23-.2-.33,.04-.26,.23-.36,.46-.2,.1,.07,.11,.25,.15,.39-.14,.05-.27,.1-.41,.14Z"/><path class="cls-88" d="M98.08,166.32c.59-.57,.99-1.26,1.26-2.09,1.62,.69,3.18,1.36,4.74,2.03-2,.02-4,.04-6,.06Z"/><path class="cls-16" d="M100.58,172.86c.83-.07,1.66-.13,2.59-.21-.33,.8-.92,1.01-1.53,1.19l-1.05-.98Z"/><path class="cls-89" d="M53.55,173.79c-.23,.36-.52,.6-.98,.54,.19-.42,.53-.6,.98-.54Z"/><polygon class="cls-89" points="106.19 226.78 106.07 226.89 106.18 226.77 106.19 226.78"/><path d="M151.22,442.04c-.18,.95-.34,1.9-.54,2.85-.1,.46-.42,.67-.89,.56-.35-.08-.57-.32-.57-.68,0-.89,.02-1.77,.03-2.66-.71-2.43,.12-4.55,1.37-6.57,.16-.72,.31-1.45,.47-2.17,.1-.47,.13-1.18,.74-1.08,.75,.11,.63,.83,.54,1.42-.3,1.96-.6,3.92-.88,5.88-.12,.81-.18,1.64-.27,2.46Z"/><path d="M148.73,442.01c-.23,.4-.32,1.1-.84,1.03-.81-.1-.61-.98-.85-1.53,.1-1.92,.61-3.76,1.06-5.61,.23-.91,.72-.99,1.45-.79,.76,.7,.49,1.51,.22,2.31-.5,1.5-.43,3.12-1.05,4.59Z"/><path class="cls-63" d="M148.73,442.01c-.43-2.39,.69-4.58,.83-6.9,.35,.15,.71,.29,1.06,.44-.23,2.24-.68,4.43-1.37,6.57-.17-.04-.35-.07-.52-.11Z"/><path d="M169.66,411.63c.62,3.24-1.16,5.31-3.49,7.09-.38,.29-.88,.49-1.35,.57-.58,.1-1.19-.08-1.53-.6-.32-.49,.04-.93,.34-1.32,.2-.26,.37-.54,.56-.81,1.09-1.37,2.31-2.64,2.99-4.33,.5-1.24,1.58-.71,2.48-.6Z"/><path class="cls-89" d="M172.18,398.04c.2,.03,.39,.05,.59,.08-.04,.28-.08,.56-.11,.84-.34-.22-.49-.52-.47-.92Z"/><path class="cls-3" d="M206.87,444.38c.48-1.87,.97-3.74,1.51-5.84,1.19,2.88,.91,4.07-1.51,5.84Z"/><path class="cls-23" d="M194.2,451.02c.14-.14,.24-.36,.5-.22,.01,0,0,.13-.03,.14-.13,.06-.27,.09-.4,.14,0,0-.06-.06-.06-.06Z"/><path class="cls-89" d="M174.79,397.76c.13-.09,.28-.15,.43-.18-.12,.13-.26,.19-.43,.18Z"/><path class="cls-46" d="M80.64,112.64c.99,.26,1.72,.42,2.43,.64,1.34,.42,3.15,.27,3.87,1.49,1.19,2.03,2.82,3.94,2.93,6.49,.05,1.14,.11,2.19-1.47,2.35-.96,.1-1.57,.89-2.21,1.54-.64,.65-1.22,1.35-1.81,2-.68-.24-.93-.82-1.27-1.26-.71-.93-1.38-1.72-2.64-.8-.47,.35-1,.3-1.29-.22-.7-1.22-1.89-2.09-2.27-3.54-.38-1.45-.21-3.03,1.08-3.71,2-1.05,2.47-2.76,2.64-4.99Z"/></g></g><g id="Ebene_1"><g><path class="cls-89" d="M302.52,269.76c-21.34-28.82-43.88-58.6-61.81-82.85,17.71,24.59,40.11,55.79,61.81,85.31v-2.46Z"/><path class="cls-89" d="M9.75,446.33c35.88,57.39,80.16,112.53,121.14,166.52,0,0-.12,.09-.12,.09-22.11-26.29-43.08-53.53-63.29-81.3-20.06-27.73-40.51-56.03-57.73-85.31h0Z"/><path class="cls-89" d="M127.66,66.51c20.87,34,46.09,64.98,69.54,97.18,0,0-.12,.09-.12,.09-13.03-15.11-25.09-31.01-36.62-47.28-11.4-16.21-23.32-32.89-32.8-50h0Z"/><path class="cls-89" d="M302.52,469.23c-23.15-28.64-45.3-58.08-64.75-89.4,13.58,23.4,29.85,46.2,46.26,68.04,6.03,8.01,12.18,15.93,18.49,23.73v-2.37Z"/><path class="cls-89" d="M20.83,251.1c28.97,46.64,63.9,89.12,99.26,131,0,0-.11,.1-.11,.1-18.95-19.86-36.39-41.13-52.88-63.06-16.41-21.84-32.68-44.64-46.26-68.04h0Z"/><path class="cls-89" d="M34.98,224.96c19.5,36.75,43.56,70.74,67.42,104.74,0,0-.12,.09-.12,.09-13.25-16.05-25.14-33.17-36.27-50.74-11.05-17.48-22.17-35.7-31.03-54.09h0Z"/><path class="cls-89" d="M302.52,311.36c-16.12-21.69-31.07-44.39-45.37-67.21l-.13,.08,7.01,11.69c6.88,11.28,14.64,23.59,21.99,34.49,5.29,7.91,10.71,15.78,16.5,23.35v-2.39Z"/><path class="cls-89" d="M302.52,614.07c-27.06-30.14-53.03-61.28-76.25-94.49,12.01,18.53,26,36.8,39.91,54.31,11.46,14.37,23.44,28.36,36.35,41.46v-1.27Z"/><path class="cls-89" d="M10.08,320.7v1.31c11.72,16.37,24.13,32.36,36.42,48.14,22.22,28.33,45.4,55.92,69.79,82.41,0,0,.11-.1,.11-.1-36.06-43.34-73.28-86.03-106.32-131.75Z"/><path class="cls-89" d="M126.79,231.33c23.3,33.9,49.7,65.49,75.42,97.55,7.35,9.48,15,18.78,21.49,28.89,.87,1.48,1.82,2.93,2.37,4.59,0,0-.14,.04-.14,.04-.61-1.58-1.63-2.99-2.57-4.4-7.02-9.71-14.78-18.86-22.31-28.18-25.54-32.06-51.96-64.38-74.25-98.49h0Z"/><path class="cls-89" d="M102.28,265.26c23.3,33.9,49.7,65.49,75.42,97.55,7.35,9.48,15,18.78,21.49,28.89,.87,1.48,1.82,2.93,2.37,4.59,0,0-.14,.04-.14,.04-.61-1.58-1.63-2.99-2.57-4.4-7.02-9.71-14.78-18.86-22.31-28.18-25.54-32.06-51.96-64.38-74.25-98.49h0Z"/><path class="cls-89" d="M197.77,15.48c13.23,22.39,28.83,44.21,44.57,65.16,16.5,21.93,33.93,43.19,52.88,63.06l.11-.1c-34.62-41.01-68.83-82.61-97.44-128.12h-.13Z"/><path class="cls-89" d="M302.52,171.3c-28.27-32.05-58.57-64.46-82.35-99.72,11.78,19.13,26.67,37.25,41.08,54.79,13.11,15.84,26.8,31.21,41.27,45.82v-.89Z"/><path class="cls-89" d="M188.79,79.25c28.98,39.89,65.24,76.57,98.2,113.29,0,0-.11,.1-.11,.1-17.94-17.44-34.96-35.82-51.34-54.73-16.23-18.87-33.07-38.17-46.75-58.67h0Z"/><path class="cls-89" d="M75.96,122.98c28.98,39.89,65.24,76.57,98.2,113.29,0,0-.11,.1-.11,.1-17.94-17.44-34.96-35.82-51.34-54.73-16.23-18.87-33.07-38.17-46.75-58.67h0Z"/><path class="cls-89" d="M302.52,382.41c-29.9-32.76-61.52-65.76-87.35-101.32,13.68,20.49,30.52,39.8,46.75,58.67,13.08,15.1,26.57,29.84,40.6,44.05v-1.4Z"/><path class="cls-89" d="M191.64,192.67c20.32,30.59,44.92,57.92,69.1,85.45,0,0-.11,.11-.11,.11-13.3-12.68-25.42-26.53-36.85-40.89-11.34-14.28-22.87-29.28-32.15-44.67h0Z"/><path class="cls-89" d="M57.84,122.3c20.32,30.59,44.92,57.92,69.1,85.45,0,0-.11,.1-.11,.1-13.3-12.68-25.42-26.53-36.85-40.89-11.34-14.28-22.87-29.28-32.15-44.67h0Z"/><path class="cls-89" d="M10.08,562.28v1.13c6.17,8.6,12.72,17.03,19.22,25.22,11.43,14.36,23.56,28.21,36.85,40.89l.11-.1c-19.26-21.92-38.77-43.72-56.18-67.14Z"/><path class="cls-89" d="M135.54,215.08c23.97,36.19,52.58,71.69,78.14,106.79,0,0-.12,.09-.12,.09-14.26-16.85-27.63-34.43-40.55-52.32-12.8-17.84-26.19-36.04-37.48-54.56h0Z"/><path class="cls-89" d="M77.86,55.72c43.07,61.95,91.45,124.63,132.63,187.78,0,0-.13,.07-.13,.07l-1.96-3c-2.04-2.89-4.18-5.95-6.25-8.78-40.82-57.04-84.87-118.37-124.29-176.07h0Z"/><path class="cls-89" d="M302.52,505.38c-27.3-33.09-53.62-67.03-76.28-103.5,13.58,23.4,29.85,46.2,46.26,68.04,9.64,12.82,19.61,25.39,30.01,37.61v-2.14Z"/><path class="cls-89" d="M64.38,469.62c13.9,22.41,28.27,44.52,43.06,66.35,12.83,18.89,32.33,46.44,44.31,65.54,0,0-.13,.08-.13,.08-1.86-2.72-3.79-5.39-5.75-8.05-28.98-39.92-56.6-81.66-81.49-123.92h0Z"/><path class="cls-89" d="M123.79,470.73c9.42,15.04,19.77,31.29,29.76,45.88,7.76,11.25,15.77,22.31,23.85,33.33,2.67,3.69,5.42,7.36,7.7,11.33l-.13,.08c-5.36-7.38-11.4-14.22-16.82-21.57-10.89-14.65-20.62-30.12-30.33-45.56-3.57-5.79-10.68-17.56-14.15-23.41,0,0,.13-.08,.13-.08h0Z"/><path class="cls-89" d="M28.82,380.03c23.59,26.37,50.08,54.34,72.37,81.67,0,0-.11,.1-.11,.1-12.66-13.07-24.71-26.7-36.58-40.49-8.77-10.26-27.39-31.01-35.68-41.28h0Z"/><path class="cls-89" d="M148.48,530.41c18.25,26.45,41.69,50.83,61.95,75.73,0,0-.11,.1-.11,.1-11.54-11.57-22.28-23.9-32.55-36.6-10.13-12.64-20.99-25.61-29.29-39.23h0Z"/><path class="cls-89" d="M17.19,15.48c5.89,7.02,11.87,13.95,17.78,20.81,16.38,18.91,33.4,37.28,51.34,54.73l.11-.1C64.14,66.09,40.35,41.28,18.31,15.48h-1.13Z"/><path class="cls-89" d="M94.4,635.51h.78c-32.16-36.62-63.88-73.82-90.46-114.76,13.05,21.58,28.72,42.55,44.46,62.59,14.23,18.1,29.18,35.66,45.23,52.17Z"/><path class="cls-89" d="M77.83,635.51c-7.36-9.39-14.44-19-21.06-28.96,5.94,9.84,12.79,19.52,19.93,28.96h1.13Z"/><path class="cls-89" d="M10.08,122.74v1.28c8.39,12.32,17.22,24.41,26.1,36.23,16.5,21.93,33.93,43.19,52.88,63.06l.11-.1c-27.49-32.56-54.72-65.5-79.09-100.47Z"/><path class="cls-89" d="M302.52,112.66c-26.1-31.3-51.55-63.21-74.06-97.18h-.54c11.28,17.72,23.78,35.05,36.37,51.81,12.16,16.16,24.83,31.95,38.23,47.09v-1.72Z"/></g><g><path class="cls-46" d="M181.8,496.94c33.31,44.87,70.73,92.82,102.19,138.78,0,0-.16,.12-.16,.12-17.89-22.49-34.9-45.64-51.66-68.97-12.39-17.37-38.61-52.6-50.37-69.92h0Z"/><path class="cls-46" d="M121.49,462.05c29.02,46.61,64.27,88.81,99.25,130.99,0,0-.15,.14-.15,.14-19.15-19.69-36.59-40.97-53.02-62.95-16.32-21.87-32.76-44.77-46.08-68.18h0Z"/><path class="cls-46" d="M135.68,274.19c29.02,46.61,64.27,88.81,99.25,130.99,0,0-.15,.14-.15,.14-19.15-19.69-36.59-40.97-53.02-62.95-16.32-21.87-32.76-44.77-46.08-68.18h0Z"/><path class="cls-46" d="M150.68,181.03c29.02,46.61,64.27,88.81,99.25,130.99,0,0-.15,.14-.15,.14-19.15-19.69-36.59-40.97-53.02-62.95-16.32-21.87-32.76-44.77-46.08-68.18h0Z"/><path class="cls-46" d="M81.3,498.86c33.72,47.58,74.56,89.38,114.31,131.85,0,0-.14,.14-.14,.14-21.49-19.71-41.45-41.01-60.51-63.06-18.84-22.01-38.06-44.94-53.66-68.94h0Z"/><path class="cls-46" d="M9.62,379.54c15.6,22.54,32.56,44.09,49.72,65.45,16.04,20.06,33.07,39.48,47.24,60.96,.87,1.48,1.8,2.95,2.32,4.62l-.19,.06c-.63-1.57-1.67-2.96-2.62-4.37-7.09-9.66-14.88-18.77-22.44-28.07-25.48-32.06-52.01-64.53-74.03-98.66h0Z"/><path class="cls-46" d="M128.73,194.38c29.02,46.61,64.27,88.81,99.25,130.99,0,0-.15,.14-.15,.14-19.15-19.69-36.59-40.97-53.02-62.95-16.32-21.87-32.76-44.77-46.08-68.18h0Z"/><path class="cls-46" d="M152.82,253.36c25.67,37.85,57.65,70.71,87.31,105.36,0,0-.14,.14-.14,.14-16.48-15.85-31.74-32.9-46.25-50.56-14.32-17.58-29.38-35.8-40.91-54.94h0Z"/><path class="cls-46" d="M173.75,303.22c29.51,40.45,65.2,75.76,98.2,113.29,0,0-.14,.14-.14,.14-18.14-17.26-35.15-35.64-51.47-54.61-16.13-18.9-33.16-38.3-46.58-58.81h0Z"/><path class="cls-46" d="M99.84,455.4c18.63,29.81,39.17,58.91,61.15,86.3,1.47,1.83,2.97,3.65,4.52,5.42l-.14,.14c-13.72-13-24.94-28.38-35.51-43.97-7.73-11.23-15.81-23.96-22.95-35.66,0,0-7.24-12.13-7.24-12.13,0,0,.17-.1,.17-.1h0Z"/><path class="cls-46" d="M51.1,603.38c-7.98-11.09-16-22.12-23.82-33.34-5.93-8.62-12-17.83-17.93-27.02v1.63c5.41,8.86,11.13,17.97,16.61,26.28,5,7.63,10.03,15.26,15.56,22.54,5.46,7.32,11.53,14.13,17,21.43l.17-.11c-2.22-4.01-4.94-7.71-7.58-11.42Z"/><path class="cls-46" d="M9.34,330.02v1.87c4.32,5.76,8.75,11.44,13.12,16.99,11.37,14.42,23.5,28.29,36.99,40.78l.14-.14c-16.63-19.43-34.26-39.04-50.25-59.51Z"/><path class="cls-46" d="M9.34,476.09v1.22c8.62,12.95,18,25.77,26.95,38.36,12.86,17.95,26.22,35.53,40.69,52.22,0,0,.16-.12,.16-.12-22.04-30.98-45.96-60.57-67.8-91.68Z"/><path class="cls-46" d="M51.18,623.31c2.91,3.64,5.86,7.23,8.87,10.78h2.61c-14.07-16.3-28.3-32.45-40.59-50.16l-.17,.11c4.38,6.89,9.2,13.5,14.1,20.03,4.93,6.51,10.02,12.9,15.18,19.23Z"/></g></g><g id="Ebene_9"><polygon points="170.03 86.69 148.31 121.1 167.52 85.22 170.03 86.69 170.03 86.69"/><path d="M8.02,634.41c83.42-1.12,211.88-1.12,294.32-1.56,0,0-1.71,1.71-1.71,1.71,0,0-.14-77.31-.14-77.31,.29-175.09,2.01-366.41,.72-541.16,0,0,1.12,1.12,1.12,1.12,0,0-147.23,.61-147.23,.61l-147.23,.32s2.05-2.05,2.05-2.05c0,0,.12,77.11,.12,77.11,.04,167.34-1.01,373.6-2.03,541.21h0Zm-.29,.29C6.62,438.41,5.3,211.98,5.82,16.09c0,0,0-2.06,0-2.06,0,0,2.05,0,2.05,0s147.23,.32,147.23,.32c0,0,147.23,.61,147.23,.61,0,0,1.13,0,1.13,0v1.12c-1.53,201.34,1.13,416.94,.58,618.47,0,0,0,1.71,0,1.71,0,0-1.7,0-1.7,0-82.35,.35-211.35-1.26-294.61-1.56h0Z"/></g></svg>