<?xml version="1.0" encoding="UTF-8"?><svg xmlns="http://www.w3.org/2000/svg" viewBox="0 0 465 650"><defs><style>.cls-1{fill:#28484e;}.cls-2{fill:#74aeac;}.cls-3{fill:#29464b;}.cls-4{fill:#030506;}.cls-5{fill:#5b8f8f;}.cls-6{fill:#2c6d75;}.cls-7{fill:#5b9190;}.cls-8{fill:#fff;}.cls-9{fill:#050b0b;}.cls-10{fill:#438086;}.cls-11{fill:#27454b;}.cls-12{fill:#6ca8a7;}.cls-13{fill:#327780;}.cls-14{fill:#030404;}.cls-15{fill:#79b4b1;}.cls-16{fill:#30747d;}.cls-17{fill:#6aa19f;}.cls-18{fill:#568d8e;}.cls-19{fill:#66a4a3;}.cls-20{fill:#090e0e;}.cls-21{fill:#020303;}.cls-22{fill:#4b7a7a;}.cls-23{fill:#67a3a1;}.cls-24{fill:#538484;}.cls-25{fill:#619897;}.cls-26{fill:#30737c;}.cls-27{fill:#1b3e43;}.cls-28{fill:#669e9d;}.cls-29{fill:#1c3d41;}.cls-30{fill:#337880;}.cls-31{fill:#357880;}.cls-32{fill:#406569;}.cls-33{fill:#416967;}.cls-34{fill:#528384;}.cls-35{fill:#518886;}.cls-36{fill:#000101;}.cls-37{fill:#183b3f;}.cls-38{fill:#569392;}.cls-39{fill:#598988;}.cls-40{fill:#070e0f;}.cls-41{fill:#5a9897;}.cls-42{fill:#31757d;}.cls-43{fill:#59908f;}.cls-44{fill:#528f92;}.cls-45{fill:#020506;}.cls-46{fill:#659695;}.cls-47{fill:#030405;}.cls-48{fill:#1d444a;}.cls-49{fill:#010102;}.cls-50{fill:#4a7371;}.cls-51{fill:#235c64;}.cls-52{fill:#347980;}.cls-53{fill:#69a3a3;}.cls-54{fill:#569799;}.cls-55{fill:#3d6462;}.cls-56{fill:#609897;}.cls-57{fill:#70a9a7;}.cls-58{fill:#406a6b;}.cls-59{fill:#71adab;}.cls-60{fill:#6aa6a5;}.cls-61{fill:#78b3b0;}.cls-62{fill:#081719;}.cls-63{fill:#598c8b;}.cls-64{fill:#6ab1b5;}.cls-65{fill:#5b9a9b;}.cls-66{fill:#669494;}.cls-67{fill:#0f2022;}.cls-68{fill:#599393;}.cls-69{fill:#0e2022;}.cls-70{fill:#5b8283;}.cls-71{fill:#030505;}.cls-72{fill:#0b1a1c;}.cls-73{fill:#448086;}.cls-74{fill:#233635;}.cls-75{fill:#69a6a5;}.cls-76{fill:#102b2e;}.cls-77{fill:#478388;}.cls-78{fill:#6eabaa;}.cls-79{fill:#619493;}.cls-80{fill:#152324;}.cls-81{fill:#0b0e0e;}.cls-82{fill:#5ea0a1;}.cls-83{fill:#6aa6a4;}.cls-84{fill:#6da9a8;}.cls-85{fill:#568283;}.cls-86{fill:#467675;}.cls-87{fill:#5a9b99;}.cls-88{fill:#122d30;}.cls-89{fill:#0e1717;}.cls-90{fill:#76b1af;}.cls-91{fill:#010303;}.cls-92{fill:#355655;}.cls-93{fill:#5e9598;}.cls-94{fill:#1c3a3f;}.cls-95{fill:#436b6c;}.cls-96{fill:#498080;}.cls-97{fill:#396c6a;}.cls-98{fill:#101c1f;}.cls-99{fill:#629694;}.cls-100{fill:#31777f;}.cls-101{fill:#68a1a0;}.cls-102{fill:#599896;}.cls-103{fill:#090f0f;}.cls-104{fill:#29575e;}.cls-105{fill:#78b2b0;}.cls-106{fill:#2f6a72;}.cls-107{fill:#62908d;}.cls-108{fill:#193335;}.cls-109{fill:#558687;}.cls-110{fill:#10292c;}.cls-111{fill:#23565d;}.cls-112{fill:#315359;}.cls-113{fill:#5e9a9b;}.cls-114{fill:#0f1e20;}.cls-115{fill:#5e8e8c;}.cls-116{fill:#010202;}.cls-117{fill:#142f32;}.cls-118{fill:#509194;}.cls-119{fill:#214b4d;}.cls-120{fill:#75aeac;}.cls-121{fill:#549093;}.cls-122{fill:#7bb6b3;}.cls-123{fill:#5fa0a1;}.cls-124{fill:#609b9d;}.cls-125{fill:#72afad;}.cls-126{fill:#275557;}.cls-127{fill:#223838;}.cls-128{fill:#396365;}.cls-129{fill:#65a2a2;}.cls-130{fill:#010101;}.cls-131{fill:#6ea6a4;}.cls-132{fill:#6ba6a6;}.cls-133{fill:#1d4e54;}.cls-134{fill:#56908f;}.cls-135{fill:#589493;}.cls-136{fill:#639a9a;}.cls-137{fill:#0e2225;}.cls-138{fill:#518989;}.cls-139{fill:#4b888c;}</style></defs><g id="Ebene_2"><rect class="cls-119" x="-1.74" y="-1.53" width="468.28" height="653.06"/></g><g id="Ebene_6"><g><g><path class="cls-128" d="M222.48,270.07c-21.57,30.98-45.57,61.07-69.78,90.05-27.67,33.36-56.3,66.21-86.85,97-3.85,3.83-7.65,7.7-11.58,11.46l-.27-.26c3.5-4.15,7.08-8.23,10.6-12.35,31.44-36.66,65.38-73.23,96.63-109.94,5.25-6.14,15.76-18.68,20.88-24.94,13.77-16.74,27.29-33.7,40.06-51.24l.3,.21h0Z"/><path class="cls-128" d="M371.88,360.74c-9.63,13.89-20.53,28.7-31.01,41.96-32.71,40.58-67.05,80.37-106.87,114.2,0,0-.25-.27-.25-.27,40.71-43.61,85.59-88.31,122.06-135.35,4.71-5.83,11.22-14.7,15.77-20.75,0,0,.3,.21,.3,.21h0Z"/><path class="cls-128" d="M456.42,322.41c-28.21,31.94-58.66,62.93-87.09,93.38,0,0,.25,.27,.25,.27,31.78-27,60.08-57.81,86.84-89.78v-3.87Z"/><path class="cls-128" d="M233.7,387.09c-9.63,13.89-20.53,28.7-31.01,41.96-32.71,40.58-67.05,80.37-106.87,114.2,0,0-.25-.27-.25-.27,40.71-43.61,85.59-88.31,122.06-135.35,4.71-5.83,11.22-14.7,15.77-20.75,0,0,.3,.21,.3,.21h0Z"/><path class="cls-128" d="M456.42,462.76c-28.36,32.15-59.01,63.34-87.62,93.98l.25,.27c31.99-27.17,60.45-58.21,87.36-90.41v-3.85Z"/><path class="cls-128" d="M456.42,392.24c-28.22,31.96-58.69,62.96-87.14,93.43,0,0,.25,.27,.25,.27,31.8-27.01,60.11-57.84,86.88-89.83v-3.87Z"/><path class="cls-128" d="M456.42,146.8c-2.94,3.91-5.93,7.84-8.42,10.92-36.47,47.04-81.35,91.74-122.06,135.35,0,0,.25,.27,.25,.27,39.82-33.82,74.16-73.62,106.87-114.2,7.78-9.85,15.8-20.55,23.35-31.1v-1.24Z"/><path class="cls-128" d="M294.71,425.59c-9.63,13.89-20.54,28.7-31.01,41.96-32.71,40.58-67.05,80.37-106.87,114.2,0,0-.25-.27-.25-.27,40.71-43.61,85.59-88.31,122.06-135.35,4.71-5.83,11.22-14.7,15.77-20.75,0,0,.3,.21,.3,.21h0Z"/><path class="cls-128" d="M438.64,237.79c-28.85,37.71-61.68,73.39-93.78,108.39-10.27,11.02-25.72,26.59-35.97,37.64-2.84,3.19-6.02,6.3-8.08,10.04,0,0-.35-.12-.35-.12,1.63-4.13,4.57-7.47,7.14-11.01,18.96-23.83,40.5-45.4,61.43-67.44,23.81-25.27,47.4-50.77,69.32-77.72,0,0,.29,.23,.29,.23h0Z"/><path class="cls-128" d="M299.76,349.17c-25.01,29.93-53.42,63.58-77.6,93.81-6.8,8.28-14.4,17.3-21.13,25.55-3.93,5.04-8.31,9.85-11.45,15.43-.34,.74-.87,1.88,.14,1.7l.07,.37c-.28,.04-.58,.11-.84-.07-1.62-1.36,2.96-8.09,3.82-9.74,5.9-9.43,12.65-18.28,19.45-27.05,18.44-23.09,38.33-44.95,57.72-67.24,0,0,29.54-33,29.54-33l.28,.24h0Z"/><path class="cls-128" d="M233.63,152.01c-9.63,13.89-20.54,28.7-31.01,41.96-32.71,40.58-67.05,80.37-106.87,114.2,0,0-.25-.27-.25-.27,40.71-43.61,85.59-88.31,122.06-135.35,4.71-5.83,11.22-14.7,15.77-20.75,0,0,.3,.21,.3,.21h0Z"/><path class="cls-128" d="M344.54,203.59c-13.68,18.92-28.9,36.87-44.76,54-15.7,17.29-32.51,33.87-51.28,47.85,0,0-.24-.28-.24-.28,16.05-17.02,32.78-33.18,49.38-49.62,8.22-8.28,16.16-16.82,23.97-25.48,7.84-8.64,15.32-17.6,22.65-26.69l.3,.22h0Z"/><path class="cls-128" d="M155.9,267.27c-13.68,18.92-28.89,36.87-44.77,54-15.7,17.29-32.51,33.87-51.28,47.85,0,0-.24-.28-.24-.28,16.05-17.02,32.78-33.18,49.38-49.62,8.22-8.28,16.16-16.82,23.97-25.48,7.84-8.64,15.32-17.6,22.65-26.69l.3,.22h0Z"/><path class="cls-128" d="M238.81,192.77c-13.68,18.92-28.89,36.87-44.77,54-15.7,17.29-32.51,33.87-51.28,47.85,0,0-.24-.28-.24-.28,16.05-17.02,32.78-33.18,49.38-49.62,8.22-8.28,16.16-16.82,23.97-25.48,7.84-8.64,15.32-17.6,22.65-26.69l.3,.22h0Z"/><path class="cls-128" d="M232.8,373c-13.68,18.92-28.89,36.87-44.77,54-15.7,17.29-32.51,33.87-51.28,47.85,0,0-.25-.28-.25-.28,16.05-17.02,32.78-33.18,49.38-49.62,8.22-8.28,16.16-16.82,23.97-25.48,7.84-8.64,15.32-17.6,22.65-26.69l.3,.22h0Z"/><path class="cls-128" d="M426.29,218.27c-16.44,22.55-34.04,44.23-51.96,65.61-17.75,21.54-36.23,42.51-56.55,61.69,0,0-.27-.25-.27-.25,17.17-21.74,36.02-42.81,54.57-63.38,18.42-20.92,36.65-42.01,53.92-63.9,0,0,.3,.22,.3,.22h0Z"/><path class="cls-128" d="M279.65,239.88c-9.63,13.89-20.53,28.7-31.01,41.96-32.71,40.58-67.05,80.37-106.87,114.2,0,0-.25-.27-.25-.27,40.71-43.61,85.59-88.31,122.06-135.35,4.71-5.83,11.22-14.7,15.77-20.75,0,0,.3,.21,.3,.21h0Z"/><path class="cls-128" d="M413.76,452.51c-19.25,28.22-39.12,57.11-61.34,83.03-7.56,8.65-15.95,16.49-23.72,24.92,0,0-.3-.22-.3-.22,3-4.94,6.69-9.42,10.29-13.87,10.49-12.96,22.38-26.77,32.9-39.58,10.44-12.84,21.52-27.47,31.58-40.72,0,0,10.29-13.77,10.29-13.77l.3,.21h0Z"/><path class="cls-128" d="M406.73,395.58c-19.25,28.22-39.12,57.11-61.34,83.03-7.56,8.65-15.95,16.49-23.72,24.92,0,0-.3-.22-.3-.22,3-4.94,6.69-9.42,10.29-13.87,10.49-12.96,22.38-26.77,32.9-39.58,10.44-12.84,21.52-27.47,31.58-40.72,0,0,10.29-13.77,10.29-13.77l.3,.21h0Z"/><path class="cls-128" d="M406.73,349.92c-19.25,28.22-39.12,57.11-61.34,83.03-7.56,8.65-15.95,16.49-23.72,24.92,0,0-.3-.22-.3-.22,3-4.94,6.69-9.42,10.29-13.87,10.49-12.96,22.38-26.77,32.9-39.58,10.44-12.84,21.52-27.47,31.58-40.72,0,0,10.29-13.77,10.29-13.77l.3,.21h0Z"/><path class="cls-128" d="M392.31,393.18c-19.25,28.22-39.12,57.11-61.34,83.03-7.56,8.65-15.95,16.49-23.72,24.92,0,0-.3-.22-.3-.22,3-4.94,6.69-9.42,10.29-13.87,10.49-12.96,22.38-26.77,32.9-39.58,10.44-12.84,21.52-27.47,31.58-40.72,0,0,10.29-13.77,10.29-13.77l.3,.21h0Z"/><path class="cls-128" d="M456.42,533.83c-8.35,9.99-17.09,20.29-25.04,30.11-3.6,4.45-7.29,8.92-10.29,13.87,0,0,.3,.22,.3,.22,7.77-8.43,16.16-16.27,23.72-24.92,3.84-4.48,7.6-9.05,11.31-13.68v-5.6Z"/></g><path class="cls-128" d="M184.23,83.32c-21.57,30.98-45.57,61.07-69.78,90.05-27.67,33.36-56.3,66.21-86.85,97-3.85,3.83-7.65,7.7-11.58,11.46l-.27-.26c3.5-4.15,7.08-8.23,10.6-12.35,31.44-36.66,65.38-73.23,96.63-109.94,5.25-6.14,15.76-18.68,20.88-24.94,13.77-16.74,27.29-33.7,40.06-51.24l.3,.21h0Z"/><path class="cls-128" d="M482.13-8.26c-9.63,13.89-20.53,28.7-31.01,41.96-32.71,40.58-67.05,80.37-106.87,114.2,0,0-.25-.27-.25-.27,40.71-43.61,85.59-88.31,122.06-135.35,4.71-5.83,11.22-14.7,15.77-20.75,0,0,.3,.21,.3,.21h0Z"/><path class="cls-128" d="M106.13,369.14c-4.55,6.05-11.05,14.91-15.77,20.75-24.03,30.99-51.71,60.97-79.44,90.29v5.37c22.78-23.58,43.97-48.75,64.5-74.23,10.48-13.26,21.38-28.07,31.01-41.96,0,0-.3-.21-.3-.21Z"/><path class="cls-128" d="M106.61,298.08c-4.55,6.05-11.05,14.91-15.77,20.75-24.17,31.17-52.03,61.31-79.92,90.79v5.35c22.96-23.72,44.3-49.06,64.99-74.72,10.48-13.26,21.38-28.07,31.01-41.96,0,0-.3-.21-.3-.21Z"/><path class="cls-128" d="M404.96,56.59c-9.63,13.89-20.54,28.7-31.01,41.96-32.71,40.58-67.05,80.37-106.87,114.2,0,0-.25-.27-.25-.27,40.71-43.61,85.59-88.31,122.06-135.35,4.71-5.83,11.22-14.7,15.77-20.75,0,0,.3,.21,.3,.21h0Z"/><path class="cls-128" d="M10.92,226.73c28.02-30.62,56.12-61.88,81.22-94.69,0,0-.29-.23-.29-.23-21.91,26.95-45.5,52.46-69.32,77.72-3.86,4.06-7.73,8.1-11.61,12.15v5.04Z"/><path class="cls-128" d="M306.29,16.84c-13.68,18.92-28.9,36.87-44.76,54-15.7,17.29-32.51,33.87-51.28,47.85,0,0-.24-.28-.24-.28,16.05-17.02,32.78-33.18,49.38-49.62,8.22-8.28,16.16-16.82,23.97-25.48,7.84-8.64,15.32-17.6,22.65-26.69l.3,.22h0Z"/><path class="cls-128" d="M117.65,80.52c-13.68,18.92-28.89,36.87-44.77,54-15.7,17.29-32.51,33.87-51.28,47.85,0,0-.24-.28-.24-.28,16.05-17.02,32.78-33.18,49.38-49.62,8.22-8.28,16.16-16.82,23.97-25.48,7.84-8.64,15.32-17.6,22.65-26.69l.3,.22h0Z"/><path class="cls-128" d="M337.45,10.29c-5.64,6.86-11.39,13.61-17.35,20.18-7.81,8.66-15.75,17.2-23.97,25.48-16.59,16.44-33.33,32.6-49.38,49.62l.25,.28c18.77-13.98,35.58-30.56,51.28-47.85,14.1-15.21,27.68-31.09,40.13-47.71h-.96Z"/><path class="cls-128" d="M241.4,53.13c-9.63,13.89-20.53,28.7-31.01,41.96-32.71,40.58-67.05,80.37-106.87,114.2,0,0-.25-.27-.25-.27,40.71-43.61,85.59-88.31,122.06-135.35,4.71-5.83,11.22-14.7,15.77-20.75,0,0,.3,.21,.3,.21h0Z"/><path class="cls-128" d="M287.48,100.83c-19.25,28.22-39.12,57.11-61.34,83.03-7.56,8.65-15.95,16.49-23.72,24.92,0,0-.3-.22-.3-.22,3-4.94,6.69-9.42,10.29-13.87,10.49-12.96,22.38-26.77,32.9-39.58,10.44-12.84,21.52-27.47,31.58-40.72,0,0,10.29-13.77,10.29-13.77l.3,.21h0Z"/><path class="cls-128" d="M10.92,326.08c21.45-25.34,40.74-53.38,59.43-80.78l-.3-.21s-10.29,13.77-10.29,13.77c-10.07,13.25-21.14,27.88-31.58,40.72-5.51,6.71-11.39,13.7-17.26,20.69v5.81Z"/><path class="cls-128" d="M437.31,65.8c-19.25,28.22-39.12,57.11-61.34,83.03-7.56,8.65-15.95,16.49-23.72,24.92,0,0-.3-.22-.3-.22,3-4.94,6.69-9.42,10.29-13.87,10.49-12.96,22.38-26.77,32.9-39.58,10.44-12.84,21.52-27.47,31.58-40.72,0,0,10.29-13.77,10.29-13.77l.3,.21h0Z"/><path class="cls-128" d="M105.95,438.57c-19.25,28.22-39.12,57.11-61.34,83.03-7.56,8.65-15.95,16.49-23.72,24.92,0,0-.3-.22-.3-.22,3-4.94,6.69-9.42,10.29-13.87,10.49-12.96,22.38-26.77,32.9-39.58,10.44-12.84,21.52-27.47,31.58-40.72,0,0,10.29-13.77,10.29-13.77l.3,.21h0Z"/><path class="cls-128" d="M75.9,10.29c-12.74,15.42-25.85,30.52-39.07,45.53-8.64,9.58-17.34,19.27-25.91,29.09v5.51c9.68-10.62,19.02-21.56,28.17-32.65,13.07-15.59,25.96-31.35,38.35-47.47h-1.54Z"/><path class="cls-128" d="M115.02,17.72c-4.55,6.05-11.06,14.91-15.77,20.75-26.6,34.31-57.67,67.37-88.33,99.67v5c26.19-26.13,50.21-54.49,73.4-83.25,10.48-13.26,21.38-28.07,31.01-41.96,0,0-.3-.21-.3-.21Z"/><path class="cls-128" d="M106.66,228.19c-4.55,6.05-11.05,14.91-15.77,20.75-24.18,31.19-52.06,61.35-79.97,90.84v5.35c22.98-23.73,44.34-49.09,65.03-74.77,10.48-13.26,21.38-28.07,31.01-41.96,0,0-.3-.21-.3-.21Z"/><path class="cls-128" d="M109.97,468.18c-4.55,6.05-11.05,14.91-15.77,20.75-25.14,32.42-54.27,63.73-83.28,94.34v5.23c24.24-24.7,46.66-51.25,68.34-78.15,10.48-13.26,21.38-28.07,31.01-41.96,0,0-.3-.21-.3-.21Z"/><path class="cls-128" d="M382.56,10.29c-1.47,1.64-2.37,2.65-2.37,2.65-19.38,22.29-39.28,44.15-57.72,67.24-6.8,8.77-13.55,17.62-19.45,27.05-.86,1.65-5.44,8.38-3.82,9.74,.26,.18,.55,.12,.84,.07l-.07-.37c-1.01,.18-.48-.96-.14-1.7,3.13-5.58,7.51-10.39,11.45-15.43,6.73-8.25,14.32-17.27,21.13-25.55,16.33-20.4,34.58-42.37,52.41-63.7h-2.25Z"/><path class="cls-128" d="M196.61,10.29c-6.17,7.55-12.45,14.99-19,22.2-7.81,8.66-15.75,17.2-23.97,25.48-16.59,16.44-33.33,32.6-49.38,49.62l.24,.28c18.77-13.98,35.58-30.56,51.28-47.85,14.67-15.83,28.76-32.38,41.62-49.73h-.81Z"/><path class="cls-128" d="M159.44,10.29C127.24,48.45,90.83,85.17,57.24,121.14c0,0,.25,.27,.25,.27C96.31,88.45,129.92,49.8,161.89,10.29h-2.45Z"/></g></g><g id="Ebene_7"><g><path class="cls-128" d="M407.32,636.72c-1.28,0-2.49-.19-3.53-1-1.22-1.07-.51-2.2,.02-3.2,1.8-3.44,3.2-7.08,4.98-10.53,.45-.87,.92-1.75,1.13-3.14-2.63,4.11-4.4,8.22-6.74,12.02-.61,.99-1.12,2.32-2.6,1.93-1.41-.37-1.44-1.7-1.5-2.91-.02-.34,.02-.68-.04-1.01-.17-.91,.34-2.46-1.04-2.41-1.13,.04-.74,1.52-.7,2.37,.11,2.3,.4,4.58,2.67,5.95,.29,.17,.36,.55,.32,.91-.85,.78-1.91,.58-2.9,.58-11.49-.02-108.27-.27-113.92-.04-2.35,.1-4.72,.26-6.45-2.02-.7-.93-2.06-.47-3.14-.47-2.21,.25-2.27-1.92-3.34-2.96-.36-.52-.81-.98-.99-1.61-.08-2.06-.06-4.13-.23-6.18,.03-.24,.06-.49-.21-.66-1.7-.9-2.26-2.93-4-3.91,.49,1.27,1.36,2.21,1.97,3.3,1.73,3.06,1.11,7.15-1.46,9.53-.51,.48-1.06,.85-1.81,.66-1.61-.61-3.18-1.44-5-.85-5.13,.58-9.99-.27-14.58-2.66-.59-.85-1.1-1.75-1.9-2.44-.57-1.58-.64-3.49-2.73-4.06-1.44-2.66-3-5.24-4.31-7.97-1.91-3.99-1.09-6.73,2.78-8.85,.81-.45,1.56-.95,2.33-1.46,1.84-.62,3.5,.28,5.12,.8,2.75,.89,5.42,.93,8.15,.14,.36-.05,.74-.05,1.04-.32,1.25-.51,1.21-1.66,1.45-2.73,.49-2.16,2.04-2.75,3.71-1.29,2.92,2.55,6.16,5.04,4.63,9.75-.12,.38-.07,.92,.37,1.11,.61,.26,.99-.25,1.16-.69,.78-1.98,2.54-2.53,4.31-3.18,5.62-2.08,11.25-4.07,17.15-5.23,.46-.09,.95-.22,1.76-.81-6.15,.59-11.51,2.26-16.8,4.21-.95,.35-1.9,.7-2.82,1.11-1.73,.76-2.98,.49-3.34-1.6-.05-.26-.14-.5-.38-.66-2.39-1.29-4.28-3.22-6.48-4.74-2.58-1.79-3.48-1.36-3.79,1.74-.09,.9,.12,1.86-.52,2.66-.18,.16-.37,.31-.55,.46-.22,.12-.45,.18-.7,.19-.5,.03-.99,.21-1.5,.17-5.09-.84-10-2.32-14.85-4.02-.68-1.07-1.5-2.03-2.65-2.64-.62-1.27-1.32-2.5-1.78-3.85,.2-.62,.7-.91,1.23-1.2,.9-.49,1.11-1.16,.6-2.1-.97-1.77-.58-3.3,1.09-4.39,1.75-1.14,2.6-2.32,.83-4.15-.33-.34-.29-.95,0-1.43,1.4-1.03,2.59-.2,3.72,.5,3.65,2.29,6.84,5.19,10.11,7.97,.83,.71,1.54,1.56,2.29,1.96-3.14-3.81-6.84-7.42-11.03-10.49-1.96-1.43-3.78-3.1-6.08-4.05-1.77-.73-2.23-2.47-2.8-4.03-.38-1.05-.84-1.6-1.99-1.3-1.96-.34-3.42-1.66-5.05-2.63-1.01-.6-1.63-1.78-.85-2.78,1.6-2.05,1.88-5.04,4.52-6.33,.67-.25,1.32-.19,1.96,.1,4.17,1.88,8.2,4.06,11.57,7.13,1.63,1.48,3.63,2.07,5.34,3.27,3.97,2.77,6.97,6.03,6.77,11.27,.35,.04,.17-.23,.2-.35,.05-.24,.04-.5,.06-.75,.06-.87,.23-1.74,1.15-2.08,1.01-.38,1.81,.19,2.46,.88,2.44,2.59,4.12,5.52,4.15,9.2,.01,1.93,0,3.86,1.09,5.65,.24-2.57,.37-5.12-.18-7.7-.26-1.2-1-2.38-.44-3.69,1.69-2.24,3.16-4.66,5.14-6.69,.69-.71,1.34-1.51,2.46-1.55,1.21,.31,1.81-.4,2.47-1.28,4.57-6.08,8.29-12.71,12.58-18.97,4.01-5.85,8.66-11.19,13.22-16.6,4.79-5.69,10.52-10.48,15.24-16.23,.99-1.21,1.86-2.47,2.1-3.98,.51-3.15,1.21-6.34,.78-9.54-.91-6.76-1.27-13.57-1.83-20.36-.08-.92-.13-1.87,.46-2.69,.86-1.29,2.74-.25,3.6-1.57l.06-.23c2.7-.12,5.09,1.09,7.44,2.06,14.81,6.12,29.79,11.8,44.7,17.64,8.38,3.29,15.75,8.01,22.38,14.04,2.31,2.1,4.69,4.12,7.31,5.85,1.06,.7,2.15,1.56,3.37,1.69,4.69,.5,7.33,4.1,10.14,7.03,4.55,4.73,8.82,9.75,13.26,14.61,4.72,5.16,8.67,10.99,12.97,16.51,3.33,4.27,6.38,8.72,9.25,13.29,1.03,1.64,2.56,3.26,1.75,5.54-.59,2.9-.62,5.63,.49,8.57,.63,1.68,.35,3.95,.08,5.95-.04,.66-.25,1.33,.17,1.95-.13,4.41,.79,8.72,1.28,13.07,.39,3.43,.93,6.85,.79,10.33-.04,.94-.08,1.77-1.41,1.3-.8-.28-1.11,.18-1.11,.89,0,1.18-.15,2.41,.11,3.53,.77,3.23-.25,6.38-.2,9.57,.01,.64-.28,1.22-.99,1.26-1.35,.08-2.62,.74-3.99,.56-5.27-.69-37.93-1.54-40.59-1.54Z"/><path class="cls-64" d="M152.68,635.79c-7.6-.18-133.95-4.86-136.88-4.39-2.56,.42-3.43-.58-2.66-3.1,.32-1.06,.65-2.09,.59-3.2-1.01-1.21-.37-2.43,.06-3.57,3.32-8.85,8.61-16.47,14.71-23.59,.45-.52,.98-.92,1.69-1.01,.25,0,.48,.07,.68,.2q.12,1.42-.77,2.7c.37-.61,1.33-1.32,.96-2.56-.18-.14-.34-.3-.48-.47-.1-.21-.16-.43-.18-.66-.01-.24,.01-.47,.06-.7,.03-.12,.07-.23,.1-.34,.12-.34,.29-.65,.45-.98,2.1-3.26,4.34-6.43,6.89-9.36,2.21-2.54,4.11-2.27,5.49,.86,1.22,2.79,1.82,5.8,2.82,8.66,.32,.92,.38,2,1.62,2.84,.07-1.66-.66-2.88-1.01-4.18-1.07-3.96-1.61-8.1-4.67-11.31-1.07-1.12-.25-2.53,.64-3.66,3.41-4.34,7.44-8.05,11.63-11.6,6.56-5.56,13.17-11.07,19.86-16.47,6.59-5.32,13.91-9.54,21.19-13.81,5.17-3.03,10.35-6.04,15.41-9.26,4.89-3.12,10.18-5.33,15.83-6.56,4.85-1.06,8.89-3.52,12.61-6.69,1.25-1.07,2.38-2.43,4.22-2.59,2.1,.94,3.68,3.2,3,5.15-1.12,3.24-1.07,6.63-1.85,9.9-1.34,5.59-4.24,9.83-9.8,11.99-1.55,.6-3.09,1.25-3.16,3.44-.04,1.24-1.22,1.91-2.26,2.55-15.29,9.27-30.22,19.11-45.18,28.91-.84,.55-1.73,1.06-2.47,1.76-.81,.77-.79,1.67-.26,2.53,.63,1.01,1.48,.52,2.22,.12,17.27-9.45,35.74-16.35,53.31-25.19,4.82-2.43,9.59-4.96,14.42-7.36,1.21-.6,2.29-1.4,2.97-2.74-1.68-1.19-3.24-.66-4.73,.21-6.85,4.03-14.23,7.01-21.3,10.6-1.18,.6-2.35,1.41-3.81,1.02-.52-.12-.93-.38-1.15-.89-.28-1.71,.99-2.38,2.14-3.06,3.27-1.92,6.39-4.1,9.83-5.74,2.09-1,3.88-2.36,4.55-4.76,.34-.37,.72-.71,1.18-.94,4.54-.7,7.56-3.01,8.43-7.74,.12-.68,.41-1.6,1.41-1.53,.85,.05,1.41,.71,1.57,1.46,.71,3.18,2.55,5.37,5.42,6.89,1.33,.7,1.74,2.24,2.16,3.61,1.16,3.87,2.6,7.49,6.69,9.26,.71,.31,1.06,1.08,1.37,1.77,1.65,3.7,3.13,7.46,3.8,11.49,.57,3.44,2.85,5.96,6.17,6.79,.85,.21,1.39-.13,1.54-.86,.38-1.78,1.42-3.48,.74-5.41,.6-13.67-2.77-26.38-9.59-38.16-6.6-11.41-14.68-21.82-22.36-32.5-5.22-7.26-10.6-14.44-14.89-22.3-2.21-4.05-4.2-8.26-5.87-12.6-.21-2.66-1.01-5.18-1.74-7.73-.45-1.58-1.27-2.61-2.88-2.98-2.53-4.29-4.81-8.75-6.38-13.44-4.07-12.15-8.23-24.3-11.57-36.67-1.91-7.07-3.24-14.28-3.41-21.68-.19-7.88,2.36-14.9,5.99-21.66,1.39-2.6,2.9-5.15,4.69-7.5,.13-.23,.29-.45,.46-.65,.16-.2,.36-.37,.57-.52,2.68-1.72,4.44-4.37,6.43-6.72,3.8-4.5,7.61-8.99,11.54-13.36,6.65-7.39,12.94-15.07,18.97-22.96,.53-.69,1.08-1.28,1.84-1.68,.78-.32,1.16-.91,1.17-1.75,.99-2.78,3.21-4.67,5.07-6.8,1.35-1.54,2.42-3.16,3.21-5.06,1.14-2.75,3.23-4.87,5.24-6.99,1.24-1.3,2.32-2.66,2.86-4.39,.16-.52,.65-1.18,.03-1.62-.52-.37-1.15,.01-1.65,.3-1.72,.97-2.89,2.53-4.22,3.92-1.11,1.16-1.63,3.06-3.67,3.16-.24-.04-.47-.13-.67-.27-.89-.79-.25-1.94-.68-3.01-1.61,.26-2.96,.85-4.08,2.13-7.42,8.5-14.06,17.62-20.93,26.55-5.7,7.4-11.62,14.62-17.3,22.03-.64,.84-1.35,1.8-2.68,1.58-1.85-1.49,.21-3.02-.06-4.53,2.18-4.96,4.97-9.58,8.11-13.98,6.47-9.06,12.69-18.31,19.91-26.8,4.31-5.08,8.43-10.31,13.11-15.09,4.83-4.93,9.23-10.29,13.9-15.38,3.77-4.1,6.86-8.95,11.93-11.76,1.1-.61,2.11-1.41,3.44-1.5,2.26,2.31,5.07,1.75,7.76,1.31,4.12-.67,8.25-.39,12.38-.29,2.55,.06,2.86,.9,3.4,3.33,.89,4.02,1.86,8.03,3.13,11.96,.24,.74,.88,1.21,1.46,1.71,.78,.66,1.24,1.61,.66,2.47-1.21,1.79-.45,3.43,.17,5.05,.82,2.18,1.14,4.08-1.51,5.27-.93,.42-1.36,1.39-1.04,2.36,.94,2.81,1.17,5.74,1.61,8.64,.29,1.9,1.24,3.64,2.19,5.35,1.68,3.04,1.23,4.45-1.66,6.24-.36,.22-.86,.36-1.03,.72-1.47,3.15-4.58,4.07-7.35,5.41-8.66,4.18-16.19,10.05-23.73,15.87-9.15,7.06-17.93,14.56-26.06,22.8-10.89,11.04-20.21,23.27-28.17,36.56-.81,1.35-1.63,2.65,.27,3.79,.81,1.11,.67,2.42,.65,3.66-.1,7.72,1.33,15.25,2.85,22.76,2.4,11.83,5.52,23.45,10.58,34.47,.56,1.21,1.02,2.5,.98,3.89-2.31,3.12-.54,6.3,.01,9.41,.35,1.97,1.09,3.89,1.66,5.83,.9,3.1,2.25,5.99,2.26,9.47,0,3.37,2.14,6.5,3.61,9.64,6.98,14.96,16.07,28.65,25.48,42.15,4.86,6.99,8.96,14.48,14.14,21.27,3.12,4.09,6.56,7.91,9.83,11.87,1.87,2.26,4.54,1.9,6.9,2.39,1.4,.29,1.98-1.22,1.09-2.5-.39-.56-.83-1.07-.69-1.83,.13-.4,.4-.69,.76-.9,.91-.44,1.78-.21,2.67,.1,2.84,.98,5.63,2.12,8.49,3.07,1.11,.37,2.23,.84,2.39,2.27-.13,1.18-1.08,1.62-1.94,2.14-7.01,4.17-14.32,7.82-21.16,12.3-5.14,3.36-10.36,6.61-15.07,10.55-2.37,1.99-4.55,4.3-4.21,7.88,.1,1.05-.32,1.99-1.37,2.5-3.37-.25-4.15,1.8-4.75,4.66-1.74,8.35-6.01,15.69-9.94,23.13-2.28,4.32-4.36,8.74-6.86,12.94-.59,.99-.96,2.23-2.44,2.27Z"/><path class="cls-64" d="M161.6,636.01c-2.42-.07-2.95-.91-1.9-3.11,.32-.68,.67-1.35,1.34-1.77,1.43-.85,3.07,1.05,4.46-.34,2.65-4.6,3.66-9.78,5.19-14.76,1.71-5.57,3.38-11.13,5.64-16.51,1.24-2.96,2.06-6.05,2.73-9.2,.73-3.43,3.05-6.05,5.75-8.07,8.38-6.27,17.2-11.89,26.42-16.87,3.93-2.13,7.74-4.49,11.79-6.39,1.35-.63,2.71-.99,4.16-.76,1.19,.19,2.34,.53,2.56,2.01,.08,.67-.27,1.13-.77,1.49-.79,.58-1.26,1.11-.92,2.29,.3,1.05-.98,1.4-1.65,1.98-1.12,.98-1.13,1.23,.12,1.98,1.58,.95,3.33,1.63,4.72,2.9,.36,.23,.48,.58,.48,.98-1.17,2.63-3.63,1.67-5.3,1.37-2.56-.46-4.59,.31-6.78,1.2-2.65,1.08-4.8,3.16-7.68,3.71-.48,.05-1.01-.09-1.34,.44-.59,2.24-2.55,3.28-4.11,4.62-1.52,1.31-2.94,2.76-4.54,3.97-1.13,.85-1.34,1.79-1.16,3.02-.34,1.24-1.37,1.81-2.36,2.47-2.54,1.71-5.24,3.2-7.37,5.5,3.89-1.45,7.23-3.87,10.77-5.93,.36-.15,.74-.2,1.12-.17,.25,.03,.49,.11,.71,.23,1,.45,.33,2.16,1.91,2.33,2.15,.23,3.21-.37,3.25-2.58,.03-1.56,1.07-2.8,1.01-4.34,.75-1.69,2.41-2.29,3.85-3.1,5.51-3.13,11.4-5.34,17.57-6.77,2.25-.52,4.15,0,5.58,1.91,.12,.26,.17,.53,.17,.81-.02,.14-.05,.27-.07,.41,.59,1.63,2.43,2.25,3.18,3.87-1.36,1-2.72,1.96-4.03,2.99-1.23,.96-1.21,1.18-.24,2.41,.5,.63,1.61,1.09,1.3,1.97-.4,1.14-1.55,1.67-2.71,1.97-.32,.08-.66,.09-.99,.13-.25,.44,.07,.78,.19,1.17,.93,3.2,.05,5.06-2.89,6.66-9.86,5.35-19.18,11.58-28.58,17.67-.17,.11-.25,.22-.23,.4,7.92-5.19,16.52-9.19,24.43-14.36,2.33-1.52,4.96-2.54,7.64-3.31,2.98-.86,5.14-.17,6.39,1.83-.7,1.34-2.09,1.9-3.18,2.79-1.97,1.59-2.41,2.91-1.32,5.22,1.08,2.27,2.31,4.47,3.48,6.69,.43,.81,1.01,1.57,.7,2.58,1.84,3.03,.62,7.42-2.52,8.76-1.71,.73-3.36,1.59-5.1,2.22-.86,.31-1.77,.63-2.7,.15-8.69,.07-17.36,.7-26.04,1.19"/><path d="M317.06,484.73c.3,6.99,.66,13.98,1.64,20.92,.58,4.08,.05,8.08-.52,12.09-.29,2.02-1.45,3.56-2.81,4.98-4.31,4.52-8.67,8.99-12.92,13.57-7.01,7.57-13.37,15.65-18.83,24.42-2.86,4.59-5.9,9.04-9.29,13.26-.42,.52-.85,1.05-1.34,1.51-.77,.74-1.17,.04-1.59-.49-.03-.12-.06-.25-.09-.37-.07-.24-.1-.49-.08-.74,6.27-10.05,11.9-20.51,19.43-29.77,5-6.15,10.12-12.16,15.75-17.73,2.03-2.01,3.52-4.53,5.85-6.26,1.04-.58,1.07-1.6,1.25-2.6,.92-5.17,.86-10.35,.16-15.52-.35-2.58-.38-5.19-.43-7.77-.06-2.94-.21-5.85-.84-8.72-.54-7.04-1.13-14.08,.19-21.09,.21-.34-.15-.84,.3-1.12-.51,.22-.06,.68-.26,.99-.6,6.57-2.02,13-2.88,19.52-.3,2.27-.1,4.55-.27,6.83-.11,1.35-.4,2.65-2.07,2.65-1.6,0-2.42-1.04-2.6-2.57-.45-3.82,0-7.59,.87-11.3,.27-1.17,.41-2.31,.45-3.48,.11-1,.49-1.95,.5-2.97,.15-4.93,1.82-9.58,2.88-14.32,1.95-8.75,4.5-17.36,6.45-26.12,.46-2.07,1.22-4.03,1.98-5.99,2.61-4.86,3.54-10.25,4.98-15.48,.88-3.2,.73-6.31-.2-9.59-.8-2.84-.78-5.94-1.44-8.88-1.11-9.37,.28-18.7,.37-28.06,.04-4.44,.78-8.89,1.06-13.35,.11-1.71-.11-3.36-.24-5.03-.35-1.83,.83-3.67-.02-5.49-.76-6.36-3.02-12.35-4.58-18.52-2.31-9.09-7.14-16.78-12.58-24.19-1.63-2.23-3.5-4.3-5.52-6.2-2.64-1.31-4.29-3.77-6.48-5.61-4.08-3.43-8.44-6.41-13.15-8.92-4.41-2.35-8.1-5.74-12.08-8.72-6.48-4.85-13.34-9.14-20.03-13.67-6.84-4.63-14.27-8.31-21.1-12.96-2.06-1.4-4.43-1.95-6.97-1.9-6.24,.13-12.41-1.08-18.65-1.06-.52,0-.99-.18-1.44-.45-.75-.63-.89-1.33,.22-1.51,.92-.14,1.88-.61,2.84-.14,.17-.02,.34-.03,.51-.05,.5-.24,.99-.32,1.49,0,4.82,.02,9.64,.23,14.45,0,4.65-.23,8.68,1.26,12.4,3.69,3.9,2.55,8.02,4.71,12.11,6.87,4.72,2.49,9.18,5.4,13.63,8.29,3.68,2.39,7.56,4.5,11.04,7.18,6.5,5,13.11,9.81,20.33,13.75,3.57,1.95,6.63,4.64,9.62,7.39,3.79,3.49,7.58,6.97,10.77,11.06,5.19,6.66,9.19,13.93,11.42,22.12,1.81,6.68,3.97,13.26,5.16,20.11,1.02,5.88,.96,11.76,.43,17.66-.43,4.79-1.23,9.54-1.21,14.38,0,1.68-.24,3.37-.48,5.03-.8,5.63-.54,11.3-.51,16.95,.03,3.73,.66,7.4,1.57,11,.61,2.43,.44,4.82,.26,7.28-.51,6.94-3.06,13.29-5.38,19.72-1.01,2.8-1.49,5.71-2.21,8.58-1.05,4.17-2.19,8.32-3.29,12.48,.39,.78-.24,1.53-.09,2.3,0,.22-.04,.44-.1,.66-.23,.38-.42,.77-.4,1.24,0,.11,0,.22,0,.33,1.04,.44,1.55,1.19,1.48,2.35-.03,.58,.03,1.17,.02,1.76-.14,6.87,.44,13.72,.57,20.59,.02,.93,.18,1.83,.52,2.7,.03,.11,.06,.22,.08,.33,.22,.53,.52,1.04,.32,1.65-.09,.22-.22,.4-.41,.55Z"/><path class="cls-128" d="M152.76,302.16c-.83-.33-.99,.44-1.32,.85-3.87,4.77-7.65,9.63-11.61,14.32-4.51,5.34-9.2,10.51-13.78,15.8-3.53,4.07-6.99,8.2-10.49,12.3-.43,.51-.76,1.13-1.47,1.32-.95-1.22-.18-2.17,.45-3.18,2.27-3.67,5.28-6.75,8.09-9.98,5.39-6.21,10.53-12.66,16.06-18.74,5.56-6.12,10.01-13.03,15.03-19.53,2.92-4.01,5.92-7.95,8.84-11.96,.73-1.1,1.44-2.2,2.2-3.21-.02,.05-.04,0-.06,.04-.74,1.03-1.4,2.05-2.08,3.06-2.79,3.95-5.83,7.71-8.56,11.7-4.34,5.24-7.71,11.21-12.25,16.3-4.2,4.7-8.17,9.61-12.3,14.37-8.1,9.34-16.57,18.39-22.4,29.47-1.14,2.17-2.11,4.4-3.05,6.65-.45,1.08-.75,2.26-1.88,2.89-.62-.19-.96,.72-1.62,.43-.08-1.98-.29-3.98,.45-5.9,.55-8.54,3.32-16.36,7.65-23.67,.38-.65,.88-1.23,1.45-1.73,1.72-.56,2.37-2.53,4.07-3.12,11.34-14.57,22.66-29.15,34.02-43.7,1.92-2.46,4.04-4.75,6.01-7.17,1.49-1.82,3.73-2.21,5.71-3.08,.65-.29,.97,.26,.85,.82-.27,1.32-.64,2.61-.97,3.92,0,.61-.3,1.07-.73,1.47,.47-.42,.74-1.02,1.26-1.39,1.69-1.99,3.45-3.93,5.06-5.99,1.41-1.8,3.5-2.28,5.44-3.04,.76-.3,1.13,.24,.94,.97-.53,2.03-.81,4.13-2.33,5.8-1.36,1.49-2.53,3.16-3.91,4.65-1.51,1.63-2.86,3.27-3.29,5.55-.22,1.18-1.23,1.99-2.01,2.87-2.14,2.39-4.25,4.8-6.12,7.41-.84,.6,.05,2.15-1.35,2.45Z"/><path d="M101.56,364.61c3.14-8.54,7.82-16.22,13.18-23.5,3.35-4.55,7.43-8.51,11.08-12.82,6.8-8.05,14.06-15.71,20.49-24.07,2.46-3.2,4.55-6.69,7.31-9.67,.9-.06,.96,.34,.56,1-5.14,7.71-10.56,15.2-16.69,22.18-6.44,7.34-12.68,14.86-18.94,22.36-1.72,2.05-3.46,4.12-4.46,6.67,0,0,0,0,0,0-.13,.22-.29,.43-.46,.63-4.15,5.72-7.27,11.97-9.5,18.65-1.05,3.14-.95,6.49-1.09,9.78-.25,5.8,1.11,11.41,2.19,17.03,.91,4.73,2.15,9.38,3.78,13.91,3.13,8.74,5.42,17.75,8.52,26.5,1.75,4.94,4.41,9.48,6.32,14.36,.72,.56,1.41,1.05,1.73,2.04,.94,2.95,2.1,5.82,3.23,8.7,4.96,12.32,12.43,23.14,20.15,33.82,6.82,9.43,13.65,18.86,20.13,28.53,7.43,11.08,11.24,23.29,12.58,36.41,.24,2.36,.37,4.71-.14,7.05-.24,.54-.38,1.13-.72,1.62-.94,1.36-2.4,1.25-3.21-.21-.34-.6-.46-1.26-.39-1.95,.83-8.02-1.72-15.44-3.88-22.98-2.98-10.38-9.67-18.6-15.33-27.44-1.54-2.41-3.38-4.62-4.74-7.14-.32-.82-.82-1.59-.62-2.54-6.33-8.55-12.36-17.3-18.1-26.25-1.55-2.42-3-4.89-4.12-7.55-1.05-2.49-2.19-4.94-3.54-7.29-2.41-4.19-4.04-8.73-5.88-13.18-2.35-5.69-5.37-11.11-7.2-17.02-3.7-11.94-7.54-23.83-10.99-35.84-1.91-6.65-2.77-13.55-2.81-20.51-.01-1.95,.61-3.84,.41-5.8-.33-1.03,.2-2.02,.13-3.04,.24-.86,.2-1.83,1.04-2.43Z"/><path class="cls-128" d="M140.53,539.9c.37,1.35-.25,2.25-1.27,3.07-1.24,1-2.5,1.91-3.94,2.63-4.04,2.01-7.83,4.46-11.59,6.97-.79,1.62-2.66,1.66-3.6,2.51,1.31-.72,2.86-1.68,4.7-1.92,7.46-3.4,14.87-6.89,22.11-10.73,.67-.36,1.39-.66,1.99-1.1,2.7-1.99,5.36-1.14,8.48,.05-1.91,1.81-3.54,3.45-5.62,4.58-10.55,5.72-21.45,10.75-32.34,15.78-10.81,5-21.82,9.58-32.38,15.12-1.57,.82-3.12,1.68-4.69,2.52-.84,.45-1.46,.31-1.74-.68-.11-.41-.26-.8-.39-1.21-.84-2.71-.86-2.74,1.5-4.3,15.67-10.31,31.35-20.61,47.39-30.34,.36-.22,.73-.43,1.09-.64,.79-.47,1.15-.99,.31-1.77-.83-.77-.45-1.33,.37-1.74,1.44-.72,2.85-1.5,4.34-2.09,3.8-1.53,6.06-4.44,7.52-8.11,1.17-2.95,1.27-6.1,1.74-9.18,.1-.66,.14-1.35,.36-1.98,.27-.75,1.19-1.3,.68-2.27-.65-1.23-.61-2.87-2.11-3.6-.23-.49-.2-1.02,.1-1.43,1.46-2,3.2-3.77,4.77-5.69,.34-.41,.88-.42,1.39-.37,.58,.08,.88,.43,.96,.99,.06,3.16,.29,6.32,.29,9.49,0,3.97-.48,7.85-1.37,11.7-1.38,5.93-5.39,10.96-10.64,13.48,.59-.26,1.14-.26,1.6,.27Z"/><path d="M149.7,503.97c-1.99,2.57-4.04,5.09-6.25,7.48-2.73,2.39-5.42,4.82-8.5,6.78-2.09,1.33-4.3,2.37-6.72,2.86-6.29,1.26-12.07,3.78-17.46,7.19-5.64,3.57-11.42,6.87-17.17,10.25-9.26,5.43-18.16,11.37-26.21,18.54-4.6,4.1-9.47,7.89-14.17,11.88-4.06,3.45-7.78,7.25-11.03,11.73,2.34,1.22,3.3,3.38,4.11,5.7,1.22,3.5,1.6,7.26,3.31,10.61,.66,1.3-.61,1.53-1.27,2.05-.76,.6-1.22,.07-1.61-.55-.97-1.51-1.51-3.2-2.03-4.89-.67-2.17-1.3-4.36-2.02-6.52-.42-1.27-.87-2.55-2.15-3.7-3.34,3.59-6.12,7.53-8.62,11.69-.05,.27-.23,.45-.41,.63h0c-.17,.15-.3,.33-.36,.54-.11,.11-.18,.25-.2,.4-.09,.24-.16,.48-.42,.59-2.72,3.73-5.83,7.15-8.44,10.98-3.58,5.26-6.21,10.93-8.32,16.88-.62,.53-.45,1.44-.97,2.02-.29,.33-.63,.61-1.08,.53-.55-.09-.55-.59-.54-.99,.02-.59,.06-1.19,.21-1.75,1.39-5.24,3.19-10.27,6.27-14.83,2.88-4.27,5.88-8.44,9.33-12.27,2.21-2.46,3.5-5.56,5.63-8.09,1.14-1.35,2.15-2.82,3.3-4.17,1.24-1.47,2.26-2.93,2.99-4.83,1.04-2.72,3.29-4.86,5.27-7.05,4.53-5.03,9.7-9.39,14.87-13.72,5.23-4.39,10.3-8.98,15.77-13.08,6.57-4.92,13.7-8.94,20.75-13.1,3.92-2.31,7.93-4.48,11.77-6.95,6.8-4.39,14.05-7.7,22.19-8.73,.32-.04,.61-.26,.91-.4,1.37-.97,2.81-1.78,4.46-2.17,3.51-2.51,6.96-5.11,9.75-8.46,0-.12,0-.23-.01-.35,0-.23,.04-.46,.08-.69,.49-1.81,1.9-2.54,3.54-3,.2-.14,.4-.28,.6-.43,.45-.35,.94-.92,1.47-.34,.4,.43-.17,.87-.4,1.28-.08,.14-.13,.3-.2,.45Z"/><path d="M452.49,580.89c-1.24-2.1-2.42-4.24-3.73-6.3-5.96-9.45-13.02-18.09-20.01-26.78-3.16-3.93-7.02-7.31-10.23-11.23-2.79-3.41-5.85-6.54-9.14-9.46-.9-.8-1.71-1.43-3.07-1.42-2.3,0-4.17-1.31-5.89-2.66-3.12-2.46-6.2-4.97-9.17-7.59-4.8-4.22-10.09-7.62-15.98-10.12-5.37-2.27-10.76-4.46-16.23-6.48-9.19-3.39-18.21-7.21-27.16-11.18-3.87-1.72-7.89-3.02-11.79-4.64,0-.47-.16-1.12,.71-.84,4.08,1.34,8.26,2.4,12.19,4.17,2.23,1.01,4.5,1.94,6.84,2.65,6.47,1.97,12.56,4.95,18.99,7.02,6.03,1.94,11.96,4.12,17.83,6.49,7.21,2.92,13.66,6.95,19.35,12.24,2.22,2.06,4.6,3.97,6.92,5.92,.51,.43,1.09,.78,1.65,1.17,1.53,1.06,3.78,.55,4.98,2.41,1.06,1.65,2.74,2.7,4.28,3.87,1.55,1.18,2.93,2.52,4.21,3.99,1.88,2.16,3.88,4.21,5.82,6.31,.26,.13,.49,.32,.67,.55l-.05-.04c.21,.16,.39,.34,.55,.55l-.04-.05c.21,.16,.39,.34,.55,.56l-.05-.05c.13,.12,.23,.27,.3,.44,.15,.23,.35,.41,.53,.61,.24,.27,.49,.53,.8,.73,.17,.06,.32,.16,.45,.3l-.05-.04c.15,.09,.21,.2,.18,.32-.03,.12-.07,.18-.12,.18,7.14,7.64,13.16,16.19,19.77,24.27,2.66,3.25,5.04,6.76,6.54,10.76,.42,1.13,.74,2.23,.27,3.43-.23,.61-.62,.73-1.18,.54,0,0-.24,.01-.24,.01-.16-.07-.26-.19-.3-.36,0,0,.06-.23,.06-.23Z"/><path class="cls-130" d="M111.03,334.06c-2.01,3.2-4.16,6.31-5.19,10.02-.25,.89-.6,1.76-1.02,2.58-1.22,2.36-1.79,4.85-1.99,7.5-.14,1.79,0,3.78-1.82,5-.92-.59-1.07-1.46-.85-2.44,.33-1.5,.33-3.02,.3-4.54-.02-1.28,.08-2.56,.53-3.74,1.35-3.63,2.31-7.42,4.28-10.8,2.63-4.52,4.61-9.39,7.34-13.87,4.4-7.22,9.48-13.96,14.3-20.89,6.62-9.51,14.37-18.1,21.56-27.15,6.05-7.63,12.54-14.81,19.52-21.57,3.03-2.93,5.51-6.4,8.98-8.89,4.62-3.32,9.48-6.15,15.04-7.62,.9-.24,1.81-.4,2.75-.36h0c2.68-.9,5.37-1.68,8.18-.5-.92,.21-1.85,.41-2.77,.65-.32,.08-.32,.41-.05,.22,.05-.03,.25,.14,.37,.23-.02,.8-.53,1.28-1.22,1.39-2.89,.47-5.62,1.69-8.57,1.83-.74-.35-1.46-1.6-2.23-.03-1.24,1.16-2.76,1.38-4.37,1.3-2.41,1.24-4.67,2.71-6.67,4.54-.99,.9-2.48,1.47-2.27,3.33,.05,.44-.75,1.15-1.31,1.45-1.48,.79-2.44,2.07-3.47,3.28-4.81,5.66-9.82,11.13-14.85,16.59-11.06,11.99-21.03,24.84-30.28,38.27-3.35,4.86-6.77,9.68-9.41,14.99-.26,.52-.49,1.06-.74,1.59-1.63,2.4-1.79,5.59-4.07,7.65Z"/><path class="cls-128" d="M161.86,631.27c-.5,.96-1.03,1.9-1.48,2.88-.61,1.34-.49,1.53,1.06,1.59,1.91,.09,3.82,.08,5.72,.15,.4,.01,.8,.18,1.2,.28-2.19,.29-4.39,.15-6.57,.03-1.89-.1-10.32,2.01-9.11-.41,4.5-8.7,9.06-17.37,13.49-26.1,2.57-5.06,4.57-10.34,5.35-16.02,.27-1.96,.71-2.18,2.76-1.81,.75,.13,1.5,.25,2.25,.38,1.13,.89,.64,1.95,.32,2.99-1.1,3.55-2.86,6.83-4.26,10.26-2.7,6.64-4.33,13.64-6.81,20.36-.43,1.16-.56,2.5-1.69,3.3-1.2,.22-.88,2.04-2.23,2.12Z"/><path class="cls-36" d="M229.75,632.73c2.61-1.38,5.19-2.81,8.06-3.59,.97-.26,1.31-.86,1.42-1.8,.23-1.92,.55-3.83,.84-5.74,2.72,.03,2.78,.09,2.87,2.8,.01,.42,.05,.83,.07,1.25,.36,.74,.73,1.48,1.48,1.92,2.56,.81,5.07,1.76,7.75,2.17,1.5,.23,2.97,.58,4.48,.11,.86-.27,1.63,.34,2.47,.27,1.28-.03,1.42,.58,.88,1.58-.29,.22-.65,.29-.93,.5v-.02c-.35,1.42-1.3,2.18-2.72,2.09-2.31-.14-4.85,1.02-6.82-1.13-1.46-.71-3.2-.54-4.6-1.45-1.17-.04-2.34,.5-3.52,.06-1.51,.47-3.05,.84-4.51,1.42-2.26,.88-4.6,.65-6.93,.65-1.13,0-.68-.57-.3-1.07Z"/><path class="cls-36" d="M400.28,635.69c-2.15,.12-2.94-1.32-3.55-3.03-.74-2.04-.69-4.14-.63-6.25,.02-.76-.33-1.8,1.04-1.87,1.61-.09,2.73,.53,2.86,1.79,.11,1.08,0,2.19,.05,3.28,.04,.89-.17,1.88,.92,2.75,.94-1.62,1.89-3.18,2.76-4.77,1.67-3.03,3.3-6.07,4.95-9.11,.44-.82,.88-1.65,1.85-1.98,.83-.28,1.41,.11,1.25,.96-.15,.82-.44,1.63-.79,2.38-1.89,4.14-3.83,8.25-5.74,12.38-.53,1.14-1.28,2.19-1.46,3.48-.19,.36-.31,.8-.59,1.08-1.34,1.36-1.93,1.2-2.68-.68-.06-.15-.16-.28-.25-.43Z"/><path class="cls-116" d="M140.53,539.9c-1.44,.43-2.8,1.13-4.34,1.23-.55,.03-1.05,.03-1.14-.63-.07-.53,.39-.72,.78-.82,1.54-.41,3.08-.81,4.44-1.73,3.23-2.19,5.6-5.03,7.01-8.69,1.8-4.68,2.71-9.53,2.72-14.53,0-2.6,.24-5.21-.22-7.8-.15-.85,.28-1.45,.89-1.95,.21,.04,.42,.08,.63,.12,.11,.09,.22,.19,.33,.28,.91,1.67,1.28,3.46,1.21,5.36-.17,4.63,.43,9.28-.54,13.88-.77,3.67-2.66,6.88-4.39,10.11-1.31,2.45-4.11,3.39-6.47,4.69-.3,.17-.6,.33-.9,.5Z"/><path class="cls-49" d="M270,622.56c.89,2.12,1.14,4.27,.26,6.47-.85,4.11-2.19,4.96-6.5,4.16-.02-.35-.03-.69-.05-1.04-.12-.18-.08-.31,.1-.42,5.17-6.54,3.69-7.17,.65-11.91-.45-.71-.94-1.39-1.36-2.12-.25-.43-.48-1-.12-1.41,.48-.55,1.07-.15,1.61,.06,.73,.28,1.26,.82,1.78,1.37,1.28,1.34,2.37,2.82,3.38,4.36,.22,.09,.29,.25,.25,.48Z"/><path class="cls-2" d="M452.98,596.17c-.46-3.24-.87-6.49-1.38-9.72-.31-1.97-.17-3.83,.89-5.56,0,0,.01,.02,.01,.02,0,.29,.24,.42,.41,.6l.06-.04c.35,1.22,.57,2.41-.1,3.62-.71,1.26,.14,2.28,.73,3.23,.4,.65,.94,1.18,.77,2-.42,1.95-.21,4-.92,5.91-.19,.34-.35,.33-.47-.05Z"/><path class="cls-4" d="M271.35,630.1c1.12,1.02,1.13,2.81,2.53,3.63,.49,1.04,1.72,1.53,2.15,2.69q-2.99,.59-4.57-2.71c-.72-.5-2-.43-2.1-1.54-.12-1.29,0-2.67,2-2.07Z"/><path class="cls-6" d="M271.35,630.1c-1.72,.45-2.15,1.55-1,2.67,.34,.33,.93,.39,1.11,.94-.33,.03-.71-.05-.98,.09-2.39,1.3-4.54,.23-6.72-.62,3.46,.62,4.8-2.06,6.5-4.16,.36,.36,.73,.72,1.09,1.08Z"/><path class="cls-26" d="M148.23,503.02c-1.03,1.17-2.06,2.33-3.1,3.5-.2,.15-.43,.26-.51,.52,0,0,0,.02,0,.02-1.76-2.52-1.71-2.76,1.06-3.84,.8-.31,1.63-1.02,2.55-.2Z"/><path class="cls-131" d="M263.81,631.73c0,.14-.04,.28-.1,.42-1.33,0-2.66,.02-3.99,.03-.16-.1-.22-.21-.17-.32,.05-.12,.09-.17,.14-.17,1.03-.89,.02-1.15-.48-1.57,.18-.38,.45-1.05,.78-.82,1.25,.86,3.23,.6,3.82,2.45Z"/><path class="cls-59" d="M317.06,484.73c-.04-.18-.08-.36-.13-.53-.22-.68-.4-1.36,.13-2,0,0,0,0,0,0,1.16-.14,1.8,1.2,2.96,1.04,.03,.84,.1,1.68-.38,2.67-.84-.43-1.59-1.15-2.58-1.19Z"/><path class="cls-22" d="M134.87,515.52c-1.42,.87-2.82,1.77-4.46,2.17,1.25-1.52,2.64-2.2,4.46-2.17Z"/><path class="cls-25" d="M152.64,503.5c.4,.63,1.04,1.13,1.15,1.93-.87,1.37-1.61,.94-2.3-.17-.12-.58,.15-.97,.59-1.28,.19-.16,.37-.32,.56-.48Z"/><path class="cls-95" d="M100.9,367.05c.18,1.06-.25,2.03-.5,3.02-.68-1.18-.63-2.36-.03-3.54,.36-.01,.37,.34,.53,.52Z"/><path class="cls-58" d="M314.53,452.79c-.17-.91,.29-1.68,.52-2.51,.68,1.17,.58,2.35,.04,3.53-.58-.13-.28-.73-.56-1.03Z"/><path class="cls-87" d="M241.49,631.74c1.17-.05,2.33-1.11,3.52-.06-1.16,1.05-2.33,1-3.52,.06Z"/><path class="cls-106" d="M434.23,538.61c-.26-.07-.4-.26-.37-.51,.04-.36,.27-.56,.64-.51,.26,.03,.43,.24,.39,.49-.06,.33-.28,.54-.65,.53Z"/><path class="cls-104" d="M204.93,236.75c-.5,0-.99,0-1.49,0,.73-.74,1.61-.99,3.02-.87-.7,.4-1.12,.64-1.53,.88Z"/><path class="cls-39" d="M100.9,367.05c-.18-.17-.36-.35-.53-.52,.06-.49,.12-.98,.19-1.47,.3-.23,.48-.75,1.01-.45-.22,.82-.44,1.63-.66,2.45Z"/><path class="cls-46" d="M314.53,452.79c.19,.34,.37,.68,.56,1.03-.08,.41-.19,.8-.62,.99,0,0-.05-.03-.05-.03-.28-.51-.29-1.03,0-1.55,.03-.15,.06-.3,.11-.44Z"/><path class="cls-93" d="M452.98,596.17c.16,.01,.31,.03,.47,.04,0,.51-.02,1.02-.03,1.53-.46-.44-.52-.99-.44-1.58Z"/><path class="cls-134" d="M427.06,541.82c-.42-.17-.71-.47-.9-.88l.12,.03c.37,.15,.61,.43,.76,.79l.02,.06Z"/><path class="cls-80" d="M152.08,503.99l-.38,1.01c-.11,.25-.24,.26-.39,.03,0,0-.02,.05-.02,.05-.12-.64,.25-.93,.79-1.1Z"/><path class="cls-135" d="M426.28,540.97s-.12-.03-.12-.03c-.16-.16-.32-.33-.48-.49l.06,.02c.26,.08,.6,.08,.53,.51Z"/><path class="cls-63" d="M424.53,538.97c-.37,0-.54-.25-.67-.55,.22,.18,.45,.37,.67,.55Z"/><path class="cls-43" d="M425.03,539.48c-.38,.01-.54-.2-.55-.55,.3,.07,.48,.26,.55,.55Z"/><path class="cls-41" d="M425.53,539.99c-.39,.02-.56-.18-.55-.56,.3,.07,.49,.25,.55,.56Z"/><path class="cls-102" d="M425.75,540.46s-.06-.02-.06-.02c-.07-.17-.13-.34-.2-.51,.24,.1,.5,.19,.26,.53Z"/><path class="cls-100" d="M259.69,631.68c0,.17,.02,.33,.03,.5-.19,0-.37,0-.56,.01,.04-.31,.23-.47,.53-.51Z"/><path class="cls-38" d="M427.06,541.82s-.02-.06-.02-.06c.32-.23,.42,.03,.53,.25-.17-.06-.34-.13-.51-.19Z"/><path class="cls-138" d="M427.58,542.47c-.02-.17-.04-.33-.06-.5,.08,.11,.17,.21,.22,.33,.01,.03-.1,.11-.16,.17Z"/><path d="M163.42,629.2c1.5-4.54,3.09-9.05,4.47-13.62,1.7-5.64,3.73-11.14,6.19-16.5,1.01-2.2,1.97-4.45,2.46-6.85,.66-.81,.63-1.78,.36-2.65-.42-1.38,.06-2.44,.77-3.54,1.39-2.14,3.02-4.05,5.07-5.57,8.87-6.58,18.13-12.54,27.87-17.74,3.19-1.7,6.35-3.47,9.53-5.21,.86-2.21,2.88-2.65,4.8-3.18-.05,0-.02-.05-.07-.06-3.35-1.29-6.61-2.7-9.79-4.24-4.35-2.11-8.8-4-13.44-5.23-6.55-1.73-11.08-6-15.02-11.02-6.53-8.32-11.57-17.62-16.95-26.68-5.22-8.79-9.69-17.98-14.48-26.99-1.82-3.42-4.22-6.63-5.16-10.41-1.79-7.21-6.43-13.17-8.59-20.2-.4-1.32-.66-2.56-.33-3.9-1.18-3.69-2.57-7.31-4.14-10.84-2.93-6.58-4.73-13.47-6.19-20.49-1.21-5.85-2.73-11.63-3.56-17.55-.65-4.67-1.13-9.36-.93-14.09,.03-.67,.21-1.35-.4-1.88-.86-.93-.8-1.79-.11-2.89,.75-1.18,1.48-2.39,2.19-3.6,.14-.22,.32-.41,.53-.56,.21-.15,.44-.24,.69-.3,1.88-.16,2.8-1.1,2.46-3.05,1.27-3.28,3.79-5.72,5.77-8.52,5.49-7.74,12.54-14.03,19.26-20.65,3.78-3.72,7.59-7.37,11.59-10.85,9.8-8.54,20.3-16.08,31.63-22.46,1.81-.54,3.36-1.66,5.1-2.35,3.07-1.3,6.41-1.81,9.42-3.28,6.25-1.43,12.41-3.26,18.76-4.27,8.68-1.37,17.42-2.04,26.21-2.03,4.38,0,8.79-.34,13.14-.29,7.9,.09,15.85,.75,23.13,4.4,1.17,.59,2.46,.55,3.7,.8,4.52,.94,8.25,3.27,11.64,6.26,2.2,2.8,4.11,5.78,5.13,9.21,2.19,7.33,5.04,14.48,6.15,22.12,.96,12.49-.78,24.89-1.14,37.34-.25,8.76-1.08,17.49-1.61,26.22-1,16.3-3.2,32.47-7.85,48.22-1.33,4.51-2.13,9.18-3.64,13.64-3.3,9.76-7.29,19.24-11.96,28.42-1.15,1.36-2.07,2.85-2.39,4.65-.08,.37-.21,.73-.36,1.07-.09,.24-.22,.45-.36,.66-1.27,1.81-2.21,3.81-3.05,5.83-2.24,5.35-5.47,10.03-9.09,14.52-6.96,8.63-12.85,18.01-18.04,27.77-3.16,5.94-5.73,12.24-7.03,18.93-.39,2.01-1.63,3.96-.54,6.11,.74,2.78,3.67,3.21,5.4,4.93,.99,.99,2.17,1.82,3.05,2.92,.67,.84,1.35,1.77,.6,2.93,1.12,2.49,1.62,5.11,1.6,7.84,0,1.26,.14,2.52,.27,3.78,.06,.6,.16,1.11-.36,1.61-1.27,1.23-2.25,1.07-2.74-.63-.62-2.11-.79-4.3-.83-6.5-.08-4.17-2.07-7.32-5.43-10.15-.4,1.63-.43,3.03-.11,4.37,.22,.9,.19,1.57-.71,1.81-.96,.26-1.29-.56-1.54-1.28-.43-1.21-.35-2.5-.4-3.75-.05-1.25-.53-2.18-1.14-3.31-2.01-3.71-5.18-5.64-8.87-7.08-.31-.12-.69-.21-.88-.44-3.6-4.22-8.55-6.36-13.38-8.68-2.23-1.4-4.36-1.2-6.67,.01-7.71,4.04-15.34,8.18-22.68,12.86-4.7,3-9.36,6.05-13.89,9.3-2.46,1.77-4.13,4.2-5.97,6.5-.2,.25-.41,.6-.39,.89,.23,2.64-.78,5.02-1.73,7.33-3.64,8.93-6.15,18.23-9.11,27.38-.85,2.63-1.51,5.34-2.9,7.77-.38,.19-.8,.18-1.21,.19-3.05,.06-3.27-.36-1.77-3.25Z"/><path class="cls-64" d="M264.27,582.63c-2.1-3.17-4.62-5.86-8.24-7.32-1.35-.55-1.24-2.06-1.94-3.05,.22-2.59,1.13-5,2.19-7.3,4.24-9.2,9.22-18.01,14.43-26.7,4.39-7.31,9.06-14.43,13.86-21.48,.72-1.06,1.41-2.85,2.97-2.09,1.51,.73,.54,2.38,.32,3.67-.28,1.64-1.29,3.18-.72,4.93,.22,.7,.25,1.67,1.18,1.76,.84,.08,1.27-.72,1.72-1.32,.41-.56,.51-1.24,.71-1.89,2.73-8.87,5.83-17.62,8.84-26.39,2.03-5.93,1.89-12.34,4.64-18.03,.57-1.17,.59-2.73,2.29-3.03,.66,.26,.64,.74,.42,1.29-.41,4.61-1.25,9.18-.97,13.83,.05,.75,.05,1.52,.2,2.26,.16,.77,.87,1.07,1.55,1,.64-.06,.57-.74,.58-1.22,.07-3.28,.02-6.56,.5-9.83,.91-6.16,2.04-12.28,3.66-18.31,.15-.36,.3-.36,.45,0,.03,3.8,.12,7.59,.07,11.39-.05,3.63,.64,7.23,.41,10.86-.99,2.21-.12,4.49-.13,6.72-.04,5.12,.35,10.23-.08,15.37-.26,3.08-.26,6.22,.22,9.33,.22,1.46-.24,2.83-.92,4.13-2.75,3.53-5.99,6.62-9.06,9.85-6.75,7.11-12.81,14.77-18.51,22.72-2.85,3.98-5.24,8.24-7.61,12.52-1.6,2.87-3.42,5.61-5.53,8.15-.12,.16-.23,.33-.33,.51,0,0-.01,.03-.01,.03-1.96,1.82-3.43,4.05-5.11,6.11-.53,.65-.79,1.77-2.02,1.54Z"/><path d="M203.36,592.57c-.12,.07-.25,.12-.38,.16-.24,.08-.43,.25-.61,.42-3.43,2.12-6.83,4.27-10.3,6.33-.73,.43-1.66,1.6-2.55,.34-.83-1.17-.34-2.51,.91-3.32,3.31-2.15,6.6-4.32,9.91-6.48,.33-1.77,1.77-2.57,3.07-3.47,7.72-5.35,16.01-9.53,25.11-12.03,1.42-.39,2.76-.85,2.85-2.66-.04-.33-.09-.66-.13-.98,.97-1.11,1.89-1.02,2.5,.34,.45,.99,.82,2.03,1.08,3.09,.16,.63,.35,1.07,1,1.29,3.33,1.17,5.92,3.53,8.59,5.67,3.49,2.78,6.59,6.02,9.52,9.4,.49,.57,.93,1.2,1.36,1.82,.24,.34,.51,.76,.17,1.14-.39,.44-.96,.35-1.39,.06-.69-.47-1.33-1.02-1.98-1.56-3.1-2.59-6.16-5.24-9.31-7.77-1.76-1.41-3.57-2.83-5.83-3.42,0,0,0,0,0,0-.23-.1-.39-.3-.58-.47-1.39-1.43-2.96-2.14-5-1.55-7.38,2.11-14.64,4.49-20.93,9.11-1.66,2.59-3.73,4.54-7.06,4.54Z"/><path class="cls-36" d="M240.39,604.32c-2.85-1.1-5.62-1.4-8.52,.09-2.24,1.16-4.59,2.11-6.71,3.51-7.05,4.63-14.76,8.16-21.84,12.74-1.18,.77-2.47,1.37-3.58,2.6-.69-1.11-.51-1.88,.05-2.7,.58-.86,1.35-1.5,2.2-2.06,3.03-1.99,6.01-4.06,9.11-5.94,4.39-2.67,8.81-5.3,13.03-8.25,2.08-1.46,4.31-2.7,6.7-3.5,1.49-.5,1.95-1.42,1.96-2.8,.01-.93,.03-1.85,.05-2.78,0-.44,.09-.83,.61-.94,1.96,.41,1.81,2.01,1.95,3.45,.53,1.06,1.57,1.53,2.51,2.1,4.76,.92,9.23,2.96,14.07,3.59,.4,.05,.78,.3,1.16,.46,.29,.25,.73,.15,1.01,.43h0c.16,.11,.22,.22,.15,.33-.06,.1-.12,.16-.18,.16-1.27,1.46-2.87,1.81-4.74,1.63-2.1-.19-4.06-.89-6.08-1.42-.96-.25-1.94-.46-2.91-.69Z"/><path class="cls-36" d="M254.68,604.37c-.34-2.09-.34-4.15,.45-6.16,.62-1.58,1.06-1.84,2.59-1.08,1.12,.56,2.22,1.16,3.19,1.98,1.91,1.62,3.85,3.22,5.77,4.82,.2-.01,.3,.04,.3,.15,0,.14-.03,.21-.08,.21,.13,.66,.26,1.32,.78,1.85,6.48-2.98,13.23-5.02,20.27-6.12,1.49-.23,2.82,0,4.13,.91-.91,1.23-2.08,1.75-3.45,2.01-6.58,1.26-12.83,3.6-19.12,5.84-1.13,.4-2.23,.73-2.39,2.22-.07,.58-.57,1.04-1.08,1.35-.69,.42-1.31,1.39-2.18,.92-.84-.46-.55-1.48-.49-2.32,.02-.34-.04-.7,.05-1.01,1.06-3.43-.53-5.82-3.05-7.87-.83-.68-1.41-1.66-2.43-2.24-.87,.87-.91,1.89-.8,2.87,.08,.78,.78,1.52-.25,2.22-1.04,.71-1.5-.34-2.23-.59l.03,.04Z"/><path class="cls-36" d="M310.82,553.44c-.9,1.24-2.07,1.74-3.17,2.35-13.58,7.63-25.13,17.62-34.69,29.89-1.15,1.47-2.82,2.78-2.58,5.01,.03,.26-.27,.43-.52,.38-.23-.04-.51-.15-.65-.32-.46-.59-.38-1.28-.21-1.94,.34-1.32,1.02-2.49,1.72-3.65,3.44-5.68,7.69-10.72,12.5-15.24,7.11-6.67,14.97-12.34,23.75-16.69,1.32-.65,2.52-.95,3.86,.2Z"/><path class="cls-91" d="M442.65,585.53c-.08,.43-.33,.83-.8,.77-1.12-.15-1.66,.69-2.37,1.25-4.06,3.17-8.12,6.34-12.18,9.51-.27,.21-.54,.41-.82,.59-.35,.21-.72,.51-1.1,.05-.29-.36-.41-.81-.18-1.17,.26-.42,.65-.77,1.04-1.09,4.14-3.34,8.3-6.67,12.45-9.99,.88-.7,1.8-1.27,3.01-.94,.55,.15,.91,.41,.96,1.03Z"/><path class="cls-45" d="M256.61,614.85c1.21-.05,1.54,.52,1.21,1.76-.51,1.9-1.57,3.82,.14,5.69,.23,.25,.1,.63-.17,.91-.43,.44-.89,.75-1.56,.54-.81-.25-1.27-.82-1.51-1.58-.7-2.21-.41-4.33,.58-6.39,.27-.56,.68-.96,1.32-.93Z"/><path class="cls-101" d="M237.89,599.83q-2.51-.12-2.51-2.1c1.18,.29,1.93,1.09,2.51,2.1Z"/><path class="cls-60" d="M270,622.56c-.08-.16-.17-.32-.25-.48,.27-.57,.35-1.39,1.27-1.22,.36,.07,.41,.51,.42,.83,.03,1.13-.89,.7-1.44,.86Z"/><path class="cls-28" d="M244.5,627.56q-1.68,.02-1.48-1.92c.76,.43,1.3,1.04,1.48,1.92Z"/><path class="cls-121" d="M296.01,615.46c-.14-.05-.55-.11-.56-.21-.05-.56,.45-.57,.82-.64,.24-.05,.54,.06,.54,.33,0,.44-.38,.45-.81,.52Z"/><path class="cls-129" d="M268.75,613.48c-.12,.13-.27,.43-.43,.44-.64,.03-.49-.51-.52-.88-.02-.24,.08-.57,.34-.55,.52,.04,.6,.47,.61,.99Z"/><path class="cls-113" d="M266.89,604.29c-.11-.1-.18-.22-.21-.36,.02-.16,.04-.32,.07-.48,.06-.3,.07-.73,.5-.64,.37,.08,.45,.47,.28,.78-.15,.27-.42,.47-.64,.7Z"/><path class="cls-27" d="M273.19,629.31c-.08,.27-.25,.45-.53,.39-.1-.02-.22-.26-.21-.39,.03-.27,.23-.46,.51-.39,.1,.03,.15,.25,.23,.38Z"/><path class="cls-36" d="M254.13,604.31c-.34-.14-.67-.29-1.01-.43,.41-.03,.75,.1,1.01,.43Z"/><path class="cls-36" d="M254.11,604.8c0-.16,.01-.33,.02-.49,.18,.02,.36,.04,.55,.07,0,0-.04-.04-.03-.04-.08,.27-.26,.42-.53,.47Z"/><path class="cls-128" d="M310.43,308.15c-.71-.34-1.16-.97-1.67-1.53-1.16-1.28-2.56-2.21-4.19-2.76-2.79-.94-5.5-2.22-8.54-2.17-.41,0-.89,.03-1.16-.35-1.15-1.62-2.98-1.76-4.67-2.21-9.6-2.57-19.4-2.45-29.21-2.11-4.9,.17-9.8,.32-14.68,.64-7.09,.46-14.1,1.49-21,3.24-3.6,.91-7.2,1.81-10.8,2.72-3.75-.99-6.66,1.34-9.86,2.51-1.45,.89-3.14,1.4-4.32,2.71-2.76,1.78-5.4,3.76-8.29,5.29-5.57,2.93-10.34,6.95-15.28,10.74-7.64,5.86-14.67,12.39-21.43,19.23-4.68,4.73-9.78,9.06-13.86,14.36-3.08,4-6.09,8.07-9.13,12.11-.41,1.69-1.5,2.81-3.02,3.55h0c-.09,.25-.31,.39-.45,.58-1.35,1.85-3.09,3.5-2.97,6.07-1.82-1.27-1.9-1.35-1.02-2.91,5.35-9.51,11.15-18.7,18.38-26.93,6.47-7.37,13.15-14.51,20.5-21.01,10.95-9.69,22.29-18.88,34.74-26.6,3.09-1.91,6.35-3.52,9.66-5.02,.93-.42,1.77-.79,2.01-2.02,.27-1.42,1.68-1.77,2.81-2.32q1.71-.83,1.2-2.67c-.27-.98-.75-1.85-1.22-2.75-1.23-2.37-2.49-4.78-2.01-7.63,.07-.39-.04-.83-.13-1.23-.14-.57-.36-1.13-.53-1.69-1.63-5.26-1.85-4.89,2.75-7.47-.53-1.59-1.02-3.18-1.59-4.76-.59-1.64-.89-3.18,1.74-4.21-3.59-1.29-3.93-4.15-4.42-6.71-.47-2.5-1.3-4.86-2.01-7.27-.3-1-.51-1.96,.3-2.96-1.2-.42-2.27-.59-3.36-.63-4.9-.18-9.79-.17-14.64,.75-.41,.08-.84,.11-1.25,.19-1.52,.27-2.67-.07-3.09-1.76-.07-.29-.41-.51-.62-.77,1.3-.79,2.54-1.72,4.11-1.93,.19-.03,.39-.06,.58-.07,.2,0,.39,0,.58,.03,.28,.07,.55,.2,.85,.06,3.32-1.26,6.83-1.8,10.27-2.57,6.08-.24,12.11,1.08,18.16,.84,4.9-.19,8.74,1.83,12.56,4.44,3.2,2.18,6.54,4.19,9.95,6.03,5.51,2.98,10.51,6.71,15.75,10.09,6.45,4.16,12.62,8.72,18.64,13.49,1.58,1.25,3.34,2.29,5.11,3.27,6.09,3.36,11.72,7.33,16.65,12.27,.95,.95,1.95,1.85,2.93,2.77,.34,2.16,2.15,3.34,3.42,4.82,2.54,2.95,4.66,6.17,6.64,9.5,.52,.88,1.02,1.8,.12,2.76Z"/><path class="cls-128" d="M226.69,555.21c-2.49-.08-4.37,1.54-6.55,2.32-.33-.25-.62-.61-1-.74-4.03-1.45-8.08-2.86-12.13-4.28-.56-.14-.78,.05-.6,.62,.49,.32,.96,.69,1.48,.95,2.24,1.15,2.25,1.13,.37,2.98q-2.1,2.05-4.77,.79c-.38-.18-.79-.55-1.16-.28-1.51,1.11-2.32-.05-3.19-.93-4.04-4.09-7.66-8.52-11.14-13.1-6.04-7.94-10.86-16.69-16.5-24.89-3.68-5.35-7.64-10.52-10.96-16.11-5.31-8.92-10.27-18.04-14.47-27.54-.75-1.69-1.21-3.5-1.78-5.27-.1-.31-.25-.85-.11-.96,1.42-1.18,.33-2.24-.09-3.33-2-5.12-3.55-10.37-4.42-15.81-.11-.66-.04-1.36-.17-2.01-.24-1.33,.54-1.77,1.61-2.02,.45,.34,.44,.89,.6,1.36,2.06,6.01,4.85,11.69,7.91,17.24,.46,.84,1.14,1.61,.59,2.78-.34,.71,.32,1.43,.66,2.1,2.34,4.59,4.69,9.17,7.02,13.76,7.59,14.91,15.81,29.47,24.81,43.57,3.11,4.87,6.75,9.28,11.03,13.16,1.8,1.63,3.94,2.59,6.18,3.38,3.34,1.19,6.79,2.12,10.03,3.53,5.96,2.58,11.97,5.09,17.66,8.27,.06,.93-.49,.59-.94,.44Z"/><path class="cls-128" d="M151.31,505.03c.13,0,.26,0,.39-.03,.56,.79,1.3,.74,2.09,.43,2.47,2.67,4.35,5.78,6.36,8.78,3.79,5.67,7.98,11.14,10.86,17.33,4.29,9.21,7.2,18.87,7.66,29.13,.04,.93-.06,1.84-.29,2.75-.24,.95-.18,.96,.56,2.6,1.17-.19,1.68-1.32,2.59-1.87,.53,2.69-.41,5.16-1.17,7.65-.17,.57-.65,1.31-1.25,.75-1.67-1.58-4.01-1.91-5.77-3.36-1.27-1.05-2.02-2.17-2.21-3.76-.53-4.4-2.12-8.48-3.81-12.53-.4-.95-.98-1.5-1.96-2.05-2.1-1.18-4.11-2.59-4.85-5.21-.57-2.02-1.4-3.97-2.14-5.94-.29-.78-.75-1.2-1.61-1.63-2.07-1.04-4.07-2.39-4.59-5-.21-1.06-.61-2.07-1.05-3.54-.97,1.36-1.11,2.61-1.34,3.74-.58,2.82-2.28,4.4-4.98,5.1-1.14,.29-2.25,.68-3.37,1.03,.78-.63,1.56-1.26,2.34-1.89,4.26-3.48,6.42-8.12,7.37-13.41,.97-5.43,.9-10.88,.22-16.33-.11-.92-.34-1.82-.04-2.74Z"/><path class="cls-3" d="M128.81,458.35c-1.4-1.54-1.93-3.53-2.77-5.36-.81-1.75-1.46-3.58-2.19-5.38,1.07-.26,1.93-.17,2.29,1.13,.89,3.2,2.19,6.29,2.67,9.61Z"/><path class="cls-136" d="M111.03,334.06c1.2-2.63,2.25-5.35,4.07-7.65,.06,.99-.53,1.76-.92,2.59-.26,.55-.51,1.08,0,1.63-.49,1.18-1.39,2.07-2.1,3.09-.26,.37-.57,.61-1.04,.34Z"/><path class="cls-75" d="M124.83,553.15c-1.83,1.32-3.97,1.95-6.08,2.67,1.55-1.29,3.13-2.48,4.98-3.26,.29,.34,.68,.49,1.1,.59Z"/><path class="cls-85" d="M30.97,597.23c.33-.23,.67-.46,1-.68-.54,2.17-1.78,3.92-3.05,5.66,.02-1.94,1.74-3.19,2.06-4.99h-.01Z"/><path class="cls-77" d="M160.32,281.5c-.7,1.79-2.22,2.83-3.89,3.75,1.12-1.28,2.23-2.55,3.35-3.83,.18,.03,.36,.05,.54,.08Z"/><path class="cls-127" d="M152.76,302.16c.68-.69,0-2.12,1.35-2.45,.15,1.1-.28,2.06-.74,3.02-.09,.19-.34,.43-.54,.13-.11-.17-.06-.46-.08-.69Z"/><path class="cls-32" d="M135.4,534.32c-.73,.47-1.3,1.37-2.55,.94,.5-.89,1.36-1.07,2.05-1.48,.52-.14,.65,.07,.5,.54Z"/><path class="cls-82" d="M206.42,553.13c-.47-.2-.83-.52-1.19-1.14,.82-.24,1.31,.13,1.79,.52-.2,.21-.4,.41-.6,.62Z"/><path class="cls-70" d="M135.4,534.32c-.17-.18-.33-.36-.5-.54,.41-.4,.87-.68,1.59-.73,.02,.8-.58,1-1.09,1.27Z"/><path class="cls-66" d="M38.04,604.29c.1-.22,.15-.48,.3-.64,.12-.13,.34,.03,.26,.2-.1,.2-.32,.34-.5,.5,0,0-.06-.06-.06-.06Z"/><polygon class="cls-66" points="38.1 604.35 37.95 604.44 38.04 604.29 38.1 604.35"/><path class="cls-128" d="M113.64,347.38c0-.32,.13-.55,.46-.63,0,.32-.17,.52-.46,.63Z"/><path class="cls-85" d="M31.49,595.7c-.01-.31,.12-.52,.41-.63-.14,.21-.27,.42-.41,.63Z"/><path class="cls-85" d="M31.13,596.24c-.02-.28,.12-.44,.36-.54,.02,.27-.09,.45-.36,.54Z"/><path class="cls-85" d="M30.5,597.24c0-.3,.14-.49,.42-.59,.01,.19,.03,.39,.04,.58,0,0,.01-.01,.01-.01-.16,.02-.32,.03-.48,.02Z"/><path class="cls-128" d="M231.37,571.86c.14,.39,.31,.78,.4,1.18,.39,1.7,.4,1.75-1.3,2.17-10.09,2.52-19.18,7.14-27.62,13.14-.82,.58-1.67,1.11-2.51,1.66-.18-.18-.32-.4-.53-.52-1.16-.68-.96-1.33-.04-2.09,2.56-2.13,5.05-4.36,7.65-6.44,1.07-.85,1.97-1.76,2.53-3,.58-.12,.99-.75,1.67-.58,1.07-.12,1.78-.91,2.65-1.41,3.07-1.76,6.15-3.51,9.65-4.3,.81-.18,1.65-.55,2.26,.42,.13,.21,.38,.44,.62,.28,1.14-.77,2.3,0,3.44-.06,.44-.03,.82-.15,1.14-.46Z"/><path class="cls-1" d="M203.36,592.57c2.3-1.59,4.57-3.23,7.06-4.54-.15,1.91-.34,3.82-.44,5.73-.06,1.18-.45,1.85-1.76,1.9-1.81,.06-3.62,.25-5.4,.38-.41-1.37,1.09-2.24,.54-3.47Z"/><path class="cls-5" d="M163.42,629.2c.03,.97-.75,1.83-.46,2.86,1.14,.45,2.31-.02,3.44,.2-2.76,.91-3.32,.78-4.54-1,.44-.75,.31-1.93,1.56-2.07Z"/><path class="cls-112" d="M211.62,577.39c-.5,.36-.61,1.83-1.67,.58,.11-.31,.19-.64,.34-.94,.17-.35,.23-.92,.76-.84,.67,.1,.51,.73,.57,1.2Z"/><path class="cls-128" d="M236.35,580.48c.3,.03,.52,.14,.58,.47-.32,0-.49-.18-.58-.47Z"/><path class="cls-1" d="M202.37,593.15c.13-.25,.31-.42,.61-.42-.1,.29-.31,.42-.61,.42Z"/><path class="cls-128" d="M306.4,474.62c-.41,1.28-.8,2.58-1.25,3.85-1.44,4.06-2.52,8.21-2.85,12.52-.09,1.11-.37,2.15-1,3.09-.28,.42-.51,.89-.64,1.37-2.37,8.98-6.07,17.53-8.6,26.45-.59,2.08-1.69,3.62-3.23,4.97-1.22,1.07-1.4,.99-2.02-.61-.98-2.5-1.46-4.97-.28-7.57,.47-1.05,.66-2.22,1-3.43-.87,.08-1.02,.73-1.31,1.16-9.78,14.37-18.98,29.11-26.84,44.63-1.86,3.68-3.52,7.46-5.28,11.2-.39-.23-.76-.66-.6-1.02,1.25-2.82,.95-5.95,1.82-8.86,1.74-5.85,3.91-11.54,6.83-16.85,6.03-10.95,12.75-21.48,20.78-31.11,1.75-2.09,3.06-4.43,4.24-6.87,1.58-3.25,3.26-6.46,4.89-9.69,.16-.08,.23-.17,.21-.29-.02-.13-.04-.2-.09-.2-.07-.24,0-.42,.22-.53,1.15-1.32,2.23-2.67,2.31-4.54,4.2-7.73,7.51-15.88,10.54-24.1,3.44-9.34,6.29-18.89,8.22-28.7,1.56-7.96,2.61-15.97,3.59-24.02,.95-7.81,1.2-15.64,1.8-23.47,.7-9.09,1.16-18.19,1.78-27.29,.58-8.51,1.03-17.01,.76-25.55-.01-.33,.09-.66,.14-1,1.79,.74,.94,2.54,1.52,3.77,.04,1.31,.13,2.61,.53,3.86,.63,2.93,.26,5.89-.02,8.8-.62,6.46-.68,12.95-1.15,19.41-.46,6.32-.4,12.61,.08,18.91-.68,1.55-.19,3.15-.24,4.73-.29,8.83-.56,17.68-2.87,26.29-.26,.98-.51,1.95-.43,2.97-2.62,6.57-3.89,13.54-5.83,20.31-1.38,4.84-2.17,9.84-3.24,14.77-.8,3.69-1.65,7.36-2.47,11.04-.67,.3-.48,1.18-1.04,1.56Z"/><path class="cls-122" d="M318.98,426.94c-.77-.8-.46-1.74-.31-2.63,1.28-7.63,1.84-15.33,2.43-23.04,.16-2.09,.37-4.18,.56-6.27,.07-.77,.29-1.48,.86-2.05,.16,3.12,.86,6.16,1.4,9.22,.07,.41,.09,.92,.34,1.2,1.13,1.24,.79,2.62,.59,4.04-.94,6.82-3.4,13.18-5.87,19.53Z"/><path class="cls-61" d="M322.63,342.19c-.35-1.33-.35-2.76-1.06-3.99-.61-5.8-2.84-11.18-4.43-16.72-.23-.8-.56-1.58-.78-2.39-1.12-4.11-2.93-7.84-5.91-10.94-2.38-5.24-5.63-9.91-9.5-14.15-.51-.56-1.06-1.1-1.44-1.74-.44-.74,.1-1.05,.76-1.19,7.61,7.51,13.65,16.04,16.92,26.32,2.12,6.66,4.42,13.28,5.65,20.19,.15,.83,.23,1.66,.34,2.5,.04,.76,.8,1.7-.54,2.11Z"/><path class="cls-30" d="M312.48,521.21c-.54-6.38-.56-12.76-.18-19.16,.28-4.78,.09-9.59,.12-14.39,0-.82-.22-1.76,.98-1.99,.75,3.83,.39,7.74,.96,11.59,.38,2.58,.4,5.22,.8,7.8,.61,3.98,.19,7.92-.32,11.85-.22,1.71-.86,3.26-2.36,4.31Z"/><path class="cls-79" d="M322.63,342.19c.54-.61,.37-1.4,.54-2.11,.73,1.87,.53,3.81,.45,5.75-.74-1.1-.92-2.36-.99-3.64Z"/><path class="cls-68" d="M306.4,474.62c.14-.55,.22-1.12,.42-1.64,.23-.58,.44-.15,.62,.08-.06,.89,.03,1.81-.49,2.61-.18-.35-.36-.7-.55-1.06Z"/><path class="cls-11" d="M317.06,482.2c-.04,.67-.08,1.33-.13,2-.45-.7-.63-1.38,.13-2Z"/><path class="cls-11" d="M314.42,453.24c0,.52,0,1.03,0,1.55-.73-.51-.29-1.03,0-1.55Z"/><path class="cls-86" d="M312.92,463.42h-.23s-.23,0-.23,0c-.11-.41-.09-1.03,.26-1.01,.39,.02,.35,.62,.19,1.02Z"/><path class="cls-128" d="M271.43,574.95c-.06-.28,.05-.45,.33-.51,0,.25-.08,.43-.33,.51Z"/><path class="cls-40" d="M154.19,295.55c-.19-.33-.37-.67-.56-1,2.66-4.05,5.8-7.74,8.73-11.58,.45-.11,.72-.03,.5,.52-2.72,4.15-5.59,8.19-8.67,12.07Z"/><path class="cls-67" d="M162.86,283.48c-.17-.17-.33-.35-.5-.52,1.01-1.65,1.85-3.44,3.49-4.62,.53-.2,.62,.04,.51,.5-1.57,1.24-2.07,3.29-3.5,4.64Z"/><path class="cls-94" d="M166.35,278.84c-.17-.17-.34-.33-.51-.5,.12-.1,.24-.22,.37-.28,.43-.19,1.06-.41,1.18,.14,.12,.59-.6,.56-1.04,.64Z"/><path class="cls-11" d="M144.62,507.04c.17-.17,.34-.35,.51-.52-.17,.17-.34,.35-.51,.52Z"/><path class="cls-128" d="M452.92,581.51c-.14-.2-.27-.4-.41-.6,.31,.08,.44,.29,.41,.6Z"/><path class="cls-126" d="M188.76,240.82c-.26-.02-.45-.13-.55-.37,.84-1.17,2.09-1.36,3.47-1.69-.28,.98-1.48,.76-1.45,1.7-.3,.29-.66,.42-1.08,.36l-.19-.16-.19,.16Z"/><path class="cls-128" d="M168.84,473.59c-3.16-8.98-5.7-18.1-7.43-27.49-1.41-7.7-2.6-15.44-4.08-23.12-.06-.31-.04-.64-.06-1.09-1.21,.42-.93,1.27-.85,2.07,.78,8.05,1.7,16.07,3.26,24.01,.14,.73,.08,1.5,.11,2.26-1.36,.12-1.28-1-1.6-1.81-1.19-3.04-1.38-6.34-2.52-9.39,.22-3.13-.29-6.22-.58-9.31-.4-4.26-1.68-8.27-4.29-11.72-1.84-2.43-3.34-5.05-4.83-7.69-.87-1.54-1.81-3.04-2.84-4.48-1.44-2.02-2.3-4.28-2.55-6.76,2.14-.31,2.13,2.11,3.52,2.75,.51,.61,.16,1.43,.51,2.08,.26,.69,.75,1.28,.84,2.04-.11-.94-.92-1.66-.85-2.67,.58-1.83,1.91-2.12,3.58-1.73,2.18,.51,3.88,1.86,5.64,3.12,.59,.41,1.35,.5,1.92,.96,1.14,.91,2.32,.78,2.38-.36,.19-3.63,1.62-7.06,1.63-10.73,.01-2.89-.16-5.74-.86-8.54-1.67-6.7-1.58-13.53-1.77-20.36-.2-7.12,2.02-13.63,4.63-20.06,1.17-2.89,2.45-4.46,5.58-7.02-1.37-.37-1.39-.4-2.34,.26-2.04,1.41-3.81,3.11-4.9,5.37-1.43,2.96-2.81,5.95-4.1,8.98-1.68,3.95-1.87,8.2-2.17,12.4-.36,5.07,.24,10.12,.5,15.17,.16,3.13,1.5,6.05,1.97,9.14,.09,.61,.7,1.4-.54,1.53-2.49-4.78-5.59-9.16-8.79-13.47-.55-.74-1.06-1.51-1.64-2.23-2.51-3.15-3.51-6.63-2.38-10.6,.2-.72,.01-1.52,.47-2.19l.22,.12s.16-.19,.16-.19c0,0-.03-.25-.03-.25,0,0-.24-.07-.24-.07,.04-.5,.18-1.03,.1-1.51-.46-2.67,.97-4.43,2.75-6.11,11.35-10.71,22.29-21.86,35.03-31.02,7.7-5.54,15.79-10.35,24.16-14.75,2.13-1.12,4.5-1.4,6.73-2.13,2.3-.76,4.74-1.11,7.29-1.68-.19,1.1-.97,1.51-1.66,2.04-4.27,3.27-6.67,7.74-8.05,12.82-.56,2.08,.37,3.96,1.21,5.8-2.63,1.37-5.45,.88-8.05,.31-3.02-.65-4.99-.13-6.73,2.55-2.37,3.66-4.53,7.46-7.17,10.93-1.04,1.37-1.75,3.41-4.12,3.15-1.7-1.91-1.06-4.13-.66-6.22,1.12-5.89,4.12-10.6,9.14-13.98,.91-.61,1.77-1.3,2.49-1.93-.45,.44-1.05,.92-1.67,1.33-7.23,4.74-10.52,11.55-10.62,20.06-.02,1.53-.41,2.99-.85,4.45-.92,.64-.76,2.37-2.36,2.33-.64-.37-.9-.97-.96-1.68-.78-9.18,.98-17.58,7.43-24.57,.35-.38,.76-.66,.74-.65-3.76,3.58-6.22,8.37-7.72,13.84-1.18,4.31-.54,8.71-1.28,13.04-.94,5.53-2.82,10.36-7.5,13.77-.84,.29-1.46,.75-1.43,1.76-.26,.83-.61,1.62-.9,2.44-.81,.91-1.23,2.04-1.57,3.15-3.18,10.46-5.5,21.07-4.82,32.1,.19,3.1,.84,6.12-.5,9.2-.53,1.21-.23,2.95,.92,4.02,3.11,2.86,4.09,6.7,5.07,10.55,2.49,9.81,4.9,19.65,8.16,29.24,1.33,3.91,2.86,7.76,4.43,11.58,.8,1.95,1.77,3.77,3.34,5.3,2.7,2.63,4.15,6.13,5.93,9.36,2.88,5.21,6.54,9.84,10.62,14.12,6.46,6.78,13.2,13.27,20.79,18.84,2.74,2.01,5.34,3.37,8.81,1.86,1.94-.85,4.12-.87,6.24-.75,1.83,.1,3.05-.68,3.9-2.24,.89-1.63,1.75-3.28,2.51-4.97,.89-1.94,.56-2.36-1.66-2.12-4.11,.44-8.2,.95-12.34,.97-3.18,.02-6.19-.72-9.11-1.89-2.22-.89-3.45-2.79-3.42-5.13,.02-1.6,.89-2.79,2.45-2.58,2.33,.31,4.74-.32,7.01,.61,4.62,2.99,9.39,2.27,14.21,.58-.55-.15-1.15-.16-1.61-.58-1.09-2.02-.04-4.29-.74-6.37,.18-1.09,1.03-1.61,1.92-1.78,6.65-1.28,10.77-6.24,15.4-10.47,1.43-1.31,2.68-2.81,4.19-4.03,1.67-1.36,3.38-2.3,5.78-1.53,1.45,.46,3.03,.85,4.15,.77-1.58-.29-3.64-.63-5.67-1.12-1.24-.3-2.48,.16-3.71,.54-4.37,1.34-8.38,3.53-12.57,5.28-1.01,.42-1.98,.99-3.14,.55-1.34-.65-1.27-2.15-1.93-3.21,.97-3.82-1.61-6.35-3.34-9.2-.19-.38-.35-.77-.5-1.63,.3,4.14-.28,7.85,.06,11.55,.17,1.92-.94,3.14-2.09,4.39-1.03,.52-2.08,.87-3.22,.35-.84-.86-1.85-1.63-2.03-2.95-.03-.33,.23-.76,.08-.98-1.81-2.69-.85-5.29,.29-8.16-.7,.72-1.21,1.33-2.07,1.23-2.08-.91-1.94-3.01-2.38-4.71-1.29-5-1.2-4.96-5.62-2.34-2.14,1.27-4.17,2.84-6.88,2.94-1.08,.04-2.05,.81-2.91,1.45-2.43,1.8-5.46,2.09-8.08,3.44-1.51,.78-3.16,.15-4.28-1.26-1.02-1.29-.98-4.74,.03-6.27,.46-.71,1.09-1.28,1.7-1.86,1.72-1.63,3.36-3.27,3.66-5.83,.12-1.07,.62-2.14,1.97-2.31,1.1,.26,1,1.44,2.06,2.64,.86-6.08,3.08-11.04,8.02-14.34,2.4-.26,4.38,.45,6.13,2.22,2.29,2.31,5,2.26,7.91,.77,1.94-.99,3.57-2.12,4.8-3.89,.42-.61,1-1.17,1.87-1.13,2.09,.83,.94,3.04,1.91,4.5,.91-1.94,.8-3.76,.14-5.63-.59-1.67-1.1-3.37-1.84-4.98-4.37-9.49-5.28-19.81-7.15-29.89-.9-4.88-.72-9.77,.26-14.58,1.33-6.48,2.99-8.87,8.89-14.05-.95,.68-1.64,1.5-2.4,2.26-.83,.83-1.54,1.87-2.97,1.49-.77-.56-.76-1.4-.33-2.01,4.08-5.93,8.53-11.51,14.86-15.26,1.8,.3,2.41,1.98,3.44,3.12,2.01,2.19,4.15,3.41,7.32,2.91,3.26-.52,6.18,.58,8.3,3.26,3.13,3.97,5.55,8.43,8.59,12.47-1.16-2.22-2.52-4.33-3.81-6.49-.65-1.09-1.37-2.16-.88-3.54,.44-.58,.46-1.16,.27-1.89-2.53-9.73-3.85-19.66-5.01-29.62-.19-1.62-.87-2.56-2.38-3.2-12.24-5.23-24.89-8.99-38.04-11.04-1.74-.27-3.52-.42-5.16-1.16-.72-.89-.56-1.96-.42-2.92,.48-3.37,1.42-6.52,3.55-9.35,3.33-4.43,9.54-9.82,12.4-12.09-.71-.65-1.34-.36-2.03-.05-1.26,.58-1.27,.55-3.05-.23,2.18-.86,4.27-.83,6.26-1.07,11.77-1.46,23.61-1.37,35.44-1.4,2.96,0,5.9,.29,8.84,.7,1.96,.27,3.68,1.2,5.56,1.65,.63,.15,.94,.69,1.26,1.18,.79,1.19,1.78,2.31,2.31,3.61,2.51,6.18,6.39,11.67,8.74,17.96,1.86,4.98,3.61,9.97,5.03,15.09,.34,1.24,.51,2.51,.42,3.76-.26,3.44-.44,6.91-1.1,10.29-.39,2.01-1.65,3.85-2.44,5.8-2.16,5.31-5.15,10.23-7.47,15.46-.24,.54-.71,1.11-.65,1.62,.19,1.58-.57,2.55-1.74,3.4-.32,.23-.52,.66-.71,1.03-.16,.31-.15,.68,.12,.93,.44,.4,.79,.08,1.05-.25,2.03-2.53,4.6-4.46,7.1-6.48,.99-.8,2.02-1.55,3.21-2.01,2.44-.95,3.86,.05,3.54,2.66-.31,2.58-.68,5.19-1.83,7.58-.62,0-.19,.3-.15,.5-2.06,7.25-2.93,14.64-3.11,22.18-.14,5.68,.82,11.24,1.05,16.87,.04,1.01,.19,2.02,.15,3.03-.03,.9-.09,1.89-1.34,2.27-.57-1.26-.98-2.7-2.8-2.74-1-.02-1.32,.16-1.2,1.26,.63,5.7,.9,11.42,.59,17.16-.05,.93-.1,1.85-.37,2.75-.75,4.28-1.26,8.6-2.32,12.82-.23,2.03-1.35,3.85-1.39,5.93-.44,2.19-1.53,4.16-2.71,5.96-4.82,7.32-9.08,14.99-14.28,22.09-2.88,3.93-5.28,8.22-8.17,12.17-2.4,3.28-5.18,6.23-7.91,9.21-1.08,1.18-2.35,2.26-3.86,2.83-4.48,1.7-8.76,3.99-13.59,4.7-1.91,.28-3.83,1.22-5.65,1.19-1.71-.02-3.54-.48-5.33-.7-.42-.05-.84-.11-1.26-.09-5.62,.34-10.12-2.2-14.22-5.65-8.08-6.79-16.18-13.54-24.82-19.63-1.38-.97-2.66-2.07-3.86-3.27-2.68-2.69-5.39-5.33-8.34-7.73-3.01-2.46-5.68-5.27-7.99-8.41-.66-1.96-1.63-3.76-2.74-5.5Z"/><path class="cls-64" d="M231.26,479.12c.6,.74,1.32,1.41,1.57,2.38-.72,1.41-1.91,.95-3.07,.83-7.42-.71-14.83-1.8-22.29-.1-1.64,.37-3.01,1.04-4.2,2.13-1.01,.92-.38,1.41,.59,1.74,2.49,2.34,5.43,2.12,8.52,1.71,4.02-.54,8.05-.4,12.03,.54,.28-.07,.56-.09,.84-.07,.42,.02,.81,.15,1.19,.31,3.02,1.48,6.01,3.06,9.59,2.31,.66-.14,1.33,.16,1.73,.81,.67,.25,1.66,.25,1.42,1.36-.33,1.56,.02,3.22-.71,4.71-.26,1.06-1.1,1.38-2.02,1.62-2.9,.75-5.79,.89-8.62-.25-.73-.29-1.42-.46-2.19-.27-2.41-.27-4.85,.44-7.26-.33-.98-.31-1.36,.35-1.19,1.32,.42,2.38,1.23,4.2,4.03,4.82,2.81,.62,5.57,1.35,8.48,1.24,5.13-.19,10.25-.53,15.41-1.55,.28,.73-.1,1.33-.31,1.92-1.12,3.11-2.72,5.99-4.33,8.87-.63,1.12-1.42,1.53-2.66,1.44-3.51-.25-6.91,.36-10.18,1.62-.96,.37-1.81,.32-2.66-.17-1.1-.63-2.23-1.21-3.26-1.95-10.41-7.5-19.56-16.33-27.67-26.26-2.9-3.55-5.26-7.46-7.21-11.59-1.11-2.34-2.69-4.3-4.47-6.08-.87-.87-1.48-1.79-1.96-2.87-5-11.14-8.39-22.81-11.41-34.6-.99-3.84-2.1-7.66-2.97-11.53-.56-2.48-1.56-4.69-3.46-6.33-1.92-1.66-1.77-3.89-2.1-6.01-.04-.29,.1-.78,.31-.9,1.48-.81,1.07-2.15,1.01-3.37-.11-2.11-.34-4.21-.42-6.31-.43-11.14,1.94-21.8,5.54-32.25,.23-.67,.15-1.89,1.53-1.43,4.58-4.66,8.96-9.52,13.22-14.47,1.38-1.61,1.75-3.59,1.91-5.62,.12-1.42,.1-2.89,1.63-3.69,2.55-2.61,4.47-5.68,6.38-8.75,1.92-3.07,3.88-6.12,6.3-8.83,.84-.94,1.38-1.54,2.84-.53,1.41,.98,3.4,.67,5.16,.8,1.75,.12,3.55-.21,5.24,.52,.66,.84,1.33,1.68,1.99,2.52,.12,.22,.29,.39,.44,.59h0c.94,1.37,1,2.84,.89,4.51-.3,4.73-.25,9.49-.88,14.2-.65,1.17-1.36,2.31-1.93,3.52-.95,2.04-.84,2.38,.95,4.19,1.33-1.6,2.67-3.18,3.99-4.78,2.51-3.04,5.52-5.67,7.35-9.25,.23-.45,.51-.87,.73-1.33,2-4.13,1.56-6.77-1.68-10.01-.78-.78-1.58-1.52-1.84-2.65,.86-1.23,2.06-.51,3.01-.35,4.16,.66,8.32,1.37,12.44,2.27,9.75,2.14,19.16,5.36,28.38,9.19,1.97,.82,2.74,1.94,2.95,4.1,.95,9.65,2.5,19.22,4.66,28.69,.19,.82,.35,1.65,.51,2.48,.21,1.08-.47,1.07-1.21,.98-1.46,.25-2.22-.84-2.74-1.79-2.24-4.13-5.72-5.59-10.22-5.09-.24,.03-.49-.09-.72-.18-1.58-.68-1.4-2.07-1.48-3.43-.18-3.09-.67-3.4-3.57-2.29-.96,.37-1.91,.66-2.94,.59-.58-.2-1.1-.14-1.55,.31-.24,.99-1.09,1.45-1.79,2.02-4.59,3.71-8.46,8.07-11.93,12.82-.44,.6-1.02,1.13-1.04,1.95,.39,.68,.2,1.29-.21,1.89-5.65,8.28-5.42,17.47-4.04,26.8,.7,4.75,1.76,9.44,2.41,14.2,.72,5.25,3.06,9.96,4.89,14.85,.44,1.17,1.11,2.34,.06,3.54-.75,2.04-2.4,3.42-3.77,4.99-.11,.12-.28,.32-.39,.3-1.89-.41-2.57,1.19-3.63,2.15-.25,.23-.68,.55-.88,.28-.97-1.28-2.34-.44-3.48-.74-1.72-.46-2.9-1.65-4.01-2.93-.67-.78-1.23-1.49-2.49-.63-1.18,.81-.98-.98-1.68-1.24-1.59,.75-3,1.9-4.81,2.16-1.3-.5-2.32-.31-3.26,.89-.92,1.17-1.46,2.23-.61,3.63,.21,.36,.35,.76,.41,1.19-.24,1.45-.13,3.09-1.95,3.72-.71,.89-1.19,2.04-1.1,3.03,.15,1.72-.78,2.63-1.81,3.63-.85,.82-1.57,1.8-2.49,2.52-1.6,1.25-1.89,2.84-1.67,4.72,.28,2.36,1.92,3.34,4.03,2.25,3.27-1.68,6.97-2.47,9.9-4.85,.19-.15,.5-.34,.68-.28,2.51,.75,3.99-1.31,5.9-2.16,1.3-.57,2.48-1.43,3.71-2.16,1.15-.68,2.35-.88,3.7-.36-.28,3.48,.69,6.71,2.03,9.87,.47,.3,.79,.83,.62,1.27-1,2.57-.43,4.8,1.3,6.83Z"/><path class="cls-128" d="M184.67,503.4c5.45,3.85,11.11,7.39,16.66,11.08,4.89,3.26,9.48,7.08,15.02,9.32,2.82,1.15,5.41,2.58,8.66,2.92,4.85,.5,9.59,.49,14.37-.19,1.17-.17,2.36-.21,3.52-.41,9.35-1.69,17.78-4.95,24.09-12.63,4.4-5.36,8.61-10.81,12.35-16.66,2.22-3.47,4.81-6.71,7.09-10.14,.52-.34,1.04-.42,1.54,.05,0,1.27,0,2.53,0,3.8,0,.51-.14,1.16,.11,1.49,1.6,2.07,.33,3.82-.52,5.61-1.85,3.88-3.75,7.74-5.61,11.62-1.11,2.32-2.8,4.21-4.4,6.16-2.52,3.07-4.96,6.2-7.06,9.57-.9,1.44-2.05,2.12-3.66,2.31-1.68,.2-3.33,.56-4.91,1.2-6.58,2.66-13.44,2.85-20.39,2.48-8.01-.43-15.99-1.21-23.89-2.62-4.44-.79-8.62-2.35-12.52-4.63-2.7-1.58-5.48-3.01-8.43-4.05-3.59-1.27-6.61-3.28-9.07-6.19-1.36-1.61-2.93-3.03-4.41-4.54-.35-.35-.98-.91-.54-1.22,1.45-1.03,.55-2.52,.96-3.73,.25-.34,.59-.53,1.01-.57Z"/><path class="cls-128" d="M224.74,548.46c1.28,.09,2.8,1.31,3.6-.62-7.9-5.55-15.51-11.44-23.12-17.32-.46-.36-.87-.77-1.31-1.16-1.02-1.63-2.74-2.45-4.18-3.6-.82-.49-1.39-1.24-2-1.96-.01-.9,.43-.97,1.1-.59,1.54,.69,3.03,1.49,4.43,2.44,5.27,3.54,11.06,5.61,17.33,6.69,6.84,1.17,13.72,1.79,20.61,2.44,5.5,.52,10.96-.14,16.39-.94,2.01-.3,3.84-1.24,5.67-2.13,.86-.42,1.69-1.17,2.97-.68-1.52,2.51-2.96,4.97-4.49,7.38-2.62,4.15-5.1,8.36-6.72,13.02-.53,1.52-1.41,2.3-3.06,2.52-2.67,.36-5.3,1-7.97,1.43-2.61,.42-5.21,.42-7.74-.53-1.43-.53-1.44-.5-2.41,1.42-2.28-2.97-5.53-4.41-8.6-6.12-.38-.51-.99-.94-.49-1.7Z"/><path class="cls-64" d="M224.74,548.46c.16,.57,.33,1.13,.49,1.7-2.47-1.06-5-2.01-7.4-3.21-4.24-2.12-8.66-3.83-13.24-4.91-6.66-1.57-11.35-5.66-15.33-10.84-5.19-6.76-9.51-14.1-13.88-21.39-2.68-4.47-5.59-8.81-7.99-13.46-.37-.61-.34-1.03,.52-1.01,.06,.06,.15,.1,.19,.17,4.69,8.24,11.54,14.65,18.01,21.4,1.34,1.4,2.71,2.77,4,4.22,5.64,6.34,12.31,11.49,19.07,16.54,4.19,3.13,8.49,6.09,12.76,9.1,.89,.63,1.86,1.14,2.8,1.7Z"/><path class="cls-13" d="M232.06,304.52c-.51,1.08-1.4,1.46-2.12,2-2.21,1.69-4.35,3.46-6.26,5.5-5.12,5.49-6.6,9-6.73,16.25-3.12-.86-5.59-4.71-4.66-8.09,1.59-5.79,4.41-10.77,10.52-13.01,2.14-.78,4.25-1.62,6.39-2.41,.86-.32,1.73-.72,2.86-.26Z"/><path class="cls-128" d="M213.53,347.8c-.83-.82-1.16-1.8-.97-2.97,.83-5.22,.35-10.52,.96-15.75,.94,.56,1.69,1.39,2.73,1.8,1.32,.52,1.89,1.61,2.09,2.94,.25,1.69,.24,3.37-.3,5-1.05,3.22-2.37,6.31-4.51,8.98Z"/><path class="cls-13" d="M155.74,405.61c-.68,.32-1.36,.66-2.04,0-.67-2.68-3.19-2.98-5.15-4-1.21-.63-2.86-.34-3.69-1.77-.51-2.38-.6-4.65,1.65-6.3,1.96,1.14,4.4,1,6.29,2.51,1.03,.82,1.53,1.71,1.75,2.87,.42,2.23,.79,4.46,1.19,6.69Z"/><path class="cls-15" d="M146.51,393.53c-.29,2.12-1.04,4.18-.94,6.36,.02,1.39-.62,2.18-2.06,2.23-1.7-.33-1.98-2.02-2.93-3.06-.1-1.47,.48-2.74,1.16-3.97,1.38-2.49,2.02-2.69,4.77-1.56Z"/><path class="cls-16" d="M235.94,557.57c5.81,2.49,11.04,.56,16.34-.79-.16,3.05-.3,3.26-2.79,3.69-3.52,.6-7.04,.39-10.53-.16-1.28-.2-2.33-.91-3.01-2.73Z"/><path class="cls-120" d="M155.67,439.03c1,.44,1.03,1.47,1.38,2.3,1.23,2.87,1.66,5.99,2.73,8.91,.06,.74,.53,1.42,.23,2.34-1.79-1.33-2.75-3.12-3.31-5.12-.77-2.75-1.2-5.56-1.03-8.43Z"/><path class="cls-42" d="M250.96,565.75v2.73c-2.64-.96-4.6-2.51-6.64-4.51,2.18-.32,4.06-.62,5.94-.85,.89-.11,.91,.5,.79,1.15-.43,.47-.35,.97-.1,1.48Z"/><path class="cls-57" d="M204.46,305.8c1.41-.74,2.89-1.38,4.23-2.23,2-1.28,3.89-1.28,5.82,.04-3.22,.63-6.34,1.63-9.42,2.78-.57,.2-.71-.07-.63-.58Z"/><path class="cls-109" d="M294.64,460.87c.61-3.71,1.2-7.42,1.84-11.13,.13-.73,.19-1.51,.79-2.08,.19,4.7-1.17,9.16-2.16,13.68-.41,.09-.63,0-.47-.48Z"/><path class="cls-114" d="M129.31,374.11c.73-1.42,1.82-2.53,3.02-3.55,.42,2.12-.97,3.75-3.02,3.55Z"/><path class="cls-108" d="M302.39,435.96c.53,.97,.22,1.95,.11,2.95-.15,1.41-.18,2.83-.68,4.26v-6.67c.2-.18,.21-.54,.57-.54Z"/><path class="cls-115" d="M167.91,495.33c-.17,.34-.35,.67-.52,1.01-1.14-1.34-1.81-2.95-2.61-4.49-.23-.55,.06-.61,.5-.52,.87,1.33,2.04,2.47,2.63,4Z"/><path class="cls-34" d="M168.84,473.59c.39-.15,.66,.04,.78,.37,.63,1.72,2.18,3.08,1.96,5.13-1.21-1.69-2.27-3.44-2.74-5.5Z"/><path class="cls-50" d="M221.4,334.39c1.44,1.98,.51,3.63-.4,5.55-.43-1.11,.11-1.9,.14-2.71,.03-.88-.32-1.81,.26-2.84Z"/><path class="cls-24" d="M199.73,525.76c2.43,.93,3.64,1.97,4.18,3.6-1.53-1.04-3.04-2.1-4.18-3.6Z"/><path class="cls-96" d="M294.64,460.87c.16,.16,.31,.32,.47,.48-.29,1.76-.77,3.46-1.55,5.07-.44-2,.46-3.75,1.08-5.55Z"/><path class="cls-56" d="M204.46,305.8c.21,.19,.42,.39,.64,.58-1.5,.99-3.15,1.69-4.77,2.45-.22-.51,.11-.78,.47-.99,1.21-.69,2.44-1.36,3.66-2.04Z"/><path class="cls-18" d="M294.73,492.3c.71,2.26-.79,3.41-2.31,4.54,.62-1.59,1.38-3.1,2.31-4.54Z"/><path class="cls-89" d="M161.31,485.71c1.61,.89,1.98,2.72,3.07,4-.15,.26-.25,.59-.64,.58-.91-1.47-1.82-2.95-2.41-4.59h-.01Z"/><path class="cls-103" d="M304.61,413.09c-.9-1.3-.89-2.07-.36-3.14,.79,.93,.59,1.73,.36,3.14Z"/><path class="cls-137" d="M313.62,410.75c-.21-1.35-.28-2.23,.15-3.18q.69,1.2-.15,3.18Z"/><path class="cls-99" d="M287.98,486.72c-.51-.01-1.03-.03-1.54-.04,.16-.95,.83-1.58,1.47-2.65,.43,1.15,.27,1.92,.07,2.69Z"/><path class="cls-88" d="M302.19,316.55c.86,.74,1.39,1.62,1.64,3.16-1.23-1.05-1.34-2.17-1.64-3.16Z"/><path class="cls-37" d="M307.78,309.42c-1.03-.41-1.88-.98-2.39-2.44,1.47,.62,1.95,1.51,2.39,2.44Z"/><path class="cls-98" d="M152.43,442.12c-.67-.86-.93-1.45-.33-2.28,.7,.68,.63,1.33,.33,2.28Z"/><path class="cls-48" d="M155.76,391.39c.49-.4,.4-1.01,.54-1.53,.67,1.03,.51,2.15,.45,3.59-.76-.72-.89-1.38-.99-2.06Z"/><path class="cls-20" d="M156.24,476.58c-1.04-.67-1.41-1.74-1.64-2.9,.97,.71,1.39,1.75,1.64,2.9h0Z"/><path class="cls-51" d="M198.84,523.22c-.42,.09-.82,.24-1.1,.59-.73-.41-1.25-1.01-1.85-1.93,1.35,.11,2.2,.61,2.96,1.34Z"/><path class="cls-76" d="M225.73,304.24c.96-.76,2.02-1.09,3.61-.92-1.37,.72-2.45,.99-3.62,.9v.02Z"/><path class="cls-72" d="M138.16,364.74c.29-1.03,.71-1.48,1.58-1.84-.07,.96-.63,1.34-1.58,1.84Z"/><path class="cls-20" d="M156.75,477.59c.73,.43,1.15,1.06,1.34,2.25-1.01-.71-1.18-1.48-1.34-2.25h0Z"/><path class="cls-76" d="M222.69,305.26c.82-.92,1.87-1.13,3.04-1.02,0,0-.01-.02-.01-.02-.87,.78-1.91,1.05-3.04,1.01l.02,.02Z"/><path class="cls-33" d="M163.73,490.29c.12-.3,.3-.53,.64-.58,.3,.54,.61,1.08,.91,1.62-.17,.17-.33,.35-.5,.52-.35-.52-.7-1.05-1.06-1.57Z"/><path class="cls-69" d="M151.68,390.9c-.49-.3-.95-.62-.9-1.3,.93,.02,.75,.77,.89,1.31h.01Z"/><path class="cls-133" d="M226.69,555.21c.31-.15,.62-.3,.94-.44,.32,.08,.71,.2,.69,.56-.02,.46-.46,.35-.74,.28-.31-.08-.59-.25-.89-.39Z"/><path class="cls-35" d="M184.67,503.4c-.22,.39-.59,.52-1.01,.57-.16-1.05,.19-1.22,1.01-.57Z"/><path class="cls-23" d="M250.96,565.75c-.83-.55-.89-1.05,.1-1.48,.11,.5,.08,.99-.1,1.48Z"/><path class="cls-139" d="M144.58,362.02c-.16,.59-.16,1.39-1.16,.88-.02-.15,.02-.28,.11-.39,.35-.16,.7-.33,1.04-.49h0Z"/><path class="cls-111" d="M302.39,435.96c-.19,.18-.38,.36-.57,.54,0-.35-.22-.8,.2-1,.23-.11,.31,.24,.37,.45Z"/><path class="cls-19" d="M304.3,384.88c-.32-.26-.62-.53-.29-.98,.15,.16,.29,.32,.44,.48-.05,.17-.1,.33-.15,.5Z"/><path class="cls-74" d="M181.23,492.93c.07,.04,.18,.07,.19,.13,.05,.2-.05,.32-.24,.31-.07,0-.17-.07-.19-.13-.06-.2,.03-.3,.24-.31Z"/><path class="cls-20" d="M156.75,477.59c-.17-.34-.34-.68-.51-1.01,0,0,0,0,0,0,.17,.34,.34,.68,.51,1.01h0Z"/><path class="cls-89" d="M161.32,485.7c-.08-.11-.17-.22-.25-.32,.35-.08,.14,.24,.24,.33,0,0,.01-.01,.01-.01Z"/><path class="cls-55" d="M137.88,385.48c-.06,.05-.12,.1-.18,.15-.05-.13-.11-.26-.14-.4,0-.04,.1-.1,.16-.15,.05,.14,.1,.27,.15,.41Z"/><path class="cls-92" d="M135.65,419.46c-.04-.06-.12-.13-.11-.19,0-.22,.12-.28,.25-.14,.04,.04,.05,.15,.03,.22-.02,.05-.11,.07-.17,.11Z"/><path class="cls-76" d="M222.67,305.23c-.1,.09-.21,.17-.31,.26-.08-.35,.24-.14,.34-.23,0,0-.02-.02-.02-.02Z"/><path class="cls-18" d="M292.2,497.37c-.04,.16-.08,.33-.13,.49,.04-.16,.08-.33,.13-.49Z"/><polygon class="cls-97" points="305.11 429.57 305.18 429.74 305.01 429.72 305.11 429.57"/><path class="cls-128" d="M213.53,329.09c-.27-.1-.41-.3-.44-.59,.29,.09,.46,.27,.44,.59Z"/><path class="cls-114" d="M128.87,374.69c.15-.19,.3-.38,.45-.57-.15,.19-.3,.38-.45,.57Z"/><polygon class="cls-69" points="151.67 390.92 151.77 391 151.68 390.9 151.67 390.92"/><path class="cls-78" d="M223.7,283.99c7.69-1.05,19.14-.92,21.24,.33-7.18,1.19-14.21,.35-21.24,.08-.36-.14-.36-.27,0-.41Z"/><path class="cls-125" d="M217.78,276.63c.22-.26,.31-.47,.43-.49,3.17-.44,6.34-.87,9.55-.8,.74,.02,1.39,.25,1.35,1.14-.04,.8-.73,.83-1.31,.86-3.34,.18-6.64-.11-10.01-.72Z"/><path class="cls-54" d="M223.46,258.12c-.25-.1-.62-.05-.46-.38,.06-.12,.44-.13,.67-.12,.13,0,.25,.16,.38,.25-.21,.09-.43,.18-.59,.25Z"/><path class="cls-123" d="M223.7,283.99c0,.14,0,.28,0,.41-.31,.02-.82,.12-.83-.2,0-.31,.51-.23,.83-.22Z"/><path class="cls-130" d="M188.76,240.82c.13-.17,.25-.17,.38,0,0,0-.19,0-.19,0h-.19Z"/><path class="cls-64" d="M272.77,405.02c2.27,.23,4.55,0,6.82,.35,1.71,.25,1.87,.02,1.77-1.74-.02-.32-.22-.64,0-.98,.69-.18,.84,.39,.99,.82,.72,2.01,1.89,3.75,3.11,5.48,1.73,2.46,2.23,5.43,3.1,8.24-.64,7.71,.75,15.46-.5,23.16-.43,2.66-.84,5.31-1.61,8.16-1.33-1.08-1.39-2.55-2.06-3.65-.35-.57-.6-1.21-.9-1.82-.97-1.94-1-2.01-3.05-1.35-1.6,.52-3.08,.41-4.7-.03-5.06-1.37-10.06-2.89-14.82-5.13-1.02-.48-1.9-1.01-2.57-1.95-3.39-4.73-7.32-9.09-9.86-14.39-.57-1.18-1.56-1.67-2.69-2.13-3.88-1.58-3.87-1.6-3.85-5.81,0-.42,0-.84,.02-1.27,.02-.8,.33-1.32,1.24-1.14,.61,.12,1.16,.02,1.69-.32,3.14-2.02,6.7-2.74,10.3-3.29,3-.46,6.03-.74,9.05-1.1,2.82-1.22,5.65-1.94,8.52-.13Z"/><path d="M203.36,486.69c-.83,.59-1.69,1.11-2.83,1.05-.55-.71-.31-1.43,.11-2.04,1.7-2.39,3.73-4.13,6.84-4.71,4.53-.85,9-.85,13.58-.61,3.95,.21,7.85,.71,11.76,1.12,1.02-.15,2.04-.29,3.06-.44,2.56-1.39,5.28-1.86,8.15-1.46,2.75-1.27,5.58-2.39,8.22-3.86,2.54-1.41,5.39-1.92,7.96-3.19,.86-.43,1.85-.12,2.74,.03,2.74,.48,5.47,1.02,8.19,1.59,.79,.17,1.68,.31,2.05,1.35-.91,.92-2.04,.56-3.06,.41-2-.29-4.01-.6-5.96-1.09-1.46-.36-2.56-.15-3.66,.92-3.09,2.98-6.45,5.71-9.34,8.87-2.5,2.74-5.49,4.39-8.87,5.56-1.51,.52-3.02,1.01-4.54,1.51-4.3,1.3-8.18,.14-11.89-2.03-.27-.04-.47-.23-.69-.38h0c-3.79-1.47-7.27-3.68-11.31-4.59-2.58-.58-5.03-.26-7.26,.88-1.07,.55-2.12,.88-3.25,1.11Z"/><path class="cls-64" d="M245.02,401.04c-.04-.14-.06-.29-.08-.44-.14-.19-.24-.41-.29-.65,2.27-4.77,6.16-7.84,10.77-10.11,1.54-.76,3.44,.02,3.66,2.4,.27,3.03,2.94,3.96,5.48,2.18,1.51-1.06,1.41-2.15-.28-2.97-.3-.15-.65-.19-.95-.33-.81-.37-1.51-.9-1.32-1.9,.24-1.25,1.18-1.23,2.16-.99,1.24-1.04,2.83-.98,4.28-1.33,1.14-.28,2.32-.43,3.48-.62,2.08-.34,2.15-.38,3.09,1.39,.63,1.2,1.76,1.46,2.81,1.97,.67,.33,1.81,.4,1.13,1.71-.27,.51,.28,.69,.63,.89,.42,.25,.97,.35,1.09,.95-.42,1.08-2.29,.87-2.22,2.14,.06,1.03,.75,2.03,1.14,3.04,.06,.15,.04,.32,.06,.5-.43,.68-1.06,.27-1.59,.24-8.68-.39-17.34-.31-25.91,1.37-.33,.06-.67,.06-1.01,.09-.46,.39-1.12,.02-1.57,.43-.16,.04-.33,.06-.5,.07-.87-.19-1.6,.31-2.39,.49-.67,.15-1.31,.32-1.64-.53Z"/><path class="cls-36" d="M236.97,441.04c-1.63-4.94-4.29-9.53-5.35-14.66-1.51-7.33-2.87-14.69-3.78-22.11-.48-3.93-.32-7.93,.23-11.84,.67-4.73,2.48-9.07,5.79-12.66,1.85-1.46,3.67-2.95,5.55-4.37,.85-.64,1.74-1.35,3.3-.91-2.55,1.68-4.3,3.8-6.21,5.78-3.3,3.43-4.48,7.69-5.22,12.11-1.12,6.69-.05,13.29,1.27,19.85,.55,2.73,1.1,5.46,1.53,8.21,.66,4.12,1.96,8.02,3.54,11.86,.84,2.03,1.54,4.11,2.4,6.13,1.16,2.71,.74,5.47,.4,8.23-.08,.67-.46,1.25-1.04,1.83-1.67-.67-1.59-2.2-1.78-3.54-.18-1.31,.18-2.71-.63-3.92Z"/><path class="cls-36" d="M290.01,347.14c.37,5.57-.71,11.11-.49,16.68,.01,.33-.02,.68-.14,.99-.08,.2-.33,.44-.52,.46-.2,.02-.51-.17-.61-.35-.43-.74-.62-1.56-.69-2.41-.19-2.35-.3-4.71-.38-7.07-.24-6.99-.43-14-2.08-20.86-.12-.49-.18-1.01-.37-1.47-3.37-8.09-6-16.51-10.43-24.14-.93-1.59-1.65-3.36-3.44-4.27-.6-.31-.69-.93-.87-1.48-.28-.88,.1-1.28,1-1.22,1.91,.12,3.69,.53,4.82,2.29,.87,1.35,1.83,2.64,2.59,4.05,2.83,5.19,5.54,10.44,7.15,16.18,.14,.49,.28,.98,.51,1.43,3.28,6.69,4.19,13.83,3.94,21.18Z"/><path class="cls-36" d="M185.16,342.77c-.13,1-.37,1.99-.38,2.99-.05,3.28-1.37,5.95-3.51,8.39-3.21,3.66-6.14,7.56-9.76,10.84-.89,.8-1.59,2-3.11,1.56,.12-.82-.06-1.7,.49-2.43,.09-1.03,.51-1.81,1.58-2.09,4.22-3.53,6.55-8.06,7.07-13.52,.21-2.27,.42-4.54,.49-6.81,.21-6.58,2.6-12.32,6.67-17.41,1.06-1.33,2.29-2.49,3.77-3.35,.88-.51,1.79-.9,3.02,.24-2.21,0-3.41,1.19-4.47,2.52-3.84,4.83-6.11,10.28-6.26,16.5-.07,2.87-.08,5.73-.11,8.6,.36,.29,.45,.68,.43,1.02,.7-1.01,.21-2.46,1.04-3.52,.26-2.52-.02-5.13,.48-7.55,1.08-5.23,2.82-10.26,7.11-13.94,2.12-1.82,4.41-3.4,6.76-4.9,.62-.4,1.29-.79,2.3-.47-1.79,1.41-3.41,2.82-5.16,4.05-5.13,3.6-7.33,8.87-8.51,14.73-.3,1.5,.07,3.03,.07,4.54Z"/><path class="cls-36" d="M249.24,447.7c-.37,3.82-1.55,7.04-5.07,8.89-2.35,1.24-3.14,1.08-5.03-.83-1.21-1.23-1.62-1.27-2.65,.44-2.01,3.32-5.22,4.02-8.66,4.27-1.46,.11-2.85-.19-3.89-1.41-.76-.9-1.49-1.03-2.11,.21-.26,.52-.64,.99-1.05,1.41-.73,.74-1.59,.94-2.51,.33-1.93-1.26-3.59-2.79-4.9-4.69-.3-.43-.54-.94-.15-1.39,.42-.48,1.06-.61,1.61-.28,1.15,.7,2.26,1.46,3.37,2.23,.79,.55,1.27,.47,1.78-.44,1.13-2.04,3.13-2.53,5.27-1.32,1.26,.71,2.46,1.4,4,1.31,2.1-.11,3.85-.62,5.29-2.4,1.96-2.43,4.27-2.7,6.96-1.28,1.96,1.03,3.17,.76,4.07-1.26,1.08-2.45,1.47-4.99,.15-7.56-.92-1.8-1.76-3.64-2.62-5.47-.18-.38-.32-.83,.11-1.14,.45-.33,1.1-.4,1.35,.07,1.61,3.02,4.01,5.65,4.65,9.16,.07,.41,0,.84,0,1.14Z"/><path class="cls-130" d="M258.15,367.05c2.24-.92,4.44-.06,6.61,.28,1.7,.27,2.84,1.71,3.87,3.04,1.12,1.46,2.14,2.99,3.21,4.49,1.73,2.9,3.46,5.79,5.17,8.69,.39,.65,.73,1.33,1.05,2.02,.21,.44,.6,.94,.08,1.37-.51,.42-1.18,.38-1.64-.02-.56-.49-1.02-1.11-1.44-1.74-2.43-3.65-4.9-7.29-7.24-11-1.54-2.44-3.56-3.98-6.45-4.39-.68-.09-1.32-.24-1.98,0-2.97,1.05-5.27-.32-7.36-2.15-1.46-1.28-2.58-2.87-3.4-4.65-.17-1.11-1.18-2.14-.29-3.68,.68,1.08,1.22,1.94,1.76,2.8,2.62,.63,4.2,2.83,6.32,4.2,.57,.37,1,.84,1.73,.75Z"/><path class="cls-116" d="M264.17,388.24c-.41,.1-.9,.1-1.19,.34-.27,.23-.46,.73-.45,1.1,.03,.57,.55,.46,.98,.47,1.49,.05,2.83,.3,3.41,1.99,.37,1.11,.21,2.01-.69,2.71-2.01,1.55-4.23,2.02-6.67,1.14-.98-.35-1.49-1.06-1.59-2.08-.11-1.14-.28-2.27,.2-3.74-5.99,1.61-9.65,5.62-13.16,9.83-1.19,.1-.59-.85-.78-1.34,.17-3.68,2.67-6.61,6.32-7.4,1.69-1.06,3.37-2.14,5.19-2.97,2.8-1.28,5.61-1.45,8.43-.08Z"/><path class="cls-116" d="M298.28,409.22c-.12-.12-.37-.25-.46-.45-.2-.46-.47-.97-.44-1.44,.21-2.74-1.31-4.8-2.61-6.96-.35-.58-.73-1.14-1.03-1.74-.48-.93-1.12-1.9,.81-1.95,.74-.02,.95-.87,1.18-1.5,.71-1.92,.99-3.9,.98-5.95-.03-4.14,2.59-6.99,4.99-9.92,.58-.7,1.45-.58,2.04-.02,.54,.51,.02,1.1-.3,1.56-2.23,3.18-3.41,6.7-3.83,10.56-.23,2.18-.92,4.31-2.49,5.97-.73,.77-.4,1.3,.09,1.95,1.01,1.34,2.04,2.69,2.72,4.25,.86,1.99,.58,3.93-.7,5.16-.25,.24-.5,.45-.95,.45Z"/><path class="cls-116" d="M206.43,454.81c.36-1.37,.72-2.73,1.08-4.1-.09-3.53,1.06-5.25,3.99-5.95,1.59-.95,2.99-2.5,5.15-1.55-.06,.72-.46,1.26-1.01,1.66-3.57,2.61-4.91,6.42-5.77,10.51-.17,.82-.26,1.66-.53,2.45-.25,.71-.69,1.44-1.56,1.43-.9,0-.82-.92-1.06-1.49-.41-.96-.16-1.99-.29-2.98Z"/><path class="cls-130" d="M251.8,442.84c1.06-.41,1.83,0,2.58,.33,.54,.23,1.03,.56,1.54,.86,3.75,2.22,7.49,4.44,11.24,6.66-1.47,2.35-1.74,2.45-3.96,1.38-3.34-1.59-6.65-3.23-9.4-5.79-.99-.92-1.99-1.83-2-3.45Z"/><path class="cls-116" d="M264.77,403.08l-.2,.06-.21-.02c-.48,.36-1.12,.05-1.6,.39-3.75,1.07-7.62,1.4-11.45,1.94-.71,.1-1.62,.3-1.79-.82-.14-.98,.55-1.34,1.35-1.49,5.04-.96,10.02-2.32,15.16-2.72,1.34-.11,2.7-.15,3.66,1.17-.59,.79-1.32,1.08-2.21,1.03-.75,1.07-1.89-.18-2.71,.46Z"/><path class="cls-105" d="M244.04,479.6c-2.54,1.46-5.39,1.23-8.15,1.47,1.32-1.79,1.9-3.68,.92-5.85-.2-.44-.36-1.05-.21-1.46,1.11-3.09,.6-6.3,.77-9.46,.01-.23,.11-.46,.28-1.1,1.07,1.47,1.31,2.94,1.78,4.29-.58,.9,.02,1.58,.44,2.3,1.27,2.19,2.01,4.44,.58,6.91,.8,.15,1.43-.31,2.08-.06,1.05,.71,1.14,1.91,1.51,2.97Z"/><path class="cls-21" d="M225.64,498.88c.17-.75,.03-1.99,1.37-1.32,3.81,1.92,7.62,1.2,11.46,.22,.83-.14,1.65-.32,2.48-.42,1.01-.12,1.81,.26,2.33,1.16-.23,.69-.86,.74-1.4,.88-2.37,.62-4.71,1.36-7.11,1.79-3.34,.6-6.57,.35-9.13-2.32Z"/><path class="cls-14" d="M242.53,476.64c-.86,.9-1.45,2.09-2.83,2.39-.87,.19-1.3-.01-1.13-1,.13-.77,.42-1.48,.89-2.07,1.12-1.39,.91-2.76,.1-4.19-.37-.66-.71-1.35-.93-2.07-.27-.88-.5-1.85,.8-2.21,1.12,1.1,2.12,2.26,2.96,3.62,1.14,1.87,1.48,3.64,.15,5.52Z"/><path class="cls-71" d="M231.26,479.12c-.47-.18-.97-.31-1.4-.55-1.72-.94-1.93-1.5-1.71-3.47,.16-1.44,1.15-2.62,1.19-4.08,.87-.8,.87-1.97,1.27-2.97,.13-.32,.24-.65,.67-.6,.36,.04,.6,.29,.77,.59,.41,.71,.29,1.49,.11,2.22-.28,1.14-.65,2.27-.98,3.4q-.66,2.27,1.26,3.76c.27,.21,.56,.38,.84,.57-.54,.98-1.35,.93-2.02,1.14Z"/><path class="cls-47" d="M143.52,402.12c.33-1.07,1.1-1.73,2.05-2.23,3.39,.15,6.11,1.74,8.48,4.01,.62,.6,1.26,1.44-.35,1.7-1.75-1.11-3.44-2.31-5.47-2.96-1.36-.44-2.42-.41-3.26,.84-.14,.5-.5,.59-.96,.51-.7-.48-.34-1.25-.5-1.87Z"/><path class="cls-90" d="M250.54,391.29c-2.61,1.92-4.69,4.29-6.09,7.23-.15,.34-.32,.35-.5,.03h.01c-.43-.44-.02-1.13-.48-1.55-.33-.08-.87-.29-.75-.52,.63-1.15,.42-2.93,2.34-3.19,.77-.1,1.48-.48,1.51-1.43,.06-1.51,.86-1.62,2.04-1.16,.62,.24,1.28,.39,1.92,.58Z"/><path class="cls-9" d="M264.77,403.08c.82-.66,1.77-.52,2.71-.46,.64,.52,1.41,.35,2.14,.38,.91,.03,1.81,0,2.72,.04,.74,.03,1.67,.02,1.83,.88,.16,.86-1,.62-1.39,1.11-2.41,.1-4.84-.1-7.21,.55-.51,.14-1,.09-1.31-.42,.2-.55,.31-1.13,.76-1.58,.28-.28-.05-.38-.24-.49Z"/><path class="cls-53" d="M245.02,401.04c.75,.36,1.47,.1,2.18-.13,.65-.21,1.28-.4,1.86,.17-2.26,1.16-4.86,1.66-6.75,3.77-.58-1.38-.24-2.03,.83-2.4,.76-.27,1.66-.4,1.89-1.4Z"/><path class="cls-84" d="M175.36,342.81c-.66-.76-.91-1.46-.54-2.2,.72-1.41,.85-3.17,2.65-4.45-.33,2.58-1.07,4.59-2.11,6.65Z"/><path class="cls-12" d="M144.02,403.99c.32-.17,.64-.34,.96-.51,1.12,1.48,1.35,2.29,1.42,5.44-1.13-1.73-1.97-3.22-2.38-4.93Z"/><path class="cls-107" d="M182.12,346.3c.09,1.91-.12,3.73-1.77,5.14,.1-.88,.21-1.76,.31-2.64,.56-.79,.26-2.08,1.46-2.5Z"/><path class="cls-129" d="M245.51,498.17c.44,.24,1.33-.3,1.32,.68-.01,.66-.48,1.04-1.17,1.01-.54-.03-.97-.25-1.04-.86-.07-.64,.24-.92,.89-.83Z"/><path class="cls-132" d="M292.42,407.48c-1.05-.76-1.66-1.38-1.75-2.35-.02-.2,.14-.52,.31-.59,.15-.07,.51,.06,.62,.21,.46,.67,.77,1.42,.82,2.73Z"/><path class="cls-117" d="M292.06,342.91c-.71-.89-.87-1.6-1.01-2.32-.13-.71-.52-1.39-.3-2.21,1.06,1.61,1.2,2.05,1.31,4.53Z"/><path class="cls-17" d="M170.48,362.03c-.28,.88-1.01,1.43-1.58,2.09-.38-2.05-.08-2.45,1.58-2.09Z"/><path class="cls-124" d="M280.27,480.37c.02,.4-.17,.67-.53,.76-.59,.14-.72-.25-.72-.72,0-.32-.02-.75,.39-.79,.48-.05,.71,.36,.86,.75Z"/><path class="cls-73" d="M290.03,456.88c-.57-.82-.3-1.36,.31-2.03,.41,.82,.32,1.39-.31,2.03Z"/><path class="cls-44" d="M263,511.28c-.14,.39-.34,.74-.81,.75-.06,0-.2-.27-.16-.38,.12-.38,.23-.82,.76-.76,.08,0,.14,.25,.21,.38Z"/><path class="cls-10" d="M284.45,341.65c.31-.04,.45,.14,.51,.4,.06,.25,.03,.54-.23,.63-.28,.09-.45-.15-.51-.4-.07-.25-.01-.48,.24-.63Z"/><path class="cls-118" d="M258.29,376.62c.03,.32-.17,.46-.43,.52-.26,.06-.56,.05-.64-.23-.08-.28,.18-.45,.43-.52,.26-.08,.5-.03,.64,.23Z"/><path class="cls-53" d="M243.94,398.54c.17-.01,.34-.02,.5-.03,.17,.51,.04,1.13,.56,1.51-.02,.2-.04,.39-.06,.59-1.06-.34-1.06-1.19-1-2.06Z"/><path class="cls-29" d="M297.83,410.6c0,.28-.12,.49-.39,.51-.12,.01-.36-.12-.37-.22-.05-.27,.14-.47,.4-.52,.11-.02,.25,.14,.37,.22Z"/><path class="cls-65" d="M282.44,383.05c.03,.19-.04,.3-.21,.28-.05,0-.11-.1-.13-.16-.05-.19,.03-.3,.21-.27,.05,0,.09,.1,.13,.16Z"/><path class="cls-53" d="M249.56,401.01c.46-.39,.99-.49,1.57-.43-.46,.36-.99,.49-1.57,.43Z"/><path class="cls-9" d="M262.76,403.51c.47-.38,1.02-.46,1.6-.39-.48,.33-1.02,.47-1.6,.39Z"/><path class="cls-53" d="M243.47,397c.45,.42,.52,.97,.48,1.54-.38-.44-.43-.99-.48-1.54Z"/><path class="cls-128" d="M180.63,404.1c-1.03,.71-2.03,1.49-3.11,2.12-1.01,.59-1.9,1.79-3.36,.81-.2-.13-.75,.23-1.12,.4-1.77,.79-1.64,.76-2.16-1.19-.58-2.18-.23-4.1,.89-5.99,.77-1.29,1.38-2.68,2.3-3.88,1.63-3.07,2.26-6.61,4.58-9.36,.76-.9,1.32-1.92,2.5-2.35,3.95-1.05,6.76-3.91,9.85-6.3,.91-.57,1.97-.64,2.98-.9,1.03,.14,2.01-.05,2.96-.42,2.01-.35,4.04-1.37,5.98,.19,.99,.63,2.12,.47,3.2,.49,2.59,.04,4.84,1.15,7.1,1.9,.02,1.14-.89,1.26-1.15,1.87-.04,.28,.14,.43,.32,.61,1.39,1.4,2.87,2.74,4.12,4.26,1.06,1.29,.81,2.18-.52,3.2-2.39,1.85-4.91,3.16-8.12,2.82-2-.21-4.04,0-6.06,.04-7.92,.92-15,3.33-19.32,10.75-.38,.65-.96,1.21-1.87,.92Z"/><path class="cls-130" d="M194.29,378.26c-.9,.94-1.96,.97-3.1,.54-.13,.16-.29,.31-.47,.43-.37,.22-.73,.47-1.11,.69-2.74,1.72-5.04,4.1-8.1,5.33-2.25,2.77-4.43,5.58-5.21,9.19-.26,1.18-.96,1.9-2.23,1.94-1.03-2.5-.34-4.74,.95-6.95,1.74-3.01,3.67-5.82,6.62-7.83,2.02-1.37,4.01-2.78,5.8-4.46,.94-.89,2.22-1.46,3.47-1.24,1.31,.24,2.11-.2,2.86-1.09,.94-1.1,1.99-1.78,3.53-1.24,.64,.23,1.34,.22,1.8-.48,.92-1.38,2.33-1.28,3.31-.5,1.13,.9,1.43,.17,1.91-.47,1.72-2.29,3.5-4.54,4.84-7.08,.27-.52,.58-1.03,.89-1.53,.19-.3,.47-.49,.85-.38,.55,.17,.53,.62,.36,1.01-.58,1.4-1.09,2.84-1.83,4.15-1.82,3.22-3.58,6.5-6.49,8.93-.42,.25-.85,.49-1.27,.74-.3,.18-.77,.3-.88,.01-.78-2.02-1.48-.57-2.16,.03-.79,.7-1.3,.46-1.69-.39-1-.31-1.71,.62-2.64,.63Z"/><path class="cls-128" d="M181.12,413.16c-.34,.17-.67,.35-1.06,.12-.15-.21-.3-.42-.5-.58-.05-.13-.06-.25-.02-.39-.53-.82,.14-1.85-.48-2.66-.06-.13-.07-.27-.05-.41-.41-1.03,1.02-.64,1.03-1.34,.06-.94-.14-1.93,.47-2.77,1.03,.1,.94,1.71,2.15,1.57,.19,.11,.38,.21,.57,.3l-.06,.06c.14,.22,.29,.24,.45,.02l-.02,.02c.6-.52,1.49,.11,2.05-.53l-.03,.02c.44-.42,1.13,0,1.55-.47,.12-.06,.25-.08,.38-.05,.49-.37,1.19,0,1.66-.47,.11-.06,.23-.07,.35-.04,.66-.45,1.55,.11,2.17-.49h-.02c.77-.56,1.81,.17,2.56-.5h-.02c.78-.56,1.79,.13,2.56-.47,.14-.05,.28-.06,.42-.03,3.58-.25,7.13-1.23,10.76-.51l-.03-.02c.92,.73,2.12-.1,3.06,.53h-.01c.4,.5,1.12,.07,1.54,.5h-.02c.4,.51,1.12,.07,1.54,.51h-.02c.4,.51,1.12,.07,1.54,.51h-.01c.25,.3,.83,.45,.5,1.04h0c-.28,.3-.77,.19-1.01,.56l.03-.04c-.21,.14-.37,.32-.54,.5h0c-.28,.3-.77,.19-1.01,.55l.03-.04c-.21,.14-.37,.32-.55,.5h0c-.27,.31-.76,.19-1.02,.52-.17,0-.34-.01-.51-.02-.61-.54-1.48,.03-2.1-.47-.32-.03-.65-.05-.97-.08-1.4-.45-2.85-.07-4.26-.22-.8-.85-1.57-1.43-2.95-1.14-3.94,.83-7.82,1.9-11.75,2.76-1.41,.31-.19,.82-.22,1.24-1.05,.6-2.2,.56-3.36,.49-.41,.15-.87,.17-1.25,.42-.15,.06-.31,.08-.47,.07-.44,.42-1.13,.02-1.57,.47l-.19,.06h-.2c-.34,.21-.78,.15-1.11,.41Z"/><path class="cls-36" d="M182.83,407.13c-.16,.51-.46,.86-.99,1.05-.78,.28-1.32,.22-1.31-.79,0-.75-.02-1.5-.03-2.25,.04-.34,.09-.69,.13-1.03,2.59-4.89,6.36-8.53,11.41-10.85,1.25-.57,2.53-.9,3.89-.91,1.34-.01,2.68,.01,3.96-.54,.79-.34,1.47-.12,1.94,.64-.78,.53-1,1.3-1.01,2.46,1.38-.57,2.49,.17,3.67,.59,.52,.19,.82,.51,.64,1.15-.67,2.36-4.67,4.39-6.98,3.52-2.3-.87-2.86-1.83-2.98-5.19-5,2.75-9.63,5.75-12.08,11.16-.26,.29-.19,.67-.25,1.01Z"/><path class="cls-128" d="M203.36,486.69c2.56-3.39,6.4-3.91,9.98-3.3,3.77,.63,7.55,2,10.53,4.74,.43,.4,.87,.78,1.31,1.17-5.37-.87-10.75-.46-16.12-.06-.76,.06-1.52-.01-2.27,.07-1.37,.15-2.29-.27-2.6-1.72-.09-.42-.43-.72-.83-.9Z"/><path class="cls-21" d="M189.27,411.24c-1.01,0-2.02,.03-3.02,0-.43-.01-.84-.15-.95-.65-.14-.63,.24-.97,.77-1.09,1.06-.24,2.15-.4,3.22-.63,4.52-.98,8.95-2.35,13.55-3,1.17-.17,2.16-.19,2.94,.85-.26,1.02-1.37,.83-1.94,1.38-.41,.53-1.1,.12-1.56,.49-4.36,.77-8.59,2.15-13,2.64Z"/><path class="cls-52" d="M258.15,367.05c-.56,.7-1.18,.33-1.8,.1-2.65-.99-4.67-2.76-6.26-5.05,1.38-.58,2.74-1.22,4.16-1.72,2.45-.86,3-.55,3.36,1.95,.19,1.28,.78,2.57,.07,3.9-.08,.15,.3,.54,.47,.82Z"/><path class="cls-81" d="M203.53,412.04c-3.11,.95-6.17,1.37-9.28,1.58-.6,.04-1.26-.04-1.31-.83-.04-.63,.54-.84,1.03-.9,2.67-.36,5.35-.71,8.03-1,.56-.06,1.18,.09,1.53,1.16Z"/><path class="cls-31" d="M211.5,444.77c-1.71,1.73-2.95,3.77-3.99,5.95q-1.72-2.94,.45-5.45c.22-.25,.44-.5,.63-.78,.71-1.03,1.44-1.37,2.31-.16,.14,.19,.4,.3,.6,.44Z"/><path class="cls-128" d="M208,403.56c-3.61-.3-7.16,.73-10.76,.51,3.56-.73,7.12-1.47,10.76-.51Z"/><path class="cls-128" d="M202.27,408.6c.44-.41,.99-.49,1.56-.49,1.54,.2,3.15-.33,4.62,.49-2.06,0-4.12,0-6.18,0Z"/><path class="cls-128" d="M211.03,404.07c-1.04-.05-2.15,.26-3.06-.53,1.05,0,2.12-.09,3.06,.53Z"/><path class="cls-128" d="M194.27,404.56c-.75,.68-1.67,.51-2.56,.51,.77-.57,1.67-.52,2.56-.51Z"/><path class="cls-128" d="M179.05,409.66c.67,.79,.49,1.74,.48,2.66-.51-.82-.5-1.74-.48-2.66Z"/><path class="cls-128" d="M196.81,404.09c-.76,.64-1.68,.48-2.56,.49,.78-.54,1.68-.5,2.56-.49Z"/><path class="cls-128" d="M209.42,408.68c.74-.02,1.48-.06,2.1,.47-.74,.02-1.46-.03-2.1-.47Z"/><path class="cls-128" d="M191.74,405.07c-.63,.6-1.4,.54-2.17,.49,.65-.48,1.41-.52,2.17-.49Z"/><path class="cls-128" d="M180.03,407.91c-.34,.45-.69,.89-1.03,1.34-.56-1.14,.47-1.06,1.03-1.34Z"/><path class="cls-128" d="M185.65,406.58c-.58,.58-1.32,.55-2.05,.53,.6-.51,1.32-.54,2.05-.53Z"/><path class="cls-128" d="M182.62,412.69c.45-.41,.99-.48,1.57-.47-.46,.37-.99,.49-1.57,.47Z"/><path class="cls-128" d="M214.08,405.08c-.58,.02-1.12-.07-1.54-.52,.57,0,1.11,.1,1.54,.52Z"/><path class="cls-128" d="M215.6,405.59c-.58,.02-1.12-.07-1.54-.52,.57,0,1.11,.1,1.54,.52Z"/><path class="cls-128" d="M189.21,405.6c-.47,.44-1.05,.51-1.65,.47,.48-.4,1.05-.49,1.65-.47Z"/><path class="cls-128" d="M212.56,404.58c-.57,.01-1.12-.07-1.54-.51,.57-.01,1.11,.09,1.54,.51Z"/><path class="cls-128" d="M187.17,406.12c-.44,.41-.98,.49-1.55,.47,.44-.42,.98-.49,1.55-.47Z"/><path class="cls-128" d="M216.1,406.63c-.17-.35-.34-.7-.5-1.06,.63,.13,1.24,.27,.5,1.06Z"/><path class="cls-128" d="M212.02,409.17c.34-.17,.68-.34,1.02-.51-.26,.33-.6,.5-1.02,.51Z"/><path class="cls-128" d="M213.56,408.2c.26-.32,.61-.49,1.01-.55-.26,.33-.59,.52-1.01,.55Z"/><path class="cls-128" d="M181.12,413.16c.32-.28,.69-.4,1.11-.41-.31,.29-.68,.42-1.11,.41Z"/><path class="cls-128" d="M215.08,407.19c.26-.32,.61-.49,1.01-.55-.26,.33-.59,.52-1.01,.55Z"/><path class="cls-128" d="M184.66,412.16c.36-.31,.8-.39,1.25-.42-.36,.29-.79,.42-1.25,.42Z"/><path class="cls-128" d="M182.83,407.13c-.18-.4-.04-.72,.25-1.01,.05,.3,.09,.6,.14,.89-.12,.05-.25,.09-.39,.12Z"/><path class="cls-128" d="M225.18,489.3c.32-.04,.54,.09,.69,.38-.31,.03-.54-.1-.69-.38Z"/><path class="cls-128" d="M213.04,408.65c.18-.17,.36-.33,.55-.5-.18,.17-.36,.33-.55,.5Z"/><path class="cls-128" d="M214.57,407.64c.18-.17,.36-.33,.54-.5-.18,.17-.36,.33-.54,.5Z"/><path class="cls-128" d="M183.61,407.09c-.16,.17-.31,.16-.45-.02,.15-.02,.3-.01,.45,.02Z"/><path class="cls-128" d="M179.56,412.7c.17,.19,.34,.39,.5,.58-.27-.1-.44-.3-.5-.58Z"/><path class="cls-62" d="M233.93,484.98c.78-.4,1.35-.37,1.99,.05-.68,.77-1.23,.1-1.99-.05Z"/><path class="cls-110" d="M223.1,484.06c.04-.05,.08-.1,.12-.15,.09,.08,.18,.16,.26,.25,.01,.01-.07,.1-.11,.16-.09-.08-.18-.17-.27-.25Z"/><path class="cls-83" d="M181.52,385.25c2.53-2.26,5.43-4.03,8.16-6.03,.32-.27,.76-.19,1.1-.4,.14-.05,.28-.06,.42-.02,.25,.4,.33,.82-.16,1.06-2.81,1.4-5.09,3.59-7.77,5.19-.53,.32-1.07,.98-1.74,.2Z"/><path class="cls-7" d="M194.29,378.26c.47-.47,.91-.97,1.41-1.39,1.13-.95,1.13,0,1.22,.76-.79,.57-1.56,1.23-2.64,.63Z"/><path class="cls-128" d="M190.77,378.83c-.31,.29-.67,.45-1.1,.4,.3-.3,.65-.5,1.1-.4Z"/></g></g><g id="Ebene_8"><g><path class="cls-64" d="M10.92,304.86c34.22-35.35,69.22-76.37,101.92-112.64-13.84,13.42-44.65,47.57-58.58,62.11-14.74,15.54-29.34,31.36-43.34,47.62v2.91Z"/><path class="cls-64" d="M438.97,120.26c-10.24,11.97-30.92,35.93-41.26,47.8-13.65,16.04-27.59,31.81-42.79,46.43,0,0-.22-.2-.22-.2,12.8-16.77,26.87-32.41,41.26-47.8,10.6-11.61,32.08-34.92,42.79-46.43,0,0,.22,.2,.22,.2h0Z"/><path class="cls-64" d="M94.06,414.85c-13.29,12.84-39.97,38.83-53.15,51.77-10.15,9.77-20.19,19.63-29.98,29.75v3.72c28.43-27.35,56.35-57.65,83.35-85.03l-.21-.21Z"/><path class="cls-64" d="M440.14,521.83c-8.27,10.7-25,32.1-33.38,42.7-11.03,14.34-22.35,28.41-34.98,41.41,0,0-.23-.19-.23-.19,10.14-15.02,21.6-28.98,33.38-42.7,8.66-10.36,26.21-31.14,34.98-41.41,0,0,.23,.19,.23,.19h0Z"/><path class="cls-64" d="M343.8,100.53c-32.55,37.26-67.42,79.7-101.5,115.31-2.4,2.44-4.75,4.91-7.18,7.32l-.22-.19c2.1-2.7,4.27-5.34,6.4-8.01,15.05-18.52,31.02-36.44,47.17-53.98,13.67-15.14,41.34-45.58,55.11-60.63,0,0,.22,.19,.22,.19h0Z"/><path class="cls-64" d="M393.72,445.22c-12.36,17.92-25.13,35.54-38.4,52.8-13.19,17.28-26.89,34.62-44.02,48.2,0,0-.19-.22-.19-.22,13.12-13.71,24.85-28.75,37.21-43.13,8.59-10.42,17.15-21.19,25.39-31.87,6.68-8.58,13.29-17.22,19.78-25.94l.24,.17h0Z"/><path class="cls-64" d="M444.78,448.71c-36.16,42.62-88.11,107.51-124.41,148.38,2.29-3.32,4.62-6.64,7.02-9.88,16.8-22.74,35.09-44.3,53.61-65.63,15.8-17.96,47.7-55.93,63.78-72.86h0Z"/><path class="cls-64" d="M166.22,431.31c-32.35,34.65-61.97,71.74-95.17,105.61,0,0-.22-.19-.22-.19,7.14-9.49,14.72-18.61,22.41-27.63,7.68-9.03,15.85-17.63,23.86-26.36,16.04-17.45,32.3-34.71,48.9-51.63,0,0,.21,.2,.21,.2h0Z"/><path class="cls-64" d="M361.21,145.8c-10.41,11.61-31.43,34.84-41.94,46.35-13.88,15.56-28.05,30.84-43.44,44.95,0,0-.21-.2-.21-.2,13.05-16.3,27.34-31.46,41.94-46.35,10.77-11.24,32.57-33.8,43.44-44.95,0,0,.21,.2,.21,.2h0Z"/><path class="cls-64" d="M367.01,227.04c-10.62,12.26-32.07,36.8-42.79,48.96-14.16,16.43-28.61,32.58-44.32,47.58,0,0-.22-.2-.22-.2,13.32-17.16,27.9-33.18,42.79-48.96,10.99-11.9,33.23-35.78,44.32-47.58,0,0,.22,.2,.22,.2h0Z"/><path class="cls-64" d="M282.28,504.43c-13.49,13.5-40.67,40.5-54.25,53.9-17.93,18.05-36.31,35.88-55.68,52.42,0,0-.2-.21-.2-.21,2.13-2.38,4.34-4.68,6.51-7.02l6.63-6.9c13.23-13.81,27.14-26.93,41.12-39.98,13.81-13.1,41.77-39.42,55.68-52.42,0,0,.2,.21,.2,.21h0Z"/><path class="cls-64" d="M146.5,430.15c-9.38,10.65-28.33,31.94-37.81,42.49-12.51,14.28-25.29,28.27-39.32,41.1,0,0-.22-.2-.22-.2,11.66-15.01,24.58-28.88,37.81-42.49,9.74-10.28,29.48-30.91,39.32-41.1,0,0,.22,.2,.22,.2h0Z"/><path class="cls-64" d="M390.23,387.19c-9.53,13.12-28.79,39.39-38.43,52.42-12.7,17.57-25.71,34.89-40.07,51.18,0,0-.23-.18-.23-.18,11.8-18.23,24.95-35.44,38.43-52.42,9.92-12.79,30.04-38.48,40.07-51.18,0,0,.23,.18,.23,.18h0Z"/><path class="cls-64" d="M425.05,242.12c-22.13,28.75-46.61,55.65-71.47,82.02-3.36,3.68-7.12,7.73-9.75,11.96,0,0-.27-.12-.27-.12,1.02-2.41,2.35-4.69,3.8-6.87,2.9-4.27,6.27-8.42,9.57-12.36,8.3-9.88,17.58-19.2,26.45-28.51,7.12-7.52,14.16-15.12,21.08-22.82,6.94-7.69,13.73-15.52,20.36-23.48l.23,.18h0Z"/><path class="cls-64" d="M149.98,324.52c-20.03,25.83-39.67,51.98-59.27,78.13-5.82,7.61-14.33,18.25-19.74,26,0,0-.26-.14-.26-.14,1.22-2.44,2.53-4.87,3.95-7.2,1.05-1.77,3.24-5.23,4.38-6.94,8.92-13.75,19.13-26.57,29.39-39.32,13.57-17.07,27.36-33.96,41.32-50.71,0,0,.23,.18,.23,.18h0Z"/><path class="cls-64" d="M116.33,256.04c-15.66,22.08-32.1,43.6-49.13,64.65-10.31,12.5-21.48,24.63-33.98,34.96,0,0-.2-.21-.2-.21,14.5-16.07,28.4-32.52,42.5-48.93,13.86-16.59,27.36-33.51,40.57-50.64,0,0,.24,.17,.24,.17h0Z"/><path class="cls-64" d="M253.27,85.45c-31.37,33.17-63.96,70.83-97.45,101.67,0,0-.21-.2-.21-.2,15.07-18.05,31.38-34.93,47.98-51.55,12.27-12.53,37.1-37.69,49.47-50.13,0,0,.21,.2,.21,.2h0Z"/><path class="cls-64" d="M82.45,335.94c-11.26,11.78-33.85,35.62-45.01,47.5-9.02,9.39-17.92,18.88-26.52,28.64v3.87c9.7-10.04,19.03-20.42,28.25-30.92,10.9-12.14,32.7-36.65,43.5-48.89l-.22-.2Z"/><path class="cls-64" d="M75.59,25.93c-8.91,10.2-26.77,30.84-35.58,41.13-11.3,12.85-22.3,25.93-32.21,39.91l.09,1.01c12.15-12.42,23.18-25.79,33.92-39.42,8.53-10.54,25.57-31.81,34-42.45l-.23-.19Z"/><path class="cls-64" d="M456,556.28c-2.22,3.08-4.25,5.9-5.86,8.15-9.2,12.45-18.05,25.1-25.51,38.71,0,0,.24,.17,.24,.17,10.1-11.78,18.81-24.54,27.2-37.54,1.13-1.7,2.47-3.7,3.93-5.9v-3.58Z"/></g></g><g id="Ebene_5"><path d="M10.78,638.46c-.48-.02,446.95-1.74,442.25,.14,.69,.17-3.13-634.38,.86-626.15-98.73,.39-233.71,.47-332.43,.52,0,0-110.81-.06-110.81-.06,0,0,2.06-2.06,2.06-2.06-.29,175.21-.95,450.43-1.92,627.61h0Zm-.28,.28c-.43-178.34-2.13-451.63-1.92-627.89,0,0,0-2.06,0-2.06,0,0,2.06,0,2.06,0,55.29,.03,166.36-.12,221.63,0,56.03,.13,167.2,.19,223.23,.46,.41,2.46-1.04,627.53-.74,630.22-.46,.78-443.64-1.28-444.26-.72h0Z"/></g><g id="Ebene_9"><polygon class="cls-8" points="65.86 199.33 88.43 233.19 63.5 201.03 65.86 199.33 65.86 199.33"/></g></svg>