<?xml version="1.0" encoding="UTF-8"?>
<svg id="Ebene_4" data-name="Ebene 4" xmlns="http://www.w3.org/2000/svg" viewBox="0 0 932.53 1303.54">
  <defs>
    <style>
      .cls-1 {
        fill: #7dbdb9;
      }
    </style>
  </defs>
  <path class="cls-1" d="M827.99,414.95c-18.5,27-39.77,53.54-61,78.45-35.84,42.01-72.54,83.53-114.55,119.55,0,0-.43-.43-.43-.43,7.2-8.4,14.55-16.63,21.95-24.83,9.88-10.95,23.47-25.79,33.57-36.53,10.15-10.68,24.16-25.15,34.18-35.94,14.55-15.62,30.19-32.98,44.15-49.23,14.4-16.69,28.44-33.7,41.62-51.39,0,0,.49,.35,.49,.35h0Z"/>
  <path class="cls-1" d="M957.7,732.92c-14.56,22.93-31.46,45.06-48.53,66.17-12.37,15.12-24.46,30.53-37.85,44.78-10.77,11.37-21.79,22.48-33.73,32.67,0,0-.44-.42-.44-.42,4.73-6.26,9.64-12.34,14.61-18.37,9.78-11.84,20.18-24.12,30.6-35.38,7.4-7.98,16.36-17.91,23.45-26.09,7.14-8.12,15.79-18.35,22.69-26.75,9.94-12.01,19.59-24.26,28.69-36.94,0,0,.5,.34,.5,.34h0Z"/>
  <path class="cls-1" d="M307.09,542.56c-17.5,26.27-36.35,52.05-55.74,76.94-7.29,9.38-14.5,18.84-22.11,27.98-12.79,14.96-26.5,29.76-41.2,42.87,0,0-.44-.41-.44-.41,18.75-25.53,39.33-49.51,59.99-73.47,10.16-12.1,20.17-24.33,29.96-36.74,9.94-12.3,19.46-24.92,29.05-37.51,0,0,.49,.35,.49,.35h0Z"/>
  <path class="cls-1" d="M586.24,1086.3c-17.5,26.27-36.35,52.05-55.74,76.94-7.29,9.38-14.5,18.84-22.11,27.98-12.79,14.96-26.5,29.76-41.2,42.87,0,0-.44-.41-.44-.41,18.75-25.53,39.33-49.51,59.99-73.47,10.16-12.1,20.17-24.33,29.96-36.74,9.94-12.3,19.46-24.92,29.05-37.51,0,0,.49,.35,.49,.35h0Z"/>
  <path class="cls-1" d="M187.78,427.45c-19.4,28.46-48.22,69.46-68.41,98.02-22.47,32.25-46.57,65.52-71.54,95.76,0,0-.34-.25-.34-.25,21.3-32.88,45.56-66.09,69.16-97.48,20.8-28.27,50.41-68.29,70.78-96.3,0,0,.34,.24,.34,.24h0Z"/>
  <path class="cls-1" d="M539.29,450.53c-13.58,18.79-28.84,39.13-43,57.6-3.65,4.75-7.2,9.57-10.8,14.37-7.19,9.6-15.06,18.64-23.23,27.42-4.09,4.39-8.28,8.71-12.72,12.81l-.47-.38c6.23-10.32,13.25-20.03,20.47-29.63,7.18-9.59,15.28-18.43,22.97-27.61,11.49-13.71,34.73-41.3,46.29-54.95,0,0,.48,.37,.48,.37h0Z"/>
  <path class="cls-1" d="M505.97,604.6c-13.58,18.79-28.84,39.13-43,57.6-3.65,4.75-7.2,9.57-10.8,14.37-7.19,9.6-15.06,18.64-23.23,27.42-4.09,4.39-8.28,8.71-12.72,12.81l-.47-.38c6.23-10.32,13.25-20.03,20.47-29.63,7.18-9.59,15.28-18.43,22.97-27.61,11.49-13.71,34.73-41.3,46.29-54.95,0,0,.48,.37,.48,.37h0Z"/>
  <path class="cls-1" d="M496.33,309.27c-21.1,25.37-52.38,61.82-74.28,87.19-24.41,28.69-50.48,58.18-77.18,84.63,0,0-.31-.28-.31-.28,23.3-29.43,49.53-58.84,74.98-86.56,22.47-25.03,54.44-60.43,76.47-85.25,0,0,.32,.27,.32,.27h0Z"/>
  <path class="cls-1" d="M698.21,391.9c-22.81,28.75-51.94,63.97-75.33,92.47-9.99,12.12-20.78,24.39-31.41,35.91-5.37,5.86-10.87,11.63-16.48,17.29l-.32-.27c18.61-25.14,39.97-50.08,60.79-73.53,18.33-21.19,44.43-51.15,62.42-72.13,0,0,.32,.27,.32,.27h0Z"/>
  <path class="cls-1" d="M139.92,1155.17c-22.81,28.75-51.94,63.97-75.33,92.47-9.99,12.12-20.78,24.39-31.41,35.91-5.37,5.86-10.87,11.63-16.48,17.29l-.32-.27c18.61-25.14,39.97-50.08,60.79-73.53,18.33-21.19,44.43-51.15,62.42-72.13,0,0,.32,.27,.32,.27h0Z"/>
  <path class="cls-1" d="M838.37,739.16c-22.81,28.75-51.94,63.97-75.33,92.47-9.99,12.12-20.78,24.39-31.41,35.91-5.37,5.86-10.87,11.63-16.48,17.29,0,0-.32-.27-.32-.27,18.61-25.14,39.97-50.08,60.79-73.53,18.33-21.19,44.43-51.15,62.42-72.13,0,0,.32,.27,.32,.27h0Z"/>
  <path class="cls-1" d="M617.38,995.04c-22.81,28.75-51.94,63.97-75.33,92.47-9.99,12.12-20.78,24.39-31.41,35.91-5.37,5.86-10.87,11.63-16.48,17.29,0,0-.32-.27-.32-.27,18.61-25.14,39.97-50.08,60.79-73.53,18.33-21.19,44.43-51.15,62.42-72.13,0,0,.32,.27,.32,.27h0Z"/>
  <path class="cls-1" d="M781.96,875.2c-22.5,29-51.55,64.3-74.7,93.01-9.82,12.18-20.84,24.38-31.62,35.73-5.49,5.77-11.07,11.46-16.9,16.92l-.46-.39c13.64-19.48,28.68-38.34,44.42-56.14,10.91-11.95,67.02-76.17,78.79-89.52,0,0,.47,.38,.47,.38h0Z"/>
  <path class="cls-1" d="M735.43,1016.23c-22.5,29-51.55,64.3-74.7,93.01-9.82,12.18-20.84,24.38-31.62,35.73-5.49,5.77-11.07,11.46-16.9,16.92l-.46-.39c13.64-19.48,28.68-38.34,44.42-56.14,10.91-11.95,67.02-76.17,78.79-89.52,0,0,.47,.38,.47,.38h0Z"/>
  <path class="cls-1" d="M911.35,1170.33c-22.5,29-51.55,64.3-74.7,93.01-9.82,12.18-20.84,24.38-31.62,35.73-5.49,5.77-11.07,11.46-16.9,16.92l-.46-.39c13.64-19.48,28.68-38.34,44.42-56.14,10.91-11.95,67.02-76.17,78.79-89.52,0,0,.47,.38,.47,.38h0Z"/>
  <path class="cls-1" d="M850.29,1165.97c-22.5,29-51.55,64.3-74.7,93.01-9.82,12.18-20.84,24.38-31.62,35.73-5.49,5.77-11.07,11.46-16.9,16.92l-.46-.39c13.64-19.48,28.68-38.34,44.42-56.14,10.91-11.95,67.02-76.17,78.79-89.52,0,0,.47,.38,.47,.38h0Z"/>
  <path class="cls-1" d="M901.2,902.4c-22.5,29-51.55,64.3-74.7,93.01-9.82,12.18-20.84,24.38-31.61,35.73-5.49,5.77-11.07,11.46-16.9,16.92l-.46-.39c13.63-19.48,28.68-38.34,44.42-56.14,10.91-11.95,67.02-76.17,78.79-89.52,0,0,.47,.39,.47,.39h0Z"/>
  <path class="cls-1" d="M671.49,1123.38c-22.5,29-51.55,64.3-74.7,93.01-9.82,12.18-20.84,24.38-31.61,35.73-5.49,5.77-11.07,11.46-16.9,16.92l-.46-.39c13.63-19.48,28.68-38.34,44.42-56.14,10.91-11.95,67.02-76.17,78.79-89.52,0,0,.47,.39,.47,.39h0Z"/>
  <path class="cls-1" d="M949.24,950.45c-22.81,28.75-51.94,63.97-75.33,92.47-9.99,12.12-20.78,24.39-31.41,35.91-5.37,5.86-10.87,11.63-16.48,17.29l-.32-.27c18.61-25.14,39.97-50.08,60.79-73.53,18.33-21.19,44.43-51.15,62.42-72.13,0,0,.32,.27,.32,.27h0Z"/>
  <path class="cls-1" d="M911.66,576.05c-22.5,29-51.55,64.3-74.7,93.01-9.82,12.18-20.84,24.38-31.61,35.73-5.49,5.77-11.07,11.46-16.9,16.92,0,0-.46-.39-.46-.39,13.63-19.48,28.68-38.34,44.42-56.14,10.91-11.95,67.02-76.17,78.79-89.52,0,0,.47,.38,.47,.38h0Z"/>
  <path class="cls-1" d="M647.06,738.88c-22.5,29-51.55,64.3-74.7,93.01-9.82,12.18-20.84,24.38-31.61,35.73-5.49,5.77-11.07,11.46-16.9,16.92,0,0-.46-.39-.46-.39,13.63-19.48,28.68-38.34,44.42-56.14,10.91-11.95,67.02-76.17,78.79-89.52,0,0,.47,.38,.47,.38h0Z"/>
  <path class="cls-1" d="M920.03,427.52c-22.5,29-51.55,64.3-74.7,93.01-9.82,12.18-20.84,24.38-31.61,35.73-5.49,5.77-11.07,11.46-16.9,16.92,0,0-.46-.39-.46-.39,13.64-19.48,28.68-38.34,44.42-56.14,10.91-11.95,67.02-76.17,78.79-89.52,0,0,.47,.38,.47,.38h0Z"/>
  <path class="cls-1" d="M943.03,375.22c-19.74,24.96-45.29,55.26-65.61,79.94-8.62,10.48-18.37,20.87-27.93,30.51-4.87,4.9-9.83,9.71-15.04,14.3l-.45-.4c11.81-16.9,25-33.15,38.92-48.35,9.65-10.18,59.25-65,69.65-76.39,0,0,.46,.39,.46,.39h0Z"/>
  <path class="cls-1" d="M474.31,808.47c-19.74,24.96-45.29,55.26-65.61,79.94-8.62,10.48-18.37,20.87-27.93,30.51-4.87,4.9-9.83,9.71-15.04,14.3l-.45-.4c11.81-16.9,25-33.15,38.92-48.35,9.65-10.18,59.25-65,69.65-76.39,0,0,.46,.39,.46,.39h0Z"/>
  <path class="cls-1" d="M480.12,927.69c-19.74,24.96-45.29,55.26-65.61,79.94-8.62,10.48-18.37,20.87-27.93,30.51-4.87,4.9-9.83,9.71-15.04,14.3l-.45-.4c11.81-16.9,25-33.15,38.92-48.35,9.65-10.18,59.25-65,69.65-76.39,0,0,.46,.39,.46,.39h0Z"/>
  <path class="cls-1" d="M290.34,414.97c-19.74,24.96-45.29,55.26-65.61,79.94-8.62,10.48-18.37,20.87-27.93,30.51-4.87,4.9-9.83,9.71-15.04,14.3,0,0-.45-.4-.45-.4,11.81-16.9,25-33.15,38.92-48.35,9.65-10.18,59.25-65,69.65-76.39,0,0,.46,.39,.46,.39h0Z"/>
  <path class="cls-1" d="M612.5,525.85c-19.74,24.96-45.29,55.26-65.61,79.94-8.62,10.48-18.37,20.87-27.93,30.51-4.87,4.9-9.83,9.71-15.04,14.3,0,0-.45-.4-.45-.4,11.81-16.9,25-33.15,38.92-48.35,9.65-10.18,59.25-65,69.65-76.39,0,0,.46,.39,.46,.39h0Z"/>
  <path class="cls-1" d="M81.15,444.26c-19.74,24.96-45.29,55.26-65.61,79.94-8.62,10.48-18.37,20.87-27.93,30.51-4.87,4.9-9.83,9.71-15.04,14.3,0,0-.45-.4-.45-.4,11.81-16.9,25-33.15,38.92-48.35,9.65-10.18,59.25-65,69.65-76.39,0,0,.46,.39,.46,.39h0Z"/>
  <path class="cls-1" d="M127.17,345.94c-19.74,24.96-45.29,55.26-65.61,79.94-8.62,10.48-18.37,20.87-27.93,30.51-4.87,4.9-9.83,9.71-15.04,14.3,0,0-.45-.4-.45-.4,11.81-16.9,25-33.15,38.92-48.35,9.65-10.18,59.25-65,69.65-76.39,0,0,.46,.39,.46,.39h0Z"/>
  <path class="cls-1" d="M258.89,377.26c-20.04,24.7-45.67,54.92-66.23,79.39-8.79,10.41-18.31,20.88-27.72,30.68-4.76,4.99-9.63,9.88-14.62,14.67,0,0-.31-.28-.31-.28,16.2-21.75,35.03-43.11,53.44-63.11,16.18-18.11,39.23-43.71,55.13-61.63,0,0,.32,.27,.32,.27h0Z"/>
  <path class="cls-1" d="M194.11,843.82c-19.74,24.96-45.29,55.26-65.61,79.94-8.62,10.48-18.37,20.87-27.93,30.51-4.87,4.9-9.83,9.71-15.04,14.3,0,0-.45-.4-.45-.4,11.81-16.9,25-33.15,38.92-48.35,9.65-10.18,59.25-65,69.65-76.39,0,0,.46,.39,.46,.39h0Z"/>
  <path class="cls-1" d="M81.07,1002.75c-20.04,24.7-45.67,54.92-66.23,79.39-8.79,10.41-18.31,20.88-27.72,30.68-4.76,4.99-9.63,9.88-14.62,14.67,0,0-.31-.28-.31-.28,16.21-21.75,35.03-43.11,53.44-63.11,16.18-18.11,39.23-43.71,55.13-61.63,0,0,.32,.27,.32,.27h0Z"/>
  <path class="cls-1" d="M298.71,831.27c-32.05,39.18-73.14,87.02-106.01,125.82-13.82,16.22-29.49,33.39-44.21,48.75-7.59,7.93-15.27,15.78-23.2,23.4,0,0-.45-.4-.45-.4,19.86-25.88,41.48-51.48,63.37-75.69,15.08-16.33,50.79-56.21,66.12-73.26,0,0,43.92-49,43.92-49l.46,.39h0Z"/>
  <path class="cls-1" d="M380.3,601.16c-32.05,39.18-73.14,87.02-106.01,125.82-13.82,16.22-29.49,33.39-44.21,48.75-7.59,7.93-15.27,15.78-23.2,23.4,0,0-.45-.4-.45-.4,19.86-25.88,41.48-51.48,63.38-75.69,15.08-16.33,50.79-56.21,66.12-73.26,0,0,43.92-49,43.92-49l.46,.39h0Z"/>
  <path class="cls-1" d="M876.01,433.76c-15.82,15.92-30.7,32.71-44.92,50.06-14,17.57-27.82,35.14-42.9,51.85,0,0-.34-.24-.34-.24,11.42-19.45,25.6-37.07,40.69-53.78,14.88-16.86,30.44-33.18,47.18-48.2,0,0,.29,.3,.29,.3h0Z"/>
  <path class="cls-1" d="M279.82,645.01c-19.4,28.46-48.22,69.46-68.41,98.02-22.47,32.25-46.57,65.52-71.54,95.76,0,0-.34-.25-.34-.25,21.3-32.88,45.56-66.09,69.16-97.47,20.8-28.27,50.41-68.29,70.78-96.3,0,0,.34,.24,.34,.24h0Z"/>
  <path class="cls-1" d="M399.04,839.83c-19.4,28.46-48.22,69.46-68.41,98.02-22.47,32.25-46.57,65.52-71.54,95.76,0,0-.34-.25-.34-.25,21.3-32.88,45.56-66.09,69.16-97.47,20.8-28.27,50.41-68.29,70.78-96.3,0,0,.34,.24,.34,.24h0Z"/>
  <path class="cls-1" d="M950.05,1059.36c-19.4,28.46-48.22,69.46-68.41,98.02-22.47,32.25-46.57,65.52-71.54,95.76,0,0-.34-.25-.34-.25,21.3-32.88,45.56-66.09,69.16-97.47,20.8-28.27,50.41-68.29,70.78-96.3,0,0,.34,.24,.34,.24h0Z"/>
  <path class="cls-1" d="M294.36,1037.55c-19.4,28.46-48.22,69.46-68.41,98.02-22.47,32.25-46.57,65.52-71.54,95.76,0,0-.34-.25-.34-.25,21.3-32.88,45.56-66.09,69.16-97.47,20.8-28.27,50.41-68.29,70.78-96.3,0,0,.34,.24,.34,.24h0Z"/>
  <path class="cls-1" d="M454.29,985.22c-19.4,28.46-48.22,69.46-68.41,98.02-22.47,32.25-46.57,65.52-71.54,95.76,0,0-.34-.25-.34-.25,21.3-32.88,45.56-66.09,69.16-97.47,20.8-28.27,50.41-68.29,70.78-96.3,0,0,.34,.24,.34,.24h0Z"/>
  <path class="cls-1" d="M771.51,642.97c-19.55,29.69-41.04,58.07-63.39,85.72-13.57,16.49-28.54,31.95-45.21,45.35,0,0-.42-.43-.42-.43,4.41-5.61,8.9-11.11,13.44-16.56,6.51-7.87,13.85-16.56,20.58-24.33,6.28-7.08,15-16.64,21.18-23.81,16.15-18.83,31.8-38.11,46.85-57.84,0,0,6.48-8.45,6.48-8.45l.49,.35h0Z"/>
  <path class="cls-1" d="M759.1,551.66c-26.57,35.71-54.84,71.35-82.65,106.19-16.75,20.8-34.7,41.51-53.16,60.78,0,0-.32-.27-.32-.27,21.36-28.76,44.47-56.39,67.64-83.69,22.97-27.55,45.76-55.25,68.15-83.27,0,0,.33,.26,.33,.26h0Z"/>
  <path class="cls-1" d="M106.07,773.61c-22.82,31.57-47.05,63.15-70.57,94.28-9.32,12.33-19.82,24.69-30.15,36.19-5.26,5.84-10.62,11.61-16.25,17.14,0,0-.47-.38-.47-.38,17.15-26.3,37.03-50.82,57.28-74.75,17.4-21.09,42.09-51.43,59.68-72.85,0,0,.48,.37,.48,.37h0Z"/>
  <path class="cls-1" d="M265.99,953.89c-22.82,31.57-47.05,63.15-70.57,94.28-9.32,12.33-19.82,24.69-30.15,36.19-5.26,5.84-10.62,11.61-16.25,17.14,0,0-.47-.38-.47-.38,17.15-26.3,37.03-50.82,57.28-74.75,17.4-21.09,42.09-51.43,59.68-72.85,0,0,.48,.37,.48,.37h0Z"/>
  <path class="cls-1" d="M150.2,596.95c-25.66,37.64-53.36,74.06-81.21,110.06-27.25,35.79-56.83,72.39-88.04,104.66,0,0-.46-.39-.46-.39,23.14-32.07,48.37-63.82,73.86-94.1,18.01-21.83,36.2-44.22,53.69-66.43,14.16-17.84,28.11-35.84,41.68-54.15,0,0,.49,.35,.49,.35h0Z"/>
  <path class="cls-1" d="M443.35,1127.7c-25.66,37.64-53.36,74.06-81.21,110.06-27.25,35.79-56.83,72.39-88.04,104.66,0,0-.46-.39-.46-.39,23.14-32.07,48.37-63.82,73.86-94.1,18.01-21.83,36.2-44.22,53.69-66.43,14.16-17.84,28.11-35.84,41.68-54.15,0,0,.49,.35,.49,.35h0Z"/>
  <path class="cls-1" d="M166.86,764.25c-16.53,24.29-34.25,47.77-53.15,70.28-18.67,22.7-38.74,44.45-61.73,62.87,0,0-.28-.31-.28-.31,17.36-19.1,42.43-45.88,59.47-64.74,19.43-21.95,37.87-44.77,55.34-68.33,0,0,.34,.24,.34,.24h0Z"/>
</svg>