<?xml version="1.0" encoding="UTF-8"?><svg xmlns="http://www.w3.org/2000/svg" viewBox="0 0 465 650"><defs><style>.cls-1{fill:#527a7a;}.cls-2{fill:#518083;}.cls-3{fill:#72a5a6;}.cls-4{fill:#2c6d75;}.cls-5{fill:#46706f;}.cls-6{fill:#fff;}.cls-7{fill:#4f888d;}.cls-8{fill:#80b4b3;}.cls-9{fill:#80b1b1;}.cls-10{fill:#4a8b8b;}.cls-11{fill:#327780;}.cls-12{fill:#347880;}.cls-13{fill:#2c6a72;}.cls-14{fill:#80b6b5;}.cls-15{fill:#448082;}.cls-16{fill:#679b9d;}.cls-17{fill:#5a8080;}.cls-18{fill:#699a9b;}.cls-19{fill:#6d9a9a;}.cls-20{fill:#357880;}.cls-21{fill:#2b676f;}.cls-22{fill:#6fa3a4;}.cls-23{fill:#557779;}.cls-24{fill:#3a7a7f;}.cls-25{fill:#32767f;}.cls-26{fill:#578080;}.cls-27{fill:#255d64;}.cls-28{fill:#7bafaf;}.cls-29{fill:#6ba0a0;}.cls-30{fill:#6c9597;}.cls-31{fill:#527d7d;}.cls-32{fill:#76a6a7;}.cls-33{fill:#688081;}.cls-34{fill:#3b5f5f;}.cls-35{fill:#26686f;}.cls-36{fill:#428082;}.cls-37{fill:#80b6b6;}.cls-38{fill:#437c80;}.cls-39{fill:#80b5b4;}.cls-40{fill:#4e7679;}.cls-41{fill:#5e9396;}.cls-42{fill:#5d9294;}.cls-43{fill:#316e75;}.cls-44{fill:#74a09f;}.cls-45{fill:#5e8788;}.cls-46{fill:#78a8a7;}.cls-47{fill:#31767f;}.cls-48{fill:#6d9a9b;}.cls-49{fill:#327a80;}.cls-50{fill:#5f9c9e;}.cls-51{fill:#6ab1b5;}.cls-52{fill:#266d76;}.cls-53{fill:#4e8080;}.cls-54{fill:#3e6665;}.cls-55{fill:#2b6d75;}.cls-56{fill:#4e878d;}.cls-57{fill:#276971;}.cls-58{fill:#558080;}.cls-59{fill:#285c62;}.cls-60{fill:#2f727a;}.cls-61{fill:#6f9a99;}.cls-62{fill:#78aeae;}.cls-63{fill:#327880;}.cls-64{fill:#337780;}.cls-65{fill:#2d6c75;}.cls-66{fill:#5a9397;}.cls-67{fill:#699292;}.cls-68{fill:#28626a;}.cls-69{fill:#4c858b;}.cls-70{fill:#76abab;}.cls-71{fill:#658e90;}.cls-72{fill:#5b8888;}.cls-73{fill:#2a6871;}.cls-74{fill:#7dafae;}.cls-75{fill:#4c7171;}.cls-76{fill:#558b8a;}.cls-77{fill:#214b4d;}.cls-78{fill:#4f8a8f;}.cls-79{fill:#588080;}.cls-80{fill:#2b626a;}.cls-81{fill:#609597;}.cls-82{fill:#396365;}.cls-83{fill:#306362;}.cls-84{fill:#80b3b2;}.cls-85{fill:#397678;}.cls-86{fill:#2e6c75;}.cls-87{fill:#285b62;}.cls-88{fill:#597b7e;}</style></defs><g id="Ebene_2"><rect class="cls-77" x="-.61" y="-1.53" width="468" height="654.75"/></g><g id="Ebene_6"><g><path class="cls-51" d="M383.94,640.22c-1.7-.04-1.69-.09-1.86-1.91-.13-1.41-.27-2.81-.41-4.17-.89-.22-1.31,.67-2.04,.48-1.15-.53-1.12-1.61-1.13-2.6-.04-8.65,.48-17.29,.84-25.93,.36-8.52,2.46-16.78,3.45-25.2,.58-4.92,.78-9.87,1.17-14.81,.81-10.47,1.94-20.9,3.34-31.31,.35-2.58,.55-5.19,.66-7.78,.46-11.42,1.05-22.86,.52-34.28-.53-11.32-1.29-22.65-4.03-33.72-1.95-7.91-3.34-15.93-4.29-24.01-.54-4.59-.32-9.25-.05-13.86,.15-2.62,1.24-3.37,3.86-3.03,4.5,.58,9.04,1.19,13.54,1.22,8.25,.05,16.34-1.12,24.37-3.39,5.09-1.44,7.01-4.71,8.67-9.03,3-7.83,1.28-15.4-1.79-22.46-4.33-9.97-7.64-20.23-10.84-30.57-3.14-10.15-4.95-20.81-10.54-30.06-3.71-6.15-6.69-12.85-12.37-17.64-3.45-2.91-7.26-5.14-11.56-6.51-11.07-3.53-21.91-7.62-32.05-13.4-1.76-1-3.08-2.3-3.35-4.44-.28-2.18-2.02-3.4-3.33-4.9-.1-.24-.15-.5-.16-.76,.12-4.09,.96-8.12,.75-12.26-.09-1.77,.27-3.76,.2-5.44-.09-2.04,.23-4.46-1.28-6.43-1.37-1.79-1.06-2.7,.84-3.8,4.71-2.73,5.36-8.41,1.4-12.23-2.84-2.75-1.49-8.75,2.26-9.8,1.46-.41,2.91-.84,4.35-1.28,2.58-.78,3.2-2.46,1.84-4.82-2.01-3.48-4.96-6.16-8.01-8.63-9.98-8.11-21.41-13.26-33.9-16.26-7.24-1.74-14.1-1.02-20.76,2.15-4.16,1.98-8.28,4.01-11.33,7.68-1.36,1.64-2.09,3.29-.97,5.25,1.05,1.84,2.56,3.06,4.88,2.73,1.08-.15,1.94,.33,2.16,1.31,.36,1.6,.91,3.34-.63,4.71-.95,.84-1.93,1.64-2.6,2.73-.68,1.12-1.11,2.15,.77,2.61,1.35,.33,1.63,1.27,1.08,2.54-.63,1.44,.18,1.67,1.32,1.35,1.12-.32,2.41-1.11,3.19,.2,.73,1.23,.82,2.77-.05,4.07-.68,1.01-1,1.93,.02,3.23,.74-2.06,2.14-3.43,4.23-3.36,2.3,.07,4.88-1.22,6.85,1.08,.13,1.76-1.43,1.47-2.36,1.95-1.46,.45-2.98,.68-4.38,1.31-.16,.27-.2,.58-.27,.88-.05,.22-.13,.41-.25,.6-.75,.65-.5,1.7-.99,2.45-.17,.16-.36,.29-.58,.37-.33,.08-.68,.11-1.01,.2-.15,.07-.42,.14-.43,.23-.13,4.2-2.91,8.27-.57,12.6,.52,.95,.12,1.64-.91,2.21-2.51,1.41-2.76,2.93-1.03,5.21,.25,.33,.73,.7,.66,1.04-.7,3.3,1.89,6.69-.28,9.94-.38,.57-.86,1.34-.38,1.85,1.35,1.45,.99,3.28,1.38,4.95,.25,.26,.55,.47,.77,.78,.16,.23,.26,.49,.32,.77,.05,.3,.02,.6-.05,.89-.6,1.27-1.59,1.78-3,1.87-2.01,.12-4.02,.22-6.04,.22-11.69,.05-23.31,.84-34.77,3.31-5.7,1.23-11.41,.45-17.04-.42-14.22-2.18-28.3-5.07-42.19-8.81-1.95-.53-3.82-1.29-5.71-2-1.46-.54-2.3-1.48-2.12-3.02,.77-6.52,.27-13.08,.6-19.61,.03-.5,.13-1,.12-1.5-.31-10.92,.48-21.82,.61-32.74,.17-14.62,.69-29.23,.92-43.85,.01-.93,.23-1.83,.3-2.76,.35-4.32,.61-4.6,4.83-5.17,.83-.11,1.68-.19,2.52-.17,7.15,.21,14.29-.41,21.42-.64,14.44-.48,28.88-1.05,43.33-1.51,9.4-.3,18.81-.65,28.21-.99,10.33-.37,20.66-.71,30.99-1.04,9.15-.29,18.32-.5,27.45-1.04,6.72-.39,13.46,.11,20.15-.78,2.35-.31,4.68,.51,7.04,.32,3.14,.27,6.23-.49,9.36-.5,9.45-.72,18.93-.77,28.39-1.33,5.44-.32,10.9-.32,16.35-.47,7.8-.21,15.59-.92,23.4-.67,.92,.03,1.84-.1,2.76-.24,1.04-.16,2.03-.08,2.65,.96,.16,3.1,.53,461,.54,478.07,0,1.48,.15,2.61,2.21,2.96-1.92,1.13-3.46,.32-4.96,.27-1.6-.05-57.26-.05-65.15-.22Z"/><path class="cls-51" d="M173.07,636.16c-1.29-.71-1.15-2-1.13-3.13,.09-6.97-.48-13.96,.39-20.91,.06-.5,.07-1.01,.05-1.51-.32-12.11,.41-24.2,.62-36.3,.25-14.44,.6-28.89,1.05-43.33,.2-6.38,.12-12.77,.4-19.15,.61-13.94,.66-27.88,1.12-41.82,.22-6.55,.13-13.11,.4-19.65,.62-14.94,.68-29.9,1.12-44.85,.2-6.97-.05-13.96,.43-20.91,.72-10.42,.03-20.85,.63-31.25,.55-9.65,.33-19.32,.73-28.97,.11-2.56,1.18-3.4,3.31-2.14,8.84,5.22,18.75,7.38,28.48,9.97,9.35,2.49,18.63,5.16,27.88,7.99,4.18,1.28,8.41,2.38,12.35,4.31,1.8,2.71,3.44,5.41,1.52,8.82-.47,.83,.14,1.79,.52,2.64,3.38,7.52,7.06,14.88,11.54,21.82,1.41,2.18,1.75,4.41,1.43,6.95-.45,3.57-.57,7.19-.74,10.79-.1,2.06-.29,4-1.38,5.78-.24,1.13-1.2,1.45-2.09,1.86-.44,.2-1.06,.34-1.02,.91,.06,.77,.87,.54,1.35,.77,1.76,1.42,1.34,3.51,1.51,5.34,.46,5.01,.28,10.04,.33,15.06,.1,8.53,2.32,16.73,5.9,24.57,2.24,4.91,4.69,9.66,7.9,14.01,1.5,2.04,1.26,2.95-.75,4.25-.27,.13-.56,.2-.86,.22-.46,.02-.89-.09-1.29-.31-1.77-1.13-3.7-2.01-5.43-3.2-6.84-4.69-10.53-11.36-12.09-19.34-1.6-8.18-2.6-16.42-2.52-24.78,.04-4.56,.97-9.02,1.52-13.52,1.4-11.62,.64-23.01-3.73-33.98-3.45-8.66-6.2-17.6-10.43-25.95,3.06,8.3,5.47,16.82,8.7,25.07,3.09,7.89,4.99,15.98,4.85,24.57-.11,6.82-.64,13.57-1.4,20.35-.72,6.37,.1,12.76,.98,19.09,.24,1.75,.49,3.5,.69,5.25,.65,5.74,2.64,10.93,5.99,15.6,1.36,1.9,1.61,3.83,1.27,6.16-.82,5.56-1.25,11.17-1.65,16.78-.65,9.2-1.29,18.4-2.55,27.56-.95,6.89-1.42,13.87-1.84,20.82-.26,4.36-.5,8.72-.97,13.06-.42,3.89,.29,7.72,.5,11.57,.48,8.89,1.21,17.79,3.11,26.51,1.81,8.3,3.7,16.58,4.57,25.04,.68,6.59,1.43,13.17,.87,19.83-.19,2.32-.18,4.69,.3,7.03,.53-5.26,1.26-10.51,.74-15.81-.83-8.44-1.66-16.89-3.43-25.21-1.42-6.66-2.93-13.3-3.77-20.07-.59-4.75-.98-9.52-1.29-14.3-.34-5.12-.65-10.24-.47-15.36,.35-9.65,1.09-19.28,1.81-28.91,.32-4.26,.51-8.57,1.05-12.78,.64-5.06,.75-10.23,2.15-15.19,.24-.86,.64-1.63,1.34-2.21,.25-.18,.53-.26,.84-.23,.3,.08,.56,.22,.79,.42,1.66,3.19,1.19,6.63,.55,9.84-1.91,9.69-2.67,19.47-2.63,29.29,.05,10.87,1.24,21.62,4.51,32.07,3.07,9.83,4.28,20.03,5.98,30.13,1.84,10.91,3.39,53.36,3.39,53.36,0,0-99.45-.32-103.98-.39Z"/><path d="M261.37,405.4c-1.92,.65-2.22,.52-2.41-.95-.11-.84,.29-1.19,.97-1.49,1.06-.47,2.08-1.02,3.12-1.54,.92-1.29,2.2-2,3.7-2.46,10.26-3.14,20.7-5.15,31.46-5.26,.67,0,1.35,0,2.02-.06,1.37-.11,1.83-.85,1.78-2.2-.22-5.25,1.42-7.25,6.62-7.7,2.48-.21,4.59-.5,6.54-2.48,1.95-1.98,4.87-1.3,6.83,.04,3.35,2.29,6.83,2.28,10.63,2.51,5.09,.31,10.28,.96,14.82,4.06,3.8,2.6,7.99,3.44,12.69,1.8,3.38-1.18,6.93-2,10.48-2.67,1.59-.37,2.38-1.26,2.43-2.99,.05-1.6,.59-3.2,1.41-4.53,2.16-3.5,3.21-7.59,5.79-10.86,.45-.57,.63-1.2,.39-1.89-1.11-3.14-2.02-6.35-3.54-9.33-.67-.37-1.31-.8-1.73-1.44-3.79-5.79-7.11-11.8-8.46-18.69-.11-.57-.28-1.15-.22-1.74,.11-1.11,.66-1.9,1.76-2.2,1.11-.3,1.97,.11,2.57,1.08,.13,.21,.3,.42,.36,.66,1.16,4.47,3.11,8.64,4.53,12.08-.74-5.06-1.22-10.98-.89-16.95,.09-1.61,.87-2.82,2.56-2.91,1.86-.09,2.02,1.4,2.14,2.79,.61,6.85,1.1,13.71,1.57,20.57,.11,1.6,.36,3.19,.86,4.7,2.71,8.22,5.23,16.49,8.59,24.49,.76,1.81,1.69,2.32,3.66,1.93,4.38-.87,8.72-1.75,12.49-4.37,.61-.43,1.34-.72,2.1-.82,1.22-.15,2.61,.3,2.52,1.46-.19,2.51,1.37,2.06,2.76,2.05,1.37-.01,2.68,.21,3.95,.71,1.18,.46,2.11,1.29,1.96,2.62-.16,1.4-1.32,1.81-2.59,1.9-.84,.06-1.72,.2-2.51-.03-3.41-.95-6.79-.76-10.18,.04-4.9,.16-9.53,1.82-14.32,2.56-8.6,1.33-17.2,2.72-25.73,4.46-2.81,.57-2.87,.69-2.07,3.53,.83,2.96,.72,5.97,.6,8.98,.41,3.58-.44,7-1.39,10.69,1.78-.01,3.52,.01,5.2-.25,6.9-1.08,13.79-.16,20.62,.42,8.45,.71,16.76,.64,25.04-1.17,3.69-.81,7.4-1.54,11.05-2.58,1.51-.43,2.6-1.2,3.16-2.62,1.57-3.97,3.31-7.85,2.52-12.38-.87-4.99-1.89-9.86-4.15-14.46-3.28-6.65-5.5-13.73-7.57-20.83-2.21-7.58-4.56-15.13-6.61-22.76-1.9-7.03-5.15-13.49-9.16-19.56-.56-.84-1.14-1.67-1.38-2.67-3.42-7.47-10.04-11.06-17.21-13.7-8.27-3.05-16.4-6.38-24.41-10.03-2.28-1.04-4.4-2.43-6.64-3.57-.78-.4-1.36-.64-1.67,.5-.34,1.24-1.21,2.18-1.98,3.18-3.91,4.9-8.51,8.98-14.9,9.9-10.31,1.48-20.42,.05-30.13-3.64-4.26-1.62-7.89-4.41-11.36-7.33-1.02-.96-1.79,.03-2.65,.35-1.34,.4-2.48,.08-3.46-.89-.92-1.18-.41-2.21,.73-2.54,2.27-.66,3.24-2.27,3.83-4.27-.04,.03,.09-.09,.05-.06s-.01-.04-.05-.01c-.12,.1-.21,.16-.33,.23-1.74,.81-3.58,1.03-5.42,1.11-4.78,.2-9.57,.25-14.36,.44-6.76,.27-13.43,1.09-19.98,2.51-6.47,1.41-12.85,1.3-19.29,.5-14.36-1.8-28.42-5.21-42.57-8.17-4.15-.87-8.05-2.48-11.85-4.25-5.19-2.41-10.38-4.78-15.75-6.76-1.28-.47-2.42-1.13-3.38-2.13-.82-.86-1.84-1.42-2.95-1.88-3.26-1.35-6.52-2.76-9.9-3.75-8.07-2.38-15.17-6.72-22.44-10.75-2.39-1.32-4.69-2.95-7.51-3.25-.56,.47-.93,1.13-.8,1.78,.64,3.11-.69,5.84-1.83,8.48-1.92,4.45-3.69,9.03-6.69,12.94-.86,1.12-.67,1.84,.37,2.74,3.46,3.01,7.57,4.98,11.47,7.28,7.35,4.34,14.09,9.63,21.54,13.79,4.16,2.32,8.1,5.12,12.8,6.39,2.09,.57,3.43,2.38,5.31,3.32,3.53,1.77,7,3.7,10.77,4.93,5.45,1.78,9.86,5.37,14.62,8.35,5.68,3.55,11.71,6.13,18.34,7.39,8.91,1.7,17.39,4.99,26.12,7.39,7.52,2.07,15.12,3.91,22.54,6.37,1.19,.39,2.44,.66,3.71,.72,.96,.05,1.79,.44,2.54,1.01,1.53,1.17,2.28,3.39,1.54,4.67-1.02,1.77-2.66,1.01-4.09,.86-1.02-.11-1.85-.75-2.64-1.39-3.9-1.29-7.73-2.78-11.73-3.82-6.17-1.61-12.14-3.92-18.32-5.51-6.74-1.73-13.44-3.64-20.18-5.37-6.79-1.74-13.28-4.22-19.34-7.76-.35-.21-.73-.38-1.07-.56-.75,.42-.46,1.08-.46,1.6,.07,17.49-.4,34.97-.61,52.46-.15,12.36-.58,24.71-.86,37.06-.23,10-.4,20-.62,30.01-.33,14.37-.62,28.74-1.05,43.11-.39,13.02-.71,26.05-.98,39.08-.23,11.18-.6,22.35-.86,33.53-.24,10.17-.33,20.34-.68,30.51-.51,14.45-.66,28.91-.95,43.37-.02,1.01,.05,2.01,.07,3.02-.16,1.15-.31,2.31-.5,3.46-.13,.83-.28,1.85-1.27,1.91-1.07,.06-1.19-.97-1.33-1.8-.14-.82-.16-1.64-.11-2.48,.23-3.74,.28-7.49,.11-11.24-1.79-3.05-.96-6.37-.99-9.61,0-.33,.15-.67,.14-1-.37-10.91,1.94-21.75,.83-32.68-.3-2.93,.35-5.89,.3-8.8-.2-11.61,.94-23.17,1.03-34.76,.06-8.39-.08-16.8,.59-25.17,.19-2.44,.03-4.84,0-7.26-.19-12.02,.51-24.03,.69-36.04,.1-6.88,.09-13.78,.38-20.66,.58-13.51,.68-27.04,1.06-40.55,.35-12.43,.49-24.86,1.06-37.27,.3-6.54-.1-13.11,.77-19.63,.27-1.99,.22-4.03-.12-6.03,.44-4.35,1.2-8.67,1.15-13.06,0-1.33-.02-2.66,.03-3.99,.22-1.22,.53-2.44,.47-3.7,0-.54,0-1.07-.08-1.6-.31-.89-.68-1.76-1.11-2.61-1.79-1.98-4.06-3.29-6.39-4.43-3.92-1.92-8.11-3.27-11.93-5.44-1.71-.97-2.62-.36-2.72,1.76-.16,3.28-.08,6.56-.06,9.84,.11,15.98-.46,31.95-.68,47.92-.13,9.66,.14,19.35-.42,28.99-.61,10.51,.07,21.04-.52,31.52-.59,10.43,.08,20.87-.48,31.27-.56,10.35,.05,20.7-.53,31.01-.55,9.59,.07,19.18-.47,28.75-.59,10.43,.03,20.87-.54,31.27-.51,9.17,.06,18.34-.47,27.48-.53,9.25-.04,18.51-.54,27.73-.34,6.22-.27,12.44-.4,18.65-.03,1.52-.06,3.04-.93,4.38-.21,.25-.48,.44-.79,.55-.33,.06-.64,0-.93-.19-.73-1.06-.53-2.28-.53-3.43-.03-14.22-.04-28.43-.02-42.65,0-8.41-.11-16.83,.14-25.24,.44-15.22,.12-30.45,.55-45.66,.35-12.03,.05-24.06,.47-36.07,.45-12.95,.09-25.91,.54-38.85,.4-11.52,.05-23.05,.48-34.56,.46-12.19,.07-24.39,.52-36.58,.42-11.52,.06-23.05,.51-34.56,.33-8.58,.17-17.16,.43-25.73,.06-1.91-.47-3.05-2.25-3.98-5.74-3-11.39-6.18-16.84-9.69-.42-.27-.86-.53-1.3-.78-.94-.51-1.42-.22-1.46,.84-.11,2.77-.3,5.54-.34,8.31-.07,5.3-.07,10.6-.09,15.9-.06,21.36-.44,42.73-.71,64.09-.17,13.62,0,27.25-.45,40.87-.45,13.79-.06,27.59-.51,41.37-.43,13.12-.06,26.25-.5,39.36-.45,13.37-.06,26.75-.51,40.11-.41,12.19-.06,24.39-.5,36.58-.38,10.6-.12,21.2-.52,31.78-.21,5.63-.23,11.26-.39,16.89,0,.25,0,.51-.02,.76-.07,.55,.07,1.35-.75,1.34-.81,0-.73-.81-.77-1.36-.14-1.84-.33-3.69-.34-5.53-.01-26.75-.25-53.51,.09-80.25,.28-22.29,.02-44.58,.49-66.87,.4-19.09,.02-38.19,.5-57.28,.43-17.41,.04-34.83,.51-52.23,.42-15.64,.05-31.29,.52-46.93,.28-9.5,.15-19.01,.39-28.51,.04-1.77-.52-2.89-1.9-4.04-3.56-2.99-7.33-5.63-11.35-7.94-2.42-1.39-4.59-3.09-6.49-5.17-1.35-1.48-2.93-2.72-4.82-3.55-1.46-.64-2.2-2.88-1.6-4.36,.31-.78,.78-.72,1.35-.22,.68,.61,.39,1.65,1.05,2.25,.53-.5,.85-1.19,1.46-1.61,.39-.54,.52-1.22,.96-1.73,1.51-4.29,4.03-8.11,5.58-12.39,.98-2.71,1.57-5.47,1.87-8.31,0-.19,.02-.39,.05-.58,0-.23-.04-.45-.27-.57-.28-.02-.49,.12-.71,.25-1.43,.67-2.55-.08-3.72-.75-1.79-1.04-3.28-2.57-5.25-3.32-.11-.05-.21-.12-.32-.18-.1-.07-.19-.14-.29-.21-1.27-1.65-3.28-2.18-4.92-3.28-7.57-4.31-15.2-8.51-22.77-12.81-5.61-3.19-11.13-6.58-16.94-9.38-3.76-1.81-7.08-4.63-11.22-5.52-2.35-.5-4.62-1.37-7.01-1.54-.38,1.82,1.21,2.1,2.2,2.6,7.44,3.77,14.51,8.11,21,13.36,1.77,1.43,2.99,3.4,4.51,5.08,.77,.85,1,2,.2,3.01-.7,.88-1.68,.72-2.53,.25-1.93-1.08-1.55,1.17-2.4,1.63-.67,.57-1.25,1.34-2.3,1.14-.26-.08-.45-.24-.59-.47-.13-1.92,.25-3.74,1.61-5.13,.86-.89,.59-1.43-.18-2.03-2.24-1.77-4.45-3.58-6.89-5.1-5.58-3.45-11.13-6.94-16.5-10.71-3.21-2.25-3.22-3.36-.53-6.13,1.3-1.34,2.67-1.29,4.14-.73,3.3,1.26,6.57,2.58,9.84,3.91,6.33,2.58,12.06,6.34,18.18,9.3,9.1,4.42,17.58,9.9,26.38,14.82,4.31,2.41,8.63,4.9,12.54,8,1.08,.86,2.14,1.56,3.67,1.02,.98-.35,1.94,.09,2.86,.61,3.87,2.19,8.03,3.75,12.06,5.49,.73-.75,.47-1.54,.48-2.26,.3-17.06,.32-34.13,.66-51.2,.29-14.88,.17-29.76,.46-44.64,.06-3.27,.46-6.55,.26-9.82-.15-2.43,1.02-3.7,3-4.57,.81,.63,.62,1.45,.61,2.16-.08,9.33,.25,18.66-.33,27.99-.06,1.01-.05,2.02-.05,3.03-.07,12.95,.11,25.91-.26,38.85-.36,12.86-.24,25.72-.38,38.59-.06,5.31-.67,4,3.86,6.39,5.06,2.67,10.07,5.42,15.5,7.31,.32,.11,.61,.28,.93,.38,1.41,.44,1.76,.19,1.88-1.36,.05-.59,.02-1.18,.03-1.77,.04-5.8-.05-11.61,.14-17.41,.4-12.69,.18-25.39,.58-38.08,.33-10.34,.17-20.68,.46-31.02,.11-3.78,.37-7.55,.33-11.34-.01-1.46,.61-2.41,2.06-2.75,3.47,1.56,2.95,4.78,2.93,7.61-.01,1.74-.19,3.51-.22,5.28-.25,14.45-.31,28.91-.67,43.36-.25,10.09,.01,20.17-.41,30.25-.2,4.87-.35,9.73-.49,14.6-.08,2.78,.96,4.36,3.48,5.38,5.53,2.24,11.17,4.23,16.59,6.72,1.44,.66,2.32,.19,2.34-1.43,.02-1.69,.47-3.33,.44-5.02,.02-4.79,0-9.57,0-14.35,0-3.71,0-7.42,0-11.14,.56-5.27,.5-10.56,.52-15.84,.01-3.78,0-7.55-.69-11.28,.58-5.58,1.16-11.15,.52-16.77,.44-3.7,1.11-7.39,.28-11.12,.88-4.57,.39-9.19,.45-13.8,.02-1.42-.67-2.22-2.02-2.82-3.83-1.71-7.82-3.05-11.57-4.92-.67-.4-1.38-.71-2.11-.98-1.52-.36-2.97-.9-4.32-1.71-.79-.48-1.53-.99-1.46-2.07,1.01-.93,2.01-.42,3.02,0,.25-.21,.6-.19,.85-.39,.48-.4,1.05-.53,1.65-.51,4.13,.13,8.22-.49,12.34-.56,5.37-.1,10.74-.53,16.11-.85,4.2-.25,8.4-.21,12.6-.5,6.12-.42,12.27-.44,18.4-.67,10.5-.4,21-.8,31.51-1.14,8.23-.27,16.46-.63,24.7-.89,12.19-.38,24.37-.79,36.56-1.13,10.34-.28,20.67-.65,31.01-.99,10.84-.35,21.68-.82,32.52-.97,2.05-.03,3.96-.71,5.97-.96,6.1-.78,12.23-.97,18.36-1.31,5.04-.28,10.08,.27,15.11,.58,2.53,.16,5.03,.19,7.55,.08,6.13-.27,12.26-.48,18.39-.77,1.97-.09,3.34,.78,4.45,2.21-.22,.93-.99,.56-1.46,.79-.75,.36-.47,.71,.09,1,.75-.44,.88,.13,1.05,.64,.16,.37,.46,.43,.82,.36,.3,.1,.53,.3,.73,.53,.51,.65,1.42,.92,1.74,1.78-.11,1.18-1.55,.41-1.94,1.42,.92,.74,1.58,1.77,2.23,2.85-.2,.83-1.12,.58-1.57,1.03-6.86,.61-13.75,.6-20.63,.86-17.03,.64-34.07,1.14-51.11,1.69-.67,.02-1.34-.03-2.01-.04-.12-.23-.1-.45,.07-.64,.81-.26,1.66,0,2.24-.12-1.37-.18-2.94,.32-4.55,.29-1.28,.32-2.58,.18-3.87,.22-1.55,.3-3.1,.12-4.79-.09,.71,.34,1.68-.47,1.89,.74-10.09,.37-20.17,.74-30.26,1.1-13.96,.49-27.91,.96-41.87,1.43-21.61,.73-43.21,1.43-64.82,2.19-15.3,.54-30.59,1.17-45.89,1.76-2.37,.09-2.07,.1-2.14,2.06-.49,14.03-.76,28.07-1.03,42.11-.24,13.03-.52,26.06-1.06,39.07-.29,6.97-.12,13.96-.75,20.91-.12,1.3,.4,1.68,1.52,2.1,9.66,3.59,19.77,5.31,29.78,7.48,5.99,1.3,12,2.55,18.09,3.3,4.92,.61,9.84,1.49,14.82,.73,4.23-.65,8.43-1.51,12.66-2.17,3.15-.49,6.33-.83,9.54-.84,2.27,0,4.54-.18,6.8-.36,4.37-.34,8.74-.25,13.11-.18,1.71,.03,2.65-.45,3.3-1.87,.03-.19,.09-.38,.15-.55,.08-.13,.18-.26,.28-.37,0,0,.09-.2,.09-.18-.07,.13-.16,.23-.27,.3,0,0-.19,.11-.19,.11h-.21c-.16,.04-.31,.11-.43,.22-.22,.07-.42,.18-.59,.34-1.84-.38-2.17-.99-1.09-2.3,.46-.56,.8-1.05,.71-1.77-.05-.38-.09-.58-.64-.78-1.52-.54-2.03-1.88-.98-3.05,1.92-2.14,1.55-4.2,.42-6.41-.32-.62-.22-1.17,.29-1.58,1.32-1.05,.5-1.89-.25-2.7-.33-.36-.83-.55-1.22-.86-.56-.45-1.01-1.15-.61-1.74,.44-.64,.95-1.02,.14-1.71-.28-.24-.23-.65,.24-.7,1.48-.15,.32-1.37,.83-1.97,.93-.08,1.87,.83,2.87,.04-1.67-3.51-1.75-7.05-.18-10.64,.67-1.53-.17-3.09-.07-4.61,.77-.56,.99,.46,1.54,.44,1.07,.79,.86,1.98,.96,3.07-.08,.48-.11,.96-.09,1.45,.3,1.94-.84,3.72-.66,5.66,.08,.82-.07,1.77,.79,2.23,.86,.46,1.61-.15,2.3-.58,1.16-.73,1.98-1.7,2.34-3.1,.29-1.12,.73-2.31,2.35-1.89,.76,.67,.07,1.46,.16,2.17,0,.15,0,.32,0,.45,0-.03,.02,.15,.01,.13,0-.03,.02,.1,.01,.08,0-.02,.03,.07,.02,.03s-.03-.09-.03-.13-.01-.16-.01-.19c0-.18,0-.33,0-.5-.03-.69,.54-1.4-.13-2.03-.86-2.09,.72-3.3,1.69-4.72,.25-.38,.48-.77,.62-1.2,.31-.85,.49-1.73,.52-2.64-.01-1.13-.08-2.26-.32-3.36-.21-.72-.16-1.56-.97-1.99-2.25-.31-4.49,.36-6.77-.02-1.36-.22-2.84,1.41-2.83,2.89,.01,1.07,0,2.01-1.12,2.47-1.03-.35,.22-1.83-1.24-2.15-.98-.22,.01-1.63-.72-2.33-.53-.51-.23-1.04,.2-1.54,1.45-1.72,1.44-1.73,1.15-4.45-.82,.5-1.55,1.06-2.37,1.42-1.34,.59-2.83,.13-3.24-.9-.39-.97-.3-1.82,.69-2.38,.44-.25,.92-.4,1.2-1.11-1.17,.03-2.29,.02-3.39-.23-.89-.2-1.02-.63-.81-1.45,.56-2.16,1.97-3.77,3.65-5,1.23-.91,1.56-1.74,1.11-3.09-.18-.54-.18-1.15-.28-1.86-1.79,.55-3.34,.26-4.81-.79-2.73-1.95-3.27-5.24-1.26-7.92,1.59-2.13,3.64-3.78,5.9-5.05,4.97-2.8,10.01-5.49,15.84-6.17,3.29-.38,6.54-.38,9.78,.28,11.07,2.29,21.28,6.67,30.74,12.82,4.62,3,8.71,6.6,12.16,10.89,.58,.72,1.12,1.48,1.54,2.3,1.46,2.87,.54,4.89-2.56,5.75-1.62,.45-3.22,.94-4.85,1.35-1.28,.32-2.01,1.02-2.31,2.34-.56,2.52-.51,4.66,1.79,6.54,2.48,2.03,1.98,5.02,1.48,7.76-.41,2.25-1.72,3.98-3.81,5.06-.51,.26-1.2,.32-1.39,.97-.1,.35-.38,.76,.03,1.14q2.8,2.64,1.54,6.27c.81,.02,1.66-1.13,2.22-.24,.32,.5,.06,1.37,.06,2.08q-1.54-.04-2.41,.93c.75,.35,1.72,.13,2.29,.88,.26,.34,.46,.72,.28,1.16-.18,.46-.53,.61-1.01,.47-.16-.05-.31-.14-.47-.17-.55-.11-1.18,.09-1.16,.58,.02,.56,.64,.66,1.19,.45,.42-.16,.82-.1,1.28,.37-.36,1.06-1.57,1.29-2.36,2.19,.42,.32,1.01,.55,1.22,.98,.32,.62,1,1.51-.25,1.96-.52,.19-.22,.51-.27,.77-.07,.39-.28,.81,.11,1.16-1.59,1.34-.36,3.41-1.29,4.93-.33,.46-.65,.36-.96,0,.16,.44,.8,.19,.93,.66,2.38,1.4,3.96,3.38,4.21,6.19,.12,1.32,1.04,1.87,1.97,2.41,3.47,2.05,7,4,10.75,5.51,7.63,3.09,15.27,6.12,23.14,8.6,3.43,1.08,6.6,2.96,9.47,5.18,2.75,2.12,4.88,4.94,6.69,7.78,2.79,4.38,5.69,8.71,8.09,13.36,2.26,4.37,3.84,8.96,5.16,13.64,1.6,5.66,3.59,11.21,5.02,16.9,1.83,7.27,4.68,14.19,7.05,21.27,.48,1.42,1.16,2.8,1.9,4.11,3.28,5.8,4.04,12.22,4.58,18.68,.15,1.8-.64,3.46-1.13,5.14-.92,3.15-1.9,6.28-3.9,8.96-.86,1.15-1.58,2.55-3.52,1.98-.46-.14-1.11,.3-1.65,.53-5.5,2.28-11.31,3.06-17.18,3.63-6.84,.67-13.61-.17-20.39-.7-1.32-.1-2.62-.41-4.07-.65-.79,8.88-.22,17.54,1.39,26.1,.68,3.62,1.09,7.32,1.98,10.87,.94,3.74,1.64,7.53,2.51,11.28,.76,3.28,1.06,6.64,1.37,9.98,1.15,12.41,1.04,24.86,.89,37.3-.13,10.94-1.02,21.82-2.56,32.66-.87,6.07-1.18,12.21-1.8,18.32-.73,7.11-.5,14.32-2,21.33-3.39,15.84-3.24,31.91-3.53,47.96,0,.92-.02,1.84-.02,2.76,0,.68-.04,1.36-.46,1.92-.43,.58-.62,1.65-1.45,1.54-1.01-.13-1.36-1.18-1.52-2.08-.19-1.06,.06-2.19-.55-3.18-1.04-.45-1.08-1.4-1.17-2.32-1.03-10.73-.68-21.42,.72-32.1,.4-3.08,1.06-6.11,1.46-9.18,.01-1.17,.99-2,1.1-3.14,.06-.39,.11-.79,.16-1.18,.15-.64,.35-1.27,.4-1.94,.04-1.66,.67-3.26,.56-4.94,.35-15.82,2.8-31.41,4.99-47.03,.76-5.41,.73-10.89,1.06-16.33,.42-6.87,.21-13.76,.5-20.65,.46-10.97-1.56-21.75-3.57-32.49-.42-2.22-1.06-4.43-.69-6.68-.01,.05,.02-.18,0-.12s-.06-.04-.08,.02c-.01,.06-.04,.12-.05,.16-1.9,3.26-4.13,6.2-7.06,8.56-1.11,2.21-3.04,3.48-5.18,4.51-2.35,1.12-4.58,2.47-7.04,3.35-1.13,.4-2.41,.65-3.14-.65-.75-1.33-.08-2.42,1-3.27,1.12-.88,2.28-1.73,3.49-2.45,3.06-1.82,5.61-4.22,8.17-6.63,1.74-2.49,4.21-4.31,6.13-6.63,1.64-1.98,2.04-2.79,1.86-5.23-2.58,4.05-4.17,8.31-8.03,10.77-4.08,3.35-7.38,7.55-11.89,10.44-4.22,2.7-8.3,5.46-13.2,7.09-8.99,2.99-18.15,3.98-27.51,3.8-9.36-.18-18.54-1.6-27.49-4.37-2.33-.72-4.69-1.3-7.08-1.77-5.13-1.01-9.7-3.19-13.66-6.62-1.25-.87-2.48-1.77-3.71-2.69-.82,.93-.49,1.79-.23,2.64,2.09,2.21,4.96,3.03,7.64,4.07,2.74,1.06,5.45,2.18,8.05,3.55,.59,.31,1.21,.59,1.71,1.05,.97,.89,1.88,1.92,1.13,3.27-.8,1.43-2.17,1.07-3.34,.5-4.97-2.41-10.49-3.61-15.13-6.76-.27-.18-.6-.31-.94-.29-.16,.08-.33,.15-.48,.25-.36,.45-.35,.98-.38,1.51-.31,2.01,.66,4.19-.79,6.04h0c-.51,.6,0,1.42-.43,2.03-.68,1.92-.92,3.93-1.02,5.94-.14,2.69-.36,5.37-1.17,7.94-.38,1.21,.2,2.31-.03,3.47-.85,4.31-.88,8.69-1.25,13.05-.74,8.71-1.26,17.44-1.64,26.18-.29,6.57,.34,13.1,.75,19.65,.39,6.13,1.16,12.22,2.24,18.25,.97,5.37,2.31,10.67,3.26,16.05,1.72,9.77,3.04,19.6,2.7,29.57-.1,3.02-.65,6.02-.35,9.06,.11,1.08-.49,1.88-1.34,2.61-1.82-1.6-1.81-3.74-1.83-5.82-.02-2.1,.15-4.2,.23-6.3,.42-10.47-.92-20.78-2.86-31.02-1.51-7.99-3.61-15.88-4.51-23.98-.63-5.76-1.04-11.54-1.4-17.33-.67-10.87,.63-21.65,1.44-32.46,.51-6.87,1.15-13.73,2.17-20.54,.63-4.18,.08-8.41,.93-12.53,.56-2.74,.74-5.48,.52-8.26-.13-1.6,.15-3.18,.44-4.76,.7-3.78,.41-7.71,1.67-11.41,.15-.44-.06-.82-.29-1.18-.5-.78-1-1.56-1.51-2.33-2.93-4.38-5.07-9.01-5.8-14.33-.91-6.66-1.69-13.3-2.02-20.02-.25-5.1,.74-10.04,1.19-15.05,.04-.42,.2-.82,.21-1.24,.19-6.05,.3-12.11-.3-18.13-.56-5.64-2.36-10.99-4.41-16.23-3.43-8.76-6.09-17.8-9.35-26.62-.2-.55-.32-1.12-.47-1.68,2.24-.83,2.18-.8,3.1,1.2,4.29,9.33,7.68,19.02,11.22,28.63,2.44,6.63,3.82,13.5,3.78,20.71-.04,7.43-.68,14.76-1.77,22.08-.51,3.41-.19,6.89-.06,10.33,.24,6.22,1.33,12.35,2.34,18.48,.53,3.21,1.95,6.05,3.41,8.9,2.24,4.39,5.44,7.83,9.83,10.16,1.41,.75,2.75,1.62,4.13,2.43,.09,.06,.19,.11,.28,.17,.21,.06,.43,.13,.64,.19,6.72,1.44,13.38,3.1,20.04,4.81,11.05,2.83,22.21,4.23,33.63,2.05,4.46-.85,8.9-1.68,13.21-3.11,6.93-2.3,13.21-5.77,18.52-10.83,2.01-1.92,4.03-3.79,6.36-5.31,5.28-5.43,6.97-12.27,7.51-19.51,.17-2.33,.03-4.69,.24-7.03-.27-2.09-.3-4.2-.11-6.29,.15-1.71-.46-2.56-2.21-2.56-4.71,0-9.42-.23-14.12,.13-3.26,.24-5.69-.88-6.79-3.92-.73-2.04-1.85-2.34-3.63-1.73-.55,.19-1.15,.44-1.72,.34-6.34-1.18-12.64,1.43-19.02,.13-4.61-.94-8.91-2.25-12.39-5.65-3.61-3.52-7.72-5.83-13.09-5.15-1.98,.25-3.84-.62-5-2.37-.72-1.08-1.56-1.24-2.77-1.17-10.1,.54-20.08,1.82-29.74,4.93-1.45,.47-2.81-.25-4.19,.11Z"/><path class="cls-82" d="M377.99,591.71c-2.28,11.41-3.25,22.93-2.77,34.56,.13,3.1,.28,6.21,.42,9.31-.04,.38-.08,.75-.12,1.13-.19,1.17-1.1,2.01-1.45,3.11-.24,.42-.6,.68-1.05,.83-3.01,.05-37.75-1.61-40.28-1.48-.89,.05-1.66-.24-2.13-1.07-1.85-.66-2.98-1.91-3.22-3.89,.09-5.16,1.4-10.2,1.15-15.43-.35-7.3,.57-14.59,.76-21.89,.17-6.63,1.11-13.24,.7-19.87-.2-3.21,.64-6.36,.49-9.56-.5-10.24-.56-20.49-.52-30.75,0-1.43-.54-2.82-.35-4.26,.24-1.9,1.21-2.52,2.95-1.7,1.7,.8,3.35,1.55,5.35,.77-2.8,.07-5.13-1.16-7.43-2.46-1.63-.91-2.61-2.2-2.15-4.12,.45-1.9,2.07-1.95,3.62-2.01,7.55-.32,14.54-3.02,21.7-5.09-1.05-.62-2.09-.22-3.07,0-6.87,1.62-13.67,3.55-20.69,4.5-3.61,.49-4.29,3.85-5.04,6.48-1.17,4.1-.86,8.5-1.59,12.72-1.73,9.93-2.57,19.98-3.86,29.97-.61,4.73-.87,9.53-1.16,14.3-.17,2.7-.77,5.32-1.11,7.98-1.34,10.59-1.53,21.25-2.43,31.87-.27,3.26,.41,6.54-.28,9.78-.24,.81-.57,1.6-.87,2.4-.04,.11-.07,.22-.11,.34-3.4-.04-38.99-.28-38.95-2.7,.06-3.61-.1-7.22-.26-10.83-.18-4.19,.09-8.4,.31-12.6,.52-9.89-.78-19.62-2.14-29.37-.84-6-2.1-11.91-2.98-17.9-.76-5.16-2.41-10.15-3.93-15.12-1.34-4.39-1.85-8.87-2.46-13.35-1.05-7.77-1.29-15.57-.7-23.39,.04-.5,.07-1.01,.04-1.51-.28-5.42,.51-10.71,1.76-15.97,.85-3.6,.95-7.32,.84-11.03-.03-.95-.33-1.81-.57-2.7-.6-2.91,.24-5.81,.01-8.72-.03-.58-.22-1.28,.8-1.05,.24,.06,.48,.18,.67,.33,5.11,3.89,11.46,5.1,17.06,7.94,.42,.21,.97,.63,1.37,.14,.52-.63,.16-1.3-.33-1.78-.41-.4-.93-.71-1.44-.99-2.34-1.31-4.76-2.46-7.32-3.33-3.65-1.24-7.12-2.83-10.2-5.19,1.37-2.16,3.61-1.29,5.52-1.56,.36,.21,.74,.38,1.06,.62,4.14,3.17,8.71,5.27,13.91,6.12,2.8,.46,5.53,1.4,8.27,2.18,10.77,3.08,21.78,4.27,32.91,3.63,7.98-.46,15.78-2.19,23.28-5.09,.78-.3,1.52-.67,2.18-1.24,.63-.54,1.31-1.09,2.07-1.41,4.76-2.02,8.33-5.56,11.91-9.11,1.54-1.53,3.05-3.1,4.88-4.32,1.25,.55,.78,1.73,.96,2.66-2.84,3.78-6.72,6.24-10.8,8.42-1.44,.77-2.08,1.78-1.89,3.38,3.55-.38,10.71-4.32,14.29-7.83,5.07,1.15,6.64,2.96,6.68,7.9,.07,7.56,.32,15.14-.05,22.69-.66,13.4-.64,26.85-2.77,40.16-.64,3.97-.33,8.04-.54,12.07-.39,7.37-.91,14.75-.67,22.15,.07,2.17,.36,4.14,1.9,5.82,.93,1.02,1.39,2.3,1.24,3.72-.3,1.24-.19,2.52-.35,3.77-.26,.61-.45,1.24-.4,1.92,.04,.77-.06,1.53-.26,2.27-.2,1.22-.65,2.42-.36,3.7Z"/><path class="cls-82" d="M177.05,346.38c-.23,7.64-.45,15.29-.68,22.93-.07,2.44-.18,4.87-.24,7.31-.4,16.14-.79,32.28-1.19,48.42-.33,13.53-.68,27.07-1,40.6-.35,14.79-.68,29.59-1.02,44.38-.33,14.04-.62,28.08-1,42.11-.4,14.46-.76,28.91-1.03,43.37-.19,10.17-.6,20.34-.91,30.51-.12,.05-.23,.09-.35,.15-.7,2.11-.34,4.32-.6,6.47-.15,1.22,.33,2.52-.48,3.66-.02,.58-.15,.9-.89,.79-4.4-.61-8.79-.98-13.16,.35-2.3,.7-5.68-.65-7.19-2.61-.6-.77-.09-1.43,.02-2.14,.16-.01,.31,0,.46,.05,.2,.07,.37,.03,.5-.14,.14-1.67,.38-3.35,.42-5.02,.27-12.7,.52-25.39,.75-38.09,.36-20.1,.69-40.19,1.03-60.29,.32-19.17,.57-38.35,.99-57.52,.26-11.6,.34-23.21,.52-34.81,.31-19.84,.66-39.69,.99-59.53,.35-21.11,.68-42.21,1.03-63.32,.03-1.66,.16-3.32,.24-4.93,1.17-.24,1.83,.38,2.54,.76,3.63,1.96,7.37,3.69,11.2,5.21,3.7,1.47,7.01,3.56,10.03,6.15-.39,.92,.02,1.94-.34,2.87-.02,3.08-.42,6.14-.34,9.23,.41,4.38-1.09,8.7-.31,13.09Z"/><path class="cls-82" d="M13.03,607.91c-2.96-.47-3.79-1.46-2.89-4.33,2.42-7.68,.06-140.67,.47-154.34,.1-3.31,.33-6.64,.43-9.97,.08-.02,.19-.08,.24-.05,.2,.13,.32,.13,.31-.04-.27-4.07-.07-8.14-.1-12.2,0-.85-.38-1.87,.66-2.48,1.68,.15,1.82,1.6,2.16,2.74,3.01,10.07,5.81,20.19,7.26,30.62,.84,6.08,3.31,11.46,6.56,16.49,3.55,5.5,7.19,10.96,11.06,16.24,.69,.94,1.4,1.9,1.59,3.11-.31,2,1.23,3.07,2.24,4.4,4.29,6.59,9.85,12.26,13.86,19.04,3.19,5.39,6.21,10.89,8.04,16.95,.3,.98,.32,1.97,.51,2.94,.22,1.15-.4,1.73-1.61,1.5-.42-.29-.9-.4-1.41-.46-.85-.28-1.4-.86-1.67-1.7-.07-.33-.02-.72-.22-.97-3.8-4.7-4.68-10.59-6.6-16.06-.05-.39-.19-.77-.26-1.16,.18,.77,.32,1.55,.68,2.26,.81,2.54,1.61,5.07,2.16,7.68,.16,.74,.4,1.46-.03,2.18-1.06,1.2-2.06,.54-2.65-.36-1.23-1.87-3.18-3.16-3.83-4.92,.18,.25,.22,.89,0,1.56-.75,1.75,.26,3.27,.67,4.85,1.5,5.76,3.61,11.36,4.6,17.26,.69,4.05,1.4,8.11,1.7,12.2,.58,7.8-1.35,15.12-4.67,22.14-2.08,4.4-4.73,8.5-6.72,12.94-.19,.89-.76,1.46-1.54,1.88-8.09,4.37-16.45,8.05-25.5,9.92-1.78,.37-3.65,.62-5.49,.13Z"/><path class="cls-82" d="M179.52,264.69v8.86c-1.14,.08-1.8-.54-2.51-.88-4.34-2.05-8.74-3.93-13.26-5.55-2.68-.96-5.24-2.29-7.89-3.34-1.09-.43-.95-1.24-.95-2.05,.04-4.12,.08-8.24,.15-12.36,.09-5.13,.22-10.26,.3-15.39,.24-15.81,.34-31.62,.74-47.43,.18-7.22,0-14.46,.5-21.68,.08-1.19-.1-2.47-.17-3.69-.07-1.2-1.39-2.2-1.56-3.56,1.18-1.25,2.41,.1,3.61-.06,2.01,1.02,4.02,2.05,6.03,3.07,.33,1.11,1,1.21,1.9,.64,2.56,1.01,5.13,2.01,7.69,3.03,1.78,.71,3.47,1.65,5.37,2.07,.86,.19,1.61,.65,1.58,1.67-.17,5.09,.44,10.19-.35,15.26-.56,3.88-.36,7.76-.12,11.64,.07,5.56-.07,11.12-.43,16.67-.45,.69-.25,1.46-.25,2.2,.07,8.34-.06,16.68-.52,25.01v10.67c.11,4.27-.45,8.53-.24,12.81,.04,.81-.3,1.69,.38,2.4Z"/><path class="cls-51" d="M44.7,596.1c.26-1.87,1.22-3.47,2.05-5.1,1.28-2.54,2.67-5.03,3.98-7.57,4.49-8.68,5.95-17.79,4.51-27.52-1.26-8.5-3.49-16.71-6.03-24.87-.53-1.71-1.03-3.39,.19-5.02,2.03-.18,2.62,1.69,3.5,2.79,2.58,3.23,5.76,5.86,8.53,8.88,.53,.58,1.19,.95,1.92,1.16,1.71,.51,2.35-.22,2.08-2.04-.82-5.58-3.59-10.38-6.06-15.3-3.53-7.03-8.54-13.01-13.5-19.01-1.18-1.43-2.13-3.01-3.35-4.39-.81-1.25-2.19-2.14-2.35-3.79-2.37-3.46-4.78-6.89-7.08-10.4-2.94-4.49-6.16-8.78-8.67-13.56-2.25-4.31-3.6-8.83-4.28-13.61-1.12-7.91-3.16-15.61-5.28-23.29-.81-2.91-1.61-5.82-2.42-8.72-.7-.49-.98-1.22-1.14-2.01-.19-.53,.04-1.13-.25-1.65-.05-4.79-.14-9.58-.13-14.36,0-1.45-.46-2.81-.56-4.24-.11-.5,.18-.73,.6-.87,1.55-.01,2.07,1.2,2.74,2.26,5.72,9.16,8.77,19.39,11.84,29.59,2.42,8.02,5.09,15.98,6.9,24.18,.51,2.29,1.73,4.37,2.83,6.44,4.21,7.93,8.11,16.03,12.36,23.92,4.21,7.82,8.39,15.68,12.8,23.4,4.49,7.86,8.71,15.86,11.55,24.52,1.08,3.29,1.01,6.28-.96,9.32-2.38,3.68-3.15,7.94-3.34,12.26-.15,3.44,.03,6.9-.05,10.34-.15,6.41-1.76,12.16-6.72,16.78-4.13,3.84-8.21,7.69-12.99,10.72-.96,.61-1.91,1.5-3.22,.76Z"/><path d="M130.51,130.31c2.54-.71,4.62-.86,6.64-.89,6.22-.1,12.43-.52,18.66-.68,13.03-.33,26.06-.7,39.09-1.1,6.14-.19,12.28-.19,18.41-.42,14.04-.53,28.08-.68,42.12-1.09,6.64-.19,13.29-.08,19.92-.46,7.31-.42,14.64-.12,21.94-.52,7.15-.4,14.3-.1,21.44-.49,7.99-.43,15.99-.11,23.96-.53,7.74-.4,15.48-.08,23.21-.49,8.07-.42,16.16-.1,24.22-.52,7.74-.4,15.48-.09,23.21-.5,7.74-.41,15.47-.25,23.21-.47,2.86-.08,5.72-.15,8.56-.41,2.39-.21,3.95,.9,5.45,2.72-1.59,1-3.25,1.07-4.88,1.26-.58,.07-1.18,.01-1.77,.02-14.8,.21-29.61,.25-44.41,.71-8.5,.26-17,.06-25.48,.46-9.17,.43-18.34,.1-27.5,.53-8.83,.41-17.67,.08-26.49,.49-9.67,.45-19.35,.09-29.01,.53-9,.4-18.01,.08-26.99,.48-9.84,.44-19.69,.1-29.52,.52-9.42,.41-18.85,.09-28.26,.48-10.85,.45-21.71,.11-32.55,.52-13.21,.5-26.41,.29-39.62,.4-.99,0-2.02,.19-3.58-.57Z"/><path d="M313.42,636.13c.78-2.29,.26-4.64,.23-6.96-.03-1.93-.25-3.86,.18-5.78,.06-.24,.07-.5,.07-.75-.05-6.05,.87-12.06,1-18.09,.11-5.32,1.28-10.5,1.78-15.76,.47-4.93,1-9.86,1.3-14.8,.22-3.6,.83-7.17,1.24-10.76,.62-5.34,1.05-10.7,1.87-16.01,.6-3.9,1.24-7.79,1.66-11.71,.27-2.5,.52-5.01,.81-7.51,.1-.83,.15-1.75,1-2.2,.94-.51,1.13-1.13,.63-2.06-.39-.72,.08-1.09,.68-1.34,1.4-.58,2.79-1.22,4.3-1.4,6.7-.79,13.17-2.68,19.7-4.25,1.63-.39,3.28-.77,4.98-.75,.77,0,1.66,.03,1.65,1.08,0,.87,.05,1.88-1.27,2.1-6.47,1.07-12.57,3.73-19.09,4.61-1.67,.23-3.34,.32-5.02,.29-.69-.01-1.57-.37-2,.55-.33,.71,.21,2.57,.99,2.92,2.71,1.22,5.17,3.28,8.49,2.57,.9-.19,1.83-.07,2.67,.4-1.45,3.82-4.98,3.97-10.4,.41-.38,.72-.33,1.49-.16,2.15,.86,3.23,.52,6.52,.56,9.78,.05,3.95-.16,7.9-.09,11.85,.05,3.36,.48,6.7,.39,10.07-.17,6.38-.16,12.77-.42,19.14-.46,11.16-1.08,22.32-1.62,33.48-.04,.84,.06,1.68,.09,2.52,.07,1.85,.3,3.75-.25,5.52-.93,3.02-.72,6.15-1.18,9.21,.35,1.07,.62,2.13-.5,2.96-.33,1.25-.67-.05-1.01,0-.79-.37-1.19-1.07-1.05-1.84,.61-3.48-.72-7.03,.49-10.49,.42-1.2,.31-2.48,.19-3.75-.57-5.78-.49-11.55-.02-17.33,.43-5.18,.3-10.39,.57-15.58,.46-9.05,.43-18.14-.02-27.18-.45-8.88,.16-17.73,.01-26.59,.02-.4,.02-.8,.02-1.19,0-.18,0-.38,0-.57,0,.15,0,.3,0,.47,0,.39,0,.76,0,1.13,.32,8.24-1.39,16.28-2.34,24.38-.16,1.33-.26,2.66-.35,3.99-.04,2.38-.79,4.64-1.36,6.9-.77,3.05-.53,6.16-.84,9.21-.65,6.47-1.24,12.94-2.16,19.37-.18,1.24-.23,2.5,.08,3.74-.38,6.22-1.51,12.36-1.78,18.59-1.31,4.79-1.75,9.71-2.07,14.64-.14,.98-.95,1.47-1.53,2.13,.05,.98-.26,1.24-1.06,.53,0,0-.01-.03-.01-.03-.31-.68-.31-1.36,0-2.04Z"/><path class="cls-51" d="M314.49,637.68c-.21-.76,.18-1.38,.49-2.02,1.56-3.86,2.11-7.86,1.81-12-.07-.89-.19-1.82,.14-2.7,.01-4.17,.82-8.26,1.18-12.39,.18-2.07,.33-4.14,.5-6.2,2.58-8.38,2.51-17.11,3.43-25.71,.49-4.56,.7-9.14,.94-13.72,.68-5.96,1.22-11.93,2.27-17.84,.42-2.37,.55-4.8,.79-7.2,.13-1.24,.17-2.5,.58-3.7,.15-.36,.29-.36,.42,.01,1.1,4.03,.77,8.14,.83,12.24,.06,4.09-.31,8.18,.1,12.29,.33,3.33,.25,6.71,.27,10.07,.02,3.78,.15,7.57,.14,11.34,0,4.02-.16,8.06-.5,12.08-.18,2.18-.18,4.36-.28,6.54-.28,6.21-.41,12.43-.56,18.64-.02,.83,0,1.71,.22,2.5,.32,1.17,.51,2.39,.25,3.49-.97,4.21-.15,8.52-.86,12.73-.08,.49,0,1,.01,1.5-.31,.54-.84,.5-1.33,.48-3.61-.12-7.23-.05-10.84-.43Z"/><path d="M44.7,596.1c6.22-3.78,11.81-8.32,16.78-13.63,1.33-1.43,2.4-2.99,3.08-4.85,1.34-3.66,2.24-7.37,2.14-11.31-.08-3.19-.03-6.39-.02-9.58,.01-4.5,1.15-8.68,3.96-12.23,1.59-2.01,1.61-4.18,1.19-6.43-.24-1.3-.78-2.57-1.28-3.81-2.47-6.16-5.24-12.15-8.62-17.9-4-6.79-7.36-13.96-11.08-20.92-2.25-4.21-4.7-8.32-6.97-12.53-1.95-3.62-3.76-7.31-5.63-10.98-.38-.75-.7-1.53-1.13-2.25-3.26-5.53-5.55-11.34-7.18-17.62-2.96-11.44-6.4-22.79-10.53-33.88-2.14-5.74-4.8-11.28-8.41-16.29-.62-.34-.69-1.05-1.06-1.56-.25-.76-.88-1.33-.99-2.17-.11-.85,.37-.93,1.01-.86,.18-.14,.38-.15,.59-.07,.35,.4,.7,.8,.89,1.32,4.45,5.89,7.7,12.44,10.12,19.37,3.08,8.81,5.77,17.75,8.3,26.74,1.14,4.04,2.32,8.07,3.38,12.14,.96,3.68,3.07,6.9,4.8,10.26,3.42,6.64,7.28,13.07,9.81,20.14,.17,.47,.39,.95,.71,1.33,2.5,3.02,3.93,6.65,5.83,10.01,2.28,4.02,4.49,8.09,6.73,12.13,4.25,7.65,8.3,15.38,11.1,23.71,.76,2.25,1.28,4.48,.91,6.9-.18,1.19-.46,2.27-1.02,3.33-2.31,4.34-3.05,9.02-3.03,13.87,.26,1.32,.31,2.63-.02,3.95,.02,1.93-.04,3.86,.29,5.78,.38,2.23-.47,4.32-.99,6.42-.97,3.91-2.96,7.17-5.84,10.09-5.11,5.18-10.74,9.65-16.89,13.47-5.59,3.47-11.63,6-17.81,8.22-3.25,1.17-6.52,2.18-9.93,2.74-1.53,.25-3.01,.13-4.49-.27-.53-.15-.58-.52-.39-.97,.73-.61,1.58-.92,2.53-.98,3.7-.25,7.21-1.26,10.71-2.47,6.02-2.09,11.82-4.65,17.44-7.63,.36-.19,.67-.48,1-.72Z"/><path d="M57.95,235.83c.86-.14,.98-1.02,1.51-1.5,1.18,.79,2.53,.83,3.86,.81,3.67-.03,7.34,.22,11-.37,3.07-.49,6.15,.25,9.23,.09,1.32-.24,2.4,.69,3.66,.78,.85,.07,1.41,.57,1.39,1.49-.02,.88-.58,1.4-1.36,1.62-1.06,.3-2.17,.28-3.26,.25-3.13-.11-6.22,.23-9.26,.94-3.74,.87-7.54,.5-11.31,.59-1.43,.03-2.86,0-4.24,.47-1.08,.36-1.75,1-1.68,2.2,.07,1.17,.44,2.18,1.74,2.47,1.31,.3,2.61,.5,3.99,.33,3.6-.45,7.23-.32,10.84-.12,1.82,.1,3.71,.35,5.04,1.91,.25,.52,.41,1.05,.21,1.63-5.31,1.25-10.72,1.03-16.11,1.14-1,.02-2.01-.06-2.82-.1,2.73-.24,5.34,1.09,8.1,1.66,1.73,.35,3.43,.88,4.93-.7,.53-.56,1.4-.65,2.09-.12,.64,.49,.69,1.11,.09,1.71-.16,.29-.38,.56-.47,.88-.76,2.79-.94,3-3.78,2.43-4.52-.91-9.03-1.94-13.52-2.97-2.33-.54-3.29-2.41-4.03-4.44-.15-.41-.12-.83,.15-1.2,.77-1.01,.48-2.02,.1-3.1-1.65-4.72-1.23-5.62,3.43-7.71,0-.43,.19-.77,.47-1.08Z"/><path d="M79.1,249.55l-.45-1.15c1.07-.83,1.89-.06,2.71,.47,1.77,1.13,3.47,2.35,5.32,3.36,1.8,.98,3.57,1.78,5.72,1.28,1.42-.32,2.81,.36,4.24,.4,1.61,.05,3.14,.4,3.36,2.32,.2,1.81-1.16,2.42-2.77,2.85,1.63,1.04,2.85,2.43,4.18,3.7,.55,.91,.89,1.93,1.62,2.74,.33,.59,.79,1.13,.83,1.85,.06,.42-.27,.85,.03,1.27-.26,.56-.52,1.12-1.01,1.52-.37-.31-.91-.48-.95-1.08-2.9-3.27-5.92-6.41-9.43-9.06-1.41-1.07-2.81-2.05-4.43-2.81-3.44-1.62-6.66-3.58-8.96-6.74-.14-.12-.23-.27-.26-.46,.03-.19,.12-.33,.26-.45Z"/><path class="cls-47" d="M79.1,249.55c-.03,.15-.06,.29-.08,.44-.3,.28-.61,.28-.9,0-1.33,.77-1.36,2.15-1.62,3.43-.06,.31-.23,.72-.62,.48-.2-.12-.19-.57-.27-.88,.05-.57,.29-1.24-.48-1.48-.56-.17-1.02,.26-1.18,.72-.7,1.93-2.14,1.74-3.71,1.45-4.2-.8-8.22-2.35-12.49-2.85-.66-.08-.99-.55-1.11-1.52,3.77,.15,7.51,.48,11.21,.07,3.78-.42,7.52-.37,11.27,.16Z"/><path class="cls-15" d="M168.55,636.3c-.23-3.78,.48-7.54,.17-11.32,0-.09,.23-.19,.37-.3,.7,.31,.34,1,.53,1.49-.03,2.69-.06,5.37-.1,8.06-.01,.83,.1,1.73-.97,2.08Z"/><path class="cls-28" d="M327.67,637.62c-.16-1.04,.4-1.96,.5-2.96,.81,1.15,1.63,2.29,2.44,3.44-1.03,.14-2.07,.33-2.94-.49Z"/><path class="cls-79" d="M69.09,562.43c0-1.32,.02-2.63,.02-3.95,.84,2.45,.89,4.98,.83,7.98-.54-1.62,.14-3-.85-4.04Z"/><path class="cls-65" d="M101.91,269.08c.6,.11,.96,.44,.95,1.08-.7,.26-1.03,1.27-1.99,.97-.05-.88,.3-1.57,1.04-2.06Z"/><path class="cls-3" d="M374.07,639.82c-.31-1.41,.72-2.19,1.45-3.11,.54,1.51-.35,2.36-1.45,3.11Z"/><path class="cls-82" d="M11.56,422.59c-.14,1.04,.29,2.16-.48,3.1-.01-1.54-.02-3.08-.03-4.62,.17,.51,.34,1.01,.51,1.52Z"/><path class="cls-72" d="M9.95,400.32c.56,.38,.96,.87,1.06,1.56-.22,.2-.44,.39-.66,.59-.54-.64-.43-1.4-.4-2.15Z"/><path class="cls-22" d="M449.28,151.18c-.35-.21-.7-.42-1.05-.64,.24-.61,.73-.65,1.17-.37,.53,.33,.06,.68-.12,1Z"/><path class="cls-55" d="M57.95,235.83c.5,.65,.44,1.05-.47,1.08-.45-.36-.37-.74-.03-1.12,.17,.03,.33,.04,.5,.04Z"/><path class="cls-19" d="M10.37,397.43c-.13-.03-.26-.08-.39-.13,0-.32-.06-.78,.34-.79,.5-.02,.62,.47,.72,.88-.21,.25-.43,.26-.67,.04Z"/><path class="cls-23" d="M10.37,397.43c.22-.01,.45-.03,.67-.04,.36,.31,.37,.74,.41,1.16-.47-.27-.83-.64-1.08-1.12Z"/><path class="cls-85" d="M162.35,157.15c-.13,.48-.48,.46-.85,.39,.18-.36,.53-.36,.85-.39Z"/><path class="cls-33" d="M78.11,249.98c.3,0,.6,0,.9,0,.12,.14,.14,.3,.08,.47-.41,0-.78-.07-.99-.48Z"/><path class="cls-1" d="M450.83,152.07c-.24-.18-.49-.36-.73-.53,.24,.18,.49,.36,.73,.53Z"/><path d="M293.09,236.39c1.48-1.52,3.51-1.29,5.35-1.67,1.01-.22,2.05-.14,3.07-.27,.23,.09,.57,.31,.51,.44-.64,1.38,0,2.83-.29,4.22-.18,.2-.39,.33-.64,.43-2.12,.11-4.03,1.42-6.23,1.04-.37-.12-.68-.34-.9-.67-.61-.74,.21-1.88-.7-2.55h0c-.3-.27-.26-.61-.18-.96Z"/><path class="cls-74" d="M302.87,238.9c.27,1.06-.51,1.93-.54,2.94-.14,.19-.32,.34-.54,.44-.23,.05-.47,.05-.7,0-1.15-.85-2.12-.23-2.91,.53-1.46,1.39-3.38,1.28-5.12,1.75-.92,.25-1.37-.42-1.83-1.03-.77-1.02,.42-2.07-.05-3.09,.35-.02,.69-.03,1.04-.05,.25,.23,.5,.45,.84,.56,3.08,.55,5.51-1.46,8.29-2.09h-.02c.53-.32,1.06-.43,1.55,.06Z"/><path d="M377.61,161.21c0,.14-.03,.29-.06,.43-2.99,.42-6,.47-9.01,.4-.96-.62-2.12-.17-3.51-.7,2.25-.38,4.23-.03,6.08-.67,1.49,.44,3.02,.1,4.52,.21,.66,.11,1.4-.27,1.98,.33Z"/><path class="cls-43" d="M293.26,237.35c.63-.09,1.34-.9,1.87,.08,.53,.98-.27,1.41-.92,1.87-.24,.74-.22,1.87-1.51,.98-.7-1.15,.05-2.01,.56-2.93Z"/><path class="cls-4" d="M301.88,234.82c-1.15-.03-2.3-.07-3.45-.1,.43-.44,1.01-.39,1.55-.45,.56-.06,.89-.28,.76-.9,1.17-.19,1.6,.38,1.54,1.47-.14,.18-.28,.16-.4-.02Z"/><path d="M292.7,240.28c.8,.12,1.08-.55,1.51-.98,.21,.21,.43,.42,.64,.62,.13,.21,.17,.43,.13,.68-.14,.35-.38,.6-.74,.73-.67-.03-1.32,.65-2,.04-.01-.33-.02-.66-.03-.99,.17,0,.33-.04,.49-.1Z"/><path class="cls-79" d="M440.95,611.28c.45,1,.2,1.68,.15,2.71-.57-.99-.55-1.66-.15-2.71Z"/><path class="cls-31" d="M345.2,276.3c-1.03-.07-1.87-.29-1.3-1.68,.58,.17,.51,1.22,1.34,1.03-.01,.22-.02,.43-.03,.65Z"/><path class="cls-88" d="M434.3,629.89c-.12,.09-.25,.28-.35,.26-.3-.04-.37-.27-.26-.54,.08-.19,.25-.26,.41-.13,.11,.09,.14,.27,.2,.4Z"/><path class="cls-76" d="M290.8,280.33c-.07,.25-.17,.47-.45,.55-.05-.23-.1-.46-.15-.69,.03-.31,.24-.46,.51-.54,.25,.2,.28,.43,.08,.68Z"/><path class="cls-43" d="M293.09,236.39c.06,.32,.12,.65,.18,.97-.41-.26-.69-.54-.18-.97Z"/><path class="cls-76" d="M289.18,280.75c.14-.22,.31-.37,.59-.34-.1,.27-.3,.39-.59,.34Z"/><path class="cls-82" d="M286.68,290.86c1.04,.23,1.95,1.09,3.13,.59,1.19,.2,1.97-.72,2.95-1.07,3.35,3.52,7.29,6.26,11.79,8,8.6,3.32,17.59,4.25,26.76,3.82,5.08-.24,9.13-2.6,12.84-5.78,1.46-1.25,2.85-2.58,4.08-4.07,.92-.36,1.73-.24,2.63,.24,6.47,3.46,13.37,5.89,20.28,8.27,7.95,2.74,15.96,5.31,23.22,9.7,1.75,1.06,3.22,2.42,4.67,3.83,.72,.7,1.33,1.55,2.46,1.62,1.94,3.43,4.2,6.65,6.01,10.17,2.67,5.19,4.44,10.67,6.04,16.26,2.99,10.41,5.68,20.92,9.55,31.07,1.46,3.85,2.97,7.65,4.76,11.38,1.6,3.33,2.03,7.07,2.79,10.69,1.13,5.37-.7,10.1-2.68,14.85-.63,1.51-1.68,2.26-3.35,2.66-5.23,1.24-10.44,2.56-15.75,3.41-6.5,1.05-13.04,1.08-19.61,.49-9.88-.88-19.78-1.55-30.13,.45,3.11-3.92,2.94-8.25,3.34-12.44,1.63-1.39,.97-3.28,.98-4.97,.03-4.77,.19-5.24,4.94-6.23,8.45-1.76,16.9-3.5,25.47-4.59,3.43-.43,6.73-1.39,9.93-2.7,1.7-.69,3.45-1.15,5.03-1.27-1.2-.23-3,.83-4.04-1.08,2.9-.75,5.82-.5,8.76-.26,2.07,.18,4.16,.68,6.3-.25-.48-1.29-1.37-1.82-2.6-2.07-2.33-.46-4.68-.51-7.03-.58-.56-.02-1.16,.24-1.76-.22,.52-1.27,2.16-1.18,2.79-2.29-.45-.99-1.1-1.47-2.18-.92-.15,.08-.33,.1-.46,.19-4.64,3.32-10.08,4.4-15.49,5.62-1.95,.44-1.95,.55-2.75-1.39-2.64-6.37-5-12.84-7.13-19.39-.16-.48-.25-.98-.45-1.44-2.36-5.52-2.72-11.4-3.12-17.27-.33-4.78-.63-9.56-.95-14.34-.03-.5-.02-1.01-.39-1.53-1.34,0-2.08,.51-2.1,2.06-.07,5.39,.13,10.75,.69,16.11,.16,1.49,.25,2.99,.38,4.54-.98,.04-.99-.67-1.22-1.12-2.4-4.54-4.47-9.22-5.77-14.21-.41-1.57-1.31-1.89-2.24-.98-.54,.53-.24,1.07-.13,1.64,.91,4.83,2.62,9.38,5.03,13.66,.87,1.54,1.87,3,2.71,4.55,.62,1.15,1.55,1.93,2.59,2.62-1.38,5.68-2.73,11.37-2.51,17.27,.07,1.91-.87,3.38-1.8,4.84-1.74,2.75-2.81,5.67-2.94,8.93-4.12,1.1-8.35,1.89-12.33,3.38-4.03,1.51-7.21-.28-10.56-1.71-1.31-.56-2.49-1.41-3.74-2.1-2.17-1.2-4.44-2.04-6.98-1.6-.42,.07-.82,.16-1.21-.1-2.46-1.7-5.14-1.32-7.77-.64-1.43,.37-2.43,.1-3.62-.84-1.68-1.32-3.46-2.61-5.8-2.84-1.86-.18-3.34,.1-4.3,1.8-.72,1.29-1.63,1.81-3.23,1.53-2.01-.36-4.01,.16-5.9,.98-2.02,.88-2.7,1.94-2.6,4.08,.07,1.56,1.08,3.47,.01,4.57-.93,.95-2.88,.21-4.37,.26-12.19,.4-24.01,2.75-35.52,6.7,1.3-4.05,.9-8.29,1.37-12.43,.14-1.25-.06-2.55,.2-3.76,.63-2.91-.09-5.34-1.73-7.8-4.56-6.86-7.96-14.35-11.44-21.79-.69-1.47-1.06-2.83,.4-4.09,.66-.57,.53-1.33,.27-2.09-.46-1.35-1.2-2.59-1.4-4.02,1.95-.21,3.81,.52,5.73,.6,.5-2.88-.32-4.32-3.02-4.57-2.98-.27-5.75-1.19-8.51-2.2-1.99-.73-4.08-.99-6.1-1.57-6.7-1.91-13.36-3.97-20.13-5.6-3.18-.76-6.05-2.38-9.29-3-4.11-.78-8.09-2.13-12.23-2.91-3.63-.68-7.01-2.35-10.31-4.02-3.07-1.56-6.06-3.29-8.82-5.38-2.9-2.2-6.06-3.96-9.48-5.19-4.53-1.62-8.68-4.05-13.02-6.07-.46-.21-.96-.41-1.19-.89-.49-1.05-1.53-1.37-2.45-1.62-5.58-1.54-10.22-4.91-15.18-7.65-1.47-.81-2.9-1.71-4.32-2.6-1.61-1.01-3.33-1.76-4.58-3.38-.71-.92-1.82-2.01-3.4-1.79-.52,.07-.9-.39-1.28-.71-3.3-2.8-7.04-4.9-10.86-6.84-3.18-1.62-5.74-4.09-8.71-6-.6-.39-.71-.88-.14-1.44,3.81-3.69,5.32-8.72,7.57-13.28,1.91-3.87,2.82-8.08,2.57-12.47-.02-.31-.38-.88,.39-.88,.97,3.9,4.53,4.65,7.46,6.22,1.61,.86,3.78,1.1,4.34,3.33-.05,.6,.26-.01,.39,.06,1.59-.38,2.83,.49,4,1.23,4,2.51,8.35,4.32,12.51,6.49,11.03,5.76,22.56,10.42,33.77,15.79,6.82,3.27,13.62,6.63,20.83,8.88,10.49,3.28,21.09,6.28,32.18,6.84,2.85,.14,5.62,1.18,8.49,.96,10.28-.78,20.6-1.27,30.57-4.36,5.94-1.84,12.06-1.58,18.14-.53Z"/><path class="cls-82" d="M261.37,405.4c4.31-1.69,8.8-2.7,13.3-3.71,7.41-1.68,14.98-2.07,22.51-2.74,.58-.05,1.17,0,1.75,0,.5,.92-.49,1.96,.39,2.67,1.03,.82,2.28,1.04,3.55,1.09,1.42,.05,2.82-.27,4.27-.03,3.54,.59,6.66,2.17,9.01,4.72,3.41,3.7,7.69,5.34,12.4,6.11,3.47,.57,6.98,1,10.48-.27,1.49-.54,3.17-.26,4.76-.04,2.81,.39,5.52,.22,8.08-1.19,1.14-.63,1.43-.44,1.54,.91,.07,.85,.17,1.67,.45,2.46,.84,2.41,2.69,3.65,5.23,3.38,5.46-.58,10.93-.26,16.39-.17,1.86,.03,2.38,.58,1.96,2.3-.63,2.59-.41,5.18-.41,7.77-.94,1.66-2.58,2.69-3.58,4.42-1.74,2.99-.89,6.23-1.69,9.25-.51,1.93-.82,3.85-1.77,5.7-.99,1.94-.16,4.3-.77,6.42-.13,.47-.02,1-.26,1.47-2.79,2.3-5.54,4.63-8.11,7.17-1.74,1.71-3.73,3.14-5.99,4.15-.31,.14-.63,.27-.89,.47-4.49,3.34-9.87,4.58-15.05,6.29-2.97,.98-6.13,1.03-9.19,1.58-12.12,2.19-23.96,.55-35.66-2.68-3.25-.9-6.5-1.7-9.8-2.36-2.71-.54-5.43-1.14-7.64-3,1.51-.99,1.57-1.04,.41-2.55-5.17-6.66-8.55-14.24-11.25-22.12-2.35-6.86-3.54-13.97-2.96-21.29,.42-5.22-.67-10.37-.76-15.57,0-.37-.4-.5-.71-.62Z"/><path class="cls-48" d="M264.41,472.99c.53,.71,.6,1.54,.44,2.35-.43,2.11-.3,4.25-.45,6.37-.15,0-.29-.02-.44-.05,.04-2.37-.19-4.74,.09-7.11,.32-.46,.05-1.05,.34-1.52v-.05Z"/><path class="cls-48" d="M263.53,483.7c-.07-.73-.1-1.44,.43-2.04,.13,.74,.07,1.44-.43,2.04Z"/><polygon class="cls-82" points="276 467.35 275.8 467.37 275.72 467.18 275.93 467.16 276 467.35"/><path class="cls-51" d="M286.68,290.86c-.66,.5-1.44,.39-2.19,.39-1.85,.02-3.7,.05-5.55,.01-3.64-.08-7.2,.24-10.69,1.42-6.02,2.05-12.28,2.78-18.59,3.2-1.84,.12-3.69,.34-5.5,.66-3.78,.67-7.52,.48-11.3-.08-4.4-.65-8.9-.74-13.25-1.62-11.54-2.34-22.96-5.08-33.74-10.1-11.35-5.29-22.66-10.66-34.2-15.54-1.87-.79-3.51-1.99-5.32-2.88-6.33-3.12-12.82-5.92-18.86-9.62-.56-.34-1.15-.72-1.86-.71h0c-.46-.9-1.38-1.16-2.19-1.56-2.32-1.13-4.61-2.31-6.99-3.29-1.75-.72-2.78-1.69-2.4-3.72,.09-.48-.03-.99-.05-1.49,3.71,1.93,7.47,3.76,11.16,5.75,6.39,3.45,12.61,7.34,19.71,9.4,3.22,.93,6.31,2.3,9.44,3.5,1.96,.75,3.94,1.46,5.25,3.3,.31,.43,.95,.69,1.49,.88,7.48,2.57,14.46,6.32,21.78,9.27,4.64,1.87,9.53,2.65,14.37,3.72,7.63,1.69,15.3,3.16,22.96,4.69,6.57,1.32,13.27,2.1,20,2.43,4.54,.23,8.84-1.01,13.21-1.79,9.72-1.74,19.53-2.22,29.38-2.28,3.11-.02,6.13-.4,9.02-1.57,.15,.12,.22,.24,.19,.38-.03,.15-.07,.22-.11,.22-.15,.9-.56,1.85-.38,2.68,.33,1.59-.57,2-1.71,2.38-.94,.31-1.87,.66-2.8,1-.55,.2-.52,.54-.24,.95Z"/><path class="cls-51" d="M379.04,580.6c.1-.8-.15-1.46-.69-2.07-.78-.88-1.46-1.84-2.23-2.73-.75-.87-1.08-1.82-1.1-2.98-.14-9.08,.29-18.13,.9-27.18,.09-1.34,.13-2.69,.12-4.03-.01-3.03,.14-6.05,.6-9.04,1.53-9.9,1.61-19.9,2.06-29.87,.39-8.4,.5-16.79,.44-25.19-.01-1.68-.11-3.36-.09-5.04,.03-2.21-.61-3.91-2.94-4.68-1.1-.37-2.17-.97-2.54-2.26,2.51-3.09,5.39-5.9,7.19-9.53,.07-.23,.19-.42,.37-.58h0c.18-.35,.33-.33,.43,.05,.69,3.87,1.34,7.76,2.08,11.62,1.34,7,2.16,14.08,2.88,21.16,.32,3.16,.25,6.39,.03,9.57-.38,5.38-.2,10.75-.38,16.13-.26,7.81-.49,15.62-1.57,23.37-.9,6.49-2,12.94-2.65,19.46-.65,6.52-1.45,13.02-1.87,19.56-.1,1.59-.32,3.17-.49,4.76-.47,.14-.67-.02-.57-.51Z"/><path class="cls-82" d="M100.61,263.61c-1.81-2.06-4.03-3.66-6.2-5.45,1.13-.12,2.26-.24,3.39-.38,.78-.1,1.53-.24,1.41-1.33-.1-.86-.47-1.45-1.42-1.38-2.34,.17-4.62-.85-6.99-.23-1.31,.34-2.45-.42-3.57-.95-3.1-1.46-5.77-3.58-8.59-5.49-2.39-1.1-4.9-1.72-7.55-1.61-2.52,.1-5.03,.22-7.54,.43-1.95,.16-3.86-.22-5.79-.23-.82,0-1.19-.44-1.29-1.23-.13-1-.36-1.98-.49-2.98-.23-1.79,.21-2.46,2.01-2.85,2.06-.44,4.16-.69,6.26-.61,4.21,.16,8.39,.07,12.52-.95,2.89-.71,5.84-.48,8.78-.54,.87-.02,2.4,.28,2.41-.65,0-1.4-1.56-.66-2.43-.84-.64-.14-1.34,0-1.95-.39,.04-.13,.09-.26,.13-.39,1.33-1.42,2.92-1.38,4.59-.8,2.28,.79,4.38,1.97,6.52,3.06,1.98,1.09,3.97,2.15,6.05,3.05l-.05-.02c.14,.19,.3,.23,.5,.08,2.3,1.52,4.6,3.05,6.89,4.57,.7,.47,1.24,.55,1.3-.54,1.21-.19,1.72,.72,2.33,1.48,.07,4.29-1.25,8.26-2.97,12.09-1.54,3.43-3.33,6.75-5.01,10.11-.45-.16-.51-.54-.5-.95,.43-.85-.55-1.07-.72-1.65-.39-1.05-.86-2.05-2.04-2.44Z"/><path class="cls-82" d="M317.87,250.48c-1.25-.69-1.88-1.87-2.29-3.15-.46-1.41-1.42-2.17-2.83-2.71-.41,.92,.32,1.27,.75,1.64,1.05,.9,1.3,1.99,.67,3.13-.65,1.17-1.56,2.38-3.13,2.04-1.62-.36-3.11,.06-4.67,.18-1.73,.13-3.74,.33-4.9-1.62,.73-1.01,1.77-.89,2.86-.98,1.66-.14,3.56-.12,4.02-2.38,.64-.94,.1-1.81-.17-2.69-.36-2.34-2.88-3.05-3.78-4.98-.08-1.68-.19-3.36-.89-4.92-.64-1.44,.75-2.57,.58-3.94-.62-.41-.87,.27-1.28,.46-.72,.33-1.1,.36-.89-.67,.22-1.07-.59-.61-1.07-.58h.02c-.1-.64,.54-1.22,.16-2.14-2.59,3.29-6.4,1.79-9.45,3.03-1.25-3.8,.22-6.35,3.88-7.08,2.65-.53,5.36-.82,8.03-.74,6.47,.19,12.94,.54,19.33,1.78,4.18,.81,7.96,2.65,11.82,4.3,2.66,1.15,2.61,3.68,2.36,5.77-.37,3.02-.16,5.86,.88,8.66,.29,.77,.2,1.47-.02,2.21-.83,2.8-2.31,5.16-4.65,6.94-.13,.1-.3,.15-.4,.28-.42,.52,.23,1.54-.98,1.75-1.55,.27-3.06,.89-4.63,.11-.04-2.11,1.66-3.65,1.86-5.69,.09-.91,.49-1.79,.26-2.73-.33-1.38-.86-2.2-2.6-1.93-2.11,.33-4.38,.79-6.2-1.02-.7-1.65,1.65-1.67,1.59-2.98,.39-.67,.96-1.15,1.47-1.38-1.88-.31-4.16,.92-5.99-.97q.56-1.66,2.91-1.36c-1.03-.13-2.03-.35-2.24-1.58-.14-.83,.5-1.15,1.17-1.36-1.17,.2-2.14,.93-3.33,1.15,.2,1.1,.75,2.01,1.32,2.91,.61,1.32-.35,1.68-1.27,2.06-.49,.2-1.18-.19-1.48,.51,.16,1.14,1.1,1.62,1.92,2.11,.74,.44,1.46,.79,1.49,1.79,.37,1.34,.63,2.7,.85,4.06,.18,1.11,.17,2.15-1.04,2.74Z"/><path class="cls-51" d="M332.25,213.59c-1.37-.69-2.89-1.06-4.17-1.94-4.37-1.73-9.09-1.87-13.61-2.94-1.82-.43-3.22-.98-3.03-3.18,.48-3.92-2.38-5.3-5.15-6.74,0,0,.1,.09,.12,.09,.43,.12,.75,.41,1.1,.62,4.17,2.48,5.28,7.77,2.45,11.69-1.26,1.75-2.25,1.7-3.52-.18-.1-.26-.14-.52-.12-.8,.06-.4,.23-.74,.52-1.03,1.86-1.34,2.68-3.7,1.72-5.56-.48-.93-1.37-1.96-2.56-1.52-1.53,.57-2.58,1.8-2.75,3.52-.06,.65,.35,1.28,.35,1.95,0,.38-.05,.75-.19,1.1-.21,.35-.51,.58-.92,.64-.57-.03-.96-.34-1.22-.82-.09-.23-.15-.47-.19-.72-.1-.47-.23-.93-.23-1.41,0-.99-.04-1.97,.02-2.84-.16,.98,.19,2.11-.23,3.19-3.06,1.64-5.46,.46-5.52-3.11-3.66,2.76-8.37,3.26-11.41,6.76-.5,.58-1.11,1.05-1.98,.79-1.84-2-1.92-3.18-.58-5.29,1.22-1.92,3.08-3.09,4.87-4.3,4.56-3.07,9.45-5.38,14.93-6.33,4.15-.73,8.22-.19,12.22,.73,5.39,1.24,10.63,2.99,15.64,5.38,4.78,2.28,9.54,4.59,13.86,7.65,4.04,2.87,7.7,6.21,10.73,10.19,.56,.74,1.09,1.5,1.08,2.49,.13,.51-.18,.81-.57,.97-2.04,.85-5.98,0-7.26-1.85-1.74-2.53-4.25-3.97-6.76-5.48-2.09-1.26-4.34-1.59-6.72-1.18l-.03-.02c-.23-.3-.73-.14-.9-.54Z"/><path class="cls-82" d="M311.9,205.04c-.25,1.88,.31,2.11,2.11,2.38,3.41,.51,6.81,1.09,10.07,2.24,1.4,.49,2.93,.78,3.99,1.99-.9-.16-1.8-.38-2.71-.45-.52-.04-1.34-.23-1.43,.58-.06,.54,.56,.76,1.06,.9,1.87,.52,3.57,1.48,5.33,2.26,5.15,2.26,9.52,5.63,13.43,9.63,1.14,1.17,1.67,2.35,1.04,4.04-.49,1.32-.69,2.74-.28,4.21,.22,.78-.44,.73-.94,.56-.22-.07-.4-.29-.57-.47-5.22-5.37-11.35-9.45-18.04-12.71-3.93-1.92-8.02-3.43-12.5-3.6-2.01-.08-4.02-.35-6.02-.59-5.66-.69-11.22,.22-16.79,.94-1.06,.14-1.37-.19-1.48-1.09-.09-.83-.16-1.68-.32-2.5-.16-.82,.2-1.25,.89-1.57,.75-.35,1.59-.58,2.13-1.27,.04-.05,.02-.14,.03-.36-1.66-.8-2.82,.34-3.96,1.18-2.11,1.54-3.01,1.56-5.25-.16,1.56-2.5,3.71-4.23,6.51-5.23,1.89-.68,3.67-1.61,5.31-2.8,.47-.34,.98-.65,1.5-.91,.83-.41,1.62-.42,2.19,.47,.51,.8-.12,1.21-.59,1.68-.29,.29-.71,.45-.87,1.06,1.35,.75,2.76,1.29,4.39,1.13,1.48,.34,.93,1.92,1.65,2.72,.54,.74,.72,1.65,1.33,2.38,2.34,2.78,5.19,2.47,6.74-.89,.69-1.5,1.27-3.08,1.32-4.79,.01-.45-.13-1.08,.7-.96Z"/><path class="cls-82" d="M358.83,411.9c0-1.24-1.04-1.17-1.8-1.31-.87-.16-1.78-.16-2.94-.25,1.25-2.26,2.76-4.21,2.46-6.82-.93,.1-1.01,.73-1.2,1.26-1.83,4.97-4.72,6.77-10.53,6.81-1.85,.02-3.69-.32-5.54-.13-.58,.06-1.18,.07-1.75,.2-7.43,1.77-13.87-.1-19.6-5.07-4.11-3.56-8.73-5.97-14.45-5.34-.9,.1-2.09,.21-2.37-.82-.22-.84,.81-1.36,1.53-1.79,1.99-1.19,4.18-1.73,6.49-1.81,.96-.03,1.69,.02,2.03,1.28,.31,1.15,.99,1.13,1.74,.16,.15-.2,.21-.46,.36-.66,.43-.55,.94-1.01,1.71-.75,.73,.25,.99,.88,1.02,1.59,.04,1.05-.8,.85-1.43,.95-.23,.04-.45,.16-.81,.3,.63,1.06,1.57,.89,2.41,.76,1.18-.18,1.8,.05,2.09,1.4,.69,3.13,1.23,3.49,4.45,3.65,1.01,.05,1.97-.09,2.42,1.23,.33,.98,1.34,1.16,2.31,1.23,1.89,.14,3.73,.29,5.62,.84,2.44,.72,5.01-.06,7.25-1.36,1.26-.73,2.36-1.78,1.69-3.5-.36-.92,.21-1.17,.82-1.52,1.2-.7,2.51-1.28,3.43-2.53-.99-.96-1.91-.71-2.85-.22-1.41,.73-2.71,1.7-4.39,1.78-.7,.03-.69,.61-.59,1.13,.11,.55,.67,.74,.95,1.13,.72,1,.45,1.67-.84,1.75-.78,.05-1.25,.33-1.69,.87-.7,.85-1.63,.76-2.56,.58-1.31-.25-1.01-1.34-1.09-2.21-.09-.87,.33-1.21,1.19-1.16,.59,.04,1.15-.09,1.52-.56-.2-.86-.9-.79-1.41-.98-1.53-.58-1.6-.58-.91-2.1,.66-1.45,1.35-2.9,2.23-4.23,.77-1.18,2.31-1.26,3.47-1.88,3.07-.5,5.96,.82,8.97,.84,.66-.06,1.18,.41,1.8,.48,3.09,1.02,6.19,1.99,9.46,.69,1.1,3.28,1.1,6.69,.75,10.04-.23,2.2,.07,4.5-.83,6.62-.5,.09-.77-.03-.57-.6Z"/><path class="cls-82" d="M346.72,284.27c1.17,2.52,.64,4.78-1.19,6.73-4.66,4.96-9.86,8.69-17.14,8.88-7.74,.2-15.25-.75-22.61-3.07-1.02-.32-2.13-.53-2.91-1.39-1.66-2.41-4-4.32-5.15-7.09,.42-.47,.87-1.38,1.53-.52,.94,1.23,2.19,1.72,3.59,2,.55,.11,.9,.35,1.14,.84,.15,.3,.39,.54,.77,.53,3.15-.06,5.93,1.49,8.95,2.07,6.78,1.31,13.44,1.43,20.16-.35,4.1-1.08,6.83-3.75,9.21-6.96,.42-.57,.49-1.41,.72-2.12,1.23-1.51,2.18-1.18,2.93,.44Z"/><path class="cls-51" d="M401.48,316.01c-.89,1.03-1.79,.75-2.57-.08-4.81-5.12-11.12-7.59-17.44-10.16-5.76-2.34-11.83-3.76-17.55-6.22-3.54-1.52-7.13-2.95-10.75-4.28-1.85-.68-3.09-2.32-4.96-2.92,.98-1.65,2.03-3.28,2.1-5.53,1.63,.92,3.04,1.75,4.49,2.51,9.34,4.94,19.05,9.02,29.07,12.4,3.66,1.23,6.91,3.33,10.19,5.38,3.49,2.19,5.74,5.27,7.42,8.9Z"/><path class="cls-82" d="M83.59,235.95c-3.78-.3-7.54-.35-11.3,.24-2.09,.33-4.19,.1-6.29,.06-1.51-.03-3.02,.05-4.53,.11-1.96,.07-1.96,.09-2.01-2.02,.69-1.04,1.36-2.09,1.35-3.62,1.46,.74,2.21,2.44,3.92,2.56,.67-1.32-.22-2.07-.9-2.91-3.91-4.87-8.93-8.36-14.24-11.5-3.9-2.31-7.77-4.69-11.64-7.05-.57-.35-1.12-.74-1.66-1.15-.83-.63-.87-1.36-.2-2.15,.25,0,.54-.05,.75,.05,2.36,1.09,4.81,1.69,7.39,2.08,3.31,.49,5.92,2.7,8.62,4.5,7.06,4.69,14.29,9.09,21.75,13.1,2.44,1.31,4.84,2.72,7.04,4.4,.98,.76,2.47,1.36,2.09,3.11l-.15,.2Z"/><path class="cls-51" d="M404.77,384.17c1.76,.29,3.52-.08,5.28,0,.75,.03,1.51,.04,2.26,.11,.41,.04,.87,.18,.85,.71-.01,.37-.36,.6-.69,.64-6.94,.92-13.22,4.39-20.23,5.1-7.77,.78-15.39,2.53-23.03,4.08-4.8,.97-4.78,1.08-4.84,5.92,0,.76-.06,1.52,0,2.27,.14,1.46-.64,1.96-1.93,2-.07-1.93-.05-3.86-.23-5.78-.12-1.24-.46-2.48-.83-3.68-.36-1.19-.89-2.33-1.36-3.53,9.97-2.03,19.89-3.79,29.87-5.2,3.59-.51,6.99-1.81,10.6-2.22,1.42-.16,2.83-.34,4.26-.42Z"/><path class="cls-63" d="M295.91,263.55c1.55-.4,2.48-1.67,3.62-2.63,.58-.49,1.08-1.03,1.89-1.13,1.43-.18,2.91-.23,3.67-1.85,.23-.49,.97-.53,1.38-.31,2.02,1.07,4.17,.57,6.21,.37,1.78-.18,3.03,.35,4.22,1.49,1.19,1.15,2.26,2.47,4.3,1.43,.78-.4,2.92,1.41,3.36,2.58,.35,.94,.7,1.85,1.26,2.72,.43,.66,1.7,1.19,.87,2.31-.8,1.09-1.19,2.59-2.96,2.77-1.47,.15-2.78,.56-4.28-.4-.96-.61-2.59-1.05-3.51,.64-.51,.94-1.27,.77-1.84,.12-.55-.63-.54-1.35,.2-1.97,.45-.38,1.21-.12,1.54-.98-1.63-1.18-3.52-1.59-5.53-1.65-1.26-.03-2.52-.01-3.77-.01-.06-1.29,.89-1.37,1.78-1.39,1.23-.02,2.46-.14,3.68,.17,1,.26,1.76-.1,2.26-.99,1.02-.81,2.15-.78,3.28-.5-2.09-2.59-4.79-3.8-8.18-3.18-3.05,.56-6.04,1.28-8.71,2.99-1.13,.72-.41,.87,.29,1.06,.66,.41,1.15,1.05,2.1,.96,.8-.08,1.61,.15,1.89,1.11-.81,.75-2.14,.37-2.93,1.38,1.13,1.12,2.38-.14,3.58,.27,.47,.97,.24,2.07,.25,3.13,0,.39,.03,.88-.49,1.03-.51,.14-.91,.01-1.31-.42-1.48-1.58-1.99-1.68-3.71-.8-.38,.19-.68,.46-1.13,.25-1.18-.54-2.44-.47-3.69-.56-1.07-.07-1.65-.51-1.36-1.79,.47-2.03,.77-4.1,1.14-6.16,.19-.29,.41-.31,.64-.06Z"/><path class="cls-51" d="M83.74,235.75c-3.7-3.23-7.95-5.62-12.25-7.91-7.78-4.15-15.23-8.83-22.39-13.95-2.42-1.73-4.96-2.69-7.91-2.82-2.03-.09-4.01-.49-5.11-2.55,.28-.59,.56-1.18,.88-1.83,1.06,.62,1.98,1.19,2.94,1.71,.99,.54,1.85,1.41,3.22,.87,.41-.16,1.08,.33,1.62,.55,5.43,2.24,10.66,4.87,15.76,7.78,10.12,5.76,20.26,11.47,30.39,17.22,1.67,.95,3.39,1.83,4.9,3.04,.07,.96-.42,.83-1.01,.54-1.01-.41-2.03-.82-3.04-1.23-2.56-1.06-5.14-2.03-8-1.4Z"/><path class="cls-51" d="M370.96,387.95c-1.87-1.28-.98-2.99-.55-4.5,.62-2.19,1.8-4.15,3.07-6.04,.88-1.31,1.18-2.68,1.17-4.27-.04-4.8,.35-9.57,2.02-14.14,.3-.83,.38-1.88,1.54-2.1,1.32,3.43,2.65,6.86,3.96,10.29,.21,.54,.45,1.08-.33,1.48-1.38,.71-1.87,2.13-2.42,3.42-1.06,2.47-2.32,4.84-3.55,7.22-1.06,2.03-1.88,4.18-1.8,6.48,.05,1.51-.57,1.93-1.84,2-.42,.02-.83,.11-1.25,.17Z"/><path class="cls-51" d="M368.98,455.92c-.73-.66-1.12-1.43-.82-2.45,.26-.89,.52-1.81,.32-2.73-.36-1.66,.1-2.92,1.03-4.4,1.18-1.88,1.13-4.33,1.46-6.57,.15-.99,.13-2.01,.14-3.01,0-1.18-.12-2.35,1-3.2,.28-.22,.4-.72,.48-1.12,.53-2.4,2.31-3.3,4.45-3.78,.1,4.67,.28,9.33-.81,13.95-1.12,4.72-3.18,8.94-6.18,12.72-.27,.34-.63,.54-1.07,.58Z"/><path class="cls-51" d="M317.87,250.48c.06-1.89-.24-3.75-.6-5.6-.11-.57-.32-1.13,.32-1.53,.92-.43,1.71-1.25,2.87-1,2.27,.75,4.52,.94,6.85,.12,1.58-.56,2.1-.23,2.7,1.24,1.31,3.19-.04,8.15-2.83,10.44-1.89-1.86-4.11-2.85-6.82-2.69-.9,.05-1.82-.24-2.49-.98Z"/><path class="cls-51" d="M382.85,369.72c2.23,4.88,4.65,9.46,6.84,14.32-4.27,1.42-8.78,1.18-13.02,2.76-.3-1.55,.16-2.76,.65-3.87,1.91-4.36,4.29-8.52,5.53-13.22Z"/><path class="cls-11" d="M339.63,285.91c-2.93,4.1-7.4,5.19-11.97,5.98-4.75,.81-9.48,.49-14.17-.59-.3-.53,.27-.7,.44-1.03l.55-.9c.17-.17,.33-.36,.54-.5v.02c.09-.11,.18-.23,.28-.34,.04,.14,.08,.28,.12,.42,.15,.67,.4,1.58,1.03,1.57,.99,0,2.05-.33,2.96-.77,1.54-.73,3.47-.94,4.22-2.88,.1-.26,.47-.44,.84-.43,3.72,.14,3.78,.12,6-1.31,.6-.05,.56,.46,.71,.81,.22,.54,.56,.87,1.12,.42,1.46-1.18,3.51-1.25,4.86-2.62,1.45,0,2.3,.68,2.47,2.15Z"/><path class="cls-82" d="M333.17,214.14c2.27-2,2.29-2.03,5.36-.68,3.65,1.6,7.04,3.57,9.26,7.06,.62,.98,1.24,1.81,2.58,.94,.62-.4,1.3,.14,1.96,.14,.72,0,1.41,.72,2.15,.08,.13,2.29-.02,2.55-1.79,3.16-.16,.05-.32,.09-.48,.14-3.08,1.11-5.55,1.3-7.95-1.96-2.45-3.34-6.05-5.75-9.73-7.83-.5-.28-1.09-.46-1.36-1.05Z"/><path class="cls-51" d="M301.32,241.88c.2,.01,.4,.02,.6,.04,.2,.36,.26,.69-.16,.94-1.26,1.26-1.52,3.08-2.52,4.48h.03c-1.1,.39-1.52,1.32-1.51,2.35,.01,1.44-.8,2.34-1.82,3.05-1.02,.72-2.18,1.24-3.27,1.87-1,.57-1.52,.14-1.88-.81-.71-1.86-.83-3.75-.38-5.68,.24-1.06,.58-2.09,.88-3.13,.11-.13,.22-.31,.36-.33,2.87-.38,5.66-.96,8.03-2.8,.48-.37,1.1-.32,1.65,0Z"/><path class="cls-11" d="M330.06,390.88c-1.5,1.57-3.11,3.04-4.54,4.7-1.06,1.24-1.58,2.52-1.41,4.13,.12,1.08,.14,2.17,.23,3.26,.05,.62-.18,.95-.81,.99-.27-.34-.25-.68-.03-1.04-.16-.33-.43-.46-.79-.49q-2.52-.22-2.7-2.58c-.03-.41-.06-.83-.12-1.24q-.36-2.39,2.03-2.87c.14-.44-.19-.55-.48-.66-.81-.3-1.9-.17-2-1.47-.1-1.22,.05-2.34,1.02-3.19,.5-.43,1.01-.87,1.69-1.02,2.25-.1,4.53-.94,6.73,.35,.51,.3,1.01,.54,1.19,1.15Z"/><path class="cls-11" d="M336.06,392.4c-3.02,3.27-5.2,6.91-5.07,11.57,.03,.88,.26,1.91-1.14,2.08-2.06,.25-2.88-.16-3.27-1.72-.66-2.68-.63-2.73,2.23-3-.08-.87-.59-1.18-1.36-1.42-1.7-.54-1.94-1.23-.91-2.66,.73-1.01,1.56-1.97,2.45-2.85,1.31-1.29,2.47-2.7,3.56-4.17,1.28,.55,2.78,.74,3.5,2.18Z"/><path class="cls-51" d="M336.06,392.4q-2.85-.08-3.5-2.18c2.23-2.77,5.56-3.54,8.97-1.96,1.28,.59,2.46,1.4,3.69,2.12,.2,.13,.29,.31,.28,.54-.16,1.13,.91,1.29,1.49,1.79,.88,.75,1.62,1.46,1.25,2.74-.38,.43-.88,.42-1.37,.35-2.19-.33-4.38-.68-6.57-1.04-.52-.08-.91-.36-1.06-.9,.3-.26,.72-.78,.25-.91-1.11-.29-2.2-.98-3.43-.53Z"/><path class="cls-51" d="M309.31,246.5c-.06,2.5-.12,2.34-2.4,3.25-1.86,.75-3.63,.23-5.44,.23-1.06-2.07-.28-3.94,.74-5.7,.98-1.69,1.8-3.41,2.19-5.33,2.36,.86,4.43,1.98,4.51,4.92-.74,1.01,.99,1.64,.4,2.63Z"/><path class="cls-14" d="M371.98,461.56c-.98-.65-1.04-1.63-.96-2.66,3.84-3.26,5.96-7.63,7.79-12.18,2.17,1.92,2.53,4.23,1.02,6.39-2.22,3.18-5.18,5.68-7.85,8.45Z"/><path class="cls-47" d="M305.57,389.23c1.93,.03,3.86,.22,5.93-.62,.08,2.29-.31,4.32-.92,6.08-.51,1.48-2.73,.44-4.1,1.02-.67,.29-1-.4-1.21-.97-.09-.24-.21-.47-.23-.72-.18-1.75-.68-3.45-.64-5.22,.57-.34,.77,.32,1.18,.43Z"/><path class="cls-25" d="M347.95,240.32c.85,2.12-.11,3.88-1.1,5.63-.59,.08-.75,.63-1.08,.99-.53,.32-1.46,1.48-1.41-.11,.06-2.1-1.28-2.2-2.72-2.52-.12-.89,1.32-1.59,.18-2.63-.76-.7-.23-1.73,.29-2.51,.58-.85,1.32-.83,2.17-.35,.42,.24,.79-.01,1.05-.38,1.82-.69,1.41,1.71,2.61,1.87Z"/><path class="cls-37" d="M297.72,288.33c2.91,1.49,4.68,3.82,5.15,7.09-2.95-1.09-5.44-2.95-7.83-4.9-1.44-1.17-2.18-2.76-1.76-4.7,.16-.35,.3-.34,.42,.03,.21,.42,.52,.64,.95,.32,.6-.44,1.06-1,1.24-1.75,.05-.25,.15-.29,.33-.1,.06,.98,.03,1.98,.21,2.95,.11,.59,.36,1.34,1.3,1.06Z"/><path class="cls-51" d="M359.48,395.85c.03,1-.45,1.47-1.44,1.66-2.93,.58-5.6-.07-8.12-1.56-.49-1.28-2.6-1.79-1.72-3.7,.23-.15,.44-.12,.62,.08,2.79,1.38,5.75,2.08,8.86,1.98,1.16-.04,1.67,.47,1.8,1.54Z"/><path class="cls-51" d="M330.06,390.88c-1.04-.14-2.15,.23-3.08-.7-.55-.56-1.43-.3-2.18-.32-.9-.03-1.86,.21-2.65-.47,1.18-.65,2.41-1.2,3.75-1.29,.79-.05,1.35-.39,2.02-.73,2.15-1.08,4.36-2.14,7.29-.88-2.17,1.21-3.48,2.99-5.16,4.39Z"/><path class="cls-51" d="M321.56,385.78c-.07,.74,0,1.56-1.04,1.71-1.04,.71-2.22,1.2-3.37,1.64-1.87,.71-2.96,0-3.21-1.87,.31-1.23,1.12-2.21,1.65-3.32,.45-.93,1.14-1.32,2.22-1.09,1.7,.37,3.43,.62,4.74,1.92,.32,.97-.77,.57-.99,1.01Z"/><path class="cls-51" d="M314.4,265.19c.35,.32,1.12,.2,1.14,.8,.02,.66-.63,.69-1.11,.69-1.41,.02-2.83-.1-4.24-.02-1.22,.06-2.5-.27-3.67,.38-.54,.08-1.08,.15-1.61,.23-.65,0-1.33-.15-1.93,.02-1.46,.39-1.92-.33-2.06-1.57,.06-1.25,.95-1.88,1.96-1.97,3.18-.28,6.37-.56,9.54,.09,.81,.16,1.66,.42,1.97,1.37Z"/><path class="cls-39" d="M270.55,467.51c-.23,.79-.89,.91-1.57,1-1.32,.19-2.63,.37-3.95,.56-.04-1.89,.15-3.76,.45-5.83,2.04,1.24,3.31,3.05,5.06,4.27Z"/><path class="cls-9" d="M339.63,285.91c-1.17-.32-1.88-1.16-2.47-2.15,.38-.83,.78-1.6,1.54-2.23,.93-.76,1.99-1.45,2.63-2.63,.33,2.58,.65,5.11-1.7,7Z"/><path class="cls-53" d="M179.18,238.91c-.01-3.69,0-7.35,.33-11.05,.39-4.42,.1-8.89,.13-13.34,0-.99-.16-2.03,.5-2.92,.08,9.09,.28,18.19-.51,27.27-.12,.35-.27,.37-.45,.04Z"/><path class="cls-20" d="M313.94,387.25c.26,1.35,1.26,1.09,2.16,.96,1.48-.22,2.95-.48,4.43-.73-.61,1.3-2.11,1.8-2.76,3.12-.29,.6-4.04,.45-4.49-.07-.24-.27-.21-.62-.1-.94,.27-.78,.16-1.68,.77-2.34Z"/><path class="cls-60" d="M317.03,396.81c-1.08-1.49-2.47-1.86-4.03-1.05-.64-.56-.44-1.18-.49-1.73-.11-1.22,.36-1.51,1.62-1.38,3.28,.35,3.29,.26,3.45,3.7,.11,.5-.07,.64-.54,.45Z"/><path d="M301.32,241.88c-.44,.22-.94,.37-1.31,.66-2.57,2.05-5.48,2.84-8.73,2.46-.02-.5-.04-.99-.06-1.49,2.43,.29,4.75,.35,6.74-1.52,.75-.7,1.82-1.21,2.95-1.22,1.02-.01,.74,.57,.41,1.11Z"/><path class="cls-45" d="M179.52,264.69c-.17,.38-.34,.75-.72,1.59-.61-5.76,.21-11.04,.35-16.32,.14-.28,.29-.28,.42,0,.15,4.91,.07,9.82-.05,14.72Z"/><path class="cls-46" d="M346.72,284.27c-.87-.84-1.85-.98-2.93-.45-.21-1.82,.76-3.61-.48-5.84,3.38,1.47,3.66,3.75,3.4,6.29Z"/><path class="cls-13" d="M301.88,234.82c.13,0,.27,.01,.4,.02,.99,1.24,.71,2.66,.58,4.06-.52-.02-1.03-.05-1.55-.07,.15-.47,.44-.97-.39-1.1-1.04-.16-2.07-.39-3.09-.88,.58-.96,1.39-.75,2.08-.86,.81-.13,1.74-.06,1.97-1.17Z"/><path class="cls-8" d="M347.95,240.32c-.19,.3-.29,.99-.79,.47-.69-.7-1.22-1.56-1.82-2.35-.35-.38-.71-.77-1.06-1.15-.39-1.1-.03-1.38,1.02-.94,1.68,.79,2.65,2.06,2.66,3.97Z"/><path class="cls-38" d="M177.05,346.38c-.86-2.18-.59-4.48-.3-6.67,.28-2.17,.29-4.32,.38-6.49,.16-.26,.3-.26,.42,.03,.26,4.39-.32,8.75-.5,13.12Z"/><path d="M288.68,155.1c3.86-1.08,7.78-.23,11.68-.33-3.89,.38-7.82,.1-11.69,.77-.19-.1-.25-.2-.19-.3,.06-.1,.13-.15,.19-.15Z"/><path d="M299.34,397.31c-2.86,0-5.72,.01-8.58,.02-.11-.07-.23-.14-.34-.21,.12-.06,.24-.12,.36-.18,2.72,.08,5.37-.85,8.11-.49,.33,.19,.72,.35,.46,.86Z"/><path class="cls-36" d="M180.58,194.94c-.45-.67-.44-1.43-.44-2.19,0-2.35,0-4.7,0-7.06,0-.84-.03-1.69,.55-2.4,.09,3.88,.22,7.76-.12,11.64Z"/><path class="cls-67" d="M379.04,580.6c.19,.17,.38,.34,.57,.51,.21,1.73-.34,3.38-.54,5.07-.37,.48-.06,1.12-.4,1.61-.04,.3-.08,.59-.12,.89-.44,.11-.65,0-.5-.49,.04-.84,.08-1.69,.12-2.53,.35-.45,.06-1.04,.33-1.51,.15-1.19-.11-2.44,.54-3.55Z"/><path class="cls-73" d="M313.93,290.26c-.15,.34-.29,.69-.44,1.03-1.53,0-2.96-.46-4.39-.91-.25-.08-.49-.23-.46-.5,.04-.36,.44-.73,.66-.62,.85,.43,2.03-.19,2.66,.88,.58,.99,1.3,.29,1.97,.13Z"/><path class="cls-16" d="M179.57,249.96c-.14,0-.28,0-.42,0,0-3.68,.02-7.36,.03-11.05,.15-.01,.3-.03,.45-.04,.14,3.7,.21,7.4-.06,11.09Z"/><path class="cls-41" d="M177.55,333.26c-.14,0-.28-.02-.42-.03,0-2.4,0-4.79,.02-7.19,0-.82-.04-1.66,.43-2.4,.33,.03,.33,.34,.47,.54-.01,.53-.02,1.06-.03,1.59-.38,1.14,.11,2.36-.31,3.5,.04,1.33,.08,2.67-.15,3.99Z"/><path class="cls-81" d="M94.78,238.38c.39-.08,.76-.19,1.01-.54,1.74,.93,3.6,1.67,5.1,3.02-2.28-.23-4.13-1.52-6.11-2.49Z"/><path class="cls-68" d="M358.83,411.9c.19,.2,.38,.4,.57,.6-.25,1.5-.68,2.87-2.55,3.69,.23-1.84,1.59-2.86,1.98-4.29Z"/><path class="cls-57" d="M299.34,397.31c-.15-.29-.3-.57-.46-.86,1.46-.15,2.91-.19,4.77,.15-1.57,1.34-3,.66-4.31,.71Z"/><path d="M279.2,155.59c-1.63,.85-3.4,.44-5.11,.51-.99,.04-1.98-.05-2.97-.08-.13-.06-.27-.12-.4-.18,.13-.06,.26-.12,.4-.19,1.79-.05,3.58-.09,5.37-.14,.91-.25,1.82-.35,2.72,.08Z"/><path class="cls-62" d="M166.4,161.26c-.15,.87-.75,1.31-1.55,1.23-.61-.07-.87-.7-.97-1.28-.07-.42,.34-.48,.63-.59,.63,.21,1.26,.43,1.9,.64Z"/><path class="cls-29" d="M292.75,290.38c-.87,1.47-1.28,1.62-2.95,1.07,.91-.55,1.6-1.73,2.95-1.07Z"/><path class="cls-54" d="M377.61,161.21c-.65-.05-1.31-.1-1.96-.16-.13-.06-.25-.11-.38-.17,.12-.06,.25-.13,.37-.19h5.74c-1.21,.65-2.51,.34-3.77,.52Z"/><path d="M279.2,155.59c-.9-.03-1.81-.05-2.72-.08,2.18-.73,4.42-.41,6.65-.37,.12,.06,.23,.13,.35,.19-.12,.06-.24,.12-.36,.18-1.31,.02-2.62,.05-3.92,.07Z"/><path class="cls-26" d="M300.25,251.88l-.18,.04-.18-.04c-.22-.08-.39-.22-.48-.44-.08-.11-.12-.23-.11-.37-.23-.33-.17-.76-.38-1.09-.38-.95,.61-1.71,.37-2.65,0,0-.03,.01-.03,.01,.85,.69,.57,1.67,.65,2.56,.21,.33,.15,.77,.4,1.09v.02c.32,.31,.4,.61-.05,.87Z"/><path class="cls-24" d="M345.3,236.36c-.6,.03-1.04,.24-1.02,.94-.32-.03-.65-.01-.96-.09-.39-.09-.81-.27-.7-.78,.1-.44,.5-.61,.92-.66,.67-.08,1.28,.06,1.75,.59Z"/><path class="cls-70" d="M111.85,246.44c-1.07-.04-1.72-.73-2.33-1.48,.63-.97,1.3-.68,1.98-.07,.23,.3,.15,.71,.36,1.02,0,.18-.01,.36-.02,.54Z"/><path class="cls-35" d="M305.57,389.23c-.39-.14-.79-.29-1.18-.43-.04-.47-.49-.99-.04-1.4,.46-.43,.9-.11,1.3,.25,.17,.15,.47,.16,.71,.23,0,.11,0,.21,0,.32-.57,.11-1.03,.3-.79,1.03Z"/><path d="M283.13,155.52c.01-.12,.01-.25,0-.37,1.85-.01,3.7-.03,5.54-.04,.01,.15,.01,.3,0,.45-1.85-.01-3.7-.02-5.55-.03Z"/><path class="cls-61" d="M321.56,385.78c.13-.53,.72-.62,.99-1.01,.73,.19,1.39,.5,1.82,1.24-.54,.5-1.04,1.17-1.75,.22-.28-.37-.61-.52-1.06-.44Z"/><path class="cls-58" d="M378.05,588.19c.17,.16,.33,.33,.5,.49-.19,1.01-.38,2.02-.57,3.03-.57-1.18-.56-2.36,.06-3.52Z"/><path d="M375.63,160.7c0,.12,0,.24,.01,.36-1.52,.02-3.08,.42-4.54-.39,1.51,0,3.02,.02,4.53,.03Z"/><path d="M289.73,397.37c-1.25,.94-2.69,.38-4.04,.51h0c1.26-.92,2.69-.4,4.05-.51Z"/><path d="M311.03,268.72c-.72,.27-1.23-.01-1.82-.18,.14-.59,.61-.37,.93-.39,.31-.01,.66,.02,.89,.56Z"/><path d="M293.3,284.34c.1-.66,.4-1.21,1.14-1.91,.02,1.08-.14,1.78-.63,2.41-.32,0-.34-.34-.51-.49Z"/><path class="cls-82" d="M177.7,329.27c-.12-1.19-.29-2.38,.31-3.5,.18,1.19,.23,2.37-.31,3.5Z"/><path d="M317.03,396.81c.18-.15,.36-.3,.54-.45,.45,.72,.52,1.49,.24,2.63-.32-.91-.55-1.54-.78-2.17Z"/><path class="cls-44" d="M178.04,324.17c-.16-.18-.31-.36-.47-.54,.05-.83-.25-1.74,.47-2.44,.22,.99,.15,1.99,0,2.98Z"/><path d="M285.69,397.88c-.68,.65-1.44,.53-2.52,.31,1.02-.45,1.78-.29,2.51-.31,0,0,0,0,0,0Z"/><path d="M323.5,402.91c.01,.35,.02,.69,.03,1.04-.55,0-1.1,0-1.64,0-.03-.09-.06-.18-.09-.27,.57-.26,1.13-.51,1.7-.77Z"/><path d="M271.12,155.65c-.02,.12-.02,.25,0,.37-.73,.05-1.46,.19-2.4-.17,.91-.41,1.66-.25,2.4-.2Z"/><path d="M308.91,387.77c.54-.45,1.12-.67,1.85-.32-.29,.63-.92,.56-1.42,.73-.21-.06-.35-.2-.42-.41Z"/><path d="M308.91,387.77c.14,.14,.28,.27,.42,.41-.99,0-1.98,.01-2.97,.02,0-.11,0-.21,0-.32,.85-.04,1.7-.07,2.55-.11Z"/><path d="M318.68,259.39c-.81-.1-1.37-.52-1.18-.94,.31-.68,.61,.06,.88,.26,.11,.09,.13,.29,.3,.69Z"/><path class="cls-86" d="M295.91,263.55l-.64,.06c-.14-.2-.29-.39-.42-.6-.18-.3-.25-.69,.08-.86,.4-.21,.5,.24,.63,.5,.15,.29,.24,.61,.36,.91Z"/><path d="M290.73,279.25c.01-.08,.01-.16,.04-.24,.12-.36,.24-.95,.68-.72,.47,.24,.07,.67-.18,.96-.18,.34-.36,.34-.54,0Z"/><path d="M262.02,403.46c-.25,.19-.48,.44-.76,.57-.24,.11-.61,.45-.76-.08-.03-.11,.27-.4,.47-.47,.3-.1,.64-.08,.97-.12l.09,.1Z"/><path d="M315.42,288.97c-.14-.02-.27-.04-.4-.08-.12-.36-.55-.91-.07-1.05,.52-.15,.43,.51,.48,.89,.01,.08-.01,.17-.02,.25Z"/><path class="cls-42" d="M345.77,246.95c.13-.57,.12-1.32,1.08-.99-.15,.56-.51,.88-1.08,.99Z"/><path class="cls-34" d="M345.28,390.82c-.06-.14-.08-.29-.07-.45,.65,.11,1.2,.39,1.56,.97-.09,.08-.19,.16-.28,.25-.65,.13-1.27,.22-1.21-.76Z"/><path d="M308.39,386.26c-.34,.37-.73,.6-1.26,.41,.25-.71,.84-.28,1.28-.38l-.02-.03Z"/><path d="M346.78,391.34c.43-.02,.79,.11,1.03,.49,.14,.14,.18,.29,.12,.42-.05,.13-.1,.2-.15,.2-.74-.03-1.23-.27-.98-1.15l-.02,.04Z"/><path class="cls-82" d="M264.4,473.04c.2,.58,.04,1.07-.34,1.52-.1-.56-.1-1.09,.34-1.52Z"/><path d="M301.05,231.76c-.07-.09-.15-.19-.22-.28,.14-.03,.28-.08,.42-.08,.05,0,.1,.1,.15,.15-.12,.07-.23,.14-.35,.21Z"/><path class="cls-17" d="M293.3,284.34l.51,.49c-.04,.34-.08,.68-.12,1.01,0,0-.21,0-.21,0l-.21-.03c0-.49,.02-.99,.02-1.48Z"/><path d="M296.21,284.32l-.15,.1s-.18,0-.18,0c-.08-.39,.09-.63,.45-.73,.06-.02,.19,.04,.2,.09,.09,.29-.06,.45-.32,.54Z"/><path class="cls-58" d="M378.67,587.78c-.11-.59,0-1.13,.4-1.61,.07,.59-.09,1.11-.4,1.61Z"/><path class="cls-87" d="M300.29,251c-.35-.28-.52-.63-.4-1.09,.22,.33,.43,.67,.4,1.09Z"/><path class="cls-87" d="M300.25,251.88c.02-.29,.04-.58,.05-.87,.32,.31,.64,.62-.05,.87Z"/><path d="M290.73,279.25c.18,0,.36,0,.54,0-.01,.42-.14,.79-.47,1.07-.03-.23-.05-.46-.08-.68-.04-.13-.04-.26,0-.39Z"/><path d="M261.93,403.37c.11-.1,.2-.25,.32-.28,.19-.04,.29,.11,.17,.23-.09,.09-.27,.1-.41,.15,0,0-.09-.1-.09-.1Z"/><path d="M308.41,386.29c.12-.1,.23-.2,.35-.3,.14,.43-.25,.18-.37,.28,0,0,.02,.03,.02,.03Z"/><path class="cls-5" d="M381.57,455.48h-.22s-.21-.05-.21-.05c-.09-.27,0-.57,.26-.55,.24,.02,.29,.34,.17,.6Z"/><path class="cls-87" d="M298.9,249.98c.35,.29,.48,.65,.38,1.09-.29-.31-.39-.68-.38-1.09Z"/><path class="cls-10" d="M347.82,392.32c-.01-.17-.02-.33-.01-.5,.42,.01,.75,.2,1.01,.51-.19,0-.38,0-.57,0-.15,.14-.29,.13-.42-.02Z"/><path d="M290.77,396.95c0,.13-.01,.26-.01,.39-.34,.01-.69,.03-1.03,.04,.27-.34,.63-.46,1.05-.43Z"/><path class="cls-27" d="M354.26,412.66c-.05,.05-.11,.1-.16,.15-.06-.12-.13-.24-.16-.37,0-.03,.1-.1,.15-.15,.06,.12,.12,.25,.17,.37Z"/><path class="cls-75" d="M291.82,283.86c-.03-.2-.05-.4-.08-.6,.01-.32,.19-.47,.51-.46h0c.05,.43-.03,.82-.43,1.07Z"/><path class="cls-82" d="M332.25,213.59c.44-.05,.73,.14,.9,.54-.42,.03-.73-.15-.9-.54Z"/><path d="M301.76,242.86c.05-.31,.11-.63,.16-.94,.14,0,.28-.03,.41-.08,0,.44-.2,.78-.57,1.02Z"/><path class="cls-82" d="M111.87,245.9c-.27-.29-.39-.62-.36-1.02,.37,.25,.48,.59,.36,1.02Z"/><path class="cls-87" d="M299.4,251.44c.16,.15,.32,.29,.48,.44-.3,0-.45-.15-.48-.44Z"/><path class="cls-81" d="M101.34,240.92c-.19,.14-.35,.09-.5-.08,.17,.03,.33,.05,.5,.08Z"/><path d="M315.02,288.87c-.18,.17-.36,.33-.54,.5,.18-.17,.36-.33,.54-.5Z"/><polygon class="cls-82" points="300.85 229.29 300.79 229.33 300.87 229.28 300.85 229.29"/><path d="M148.3,632.6c-.1,.27-.27,.31-.5,.14,.17-.05,.33-.09,.5-.14Z"/><path class="cls-5" d="M381.14,455.43c.05,.3-.09,.48-.37,.58-.03-.29,.1-.48,.37-.58Z"/><path d="M292.25,282.79c.14-.3-.24-.08,.08-.16,.12-.03,.12,.1-.08,.16,0,0,0,0,0,0Z"/><polygon class="cls-83" points="317.77 280.42 317.82 280.57 317.68 280.55 317.77 280.42"/><path d="M299.83,499.93c.72-.09,1.17,.18,1.29,.72,.28,1.32,1.18,2.25,2.05,3.1,4.98,4.85,9.4,10.27,14.8,14.69,.84,.69,1.63,1.44,2.66,1.87,.43,.18,.6,.55,.49,1.03-.14,.6-.57,.77-1.12,.77-1.08,0-1.88-.65-2.71-1.22-4.37-3.01-8.21-6.64-11.95-10.37-2.02-2.01-3.97-4.08-5.94-6.14-.4-.42-.76-.9-1.09-1.38-.43-.63-.87-1.36-.54-2.1,.4-.87,1.42-.73,2.05-.97Z"/><path d="M311.76,529.64c1.87-.82,3.18-1.31,4.77-.65,.98,.4,2.13,.41,3.2,.61,.44,.08,.8,.29,.72,.82-.05,.36-.28,.62-.64,.68-1.48,.25-2.95,.59-4.41,.85-1.38,.25-2.25-1.2-3.64-2.31Z"/><path d="M313.42,636.13c0,.68,0,1.36,0,2.04-.62-.68-.58-1.36,0-2.04Z"/><path class="cls-58" d="M378.5,584.15c.07,.54,.02,1.06-.34,1.51-.06-.54,.03-1.05,.34-1.51Z"/><path class="cls-7" d="M170.89,545.85c-1.09-3.19,.1-6.43,0-9.68v9.68Z"/><path class="cls-56" d="M169.64,597.38v-11.74c.08,0,.16,0,.24,0v11.74c-.08,0-.16,0-.24,0Z"/><path class="cls-69" d="M171.15,516.58v-4.11c.07,0,.15-.01,.22-.02v4.03c-.07,.03-.15,.07-.22,.1Z"/><path d="M42.8,497.8c3.27,4.48,7.47,8.17,10.75,12.63,5.36,7.29,9.55,15.19,12.18,23.87,.31,1.04,.57,2.13,.63,3.2,.1,1.86-1.09,2.72-2.91,2.3-1.73-.4-2.9-1.61-4.13-2.76-3.63-3.39-6.89-7.1-9.92-11.02-.28-1.09-1.13-1.86-1.64-2.81-.27-.51-.72-1.14-.03-1.53,.61-.34,1.08,.23,1.43,.72,.54,.75,1.08,1.51,1.61,2.26,1.5,2.14,3.19,4.11,5.11,5.88,.81-.1,1.48,.19,1.95,.84,1.2,1.66,2.76,3.05,3.68,4.92,.31,.63,.83,1.03,1.46,1.29,.29-.18,.45-.11,.5,.23,.55,.5,1.19,.62,1.21-.29,.02-.98-.25-2-.52-2.96-1.24-4.39-3.28-8.45-5.48-12.41-3.8-6.85-8.56-13.05-13.27-19.27-1.11-1.47-2.12-3.02-3.18-4.53-.11-.5,.08-.69,.58-.57Z"/><path class="cls-39" d="M61.5,536.31c-1.87-1.92-3.75-3.84-5.62-5.76-.68-3.5-1.36-6.99-2.04-10.49-.27-.54-.39-1.01,.5-.94,.99,2.64,1.97,5.29,2.98,7.93,1,2.65,2.15,5.23,3.82,7.54,.35,.49,1.04,.98,.37,1.72Z"/><path d="M42.8,497.8c-.19,.19-.39,.38-.58,.57-1.01-.85-1.61-2.04-2.43-3.05-.35-.44-.39-.91,.37-1,.91,1.14,1.96,2.16,2.63,3.48Z"/><path class="cls-66" d="M54.33,519.12c-.17,.31-.33,.62-.5,.94-.72-1.17-.48-2.54-1.05-3.75,.17-.05,.34-.1,.52-.15,.34,.98,.69,1.97,1.03,2.95Z"/><path class="cls-78" d="M18.59,599.28c-.07,.03-.14,.09-.2,.08-.05,0-.12-.1-.12-.15,.03-.21,.15-.26,.31-.13,.03,.03,0,.13,0,.2Z"/><path class="cls-50" d="M63.46,537.83c-.17-.08-.33-.15-.5-.23,.15-.16,.31-.34,.53-.16,.06,.05-.01,.26-.03,.39Z"/><path class="cls-30" d="M28.07,458.45c-.41-.56-.65-1.15-.17-1.94,.67,.55,.72,1.25,.69,1.97-.2,.35-.37,.34-.52-.03Z"/><path class="cls-40" d="M28.07,458.45c.17,.01,.35,.02,.52,.03,.01,.29,.1,.8-.15,.8-.51,.01-.28-.53-.37-.83Z"/><path class="cls-64" d="M322.97,562.93c.29,5.46,.02,10.91-.48,16.35-.54,5.93-.97,11.88-1.8,17.79-.28,1.98-.92,3.72-2.1,5.29-.03-3.12,.78-6.14,1.16-9.22,.76-6.16,1.26-12.34,1.76-18.52,.32-3.91,.77-7.82,1.45-11.69Z"/><path class="cls-12" d="M316.92,620.95c.33,2.22,.57,4.45,.94,6.67,.31,1.84-.8,3.5-1.29,5.23-.29,1-.81,2.01-1.6,2.8,.78-4.88,.74-9.88,1.94-14.7Z"/><path class="cls-59" d="M326.6,533.17c-.03-.24-.09-.49-.07-.72,.02-.23,.12-.63,.2-.64,.47-.03,.34,.39,.37,.65,.03,.24-.03,.48-.04,.73-.16,.33-.31,.32-.46-.01Z"/><path class="cls-2" d="M326.6,533.17c.15,0,.3,0,.46,.01,0,.34-.02,.68-.02,1.02,0,0-.21,0-.21,0,0,0-.21-.02-.21-.02,0-.34-.01-.68-.02-1.02Z"/><path class="cls-18" d="M100.61,263.61c1.51,.15,2.31,.94,2.24,2.51-.12,.22-.24,.21-.36,0-.62-.84-1.25-1.67-1.87-2.51Z"/><path class="cls-71" d="M102.48,266.11c.12,0,.24,0,.36,0,.68,.36,1.28,.74,.53,1.57-.3-.53-.59-1.05-.89-1.58Z"/><path class="cls-49" d="M294.76,240.35c0-.15,.03-.29,.09-.43,2.2-.13,4.25-1.14,6.49-1.08-1.68,1.35-3.73,2.04-5.65,2.92-1.05,.48-2.4,.61-3.44-.4,.69-.16,1.37-.32,2.06-.48,.16-.17,.31-.35,.46-.54Z"/><path class="cls-43" d="M294.76,240.35c-.15,.18-.31,.36-.46,.54,.15-.18,.31-.36,.46-.54Z"/><path d="M320.39,318.66c-1.41,.08-2.67-.4-3.84-1.08-3.77-2.2-6.66-5.37-9.45-8.64-.34-.39-.63-.93-.15-1.34,.54-.47,.88,.12,1.23,.43,2.39,2.12,4.77,4.25,7.37,6.13,2.4,1.74,4.86,2.25,7.83,1.68,4.63-.89,8.58-2.86,11.91-6.14,.36-.35,.72-.71,1.12-1.01,.5-.38,.94-.13,1.33,.25,.36,.34,.41,.73,.14,1.12-.29,.41-.62,.79-.95,1.18-4.33,5.11-10.15,6.93-16.55,7.44Z"/><path d="M360.11,374.45c-1.14,.34-2.01-.08-2.85-.41-8.27-3.27-16.63-6.27-25.35-8.16-.64-.14-1.84-.03-1.71-1.05,.15-1.18,1.3-.8,2.07-.7,9.04,1.25,17.65,3.93,25.92,7.77,1.08,.5,1.79,1.2,1.92,2.54Z"/><path class="cls-21" d="M263.54,359.07q.85,1.55,.7,3.36c-.8-1.1-.8-2.22-.7-3.36Z"/><path d="M125.62,256.01c0,.82,.11,1.62,.86,2.43q-1.7-.53-.87-2.43h0Z"/><path class="cls-80" d="M127.11,280.26c-.71-.02-1.41-.05-2.09-.83,1.04-.11,1.57,.33,2.08,.84h0Z"/><path class="cls-80" d="M127.1,280.27c.24,.03,.49,.01,.71,.1,.17,.07,.11,.27-.09,.23-.22-.04-.41-.22-.61-.34,0,0,0,0,0,0Z"/><path d="M330.24,231.79c-1.18,1.08-2.48,.69-3.58,.23-1.42-.59-2.91-.81-4.37-1.12-1.72-.36-3.43-.3-5.21,.07-1.89,.4-4.04,1.65-5.76-.52-1.77,.6-2.63-.54-3.39-1.81-.2-.34-.42-.78-.15-1.17,.29-.41,.76-.27,1.16-.2,1.66,.32,2.65-.14,4.47-.3,1.25-.11,2.54-.92,3.92-.2,.9,.47,2,.37,2.97,.17,1.81-.37,3.51,.14,5.18,.59,1.36,.37,2.78,1.01,3.15,2.58,.22,.96,1.36,.63,1.63,1.67Z"/><path class="cls-51" d="M317.5,237.36c3.2,.22,6.41-.52,9.95-.18-1.46,1.8-3.62,1.76-4.79,3.22-4.04,2.44-6.12,2.75-8.8-1.06-.23-.85,.31-.94,.94-.94,1.04,0,2.14,.13,2.73-1.05h-.02Z"/><path d="M317.51,237.35c-1.06-.22-2.1,.54-3.18,.15,0-.25-.03-.42,0-.56,.18-.72,1.59-.52,1.25-1.61-.39-1.28-1.41-.42-2.13-.57-.32-.07-.67-.04-.77-.46,2-1.44,8.29-2.32,10.58-1.34-1.49,.91-3.17,.45-4.56,1.14,1.15,1.93,3.52,.93,5.05,2.03-.64,1-1.57,.55-2.34,.66-1.31,.17-2.7-.2-3.92,.58,0,0,.02,0,.02,0Z"/><path d="M313.85,239.34c2.66,2.6,5.69,2.19,8.8,1.07,.4,.39,.95,.76,.04,1.23-.71,.36-1.63,.05-2.24,.72-.28,.07-.85,.14-.67,.41,.28,.4,.87,.59,1.59,1.04-1.6,.61-2.64-.36-3.79-.45-1.7-.64-2.89-2.09-4.51-2.86-.41-.19-.72-.52-.53-.95,.29-.65,.86-.12,1.3-.2Z"/><path d="M329.03,234.47c.93,.86,1.61,1.46,2.25,2.1,.37,.37,.58,.84,.15,1.32-.41,.47-.88,.44-1.3,.03-.97-.95-2.2-1.51-3.27-2.3-.74-.54-.93-.99,.04-1.9,1.43-1.33,2.88-.96,4.42-.83,.18,.02,.46,.29,.47,.47,.02,.19-.19,.52-.36,.57-.71,.2-1.45,.33-2.4,.53Z"/><path d="M309.31,246.5c-.64-1.05-1.67-1.7-2.79-2.34,.84-.91,1.66-.19,2.39-.29,.28,.41,.59,.8,.82,1.23,.32,.58,.3,1.11-.43,1.4Z"/><path d="M311.9,205.04c-.63,1.78-.31,3.79-1.35,5.48-.43,.71-.62,1.57-1.07,2.26-1.52,2.27-4.57,2.23-6.36,.2-.9-1.02-1.55-2.02-1.81-3.32-.15-.63-.7-1.38,.51-1.57,.2,.33,.41,.66,.61,.98,1.17,.36,1.51,2.75,3.38,1.37,.41-.42,.7,.78,1.13,.08,.38,.41,.1,1.31,.86,1.38,.85,.09,1.41-.47,1.67-1.24,.54-1.57,1.19-3.12,1.35-4.78,.36-3.6-2.53-6.62-6.5-6.88l.05,.05c.39-.88,1.18-.86,1.87-.66,1.81,.52,3.64,1.3,4.77,2.73,.76,.96,1.31,2.45,.89,3.91Z"/><path d="M306.94,210.52c-.08,.3-.13,.84-.23,.85-.47,.03-.43-.56-.74-.77-1.49,.45-2.55,.1-2.9-1.57,.03-.49,.16-1-.16-1.45-1.34-1.92-.09-3.42,.87-4.93,.2-.31,.76-.38,.81-.86,.04-.47-.3-1.04,.24-1.37,.73-.45,1.25,.27,1.81,.49,2.72,1.07,4.04,4.96,2.61,7.46-.4,.7-1.16,.9-1.81,1.25-.22,.16-.4,.35-.47,.62,.06,.09,.06,.19-.01,.28Z"/><path d="M301.82,208.08c-.41,.45-.47,1.01-.51,1.57-.38-1.03-.77-2.06-1.15-3.09,.15-1.55-.17-3.15,.57-4.65,.22-.45,.41-.91,.79-1.25,.37-.33,.74-.31,1.08,.06,.27,.29,.29,.59-.01,.84-1.67,1.41-1.36,3.25-1.12,5.07,.14,.27,.12,.6,.31,.86,.02,.19,.03,.39,.05,.58Z"/><path class="cls-32" d="M303.32,208.69c-.06,.7,.39,.95,.95,1.15,.58,.22,1.26,.21,1.7,.75-.05,.71-.1,1.41-.15,2.21-1.7-.84-3.11-1.77-3.39-3.74,.16-.2,.32-.39,.48-.59,.24-.13,.38-.06,.41,.21Z"/><path class="cls-82" d="M301.77,207.51c-.28-.23-.41-.5-.31-.86,.31,.21,.43,.49,.31,.86Z"/><path d="M303.32,208.69c-.13-.08-.27-.15-.41-.21,0-.3,0-.61,0-.91,.29,.32,.42,.69,.42,1.12Z"/><path d="M306.95,210.24c.16-.21,.32-.42,.47-.62-.16,.21-.32,.42-.47,.62Z"/><path d="M304.32,199c-.04,.12-.08,.24-.13,.36l-.2-.23c.13-.03,.25-.05,.38-.08,0,0-.05-.05-.05-.05Z"/><path d="M347.82,392.32c.14,.11,.28,.11,.42,.02,.58,.87,1.17,1.73,1.75,2.6,.24,.36,.4,.71-.07,1.02-.6-.04-1.18-.17-1.68-.53-1.35-1.73-2.66-3.54-5.38-3.07,.39-1.52,1.43-1.49,2.42-1.54,.36,.62,.97,.46,1.52,.48,.16,.53,.55,.82,1.02,1.03Z"/><path d="M314.4,265.19c-3.28-.71-6.61-.27-9.92-.46-1.31-.07-2.44,.4-3.55,.97-1.27,.23-2.5,1.76-3.9,.02,1.15-1.67,2.91-2.69,4.7-3.49,3.68-1.64,7.5-2.85,11.65-2.26,.49,.07,1.09-.07,1.44,.29,1.63,1.7,3.63,2.93,5.43,4.41,.33,.27,.64,.62,.39,1.07-.23,.41-.69,.44-1.11,.32-1.68-.47-3.32-1.14-5.13-.87Z"/><path d="M322.31,394.86c.63-1.33-.49-2.39-.08-3.72,1.3,.37,1.76,1.3,1.86,2.39,.08,.97-.68,1.16-1.78,1.33Z"/><path d="M330.35,397.84c-.52-.24-.46-.75-.77-1.35q.75,.59,.77,1.35Z"/><path d="M318.43,386.9c.24-1.37,.82-1.95,1.83-2.03,.08,0,.28,.25,.27,.36-.14,1.06-.97,1.28-2.1,1.66Z"/><path d="M324.26,229.87c.07,.1,.31,.3,.29,.47-.03,.33-.32,.23-.52,.13-.19-.09-.45-.19-.35-.46,.02-.07,.27-.07,.58-.14Z"/><path class="cls-52" d="M314.88,228.55s-.1,.09-.15,.13c-.04-.05-.12-.1-.12-.15,0-.05,.09-.09,.14-.13,.04,.05,.08,.1,.12,.15Z"/><path class="cls-84" d="M308.31,204.72c.11,1.17-.23,1.87-.44,2.59-.34,1.18-1.41,1-2.26,1.16-1.02,.19-1-.77-1.08-1.34-.13-.87-.69-1.69-.25-2.66,.34-.75,2.3-2.08,2.95-1.73,.89,.48,.94,1.49,1.08,1.98Z"/></g></g><g id="Ebene_8"><g><path class="cls-82" d="M454.2,262.8c-16.12-18.08-32.2-36.18-47.63-54.3-5.25-6.14-15.76-18.68-20.88-24.94-13.77-16.74-27.3-33.7-40.06-51.24l-.3,.21c21.57,30.98,45.57,61.07,69.78,90.05,12.79,15.42,25.8,30.72,39.1,45.77v-5.55Z"/><path class="cls-82" d="M226.13,269.48c6.94,10.37,14.79,21.44,22.33,31.34,23.55,30.31,48.29,60.03,76.97,85.29,0,0,.18-.2,.18-.2-29.32-32.57-61.64-65.96-87.91-101.09-3.4-4.36-8.08-10.98-11.36-15.5,0,0-.22,.16-.22,.16h0Z"/><path class="cls-82" d="M51.9,129.12c9.63,13.89,20.53,28.7,31.01,41.96,32.71,40.58,67.05,80.37,106.87,114.2,0,0,.25-.27,.25-.27-40.71-43.61-85.59-88.31-122.06-135.35-4.72-5.83-11.22-14.7-15.77-20.75,0,0-.3,.21-.3,.21h0Z"/><path class="cls-82" d="M454.2,402.33c-26.33-27.13-54.24-54.93-77.39-84.02-3.36-4.05-8-10.2-11.24-14.4,0,0-.22,.15-.22,.15,6.86,9.64,14.63,19.92,22.1,29.13,20.69,25,42.31,49.57,66.75,71.2v-2.05Z"/><path class="cls-82" d="M14.82,163.57c9.63,13.89,20.53,28.7,31.01,41.96,32.71,40.58,67.05,80.38,106.87,114.2,0,0,.25-.27,.25-.27-40.71-43.61-85.59-88.31-122.06-135.35-4.71-5.83-11.22-14.7-15.77-20.75,0,0-.3,.21-.3,.21h0Z"/><path class="cls-82" d="M264.65,294.81c9.63,13.89,20.54,28.7,31.01,41.96,32.71,40.58,67.05,80.37,106.87,114.2,0,0,.25-.27,.25-.27-40.71-43.61-85.59-88.31-122.06-135.35-4.71-5.83-11.22-14.7-15.77-20.75,0,0-.3,.21-.3,.21h0Z"/><path class="cls-82" d="M120.73,100.26c28.85,37.71,61.68,73.39,93.78,108.39,10.27,11.02,25.72,26.59,35.97,37.64,2.84,3.19,6.02,6.3,8.08,10.04,0,0,.35-.12,.35-.12-1.63-4.13-4.57-7.47-7.14-11.01-18.96-23.83-40.5-45.4-61.43-67.44-23.81-25.27-47.4-50.77-69.32-77.72,0,0-.29,.23-.29,.23h0Z"/><path class="cls-82" d="M243.85,249.89c25.01,29.93,53.42,63.58,77.6,93.81,6.8,8.28,14.4,17.3,21.13,25.55,3.93,5.04,8.31,9.85,11.45,15.43,.34,.74,.87,1.88-.14,1.7l-.07,.37c.28,.04,.58,.11,.84-.07,1.62-1.36-2.96-8.09-3.82-9.74-5.9-9.43-12.65-18.28-19.45-27.05-18.44-23.09-38.33-44.95-57.72-67.24,0,0-29.54-33-29.54-33l-.28,.24h0Z"/><path class="cls-82" d="M454.2,166.81c-38.05-40.35-78.79-81.7-112.39-125.05-4.71-5.83-11.22-14.7-15.77-20.75,0,0-.3,.21-.3,.21,9.63,13.89,20.54,28.7,31.01,41.96,30.1,37.34,61.59,74.01,97.45,105.97v-2.35Z"/><path class="cls-82" d="M214.82,72.81c13.68,18.92,28.9,36.87,44.76,54,15.7,17.29,32.51,33.87,51.28,47.85,0,0,.24-.28,.24-.28-16.05-17.02-32.78-33.18-49.38-49.62-8.22-8.28-16.16-16.82-23.97-25.48-7.84-8.64-15.32-17.6-22.65-26.69l-.3,.22h0Z"/><path class="cls-82" d="M454.2,192.21c-1.27-1.26-2.55-2.52-3.82-3.78-8.22-8.28-16.16-16.82-23.97-25.48-7.84-8.64-15.32-17.6-22.65-26.69l-.3,.22c13.68,18.92,28.89,36.87,44.77,54,1.97,2.17,3.96,4.33,5.97,6.48v-4.76Z"/><path class="cls-82" d="M320.55,61.99c13.68,18.92,28.89,36.87,44.77,54,15.7,17.29,32.51,33.87,51.28,47.85,0,0,.24-.28,.24-.28-16.05-17.02-32.78-33.18-49.38-49.62-8.22-8.28-16.16-16.82-23.97-25.48-7.84-8.64-15.32-17.6-22.65-26.69l-.3,.22h0Z"/><path class="cls-82" d="M99.21,11.04h-.69c8.8,12.51,18.45,25.53,27.77,37.33,32.71,40.58,67.05,80.37,106.87,114.2,0,0,.25-.27,.25-.27-40.71-43.61-85.59-88.31-122.06-135.35-3.56-4.41-8.15-10.55-12.15-15.9Z"/><path class="cls-82" d="M218.91,53.58c-8.22-8.28-16.16-16.82-23.97-25.48-5.06-5.57-9.95-11.28-14.76-17.07h-1.19c11.8,15.49,24.55,30.34,37.77,44.6,15.7,17.29,32.51,33.87,51.28,47.85l.24-.28c-16.05-17.02-32.78-33.18-49.38-49.62Z"/><path class="cls-82" d="M454.2,101.84c-12.87-13.19-26.04-26-39.14-38.97-8.22-8.28-16.16-16.82-23.97-25.48-7.84-8.64-15.32-17.6-22.65-26.69l-.3,.22c13.68,18.92,28.89,36.88,44.77,54,12.86,14.17,26.47,27.85,41.29,40.02v-3.1Z"/><path class="cls-82" d="M326.56,242.22c13.68,18.92,28.89,36.87,44.77,54,15.7,17.29,32.51,33.87,51.28,47.85,0,0,.25-.28,.25-.28-16.05-17.02-32.78-33.18-49.38-49.62-8.22-8.28-16.16-16.82-23.97-25.48-7.84-8.64-15.32-17.6-22.65-26.69l-.3,.22h0Z"/><path class="cls-82" d="M133.07,87.49c16.44,22.55,34.04,44.23,51.96,65.61,17.75,21.54,36.23,42.51,56.55,61.69,0,0,.27-.25,.27-.25-17.17-21.74-36.02-42.81-54.57-63.38-18.42-20.92-36.65-42.01-53.92-63.9,0,0-.3,.22-.3,.22h0Z"/><path class="cls-82" d="M279.71,109.1c9.63,13.89,20.53,28.7,31.01,41.96,32.71,40.58,67.05,80.37,106.87,114.2,0,0,.25-.27,.25-.27-40.71-43.61-85.59-88.31-122.06-135.35-4.71-5.83-11.22-14.7-15.77-20.75,0,0-.3,.21-.3,.21h0Z"/><path class="cls-82" d="M152.63,264.8c19.25,28.22,39.12,57.11,61.34,83.03,7.56,8.65,15.95,16.49,23.72,24.92,0,0,.3-.22,.3-.22-3-4.94-6.69-9.42-10.29-13.87-10.49-12.96-22.38-26.77-32.9-39.58-10.44-12.84-21.52-27.47-31.58-40.72,0,0-10.29-13.77-10.29-13.77l-.3,.21h0Z"/><path class="cls-82" d="M223.58,368.71c19.25,28.22,39.12,57.11,61.34,83.03,7.56,8.65,15.95,16.49,23.72,24.92,0,0,.3-.22,.3-.22-3-4.94-6.69-9.42-10.29-13.87-10.49-12.96-22.38-26.77-32.9-39.58-10.44-12.84-21.52-27.47-31.58-40.72,0,0-10.29-13.77-10.29-13.77l-.3,.21h0Z"/><path class="cls-82" d="M79.05,401.09c-10.49-12.96-22.38-26.77-32.9-39.58-10.44-12.84-21.52-27.47-31.58-40.72,0,0-2.02-2.7-4.27-5.71v1.41c17.29,25.23,35.21,50.68,55.01,73.78,7.56,8.65,15.95,16.49,23.72,24.92,0,0,.3-.22,.3-.22-3-4.94-6.69-9.42-10.29-13.87Z"/><path class="cls-82" d="M151.2,466.21c9.63,13.89,20.53,28.7,31.01,41.96,32.71,40.58,67.05,80.37,106.87,114.2,0,0,.25-.27,.25-.27-40.71-43.61-85.59-88.31-122.06-135.35-4.71-5.83-11.22-14.7-15.77-20.75,0,0-.3,.21-.3,.21h0Z"/><path class="cls-82" d="M15.62,365.37c9.63,13.89,20.53,28.7,31.01,41.96,32.71,40.58,67.05,80.37,106.87,114.2,0,0,.25-.27,.25-.27-40.71-43.61-85.59-88.31-122.06-135.35-4.72-5.83-11.22-14.7-15.77-20.75,0,0-.3,.21-.3,.21h0Z"/><path class="cls-82" d="M128.24,639.06h4.22c-34.43-36.28-70.19-73.45-100.24-112.21-4.71-5.83-11.22-14.7-15.77-20.75,0,0-.3,.21-.3,.21,9.63,13.89,20.54,28.7,31.01,41.96,25.43,31.55,51.87,62.62,81.08,90.78Z"/><path class="cls-82" d="M15.66,435.26c9.63,13.89,20.53,28.7,31.01,41.96,32.71,40.58,67.05,80.38,106.87,114.2,0,0,.25-.27,.25-.27-40.71-43.61-85.59-88.31-122.06-135.35-4.71-5.83-11.22-14.7-15.77-20.75,0,0-.3,.21-.3,.21h0Z"/><path class="cls-82" d="M22.72,197.94c9.63,13.89,20.53,28.7,31.01,41.96,32.71,40.58,67.05,80.37,106.87,114.2,0,0,.25-.27,.25-.27-40.71-43.61-85.59-88.31-122.06-135.35-4.71-5.83-11.22-14.7-15.77-20.75,0,0-.3,.21-.3,.21h0Z"/><path class="cls-82" d="M316.1,639.06h5.12c-26.84-28.42-53.52-57.47-76.78-87.47-4.71-5.83-11.22-14.7-15.77-20.75,0,0-.3,.21-.3,.21,9.63,13.89,20.54,28.7,31.01,41.96,18.18,22.56,36.87,44.87,56.72,66.05Z"/><path class="cls-82" d="M84.45,343.26c28.85,37.71,61.68,73.39,93.78,108.39,10.27,11.02,25.72,26.59,35.97,37.64,2.84,3.19,6.02,6.3,8.08,10.04,0,0,.35-.12,.35-.12-1.63-4.13-4.57-7.47-7.14-11.01-18.96-23.83-40.5-45.4-61.43-67.44-23.81-25.27-47.4-50.77-69.32-77.72,0,0-.29,.23-.29,.23h0Z"/><path class="cls-82" d="M223.32,454.64c25.01,29.93,53.42,63.58,77.6,93.81,6.8,8.28,14.4,17.3,21.13,25.55,3.93,5.04,8.31,9.85,11.45,15.43,.34,.74,.87,1.88-.14,1.7l-.07,.37c.28,.04,.58,.11,.84-.07,1.62-1.36-2.96-8.09-3.82-9.74-5.9-9.43-12.65-18.28-19.45-27.05-18.44-23.09-38.33-44.95-57.72-67.24,0,0-29.54-33-29.54-33l-.28,.24h0Z"/><path class="cls-82" d="M454.2,448.94c-28.68-30.28-57.44-61.25-82.3-93.3-4.71-5.83-11.22-14.7-15.77-20.75,0,0-.3,.21-.3,.21,9.63,13.89,20.54,28.7,31.01,41.96,21.39,26.54,43.49,52.73,67.36,77.15v-5.27Z"/><path class="cls-82" d="M151.54,312.43c13.68,18.92,28.9,36.87,44.76,54,15.7,17.29,32.51,33.87,51.28,47.85,0,0,.24-.28,.24-.28-16.05-17.02-32.78-33.18-49.38-49.62-8.22-8.28-16.16-16.82-23.97-25.48-7.84-8.64-15.32-17.6-22.65-26.69l-.3,.22h0Z"/><path class="cls-82" d="M454.2,475.48c-11.02-11.13-22.21-22.04-33.35-33.08-8.22-8.28-16.16-16.82-23.97-25.48-7.84-8.64-15.32-17.6-22.65-26.69l-.3,.22c13.68,18.92,28.89,36.87,44.77,54,11.17,12.3,22.91,24.23,35.5,35.13v-4.11Z"/><path class="cls-82" d="M307.13,328.54c10.43,13.29,22.04,25.91,34.14,37.93,11.97,12.15,24.8,23.79,39.11,33.61,0,0,.19-.2,.19-.2-12.24-11.96-25-23.31-37.65-34.86-6.27-5.81-12.32-11.81-18.28-17.9-5.98-6.07-11.68-12.36-17.27-18.75l-.23,.16h0Z"/><path class="cls-82" d="M290.28,478.47c13.68,18.92,28.89,36.87,44.77,54,15.7,17.29,32.51,33.87,51.28,47.85,0,0,.25-.28,.25-.28-16.05-17.02-32.78-33.18-49.38-49.62-8.22-8.28-16.16-16.82-23.97-25.48-7.84-8.64-15.32-17.6-22.65-26.69l-.3,.22h0Z"/><path class="cls-82" d="M243.43,345.35c9.63,13.89,20.53,28.7,31.01,41.96,32.71,40.58,67.05,80.37,106.87,114.2,0,0,.25-.27,.25-.27-40.71-43.61-85.59-88.31-122.06-135.35-4.71-5.83-11.22-14.7-15.77-20.75,0,0-.3,.21-.3,.21h0Z"/><path class="cls-82" d="M173.87,639.06c-7.51-9.01-15.25-18.13-22.37-26.81-10.44-12.84-21.52-27.47-31.58-40.72,0,0-10.29-13.77-10.29-13.77l-.3,.21c18.77,27.51,38.14,55.67,59.69,81.08h4.85Z"/><path class="cls-82" d="M116.35,501.05c19.25,28.22,39.12,57.11,61.34,83.03,7.56,8.65,15.95,16.49,23.72,24.92,0,0,.3-.22,.3-.22-3-4.94-6.69-9.42-10.29-13.87-10.49-12.96-22.38-26.77-32.9-39.58-10.44-12.84-21.52-27.47-31.58-40.72,0,0-10.29-13.77-10.29-13.77l-.3,.21h0Z"/><path class="cls-82" d="M116.35,455.39c19.25,28.22,39.12,57.11,61.34,83.03,7.56,8.65,15.95,16.49,23.72,24.92,0,0,.3-.22,.3-.22-3-4.94-6.69-9.42-10.29-13.87-10.49-12.96-22.38-26.77-32.9-39.58-10.44-12.84-21.52-27.47-31.58-40.72,0,0-10.29-13.77-10.29-13.77l-.3,.21h0Z"/><path class="cls-82" d="M66.47,639.06c-2.6-3.12-5.17-6.21-7.66-9.24-10.44-12.84-21.52-27.47-31.58-40.72l-10.29-13.77-.3,.21c14.54,21.31,29.43,43.01,45.42,63.52h4.41Z"/><path class="cls-82" d="M416.25,639.06h2.46c-38.3-40.64-79.4-82.3-113.26-125.97-4.71-5.83-11.22-14.7-15.77-20.75,0,0-.3,.21-.3,.21,9.63,13.89,20.53,28.7,31.01,41.96,29.65,36.79,60.66,72.92,95.86,104.55Z"/><path class="cls-82" d="M56.43,22.25c-3.49-3.52-6.93-7.09-10.33-10.69h-3.36c3.8,4.3,7.65,8.55,11.54,12.75,15.7,17.29,32.51,33.87,51.28,47.85,0,0,.24-.28,.24-.28-16.05-17.02-32.78-33.18-49.38-49.62Z"/><path class="cls-82" d="M454.2,556.47c-30.23-35-62.51-69.92-92.35-104.97-5.25-6.14-15.76-18.68-20.88-24.94-13.77-16.74-27.3-33.7-40.06-51.24l-.3,.21c21.57,30.98,45.57,61.07,69.78,90.05,26.75,32.25,54.41,64,83.82,93.9v-3.01Z"/><path class="cls-82" d="M76.68,126.54c-10.49-12.96-22.38-26.77-32.9-39.58-10.44-12.84-21.52-27.47-31.58-40.72,0,0-.78-1.04-1.9-2.54v1.69c16.56,24.09,33.75,48.29,52.64,70.33,7.56,8.65,15.95,16.49,23.72,24.92,0,0,.3-.22,.3-.22-3-4.94-6.69-9.42-10.29-13.87Z"/><path class="cls-82" d="M10.3,238.83v2.42c2.17,2.83,4.33,5.62,6.48,8.34,32.71,40.58,67.05,80.37,106.87,114.2l.25-.27c-37.63-40.3-78.79-81.54-113.61-124.69Z"/></g><g><path class="cls-51" d="M337.78,202.47c35.05,37.81,75.15,78.63,108.39,117.78,2.27,2.74,4.58,5.45,6.81,8.23,0,0-.22,.2-.22,.2-2.57-2.47-5.06-5.02-7.59-7.52-17.52-17.64-34.35-36.15-50.77-54.79-13.19-15.12-44.56-48.98-56.63-63.9h0Z"/><path class="cls-51" d="M364.47,137.47c9.84,9.34,29.51,28.21,39.24,37.65,13.2,12.46,26.1,25.19,37.79,39.11,0,0-.21,.21-.21,.21-13.96-11.65-26.74-24.5-39.24-37.65-9.46-9.69-28.43-29.32-37.79-39.11,0,0,.21-.21,.21-.21h0Z"/><path class="cls-51" d="M11.64,130.51c10.73,11.54,32.17,34.81,42.79,46.43,14.38,15.39,28.46,31.04,41.26,47.8,0,0-.22,.2-.22,.2-15.2-14.63-29.14-30.39-42.79-46.43-10.33-11.86-31.03-35.85-41.26-47.8,0,0,.22-.2,.22-.2h0Z"/><path class="cls-51" d="M53.36,82.93c9.11,9.8,27.3,29.59,36.3,39.49,12.22,13.08,24.13,26.41,34.76,40.85,0,0-.22,.19-.22,.19-13.04-12.31-24.81-25.76-36.3-39.49-8.71-10.13-26.16-30.63-34.76-40.85,0,0,.22-.19,.22-.19h0Z"/><path class="cls-51" d="M10.49,532.09c8.78,10.29,26.31,31.04,34.98,41.41,11.78,13.72,23.25,27.68,33.38,42.7,0,0-.23,.19-.23,.19-12.63-12.99-23.95-27.07-34.98-41.41-8.37-10.59-25.13-32.03-33.38-42.7,0,0,.23-.19,.23-.19h0Z"/><path class="cls-51" d="M106.82,110.78c33.08,36.79,71.02,76.51,102.28,114.61,2.13,2.67,4.31,5.31,6.4,8.01l-.22,.19c-2.43-2.41-4.79-4.88-7.18-7.32-16.58-17.16-32.46-35.17-47.93-53.31-13.39-15.39-40.29-46.51-53.57-61.99,0,0,.22-.19,.22-.19h0Z"/><path class="cls-51" d="M56.92,455.49c17.91,23.87,36.26,47.59,55.68,70.26,8.71,10.4,17.26,20.9,26.7,30.69,0,0-.19,.22-.19,.22-2.13-1.7-4.24-3.44-6.32-5.22-14.17-12.82-26.2-27.79-37.71-42.98-13.27-17.26-26.05-34.88-38.4-52.8,0,0,.24-.17,.24-.17h0Z"/><path class="cls-51" d="M284.39,441.55c16.6,16.92,32.86,34.17,48.9,51.63,8.01,8.73,16.18,17.33,23.86,26.36,7.69,9.02,15.27,18.14,22.41,27.63l-.22,.19c-16.72-16.85-32.33-34.65-47.8-52.62-15.63-17.8-31.37-35.51-47.37-52.99,0,0,.21-.2,.21-.2h0Z"/><path class="cls-51" d="M89.4,156.04c10.89,11.16,32.66,33.69,43.44,44.95,14.6,14.89,28.89,30.04,41.94,46.35,0,0-.21,.2-.21,.2-15.4-14.11-29.56-29.38-43.44-44.95-10.5-11.5-31.55-34.76-41.94-46.35,0,0,.21-.2,.21-.2h0Z"/><path class="cls-51" d="M83.6,237.29c11.11,11.82,33.32,35.67,44.32,47.58,14.89,15.77,29.47,31.8,42.79,48.96,0,0-.22,.2-.22,.2-15.7-15-30.15-31.15-44.32-47.58-10.71-12.15-32.19-36.72-42.79-48.96,0,0,.22-.2,.22-.2h0Z"/><path class="cls-51" d="M168.32,514.67c13.94,13.03,41.84,39.29,55.68,52.42,18.65,17.32,37.08,35.09,54.25,53.9,0,0-.2,.21-.2,.21-2.45-2.05-4.82-4.18-7.23-6.27l-7.12-6.39c-14.25-12.76-27.82-26.23-41.33-39.76-13.55-13.37-40.8-40.43-54.25-53.9,0,0,.2-.21,.2-.21h0Z"/><path class="cls-51" d="M304.12,440.39c9.86,10.2,29.57,30.8,39.32,41.1,13.23,13.61,26.14,27.48,37.81,42.49,0,0-.22,.2-.22,.2-14.03-12.83-26.81-26.82-39.32-41.1-9.47-10.54-28.45-31.86-37.81-42.49,0,0,.22-.2,.22-.2h0Z"/><path class="cls-51" d="M60.4,397.46c10.05,12.73,30.14,38.38,40.07,51.18,13.48,16.98,26.64,34.19,38.43,52.42,0,0-.23,.18-.23,.18-14.36-16.29-27.37-33.61-40.07-51.18-9.63-13.01-28.92-39.33-38.43-52.42,0,0,.23-.18,.23-.18h0Z"/><path class="cls-51" d="M25.58,252.38c13.25,15.94,27.21,31.25,41.44,46.31,8.86,9.31,18.15,18.63,26.45,28.51,4.9,6,10.23,12.07,13.37,19.22,0,0-.27,.12-.27,.12l-1.08-1.61c-2.37-3.55-5.8-7.16-8.68-10.35-17.84-18.77-35.2-38.03-51.99-57.76-6.66-7.96-13.15-16.05-19.48-24.26l.23-.18h0Z"/><path class="cls-51" d="M300.64,334.78c13.96,16.75,27.75,33.64,41.32,50.71,10.25,12.75,20.46,25.57,29.39,39.32,1.13,1.69,3.34,5.19,4.38,6.94,1.42,2.33,2.73,4.76,3.95,7.2l-.26,.14c-5.38-7.7-13.95-18.42-19.74-26-6.67-8.6-13.01-17.46-19.58-26.16-13.14-17.39-26.39-34.7-39.69-51.97,0,0,.23-.18,.23-.18h0Z"/><path class="cls-51" d="M334.3,266.31c26.31,34.34,54.25,67.32,83.07,99.57,0,0-.2,.21-.2,.21-2.09-1.72-4.12-3.53-6.19-5.3-14.01-12.75-26.31-27.45-37.94-42.36-6.74-8.48-13.34-17.06-19.85-25.71-6.47-8.68-12.87-17.41-19.14-26.23,0,0,.24-.17,.24-.17h0Z"/><path class="cls-51" d="M197.34,95.69c31.82,32.75,68.05,66.9,97.45,101.67,0,0-.21,.2-.21,.2-17.39-15.83-33.57-32.83-49.47-50.13-12-12.79-36.08-38.66-47.98-51.55,0,0,.21-.2,.21-.2h0Z"/><path class="cls-51" d="M454.2,439.97c-12.94-16.09-26.95-31.21-41.24-46.09-11.17-11.89-33.73-35.7-45.01-47.5,0,0-.22,.2-.22,.2,10.78,12.22,32.61,36.76,43.5,48.89,13.78,15.7,27.83,31.13,42.97,45.54v-1.04Z"/><path class="cls-51" d="M454.2,522.54c-30.42-33.22-66.11-65.85-97.86-97.24,0,0-.21,.21-.21,.21,12.82,13.3,38.78,40.02,51.7,53.22,15.04,15.66,30.28,31.1,46.36,45.7v-1.89Z"/><path class="cls-51" d="M123.02,597.65c-33.63-44.81-75.57-90.73-112.72-133.54v.66c14.22,17.51,57.5,68.65,57.31,68.77,17.83,21.58,43.65,53.38,62.43,74-2.3-3.32-4.62-6.63-7.02-9.88Z"/></g></g><g id="Ebene_5"><path d="M10.78,638.46c76.93-.42,258.42-1.66,332.69-1.93,0,0,110.42-.43,110.42-.43,0,0-2.5,2.5-2.5,2.5,0,0-.55-156.94-.55-156.94-.12-99.81-.45-367.66-.56-470.81,0,0,3.61,3.61,3.61,3.61L10.64,13.95s3.1-3.1,3.1-3.1c-.37,156.43-2.05,471.19-2.95,627.61h0Zm-.28,.28c-.15-.1-.07-628.07-.18-628.21,.1-.15,443.39,.02,443.57-.08,0,0,.4,0,.4,0,0,0,0,.4,0,.4,.14,.08-.22,627.92-.12,628.03-.15,.2-443.47-.28-443.68-.14h0Z"/></g><g id="Ebene_9"><polygon class="cls-6" points="303.23 107.64 304.89 148.3 300.32 107.86 303.23 107.64 303.23 107.64"/></g></svg>