<?xml version="1.0" encoding="UTF-8"?>
<svg xmlns="http://www.w3.org/2000/svg" viewBox="0 0 932.53 1303.54">
  <defs>
    <style>
      .cls-1 {
        fill: #214b4d;
      }

      .cls-2 {
        fill: #396365;
      }
    </style>
  </defs>
  <g id="Ebene_2" data-name="Ebene 2">
    <rect class="cls-1" x="-7.98" y="-7.8" width="950.79" height="1317.94"/>
  </g>
  <g id="Ebene_1" data-name="Ebene 1">
    <g>
      <path class="cls-2" d="M518.28,314.48c-45.71,53.88-93.36,114.34-141.88,165.4,0,0-.28-.24-.28-.24,22.09-28.87,45.83-56.38,69.95-83.55,17.84-20.44,53.95-61.53,71.93-81.85,0,0,.28,.24,.28,.24h0Z"/>
      <path class="cls-2" d="M206.57,588.54c-46.25,48.32-95.16,103.41-143.98,148.67,0,0-.27-.26-.27-.26,22.52-26.17,46.61-50.89,71.05-75.24,18.09-18.34,54.7-55.21,72.92-73.43,0,0,.27,.26,.27,.26h0Z"/>
      <path class="cls-2" d="M276.35,995.62c-46.25,48.32-95.16,103.41-143.98,148.67,0,0-.27-.26-.27-.26,22.52-26.17,46.61-50.89,71.05-75.24,18.09-18.34,54.7-55.21,72.92-73.43,0,0,.27,.26,.27,.26h0Z"/>
      <path class="cls-2" d="M369.76,387.69c-21.57,30.98-45.57,61.07-69.78,90.05-27.67,33.36-56.3,66.21-86.85,97-3.85,3.83-7.65,7.7-11.58,11.46l-.27-.26c3.5-4.15,7.08-8.23,10.6-12.35,31.44-36.66,65.38-73.23,96.63-109.94,5.25-6.14,15.76-18.68,20.88-24.94,13.77-16.74,27.29-33.7,40.06-51.24,0,0,.3,.21,.3,.21h0Z"/>
      <path class="cls-2" d="M573.3,636.3c-21.57,30.98-45.57,61.07-69.78,90.05-27.67,33.36-56.3,66.21-86.85,97-3.85,3.83-7.65,7.7-11.58,11.46l-.27-.26c3.5-4.15,7.08-8.23,10.6-12.35,31.44-36.66,65.38-73.23,96.63-109.94,5.25-6.14,15.76-18.68,20.88-24.94,13.77-16.74,27.29-33.7,40.06-51.24,0,0,.3,.21,.3,.21h0Z"/>
      <path class="cls-2" d="M371.21,899.45c-21.57,30.98-45.57,61.07-69.78,90.05-27.67,33.36-56.3,66.21-86.85,97-3.85,3.83-7.65,7.7-11.58,11.46l-.27-.26c3.5-4.15,7.08-8.23,10.6-12.35,31.44-36.66,65.38-73.23,96.63-109.94,5.25-6.14,15.76-18.68,20.88-24.94,13.77-16.74,27.29-33.7,40.06-51.24,0,0,.3,.21,.3,.21h0Z"/>
      <path class="cls-2" d="M354.07,227.13c-9.63,13.89-20.53,28.7-31.01,41.96-32.71,40.58-67.05,80.37-106.87,114.2,0,0-.25-.27-.25-.27,40.71-43.61,85.59-88.31,122.06-135.35,4.71-5.83,11.22-14.7,15.77-20.75,0,0,.3,.21,.3,.21h0Z"/>
      <path class="cls-2" d="M569.54,170.65c-9.63,13.89-20.53,28.7-31.01,41.96-32.71,40.58-67.05,80.37-106.87,114.2,0,0-.25-.27-.25-.27,40.71-43.61,85.59-88.31,122.06-135.35,4.72-5.83,11.22-14.7,15.77-20.75,0,0,.3,.21,.3,.21h0Z"/>
      <path class="cls-2" d="M953.42,145.02c-21.19,30.45-44.83,59.97-68.74,88.35-27.32,32.67-55.64,64.79-85.91,94.81-3.82,3.73-7.59,7.5-11.47,11.16l-.27-.26,10.51-12.06c31.14-35.81,64.71-71.53,95.55-107.49,5.18-6.01,15.54-18.31,20.59-24.44,13.57-16.42,26.88-33.07,39.43-50.29l.3,.21h0Z"/>
      <path class="cls-2" d="M258.92,494.93c-9.63,13.89-20.54,28.7-31.01,41.96-32.71,40.58-67.05,80.37-106.87,114.2,0,0-.25-.27-.25-.27,40.71-43.61,85.59-88.31,122.06-135.35,4.71-5.83,11.22-14.7,15.77-20.75,0,0,.3,.21,.3,.21h0Z"/>
      <path class="cls-2" d="M886.51,93.27c-9.63,13.89-20.53,28.7-31.01,41.96-32.71,40.58-67.05,80.37-106.87,114.2,0,0-.25-.27-.25-.27,40.71-43.61,85.59-88.31,122.06-135.35,4.71-5.83,11.22-14.7,15.77-20.75,0,0,.3,.21,.3,.21h0Z"/>
      <path class="cls-2" d="M775.58,605.47c-9.63,13.89-20.53,28.7-31.01,41.96-32.71,40.58-67.05,80.37-106.87,114.2,0,0-.25-.27-.25-.27,40.71-43.61,85.59-88.31,122.06-135.35,4.71-5.83,11.22-14.7,15.77-20.75,0,0,.3,.21,.3,.21h0Z"/>
      <path class="cls-2" d="M596.75,843.9c-9.63,13.89-20.53,28.7-31.01,41.96-32.71,40.58-67.05,80.37-106.87,114.2,0,0-.25-.27-.25-.27,40.71-43.61,85.59-88.31,122.06-135.35,4.71-5.83,11.22-14.7,15.77-20.75,0,0,.3,.21,.3,.21h0Z"/>
      <path class="cls-2" d="M954.6,759.27c-9.63,13.89-20.53,28.7-31.01,41.96-32.71,40.58-67.05,80.37-106.87,114.2,0,0-.25-.27-.25-.27,40.71-43.61,85.59-88.31,122.06-135.35,4.71-5.83,11.22-14.7,15.77-20.75,0,0,.3,.21,.3,.21h0Z"/>
      <path class="cls-2" d="M755.42,1170.71c-9.63,13.89-20.53,28.7-31.01,41.96-32.71,40.58-67.05,80.37-106.87,114.2,0,0-.25-.27-.25-.27,40.71-43.61,85.59-88.31,122.06-135.35,4.71-5.83,11.22-14.7,15.77-20.75,0,0,.3,.21,.3,.21h0Z"/>
      <path class="cls-2" d="M907.74,792.91c-9.63,13.89-20.53,28.7-31.01,41.96-32.71,40.58-67.05,80.37-106.87,114.2,0,0-.25-.27-.25-.27,40.71-43.61,85.59-88.31,122.06-135.35,4.71-5.83,11.22-14.7,15.77-20.75,0,0,.3,.21,.3,.21h0Z"/>
      <path class="cls-2" d="M804.41,849.38c-9.63,13.89-20.53,28.7-31.01,41.96-32.71,40.58-67.05,80.37-106.87,114.2,0,0-.25-.27-.25-.27,40.71-43.61,85.59-88.31,122.06-135.35,4.71-5.83,11.22-14.7,15.77-20.75,0,0,.3,.21,.3,.21h0Z"/>
      <path class="cls-2" d="M789.99,784.5c-9.63,13.89-20.53,28.7-31.01,41.96-32.71,40.58-67.05,80.37-106.87,114.2,0,0-.25-.27-.25-.27,40.71-43.61,85.59-88.31,122.06-135.35,4.71-5.83,11.22-14.7,15.77-20.75,0,0,.3,.21,.3,.21h0Z"/>
      <path class="cls-2" d="M996.66,576.64c-9.63,13.89-20.53,28.7-31.01,41.96-32.71,40.58-67.05,80.37-106.87,114.2,0,0-.25-.27-.25-.27,40.71-43.61,85.59-88.31,122.06-135.35,4.72-5.83,11.22-14.7,15.77-20.75,0,0,.3,.21,.3,.21h0Z"/>
      <path class="cls-2" d="M990.65,506.95c-9.63,13.89-20.53,28.7-31.01,41.96-32.71,40.58-67.05,80.37-106.87,114.2,0,0-.25-.27-.25-.27,40.71-43.61,85.59-88.31,122.06-135.35,4.71-5.83,11.22-14.7,15.77-20.75,0,0,.3,.21,.3,.21h0Z"/>
      <path class="cls-2" d="M692.67,846.98c-9.63,13.89-20.53,28.7-31.01,41.96-32.71,40.58-67.05,80.37-106.87,114.2,0,0-.25-.27-.25-.27,40.71-43.61,85.59-88.31,122.06-135.35,4.71-5.83,11.22-14.7,15.77-20.75,0,0,.3,.21,.3,.21h0Z"/>
      <path class="cls-2" d="M935.38,599.46c-9.63,13.89-20.54,28.7-31.01,41.96-32.71,40.58-67.05,80.37-106.87,114.2,0,0-.25-.27-.25-.27,40.71-43.61,85.59-88.31,122.06-135.35,4.71-5.83,11.22-14.7,15.77-20.75,0,0,.3,.21,.3,.21h0Z"/>
      <path class="cls-2" d="M960.61,508.15c-9.63,13.89-20.53,28.7-31.01,41.96-32.71,40.58-67.05,80.38-106.87,114.2,0,0-.25-.27-.25-.27,40.71-43.61,85.59-88.31,122.06-135.35,4.71-5.83,11.22-14.7,15.77-20.75,0,0,.3,.21,.3,.21h0Z"/>
      <path class="cls-2" d="M360.17,1155.12c-9.63,13.89-20.53,28.7-31.01,41.96-32.71,40.58-67.05,80.38-106.87,114.2,0,0-.25-.27-.25-.27,40.71-43.61,85.59-88.31,122.06-135.35,4.71-5.83,11.22-14.7,15.77-20.75,0,0,.3,.21,.3,.21h0Z"/>
      <path class="cls-2" d="M181.34,1143.49c-9.63,13.89-20.53,28.7-31.01,41.96-32.71,40.58-67.05,80.38-106.87,114.2,0,0-.25-.27-.25-.27,40.71-43.61,85.59-88.31,122.06-135.35,4.71-5.83,11.22-14.7,15.77-20.75,0,0,.3,.21,.3,.21h0Z"/>
      <path class="cls-2" d="M938.64,469.67c-9.63,13.89-20.53,28.7-31.01,41.96-32.71,40.58-67.05,80.37-106.87,114.2,0,0-.25-.27-.25-.27,40.71-43.61,85.59-88.31,122.06-135.35,4.71-5.83,11.22-14.7,15.77-20.75,0,0,.3,.21,.3,.21h0Z"/>
      <path class="cls-2" d="M451.34,517.39c-21.61,31.19-45.78,60.52-70.94,88.9-25.06,28.48-51.39,55.93-80.14,80.72,0,0-.26-.27-.26-.27,25.89-27.7,52.24-54.83,78.19-82.45,25.91-27.62,50.3-57.61,73.14-86.91h0Z"/>
      <path class="cls-2" d="M659.03,705.2c-9.63,13.89-20.54,28.7-31.01,41.96-32.71,40.58-67.05,80.37-106.87,114.2,0,0-.25-.27-.25-.27,40.71-43.61,85.59-88.31,122.06-135.35,4.71-5.83,11.22-14.7,15.77-20.75,0,0,.3,.21,.3,.21h0Z"/>
      <path class="cls-2" d="M120.75,424.04c-9.63,13.89-20.54,28.7-31.01,41.96-32.71,40.58-67.05,80.37-106.87,114.2,0,0-.25-.27-.25-.27,40.71-43.61,85.59-88.31,122.06-135.35,4.71-5.83,11.22-14.7,15.77-20.75,0,0,.3,.21,.3,.21h0Z"/>
      <path class="cls-2" d="M117.15,503.34c-9.63,13.89-20.53,28.7-31.01,41.96-32.71,40.58-67.05,80.37-106.87,114.2,0,0-.25-.27-.25-.27,40.71-43.61,85.59-88.31,122.06-135.35,4.72-5.83,11.22-14.7,15.77-20.75,0,0,.3,.21,.3,.21h0Z"/>
      <path class="cls-2" d="M117.15,581.44c-9.63,13.89-20.53,28.7-31.01,41.96-32.71,40.58-67.05,80.37-106.87,114.2,0,0-.25-.27-.25-.27,40.71-43.61,85.59-88.31,122.06-135.35,4.72-5.83,11.22-14.7,15.77-20.75,0,0,.3,.21,.3,.21h0Z"/>
      <path class="cls-2" d="M610.33,239.16c-26.29,37.45-56.52,71.94-87.26,105.76-26.71,29.67-54.8,58.46-84.12,85.6-4.23,3.84-8.42,7.74-12.73,11.5,0,0-.26-.27-.26-.27l11.8-12.44c58.78-61.68,121.3-122.78,172.57-190.15h0Z"/>
      <path class="cls-2" d="M248.42,743.32c-23.63,34.03-49.77,66.24-76.56,97.82-26.67,31.7-54.46,62.49-84.47,91.09,0,0-.27-.26-.27-.26,23.51-27.15,48-54.59,72.17-81.19,31.08-34.32,61.29-71.36,89.12-107.47h0Z"/>
      <path class="cls-2" d="M136.36,897.44c-9.63,13.89-20.53,28.7-31.01,41.96-32.71,40.58-67.05,80.37-106.87,114.2,0,0-.25-.27-.25-.27,40.71-43.61,85.59-88.31,122.06-135.35,4.71-5.83,11.22-14.7,15.77-20.75,0,0,.3,.21,.3,.21h0Z"/>
      <path class="cls-2" d="M842.33,482.52c-28.85,37.71-61.68,73.39-93.78,108.39-10.27,11.02-25.72,26.59-35.97,37.64-2.84,3.19-6.02,6.3-8.08,10.04,0,0-.35-.12-.35-.12,1.63-4.13,4.57-7.47,7.14-11.01,18.96-23.83,40.5-45.4,61.43-67.44,23.81-25.27,47.4-50.77,69.32-77.72,0,0,.29,.23,.29,.23h0Z"/>
      <path class="cls-2" d="M703.45,593.9c-25.01,29.93-53.42,63.58-77.6,93.81-6.8,8.28-14.4,17.3-21.13,25.55-3.93,5.04-8.31,9.85-11.45,15.43-.34,.74-.87,1.88,.14,1.7,0,0,.07,.37,.07,.37-.28,.04-.58,.11-.84-.07-1.62-1.36,2.96-8.09,3.82-9.74,5.9-9.43,12.65-18.28,19.45-27.05,18.44-23.09,38.33-44.95,57.72-67.24,0,0,29.54-33,29.54-33,0,0,.28,.24,.28,.24h0Z"/>
      <path class="cls-2" d="M637.32,396.75c-9.63,13.89-20.54,28.7-31.01,41.96-32.71,40.58-67.05,80.37-106.87,114.2,0,0-.25-.27-.25-.27,40.71-43.61,85.59-88.31,122.06-135.35,4.71-5.83,11.22-14.7,15.77-20.75,0,0,.3,.21,.3,.21h0Z"/>
      <path class="cls-2" d="M202.19,681.25c-9.63,13.89-20.53,28.7-31.01,41.96-32.71,40.58-67.05,80.37-106.87,114.2,0,0-.25-.27-.25-.27,40.71-43.61,85.59-88.31,122.06-135.35,4.71-5.83,11.22-14.7,15.77-20.75,0,0,.3,.21,.3,.21h0Z"/>
      <path class="cls-2" d="M131.07,846.52c-9.63,13.89-20.54,28.7-31.01,41.96-32.71,40.58-67.05,80.37-106.87,114.2,0,0-.25-.27-.25-.27,40.71-43.61,85.59-88.31,122.06-135.35,4.71-5.83,11.22-14.7,15.77-20.75,0,0,.3,.21,.3,.21h0Z"/>
      <path class="cls-2" d="M798.4,262.86c-9.63,13.89-20.53,28.7-31.01,41.96-32.71,40.58-67.05,80.37-106.87,114.2,0,0-.25-.27-.25-.27,40.71-43.61,85.59-88.31,122.06-135.35,4.71-5.83,11.22-14.7,15.77-20.75,0,0,.3,.21,.3,.21h0Z"/>
      <path class="cls-2" d="M765.14,333.3c-15.05,20.41-32.26,39.76-49.7,58.17-22.47,23.91-45.78,47.12-71.66,67.37,0,0-.25-.28-.25-.28,20.05-20.85,41.46-41.15,62.25-61.27,10.04-9.89,20.82-20.91,30.44-31.27,9.91-10.65,19.61-21.51,28.62-32.95l.3,.22h0Z"/>
      <path class="cls-2" d="M823.71,333.3c-18.6,25.13-39.63,48.35-60.95,71.17-20.93,22.63-43.69,45.48-67.32,65.18,0,0-.26-.27-.26-.27,21.15-23.01,43.35-44.89,65.43-66.97,21.78-22.32,43.39-44.89,62.8-69.34,0,0,.3,.22,.3,.22h0Z"/>
      <path class="cls-2" d="M748.23,448.32c-13.68,18.92-28.9,36.87-44.76,54-15.7,17.29-32.51,33.87-51.28,47.85,0,0-.24-.28-.24-.28,16.05-17.02,32.78-33.18,49.38-49.62,8.22-8.28,16.16-16.82,23.97-25.48,7.84-8.64,15.32-17.6,22.65-26.69,0,0,.3,.22,.3,.22h0Z"/>
      <path class="cls-2" d="M467.86,890.08c-13.68,18.92-28.9,36.87-44.76,54-15.7,17.29-32.51,33.87-51.28,47.85,0,0-.24-.28-.24-.28,16.05-17.02,32.78-33.18,49.38-49.62,8.22-8.28,16.16-16.82,23.97-25.48,7.84-8.64,15.32-17.6,22.65-26.69,0,0,.3,.22,.3,.22h0Z"/>
      <path class="cls-2" d="M945.28,322.16c-13.68,18.92-28.89,36.87-44.77,54-15.7,17.29-32.51,33.87-51.28,47.85,0,0-.25-.28-.25-.28,16.05-17.02,32.78-33.18,49.38-49.62,8.22-8.28,16.16-16.82,23.97-25.48,7.84-8.64,15.32-17.6,22.65-26.69,0,0,.3,.22,.3,.22h0Z"/>
      <path class="cls-2" d="M559.6,512c-13.68,18.92-28.89,36.87-44.77,54-15.7,17.29-32.51,33.87-51.28,47.85,0,0-.24-.28-.24-.28,16.05-17.02,32.78-33.18,49.38-49.62,8.22-8.28,16.16-16.82,23.97-25.48,7.84-8.64,15.32-17.6,22.65-26.69,0,0,.3,.22,.3,.22h0Z"/>
      <path class="cls-2" d="M642.5,437.5c-13.68,18.92-28.89,36.87-44.77,54-15.7,17.29-32.51,33.87-51.28,47.85,0,0-.24-.28-.24-.28,16.05-17.02,32.78-33.18,49.38-49.62,8.22-8.28,16.16-16.82,23.97-25.48,7.84-8.64,15.32-17.6,22.65-26.69,0,0,.3,.22,.3,.22h0Z"/>
      <path class="cls-2" d="M636.49,617.73c-13.68,18.92-28.89,36.87-44.77,54-15.7,17.29-32.51,33.87-51.28,47.85,0,0-.25-.28-.25-.28,16.05-17.02,32.78-33.18,49.38-49.62,8.22-8.28,16.16-16.82,23.97-25.48,7.84-8.64,15.32-17.6,22.65-26.69,0,0,.3,.22,.3,.22h0Z"/>
      <path class="cls-2" d="M829.99,463c-16.44,22.55-34.04,44.23-51.96,65.61-17.75,21.54-36.23,42.51-56.55,61.69,0,0-.27-.25-.27-.25,17.17-21.74,36.02-42.81,54.57-63.38,18.42-20.92,36.65-42.01,53.92-63.9,0,0,.3,.22,.3,.22h0Z"/>
      <path class="cls-2" d="M680.24,966.04c-16.44,22.55-34.04,44.23-51.96,65.61-17.75,21.54-36.23,42.51-56.55,61.69,0,0-.27-.25-.27-.25,17.17-21.74,36.02-42.81,54.57-63.38,18.42-20.92,36.65-42.01,53.92-63.9,0,0,.3,.22,.3,.22h0Z"/>
      <path class="cls-2" d="M909.48,272.64c-57.54,71.73-118.35,147.24-178.34,216.84,0,0-2.93,3.45-2.93,3.45,0,0-2.81,3.52-2.81,3.52,0,0-.32-.19-.32-.19,28.05-39.4,59.72-75.99,90.87-112.93,27.49-32.16,66.59-79.72,93.53-110.7h0Z"/>
      <path class="cls-2" d="M683.34,484.61c-9.63,13.89-20.53,28.7-31.01,41.96-32.71,40.58-67.05,80.37-106.87,114.2,0,0-.25-.27-.25-.27,40.71-43.61,85.59-88.31,122.06-135.35,4.71-5.83,11.22-14.7,15.77-20.75,0,0,.3,.21,.3,.21h0Z"/>
      <path class="cls-2" d="M583.03,928.04c-9.63,13.89-20.53,28.7-31.01,41.96-32.71,40.58-67.05,80.37-106.87,114.2,0,0-.25-.27-.25-.27,40.71-43.61,85.59-88.31,122.06-135.35,4.71-5.83,11.22-14.7,15.77-20.75,0,0,.3,.21,.3,.21h0Z"/>
      <path class="cls-2" d="M336.29,582.24c-13.54,20-28.26,40.24-43.68,58.75-7.85,9.37-15.77,18.74-24.58,27.23-5.44,5.29-11.21,10.43-16.93,15.42-3.45,2.99-6.85,5.98-9.94,9.35,0,0-.3-.22-.3-.22,1.65-2.59,3.57-5.04,5.62-7.31,18.4-19.92,38.64-39.22,55.75-60.27,7.83-9.33,15.31-18.94,22.78-28.56,0,0,10.99-14.61,10.99-14.61,0,0,.3,.21,.3,.21h0Z"/>
      <path class="cls-2" d="M90.71,856.58c-19.25,28.22-39.12,57.11-61.34,83.03-7.56,8.65-15.95,16.49-23.72,24.92,0,0-.3-.22-.3-.22,3-4.94,6.69-9.42,10.29-13.87,10.49-12.96,22.38-26.77,32.9-39.58,10.44-12.84,21.52-27.47,31.58-40.72,0,0,10.29-13.77,10.29-13.77,0,0,.3,.21,.3,.21h0Z"/>
      <path class="cls-2" d="M705.89,790.5c-19.25,28.22-39.12,57.11-61.34,83.03-7.56,8.65-15.95,16.49-23.72,24.92,0,0-.3-.22-.3-.22,3-4.94,6.69-9.42,10.29-13.87,10.49-12.96,22.38-26.77,32.9-39.58,10.44-12.84,21.52-27.47,31.58-40.72,0,0,10.29-13.77,10.29-13.77,0,0,.3,.21,.3,.21h0Z"/>
      <path class="cls-2" d="M719.11,744.84c-19.25,28.22-39.12,57.11-61.34,83.03-7.56,8.65-15.95,16.49-23.72,24.92,0,0-.3-.22-.3-.22,3-4.94,6.69-9.42,10.29-13.87,10.49-12.96,22.38-26.77,32.9-39.58,10.44-12.84,21.52-27.47,31.58-40.72,0,0,10.29-13.77,10.29-13.77l.3,.21h0Z"/>
      <path class="cls-2" d="M797.2,703.99c-19.25,28.22-39.12,57.11-61.34,83.03-7.56,8.65-15.95,16.49-23.72,24.92,0,0-.3-.22-.3-.22,3-4.94,6.69-9.42,10.29-13.87,10.49-12.96,22.38-26.77,32.9-39.58,10.44-12.84,21.52-27.47,31.58-40.72,0,0,10.29-13.77,10.29-13.77,0,0,.3,.21,.3,.21h0Z"/>
      <path class="cls-2" d="M810.42,640.31c-19.25,28.22-39.12,57.11-61.34,83.03-7.56,8.65-15.95,16.49-23.72,24.92,0,0-.3-.22-.3-.22,3-4.94,6.69-9.42,10.29-13.87,10.49-12.96,22.38-26.77,32.9-39.58,10.44-12.84,21.52-27.47,31.58-40.72,0,0,10.29-13.77,10.29-13.77l.3,.21h0Z"/>
      <path class="cls-2" d="M810.42,594.65c-19.25,28.22-39.12,57.11-61.34,83.03-7.56,8.65-15.95,16.49-23.72,24.92,0,0-.3-.22-.3-.22,3-4.94,6.69-9.42,10.29-13.87,10.49-12.96,22.38-26.77,32.9-39.58,10.44-12.84,21.52-27.47,31.58-40.72,0,0,10.29-13.77,10.29-13.77,0,0,.3,.21,.3,.21h0Z"/>
      <path class="cls-2" d="M796,637.91c-19.25,28.22-39.12,57.11-61.34,83.03-7.56,8.65-15.95,16.49-23.72,24.92,0,0-.3-.22-.3-.22,3-4.94,6.69-9.42,10.29-13.87,10.49-12.96,22.38-26.77,32.9-39.58,10.44-12.84,21.52-27.47,31.58-40.72,0,0,10.29-13.77,10.29-13.77,0,0,.3,.21,.3,.21h0Z"/>
      <path class="cls-2" d="M473.17,1139.04c-9.63,13.89-20.53,28.7-31.01,41.96-32.71,40.58-67.05,80.37-106.87,114.2,0,0-.25-.27-.25-.27,40.71-43.61,85.59-88.31,122.06-135.35,4.71-5.83,11.22-14.7,15.77-20.75,0,0,.3,.21,.3,.21h0Z"/>
      <path class="cls-2" d="M539.93,1016.09c-28.85,37.71-61.68,73.39-93.78,108.39-10.27,11.02-25.72,26.59-35.97,37.64-2.84,3.19-6.02,6.3-8.08,10.04,0,0-.35-.12-.35-.12,1.63-4.13,4.57-7.47,7.14-11.01,18.96-23.83,40.5-45.4,61.43-67.44,23.81-25.27,47.4-50.77,69.32-77.72,0,0,.29,.23,.29,.23h0Z"/>
      <path class="cls-2" d="M508.02,1173.88c-19.25,28.22-39.12,57.11-61.34,83.03-7.56,8.65-15.95,16.49-23.72,24.92,0,0-.3-.22-.3-.22,3-4.94,6.69-9.42,10.29-13.87,10.49-12.96,22.38-26.77,32.9-39.58,10.44-12.84,21.52-27.47,31.58-40.72,0,0,10.29-13.77,10.29-13.77l.3,.21h0Z"/>
      <path class="cls-2" d="M508.02,1128.22c-19.25,28.22-39.12,57.11-61.34,83.03-7.56,8.65-15.95,16.49-23.72,24.92,0,0-.3-.22-.3-.22,3-4.94,6.69-9.42,10.29-13.87,10.49-12.96,22.38-26.77,32.9-39.58,10.44-12.84,21.52-27.47,31.58-40.72,0,0,10.29-13.77,10.29-13.77,0,0,.3,.21,.3,.21h0Z"/>
      <path class="cls-2" d="M493.6,1171.48c-19.25,28.22-39.12,57.11-61.34,83.03-7.56,8.65-15.95,16.49-23.72,24.92,0,0-.3-.22-.3-.22,3-4.94,6.69-9.42,10.29-13.87,10.49-12.96,22.38-26.77,32.9-39.58,10.44-12.84,21.52-27.47,31.58-40.72,0,0,10.29-13.77,10.29-13.77,0,0,.3,.21,.3,.21h0Z"/>
      <path class="cls-2" d="M910.15,714.81c-19.25,28.22-39.12,57.11-61.34,83.03-7.56,8.65-15.95,16.49-23.72,24.92,0,0-.3-.22-.3-.22,3-4.94,6.69-9.42,10.29-13.87,10.49-12.96,22.38-26.77,32.9-39.58,10.44-12.84,21.52-27.47,31.58-40.72,0,0,10.29-13.77,10.29-13.77,0,0,.3,.21,.3,.21h0Z"/>
      <path class="cls-2" d="M833.25,771.28c-19.25,28.22-39.12,57.11-61.34,83.03-7.56,8.65-15.95,16.49-23.72,24.92,0,0-.3-.22-.3-.22,3-4.94,6.69-9.42,10.29-13.87,10.49-12.96,22.38-26.77,32.9-39.58,10.44-12.84,21.52-27.47,31.58-40.72,0,0,10.29-13.77,10.29-13.77,0,0,.3,.21,.3,.21h0Z"/>
      <path class="cls-2" d="M62.88,1150.97c-19.25,28.22-39.12,57.11-61.34,83.03-7.56,8.65-15.95,16.49-23.72,24.92,0,0-.3-.22-.3-.22,3-4.94,6.69-9.42,10.29-13.87,10.49-12.96,22.38-26.77,32.9-39.58,10.44-12.84,21.52-27.47,31.58-40.72,0,0,10.29-13.77,10.29-13.77,0,0,.3,.21,.3,.21h0Z"/>
      <path class="cls-2" d="M290.26,515.3c-35.37,50.96-71.96,101.37-113.04,147.93-2.77,3.08-5.47,6.21-8.17,9.34,0,0-.3-.22-.3-.22,18.83-27.27,40.23-52.57,60.92-78.41,20.61-25.89,40.73-52.16,60.28-78.86,0,0,.3,.21,.3,.21h0Z"/>
      <path class="cls-2" d="M90.95,734.07c-19.25,28.22-39.12,57.11-61.34,83.03-7.56,8.65-15.95,16.49-23.72,24.92,0,0-.3-.22-.3-.22,3-4.94,6.69-9.42,10.29-13.87,10.49-12.96,22.38-26.77,32.9-39.58,10.44-12.84,21.52-27.47,31.58-40.72,0,0,10.29-13.77,10.29-13.77,0,0,.3,.21,.3,.21h0Z"/>
      <path class="cls-2" d="M189.85,297.73c-35.05,50.56-72.54,99.73-114.65,144.66-2.83,2.98-5.57,6.01-8.28,9.1,0,0-.3-.22-.3-.22,6.98-10.21,14.96-19.59,22.72-29.18,12.85-15.83,26.56-31.42,39.61-47.04,20.96-25.24,41.19-51.08,60.6-77.53,0,0,.3,.21,.3,.21h0Z"/>
      <path class="cls-2" d="M66.69,363.97c-19.25,28.22-39.12,57.11-61.34,83.03-7.56,8.65-15.95,16.49-23.72,24.92,0,0-.3-.22-.3-.22,3-4.94,6.69-9.42,10.29-13.87,10.49-12.96,22.38-26.77,32.9-39.58,10.44-12.84,21.52-27.47,31.58-40.72,0,0,10.29-13.77,10.29-13.77,0,0,.3,.21,.3,.21h0Z"/>
      <path class="cls-2" d="M115.95,461.29c-19.25,28.22-39.12,57.11-61.34,83.03-7.56,8.65-15.95,16.49-23.72,24.92,0,0-.3-.22-.3-.22,3-4.94,6.69-9.42,10.29-13.87,10.49-12.96,22.38-26.77,32.9-39.58,10.44-12.84,21.52-27.47,31.58-40.72,0,0,10.29-13.77,10.29-13.77,0,0,.3,.21,.3,.21h0Z"/>
      <path class="cls-2" d="M177.22,400.01c-19.25,28.22-39.12,57.11-61.34,83.03-7.56,8.65-15.95,16.49-23.72,24.92,0,0-.3-.22-.3-.22,3-4.94,6.69-9.42,10.29-13.87,10.49-12.96,22.38-26.77,32.9-39.58,10.44-12.84,21.52-27.47,31.58-40.72,0,0,10.29-13.77,10.29-13.77,0,0,.3,.21,.3,.21h0Z"/>
      <path class="cls-2" d="M133.31,78.87c-9.63,13.89-20.53,28.7-31.01,41.96C69.59,161.4,35.24,201.2-4.57,235.02c0,0-.25-.27-.25-.27,40.71-43.61,85.59-88.31,122.06-135.35,4.71-5.83,11.22-14.7,15.77-20.75,0,0,.3,.21,.3,.21h0Z"/>
      <path class="cls-2" d="M829.99,119.92c-22.57,32.4-48.67,62.19-75.8,90.82-27.11,28.69-55.65,56.11-86.67,80.57,0,0-.24-.28-.24-.28,20.32-19.7,54.47-52.59,74.31-71.94,31.58-30.77,61.79-64.9,88.4-99.17h0Z"/>
      <path class="cls-2" d="M129.7,236.27c-9.63,13.89-20.53,28.7-31.01,41.96-32.71,40.58-67.05,80.37-106.87,114.2,0,0-.25-.27-.25-.27,40.71-43.61,85.59-88.31,122.06-135.35,4.71-5.83,11.22-14.7,15.77-20.75,0,0,.3,.21,.3,.21h0Z"/>
      <path class="cls-2" d="M128.5,116.11c-19.25,28.22-39.12,57.11-61.34,83.03-7.56,8.65-15.95,16.49-23.72,24.92,0,0-.3-.22-.3-.22,3-4.94,6.69-9.42,10.29-13.87,10.49-12.96,22.38-26.77,32.9-39.58,10.44-12.84,21.52-27.47,31.58-40.72,0,0,10.29-13.77,10.29-13.77,0,0,.3,.21,.3,.21h0Z"/>
      <path class="cls-2" d="M60.07,71.57C40.83,99.79,20.96,128.69-1.27,154.61c-7.56,8.65-15.95,16.49-23.72,24.92,0,0-.3-.22-.3-.22,3-4.94,6.69-9.42,10.29-13.87,10.49-12.96,22.38-26.77,32.9-39.58,10.44-12.84,21.52-27.47,31.58-40.72,0,0,10.29-13.77,10.29-13.77,0,0,.3,.21,.3,.21h0Z"/>
      <path class="cls-2" d="M255.32,372.38c-19.25,28.22-39.12,57.11-61.34,83.03-7.56,8.65-15.95,16.49-23.72,24.92,0,0-.3-.22-.3-.22,3-4.94,6.69-9.42,10.29-13.87,10.49-12.96,22.38-26.77,32.9-39.58,10.44-12.84,21.52-27.47,31.58-40.72,0,0,10.29-13.77,10.29-13.77l.3,.21h0Z"/>
      <path class="cls-2" d="M74.89,1026.64c-19.25,28.22-39.12,57.11-61.34,83.03-7.56,8.65-15.95,16.49-23.72,24.92,0,0-.3-.22-.3-.22,3-4.94,6.69-9.42,10.29-13.87,10.49-12.96,22.38-26.77,32.9-39.58,10.44-12.84,21.52-27.47,31.58-40.72,0,0,10.29-13.77,10.29-13.77l.3,.21h0Z"/>
      <path class="cls-2" d="M964.5,1075.28c-19.25,28.22-39.12,57.11-61.34,83.03-7.56,8.65-15.95,16.49-23.72,24.92,0,0-.3-.22-.3-.22,3-4.94,6.69-9.42,10.29-13.87,10.49-12.96,22.38-26.77,32.9-39.58,10.44-12.84,21.52-27.47,31.58-40.72,0,0,10.29-13.77,10.29-13.77l.3,.21h0Z"/>
      <path class="cls-2" d="M934.69,1150.59c-19.25,28.22-39.12,57.11-61.34,83.03-7.56,8.65-15.95,16.49-23.72,24.92,0,0-.3-.22-.3-.22,3-4.94,6.69-9.42,10.29-13.87,10.49-12.96,22.38-26.77,32.9-39.58,10.44-12.84,21.52-27.47,31.58-40.72,0,0,10.29-13.77,10.29-13.77,0,0,.3,.21,.3,.21h0Z"/>
      <path class="cls-2" d="M628,291.72c-12.26,12.43-37.02,37.26-49.4,49.56-16.35,16.66-33.05,32.98-51.21,47.69,0,0-.26-.27-.26-.27,3.82-4.44,7.78-8.73,11.8-12.96,11.94-12.81,24.74-24.73,37.6-36.6,12.69-11.94,38.4-35.88,51.21-47.69,0,0,.26,.27,.26,.27h0Z"/>
      <path class="cls-2" d="M313.28,1087.94c-45.71,53.88-93.36,114.34-141.88,165.4,0,0-.28-.24-.28-.24,22.09-28.87,45.83-56.38,69.95-83.55,17.84-20.44,53.95-61.53,71.93-81.85,0,0,.28,.24,.28,.24h0Z"/>
      <path class="cls-2" d="M405.34,1012.61c-26.29,37.45-56.52,71.94-87.26,105.76-26.71,29.67-54.8,58.46-84.12,85.6-4.23,3.84-8.42,7.74-12.73,11.5,0,0-.26-.27-.26-.27l11.8-12.44c58.78-61.68,121.3-122.78,172.57-190.15h0Z"/>
      <path class="cls-2" d="M423.01,1065.17c-12.26,12.43-37.02,37.26-49.4,49.56-16.35,16.66-33.05,32.98-51.21,47.69,0,0-.26-.27-.26-.27,3.82-4.44,7.78-8.73,11.8-12.96,11.94-12.81,24.74-24.73,37.6-36.6,12.69-11.94,38.4-35.88,51.21-47.69,0,0,.26,.27,.26,.27h0Z"/>
      <path class="cls-2" d="M390.66,90.66c-44.6,44.13-88.56,93.21-135.22,135.14,0,0-.27-.26-.27-.26,5.24-6.02,10.58-11.94,16.02-17.77,16.17-17.62,33.25-34.34,50.42-50.97,20.09-19.63,48.55-47.46,68.78-66.4,0,0,.26,.27,.26,.27h0Z"/>
      <path class="cls-2" d="M67.36,262.43c-12.26,12.43-37.02,37.26-49.4,49.56-16.35,16.66-33.05,32.98-51.21,47.69,0,0-.26-.27-.26-.27,3.82-4.44,7.78-8.73,11.8-12.96,11.94-12.81,24.74-24.73,37.6-36.6,12.69-11.94,38.4-35.88,51.21-47.69,0,0,.26,.27,.26,.27h0Z"/>
      <path class="cls-2" d="M297.47,268.71c-12.26,12.43-37.02,37.26-49.4,49.56-16.35,16.66-33.05,32.98-51.21,47.69,0,0-.26-.27-.26-.27,3.82-4.44,7.78-8.73,11.8-12.96,11.94-12.81,24.74-24.73,37.6-36.6,12.69-11.94,38.4-35.88,51.21-47.69,0,0,.26,.27,.26,.27h0Z"/>
      <path class="cls-2" d="M902.17,1111.08c-9.63,13.89-20.53,28.7-31.01,41.96-32.71,40.58-67.05,80.37-106.87,114.2,0,0-.25-.27-.25-.27,40.71-43.61,85.59-88.31,122.06-135.35,4.71-5.83,11.22-14.7,15.77-20.75,0,0,.3,.21,.3,.21h0Z"/>
      <path class="cls-2" d="M803.43,1256.33c-19.25,28.22-39.12,57.11-61.34,83.03-7.56,8.65-15.95,16.49-23.72,24.92,0,0-.3-.22-.3-.22,3-4.94,6.69-9.42,10.29-13.87,10.49-12.96,22.38-26.77,32.9-39.58,10.44-12.84,21.52-27.47,31.58-40.72,0,0,10.29-13.77,10.29-13.77l.3,.21h0Z"/>
      <path class="cls-2" d="M845.58,1152.65c-12.26,12.43-37.02,37.26-49.4,49.56-16.35,16.66-33.05,32.98-51.21,47.69,0,0-.26-.27-.26-.27,3.82-4.44,7.78-8.73,11.8-12.96,11.94-12.81,24.74-24.73,37.6-36.6,12.69-11.94,38.4-35.88,51.21-47.69,0,0,.26,.27,.26,.27h0Z"/>
      <path class="cls-2" d="M461.8,470.85c-12.33,16.8-26.48,32.17-40.69,47.38-13.93,15.16-29.14,30.28-45.41,42.87,0,0-.25-.27-.25-.27,13.67-15.76,28.56-30.2,43.53-44.67,14.7-14.67,29.32-29.48,42.53-45.53,0,0,.3,.23,.3,.23h0Z"/>
      <path class="cls-2" d="M820.39,914.22c-13.56,15.64-40.94,46.94-54.63,62.46-18.08,20.95-36.54,41.57-56.56,60.72,0,0-.28-.25-.28-.25,4.26-5.47,8.61-10.85,13.06-16.15,13.22-16.01,27.36-31.19,41.56-46.31,14.02-15.18,42.41-45.66,56.56-60.72,0,0,.28,.25,.28,.25h0Z"/>
      <path class="cls-2" d="M896.92,843.38c-9.63,13.89-20.53,28.7-31.01,41.96-32.71,40.58-67.05,80.37-106.87,114.2,0,0-.25-.27-.25-.27,40.71-43.61,85.59-88.31,122.06-135.35,4.71-5.83,11.22-14.7,15.77-20.75,0,0,.3,.21,.3,.21h0Z"/>
      <path class="cls-2" d="M711.81,1086.38c-9.63,13.89-20.53,28.7-31.01,41.96-32.71,40.58-67.05,80.37-106.87,114.2,0,0-.25-.27-.25-.27,40.71-43.61,85.59-88.31,122.06-135.35,4.71-5.83,11.22-14.7,15.77-20.75,0,0,.3,.21,.3,.21h0Z"/>
      <path class="cls-2" d="M664.95,1120.03c-9.63,13.89-20.53,28.7-31.01,41.96-32.71,40.58-67.05,80.37-106.87,114.2,0,0-.25-.27-.25-.27,40.71-43.61,85.59-88.31,122.06-135.35,4.71-5.83,11.22-14.7,15.77-20.75,0,0,.3,.21,.3,.21h0Z"/>
      <path class="cls-2" d="M561.62,1176.5c-9.63,13.89-20.53,28.7-31.01,41.96-32.71,40.58-67.05,80.37-106.87,114.2,0,0-.25-.27-.25-.27,40.71-43.61,85.59-88.31,122.06-135.35,4.71-5.83,11.22-14.7,15.77-20.75,0,0,.3,.21,.3,.21h0Z"/>
      <path class="cls-2" d="M667.35,1041.92c-19.25,28.22-39.12,57.11-61.34,83.03-7.56,8.65-15.95,16.49-23.72,24.92,0,0-.3-.22-.3-.22,3-4.94,6.69-9.42,10.29-13.87,10.49-12.96,22.38-26.77,32.9-39.58,10.44-12.84,21.52-27.47,31.58-40.72,0,0,10.29-13.77,10.29-13.77,0,0,.3,.21,.3,.21h0Z"/>
      <path class="cls-2" d="M590.45,1098.4c-19.25,28.22-39.12,57.11-61.34,83.03-7.56,8.65-15.95,16.49-23.72,24.92,0,0-.3-.22-.3-.22,3-4.94,6.69-9.42,10.29-13.87,10.49-12.96,22.38-26.77,32.9-39.58,10.44-12.84,21.52-27.47,31.58-40.72,0,0,10.29-13.77,10.29-13.77,0,0,.3,.21,.3,.21h0Z"/>
      <path class="cls-2" d="M577.6,1241.34c-13.56,15.64-40.94,46.94-54.63,62.46-18.08,20.95-36.54,41.57-56.56,60.72,0,0-.28-.25-.28-.25,4.26-5.47,8.61-10.85,13.06-16.15,13.22-16.01,27.36-31.19,41.56-46.31,14.02-15.18,42.41-45.66,56.56-60.72,0,0,.28,.25,.28,.25h0Z"/>
      <path class="cls-2" d="M654.13,1170.49c-9.63,13.89-20.53,28.7-31.01,41.96-32.71,40.58-67.05,80.37-106.87,114.2,0,0-.25-.27-.25-.27,40.71-43.61,85.59-88.31,122.06-135.35,4.71-5.83,11.22-14.7,15.77-20.75,0,0,.3,.21,.3,.21h0Z"/>
      <path class="cls-2" d="M970.14,954.25c-9.63,13.89-20.53,28.7-31.01,41.96-32.71,40.58-67.05,80.37-106.87,114.2,0,0-.25-.27-.25-.27,40.71-43.61,85.59-88.31,122.06-135.35,4.71-5.83,11.22-14.7,15.77-20.75,0,0,.3,.21,.3,.21h0Z"/>
      <path class="cls-2" d="M959.41,881.64c-9.63,13.89-20.53,28.7-31.01,41.96-32.71,40.58-67.05,80.37-106.87,114.2,0,0-.25-.27-.25-.27,40.71-43.61,85.59-88.31,122.06-135.35,4.71-5.83,11.22-14.7,15.77-20.75,0,0,.3,.21,.3,.21h0Z"/>
      <path class="cls-2" d="M900.83,975.78c-13.68,18.92-28.9,36.87-44.76,54-15.7,17.29-32.51,33.87-51.28,47.85,0,0-.24-.28-.24-.28,16.05-17.02,32.78-33.18,49.38-49.62,8.22-8.28,16.16-16.82,23.97-25.48,7.84-8.64,15.32-17.6,22.65-26.69,0,0,.3,.22,.3,.22h0Z"/>
      <path class="cls-2" d="M759.8,1147.34c-13.68,18.92-28.9,36.87-44.76,54-15.7,17.29-32.51,33.87-51.28,47.85,0,0-.24-.28-.24-.28,16.05-17.02,32.78-33.18,49.38-49.62,8.22-8.28,16.16-16.82,23.97-25.48,7.84-8.64,15.32-17.6,22.65-26.69,0,0,.3,.22,.3,.22h0Z"/>
      <path class="cls-2" d="M209.66,908.08c-9.63,13.89-20.54,28.7-31.01,41.96-32.71,40.58-67.05,80.37-106.87,114.2,0,0-.25-.27-.25-.27,40.71-43.61,85.59-88.31,122.06-135.35,4.71-5.83,11.22-14.7,15.77-20.75,0,0,.3,.21,.3,.21h0Z"/>
      <path class="cls-2" d="M151.08,1002.22c-13.68,18.92-28.89,36.87-44.77,54-15.7,17.29-32.51,33.87-51.28,47.85,0,0-.24-.28-.24-.28,16.05-17.02,32.78-33.18,49.38-49.62,8.22-8.28,16.16-16.82,23.97-25.48,7.84-8.64,15.32-17.6,22.65-26.69,0,0,.3,.22,.3,.22h0Z"/>
      <path class="cls-2" d="M975.32,995.01c-13.68,18.92-28.89,36.88-44.77,54-15.7,17.29-32.51,33.87-51.28,47.85,0,0-.24-.28-.24-.28,16.05-17.02,32.78-33.18,49.38-49.62,8.22-8.28,16.16-16.82,23.97-25.48,7.84-8.64,15.32-17.6,22.65-26.69,0,0,.3,.22,.3,.22h0Z"/>
      <path class="cls-2" d="M960.82,849.22c-12.26,12.43-37.02,37.26-49.4,49.56-16.35,16.66-33.05,32.98-51.21,47.69,0,0-.26-.27-.26-.27,3.82-4.44,7.78-8.73,11.8-12.96,11.94-12.81,24.74-24.73,37.6-36.6,12.69-11.94,38.4-35.88,51.21-47.69,0,0,.26,.27,.26,.27h0Z"/>
      <path class="cls-2" d="M794.62,1028.35c-12.33,16.8-26.48,32.17-40.69,47.38-13.93,15.16-29.14,30.28-45.41,42.87,0,0-.25-.27-.25-.27,13.67-15.76,28.56-30.2,43.53-44.67,14.7-14.67,29.32-29.48,42.53-45.53,0,0,.3,.23,.3,.23h0Z"/>
      <path class="cls-2" d="M153.55,689.53c-13.56,15.64-40.94,46.94-54.63,62.46-18.08,20.95-36.54,41.57-56.56,60.72,0,0-.28-.25-.28-.25,4.26-5.47,8.61-10.85,13.07-16.15,13.22-16.01,27.36-31.19,41.56-46.31,14.02-15.18,42.41-45.66,56.56-60.72,0,0,.28,.25,.28,.25h0Z"/>
      <path class="cls-2" d="M230.08,618.69c-9.63,13.89-20.54,28.7-31.01,41.96-32.71,40.58-67.05,80.37-106.87,114.2,0,0-.25-.27-.25-.27,40.71-43.61,85.59-88.31,122.06-135.35,4.71-5.83,11.22-14.7,15.77-20.75,0,0,.3,.21,.3,.21h0Z"/>
      <path class="cls-2" d="M303.3,729.57c-9.63,13.89-20.54,28.7-31.01,41.96-32.71,40.58-67.05,80.37-106.87,114.2,0,0-.25-.27-.25-.27,40.71-43.61,85.59-88.31,122.06-135.35,4.71-5.83,11.22-14.7,15.77-20.75,0,0,.3,.21,.3,.21h0Z"/>
      <path class="cls-2" d="M464.38,595.68c-9.63,13.89-20.53,28.7-31.01,41.96-32.71,40.58-67.05,80.37-106.87,114.2,0,0-.25-.27-.25-.27,40.71-43.61,85.59-88.31,122.06-135.35,4.71-5.83,11.22-14.7,15.77-20.75,0,0,.3,.21,.3,.21h0Z"/>
      <path class="cls-2" d="M535.62,781.77c-9.63,13.89-20.53,28.7-31.01,41.96-32.71,40.58-67.05,80.37-106.87,114.2,0,0-.25-.27-.25-.27,40.71-43.61,85.59-88.31,122.06-135.35,4.71-5.83,11.22-14.7,15.77-20.75,0,0,.3,.21,.3,.21h0Z"/>
      <path class="cls-2" d="M405.8,689.82c-13.68,18.92-28.9,36.87-44.76,54-15.7,17.29-32.51,33.87-51.28,47.85,0,0-.24-.28-.24-.28,16.05-17.02,32.78-33.18,49.38-49.62,8.22-8.28,16.16-16.82,23.97-25.48,7.84-8.64,15.32-17.6,22.65-26.69,0,0,.3,.22,.3,.22h0Z"/>
      <path class="cls-2" d="M457.47,700.64c-13.68,18.92-28.89,36.87-44.77,54-15.7,17.29-32.51,33.87-51.28,47.85,0,0-.25-.28-.25-.28,16.05-17.02,32.78-33.18,49.38-49.62,8.22-8.28,16.16-16.82,23.97-25.48,7.84-8.64,15.32-17.6,22.65-26.69,0,0,.3,.22,.3,.22h0Z"/>
      <path class="cls-2" d="M414.21,781.14c-13.68,18.92-28.89,36.88-44.77,54-15.7,17.29-32.51,33.87-51.28,47.85,0,0-.24-.28-.24-.28,16.05-17.02,32.78-33.18,49.38-49.62,8.22-8.28,16.16-16.82,23.97-25.48,7.84-8.64,15.32-17.6,22.65-26.69,0,0,.3,.22,.3,.22h0Z"/>
      <path class="cls-2" d="M225.57,844.82c-13.68,18.92-28.89,36.87-44.77,54-15.7,17.29-32.51,33.87-51.28,47.85,0,0-.24-.28-.24-.28,16.05-17.02,32.78-33.18,49.38-49.62,8.22-8.28,16.16-16.82,23.97-25.48,7.84-8.64,15.32-17.6,22.65-26.69,0,0,.3,.22,.3,.22h0Z"/>
      <path class="cls-2" d="M308.48,770.33c-13.68,18.92-28.89,36.87-44.77,54-15.7,17.29-32.51,33.87-51.28,47.85,0,0-.24-.28-.24-.28,16.05-17.02,32.78-33.18,49.38-49.62,8.22-8.28,16.16-16.82,23.97-25.48,7.84-8.64,15.32-17.6,22.65-26.69,0,0,.3,.22,.3,.22h0Z"/>
      <path class="cls-2" d="M349.32,817.43c-9.63,13.89-20.53,28.7-31.01,41.96-32.71,40.58-67.05,80.37-106.87,114.2,0,0-.25-.27-.25-.27,40.71-43.61,85.59-88.31,122.06-135.35,4.71-5.83,11.22-14.7,15.77-20.75,0,0,.3,.21,.3,.21h0Z"/>
      <path class="cls-2" d="M293.98,624.54c-12.26,12.43-37.02,37.26-49.4,49.56-16.35,16.66-33.05,32.98-51.21,47.69,0,0-.26-.27-.26-.27,3.82-4.44,7.78-8.73,11.8-12.96,11.94-12.81,24.74-24.73,37.6-36.6,12.69-11.94,38.4-35.88,51.21-47.69,0,0,.26,.27,.26,.27h0Z"/>
      <path class="cls-2" d="M127.78,803.67c-12.33,16.8-26.48,32.17-40.69,47.38-13.93,15.16-29.14,30.28-45.41,42.87,0,0-.25-.27-.25-.27,13.67-15.76,28.56-30.2,43.53-44.67,14.7-14.67,29.32-29.48,42.53-45.53,0,0,.3,.23,.3,.23h0Z"/>
    </g>
  </g>
</svg>