<?xml version="1.0" encoding="UTF-8"?><svg xmlns="http://www.w3.org/2000/svg" viewBox="0 0 310 650"><defs><style>.cls-1{fill:#649899;}.cls-2{fill:#66989a;}.cls-3{fill:#31747c;}.cls-4{fill:#528f94;}.cls-5{fill:#4c868b;}.cls-6{fill:#317179;}.cls-7{fill:#79b1b1;}.cls-8{fill:#618988;}.cls-9{fill:#6fa2a2;}.cls-10{fill:#80b6b5;}.cls-11{fill:#337077;}.cls-12{fill:#496968;}.cls-13{fill:#7cb4b4;}.cls-14{fill:#638a8a;}.cls-15{fill:#568587;}.cls-16{fill:#32747c;}.cls-17{fill:#659899;}.cls-18{fill:#5c9295;}.cls-19{fill:#6ba0a1;}.cls-20{fill:#405f60;}.cls-21{fill:#6c9d9d;}.cls-22{fill:#4d6f6f;}.cls-23{fill:#598080;}.cls-24{fill:#405c5b;}.cls-25{fill:#537878;}.cls-26{fill:#4f7272;}.cls-27{fill:#32757e;}.cls-28{fill:#5d9395;}.cls-29{fill:#6a9494;}.cls-30{fill:#48878d;}.cls-31{fill:#6e9e9e;}.cls-32{fill:#527979;}.cls-33{fill:#466565;}.cls-34{fill:#639697;}.cls-35{fill:#2b666e;}.cls-36{fill:#5d8281;}.cls-37{fill:#2d6971;}.cls-38{fill:#31767f;}.cls-39{fill:#6ab1b5;}.cls-40{fill:#537777;}.cls-41{fill:#7fb4b3;}.cls-42{fill:#32757d;}.cls-43{fill:#7aacac;}.cls-44{fill:#80b7b6;}.cls-45{fill:#588c8f;}.cls-46{fill:#608f90;}.cls-47{fill:#80bab9;}.cls-48{fill:#78b1b2;}.cls-49{fill:#658e8d;}.cls-50{fill:#68a1a3;}.cls-51{fill:#2f6b73;}.cls-52{fill:#587f7f;}.cls-53{fill:#486968;}.cls-54{fill:#649da0;}.cls-55{fill:#628988;}.cls-56{fill:#679d9f;}.cls-57{fill:#639698;}.cls-58{fill:#70a4a4;}.cls-59{fill:#71a09f;}.cls-60{fill:#599093;}.cls-61{fill:#82bfbe;}.cls-62{fill:#628989;}.cls-63{fill:#4a6b6a;}.cls-64{fill:#6b9695;}.cls-65{fill:#214b4d;}.cls-66{fill:#5f8584;}.cls-67{fill:#396365;}.cls-68{fill:#4e7171;}.cls-69{fill:#638f8f;}.cls-70{fill:#32777f;}.cls-71{fill:#598c8e;}.cls-72{fill:#6ca1a2;}</style></defs><g id="Ebene_2"><rect class="cls-65" x="-1.63" y="-1.12" width="315" height="653.5"/><rect class="cls-39" x="9.62" y="12.25" width="290.25" height="630"/><path d="M60.95,324.84c-.24-.03-.48-.07-.72-.1,1.47-.88,3.06-1.46,4.76-1.73,.34,.15,.63,.33,.54,.78-1.46,.62-2.78,1.88-4.58,1.05Z"/><g><g><path d="M240.43,642.44c-2.17-.16-2.19-.06-2.59-2.25-1.54-8.41-3.08-16.82-4.62-25.23q-.43-1.83-1.27-1.67c-.81,1.42-.8,2.99-.64,4.52,.22,2.15,.39,4.3,.64,6.45,.56,4.75,.98,9.51,1.17,14.29,.09,2.28-.34,2.62-2.66,2.72-1.71,.08-3.37-.48-5.07-.42-9.65,.3-19.28-.91-28.93-.39-.87,.05-1.7-.05-2.38-.69-.72-.67-.96-1.53-1.07-2.48-.53-4.67-1.66-9.23-2.43-13.85-.16-.95-.49-1.79-1.52-2.11-.65,.03-.93,.52-1.21,1-.69,4.26,.15,8.47,.54,12.67,.42,4.43,3.53,9.12,3.53,9.12,.1,0,.21,0,.31,.01,7.41,.36,53.5-1.27,48.19-1.66Z"/><path d="M150.9,634.03c-1.69-8.55-.63-16.92-.58-25.56,0-1.5,.45-2.89,1.1-4.22,2.86-5.85,3.35-12.32,4.82-18.53,.12-.51,.12-1.08-.07-1.6-.31-.62-.52-1.34-1.38-1.44-1.38,.18-1.62,1.34-1.89,2.35-1.3,5-3.29,9.81-4.15,14.94-.33,1.98-1.07,3.86-1.91,5.69-.95,2.05-1.76,4.08-.78,6.43,.44,1.05,.05,2.28,.01,3.44-.18,5.15-1.27,10.28-.2,15.44,.36,1.74,.53,3.51,.76,5.27,.22,1.68-.5,2.67-2.3,2.7-2.01,.03-4.02,.08-6.02-.03-10.01-.57-20.04-.64-30.06-.81-.92-.02-1.87,.16-2.59-.64-.69-2.24-1.03-4.54-.83-6.86,.43-4.95-.15-9.88-.26-14.81-.06-2.59,.19-5.33-.83-7.8-1.15-2.78-.88-5.78-1.57-8.62-.16-.68-.07-1.44,.31-2.03,1-1.54,.74-3.08,.18-4.67-.33-.95-.45-1.96-.67-2.93-1.68-7.4-.29-14.98-1.37-22.42-.53-3.68-.05-7.39-.25-11.08-.23-4.47-1.05-8.94-1.04-13.39,.02-9.9-.49-19.78-.61-29.68-.06-5.19,.45-10.34,.54-15.52,.12-6.88,.95-13.71,1.68-20.54,.64-6,2.56-11.78,3.02-17.81,.06-.82,.51-1.44,.89-2.11,.27-.73,.32-1.51,.54-2.25,.96-3.33,1.58-3.56,4.74-2.19,3.76,1.63,7.66,2.87,11.71,3.62,4.56,.85,9.14,1.53,13.74,2.12,7.57,.97,15.07,2.6,22.77,2.55,5.57-.04,11.14-.3,16.69,.12,5.88,.44,11.71,.55,17.54-.45,12.37-2.12,24.38-5.61,36.26-9.6,1.99-.67,2.46-.43,2.93,1.57,.14,.6,.24,1.21,.37,1.82,1.83,8.7,2.62,17.56,4,26.33,.68,4.32,1.57,8.69,.93,13.13,.01,.99,.36,1.9,.62,2.83,.81,3.46,.14,6.85-.29,10.3-.96,7.66-.61,15.4-.99,23.1-.33,6.71-.99,13.37-1.74,20.03-.94,8.42-2.55,16.79-2.05,25.33,.12,2.08,.32,4.16-.15,6.23-.16,1.65,.88,3.37-.25,4.97,.05,2.93-1.49,5.28-2.82,7.71-2.11,3.86-4.88,6.72-9.75,6.54-1.3-.05-2.61,.04-3.93,0-.89-.03-2.02-.22-2.25,1.04-.19,1.05,.51,1.79,1.43,2.14,5.19,1.96,10.01,1.59,14.14-2.9,2.71-2.95,4.54-6.39,4.95-10.47,.09-.21,.15-.45,.27-.64,1.73-2.68,2.51-5.56,2.25-8.79-.61-7.66,.65-15.24,1.17-22.85,.41-5.99,1.37-11.95,1.99-17.93,.81-7.83,1.26-15.69,1.17-23.57-.07-5.87-.05-11.75-.23-17.61-.19-6.01-.57-12.01-.88-18.02-.1-1.92-.21-3.85-.38-5.77-.4-4.7-2.04-9.16-2.43-13.89-.36-4.3-1.39-8.52-2.59-12.68-.33-1.14-.02-1.68,.92-2.22,1-.58,1.93-1.26,2.72-2.14,.92-1.02,1.08-1.98,.57-3.36-1.21-3.26-2.95-6.28-4.11-9.55-1.03-2.9-2.31-5.72-2.03-8.94,.82-9.41,.31-18.83,.15-28.25-.02-1.26-.03-2.63-.65-3.84-1.81-.52-1.69,1.07-2.17,2,.37,2.49-.33,4.92-.32,7.39,.01,4.62-.04,9.24-.4,13.85-.68,8.96,.18,17.6,5.23,25.39,1.19,1.83,.88,3.05-1.09,4.23-1.58,.94-3.2,1.84-4.94,2.53-7.27,2.89-14.85,4.8-22.37,6.89-7.66,2.13-15.39,4.01-23.45,4.01-14.99,0-29.96-.14-44.83-2.34-10.15-1.51-20.47-2.2-29.78-7.17-.86-.46-1.76-.58-2.66-.09-1.48-.1-2.46-1.23-3.72-1.79q-3.59-1.58-2.3-5.31c.94-2.72,1.4-5.46,1.42-8.39,.04-5.19-.94-10.3-.94-15.48,0-6.88-.25-13.75,.82-20.6,.8-5.09,1.54-10.18,3.23-15.16-2.11,.45-2.16,.43-2.75,2.08-2.35,6.53-3.19,13.35-3.64,20.2-.25,3.77-.13,7.57-.04,11.35,.08,3.31,.08,6.65,.66,9.93,.31,1.74,.61,3.45,.4,5.24-.13,1.06-.2,2.21,.06,3.23,.5,1.91,0,3.67-.45,5.46-.39,1.57-.77,3.15-1.32,4.66-.32,.86-.18,1.49,.33,2.13,.72,.92,1.51,1.75,2.63,2.22,1.14,.48,2.25,1.03,3.4,1.48,.83,.32,.85,.67,.63,1.55-1.51,5.81-3.29,11.53-4.04,17.55-.84,6.73-1.9,13.42-2.24,20.2-.13,2.62-.33,5.23-.55,7.84-.22,2.68-.74,5.36-.72,8.04,.07,11.51-.36,23.03,.24,34.54,.23,4.47,.21,8.95,.44,13.42,.26,5.24,.19,10.49,.5,15.74,.27,4.62,.33,9.26,.52,13.88,.08,1.93,.04,3.87,.56,5.76,.72,2.6,.63,5.38,1.67,7.92,.14,.33,.09,.77,.03,1.14-.66,3.78-.23,7.55,.22,11.3,.65,5.38,.92,10.8,.58,16.19-.29,4.56-.34,9.1-.2,13.65,.02,.52,.66,4.01,.12,4.5-1.7-.37-5.02,1.11-6.79,1.09-4.72-.06,3.3-1,10.57-.65,8.03,.38,16.07,.1,24.11,.49,7.72,.37,11.65,.08,19.38,.44,4.07,.19,3.95-4.39,2.99-9.24Z"/></g><path class="cls-67" d="M233.21,587.12c0,2.22-.78,4.16-1.85,6.1-1.43,2.59-2.82,5.12-5.27,6.93-1.47,1.09-2.99,1.81-4.87,1.87-2.43,.08-4.85,.24-7.2-.21-.2,.68,.11,.9,.35,.99,3.3,1.21,6.52,2,10.07,.5,3.52-1.48,5.19-4.44,6.97-7.38,.99-1.64,1.74-3.42,2.59-5.13,.01,1.43,.39,2.8,.63,4.2,.46,.94-.03,1.8-.23,2.69-.91,4.11-1.06,8.38-2.53,12.39-.21,.57-.28,1.19-.65,1.7-2.29,3.14-5.01,5.86-8.15,8.15-2.42,1.77-4.84,1.77-7.62,.64-4.21-1.71-8.32-3.65-11.58-5.06,1.98,.61,4.63,2.17,7.36,3.52,2.09,1.04,4.32,1.65,6.54,2.32,1.31,.39,2.54,.16,3.78-.52,3.38-1.87,5.95-4.63,8.47-7.45,.41-.46,.69-1.07,1.34-1.23,.84-.21,1.47-.13,1.03,1-.46,3.26,.17,6.47,.52,9.68,.54,4.83,.87,9.67,1.29,14.5,.11,1.23,.25,2.45,.41,3.67,.11,.89-.25,1.29-1.15,1.29-1.54-.01-3.11,.17-4.63-.03-3.46-.44-6.94-.31-10.4-.35-7.94-.11-15.87-.76-23.82-.45-.7,.03-1.57,.39-2.09-.49,1.32-1.17,1.54-2.68,1.62-4.38,.58-12.32-1.85-24.25-4.59-36.14-2.51-10.9-4.52-21.9-7.16-32.77-.43-1.79-.66-3.63-1.33-5.35-.39-.67,.38-1.85-.93-2.13-.92-2.8-.93-5.8-1.82-8.61-.09-.48-.09-.97-.14-1.45-.44-2.06-.8-4.13-1.21-6.19-.07-.91,.48-1.88-.28-2.73-.12-.18-.2-.38-.26-.59-.2-.74-.27-1.51-.49-2.25-.07-.69-.28-1.35-.45-2.02-.22-1.2-.43-2.41-.45-3.63,.18-4.09-.84-8.03-1.41-12.03-.5-4.8-1.18-9.6-.99-14.45,.04-.97-.31-1.8-.98-2.49-.98-2.77-.7-3.23,2-4.23,4.09-1.51,8.27-2.31,12.65-2.11,2.49,.11,4.88-.47,7.18-1.42-2.22,.68-4.47,1.39-6.8,1.16-5.17-.51-9.83,1.42-14.63,2.77-1.27,.36-1.26,1.93-2.4,2.38-.62,.23-1.23,.21-1.83-.07-2.39-5.57-8.58-6.14-12.12-9.2,2.12,1.29,4.52,3.23,7.02,5.01,3.05,2.16,3.83,5.03,3.17,8.32-.86,4.27-.36,8.64-1.2,12.87-.47,2.38-.15,4.76-.58,7.11-.45,.95-.98,1.88-1.06,2.97-.49,2.68-1.5,5.31-.88,8.11-1.75,9.29-3.79,18.53-5,27.91-.63,4.89-.67,9.81-1.24,14.7-.13,1.09-.31,2.14-1.2,2.9-1.51,5.58-3.73,10.96-4.7,16.69-.48,2.86-1.67,5.46-2.83,8.07-.55,1.25-.97,2.34-.07,3.68,.72,1.07,.23,2.43,.1,3.63-.76,6.62-1.04,13.21,.31,19.79,.21,1.05,.18,2.15,.18,3.23,0,2.08-.05,2.13-2.06,2.02-3.54-.19-7.09-.07-10.64-.32-4.31-.3-8.65-.09-12.97-.23-4.32-.14-8.63-.37-12.96-.34-1.08,0-2.16,.04-3.24,0-.58-.02-1.26,.25-1.7-.4,1.87-1.85,1.2-4.16,1.08-6.34-.4-7.3-.69-14.6-.69-21.92,0-.53,.05-1.08,.31-1.57,.93-1.22,1.95-.8,2.75,.05,3.09,3.29,6.8,5.8,10.42,8.42,1.14,.83,2.21,1.2,3.64,.94,2.89-.52,5.85-.73,8.2-2.79-2.3,1.32-4.85,1.8-7.41,2.25-3.43,.6-5.84-1.56-8.37-3.29-.6-.41-.7-1.17-.63-1.91-.04-1.82-.9-3.2-2.13-4.49-7.82-8.18-10.54-18.07-9.71-29.15,.88-11.66,.77-23.32,.19-34.98-.07-1.31-.09-2.63-.09-3.94,0-13.92-.2-27.85,.07-41.77,.18-9.26,.77-18.52,1.98-27.72,.31-2.32,.41-4.63,.04-6.93-.38-2.31,.66-4.61-.01-6.9,.08-1.33,.68-2.52,1.04-3.78,.72-2.55,1.91-3.14,4.21-1.94,1.45,.76,2.98,1.23,4.47,1.84,4.63,1.9,9.5,2.67,14.39,3.44,5.87,.92,11.74,1.88,17.64,2.57,4.13,.49,8.24,1.19,12.45,1.09,5.49-.13,10.98,.05,16.47,.11,1.54,.02,3.07,.27,4.61,.35,8.12,.41,16.05-.79,23.85-2.85,7.54-1.99,15.12-3.89,22.54-6.36,2.18-.73,4.33-1.57,6.44-2.34,.58,.71,.68,1.4,.8,2.09,1.25,7.08,2.36,14.17,3.32,21.29,.69,5.13,1.58,10.24,2.05,15.4,.19,2.08,.31,4.16,.22,6.25-.4,2.38-.08,4.78-.19,7.16,0,.8,0,1.61,0,2.06,.02-.47,0-1.3,0-2.14,.19-1.45-.4-2.95,.33-4.35,.51,2.99,.42,6,.22,9.01-.33,5.01-.85,10.01-.87,15.04-.04,6.96-.3,13.92-.99,20.84-.78,7.77-1.76,15.51-2.8,23.25-.53,3.94-.48,7.87-.21,11.8,.13,1.86,.13,3.69-.14,5.53-.14,1.7-.56,3.38-.45,5.1Z"/><path class="cls-67" d="M230.9,393.14c-.21,5.31-.55,10.62-.6,15.93-.03,3.71-.31,7.4-.41,11.09-.18,6.87,1.85,13.08,5.51,18.82,.08,.13,.18,.25,.26,.38,1.44,2.2,1.38,2.14-.4,3.99-1.78,1.84-4.12,2.68-6.35,3.65-5.11,2.24-10.49,3.68-15.86,5.15-6.18,1.7-12.29,3.65-18.63,4.73-3.81,.65-7.61,1.24-11.5,1.15-4.94-.11-9.9,.02-14.84-.01-9.43-.06-18.83-.48-28.16-1.96-4.88-.77-9.77-1.48-14.68-2.02-6.08-.68-11.72-2.68-17.21-5.23-.97-.45-1.94-.93-2.91-1.39,0-.15,.06-.33,0-.46-2.2-4.72-1.75-9.66-1.54-14.66,.18-4.45,.41-8.92-.21-13.39-.43-3.12-.27-6.31,.18-9.46,.6-4.12,.93-8.26,1.06-12.42,.18-5.93,.97-11.81,1.82-17.68,.1-.68,.1-1.38,.15-2.07,.82-.46,1.7-.16,2.11,.41,1.01,1.4,2.29,1.41,3.81,1.37,5.42-.13,10.5-1.45,15.23-4.09,9.9-5.52,19.52-11.5,29.37-17.1,1.21-.69,2.08-2.24,3.84-1.75,.74,.6,1.6,1.1,1.64,2.21-.26,1.34,.79,1.46,1.65,1.77,5.44,1.95,10.91,3.85,16.22,6.14,8.64,3.73,17.26,7.49,25.79,11.47,6.53,3.04,13.36,5.38,20.6,6.32,3.61,.47,4.96,2.73,4.06,6.4-.22,.92-.39,1.79-.02,2.7Z"/><path d="M230.9,393.14c-.76-1.99-.34-4.12-.71-6.17-.22-1.23-.43-1.84-1.87-2-1.75-.2-3.47-.63-5.25-.77-1.54-.12-3.02-.5-4.45-1.16-2.17-1.01-4.49-1.65-6.8-2.26-3.08-.81-5.94-2.14-8.75-3.6-2.12-1.1-4.3-2.08-6.49-3.04-5.01-2.2-10.11-4.22-15.05-6.58-4.48-2.14-9.28-3.36-13.86-5.19-1.65-.65-3.34-1.2-5.01-1.79-.51-.18-1.03-.36-1.38-.8-.29-.36-.61-.81-.35-1.25,.28-.47,.84-.2,1.28-.22,1.66-.84,3.22-.1,4.68,.49,8.07,3.3,16.27,6.28,24.23,9.86,6.34,2.85,12.57,5.91,18.92,8.72,4.57,2.02,9.39,3.53,14.26,4.73,3.86,.96,6.78-1,9.18-3.68,1.6-1.78,3.24-3.51,4.88-5.26,1.1-.47,1.42-1.53,1.93-2.47,2.53-4.7,3.37-9.87,4.05-15.06,.67-5.08,1.08-10.19,1.29-15.32,.91-4.59-.42-9.17-.06-13.76,.9-2.04,.87-4.12,.64-6.32-.34-3.23,.49-6.45,.38-9.71-.2-6.1-1.34-12.01-3.72-17.59-2.52-5.91-7.18-9.55-13.46-11.03-.9-.21-1.82-.33-2.58-.92-4.41-1.9-8.26-4.79-12.47-7.04-2.94-2.31-6.5-3.53-9.65-5.49-1.38-.86-2.52-2.04-4.01-2.71-.27-.13-.54-.28-.81-.41-.18-.05-.36-.1-.54-.13-.36-.06-.71,0-1.05,.16-4.1,5.44-10.24,6.8-16.34,8.18-10.57,2.38-21.11,1.66-31.61-.57-3.44-.73-6.55-2.29-9.41-4.32-1.29-.92-2.58-1.39-4.05-.45-.66,.18-1.34,.28-1.95,.61-8.37,3.12-16.62,6.5-24.43,10.87-1.95,1.09-3.79,2.37-5.72,3.49-1.16,.67-1.54,1.4-.51,2.55,.82,.92,1.28,1.98,.12,3.04-1.15,.82-2.1,.23-3.04-.44-1.22-.93-2-.47-2.83,.68-4.4,6.04-6.23,12.98-7.26,20.22-.54,3.79,.11,7.51,.52,11.24,.1,.91,.39,1.86-.59,2.52-.22,.7,.33,1.5-.26,2.18-.9-.24-.94-1.07-1.08-1.67-.94-3.97-2.02-7.93-1.87-12.07,.11-3.1,.69-6.13,1.47-9.12,1.14-4.33,2.35-8.65,4.95-12.4,2.65-3.81,5.5-7.35,9.51-9.96,6.76-4.39,13.94-7.93,21.25-11.24,2.05-.93,4.26-1.35,6.44-1.85,1.21-.28,2.34-.71,3.45-1.27,1.52-.78,2.77-1.33,2.37-3.66-.4-2.3,.76-4.6,2.21-6.42,.99-1.24,.44-2.31,.33-3.47-.03-.33-.29-.54-.65-.46-1.72,.35-1.9-.88-2.07-2.06-.36-2.47-.7-4.95-1.05-7.42-.18-1.31,.24-2.42,1.1-3.41,.59-.67,1-1.15,.39-2.31-.54-1.02-.08-2.56-.05-3.88,.01-.54,.42-.77,.8-1.05,1.84-1.38,1.84-1.38,1.95-3.48,.27-.41,.69-.25,1.03-.19,.57,.11,1.12,.18,1.39-.45,.33-.77-.47-.81-.82-1.13-1.71-1.59-2.66-3.57-3.01-5.85-.14-.88,.08-1.88-1.18-2.22-.47-.13-.3-.8-.33-1.25-.08-1.27,.61-2.38,.8-3.62-.43-.51-1.73,.17-1.6-1.11,.09-.88-1.2-1.9,.23-2.64,.77-.4,.47-.98,.39-1.6-.28-2.08-.2-2.17,1.76-2.78,1.69-.52,1.61-.5,1.21-2.23-.31-1.36-.97-2.15-2.39-2.3-.69-.07-1.37-.25-2.03-.46-3.17-.98-4.29-3.64-2.74-6.54,1.22-2.29,3-4.12,5.05-5.66,4.68-3.54,9.43-6.99,14.58-9.84,2.3-1.27,4.5-2.71,6.77-4.03,2.76-1.61,5.71-2.75,8.92-3,1.85-.14,3.74-.07,5.43,.8,4.06,2.09,8.44,3.43,12.5,5.49,4.4,2.23,8.99,4.13,12.88,7.27,2.05,1.65,3.9,3.52,5.5,5.62,.75,.99,1.36,2.04,1.71,3.26,.76,2.64-.35,4.78-2.95,5.62-.07,.02-.15,.05-.22,.05-3.45,.22-4.4,2.49-4.47,5.48,.2,.45,.3,0,.45-.05,1.18-.1,2.04,.59,1.55,1.52-1.05,2.01-.66,3.82,.06,5.73,.1,.25,.06,.67-.1,.89-1.09,1.51-.4,3.19-.5,4.78-.14,2.15-1.11,4.01-2.16,5.79-.6,1.01-.86,1.73,.2,2.54,1.11,.85,1.47,2.04,1.61,3.42,.24,2.28,.63,4.56,1.69,6.59-1.65,.99-2.63,.33-3.59-.82,.59,1.59,.97,3.29,1.82,4.73,.76,1.28,.22,1.41-.78,1.58-.11,.02-.18,.19-.28,.29,.05,.6,.59,.87,.87,1.32,.7,1.1,.71,1.09-.61,1.99,.59,.94,1.9,1.36,2.02,2.7-.75,.22-1.48,.43-2.21,.64l.05-.05c.06,.87,1.19,1.21,1.05,2.2-.96,.73-2.1,.54-3.2,.37-.47,1.87,1.64,1.87,2.07,3.03-1.57,.91-1.6,.92-1.23,2.72,.28,1.37,.28,2.76,.36,4.15,.05,.86,.28,1.51,1.25,1.95,8.39,3.78,16.31,8.42,24.03,13.4,3.16,2.04,6.66,3.16,10.19,4.27,4.16,1.3,7.21,3.99,9.67,7.48,3.61,5.12,5.13,11.01,6.12,17.05,.56,3.42,.75,6.89,.41,10.38-.18,1.84-.21,3.7-.26,5.55-.15,5.56-.42,11.11-.55,16.67-.13,5.7-.72,11.39-1.08,17.09-.19,3.01-.54,5.99-1.06,8.96-.63,3.64-1.88,7.08-4.14,9.96-2.93,3.75-5.8,7.63-10,10.16-.88,.53-1.32,1.21-1.17,2.28,.22,1.6,.34,3.22,.51,4.83-1.26,.41-.92,1.5-1.02,2.4Z"/><path d="M160.83,356.4c-4.4,3.13-9.21,5.6-13.82,8.41-4.87,2.97-9.77,5.9-14.69,8.79-5.14,3.02-10.39,5.76-16.49,6.27-.54,.04-1.08,.14-1.61,.12-1.69-.07-3.37-.16-4.75,1.1-.15,.13-.41,.21-.62,.02q.46-1.89-1.32-3.16c-.31-.22-.62-.44-.94-.67-.19-.96-1.04-1.29-1.7-1.78-4.61-3.42-8.15-7.81-10.85-12.78-2.21-4.08-2.64-8.69-2.4-13.28,.25-4.96-.11-9.85-1.11-14.71-.33-1.61-.47-3.2,.22-4.75,.18-.74-.37-.71-.79-.7-3.48,.07-6.97-.2-10.45,.14-5.77,.42-11.37,1.82-17.01,3.02-1.5,.32-2.97,.86-4.52,.86-1.48,0-2.15-1.02-1.69-2.48,.2-.11,.4-.13,.62-.08,1.09,.54,2.03,.08,3.04-.35,1.61-.69,3.35-.97,5-1.56,1.2,.12,2.29-.51,3.47-.54,2.12-.69,4.35-.78,6.53-1.14,.71-.25,1.44-.2,2.17-.2,.8-.09,1.58,.38,2.38,.07,.36-.09,.74-.07,1.11-.07-.44,0-.87-.01-1.3,.1-.22,0-.42-.06-.61-.18-.11-.12-.15-.25-.12-.38,.03-.13,.06-.2,.09-.2,4.62-.63,9.28-.41,13.92-.54,.4-.63,1.01-.74,1.65-.73-.03-.03,.02-.15-.01-.17-.43-1.12-.32-2.26-.33-3.39-.03-2.24,.89-3.78,3.16-4.34,.35-.11,.68-.25,1.02-.37,.43-.24,.9-.39,1.38-.48,1.48-.06,2.97-.15,3.92,1.33,.19,1.3-.64,2.06-1.49,2.8-1.05,.44-2.04,1.02-3.17,1.27-1.16,.26-1.39,1.04-1.16,2.08,.23,1.06,.92,1.51,1.96,1.55,1.25,.06,1.27-.84,1.33-1.69,.09-1.31,.22-2.6,1.37-3.49,.6-.5,.98-1.16,1.26-1.88,.24-.53,.49-1.04,.72-1.58,1.73-2.6,3.68-3.23,6.45-2.05,1.27,.54,2.51,1.14,3.56,2.07,.27,.23,.54,.45,.86,.62,2.61,1.2,3.4,.72,3.95-2.01,.38-1.9,.09-3.63-.45-5.45-1.18-4.01-2.41-7.99-4.6-11.6-.47-.77-.77-1.63,.04-2.31,.75-.63,1.64-.36,2.38,.13,1.8,1.19,2.75,3.1,3.95,4.87,.03-1.55-.11-3.07,.14-4.56,.11-.64,.41-1.21,1.11-1.33,.7-.11,1.17,.32,1.51,.87,.29,.45,.49,.95,.61,1.49,1.01,4.73,1.01,9.47,.27,14.23-.27,1.75-.21,3.52,.08,5.29,.71-1.53,.85-3.16,.94-4.81,.07-1.19,.19-2.52,1.75-2.53,1.55,0,1.98,1.24,2.11,2.57,.07,.69,.15,1.4,.06,2.08-.52,3.68,1.12,6.07,4.41,7.49,.2,.11,.38,.24,.55,.39,.63,.6,1.35,1.08,1.98,1.67,.38,.39,.85,.64,1.31,.92,1.52,.91,2.89,.82,4.12-.55,.95-1.06,2.22-1.28,3.57-1.27,4.76,.05,9.52-.11,14.27,.03,1,.03,1.99,0,2.98-.11,2.46,.21,4.68-.74,6.96-1.4,2.37-.75,4.86-1,7.22-1.79,.22-.06,.45-.1,.67-.13,1.36-.45,2.91-.29,4.12-1.24,.29-.2,.61-.35,.93-.48,.22-.11,.44-.18,.68-.22,2.56-.53,5.19-.69,7.75-1.25,1.86-.41,3.39,.07,4.69,1.28,1.06,1,2.29,1.43,3.64,1.86,3.73,1.2,6.9,3.34,9.46,6.31,.35,.41,.7,.81,1.12,1.15,.2,.13,.4,.27,.6,.39,1.97,2.25,3.86,4.57,5.75,6.9,1.23,1.52,2.41,2.6,4.63,2.24,2.11-.34,4.3-.15,6.46-.05,1.34,.06,2.45,.43,2.61,2.02-.03,.25-.13,.46-.29,.65-2.21,.81-4.58,.18-6.82,.75-.42,.11-.9,0-1.5,.43,1.64,.43,3.05,.42,4.5,.35,3.98-.2,7.97-.64,11.93,.03,2.07,.35,2.56,1.43,2.01,3.47-.6,.68-1.42,.59-2.16,.47-1.99-.34-4-.5-5.76-.49,.12,.04,.51,.03,.9,.06,2.41,1.35,5.14,2.04,7.42,3.64,.75,.53,1.52,1.07,1.85,2,.24,.68,.33,1.37-.14,1.98-.48,.63-1.13,.61-1.87,.48-1.6-.27-2.99-1.25-4.65-1.28-7.07-3.92-14.63-6.41-22.57-7.84-1.2-.39-2.44-.38-3.68-.46-1.88-.63-3.81-.26-5.72-.34-1.85-.85-4.06-.13-5.82-1.35-.6-.88,.11-1.39,.55-1.98,2.03-1.47,4.38-.91,6.49-.61,3.07,.44,6.15-.12,9.31,.47-3.88-5.68-7.99-11.04-14.45-14.74,1.19,5.45,1.84,10.52-1.51,15.1-.52,.47-.83,1.04-.75,1.77,.08,.93-.44,1.59-1.01,2.24-1.33,1.52-2.99,2.66-4.55,3.9-1.34,1.06-2.9,.81-4.39,.17-1.41-.61-2.76-1.36-4.16-2.01-.88-.41-1.85-.66-2.58,.13-2.05,2.21-4.8,3.01-7.53,3.76-2.48,.68-4.43,2.07-6.13,3.9-1,1.08-2.28,1.82-3.35,2.82-.6,.57-1.33,.74-2.14,.49Z"/><path class="cls-39" d="M95.82,326.19c-1.07-.15-2.15-.29-3.22-.44-1.02-.63-.74-1.91-1.36-2.74-.9-4.7-1.62-9.41-.97-14.2,.94-6.84,2.66-13.42,6.61-19.23,.52-.76,1.03-1.5,1.44-2.35,.73-1.52,1.27-1.57,2.64-.5,.36,.28,.65,.64,.98,.97,.48,.81,.3,1.57-.01,2.42-.98,2.59-2.25,5.05-3.38,7.57-2.01,4.5-2.97,9.16-2.7,14.08,.03,.46-.01,.92-.12,1.37-.39,1.72-.05,2.89,2.05,2.9,.83,0,1.74,.15,1.79,1.33-.45,.06-.91,.11-1.36,.17-.16,.09-.33,.16-.51,.21-2.4,.87-2.74,1.37-2.84,3.8-.07,1.65,.24,3.19,.94,4.68l.03-.03Z"/><path d="M232.4,613.13c-.13-.57-.32-.84-.84-.26-1.35,1.49-2.76,2.93-4.08,4.44-1.66,1.89-3.67,3.31-5.78,4.61-1.11,.68-2.18,.79-3.52,.51-3.99-.85-7.62-2.44-11.12-4.48-1.73-1.01-3.62-1.72-5.41-2.63-.87-.45-1.79-.91-2.18-1.93,.6-.49,1.07-.08,1.54,.11,5.3,2.14,10.61,4.26,15.89,6.46,1.56,.65,3.01,.61,4.45-.18,3.73-2.07,6.76-4.97,9-8.53,1.12-1.78,1.66-3.97,2.02-6.12,.44-2.67,.96-5.33,1.49-7.98,.15-.75,.25-1.54,.8-2.15,.79,.08,1.09,.54,.85,1.27-.99,3.09-.84,6.4-1.67,9.46-.85,3.12-.97,6.13-.61,9.25-.27-.61-.55-1.22-.82-1.83Z"/><path class="cls-36" d="M79.52,329.42c.69-.43,1.47-.42,2.23-.41,2.68,.02,5.36,.06,8.04,.12,.72,.01,1.44,.06,2.08,.54-.35,.38-.76,.24-1.11,.32-.8-.65-1.78-.44-2.68-.46-2.85-.07-5.71-.07-8.57-.1Z"/><path d="M72.25,326.8c.6-.02,1.19-.04,1.79-.06,.18,.2,.23,.42,.16,.68-1.56,.7-3.25,.7-4.9,.95-.25-.04-.43-.18-.54-.42,.04-.43,.33-.6,.7-.69,.43-.06,.86-.11,1.28-.17,.46-.28,1.03-.04,1.5-.3Z"/><path d="M74.05,327.23v-.49c1.51-.42,3.07-.5,4.63-.45,0,.12,0,.23,0,.35-.32,.62-.92,.68-1.51,.77-.83,.03-1.67-.06-2.49,.08-.25-.01-.46-.1-.65-.26Z"/><path d="M63.36,328.61c1.03-.46,2.12-.57,3.23-.55,.14,.2,.16,.42,.07,.64-.64,.6-1.51,.48-2.27,.71-.35,.05-.69,.03-.99-.19-.11-.13-.16-.26-.13-.4,.03-.14,.06-.21,.09-.21Z"/><path d="M66.61,328.53v-.47c.5-.51,1.22-.27,1.81-.51,.23-.14,.4-.09,.51,.15,0,.1,0,.2,0,.3-.15,.53-.63,.62-1.05,.78-.44,0-.92,.21-1.27-.25Z"/><path d="M63.36,328.61c0,.15,0,.3,0,.44-.31,1.19-1.03,.91-1.79,.49-.17-.15-.34-.3-.51-.45,.75-.24,1.47-.62,2.3-.49Z"/><path class="cls-63" d="M199.3,204.59c-.08,.59-.31,1.1-.76,1.63-.12-.64-.36-1.19,.31-1.58,.15-.02,.3-.03,.45-.05Z"/><path class="cls-68" d="M72.25,326.8c-.44,.39-.94,.49-1.5,.3,.47-.24,.95-.45,1.5-.3Z"/><path class="cls-68" d="M68.93,327.69c-.17-.05-.34-.1-.51-.15,.29-.29,.63-.44,1.04-.28-.18,.14-.36,.29-.53,.43Z"/><path class="cls-39" d="M181.68,561.62c2.17,6.37,3.47,12.96,4.85,19.53,1.97,9.36,4.11,18.69,6.06,28.05,1.71,8.25,3.01,16.55,2.65,25.03-.07,1.62,.04,3.24,.08,4.86,.04,1.9,0,1.96-1.87,1.94-.31,0-.61-.06-.92-.09-.99-6.51-2.16-12.99-3.43-19.46-.21-.22-.35-.48-.39-.79-.05,.59-.44,1.15-.09,1.76,.1,4.09,.39,8.16,.82,12.23,.19,1.76,.03,3.55,.5,5.29,.23,.87-.35,1.05-1.06,1.04-1.78,0-3.56,.03-5.34-.01-8.96-.21-17.91-.61-26.87-.62-1.61,0-3.23-.21-4.84-.3-.58-.03-.81-.29-.78-.87,.24-4.91-1.69-9.58-1.62-14.47,.09-5.63-.58-11.25-.16-16.89,.08-1.1,.23-2.17,.77-3.12,1.38-2.45,2.13-5.15,2.78-7.83,1.01-4.11,1.68-8.31,2.49-12.47,1.01-11.28,2.07-22.56,4.23-33.68,1.19-6.11,2.47-12.21,3.49-18.35,.57-3.39,.95-6.84,1.37-10.27,.75-6.18,.65-12.45,1.94-18.57,.19-.89,.44-1.65,1.45-1.85,.61,0,1.22,0,1.83,0,1.6,.02,1.89,1.31,1.93,2.39,.17,4.28,1.27,8.43,1.58,12.68-.05,1.31,.51,2.54,.49,3.85,1.05,5.09,1.66,10.24,2.3,15.39,.13,.58,.22,1.18,.38,1.76,.05,.23,.1,.45,.17,.68,.49,.94,.22,2.07,.78,2.99,.07,.47,.26,.92,.25,1.41-.02,2.74,.99,5.33,1.16,8.05,.05,.38,.19,.75,.24,1.13,.62,2.99,.76,6.04,1.48,9.03,.59,2.49,.21,5.19,.6,7.78,.15,.36,.25,.73,.27,1.12,.93,8.87,2.42,17.65,3.99,26.43,.88,4.94,1.62,9.9,2.29,13.2-2.07-12.43-4.86-26.42-6.51-40.6-.22-.49-.23-1.01-.23-1.53,.1-1.22-.33-2.4-.23-3.61,.16-.85-.38-2.06,1.12-2.25Z"/><path class="cls-39" d="M105.63,608.48c0,3.25,.09,6.49,0,9.74-.18,6.04,.71,12.02,.98,18.04,.11,2.45,.14,2.45-2.42,2.46-.32-4.46-.26-8.92-.25-13.4,.02-7.42-.32-14.83-2.23-22.07-.35-1.34-.7-2.69-.73-4.09-.03-1.13-.34-2.31,.88-3.15,.61-.42,.33-1.11,.14-1.71-.72-2.28-1.02-4.65-1.52-6.98-.79-3.69-.14-7.4-.41-11.1-.3-4.01-.44-8.03-.73-12.04-.27-3.62,.21-7.26-.22-10.89-.37-3.14-.69-6.31-.75-9.47-.25-12.75-.59-25.51-.49-38.26,.06-8.33,.72-16.66,1.59-24.96,.85-8.1,2.79-15.97,4.35-23.92,.52,.42,.7,1.01,.76,1.64,.51,5.54,.9,11.08-.12,16.62-.34,1.82-.54,3.67-.63,5.52-.24,4.86-.48,9.72-.89,14.57-.3,3.61-.21,7.26-.19,10.89,.04,12.21-.1,24.44,.27,36.64,.25,8.43,.15,16.85,.34,25.27,.1,4.19-.35,8.33-.78,12.48-.24,2.31-.39,4.64,.2,6.92,.96,3.65,1.5,7.4,3.09,10.9,1.72,3.78,3.8,7.23,6.99,9.96,1.89,1.62,2.05,2.72,1.05,5.07-.11,.03-.22,.05-.32,.08-.33,.07-.65,.13-.99,.05-2.58-1.67-4.46-4.11-6.78-6.16-.09,.51,.17,.98-.2,1.36Z"/><path d="M167.79,501.76c-.29,.64-.53,1.28-.53,2,0,1.46,.07,2.91-.82,4.24-.31,.46-.25,1.2-.26,1.81-.12,6.2-1.26,12.29-1.89,18.43-.49,4.7-1.33,9.32-2.01,13.98-.21,1.45-.64,2.87-.88,4.31-1.25,7.7-2.64,15.39-3.63,23.12-.61,4.75-1.49,9.46-2.18,14.19-.03,.22-.18,.42-.27,.63-.04-.57-.13-1.12-.55-1.56,1.15-5.94,.67-12.01,1.42-17.97,.71-5.59,1.62-11.13,2.87-16.63,.85-3.75,1.46-7.56,2.18-11.34-.2-.31-.17-.63-.09-.97,.12-.32,.21-.65,.33-.97,.33-1.98,.91-3.91,1.05-5.93,.52-.84,.14-1.92,.72-2.74,.49-4.91,1.09-9.81,1.35-14.74,.13-2.47,.18-4.94,.46-7.39,.23-2.03-.64-3.44-2.09-4.6-2.9-2.3-5.85-4.56-8.77-6.84-.59-.47-1.31-.8-1.74-1.49,.47-.54,1.02-.38,1.46-.15,3.5,1.8,6.98,3.63,10.46,5.46,.34,.18,.65,.42,.98,.61,1.76,1.01,2.79,2.41,2.45,4.54Z"/><path class="cls-54" d="M238.45,496.55c-.05,1.55-.11,3.1-.16,4.64-.06,.11-.12,.23-.18,.34-.06-.11-.12-.23-.18-.34,.07-2.46-.47-4.95,.37-7.37,.05,.91,.1,1.82,.15,2.73Z"/><path class="cls-60" d="M233.21,587.12c-.8-1.78,0-3.42,.45-5.1,.25,1.74,.16,3.44-.45,5.1Z"/><path d="M188.62,622.46c-.59-1.27-.64-2.58-.32-4.21,.87,1.12,.84,2.18,.79,3.24-.16,.32-.32,.65-.48,.97Z"/><path d="M207.91,468.88c-.82,1.14-1.93,1.99-3.02,2.77-3.64,2.63-6.69,5.96-10.31,8.61-5.68,4.14-10.44,9.43-16.46,13.14-.68,.42-1.59,1.5-2.13,.82-.68-.85,.7-1.33,1.25-1.78,5.66-4.68,10.39-10.38,16.23-14.85,3.19-2.45,6.17-5.14,9.22-7.75,.53-.45,1.1-.85,1.67-1.24,1.55-1.05,1.56-1.04,3.55,.28Z"/><path d="M172.47,517.02c-.52-3.88-1.01-7.76-1.56-11.63-.18-1.29-.4-2.59-1.29-3.64,.26-1.75,1.23-2.57,3.01-2.95,2.17-.46,4.16-1.58,6.33-2.14,2.57-.66,5.18-.74,7.79-.67,2.27,.06,4.44-.26,6.48-1.3,.91-.46,1.88-.75,2.87-.18,.32,.18,.78,.26,.76,.75-.02,.44-.4,.62-.74,.8-2.91,1.52-5.98,2.41-9.29,2.43-3.08,.02-6.17-.03-9.17,.87-1.33,.4-2.66,.76-4,1.12q-2.2,.59-1.31,2.71c.31,.26,.51,.59,.49,.99-.19,4.04,.5,8.05,.45,12.09-.11,.44-.28,.81-.84,.76Z"/><path d="M105.63,608.48c-.62-.68-1.22-1.38-1.85-2.05-.38-.4-.86-.87-.43-1.37,.43-.51,1.05-.05,1.46,.21,1.04,.66,1.98,1.45,2.89,2.3,1.8,1.68,3.21,3.76,5.34,5.1,.25,.25,.7,.14,.9,.49,0,0-.01,0-.01,0,1.55,1.42,3.53,2.14,5.28,3.24,.31,.19,.73,.31,1.1,.3,3.43-.07,6.74-.58,9.64-2.6,.25-.18,.46-.41,.69-.61,.54-.46,1.18-.56,1.67-.08,.53,.52-.05,.98-.35,1.38-1.54,2.04-3.5,3.45-6.08,3.87-1.52,.25-3.04,.5-4.54,.81-1.3,.27-2.38,0-3.43-.85-4.12-3.34-8.54-6.32-12.27-10.14Z"/><path d="M180.72,569.13c-.57-1.05-.57-2.26-.61-3.37-.16-4.69-1.53-9.24-1.58-13.94,.15-.19,.15-.5,.47-.54,.81,2.16,1,4.44,1.26,6.71,.09,.75,.03,1.53,.47,2.21,.95,1.17-.16,2.6,.46,3.82,.01,1.21,.02,2.41,.03,3.62-.43,.41,.08,1.14-.51,1.51Z"/><path class="cls-2" d="M172.99,516.38c-.23-3.41-.48-6.82-.67-10.24-.06-.98,.03-1.97,.05-2.96,.22-.1,.45-.13,.63,.05,.3,.3,.31,.7,.3,1.08-.11,5.49,.59,10.92,1.05,16.37,.23,.55,.26,1-.51,1.07-.8-.64-.26-1.71-.76-2.45-.43-.96,.04-1.96-.1-2.93Z"/><path d="M173.45,519.21c.44,.75,.25,1.62,.48,2.42,1.2,3.61,1.54,7.37,1.88,11.13,.12,1.25,.51,2.48,.33,3.76-.06,.05-.12,.1-.18,.16-.07-.05-.13-.09-.2-.14-.91-4.9-1.82-9.79-2.73-14.69-.07-.37-.05-.76-.07-1.14,.38-.43-.13-1.14,.48-1.49Z"/><path class="cls-45" d="M175.81,532.76c-.63-3.71-1.25-7.42-1.88-11.13,.14-.31,.28-.63,.42-.94,.8,2.71,.95,5.52,1.31,8.3,.16,1.23,.93,2.49,.15,3.77Z"/><path d="M178.41,551c-.47-2.79-.95-5.58-1.42-8.37-.15-.35-.16-.69,0-1.04,.23-.13,.45-.11,.67,.04,.19,.59,.15,1.18,.03,1.77,.41,2.2,1.09,4.36,1.2,6.61-.29,.27-.02,.8-.47,.99Z"/><path class="cls-17" d="M161.41,536.14c-.06,.27-.12,.55-.18,.82-.47-.63-.27-1.3-.13-1.98,.41-2.1,.79-4.21,1.18-6.31,.42-.06,.74-.02,.47,.53,.07,2.22-.58,4.32-1.1,6.44-.11,.15-.19,.32-.24,.5Z"/><path class="cls-19" d="M181.19,564c-.47-1.23-.38-2.53-.46-3.81,.17-.23,.37-.55,.56-.04,.18,.48,.27,.98,.4,1.48-.58,.71-.24,1.61-.49,2.38Z"/><path d="M177.43,541.65l-.22-.03c-.19,.37-.35,.36-.48-.04-.18-1.08-.35-2.15-.53-3.23,.14-.31,.27-.31,.41,0,.57,.66,.48,1.48,.55,2.26,.13,.27,.44,.38,.56,.66,.03,.22-.08,.35-.3,.38Z"/><path class="cls-18" d="M162.75,529.19c-.16-.18-.31-.35-.47-.53,.58-.66-.12-1.86,.96-2.31,0,.97,.02,1.95-.49,2.84Z"/><path class="cls-30" d="M237.93,501.19c.12,0,.24,0,.36,0,.05,.96,.18,1.93-.17,3.3-.36-1.35-.2-2.33-.19-3.3Z"/><path class="cls-5" d="M177.43,541.65c.01-.16,.02-.32,.04-.48-.13-.19-.1-.35,.09-.48,.61,.88,.59,1.78,.13,2.71-.08-.58-.17-1.17-.25-1.75Z"/><path d="M178.41,551c.16-.33,.32-.66,.47-.99,.04,.42,.08,.84,.12,1.26-.16,.18-.31,.36-.47,.54-.04-.27-.08-.54-.12-.82Z"/><path d="M176.61,538.35h-.21s-.21,0-.21,0c-.04-.16-.09-.32-.13-.48-.16-.47-.31-.94,.09-1.37,0,0-.02,.01-.02,.01,.6,.5,.43,1.2,.47,1.84Z"/><path class="cls-20" d="M177.55,540.69c-.03,.16-.06,.32-.09,.48-.1-.19-.2-.37-.3-.56,.13,.03,.26,.06,.39,.08Z"/><path class="cls-67" d="M160.83,356.4c2.08-1.84,4.24-3.6,6.22-5.55,1.93-1.9,4.42-2.45,6.82-3.23,2.01-.65,3.9-1.35,5.32-3.06,.86-1.04,2.06-1.26,3.35-.6,1.85,.95,3.74,1.85,5.59,2.8,.68,.35,1.38,.49,1.94-.05,2.08-2.04,4.83-3.4,6.26-6.1,.23-.22,.47-.25,.72-.02,2.04-.05,4.06,.14,6.06,.55,1.51,.49,3.07,.73,4.65,.89,.79,.04,1.5,.48,2.3,.45,4.83,.89,9.61,1.83,13.71,4.88,2.9,2.16,6.35,3.42,9.4,5.37,.97,.62,2.23,1.11,3.55,.28-.11-1.29-2.4-1.47-1.64-3.15,1.03,.07,1.86,.66,2.76,1.06,.99,.44,1.97,.79,3.11,.5,.05-1.65-1.13-2.31-2.21-3-2.19-1.41-4.61-2.38-6.9-3.58,.61-1.01,1.64-.82,2.5-.68,2.58,.42,5.2,.6,7.76,1.13,2.46,.51,3.02,1.21,3,3.81-.02,2.55-.31,5.13-.99,7.52-1.68,5.91-2.59,12.05-5.27,17.66-1.63,1.84-3.24,3.71-4.96,5.45-3.25,3.29-7.11,4.69-11.76,2.99-3.62-1.32-7.37-2.27-10.96-3.68-3.29-1.29-6.47-2.89-9.62-4.51-2.48-1.27-5.07-2.26-7.58-3.44-8.73-4.11-17.8-7.4-26.71-11.07-1.64-.67-3.48-.74-5-1.72-.61-.54-1.5-.86-1.4-1.92Z"/><path class="cls-67" d="M99.57,317.36c-.86-.62-1.77-.28-2.69-.19-1.84,.19-2.43-.34-2.37-2.14,.09-2.77,.15-5.55,.38-8.31,.26-3.02,1.06-5.92,2.34-8.69,1.58-3.44,3.14-6.89,4.71-10.33,.71,.33,1.3,1.11,2.23,.54,1.95,.98,3.38,.69,4.66-1.31,1.75-2.72,4.59-4.33,7.24-6.04,6.27-4.05,13.08-7.29,18.77-12.24,.45-.49,1.28-.62,1.34-1.47,.56-.63,1.42-.5,2.11-.82,.72-.33,1.31-.1,1.91,.38,5.58,4.5,12.17,6.12,19.15,6.61,3.84,.27,7.66,.74,11.54,.58,6.93-.28,13.61-1.65,20.05-4.2,2.89-1.14,5.35-2.76,6.56-5.8,.19-.47,.39-.88,.97-.41,.25,.82,1.15,.88,1.66,1.4,3.7,4.29,9.14,5.75,13.8,8.46,4.22,2.3,8.31,4.83,12.53,7.14,1.17,.83,1.34,1.87,.66,3.1-.95,.49-1.87,1.02-2.16,1.95,.47-.64,.9-1.7,2.23-1.29,.45,.11,.87,.16,1.35,.02,3.38-1.01,6.25,.13,7.84,3.37,1.1,2.24,2.5,4.25,4,6.2,3.46,4.49,5.48,9.38,5.09,15.19-.33,4.94,.57,9.83,1.08,14.73,.08,.83-.31,1.67,.15,2.46,.01,4.44,.03,8.89,.02,13.33,0,.35-.25,.7-.39,1.06-1.13-.97-.21-2.14-.31-3.08-.4,2-.18,4.18-.44,6.33-.2,1.63-.92,2.28-2.47,1.66-1.43-.58-3.35,0-4.3-1.75,.42-1.3-.34-1.9-1.42-2.14-1.12-.24-2.28-.44-3.42-.44-3.6-.01-7.22-.28-10.79,.57-1.36,.33-2.74-.27-4.02-.73-.77-.27-.89-1.14-1.05-2.2h10.92c-.08,1.27-1.1,.3-1.57,.66,.16-.02,.32-.03,.49-.03,.31,0,.64,.07,.92-.07,2.36-1.17,4.97-.83,7.73-1.38-2.71-.1-5.14-.14-7.55,.23-.71-.88-1.72-.93-2.73-.93-2.54-.01-5.09-.09-7.59,.45-1.04,.22-1.65-.06-2.31-.93-1.82-2.38-3.79-4.65-5.7-6.96-.59-.71-1.22-1.39-1.6-2.24,.81-2.96,.92-6.03,1.34-9.04,.89-6.44,4.17-11.84,7.21-17.36,.56-1.01,1.21-1.96,1.65-2.62-.98,1.67-2.36,3.51-3.39,5.57-.39,.77-.94,1.43-1.95,1.4-.66-.15-.83-.73-1.09-1.23-.31-2.29,.19-4.49,.73-6.7,.15-.61,.95-1.42-.24-1.9-.51-.05-.9,.1-1.14,.58-1.43,2.92-3.34,5.67-3.06,9.18,.06,.75,.02,1.53-.4,2.22-.77,.64-1.2,1.35-1.38,2.45-.39,2.36-.97,4.69-1.34,6.67,.03-1.23,.64-2.74,.89-4.32,.11-.7,.35-1.37,1.29-1.27,1.72,1.54,.69,3.31,.4,5.04,.58-.56,1.08-1.45,1.93-.36,.42,2.78-.75,5.4-.88,8.13-.06,1.2,0,2.46-.55,3.61-.82-.33-1.32-1.05-1.95-1.6-3.01-2.66-6.04-5.3-10.25-5.86-.85-.11-1.33-.74-1.86-1.28-1.39-1.43-2.9-2.05-4.98-1.48-2.43,.66-5.01,.67-7.45,1.35-.34-.3-.34,.09-.46,.23-.11,.2-.27,.25-.48,.18-1.87-.08-3.64,.53-5.45,.84-.22,.09-.44,.15-.67,.16-2.36,.51-4.7,1.07-7,1.82-2.13,.6-4.32,1-6.33,1.97-.31,.26-.66,.41-1.06,.35-5.46-.78-10.96,.05-16.42-.48-1.06-.1-1.94,.24-2.7,1.04-.57,.6-.81,1.58-1.76,1.74-1.18,.19-2.29-.25-3.38-.63-.28-.1-.5-.34-.75-.52-.22-.47-.56-.82-1.03-1.05-.63-.39-1.29-.74-1.77-1.33,.14-.51-.19-.25-.37-.23-1.04-.66-2.03-1.43-3.13-1.96-1.3-.61-1.81-1.53-1.81-2.91-.01-1.85-.1-3.7-.17-5.55-.03-.78-.05-1.57-.7-2.13-.43-.37-.91-.34-1.06,.25-.15,.59-.13,1.22-.17,1.84-.12,1.85-.26,3.69-.34,5.54-.04,.85-.36,1.27-1.26,1.24-1.19-.05-1.98-.58-1.91-1.51,.27-4,.54-8,.93-11.99,.12-1.24,.19-2.43-.09-3.66-.29-1.27-.39-2.59-.61-3.88-.16-.94-.14-1.96-1.14-2.97-.58,3.23-.03,6.19-.33,9.51-2.35-3.06-3.01-7.11-6.67-8.55-.47,.33-.42,.58-.29,.76,2.11,2.91,3.41,6.2,4.45,9.6,.4,1.33,.79,2.66,1.24,3.97,.85,2.45,0,4.9,.03,7.34,0,.19-.17,.47-.34,.56-1.03,.55-2.17,.81-3.3,.96-.97,.13-1.46-.7-1.99-1.36,.01-.4-.11-.64-.57-.47-.8-.46-1.59-.95-2.4-1.39-3.15-1.72-4.54-1.45-6.7,1.28-.43,.02-.76,.3-1.15,.43-.1,.01-.2,.03-.31,.04-1.14-.8-2.43-.5-3.68-.52Z"/><path class="cls-67" d="M183.56,226.88c-.46-.26-.78-1.16-1.24-.88-1.73,1.06-3.31-.56-5-.12-1.03,.27-1.58-.35-1.45-1.45,.16-1.4-.42-2.54-1.18-3.65-.65-.95-1.28-1.92-1.86-2.92-.97-1.67-1.05-3.33,.09-4.99,.5-.73,.9-1.53,1.42-2.4-3.86,.74-5.02,5.7-2.42,9.5,.55,1.16-.22,1.34-1.03,1.23-1-.13-1.96,0-2.94,.11-2.61-1.2-2.88-3.77-3.36-6.09-.54-2.61-.39-2.64-3.05-2.08-.38,.08-.76,.05-1.13-.05-.74-.4-1.29-1.02-1.93-1.55-1.07-.89-1.89-.68-2.09,.94,1.03-.01,2.2-.72,2.75,.71-.06,.65-.54,.95-1.06,1.06-2.47,.51-4.57,2.22-7.13,2.33-1.67,.07-2.83,1.41-4.44,1.48-.34-1.97,.22-4.01-.4-5.97-.12-.39,.03-.75,.42-.98,.46-.27,.95-.52,1.15-1.1-.18-.71-1.05-.89-1.28-1.58,.14-.52,.64-.33,.96-.49,1.05-.26,1.42-.8,.89-1.85-.43-.85-.67-1.81-.19-2.67,.33-.58,.75-1.43,1.69-.35,.74,.86,1.57,.58,1.73-.51,.12-.78,.07-1.54,.89-1.98,1.1-.59,2.25-1.05,3.48-1.21,.57-.08,.63,.54,.86,.92,.79,1.33,2.57,2,3.96,1.53,.21-.07,.41-.23,.56-.4,.14-.16,.2-.39,.3-.59-.79-.9-2.36-.46-2.97-2.02,2.27-.67,4.46-1.66,6.75-1.92,9.46-1.09,18.45,.38,26.61,5.61,.63,.4,.98,.86,1.25,1.71,1.23,3.86,.38,7.47-.8,11.1-.64,2.3-2.62,3.07-4.54,3.71-2.16,.72-4.47,.84-6.73,1.16-1.4-.27-2.9-.4-3.31-2.17,.14-1.19,1.05-1.04,1.87-1.09,.93-.05,1.91,.19,2.78-.36-.5,.26-.99,.34-1.5,.01-1.01-1.5,.81-1.98,1.08-3.03,.94-.55,1.92-1.04,2.63-1.91,.16-.15,.38-.23,.54-.38-.54-.46-.9,.16-1.35,.22-1.5,.05-3.07,.52-4.39-.65-.49-1.08,.58-1.39,1-2.03,2.62-1.31,5.55-.82,8.33-1.44-.7-.57-1.54-.5-2.27-.4-2.06,.28-3.86-.14-5.76-1.05-1.6-.77-3.36,.45-5.07,.65-.42,.05-.18,.66,.04,.98,.35,.5,.79,.95,.93,1.58,.17,.58-.2,1.08-.22,1.63,.24,1.8-1.5,3.58-.04,5.39,.41,1.51,1.46,2.56,2.59,3.54,1.67,1.32,3.01,2.97,4.39,4.58,.66,.77,1.15,1.66,.18,2.59Z"/><path class="cls-67" d="M186.82,186.53c-.56,.15-1.23-.32-1.74,.29,.03,.94,.86,.96,1.44,1.25,2.76,1.39,5.51,2.81,7.98,4.7,1.56,1.19,2.8,2.65,3.84,4.3,.64,1.02,1.08,2.03,.07,3.15-.4,.44-.57,1.08-.85,1.63-.52-.07-.94-.48-1.48-.48-2.14-2.11-4.33-4.1-7.07-5.49-5.58-2.83-11.35-4.89-17.7-4.71-5.04,.14-9.91,.98-14.62,3.05-4.43,1.94-8.54,4.28-12.25,7.36-.41,.34-.87,.65-1.32,.93-.18,.12-.42,.15-.61,.21-.56-.32-.58-.93-.88-1.36-.6-.87-.33-1.51,.35-2.23,3.12-3.33,6.39-6.48,10.24-8.99,.26-.17,.52-.34,.76-.52,.3-.23,.7-.48,.47-.92-.27-.52-.78-.42-1.21-.23-.56,.25-1.12,.53-1.65,.83-3.83,2.19-6.77,5.33-9.32,8.86-1.19,1.64-1.17,1.64-3.06,.93-.58-.22-1.2-.31-1.76-.56-1.15-.52-2.25-1.12-2.08-2.68,.27-.28,.53-.74,.87-.72,2.7,.14,3.86-2.21,5.73-3.42,5.16-3.34,9.96-7.26,15.62-9.8,1.34-.6,2.77-.89,4.26-.74,.87,.59,1.01,1.66,1.02,2.46,.04,3.05,2.35,4.26,4.34,5.7,1,.72,1.36-.67,2.08-.96,.44-.19,.89-.21,1.35-.11,2.11,1.04,4.25,.19,5.04-2.08,.42-1.2,1.01-2.22,2.16-2.84,.33-.08,.66-.02,.99,.02,.56,.03,1.03-.15,1.5-.47,2.69-1.82,6.98,.27,7.5,3.63Z"/><path class="cls-67" d="M147.85,264.09c1.13,.36,2.24,.51,3.2-.43,.79-.94,1.64-.02,2.46-.09,.97,.91,1.88,1.96,3.36,.79,.37-.29,.73,0,1.04,.24,1.22,.91,2.38,.97,3.52-.15,.34-.34,.79-.62,1.21-.21,.52,.5,.15,.81-.24,1.3-.96,1.18-.68,1.67,.9,1.77,5.16,.33,10.14-.59,15.04-2.14,3.9-1.24,7.72-2.67,11.3-4.68,2.06,.97,3.98,2.07,4.59,4.51-.64,1.26-1.87,1.81-3.04,2.33-9.14,4.09-18.7,5.5-28.64,4.38-2.06-.23-4.14-.41-6.2-.61-2.94-.29-5.71-1.24-8.48-2.18-1.24-.42-2.36-1.09-3.31-2.02-.28-2.57,1.78-2.37,3.31-2.8Z"/><path class="cls-39" d="M146.5,218.05c.16-1.59,1.26-2.03,2.64-2.24,3.4-.52,6.69-1.44,9.86-2.79,.05-.17,.14-.31,.29-.42,.24-.13,.5-.13,.76-.11,.09,0,.17,0,.26,0,1.49-.01,2.78-.79,4.19-1.1,.69-.15,1.47-.08,1.27,.73-.81,3.28,.69,5.96,2.02,8.7,.39,.44,1.08,.21,1.48,.64,.58,.72,1.21,1.39,1.84,2.06,.52,.56,1.13,1.15,.34,1.95-1.07,1.07-2.42,1.61-3.87,1.85-1.5,.25-2.18-.13-2.92-1.5-.8-1.49-.86-1.49-2.03-.05-.08,.1-.26,.11-.53,.22-.66-.81-.41-1.69-.08-2.51,.31-.77,.78-1.49,1.21-2.22,.2-.35,.37-.66-.03-.99-.48-.4-.93-.21-1.18,.19-1.23,1.99-2.91,3.87-1.82,6.53,.07,.17-.07,.43-.11,.65,.1-.08,.2-.16,.31-.24-.09,.09-.18,.19-.27,.28-.18-.88-.8-.74-1.14-.29-.88,1.17-1.63,1.45-2.91,.41-.75-.61-1.86-.66-2.33,.67-.42,1.19-1.25,1.14-2.22,.68-.43-.88,1.08-1.61,.22-2.52-.41-.43-.77-1.02-1.52-.61-.85,.13-.66-.51-.76-.98-.16-.74,.4-1.6-.36-2.24-.57-.22-.81-1.5-1.8-.47-.43,.45-.57-.23-.68-.5-.48-1.24-.34-2.52-.12-3.8Z"/><path class="cls-39" d="M169.65,188.9c-.47,.02-.94,.03-1.41,.05-2,1.73-3.38-.44-4.29-1.23-2.72-2.37-3.53-5.95-.92-9.49-1.3,.69-.52,2.86-2.29,3.22-.31,.32-.43,.84-1,.87-3.68,.18-6.51,2.26-9.23,4.38-1.48,1.15-3.02,2.11-4.66,2.95-2.56,1.32-4.77,3.09-6.68,5.22-.93,1.03-1.83,1.58-3.21,1.05-.5-.19-1.06-.19-1.6-.05-.23-1.39,.7-2.32,1.37-3.32,1.31-1.96,3.2-3.34,5.07-4.71,6.61-4.86,13.59-9.13,20.91-12.83,1.3-.66,2.57-1.43,4.09-1.52,.74-.19,1.47-.34,2.16,.12,.32,.42,.33,.87,.1,1.34-.28,.47-.52,.95-.45,1.53-.05,.4-.22,.76-.45,1.09-.07,.17-.17,.32-.28,.47-.15,.22-.36,.38-.56,.56-.12,.12-.25,.25-.37,.37-.18,.22-.26,.5-.38,.75-.98,3.33,.98,6.18,4.09,5.98,1.26-.08,3.56-3.36,3.3-4.74-.3-1.58-.97-2.74-2.79-3.1-1.21-.24-2.61-.68-2.35-2.48,.77-1.4,2.04-.39,3.05-.65,1.31-.16,2.14,1.06,3.37,1.16,1.11,.97,1.54,2.39,1.99,3.66,.31,.86,.9,1.08,1.41,1.56,.74,1.06,1.07,2.12-.1,3.11-.18-.14-.36-.28-.53-.42-1.67,.05-1.92,1.41-2.39,2.57-.8,1.98-2.74,2.97-4.97,2.54Z"/><path class="cls-39" d="M135.39,268.75c-2.66,3.03-5.73,5.62-9.31,7.45-4.82,2.47-9.31,5.42-13.72,8.52-1.28,.9-2.19,2.13-3.06,3.38-.36,.51-.76,.96-1.23,1.35-1.7,1.41-3.04,.99-3.9-1.22,.43-.37,.46-.73,.04-1.16-.86-.87-1.68-1.78-2.59-2.76,.03-.4,.51-.58,.87-.82,4.29-2.9,8.7-5.6,13.43-7.74,2.11-.95,4.16-2.03,6.24-3.05,4.04-1.96,8.39-3.07,12.6-4.55,.55-.18,.68,.11,.64,.58Z"/><path class="cls-39" d="M177.54,184.2c.1-1.13-.45-2.18-.49-3.29-.83-1.06-1.18-2.35-1.76-3.53-.4-.81-.91-1.38-1.81-1.55-.69-.58-1.75-.85-1.67-2.06,.3-.55,.76-.48,1.24-.32,1.73,.15,3.28,.86,4.8,1.63,5.31,2.67,10.67,5.26,15.91,8.07,4.41,2.36,8.12,5.59,10.82,9.88-.74,1.81-2.41,2.47-4.58,1.78-.58-.18-1.07-.55-1.58-.87-3.11-3.66-7.33-5.57-11.6-7.41-1.39-1.06-2.76-2.15-4.18-3.17-1.55-1.1-1.57-1.07-2.66,.41q-.93,1.28-2.45,.42Z"/><path class="cls-39" d="M246.69,326.25c-.94-2.77-1.62-5.56-1.9-8.51-.36-3.77-.38-7.53-.37-11.31,0-4.23-1.97-7.73-4.26-11.04-1.67-2.4-3.52-4.63-4.73-7.36-.72-1.62-2.38-2.59-4.01-3.35-.73-.34-1.33-.04-1.95,.34-.77,.47-1.36,1.25-2.3,1.4-.63-.63-.23-1.41-.51-2.02-.2-.33-.19-.63,.11-.9,0-.93-.08-1.85-.52-2.7-.07-.47,.05-.74,.59-.55,1.67,.59,3.45,.72,5.14,1.3,5.93,2.01,10.08,5.93,12.24,11.73,2.91,7.82,4.38,15.86,3.09,24.26-.3,1.97-.18,4-.2,6.01,0,.94-.08,1.84-.41,2.72Z"/><path class="cls-39" d="M183.56,226.88c.21-.81-.32-1.24-.79-1.78-1.47-1.68-3.09-3.24-4.36-5.09,.52-1.6,2.03-.23,2.84-.95,1.45-.19,2.89-.38,4.34-.57,1.78-.24,3.43-.72,4.81-1.98,.55-.5,1.3-.8,1.95-1.19,.32,.62,.94,.35,1.43,.47,.82,.69,.69,1.53,.17,2.26-.53,.75-.68,1.52-.59,2.38-.02,.44-.05,.88-.07,1.32-.84,2.04-2.04,3.75-4.13,4.69-1.66-1.03-3.15-.92-4.44,.66-.48,.59-.89,.4-1.17-.23Z"/><path class="cls-39" d="M238.8,343.79c1.57-.06,3.04,.28,4.49,.89,1.27,.53,1.36,.48,1.56-.95,.34-2.44,.58-4.89,.87-7.34,.06-.5-.11-1.07,.48-1.57,.32,2,.07,3.92,.12,5.82-.31,6.27-.7,12.54-1.43,18.79-.49,4.16-1.62,8.11-3.72,11.76-.65,1.13-1.34,2.24-2.35,3.1-.12-1.49,.25-2.9,.6-4.33,1.39-5.61,3.23-11.11,4.34-16.79,.29-1.51,.48-3.05,.65-4.58,.13-1.18-.51-2.05-1.62-2.18-3.67-.41-7.22-1.67-10.96-1.56-1-.28-1.97-.61-3.38-1.43,3.83-.22,7.09,.25,10.36,.37Z"/><path class="cls-39" d="M163.18,240.82c1.32-.05,2.61,.14,3.91,.33,2.17,.32,4.3,.27,6.32-.76,.88-.46,1.86-.61,2.8-.82,1.08-.24,2.15-.15,2.38,1.3-.25,.39-.52,.77-.74,1.17-.46,.81-.98,.8-1.95,.83-1.81,.07-3.63-.35-5.51,.26-1.55,.5-3.35,.36-5.06,.34-1.33-.01-2.87-.28-3.84,1.28-.37,.59-1.06,1.28-1.78-.12-.51-.98-2.14-.69-3.03-1.49,.46-2.06,2.28-1.95,3.76-2.26,.89-.19,1.84-.02,2.76-.06Z"/><path class="cls-38" d="M166.43,236.61c-1.42-.12-2.71,.28-4.02,.84-1.26,.54-2.62,.87-3.95,1.25-.28,.08-.63-.1-.77-.41-.13-.31,0-.73,.27-.79,1.85-.44,2.9-2.56,5.04-2.38,.07,0,.16-.07,.22-.04,2.34,.85,4.25-.67,6.37-1.07,3.99-.74,8.02-1.01,11.81,1.01,.19,.1,.35,.28,.55,.45-.55,.63-.89,1.04-2,.93-3.41-.35-6.85-1.07-10.29-.19-1.09,.09-2.17,.23-3.24,.41Z"/><path class="cls-39" d="M213.73,273.82c-2.91-1.15-5.73-2.53-8.73-3.46-.84-.26-1.45-.83-1.99-1.48-1.08-1.29-2.16-2.58-3.24-3.86-.18-.22-.15-.42,.07-.59,.15,.07,.29,.15,.44,.22,.19,.06,.35,.18,.48,.33,4.29,2.5,8.58,4.99,12.86,7.5,.39,.23,.72,.55,1.08,.82,.02,.82-.39,.82-.97,.52Z"/><path class="cls-39" d="M194.22,264.99c-1.44-.87-2.62-2.05-3.86-3.15-.41-.37-.7-.79-.73-1.36,1.69-1.28,3.3-2.64,4.84-4.78,.7,3.45,1.65,6.39-.25,9.29Z"/><path class="cls-39" d="M147.85,264.09c-.83,1.26-2.49,1.52-3.31,2.8-1.73-.41-2.9-1.61-4.03-2.86-1.09-1.21-.52-2.61-.42-4.1,1.61,.32,2.5,1.7,3.81,2.35,1.3,.64,2.63,1.21,3.95,1.81Z"/><path class="cls-70" d="M198.43,193.94c1.38-.03,2.76-.06,4.15-.08,.79,0,1.54-.09,2.02-.84,.99,3.12-.72,5.23-4.03,4.98-.46-.03-.68-.28-.74-.7-.16-1.25-.98-2.22-1.4-3.36Z"/><path class="cls-27" d="M193.36,220.44c-.77-.77-.46-1.65-.24-2.51,.19-.72,.44-1.42,.66-2.13,.3-.23,.61-.46,.84-.63,.37-.03,.49,.14,.57,.37q.6,1.94,2.21,.57c1.17,.8,.05,1.99,.5,2.91-.42,.89-.82,1.78-1.26,2.65-.24,.46-.51,1.06-1.15,.85-.56-.18-.28-.76-.29-1.18-.02-.53,.01-1.06,0-1.59-.01-.39-.13-.81-.52-.93-.44-.12-.65,.24-.81,.61-.15,.34-.33,.67-.49,1Z"/><path class="cls-39" d="M141.75,215.32c.81,.9,.86,2.27,1.9,3.05,.34,.26,.43,.85,.97,.88,1.01,.05,.82,.7,.65,1.3-.26,.94-.39,1.9-.42,3.22-2.76-2.54-4.34-5.25-3.91-8.88,.51-.29,.6,.17,.8,.44Z"/><path class="cls-42" d="M163.18,240.82c-1.23,.81-2.74,.74-4.05,1.28-.83,.34-1.75,.45-2.47,1.05-1.05,.55-2.04,.5-2.99-.24-.24-.18-.57-.3-.46-.69,.11-.4,.4-.83,.77-.71,1.6,.52,2.8-.4,4.11-.98,1.73-.76,3.44-.6,5.09,.29Z"/><path class="cls-16" d="M178.59,240.87c-.76-.79-1.74-.45-2.63-.49-.85-.04-1.7,0-2.55,0,.8-.81,1.93-1.14,2.7-2.04,1.09-1.29,1.81-1.27,3.01-.26,1.1,.93,.42,1.73-.16,2.54-.08,.11-.24,.17-.37,.25Z"/><path class="cls-58" d="M213.73,273.82c.37-.08,.71-.22,.97-.52,1.83,.8,3.44,1.99,5.15,3.01,2.29,1.37,4.66,2.62,7,3.92-.2,.18-.4,.37-.59,.55-2.12-.78-3.87-2.22-5.86-3.25-2.25-1.18-4.45-2.47-6.66-3.72Z"/><path d="M168.77,221.76c-.44-.2-1.24-.01-.98-.94,1.08-.5,2.19-.72,3.36-.37,.48,.15,.72,.02,.76-.47,.79,.61,1.09,1.5,1.41,2.39-.67,2.21-1.16,2.38-2.73,.71-.55-.58-1.29-.78-1.83-1.31Z"/><path class="cls-39" d="M153.51,263.56c-.79,.84-1.63,.43-2.46,.09-.25-.77-1.34-.79-1.48-1.64,.23-.39,.63-.45,.98-.58q1.54-.59,2.31,.91c.21,.41,.44,.81,.66,1.22Z"/><path class="cls-6" d="M189.16,226.45c1-.83,1.56-2,2.35-3,.52-.64,1.04-1.28,1.78-1.7,.53,1.68-.2,2.81-1.6,3.64-.65,.39-1.3,.76-1.82,1.36-.21,.24-.56,.02-.71-.31Z"/><path class="cls-51" d="M168.77,221.76c.9-.1,1.61,.18,2.24,.87,1.18,1.29,1.21,1.27,2.32-.27q.36,1.73-1.88,3.11c.02-.85-.64-1.28-1.12-1.83-.53-.61-1.04-1.25-1.55-1.88Z"/><path class="cls-59" d="M173.06,173.45c-.36,.16-.72,.33-1.07,.49,0,.43-.06,.84-.49,1.07-.2,.08-.4,.09-.6,.03-.2-.05-.39-.1-.59-.13-.83-.31-1.78-.27-2.5-.89-.56-.58-1.33-.39-2-.56,2.42-1.07,4.84-.79,7.26-.02Z"/><path class="cls-37" d="M194.17,204.32c1.55,.81,2.17,2.02,2.74,3.26,.23,.5,.05,.9-.45,1.11-.5,.2-.94,.08-1.11-.45-.4-1.21-.74-2.44-1.18-3.92Z"/><path class="cls-11" d="M197.38,215.43c-.31-.43-.54-.99-.96-1.25-1.12-.69-.91-1.58-.59-2.83,1.08,1.11,2.15,1.93,2.15,3.47-.05,.35-.24,.58-.61,.62Z"/><path class="cls-34" d="M197.38,215.43c.2-.21,.4-.41,.61-.62,.95,1.43,.38,2.82-.09,4.22-.73-.87-.2-1.96-.5-2.91,0-.23-.01-.46-.02-.68Z"/><path class="cls-8" d="M149.1,222.82c.63,.34,.67,.94,.68,1.55,.01,.59-.1,1.21,.43,1.67-.05,.47-.27,.84-.91,1.22-.39-1.52,.41-3.05-.2-4.44Z"/><path class="cls-21" d="M196.09,201.38c.73-.58,1.24-.45,1.48,.48-.09,.34-.13,.87-.55,.82-.67-.08-.68-.82-.94-1.29Z"/><path d="M143.22,214.87v-2.45c.12-.03,.24-.06,.36-.08,.17,.85,.34,1.7,.51,2.55-.29,.24-.58,.24-.87-.01Z"/><path d="M170.64,264.49c-.25,0-.53-.05-.49-.32,.06-.42,.42-.61,.81-.67,.25-.04,.47,.1,.46,.36-.02,.48-.41,.57-.78,.63Z"/><path d="M172.76,226.7c.39-.02,.57,.22,.55,.55,0,.2-.12,.5-.27,.56-.34,.14-.59-.11-.69-.42-.12-.36,.07-.58,.41-.69Z"/><path class="cls-28" d="M166.43,236.61c1.03-.52,2.09-.81,3.24-.41-1.02,.6-2.1,.75-3.24,.41Z"/><path class="cls-69" d="M147.35,207.94c-.26,.29-.59,.44-.96,.49-.5-.47-.59-1.02-.43-1.69,.72,.21,.88,.91,1.39,1.2Z"/><path class="cls-14" d="M142.38,256.82c0,.39,.01,.72-.4,.73-.36,.01-.55-.26-.57-.58-.02-.32,.12-.59,.47-.66,.5-.1,.33,.4,.5,.51Z"/><path d="M143.11,245.12c-.04,.23-.1,.46-.37,.47-.08,0-.24-.2-.23-.3,.03-.28,.07-.62,.48-.57,.06,0,.08,.26,.12,.4Z"/><path class="cls-57" d="M199.84,264.42c-.02,.2-.05,.39-.07,.59-.48-.46-1.59-.36-1.31-1.49,.54,.18,1.06,.39,1.38,.9Z"/><path class="cls-72" d="M135.39,268.75c-.21-.19-.43-.39-.64-.58,.48-.33,.95-.66,1.43-.99,.47,.89-.33,1.15-.79,1.57Z"/><path d="M189.1,248.78c-.02,.23-.09,.47-.34,.48-.29,.01-.33-.23-.27-.46,.05-.21,.15-.45,.43-.39,.08,.02,.12,.24,.18,.36Z"/><path d="M195.04,254.5c.12,.08,.31,.14,.34,.24,.08,.28-.11,.43-.36,.45-.12,0-.33-.12-.35-.21-.04-.25,.11-.42,.37-.48Z"/><path class="cls-24" d="M145.06,259.42c.13-.41,.41-.41,.68-.19,.25,.2,.28,.49,.15,.81-.11,.29-.37,.36-.21,.09,0,0-.12-.08-.18-.13-.11-.23-.26-.43-.45-.59Z"/><path d="M159.22,261.2c-.07,.09-.13,.19-.2,.28-.08-.09-.17-.18-.24-.28-.01-.02,.08-.15,.1-.15,.12,.04,.22,.1,.34,.15Z"/><path class="cls-32" d="M143.22,214.87c.29,0,.58,0,.87,.01,.02,.43,.08,.95-.59,.85-.51-.08-.35-.52-.28-.86Z"/><path d="M142.58,247.26c-.06,0-.12,0-.17,0,0-.11,0-.23,.01-.34,0,0,.16,0,.16,0,0,.11,0,.23,0,.34Z"/><path class="cls-49" d="M141.75,215.32c-.27-.15-.53-.29-.8-.44,0-.26,.14-.46,.37-.42,.52,.07,.45,.49,.43,.86Z"/><path d="M230.79,385.8c0,.06,.02,.14,0,.18-.1,.12-.2,.08-.22-.09,0-.04,.04-.12,.09-.14,.03-.02,.09,.03,.14,.06Z"/><path class="cls-57" d="M200.75,264.98c-.24,0-.4-.1-.48-.33,.24,0,.39,.12,.48,.33Z"/><path class="cls-29" d="M145.06,259.42c.15,.2,.3,.4,.45,.59-.27-.11-.48-.26-.45-.59Z"/><polygon class="cls-39" points="160.08 227.65 160.21 227.6 160.11 227.68 160.08 227.65"/><path class="cls-61" d="M198.93,248.23c-.15,.07-.21,.03-.19-.11,0,0,.08-.01,.12,0,.3,.09-.13-.11,.02,.16,0,0,.05-.05,.05-.05Z"/><path class="cls-25" d="M163.39,229.31c.04,.05,.12,.11,.11,.15,0,.05-.09,.09-.14,.13-.04-.05-.12-.11-.11-.15,0-.05,.09-.09,.14-.13Z"/><path class="cls-67" d="M94.89,332.34c2.81,.34,5.3,1.59,7.55,3.14,2.5,1.71,4.72,3.81,7.56,5.61-1.04,.39-1.79,.67-2.54,.96-.17,1.16,.53,.59,.99,.5,.96,.15,1.83-.28,2.74-.42,2.18,.49,4.35,.06,6.38-.52,1.99-.57,4.08-1.04,5.93-1.88,6.93-3.15,14.4-4.62,21.52-7.14,9.25-3.27,18.68-5.93,28.12-8.55,6.23-1.73,12.68-2.61,19.13-3.27,.71-.07,1.36,.2,2.03,.37,1.23,.65,1.56,1.88,1.82,3.06,.77,3.47,.91,6.97,.12,10.47-.88,1.61-1.82,3.19-2.05,5.07-1.15,2.06-3.28,3.23-4.63,5.1-.45,.62-.9,.37-1.36,0-1.22-.94-2.43-1.89-3.79-2.62-1.1-.59-2.16-1.15-3.49-.8-1.13,.3-1.67-.38-2.04-1.36-.65-1.74-1.03-3.54-1.31-5.37-.13-.84-.25-1.67-.43-2.5-.12-.57-.14-1.38-1.02-1.23-.95,.17-.84,.97-.68,1.66,.25,1.06,.35,2.12,.34,3.21,.04,.64,.66,1.51-.64,1.63-.8,.38-.81,1.02-.62,1.76,.32,1.21,.89,2.29,1.54,3.35,.87,1.42,.63,2.02-.96,2.58-.95,.33-1.94,.52-2.77,1.13-.5,.36-1,.33-1.53,.09-1.05-.49-2.24-.84-2.93-1.81-1.29-1.83-3.27-3.09-4.21-5.19-.14-.32-.35-.55-.68-.47-.42,.1-.62,.45-.6,.87,.05,1.07,.63,1.9,1.32,2.64,1.63,1.74,2.96,3.75,4.99,5.26-3.72,2.5-6.8,5.53-10.2,8.16-2.45,1.9-5.25,3.24-7.91,4.82-6.71,3.98-13.39,8.01-20.2,11.82-3.48,1.95-6.97,4-11.02,4.71-3.61,.64-7.17,1.23-10.62-.66-1.38-.76-2.47-1.82-3.52-2.94-.08-1.31-1.28-1.85-1.95-2.74-1.91-2.56-2.93-5.53-4.23-8.37-.69-1.9-.66-3.88-.76-5.86-.03-.62,0-1.3-.97-1.09-2.29-1.87-2.64-6.22-.74-9.2q1.99-3.12-.56-5.69c-1.52-1.52-3.09-3-3.83-5.11-.06-.92-.57-1.77-.4-2.73,.99-.54,2.14,.09,3.13-.45Z"/><path class="cls-39" d="M117.63,336.96c-.39,0-.78,.03-1.16-.02-2.11-.27-2.37-.57-1.94-2.65,.3-1.45,.44-2.89,.27-4.37-.19-1.7,.39-2.96,1.96-3.82,1.2-.66,2.22-1.61,3.15-2.63-.45-.64-.87-.34-1.23-.12-1.31,.8-2.56,1.69-3.93,2.42-1.29,.7-1.6,2.2-1.73,3.61-.08,.92-.08,1.85-.05,2.78,.03,.97-.42,1.32-1.35,1.48-2.97,.53-3.51,.13-3.2-2.79,.22-2.07,.63-4.12,.9-6.18,.1-.79,.49-1.28,1.16-1.58,3.03-1.37,6.27-2.1,9.46-2.99,.62-.17,1.05,.08,1.04,.82-.02,.83,.52,.87,1.09,.67,3.51-1.23,6.32,.36,9.03,2.24,1.01,.7,1.97,1.5,2.85,2.35,1.49,1.44,3.24,2,5.28,1.86,1.71-.11,1.71-.09,3.14,1.52-3.67,1.15-7.32,2.08-10.69,3.75-.41,.16-.82-.06-1.23,0-1.63,.03-3.2,.25-4.46,1.42-.02,.18-.03,.37-.04,.55-.02,.09-.04,.18-.06,.27-.08,.16-.2,.3-.35,.4-1.5,.59-3.02,1.13-4.82,1.35-.38-1.55-.35-3.17-1.07-4.62-.37-.75,.4-1.29,.89-1.72,1.33-1.19,2.47-2.55,3.54-3.97,.36-.48,.83-.91,.93-1.56-.47-.53-.86-.13-1.16,.15-1.56,1.5-3.09,3.01-4.8,4.35-1.24,.98-1.76,2.3-1.16,3.92,.19,.5,.22,1.05,.33,1.58,.05,.6,.59,1.39-.58,1.53Z"/><path class="cls-39" d="M194.3,321.13c-1.81,1.1-3.89,.88-5.86,1.14-10.15,1.34-19.98,3.96-29.7,7.09-9.48,3.05-19.04,5.88-28.52,8.93-3.89,1.25-7.78,2.53-11.56,4.13-2.21,.94-4.53,.73-6.82,.3-.25-.05-.44-.4-.65-.61,2.78-.89,5.67-1.41,8.4-2.49,.77-.3,1.65-.39,2.49-.46,.71-.06,1.38-.21,1.98-.56,5.56-3.23,11.54-5.41,17.73-7.02,6.32-1.65,12.49-3.8,18.82-5.38,3.21-.8,6.41-1.65,9.58-2.59,4.21-1.25,8.45-2.36,12.73-3.33,2.18-.49,4.36-.96,6.55-1.37,2.1-.39,3.82,.15,4.83,2.21Z"/><path class="cls-39" d="M197.01,339.25c.77-2.58,1.7-5.12,1.79-7.86,.09-2.83-.44-5.52-1.52-8.12-.12-.28-.21-.57-.29-.87-.01-.05,.07-.12,.15-.26,.82-.27,1.35,.35,1.99,.72,7.32,4.18,12.07,10.83,17.23,17.63-6.37-.77-12.34-1.17-18.33-1.17-.35,.18-.69,.2-1.01-.07Z"/><path class="cls-39" d="M92.16,335.52c1.87,1.26,3.26,3.04,4.84,4.6,1.03,1.02,1.87,2.24,2.81,3.4-.91,.77-1.55,2.3-2.58,3.56-.77,.92-1.09,2.28-.89,3.68,.23,1.61,.7,3.15,.96,4.75-.78,1.74-.51,3.55-.33,5.35,.07,.67,.24,1.33,.36,2,.12,.45,.41,.99-.48,.92-3.6-4.03-3.65-8.95-3.34-13.9,.25-3.95-.22-7.81-1-11.65-.18-.91-.33-1.8-.35-2.72Z"/><path class="cls-39" d="M235.07,349.87c.78,1.25,2.27,1.53,3.32,2.42,.92,.79,.89,1.07-.18,1.62-1.96,1.03-3.91,.94-5.71-.27-3.39-2.28-7.2-3.83-10.56-6.2-3.51-2.48-7.63-3.63-11.79-4.56,.56-1.14,1.46-.54,2.26-.43,7.97,1.19,15.64,3.3,22.66,7.42Z"/><path class="cls-39" d="M104.21,329.49c-.48,.03-1.14-.39-1.27,.49-.11,.74,.28,1.14,.98,1.31,.87,.21,1.63-.3,2.46-.36,.67,4.31,1.55,4.89,5.75,3.84,.1,.09,.28,.18,.29,.29q.21,2.87,3.75,3.61c.52-.15,.66,.09,.57,.56-1.47,.43-2.95,.84-4.42,1.29-.81,.25-1.41,.19-2-.57-1.76-2.27-4.18-3.85-6.38-5.64-2.08-1.69-4.57-2.79-7.34-3.05-.98-.09-1.94-.35-3.08-.56,.92-2,2.61-2.63,4.42-2.96,1.68-.3,3.4-.39,4.86,.8,.73-.09,1.45-.15,1.4,.94Z"/><path class="cls-39" d="M104.21,329.49l-1.4-.94c.52-1.64,.44-3.35,.59-5.04,.23-2.64,1.9-4.48,3.46-6.37,.54-.65,1.36-.7,2.14-.45,1.93,.62,3.66,1.54,4.95,3.37-1.61,.57-3.09,1.14-4.48,1.95-.88,.52-1.41,1.13-1.61,2.09-.27,1.28-.6,2.54-.82,3.83-.37,2.23-.47,2.3-2.83,1.55Z"/><path class="cls-41" d="M102.79,320.19c-.89,1.69-.94,3.54-.95,5.38,0,.94-.41,1.23-1.26,1.11-.38-.05-.82,0-1.13-.17-.7-.39-1.58,.52-2.15-.29-.57-.83-.89-1.78-.98-2.8-.03-.31-.05-.61-.06-.92q-.06-1.78,1.77-1.92c.37-.03,.95,.03,1.09-.18,.71-1.07,1.74-.68,2.68-.73,.49-.14,1.03-.38,.99,.51Z"/><path class="cls-39" d="M229.04,338.26c0-.81,.32-1.33,1.21-1.34,2.54-.01,5.09-.11,7.62,.26,.23,.03,.45,.1,.67,.17,.47,.14,.86,.41,.91,.93,.05,.6-.51,.7-.9,.89-.27,.13-.6,.16-.9,.17-3.93,.07-7.84,.35-11.75,.78-.29,.03-.61,.05-.87-.26,.51-.76,1.3-.65,2.05-.67,.65-.02,1.39,.38,1.93-.33,0-.19,.01-.39,.02-.58Z"/><path class="cls-44" d="M99.02,362.46c.15-.14,.38-.52,.47-.32,1.7,3.81,3.94,7.33,5.86,11.01,.05,.09-.1,.27-.15,.41-3.56-2.87-5.87-6.44-6.18-11.11Z"/><path class="cls-3" d="M143.61,326.15c.38-.34,.85-.37,1.3-.32,2.44,.25,4.89,.42,7.38,.49-1.5,1.06-3.17,1.55-4.94,1.78-1.11-.9-2.96-.39-3.74-1.95Z"/><path class="cls-39" d="M143.61,326.15c.67,.05,1.35,.05,2.02,.16,.98,.17,1.62,.74,1.72,1.79-.26,.14-.51,.33-.79,.43-1.4,.48-3.1-.38-3.56-1.85-.09-.29,.32-.45,.61-.53Z"/><path class="cls-43" d="M61.57,329.54c.62-.1,1.29,0,1.79-.49,.32,.02,.63,.04,.95,.06,.19,.13,.49,.14,.54,.45-2.14,1.13-4.62,1.28-6.8,2.35-.85,.42-.98-.34-1.03-.98,1.56-.3,3.08-.75,4.55-1.38Z"/><path class="cls-39" d="M168.3,321.64c2.47-.63,4.86-1.6,7.44-1.83,.27,.24,.76,.01,.95,.44-2.36,.94-4.89,1.23-7.32,1.91-.47,.08-1.08,.44-1.06-.51Z"/><path class="cls-35" d="M175.13,337.46c.46-.44,.55-1.03,.64-1.62,.47,2.39,1.31,4.64,2.73,6.59-.71,.6-1.02,.22-1.29-.14-1.08-1.44-1.6-3.12-2.08-4.82Z"/><path class="cls-1" d="M168.3,321.64c.35,.17,.71,.34,1.06,.51-2.3,.87-4.65,1.54-7.09,1.84,.11-.85,.9-.73,1.4-.91,1.52-.54,3.08-.97,4.63-1.43Z"/><path class="cls-68" d="M67.94,328.49c.23-.36,.63-.39,.98-.5,1.71-.26,3.41-.51,5.12-.77,.17,.02,.33,.05,.5,.07,.21,.1,.54,.07,.54,.43-2.18,.66-4.44,.86-6.68,1.23-.17-.14-.48-.14-.47-.47Z"/><path class="cls-9" d="M194.19,339.73c-.17-.12-.51-.3-.49-.36,.58-1.71,1.07-3.48,2.54-4.7-.37,1.81-1.17,3.46-2.05,5.07Z"/><path class="cls-28" d="M176.12,319.71c1.84-.41,3.65-1.23,5.59-.5-1.51,.5-3.05,.86-4.64,.99-.24-.31-.77-.07-.95-.49Z"/><path class="cls-62" d="M92.63,327.58c-1.39-.16-2.79-.32-4.18-.47-.11-.05-.21-.1-.32-.16,.11-.05,.21-.1,.32-.16,1.89-.02,3.78-.05,5.67-.05,.29,0,.64,.13,.41,.54-.1,.17-.35,.25-.53,.38-.46,.05-.9-.25-1.37-.08Z"/><path class="cls-71" d="M207.74,342.47c-1.55-.43-3.24-.35-4.63-1.32,1.93,.03,3.83,.34,5.7,.8-.2,.5-.79,.19-1.07,.53Z"/><path class="cls-55" d="M116.73,339.24c-.19-.19-.38-.37-.57-.56,.4-.18,.79-.38,1.19-.55,.66-.27,.65-.68,.27-1.18,.51-.39,.39-1.02,.58-1.53,.69,2.72,.57,3.03-1.48,3.81Z"/><path class="cls-48" d="M94.89,332.34c-.99,.48-1.94,1.27-3.13,.45-.03-.48-.01-.96,.67-.87,.82,.11,1.64,.27,2.46,.41Z"/><path class="cls-46" d="M207.74,342.47c.36-.18,.71-.35,1.07-.53,1.22,.03,2.46-.1,3.6,.52-.73,.24-1.59-.16-2.26,.43-.8-.14-1.61-.28-2.41-.42Z"/><path class="cls-40" d="M130.67,332.74c.34,.19,.67,.38,1.01,.57-.99,.82-2.24,1.13-3.38,1.66-.31-.11-.6-.25-.6-.64,.58-1.3,1.98-1.06,2.97-1.58Z"/><path class="cls-61" d="M67.94,328.49c.16,.16,.31,.31,.47,.47-1.2,.14-2.31,.75-3.56,.59-.18-.15-.36-.3-.54-.45,.77-.19,1.53-.39,2.3-.58,.45-.01,.89-.02,1.33-.03Z"/><path class="cls-53" d="M88.45,326.79c0,.1,0,.21,0,.31h-4.11c1.36-.55,2.74-.41,4.11-.31Z"/><path class="cls-23" d="M102.79,320.19c-.33-.17-.66-.34-.99-.51,.88-.28,.61-1.48,1.44-1.8,0,0,.2-.09,.2-.09,.31,.13,.65,.25,.32,.68,.12,.83-.47,1.24-.98,1.71Z"/><path d="M77.25,327.2c.48-.19,.96-.38,1.44-.57,.17,.04,.33,.09,.5,.13,.21,.08,.36,.22,.44,.43-.73,.55-1.56,.45-2.39,.39-.17-.09-.23-.18-.17-.26,.06-.08,.12-.12,.18-.12Z"/><path d="M108.45,342.53c-.79,.46-1.62,.58-2.61,.33,.44-.72,1.01-.8,1.62-.82,.33,.17,.66,.33,.99,.5Z"/><path d="M79.63,327.2c-.15-.14-.29-.29-.44-.43,.87-.02,1.74-.16,2.77,.11-.86,.49-1.61,.22-2.33,.31Z"/><path class="cls-26" d="M197.01,339.25c.34,.02,.68,.05,1.01,.07-.44,.34-1.06,.54-.98,1.27-.24,0-.48,.01-.72,.02,.19-.47,.11-1.08,.68-1.37Z"/><path class="cls-52" d="M77.25,327.2c.01,.13,0,.26-.02,.38-.72,.05-1.43,.1-2.15,.14-.18-.14-.36-.29-.54-.43,.89-.26,1.81-.04,2.71-.1Z"/><path class="cls-58" d="M103.77,318.47c-.11-.23-.22-.45-.32-.68,.23-.76,.66-.86,1.26-.38-.22,.43-.45,.86-.93,1.06Z"/><path class="cls-12" d="M96.84,363.79c.16-.31,.32-.62,.48-.92,.12,.27,.26,.53,.34,.8,.09,.28,.13,.71-.13,.78-.42,.11-.6-.28-.69-.66Z"/><path class="cls-39" d="M92.63,327.58c.49-.45,.95-.45,1.37,.08-.5,.62-.92,.1-1.37-.08Z"/><path class="cls-64" d="M127.83,334.57c.15,.13,.31,.27,.46,.4-.59,.24-1.12,.67-1.8,.66-.16-.2-.21-.42-.14-.67,.38-.57,.83-.86,1.48-.39Z"/><path class="cls-66" d="M97.56,319.58c-.22,.28-.52,.26-.81,.19-.26-.07-.35-.27-.2-.48,.13-.19,.36-.29,.6-.19,.21,.09,.41,.2,.4,.49Z"/><path class="cls-50" d="M113.79,317.52c.21-.18,.44-.47,.72-.24,.3,.25,.02,.49-.15,.71-.19-.16-.38-.31-.57-.47Z"/><path class="cls-15" d="M135.16,324.44c.66,.04,1,.4,1.03,1.05-.53-.17-.86-.53-1.03-1.05Z"/><path class="cls-22" d="M126.5,335.1c0,.18,0,.36,0,.54-.25,.34-.57,.44-.97,.32,.02-.15,.04-.3,.05-.45,.18-.41,.44-.67,.92-.41Z"/><path class="cls-47" d="M176.12,319.71c.35,.1,.72,.16,.95,.49,0,0-.19,.08-.19,.08l-.2-.03c-.32-.15-.63-.29-.95-.44,.13-.04,.26-.08,.39-.1Z"/><path class="cls-56" d="M133.01,322.88c.15-.12,.3-.28,.49-.1,.04,.03-.07,.22-.12,.33-.15-.04-.27-.12-.37-.23Z"/><path class="cls-33" d="M95.79,326.21c.2,0,.28,.08,.24,.22,0,0-.12,0-.15-.04-.04-.06-.04-.14-.06-.21,0,0-.03,.03-.03,.03Z"/><path class="cls-28" d="M182.19,319.03c.15-.08,.31-.15,.46-.23-.15,.08-.31,.15-.46,.23Z"/><path class="cls-67" d="M97.69,317.74c.09-.26,.27-.33,.51-.21-.11,.22-.28,.29-.51,.21Z"/><path d="M181.33,568.85c.82,1.96,.73,4.07,1.07,6.12,.98,5.85,1.87,11.72,3.2,17.52,1.56,6.84,2.21,13.84,3.42,20.75,.2,1.12-.54,1.63-1.34,2.31-.53-.54-.78-1.12-.75-1.7,.15-3.68-1.14-7.13-1.71-10.69-1.37-8.6-2.75-17.2-3.81-25.85-.3-2.44-.39-4.91-.58-7.37,.31-.29,.03-.85,.5-1.07Z"/><path d="M173.45,519.21c-.16,.5-.32,.99-.48,1.49-.24-1.22-.62-2.42-.5-3.69,.17-.21,.35-.42,.52-.64,.44,.9,.35,1.88,.47,2.83Z"/><path d="M181.33,568.85c-.17,.36-.33,.71-.5,1.07-.04-.27-.07-.53-.11-.8,.14-.51,.14-1.07,.51-1.51,.15,.4,.21,.81,.1,1.23Z"/><path class="cls-67" d="M176.17,536.5c-.03,.46-.06,.92-.09,1.37-.31-.4-.41-.85-.31-1.34,.13,0,.27-.01,.4-.03Z"/><path class="cls-20" d="M176.73,541.59c.16,.01,.32,.03,.48,.04-.07,.34-.15,.67-.22,1.01-.22-.31-.31-.66-.26-1.05Z"/><path class="cls-67" d="M113.92,613.16c-.42,.05-.7-.14-.9-.49,.41-.04,.69,.16,.9,.49Z"/><path class="cls-67" d="M161.41,536.14c.08-.17,.16-.33,.24-.5,.06,.23-.02,.4-.24,.5Z"/><path d="M213.73,294.67c1.58-.28,1.76-.18,1.41,1.13-.72,2.66-1.42,5.32-1.45,8.11-.3,1.17-.28,1.25,.48,1.41,1.32-2.81,3.07-5.36,4.86-7.88,.22-.32,.46-.62,.7-.92,.44-.53,.89-1.29,1.67-.68,.7,.54,.04,1.13-.27,1.6-1.97,2.97-3.65,6.09-5.31,9.24-2.78,5.26-4.61,10.77-5.37,16.68-.19,1.46-.11,3.1-1.34,4.28,0,0,.04,.03,.04,.03-.31-3.23,.28-6.4,.61-9.59,.09-.83,.32-1.65,.19-2.5-.69-.52-.84-1.22-.73-2.05,.62-4.64,1.39-9.27,1.84-13.93,.13-1.3,.71-2.51,1.37-3.65,.16-.35,.39-.64,.73-.83,.21-.13,.4-.29,.58-.46Z"/><path d="M154.99,276.28c.61-.13,.88,.15,1.16,.41,3.02,2.72,6.6,4.55,10.17,6.37,5.29,2.69,10.32,1.82,15.1-1.31,2.73-1.79,5.06-4.04,7.18-6.51,.37-.43,.7-1.48,1.55-.8,.68,.55,.25,1.26-.19,1.84-3.52,4.7-7.88,8.28-13.66,9.78-2.82,.73-5.77,.53-8.44-.52-4.39-1.74-8.48-4.09-11.88-7.45-.46-.46-1.14-.84-1.01-1.8Z"/><path class="cls-39" d="M213.33,295.59c-1.03,2.61-1.35,5.34-1.64,8.12-.42,3.98-1.14,7.92-1.74,11.88-.81,1.12-.29,2.9-1.95,3.83-.71-2.8,.39-5.41,.09-8.02-1.31-1.31-.35-2.56,.11-3.82-.8-4.61,1.08-8.43,3.55-12.09,.51-.76,1.17-.92,1.99-.82-.05,.16-.1,.31-.14,.47-.04,.18-.13,.32-.26,.45Z"/><path d="M208.19,307.58c.69,1.29-.22,2.54-.11,3.82-.58,2.39-1.14,4.78-1.74,7.16-.2,.81-.31,1.67-.96,2.45-.82-.67-.56-1.53-.44-2.28,.32-2.05,.72-4.09,1.11-6.14,.25-1.29,.55-2.56,.79-3.85,.15-.76,.42-1.33,1.35-1.17Z"/><path d="M226.77,283.49c-.04,.3-.07,.6-.11,.9-1.52,1.2-1.82,3.3-3.41,4.8-.52-1.87,.55-2.96,1.23-4.15,.49-.87,1.03-1.77,2.29-1.56Z"/><path d="M214.17,305.32c-.04,.38-.21,.69-.7,1.05-.33-.92-.07-1.69,.22-2.47,.14,.48,.1,1.02,.48,1.41Z"/><path class="cls-4" d="M160.73,283.74c-.12,.09-.21,.2-.31,.21-.12,0-.25-.07-.38-.11,.07-.08,.14-.23,.22-.24,.12-.01,.25,.07,.46,.14Z"/><path d="M176.16,209.29c-.55-.42-1.14-.8-1.63-1.29-.52-.52-1.5-1.23-.84-1.87,.53-.51,1.16-1.83,2.41-1.02,.85,.55,1.87-1,2.58,.4,.42-.78,.75-1.38,1.04-1.91,.69-.22,1.05,.21,1.2,.58,.45,1.07,1.49,1.09,2.27,1.58,1.07,.66,1.85,.22,2.77,.1,1.49-.18,2.97,.06,4.44,.18,.51,.04,.8,.45,.89,.94,.09,.45-.29,.67-.58,.91-.56,.46-1.23,.77-1.91,.76-2.72-.08-5.35,.65-8.04,.74-1.54,.5-3.09,1.15-4.59-.1Z"/><path d="M155.73,209.24c-.31,0-.62,0-.93,0-.29-.26-.71-.19-1.03-.37-.9,.99-2.71,1.25-2.48,3.15,.02,.14-.24,.4-.43,.47-1.11,.42-2.16,1.14-3.74,.95,1.49-2.13,2.97-3.92,4.59-5.6,.54-.56,4.57-2.19,5.36-2.09,.46,.06,.73-.06,1-.32,.45-.44,.86-.83,1.6-.45,.62,.32,1.08-.22,1.3-.66,.7-1.37,1.71-.65,2.52-.35,.83,.3,1.07,1.03,.58,1.89-.81,1.39-1.82,2.48-3.56,2.58-.55,.22-1.1,.22-1.66,0h-.18c-.35,.15-.78,.09-1.08,.39-.1,.07-.21,.09-.33,.08-.47,.27-1.06,0-1.52,.35Z"/><path class="cls-10" d="M175.67,216.78c-1.22-.64-1.06-1.72-.82-2.77,.25-1.1,.62-2.17,.93-3.26,.51-.43,1-.07,1.5,.03,.59,.18,1.31,.04,1.73,.66,.02,.52,.14,.83,.78,1.06,.87,.31,2.05,.28,2.44,1.46,.33,.46,.25,.86-.17,1.2-.42,.34-.84,.67-1.26,1.01-.64,1.43-1.66,.8-2.63,.5-.63-.19-1.22-1.07-1.96-.18-.15,.13-.33,.22-.52,.28Z"/><path d="M182.22,213.98c-1.74,.14-3.19-.42-4.36-1.78,.34-.16,.67-.32,1.01-.47-.27-.44-.09-.77,.27-1.06,.1-.03,.2-.05,.3-.08,1.5-.09,3.01-.2,4.5,.11,.87,.1,1.18,.61,1.06,1.43-.09,.2-.27,.42-.26,.61,.06,1.04-.31,1.51-1.41,1.24-.35-.09-.74-.01-1.11-.01Z"/><path d="M159.4,212.93c-.13,.03-.27,.06-.4,.09-1.54-.17-2.97,.82-4.55,.45-.22-1.06,.99-.7,1.26-1.22-.29-.83-1.24-.1-1.64-.93,1.45-.97,3.08-1.51,4.81-1.65,.83-.07,1.58,.21,.71,1.36-.51,.66,.61,.89,.72,1.46,0,0,.02,0,.02,0-.21,.35-.65,.25-.93,.46Z"/><path d="M175.68,216.27c-.4-.73-.53-1.44,.28-2.21,1.43,1.02,2.61,2.85,4.82,2.12,.82-.12,1.65-.25,2.47-.37,.53-.07,1.07-.15,1.57,.1,.34,.17,.64,.45,.58,.89-.05,.38-.41,.45-.69,.45-2.21-.04-4.37,.75-6.6,.38-1.28,.37-1.78-.63-2.43-1.37Z"/><path class="cls-13" d="M185,212.13c-.66-.25-.59-1.04-1.06-1.43,1.02-.79,2.15-1.04,3.42-.76-.51,2.26-.59,2.34-2.36,2.19Z"/><path class="cls-31" d="M176.67,211.57c-.3-.27-.59-.55-.89-.82-.06-.54,.09-1.02,.38-1.46,1.53,.03,3.06,.06,4.59,.1-.13,.74-.85,.83-1.32,1.2,0,0-.02,.12-.02,.12-.8,.67-1.98,.11-2.75,.86Z"/><path d="M170.78,205.66c.77-1.24,1.52-2.48,2.31-3.7,.15-.24,.42-.49,.78-.31,.3,.15,.52,.45,.36,.75-.76,1.45-1.37,3.05-3.45,3.27Z"/><path d="M167.34,204.68c.06-.67-.03-1.49,.76-1.93,.12-.06,.44,.1,.58,.25,.61,.65,.42,1.41,.23,2.16-.06,.22-.16,.43-.26,.63-.15,.29-.41,.52-.72,.49-.45-.04-.58-.43-.6-.84,0-.23,0-.46,0-.76Z"/><path class="cls-7" d="M175.68,216.27c.79,.48,1.81,.57,2.43,1.37,.38,1.95,1.98,1.2,3.14,1.43-.82,.69-2.05,.15-2.84,.95-.9-1.09-2.19-1.85-2.74-3.23,0-.17,0-.34,0-.51Z"/><path d="M189.76,211.12c-.62,.06-.95,.05-1.07-.28-.12-.32,.09-.61,.34-.77,.64-.4,1.31-.79,2.11-.73,.3,.02,.59,.19,.68,.52,.1,.36-.14,.58-.42,.69-.63,.25-1.28,.44-1.64,.56Z"/><path d="M155.73,209.24c.45-.37,.96-.45,1.52-.35-.45,.35-.96,.44-1.52,.35Z"/><path d="M158.85,208.43c.55,0,1.1,0,1.65,0-.55,.33-1.1,.49-1.65,0Z"/><path d="M153.77,208.87c.4-.02,.74,.11,1.03,.37-.41,.05-.75-.07-1.03-.37Z"/><path d="M157.58,208.81c.3-.29,.66-.4,1.08-.38-.29,.33-.66,.41-1.08,.38Z"/><path d="M160.74,181.44c.28-.78,.68-1.5,.96-2.29,.49-1.41,1.75-2.36,2.71-3.48,.27-.31,.72-.34,1,.03,.22,.29-.02,.52-.25,.76-1.23,1.25-2.06,2.66-2.75,4.33-.63,1.51-.07,2.73,.11,3.96,.14,.95,1.2,1.98,2.11,2.55,1.1,.68,2.07,1.86,3.61,1.64,.21,.52,.06,.87-.47,1.08-.75,.3-1.59,.45-2.17-.11-.61-.59-1.1-1.19-2.03-1.25-.37-.02-.62-.41-.73-.81-.12-.44-.14-.93-.58-1.2-1.03-.65-1.32-1.51-1.15-2.74,.11-.79-.23-1.64-.36-2.47Z"/><path d="M169.65,188.9c1.26-.17,2.33-.76,3.34-1.5,.43-.32,.9-.56,.56-1.27-.24-.49,.16-.88,.53-1.16,.7-.52,1.19-1.19,1.66-1.91,.2-.3,.45-.69,.91-.48,.54,.24,.45,.74,.37,1.2-.7,.8-1.28,1.56-1.47,2.74-.29,1.78-3.55,3.61-5.32,3.25-.47-.1-.54-.47-.58-.87Z"/><path d="M163.48,213.96c-3.18,1.49-5.61,3.58-9.04,3.85,1.38-2.77,6.07-4.87,9.04-3.85Z"/><path class="cls-67" d="M159.4,212.93c.24-.3,.54-.47,.93-.46-.2,.38-.51,.53-.93,.46Z"/><path d="M167.98,175.41c.96,.64,1.48,2.29,3.14,1.34,.39-.22,.72,.01,.89,.43,.11,.28,.16,.75,.35,.81,1.78,.61,1.23,2.24,1.37,3.41,.16,1.32-.51,2.56-1.78,3.25-1.1,.6-1.2,1.91-2.04,2.83-.93-.77-1.67-1.52-3.02-1.74-1.78-.29-3.03-3.78-2.38-5.55,.19-.5,.53-.94,.52-1.51,.16-.2,.3-.41,.57-.46l-.08,.07c.15-.42,.65-.3,.89-.58h0c.43-.37,.02-1.03,.46-1.4,.18-.59,.86-.49,1.19-.87l-.08-.04Z"/><path d="M173.83,175.39c.53,.57,1.78,.09,1.9,1.05,.21,1.57,2.04,2.64,1.32,4.46-.61,.39-.84,1.29-2.01,1.3,1.04-2.22-.35-3.88-1.15-5.69-.35-.35-.34-.73-.07-1.12Z"/><path d="M173.83,175.39c.02,.37,.04,.75,.07,1.12-.34,.36-.66,.25-.95-.05-.53-.55-1.16-.94-1.91-1.13-.13-.2-.1-.36,.11-.48,.28-.3,.56-.61,.84-.91,.74,.32,1.47,.66,1.85,1.45Z"/><path d="M171.15,174.85c-.04,.16-.07,.32-.11,.48-1.02,.46-2.07-.56-3.07,.08,0,0,.07,.04,.08,.04-.39-.42-.45-.9-.25-1.43,1.04-.44,1.94-.15,2.79,.5,.19,.12,.3,.35,.55,.37v-.03Z"/><path class="cls-47" d="M166.87,176.32c.04,.53,.14,1.08-.46,1.4,0-.52,.08-1.01,.46-1.4Z"/><path class="cls-47" d="M166.41,177.72c-.14,.43-.5,.53-.89,.58,.2-.34,.51-.51,.89-.58Z"/><path class="cls-47" d="M165.6,178.23c-.1,.27-.32,.38-.57,.46,.19-.15,.38-.3,.57-.46Z"/><path d="M171.14,174.89c-.18-.12-.37-.25-.55-.37,.24,.04,.46,.11,.55,.37Z"/><path d="M126.5,335.1l-.92,.41h0c-.17-.14-.33-.28-.54-.35-.42-.36-.77-.75-.6-1.51,1.44,.18,2.69-.63,4.07-.94,.72-.16,1.45-.62,2.16,.04-.53,1.25-1.99,1.06-2.83,1.83-.51,0-.91,.29-1.33,.52Z"/><path class="cls-22" d="M125.04,335.15c.25,.01,.44,.11,.54,.35-.29,.05-.45-.1-.54-.35Z"/><path class="cls-67" d="M213.33,295.59c-.05-.23,.03-.38,.26-.45,.04,.23-.07,.36-.26,.45Z"/><path d="M176.67,211.57c-.08-.55,.14-.85,.72-.85,.68,0,1.35,0,2.03,0-.18,.34-.37,.67-.55,1.01-.74,.12-1.47-.01-2.2-.15Z"/><path class="cls-47" d="M165.85,181.7c-.02-1.23,.25-2.04,.77-2.71,1.08-1.38,4.58-.83,5.19,.87,.29,.81,.82,1.67,.3,2.65-.51,.97-1.74,1.17-2.18,2.17-.99-.58-2.28-.27-3.17-.85-.73-.48-1.07-1.48-.9-2.14Z"/></g></g><g id="Ebene_1"><g><path class="cls-67" d="M299.12,267.68c-24.33-33.18-51.7-69.22-72.72-97.65,20.7,28.74,47.81,66.52,72.72,100.08v-2.43Z"/><path class="cls-67" d="M99.17,328.1c28.97,46.64,63.9,89.12,99.26,131,0,0-.11,.1-.11,.1-18.95-19.86-36.39-41.13-52.88-63.06-16.41-21.84-32.68-44.64-46.26-68.04h0Z"/><path class="cls-67" d="M113.36,49.63c20.87,34,46.09,64.98,69.54,97.18,0,0-.12,.09-.12,.09-13.03-15.11-25.09-31.01-36.62-47.28-11.4-16.21-23.32-32.89-32.8-50h0Z"/><path class="cls-67" d="M299.12,465.71c-27.08-32.86-53.17-66.56-75.66-102.76,13.58,23.4,29.85,46.2,46.26,68.04,9.45,12.56,19.22,24.89,29.4,36.88v-2.16Z"/><path class="cls-67" d="M20.67,208.09c19.5,36.75,43.56,70.74,67.42,104.74,0,0-.12,.09-.12,.09-13.25-16.05-25.14-33.17-36.27-50.74-11.05-17.48-22.17-35.71-31.03-54.09h0Z"/><path class="cls-67" d="M299.12,306.09c-20.07-25.32-39.21-51.34-56.28-78.81,13.58,23.4,29.85,46.2,46.26,68.04,3.29,4.38,6.64,8.72,10.01,13.05v-2.27Z"/><path class="cls-67" d="M112.48,214.45c23.3,33.9,49.7,65.49,75.42,97.55,7.35,9.48,15,18.78,21.49,28.89,.87,1.48,1.82,2.93,2.37,4.59,0,0-.14,.04-.14,.04-.61-1.58-1.63-2.99-2.57-4.4-7.02-9.71-14.78-18.86-22.31-28.18-25.54-32.06-51.96-64.38-74.25-98.49h0Z"/><path class="cls-67" d="M87.98,248.38c23.3,33.9,49.7,65.49,75.42,97.55,7.35,9.48,15,18.78,21.49,28.89,.87,1.48,1.82,2.93,2.37,4.59,0,0-.14,.04-.14,.04-.61-1.58-1.63-2.99-2.57-4.4-7.02-9.71-14.78-18.86-22.31-28.18-25.54-32.06-51.96-64.38-74.25-98.49h0Z"/><path class="cls-67" d="M190.29,9.78c11.63,18.48,24.64,36.54,37.75,53.98,16.5,21.93,33.93,43.19,52.88,63.06l.11-.1c-31.77-37.63-63.18-75.76-90.25-116.94h-.49Z"/><path class="cls-67" d="M205.86,54.7c25.18,37.34,57.66,71.46,87.31,105.36,0,0-.11,.1-.11,.1-16.28-16.04-31.54-33.07-46.12-50.67-14.42-17.55-29.3-35.67-41.08-54.79h0Z"/><path class="cls-67" d="M174.48,62.37c28.98,39.89,65.24,76.57,98.2,113.29,0,0-.11,.1-.11,.1-17.94-17.44-34.96-35.82-51.34-54.73-16.23-18.87-33.07-38.17-46.75-58.67h0Z"/><path class="cls-67" d="M61.66,106.1c28.98,39.89,65.24,76.57,98.2,113.29,0,0-.11,.1-.11,.1-17.94-17.44-34.96-35.82-51.34-54.73-16.23-18.87-33.07-38.17-46.75-58.67h0Z"/><path class="cls-67" d="M200.86,264.21c28.98,39.89,65.24,76.57,98.2,113.29,0,0-.11,.1-.11,.1-17.94-17.44-34.96-35.82-51.34-54.73-16.23-18.87-33.07-38.17-46.75-58.67h0Z"/><path class="cls-67" d="M177.33,175.79c20.32,30.59,44.92,57.92,69.1,85.45,0,0-.11,.11-.11,.11-13.3-12.68-25.42-26.53-36.85-40.89-11.34-14.28-22.87-29.28-32.15-44.67h0Z"/><path class="cls-67" d="M43.53,105.42c20.32,30.59,44.92,57.92,69.1,85.45,0,0-.11,.1-.11,.1-13.3-12.68-25.42-26.53-36.85-40.89-11.34-14.28-22.87-29.28-32.15-44.67h0Z"/><path class="cls-67" d="M81.05,642.25h1.86c-14.35-16.85-28.18-34.12-40.44-52.59,9.28,15.39,20.8,30.39,32.15,44.67,2.12,2.66,4.27,5.3,6.44,7.92Z"/><path class="cls-67" d="M121.23,198.2c23.97,36.19,52.58,71.69,78.14,106.79,0,0-.12,.09-.12,.09-14.26-16.85-27.63-34.43-40.55-52.32-12.8-17.84-26.19-36.04-37.48-54.56h0Z"/><path class="cls-67" d="M63.55,38.84c43.07,61.95,91.45,124.63,132.63,187.78,0,0-.13,.07-.13,.07l-1.96-3c-2.04-2.89-4.18-5.95-6.25-8.78-40.82-57.04-84.87-118.37-124.29-176.07h0Z"/><path class="cls-67" d="M299.12,501.63c-31.17-37.26-61.52-75.32-87.18-116.64,13.58,23.4,29.85,46.2,46.26,68.04,12.96,17.23,26.52,34.04,40.92,50.09v-1.5Z"/><path class="cls-67" d="M50.07,452.74c13.9,22.41,28.27,44.52,43.06,66.35,12.83,18.89,32.33,46.44,44.31,65.54,0,0-.13,.08-.13,.08-1.86-2.72-3.79-5.39-5.75-8.05-28.98-39.92-56.6-81.66-81.49-123.92h0Z"/><path class="cls-67" d="M109.48,453.85c9.42,15.04,19.77,31.29,29.76,45.88,7.76,11.25,15.77,22.31,23.85,33.33,2.67,3.69,5.42,7.36,7.7,11.33l-.13,.08c-5.36-7.38-11.4-14.23-16.82-21.57-10.89-14.65-20.62-30.12-30.33-45.56-3.57-5.79-10.68-17.56-14.15-23.41,0,0,.13-.08,.13-.08h0Z"/><path class="cls-67" d="M14.51,363.15c23.59,26.37,50.08,54.34,72.37,81.67,0,0-.11,.1-.11,.1-12.66-13.07-24.71-26.7-36.58-40.49-8.77-10.26-27.38-31.01-35.68-41.28h0Z"/><path class="cls-67" d="M134.17,513.53c18.25,26.45,41.69,50.83,61.95,75.73,0,0-.11,.1-.11,.1-11.54-11.57-22.28-23.9-32.55-36.6-10.13-12.64-20.99-25.61-29.29-39.23h0Z"/><path class="cls-67" d="M10.49,126.33v1.67c3.76,5.17,7.57,10.3,11.38,15.37,16.5,21.93,33.93,43.19,52.88,63.06l.11-.1c-22.07-26.14-43.98-52.52-64.37-80Z"/><path class="cls-67" d="M10.49,240.5v.41c12.73,21.06,27.45,41.6,42.29,61.35,16.5,21.93,33.93,43.19,52.88,63.06l.11-.1c-33.76-39.98-67.12-80.54-95.29-124.72Z"/><path class="cls-67" d="M10.49,564.3v1.75c1.5,1.91,3,3.82,4.5,5.7,11.43,14.36,23.56,28.21,36.85,40.89l.11-.1c-13.99-15.92-28.11-31.78-41.46-48.24Z"/><path class="cls-67" d="M10.49,532.89v1.26c7.86,10.99,16.1,21.78,24.37,32.31,15.83,20.13,32.54,39.61,50.67,57.7l.11-.1c-26.02-29.56-51.88-59.4-75.15-91.17Z"/><path class="cls-67" d="M10.49,452.69v.99c13.52,20.76,28.2,41.08,42.67,61.09,20.21,27.77,41.19,55,63.29,81.3l.12-.09c-35.41-46.67-73.29-94.19-106.08-143.28Z"/><path class="cls-67" d="M10.49,323.68v1.42c7.17,9.49,14.45,18.87,21.7,28.17,22.22,28.33,45.4,55.92,69.79,82.41,0,0,.11-.1,.11-.1-30.8-37.01-62.43-73.55-91.6-111.9Z"/><path class="cls-67" d="M12.38,9.78c2.77,3.23,5.53,6.44,8.28,9.64,16.39,18.91,33.4,37.28,51.34,54.73,0,0,.11-.1,.11-.1C53.07,52.82,32.92,31.61,13.71,9.78h-1.33Z"/><path class="cls-67" d="M299.12,108.79c-26.99-32.04-53.62-64.52-77.41-99.01h-.8c9.26,13.84,19.14,27.41,29.07,40.63,15.4,20.47,31.64,40.35,49.14,59.06v-.68Z"/><path class="cls-67" d="M299.12,605.93c-30.91-32.83-61.1-66.39-87.16-103.24,15.86,23.98,34.9,46.82,53.84,68.79,10.8,12.43,21.89,24.62,33.33,36.48v-2.03Z"/></g><g><path class="cls-39" d="M93.13,117.11c20.92,33.98,46.47,64.69,69.54,97.18,0,0-.16,.13-.16,.13-13.24-14.94-25.3-30.85-36.76-47.18-11.3-16.24-23.39-33.02-32.62-50.13h0Z"/><path class="cls-39" d="M203.23,430.44c29.02,46.61,64.27,88.81,99.25,130.99,0,0-.15,.14-.15,.14-19.15-19.69-36.59-40.97-53.02-62.95-16.32-21.87-32.76-44.77-46.08-68.18h0Z"/><path class="cls-39" d="M197.9,274.47c29.02,46.61,64.27,88.81,99.25,130.99,0,0-.15,.14-.15,.14-19.15-19.69-36.59-40.97-53.02-62.95-16.32-21.87-32.76-44.77-46.08-68.18h0Z"/><path class="cls-39" d="M183.49,49.86c29.02,46.61,64.27,88.81,99.25,130.99,0,0-.15,.14-.15,.14-19.15-19.69-36.59-40.97-53.02-62.95-16.32-21.87-32.76-44.77-46.08-68.18h0Z"/><path class="cls-39" d="M173.17,495.93c33.72,47.58,74.56,89.38,114.31,131.85,0,0-.14,.14-.14,.14-21.49-19.71-41.45-41.01-60.51-63.06-18.84-22.01-38.06-44.93-53.66-68.94h0Z"/><path class="cls-39" d="M67.75,315.86c15.6,22.54,32.56,44.09,49.72,65.45,16.04,20.06,33.07,39.48,47.24,60.96,.87,1.48,1.8,2.95,2.32,4.62l-.19,.06c-.63-1.57-1.67-2.96-2.62-4.37-7.09-9.66-14.88-18.77-22.44-28.07-25.48-32.06-52.01-64.53-74.03-98.66h0Z"/><path class="cls-39" d="M161.54,63.21c29.02,46.61,64.27,88.81,99.25,130.99,0,0-.15,.14-.15,.14-19.15-19.69-36.59-40.97-53.02-62.95-16.32-21.87-32.76-44.77-46.08-68.18h0Z"/><path class="cls-39" d="M185.63,122.19c25.67,37.85,57.65,70.71,87.31,105.36,0,0-.14,.14-.14,.14-16.48-15.85-31.74-32.9-46.25-50.56-14.32-17.58-29.38-35.8-40.91-54.94h0Z"/><path class="cls-39" d="M154.25,129.86c29.51,40.45,65.2,75.76,98.2,113.29,0,0-.14,.14-.14,.14-18.14-17.26-35.15-35.64-51.47-54.61-16.13-18.9-33.16-38.3-46.58-58.81h0Z"/><path class="cls-39" d="M41.43,173.59c29.51,40.45,65.2,75.76,98.2,113.29,0,0-.14,.14-.14,.14-18.14-17.26-35.15-35.64-51.47-54.61-16.13-18.9-33.16-38.3-46.58-58.81h0Z"/><path class="cls-39" d="M180.63,331.7c29.51,40.45,65.2,75.76,98.2,113.29,0,0-.14,.14-.14,.14-18.14-17.26-35.15-35.64-51.47-54.61-16.13-18.9-33.16-38.3-46.58-58.81h0Z"/><path class="cls-39" d="M23.3,172.91c20.03,30.12,45.57,57.96,69.1,85.45,0,0-.14,.14-.14,.14-13.49-12.49-25.62-26.36-36.99-40.78-11.25-14.31-22.94-29.41-31.97-44.81h0Z"/><path class="cls-39" d="M74,361.88c24.45,36.76,52.56,70.84,78.14,106.79,0,0-.16,.12-.16,.12-14.47-16.69-27.83-34.27-40.69-52.22-12.71-17.86-26.26-36.17-37.3-54.69h0Z"/><path class="cls-39" d="M43.32,106.32c43.11,61.92,91.86,124.37,132.63,187.78,0,0-.18,.09-.18,.09,0,0-1.99-2.98-1.99-2.98-2.06-2.88-4.21-5.93-6.29-8.75-41.02-56.86-85-118.44-124.18-176.15h0Z"/><path class="cls-39" d="M191.71,452.48c29.02,46.61,64.27,88.81,99.25,130.99,0,0-.15,.14-.15,.14-19.15-19.69-36.59-40.97-53.02-62.95-16.32-21.87-32.76-44.77-46.08-68.18h0Z"/><path class="cls-39" d="M89.25,521.34c9.48,15,19.88,31.22,29.9,45.78,7.81,11.22,15.84,22.25,23.82,33.34,2.64,3.71,5.36,7.41,7.58,11.42,0,0-.17,.11-.17,.11-5.47-7.3-11.54-14.11-17-21.43-5.52-7.28-10.56-14.91-15.56-22.54-7.26-11.02-14.94-23.43-21.77-34.8,0,0-6.98-11.76-6.98-11.76,0,0,.17-.1,.17-.1h0Z"/><path class="cls-39" d="M113.94,581.02c13.36,19.61,29.76,36.82,44.68,55.2,.98,1.25,1.99,2.46,2.96,3.72l-.15,.14c-9.41-8.51-17.72-18.12-25.5-28.12-7.87-9.91-15.41-20.11-22.16-30.83,0,0,.17-.11,.17-.11h0Z"/></g></g><g id="Ebene_9"><polygon points="80.82 97.1 99.53 133.24 78.28 98.53 80.82 97.1 80.82 97.1"/><path d="M11.46,642.39c81.74-1.11,207.63-1.1,288.42-1.55,0,0-1.69,1.69-1.69,1.69,0,0-.16-79-.16-79,.24-178.92,2.04-374.41,.72-552.97,0,0,1.12,1.12,1.12,1.12l-144.28,.6s-144.28,.32-144.28,.32c0,0,2.04-2.04,2.04-2.04,0,0,.13,78.8,.13,78.8,.05,170.99-.99,381.76-2.03,553.03h0Zm-.29,.29c-1.13-200.58-2.45-431.94-1.89-632.11,0,0,0-2.04,0-2.04,0,0,2.03,0,2.03,0,0,0,144.28,.32,144.28,.32,0,0,144.28,.6,144.28,.6,0,0,1.13,0,1.13,0v1.12c-1.55,205.74,1.19,426.04,.56,631.97,0,0,0,1.69,0,1.69,0,0-1.69,0-1.69,0-80.7,.36-207.11-1.27-288.71-1.55h0Z"/></g></svg>